# Blender 3.3.1
# www.blender.org
o Cube
v -0.786443 0.120175 1.857424
v -1.111177 3.382089 -1.857424
v 1.111177 0.120175 1.532233
v -0.140436 3.382089 1.532233
v 0.786443 0.120175 1.857424
v 1.111177 3.382089 -1.857424
v 1.111177 3.382089 1.857424
v 0.786443 0.120175 1.532233
v 0.814691 0.000067 1.829137
v 1.082929 0.000067 1.560520
v 0.814691 0.000067 1.560520
v 0.814691 0.110247 1.829137
v 1.082929 0.110247 1.560520
v 0.814691 0.110247 1.560520
v 0.140436 3.382089 -1.728470
v 0.993912 3.382089 -1.728470
v 1.111177 0.120175 1.857394
v 1.082929 0.000067 1.829137
v 1.082929 0.110247 1.829137
v 0.993912 3.382089 -0.420505
v 0.140436 3.382089 -0.420505
v 0.140436 3.963672 -1.728470
v 0.940351 3.963672 -1.674345
v 0.993912 3.963672 -1.728470
v 0.993912 3.963672 -0.420505
v 0.140436 3.963672 -0.420505
v 0.193996 3.963672 -1.674345
v 0.940351 3.963672 -0.469971
v 0.193996 3.963672 -0.469971
v 0.940351 3.381251 -1.674345
v 0.940351 3.381251 -0.469971
v 0.193996 3.381251 -1.674345
v 0.193996 3.381251 -0.469971
v -1.111177 0.120175 1.532233
v -1.111177 3.382089 1.857424
v -0.993912 3.382089 1.532233
v -0.786443 0.120175 1.532233
v -0.814691 0.000067 1.829137
v -1.082929 0.000067 1.560520
v -0.814691 0.000067 1.560520
v -0.814691 0.110247 1.829137
v -1.082929 0.110247 1.560520
v -0.814691 0.110247 1.560520
v -0.993912 3.382089 -1.728470
v -1.111177 0.120175 1.857424
v -1.082929 0.000067 1.829137
v -1.082929 0.110247 1.829137
v -0.140436 3.382089 -1.728470
v -0.993912 3.382089 -0.420505
v -0.140436 3.382089 -0.420505
v -0.140436 3.963672 -1.728470
v -0.940351 3.963672 -1.674345
v -0.993912 3.963672 -1.728470
v -0.993912 3.963672 -0.420505
v -0.140436 3.963672 -0.420505
v -0.193996 3.963672 -1.674345
v -0.940351 3.963672 -0.469971
v -0.193996 3.963672 -0.469971
v -0.940351 3.381251 -1.674345
v -0.940351 3.381251 -0.469971
v -0.193996 3.381251 -1.674345
v -0.193996 3.381251 -0.469971
v 1.111177 0.120175 -1.532233
v 0.786443 0.120175 -1.857424
v 0.786443 0.120175 -1.532233
v 0.814691 0.000067 -1.829137
v 1.082929 0.000067 -1.560520
v 0.814691 0.000067 -1.560520
v 0.814691 0.110247 -1.829137
v 1.082929 0.110247 -1.560520
v 0.814691 0.110247 -1.560520
v 1.111177 0.120175 -1.857424
v 1.082929 0.000067 -1.829137
v 1.082929 0.110247 -1.829137
v -1.111177 0.120175 -1.532233
v -0.786443 0.120175 -1.857424
v -0.786443 0.120175 -1.532233
v -0.814691 0.000067 -1.829137
v -1.082929 0.000067 -1.560520
v -0.814691 0.000067 -1.560520
v -0.814691 0.110247 -1.829137
v -1.082929 0.110247 -1.560520
v -0.814691 0.110247 -1.560520
v -1.111177 0.120175 -1.857424
v -1.082929 0.000067 -1.829137
v -1.082929 0.110247 -1.829137
v 0.993912 3.382089 -1.728470
v 0.140436 3.382089 -1.728470
v 0.993912 3.382089 -0.420505
v 0.140436 3.382089 -0.420505
v 0.140436 3.963672 -1.728470
v 0.940351 3.963672 -1.674345
v 0.993912 3.963672 -1.728470
v 0.993912 3.963672 -0.420505
v 0.140436 3.963672 -0.420505
v 0.193996 3.963672 -1.674345
v 0.940351 3.963672 -0.469971
v 0.193996 3.963672 -0.469971
v 0.940351 3.381251 -1.674345
v 0.940351 3.381251 -0.469971
v 0.193996 3.381251 -1.674345
v 0.193996 3.381251 -0.469971
v 0.993912 3.382089 -0.070189
v 0.140436 3.382089 -0.070189
v 0.993912 3.382089 1.237777
v 0.140436 3.382089 1.237777
v 0.140436 3.831322 -0.070189
v 0.940351 3.831322 -0.016063
v 0.993912 3.831322 -0.070189
v 0.993912 3.831322 1.237777
v 0.140436 3.831322 1.237777
v 0.193996 3.831322 -0.016063
v 0.940351 3.831322 1.188310
v 0.193996 3.831322 1.188310
v 0.940351 3.381251 -0.016063
v 0.940351 3.381251 1.188310
v 0.193996 3.381251 -0.016063
v 0.193996 3.381251 1.188310
v 1.111177 0.120175 -1.857424
v -0.993912 3.382089 -0.284898
v -0.140436 3.382089 -0.284898
v -1.111177 0.120175 -1.857424
v -0.193775 3.342555 1.435276
v -0.956172 3.342555 1.435276
v -0.956172 3.342555 -0.187941
v -0.193775 3.342555 -0.187941
v -0.193775 3.342555 1.435276
v -0.956172 3.342555 1.435276
v -0.956172 3.342555 -0.187941
v -0.193775 3.342555 -0.187941
v -0.956172 3.342555 -0.106780
v -0.956172 3.342555 -0.025620
v -0.956172 3.342555 0.055541
v -0.956172 3.342555 0.136702
v -0.956172 3.342555 0.217863
v -0.956172 3.342555 0.299024
v -0.956172 3.342555 0.380185
v -0.956172 3.342555 0.461345
v -0.956172 3.342555 0.542506
v -0.956172 3.342555 0.623667
v -0.956172 3.342555 0.704828
v -0.956172 3.342555 0.785989
v -0.956172 3.342555 0.867150
v -0.956172 3.342555 0.948311
v -0.956172 3.342555 1.029472
v -0.956172 3.342555 1.110632
v -0.956172 3.342555 1.191793
v -0.956172 3.342555 1.272954
v -0.956172 3.342555 1.354115
v -0.193775 3.342555 -0.106780
v -0.193775 3.342555 -0.025620
v -0.193775 3.342555 0.055541
v -0.193775 3.342555 0.136702
v -0.193775 3.342555 0.217863
v -0.193775 3.342555 0.299024
v -0.193775 3.342555 0.380185
v -0.193775 3.342555 0.461345
v -0.193775 3.342555 0.542506
v -0.193775 3.342555 0.623667
v -0.193775 3.342555 0.704828
v -0.193775 3.342555 0.785989
v -0.193775 3.342555 0.867150
v -0.193775 3.342555 0.948311
v -0.193775 3.342555 1.029472
v -0.193775 3.342555 1.110632
v -0.193775 3.342555 1.191793
v -0.193775 3.342555 1.272954
v -0.193775 3.342555 1.354115
v -0.193775 3.353629 1.435276
v -0.956172 3.353629 1.435276
v -0.956172 3.353629 1.354115
v -0.193775 3.353629 1.354115
v -0.956172 3.353629 -0.106780
v -0.956172 3.353629 -0.025620
v -0.956172 3.353629 0.055541
v -0.956172 3.353629 0.136702
v -0.956172 3.353629 0.217863
v -0.956172 3.353629 0.299024
v -0.956172 3.353629 0.380185
v -0.956172 3.353629 0.461345
v -0.956172 3.353629 0.542506
v -0.956172 3.353629 0.623667
v -0.956172 3.353629 0.704828
v -0.956172 3.353629 0.785989
v -0.956172 3.353629 0.867150
v -0.956172 3.353629 0.948311
v -0.956172 3.353629 1.029472
v -0.956172 3.353629 1.110632
v -0.956172 3.353629 1.191793
v -0.956172 3.353629 1.272954
v -0.193775 3.353629 -0.106780
v -0.193775 3.353629 -0.025620
v -0.193775 3.353629 0.055541
v -0.193775 3.353629 0.136702
v -0.193775 3.353629 0.217863
v -0.193775 3.353629 0.299024
v -0.193775 3.353629 0.380185
v -0.193775 3.353629 0.461345
v -0.193775 3.353629 0.542506
v -0.193775 3.353629 0.623667
v -0.193775 3.353629 0.704828
v -0.193775 3.353629 0.785989
v -0.193775 3.353629 0.867150
v -0.193775 3.353629 0.948311
v -0.193775 3.353629 1.029472
v -0.193775 3.353629 1.110632
v -0.193775 3.353629 1.191793
v -0.193775 3.353629 1.272954
v -0.907526 1.840584 1.857424
v -0.907526 3.083176 1.857424
v 0.907526 3.083176 1.857424
v 0.907526 1.840584 1.857424
v -1.111177 3.382089 1.857424
v -1.111177 0.120175 1.857455
v 0.907526 3.083176 2.230333
v -0.907526 3.083176 2.230333
v -0.907526 1.840584 2.230333
v 0.907526 1.840584 2.230333
v -0.907526 1.840584 1.924770
v -0.907526 1.840584 2.135197
v -0.907526 3.083176 2.135197
v -0.907526 3.083176 1.924770
v 0.907526 1.840584 1.924770
v 0.907526 1.840584 2.135197
v 0.907526 3.083176 1.924770
v 0.907526 3.083176 2.135197
v -0.739229 1.955801 1.944282
v -0.739229 1.955801 2.115685
v -0.739229 2.967959 2.115685
v -0.739229 2.967959 1.944282
v 0.739229 1.955801 1.944282
v 0.739229 1.955801 2.115685
v 0.739229 2.967959 1.944282
v 0.739229 2.967959 2.115685
v 0.986827 0.277938 1.857337
v -0.985195 0.362028 1.857357
v 0.554487 1.811224 1.857576
v -0.714839 1.811231 1.857424
v 0.557436 1.495940 2.226411
v -0.627835 1.495995 2.117237
v 0.554487 1.811046 2.226715
v -0.714839 1.811053 2.226563
v 0.391638 1.496091 1.912284
v -0.475953 1.496052 1.966698
v 0.391638 1.495966 2.171444
v -0.476625 1.495981 2.117908
v 0.391639 1.349343 1.912214
v -0.389758 1.349339 1.912320
v 0.391639 1.349218 2.171374
v -0.389758 1.349214 2.171480
v 0.391639 1.349218 2.171374
v -0.389758 1.349339 1.912320
v -0.389758 1.349214 2.171480
v 0.198137 1.349332 1.932816
v 0.198137 1.315629 1.932799
v -0.196256 1.315627 1.932853
v -0.196256 1.315522 2.150862
v -0.196256 1.349330 1.932869
v -0.196256 1.349225 2.150878
v 0.079819 1.315628 1.932815
v -0.077938 1.315628 1.932837
v -0.077938 1.315522 2.150846
v 0.391639 1.349343 1.912214
v 0.198137 1.349227 2.150824
v 0.198137 1.315524 2.150808
v 0.104142 1.315588 2.017500
v -0.053615 1.315587 2.017521
v 0.113833 1.315572 2.049884
v -0.043924 1.315571 2.049906
v -0.109715 1.315581 2.028677
v -0.064774 1.315590 2.010064
v -0.077936 1.315591 2.007446
v 0.092984 1.315591 2.010043
v 0.079821 1.315592 2.007425
v 0.111597 1.315582 2.028659
v 0.055499 1.315587 2.017498
v -0.046160 1.315582 2.028680
v -0.102258 1.315587 2.017519
v -0.091099 1.315590 2.010064
v -0.102260 1.315563 2.066162
v 0.066658 1.315591 2.010042
v 0.055497 1.315564 2.066140
v 0.098169 1.315562 2.071573
v 0.048041 1.315569 2.054981
v 0.045309 1.315578 2.036251
v -0.059588 1.315561 2.071595
v -0.109716 1.315568 2.055002
v -0.112333 1.315575 2.041840
v -0.084718 1.315558 2.075916
v 0.073040 1.315559 2.075895
v 0.111599 1.120143 2.028498
v 0.098174 1.120151 2.011908
v 0.045807 1.120140 2.033595
v 0.114217 1.120137 2.041661
v 0.111598 1.120130 2.054823
v 0.073045 1.120153 2.007584
v 0.100286 1.120123 2.070000
v 0.079820 1.120120 2.076055
v 0.066657 1.120121 2.073436
v -0.109712 1.120142 2.028517
v -0.046158 1.120142 2.028520
v -0.053613 1.120148 2.017361
v -0.071156 1.120152 2.007606
v -0.112331 1.120136 2.041679
v -0.043540 1.120136 2.041682
v -0.109714 1.120129 2.054842
v -0.046159 1.120129 2.054845
v -0.091097 1.120151 2.009903
v -0.057471 1.120122 2.070021
v -0.077937 1.120119 2.076076
v -0.091100 1.120120 2.073457
v 0.055501 1.120148 2.017337
v -0.102256 1.120147 2.017359
v -0.102258 1.120124 2.066001
v 0.050067 1.120128 2.060009
v 0.557436 1.496118 1.857333
v -0.980667 0.163599 1.857451
v -0.627163 1.496067 1.966027
v 0.980764 0.163896 2.334330
v -0.984972 0.278131 2.334301
v 0.986827 0.362044 1.857284
v -0.984972 0.362336 2.334246
v 0.928059 0.362054 1.871500
v -0.926204 0.362323 2.282972
v -0.926204 0.245750 2.282972
v -0.926227 0.345699 1.871527
v 0.928059 0.345705 1.871500
v 0.928059 0.245476 1.871500
v 0.986851 0.278252 2.334270
v 0.980748 0.163599 1.857394
v -0.980654 0.163896 2.334375
v 0.986851 0.362347 2.334218
v 0.928082 0.362330 2.282945
v -0.926227 0.362051 1.871527
v 0.928061 0.345728 1.905787
v 0.928063 0.345752 1.940074
v 0.928065 0.345775 1.974361
v 0.928066 0.345798 2.008648
v 0.928068 0.345821 2.042935
v 0.928070 0.345845 2.077222
v 0.928072 0.345868 2.111509
v 0.928074 0.345891 2.145796
v 0.928076 0.345914 2.180083
v 0.928078 0.345938 2.214370
v 0.928080 0.345961 2.248658
v 0.928082 0.245756 2.282945
v -0.926206 0.345955 2.248685
v -0.926208 0.345932 2.214398
v -0.926210 0.345909 2.180111
v -0.926211 0.345885 2.145823
v -0.926213 0.345862 2.111537
v -0.926215 0.345839 2.077250
v -0.926217 0.345816 2.042962
v -0.926219 0.345792 2.008675
v -0.926221 0.345769 1.974388
v -0.926223 0.345746 1.940101
v -0.926225 0.345723 1.905814
v -0.926227 0.245471 1.871527
v -0.714030 1.495934 2.226563
v -0.714030 1.496112 1.857364
v -0.389758 1.495961 2.171551
v -0.389758 1.496086 1.912391
v -0.584093 1.350870 2.073799
v -0.583808 1.350901 2.009714
v -0.520008 1.350864 2.074084
v -0.519723 1.350894 2.009999
v -0.627849 1.350854 2.117168
v -0.627177 1.350925 1.965958
v -0.476639 1.350839 2.117840
v -0.475967 1.350911 1.966630
v -0.597223 1.350887 2.041698
v -0.506593 1.350878 2.042100
v -0.552109 1.350861 2.087214
v -0.551707 1.350904 1.996584
v -0.593697 1.350895 2.024372
v -0.509965 1.350886 2.024743
v -0.534753 1.350861 2.083841
v -0.569063 1.350904 1.999956
v -0.593851 1.350878 2.059054
v -0.510119 1.350870 2.059426
v -0.569435 1.350864 2.083687
v -0.534381 1.350900 2.000110
v -0.593719 1.116103 2.024261
v -0.583831 1.116109 2.009603
v -0.509988 1.116095 2.024633
v -0.519746 1.116102 2.009888
v -0.534775 1.116069 2.083731
v -0.520030 1.116072 2.073973
v -0.569086 1.116112 1.999846
v -0.593873 1.116086 2.058944
v -0.597246 1.116095 2.041587
v -0.510142 1.116078 2.059315
v -0.506616 1.116086 2.041989
v -0.569458 1.116073 2.083577
v -0.552132 1.116069 2.087103
v -0.534403 1.116109 2.000000
v -0.551729 1.116112 1.996473
v -0.571420 1.116092 2.041702
v -0.532441 1.116089 2.041875
v -0.551931 1.116090 2.041788
v -0.551844 1.116100 2.022299
v -0.552017 1.116081 2.061277
v -0.584115 1.116079 2.073688
v -0.532528 1.116079 2.061364
v -0.532355 1.116098 2.022386
v -0.571333 1.116102 2.022213
v -0.571506 1.116083 2.061191
v 0.430599 3.831322 0.220539
v 0.703749 3.831322 0.220539
v 0.703749 3.831322 0.951707
v 0.430599 3.831322 0.951707
v 0.430599 3.963672 -1.437742
v 0.703749 3.963672 -1.437742
v 0.703749 3.963672 -0.706574
v 0.430599 3.963672 -0.706574
v -0.703749 3.963672 -1.437742
v -0.430599 3.963672 -1.437742
v -0.430599 3.963672 -0.706574
v -0.703749 3.963672 -0.706574
v 0.423981 3.802877 0.260618
v 0.697130 3.802877 0.260618
v 0.423981 3.802877 0.991787
v 0.697130 3.802877 0.991787
v 0.423981 3.935227 -1.397663
v 0.697130 3.935227 -1.397663
v 0.423981 3.935227 -0.666495
v 0.697130 3.935227 -0.666495
v -0.437217 3.935227 -1.397663
v -0.710367 3.935227 -1.397663
v -0.710367 3.935227 -0.666495
v -0.437217 3.935227 -0.666495
vn 1.0000 -0.0000 -0.0000
vn -0.0000 1.0000 -0.0000
vn -1.0000 -0.0000 -0.0000
vn -0.0000 -1.0000 -0.0000
vn -0.0000 -1.0000 -0.0005
vn -0.0001 0.0005 -1.0000
vn 0.8018 0.0039 0.5976
vn 0.9808 -0.0063 0.1951
vn -0.1950 0.0060 -0.9808
vn -0.8315 0.0057 0.5555
vn -0.0001 -1.0000 -0.0005
vn 0.0001 -1.0000 -0.0005
vn -0.0008 -0.0003 1.0000
vn -0.0001 0.0005 1.0000
vn -0.0000 -0.0006 -1.0000
vn 1.0000 -0.0000 -0.0001
vn -1.0000 -0.0000 0.0001
vn -0.0000 1.0000 -0.0007
vn -0.0004 1.0000 -0.0007
vn -0.0000 -1.0000 0.0006
vn 0.9986 -0.0532 -0.0000
vn -0.3316 -0.9434 -0.0000
vn 0.3316 -0.9434 -0.0000
vn -0.0000 -0.9435 0.3314
vn -0.0000 -0.9436 -0.3311
vn -0.0000 -0.0000 -1.0000
vn -0.0000 -0.0000 1.0000
vn 0.7233 0.6905 -0.0000
vn -0.0000 -0.9436 0.3311
vn -0.5955 0.8034 -0.0000
vn -0.0000 0.9260 -0.3776
vn -0.0000 0.9260 0.3776
vn 0.0005 -0.0008 1.0000
vn 0.0001 -0.0000 1.0000
vn -0.0000 -0.1670 0.9860
vn -0.1152 -0.0000 0.9933
vn -0.0000 0.1670 -0.9860
vn 0.1152 -0.0000 -0.9933
vn 0.1152 -0.0000 0.9933
vn -0.0000 0.1670 0.9860
vn -0.1152 -0.0000 -0.9933
vn -0.0000 -0.1670 -0.9860
vn 1.0000 0.0094 -0.0000
vn 0.0003 -0.0000 1.0000
vn -0.0001 -0.0008 1.0000
vn 0.0001 -0.0010 1.0000
vn -1.0000 -0.0026 -0.0000
vn -0.0000 1.0000 0.0005
vn -0.0044 -0.0005 1.0000
vn 0.0001 -0.0005 1.0000
vn -0.0003 -1.0000 -0.0004
vn 0.1951 0.0060 -0.9808
vn -0.6291 -0.0069 0.7773
vn 0.5556 0.0007 -0.8314
vn -0.4859 -0.0049 -0.8740
vn -0.9808 0.0001 -0.1951
vn -0.5556 -0.0007 0.8314
vn -0.9808 -0.0002 0.1950
vn -0.5555 0.0007 -0.8315
vn -0.1951 -0.0060 0.9808
vn -0.8315 -0.0005 0.5555
vn 0.1695 0.0067 0.9855
vn -0.8314 0.0004 -0.5556
vn 0.9945 0.0064 -0.1048
vn 0.8315 0.0005 -0.5555
vn -0.8589 0.0004 -0.5121
vn 0.1951 -0.0042 -0.9808
vn -0.9872 -0.0061 0.1592
vn 0.5556 0.0068 -0.8314
vn -0.1144 -0.0048 -0.9934
vn -0.0000 0.0005 1.0000
vn 0.0002 0.0005 1.0000
vn 0.0015 -0.0004 1.0000
vn -0.0000 0.0006 1.0000
vn -0.0000 1.0000 -0.0016
vn -0.0000 1.0000 -0.0003
vn -0.9993 -0.0378 0.0001
vn -0.0002 1.0000 -0.0006
vn -1.0000 -0.0000 0.0005
vn 0.0003 1.0000 -0.0007
vn -0.0000 1.0000 -0.0006
vn 0.9986 -0.0531 -0.0000
vn -0.0000 -1.0000 0.0007
vn -0.0001 -1.0000 -0.0006
vn -0.0000 -1.0000 -0.0006
vn 0.1907 -0.0005 0.9816
vn -1.0000 0.0001 -0.0044
vn 0.0044 0.0005 -1.0000
vn 1.0000 -0.0001 0.0044
vn -0.5519 0.0004 -0.8339
vn -0.1994 -0.0004 0.9799
vn 0.9816 -0.0000 -0.1907
vn 0.5519 -0.0004 0.8339
vn 0.9799 -0.0002 0.1994
vn -0.9799 0.0002 -0.1994
vn 0.8339 0.0002 -0.5519
vn 0.5593 0.0003 -0.8290
vn -0.9816 -0.0000 0.1907
vn -0.8290 0.0003 -0.5593
vn -0.5593 -0.0003 0.8290
vn 0.8290 -0.0003 0.5592
vn -0.8339 -0.0002 0.5519
vn -0.1907 0.0005 -0.9816
vn 0.1994 0.0004 -0.9799
vn -0.0000 0.8155 0.5788
vn 0.9740 -0.2266 -0.0000
vn -0.9740 0.2266 -0.0000
vn 0.8107 0.0055 0.5855
vn -0.0002 -0.0000 1.0000
vn -0.0000 -0.0002 1.0000
vn -0.0000 0.0052 1.0000
vn -0.0001 -0.0000 1.0000
vn 0.0005 -1.0000 -0.0005
vn -0.4860 0.0049 0.8740
vn 0.4860 -0.0049 -0.8740
vn 0.2837 -0.0046 0.9589
vn 0.9808 0.0002 -0.1950
vn -0.8787 0.0042 -0.4774
vn 0.1695 -0.0067 -0.9855
vn 0.7773 -0.0057 -0.6291
vn -0.9895 -0.0045 0.1443
vn -0.1951 0.0008 -0.9808
vn -0.0000 0.0001 1.0000
vn -0.0000 1.0000 -0.0002
vn -0.9997 -0.0228 -0.0035
vn -0.0000 -1.0000 -0.0004
vn -0.0001 -1.0000 -0.0003
vn -0.0002 -1.0000 -0.0005
vn -0.8290 0.0003 -0.5592
vn 0.8290 -0.0003 0.5593
vt 0.273148 0.528331
vt 0.159230 0.281679
vt 0.570046 0.498257
vt 0.228243 0.258323
vt 0.251587 0.236735
vt 0.399145 0.506739
vt 0.094775 0.506742
vt 0.377583 0.528331
vt 0.468154 0.011677
vt 0.011672 0.281679
vt 0.422488 0.498257
vt 0.468154 0.258331
vt 0.011672 0.528334
vt 0.639050 0.228254
vt 0.377583 0.506739
vt 0.971031 0.539410
vt 0.799701 0.933150
vt 0.313599 0.941728
vt 0.831001 0.968026
vt 0.213233 0.949902
vt 0.331409 0.923892
vt 0.799701 0.950985
vt 0.313599 0.923892
vt 0.831001 0.950216
vt 0.807016 0.933149
vt 0.379459 0.526452
vt 0.978347 0.539410
vt 0.220548 0.949902
vt 0.397269 0.508617
vt 0.838317 0.968026
vt 0.807016 0.950984
vt 0.379459 0.508617
vt 0.838317 0.950216
vt 0.076126 0.290241
vt 0.019458 0.290241
vt 0.251587 0.258325
vt 0.399145 0.528329
vt 0.639050 0.011672
vt 0.213233 0.967737
vt 0.331409 0.941728
vt 0.971031 0.521601
vt 0.220548 0.967737
vt 0.397269 0.526452
vt 0.978347 0.521601
vt 0.019458 0.377086
vt 0.076126 0.377086
vt 0.148352 0.551678
vt 0.095240 0.555272
vt 0.838143 0.274797
vt 0.461158 0.745425
vt 0.091684 0.551678
vt 0.091684 0.638523
vt 0.148352 0.638523
vt 0.144796 0.555272
vt 0.838143 0.324351
vt 0.774028 0.384987
vt 0.095240 0.635239
vt 0.797372 0.384986
vt 0.461158 0.665459
vt 0.797372 0.434542
vt 0.144796 0.635239
vt 0.774028 0.464954
vt 0.799472 0.274797
vt 0.673402 0.281675
vt 0.422488 0.745427
vt 0.422488 0.665461
vt 0.836043 0.384986
vt 0.673402 0.361642
vt 0.735359 0.384986
vt 0.799472 0.324351
vt 0.722958 0.281675
vt 0.836043 0.434542
vt 0.722958 0.361642
vt 0.735359 0.464953
vt 0.011672 0.033275
vt 0.251587 0.506739
vt 0.228243 0.011672
vt 0.159230 0.528334
vt 0.923608 0.642253
vt 0.151444 0.506743
vt 0.273148 0.506739
vt 0.355508 0.955191
vt 0.145127 0.964039
vt 0.422488 0.922747
vt 0.903254 0.951303
vt 0.585996 0.949917
vt 0.440299 0.940583
vt 0.145127 0.946204
vt 0.422488 0.940583
vt 0.903254 0.969113
vt 0.362824 0.955191
vt 0.152442 0.964039
vt 0.271273 0.526452
vt 0.593311 0.949917
vt 0.253462 0.508617
vt 0.910570 0.951303
vt 0.152442 0.946204
vt 0.271273 0.508617
vt 0.910570 0.969113
vt 0.151444 0.290241
vt 0.707085 0.608447
vt 0.566952 0.825434
vt 0.011672 0.011684
vt 0.251587 0.528331
vt 0.355508 0.973000
vt 0.585996 0.932082
vt 0.440299 0.922747
vt 0.362824 0.973000
vt 0.593311 0.932082
vt 0.253462 0.526452
vt 0.094775 0.290241
vt 0.073628 0.661867
vt 0.566952 0.768766
vt 0.151444 0.377086
vt 0.707085 0.521603
vt 0.011672 0.828723
vt 0.011672 0.772057
vt 0.073628 0.748712
vt 0.094775 0.377086
vt 0.593390 0.391864
vt 0.112241 0.661868
vt 0.528337 0.768766
vt 0.646502 0.395458
vt 0.844234 0.644053
vt 0.290255 0.695529
vt 0.662394 0.011672
vt 0.745698 0.608445
vt 0.528337 0.825434
vt 0.650058 0.391864
vt 0.745698 0.521601
vt 0.050287 0.828723
vt 0.650058 0.478709
vt 0.112241 0.748713
vt 0.050287 0.772057
vt 0.593390 0.478709
vt 0.596946 0.395458
vt 0.844234 0.594499
vt 0.773962 0.091638
vt 0.711949 0.011672
vt 0.797306 0.168854
vt 0.646502 0.475425
vt 0.290255 0.775496
vt 0.662394 0.091639
vt 0.797306 0.119298
vt 0.596946 0.475425
vt 0.773962 0.011672
vt 0.711949 0.091639
vt 0.805562 0.644053
vt 0.711949 0.114983
vt 0.251586 0.695528
vt 0.251586 0.775495
vt 0.835977 0.168854
vt 0.711949 0.194950
vt 0.735293 0.091640
vt 0.805562 0.594499
vt 0.662394 0.114983
vt 0.835977 0.119298
vt 0.662394 0.194950
vt 0.735293 0.011674
vt 0.607557 0.908738
vt 0.585996 0.887146
vt 0.585996 0.908738
vt 0.251587 0.952814
vt 0.769042 0.950985
vt 0.011672 0.926032
vt 0.978347 0.580564
vt 0.182574 0.967737
vt 0.029482 0.943867
vt 0.769042 0.933150
vt 0.011672 0.943867
vt 0.978347 0.562754
vt 0.258902 0.952814
vt 0.776357 0.950984
vt 0.587871 0.889024
vt 0.189889 0.967737
vt 0.605682 0.906859
vt 0.971031 0.580564
vt 0.776357 0.933149
vt 0.587871 0.906859
vt 0.971031 0.562754
vt 0.607557 0.887146
vt 0.251587 0.970625
vt 0.182574 0.949902
vt 0.029482 0.926032
vt 0.258902 0.970625
vt 0.189889 0.949902
vt 0.605682 0.889024
vt 0.797372 0.479477
vt 0.818933 0.457886
vt 0.818933 0.479477
vt 0.289562 0.952814
vt 0.959958 0.750416
vt 0.528337 0.940578
vt 0.386168 0.973588
vt 0.704238 0.927835
vt 0.546147 0.922743
vt 0.959958 0.768251
vt 0.528337 0.922743
vt 0.386168 0.955779
vt 0.282246 0.952814
vt 0.967273 0.750416
vt 0.817058 0.459764
vt 0.711554 0.927835
vt 0.799247 0.477599
vt 0.393483 0.973588
vt 0.967273 0.768252
vt 0.817058 0.477599
vt 0.393483 0.955779
vt 0.797372 0.457886
vt 0.704238 0.945670
vt 0.289562 0.970625
vt 0.546147 0.940578
vt 0.282246 0.970625
vt 0.711554 0.945670
vt 0.799247 0.459764
vt 0.707084 0.631791
vt 0.745697 0.741980
vt 0.745697 0.798648
vt 0.182574 0.676382
vt 0.707084 0.718636
vt 0.073631 0.772057
vt 0.073631 0.828723
vt 0.182574 0.589538
vt 0.068340 0.551678
vt 0.221187 0.676380
vt 0.707082 0.798648
vt 0.015228 0.555272
vt 0.844234 0.521601
vt 0.567006 0.745420
vt 0.683741 0.624912
vt 0.745697 0.631791
vt 0.707082 0.741980
vt 0.011672 0.551678
vt 0.745697 0.718636
vt 0.112247 0.772057
vt 0.011672 0.638523
vt 0.221187 0.589536
vt 0.112247 0.828723
vt 0.068340 0.638523
vt 0.064784 0.555272
vt 0.844234 0.571155
vt 0.773962 0.114984
vt 0.634185 0.624912
vt 0.015228 0.635239
vt 0.797306 0.192198
vt 0.567006 0.665454
vt 0.683741 0.704878
vt 0.797306 0.241754
vt 0.064784 0.635239
vt 0.773962 0.194951
vt 0.634185 0.704878
vt 0.805562 0.521601
vt 0.528337 0.745422
vt 0.528337 0.665457
vt 0.835977 0.192198
vt 0.735293 0.114984
vt 0.805562 0.571155
vt 0.835977 0.241754
vt 0.735293 0.194950
vt 0.357435 0.698138
vt 0.852095 0.675863
vt 0.746302 0.361642
vt 0.852095 0.732531
vt 0.357435 0.784983
vt 0.251586 0.798839
vt 0.251586 0.855506
vt 0.746302 0.274798
vt 0.822267 0.732531
vt 0.650058 0.281675
vt 0.776128 0.361641
vt 0.596946 0.285269
vt 0.387318 0.808328
vt 0.212456 0.779692
vt 0.683741 0.521601
vt 0.387261 0.698139
vt 0.822267 0.675863
vt 0.593390 0.281675
vt 0.387261 0.784984
vt 0.281414 0.798839
vt 0.593390 0.368520
vt 0.776128 0.274797
vt 0.281414 0.855506
vt 0.650058 0.368520
vt 0.646502 0.285269
vt 0.387318 0.857882
vt 0.798923 0.675864
vt 0.634185 0.521601
vt 0.596946 0.365236
vt 0.182574 0.803037
vt 0.212456 0.699726
vt 0.683741 0.601568
vt 0.182574 0.852593
vt 0.646502 0.365236
vt 0.798923 0.755830
vt 0.634185 0.601568
vt 0.357435 0.808328
vt 0.182574 0.779693
vt 0.182574 0.699728
vt 0.212457 0.803037
vt 0.769042 0.675863
vt 0.357435 0.857882
vt 0.212457 0.852593
vt 0.769042 0.755830
vt 0.399145 0.281675
vt 0.251587 0.011672
vt 0.422488 0.281675
vt 0.923608 0.521601
vt 0.151444 0.386090
vt 0.094775 0.386090
vt 0.251587 0.281675
vt 0.570046 0.281675
vt 0.011672 0.258335
vt 0.098317 0.500305
vt 0.921013 0.635810
vt 0.148938 0.500305
vt 0.921013 0.528034
vt 0.148938 0.392528
vt 0.098317 0.392528
vt 0.963514 0.011672
vt 0.842277 0.463274
vt 0.963514 0.062291
vt 0.984037 0.791595
vt 0.045793 0.902688
vt 0.045793 0.852067
vt 0.040405 0.902688
vt 0.561317 0.969311
vt 0.940505 0.946912
vt 0.318988 0.900548
vt 0.561317 0.963922
vt 0.965459 0.244471
vt 0.987593 0.017061
vt 0.313599 0.900548
vt 0.943123 0.399382
vt 0.216695 0.926558
vt 0.987593 0.011672
vt 0.965459 0.169917
vt 0.987593 0.045793
vt 0.211306 0.926558
vt 0.735632 0.947839
vt 0.914933 0.062293
vt 0.987593 0.040405
vt 0.966467 0.325416
vt 0.909544 0.062293
vt 0.118999 0.980950
vt 0.947687 0.646186
vt 0.774431 0.909805
vt 0.118999 0.975561
vt 0.963849 0.946910
vt 0.769042 0.909805
vt 0.947687 0.572222
vt 0.980145 0.866649
vt 0.907691 0.481678
vt 0.634185 0.961832
vt 0.980145 0.861260
vt 0.954847 0.726484
vt 0.902302 0.481678
vt 0.978191 0.723172
vt 0.074526 0.902688
vt 0.667272 0.960572
vt 0.978191 0.717783
vt 0.069137 0.902688
vt 0.943123 0.325418
vt 0.971031 0.651216
vt 0.456610 0.899403
vt 0.966467 0.399381
vt 0.971031 0.645827
vt 0.451221 0.899403
vt 0.959958 0.796984
vt 0.932722 0.872947
vt 0.362824 0.931847
vt 0.484501 0.968379
vt 0.959958 0.791595
vt 0.357435 0.931847
vt 0.872170 0.981622
vt 0.682778 0.778843
vt 0.562458 0.899399
vt 0.872170 0.976233
vt 0.956272 0.481676
vt 0.557069 0.899399
vt 0.984037 0.796984
vt 0.956801 0.872947
vt 0.040405 0.852067
vt 0.576309 0.251598
vt 0.940505 0.896291
vt 0.576309 0.256986
vt 0.318988 0.849927
vt 0.965459 0.193852
vt 0.313599 0.849927
vt 0.909544 0.085637
vt 0.943123 0.348761
vt 0.216695 0.875937
vt 0.909544 0.091026
vt 0.965459 0.119298
vt 0.211306 0.875937
vt 0.938277 0.086226
vt 0.735632 0.897218
vt 0.914933 0.011672
vt 0.938277 0.091615
vt 0.966467 0.274797
vt 0.909544 0.011672
vt 0.947687 0.595565
vt 0.735359 0.488297
vt 0.774431 0.859184
vt 0.963849 0.896291
vt 0.735359 0.493686
vt 0.769042 0.859184
vt 0.947687 0.521601
vt 0.759438 0.488297
vt 0.907691 0.431057
vt 0.634185 0.911213
vt 0.759438 0.493686
vt 0.954847 0.675863
vt 0.902302 0.431057
vt 0.624467 0.251598
vt 0.074526 0.852067
vt 0.667272 0.909953
vt 0.624467 0.256986
vt 0.842277 0.486618
vt 0.069137 0.852067
vt 0.943123 0.274797
vt 0.842277 0.492007
vt 0.456610 0.848782
vt 0.966467 0.348761
vt 0.451221 0.848782
vt 0.682042 0.802187
vt 0.932722 0.822326
vt 0.362824 0.881226
vt 0.682042 0.807576
vt 0.484501 0.917760
vt 0.357435 0.881226
vt 0.600388 0.251598
vt 0.682778 0.728222
vt 0.562458 0.848778
vt 0.600388 0.256986
vt 0.956272 0.431057
vt 0.557069 0.848778
vt 0.956801 0.822326
vt 0.842277 0.457886
vt 0.964249 0.011672
vt 0.280319 0.878850
vt 0.843012 0.463274
vt 0.984772 0.791595
vt 0.280319 0.929471
vt 0.964249 0.062291
vt 0.285708 0.929471
vt 0.956066 0.872947
vt 0.984772 0.796984
vt 0.843012 0.457886
vt 0.285708 0.878850
vt 0.956066 0.822326
vt 0.803163 0.909805
vt 0.939770 0.946912
vt 0.562053 0.969311
vt 0.562053 0.963922
vt 0.797775 0.909805
vt 0.966194 0.244471
vt 0.187962 0.926558
vt 0.942388 0.399382
vt 0.988328 0.017061
vt 0.988328 0.011672
vt 0.182574 0.926558
vt 0.966194 0.169917
vt 0.908643 0.872947
vt 0.734897 0.947839
vt 0.988328 0.045793
vt 0.988328 0.040404
vt 0.903254 0.872947
vt 0.967202 0.325416
vt 0.103259 0.902688
vt 0.946952 0.646186
vt 0.119735 0.980950
vt 0.119735 0.975561
vt 0.097870 0.902688
vt 0.964584 0.946910
vt 0.256975 0.929470
vt 0.946952 0.572222
vt 0.980880 0.866649
vt 0.980880 0.861260
vt 0.251587 0.929470
vt 0.634920 0.961832
vt 0.954112 0.726484
vt 0.017061 0.902688
vt 0.978926 0.723171
vt 0.978926 0.717783
vt 0.668008 0.960572
vt 0.011672 0.902688
vt 0.942388 0.325418
vt 0.672661 0.886609
vt 0.971766 0.651216
vt 0.971766 0.645827
vt 0.967202 0.399381
vt 0.667272 0.886609
vt 0.533726 0.899399
vt 0.931987 0.872947
vt 0.960693 0.796984
vt 0.960693 0.791595
vt 0.528337 0.899399
vt 0.485236 0.968379
vt 0.427877 0.899403
vt 0.682042 0.778843
vt 0.872905 0.981622
vt 0.872905 0.976233
vt 0.422488 0.899403
vt 0.957007 0.481676
vt 0.577044 0.251598
vt 0.803163 0.859184
vt 0.939770 0.896291
vt 0.966194 0.193852
vt 0.577044 0.256986
vt 0.797775 0.859184
vt 0.910280 0.085637
vt 0.187962 0.875937
vt 0.942388 0.348761
vt 0.966194 0.119298
vt 0.182574 0.875937
vt 0.910280 0.091026
vt 0.939012 0.086226
vt 0.908643 0.822326
vt 0.734897 0.897218
vt 0.967202 0.274797
vt 0.903254 0.822326
vt 0.939012 0.091615
vt 0.736094 0.488297
vt 0.103259 0.852067
vt 0.946952 0.595565
vt 0.964584 0.896291
vt 0.097870 0.852067
vt 0.736094 0.493686
vt 0.760174 0.488297
vt 0.256975 0.878850
vt 0.946952 0.521601
vt 0.634920 0.911213
vt 0.251587 0.878850
vt 0.760174 0.493686
vt 0.625203 0.251598
vt 0.954112 0.675863
vt 0.017061 0.852067
vt 0.668008 0.909953
vt 0.625203 0.256986
vt 0.011672 0.852067
vt 0.843012 0.486618
vt 0.942388 0.274797
vt 0.672661 0.835988
vt 0.967202 0.348761
vt 0.843012 0.492007
vt 0.667272 0.835988
vt 0.682778 0.802187
vt 0.533726 0.848778
vt 0.931987 0.822326
vt 0.485236 0.917760
vt 0.528337 0.848778
vt 0.682778 0.807576
vt 0.601124 0.251598
vt 0.427877 0.848782
vt 0.682042 0.728222
vt 0.957007 0.431057
vt 0.422488 0.848782
vt 0.601124 0.256986
vt 0.879910 0.675863
vt 0.875439 0.819721
vt 0.505019 0.125902
vt 0.505019 0.208407
vt 0.872049 0.642115
vt 0.875439 0.902222
vt 0.625528 0.208407
vt 0.872049 0.521601
vt 0.707082 0.821992
vt 0.707082 0.904491
vt 0.879910 0.796377
vt 0.625528 0.125902
vt 0.491497 0.228254
vt 0.491497 0.011672
vt 0.859321 0.119298
vt 0.334091 0.551674
vt 0.490818 0.811917
vt 0.886201 0.094173
vt 0.334091 0.672184
vt 0.859321 0.239812
vt 0.861487 0.274797
vt 0.886201 0.011672
vt 0.251587 0.672184
vt 0.490818 0.894416
vt 0.251587 0.551674
vt 0.861487 0.395311
vt 0.875438 0.675863
vt 0.610841 0.521601
vt 0.879910 0.819721
vt 0.879884 0.011672
vt 0.867804 0.274797
vt 0.504993 0.642115
vt 0.879884 0.094172
vt 0.865638 0.239812
vt 0.422488 0.642115
vt 0.879910 0.902222
vt 0.867577 0.642115
vt 0.528337 0.521601
vt 0.711554 0.904491
vt 0.875438 0.796377
vt 0.610841 0.642111
vt 0.867804 0.395311
vt 0.484501 0.894416
vt 0.504993 0.521601
vt 0.867577 0.521601
vt 0.711554 0.821992
vt 0.528337 0.642111
vt 0.484501 0.811918
vt 0.865638 0.119298
vt 0.422488 0.521601
vt 0.603191 0.532786
vt 0.842382 0.779174
vt 0.845160 0.011672
vt 0.831001 0.779174
vt 0.856540 0.011672
vt 0.497343 0.630942
vt 0.856540 0.078874
vt 0.145127 0.867849
vt 0.430138 0.630942
vt 0.156508 0.867849
vt 0.845160 0.078873
vt 0.535987 0.532786
vt 0.867577 0.498257
vt 0.842382 0.877340
vt 0.603191 0.630948
vt 0.878958 0.498257
vt 0.497343 0.532776
vt 0.831001 0.877340
vt 0.535987 0.630948
vt 0.156508 0.769683
vt 0.867577 0.431057
vt 0.145127 0.769683
vt 0.430138 0.532777
vt 0.878958 0.431057
vt 0.319178 0.695528
vt 0.150712 0.922859
vt 0.630794 0.022147
vt 0.319178 0.826584
vt 0.214241 0.412616
vt 0.499862 0.027730
vt 0.903255 0.896295
vt 0.735293 0.242805
vt 0.602089 0.123953
vt 0.797306 0.095951
vt 0.797306 0.011672
vt 0.517812 0.123953
vt 0.662394 0.218293
vt 0.156508 0.746339
vt 0.756212 0.218306
vt 0.634193 0.812644
vt 0.432125 0.963926
vt 0.528337 0.963922
vt 0.641444 0.733945
vt 0.735293 0.218295
vt 0.135586 0.746144
vt 0.821816 0.095954
vt 0.135585 0.661867
vt 0.662394 0.242803
vt 0.821816 0.011675
vt 0.655050 0.801636
vt 0.085913 0.943239
vt 0.744641 0.873875
vt 0.313599 0.975111
vt 0.651439 0.744030
vt 0.963514 0.085635
vt 0.637843 0.801635
vt 0.643929 0.835988
vt 0.085913 0.926032
vt 0.528337 0.973962
vt 0.641399 0.743985
vt 0.313599 0.965072
vt 0.095656 0.943239
vt 0.734897 0.873875
vt 0.052826 0.943239
vt 0.734897 0.821992
vt 0.634185 0.835988
vt 0.095656 0.926032
vt 0.052826 0.926032
vt 0.634185 0.887869
vt 0.590349 0.863800
vt 0.607557 0.811920
vt 0.590350 0.811917
vt 0.708897 0.244480
vt 0.982589 0.431057
vt 0.606191 0.850954
vt 0.706659 0.244480
vt 0.845476 0.926872
vt 0.980351 0.431057
vt 0.706659 0.218293
vt 0.845476 0.900685
vt 0.980351 0.483351
vt 0.119000 0.952217
vt 0.831001 0.900684
vt 0.980351 0.468876
vt 0.606191 0.824767
vt 0.982589 0.483351
vt 0.708897 0.218293
vt 0.591716 0.824766
vt 0.121237 0.952217
vt 0.982589 0.468876
vt 0.706659 0.236624
vt 0.845476 0.919016
vt 0.706659 0.226149
vt 0.845476 0.908541
vt 0.119000 0.944362
vt 0.831001 0.908539
vt 0.607557 0.863802
vt 0.121237 0.926032
vt 0.982589 0.445532
vt 0.591716 0.850952
vt 0.119000 0.926032
vt 0.980351 0.445532
vt 0.831001 0.926870
vt 0.769042 0.987305
vt 0.839853 0.920630
vt 0.833122 0.347718
vt 0.585996 0.986237
vt 0.839853 0.910156
vt 0.704238 0.969024
vt 0.835270 0.347695
vt 0.837703 0.921273
vt 0.837703 0.910799
vt 0.706387 0.969014
vt 0.839113 0.906431
vt 0.939762 0.970262
vt 0.840348 0.909415
vt 0.586737 0.986238
vt 0.840523 0.908541
vt 0.587611 0.986238
vt 0.769783 0.987305
vt 0.840348 0.919889
vt 0.840523 0.919016
vt 0.770657 0.987305
vt 0.839112 0.921125
vt 0.833861 0.347707
vt 0.772272 0.987305
vt 0.839854 0.917401
vt 0.738127 0.971185
vt 0.704978 0.969017
vt 0.839112 0.910651
vt 0.839854 0.906926
vt 0.589225 0.986238
vt 0.940506 0.970257
vt 0.840349 0.907667
vt 0.588485 0.986238
vt 0.836624 0.906925
vt 0.798591 0.974328
vt 0.937276 0.970256
vt 0.840349 0.918142
vt 0.771531 0.987305
vt 0.734897 0.971183
vt 0.836624 0.917400
vt 0.964213 0.983231
vt 0.836712 0.347696
vt 0.836263 0.920233
vt 0.967049 0.983231
vt 0.837365 0.916905
vt 0.735636 0.971189
vt 0.838609 0.916724
vt 0.736878 0.971191
vt 0.836263 0.909759
vt 0.707829 0.969025
vt 0.795755 0.974329
vt 0.837365 0.906430
vt 0.938014 0.970261
vt 0.838239 0.906257
vt 0.938887 0.970263
vt 0.835976 0.908090
vt 0.797421 0.974329
vt 0.835976 0.918565
vt 0.965383 0.983230
vt 0.548599 0.254379
vt 0.833956 0.360682
vt 0.769439 0.974329
vt 0.832856 0.360701
vt 0.549304 0.255608
vt 0.552966 0.254740
vt 0.737044 0.984167
vt 0.834829 0.360674
vt 0.548567 0.253488
vt 0.548877 0.252653
vt 0.835703 0.360669
vt 0.771107 0.974329
vt 0.550905 0.256157
vt 0.836712 0.360670
vt 0.549779 0.251778
vt 0.967189 0.970254
vt 0.551185 0.251597
vt 0.965834 0.970254
vt 0.552020 0.251908
vt 0.964958 0.970254
vt 0.521714 0.255736
vt 0.939762 0.983238
vt 0.522537 0.251598
vt 0.704985 0.981993
vt 0.585996 0.973261
vt 0.704245 0.982000
vt 0.521714 0.251939
vt 0.520852 0.252955
vt 0.587161 0.973261
vt 0.522537 0.256077
vt 0.938887 0.983239
vt 0.705858 0.981990
vt 0.523429 0.251598
vt 0.938014 0.983237
vt 0.523429 0.256077
vt 0.524252 0.251939
vt 0.706733 0.981992
vt 0.520743 0.254283
vt 0.588485 0.973261
vt 0.707742 0.982000
vt 0.525094 0.252872
vt 0.795615 0.987305
vt 0.525223 0.254283
vt 0.796971 0.987305
vt 0.524882 0.255106
vt 0.797846 0.987305
vt 0.552158 0.255703
vt 0.738127 0.984161
vt 0.772272 0.974329
vt 0.940506 0.983233
vt 0.521084 0.255106
vt 0.589225 0.973261
vt 0.524252 0.255736
vt 0.798591 0.987305
vt 0.937276 0.983232
vt 0.963849 0.970254
vt 0.735292 0.984163
vt 0.552966 0.252964
vt 0.756212 0.242811
vt 0.658699 0.812644
vt 0.602284 0.103031
vt 0.214241 0.435960
vt 0.500163 0.014555
vt 0.916426 0.896291
vt 0.963514 0.095675
vt 0.651484 0.733990
vt 0.432125 0.973966
vt 0.158308 0.891193
vt 0.182574 0.566193
vt 0.769042 0.522005
vt 0.776628 0.652519
vt 0.908845 0.927959
vt 0.313599 0.695766
vt 0.145128 0.922859
vt 0.214241 0.281680
vt 0.903254 0.927959
vt 0.782219 0.652519
vt 0.182577 0.412603
vt 0.213297 0.285582
vt 0.492242 0.665459
vt 0.879910 0.952884
vt 0.185981 0.408700
vt 0.590350 0.788574
vt 0.936614 0.777740
vt 0.357435 0.674794
vt 0.598090 0.788574
vt 0.928875 0.777735
vt 0.935529 0.750421
vt 0.491156 0.788573
vt 0.895393 0.644720
vt 0.878825 0.952885
vt 0.491156 0.665459
vt 0.895393 0.521601
vt 0.384754 0.551675
vt 0.872170 0.952890
vt 0.484501 0.665459
vt 0.150711 0.891192
vt 0.776635 0.521601
vt 0.214241 0.566192
vt 0.158308 0.922860
vt 0.630390 0.014555
vt 0.916426 0.927957
vt 0.182575 0.435960
vt 0.769043 0.652233
vt 0.782219 0.521601
vt 0.145127 0.891192
vt 0.182574 0.281679
vt 0.590350 0.665454
vt 0.185978 0.285581
vt 0.879910 0.925565
vt 0.213300 0.408701
vt 0.492242 0.788573
vt 0.936614 0.750421
vt 0.878825 0.950608
vt 0.897669 0.521601
vt 0.878825 0.948332
vt 0.914602 0.242417
vt 0.878825 0.946055
vt 0.916879 0.242418
vt 0.878825 0.943779
vt 0.891147 0.397916
vt 0.878825 0.941502
vt 0.893424 0.397916
vt 0.878825 0.939226
vt 0.891258 0.119298
vt 0.878825 0.936949
vt 0.888981 0.119298
vt 0.878825 0.934673
vt 0.903254 0.798982
vt 0.905531 0.798982
vt 0.878825 0.932396
vt 0.878825 0.930120
vt 0.919044 0.397916
vt 0.878825 0.927843
vt 0.916768 0.397916
vt 0.357435 0.551674
vt 0.598090 0.665454
vt 0.872170 0.925571
vt 0.935529 0.775463
vt 0.916768 0.274797
vt 0.935529 0.773186
vt 0.919044 0.274797
vt 0.935529 0.770910
vt 0.905531 0.675863
vt 0.935529 0.768633
vt 0.903254 0.675863
vt 0.935529 0.766357
vt 0.888982 0.242417
vt 0.935529 0.764080
vt 0.891258 0.242418
vt 0.935529 0.761804
vt 0.893424 0.274797
vt 0.935529 0.759527
vt 0.891147 0.274797
vt 0.935529 0.757250
vt 0.916879 0.119298
vt 0.935529 0.754974
vt 0.914602 0.119298
vt 0.935529 0.752697
vt 0.897669 0.644720
vt 0.484501 0.788573
vt 0.384754 0.674795
vt 0.928874 0.750416
vt 0.683315 0.242811
vt 0.156508 0.661921
vt 0.634185 0.728222
vt 0.517866 0.103030
vt 0.683315 0.218298
vt 0.658699 0.728223
vt 0.062569 0.926032
vt 0.643929 0.887869
vt 0.637837 0.749753
vt 0.062569 0.943239
vt 0.744641 0.821992
vt 0.655045 0.749753
vt 0.080425 0.966583
vt 0.806620 0.354842
vt 0.984400 0.822326
vt 0.802364 0.354842
vt 0.011672 0.967211
vt 0.084680 0.966583
vt 0.980145 0.822326
vt 0.806620 0.350587
vt 0.057081 0.966594
vt 0.802364 0.350587
vt 0.052826 0.966594
vt 0.015927 0.967211
vt 0.537974 0.963922
vt 0.422488 0.963927
vt 0.809512 0.357734
vt 0.422488 0.973967
vt 0.973151 0.095675
vt 0.799472 0.357735
vt 0.537974 0.973962
vt 0.323235 0.965071
vt 0.809512 0.347694
vt 0.973151 0.085635
vt 0.323235 0.975111
vt 0.799472 0.347694
vt 0.804492 0.355723
vt 0.082551 0.966592
vt 0.804492 0.349706
vt 0.054956 0.966583
vt 0.807501 0.352714
vt 0.982269 0.822327
vt 0.801483 0.352714
vt 0.013802 0.967211
vt 0.803341 0.355494
vt 0.083703 0.966590
vt 0.803341 0.349935
vt 0.053804 0.966586
vt 0.807272 0.351563
vt 0.981118 0.822326
vt 0.801712 0.353866
vt 0.012650 0.967211
vt 0.805643 0.355494
vt 0.081400 0.966590
vt 0.805643 0.349935
vt 0.056107 0.966586
vt 0.807272 0.353866
vt 0.983421 0.822326
vt 0.801712 0.351563
vt 0.014953 0.967211
vt 0.083703 0.982178
vt 0.491947 0.252877
vt 0.011672 0.982801
vt 0.084680 0.982172
vt 0.492777 0.252047
vt 0.053804 0.982175
vt 0.497399 0.253962
vt 0.052826 0.982182
vt 0.015927 0.982801
vt 0.496950 0.252877
vt 0.981118 0.837916
vt 0.495035 0.257500
vt 0.980145 0.837916
vt 0.057081 0.982182
vt 0.496120 0.257050
vt 0.012650 0.982801
vt 0.493861 0.251598
vt 0.081400 0.982178
vt 0.491497 0.255136
vt 0.082551 0.982181
vt 0.491497 0.253962
vt 0.056107 0.982175
vt 0.496950 0.256220
vt 0.054956 0.982172
vt 0.497399 0.255136
vt 0.983421 0.837916
vt 0.492777 0.257050
vt 0.982269 0.837916
vt 0.493861 0.257500
vt 0.014953 0.982801
vt 0.496120 0.252047
vt 0.495035 0.251598
vt 0.013802 0.982800
vt 0.493179 0.254296
vt 0.495718 0.254801
vt 0.494448 0.254549
vt 0.494701 0.253279
vt 0.494196 0.255818
vt 0.984400 0.837916
vt 0.080425 0.982172
vt 0.491947 0.256220
vt 0.495465 0.256070
vt 0.495970 0.253532
vt 0.493432 0.253027
vt 0.492927 0.255565
vt 0.940170 0.062882
vt 0.649895 0.537310
vt 0.932928 0.431057
vt 0.668031 0.537310
vt 0.971031 0.622483
vt 0.668031 0.585858
vt 0.932928 0.479604
vt 0.649895 0.585858
vt 0.940170 0.014335
vt 0.971031 0.604347
vt 0.942115 0.245062
vt 0.649895 0.640621
vt 0.930768 0.675863
vt 0.668031 0.640621
vt 0.455469 0.982502
vt 0.930768 0.724410
vt 0.668031 0.689169
vt 0.649895 0.689169
vt 0.455469 0.964366
vt 0.942115 0.196516
vt 0.942115 0.170508
vt 0.678103 0.027382
vt 0.388061 0.881226
vt 0.696240 0.027382
vt 0.978191 0.694439
vt 0.696240 0.075929
vt 0.388061 0.929773
vt 0.942115 0.121962
vt 0.678103 0.075929
vt 0.978191 0.676302
vt 0.649455 0.539972
vt 0.938277 0.060219
vt 0.667592 0.539972
vt 0.931034 0.433719
vt 0.649455 0.588519
vt 0.938277 0.011672
vt 0.973692 0.603907
vt 0.667592 0.588519
vt 0.931034 0.482266
vt 0.973692 0.622044
vt 0.649455 0.643282
vt 0.940222 0.242399
vt 0.928874 0.678525
vt 0.667592 0.643282
vt 0.649455 0.691830
vt 0.458130 0.963926
vt 0.940222 0.193852
vt 0.928874 0.727072
vt 0.667592 0.691830
vt 0.458130 0.982063
vt 0.386168 0.883888
vt 0.695800 0.030043
vt 0.940222 0.167845
vt 0.677664 0.030043
vt 0.940222 0.119298
vt 0.677664 0.078590
vt 0.980852 0.675863
vt 0.695800 0.078590
vt 0.386168 0.932435
vt 0.980852 0.693999
s 0
f 7/12/1 17/36/1 3/5/1
f 121/309/2 4/7/2 21/46/2
f 20/45/2 7/13/2 6/10/2
f 45/103/3 35/77/3 34/75/3
f 34/76/4 122/310/4 119/304/4
f 35/78/2 4/7/2 36/80/2
f 119/304/4 8/15/4 37/81/4
f 119/304/4 3/6/4 8/15/4
f 6/10/2 16/35/2 20/45/2
f 4/7/2 35/78/2 7/13/2
f 15/34/2 121/309/2 21/46/2
f 48/111/2 15/34/2 2/2/2
f 37/81/4 34/76/4 119/304/4
f 44/100/2 48/111/2 2/2/2
f 2/2/2 49/114/2 44/100/2
f 2/2/2 120/308/2 49/114/2
f 264/708/5 251/678/5 253/680/5
f 254/681/6 255/684/6 260/699/6
f 290/768/5 283/753/5 265/711/5
f 289/766/5 286/759/5 262/704/5
f 252/679/5 254/683/5 258/693/5
f 253/680/5 259/696/5 264/708/5
f 295/780/7 283/752/7 297/783/7
f 278/739/5 256/688/5 261/702/5
f 252/679/5 258/693/5 259/696/5
f 252/679/5 259/696/5 253/680/5
f 252/679/5 263/705/5 254/683/5
f 269/721/8 307/806/8 305/801/8
f 284/755/5 269/720/5 285/757/5
f 274/731/9 296/781/9 281/748/9
f 284/756/10 315/826/10 282/749/10
f 268/718/8 295/780/8 294/777/8
f 315/827/5 293/775/5 312/816/5
f 291/770/11 294/778/11 292/774/11
f 315/827/5 312/816/5 296/782/5
f 297/784/5 315/827/5 294/778/5
f 306/804/5 300/790/5 313/820/5
f 301/792/12 305/802/12 302/796/12
f 306/804/5 313/820/5 303/797/5
f 309/810/5 306/804/5 305/802/5
f 306/804/12 311/814/12 314/822/12
f 235/635/13 17/38/13 316/830/13
f 236/638/14 214/572/14 317/832/14
f 236/636/15 321/842/15 235/633/15
f 235/634/16 321/843/16 329/866/16
f 327/860/17 328/864/17 335/883/17
f 347/908/16 324/853/16 325/856/16
f 334/882/16 357/928/16 326/857/16
f 334/882/16 356/926/16 357/928/16
f 334/882/16 355/924/16 356/926/16
f 334/882/16 354/922/16 355/924/16
f 334/882/16 353/920/16 354/922/16
f 334/882/16 352/918/16 353/920/16
f 334/882/16 351/916/16 352/918/16
f 324/853/16 349/912/16 350/914/16
f 324/853/16 348/910/16 349/912/16
f 324/853/16 347/908/16 348/910/16
f 344/901/3 346/907/3 345/903/3
f 342/897/17 328/864/17 343/900/17
f 341/895/17 328/864/17 342/897/17
f 340/893/17 328/864/17 341/895/17
f 339/891/17 328/864/17 340/893/17
f 338/889/17 328/864/17 339/891/17
f 337/887/17 328/864/17 338/889/17
f 336/885/17 328/864/17 337/887/17
f 335/883/17 328/864/17 336/885/17
f 328/863/18 358/931/18 346/905/18
f 322/847/19 324/851/19 334/880/19
f 317/831/20 330/868/20 331/872/20
f 329/866/21 319/837/21 330/869/21
f 6/9/1 3/5/1 119/305/1
f 5/8/4 37/81/4 8/15/4
f 10/20/1 19/42/1 18/39/1
f 9/17/3 14/31/3 11/22/3
f 12/26/22 8/15/22 14/32/22
f 17/37/23 13/29/23 3/6/23
f 5/8/24 19/43/24 17/37/24
f 3/6/25 14/32/25 8/15/25
f 11/24/26 13/30/26 10/19/26
f 10/21/4 9/18/4 11/23/4
f 15/34/2 6/10/2 2/2/2
f 4/7/2 20/45/2 21/46/2
f 29/61/2 25/52/2 28/57/2
f 23/48/2 22/47/2 27/54/2
f 29/60/26 31/67/26 33/72/26
f 26/53/2 27/54/2 22/47/2
f 25/52/2 23/48/2 28/57/2
f 23/49/27 32/70/27 30/63/27
f 27/56/1 33/74/1 32/69/1
f 31/68/2 32/71/2 33/73/2
f 28/59/3 30/65/3 31/66/3
f 2/3/26 119/306/26 122/311/26
f 38/82/27 47/108/27 46/105/27
f 2/4/3 34/75/3 35/77/3
f 125/316/28 36/79/28 124/314/28
f 47/109/3 39/86/3 46/106/3
f 43/97/1 38/83/1 40/88/1
f 41/93/23 37/81/23 1/1/23
f 45/104/22 42/95/22 47/110/22
f 45/104/29 41/93/29 1/1/29
f 43/98/25 34/76/25 37/81/25
f 42/96/26 40/90/26 39/85/26
f 38/84/4 39/87/4 40/89/4
f 35/78/2 120/308/2 2/2/2
f 123/313/30 121/309/30 126/318/30
f 50/119/2 15/34/2 48/111/2
f 44/101/3 54/130/3 53/127/3
f 55/135/2 57/141/2 54/132/2
f 55/134/27 49/116/27 50/117/27
f 51/120/2 52/123/2 56/136/2
f 50/118/1 51/121/1 55/133/1
f 60/152/26 58/144/26 62/157/26
f 56/136/2 55/135/2 51/120/2
f 51/122/26 44/102/26 53/128/26
f 54/132/2 52/123/2 53/129/2
f 61/155/27 52/124/27 59/148/27
f 62/159/3 56/138/3 61/154/3
f 61/156/2 60/153/2 62/158/2
f 59/150/1 57/142/1 60/151/1
f 66/163/26 74/185/26 73/182/26
f 74/186/1 67/167/1 73/183/1
f 71/178/3 66/164/3 68/169/3
f 65/162/22 69/174/22 71/179/22
f 70/176/23 72/181/23 63/160/23
f 72/181/25 69/174/25 64/161/25
f 71/179/29 63/160/29 65/162/29
f 70/177/27 68/171/27 67/166/27
f 66/165/4 67/168/4 68/170/4
f 85/211/26 81/200/26 78/191/26
f 79/195/3 86/214/3 85/210/3
f 78/192/1 83/206/1 80/197/1
f 81/202/23 77/190/23 83/207/23
f 84/209/22 82/204/22 75/188/22
f 81/202/25 84/209/25 76/189/25
f 75/188/29 83/207/29 77/190/29
f 80/199/27 82/205/27 79/194/27
f 79/196/4 78/193/4 80/198/4
f 94/234/1 87/216/1 93/231/1
f 98/249/2 94/236/2 97/244/2
f 89/221/27 95/238/27 90/222/27
f 92/227/2 91/224/2 96/240/2
f 91/225/3 90/223/3 95/237/3
f 98/248/26 100/255/26 102/258/26
f 95/239/2 96/240/2 91/224/2
f 91/226/26 87/217/26 88/218/26
f 94/236/2 92/227/2 97/244/2
f 92/228/27 101/257/27 99/252/27
f 96/242/1 102/259/1 101/256/1
f 97/246/3 99/253/3 100/254/3
f 110/278/1 103/260/1 109/275/1
f 111/283/2 113/288/2 114/293/2
f 105/265/27 111/282/27 106/266/27
f 108/271/2 107/269/2 112/284/2
f 107/270/3 106/267/3 111/281/3
f 114/292/26 116/299/26 118/302/26
f 111/283/2 112/284/2 107/269/2
f 109/276/26 104/263/26 107/268/26
f 110/280/2 108/271/2 113/288/2
f 108/272/27 117/301/27 115/296/27
f 112/286/1 118/303/1 117/300/1
f 113/290/3 115/297/3 116/298/3
f 120/308/2 50/119/2 49/114/2
f 36/80/31 123/313/31 124/315/31
f 120/308/32 126/318/32 121/309/32
f 131/325/2 130/324/2 129/323/2
f 192/509/1 150/383/1 191/505/1
f 149/379/2 167/433/2 148/376/2
f 201/536/26 141/355/26 183/481/26
f 147/373/2 165/427/2 146/370/2
f 204/545/1 162/418/1 203/541/1
f 145/367/2 163/422/2 144/364/2
f 177/465/3 136/341/3 178/466/3
f 143/361/2 161/415/2 142/358/2
f 184/485/27 161/416/27 202/538/27
f 141/356/2 159/409/2 140/352/2
f 203/542/26 143/362/26 185/487/26
f 139/349/2 157/403/2 138/346/2
f 189/501/3 148/377/3 190/502/3
f 137/343/2 155/397/2 136/340/2
f 202/539/1 160/414/1 201/535/1
f 135/338/2 153/391/2 134/334/2
f 175/459/3 134/335/3 176/460/3
f 133/332/2 151/386/2 132/328/2
f 186/491/27 163/423/27 204/544/27
f 170/443/2 172/449/2 171/445/2
f 190/503/2 207/554/2 189/499/2
f 188/497/2 205/548/2 187/493/2
f 186/492/2 203/543/2 185/488/2
f 184/486/2 201/537/2 183/482/2
f 182/479/2 199/530/2 181/475/2
f 180/473/2 197/524/2 179/469/2
f 178/467/2 195/518/2 177/463/2
f 176/461/2 193/512/2 175/457/2
f 174/455/2 191/506/2 173/451/2
f 182/480/27 159/410/27 200/532/27
f 179/471/3 138/347/3 180/472/3
f 206/552/1 164/425/1 205/547/1
f 199/531/26 139/350/26 181/476/26
f 194/516/1 152/389/1 193/511/1
f 180/474/27 157/404/27 198/526/27
f 181/477/3 140/354/3 182/478/3
f 208/558/1 166/431/1 207/553/1
f 170/444/27 127/319/27 169/439/27
f 197/525/26 137/345/26 179/470/26
f 171/447/3 128/322/3 170/442/3
f 196/522/1 154/395/1 195/517/1
f 178/468/27 155/399/27 196/520/27
f 183/483/3 142/360/3 184/484/3
f 172/450/26 149/381/26 171/446/26
f 169/441/1 168/438/1 172/448/1
f 195/519/26 135/339/26 177/464/26
f 190/504/27 167/435/27 208/556/27
f 198/528/1 156/402/1 197/523/1
f 176/462/27 153/393/27 194/514/27
f 185/489/3 144/366/3 186/490/3
f 207/555/26 147/375/26 189/500/26
f 193/513/26 133/333/26 175/458/26
f 188/498/27 165/429/27 206/550/27
f 173/453/3 132/329/3 174/454/3
f 200/534/1 158/408/1 199/529/1
f 174/456/27 151/387/27 192/508/27
f 187/495/3 146/372/3 188/496/3
f 205/549/26 145/369/26 187/494/26
f 191/507/26 131/327/26 173/452/26
f 7/14/27 210/562/27 211/565/27
f 221/591/3 217/580/3 216/576/3
f 212/570/27 7/14/27 211/565/27
f 316/830/33 212/570/33 237/641/33
f 209/561/34 213/571/34 214/572/34
f 217/581/27 215/574/27 216/577/27
f 220/589/4 218/584/4 217/579/4
f 224/601/1 215/575/1 218/582/1
f 226/607/2 216/578/2 215/573/2
f 211/566/2 222/595/2 225/603/2
f 219/586/35 231/623/35 227/609/35
f 212/568/1 225/604/1 223/597/1
f 230/620/36 219/586/36 227/609/36
f 209/559/4 223/598/4 219/585/4
f 221/593/37 234/631/37 229/617/37
f 210/564/3 219/587/3 222/594/3
f 226/608/38 232/625/38 234/631/38
f 233/628/2 229/616/2 234/630/2
f 231/621/1 234/632/1 232/624/1
f 227/610/4 232/626/4 228/612/4
f 230/619/3 228/613/3 229/615/3
f 231/623/39 225/605/39 233/627/39
f 225/605/40 230/620/40 233/627/40
f 220/590/41 229/617/41 228/614/41
f 224/602/42 228/614/42 232/625/42
f 239/647/43 237/640/43 241/652/43
f 360/936/44 209/561/44 214/572/44
f 237/641/45 209/561/45 238/644/45
f 241/653/46 359/934/46 239/646/46
f 361/941/5 239/648/5 359/935/5
f 242/656/47 360/937/47 359/933/47
f 242/657/48 237/642/48 238/643/48
f 361/939/3 248/672/3 250/676/3
f 245/664/5 316/829/5 239/648/5
f 362/944/5 316/829/5 243/658/5
f 240/650/49 369/963/49 246/667/49
f 245/665/50 250/677/50 249/674/50
f 243/659/1 249/675/1 247/670/1
f 248/673/6 243/660/6 247/671/6
f 280/744/5 257/691/5 256/688/5
f 264/706/50 262/703/50 265/709/50
f 259/697/50 257/690/50 262/703/50
f 261/701/6 254/681/6 260/699/6
f 258/695/6 261/701/6 256/687/6
f 282/750/5 262/704/5 286/759/5
f 265/711/51 282/750/51 290/768/51
f 262/704/5 280/744/5 289/766/5
f 272/726/5 261/702/5 271/724/5
f 261/702/5 276/735/5 267/716/5
f 269/720/5 282/750/5 286/759/5
f 274/730/5 260/700/5 273/729/5
f 255/685/5 266/713/5 260/700/5
f 272/727/52 271/725/52 303/798/52
f 268/719/5 275/732/5 265/711/5
f 255/686/1 264/707/1 265/710/1
f 270/722/5 288/764/5 256/688/5
f 256/689/3 259/698/3 258/694/3
f 251/678/5 254/683/5 263/705/5
f 299/789/53 282/751/53 315/825/53
f 302/794/54 271/725/54 267/715/54
f 312/818/55 281/748/55 296/781/55
f 304/800/56 270/723/56 300/791/56
f 311/815/57 280/745/57 314/823/57
f 306/803/58 288/765/58 304/800/58
f 313/821/59 279/743/59 308/808/59
f 290/769/60 299/789/60 298/787/60
f 314/824/61 287/763/61 306/803/61
f 298/787/62 283/754/62 290/769/62
f 300/791/63 278/741/63 313/819/63
f 305/801/64 277/737/64 269/721/64
f 301/793/65 267/717/65 277/737/65
f 276/735/5 277/738/5 267/716/5
f 18/41/27 12/27/27 9/16/27
f 293/776/66 276/736/66 312/817/66
f 285/757/5 269/720/5 277/738/5
f 307/806/7 286/760/7 309/809/7
f 292/772/67 274/731/67 273/728/67
f 291/771/65 266/714/65 275/733/65
f 284/756/68 293/776/68 315/826/68
f 273/728/69 266/712/69 292/772/69
f 310/813/62 286/761/62 289/767/62
f 289/767/60 311/815/60 310/813/60
f 294/777/64 275/733/64 268/718/64
f 308/808/70 272/727/70 303/798/70
f 296/782/5 294/778/5 315/827/5
f 302/796/5 306/804/5 303/797/5
f 295/779/12 297/784/12 294/778/12
f 297/784/5 298/786/5 315/827/5
f 315/827/5 298/786/5 299/788/5
f 306/804/5 304/799/5 300/790/5
f 303/797/5 313/820/5 308/807/5
f 17/38/27 317/832/27 214/572/27
f 307/805/5 309/810/5 305/802/5
f 309/810/5 310/812/5 306/804/5
f 306/804/5 310/812/5 311/814/5
f 236/638/27 316/830/27 360/936/27
f 320/840/71 319/839/71 329/867/71
f 235/635/72 330/870/72 17/38/72
f 236/638/73 360/936/73 214/572/73
f 322/846/74 329/867/74 332/874/74
f 334/880/75 321/844/75 236/637/75
f 333/878/76 322/847/76 332/876/76
f 346/906/26 324/852/26 333/877/26
f 323/849/27 326/858/27 327/861/27
f 328/865/27 326/858/27 358/930/27
f 325/856/16 349/912/16 348/910/16
f 323/850/17 327/860/17 335/883/17
f 326/857/16 357/928/16 358/932/16
f 357/928/16 356/926/16 358/932/16
f 356/926/16 355/924/16 358/932/16
f 355/924/16 354/922/16 358/932/16
f 354/922/16 353/920/16 358/932/16
f 353/920/16 352/918/16 358/932/16
f 352/918/16 351/916/16 358/932/16
f 351/916/16 350/914/16 358/932/16
f 350/914/16 349/912/16 358/932/16
f 351/916/16 324/853/16 350/914/16
f 348/910/16 347/908/16 325/856/16
f 346/907/17 343/900/17 328/864/17
f 345/903/17 346/907/17 333/879/17
f 340/893/17 323/850/17 339/891/17
f 333/879/3 344/901/3 345/903/3
f 333/879/17 343/900/17 344/901/17
f 333/879/17 342/897/17 343/900/17
f 333/879/17 341/895/17 342/897/17
f 333/879/17 340/893/17 341/895/17
f 320/841/77 317/833/77 331/871/77
f 323/850/17 338/889/17 339/891/17
f 323/850/17 337/887/17 338/889/17
f 323/850/17 336/885/17 337/887/17
f 323/850/17 335/883/17 336/885/17
f 346/905/18 358/931/18 325/854/18
f 236/637/78 322/847/78 334/880/78
f 320/841/79 322/845/79 236/639/79
f 329/866/16 321/843/16 332/875/16
f 332/876/80 323/848/80 333/878/80
f 332/876/81 321/844/81 323/848/81
f 331/872/20 330/868/20 319/838/20
f 342/898/18 349/913/18 343/899/18
f 235/634/82 329/866/82 330/869/82
f 347/909/83 344/902/83 345/904/83
f 351/917/18 340/894/18 352/919/18
f 338/890/18 353/921/18 339/892/18
f 355/925/18 336/886/18 356/927/18
f 357/929/83 327/862/83 335/884/83
f 240/651/12 360/938/12 318/835/12
f 244/662/12 361/941/12 246/668/12
f 246/668/84 359/935/84 240/651/84
f 244/662/85 360/938/85 362/944/85
f 377/982/86 395/1020/86 387/1003/86
f 318/836/87 367/958/87 240/649/87
f 244/663/88 368/961/88 318/834/88
f 246/669/89 370/967/89 244/661/89
f 379/985/11 367/959/11 368/962/11
f 376/979/11 370/968/11 369/965/11
f 377/981/11 369/965/11 367/959/11
f 378/983/11 368/962/11 370/968/11
f 364/949/90 389/1008/90 384/995/90
f 373/974/91 394/1018/91 395/1020/91
f 372/972/92 385/998/92 376/980/92
f 377/982/93 388/1005/93 365/951/93
f 380/988/94 393/1016/94 372/972/94
f 371/970/95 383/993/95 391/1012/95
f 366/955/96 385/998/96 386/1000/96
f 366/956/97 396/1022/97 382/992/97
f 371/970/98 390/1010/98 379/986/98
f 364/950/99 383/993/99 375/978/99
f 363/947/100 394/1018/100 381/990/100
f 380/988/101 388/1006/101 392/1014/101
f 379/986/102 403/1032/102 363/945/102
f 374/976/103 389/1008/103 378/984/103
f 382/992/104 397/1025/104 374/976/104
f 407/1037/11 403/1033/11 390/1011/11
f 398/1026/11 383/994/11 406/1036/11
f 399/1027/11 401/1029/11 405/1035/11
f 387/1004/11 402/1030/11 404/1034/11
f 399/1027/11 402/1030/11 400/1028/11
f 392/1015/11 399/1027/11 393/1017/11
f 388/1007/11 404/1034/11 392/1015/11
f 396/1023/11 401/1029/11 397/1024/11
f 386/1002/11 405/1035/11 396/1023/11
f 385/999/11 399/1027/11 405/1035/11
f 406/1036/11 384/997/11 389/1009/11
f 401/1029/11 389/1009/11 397/1024/11
f 400/1028/11 406/1036/11 401/1029/11
f 398/1026/11 390/1011/11 391/1013/11
f 402/1030/11 398/1026/11 400/1028/11
f 402/1030/11 394/1019/11 407/1037/11
f 408/1039/105 421/1070/105 409/1041/105
f 419/1065/106 429/1090/106 416/1058/106
f 425/1080/107 414/1053/107 413/1050/107
f 408/1039/2 108/274/2 112/287/2
f 409/1041/2 113/291/2 108/274/2
f 410/1043/2 114/295/2 113/291/2
f 411/1045/2 112/287/2 114/295/2
f 412/1049/2 92/230/2 96/243/2
f 413/1051/2 97/247/2 92/230/2
f 414/1054/2 98/251/2 97/247/2
f 415/1055/2 96/243/2 98/251/2
f 416/1059/2 56/139/2 52/126/2
f 417/1061/2 58/147/2 56/139/2
f 418/1063/2 57/143/2 58/147/2
f 419/1066/2 52/126/2 57/143/2
f 422/1072/2 421/1070/2 420/1068/2
f 426/1082/2 425/1081/2 424/1078/2
f 430/1093/2 428/1089/2 429/1091/2
f 415/1056/105 427/1087/105 414/1052/105
f 428/1088/107 418/1064/107 417/1060/107
f 411/1046/106 420/1069/106 408/1038/106
f 412/1049/105 425/1081/105 413/1051/105
f 419/1067/105 431/1097/105 418/1062/105
f 421/1071/107 410/1044/107 409/1040/107
f 415/1057/106 424/1079/106 412/1048/106
f 416/1059/105 428/1089/105 417/1061/105
f 411/1047/105 423/1077/105 410/1042/105
f 295/780/108 268/718/108 283/752/108
f 6/9/1 7/12/1 3/5/1
f 5/8/4 1/1/4 37/81/4
f 10/20/1 13/28/1 19/42/1
f 9/17/3 12/25/3 14/31/3
f 12/26/22 5/8/22 8/15/22
f 17/37/23 19/43/23 13/29/23
f 5/8/29 12/26/29 19/43/29
f 3/6/25 13/29/25 14/32/25
f 11/24/26 14/33/26 13/30/26
f 10/21/4 18/40/4 9/18/4
f 15/34/2 16/35/2 6/10/2
f 4/7/2 7/13/2 20/45/2
f 29/61/2 26/53/2 25/52/2
f 23/48/2 24/51/2 22/47/2
f 29/60/26 28/58/26 31/67/26
f 26/53/2 29/61/2 27/54/2
f 25/52/2 24/51/2 23/48/2
f 23/49/27 27/55/27 32/70/27
f 27/56/1 29/62/1 33/74/1
f 31/68/2 30/64/2 32/71/2
f 28/59/3 23/50/3 30/65/3
f 2/3/26 6/11/26 119/306/26
f 38/82/27 41/91/27 47/108/27
f 2/4/3 122/312/3 34/75/3
f 125/316/28 120/307/28 36/79/28
f 47/109/3 42/94/3 39/86/3
f 43/97/1 41/92/1 38/83/1
f 41/93/23 43/98/23 37/81/23
f 45/104/22 34/76/22 42/95/22
f 45/104/29 47/110/29 41/93/29
f 43/98/25 42/95/25 34/76/25
f 42/96/26 43/99/26 40/90/26
f 38/84/4 46/107/4 39/87/4
f 35/78/2 36/80/2 120/308/2
f 123/313/30 4/7/30 121/309/30
f 50/119/2 121/309/2 15/34/2
f 44/101/3 49/115/3 54/130/3
f 55/135/2 58/145/2 57/141/2
f 55/134/27 54/131/27 49/116/27
f 51/120/2 53/129/2 52/123/2
f 50/118/1 48/112/1 51/121/1
f 60/152/26 57/140/26 58/144/26
f 56/136/2 58/145/2 55/135/2
f 51/122/26 48/113/26 44/102/26
f 54/132/2 57/141/2 52/123/2
f 61/155/27 56/137/27 52/124/27
f 62/159/3 58/146/3 56/138/3
f 61/156/2 59/149/2 60/153/2
f 59/150/1 52/125/1 57/142/1
f 66/163/26 69/172/26 74/185/26
f 74/186/1 70/175/1 67/167/1
f 71/178/3 69/173/3 66/164/3
f 65/162/22 64/161/22 69/174/22
f 70/176/23 74/187/23 72/181/23
f 72/181/25 74/187/25 69/174/25
f 71/179/29 70/176/29 63/160/29
f 70/177/27 71/180/27 68/171/27
f 66/165/4 73/184/4 67/168/4
f 85/211/26 86/213/26 81/200/26
f 79/195/3 82/203/3 86/214/3
f 78/192/1 81/201/1 83/206/1
f 81/202/23 76/189/23 77/190/23
f 84/209/22 86/215/22 82/204/22
f 81/202/25 86/215/25 84/209/25
f 75/188/29 82/204/29 83/207/29
f 80/199/27 83/208/27 82/205/27
f 79/196/4 85/212/4 78/193/4
f 94/234/1 89/220/1 87/216/1
f 98/249/2 95/239/2 94/236/2
f 89/221/27 94/235/27 95/238/27
f 92/227/2 93/233/2 91/224/2
f 91/225/3 88/219/3 90/223/3
f 98/248/26 97/245/26 100/255/26
f 95/239/2 98/249/2 96/240/2
f 91/226/26 93/232/26 87/217/26
f 94/236/2 93/233/2 92/227/2
f 92/228/27 96/241/27 101/257/27
f 96/242/1 98/250/1 102/259/1
f 97/246/3 92/229/3 99/253/3
f 110/278/1 105/264/1 103/260/1
f 111/283/2 110/280/2 113/288/2
f 105/265/27 110/279/27 111/282/27
f 108/271/2 109/277/2 107/269/2
f 107/270/3 104/262/3 106/267/3
f 114/292/26 113/289/26 116/299/26
f 111/283/2 114/293/2 112/284/2
f 109/276/26 103/261/26 104/263/26
f 110/280/2 109/277/2 108/271/2
f 108/272/27 112/285/27 117/301/27
f 112/286/1 114/294/1 118/303/1
f 113/290/3 108/273/3 115/297/3
f 120/308/2 121/309/2 50/119/2
f 36/80/31 4/7/31 123/313/31
f 120/308/32 125/317/32 126/318/32
f 131/325/2 150/382/2 130/324/2
f 192/509/1 151/385/1 150/383/1
f 149/379/2 168/436/2 167/433/2
f 201/536/26 160/412/26 141/355/26
f 147/373/2 166/430/2 165/427/2
f 204/545/1 163/421/1 162/418/1
f 145/367/2 164/424/2 163/422/2
f 177/465/3 135/337/3 136/341/3
f 143/361/2 162/419/2 161/415/2
f 184/485/27 142/359/27 161/416/27
f 141/356/2 160/413/2 159/409/2
f 203/542/26 162/420/26 143/362/26
f 139/349/2 158/406/2 157/403/2
f 189/501/3 147/374/3 148/377/3
f 137/343/2 156/400/2 155/397/2
f 202/539/1 161/417/1 160/414/1
f 135/338/2 154/394/2 153/391/2
f 175/459/3 133/331/3 134/335/3
f 133/332/2 152/388/2 151/386/2
f 186/491/27 144/365/27 163/423/27
f 170/443/2 169/440/2 172/449/2
f 190/503/2 208/557/2 207/554/2
f 188/497/2 206/551/2 205/548/2
f 186/492/2 204/546/2 203/543/2
f 184/486/2 202/540/2 201/537/2
f 182/479/2 200/533/2 199/530/2
f 180/473/2 198/527/2 197/524/2
f 178/467/2 196/521/2 195/518/2
f 176/461/2 194/515/2 193/512/2
f 174/455/2 192/510/2 191/506/2
f 182/480/27 140/353/27 159/410/27
f 179/471/3 137/344/3 138/347/3
f 206/552/1 165/428/1 164/425/1
f 199/531/26 158/407/26 139/350/26
f 194/516/1 153/392/1 152/389/1
f 180/474/27 138/348/27 157/404/27
f 181/477/3 139/351/3 140/354/3
f 208/558/1 167/434/1 166/431/1
f 170/444/27 128/321/27 127/319/27
f 197/525/26 156/401/26 137/345/26
f 171/447/3 149/380/3 128/322/3
f 196/522/1 155/398/1 154/395/1
f 178/468/27 136/342/27 155/399/27
f 183/483/3 141/357/3 142/360/3
f 172/450/26 168/437/26 149/381/26
f 169/441/1 127/320/1 168/438/1
f 195/519/26 154/396/26 135/339/26
f 190/504/27 148/378/27 167/435/27
f 198/528/1 157/405/1 156/402/1
f 176/462/27 134/336/27 153/393/27
f 185/489/3 143/363/3 144/366/3
f 207/555/26 166/432/26 147/375/26
f 193/513/26 152/390/26 133/333/26
f 188/498/27 146/371/27 165/429/27
f 173/453/3 131/326/3 132/329/3
f 200/534/1 159/411/1 158/408/1
f 174/456/27 132/330/27 151/387/27
f 187/495/3 145/368/3 146/372/3
f 205/549/26 164/426/26 145/369/26
f 191/507/26 150/384/26 131/327/26
f 7/14/27 213/571/27 210/562/27
f 221/591/3 220/588/3 217/580/3
f 212/570/34 17/38/34 7/14/34
f 316/830/109 17/38/109 212/570/109
f 209/561/27 210/562/27 213/571/27
f 217/581/27 218/583/27 215/574/27
f 220/589/4 224/600/4 218/584/4
f 224/601/1 226/606/1 215/575/1
f 226/607/2 221/592/2 216/578/2
f 211/566/2 210/563/2 222/595/2
f 219/586/35 223/599/35 231/623/35
f 212/568/1 211/567/1 225/604/1
f 230/620/36 222/596/36 219/586/36
f 209/559/4 212/569/4 223/598/4
f 221/593/37 226/608/37 234/631/37
f 210/564/3 209/560/3 219/587/3
f 226/608/38 224/602/38 232/625/38
f 233/628/2 230/618/2 229/616/2
f 231/621/1 233/629/1 234/632/1
f 227/610/4 231/622/4 232/626/4
f 230/619/3 227/611/3 228/613/3
f 231/623/39 223/599/39 225/605/39
f 225/605/40 222/596/40 230/620/40
f 220/590/41 221/593/41 229/617/41
f 224/602/42 220/590/42 228/614/42
f 239/647/43 316/828/43 237/640/43
f 360/936/110 238/644/110 209/561/110
f 237/641/111 212/570/111 209/561/111
f 241/653/112 242/655/112 359/934/112
f 361/941/5 245/664/5 239/648/5
f 242/656/47 238/645/47 360/937/47
f 242/657/48 241/654/48 237/642/48
f 361/939/3 362/942/3 248/672/3
f 245/664/5 243/658/5 316/829/5
f 362/944/5 360/938/5 316/829/5
f 240/650/49 367/957/49 369/963/49
f 245/665/50 361/940/50 250/677/50
f 243/659/1 245/666/1 249/675/1
f 248/673/6 362/943/6 243/660/6
f 280/744/5 262/704/5 257/691/5
f 264/706/50 259/697/50 262/703/50
f 261/701/6 258/695/6 254/681/6
f 282/750/5 265/711/5 262/704/5
f 279/742/5 278/739/5 261/702/5
f 261/702/5 267/716/5 271/724/5
f 272/726/5 279/742/5 261/702/5
f 261/702/5 260/700/5 276/735/5
f 269/720/5 284/755/5 282/750/5
f 281/747/5 276/735/5 260/700/5
f 260/700/5 266/713/5 273/729/5
f 274/730/5 281/747/5 260/700/5
f 255/685/5 265/711/5 266/713/5
f 275/732/113 266/713/113 265/711/113
f 265/711/5 283/753/5 268/719/5
f 255/686/1 254/682/1 264/707/1
f 287/762/5 280/744/5 256/688/5
f 256/688/5 278/739/5 270/722/5
f 288/764/5 287/762/5 256/688/5
f 256/689/3 257/692/3 259/698/3
f 251/678/5 264/708/5 254/683/5
f 299/789/114 290/769/114 282/751/114
f 302/794/115 303/798/115 271/725/115
f 312/818/59 276/734/59 281/748/59
f 304/800/56 288/765/56 270/723/56
f 311/815/114 289/767/114 280/745/114
f 306/803/58 287/763/58 288/765/58
f 313/821/59 278/740/59 279/743/59
f 314/824/61 280/746/61 287/763/61
f 298/787/116 297/785/116 283/754/116
f 300/791/63 270/723/63 278/741/63
f 305/801/117 301/793/117 277/737/117
f 301/793/65 302/795/65 267/717/65
f 276/735/5 285/757/5 277/738/5
f 18/41/27 19/44/27 12/27/27
f 293/776/118 285/758/118 276/736/118
f 307/806/108 269/721/108 286/760/108
f 292/772/119 296/781/119 274/731/119
f 291/771/120 292/773/120 266/714/120
f 284/756/121 285/758/121 293/776/121
f 310/813/116 309/811/116 286/761/116
f 294/777/117 291/771/117 275/733/117
f 308/808/122 279/743/122 272/727/122
f 296/782/5 292/774/5 294/778/5
f 302/796/5 305/802/5 306/804/5
f 17/38/123 330/870/123 317/832/123
f 236/638/27 235/635/27 316/830/27
f 320/840/74 331/873/74 319/839/74
f 322/846/74 320/840/74 329/867/74
f 334/880/18 323/848/18 321/844/18
f 333/878/124 324/851/124 322/847/124
f 346/906/26 325/855/26 324/852/26
f 323/849/27 334/881/27 326/858/27
f 328/865/27 327/861/27 326/858/27
f 325/856/16 358/932/16 349/912/16
f 351/916/16 334/882/16 324/853/16
f 346/907/17 344/901/17 343/900/17
f 340/893/17 333/879/17 323/850/17
f 320/841/125 236/639/125 317/833/125
f 342/898/18 350/915/18 349/913/18
f 347/909/83 348/911/83 344/902/83
f 351/917/18 341/896/18 340/894/18
f 338/890/18 354/923/18 353/921/18
f 355/925/18 337/888/18 336/886/18
f 357/929/83 326/859/83 327/862/83
f 240/651/12 359/935/12 360/938/12
f 244/662/12 362/944/12 361/941/12
f 246/668/126 361/941/126 359/935/126
f 244/662/127 318/835/127 360/938/127
f 377/982/86 373/974/86 395/1020/86
f 318/836/87 368/960/87 367/958/87
f 244/663/88 370/966/88 368/961/88
f 246/669/89 369/964/89 370/967/89
f 368/962/11 364/948/11 375/977/11
f 368/962/11 375/977/11 371/969/11
f 379/985/11 363/946/11 367/959/11
f 368/962/5 371/969/5 379/985/5
f 369/965/11 365/952/11 380/987/11
f 369/965/11 380/987/11 372/971/11
f 376/979/11 366/954/11 370/968/11
f 369/965/128 372/971/128 376/979/128
f 367/959/11 363/946/11 381/989/11
f 367/959/11 381/989/11 373/973/11
f 377/981/11 365/952/11 369/965/11
f 367/959/11 373/973/11 377/981/11
f 370/968/11 366/954/11 382/991/11
f 370/968/11 382/991/11 374/975/11
f 378/983/11 364/948/11 368/962/11
f 370/968/11 374/975/11 378/983/11
f 364/949/90 378/984/90 389/1008/90
f 373/974/91 381/990/91 394/1018/91
f 372/972/92 393/1016/92 385/998/92
f 377/982/93 387/1003/93 388/1005/93
f 380/988/94 392/1014/94 393/1016/94
f 371/970/95 375/978/95 383/993/95
f 366/955/96 376/980/96 385/998/96
f 366/956/97 386/1001/97 396/1022/97
f 371/970/98 391/1012/98 390/1010/98
f 364/950/129 384/996/129 383/993/129
f 363/947/100 403/1031/100 394/1018/100
f 380/988/130 365/953/130 388/1006/130
f 379/986/102 390/1010/102 403/1032/102
f 374/976/103 397/1025/103 389/1008/103
f 382/992/104 396/1022/104 397/1025/104
f 407/1037/11 394/1019/11 403/1033/11
f 398/1026/11 391/1013/11 383/994/11
f 399/1027/11 400/1028/11 401/1029/11
f 387/1004/11 395/1021/11 402/1030/11
f 399/1027/11 404/1034/11 402/1030/11
f 392/1015/11 404/1034/11 399/1027/11
f 388/1007/11 387/1004/11 404/1034/11
f 396/1023/11 405/1035/11 401/1029/11
f 386/1002/11 385/999/11 405/1035/11
f 385/999/11 393/1017/11 399/1027/11
f 406/1036/11 383/994/11 384/997/11
f 401/1029/11 406/1036/11 389/1009/11
f 400/1028/11 398/1026/11 406/1036/11
f 398/1026/11 407/1037/11 390/1011/11
f 402/1030/11 407/1037/11 398/1026/11
f 402/1030/11 395/1021/11 394/1019/11
f 408/1039/105 420/1068/105 421/1070/105
f 419/1065/106 430/1092/106 429/1090/106
f 425/1080/107 427/1085/107 414/1053/107
f 408/1039/2 409/1041/2 108/274/2
f 409/1041/2 410/1043/2 113/291/2
f 410/1043/2 411/1045/2 114/295/2
f 411/1045/2 408/1039/2 112/287/2
f 412/1049/2 413/1051/2 92/230/2
f 413/1051/2 414/1054/2 97/247/2
f 414/1054/2 415/1055/2 98/251/2
f 415/1055/2 412/1049/2 96/243/2
f 416/1059/2 417/1061/2 56/139/2
f 417/1061/2 418/1063/2 58/147/2
f 418/1063/2 419/1066/2 57/143/2
f 419/1066/2 416/1059/2 52/126/2
f 422/1072/2 423/1075/2 421/1070/2
f 426/1082/2 427/1086/2 425/1081/2
f 430/1093/2 431/1095/2 428/1089/2
f 415/1056/105 426/1083/105 427/1087/105
f 428/1088/107 431/1096/107 418/1064/107
f 411/1046/106 422/1073/106 420/1069/106
f 412/1049/105 424/1078/105 425/1081/105
f 419/1067/105 430/1094/105 431/1097/105
f 421/1071/107 423/1076/107 410/1044/107
f 415/1057/106 426/1084/106 424/1079/106
f 416/1059/105 429/1091/105 428/1089/105
f 411/1047/105 422/1074/105 423/1077/105
