# Blender 3.3.1
# www.blender.org
o case
v 1.617125 4.175455 -2.819877
v 1.617125 0.001955 -2.819877
v 1.617125 4.175455 2.819877
v 1.495053 0.159479 2.819877
v -1.617125 4.175455 -2.819877
v -1.617125 0.001955 -2.819877
v -1.617125 4.175455 2.819877
v -1.495053 0.159479 2.819877
v 1.617125 3.920699 -2.819877
v -1.495053 3.763175 2.819877
v 1.495053 3.763175 2.819877
v -1.617125 3.920699 -2.819877
v -1.617125 3.920699 2.971368
v -1.617125 4.175455 2.971368
v 1.617125 4.175455 2.971368
v 1.617125 3.920699 2.971368
v 1.617125 3.920699 2.819877
v 1.617125 0.001955 2.819877
v -1.617125 0.001955 2.819877
v -1.617125 3.920699 2.819877
v 1.617125 2.041909 -2.819878
v 1.617125 1.880745 -2.819878
v 1.617125 2.041909 2.819877
v 1.617125 1.880745 2.819877
v -1.617125 2.041909 -2.819878
v -1.617125 1.880745 -2.819878
v -1.617125 1.880745 2.819877
v -1.617125 2.041909 2.819877
v 1.495053 2.035430 2.819877
v 1.495053 1.887224 2.819877
v -1.495053 1.887224 2.819877
v -1.495053 2.035430 2.819877
v 1.495053 1.887224 -1.001013
v 1.495053 0.159479 -1.001013
v -1.495053 0.159479 -1.001013
v -1.495053 2.035430 -1.001013
v -1.495053 3.763175 -1.001013
v 1.495053 3.763175 -1.001013
v 1.495053 2.035430 -1.001013
v -1.495053 1.887224 -1.001013
vn -0.0000 1.0000 -0.0000
vn -1.0000 -0.0000 -0.0000
vn -0.0000 -1.0000 -0.0000
vn 1.0000 -0.0000 -0.0000
vn -0.0000 -0.0000 -1.0000
vn -0.0000 -0.0000 1.0000
vt 0.009855 0.290226
vt 0.537249 0.009855
vt 0.810802 0.263697
vt 0.283408 0.009855
vt 0.537249 0.290226
vt 0.556960 0.263697
vt 0.009855 0.544068
vt 0.537249 0.263697
vt 0.911637 0.983326
vt 0.566541 0.292988
vt 0.009855 0.570597
vt 0.263697 0.290226
vt 0.009855 0.009855
vt 0.810802 0.009855
vt 0.283407 0.290226
vt 0.556960 0.009855
vt 0.263697 0.009855
vt 0.009855 0.263697
vt 0.263697 0.544068
vt 0.009855 0.805277
vt 0.662045 0.811350
vt 0.566541 0.527668
vt 0.795307 0.263697
vt 0.521755 0.009855
vt 0.283407 0.818169
vt 0.785726 0.527668
vt 0.748646 0.556960
vt 0.748646 0.791640
vt 0.785726 0.292988
vt 0.681756 0.983326
vt 0.795307 0.009855
vt 0.025350 0.009855
vt 0.025350 0.270516
vt 0.490589 0.563778
vt 0.510299 0.563778
vt 0.009855 0.270516
vt 0.475094 0.563778
vt 0.263697 0.550887
vt 0.475094 0.817620
vt 0.537249 0.270516
vt 0.009855 0.550887
vt 0.490589 0.817620
vt 0.521755 0.270516
vt 0.510299 0.817620
vt 0.521755 0.263697
vt 0.517118 0.817620
vt 0.795307 0.283407
vt 0.537249 0.544068
vt 0.556960 0.283407
vt 0.283408 0.263697
vt 0.263697 0.263697
vt 0.283407 0.544068
vt 0.556960 0.537249
vt 0.517118 0.563778
vt 0.025350 0.263697
vt 0.795307 0.537249
vt 0.407482 0.009855
vt 0.681035 0.263697
vt 0.397680 0.009855
vt 0.671232 0.263697
vt 0.681035 0.283407
vt 0.407482 0.263697
vt 0.671232 0.283407
vt 0.397680 0.263697
vt 0.139622 0.009855
vt 0.681035 0.009855
vt 0.149425 0.009855
vt 0.671232 0.009855
vt 0.671232 0.537249
vt 0.149425 0.263697
vt 0.681035 0.537249
vt 0.139622 0.263697
vt 0.786841 0.983326
vt 0.680641 0.292988
vt 0.283407 0.563778
vt 0.556960 0.791640
vt 0.671626 0.292988
vt 0.806551 0.983326
vt 0.556960 0.811350
vt 0.671626 0.527669
vt 0.556960 0.556960
vt 0.283407 0.798458
vt 0.680641 0.527669
vt 0.388493 0.818169
vt 0.806551 0.811350
vt 0.920103 0.283407
vt 0.728936 0.791640
vt 0.815017 0.283407
vt 0.911637 0.811350
vt 0.181831 0.570597
vt 0.662045 0.983326
vt 0.815017 0.518088
vt 0.181831 0.805277
vt 0.830512 0.244535
vt 0.455383 0.798458
vt 0.388493 0.990145
vt 0.935598 0.244535
vt 0.920622 0.556960
vt 0.283407 0.990145
vt 0.935598 0.009855
vt 0.681756 0.811350
vt 0.920622 0.791640
vt 0.830512 0.009855
vt 0.786841 0.811350
vt 0.455383 0.563778
vt 0.556960 0.983326
vt 0.920103 0.518088
vt 0.728936 0.556960
s 0
f 5/12/1 3/7/1 1/1/1
f 20/55/2 14/36/2 7/18/2
f 7/18/2 12/32/2 20/55/2
f 2/5/3 19/52/3 6/15/3
f 1/2/4 17/45/4 9/24/4
f 5/14/5 9/23/5 12/31/5
f 12/31/5 21/58/5 25/66/5
f 9/24/4 23/62/4 21/57/4
f 20/55/2 25/65/2 28/72/2
f 8/21/4 40/106/4 31/79/4
f 15/39/6 13/34/6 16/42/6
f 3/8/4 16/43/4 17/45/4
f 17/46/3 13/35/3 20/54/3
f 7/19/1 15/41/1 3/7/1
f 4/10/6 24/63/6 30/77/6
f 8/22/6 18/49/6 4/10/6
f 10/26/6 28/71/6 32/83/6
f 11/29/6 20/56/6 10/26/6
f 8/22/6 27/69/6 19/53/6
f 31/80/6 28/71/6 27/69/6
f 11/29/6 23/61/6 17/47/6
f 29/74/6 24/63/6 23/61/6
f 30/78/2 34/89/2 4/9/2
f 29/74/6 31/80/6 30/77/6
f 27/70/2 6/17/2 19/51/2
f 28/72/2 26/67/2 27/70/2
f 22/59/4 18/50/4 2/4/4
f 21/57/4 24/64/4 22/59/4
f 26/68/5 2/6/5 6/16/5
f 25/66/5 22/60/5 26/68/5
f 38/100/6 36/94/6 39/103/6
f 33/86/6 35/92/6 34/88/6
f 11/30/2 39/104/2 29/73/2
f 29/75/1 36/95/1 32/82/1
f 10/27/3 38/102/3 11/28/3
f 4/11/1 35/93/1 8/20/1
f 31/81/3 33/87/3 30/76/3
f 32/84/4 37/99/4 10/25/4
f 5/12/1 7/19/1 3/7/1
f 20/55/2 13/33/2 14/36/2
f 7/18/2 5/13/2 12/32/2
f 2/5/3 18/48/3 19/52/3
f 1/2/4 3/8/4 17/45/4
f 5/14/5 1/3/5 9/23/5
f 12/31/5 9/23/5 21/58/5
f 9/24/4 17/45/4 23/62/4
f 20/55/2 12/32/2 25/65/2
f 8/21/4 35/91/4 40/106/4
f 15/39/6 14/37/6 13/34/6
f 3/8/4 15/40/4 16/43/4
f 17/46/3 16/44/3 13/35/3
f 7/19/1 14/38/1 15/41/1
f 4/10/6 18/49/6 24/63/6
f 8/22/6 19/53/6 18/49/6
f 10/26/6 20/56/6 28/71/6
f 11/29/6 17/47/6 20/56/6
f 8/22/6 31/80/6 27/69/6
f 31/80/6 32/83/6 28/71/6
f 11/29/6 29/74/6 23/61/6
f 29/74/6 30/77/6 24/63/6
f 30/78/2 33/85/2 34/89/2
f 29/74/6 32/83/6 31/80/6
f 27/70/2 26/67/2 6/17/2
f 28/72/2 25/65/2 26/67/2
f 22/59/4 24/64/4 18/50/4
f 21/57/4 23/62/4 24/64/4
f 26/68/5 22/60/5 2/6/5
f 25/66/5 21/58/5 22/60/5
f 38/100/6 37/97/6 36/94/6
f 33/86/6 40/107/6 35/92/6
f 11/30/2 38/101/2 39/104/2
f 29/75/1 39/105/1 36/95/1
f 10/27/3 37/98/3 38/102/3
f 4/11/1 34/90/1 35/93/1
f 31/81/3 40/108/3 33/87/3
f 32/84/4 36/96/4 37/99/4
