# Blender 3.3.1
# www.blender.org
o heater
v -0.981521 0.200107 1.848138
v -1.097840 0.006939 -1.848138
v 0.981208 3.289895 1.848138
v 1.097840 0.006939 -1.848138
v 0.864295 0.094154 -1.848138
v -0.864295 0.094154 -1.848138
v 0.981521 0.200107 1.848138
v -0.981208 3.289895 1.848138
v -1.097840 0.094154 -1.593113
v 1.097840 0.094154 1.593113
v 1.097840 3.396133 -1.848138
v 0.864295 3.396133 -1.593113
v 0.864295 3.396133 1.593113
v -0.864295 3.396133 -1.593113
v -0.864295 3.396133 1.593113
v -0.864295 0.094154 -1.593113
v 0.864295 0.094154 -1.593113
v -1.097840 0.006939 1.593113
v -1.097840 0.006939 1.848138
v -0.864295 0.006939 -1.848138
v 1.097840 0.006939 -1.593113
v 0.864295 0.006939 1.848138
v 0.864295 0.006939 -1.848138
v -0.864295 0.006939 1.848138
v -0.864295 0.006939 1.593113
v 0.864295 0.006939 1.593113
v -1.097840 0.006939 -1.593113
v 1.097840 0.006939 1.593113
v -0.864295 0.006939 -1.593113
v 0.864295 0.006939 -1.593113
v -1.097840 1.745144 -1.848138
v 1.097840 1.745144 -1.848138
v -0.981208 1.851382 1.848138
v 0.000000 1.745144 -1.848138
v -1.097840 1.745144 0.221266
v -1.097840 3.396133 1.848138
v 0.981521 1.639191 1.848138
v 0.981208 1.851382 1.848138
v 1.097840 1.745144 1.848138
v 1.097840 0.006939 1.848138
v 0.864295 0.094154 1.848138
v -0.864295 0.094154 1.848138
v -1.097840 1.745144 1.848138
v -0.981521 1.639191 1.848138
v 0.981521 0.200107 -1.323325
v -0.981521 1.639191 -1.323325
v -0.981208 3.289895 -1.323325
v -0.981208 1.851382 -1.323325
v 0.981208 3.289895 -1.323325
v 0.981208 1.851382 -1.323325
v 0.981521 1.639191 -1.323325
v -0.981521 0.200107 -1.323325
v -1.097840 0.094154 1.593113
v -1.097840 3.396133 -1.848138
v 1.097840 0.094154 -1.593113
v 1.097840 3.396133 0.000000
v 1.097840 3.396133 1.848138
v 0.864295 3.396133 -1.239088
v 0.864295 3.396133 -0.885063
v 0.864295 3.396133 -0.531038
v 0.864295 3.396133 -0.177013
v 0.864295 3.396133 0.177013
v 0.864295 3.396133 0.531038
v 0.864295 3.396133 0.885063
v 0.864295 3.396133 1.239088
v -0.864295 3.396133 -1.239088
v -0.864295 3.396133 -0.885063
v -0.864295 3.396133 -0.531038
v -0.864295 3.396133 -0.177013
v -0.864295 3.396133 0.177013
v -0.864295 3.396133 0.531038
v -0.864295 3.396133 0.885063
v -0.864295 3.396133 1.239088
v 0.000000 0.094154 -0.022127
v -0.864295 0.094154 1.593113
v 0.864295 0.094154 1.593113
v 0.864295 3.358122 1.239088
v 0.864295 3.358122 1.593113
v -0.864295 3.358122 1.239088
v -0.864295 3.358122 1.593113
v -0.864295 3.358122 -1.593113
v 0.864295 3.358122 -1.593113
v 0.864295 3.358122 -1.239088
v 0.864295 3.358122 -0.885063
v 0.864295 3.358122 -0.531038
v 0.864295 3.358122 -0.177013
v 0.864295 3.358122 0.177013
v 0.864295 3.358122 0.531038
v 0.864295 3.358122 0.885063
v -0.864295 3.358122 -1.239088
v -0.864295 3.358122 -0.885063
v -0.864295 3.358122 -0.531038
v -0.864295 3.358122 -0.177013
v -0.864295 3.358122 0.177013
v -0.864295 3.358122 0.531038
v -0.864295 3.358122 0.885063
vn -1.0000 -0.0000 -0.0000
vn -0.0000 -0.0000 -1.0000
vn 1.0000 -0.0000 -0.0000
vn -0.0000 1.0000 -0.0000
vn -0.0000 -0.0000 1.0000
vn -0.0000 -1.0000 -0.0000
vt 0.547582 0.337403
vt 0.860436 0.577810
vt 0.862359 0.007816
vt 0.570598 0.007816
vt 0.586230 0.279448
vt 0.523398 0.321810
vt 0.506247 0.867017
vt 0.691894 0.586810
vt 0.139564 0.891805
vt 0.281391 0.306179
vt 0.361959 0.321810
vt 0.701811 0.279447
vt 0.152084 0.321810
vt 0.785457 0.279447
vt 0.379130 0.328850
vt 0.024987 0.321810
vt 0.740114 0.300033
vt 0.506227 0.328850
vt 0.638042 0.867017
vt 0.691917 0.337403
vt 0.716101 0.577810
vt 0.361958 0.867017
vt 0.547605 0.586810
vt 0.007816 0.635805
vt 0.815169 0.296619
vt 0.563558 0.028401
vt 0.007816 0.342396
vt 0.274351 0.028401
vt 0.837841 0.296619
vt 0.169255 0.599587
vt 0.361959 0.595385
vt 0.007816 0.306179
vt 0.184887 0.321810
vt 0.202059 0.342396
vt 0.877990 0.277640
vt 0.790901 0.865073
vt 0.202059 0.599587
vt 0.828301 0.893650
vt 0.327412 0.778533
vt 0.329155 0.342396
vt 0.877990 0.150544
vt 0.809601 0.893650
vt 0.329155 0.599587
vt 0.847001 0.865073
vt 0.327412 0.905629
vt 0.024987 0.342396
vt 0.815169 0.279447
vt 0.740114 0.279447
vt 0.152084 0.342396
vt 0.785457 0.300033
vt 0.853473 0.279447
vt 0.570598 0.285593
vt 0.883108 0.570127
vt 0.651836 0.279447
vt 0.651836 0.300033
vt 0.539030 0.321810
vt 0.570598 0.306179
vt 0.747154 0.300033
vt 0.506227 0.321810
vt 0.603401 0.279448
vt 0.281391 0.285593
vt 0.860512 0.296619
vt 0.701811 0.300033
vt 0.619033 0.300033
vt 0.769826 0.300033
vt 0.683298 0.321810
vt 0.379130 0.321810
vt 0.792498 0.279447
vt 0.684639 0.279447
vt 0.556201 0.321810
vt 0.669008 0.300033
vt 0.724483 0.279447
vt 0.724483 0.300033
vt 0.669008 0.279447
vt 0.883108 0.552955
vt 0.830801 0.279447
vt 0.619033 0.279447
vt 0.769826 0.279447
vt 0.570598 0.028401
vt 0.586230 0.300033
vt 0.808129 0.296619
vt 0.281391 0.028401
vt 0.636204 0.279447
vt 0.830801 0.296619
vt 0.808129 0.279447
vt 0.603401 0.300033
vt 0.747154 0.279447
vt 0.792498 0.300033
vt 0.684639 0.300033
vt 0.860512 0.279447
vt 0.523398 0.462118
vt 0.430290 0.007816
vt 0.141083 0.306179
vt 0.361959 0.462118
vt 0.547605 0.470693
vt 0.860390 0.849442
vt 0.123932 0.635805
vt 0.442678 0.462118
vt 0.430290 0.174858
vt 0.297023 0.306179
vt 0.539030 0.595385
vt 0.346327 0.620173
vt 0.521879 0.867017
vt 0.691917 0.453565
vt 0.730564 0.263816
vt 0.691894 0.470693
vt 0.255681 0.891805
vt 0.716101 0.849442
vt 0.141083 0.007816
vt 0.700469 0.462118
vt 0.281391 0.007816
vt 0.700469 0.321810
vt 0.636204 0.300033
vt 0.152084 0.620173
vt 0.762786 0.300033
vt 0.683298 0.328850
vt 0.024987 0.620173
vt 0.556201 0.328850
vt 0.717443 0.279447
vt 0.430290 0.306179
vt 0.539030 0.462118
vt 0.547582 0.453565
vt 0.746196 0.007816
vt 0.586230 0.263816
vt 0.638042 0.611017
vt 0.992184 0.737777
vt 0.716101 0.321810
vt 0.746196 0.263816
vt 0.876022 0.593442
vt 0.586230 0.007816
vt 0.007816 0.891805
vt 0.361958 0.611017
vt 0.876021 0.753408
vt 0.992138 0.753408
vt 0.860390 0.593442
vt 0.123932 0.891805
vt 0.506247 0.611017
vt 0.876021 0.897697
vt 0.139564 0.635805
vt 0.255681 0.635805
vt 0.992138 0.897697
vt 0.716101 0.593442
vt 0.730564 0.007816
vt 0.521879 0.611017
vt 0.876022 0.737777
vt 0.992184 0.593442
vt 0.860436 0.321810
vt 0.862359 0.263816
vt 0.876068 0.570127
vt 0.563558 0.285593
vt 0.007816 0.599587
vt 0.523398 0.595385
vt 0.297023 0.007816
vt 0.346327 0.321810
vt 0.274351 0.285593
vt 0.853473 0.296619
vt 0.169255 0.342396
vt 0.007816 0.156997
vt 0.184887 0.470992
vt 0.007816 0.007816
vt 0.184887 0.620173
vt 0.700469 0.595385
vt 0.202059 0.370973
vt 0.790901 0.893650
vt 0.271312 0.778533
vt 0.202059 0.399549
vt 0.753501 0.865073
vt 0.308712 0.905629
vt 0.915390 0.150544
vt 0.202059 0.428126
vt 0.753501 0.893650
vt 0.202059 0.456703
vt 0.290012 0.905629
vt 0.716101 0.865073
vt 0.202059 0.485280
vt 0.716101 0.893650
vt 0.896690 0.007816
vt 0.202059 0.513857
vt 0.877990 0.134912
vt 0.876068 0.508747
vt 0.202059 0.542434
vt 0.876068 0.537324
vt 0.896690 0.150544
vt 0.202059 0.571011
vt 0.828301 0.865073
vt 0.915390 0.134912
vt 0.329155 0.370973
vt 0.271312 0.905629
vt 0.809601 0.865073
vt 0.772201 0.893650
vt 0.329155 0.399549
vt 0.308712 0.778533
vt 0.772201 0.865073
vt 0.915390 0.277640
vt 0.329155 0.428126
vt 0.329155 0.456703
vt 0.290012 0.778533
vt 0.734801 0.893650
vt 0.329155 0.485280
vt 0.896690 0.134912
vt 0.734801 0.865073
vt 0.329155 0.513857
vt 0.877990 0.007816
vt 0.876068 0.493115
vt 0.329155 0.542434
vt 0.896690 0.277640
vt 0.876068 0.464538
vt 0.329155 0.571011
vt 0.847001 0.893650
vt 0.915390 0.007816
vt 0.088536 0.469206
vt 0.024987 0.599587
vt 0.717443 0.300033
vt 0.876068 0.552955
vt 0.152084 0.599587
vt 0.762786 0.279447
vt 0.837841 0.279447
vt 0.918458 0.134912
vt 0.831369 0.865073
vt 0.904645 0.321810
vt 0.831369 0.893650
vt 0.876068 0.321810
vt 0.330480 0.778533
vt 0.850069 0.893650
vt 0.904645 0.448907
vt 0.918458 0.007816
vt 0.330480 0.905629
vt 0.876068 0.448907
vt 0.850069 0.865073
vt 0.812669 0.893650
vt 0.344098 0.762901
vt 0.881058 0.150544
vt 0.881058 0.277640
vt 0.344098 0.635805
vt 0.793969 0.865073
vt 0.315521 0.635805
vt 0.793969 0.893650
vt 0.274380 0.778533
vt 0.311780 0.905629
vt 0.756569 0.865073
vt 0.682250 0.753745
vt 0.756569 0.893650
vt 0.653673 0.753745
vt 0.918458 0.150544
vt 0.293080 0.905629
vt 0.299889 0.635805
vt 0.719169 0.865073
vt 0.271312 0.635805
vt 0.719169 0.893650
vt 0.899758 0.007816
vt 0.881058 0.134912
vt 0.682250 0.611017
vt 0.879136 0.508747
vt 0.653673 0.611017
vt 0.879136 0.537324
vt 0.899758 0.150544
vt 0.274380 0.905629
vt 0.315521 0.762901
vt 0.812669 0.865073
vt 0.775269 0.893650
vt 0.311780 0.778533
vt 0.682250 0.880842
vt 0.918458 0.277640
vt 0.775269 0.865073
vt 0.653673 0.880842
vt 0.737870 0.893650
vt 0.299889 0.762901
vt 0.293080 0.778533
vt 0.899758 0.134912
vt 0.271312 0.762901
vt 0.737870 0.865073
vt 0.879136 0.493115
vt 0.682250 0.738114
vt 0.881058 0.007816
vt 0.899758 0.277640
vt 0.653673 0.738114
vt 0.879136 0.464538
s 0
f 54/153/1 31/92/1 35/99/1
f 11/31/2 32/94/2 34/98/2
f 57/160/3 39/109/3 10/28/3
f 2/4/1 27/79/1 9/26/1
f 54/152/2 34/98/2 31/91/2
f 73/208/4 36/102/4 15/43/4
f 4/11/2 23/67/2 5/15/2
f 11/32/3 55/155/3 32/93/3
f 36/100/1 35/99/1 43/120/1
f 19/56/5 24/70/5 42/118/5
f 40/111/3 28/82/3 10/28/3
f 32/93/3 55/155/3 4/10/3
f 34/98/2 5/15/2 6/18/2
f 7/20/5 41/116/5 40/112/5
f 44/122/5 33/95/5 43/121/5
f 35/99/1 9/26/1 53/150/1
f 56/158/3 10/28/3 55/155/3
f 17/49/6 55/157/6 74/211/6
f 14/40/4 54/154/4 66/187/4
f 66/187/4 54/154/4 67/191/4
f 54/154/4 68/195/4 67/191/4
f 69/196/4 36/102/4 70/199/4
f 36/102/4 71/202/4 70/199/4
f 36/102/4 72/205/4 71/202/4
f 72/205/4 36/102/4 73/208/4
f 55/155/3 21/61/3 4/10/3
f 75/212/6 41/114/6 42/117/6
f 3/7/6 47/132/6 49/137/6
f 6/16/6 17/49/6 16/46/6
f 54/152/2 11/31/2 34/98/2
f 17/50/1 23/68/1 30/88/1
f 11/33/4 14/40/4 12/34/4
f 67/190/3 92/264/3 91/260/3
f 26/77/6 40/113/6 22/64/6
f 65/184/4 13/37/4 57/161/4
f 18/54/6 24/71/6 19/55/6
f 2/5/6 29/86/6 27/80/6
f 23/69/6 21/63/6 30/89/6
f 75/213/3 24/72/3 25/73/3
f 41/115/1 26/78/1 22/65/1
f 53/150/1 18/52/1 19/57/1
f 16/47/5 27/81/5 29/85/5
f 55/156/5 30/90/5 21/62/5
f 53/149/2 25/75/2 18/53/2
f 6/17/3 29/87/3 20/58/3
f 41/116/5 22/66/5 40/112/5
f 76/217/2 28/84/2 26/76/2
f 53/150/1 43/120/1 35/99/1
f 6/18/2 20/59/2 2/6/2
f 6/18/2 31/91/2 34/98/2
f 7/19/1 51/144/1 45/125/1
f 5/15/2 32/94/2 4/11/2
f 10/28/3 39/109/3 40/111/3
f 9/26/1 31/92/1 2/4/1
f 33/95/5 36/101/5 43/121/5
f 8/23/5 57/162/5 36/101/5
f 3/8/5 39/110/5 57/162/5
f 39/110/5 7/20/5 40/112/5
f 41/116/5 1/1/5 42/118/5
f 1/1/5 19/56/5 42/118/5
f 1/1/5 43/121/5 19/56/5
f 44/122/5 38/106/5 33/95/5
f 50/141/5 47/133/5 48/134/5
f 37/104/5 39/110/5 38/106/5
f 45/126/5 46/129/5 52/146/5
f 38/107/1 49/139/1 50/140/1
f 1/2/4 45/127/4 52/147/4
f 33/96/4 50/142/4 48/135/4
f 44/123/3 52/148/3 46/128/3
f 37/105/6 46/130/6 51/143/6
f 8/24/3 48/136/3 47/131/3
f 74/211/6 10/30/6 76/215/6
f 13/37/4 36/102/4 57/161/4
f 36/100/1 54/153/1 35/99/1
f 11/32/3 56/158/3 55/155/3
f 56/158/3 57/160/3 10/28/3
f 69/196/4 54/154/4 36/102/4
f 56/159/4 59/166/4 60/170/4
f 12/34/4 58/163/4 11/33/4
f 58/163/4 59/166/4 11/33/4
f 56/159/4 64/181/4 57/161/4
f 60/170/4 61/172/4 56/159/4
f 61/172/4 62/175/4 56/159/4
f 62/175/4 63/178/4 56/159/4
f 13/38/1 77/219/1 78/221/1
f 64/181/4 65/184/4 57/161/4
f 58/163/4 67/191/4 59/166/4
f 68/194/2 85/244/2 92/263/2
f 60/170/4 69/196/4 61/172/4
f 60/171/1 84/240/1 85/242/1
f 62/175/4 71/202/4 63/178/4
f 59/168/5 91/261/5 84/239/5
f 64/181/4 73/208/4 65/184/4
f 53/151/6 74/211/6 75/212/6
f 16/46/6 74/211/6 9/27/6
f 77/220/4 80/228/4 78/222/4
f 17/49/6 74/211/6 16/46/6
f 74/211/6 76/215/6 75/212/6
f 82/234/4 90/258/4 83/236/4
f 84/241/4 92/265/4 85/243/4
f 86/246/4 94/270/4 87/248/4
f 88/252/4 96/276/4 89/254/4
f 61/173/5 93/268/5 86/245/5
f 62/176/1 86/247/1 87/249/1
f 70/200/2 87/250/2 94/269/2
f 69/198/3 94/271/3 93/266/3
f 73/209/3 80/229/3 79/224/3
f 63/179/5 95/274/5 88/251/5
f 64/182/1 88/253/1 89/255/1
f 12/35/5 81/232/5 82/233/5
f 72/206/2 89/256/2 96/275/2
f 71/204/3 96/277/3 95/272/3
f 15/45/2 78/223/2 80/227/2
f 65/186/5 79/226/5 77/218/5
f 58/164/1 82/235/1 83/237/1
f 66/188/2 83/238/2 90/257/2
f 14/42/3 90/259/3 81/230/3
f 75/212/6 76/215/6 41/114/6
f 3/7/6 8/22/6 47/132/6
f 6/16/6 5/13/6 17/49/6
f 17/50/1 5/14/1 23/68/1
f 11/33/4 54/154/4 14/40/4
f 67/190/3 68/193/3 92/264/3
f 26/77/6 28/83/6 40/113/6
f 18/54/6 25/74/6 24/71/6
f 2/5/6 20/60/6 29/86/6
f 23/69/6 4/12/6 21/63/6
f 75/213/3 42/119/3 24/72/3
f 41/115/1 76/216/1 26/78/1
f 16/47/5 9/25/5 27/81/5
f 55/156/5 17/51/5 30/90/5
f 53/149/2 75/214/2 25/75/2
f 6/17/3 16/48/3 29/87/3
f 76/217/2 10/29/2 28/84/2
f 53/150/1 19/57/1 43/120/1
f 6/18/2 2/6/2 31/91/2
f 7/19/1 37/103/1 51/144/1
f 5/15/2 34/98/2 32/94/2
f 9/26/1 35/99/1 31/92/1
f 33/95/5 8/23/5 36/101/5
f 8/23/5 3/8/5 57/162/5
f 3/8/5 38/106/5 39/110/5
f 39/110/5 37/104/5 7/20/5
f 41/116/5 7/20/5 1/1/5
f 1/1/5 44/122/5 43/121/5
f 44/122/5 37/104/5 38/106/5
f 50/141/5 49/138/5 47/133/5
f 45/126/5 51/145/5 46/129/5
f 38/107/1 3/9/1 49/139/1
f 1/2/4 7/21/4 45/127/4
f 33/96/4 38/108/4 50/142/4
f 44/123/3 1/3/3 52/148/3
f 37/105/6 44/124/6 46/130/6
f 8/24/3 33/97/3 48/136/3
f 74/211/6 55/157/6 10/30/6
f 13/37/4 15/43/4 36/102/4
f 69/196/4 68/195/4 54/154/4
f 56/159/4 11/33/4 59/166/4
f 56/159/4 63/178/4 64/181/4
f 13/38/1 65/185/1 77/219/1
f 58/163/4 66/187/4 67/191/4
f 68/194/2 60/169/2 85/244/2
f 60/170/4 68/195/4 69/196/4
f 60/171/1 59/167/1 84/240/1
f 62/175/4 70/199/4 71/202/4
f 59/168/5 67/192/5 91/261/5
f 64/181/4 72/205/4 73/208/4
f 53/151/6 9/27/6 74/211/6
f 77/220/4 79/225/4 80/228/4
f 82/234/4 81/231/4 90/258/4
f 84/241/4 91/262/4 92/265/4
f 86/246/4 93/267/4 94/270/4
f 88/252/4 95/273/4 96/276/4
f 61/173/5 69/197/5 93/268/5
f 62/176/1 61/174/1 86/247/1
f 70/200/2 62/177/2 87/250/2
f 69/198/3 70/201/3 94/271/3
f 73/209/3 15/44/3 80/229/3
f 63/179/5 71/203/5 95/274/5
f 64/182/1 63/180/1 88/253/1
f 12/35/5 14/41/5 81/232/5
f 72/206/2 64/183/2 89/256/2
f 71/204/3 72/207/3 96/277/3
f 15/45/2 13/39/2 78/223/2
f 65/186/5 73/210/5 79/226/5
f 58/164/1 12/36/1 82/235/1
f 66/188/2 58/165/2 83/238/2
f 14/42/3 66/189/3 90/259/3
