# Blender 3.3.1
# www.blender.org
o door
v 0.074821 2.538170 -1.453369
v 0.074821 2.538170 1.453369
v -0.074821 0.096813 -1.222856
v -0.062954 -0.064512 -1.453369
v -0.074821 2.376845 -1.222856
v -0.062954 2.538170 -1.453369
v 0.074821 0.096813 -1.453369
v 0.062954 -0.064512 -1.453369
v -0.074821 0.096813 1.222856
v -0.062954 -0.064512 1.453369
v -0.074821 2.376845 1.222856
v -0.062954 2.538170 1.453369
v 0.062954 -0.064512 1.453369
v 0.074821 0.096813 1.453369
v -0.368921 1.894980 0.467458
v -0.367501 1.894980 0.495054
v -0.367501 1.914292 0.467458
v -0.367501 1.761883 0.467458
v -0.367501 1.781196 0.495054
v -0.368921 1.781196 0.467458
v -0.052309 1.894980 -0.415292
v -0.053730 1.894980 -0.442888
v -0.053730 1.914292 -0.415292
v -0.053730 1.761883 -0.415292
v -0.053730 1.781196 -0.442888
v -0.052309 1.781196 -0.415292
v -0.367501 1.894980 -0.442888
v -0.368921 1.894980 -0.415292
v -0.367501 1.914292 -0.415292
v -0.367501 1.761883 -0.415292
v -0.368921 1.781196 -0.415292
v -0.367501 1.781196 -0.442888
v -0.053730 1.761883 0.467458
v -0.052309 1.781196 0.467458
v -0.053730 1.781196 0.495054
v -0.053730 1.914292 0.467458
v -0.053730 1.894980 0.495054
v -0.052309 1.894980 0.467458
v -0.368921 1.781196 -0.309408
v -0.367501 1.761883 -0.309408
v -0.367501 1.761883 -0.254217
v -0.368921 1.781196 -0.254217
v -0.368921 1.781196 0.361573
v -0.368921 1.781196 0.306382
v -0.367501 1.761883 0.306382
v -0.367501 1.761883 0.361573
v -0.053730 1.914292 -0.309407
v -0.053730 1.894980 -0.281812
v -0.052309 1.894980 -0.309407
v -0.053730 1.914292 0.361573
v -0.052309 1.894980 0.361573
v -0.053730 1.894980 0.333978
v -0.053730 1.761883 0.361573
v -0.053730 1.781196 0.333978
v -0.052309 1.781196 0.361573
v -0.053730 1.761883 -0.309407
v -0.052309 1.781196 -0.309407
v -0.053730 1.781196 -0.281812
v -0.368921 1.894980 0.361573
v -0.367501 1.914292 0.361573
v -0.367501 1.914292 0.306382
v -0.368921 1.894980 0.306382
v -0.368921 1.894980 -0.309408
v -0.368921 1.894980 -0.254217
v -0.367501 1.914292 -0.254217
v -0.367501 1.914292 -0.309408
v -0.209195 1.781196 0.495054
v -0.212036 1.781196 0.495054
v -0.212036 1.761883 0.467458
v -0.209195 1.761883 0.467458
v -0.212036 1.781196 -0.442888
v -0.209195 1.781196 -0.442888
v -0.209195 1.761883 -0.415292
v -0.212036 1.761883 -0.415292
v -0.209195 1.894980 -0.442888
v -0.212036 1.894980 -0.442888
v -0.212036 1.914292 -0.415292
v -0.209195 1.914292 -0.415292
v -0.212036 1.894980 0.495054
v -0.209195 1.894980 0.495054
v -0.209195 1.914292 0.467458
v -0.212036 1.914292 0.467458
v -0.210615 1.894980 0.306382
v -0.212036 1.914292 0.306382
v -0.212036 1.914292 0.361573
v -0.209195 1.914292 0.361573
v -0.209195 1.894980 0.333978
v -0.210615 1.894980 -0.254217
v -0.209195 1.894980 -0.281812
v -0.209195 1.914292 -0.309407
v -0.212036 1.914292 -0.309407
v -0.212036 1.914292 -0.254217
v -0.210615 1.781196 -0.254217
v -0.212036 1.761883 -0.254217
v -0.212036 1.761883 -0.309407
v -0.209195 1.761883 -0.309407
v -0.209195 1.781196 -0.281812
v -0.210615 1.781196 0.306382
v -0.209195 1.781196 0.333978
v -0.209195 1.761883 0.361573
v -0.212036 1.761883 0.361573
v -0.212036 1.761883 0.306382
vn -1.0000 -0.0000 -0.0000
vn -0.0000 -0.0000 1.0000
vn -0.0000 1.0000 -0.0000
vn -0.0000 -0.0000 -1.0000
vn 1.0000 -0.0000 -0.0000
vn -0.9987 -0.0000 -0.0514
vn 0.9973 -0.0734 -0.0000
vn -0.9987 -0.0000 0.0514
vn -0.9973 -0.0734 -0.0000
vn -0.9973 0.0734 -0.0000
vn -0.0000 -1.0000 -0.0000
vn -0.9960 0.0733 0.0513
vn -0.9960 -0.0733 0.0513
vn 0.9960 0.0733 -0.0513
vn 0.9960 -0.0733 -0.0513
vn -0.9960 0.0733 -0.0513
vn -0.9960 -0.0733 -0.0513
vn 0.9960 -0.0733 0.0513
vn 0.9960 0.0733 0.0513
vn -0.0000 -0.8193 0.5734
vn -0.0000 -0.8193 -0.5734
vn -0.0000 0.8193 -0.5734
vn -0.0000 0.8193 0.5734
vn 0.9894 0.1456 -0.0000
vn 0.9894 -0.1455 -0.0000
vn 0.9973 0.0734 -0.0000
vn 0.9987 -0.0000 -0.0514
vn 0.9987 -0.0000 0.0514
vt 0.638818 0.296143
vt 0.270842 0.852625
vt 0.628622 0.826453
vt 0.878297 0.311711
vt 0.301420 0.528418
vt 0.311617 0.826453
vt 0.336756 0.030238
vt 0.005098 0.538615
vt 0.311617 0.005098
vt 0.035992 0.005098
vt 0.336756 0.385538
vt 0.638818 0.005098
vt 0.270842 0.561580
vt 0.311617 0.410677
vt 0.021570 0.831083
vt 0.628622 0.446013
vt 0.301420 0.022154
vt 0.005098 0.804591
vt 0.628622 0.420874
vt 0.603483 0.030238
vt 0.628622 0.005098
vt 0.005098 0.243084
vt 0.603483 0.385538
vt 0.010975 0.509754
vt 0.878297 0.020666
vt 0.628622 0.410677
vt 0.311617 0.420874
vt 0.270527 0.260141
vt 0.295908 0.278278
vt 0.311617 0.446013
vt 0.754019 0.321908
vt 0.787229 0.672997
vt 0.977084 0.674235
vt 0.787229 0.669988
vt 0.756292 0.324761
vt 0.790239 0.672997
vt 0.638818 0.987343
vt 0.752047 0.324739
vt 0.961221 0.675262
vt 0.766489 0.672997
vt 0.769498 0.669988
vt 0.965466 0.675239
vt 0.963193 0.678092
vt 0.769498 0.672997
vt 0.713518 0.326069
vt 0.295596 0.593302
vt 0.725988 0.324052
vt 0.298605 0.593302
vt 0.715791 0.329217
vt 0.295596 0.596311
vt 0.711546 0.329240
vt 0.888493 0.007702
vt 0.741851 0.325079
vt 0.295596 0.572561
vt 0.298605 0.575570
vt 0.737605 0.325056
vt 0.739879 0.321908
vt 0.295596 0.575570
vt 0.725988 0.986884
vt 0.787229 0.772278
vt 0.715791 0.992049
vt 0.713518 0.994902
vt 0.787229 0.769269
vt 0.711546 0.992071
vt 0.790239 0.769269
vt 0.766489 0.769269
vt 0.888493 0.670534
vt 0.741851 0.987910
vt 0.739879 0.990741
vt 0.769498 0.769269
vt 0.737605 0.987888
vt 0.769498 0.772278
vt 0.284048 0.538615
vt 0.961221 0.012430
vt 0.963193 0.009259
vt 0.284048 0.541624
vt 0.965466 0.012408
vt 0.281039 0.541624
vt 0.638818 0.324512
vt 0.752047 0.987570
vt 0.284048 0.562365
vt 0.281039 0.559355
vt 0.977084 0.011404
vt 0.756292 0.987592
vt 0.754019 0.990741
vt 0.284048 0.559355
vt 0.769498 0.757721
vt 0.766489 0.757721
vt 0.897217 0.671101
vt 0.766489 0.751702
vt 0.901764 0.671397
vt 0.769498 0.751702
vt 0.769498 0.684545
vt 0.769498 0.690564
vt 0.766489 0.690564
vt 0.947950 0.674399
vt 0.766489 0.684545
vt 0.952497 0.674695
vt 0.702822 0.328673
vt 0.799067 0.325079
vt 0.284048 0.596311
vt 0.281038 0.593302
vt 0.913080 0.007243
vt 0.794822 0.325056
vt 0.797095 0.321908
vt 0.284048 0.593302
vt 0.295596 0.562365
vt 0.647542 0.325079
vt 0.649514 0.321908
vt 0.295596 0.559355
vt 0.651787 0.325056
vt 0.766489 0.324052
vt 0.298605 0.559355
vt 0.952497 0.011863
vt 0.782352 0.325079
vt 0.295596 0.538615
vt 0.298605 0.541624
vt 0.778106 0.325056
vt 0.780380 0.321908
vt 0.295596 0.541624
vt 0.284048 0.572561
vt 0.897217 0.008269
vt 0.899189 0.005098
vt 0.284048 0.575570
vt 0.901462 0.008247
vt 0.281038 0.575570
vt 0.787229 0.684545
vt 0.790239 0.684545
vt 0.647542 0.987911
vt 0.790239 0.690564
vt 0.652089 0.988206
vt 0.787229 0.690564
vt 0.787229 0.757721
vt 0.787229 0.751702
vt 0.790239 0.751702
vt 0.698275 0.991208
vt 0.790239 0.757721
vt 0.702822 0.991504
vt 0.965466 0.340823
vt 0.965466 0.346824
vt 0.961221 0.346847
vt 0.961221 0.340845
vt 0.737605 0.659473
vt 0.737605 0.653471
vt 0.741851 0.653494
vt 0.888493 0.336117
vt 0.741851 0.659496
vt 0.888493 0.342119
vt 0.725988 0.652467
vt 0.715791 0.657632
vt 0.715791 0.663634
vt 0.725988 0.658469
vt 0.711546 0.663657
vt 0.711546 0.657655
vt 0.977084 0.345820
vt 0.756292 0.653176
vt 0.756292 0.659178
vt 0.977084 0.339819
vt 0.752047 0.659155
vt 0.638818 0.652927
vt 0.752047 0.653153
vt 0.638818 0.658929
vt 0.654061 0.656620
vt 0.821176 0.734135
vt 0.652089 0.659791
vt 0.824185 0.734135
vt 0.647542 0.659496
vt 0.647542 0.653494
vt 0.821176 0.737145
vt 0.766489 0.652467
vt 0.651787 0.653471
vt 0.792548 0.656620
vt 0.821176 0.672997
vt 0.913080 0.335658
vt 0.821176 0.669988
vt 0.794822 0.653471
vt 0.799067 0.653494
vt 0.702822 0.657087
vt 0.799067 0.659496
vt 0.702822 0.663089
vt 0.824185 0.672997
vt 0.794520 0.659791
vt 0.698275 0.662794
vt 0.903736 0.339810
vt 0.803445 0.672997
vt 0.901764 0.342982
vt 0.800435 0.672997
vt 0.897217 0.342686
vt 0.897217 0.336684
vt 0.803445 0.669988
vt 0.901462 0.336662
vt 0.775833 0.656620
vt 0.803445 0.734135
vt 0.803445 0.737145
vt 0.778106 0.653471
vt 0.782352 0.653494
vt 0.952497 0.340278
vt 0.782352 0.659496
vt 0.952497 0.346280
vt 0.800435 0.734135
vt 0.777805 0.659791
vt 0.947950 0.345984
s 0
f 11/23/1 3/7/1 9/20/1
f 14/29/2 12/24/2 10/22/2
f 23/51/3 90/178/3 47/99/3
f 1/1/3 12/25/3 2/4/3
f 6/13/4 7/15/4 8/18/4
f 1/3/5 14/30/5 7/16/5
f 5/11/6 4/9/6 3/7/6
f 8/19/7 14/30/7 13/27/7
f 9/20/8 12/26/8 11/23/8
f 10/21/9 3/7/9 4/9/9
f 6/14/10 11/23/10 12/26/10
f 13/28/11 4/10/11 8/17/11
f 33/74/11 100/197/11 53/114/11
f 85/167/3 17/37/3 82/162/3
f 77/153/3 66/138/3 91/180/3
f 21/46/5 57/124/5 26/58/5
f 95/188/11 30/67/11 74/148/11
f 69/141/11 46/98/11 101/199/11
f 88/173/5 98/193/5 93/185/5
f 37/83/2 67/139/2 35/77/2
f 58/125/2 89/174/2 97/191/2
f 79/155/2 19/42/2 68/140/2
f 102/202/11 41/91/11 94/186/11
f 75/149/4 25/56/4 72/144/4
f 92/183/3 61/131/3 84/165/3
f 27/59/4 71/143/4 32/71/4
f 87/170/4 54/118/4 99/195/4
f 62/132/1 42/92/1 44/94/1
f 56/122/11 73/146/11 24/52/11
f 50/108/3 81/160/3 36/79/3
f 51/110/5 34/76/5 55/120/5
f 63/133/1 31/70/1 39/87/1
f 15/31/12 16/35/12 17/38/12
f 18/39/13 19/42/13 20/43/13
f 21/45/14 22/49/14 23/51/14
f 24/53/15 25/56/15 26/57/15
f 27/61/16 28/62/16 29/64/16
f 30/68/17 31/69/17 32/71/17
f 33/74/18 34/75/18 35/77/18
f 36/80/19 37/84/19 38/85/19
f 40/88/9 42/92/9 39/87/9
f 44/94/9 46/97/9 43/93/9
f 47/100/19 48/104/19 49/105/19
f 50/108/14 51/109/14 52/111/14
f 53/115/15 54/118/15 55/119/15
f 56/122/18 57/123/18 58/125/18
f 60/128/10 62/132/10 59/127/10
f 64/134/10 66/137/10 63/133/10
f 68/140/20 70/142/20 67/139/20
f 72/144/21 74/147/21 71/143/21
f 76/151/22 78/154/22 75/150/22
f 80/157/23 82/161/23 79/156/23
f 84/165/14 86/168/14 87/171/14
f 89/176/24 91/179/24 92/182/24
f 94/186/18 96/189/18 97/191/18
f 99/195/25 101/198/25 102/201/25
f 18/40/9 43/93/9 46/97/9
f 20/44/8 16/34/8 15/32/8
f 33/74/20 67/139/20 70/142/20
f 36/81/26 51/110/26 50/107/26
f 24/54/7 57/124/7 56/121/7
f 30/68/21 71/143/21 74/147/21
f 26/58/27 22/48/27 21/46/27
f 28/63/6 32/72/6 31/70/6
f 23/51/22 75/150/22 78/154/22
f 17/38/23 79/156/23 82/161/23
f 35/78/28 38/86/28 37/82/28
f 29/65/10 63/133/10 66/137/10
f 40/88/9 31/70/9 30/66/9
f 45/95/9 42/92/9 41/90/9
f 47/101/26 21/46/26 23/50/26
f 89/175/28 93/185/28 97/190/28
f 53/116/7 34/76/7 33/73/7
f 99/194/27 83/164/27 87/169/27
f 60/128/10 15/32/10 17/36/10
f 65/135/10 62/132/10 61/130/10
f 61/131/3 85/167/3 84/165/3
f 66/138/3 92/183/3 91/180/3
f 41/91/11 95/188/11 94/186/11
f 46/98/11 102/202/11 101/199/11
f 44/94/1 59/127/1 62/132/1
f 39/87/1 64/134/1 63/133/1
f 58/126/28 49/106/28 48/102/28
f 55/120/27 52/113/27 51/110/27
f 69/141/20 19/42/20 18/39/20
f 73/145/21 25/56/21 24/53/21
f 77/153/22 27/61/22 29/64/22
f 81/159/23 37/84/23 36/80/23
f 87/171/22 50/108/22 52/111/22
f 90/177/23 48/104/23 47/100/23
f 97/191/20 56/122/20 58/125/20
f 100/196/21 54/118/21 53/115/21
f 94/187/7 98/193/7 102/200/7
f 74/148/11 96/189/11 95/188/11
f 84/166/26 88/173/26 92/181/26
f 82/162/3 86/168/3 85/167/3
f 91/180/3 78/154/3 77/153/3
f 101/199/11 70/142/11 69/141/11
f 68/140/2 80/158/2 79/155/2
f 72/144/4 76/152/4 75/149/4
f 15/32/1 43/93/1 20/44/1
f 11/23/1 5/11/1 3/7/1
f 10/22/2 13/28/2 14/29/2
f 14/29/2 2/5/2 12/24/2
f 23/51/3 78/154/3 90/178/3
f 1/1/3 6/12/3 12/25/3
f 8/18/4 4/8/4 6/13/4
f 6/13/4 1/2/4 7/15/4
f 1/3/5 2/6/5 14/30/5
f 5/11/6 6/14/6 4/9/6
f 8/19/7 7/16/7 14/30/7
f 9/20/8 10/21/8 12/26/8
f 10/21/9 9/20/9 3/7/9
f 6/14/10 5/11/10 11/23/10
f 13/28/11 10/22/11 4/10/11
f 33/74/11 70/142/11 100/197/11
f 85/167/3 60/129/3 17/37/3
f 77/153/3 29/64/3 66/138/3
f 21/46/5 49/106/5 57/124/5
f 95/188/11 40/89/11 30/67/11
f 69/141/11 18/39/11 46/98/11
f 88/173/5 83/164/5 98/193/5
f 37/83/2 80/158/2 67/139/2
f 58/125/2 48/103/2 89/174/2
f 79/155/2 16/33/2 19/42/2
f 102/202/11 45/96/11 41/91/11
f 75/149/4 22/47/4 25/56/4
f 92/183/3 65/136/3 61/131/3
f 27/59/4 76/152/4 71/143/4
f 87/170/4 52/112/4 54/118/4
f 62/132/1 64/134/1 42/92/1
f 56/122/11 96/189/11 73/146/11
f 50/108/3 86/168/3 81/160/3
f 51/110/5 38/86/5 34/76/5
f 63/133/1 28/63/1 31/70/1
f 40/88/9 41/90/9 42/92/9
f 44/94/9 45/95/9 46/97/9
f 60/128/10 61/130/10 62/132/10
f 64/134/10 65/135/10 66/137/10
f 68/140/20 69/141/20 70/142/20
f 72/144/21 73/145/21 74/147/21
f 76/151/22 77/153/22 78/154/22
f 80/157/23 81/159/23 82/161/23
f 87/171/14 83/163/14 84/165/14
f 84/165/3 85/167/3 86/168/3
f 92/182/19 88/172/19 89/176/19
f 89/176/23 90/177/23 91/179/23
f 97/191/18 93/184/18 94/186/18
f 94/186/11 95/188/11 96/189/11
f 102/201/15 98/192/15 99/195/15
f 99/195/21 100/196/21 101/198/21
f 18/40/9 20/44/9 43/93/9
f 20/44/8 19/41/8 16/34/8
f 33/74/20 35/77/20 67/139/20
f 36/81/26 38/86/26 51/110/26
f 24/54/7 26/58/7 57/124/7
f 30/68/21 32/71/21 71/143/21
f 26/58/27 25/55/27 22/48/27
f 28/63/6 27/60/6 32/72/6
f 23/51/22 22/49/22 75/150/22
f 17/38/23 16/35/23 79/156/23
f 35/78/28 34/76/28 38/86/28
f 29/65/10 28/63/10 63/133/10
f 40/88/9 39/87/9 31/70/9
f 45/95/9 44/94/9 42/92/9
f 47/101/26 49/106/26 21/46/26
f 89/175/28 88/173/28 93/185/28
f 53/116/7 55/120/7 34/76/7
f 99/194/27 98/193/27 83/164/27
f 60/128/10 59/127/10 15/32/10
f 65/135/10 64/134/10 62/132/10
f 61/131/3 60/129/3 85/167/3
f 66/138/3 65/136/3 92/183/3
f 41/91/11 40/89/11 95/188/11
f 46/98/11 45/96/11 102/202/11
f 44/94/1 43/93/1 59/127/1
f 39/87/1 42/92/1 64/134/1
f 58/126/28 57/124/28 49/106/28
f 55/120/27 54/117/27 52/113/27
f 69/141/20 68/140/20 19/42/20
f 73/145/21 72/144/21 25/56/21
f 77/153/22 76/151/22 27/61/22
f 81/159/23 80/157/23 37/84/23
f 87/171/22 86/168/22 50/108/22
f 90/177/23 89/176/23 48/104/23
f 97/191/20 96/189/20 56/122/20
f 100/196/21 99/195/21 54/118/21
f 94/187/7 93/185/7 98/193/7
f 74/148/11 73/146/11 96/189/11
f 84/166/26 83/164/26 88/173/26
f 82/162/3 81/160/3 86/168/3
f 91/180/3 90/178/3 78/154/3
f 101/199/11 100/197/11 70/142/11
f 68/140/2 67/139/2 80/158/2
f 72/144/4 71/143/4 76/152/4
f 15/32/1 59/127/1 43/93/1
