# Blender 3.3.1
# www.blender.org
o Board
v 0.587787 2.678379 0.076243
v 0.803111 2.389947 0.076243
v 0.670188 2.656424 0.076243
v 0.740044 2.593899 0.076243
v 0.786720 2.500325 0.076243
v 0.803111 0.287749 0.076243
v 0.587787 -0.000683 0.076243
v 0.786720 0.177371 0.076243
v 0.740044 0.083796 0.076243
v 0.670188 0.021272 0.076243
v 0.803111 2.389947 -0.076243
v 0.587787 2.678379 -0.076243
v 0.786720 2.500325 -0.076243
v 0.740044 2.593899 -0.076243
v 0.670188 2.656424 -0.076243
v 0.587787 -0.000683 -0.076243
v 0.803111 0.287749 -0.076243
v 0.670188 0.021272 -0.076243
v 0.740044 0.083796 -0.076243
v 0.786720 0.177371 -0.076243
v -1.196889 2.389947 0.076243
v -0.981566 2.678379 0.076243
v -1.180499 2.500325 0.076243
v -1.133823 2.593899 0.076243
v -1.063967 2.656424 0.076243
v -0.981566 -0.000683 0.076243
v -1.196889 0.287749 0.076243
v -1.063967 0.021272 0.076243
v -1.133823 0.083796 0.076243
v -1.180499 0.177371 0.076243
v -0.981566 2.678379 -0.076243
v -1.196889 2.389947 -0.076243
v -1.063967 2.656424 -0.076243
v -1.133823 2.593899 -0.076243
v -1.180499 2.500325 -0.076243
v -1.196889 0.287749 -0.076243
v -0.981566 -0.000683 -0.076243
v -1.180499 0.177371 -0.076243
v -1.133823 0.083796 -0.076243
v -1.063967 0.021272 -0.076243
v -0.689914 2.639077 0.076243
v 0.296135 2.639077 0.076243
v -0.458448 2.678379 -0.076243
v 0.064669 2.678379 -0.076243
v -0.458448 2.749130 0.076243
v 0.064669 2.749130 0.076243
v -0.458448 2.749130 -0.076243
v 0.064669 2.749130 -0.076243
v -0.689914 2.639077 0.123845
v 0.296135 2.639077 0.123845
v -0.458448 2.749130 0.123845
v 0.064669 2.749130 0.123845
v -0.689914 2.571793 0.076243
v -0.646968 2.514266 0.076243
v -0.677335 2.531115 0.076243
v 0.253189 2.514266 0.076243
v 0.296135 2.571793 0.076243
v 0.283557 2.531115 0.076243
v -0.646968 2.514266 0.123845
v -0.689914 2.571793 0.123845
v -0.677335 2.531115 0.123845
v 0.296135 2.571793 0.123845
v 0.253189 2.514266 0.123845
v 0.283557 2.531115 0.123845
v -0.719254 2.678379 0.076243
v 0.325476 2.678379 0.076243
v -0.719254 2.678379 0.123845
v 0.325476 2.678379 0.123845
v -0.699792 2.501034 0.123845
v -0.652804 2.474963 0.123845
v -0.652804 2.474963 0.076243
v -0.699792 2.501034 0.076243
v -0.719254 2.563975 0.123845
v -0.719254 2.563975 0.076243
v 0.306013 2.501034 0.123845
v 0.325476 2.563975 0.123845
v 0.325476 2.563975 0.076243
v 0.306013 2.501034 0.076243
v 0.259026 2.474963 0.123845
v 0.259026 2.474963 0.076243
vn -0.0000 -1.0000 -0.0000
vn -1.0000 -0.0000 -0.0000
vn -0.0000 -0.0000 -1.0000
vn -0.0000 1.0000 -0.0000
vn 1.0000 -0.0000 -0.0000
vn -0.2575 -0.9663 -0.0000
vn -0.6669 -0.7451 -0.0000
vn -0.8949 -0.4464 -0.0000
vn -0.9892 -0.1469 -0.0000
vn 0.2575 0.9663 -0.0000
vn 0.6669 0.7451 -0.0000
vn 0.8949 0.4464 -0.0000
vn 0.9892 0.1469 -0.0000
vn -0.2575 0.9663 -0.0000
vn -0.6669 0.7451 -0.0000
vn -0.8949 0.4464 -0.0000
vn -0.9892 0.1469 -0.0000
vn 0.2575 -0.9663 -0.0000
vn 0.6669 -0.7451 -0.0000
vn 0.8949 -0.4464 -0.0000
vn 0.9892 -0.1469 -0.0000
vn -0.0000 -0.0000 1.0000
vn -0.2390 0.8808 -0.4087
vn -0.2618 0.9651 -0.0000
vn 0.4852 0.8744 -0.0000
vn 0.2618 0.9651 -0.0000
vn -0.4852 -0.8744 -0.0000
vn -0.9554 -0.2954 -0.0000
vn 0.9554 -0.2954 -0.0000
vn 0.4852 -0.8744 -0.0000
vn 0.9554 0.2954 -0.0000
vn -0.4852 0.8744 -0.0000
vn -0.9554 0.2954 -0.0000
vn 0.2390 0.8808 -0.4087
vt 0.033288 0.111472
vt 0.665544 0.659523
vt 0.706915 0.339171
vt 0.629898 0.695168
vt 0.019647 0.111483
vt 0.662831 0.673164
vt 0.681710 0.339171
vt 0.008083 0.111513
vt 0.655104 0.684728
vt 0.693274 0.339171
vt 0.643539 0.692455
vt 0.966712 0.339171
vt 0.370102 0.695168
vt 0.293085 0.458764
vt 0.334456 0.659523
vt 0.980353 0.339171
vt 0.356461 0.692455
vt 0.318290 0.458764
vt 0.991917 0.339171
vt 0.344896 0.684728
vt 0.306726 0.458764
vt 0.337169 0.673164
vt 0.665544 0.303525
vt 0.706915 0.008083
vt 0.629898 0.339171
vt 0.033288 0.442558
vt 0.662831 0.317166
vt 0.693274 0.008083
vt 0.655104 0.328731
vt 0.008083 0.442598
vt 0.681710 0.008083
vt 0.643539 0.336457
vt 0.019647 0.442569
vt 0.293085 0.789852
vt 0.629898 0.008083
vt 0.665544 0.043728
vt 0.966712 0.008083
vt 0.643539 0.010796
vt 0.306726 0.789852
vt 0.991917 0.008083
vt 0.655104 0.018523
vt 0.318290 0.789852
vt 0.662831 0.030087
vt 0.980353 0.008083
vt 0.708117 0.355337
vt 0.629898 0.364080
vt 0.293085 0.111472
vt 0.665544 0.399726
vt 0.694232 0.355337
vt 0.643539 0.366794
vt 0.318290 0.111513
vt 0.681710 0.355337
vt 0.655104 0.374521
vt 0.306726 0.111483
vt 0.662831 0.386085
vt 0.033288 0.458764
vt 0.334456 0.399726
vt 0.965416 0.355337
vt 0.370102 0.364080
vt 0.019647 0.458764
vt 0.337169 0.386085
vt 0.988934 0.355337
vt 0.008083 0.458764
vt 0.344896 0.374521
vt 0.978550 0.355337
vt 0.356461 0.366794
vt 0.370101 0.339171
vt 0.293085 0.442558
vt 0.334456 0.303525
vt 0.708117 0.686425
vt 0.356461 0.336457
vt 0.306726 0.442569
vt 0.681710 0.686425
vt 0.344896 0.328731
vt 0.318290 0.442598
vt 0.337169 0.317166
vt 0.694232 0.686425
vt 0.334456 0.043728
vt 0.965416 0.686425
vt 0.370101 0.008083
vt 0.033288 0.789852
vt 0.337169 0.030087
vt 0.978550 0.686425
vt 0.344896 0.018523
vt 0.008083 0.789852
vt 0.988934 0.686425
vt 0.356461 0.010796
vt 0.019647 0.789852
vt 0.856138 0.707447
vt 0.905927 0.805947
vt 0.334456 0.711334
vt 0.662519 0.711334
vt 0.334456 0.874568
vt 0.856138 0.870682
vt 0.456700 0.339171
vt 0.206486 0.442558
vt 0.119887 0.442558
vt 0.543299 0.339171
vt 0.206486 0.111439
vt 0.119887 0.111439
vt 0.206486 0.442524
vt 0.456700 0.347914
vt 0.119887 0.442524
vt 0.543299 0.347914
vt 0.821514 0.707448
vt 0.905927 0.702590
vt 0.437812 0.711334
vt 0.821514 0.870682
vt 0.662519 0.814690
vt 0.437812 0.874568
vt 0.835114 0.745765
vt 0.206486 0.008083
vt 0.835114 0.832364
vt 0.119887 0.008083
vt 0.864453 0.707447
vt 0.897612 0.805947
vt 0.453978 0.865377
vt 0.871562 0.714557
vt 0.453986 0.870404
vt 0.869480 0.709530
vt 0.892585 0.805947
vt 0.871562 0.863573
vt 0.453978 0.716361
vt 0.864453 0.870682
vt 0.654284 0.711334
vt 0.869480 0.868600
vt 0.453986 0.711334
vt 0.649017 0.711334
vt 0.557334 0.865377
vt 0.806089 0.714557
vt 0.813199 0.707448
vt 0.897612 0.702590
vt 0.557342 0.870404
vt 0.808172 0.709530
vt 0.892585 0.702590
vt 0.813199 0.870682
vt 0.654284 0.814690
vt 0.557334 0.716361
vt 0.806089 0.863573
vt 0.649017 0.814690
vt 0.808172 0.868600
vt 0.557342 0.711334
vt 0.632851 0.711334
vt 0.249661 0.111472
vt 0.665544 0.443150
vt 0.851280 0.702590
vt 0.665544 0.616099
vt 0.076712 0.111472
vt 0.595425 0.814691
vt 0.851280 0.875539
vt 0.249661 0.008117
vt 0.632851 0.814690
vt 0.826371 0.702590
vt 0.595425 0.711334
vt 0.076712 0.008117
vt 0.826371 0.875539
vt 0.611591 0.814690
vt 0.785066 0.702590
vt 0.804454 0.705812
vt 0.785066 0.710369
vt 0.801232 0.713591
vt 0.681710 0.710369
vt 0.876419 0.713591
vt 0.681710 0.702590
vt 0.611591 0.711334
vt 0.873197 0.705812
vt 0.618849 0.814690
vt 0.812232 0.702590
vt 0.618849 0.711334
vt 0.865419 0.702590
vt 0.785066 0.869095
vt 0.573508 0.711334
vt 0.804454 0.872317
vt 0.581286 0.711334
vt 0.812232 0.875539
vt 0.581286 0.814691
vt 0.865419 0.875539
vt 0.573508 0.814691
vt 0.681710 0.869095
vt 0.873197 0.872317
vt 0.785066 0.861317
vt 0.801232 0.864539
vt 0.681710 0.861317
vt 0.876419 0.864539
s 0
f 7/14/1 26/56/1 37/81/1
f 32/70/2 36/79/2 27/58/2
f 44/98/3 39/84/3 35/76/3
f 65/144/4 43/96/4 31/68/4
f 2/3/5 6/12/5 17/37/5
f 37/81/6 26/56/6 28/60/6
f 40/88/7 28/60/7 29/63/7
f 39/86/8 29/62/8 30/65/8
f 38/83/9 30/65/9 27/58/9
f 12/26/10 1/1/10 3/5/10
f 15/33/11 3/5/11 4/8/11
f 14/31/12 4/7/12 5/10/12
f 13/28/13 5/10/13 2/3/13
f 22/47/14 31/68/14 33/72/14
f 25/54/15 33/72/15 34/75/15
f 24/52/16 34/73/16 35/77/16
f 23/49/17 35/77/17 32/70/17
f 7/14/18 16/34/18 18/39/18
f 10/21/19 18/39/19 19/42/19
f 9/19/20 19/40/20 20/44/20
f 8/16/21 20/44/21 17/37/21
f 65/145/22 9/20/22 5/11/22
f 66/148/4 1/1/4 12/26/4
f 44/97/5 48/103/5 46/100/5
f 45/99/4 46/100/4 48/103/4
f 43/96/23 65/144/23 45/99/23
f 44/98/3 43/95/3 47/102/3
f 45/99/24 65/144/24 67/151/24
f 67/153/22 68/156/22 52/113/22
f 55/119/25 61/133/25 59/129/25
f 66/148/26 46/100/26 52/114/26
f 46/100/4 45/99/4 51/112/4
f 67/152/2 65/143/2 74/169/2
f 71/162/1 80/183/1 79/181/1
f 66/149/5 68/154/5 76/174/5
f 71/162/27 70/160/27 69/158/27
f 72/165/28 69/157/28 73/167/28
f 77/176/29 76/174/29 75/172/29
f 78/179/30 75/171/30 79/181/30
f 63/138/4 56/123/4 54/117/4
f 42/94/3 41/89/3 65/146/3
f 49/105/22 50/108/22 68/156/22
f 61/134/22 69/159/22 70/161/22
f 55/120/3 54/118/3 71/163/3
f 61/134/22 60/131/22 73/168/22
f 55/120/3 72/166/3 74/170/3
f 64/141/22 75/173/22 76/175/22
f 58/126/3 57/124/3 77/177/3
f 64/141/22 63/139/22 79/182/22
f 58/126/3 78/180/3 80/184/3
f 42/94/3 66/150/3 77/177/3
f 41/89/3 53/115/3 74/170/3
f 54/118/3 56/122/3 80/184/3
f 63/139/22 59/130/22 70/161/22
f 49/105/22 67/153/22 73/168/22
f 50/108/22 62/136/22 76/175/22
f 53/116/31 60/132/31 61/135/31
f 60/132/5 53/116/5 41/90/5
f 56/123/32 63/138/32 64/142/32
f 58/128/33 64/140/33 62/137/33
f 50/109/2 42/92/2 57/125/2
f 41/91/1 42/93/1 50/110/1
f 7/14/1 37/81/1 16/34/1
f 32/70/2 27/58/2 21/45/2
f 37/80/3 18/38/3 16/35/3
f 18/38/3 20/43/3 19/41/3
f 20/43/3 11/23/3 17/36/3
f 11/23/3 14/29/3 13/27/3
f 14/29/3 12/25/3 15/32/3
f 44/98/1 31/67/1 43/95/1
f 14/29/3 44/98/3 12/25/3
f 20/43/3 14/29/3 11/23/3
f 37/80/3 20/43/3 18/38/3
f 39/84/3 37/80/3 40/87/3
f 36/78/3 39/84/3 38/82/3
f 35/76/3 36/78/3 32/69/3
f 33/71/3 35/76/3 34/74/3
f 44/98/3 33/71/3 31/67/3
f 20/43/3 44/98/3 14/29/3
f 39/84/3 20/43/3 37/80/3
f 35/76/3 39/84/3 36/78/3
f 44/98/3 35/76/3 33/71/3
f 39/84/3 44/98/3 20/43/3
f 65/144/4 31/68/4 22/47/4
f 2/3/5 17/37/5 11/24/5
f 37/81/6 28/60/6 40/88/6
f 40/88/7 29/63/7 39/85/7
f 39/86/8 30/65/8 38/83/8
f 38/83/9 27/58/9 36/79/9
f 12/26/10 3/5/10 15/33/10
f 15/33/11 4/8/11 14/30/11
f 14/31/12 5/10/12 13/28/12
f 13/28/13 2/3/13 11/24/13
f 22/47/14 33/72/14 25/54/14
f 25/54/15 34/75/15 24/51/15
f 24/52/16 35/77/16 23/49/16
f 23/49/17 32/70/17 21/45/17
f 7/14/18 18/39/18 10/21/18
f 10/21/19 19/42/19 9/18/19
f 9/19/20 20/44/20 8/16/20
f 8/16/21 17/37/21 6/12/21
f 7/15/22 28/61/22 26/57/22
f 28/61/22 30/66/22 29/64/22
f 30/66/22 21/46/22 27/59/22
f 21/46/22 24/53/22 23/50/22
f 24/53/22 22/48/22 25/55/22
f 65/145/4 1/2/4 66/147/4
f 24/53/22 65/145/22 22/48/22
f 30/66/22 24/53/22 21/46/22
f 7/15/22 30/66/22 28/61/22
f 9/20/22 7/15/22 10/22/22
f 6/13/22 9/20/22 8/17/22
f 5/11/22 6/13/22 2/4/22
f 3/6/22 5/11/22 4/9/22
f 65/145/22 3/6/22 1/2/22
f 30/66/22 65/145/22 24/53/22
f 9/20/22 30/66/22 7/15/22
f 5/11/22 9/20/22 6/13/22
f 65/145/22 5/11/22 3/6/22
f 9/20/22 65/145/22 30/66/22
f 66/148/4 12/26/4 44/97/4
f 44/97/34 46/100/34 66/148/34
f 45/99/4 48/103/4 47/101/4
f 43/96/2 45/99/2 47/101/2
f 44/98/3 47/102/3 48/104/3
f 45/99/24 67/151/24 51/112/24
f 67/153/22 52/113/22 51/111/22
f 55/119/25 59/129/25 54/117/25
f 66/148/26 52/114/26 68/155/26
f 46/100/4 51/112/4 52/114/4
f 67/152/2 74/169/2 73/167/2
f 71/162/1 79/181/1 70/160/1
f 66/149/5 76/174/5 77/176/5
f 71/162/27 69/158/27 72/164/27
f 72/165/28 73/167/28 74/169/28
f 77/176/29 75/172/29 78/178/29
f 78/179/30 79/181/30 80/183/30
f 63/138/4 54/117/4 59/129/4
f 42/94/3 65/146/3 66/150/3
f 49/105/22 68/156/22 67/153/22
f 61/134/22 70/161/22 59/130/22
f 55/120/3 71/163/3 72/166/3
f 61/134/22 73/168/22 69/159/22
f 55/120/3 74/170/3 53/115/3
f 64/141/22 76/175/22 62/136/22
f 58/126/3 77/177/3 78/180/3
f 64/141/22 79/182/22 75/173/22
f 58/126/3 80/184/3 56/122/3
f 42/94/3 77/177/3 57/124/3
f 41/89/3 74/170/3 65/146/3
f 54/118/3 80/184/3 71/163/3
f 63/139/22 70/161/22 79/182/22
f 49/105/22 73/168/22 60/131/22
f 50/108/22 76/175/22 68/156/22
f 53/116/31 61/135/31 55/121/31
f 60/132/5 41/90/5 49/106/5
f 56/123/32 64/142/32 58/127/32
f 58/128/33 62/137/33 57/125/33
f 50/109/2 57/125/2 62/137/2
f 41/91/1 50/110/1 49/107/1
