# Blender 3.3.1
# www.blender.org
o rotator
v 0.000000 0.402488 -0.086054
v 0.000000 1.513902 -0.051369
v 0.022272 0.402488 -0.083121
v 0.013295 1.513902 -0.049618
v 0.043027 0.402488 -0.074525
v 0.025684 1.513902 -0.044486
v 0.060849 0.402488 -0.060849
v 0.036323 1.513902 -0.036323
v 0.074525 0.402488 -0.043027
v 0.044486 1.513902 -0.025684
v 0.083025 0.399918 -0.016086
v 0.049618 1.513902 -0.013295
v 0.086134 0.399918 0.007526
v 0.051369 1.513902 0.000000
v 0.083121 0.402488 0.022272
v 0.049618 1.513902 0.013295
v 0.074525 0.402488 0.043027
v 0.044486 1.513902 0.025684
v 0.060849 0.402488 0.060849
v 0.036323 1.513902 0.036323
v 0.043027 0.402488 0.074525
v 0.025684 1.513902 0.044486
v 0.022272 0.402488 0.083121
v 0.013295 1.513902 0.049618
v 0.000000 0.402488 0.086054
v 0.000000 1.513902 0.051369
v -0.022272 0.402488 0.083121
v -0.013295 1.513902 0.049618
v -0.043027 0.402488 0.074525
v -0.025684 1.513902 0.044486
v -0.060849 0.402488 0.060849
v -0.036323 1.513902 0.036323
v -0.074525 0.402488 0.043027
v -0.044486 1.513902 0.025684
v -0.083121 0.402488 0.022272
v -0.049618 1.513902 0.013295
v -0.086054 0.402488 0.000000
v -0.051369 1.513902 0.000000
v -0.083121 0.402488 -0.022272
v -0.049618 1.513902 -0.013295
v -0.074525 0.402488 -0.043027
v -0.044486 1.513902 -0.025684
v -0.060849 0.402488 -0.060849
v -0.036323 1.513902 -0.036323
v -0.043027 0.402488 -0.074525
v -0.025684 1.513902 -0.044486
v -0.022272 0.402488 -0.083121
v -0.013295 1.513902 -0.049618
v 0.000000 0.487946 -0.086054
v 0.022272 0.487946 -0.083121
v 0.043027 0.487946 -0.074525
v 0.060849 0.487946 -0.060849
v 0.074525 0.487946 -0.043027
v 0.083025 0.490517 -0.016086
v 0.086134 0.490517 0.007526
v 0.083121 0.487946 0.022272
v 0.074525 0.487946 0.043027
v 0.060849 0.487946 0.060849
v 0.043027 0.487946 0.074525
v 0.022272 0.487946 0.083121
v 0.000000 0.487946 0.086054
v -0.022272 0.487946 0.083121
v -0.043027 0.487946 0.074525
v -0.060849 0.487946 0.060849
v -0.074525 0.487946 0.043027
v -0.083121 0.487946 0.022272
v -0.086054 0.487946 0.000000
v -0.083121 0.487946 -0.022272
v -0.074525 0.487946 -0.043027
v -0.060849 0.487946 -0.060849
v -0.043027 0.487946 -0.074525
v -0.022272 0.487946 -0.083121
v -0.618802 0.487946 0.092796
v -0.618802 0.402488 0.092796
v -0.621735 0.402488 0.070524
v -0.621735 0.487946 0.070524
v -0.221097 0.487946 0.040437
v -0.221097 0.402488 0.040437
v -0.224029 0.487946 0.018165
v -0.224029 0.402488 0.018165
v -0.477209 0.487946 0.355421
v -0.477209 0.402488 0.355421
v -0.090493 0.487946 0.478896
v -0.090493 0.402488 0.478896
v -0.548006 0.487946 0.224108
v -0.220817 0.487946 0.224866
v -0.220817 0.402488 0.224866
v -0.548006 0.402488 0.224108
v 0.553133 0.490517 -0.077977
v 0.553133 0.399918 -0.077977
v 0.556242 0.399918 -0.054364
v 0.556242 0.490517 -0.054364
v 0.236800 0.399918 -0.012309
v 0.236800 0.490517 -0.012309
v 0.233691 0.399918 -0.035921
v 0.233691 0.490517 -0.035921
v 0.453366 0.490517 -0.368798
v 0.453366 0.399918 -0.368798
v 0.062077 0.399918 -0.458785
v 0.062077 0.490517 -0.458785
v 0.522668 0.490517 -0.226300
v 0.230411 0.490517 -0.228906
v 0.230411 0.399918 -0.228906
v 0.522668 0.399918 -0.226300
v 0.015643 1.678643 -0.058381
v -0.000000 1.678643 -0.060440
v 0.037881 1.663976 -0.065612
v 0.053572 1.663976 -0.053572
v 0.065612 1.663976 -0.037881
v 0.058381 1.678643 -0.015643
v 0.060440 1.678643 0.000000
v 0.058381 1.678643 0.015643
v 0.065612 1.663976 0.037881
v 0.053572 1.663976 0.053572
v 0.037881 1.663976 0.065612
v 0.015643 1.678643 0.058381
v -0.000000 1.678643 0.060440
v -0.015643 1.678643 0.058381
v -0.037881 1.663976 0.065612
v -0.053572 1.663976 0.053572
v -0.065612 1.663976 0.037881
v -0.058381 1.678643 0.015643
v -0.060440 1.678643 0.000000
v -0.058381 1.678643 -0.015643
v -0.065612 1.663976 -0.037881
v -0.053572 1.663976 -0.053572
v -0.037881 1.663976 -0.065612
v -0.015643 1.678643 -0.058381
v 0.007764 1.802186 -0.028975
v -0.000000 1.802186 -0.029998
v 0.018801 1.802186 -0.032565
v 0.026589 1.802186 -0.026589
v 0.032565 1.802186 -0.018801
v 0.028975 1.802186 -0.007764
v 0.029998 1.802186 0.000000
v 0.028975 1.802186 0.007764
v 0.032565 1.802186 0.018801
v 0.026589 1.802186 0.026589
v 0.018801 1.802186 0.032565
v 0.007764 1.802186 0.028975
v -0.000000 1.802186 0.029998
v -0.007764 1.802186 0.028975
v -0.018801 1.802186 0.032565
v -0.026589 1.802186 0.026589
v -0.032565 1.802186 0.018801
v -0.028975 1.802186 0.007764
v -0.029998 1.802186 0.000000
v -0.028975 1.802186 -0.007764
v -0.032565 1.802186 -0.018801
v -0.026589 1.802186 -0.026589
v -0.018801 1.802186 -0.032565
v -0.007764 1.802186 -0.028975
vn 0.1305 0.0335 -0.9909
vn 0.3825 0.0335 -0.9234
vn 0.6084 0.0335 -0.7929
vn 0.7929 0.0335 -0.6084
vn 0.9523 0.0319 -0.3035
vn 0.9909 0.0327 -0.1305
vn 0.9780 0.0337 0.2057
vn 0.9234 0.0335 0.3825
vn 0.7929 0.0335 0.6084
vn 0.6084 0.0335 0.7929
vn 0.3825 0.0335 0.9234
vn 0.1305 0.0335 0.9909
vn -0.1305 0.0335 0.9909
vn -0.3825 0.0335 0.9234
vn -0.6084 0.0335 0.7929
vn -0.7929 0.0335 0.6084
vn -0.9234 0.0335 0.3825
vn -0.9909 0.0335 0.1305
vn -0.9909 0.0335 -0.1305
vn -0.9234 0.0335 -0.3825
vn -0.7929 0.0335 -0.6084
vn -0.6084 0.0335 -0.7929
vn -0.3669 -0.1004 -0.9248
vn -0.3825 0.0335 -0.9234
vn -0.1305 0.0335 -0.9909
vn -0.0000 -1.0000 -0.0000
vn -0.1305 -0.0000 -0.9914
vn -0.3827 -0.0000 -0.9239
vn -0.6088 -0.0000 -0.7934
vn -0.7934 -0.0000 -0.6088
vn -0.9239 -0.0000 -0.3827
vn -0.9914 -0.0000 -0.1305
vn -0.0000 1.0000 -0.0000
vn -0.9239 -0.0000 0.3827
vn -0.7934 -0.0000 0.6088
vn -0.6088 -0.0000 0.7934
vn -0.3827 -0.0000 0.9239
vn -0.1305 -0.0000 0.9914
vn 0.1305 -0.0000 0.9914
vn 0.3827 -0.0000 0.9239
vn 0.6088 -0.0000 0.7934
vn 0.7934 -0.0000 0.6088
vn 0.9239 -0.0000 0.3827
vn 0.9798 -0.0000 0.2002
vn 0.9537 -0.0000 -0.3009
vn 0.7934 -0.0000 -0.6088
vn 0.6088 -0.0000 -0.7934
vn 0.3827 -0.0000 -0.9239
vn 0.1305 -0.0000 -0.9914
vn -0.9914 -0.0000 0.1305
vn -0.3042 -0.0000 0.9526
vn 0.8897 -0.0000 -0.4565
vn -0.8802 -0.0000 0.4746
vn 1.0000 -0.0000 -0.0015
vn 0.9914 -0.0000 -0.1305
vn 0.2241 -0.0000 -0.9746
vn -0.8068 -0.0000 0.5908
vn 0.8993 -0.0000 -0.4374
vn 0.9796 -0.0000 -0.2012
vn -0.9999 -0.0000 0.0170
vn 0.1773 0.2056 0.9624
vn 0.9900 -0.0545 0.1303
vn 0.1303 -0.0545 0.9900
vn -0.9225 -0.0545 0.3821
vn -0.6010 -0.1591 -0.7832
vn 0.9225 -0.0545 -0.3821
vn 0.6010 -0.1591 0.7832
vn -0.6010 -0.1591 0.7832
vn -0.9248 -0.1004 0.3669
vn 0.6010 -0.1591 -0.7832
vn 0.9248 -0.1004 -0.3669
vn -0.1303 -0.0545 0.9900
vn 0.1303 -0.0545 -0.9900
vn -0.9900 -0.0545 0.1303
vn -0.3821 -0.0545 -0.9225
vn 0.9900 -0.0545 -0.1303
vn 0.3821 -0.0545 0.9225
vn -0.7832 -0.1591 0.6010
vn -0.7832 -0.1591 -0.6010
vn 0.7832 -0.1591 -0.6010
vn 0.7832 -0.1591 0.6010
vn 0.3669 -0.1004 0.9248
vn -0.9900 -0.0545 -0.1303
vn -0.1303 -0.0545 -0.9900
vn 0.9631 0.2373 0.1268
vn -0.5872 0.2640 -0.7652
vn -0.5872 0.2640 0.7652
vn 0.9624 0.2056 -0.1773
vn 0.3028 0.2024 -0.9313
vn 0.1268 0.2373 -0.9631
vn -0.7652 0.2640 0.5872
vn 0.7652 0.2640 0.5872
vn -0.1268 0.2373 -0.9631
vn -0.1773 0.2056 -0.9624
vn -0.9313 0.2024 -0.3028
vn 0.5872 0.2640 0.7652
vn 0.5872 0.2640 -0.7652
vn -0.9631 0.2373 0.1268
vn -0.3028 0.2024 0.9313
vn 0.7652 0.2640 -0.5872
vn -0.9631 0.2373 -0.1268
vn 0.1268 0.2373 0.9631
vn 0.9313 0.2024 0.3028
vn -0.9624 0.2056 0.1773
vn -0.1268 0.2373 0.9631
vn 0.9631 0.2373 -0.1268
vn -0.7652 0.2640 -0.5872
vn 0.9234 0.0335 -0.3825
vn 0.9909 0.0346 0.1304
vn 0.3821 -0.0545 -0.9225
vn 0.2041 -0.9663 -0.1566
vn -0.4598 -0.8860 0.0605
vn -0.2443 -0.9675 0.0655
vn 0.3028 0.2024 0.9313
vn -0.9248 -0.1004 -0.3669
vn 0.9248 -0.1004 0.3669
vn -0.9225 -0.0545 -0.3821
vn 0.9225 -0.0545 0.3821
vn 0.3669 -0.1004 -0.9248
vn -0.3669 -0.1004 0.9248
vn -0.3821 -0.0545 0.9225
vn -0.0001 1.0000 -0.0000
vn 0.0001 1.0000 -0.0000
vn 0.9313 0.2024 -0.3028
vn 0.1773 0.2056 -0.9624
vn -0.3028 0.2024 -0.9313
vn -0.9624 0.2056 -0.1773
vn -0.1773 0.2056 0.9624
vn 0.9624 0.2056 0.1773
vn -0.9313 0.2024 0.3028
vt 0.303307 0.498469
vt 0.660075 0.948514
vt 0.657521 0.818484
vt 0.291157 0.510517
vt 0.676799 0.948596
vt 0.667504 0.818533
vt 0.276303 0.519009
vt 0.692018 0.948836
vt 0.676589 0.818676
vt 0.940521 0.864202
vt 0.818168 0.949213
vt 0.259758 0.523368
vt 0.704695 0.949217
vt 0.684156 0.818904
vt 0.833796 0.818917
vt 0.939188 0.854076
vt 0.242648 0.523295
vt 0.832923 0.948823
vt 0.940521 0.843950
vt 0.842604 0.818685
vt 0.927609 0.653239
vt 0.854086 0.948884
vt 0.222458 0.515855
vt 0.852450 0.818539
vt 0.872225 0.948796
vt 0.206787 0.506719
vt 0.947928 0.359344
vt 0.862664 0.818489
vt 0.199310 0.498030
vt 0.883086 0.948579
vt 0.872548 0.818539
vt 0.190818 0.483177
vt 0.897965 0.948823
vt 0.881430 0.818685
vt 0.940521 0.904530
vt 0.509318 0.949217
vt 0.186459 0.466631
vt 0.910151 0.949213
vt 0.888704 0.818917
vt 0.529525 0.818905
vt 0.939188 0.894404
vt 0.186532 0.449521
vt 0.522166 0.948835
vt 0.940521 0.884278
vt 0.537194 0.818677
vt 0.191030 0.433012
vt 0.537501 0.948595
vt 0.546348 0.818533
vt 0.199647 0.418231
vt 0.554278 0.948513
vt 0.556363 0.818485
vt 0.211797 0.406184
vt 0.571353 0.948595
vt 0.566556 0.818533
vt 0.226651 0.397691
vt 0.587563 0.948835
vt 0.921408 0.411469
vt 0.576232 0.818677
vt 0.715194 0.949049
vt 0.243196 0.393332
vt 0.601802 0.949217
vt 0.584732 0.818905
vt 0.732007 0.819294
vt 0.920075 0.401343
vt 0.260306 0.393405
vt 0.729454 0.948434
vt 0.921408 0.391217
vt 0.740519 0.818927
vt 0.916930 0.663697
vt 0.745676 0.948048
vt 0.276814 0.397903
vt 0.750203 0.818697
vt 0.762753 0.947916
vt 0.291596 0.406520
vt 0.880965 0.416260
vt 0.760397 0.818618
vt 0.303643 0.418670
vt 0.779522 0.948048
vt 0.770407 0.818697
vt 0.312136 0.433524
vt 0.794840 0.948434
vt 0.779551 0.818927
vt 0.940521 0.823875
vt 0.612315 0.949217
vt 0.316494 0.450069
vt 0.807664 0.949049
vt 0.787206 0.819294
vt 0.629011 0.818904
vt 0.939188 0.813749
vt 0.316422 0.467179
vt 0.626696 0.948836
vt 0.940521 0.803622
vt 0.637595 0.818676
vt 0.311924 0.483688
vt 0.642986 0.948596
vt 0.647320 0.818533
vt 0.660045 0.938441
vt 0.676769 0.938523
vt 0.691988 0.938763
vt 0.818122 0.939141
vt 0.704665 0.939145
vt 0.832877 0.938751
vt 0.845698 0.427209
vt 0.854037 0.938206
vt 0.916930 0.653220
vt 0.958606 0.359422
vt 0.872176 0.938118
vt 0.863837 0.427209
vt 0.883039 0.938506
vt 0.897918 0.938751
vt 0.509342 0.939144
vt 0.910104 0.939141
vt 0.522191 0.938762
vt 0.537526 0.938522
vt 0.554303 0.938440
vt 0.571378 0.938522
vt 0.587587 0.938762
vt 0.715153 0.938987
vt 0.601827 0.939144
vt 0.729413 0.938373
vt 0.853397 0.005229
vt 0.745635 0.937986
vt 0.927003 0.663770
vt 0.891037 0.416278
vt 0.762712 0.937855
vt 0.870507 0.005229
vt 0.779481 0.937986
vt 0.794799 0.938373
vt 0.612284 0.939145
vt 0.807623 0.938987
vt 0.626665 0.938763
vt 0.642955 0.938523
vt 0.896051 0.554687
vt 0.853397 0.416751
vt 0.484078 0.042386
vt 0.906110 0.554937
vt 0.906473 0.537864
vt 0.880965 0.005229
vt 0.498860 0.051003
vt 0.896414 0.537613
vt 0.870507 0.416751
vt 0.891037 0.005247
vt 0.927003 0.767702
vt 0.937470 0.005291
vt 0.853397 0.111225
vt 0.927398 0.005229
vt 0.916930 0.767628
vt 0.330199 0.306333
vt 0.891037 0.310409
vt 0.870507 0.111225
vt 0.344981 0.314950
vt 0.880965 0.310390
vt 0.641004 0.335938
vt 0.994771 0.727391
vt 0.896414 0.761773
vt 0.984699 0.727482
vt 0.906473 0.762023
vt 0.259888 0.005229
vt 0.509318 0.056191
vt 0.994771 0.427209
vt 0.937470 0.348980
vt 0.984699 0.427300
vt 0.927398 0.348918
vt 0.005229 0.180581
vt 0.896233 0.658230
vt 0.747200 0.376344
vt 0.714101 0.129348
vt 0.935970 0.144706
vt 0.218988 0.220519
vt 0.925898 0.144643
vt 0.371983 0.023808
vt 0.906291 0.658480
vt 0.874789 0.555752
vt 0.845698 0.788356
vt 0.040566 0.827853
vt 0.885467 0.555829
vt 0.947928 0.005229
vt 0.885593 0.537690
vt 0.024895 0.818717
vt 0.958606 0.005307
vt 0.874915 0.537613
vt 0.863837 0.788356
vt 0.148492 0.606712
vt 0.947928 0.245853
vt 0.863837 0.542954
vt 0.958606 0.245931
vt 0.904775 0.005229
vt 0.927609 0.537632
vt 0.164163 0.615848
vt 0.916930 0.537613
vt 0.915440 0.005434
vt 0.845698 0.542954
vt 0.616170 0.741931
vt 0.979742 0.296658
vt 0.874915 0.784952
vt 0.969064 0.296782
vt 0.262238 0.903347
vt 0.885593 0.785030
vt 0.969064 0.005353
vt 0.498860 0.709630
vt 0.904775 0.335638
vt 0.509318 0.455401
vt 0.979742 0.005229
vt 0.915440 0.335844
vt 0.874295 0.670723
vt 0.730665 0.780096
vt 0.699642 0.559662
vt 0.912160 0.152206
vt 0.901495 0.152000
vt 0.281926 0.703844
vt 0.884973 0.670800
vt 0.144103 0.878654
vt 0.669774 0.798871
vt 0.936182 0.521648
vt 0.658028 0.798814
vt 0.924268 0.523216
vt 0.687111 0.800398
vt 0.922575 0.869011
vt 0.953120 0.527155
vt 0.920608 0.854076
vt 0.965071 0.517985
vt 0.835289 0.800395
vt 0.922575 0.839141
vt 0.974241 0.506034
vt 0.851409 0.798872
vt 0.968734 0.489097
vt 0.863426 0.798814
vt 0.970302 0.477182
vt 0.875056 0.798872
vt 0.968734 0.465268
vt 0.892552 0.800395
vt 0.922575 0.909339
vt 0.974241 0.448330
vt 0.920608 0.894404
vt 0.965071 0.436379
vt 0.922575 0.879469
vt 0.526895 0.800398
vt 0.953120 0.427209
vt 0.544166 0.798871
vt 0.936182 0.432716
vt 0.555949 0.798814
vt 0.924268 0.431148
vt 0.567942 0.798871
vt 0.912354 0.432716
vt 0.584470 0.800398
vt 0.903461 0.416278
vt 0.895416 0.427209
vt 0.901495 0.401343
vt 0.883465 0.436379
vt 0.732289 0.800308
vt 0.903461 0.386408
vt 0.874295 0.448330
vt 0.748800 0.798906
vt 0.879802 0.465268
vt 0.760794 0.798814
vt 0.878234 0.477182
vt 0.772572 0.798906
vt 0.879802 0.489097
vt 0.789856 0.800308
vt 0.922575 0.828684
vt 0.874295 0.506034
vt 0.920608 0.813749
vt 0.883465 0.517985
vt 0.922575 0.798814
vt 0.629600 0.800398
vt 0.895416 0.527155
vt 0.646025 0.798871
vt 0.912354 0.521648
vt 0.930181 0.499251
vt 0.924268 0.500030
vt 0.938588 0.501985
vt 0.944519 0.497433
vt 0.949071 0.491502
vt 0.946337 0.483096
vt 0.947116 0.477182
vt 0.946337 0.471269
vt 0.949071 0.462862
vt 0.944519 0.456931
vt 0.938588 0.452379
vt 0.930181 0.455113
vt 0.924268 0.454334
vt 0.918355 0.455113
vt 0.909948 0.452379
vt 0.904017 0.456931
vt 0.899465 0.462862
vt 0.902199 0.471269
vt 0.901420 0.477182
vt 0.902199 0.483096
vt 0.899465 0.491502
vt 0.904017 0.497433
vt 0.909948 0.501985
vt 0.918355 0.499251
s 0
f 2/3/1 50/98/1 49/97/1
f 4/6/2 51/99/2 50/98/2
f 6/9/3 52/101/3 51/99/3
f 8/15/4 53/102/4 52/100/4
f 53/102/5 12/24/5 54/104/5
f 54/104/6 14/28/6 55/107/6
f 55/107/7 16/31/7 56/109/7
f 16/31/8 57/110/8 56/109/8
f 57/110/9 20/39/9 58/112/9
f 20/40/10 59/113/10 58/111/10
f 22/45/11 60/114/11 59/113/11
f 24/48/12 61/115/12 60/114/12
f 26/51/13 62/116/13 61/115/13
f 28/54/14 63/117/14 62/116/14
f 30/58/15 64/119/15 63/117/15
f 32/63/16 65/120/16 64/118/16
f 34/68/17 66/122/17 65/120/17
f 36/72/18 67/125/18 66/122/18
f 38/76/19 68/127/19 67/125/19
f 40/79/20 69/128/20 68/127/20
f 69/128/21 44/87/21 70/130/21
f 44/88/22 71/131/22 70/129/22
f 6/9/23 105/213/23 107/217/23
f 46/93/24 72/132/24 71/131/24
f 48/96/25 49/97/25 72/132/25
f 15/29/26 31/60/26 47/94/26
f 72/132/27 1/2/27 47/95/27
f 71/131/28 47/95/28 45/91/28
f 70/129/29 45/91/29 43/84/29
f 69/128/30 43/86/30 41/81/30
f 68/127/31 41/81/31 39/78/31
f 67/125/32 39/78/32 37/73/32
f 86/167/33 81/153/33 83/159/33
f 65/120/34 35/70/34 33/66/34
f 64/118/35 33/66/35 31/59/35
f 63/117/36 31/61/36 29/56/36
f 62/116/37 29/56/37 27/53/37
f 61/115/38 27/53/38 25/50/38
f 60/114/39 25/50/39 23/47/39
f 59/113/40 23/47/40 21/43/40
f 58/111/41 21/43/41 19/36/41
f 57/110/42 19/38/42 17/33/42
f 56/109/43 17/33/43 15/30/43
f 55/107/44 15/30/44 13/25/44
f 93/184/39 92/180/39 94/186/39
f 53/102/45 11/22/45 9/18/45
f 52/100/46 9/18/46 7/11/46
f 51/99/47 7/13/47 5/8/47
f 50/98/48 5/8/48 3/5/48
f 49/97/49 3/5/49 1/2/49
f 73/133/50 75/137/50 74/136/50
f 77/145/33 76/141/33 73/134/33
f 80/152/27 76/142/27 79/149/27
f 78/148/26 75/139/26 80/151/26
f 37/74/26 78/148/26 80/151/26
f 37/75/27 79/149/27 67/124/27
f 67/126/33 77/145/33 66/121/33
f 66/123/39 78/147/39 35/69/39
f 83/160/51 82/156/51 84/162/51
f 86/168/52 84/163/52 87/170/52
f 88/172/53 81/155/53 85/165/53
f 87/169/26 82/158/26 88/171/26
f 78/148/26 88/171/26 74/135/26
f 74/136/53 85/165/53 73/133/53
f 77/144/54 87/170/54 78/146/54
f 77/145/33 85/166/33 86/167/33
f 89/173/55 91/178/55 90/176/55
f 95/189/26 91/179/26 93/183/26
f 102/207/33 97/193/33 100/202/33
f 94/185/33 89/174/33 96/192/33
f 55/108/33 96/192/33 54/103/33
f 54/105/27 95/188/27 11/21/27
f 11/23/26 93/183/26 13/26/26
f 13/27/39 94/186/39 55/106/39
f 100/203/56 98/196/56 99/199/56
f 103/210/26 98/197/26 104/212/26
f 102/208/57 99/201/57 103/209/57
f 104/211/58 97/195/58 101/205/58
f 90/176/59 101/205/59 89/173/59
f 96/191/60 103/209/60 95/187/60
f 95/189/26 104/212/26 90/175/26
f 96/192/33 101/206/33 102/207/33
f 118/244/61 143/283/61 119/247/61
f 14/28/62 112/229/62 16/31/62
f 24/48/63 117/241/63 26/51/63
f 34/68/64 122/253/64 36/72/64
f 44/89/65 127/264/65 46/92/65
f 10/20/66 110/225/66 12/24/66
f 20/41/67 115/236/67 22/44/67
f 30/57/68 120/248/68 32/64/68
f 42/82/69 124/257/69 125/259/69
f 6/10/70 108/220/70 8/16/70
f 18/34/71 112/229/71 113/231/71
f 28/54/72 117/241/72 118/243/72
f 2/3/73 105/213/73 4/6/73
f 36/72/74 123/255/74 38/76/74
f 46/93/75 128/267/75 48/96/75
f 12/24/76 111/227/76 14/28/76
f 22/45/77 116/239/77 24/48/77
f 32/64/78 121/251/78 34/67/78
f 44/89/79 125/260/79 126/262/79
f 8/16/80 109/223/80 10/19/80
f 20/41/81 113/232/81 114/234/81
f 30/58/82 118/243/82 119/245/82
f 38/76/83 124/257/83 40/79/83
f 48/96/84 106/215/84 2/3/84
f 129/269/33 146/286/33 138/278/33
f 112/230/85 135/275/85 136/276/85
f 126/263/86 151/291/86 127/266/86
f 119/247/87 144/284/87 120/249/87
f 112/230/88 137/277/88 113/233/88
f 128/268/89 151/291/89 152/292/89
f 106/216/90 129/269/90 105/214/90
f 121/252/91 144/284/91 145/285/91
f 113/233/92 138/278/92 114/235/92
f 128/268/93 130/270/93 106/216/93
f 105/214/94 131/271/94 107/219/94
f 122/254/95 145/285/95 146/286/95
f 115/238/96 138/278/96 139/279/96
f 107/219/97 132/272/97 108/221/97
f 123/256/98 146/286/98 147/287/98
f 116/240/99 139/279/99 140/280/99
f 108/221/100 133/273/100 109/224/100
f 123/256/101 148/288/101 124/258/101
f 117/242/102 140/280/102 141/281/102
f 110/226/103 133/273/103 134/274/103
f 124/258/104 149/289/104 125/261/104
f 118/244/105 141/281/105 142/282/105
f 110/226/106 135/275/106 111/228/106
f 125/261/107 150/290/107 126/263/107
f 2/3/1 4/6/1 50/98/1
f 4/6/2 6/9/2 51/99/2
f 6/9/3 8/14/3 52/101/3
f 8/15/4 10/20/4 53/102/4
f 53/102/108 10/20/108 12/24/108
f 54/104/6 12/24/6 14/28/6
f 55/107/109 14/28/109 16/31/109
f 16/31/8 18/34/8 57/110/8
f 57/110/9 18/34/9 20/39/9
f 20/40/10 22/45/10 59/113/10
f 22/45/11 24/48/11 60/114/11
f 24/48/12 26/51/12 61/115/12
f 26/51/13 28/54/13 62/116/13
f 28/54/14 30/58/14 63/117/14
f 30/58/15 32/62/15 64/119/15
f 32/63/16 34/68/16 65/120/16
f 34/68/17 36/72/17 66/122/17
f 36/72/18 38/76/18 67/125/18
f 38/76/19 40/79/19 68/127/19
f 40/79/20 42/82/20 69/128/20
f 69/128/21 42/82/21 44/87/21
f 44/88/22 46/93/22 71/131/22
f 6/9/110 4/6/110 105/213/110
f 46/93/24 48/96/24 72/132/24
f 48/96/25 2/3/25 49/97/25
f 47/94/26 1/1/26 3/4/26
f 3/4/26 5/7/26 7/12/26
f 7/12/111 9/17/111 11/23/111
f 11/23/112 13/26/112 15/29/112
f 15/29/26 17/32/26 19/37/26
f 19/37/26 21/42/26 23/46/26
f 23/46/26 25/49/26 27/52/26
f 27/52/26 29/55/26 31/60/26
f 31/60/26 33/65/26 35/71/26
f 35/71/26 37/74/26 39/77/26
f 39/77/26 41/80/26 43/85/26
f 43/85/26 45/90/26 47/94/26
f 47/94/26 3/4/26 7/12/26
f 7/12/113 11/23/113 15/29/113
f 15/29/26 19/37/26 23/46/26
f 23/46/26 27/52/26 31/60/26
f 31/60/26 35/71/26 39/77/26
f 39/77/26 43/85/26 47/94/26
f 47/94/26 7/12/26 15/29/26
f 15/29/26 23/46/26 31/60/26
f 31/60/26 39/77/26 47/94/26
f 72/132/27 49/97/27 1/2/27
f 71/131/28 72/132/28 47/95/28
f 70/129/29 71/131/29 45/91/29
f 69/128/30 70/130/30 43/86/30
f 68/127/31 69/128/31 41/81/31
f 67/125/32 68/127/32 39/78/32
f 86/167/33 85/166/33 81/153/33
f 65/120/34 66/122/34 35/70/34
f 64/118/35 65/120/35 33/66/35
f 63/117/36 64/119/36 31/61/36
f 62/116/37 63/117/37 29/56/37
f 61/115/38 62/116/38 27/53/38
f 60/114/39 61/115/39 25/50/39
f 59/113/40 60/114/40 23/47/40
f 58/111/41 59/113/41 21/43/41
f 57/110/42 58/112/42 19/38/42
f 56/109/43 57/110/43 17/33/43
f 55/107/44 56/109/44 15/30/44
f 93/184/39 91/177/39 92/180/39
f 53/102/45 54/104/45 11/22/45
f 52/100/46 53/102/46 9/18/46
f 51/99/47 52/101/47 7/13/47
f 50/98/48 51/99/48 5/8/48
f 49/97/49 50/98/49 3/5/49
f 73/133/50 76/140/50 75/137/50
f 77/145/33 79/150/33 76/141/33
f 80/152/27 75/138/27 76/142/27
f 78/148/26 74/135/26 75/139/26
f 37/74/26 35/71/26 78/148/26
f 37/75/27 80/152/27 79/149/27
f 67/126/33 79/150/33 77/145/33
f 66/123/39 77/143/39 78/147/39
f 83/160/51 81/154/51 82/156/51
f 86/168/52 83/161/52 84/163/52
f 88/172/53 82/157/53 81/155/53
f 87/169/26 84/164/26 82/158/26
f 78/148/26 87/169/26 88/171/26
f 74/136/53 88/172/53 85/165/53
f 77/144/54 86/168/54 87/170/54
f 77/145/33 73/134/33 85/166/33
f 89/173/55 92/181/55 91/178/55
f 95/189/26 90/175/26 91/179/26
f 102/207/33 101/206/33 97/193/33
f 94/185/33 92/182/33 89/174/33
f 55/108/33 94/185/33 96/192/33
f 54/105/27 96/190/27 95/188/27
f 11/23/26 95/189/26 93/183/26
f 13/27/39 93/184/39 94/186/39
f 100/203/56 97/194/56 98/196/56
f 103/210/26 99/200/26 98/197/26
f 102/208/57 100/204/57 99/201/57
f 104/211/58 98/198/58 97/195/58
f 90/176/59 104/211/59 101/205/59
f 96/191/60 102/208/60 103/209/60
f 95/189/26 103/210/26 104/212/26
f 96/192/33 89/174/33 101/206/33
f 118/244/114 142/282/114 143/283/114
f 14/28/62 111/227/62 112/229/62
f 24/48/63 116/239/63 117/241/63
f 34/68/115 121/250/115 122/253/115
f 44/89/65 126/262/65 127/264/65
f 10/20/116 109/222/116 110/225/116
f 20/41/67 114/234/67 115/236/67
f 30/57/68 119/246/68 120/248/68
f 42/82/117 40/79/117 124/257/117
f 6/10/70 107/218/70 108/220/70
f 18/34/118 16/31/118 112/229/118
f 28/54/72 26/51/72 117/241/72
f 2/3/73 106/215/73 105/213/73
f 36/72/74 122/253/74 123/255/74
f 46/93/119 127/265/119 128/267/119
f 12/24/76 110/225/76 111/227/76
f 22/45/120 115/237/120 116/239/120
f 32/64/78 120/248/78 121/251/78
f 44/89/79 42/83/79 125/260/79
f 8/16/80 108/220/80 109/223/80
f 20/41/81 18/35/81 113/232/81
f 30/58/121 28/54/121 118/243/121
f 38/76/83 123/255/83 124/257/83
f 48/96/84 128/267/84 106/215/84
f 129/269/33 130/270/33 152/292/33
f 152/292/33 151/291/33 150/290/33
f 150/290/33 149/289/33 148/288/33
f 148/288/122 147/287/122 146/286/122
f 146/286/33 145/285/33 144/284/33
f 144/284/33 143/283/33 142/282/33
f 142/282/33 141/281/33 140/280/33
f 140/280/33 139/279/33 138/278/33
f 138/278/33 137/277/33 136/276/33
f 136/276/123 135/275/123 134/274/123
f 134/274/33 133/273/33 132/272/33
f 132/272/33 131/271/33 129/269/33
f 129/269/33 152/292/33 150/290/33
f 150/290/33 148/288/33 146/286/33
f 146/286/33 144/284/33 142/282/33
f 142/282/33 140/280/33 138/278/33
f 138/278/33 136/276/33 134/274/33
f 134/274/33 132/272/33 129/269/33
f 129/269/33 150/290/33 146/286/33
f 146/286/33 142/282/33 138/278/33
f 138/278/33 134/274/33 129/269/33
f 112/230/85 111/228/85 135/275/85
f 126/263/86 150/290/86 151/291/86
f 119/247/87 143/283/87 144/284/87
f 112/230/124 136/276/124 137/277/124
f 128/268/125 127/266/125 151/291/125
f 106/216/90 130/270/90 129/269/90
f 121/252/91 120/249/91 144/284/91
f 113/233/92 137/277/92 138/278/92
f 128/268/93 152/292/93 130/270/93
f 105/214/126 129/269/126 131/271/126
f 122/254/127 121/252/127 145/285/127
f 115/238/96 114/235/96 138/278/96
f 107/219/97 131/271/97 132/272/97
f 123/256/98 122/254/98 146/286/98
f 116/240/128 115/238/128 139/279/128
f 108/221/100 132/272/100 133/273/100
f 123/256/101 147/287/101 148/288/101
f 117/242/102 116/240/102 140/280/102
f 110/226/129 109/224/129 133/273/129
f 124/258/130 148/288/130 149/289/130
f 118/244/105 117/242/105 141/281/105
f 110/226/106 134/274/106 135/275/106
f 125/261/107 149/289/107 150/290/107
