# Blender 3.3.1
# www.blender.org
o screen
v 0.299602 1.041438 0.723302
v 0.202629 1.041438 0.756220
v 0.102189 1.041438 0.776199
v -0.000000 1.041438 0.782897
v -0.102189 1.041438 0.776199
v -0.202629 1.041438 0.756220
v -0.299602 1.041438 0.723302
v 0.299602 1.379704 0.723302
v 0.202629 1.379704 0.756220
v 0.102189 1.379704 0.776199
v -0.000000 1.379704 0.782897
v -0.102189 1.379704 0.776199
v -0.202629 1.379704 0.756220
v -0.299602 1.379704 0.723302
vn 0.3214 -0.0000 0.9469
vn 0.1951 -0.0000 0.9808
vn 0.0654 -0.0000 0.9979
vn -0.0654 -0.0000 0.9979
vn -0.1951 -0.0000 0.9808
vn -0.3214 -0.0000 0.9469
vt 0.996907 0.779094
vt 0.835767 0.779094
vt 0.668866 0.779094
vt 0.499060 0.779094
vt 0.329254 0.779094
vt 0.162353 0.779094
vt 0.001214 0.779094
vt 0.996907 0.216999
vt 0.835767 0.216999
vt 0.668866 0.216999
vt 0.499060 0.216999
vt 0.329254 0.216999
vt 0.162353 0.216999
vt 0.001214 0.216999
s 0
f 8/8/1 2/2/1 1/1/1
f 9/9/2 3/3/2 2/2/2
f 10/10/3 4/4/3 3/3/3
f 11/11/4 5/5/4 4/4/4
f 12/12/5 6/6/5 5/5/5
f 13/13/6 7/7/6 6/6/6
f 8/8/1 9/9/1 2/2/1
f 9/9/2 10/10/2 3/3/2
f 10/10/3 11/11/3 4/4/3
f 11/11/4 12/12/4 5/5/4
f 12/12/5 13/13/5 6/6/5
f 13/13/6 14/14/6 7/7/6
