# Blender 3.3.1
# www.blender.org
o vessel
v 0.000000 0.075550 -0.515953
v 0.000000 1.603914 -0.697059
v 0.067345 0.075550 -0.511539
v 0.090984 1.603914 -0.691095
v 0.133538 0.075550 -0.498372
v 0.180412 1.603914 -0.673307
v 0.197447 0.075550 -0.476678
v 0.266753 1.603914 -0.643998
v 0.257976 0.075550 -0.446828
v 0.348529 1.603914 -0.603671
v 0.314092 0.075550 -0.409333
v 0.424342 1.603914 -0.553014
v 0.364834 0.075550 -0.364834
v 0.492895 1.603914 -0.492895
v 0.409333 0.075550 -0.314092
v 0.553014 1.603914 -0.424342
v 0.446828 0.075550 -0.257976
v 0.603671 1.603914 -0.348529
v 0.476678 0.075550 -0.197447
v 0.643998 1.603914 -0.266753
v 0.498372 0.075550 -0.133538
v 0.673307 1.603914 -0.180412
v 0.511539 0.075550 -0.067345
v 0.691095 1.603914 -0.090984
v 0.515953 0.075550 0.000000
v 0.697059 1.603914 0.000000
v 0.511539 0.075550 0.067345
v 0.691095 1.603914 0.090984
v 0.498372 0.075550 0.133538
v 0.673307 1.603914 0.180412
v 0.476678 0.075550 0.197447
v 0.643998 1.603914 0.266753
v 0.446828 0.075550 0.257976
v 0.603671 1.603914 0.348529
v 0.409333 0.075550 0.314092
v 0.553014 1.603914 0.424342
v 0.364834 0.075550 0.364834
v 0.492895 1.603914 0.492895
v 0.314092 0.075550 0.409333
v 0.424342 1.603914 0.553014
v 0.257976 0.075550 0.446828
v 0.348529 1.603914 0.603671
v 0.197447 0.075550 0.476678
v 0.266753 1.603914 0.643998
v 0.133538 0.075550 0.498372
v 0.180412 1.603914 0.673307
v 0.067345 0.075550 0.511539
v 0.090984 1.603914 0.691095
v 0.000000 0.075550 0.515953
v 0.000000 1.603914 0.697059
v -0.067345 0.075550 0.511539
v -0.090984 1.603914 0.691095
v -0.133538 0.075550 0.498372
v -0.180412 1.603914 0.673307
v -0.197447 0.075550 0.476678
v -0.266753 1.603914 0.643998
v -0.257976 0.075550 0.446828
v -0.348529 1.603914 0.603671
v -0.314092 0.075550 0.409333
v -0.424342 1.603914 0.553014
v -0.364834 0.075550 0.364834
v -0.492895 1.603914 0.492895
v -0.409333 0.075550 0.314092
v -0.553014 1.603914 0.424342
v -0.446828 0.075550 0.257976
v -0.603671 1.603914 0.348529
v -0.476678 0.075550 0.197447
v -0.643998 1.603914 0.266753
v -0.498372 0.075550 0.133538
v -0.673307 1.603914 0.180412
v -0.511539 0.075550 0.067345
v -0.691095 1.603914 0.090984
v -0.515953 0.075550 -0.000000
v -0.697059 1.603914 0.000000
v -0.511539 0.075550 -0.067345
v -0.691095 1.603914 -0.090984
v -0.498372 0.075550 -0.133538
v -0.673307 1.603914 -0.180412
v -0.476678 0.075550 -0.197447
v -0.643998 1.603914 -0.266753
v -0.446828 0.075550 -0.257976
v -0.603671 1.603914 -0.348529
v -0.409333 0.075550 -0.314092
v -0.553014 1.603914 -0.424342
v -0.364834 0.075550 -0.364834
v -0.492895 1.603914 -0.492895
v -0.314092 0.075550 -0.409333
v -0.424342 1.603914 -0.553014
v -0.257976 0.075550 -0.446828
v -0.348529 1.603914 -0.603671
v -0.197447 0.075550 -0.476678
v -0.266753 1.603914 -0.643998
v -0.133538 0.075550 -0.498372
v -0.180412 1.603914 -0.673307
v -0.067345 0.075550 -0.511539
v -0.090984 1.603914 -0.691095
v -0.000000 0.251502 -0.779228
v 0.101710 0.251502 -0.772561
v 0.201679 0.251502 -0.752676
v 0.298198 0.251502 -0.719913
v 0.389614 0.251502 -0.674831
v 0.474364 0.251502 -0.618203
v 0.550997 0.251502 -0.550997
v 0.618203 0.251502 -0.474364
v 0.674831 0.251502 -0.389614
v 0.719913 0.251502 -0.298198
v 0.752676 0.251502 -0.201679
v 0.772561 0.251502 -0.101710
v 0.779228 0.251502 0.000000
v 0.772561 0.251502 0.101710
v 0.752676 0.251502 0.201679
v 0.719913 0.251502 0.298198
v 0.674831 0.251502 0.389614
v 0.618203 0.251502 0.474364
v 0.550997 0.251502 0.550997
v 0.474364 0.251502 0.618203
v 0.389614 0.251502 0.674831
v 0.298198 0.251502 0.719913
v 0.201679 0.251502 0.752676
v 0.101710 0.251502 0.772561
v -0.000000 0.251502 0.779228
v -0.101710 0.251502 0.772561
v -0.201679 0.251502 0.752676
v -0.298198 0.251502 0.719913
v -0.389614 0.251502 0.674831
v -0.474364 0.251502 0.618203
v -0.550997 0.251502 0.550997
v -0.618203 0.251502 0.474364
v -0.674831 0.251502 0.389614
v -0.719913 0.251502 0.298198
v -0.752676 0.251502 0.201679
v -0.772561 0.251502 0.101710
v -0.779228 0.251502 0.000000
v -0.772561 0.251502 -0.101710
v -0.752676 0.251502 -0.201679
v -0.719913 0.251502 -0.298198
v -0.674831 0.251502 -0.389614
v -0.618203 0.251502 -0.474364
v -0.550997 0.251502 -0.550997
v -0.474364 0.251502 -0.618203
v -0.389614 0.251502 -0.674831
v -0.298198 0.251502 -0.719913
v -0.201679 0.251502 -0.752676
v -0.101710 0.251502 -0.772561
v 0.095395 0.133174 -0.724601
v 0.189159 0.133174 -0.705950
v 0.279685 0.133174 -0.675220
v 0.365427 0.133174 -0.632937
v 0.444915 0.133174 -0.579825
v 0.516791 0.133174 -0.516791
v 0.579825 0.133174 -0.444915
v 0.632937 0.133174 -0.365427
v 0.675220 0.133174 -0.279685
v 0.705950 0.133174 -0.189159
v 0.724601 0.133174 -0.095395
v 0.730853 0.133174 0.000000
v 0.724601 0.133174 0.095396
v 0.705950 0.133174 0.189159
v 0.675220 0.133174 0.279685
v 0.632937 0.133174 0.365427
v 0.579825 0.133174 0.444915
v 0.516791 0.133174 0.516791
v 0.444915 0.133174 0.579825
v 0.365427 0.133174 0.632937
v 0.279685 0.133174 0.675220
v 0.189159 0.133174 0.705950
v 0.095395 0.133174 0.724601
v 0.000000 0.133174 0.730853
v -0.095395 0.133174 0.724601
v -0.189159 0.133174 0.705950
v -0.279685 0.133174 0.675220
v -0.365427 0.133174 0.632937
v -0.444915 0.133174 0.579825
v -0.516791 0.133174 0.516791
v -0.579825 0.133174 0.444915
v -0.632937 0.133174 0.365427
v -0.675220 0.133174 0.279685
v -0.705950 0.133174 0.189159
v -0.724601 0.133174 0.095396
v -0.730853 0.133174 0.000000
v -0.724601 0.133174 -0.095395
v -0.705950 0.133174 -0.189159
v -0.675220 0.133174 -0.279685
v -0.632937 0.133174 -0.365427
v -0.579825 0.133174 -0.444915
v -0.516791 0.133174 -0.516791
v -0.444915 0.133174 -0.579825
v -0.365427 0.133174 -0.632937
v -0.279685 0.133174 -0.675220
v -0.189159 0.133174 -0.705950
v -0.095395 0.133174 -0.724601
v 0.000000 0.133174 -0.730853
v 0.000000 0.090822 -0.650877
v 0.084957 0.090822 -0.645309
v 0.168459 0.090822 -0.628699
v 0.249080 0.014847 -0.601332
v 0.325439 0.014847 -0.563676
v 0.396229 0.014847 -0.516376
v 0.460240 0.014847 -0.460240
v 0.516376 0.014847 -0.396229
v 0.563676 0.014847 -0.325439
v 0.601332 0.014847 -0.249080
v 0.628699 0.090822 -0.168459
v 0.645309 0.090822 -0.084957
v 0.650877 0.090822 0.000000
v 0.645309 0.090822 0.084957
v 0.628699 0.090822 0.168459
v 0.601332 0.014847 0.249080
v 0.563676 0.014847 0.325439
v 0.516376 0.014847 0.396229
v 0.460240 0.014847 0.460240
v 0.396229 0.014847 0.516376
v 0.325439 0.014847 0.563676
v 0.249080 0.014847 0.601332
v 0.168459 0.090822 0.628699
v 0.084957 0.090822 0.645309
v 0.000000 0.090822 0.650877
v -0.084957 0.090822 0.645309
v -0.168459 0.090822 0.628699
v -0.249080 0.014847 0.601332
v -0.325439 0.014847 0.563676
v -0.396229 0.014847 0.516376
v -0.460240 0.014847 0.460240
v -0.516376 0.014847 0.396229
v -0.563676 0.014847 0.325439
v -0.601332 0.014847 0.249080
v -0.628699 0.090822 0.168459
v -0.645309 0.090822 0.084957
v -0.650877 0.090822 0.000000
v -0.645309 0.090822 -0.084957
v -0.628699 0.090822 -0.168459
v -0.601332 0.014847 -0.249080
v -0.563676 0.014847 -0.325439
v -0.516376 0.014847 -0.396229
v -0.460240 0.014847 -0.460240
v -0.396229 0.014847 -0.516376
v -0.325439 0.014847 -0.563676
v -0.249080 0.014847 -0.601332
v -0.168459 0.090822 -0.628699
v -0.084957 0.090822 -0.645309
v 0.000000 0.090822 -0.588092
v 0.076761 0.090822 -0.583061
v 0.152209 0.090822 -0.568054
v 0.225053 0.014847 -0.543326
v 0.294046 0.014847 -0.509303
v 0.358008 0.014847 -0.466565
v 0.415844 0.014847 -0.415844
v 0.466565 0.014847 -0.358008
v 0.509303 0.014847 -0.294046
v 0.543326 0.014847 -0.225053
v 0.568054 0.090822 -0.152209
v 0.583061 0.090822 -0.076761
v 0.588092 0.090822 0.000000
v 0.583061 0.090822 0.076761
v 0.568054 0.090822 0.152209
v 0.543326 0.014847 0.225053
v 0.509303 0.014847 0.294046
v 0.466565 0.014847 0.358008
v 0.415844 0.014847 0.415844
v 0.358008 0.014847 0.466565
v 0.294046 0.014847 0.509303
v 0.225053 0.014847 0.543326
v 0.152209 0.090822 0.568054
v 0.076761 0.090822 0.583061
v 0.000000 0.090822 0.588092
v -0.076761 0.090822 0.583061
v -0.152209 0.090822 0.568054
v -0.225053 0.014847 0.543326
v -0.294046 0.014847 0.509303
v -0.358008 0.014847 0.466565
v -0.415844 0.014847 0.415844
v -0.466565 0.014847 0.358008
v -0.509303 0.014847 0.294046
v -0.543326 0.014847 0.225053
v -0.568054 0.090822 0.152209
v -0.583061 0.090822 0.076761
v -0.588092 0.090822 0.000000
v -0.583061 0.090822 -0.076761
v -0.568054 0.090822 -0.152209
v -0.543326 0.014847 -0.225053
v -0.509303 0.014847 -0.294046
v -0.466565 0.014847 -0.358008
v -0.415844 0.014847 -0.415844
v -0.358008 0.014847 -0.466565
v -0.294046 0.014847 -0.509303
v -0.225053 0.014847 -0.543326
v -0.152209 0.090822 -0.568054
v -0.076761 0.090822 -0.583061
v 0.101710 1.573303 -0.772561
v -0.000000 1.573303 -0.779228
v 0.201679 1.573303 -0.752676
v 0.298198 1.573303 -0.719913
v 0.389614 1.573303 -0.674831
v 0.474364 1.573303 -0.618203
v 0.550997 1.573303 -0.550997
v 0.618203 1.573303 -0.474364
v 0.674831 1.573303 -0.389614
v 0.719913 1.573303 -0.298198
v 0.752676 1.573303 -0.201679
v 0.772561 1.573303 -0.101710
v 0.779228 1.573303 0.000000
v 0.772561 1.573303 0.101710
v 0.752676 1.573303 0.201679
v 0.719913 1.573303 0.298198
v 0.674831 1.573303 0.389614
v 0.618203 1.573303 0.474364
v 0.550997 1.573303 0.550997
v 0.474364 1.573303 0.618203
v 0.389614 1.573303 0.674831
v 0.298198 1.573303 0.719913
v 0.201679 1.573303 0.752676
v 0.101710 1.573303 0.772561
v -0.000000 1.573303 0.779228
v -0.101710 1.573303 0.772561
v -0.201679 1.573303 0.752676
v -0.298198 1.573303 0.719913
v -0.389614 1.573303 0.674831
v -0.474364 1.573303 0.618203
v -0.550997 1.573303 0.550997
v -0.618203 1.573303 0.474364
v -0.674831 1.573303 0.389614
v -0.719913 1.573303 0.298198
v -0.752676 1.573303 0.201679
v -0.772561 1.573303 0.101710
v -0.779228 1.573303 0.000000
v -0.772561 1.573303 -0.101710
v -0.752676 1.573303 -0.201679
v -0.719913 1.573303 -0.298198
v -0.674831 1.573303 -0.389614
v -0.618203 1.573303 -0.474364
v -0.550997 1.573303 -0.550997
v -0.474364 1.573303 -0.618203
v -0.389614 1.573303 -0.674831
v -0.298198 1.573303 -0.719913
v -0.201679 1.573303 -0.752676
v -0.101710 1.573303 -0.772561
v 0.090984 0.190599 -0.691095
v -0.000000 0.190599 -0.697059
v 0.180412 0.190599 -0.673307
v 0.266753 0.190599 -0.643998
v 0.348529 0.190599 -0.603671
v 0.424342 0.190599 -0.553014
v 0.492895 0.190599 -0.492895
v 0.553014 0.190599 -0.424342
v 0.603670 0.190599 -0.348529
v 0.643998 0.190599 -0.266753
v 0.673307 0.190599 -0.180412
v 0.691095 0.190599 -0.090984
v 0.697059 0.190599 0.000000
v 0.691095 0.190599 0.090984
v 0.673307 0.190599 0.180412
v 0.643998 0.190599 0.266753
v 0.603670 0.190599 0.348529
v 0.553014 0.190599 0.424342
v 0.492895 0.190599 0.492895
v 0.424342 0.190599 0.553014
v 0.348529 0.190599 0.603671
v 0.266753 0.190599 0.643998
v 0.180412 0.190599 0.673307
v 0.090984 0.190599 0.691095
v -0.000000 0.190599 0.697059
v -0.090984 0.190599 0.691095
v -0.180412 0.190599 0.673307
v -0.266753 0.190599 0.643998
v -0.348529 0.190599 0.603671
v -0.424343 0.190599 0.553014
v -0.492895 0.190599 0.492895
v -0.553014 0.190599 0.424342
v -0.603671 0.190599 0.348529
v -0.643998 0.190599 0.266753
v -0.673307 0.190599 0.180412
v -0.691095 0.190599 0.090984
v -0.697059 0.190599 0.000000
v -0.691095 0.190599 -0.090984
v -0.673307 0.190599 -0.180412
v -0.643998 0.190599 -0.266753
v -0.603671 0.190599 -0.348529
v -0.553014 0.190599 -0.424342
v -0.492895 0.190599 -0.492895
v -0.424342 0.190599 -0.553014
v -0.348529 0.190599 -0.603671
v -0.266753 0.190599 -0.643998
v -0.180412 0.190599 -0.673307
v -0.090984 0.190599 -0.691095
vn 0.0654 -0.0000 -0.9979
vn 0.1951 -0.0000 -0.9808
vn 0.3214 -0.0000 -0.9469
vn 0.4423 -0.0000 -0.8969
vn 0.5556 -0.0000 -0.8315
vn 0.6593 -0.0000 -0.7518
vn 0.7518 -0.0000 -0.6593
vn 0.8315 -0.0000 -0.5556
vn 0.8969 -0.0000 -0.4423
vn 0.9469 -0.0000 -0.3214
vn 0.9808 -0.0000 -0.1951
vn 0.9979 -0.0000 -0.0654
vn 0.9979 -0.0000 0.0654
vn 0.9808 -0.0000 0.1951
vn 0.9469 -0.0000 0.3214
vn 0.8969 -0.0000 0.4423
vn 0.8315 -0.0000 0.5556
vn 0.7518 -0.0000 0.6593
vn 0.6593 -0.0000 0.7518
vn 0.5556 -0.0000 0.8315
vn 0.4423 -0.0000 0.8969
vn 0.3214 -0.0000 0.9469
vn 0.1951 -0.0000 0.9808
vn 0.0654 -0.0000 0.9979
vn -0.0654 -0.0000 0.9979
vn -0.1951 -0.0000 0.9808
vn -0.3214 -0.0000 0.9469
vn -0.4423 -0.0000 0.8969
vn -0.5556 -0.0000 0.8315
vn -0.6593 -0.0000 0.7518
vn -0.7518 -0.0000 0.6593
vn -0.8315 -0.0000 0.5556
vn -0.8969 -0.0000 0.4423
vn -0.9469 -0.0000 0.3214
vn -0.9808 -0.0000 0.1951
vn -0.9979 -0.0000 0.0654
vn -0.9979 -0.0000 -0.0654
vn -0.9808 -0.0000 -0.1951
vn -0.9469 -0.0000 -0.3214
vn -0.8969 -0.0000 -0.4423
vn -0.8315 -0.0000 -0.5556
vn -0.7518 -0.0000 -0.6593
vn -0.6593 -0.0000 -0.7518
vn -0.5556 -0.0000 -0.8315
vn -0.4423 -0.0000 -0.8969
vn -0.3214 -0.0000 -0.9469
vn -0.1951 -0.0000 -0.9808
vn -0.0654 -0.0000 -0.9979
vn -0.0000 -1.0000 -0.0000
vn -0.0606 -0.3777 -0.9239
vn -0.1806 -0.3777 -0.9081
vn -0.2976 -0.3777 -0.8768
vn -0.4095 -0.3777 -0.8304
vn -0.5144 -0.3777 -0.7699
vn -0.6105 -0.3777 -0.6961
vn -0.6961 -0.3777 -0.6105
vn -0.7699 -0.3777 -0.5144
vn -0.8304 -0.3777 -0.4095
vn -0.8768 -0.3777 -0.2976
vn -0.9081 -0.3777 -0.1806
vn -0.9239 -0.3777 -0.0606
vn -0.9239 -0.3777 0.0606
vn -0.9081 -0.3777 0.1806
vn -0.8768 -0.3777 0.2976
vn -0.8304 -0.3777 0.4095
vn -0.7699 -0.3777 0.5144
vn -0.6961 -0.3777 0.6105
vn -0.6105 -0.3777 0.6961
vn -0.5144 -0.3777 0.7699
vn -0.4095 -0.3777 0.8304
vn -0.2976 -0.3777 0.8768
vn -0.1806 -0.3777 0.9081
vn -0.0606 -0.3777 0.9239
vn 0.0606 -0.3777 0.9239
vn 0.1806 -0.3777 0.9081
vn 0.2976 -0.3777 0.8768
vn 0.4095 -0.3777 0.8304
vn 0.5144 -0.3777 0.7699
vn 0.6105 -0.3777 0.6961
vn 0.6961 -0.3777 0.6105
vn 0.7699 -0.3777 0.5144
vn 0.8304 -0.3777 0.4095
vn 0.8768 -0.3777 0.2976
vn 0.9081 -0.3777 0.1806
vn 0.9239 -0.3777 0.0606
vn 0.9239 -0.3777 -0.0606
vn 0.9081 -0.3777 -0.1806
vn 0.8768 -0.3777 -0.2976
vn 0.8304 -0.3777 -0.4095
vn 0.7699 -0.3777 -0.5144
vn 0.6961 -0.3777 -0.6105
vn 0.6105 -0.3777 -0.6961
vn 0.5144 -0.3777 -0.7699
vn 0.4095 -0.3777 -0.8304
vn 0.2976 -0.3777 -0.8768
vn 0.1806 -0.3777 -0.9081
vn 0.0606 -0.3777 -0.9239
vn 0.0307 -0.8833 -0.4678
vn 0.0915 -0.8833 -0.4598
vn -0.1712 -0.4896 -0.8550
vn 0.3667 -0.5592 -0.7436
vn 0.4606 -0.5592 -0.6893
vn 0.5466 -0.5592 -0.6233
vn 0.6233 -0.5592 -0.5466
vn 0.6893 -0.5592 -0.4606
vn 0.7436 -0.5592 -0.3667
vn 0.8550 -0.4896 0.1712
vn 0.4598 -0.8833 -0.0915
vn 0.4678 -0.8833 -0.0307
vn 0.4678 -0.8833 0.0307
vn 0.4598 -0.8833 0.0915
vn 0.8550 -0.4896 -0.1712
vn 0.7436 -0.5592 0.3667
vn 0.6893 -0.5592 0.4606
vn 0.6233 -0.5592 0.5466
vn 0.5466 -0.5592 0.6233
vn 0.4606 -0.5592 0.6893
vn 0.3667 -0.5592 0.7436
vn -0.1712 -0.4896 0.8550
vn 0.0915 -0.8833 0.4598
vn 0.0307 -0.8833 0.4678
vn -0.0307 -0.8833 0.4678
vn -0.0915 -0.8833 0.4598
vn 0.1712 -0.4896 0.8550
vn -0.3667 -0.5592 0.7436
vn -0.4606 -0.5592 0.6893
vn -0.5466 -0.5592 0.6233
vn -0.6233 -0.5592 0.5466
vn -0.6893 -0.5592 0.4606
vn -0.7436 -0.5592 0.3667
vn -0.8550 -0.4896 -0.1712
vn -0.4598 -0.8833 0.0915
vn -0.4678 -0.8833 0.0307
vn -0.4678 -0.8833 -0.0307
vn -0.4598 -0.8833 -0.0915
vn -0.8550 -0.4896 0.1712
vn -0.7436 -0.5592 -0.3667
vn -0.6893 -0.5592 -0.4606
vn -0.6233 -0.5592 -0.5466
vn -0.5466 -0.5592 -0.6233
vn -0.4606 -0.5592 -0.6893
vn -0.3667 -0.5592 -0.7436
vn 0.1712 -0.4896 -0.8550
vn -0.0915 -0.8833 -0.4598
vn -0.0307 -0.8833 -0.4678
vn -0.6499 -0.7107 -0.2692
vn 0.1821 -0.7107 0.6795
vn 0.2692 -0.7107 -0.6499
vn -0.6795 -0.7107 0.1821
vn 0.6159 -0.7454 0.2551
vn -0.1821 -0.7107 -0.6795
vn -0.2551 -0.7454 0.6159
vn 0.6795 -0.7107 -0.1821
vn 0.0136 -0.9782 -0.2071
vn 0.0405 -0.9782 -0.2035
vn -0.7378 -0.6224 0.2613
vn -0.2851 -0.7645 0.5782
vn -0.3582 -0.7645 0.5360
vn -0.4251 -0.7645 0.4847
vn -0.4847 -0.7645 0.4251
vn -0.5360 -0.7645 0.3582
vn -0.5782 -0.7645 0.2851
vn 0.1965 -0.9782 -0.0667
vn 0.2035 -0.9782 -0.0405
vn 0.2071 -0.9782 -0.0136
vn 0.2071 -0.9782 0.0136
vn 0.2035 -0.9782 0.0405
vn -0.2613 -0.6224 -0.7378
vn -0.5782 -0.7645 -0.2851
vn -0.5360 -0.7645 -0.3582
vn -0.4847 -0.7645 -0.4251
vn -0.4251 -0.7645 -0.4847
vn -0.3582 -0.7645 -0.5360
vn -0.2851 -0.7645 -0.5782
vn 0.0667 -0.9782 0.1965
vn 0.0405 -0.9782 0.2035
vn 0.0136 -0.9782 0.2071
vn -0.0136 -0.9782 0.2071
vn -0.0405 -0.9782 0.2035
vn 0.7378 -0.6224 -0.2613
vn 0.2851 -0.7645 -0.5782
vn 0.3582 -0.7645 -0.5360
vn 0.4251 -0.7645 -0.4847
vn 0.4847 -0.7645 -0.4251
vn 0.5360 -0.7645 -0.3582
vn 0.5782 -0.7645 -0.2851
vn -0.1965 -0.9782 0.0667
vn -0.2035 -0.9782 0.0405
vn -0.2071 -0.9782 0.0136
vn -0.2071 -0.9782 -0.0136
vn -0.2035 -0.9782 -0.0405
vn 0.2613 -0.6224 0.7378
vn 0.5782 -0.7645 0.2851
vn 0.5360 -0.7645 0.3582
vn 0.4847 -0.7645 0.4251
vn 0.4251 -0.7645 0.4847
vn 0.3582 -0.7645 0.5360
vn 0.2851 -0.7645 0.5782
vn -0.0667 -0.9782 -0.1965
vn -0.0405 -0.9782 -0.2035
vn -0.0136 -0.9782 -0.2071
vn 0.0229 0.9368 -0.3490
vn 0.0682 0.9368 -0.3430
vn 0.1124 0.9368 -0.3312
vn 0.1547 0.9368 -0.3137
vn 0.1943 0.9368 -0.2908
vn 0.2306 0.9368 -0.2630
vn 0.2630 0.9368 -0.2306
vn 0.2908 0.9368 -0.1943
vn 0.3137 0.9368 -0.1547
vn 0.3312 0.9368 -0.1124
vn 0.3430 0.9368 -0.0682
vn 0.3490 0.9368 -0.0229
vn 0.3490 0.9368 0.0229
vn 0.3430 0.9368 0.0682
vn 0.3312 0.9368 0.1124
vn 0.3137 0.9368 0.1547
vn 0.2908 0.9368 0.1943
vn 0.2630 0.9368 0.2306
vn 0.2306 0.9368 0.2630
vn 0.1943 0.9368 0.2908
vn 0.1547 0.9368 0.3137
vn 0.1124 0.9368 0.3312
vn 0.0682 0.9368 0.3430
vn 0.0229 0.9368 0.3490
vn -0.0229 0.9368 0.3490
vn -0.0682 0.9368 0.3430
vn -0.1124 0.9368 0.3312
vn -0.1547 0.9368 0.3137
vn -0.1943 0.9368 0.2908
vn -0.2306 0.9368 0.2630
vn -0.2630 0.9368 0.2306
vn -0.2908 0.9368 0.1943
vn -0.3137 0.9368 0.1547
vn -0.3312 0.9368 0.1124
vn -0.3430 0.9368 0.0682
vn -0.3490 0.9368 0.0229
vn -0.3490 0.9368 -0.0229
vn -0.3430 0.9368 -0.0682
vn -0.3312 0.9368 -0.1124
vn -0.3137 0.9368 -0.1547
vn -0.2908 0.9368 -0.1943
vn -0.2630 0.9368 -0.2306
vn -0.2306 0.9368 -0.2630
vn -0.1943 0.9368 -0.2908
vn -0.1547 0.9368 -0.3137
vn -0.1124 0.9368 -0.3312
vn -0.0682 0.9368 -0.3430
vn -0.0229 0.9368 -0.3490
vn -0.0000 1.0000 -0.0000
vn 0.1507 -0.8833 -0.4439
vn 0.4439 -0.8833 -0.1507
vn 0.4439 -0.8833 0.1507
vn 0.1507 -0.8833 0.4439
vn -0.1507 -0.8833 0.4439
vn -0.4439 -0.8833 0.1507
vn -0.4439 -0.8833 -0.1507
vn -0.1507 -0.8833 -0.4439
vn -0.6439 -0.7454 -0.1725
vn 0.2551 -0.7454 0.6159
vn 0.1725 -0.7454 -0.6439
vn -0.6159 -0.7454 0.2551
vn 0.6795 -0.7107 0.1821
vn -0.2551 -0.7454 -0.6159
vn -0.1821 -0.7107 0.6795
vn 0.6159 -0.7454 -0.2551
vn 0.0667 -0.9782 -0.1965
vn -0.2613 -0.6224 0.7378
vn 0.1965 -0.9782 0.0667
vn -0.7378 -0.6224 -0.2613
vn -0.0667 -0.9782 0.1965
vn 0.2613 -0.6224 -0.7378
vn -0.1965 -0.9782 -0.0667
vn 0.7378 -0.6224 0.2613
vt 0.067420 0.824906
vt 0.042197 0.223677
vt 0.448994 0.919641
vt 0.057882 0.815050
vt 0.051060 0.239028
vt 0.466117 0.920160
vt 0.049713 0.804034
vt 0.061851 0.253092
vt 0.482494 0.920926
vt 0.043051 0.792045
vt 0.074386 0.265626
vt 0.497845 0.921928
vt 0.038011 0.779290
vt 0.088449 0.276417
vt 0.511909 0.923147
vt 0.034679 0.765986
vt 0.524443 0.924563
vt 0.103801 0.285281
vt 0.994274 0.005726
vt 0.033112 0.752360
vt 0.120178 0.292064
vt 0.981740 0.007142
vt 0.033337 0.738647
vt 0.137300 0.296652
vt 0.967676 0.008361
vt 0.035349 0.725081
vt 0.154875 0.298966
vt 0.952325 0.009363
vt 0.039116 0.711893
vt 0.172602 0.298966
vt 0.935947 0.010129
vt 0.044571 0.699310
vt 0.190177 0.296652
vt 0.918825 0.010648
vt 0.051623 0.687546
vt 0.207299 0.292064
vt 0.901250 0.010909
vt 0.060149 0.676804
vt 0.223677 0.285281
vt 0.883523 0.010909
vt 0.070005 0.667266
vt 0.239028 0.276417
vt 0.865949 0.010648
vt 0.081021 0.659096
vt 0.253092 0.265626
vt 0.848826 0.010129
vt 0.093010 0.652434
vt 0.265626 0.253091
vt 0.832449 0.009363
vt 0.105765 0.647394
vt 0.276417 0.239028
vt 0.817097 0.008361
vt 0.119069 0.644062
vt 0.803034 0.007142
vt 0.285281 0.223676
vt 0.929828 0.673980
vt 0.132694 0.642495
vt 0.292064 0.207299
vt 0.917293 0.675396
vt 0.146408 0.642720
vt 0.296652 0.190177
vt 0.903230 0.676615
vt 0.159974 0.644733
vt 0.298966 0.172602
vt 0.887878 0.677617
vt 0.173162 0.648499
vt 0.298966 0.154875
vt 0.871501 0.678383
vt 0.185745 0.653955
vt 0.854378 0.678902
vt 0.296652 0.137300
vt 0.197509 0.661006
vt 0.292064 0.120178
vt 0.836803 0.679163
vt 0.208251 0.669533
vt 0.285281 0.103801
vt 0.819077 0.679163
vt 0.217789 0.679389
vt 0.276417 0.088449
vt 0.801502 0.678902
vt 0.225959 0.690405
vt 0.265626 0.074386
vt 0.784379 0.678383
vt 0.232620 0.702393
vt 0.253091 0.061851
vt 0.768002 0.677617
vt 0.237660 0.715149
vt 0.239028 0.051060
vt 0.752650 0.676615
vt 0.240993 0.728453
vt 0.738587 0.675396
vt 0.223676 0.042196
vt 0.727136 0.673980
vt 0.242559 0.742078
vt 0.207299 0.035413
vt 0.714601 0.675396
vt 0.242335 0.755791
vt 0.190177 0.030825
vt 0.700538 0.676615
vt 0.240322 0.769358
vt 0.172602 0.028511
vt 0.685186 0.677617
vt 0.236555 0.782546
vt 0.154875 0.028511
vt 0.668809 0.678383
vt 0.231100 0.795129
vt 0.137300 0.030825
vt 0.651686 0.678902
vt 0.224048 0.806892
vt 0.120178 0.035413
vt 0.634111 0.679163
vt 0.215522 0.817635
vt 0.103801 0.042197
vt 0.616385 0.679163
vt 0.205666 0.827173
vt 0.088449 0.051060
vt 0.598810 0.678902
vt 0.194650 0.835342
vt 0.074386 0.061851
vt 0.581687 0.678383
vt 0.182662 0.842004
vt 0.061851 0.074386
vt 0.565310 0.677617
vt 0.169906 0.847044
vt 0.051060 0.088449
vt 0.549958 0.676615
vt 0.156602 0.850376
vt 0.535895 0.675396
vt 0.042196 0.103801
vt 0.333203 0.923147
vt 0.142977 0.851943
vt 0.035413 0.120178
vt 0.347266 0.921928
vt 0.129264 0.851718
vt 0.030825 0.137300
vt 0.362618 0.920926
vt 0.115697 0.849705
vt 0.028511 0.154875
vt 0.378995 0.920160
vt 0.102509 0.845939
vt 0.028511 0.172602
vt 0.396118 0.919641
vt 0.089926 0.840483
vt 0.030825 0.190177
vt 0.413693 0.919380
vt 0.078162 0.833432
vt 0.035413 0.207299
vt 0.431419 0.919380
vt 0.662170 0.395637
vt 0.641634 0.395331
vt 0.621626 0.394726
vt 0.602490 0.393830
vt 0.584551 0.392660
vt 0.791582 0.055453
vt 0.568118 0.391235
vt 0.776936 0.057108
vt 0.760503 0.058533
vt 0.742564 0.059703
vt 0.723428 0.060599
vt 0.703420 0.061204
vt 0.682884 0.061510
vt 0.662170 0.061510
vt 0.641634 0.061204
vt 0.621626 0.060599
vt 0.602490 0.059703
vt 0.584551 0.058533
vt 0.556667 0.057108
vt 0.568118 0.057108
vt 0.540234 0.058533
vt 0.522295 0.059703
vt 0.503159 0.060599
vt 0.483151 0.061204
vt 0.462615 0.061510
vt 0.441901 0.061510
vt 0.421365 0.061204
vt 0.401358 0.060599
vt 0.382221 0.059703
vt 0.364283 0.058533
vt 0.347850 0.057108
vt 0.556667 0.389580
vt 0.333203 0.055453
vt 0.542020 0.391235
vt 0.525587 0.392660
vt 0.507649 0.393830
vt 0.488512 0.394726
vt 0.468504 0.395331
vt 0.447968 0.395637
vt 0.427255 0.395637
vt 0.406719 0.395331
vt 0.386711 0.394726
vt 0.367574 0.393830
vt 0.349636 0.392660
vt 0.791582 0.389580
vt 0.333203 0.391235
vt 0.776936 0.391235
vt 0.760503 0.392660
vt 0.742564 0.393830
vt 0.723428 0.394726
vt 0.703420 0.395331
vt 0.682884 0.395637
vt 0.643552 0.370350
vt 0.024581 0.843302
vt 0.013008 0.827697
vt 0.624786 0.369782
vt 0.606838 0.368942
vt 0.590013 0.367844
vt 0.574600 0.366508
vt 0.784191 0.030829
vt 0.770454 0.032381
vt 0.755041 0.033717
vt 0.738216 0.034815
vt 0.720268 0.035655
vt 0.701502 0.036223
vt 0.005726 0.679355
vt 0.682241 0.036509
vt 0.015714 0.662692
vt 0.662813 0.036509
vt 0.027792 0.647475
vt 0.643552 0.036223
vt 0.041753 0.633964
vt 0.057357 0.622392
vt 0.624786 0.035655
vt 0.606838 0.034815
vt 0.590013 0.033717
vt 0.574600 0.032381
vt 0.550185 0.032381
vt 0.534772 0.033717
vt 0.517947 0.034815
vt 0.499999 0.035655
vt 0.481233 0.036223
vt 0.461972 0.036509
vt 0.205700 0.615109
vt 0.442544 0.036509
vt 0.222363 0.625098
vt 0.423283 0.036223
vt 0.237580 0.637176
vt 0.404517 0.035655
vt 0.251090 0.651136
vt 0.262663 0.666741
vt 0.386569 0.034815
vt 0.369744 0.033717
vt 0.354331 0.032381
vt 0.340594 0.030829
vt 0.549276 0.364956
vt 0.535538 0.366508
vt 0.520126 0.367844
vt 0.503301 0.368942
vt 0.485352 0.369782
vt 0.466587 0.370350
vt 0.269945 0.815084
vt 0.447325 0.370636
vt 0.259957 0.831747
vt 0.427898 0.370636
vt 0.247879 0.846964
vt 0.408636 0.370350
vt 0.233919 0.860474
vt 0.218314 0.872046
vt 0.389871 0.369782
vt 0.371922 0.368942
vt 0.355097 0.367844
vt 0.339685 0.366508
vt 0.784191 0.364956
vt 0.770454 0.366508
vt 0.755041 0.367844
vt 0.738216 0.368942
vt 0.720268 0.369782
vt 0.701502 0.370350
vt 0.069971 0.879329
vt 0.682241 0.370636
vt 0.053308 0.869341
vt 0.662813 0.370636
vt 0.038091 0.857263
vt 0.049006 0.845221
vt 0.036974 0.832788
vt 0.630011 0.359491
vt 0.026668 0.818891
vt 0.614026 0.343403
vt 0.018264 0.803767
vt 0.599042 0.342425
vt 0.011906 0.787676
vt 0.771972 0.005726
vt 0.585316 0.341235
vt 0.007703 0.770893
vt 0.759738 0.007108
vt 0.005726 0.753705
vt 0.746012 0.008298
vt 0.006009 0.736406
vt 0.731028 0.009276
vt 0.008549 0.719291
vt 0.715043 0.010024
vt 0.013300 0.702655
vt 0.287826 0.445392
vt 0.698331 0.025870
vt 0.287632 0.427967
vt 0.020182 0.686781
vt 0.029078 0.671941
vt 0.039834 0.658390
vt 0.052267 0.646358
vt 0.630011 0.025364
vt 0.066164 0.636052
vt 0.614026 0.009276
vt 0.081287 0.627648
vt 0.599042 0.008298
vt 0.097378 0.621290
vt 0.539469 0.007108
vt 0.585316 0.007108
vt 0.114162 0.617086
vt 0.525743 0.008298
vt 0.131350 0.615109
vt 0.510759 0.009276
vt 0.148649 0.615393
vt 0.494775 0.010024
vt 0.165763 0.617932
vt 0.182400 0.622684
vt 0.478063 0.010530
vt 0.288011 0.351000
vt 0.460909 0.026126
vt 0.287632 0.333203
vt 0.198274 0.629566
vt 0.213114 0.638461
vt 0.226665 0.649217
vt 0.238697 0.661650
vt 0.393757 0.024616
vt 0.249003 0.675548
vt 0.378773 0.008298
vt 0.257407 0.690671
vt 0.365047 0.007108
vt 0.263765 0.706762
vt 0.352813 0.005726
vt 0.537057 0.339853
vt 0.267969 0.723545
vt 0.524822 0.341235
vt 0.269945 0.740734
vt 0.511096 0.342425
vt 0.269662 0.758033
vt 0.496113 0.343403
vt 0.267122 0.775147
vt 0.262371 0.791784
vt 0.480128 0.344151
vt 0.288011 0.382588
vt 0.463416 0.359997
vt 0.287632 0.364791
vt 0.255489 0.807657
vt 0.246594 0.822497
vt 0.235837 0.836049
vt 0.223404 0.848081
vt 0.395095 0.359491
vt 0.209507 0.858387
vt 0.379110 0.343403
vt 0.194384 0.866791
vt 0.364127 0.342425
vt 0.178293 0.873149
vt 0.771972 0.339853
vt 0.350401 0.341235
vt 0.161510 0.877352
vt 0.759738 0.341235
vt 0.144321 0.879329
vt 0.746012 0.342425
vt 0.127022 0.879045
vt 0.731028 0.343403
vt 0.109908 0.876506
vt 0.715043 0.344151
vt 0.093271 0.871755
vt 0.288011 0.414176
vt 0.698331 0.359997
vt 0.287632 0.396379
vt 0.077397 0.864872
vt 0.062558 0.855977
vt 0.057575 0.835768
vt 0.046703 0.824534
vt 0.037391 0.811977
vt 0.029798 0.798313
vt 0.024053 0.783774
vt 0.020255 0.768610
vt 0.018469 0.753079
vt 0.018726 0.737449
vt 0.021020 0.721985
vt 0.300285 0.446596
vt 0.025313 0.706954
vt 0.300285 0.429383
vt 0.031531 0.692611
vt 0.039569 0.679203
vt 0.049287 0.666958
vt 0.060521 0.656087
vt 0.073078 0.646775
vt 0.086742 0.639182
vt 0.101281 0.633437
vt 0.116445 0.629639
vt 0.131976 0.627853
vt 0.147606 0.628109
vt 0.163069 0.630404
vt 0.299873 0.353339
vt 0.178101 0.634697
vt 0.299873 0.335819
vt 0.192444 0.640915
vt 0.205852 0.648952
vt 0.218097 0.658671
vt 0.228968 0.669905
vt 0.238280 0.682461
vt 0.245873 0.696126
vt 0.251618 0.710665
vt 0.255416 0.725829
vt 0.257202 0.741359
vt 0.256945 0.756990
vt 0.254651 0.772453
vt 0.299873 0.384927
vt 0.250358 0.787485
vt 0.299873 0.367407
vt 0.244140 0.801827
vt 0.236103 0.815236
vt 0.226384 0.827480
vt 0.215150 0.838351
vt 0.202594 0.847663
vt 0.188929 0.855257
vt 0.174390 0.861001
vt 0.159226 0.864799
vt 0.143696 0.866585
vt 0.128065 0.866329
vt 0.112602 0.864035
vt 0.299873 0.416515
vt 0.097570 0.859742
vt 0.299873 0.398995
vt 0.083227 0.853523
vt 0.069819 0.845486
vt 0.641634 0.662223
vt 0.032074 0.251714
vt 0.662170 0.662528
vt 0.021717 0.233776
vt 0.621626 0.661617
vt 0.044683 0.268147
vt 0.602490 0.660721
vt 0.059330 0.282794
vt 0.584551 0.659551
vt 0.075763 0.295403
vt 0.568118 0.658126
vt 0.791582 0.322344
vt 0.093701 0.305760
vt 0.776936 0.323999
vt 0.112838 0.313687
vt 0.760503 0.325424
vt 0.132846 0.319048
vt 0.742564 0.326594
vt 0.153382 0.321751
vt 0.723428 0.327490
vt 0.174095 0.321751
vt 0.703420 0.328096
vt 0.194631 0.319048
vt 0.682884 0.328401
vt 0.214639 0.313687
vt 0.662170 0.328401
vt 0.233776 0.305760
vt 0.641634 0.328096
vt 0.251714 0.295403
vt 0.621626 0.327490
vt 0.268147 0.282794
vt 0.602490 0.326594
vt 0.282794 0.268147
vt 0.584551 0.325424
vt 0.295403 0.251714
vt 0.568118 0.323999
vt 0.556667 0.323999
vt 0.305760 0.233776
vt 0.540234 0.325424
vt 0.313687 0.214639
vt 0.522295 0.326594
vt 0.319048 0.194631
vt 0.503159 0.327490
vt 0.321751 0.174095
vt 0.483151 0.328096
vt 0.321751 0.153382
vt 0.462615 0.328401
vt 0.319048 0.132846
vt 0.441901 0.328401
vt 0.313687 0.112838
vt 0.421365 0.328096
vt 0.305760 0.093701
vt 0.401358 0.327490
vt 0.295403 0.075763
vt 0.382221 0.326594
vt 0.282794 0.059330
vt 0.364283 0.325424
vt 0.268147 0.044683
vt 0.347849 0.323999
vt 0.251714 0.032074
vt 0.333203 0.322344
vt 0.556667 0.656471
vt 0.233776 0.021717
vt 0.542020 0.658126
vt 0.214639 0.013790
vt 0.525587 0.659551
vt 0.194631 0.008429
vt 0.507649 0.660721
vt 0.174095 0.005726
vt 0.488512 0.661617
vt 0.153382 0.005726
vt 0.468504 0.662223
vt 0.132846 0.008429
vt 0.447968 0.662528
vt 0.112838 0.013790
vt 0.427255 0.662528
vt 0.093701 0.021717
vt 0.406719 0.662223
vt 0.075763 0.032074
vt 0.386711 0.661617
vt 0.059330 0.044683
vt 0.367574 0.660721
vt 0.044683 0.059330
vt 0.349636 0.659551
vt 0.032074 0.075763
vt 0.333203 0.658126
vt 0.791582 0.656471
vt 0.021717 0.093701
vt 0.776936 0.658126
vt 0.013790 0.112838
vt 0.760503 0.659551
vt 0.008429 0.132846
vt 0.742564 0.660721
vt 0.005726 0.153382
vt 0.723428 0.661617
vt 0.005726 0.174095
vt 0.703420 0.662223
vt 0.008429 0.194631
vt 0.682884 0.662528
vt 0.013790 0.214639
vt 0.019411 0.528368
vt 0.466117 0.674760
vt 0.012628 0.511991
vt 0.448994 0.674241
vt 0.028274 0.543720
vt 0.482494 0.675526
vt 0.039066 0.557783
vt 0.497845 0.676528
vt 0.051600 0.570318
vt 0.511909 0.677747
vt 0.065664 0.581109
vt 0.524443 0.679163
vt 0.994274 0.251126
vt 0.081015 0.589972
vt 0.981740 0.252542
vt 0.097393 0.596756
vt 0.967676 0.253762
vt 0.114515 0.601344
vt 0.952325 0.254763
vt 0.132090 0.603658
vt 0.935947 0.255529
vt 0.149817 0.603658
vt 0.918825 0.256048
vt 0.167391 0.601344
vt 0.901250 0.256309
vt 0.184514 0.596756
vt 0.883523 0.256309
vt 0.200891 0.589972
vt 0.865949 0.256048
vt 0.216243 0.581109
vt 0.848826 0.255529
vt 0.230306 0.570318
vt 0.832449 0.254763
vt 0.242841 0.557783
vt 0.817097 0.253762
vt 0.253632 0.543720
vt 0.803034 0.252542
vt 0.929828 0.919380
vt 0.262495 0.528368
vt 0.917293 0.920796
vt 0.269279 0.511991
vt 0.903230 0.922015
vt 0.273867 0.494869
vt 0.887878 0.923017
vt 0.276181 0.477294
vt 0.871501 0.923783
vt 0.276181 0.459567
vt 0.854378 0.924302
vt 0.273867 0.441992
vt 0.836803 0.924563
vt 0.269279 0.424870
vt 0.819077 0.924563
vt 0.262495 0.408492
vt 0.801502 0.924302
vt 0.253632 0.393141
vt 0.784379 0.923783
vt 0.242841 0.379077
vt 0.768002 0.923017
vt 0.230306 0.366543
vt 0.752650 0.922015
vt 0.216243 0.355752
vt 0.738587 0.920796
vt 0.727136 0.919380
vt 0.200891 0.346888
vt 0.714601 0.920796
vt 0.184514 0.340105
vt 0.700538 0.922015
vt 0.167391 0.335517
vt 0.685186 0.923017
vt 0.149817 0.333203
vt 0.668809 0.923783
vt 0.132090 0.333203
vt 0.651686 0.924302
vt 0.114515 0.335517
vt 0.634111 0.924563
vt 0.097393 0.340105
vt 0.616385 0.924563
vt 0.081015 0.346888
vt 0.598810 0.924302
vt 0.065664 0.355752
vt 0.581687 0.923783
vt 0.051600 0.366543
vt 0.565310 0.923017
vt 0.039066 0.379077
vt 0.549958 0.922015
vt 0.028274 0.393141
vt 0.535895 0.920796
vt 0.333203 0.677747
vt 0.019411 0.408492
vt 0.347266 0.676528
vt 0.012628 0.424870
vt 0.362618 0.675526
vt 0.008040 0.441992
vt 0.378995 0.674760
vt 0.005726 0.459567
vt 0.396118 0.674241
vt 0.005726 0.477294
vt 0.413693 0.673980
vt 0.008040 0.494868
vt 0.431419 0.673980
s 0
f 290/427/1 98/150/1 97/149/1
f 289/425/2 99/151/2 98/150/2
f 291/429/3 100/152/3 99/151/3
f 292/431/4 101/153/4 100/152/4
f 293/433/5 102/155/5 101/153/5
f 294/436/6 103/156/6 102/154/6
f 295/438/7 104/157/7 103/156/7
f 296/440/8 105/158/8 104/157/8
f 297/442/9 106/159/9 105/158/9
f 298/444/10 107/160/10 106/159/10
f 299/446/11 108/161/11 107/160/11
f 300/448/12 109/162/12 108/161/12
f 301/450/13 110/163/13 109/162/13
f 302/452/14 111/164/14 110/163/14
f 303/454/15 112/165/15 111/164/15
f 304/456/16 113/166/16 112/165/16
f 305/458/17 114/168/17 113/166/17
f 306/461/18 115/169/18 114/167/18
f 307/463/19 116/170/19 115/169/19
f 308/465/20 117/171/20 116/170/20
f 309/467/21 118/172/21 117/171/21
f 310/469/22 119/173/22 118/172/22
f 311/471/23 120/174/23 119/173/23
f 312/473/24 121/175/24 120/174/24
f 313/475/25 122/176/25 121/175/25
f 314/477/26 123/177/26 122/176/26
f 315/479/27 124/178/27 123/177/27
f 316/481/28 125/179/28 124/178/28
f 317/483/29 126/181/29 125/179/29
f 318/486/30 127/182/30 126/180/30
f 319/488/31 128/183/31 127/182/31
f 320/490/32 129/184/32 128/183/32
f 321/492/33 130/185/33 129/184/33
f 322/494/34 131/186/34 130/185/34
f 323/496/35 132/187/35 131/186/35
f 324/498/36 133/188/36 132/187/36
f 325/500/37 134/189/37 133/188/37
f 326/502/38 135/190/38 134/189/38
f 327/504/39 136/191/39 135/190/39
f 328/506/40 137/192/40 136/191/40
f 329/508/41 138/194/41 137/192/41
f 330/511/42 139/195/42 138/193/42
f 331/513/43 140/196/43 139/195/43
f 332/515/44 141/197/44 140/196/44
f 333/517/45 142/198/45 141/197/45
f 334/519/46 143/199/46 142/198/46
f 48/74/47 359/572/47 360/574/47
f 335/521/47 144/200/47 143/199/47
f 336/523/48 97/149/48 144/200/48
f 31/47/49 63/97/49 95/146/49
f 191/269/50 97/149/50 192/271/50
f 143/199/51 191/269/51 190/267/51
f 142/198/52 190/267/52 189/266/52
f 141/197/53 189/266/53 188/265/53
f 187/264/54 141/197/54 188/265/54
f 139/195/55 187/264/55 186/263/55
f 138/193/56 186/263/56 185/262/56
f 137/192/57 185/261/57 184/260/57
f 183/259/58 137/192/58 184/260/58
f 135/190/59 183/259/59 182/258/59
f 181/255/60 135/190/60 182/258/60
f 133/188/61 181/255/61 180/253/61
f 179/251/62 133/188/62 180/253/62
f 131/186/63 179/251/63 178/249/63
f 130/185/64 178/249/64 177/248/64
f 129/184/65 177/248/65 176/247/65
f 175/246/66 129/184/66 176/247/66
f 127/182/67 175/246/67 174/245/67
f 126/180/68 174/245/68 173/244/68
f 125/179/69 173/243/69 172/242/69
f 171/241/70 125/179/70 172/242/70
f 123/177/71 171/241/71 170/240/71
f 169/237/72 123/177/72 170/240/72
f 121/175/73 169/237/73 168/235/73
f 167/233/74 121/175/74 168/235/74
f 119/173/75 167/233/75 166/231/75
f 165/230/76 119/173/76 166/231/76
f 117/171/77 165/230/77 164/229/77
f 163/228/78 117/171/78 164/229/78
f 115/169/79 163/228/79 162/227/79
f 114/167/80 162/227/80 161/226/80
f 113/166/81 161/225/81 160/224/81
f 159/223/82 113/166/82 160/224/82
f 111/164/83 159/223/83 158/222/83
f 157/219/84 111/164/84 158/222/84
f 109/162/85 157/219/85 156/217/85
f 155/215/86 109/162/86 156/217/86
f 107/160/87 155/215/87 154/213/87
f 106/159/88 154/213/88 153/212/88
f 105/158/89 153/212/89 152/211/89
f 151/210/90 105/158/90 152/211/90
f 103/156/91 151/210/91 150/209/91
f 102/154/92 150/209/92 149/208/92
f 101/153/93 149/207/93 148/206/93
f 100/152/94 148/206/94 147/205/94
f 99/151/95 147/205/95 146/204/95
f 145/201/96 99/151/96 146/204/96
f 97/149/97 145/201/97 192/271/97
f 192/272/98 194/274/98 193/273/98
f 194/274/99 146/203/99 195/276/99
f 195/275/100 147/205/100 196/277/100
f 147/205/101 197/279/101 196/277/101
f 148/206/102 198/282/102 197/279/102
f 149/208/103 199/284/103 198/281/103
f 199/284/104 151/210/104 200/286/104
f 151/210/105 201/288/105 200/286/105
f 201/288/106 153/212/106 202/290/106
f 153/212/107 203/293/107 202/290/107
f 154/214/108 204/296/108 203/295/108
f 204/296/109 156/218/109 205/297/109
f 156/218/110 206/298/110 205/297/110
f 206/298/111 158/221/111 207/300/111
f 207/299/112 159/223/112 208/301/112
f 159/223/113 209/303/113 208/301/113
f 160/224/114 210/306/114 209/303/114
f 161/226/115 211/308/115 210/305/115
f 211/308/116 163/228/116 212/310/116
f 163/228/117 213/312/117 212/310/117
f 164/229/118 214/315/118 213/312/118
f 165/230/119 215/317/119 214/315/119
f 166/232/120 216/320/120 215/319/120
f 216/320/121 168/236/121 217/321/121
f 168/236/122 218/322/122 217/321/122
f 218/322/123 170/239/123 219/324/123
f 219/323/124 171/241/124 220/325/124
f 220/325/125 172/242/125 221/327/125
f 172/242/126 222/329/126 221/327/126
f 222/330/127 174/245/127 223/332/127
f 174/245/128 224/334/128 223/332/128
f 175/246/129 225/336/129 224/334/129
f 176/247/130 226/339/130 225/336/130
f 177/248/131 227/341/131 226/339/131
f 178/250/132 228/344/132 227/343/132
f 228/344/133 180/254/133 229/345/133
f 180/254/134 230/346/134 229/345/134
f 230/346/135 182/257/135 231/348/135
f 231/347/136 183/259/136 232/349/136
f 183/259/137 233/351/137 232/349/137
f 184/260/138 234/354/138 233/351/138
f 185/262/139 235/356/139 234/353/139
f 186/263/140 236/358/140 235/356/140
f 187/264/141 237/360/141 236/358/141
f 237/360/142 189/266/142 238/362/142
f 189/266/143 239/365/143 238/362/143
f 190/268/144 240/368/144 239/367/144
f 240/368/145 192/272/145 193/273/145
f 241/369/49 194/274/49 242/370/49
f 242/370/49 195/276/49 243/371/49
f 243/371/146 196/278/146 244/372/146
f 244/372/49 197/280/49 245/373/49
f 246/374/49 197/280/49 198/283/49
f 246/374/49 199/285/49 247/375/49
f 248/376/49 199/285/49 200/287/49
f 248/376/49 201/289/49 249/377/49
f 249/377/49 202/291/49 250/379/49
f 250/378/147 203/294/147 251/380/147
f 252/382/49 203/295/49 204/296/49
f 253/383/49 204/296/49 205/297/49
f 253/383/49 206/298/49 254/384/49
f 254/384/49 207/300/49 255/385/49
f 255/385/148 208/302/148 256/386/148
f 256/386/49 209/304/49 257/387/49
f 258/388/49 209/304/49 210/307/49
f 258/388/49 211/309/49 259/389/49
f 259/389/49 212/311/49 260/390/49
f 260/390/49 213/313/49 261/391/49
f 262/393/49 213/313/49 214/314/49
f 262/392/149 215/318/149 263/394/149
f 264/396/49 215/319/49 216/320/49
f 265/397/49 216/320/49 217/321/49
f 265/397/49 218/322/49 266/398/49
f 266/398/49 219/324/49 267/399/49
f 268/400/150 219/324/150 220/326/150
f 268/400/49 221/328/49 269/401/49
f 270/402/49 221/328/49 222/331/49
f 270/402/49 223/333/49 271/403/49
f 272/404/49 223/333/49 224/335/49
f 272/404/49 225/337/49 273/405/49
f 274/407/49 225/337/49 226/338/49
f 274/406/151 227/342/151 275/408/151
f 276/410/49 227/343/49 228/344/49
f 277/411/49 228/344/49 229/345/49
f 278/412/49 229/345/49 230/346/49
f 278/412/49 231/348/49 279/413/49
f 280/414/152 231/348/152 232/350/152
f 280/414/49 233/352/49 281/415/49
f 282/416/49 233/352/49 234/355/49
f 282/416/49 235/357/49 283/417/49
f 283/417/49 236/359/49 284/418/49
f 284/418/49 237/361/49 285/419/49
f 285/419/49 238/363/49 286/421/49
f 286/420/153 239/366/153 287/422/153
f 288/424/49 239/367/49 240/368/49
f 288/424/49 193/273/49 241/369/49
f 3/4/154 241/369/154 242/370/154
f 5/7/155 242/370/155 243/371/155
f 7/10/156 243/371/156 244/372/156
f 7/10/157 245/373/157 9/13/157
f 11/16/158 245/373/158 246/374/158
f 11/16/159 247/375/159 13/20/159
f 15/23/160 247/375/160 248/376/160
f 15/23/161 249/377/161 17/26/161
f 17/26/162 250/379/162 19/29/162
f 19/29/163 251/381/163 21/32/163
f 23/35/164 251/381/164 252/382/164
f 23/35/165 253/383/165 25/38/165
f 25/38/166 254/384/166 27/41/166
f 27/41/167 255/385/167 29/44/167
f 31/47/168 255/385/168 256/386/168
f 31/47/169 257/387/169 33/50/169
f 33/50/170 258/388/170 35/53/170
f 35/53/171 259/389/171 37/57/171
f 37/57/172 260/390/172 39/60/172
f 41/63/173 260/390/173 261/391/173
f 41/63/174 262/393/174 43/66/174
f 43/66/175 263/395/175 45/69/175
f 45/69/176 264/396/176 47/72/176
f 47/72/177 265/397/177 49/75/177
f 49/75/178 266/398/178 51/78/178
f 51/78/179 267/399/179 53/81/179
f 55/84/180 267/399/180 268/400/180
f 55/84/181 269/401/181 57/87/181
f 59/90/182 269/401/182 270/402/182
f 59/90/183 271/403/183 61/94/183
f 61/94/184 272/404/184 63/97/184
f 65/100/185 272/404/185 273/405/185
f 65/100/186 274/407/186 67/103/186
f 67/103/187 275/409/187 69/106/187
f 71/109/188 275/409/188 276/410/188
f 71/109/189 277/411/189 73/112/189
f 75/115/190 277/411/190 278/412/190
f 75/115/191 279/413/191 77/118/191
f 79/121/192 279/413/192 280/414/192
f 81/124/193 280/414/193 281/415/193
f 83/127/194 281/415/194 282/416/194
f 83/127/195 283/417/195 85/131/195
f 85/131/196 284/418/196 87/134/196
f 87/134/197 285/419/197 89/137/197
f 89/137/198 286/421/198 91/140/198
f 91/140/199 287/423/199 93/143/199
f 95/146/200 287/423/200 288/424/200
f 95/146/201 241/369/201 1/1/201
f 4/5/202 290/428/202 2/2/202
f 4/5/203 291/430/203 289/426/203
f 6/8/204 292/432/204 291/430/204
f 10/14/205 292/432/205 8/11/205
f 10/14/206 294/437/206 293/434/206
f 12/18/207 295/439/207 294/437/207
f 16/24/208 295/439/208 14/21/208
f 16/24/209 297/443/209 296/441/209
f 20/30/210 297/443/210 18/27/210
f 22/33/211 298/445/211 20/30/211
f 24/36/212 299/447/212 22/33/212
f 24/36/213 301/451/213 300/449/213
f 28/42/214 301/451/214 26/39/214
f 28/42/215 303/455/215 302/453/215
f 32/48/216 303/455/216 30/45/216
f 34/51/217 304/457/217 32/48/217
f 34/51/218 306/462/218 305/459/218
f 36/55/219 307/464/219 306/462/219
f 40/61/220 307/464/220 38/58/220
f 40/61/221 309/468/221 308/466/221
f 42/64/222 310/470/222 309/468/222
f 46/71/223 310/470/223 44/67/223
f 48/73/224 311/472/224 46/71/224
f 48/73/225 313/476/225 312/474/225
f 52/79/226 313/476/226 50/76/226
f 52/79/227 315/480/227 314/478/227
f 54/82/228 316/482/228 315/480/228
f 58/88/229 316/482/229 56/85/229
f 60/92/230 317/484/230 58/88/230
f 60/92/231 319/489/231 318/487/231
f 64/98/232 319/489/232 62/95/232
f 64/98/233 321/493/233 320/491/233
f 66/101/234 322/495/234 321/493/234
f 68/104/235 323/497/235 322/495/235
f 72/110/236 323/497/236 70/107/236
f 72/110/237 325/501/237 324/499/237
f 76/116/238 325/501/238 74/113/238
f 76/116/239 327/505/239 326/503/239
f 80/122/240 327/505/240 78/119/240
f 82/125/241 328/507/241 80/122/241
f 82/125/242 330/512/242 329/509/242
f 84/129/243 331/514/243 330/512/243
f 88/135/244 331/514/244 86/132/244
f 88/135/245 333/518/245 332/516/245
f 90/138/246 334/520/246 333/518/246
f 94/144/247 334/520/247 92/141/247
f 96/147/248 335/522/248 94/144/248
f 96/147/249 290/428/249 336/524/249
f 371/596/250 355/563/250 339/529/250
f 20/31/34 347/547/34 22/34/34
f 74/114/13 374/603/13 76/117/13
f 48/74/48 361/576/48 50/77/48
f 24/37/35 347/547/35 348/549/35
f 76/117/14 375/605/14 78/120/14
f 50/77/1 362/578/1 52/80/1
f 24/37/36 349/551/36 26/40/36
f 78/120/15 376/607/15 80/123/15
f 52/80/2 363/580/2 54/83/2
f 26/40/37 350/553/37 28/43/37
f 80/123/16 377/609/16 82/126/16
f 54/83/3 364/582/3 56/86/3
f 28/43/38 351/555/38 30/46/38
f 82/126/17 378/611/17 84/128/17
f 2/3/25 337/526/25 4/6/25
f 56/86/4 365/584/4 58/89/4
f 30/46/39 352/557/39 32/49/39
f 84/130/18 379/614/18 86/133/18
f 4/6/26 339/530/26 6/9/26
f 58/89/5 366/586/5 60/91/5
f 32/49/40 353/559/40 34/52/40
f 86/133/19 380/616/19 88/136/19
f 6/9/27 340/532/27 8/12/27
f 60/93/6 367/589/6 62/96/6
f 34/52/41 354/561/41 36/54/41
f 88/136/20 381/618/20 90/139/20
f 8/12/28 341/534/28 10/15/28
f 62/96/7 368/591/7 64/99/7
f 36/56/42 355/564/42 38/59/42
f 90/139/21 382/620/21 92/142/21
f 10/15/29 342/536/29 12/17/29
f 64/99/8 369/593/8 66/102/8
f 38/59/43 356/566/43 40/62/43
f 92/142/22 383/622/22 94/145/22
f 12/19/30 343/539/30 14/22/30
f 66/102/9 370/595/9 68/105/9
f 40/62/44 357/568/44 42/65/44
f 94/145/23 384/624/23 96/148/23
f 14/22/31 344/541/31 16/25/31
f 68/105/10 371/597/10 70/108/10
f 42/65/45 358/570/45 44/68/45
f 96/148/24 338/528/24 2/3/24
f 16/25/32 345/543/32 18/28/32
f 70/108/11 372/599/11 72/111/11
f 44/68/46 359/572/46 46/70/46
f 18/28/33 346/545/33 20/31/33
f 72/111/12 373/601/12 74/114/12
f 290/427/1 289/425/1 98/150/1
f 289/425/2 291/429/2 99/151/2
f 291/429/3 292/431/3 100/152/3
f 292/431/4 293/433/4 101/153/4
f 293/433/5 294/435/5 102/155/5
f 294/436/6 295/438/6 103/156/6
f 295/438/7 296/440/7 104/157/7
f 296/440/8 297/442/8 105/158/8
f 297/442/9 298/444/9 106/159/9
f 298/444/10 299/446/10 107/160/10
f 299/446/11 300/448/11 108/161/11
f 300/448/12 301/450/12 109/162/12
f 301/450/13 302/452/13 110/163/13
f 302/452/14 303/454/14 111/164/14
f 303/454/15 304/456/15 112/165/15
f 304/456/16 305/458/16 113/166/16
f 305/458/17 306/460/17 114/168/17
f 306/461/18 307/463/18 115/169/18
f 307/463/19 308/465/19 116/170/19
f 308/465/20 309/467/20 117/171/20
f 309/467/21 310/469/21 118/172/21
f 310/469/22 311/471/22 119/173/22
f 311/471/23 312/473/23 120/174/23
f 312/473/24 313/475/24 121/175/24
f 313/475/25 314/477/25 122/176/25
f 314/477/26 315/479/26 123/177/26
f 315/479/27 316/481/27 124/178/27
f 316/481/28 317/483/28 125/179/28
f 317/483/29 318/485/29 126/181/29
f 318/486/30 319/488/30 127/182/30
f 319/488/31 320/490/31 128/183/31
f 320/490/32 321/492/32 129/184/32
f 321/492/33 322/494/33 130/185/33
f 322/494/34 323/496/34 131/186/34
f 323/496/35 324/498/35 132/187/35
f 324/498/36 325/500/36 133/188/36
f 325/500/37 326/502/37 134/189/37
f 326/502/38 327/504/38 135/190/38
f 327/504/39 328/506/39 136/191/39
f 328/506/40 329/508/40 137/192/40
f 329/508/41 330/510/41 138/194/41
f 330/511/42 331/513/42 139/195/42
f 331/513/43 332/515/43 140/196/43
f 332/515/44 333/517/44 141/197/44
f 333/517/45 334/519/45 142/198/45
f 334/519/46 335/521/46 143/199/46
f 48/74/47 46/70/47 359/572/47
f 335/521/47 336/523/47 144/200/47
f 336/523/48 290/427/48 97/149/48
f 95/146/49 1/1/49 3/4/49
f 3/4/49 5/7/49 7/10/49
f 7/10/49 9/13/49 11/16/49
f 11/16/49 13/20/49 15/23/49
f 15/23/49 17/26/49 19/29/49
f 19/29/49 21/32/49 23/35/49
f 23/35/49 25/38/49 27/41/49
f 27/41/49 29/44/49 31/47/49
f 31/47/49 33/50/49 35/53/49
f 35/53/49 37/57/49 39/60/49
f 39/60/49 41/63/49 43/66/49
f 43/66/49 45/69/49 47/72/49
f 47/72/49 49/75/49 51/78/49
f 51/78/49 53/81/49 55/84/49
f 55/84/49 57/87/49 59/90/49
f 59/90/49 61/94/49 63/97/49
f 63/97/49 65/100/49 67/103/49
f 67/103/49 69/106/49 71/109/49
f 71/109/49 73/112/49 75/115/49
f 75/115/49 77/118/49 79/121/49
f 79/121/49 81/124/49 83/127/49
f 83/127/49 85/131/49 87/134/49
f 87/134/49 89/137/49 91/140/49
f 91/140/49 93/143/49 95/146/49
f 95/146/49 3/4/49 7/10/49
f 7/10/49 11/16/49 15/23/49
f 15/23/49 19/29/49 23/35/49
f 23/35/49 27/41/49 31/47/49
f 31/47/49 35/53/49 39/60/49
f 39/60/49 43/66/49 47/72/49
f 47/72/49 51/78/49 55/84/49
f 55/84/49 59/90/49 63/97/49
f 63/97/49 67/103/49 71/109/49
f 71/109/49 75/115/49 79/121/49
f 79/121/49 83/127/49 87/134/49
f 87/134/49 91/140/49 95/146/49
f 95/146/49 7/10/49 15/23/49
f 15/23/49 23/35/49 31/47/49
f 31/47/49 39/60/49 47/72/49
f 47/72/49 55/84/49 63/97/49
f 63/97/49 71/109/49 79/121/49
f 79/121/49 87/134/49 95/146/49
f 95/146/49 15/23/49 31/47/49
f 31/47/49 47/72/49 63/97/49
f 63/97/49 79/121/49 95/146/49
f 191/269/50 144/200/50 97/149/50
f 143/199/51 144/200/51 191/269/51
f 142/198/52 143/199/52 190/267/52
f 141/197/53 142/198/53 189/266/53
f 187/264/54 140/196/54 141/197/54
f 139/195/55 140/196/55 187/264/55
f 138/193/56 139/195/56 186/263/56
f 137/192/57 138/194/57 185/261/57
f 183/259/58 136/191/58 137/192/58
f 135/190/59 136/191/59 183/259/59
f 181/255/60 134/189/60 135/190/60
f 133/188/61 134/189/61 181/255/61
f 179/251/62 132/187/62 133/188/62
f 131/186/63 132/187/63 179/251/63
f 130/185/64 131/186/64 178/249/64
f 129/184/65 130/185/65 177/248/65
f 175/246/66 128/183/66 129/184/66
f 127/182/67 128/183/67 175/246/67
f 126/180/68 127/182/68 174/245/68
f 125/179/69 126/181/69 173/243/69
f 171/241/70 124/178/70 125/179/70
f 123/177/71 124/178/71 171/241/71
f 169/237/72 122/176/72 123/177/72
f 121/175/73 122/176/73 169/237/73
f 167/233/74 120/174/74 121/175/74
f 119/173/75 120/174/75 167/233/75
f 165/230/76 118/172/76 119/173/76
f 117/171/77 118/172/77 165/230/77
f 163/228/78 116/170/78 117/171/78
f 115/169/79 116/170/79 163/228/79
f 114/167/80 115/169/80 162/227/80
f 113/166/81 114/168/81 161/225/81
f 159/223/82 112/165/82 113/166/82
f 111/164/83 112/165/83 159/223/83
f 157/219/84 110/163/84 111/164/84
f 109/162/85 110/163/85 157/219/85
f 155/215/86 108/161/86 109/162/86
f 107/160/87 108/161/87 155/215/87
f 106/159/88 107/160/88 154/213/88
f 105/158/89 106/159/89 153/212/89
f 151/210/90 104/157/90 105/158/90
f 103/156/91 104/157/91 151/210/91
f 102/154/92 103/156/92 150/209/92
f 101/153/93 102/155/93 149/207/93
f 100/152/94 101/153/94 148/206/94
f 99/151/95 100/152/95 147/205/95
f 145/201/96 98/150/96 99/151/96
f 97/149/97 98/150/97 145/201/97
f 192/272/98 145/202/98 194/274/98
f 194/274/99 145/202/99 146/203/99
f 195/275/251 146/204/251 147/205/251
f 147/205/101 148/206/101 197/279/101
f 148/206/102 149/207/102 198/282/102
f 149/208/103 150/209/103 199/284/103
f 199/284/104 150/209/104 151/210/104
f 151/210/105 152/211/105 201/288/105
f 201/288/106 152/211/106 153/212/106
f 153/212/252 154/213/252 203/293/252
f 154/214/108 155/216/108 204/296/108
f 204/296/109 155/216/109 156/218/109
f 156/218/110 157/220/110 206/298/110
f 206/298/111 157/220/111 158/221/111
f 207/299/253 158/222/253 159/223/253
f 159/223/113 160/224/113 209/303/113
f 160/224/114 161/225/114 210/306/114
f 161/226/115 162/227/115 211/308/115
f 211/308/116 162/227/116 163/228/116
f 163/228/117 164/229/117 213/312/117
f 164/229/118 165/230/118 214/315/118
f 165/230/254 166/231/254 215/317/254
f 166/232/120 167/234/120 216/320/120
f 216/320/121 167/234/121 168/236/121
f 168/236/122 169/238/122 218/322/122
f 218/322/123 169/238/123 170/239/123
f 219/323/255 170/240/255 171/241/255
f 220/325/125 171/241/125 172/242/125
f 172/242/126 173/243/126 222/329/126
f 222/330/127 173/244/127 174/245/127
f 174/245/128 175/246/128 224/334/128
f 175/246/129 176/247/129 225/336/129
f 176/247/130 177/248/130 226/339/130
f 177/248/256 178/249/256 227/341/256
f 178/250/132 179/252/132 228/344/132
f 228/344/133 179/252/133 180/254/133
f 180/254/134 181/256/134 230/346/134
f 230/346/135 181/256/135 182/257/135
f 231/347/257 182/258/257 183/259/257
f 183/259/137 184/260/137 233/351/137
f 184/260/138 185/261/138 234/354/138
f 185/262/139 186/263/139 235/356/139
f 186/263/140 187/264/140 236/358/140
f 187/264/141 188/265/141 237/360/141
f 237/360/142 188/265/142 189/266/142
f 189/266/258 190/267/258 239/365/258
f 190/268/144 191/270/144 240/368/144
f 240/368/145 191/270/145 192/272/145
f 241/369/49 193/273/49 194/274/49
f 242/370/49 194/274/49 195/276/49
f 243/371/259 195/276/259 196/278/259
f 244/372/49 196/278/49 197/280/49
f 246/374/49 245/373/49 197/280/49
f 246/374/49 198/283/49 199/285/49
f 248/376/49 247/375/49 199/285/49
f 248/376/49 200/287/49 201/289/49
f 249/377/49 201/289/49 202/291/49
f 250/378/260 202/292/260 203/294/260
f 252/382/49 251/381/49 203/295/49
f 253/383/49 252/382/49 204/296/49
f 253/383/49 205/297/49 206/298/49
f 254/384/49 206/298/49 207/300/49
f 255/385/261 207/300/261 208/302/261
f 256/386/49 208/302/49 209/304/49
f 258/388/49 257/387/49 209/304/49
f 258/388/49 210/307/49 211/309/49
f 259/389/49 211/309/49 212/311/49
f 260/390/49 212/311/49 213/313/49
f 262/393/49 261/391/49 213/313/49
f 262/392/262 214/316/262 215/318/262
f 264/396/49 263/395/49 215/319/49
f 265/397/49 264/396/49 216/320/49
f 265/397/49 217/321/49 218/322/49
f 266/398/49 218/322/49 219/324/49
f 268/400/263 267/399/263 219/324/263
f 268/400/49 220/326/49 221/328/49
f 270/402/49 269/401/49 221/328/49
f 270/402/49 222/331/49 223/333/49
f 272/404/49 271/403/49 223/333/49
f 272/404/49 224/335/49 225/337/49
f 274/407/49 273/405/49 225/337/49
f 274/406/264 226/340/264 227/342/264
f 276/410/49 275/409/49 227/343/49
f 277/411/49 276/410/49 228/344/49
f 278/412/49 277/411/49 229/345/49
f 278/412/49 230/346/49 231/348/49
f 280/414/265 279/413/265 231/348/265
f 280/414/49 232/350/49 233/352/49
f 282/416/49 281/415/49 233/352/49
f 282/416/49 234/355/49 235/357/49
f 283/417/49 235/357/49 236/359/49
f 284/418/49 236/359/49 237/361/49
f 285/419/49 237/361/49 238/363/49
f 286/420/266 238/364/266 239/366/266
f 288/424/49 287/423/49 239/367/49
f 288/424/49 240/368/49 193/273/49
f 3/4/154 1/1/154 241/369/154
f 5/7/155 3/4/155 242/370/155
f 7/10/267 5/7/267 243/371/267
f 7/10/157 244/372/157 245/373/157
f 11/16/158 9/13/158 245/373/158
f 11/16/159 246/374/159 247/375/159
f 15/23/160 13/20/160 247/375/160
f 15/23/161 248/376/161 249/377/161
f 17/26/162 249/377/162 250/379/162
f 19/29/268 250/379/268 251/381/268
f 23/35/164 21/32/164 251/381/164
f 23/35/165 252/382/165 253/383/165
f 25/38/166 253/383/166 254/384/166
f 27/41/167 254/384/167 255/385/167
f 31/47/269 29/44/269 255/385/269
f 31/47/169 256/386/169 257/387/169
f 33/50/170 257/387/170 258/388/170
f 35/53/171 258/388/171 259/389/171
f 37/57/172 259/389/172 260/390/172
f 41/63/173 39/60/173 260/390/173
f 41/63/174 261/391/174 262/393/174
f 43/66/270 262/393/270 263/395/270
f 45/69/176 263/395/176 264/396/176
f 47/72/177 264/396/177 265/397/177
f 49/75/178 265/397/178 266/398/178
f 51/78/179 266/398/179 267/399/179
f 55/84/271 53/81/271 267/399/271
f 55/84/181 268/400/181 269/401/181
f 59/90/182 57/87/182 269/401/182
f 59/90/183 270/402/183 271/403/183
f 61/94/184 271/403/184 272/404/184
f 65/100/185 63/97/185 272/404/185
f 65/100/186 273/405/186 274/407/186
f 67/103/272 274/407/272 275/409/272
f 71/109/188 69/106/188 275/409/188
f 71/109/189 276/410/189 277/411/189
f 75/115/190 73/112/190 277/411/190
f 75/115/191 278/412/191 279/413/191
f 79/121/273 77/118/273 279/413/273
f 81/124/193 79/121/193 280/414/193
f 83/127/194 81/124/194 281/415/194
f 83/127/195 282/416/195 283/417/195
f 85/131/196 283/417/196 284/418/196
f 87/134/197 284/418/197 285/419/197
f 89/137/198 285/419/198 286/421/198
f 91/140/274 286/421/274 287/423/274
f 95/146/200 93/143/200 287/423/200
f 95/146/201 288/424/201 241/369/201
f 4/5/202 289/426/202 290/428/202
f 4/5/203 6/8/203 291/430/203
f 6/8/204 8/11/204 292/432/204
f 10/14/205 293/434/205 292/432/205
f 10/14/206 12/18/206 294/437/206
f 12/18/207 14/21/207 295/439/207
f 16/24/208 296/441/208 295/439/208
f 16/24/209 18/27/209 297/443/209
f 20/30/210 298/445/210 297/443/210
f 22/33/211 299/447/211 298/445/211
f 24/36/212 300/449/212 299/447/212
f 24/36/213 26/39/213 301/451/213
f 28/42/214 302/453/214 301/451/214
f 28/42/215 30/45/215 303/455/215
f 32/48/216 304/457/216 303/455/216
f 34/51/217 305/459/217 304/457/217
f 34/51/218 36/55/218 306/462/218
f 36/55/219 38/58/219 307/464/219
f 40/61/220 308/466/220 307/464/220
f 40/61/221 42/64/221 309/468/221
f 42/64/222 44/67/222 310/470/222
f 46/71/223 311/472/223 310/470/223
f 48/73/224 312/474/224 311/472/224
f 48/73/225 50/76/225 313/476/225
f 52/79/226 314/478/226 313/476/226
f 52/79/227 54/82/227 315/480/227
f 54/82/228 56/85/228 316/482/228
f 58/88/229 317/484/229 316/482/229
f 60/92/230 318/487/230 317/484/230
f 60/92/231 62/95/231 319/489/231
f 64/98/232 320/491/232 319/489/232
f 64/98/233 66/101/233 321/493/233
f 66/101/234 68/104/234 322/495/234
f 68/104/235 70/107/235 323/497/235
f 72/110/236 324/499/236 323/497/236
f 72/110/237 74/113/237 325/501/237
f 76/116/238 326/503/238 325/501/238
f 76/116/239 78/119/239 327/505/239
f 80/122/240 328/507/240 327/505/240
f 82/125/241 329/509/241 328/507/241
f 82/125/242 84/129/242 330/512/242
f 84/129/243 86/132/243 331/514/243
f 88/135/244 332/516/244 331/514/244
f 88/135/245 90/138/245 333/518/245
f 90/138/246 92/141/246 334/520/246
f 94/144/247 335/522/247 334/520/247
f 96/147/248 336/524/248 335/522/248
f 96/147/249 2/2/249 290/428/249
f 339/529/250 337/525/250 338/527/250
f 338/527/250 384/623/250 383/621/250
f 383/621/250 382/619/250 381/617/250
f 381/617/250 380/615/250 379/613/250
f 379/613/250 378/610/250 377/608/250
f 377/608/250 376/606/250 375/604/250
f 375/604/250 374/602/250 373/600/250
f 373/600/250 372/598/250 371/596/250
f 371/596/250 370/594/250 369/592/250
f 369/592/250 368/590/250 367/588/250
f 367/588/250 366/585/250 365/583/250
f 365/583/250 364/581/250 363/579/250
f 363/579/250 362/577/250 361/575/250
f 361/575/250 360/573/250 359/571/250
f 359/571/250 358/569/250 357/567/250
f 357/567/250 356/565/250 355/563/250
f 355/563/250 354/560/250 353/558/250
f 353/558/250 352/556/250 351/554/250
f 351/554/250 350/552/250 349/550/250
f 349/550/250 348/548/250 347/546/250
f 347/546/250 346/544/250 345/542/250
f 345/542/250 344/540/250 343/538/250
f 343/538/250 342/535/250 341/533/250
f 341/533/250 340/531/250 339/529/250
f 339/529/250 338/527/250 383/621/250
f 383/621/250 381/617/250 379/613/250
f 379/613/250 377/608/250 375/604/250
f 375/604/250 373/600/250 371/596/250
f 371/596/250 369/592/250 367/588/250
f 367/588/250 365/583/250 363/579/250
f 363/579/250 361/575/250 359/571/250
f 359/571/250 357/567/250 355/563/250
f 355/563/250 353/558/250 351/554/250
f 351/554/250 349/550/250 347/546/250
f 347/546/250 345/542/250 343/538/250
f 343/538/250 341/533/250 339/529/250
f 339/529/250 383/621/250 379/613/250
f 379/613/250 375/604/250 371/596/250
f 371/596/250 367/588/250 363/579/250
f 363/579/250 359/571/250 355/563/250
f 355/563/250 351/554/250 347/546/250
f 347/546/250 343/538/250 339/529/250
f 339/529/250 379/613/250 371/596/250
f 371/596/250 363/579/250 355/563/250
f 355/563/250 347/546/250 339/529/250
f 20/31/34 346/545/34 347/547/34
f 74/114/13 373/601/13 374/603/13
f 48/74/48 360/574/48 361/576/48
f 24/37/35 22/34/35 347/547/35
f 76/117/14 374/603/14 375/605/14
f 50/77/1 361/576/1 362/578/1
f 24/37/36 348/549/36 349/551/36
f 78/120/15 375/605/15 376/607/15
f 52/80/2 362/578/2 363/580/2
f 26/40/37 349/551/37 350/553/37
f 80/123/16 376/607/16 377/609/16
f 54/83/3 363/580/3 364/582/3
f 28/43/38 350/553/38 351/555/38
f 82/126/17 377/609/17 378/611/17
f 2/3/25 338/528/25 337/526/25
f 56/86/4 364/582/4 365/584/4
f 30/46/39 351/555/39 352/557/39
f 84/130/18 378/612/18 379/614/18
f 4/6/26 337/526/26 339/530/26
f 58/89/5 365/584/5 366/586/5
f 32/49/40 352/557/40 353/559/40
f 86/133/19 379/614/19 380/616/19
f 6/9/27 339/530/27 340/532/27
f 60/93/6 366/587/6 367/589/6
f 34/52/41 353/559/41 354/561/41
f 88/136/20 380/616/20 381/618/20
f 8/12/28 340/532/28 341/534/28
f 62/96/7 367/589/7 368/591/7
f 36/56/42 354/562/42 355/564/42
f 90/139/21 381/618/21 382/620/21
f 10/15/29 341/534/29 342/536/29
f 64/99/8 368/591/8 369/593/8
f 38/59/43 355/564/43 356/566/43
f 92/142/22 382/620/22 383/622/22
f 12/19/30 342/537/30 343/539/30
f 66/102/9 369/593/9 370/595/9
f 40/62/44 356/566/44 357/568/44
f 94/145/23 383/622/23 384/624/23
f 14/22/31 343/539/31 344/541/31
f 68/105/10 370/595/10 371/597/10
f 42/65/45 357/568/45 358/570/45
f 96/148/24 384/624/24 338/528/24
f 16/25/32 344/541/32 345/543/32
f 70/108/11 371/597/11 372/599/11
f 44/68/46 358/570/46 359/572/46
f 18/28/33 345/543/33 346/545/33
f 72/111/12 372/599/12 373/601/12
