# Blender 3.3.1
# www.blender.org
o vessel
v 0.000000 0.052258 -0.449072
v 0.000000 3.601932 -0.857836
v 0.087610 0.052258 -0.440443
v 0.167355 3.601932 -0.841353
v 0.171852 0.052258 -0.414888
v 0.328280 3.601932 -0.792537
v 0.249491 0.052258 -0.373390
v 0.476588 3.601932 -0.713264
v 0.317542 0.052258 -0.317542
v 0.606581 3.601932 -0.606581
v 0.373390 0.052258 -0.249491
v 0.713264 3.601932 -0.476588
v 0.414888 0.052258 -0.171852
v 0.792537 3.601932 -0.328280
v 0.440443 0.052258 -0.087610
v 0.841353 3.601932 -0.167355
v 0.449072 0.052258 -0.000000
v 0.857836 3.601932 0.000000
v 0.440443 0.052258 0.087610
v 0.841353 3.601932 0.167355
v 0.414888 0.052258 0.171852
v 0.792537 3.601932 0.328280
v 0.373390 0.052258 0.249491
v 0.713264 3.601932 0.476588
v 0.317542 0.052258 0.317542
v 0.606581 3.601932 0.606581
v 0.249491 0.052258 0.373390
v 0.476588 3.601932 0.713264
v 0.171852 0.052258 0.414888
v 0.328280 3.601932 0.792537
v 0.087610 0.052258 0.440443
v 0.167355 3.601932 0.841353
v 0.000000 0.052258 0.449072
v 0.000000 3.601932 0.857836
v -0.087610 0.052258 0.440443
v -0.167355 3.601932 0.841353
v -0.171852 0.052258 0.414888
v -0.328280 3.601932 0.792537
v -0.249491 0.052258 0.373390
v -0.476588 3.601932 0.713264
v -0.317542 0.052258 0.317542
v -0.606581 3.601932 0.606581
v -0.373390 0.052258 0.249491
v -0.713264 3.601932 0.476588
v -0.414888 0.052258 0.171852
v -0.792537 3.601932 0.328280
v -0.440443 0.052258 0.087610
v -0.841353 3.601932 0.167355
v -0.449072 0.052258 -0.000000
v -0.857836 3.601932 0.000000
v -0.440443 0.052258 -0.087610
v -0.841353 3.601932 -0.167355
v -0.414888 0.052258 -0.171852
v -0.792537 3.601932 -0.328280
v -0.373390 0.052258 -0.249491
v -0.713264 3.601932 -0.476588
v -0.317542 0.052258 -0.317542
v -0.606581 3.601932 -0.606581
v -0.249491 0.052258 -0.373390
v -0.476588 3.601932 -0.713264
v -0.171852 0.052258 -0.414888
v -0.328280 3.601932 -0.792537
v -0.087610 0.052258 -0.440443
v -0.167355 3.601932 -0.841353
v 0.195090 3.601932 -0.980785
v 0.000000 3.601932 -1.000000
v 0.382683 3.601932 -0.923880
v 0.555570 3.601932 -0.831470
v 0.707107 3.601932 -0.707107
v 0.831470 3.601932 -0.555570
v 0.923880 3.601932 -0.382683
v 0.980785 3.601932 -0.195090
v 1.000000 3.601932 0.000000
v 0.980785 3.601932 0.195090
v 0.923880 3.601932 0.382683
v 0.831470 3.601932 0.555570
v 0.707107 3.601932 0.707107
v 0.555570 3.601932 0.831470
v 0.382683 3.601932 0.923880
v 0.195090 3.601932 0.980785
v 0.000000 3.601932 1.000000
v -0.195090 3.601932 0.980785
v -0.382683 3.601932 0.923880
v -0.555570 3.601932 0.831470
v -0.707107 3.601932 0.707107
v -0.831470 3.601932 0.555570
v -0.923880 3.601932 0.382683
v -0.980785 3.601932 0.195090
v -1.000000 3.601932 0.000000
v -0.980785 3.601932 -0.195090
v -0.923880 3.601932 -0.382683
v -0.831470 3.601932 -0.555570
v -0.707107 3.601932 -0.707107
v -0.555570 3.601932 -0.831470
v -0.382683 3.601932 -0.923880
v -0.195090 3.601932 -0.980785
v 0.115208 0.185078 -0.579188
v 0.000000 0.185078 -0.590535
v 0.225988 0.185078 -0.545583
v 0.328084 0.185078 -0.491012
v 0.417571 0.185078 -0.417571
v 0.491012 0.185078 -0.328084
v 0.545583 0.185078 -0.225988
v 0.579188 0.185078 -0.115208
v 0.590535 0.185078 -0.000000
v 0.579188 0.185078 0.115208
v 0.545583 0.185078 0.225988
v 0.491012 0.185078 0.328084
v 0.417571 0.185078 0.417571
v 0.328084 0.185078 0.491012
v 0.225988 0.185078 0.545583
v 0.115208 0.185078 0.579188
v 0.000000 0.185078 0.590535
v -0.115208 0.185078 0.579188
v -0.225988 0.185078 0.545583
v -0.328084 0.185078 0.491012
v -0.417571 0.185078 0.417571
v -0.491012 0.185078 0.328084
v -0.545583 0.185078 0.225988
v -0.579188 0.185078 0.115208
v -0.590535 0.185078 -0.000000
v -0.579188 0.185078 -0.115208
v -0.545583 0.185078 -0.225988
v -0.491012 0.185078 -0.328084
v -0.417571 0.185078 -0.417571
v -0.328084 0.185078 -0.491012
v -0.225988 0.185078 -0.545583
v -0.115208 0.185078 -0.579188
v 0.000000 0.011860 -0.688401
v 0.134300 0.011860 -0.675174
v 0.263440 0.011860 -0.636000
v 0.382455 0.011860 -0.572384
v 0.486773 0.011860 -0.486773
v 0.572384 0.011860 -0.382455
v 0.636000 0.011860 -0.263440
v 0.675174 0.011860 -0.134300
v 0.688401 0.011860 -0.000000
v 0.675174 0.011860 0.134300
v 0.636000 0.011860 0.263440
v 0.572384 0.011860 0.382455
v 0.486773 0.011860 0.486773
v 0.382455 0.011860 0.572384
v 0.263440 0.011860 0.636000
v 0.134300 0.011860 0.675174
v 0.000000 0.011860 0.688401
v -0.134300 0.011860 0.675174
v -0.263440 0.011860 0.636000
v -0.382455 0.011860 0.572384
v -0.486773 0.011860 0.486773
v -0.572384 0.011860 0.382455
v -0.636000 0.011860 0.263440
v -0.675174 0.011860 0.134300
v -0.688401 0.011860 -0.000000
v -0.675174 0.011860 -0.134300
v -0.636000 0.011860 -0.263440
v -0.572384 0.011860 -0.382455
v -0.486773 0.011860 -0.486773
v -0.382455 0.011860 -0.572384
v -0.263440 0.011860 -0.636000
v -0.134300 0.011860 -0.675174
v 0.000000 0.011860 -0.549478
v 0.107198 0.011860 -0.538920
v 0.210276 0.011860 -0.507652
v 0.305274 0.011860 -0.456875
v 0.388540 0.011860 -0.388540
v 0.456875 0.011860 -0.305274
v 0.507652 0.011860 -0.210276
v 0.538920 0.011860 -0.107198
v 0.549478 0.011860 -0.000000
v 0.538920 0.011860 0.107198
v 0.507652 0.011860 0.210276
v 0.456875 0.011860 0.305274
v 0.388540 0.011860 0.388540
v 0.305274 0.011860 0.456875
v 0.210276 0.011860 0.507652
v 0.107198 0.011860 0.538920
v 0.000000 0.011860 0.549478
v -0.107198 0.011860 0.538920
v -0.210276 0.011860 0.507652
v -0.305274 0.011860 0.456875
v -0.388540 0.011860 0.388540
v -0.456875 0.011860 0.305274
v -0.507652 0.011860 0.210276
v -0.538920 0.011860 0.107198
v -0.549478 0.011860 -0.000000
v -0.538920 0.011860 -0.107198
v -0.507652 0.011860 -0.210276
v -0.456875 0.011860 -0.305274
v -0.388540 0.011860 -0.388540
v -0.305274 0.011860 -0.456875
v -0.210276 0.011860 -0.507652
v -0.107198 0.011860 -0.538920
vn 0.0977 -0.0861 -0.9915
vn 0.2892 -0.0861 -0.9534
vn 0.4696 -0.0861 -0.8786
vn 0.6320 -0.0861 -0.7701
vn 0.7701 -0.0861 -0.6320
vn 0.8786 -0.0861 -0.4696
vn 0.9534 -0.0861 -0.2892
vn 0.9915 -0.0861 -0.0977
vn 0.9915 -0.0861 0.0977
vn 0.9534 -0.0861 0.2892
vn 0.8786 -0.0861 0.4696
vn 0.7701 -0.0861 0.6320
vn 0.6320 -0.0861 0.7701
vn 0.4696 -0.0861 0.8786
vn 0.2892 -0.0861 0.9534
vn 0.0977 -0.0861 0.9915
vn -0.0977 -0.0861 0.9915
vn -0.2892 -0.0861 0.9534
vn -0.4696 -0.0861 0.8786
vn -0.6320 -0.0861 0.7701
vn -0.7701 -0.0861 0.6320
vn -0.8786 -0.0861 0.4696
vn -0.9534 -0.0861 0.2892
vn -0.9915 -0.0861 0.0977
vn -0.9915 -0.0861 -0.0977
vn -0.9534 -0.0861 -0.2892
vn -0.8786 -0.0861 -0.4696
vn -0.7701 -0.0861 -0.6320
vn -0.6320 -0.0861 -0.7701
vn -0.4696 -0.0861 -0.8786
vn 0.0977 0.0776 -0.9922
vn -0.2892 -0.0861 -0.9534
vn -0.0977 -0.0861 -0.9915
vn -0.0000 -1.0000 -0.0000
vn -0.0000 1.0000 -0.0000
vn -0.6325 0.0776 0.7707
vn 0.2894 0.0776 0.9541
vn 0.2894 0.0776 -0.9541
vn -0.7707 0.0776 0.6325
vn 0.0977 0.0776 0.9922
vn 0.4700 0.0776 -0.8793
vn -0.8793 0.0776 0.4700
vn 0.6325 0.0776 -0.7707
vn -0.9541 0.0776 0.2894
vn 0.7707 0.0776 -0.6325
vn -0.9922 0.0776 0.0977
vn 0.8793 0.0776 -0.4700
vn -0.9922 0.0776 -0.0977
vn 0.9541 0.0776 -0.2894
vn -0.9541 0.0776 -0.2894
vn 0.9922 0.0776 -0.0977
vn -0.8793 0.0776 -0.4700
vn 0.9922 0.0776 0.0977
vn -0.7707 0.0776 -0.6325
vn 0.9541 0.0776 0.2894
vn -0.6325 0.0776 -0.7707
vn 0.8793 0.0776 0.4700
vn -0.4700 0.0776 -0.8793
vn -0.0977 0.0776 0.9922
vn 0.7707 0.0776 0.6325
vn -0.2894 0.0776 -0.9541
vn -0.2894 0.0776 0.9541
vn 0.6325 0.0776 0.7707
vn -0.0977 0.0776 -0.9922
vn -0.4700 0.0776 0.8793
vn 0.4700 0.0776 0.8793
vn -0.0367 -0.9271 0.3730
vn -0.1088 -0.9271 0.3587
vn -0.1767 -0.9271 0.3306
vn -0.2378 -0.9271 0.2897
vn -0.2897 -0.9271 0.2378
vn -0.3306 -0.9271 0.1767
vn -0.3587 -0.9271 0.1088
vn -0.3730 -0.9271 0.0367
vn -0.3730 -0.9271 -0.0367
vn -0.3587 -0.9271 -0.1088
vn -0.3306 -0.9271 -0.1767
vn -0.2897 -0.9271 -0.2378
vn -0.2378 -0.9271 -0.2897
vn -0.1767 -0.9271 -0.3306
vn -0.1088 -0.9271 -0.3587
vn -0.0367 -0.9271 -0.3730
vn 0.0367 -0.9271 -0.3730
vn 0.1088 -0.9271 -0.3587
vn 0.1767 -0.9271 -0.3306
vn 0.2378 -0.9271 -0.2897
vn 0.2897 -0.9271 -0.2378
vn 0.3306 -0.9271 -0.1767
vn 0.3587 -0.9271 -0.1088
vn 0.3730 -0.9271 -0.0367
vn 0.3730 -0.9271 0.0367
vn 0.3587 -0.9271 0.1088
vn 0.3306 -0.9271 0.1767
vn 0.2897 -0.9271 0.2378
vn 0.2378 -0.9271 0.2897
vn 0.1767 -0.9271 0.3306
vn 0.1088 -0.9271 0.3587
vn 0.0367 -0.9271 0.3730
vt 0.038554 0.906092
vt 0.022695 0.636232
vt 0.492652 0.478780
vt 0.036162 0.894067
vt 0.022695 0.659652
vt 0.514290 0.478731
vt 0.036162 0.881807
vt 0.027264 0.682623
vt 0.537260 0.478701
vt 0.038554 0.869782
vt 0.036227 0.704261
vt 0.560681 0.478691
vt 0.043246 0.858455
vt 0.049239 0.723734
vt 0.583651 0.478701
vt 0.050057 0.848261
vt 0.065799 0.740295
vt 0.605289 0.478731
vt 0.058727 0.839591
vt 0.085273 0.753307
vt 0.624763 0.478780
vt 0.068921 0.832779
vt 0.106911 0.762270
vt 0.641324 0.478846
vt 0.080248 0.828088
vt 0.654335 0.478926
vt 0.129881 0.766839
vt 0.637775 0.484908
vt 0.092273 0.825696
vt 0.153302 0.766839
vt 0.624763 0.484982
vt 0.104534 0.825696
vt 0.176272 0.762270
vt 0.608202 0.485040
vt 0.116559 0.828088
vt 0.197910 0.753307
vt 0.588728 0.485080
vt 0.127886 0.832779
vt 0.217384 0.740295
vt 0.567091 0.485101
vt 0.138080 0.839591
vt 0.233944 0.723734
vt 0.544120 0.485101
vt 0.146750 0.848261
vt 0.246956 0.704261
vt 0.520700 0.485080
vt 0.153561 0.858455
vt 0.255919 0.682623
vt 0.497729 0.485040
vt 0.158253 0.869782
vt 0.476091 0.484982
vt 0.260488 0.659652
vt 0.160645 0.881807
vt 0.456618 0.484908
vt 0.260488 0.636232
vt 0.660317 0.985064
vt 0.160645 0.894068
vt 0.255919 0.613261
vt 0.679791 0.985006
vt 0.158253 0.906092
vt 0.246956 0.591624
vt 0.701429 0.984967
vt 0.153561 0.917420
vt 0.233944 0.572150
vt 0.724399 0.984947
vt 0.146750 0.927614
vt 0.217384 0.555589
vt 0.747820 0.984947
vt 0.138080 0.936283
vt 0.197910 0.542578
vt 0.770790 0.984967
vt 0.127886 0.943095
vt 0.176272 0.533615
vt 0.792428 0.985006
vt 0.116559 0.947787
vt 0.811901 0.985064
vt 0.153302 0.529046
vt 0.843004 0.985014
vt 0.104534 0.950179
vt 0.129881 0.529046
vt 0.864642 0.984965
vt 0.092273 0.950179
vt 0.106911 0.533615
vt 0.887613 0.984935
vt 0.080248 0.947787
vt 0.085273 0.542578
vt 0.911033 0.984925
vt 0.068921 0.943095
vt 0.065799 0.555589
vt 0.934004 0.984935
vt 0.058727 0.936283
vt 0.049239 0.572150
vt 0.955642 0.984965
vt 0.050057 0.927614
vt 0.975115 0.985014
vt 0.036227 0.591624
vt 0.456618 0.478926
vt 0.043246 0.917420
vt 0.027264 0.613261
vt 0.473179 0.478846
vt 0.239457 0.503103
vt 0.837023 0.503127
vt 0.002991 0.661593
vt 0.262158 0.503190
vt 0.002991 0.634291
vt 0.814322 0.503194
vt 0.008317 0.688370
vt 0.789098 0.503240
vt 0.018765 0.713594
vt 0.762321 0.503263
vt 0.033933 0.736295
vt 0.735019 0.503263
vt 0.053239 0.755600
vt 0.708242 0.503240
vt 0.075939 0.770768
vt 0.683018 0.503194
vt 0.101163 0.781216
vt 0.660317 0.503127
vt 0.843004 0.003095
vt 0.127940 0.786543
vt 0.868228 0.003038
vt 0.155242 0.786543
vt 0.895005 0.003003
vt 0.182020 0.781216
vt 0.922307 0.002991
vt 0.207243 0.770768
vt 0.949085 0.003003
vt 0.229944 0.755600
vt 0.974308 0.003038
vt 0.249249 0.736295
vt 0.997009 0.003095
vt 0.002991 0.003265
vt 0.264418 0.713594
vt 0.022296 0.003171
vt 0.274866 0.688371
vt 0.044997 0.003095
vt 0.280192 0.661593
vt 0.070221 0.003038
vt 0.280192 0.634291
vt 0.096998 0.003003
vt 0.274866 0.607514
vt 0.124300 0.002991
vt 0.264418 0.582290
vt 0.151077 0.003003
vt 0.249250 0.559590
vt 0.176301 0.003038
vt 0.229944 0.540284
vt 0.199002 0.003095
vt 0.207243 0.525116
vt 0.218307 0.003171
vt 0.182020 0.514668
vt 0.233475 0.003265
vt 0.450636 0.503103
vt 0.155242 0.509342
vt 0.435468 0.503190
vt 0.127941 0.509342
vt 0.416162 0.503258
vt 0.101163 0.514668
vt 0.393462 0.503305
vt 0.075939 0.525116
vt 0.368238 0.503328
vt 0.053239 0.540284
vt 0.341461 0.503328
vt 0.033933 0.559590
vt 0.314159 0.503305
vt 0.018765 0.582290
vt 0.287381 0.503258
vt 0.008317 0.607514
vt 0.286939 0.599220
vt 0.524890 0.003019
vt 0.286939 0.583097
vt 0.509995 0.003052
vt 0.290084 0.615033
vt 0.540703 0.002998
vt 0.296254 0.629928
vt 0.556826 0.002991
vt 0.305212 0.643334
vt 0.572639 0.002998
vt 0.316612 0.654734
vt 0.587534 0.003019
vt 0.330018 0.663692
vt 0.600940 0.003052
vt 0.344913 0.669862
vt 0.612340 0.003097
vt 0.360726 0.673007
vt 0.621298 0.003153
vt 0.604527 0.960666
vt 0.376849 0.673007
vt 0.595569 0.960717
vt 0.392662 0.669862
vt 0.584169 0.960757
vt 0.407557 0.663692
vt 0.570763 0.960785
vt 0.420963 0.654735
vt 0.555868 0.960799
vt 0.432363 0.643334
vt 0.540055 0.960799
vt 0.441321 0.629929
vt 0.523932 0.960785
vt 0.447491 0.615033
vt 0.508119 0.960757
vt 0.450636 0.599220
vt 0.493224 0.960717
vt 0.479818 0.960666
vt 0.450636 0.583097
vt 0.683934 0.509326
vt 0.447491 0.567284
vt 0.697340 0.509286
vt 0.441321 0.552389
vt 0.712235 0.509259
vt 0.432363 0.538983
vt 0.728048 0.509245
vt 0.420963 0.527583
vt 0.744171 0.509245
vt 0.407557 0.518626
vt 0.759984 0.509259
vt 0.392662 0.512456
vt 0.774879 0.509286
vt 0.376849 0.509310
vt 0.788285 0.509326
vt 0.860347 0.509286
vt 0.360726 0.509310
vt 0.875242 0.509252
vt 0.344913 0.512456
vt 0.891055 0.509232
vt 0.330018 0.518626
vt 0.907178 0.509225
vt 0.316612 0.527583
vt 0.922991 0.509232
vt 0.305212 0.538983
vt 0.937887 0.509252
vt 0.296254 0.552389
vt 0.485189 0.003153
vt 0.951292 0.509286
vt 0.290084 0.567284
vt 0.496589 0.003097
vt 0.283053 0.003051
vt 0.006658 0.915768
vt 0.809492 0.002991
vt 0.267426 0.002991
vt 0.002991 0.897335
vt 0.793865 0.003037
vt 0.002991 0.878540
vt 0.776501 0.003069
vt 0.006658 0.860106
vt 0.758067 0.003085
vt 0.013850 0.842742
vt 0.739273 0.003085
vt 0.024292 0.827115
vt 0.720839 0.003069
vt 0.037582 0.813825
vt 0.703475 0.003037
vt 0.053209 0.803384
vt 0.863678 0.503243
vt 0.687848 0.002991
vt 0.070573 0.796191
vt 0.881042 0.503204
vt 0.089006 0.792524
vt 0.899476 0.503180
vt 0.107801 0.792524
vt 0.918271 0.503171
vt 0.126235 0.796191
vt 0.936704 0.503180
vt 0.143599 0.803384
vt 0.954068 0.503204
vt 0.159226 0.813825
vt 0.036754 0.503360
vt 0.969695 0.503243
vt 0.172516 0.827115
vt 0.050044 0.503296
vt 0.182957 0.842742
vt 0.065671 0.503243
vt 0.190150 0.860106
vt 0.083035 0.503204
vt 0.193816 0.878540
vt 0.101468 0.503180
vt 0.193816 0.897335
vt 0.120263 0.503171
vt 0.190150 0.915768
vt 0.138697 0.503180
vt 0.182957 0.933132
vt 0.156061 0.503204
vt 0.172516 0.948759
vt 0.171688 0.503243
vt 0.159226 0.962049
vt 0.184978 0.503296
vt 0.143598 0.972491
vt 0.412801 0.002991
vt 0.195419 0.503360
vt 0.126234 0.979683
vt 0.402360 0.003051
vt 0.107801 0.983350
vt 0.389070 0.003097
vt 0.089006 0.983350
vt 0.373442 0.003130
vt 0.070573 0.979683
vt 0.356078 0.003146
vt 0.053209 0.972491
vt 0.337645 0.003146
vt 0.037582 0.962049
vt 0.318850 0.003130
vt 0.024292 0.948759
vt 0.300417 0.003097
vt 0.013850 0.933132
vt 0.025172 0.910152
vt 0.022246 0.895438
vt 0.022246 0.880436
vt 0.025172 0.865723
vt 0.030913 0.851863
vt 0.039248 0.839389
vt 0.049856 0.828781
vt 0.062329 0.820447
vt 0.076189 0.814706
vt 0.090903 0.811779
vt 0.105905 0.811779
vt 0.120618 0.814706
vt 0.134478 0.820447
vt 0.146952 0.828781
vt 0.157559 0.839389
vt 0.165894 0.851863
vt 0.171635 0.865723
vt 0.174562 0.880436
vt 0.174562 0.895438
vt 0.171635 0.910152
vt 0.165894 0.924012
vt 0.157559 0.936485
vt 0.146951 0.947093
vt 0.134478 0.955428
vt 0.120618 0.961169
vt 0.105905 0.964095
vt 0.090903 0.964095
vt 0.076189 0.961168
vt 0.062329 0.955428
vt 0.049856 0.947093
vt 0.039248 0.936485
vt 0.030913 0.924012
s 0
f 66/104/1 130/240/1 129/237/1
f 65/102/2 131/242/2 130/239/2
f 67/106/3 132/244/3 131/242/3
f 68/108/4 133/246/4 132/244/4
f 69/110/5 134/248/5 133/246/5
f 70/112/6 135/250/6 134/248/6
f 71/114/7 136/252/7 135/250/7
f 72/116/8 137/255/8 136/252/8
f 73/119/9 138/257/9 137/254/9
f 74/121/10 139/259/10 138/257/10
f 75/123/11 140/261/11 139/259/11
f 76/125/12 141/263/12 140/261/12
f 77/127/13 142/265/13 141/263/13
f 78/129/14 143/268/14 142/265/14
f 79/132/15 144/270/15 143/267/15
f 80/134/16 145/272/16 144/270/16
f 81/136/17 146/274/17 145/272/17
f 82/138/18 147/276/18 146/274/18
f 83/140/19 148/278/19 147/276/19
f 84/142/20 149/280/20 148/278/20
f 85/144/21 150/282/21 149/280/21
f 86/146/22 151/284/22 150/282/22
f 87/148/23 152/286/23 151/284/23
f 88/150/24 153/289/24 152/286/24
f 89/153/25 154/291/25 153/288/25
f 90/155/26 155/293/26 154/291/26
f 91/157/27 156/295/27 155/293/27
f 92/159/28 157/297/28 156/295/28
f 93/161/29 158/299/29 157/297/29
f 94/163/30 159/301/30 158/299/30
f 36/54/31 113/203/31 114/204/31
f 95/165/32 160/303/32 159/301/32
f 96/167/33 129/237/33 160/303/33
f 31/47/34 47/72/34 63/98/34
f 2/2/35 65/103/35 66/105/35
f 6/8/35 65/103/35 4/5/35
f 6/8/35 68/109/35 67/107/35
f 10/14/35 68/109/35 8/11/35
f 10/14/35 70/113/35 69/111/35
f 14/20/35 70/113/35 12/17/35
f 16/23/35 71/115/35 14/20/35
f 18/27/35 72/117/35 16/23/35
f 18/27/35 74/122/35 73/120/35
f 22/33/35 74/122/35 20/30/35
f 22/33/35 76/126/35 75/124/35
f 26/39/35 76/126/35 24/36/35
f 26/39/35 78/130/35 77/128/35
f 30/45/35 78/130/35 28/42/35
f 32/48/35 79/133/35 30/45/35
f 34/52/35 80/135/35 32/48/35
f 34/52/35 82/139/35 81/137/35
f 38/58/35 82/139/35 36/55/35
f 38/58/35 84/143/35 83/141/35
f 42/64/35 84/143/35 40/61/35
f 42/64/35 86/147/35 85/145/35
f 46/70/35 86/147/35 44/67/35
f 48/73/35 87/149/35 46/70/35
f 50/77/35 88/151/35 48/73/35
f 50/77/35 90/156/35 89/154/35
f 54/83/35 90/156/35 52/80/35
f 54/83/35 92/160/35 91/158/35
f 58/89/35 92/160/35 56/86/35
f 58/89/35 94/164/35 93/162/35
f 62/96/35 94/164/35 60/92/35
f 64/99/35 95/166/35 62/96/35
f 2/2/35 96/168/35 64/99/35
f 115/207/35 107/190/35 99/173/35
f 8/12/36 101/178/36 10/15/36
f 62/97/37 128/236/37 64/100/37
f 36/56/38 115/208/38 38/59/38
f 10/15/39 102/180/39 12/18/39
f 2/3/40 128/236/40 98/172/40
f 38/59/41 116/210/41 40/62/41
f 12/18/42 103/182/42 14/21/42
f 40/62/43 117/212/43 42/65/43
f 14/21/44 104/184/44 16/24/44
f 42/65/45 118/214/45 44/68/45
f 16/24/46 105/186/46 18/26/46
f 44/68/47 119/216/47 46/71/47
f 18/28/48 106/189/48 20/31/48
f 46/71/49 120/218/49 48/74/49
f 20/31/50 107/191/50 22/34/50
f 48/74/51 121/220/51 50/76/51
f 22/34/52 108/193/52 24/37/52
f 50/78/53 122/223/53 52/81/53
f 24/37/54 109/195/54 26/40/54
f 52/81/55 123/225/55 54/84/55
f 26/40/56 110/197/56 28/43/56
f 54/84/57 124/227/57 56/87/57
f 28/43/58 111/199/58 30/46/58
f 2/3/59 97/170/59 4/6/59
f 56/87/60 125/229/60 58/90/60
f 30/46/61 112/201/61 32/49/61
f 4/6/62 99/174/62 6/9/62
f 58/90/63 126/231/63 60/93/63
f 32/49/64 113/203/64 34/51/64
f 6/9/65 100/176/65 8/12/65
f 60/93/66 127/234/66 62/95/66
f 161/305/34 130/241/34 162/306/34
f 163/307/34 130/241/34 131/243/34
f 163/307/34 132/245/34 164/308/34
f 164/308/34 133/247/34 165/309/34
f 166/310/34 133/247/34 134/249/34
f 167/311/34 134/249/34 135/251/34
f 167/311/34 136/253/34 168/312/34
f 168/312/34 137/256/34 169/313/34
f 169/313/34 138/258/34 170/314/34
f 171/315/34 138/258/34 139/260/34
f 171/315/34 140/262/34 172/316/34
f 172/316/34 141/264/34 173/317/34
f 174/318/34 141/264/34 142/266/34
f 174/318/34 143/269/34 175/319/34
f 175/319/34 144/271/34 176/320/34
f 176/320/34 145/273/34 177/321/34
f 177/321/34 146/275/34 178/322/34
f 179/323/34 146/275/34 147/277/34
f 180/324/34 147/277/34 148/279/34
f 180/324/34 149/281/34 181/325/34
f 182/326/34 149/281/34 150/283/34
f 183/327/34 150/283/34 151/285/34
f 183/327/34 152/287/34 184/328/34
f 184/328/34 153/290/34 185/329/34
f 185/329/34 154/292/34 186/330/34
f 187/331/34 154/292/34 155/294/34
f 187/331/34 156/296/34 188/332/34
f 188/332/34 157/298/34 189/333/34
f 190/334/34 157/298/34 158/300/34
f 190/334/34 159/302/34 191/335/34
f 191/335/34 160/304/34 192/336/34
f 192/336/34 129/238/34 161/305/34
f 1/1/67 162/306/67 3/4/67
f 5/7/68 162/306/68 163/307/68
f 7/10/69 163/307/69 164/308/69
f 7/10/70 165/309/70 9/13/70
f 9/13/71 166/310/71 11/16/71
f 11/16/72 167/311/72 13/19/72
f 13/19/73 168/312/73 15/22/73
f 17/25/74 168/312/74 169/313/74
f 17/25/75 170/314/75 19/29/75
f 21/32/76 170/314/76 171/315/76
f 23/35/77 171/315/77 172/316/77
f 23/35/78 173/317/78 25/38/78
f 27/41/79 173/317/79 174/318/79
f 27/41/80 175/319/80 29/44/80
f 29/44/81 176/320/81 31/47/81
f 33/50/82 176/320/82 177/321/82
f 33/50/83 178/322/83 35/53/83
f 37/57/84 178/322/84 179/323/84
f 37/57/85 180/324/85 39/60/85
f 39/60/86 181/325/86 41/63/86
f 41/63/87 182/326/87 43/66/87
f 43/66/88 183/327/88 45/69/88
f 45/69/89 184/328/89 47/72/89
f 49/75/90 184/328/90 185/329/90
f 49/75/91 186/330/91 51/79/91
f 53/82/92 186/330/92 187/331/92
f 55/85/93 187/331/93 188/332/93
f 55/85/94 189/333/94 57/88/94
f 59/91/95 189/333/95 190/334/95
f 61/94/96 190/334/96 191/335/96
f 61/94/97 192/336/97 63/98/97
f 1/1/98 192/336/98 161/305/98
f 66/104/1 65/101/1 130/240/1
f 65/102/2 67/106/2 131/242/2
f 67/106/3 68/108/3 132/244/3
f 68/108/4 69/110/4 133/246/4
f 69/110/5 70/112/5 134/248/5
f 70/112/6 71/114/6 135/250/6
f 71/114/7 72/116/7 136/252/7
f 72/116/8 73/118/8 137/255/8
f 73/119/9 74/121/9 138/257/9
f 74/121/10 75/123/10 139/259/10
f 75/123/11 76/125/11 140/261/11
f 76/125/12 77/127/12 141/263/12
f 77/127/13 78/129/13 142/265/13
f 78/129/14 79/131/14 143/268/14
f 79/132/15 80/134/15 144/270/15
f 80/134/16 81/136/16 145/272/16
f 81/136/17 82/138/17 146/274/17
f 82/138/18 83/140/18 147/276/18
f 83/140/19 84/142/19 148/278/19
f 84/142/20 85/144/20 149/280/20
f 85/144/21 86/146/21 150/282/21
f 86/146/22 87/148/22 151/284/22
f 87/148/23 88/150/23 152/286/23
f 88/150/24 89/152/24 153/289/24
f 89/153/25 90/155/25 154/291/25
f 90/155/26 91/157/26 155/293/26
f 91/157/27 92/159/27 156/295/27
f 92/159/28 93/161/28 157/297/28
f 93/161/29 94/163/29 158/299/29
f 94/163/30 95/165/30 159/301/30
f 36/54/31 34/51/31 113/203/31
f 95/165/32 96/167/32 160/303/32
f 96/167/33 66/104/33 129/237/33
f 63/98/34 1/1/34 3/4/34
f 3/4/34 5/7/34 7/10/34
f 7/10/34 9/13/34 11/16/34
f 11/16/34 13/19/34 15/22/34
f 15/22/34 17/25/34 19/29/34
f 19/29/34 21/32/34 23/35/34
f 23/35/34 25/38/34 27/41/34
f 27/41/34 29/44/34 31/47/34
f 31/47/34 33/50/34 35/53/34
f 35/53/34 37/57/34 39/60/34
f 39/60/34 41/63/34 43/66/34
f 43/66/34 45/69/34 47/72/34
f 47/72/34 49/75/34 51/79/34
f 51/79/34 53/82/34 55/85/34
f 55/85/34 57/88/34 59/91/34
f 59/91/34 61/94/34 63/98/34
f 63/98/34 3/4/34 7/10/34
f 7/10/34 11/16/34 15/22/34
f 15/22/34 19/29/34 23/35/34
f 23/35/34 27/41/34 31/47/34
f 31/47/34 35/53/34 39/60/34
f 39/60/34 43/66/34 47/72/34
f 47/72/34 51/79/34 55/85/34
f 55/85/34 59/91/34 63/98/34
f 63/98/34 7/10/34 15/22/34
f 15/22/34 23/35/34 31/47/34
f 31/47/34 39/60/34 47/72/34
f 47/72/34 55/85/34 63/98/34
f 63/98/34 15/22/34 31/47/34
f 2/2/35 4/5/35 65/103/35
f 6/8/35 67/107/35 65/103/35
f 6/8/35 8/11/35 68/109/35
f 10/14/35 69/111/35 68/109/35
f 10/14/35 12/17/35 70/113/35
f 14/20/35 71/115/35 70/113/35
f 16/23/35 72/117/35 71/115/35
f 18/27/35 73/120/35 72/117/35
f 18/27/35 20/30/35 74/122/35
f 22/33/35 75/124/35 74/122/35
f 22/33/35 24/36/35 76/126/35
f 26/39/35 77/128/35 76/126/35
f 26/39/35 28/42/35 78/130/35
f 30/45/35 79/133/35 78/130/35
f 32/48/35 80/135/35 79/133/35
f 34/52/35 81/137/35 80/135/35
f 34/52/35 36/55/35 82/139/35
f 38/58/35 83/141/35 82/139/35
f 38/58/35 40/61/35 84/143/35
f 42/64/35 85/145/35 84/143/35
f 42/64/35 44/67/35 86/147/35
f 46/70/35 87/149/35 86/147/35
f 48/73/35 88/151/35 87/149/35
f 50/77/35 89/154/35 88/151/35
f 50/77/35 52/80/35 90/156/35
f 54/83/35 91/158/35 90/156/35
f 54/83/35 56/86/35 92/160/35
f 58/89/35 93/162/35 92/160/35
f 58/89/35 60/92/35 94/164/35
f 62/96/35 95/166/35 94/164/35
f 64/99/35 96/168/35 95/166/35
f 2/2/35 66/105/35 96/168/35
f 99/173/35 97/169/35 98/171/35
f 98/171/35 128/235/35 127/232/35
f 127/232/35 126/230/35 125/228/35
f 125/228/35 124/226/35 123/224/35
f 123/224/35 122/222/35 121/219/35
f 121/219/35 120/217/35 119/215/35
f 119/215/35 118/213/35 117/211/35
f 117/211/35 116/209/35 115/207/35
f 115/207/35 114/205/35 113/202/35
f 113/202/35 112/200/35 111/198/35
f 111/198/35 110/196/35 109/194/35
f 109/194/35 108/192/35 107/190/35
f 107/190/35 106/188/35 105/185/35
f 105/185/35 104/183/35 103/181/35
f 103/181/35 102/179/35 101/177/35
f 101/177/35 100/175/35 99/173/35
f 99/173/35 98/171/35 127/232/35
f 127/232/35 125/228/35 123/224/35
f 123/224/35 121/219/35 119/215/35
f 119/215/35 117/211/35 115/207/35
f 115/207/35 113/202/35 111/198/35
f 111/198/35 109/194/35 107/190/35
f 107/190/35 105/185/35 103/181/35
f 103/181/35 101/177/35 99/173/35
f 99/173/35 127/232/35 123/224/35
f 123/224/35 119/215/35 115/207/35
f 115/207/35 111/198/35 107/190/35
f 107/190/35 103/181/35 99/173/35
f 99/173/35 123/224/35 115/207/35
f 8/12/36 100/176/36 101/178/36
f 62/97/37 127/233/37 128/236/37
f 36/56/38 114/206/38 115/208/38
f 10/15/39 101/178/39 102/180/39
f 2/3/40 64/100/40 128/236/40
f 38/59/41 115/208/41 116/210/41
f 12/18/42 102/180/42 103/182/42
f 40/62/43 116/210/43 117/212/43
f 14/21/44 103/182/44 104/184/44
f 42/65/45 117/212/45 118/214/45
f 16/24/46 104/184/46 105/186/46
f 44/68/47 118/214/47 119/216/47
f 18/28/48 105/187/48 106/189/48
f 46/71/49 119/216/49 120/218/49
f 20/31/50 106/189/50 107/191/50
f 48/74/51 120/218/51 121/220/51
f 22/34/52 107/191/52 108/193/52
f 50/78/53 121/221/53 122/223/53
f 24/37/54 108/193/54 109/195/54
f 52/81/55 122/223/55 123/225/55
f 26/40/56 109/195/56 110/197/56
f 54/84/57 123/225/57 124/227/57
f 28/43/58 110/197/58 111/199/58
f 2/3/59 98/172/59 97/170/59
f 56/87/60 124/227/60 125/229/60
f 30/46/61 111/199/61 112/201/61
f 4/6/62 97/170/62 99/174/62
f 58/90/63 125/229/63 126/231/63
f 32/49/64 112/201/64 113/203/64
f 6/9/65 99/174/65 100/176/65
f 60/93/66 126/231/66 127/234/66
f 161/305/34 129/238/34 130/241/34
f 163/307/34 162/306/34 130/241/34
f 163/307/34 131/243/34 132/245/34
f 164/308/34 132/245/34 133/247/34
f 166/310/34 165/309/34 133/247/34
f 167/311/34 166/310/34 134/249/34
f 167/311/34 135/251/34 136/253/34
f 168/312/34 136/253/34 137/256/34
f 169/313/34 137/256/34 138/258/34
f 171/315/34 170/314/34 138/258/34
f 171/315/34 139/260/34 140/262/34
f 172/316/34 140/262/34 141/264/34
f 174/318/34 173/317/34 141/264/34
f 174/318/34 142/266/34 143/269/34
f 175/319/34 143/269/34 144/271/34
f 176/320/34 144/271/34 145/273/34
f 177/321/34 145/273/34 146/275/34
f 179/323/34 178/322/34 146/275/34
f 180/324/34 179/323/34 147/277/34
f 180/324/34 148/279/34 149/281/34
f 182/326/34 181/325/34 149/281/34
f 183/327/34 182/326/34 150/283/34
f 183/327/34 151/285/34 152/287/34
f 184/328/34 152/287/34 153/290/34
f 185/329/34 153/290/34 154/292/34
f 187/331/34 186/330/34 154/292/34
f 187/331/34 155/294/34 156/296/34
f 188/332/34 156/296/34 157/298/34
f 190/334/34 189/333/34 157/298/34
f 190/334/34 158/300/34 159/302/34
f 191/335/34 159/302/34 160/304/34
f 192/336/34 160/304/34 129/238/34
f 1/1/67 161/305/67 162/306/67
f 5/7/68 3/4/68 162/306/68
f 7/10/69 5/7/69 163/307/69
f 7/10/70 164/308/70 165/309/70
f 9/13/71 165/309/71 166/310/71
f 11/16/72 166/310/72 167/311/72
f 13/19/73 167/311/73 168/312/73
f 17/25/74 15/22/74 168/312/74
f 17/25/75 169/313/75 170/314/75
f 21/32/76 19/29/76 170/314/76
f 23/35/77 21/32/77 171/315/77
f 23/35/78 172/316/78 173/317/78
f 27/41/79 25/38/79 173/317/79
f 27/41/80 174/318/80 175/319/80
f 29/44/81 175/319/81 176/320/81
f 33/50/82 31/47/82 176/320/82
f 33/50/83 177/321/83 178/322/83
f 37/57/84 35/53/84 178/322/84
f 37/57/85 179/323/85 180/324/85
f 39/60/86 180/324/86 181/325/86
f 41/63/87 181/325/87 182/326/87
f 43/66/88 182/326/88 183/327/88
f 45/69/89 183/327/89 184/328/89
f 49/75/90 47/72/90 184/328/90
f 49/75/91 185/329/91 186/330/91
f 53/82/92 51/79/92 186/330/92
f 55/85/93 53/82/93 187/331/93
f 55/85/94 188/332/94 189/333/94
f 59/91/95 57/88/95 189/333/95
f 61/94/96 59/91/96 190/334/96
f 61/94/97 191/335/97 192/336/97
f 1/1/98 63/98/98 192/336/98
