# Blender 3.3.1
# www.blender.org
o mixer
v -0.989938 0.265523 -2.426100
v -0.989938 -0.020561 -2.426100
v 0.989938 0.265523 -2.426100
v 0.989938 -0.020561 -2.426100
v -0.989938 0.265523 -0.932362
v -0.989938 -0.020561 -0.932362
v 0.989938 0.265523 -0.932362
v 0.989938 -0.020561 -0.932362
v 0.989938 4.974021 -2.346933
v -0.989938 4.974021 -2.346933
v 0.101433 4.974022 -0.259587
v -0.101433 4.974022 -0.259587
v 0.989938 5.917417 -2.346933
v -0.989938 5.917417 -2.346933
v 0.989938 5.917417 -1.286845
v -0.989938 5.917417 -1.286845
v 0.101433 4.974022 -0.056721
v -0.101433 4.974022 -0.056721
v 0.989938 4.974021 -1.286845
v -0.989938 4.974021 -1.286845
v 0.000000 4.974022 -0.301602
v -0.000000 4.974022 -0.014706
v 0.143448 4.974022 -0.158154
v -0.143448 4.974022 -0.158154
v 0.000000 2.535130 -0.301602
v -0.054895 4.974022 -0.290683
v -0.054895 4.974022 -0.025625
v 0.132529 4.974022 -0.103259
v -0.132529 4.974022 -0.213049
v 0.054895 4.974022 -0.290683
v 0.054895 4.974022 -0.025625
v 0.132529 4.974022 -0.213049
v -0.132529 4.974022 -0.103259
v 0.054895 2.535130 -0.290683
v -0.132529 2.535130 -0.213049
v 0.101433 2.535130 -0.056721
v 0.132529 2.535130 -0.103259
v -0.101433 2.535130 -0.056721
v -0.054895 2.535130 -0.025625
v -0.101433 2.535130 -0.259587
v -0.054895 2.535130 -0.290683
v -0.054895 2.658531 -0.290683
v -0.101433 2.658531 -0.259587
v -0.054895 2.658531 -0.025625
v -0.101433 2.658531 -0.056721
v 0.132529 2.658531 -0.103259
v 0.101433 2.658531 -0.056721
v -0.132529 2.658531 -0.213049
v 0.054895 2.658531 -0.290683
v 0.000000 2.658531 -0.301602
v 0.054895 2.658531 -0.025625
v -0.000000 2.658531 -0.014706
v 0.132529 2.658531 -0.213049
v 0.143448 2.658531 -0.158154
v -0.132529 2.658531 -0.103259
v -0.143448 2.658531 -0.158154
v 0.285372 2.658531 0.128374
v 0.604401 2.535130 0.149845
v 0.424858 2.535130 0.229874
v 0.424858 2.658531 0.229874
v 0.604401 2.658531 0.149845
v 0.101433 2.658531 -0.259587
v 0.539915 2.658531 0.251278
v 0.593482 2.658531 0.204740
v 0.539915 2.535130 0.251278
v 0.593482 2.535130 0.204740
v 0.054895 2.535130 -0.025625
v -0.000000 2.535130 -0.014706
v 0.132529 2.535130 -0.213049
v 0.143448 2.535130 -0.158154
v -0.132529 2.535130 -0.103259
v -0.143448 2.535130 -0.158154
v 0.000000 2.535130 -0.084937
v 0.000000 2.535130 -0.231371
v 0.000000 2.535130 -0.158154
v 0.048660 2.535130 -0.158154
v -0.048660 2.535130 -0.158154
v 0.101433 2.535130 -0.259587
v -0.048660 2.535130 -0.231371
v 0.048660 2.535130 -0.231371
v 0.048660 2.535130 -0.084937
v -0.048660 2.535130 -0.084937
v 0.331910 2.658531 0.097279
v 0.363005 2.535130 0.050741
v 0.425354 2.535130 0.028895
v 0.363005 2.658531 0.050741
v 0.285372 2.535130 0.128374
v 0.331910 2.535130 0.097279
v 0.425354 2.658531 0.028895
v 0.552459 2.535130 -0.166654
v 0.552459 2.658531 -0.166654
v 0.402997 2.535130 -0.294462
v 0.402997 2.658531 -0.294462
v 0.465902 2.658531 -0.100212
v 0.607953 2.658531 -0.008404
v 0.607953 2.535130 -0.008404
v 0.465902 2.535130 -0.100212
v 0.539915 2.658531 0.251278
v 0.539915 2.535130 0.251278
v -0.527624 2.535130 -0.477044
v -0.473334 2.535130 -0.505508
v -0.333449 2.535130 -0.480637
v -0.333449 2.658531 -0.480637
v -0.473334 2.658531 -0.505508
v -0.527624 2.658531 -0.477044
v -0.566399 2.658531 -0.422148
v -0.566399 2.535130 -0.422148
v -0.330076 2.658531 -0.345046
v -0.369291 2.658531 -0.296500
v -0.298981 2.535130 -0.391584
v -0.330076 2.535130 -0.345046
v -0.369291 2.535130 -0.296500
v -0.298981 2.658531 -0.391584
v -0.252443 2.658531 -0.422680
v -0.252443 2.535130 -0.422680
v -0.339261 2.658531 0.011755
v -0.546387 2.658531 -0.139083
v -0.546387 2.535130 -0.139083
v -0.339261 2.535130 0.011755
v -0.452947 2.535130 -0.205786
v -0.452947 2.658531 -0.205786
v -0.583262 2.658531 -0.299892
v -0.583262 2.535130 -0.299892
v 0.000000 0.265523 0.989938
v -0.989938 0.265523 0.000000
v -0.193127 0.265523 0.970916
v -0.378833 0.265523 0.914583
v -0.549980 0.265523 0.823103
v -0.699992 0.265523 0.699992
v -0.823103 0.265523 0.549980
v -0.914583 0.265523 0.378833
v -0.970916 0.265523 0.193127
v -0.989938 -0.020561 0.000000
v 0.000000 -0.020561 0.989938
v -0.970916 -0.020561 0.193127
v -0.914583 -0.020561 0.378833
v -0.823103 -0.020561 0.549980
v -0.699992 -0.020561 0.699992
v -0.549980 -0.020561 0.823103
v -0.378833 -0.020561 0.914583
v -0.193127 -0.020561 0.970916
v 0.989938 0.265523 0.000000
v 0.000000 0.265523 0.989938
v 0.970916 0.265523 0.193127
v 0.914583 0.265523 0.378833
v 0.823103 0.265523 0.549980
v 0.699992 0.265523 0.699992
v 0.549980 0.265523 0.823103
v 0.378833 0.265523 0.914583
v 0.193127 0.265523 0.970916
v 0.000000 -0.020561 0.989938
v 0.989938 -0.020561 0.000000
v 0.193127 -0.020561 0.970916
v 0.378833 -0.020561 0.914583
v 0.549980 -0.020561 0.823103
v 0.699992 -0.020561 0.699992
v 0.823103 -0.020561 0.549980
v 0.914583 -0.020561 0.378833
v 0.970916 -0.020561 0.193127
v 0.989938 5.917417 -0.019401
v 0.000000 5.917417 0.970537
v 0.970916 5.917417 0.173726
v 0.914583 5.917417 0.359432
v 0.823103 5.917417 0.530579
v 0.699992 5.917417 0.680591
v 0.549980 5.917417 0.803702
v 0.378833 5.917417 0.895182
v 0.193127 5.917417 0.951515
v 0.000000 5.917417 0.970537
v -0.989938 5.917417 -0.019401
v -0.193127 5.917417 0.951515
v -0.378833 5.917417 0.895182
v -0.549980 5.917417 0.803702
v -0.699992 5.917417 0.680591
v -0.823103 5.917417 0.530579
v -0.914583 5.917417 0.359432
v -0.970916 5.917417 0.173726
v 0.000000 4.974021 0.970537
v 0.989938 4.974021 -0.019401
v 0.342341 4.974022 0.221808
v 0.193127 4.974021 0.951515
v 0.378833 4.974021 0.895182
v 0.549980 4.974021 0.803702
v 0.699992 4.974021 0.680591
v 0.823103 4.974021 0.530579
v 0.914583 4.974021 0.359432
v 0.970916 4.974021 0.173726
v -0.989938 4.974021 -0.019401
v 0.000000 4.974021 0.970537
v -0.342341 4.974022 0.221808
v -0.970916 4.974021 0.173726
v -0.914583 4.974021 0.359432
v -0.823103 4.974021 0.530579
v -0.699992 4.974021 0.680591
v -0.549980 4.974021 0.803702
v -0.378833 4.974021 0.895182
v -0.193127 4.974021 0.951515
vn -1.0000 -0.0000 -0.0000
vn -0.0000 -0.0000 -1.0000
vn -0.0000 1.0000 -0.0000
vn -0.0000 -1.0000 -0.0000
vn 1.0000 -0.0000 -0.0000
vn -0.0000 0.0751 0.9972
vn -0.0000 0.0168 -0.9999
vn -0.9808 -0.0000 -0.1951
vn -0.9808 -0.0000 0.1951
vn 0.9808 -0.0000 0.1951
vn -0.8315 -0.0000 -0.5556
vn 0.9808 -0.0000 -0.1951
vn -0.1951 -0.0000 0.9808
vn 0.8315 -0.0000 0.5556
vn 0.1951 -0.0000 0.9808
vn -0.1951 -0.0000 -0.9808
vn -0.5556 -0.0000 0.8315
vn -0.8315 -0.0000 0.5556
vn 0.1951 -0.0000 -0.9808
vn -0.5556 -0.0000 -0.8315
vn 0.8315 -0.0000 -0.5556
vn 0.5556 -0.0000 0.8315
vn 0.5556 -0.0000 -0.8315
vn 0.8863 -0.0000 -0.4632
vn -0.1829 -0.0000 0.9831
vn 0.6558 -0.0000 0.7549
vn -0.5884 -0.0000 0.8086
vn 0.5529 -0.0000 -0.8333
vn 0.6499 -0.0000 -0.7600
vn 0.9437 -0.0000 -0.3309
vn -0.9514 -0.0000 0.3081
vn -0.9541 -0.0000 -0.2996
vn 0.9997 -0.0000 0.0224
vn -0.4643 -0.0000 -0.8857
vn -0.8168 -0.0000 -0.5769
vn 0.1750 -0.0000 -0.9846
vn 0.5819 -0.0000 -0.8133
vn -0.5224 -0.0000 0.8527
vn -0.5887 -0.0000 0.8084
vn -0.9747 -0.0000 0.2235
vn -0.9906 -0.0000 -0.1366
vn 0.7351 -0.0000 0.6779
vn -0.0980 -0.0000 0.9952
vn -0.2903 -0.0000 0.9569
vn -0.4714 -0.0000 0.8819
vn -0.6344 -0.0000 0.7730
vn -0.7730 -0.0000 0.6344
vn -0.8819 -0.0000 0.4714
vn -0.9569 -0.0000 0.2903
vn -0.9952 -0.0000 0.0980
vn 0.0980 -0.0000 0.9952
vn 0.2903 -0.0000 0.9569
vn 0.4714 -0.0000 0.8819
vn 0.6344 -0.0000 0.7730
vn 0.7730 -0.0000 0.6344
vn 0.8819 -0.0000 0.4714
vn 0.9569 -0.0000 0.2903
vn 0.9952 -0.0000 0.0980
vt 0.168972 0.051307
vt 0.003460 0.948692
vt 0.003460 0.996536
vt 0.168969 0.003462
vt 0.336138 0.086011
vt 0.216791 0.051305
vt 0.162042 0.948692
vt 0.383984 0.086011
vt 0.216788 0.003460
vt 0.162042 0.996536
vt 0.449146 0.064930
vt 0.271519 0.003479
vt 0.039321 0.948692
vt 0.336138 0.049913
vt 0.039321 0.996536
vt 0.223711 0.003460
vt 0.449146 0.112775
vt 0.125998 0.948692
vt 0.383984 0.049913
vt 0.125998 0.996536
vt 0.160132 0.161236
vt 0.216781 0.838763
vt 0.168962 0.838765
vt 0.005360 0.161236
vt 0.317405 0.411346
vt 0.429066 0.033186
vt 0.329219 0.003460
vt 0.390903 0.003460
vt 0.424164 0.033186
vt 0.312505 0.411346
vt 0.336138 0.173099
vt 0.216791 0.996538
vt 0.160132 0.003460
vt 0.383984 0.173099
vt 0.005360 0.003460
vt 0.168972 0.996540
vt 0.134552 0.003460
vt 0.336138 0.147481
vt 0.030810 0.003460
vt 0.383984 0.147481
vt 0.324324 0.003460
vt 0.429066 0.028284
vt 0.290566 0.411348
vt 0.295465 0.411348
vt 0.424164 0.028284
vt 0.395773 0.003460
vt 0.223711 0.790922
vt 0.134552 0.161236
vt 0.450538 0.058011
vt 0.271519 0.790941
vt 0.030810 0.161236
vt 0.402692 0.058011
vt 0.426615 0.034202
vt 0.314988 0.411345
vt 0.426615 0.027269
vt 0.292976 0.411348
vt 0.430082 0.030735
vt 0.326827 0.003460
vt 0.393222 0.003460
vt 0.423149 0.030735
vt 0.314988 0.003462
vt 0.405200 0.133656
vt 0.425288 0.033938
vt 0.313654 0.411346
vt 0.425288 0.027533
vt 0.294312 0.411348
vt 0.429818 0.029409
vt 0.325488 0.003460
vt 0.423412 0.032062
vt 0.391934 0.003460
vt 0.427942 0.033938
vt 0.316306 0.411346
vt 0.427942 0.027533
vt 0.291661 0.411348
vt 0.429818 0.032062
vt 0.328137 0.003460
vt 0.423412 0.029409
vt 0.394570 0.003460
vt 0.316306 0.003462
vt 0.405089 0.135004
vt 0.408137 0.131163
vt 0.410217 0.137637
vt 0.408930 0.138051
vt 0.395773 0.411343
vt 0.295465 0.003464
vt 0.411563 0.132923
vt 0.294312 0.003464
vt 0.411977 0.134211
vt 0.406849 0.131577
vt 0.313654 0.003462
vt 0.405818 0.132452
vt 0.346048 0.411487
vt 0.313654 0.024099
vt 0.390903 0.390705
vt 0.312505 0.024099
vt 0.344794 0.410981
vt 0.294312 0.024101
vt 0.295465 0.024101
vt 0.395773 0.390705
vt 0.325488 0.390705
vt 0.410209 0.308907
vt 0.324324 0.390705
vt 0.290566 0.024101
vt 0.411561 0.308886
vt 0.391934 0.390705
vt 0.343441 0.410994
vt 0.316306 0.024099
vt 0.314988 0.024099
vt 0.412818 0.309384
vt 0.291661 0.024101
vt 0.292976 0.024101
vt 0.328137 0.390705
vt 0.409353 0.267956
vt 0.326827 0.390705
vt 0.408967 0.309443
vt 0.394570 0.390705
vt 0.408276 0.316364
vt 0.393222 0.390705
vt 0.342197 0.411523
vt 0.285951 0.024099
vt 0.412716 0.302686
vt 0.404031 0.178362
vt 0.411681 0.150695
vt 0.414732 0.147054
vt 0.282487 0.003460
vt 0.412818 0.298519
vt 0.282487 0.024097
vt 0.408762 0.296048
vt 0.404031 0.157724
vt 0.317405 0.024099
vt 0.329219 0.390705
vt 0.411664 0.295937
vt 0.279688 0.024097
vt 0.402692 0.157724
vt 0.278439 0.024097
vt 0.410003 0.295511
vt 0.279688 0.003460
vt 0.414466 0.149869
vt 0.413029 0.150805
vt 0.278439 0.003460
vt 0.402692 0.178362
vt 0.291661 0.003464
vt 0.411249 0.136762
vt 0.292976 0.003464
vt 0.411866 0.135559
vt 0.328137 0.411343
vt 0.406378 0.137323
vt 0.326827 0.411343
vt 0.409353 0.288593
vt 0.407582 0.137941
vt 0.394570 0.411343
vt 0.410688 0.131892
vt 0.393222 0.411343
vt 0.409485 0.131274
vt 0.408276 0.337002
vt 0.410234 0.135093
vt 0.406832 0.134122
vt 0.408533 0.134607
vt 0.408210 0.135738
vt 0.408856 0.133476
vt 0.329219 0.411343
vt 0.317405 0.003462
vt 0.405503 0.136291
vt 0.407155 0.132991
vt 0.406509 0.135252
vt 0.409912 0.136224
vt 0.410557 0.133962
vt 0.411458 0.302188
vt 0.410979 0.144428
vt 0.402692 0.288591
vt 0.410517 0.233477
vt 0.410058 0.145732
vt 0.410106 0.302209
vt 0.285951 0.003462
vt 0.413298 0.143139
vt 0.412267 0.144014
vt 0.410517 0.212839
vt 0.402692 0.267954
vt 0.408815 0.301269
vt 0.402692 0.392118
vt 0.411600 0.178362
vt 0.404671 0.147389
vt 0.403181 0.301427
vt 0.402692 0.371481
vt 0.411600 0.157724
vt 0.402692 0.143068
vt 0.406201 0.392118
vt 0.402692 0.233477
vt 0.406201 0.371481
vt 0.402692 0.306154
vt 0.402692 0.212839
vt 0.407530 0.212839
vt 0.405691 0.302236
vt 0.407855 0.157724
vt 0.405566 0.298150
vt 0.407980 0.149728
vt 0.407855 0.178362
vt 0.406789 0.145818
vt 0.407530 0.233477
vt 0.302384 0.003460
vt 0.402692 0.205919
vt 0.404623 0.120231
vt 0.403601 0.121304
vt 0.303718 0.003460
vt 0.307077 0.003460
vt 0.403251 0.124720
vt 0.346048 0.403339
vt 0.307077 0.024097
vt 0.303718 0.024097
vt 0.344640 0.400207
vt 0.402692 0.185282
vt 0.302384 0.024097
vt 0.343333 0.399511
vt 0.341709 0.399484
vt 0.403903 0.185282
vt 0.403903 0.205919
vt 0.406156 0.119694
vt 0.343387 0.405252
vt 0.410091 0.240396
vt 0.402692 0.316362
vt 0.341884 0.405130
vt 0.405092 0.126111
vt 0.406380 0.125697
vt 0.402692 0.337000
vt 0.407768 0.125108
vt 0.410091 0.261034
vt 0.344740 0.405240
vt 0.308987 0.024097
vt 0.345994 0.405745
vt 0.404061 0.126986
vt 0.308987 0.003460
vt 0.407836 0.343924
vt 0.402692 0.240396
vt 0.336139 0.409927
vt 0.402692 0.343922
vt 0.336330 0.403738
vt 0.410754 0.185282
vt 0.402692 0.364559
vt 0.412601 0.122037
vt 0.410754 0.205919
vt 0.414732 0.127851
vt 0.402692 0.261034
vt 0.407836 0.364561
vt 0.410431 0.123766
vt 0.407792 0.261034
vt 0.338934 0.404695
vt 0.407792 0.240396
vt 0.406792 0.185282
vt 0.339039 0.400812
vt 0.406792 0.205919
vt 0.409108 0.120113
vt 0.383783 0.186937
vt 0.353314 0.344720
vt 0.402692 0.088853
vt 0.061704 0.948692
vt 0.426615 0.064930
vt 0.403152 0.084186
vt 0.348633 0.344720
vt 0.404513 0.079698
vt 0.344096 0.344719
vt 0.406724 0.075562
vt 0.339877 0.344718
vt 0.079310 0.948692
vt 0.409699 0.071937
vt 0.336139 0.344716
vt 0.413324 0.068962
vt 0.075369 0.948692
vt 0.417460 0.066751
vt 0.071007 0.948692
vt 0.421948 0.065390
vt 0.066393 0.948692
vt 0.336138 0.027382
vt 0.061704 0.996536
vt 0.360061 0.003460
vt 0.383783 0.186937
vt 0.353314 0.392565
vt 0.336598 0.022715
vt 0.066393 0.996536
vt 0.337960 0.018227
vt 0.071007 0.996536
vt 0.340170 0.014091
vt 0.075369 0.996536
vt 0.343145 0.010466
vt 0.336139 0.392561
vt 0.079310 0.996536
vt 0.346770 0.007491
vt 0.339877 0.392563
vt 0.350906 0.005281
vt 0.344096 0.392564
vt 0.355394 0.003919
vt 0.348633 0.392565
vt 0.426615 0.112775
vt 0.103501 0.948692
vt 0.402692 0.088853
vt 0.383783 0.186937
vt 0.376864 0.392562
vt 0.421948 0.112316
vt 0.098815 0.948692
vt 0.417460 0.110954
vt 0.094260 0.948692
vt 0.413324 0.108744
vt 0.090010 0.948692
vt 0.409699 0.105768
vt 0.360234 0.392567
vt 0.086229 0.948692
vt 0.406724 0.102143
vt 0.363740 0.392565
vt 0.404513 0.098007
vt 0.367787 0.392563
vt 0.403152 0.093520
vt 0.372218 0.392562
vt 0.376864 0.344717
vt 0.360061 0.003460
vt 0.383783 0.186937
vt 0.383984 0.027382
vt 0.103501 0.996536
vt 0.364728 0.003919
vt 0.372218 0.344717
vt 0.369216 0.005281
vt 0.367787 0.344718
vt 0.373352 0.007491
vt 0.363740 0.344720
vt 0.086229 0.996536
vt 0.376977 0.010466
vt 0.360234 0.344721
vt 0.379952 0.014091
vt 0.090010 0.996536
vt 0.382163 0.018227
vt 0.094260 0.996536
vt 0.383524 0.022715
vt 0.098815 0.996536
vt 0.103969 0.003460
vt 0.336138 0.116852
vt 0.383783 0.180018
vt 0.376864 0.337795
vt 0.360061 0.092930
vt 0.099284 0.003460
vt 0.336598 0.112185
vt 0.094729 0.003460
vt 0.337960 0.107698
vt 0.090479 0.003460
vt 0.340170 0.103562
vt 0.360234 0.337799
vt 0.086697 0.003460
vt 0.343145 0.099937
vt 0.363740 0.337795
vt 0.346770 0.096961
vt 0.367787 0.337795
vt 0.350906 0.094751
vt 0.372218 0.337795
vt 0.355394 0.093390
vt 0.353314 0.180023
vt 0.383783 0.180018
vt 0.360061 0.092930
vt 0.061239 0.003460
vt 0.383984 0.116852
vt 0.348633 0.180023
vt 0.364728 0.093390
vt 0.344096 0.180023
vt 0.369216 0.094751
vt 0.339877 0.180019
vt 0.373352 0.096961
vt 0.078844 0.003460
vt 0.336138 0.180019
vt 0.376977 0.099937
vt 0.074903 0.003460
vt 0.379952 0.103562
vt 0.070542 0.003460
vt 0.382163 0.107698
vt 0.065928 0.003460
vt 0.383524 0.112185
vt 0.426615 0.003460
vt 0.383783 0.180018
vt 0.376864 0.180019
vt 0.450538 0.027382
vt 0.103969 0.161236
vt 0.434888 0.021553
vt 0.431282 0.003919
vt 0.372218 0.180019
vt 0.435770 0.005281
vt 0.367787 0.180019
vt 0.439906 0.007491
vt 0.363740 0.180023
vt 0.443531 0.010466
vt 0.086697 0.161236
vt 0.360234 0.180023
vt 0.446506 0.014091
vt 0.090479 0.161236
vt 0.448717 0.018227
vt 0.094729 0.161236
vt 0.450078 0.022715
vt 0.099284 0.161236
vt 0.402692 0.027382
vt 0.061239 0.161236
vt 0.426615 0.003460
vt 0.383783 0.180018
vt 0.353314 0.337799
vt 0.418342 0.021553
vt 0.403152 0.022715
vt 0.065928 0.161236
vt 0.404513 0.018227
vt 0.070542 0.161236
vt 0.406724 0.014091
vt 0.074903 0.161236
vt 0.409699 0.010466
vt 0.336138 0.337795
vt 0.078844 0.161236
vt 0.413324 0.007491
vt 0.339877 0.337795
vt 0.417460 0.005281
vt 0.344096 0.337795
vt 0.421948 0.003919
vt 0.348633 0.337799
s 0
f 6/15/1 5/13/1 1/2/1
f 2/4/2 1/1/2 3/6/2
f 144/297/3 131/268/3 127/259/3
f 135/277/4 158/328/4 154/319/4
f 8/20/5 7/18/5 142/293/5
f 2/5/4 4/8/4 8/19/4
f 5/12/6 7/16/6 19/47/6
f 4/10/5 3/7/5 7/18/5
f 143/295/4 124/252/4 134/275/4
f 10/24/1 20/51/1 16/39/1
f 3/6/7 1/1/7 10/23/7
f 3/7/5 9/21/5 19/48/5
f 1/2/1 5/13/1 20/51/1
f 13/31/3 14/34/3 16/40/3
f 9/22/2 10/23/2 14/36/2
f 16/39/1 20/51/1 188/394/1
f 19/48/5 9/21/5 13/33/5
f 19/48/5 15/37/5 160/332/5
f 27/65/4 178/372/4 190/398/4
f 178/373/4 161/334/4 169/353/4
f 24/59/8 29/70/8 48/105/8
f 30/71/4 20/52/4 11/26/4
f 28/67/4 19/49/4 180/377/4
f 29/69/4 190/398/4 20/52/4
f 33/78/9 24/59/9 56/118/9
f 23/58/10 28/68/10 46/100/10
f 29/70/11 12/28/11 43/94/11
f 32/76/12 23/58/12 54/114/12
f 22/56/13 27/66/13 44/97/13
f 28/68/14 17/41/14 47/102/14
f 31/74/15 22/56/15 52/111/15
f 26/64/16 21/54/16 50/108/16
f 27/66/17 18/44/17 45/98/17
f 18/46/18 33/78/18 55/116/18
f 21/54/19 30/72/19 49/107/19
f 12/30/20 26/64/20 42/93/20
f 11/27/21 32/76/21 53/112/21
f 17/43/22 31/74/22 51/110/22
f 30/72/23 11/25/23 62/130/23
f 51/110/15 52/111/15 68/144/15
f 42/93/16 50/108/16 25/61/16
f 45/99/18 55/116/18 71/151/18
f 50/108/19 49/107/19 34/79/19
f 62/131/21 53/112/21 69/146/21
f 120/245/24 121/247/24 116/233/24
f 86/173/3 83/168/3 63/132/3
f 85/172/4 58/123/4 66/139/4
f 49/107/23 62/130/23 78/162/23
f 44/97/17 45/98/17 38/85/17
f 111/223/4 100/202/4 101/203/4
f 109/221/3 108/218/3 105/213/3
f 55/116/9 56/118/9 72/153/9
f 83/168/3 57/121/3 60/126/3
f 53/112/12 54/114/12 70/148/12
f 52/111/13 44/97/13 39/87/13
f 82/167/4 39/88/4 38/86/4
f 73/156/4 81/166/4 67/143/4
f 74/157/4 80/165/4 76/159/4
f 35/81/4 79/164/4 77/160/4
f 79/164/4 74/157/4 75/158/4
f 41/91/4 25/62/4 74/157/4
f 40/89/4 41/91/4 79/164/4
f 69/147/4 70/150/4 76/159/4
f 78/163/4 69/147/4 80/165/4
f 34/80/4 80/165/4 74/157/4
f 81/166/4 37/83/4 36/82/4
f 76/159/4 70/150/4 37/83/4
f 75/158/4 76/159/4 81/166/4
f 73/156/4 68/145/4 39/88/4
f 77/160/4 75/158/4 73/156/4
f 77/160/4 82/167/4 71/152/4
f 63/133/25 60/127/25 59/125/25
f 64/135/26 63/133/26 65/137/26
f 61/129/10 64/134/10 66/141/10
f 88/176/4 65/138/4 59/124/4
f 94/193/3 95/195/3 91/183/3
f 57/120/27 87/174/27 59/125/27
f 84/169/4 66/139/4 65/138/4
f 89/179/3 86/173/3 64/136/3
f 54/115/3 46/101/3 86/173/3
f 36/82/4 37/83/4 84/169/4
f 51/110/17 67/142/17 87/174/17
f 70/149/28 54/113/28 89/178/28
f 36/82/4 88/176/4 87/175/4
f 47/104/3 51/109/3 57/121/3
f 70/150/4 85/172/4 84/169/4
f 47/104/3 83/168/3 86/173/3
f 92/187/29 93/189/29 91/184/29
f 95/194/30 96/197/30 90/181/30
f 97/198/4 92/186/4 90/182/4
f 97/199/31 94/192/31 93/191/31
f 85/171/32 89/177/32 94/192/32
f 85/172/4 97/198/4 96/196/4
f 61/129/33 58/122/33 96/197/33
f 89/179/3 61/128/3 95/195/3
f 105/212/34 104/209/34 101/204/34
f 106/215/35 105/211/35 100/201/35
f 104/209/36 103/208/36 102/205/36
f 113/227/3 114/229/3 103/207/3
f 114/228/37 115/231/37 102/205/37
f 110/222/4 101/203/4 102/206/4
f 112/225/4 107/217/4 100/202/4
f 108/218/3 113/227/3 104/210/3
f 48/106/3 43/96/3 113/227/3
f 35/81/4 72/154/4 112/225/4
f 40/89/4 110/222/4 115/230/4
f 42/93/23 41/90/23 115/231/23
f 43/96/3 42/92/3 114/229/3
f 48/106/3 108/218/3 109/221/3
f 35/81/4 111/223/4 110/222/4
f 72/155/38 56/117/38 109/220/38
f 119/243/39 116/232/39 117/235/39
f 121/246/3 122/249/3 117/236/3
f 120/244/4 119/241/4 118/239/4
f 122/248/40 123/250/40 118/240/40
f 106/215/41 107/216/41 123/250/41
f 112/225/4 120/244/4 123/251/4
f 109/221/3 106/214/3 122/249/3
f 112/226/42 109/219/42 121/247/42
f 134/276/43 124/253/43 126/258/43
f 141/291/44 126/258/44 127/260/44
f 140/289/45 127/260/45 128/262/45
f 139/287/46 128/262/46 129/265/46
f 138/285/47 129/263/47 130/267/47
f 137/282/48 130/267/48 131/269/48
f 136/280/49 131/269/49 132/271/49
f 132/271/50 125/255/50 133/273/50
f 143/296/51 151/312/51 153/318/51
f 150/311/52 153/318/52 154/320/52
f 149/309/53 154/320/53 155/322/53
f 148/307/54 155/322/54 156/325/54
f 147/305/55 156/323/55 157/327/55
f 146/302/56 157/327/56 158/329/56
f 145/300/57 158/329/57 159/331/57
f 159/331/58 152/316/58 142/293/58
f 133/273/1 125/255/1 5/13/1
f 178/372/4 180/377/4 181/378/4
f 181/378/4 180/377/4 182/380/4
f 182/380/4 180/377/4 183/382/4
f 183/382/4 180/377/4 184/384/4
f 184/384/4 180/377/4 185/387/4
f 185/387/4 180/377/4 186/389/4
f 186/389/4 180/377/4 187/391/4
f 187/391/4 180/377/4 179/375/4
f 188/393/4 190/398/4 191/399/4
f 191/399/4 190/398/4 192/401/4
f 192/401/4 190/398/4 193/403/4
f 193/403/4 190/398/4 194/405/4
f 194/405/4 190/398/4 195/408/4
f 195/408/4 190/398/4 196/410/4
f 196/410/4 190/398/4 197/412/4
f 197/412/4 190/398/4 189/395/4
f 189/397/43 169/352/43 171/357/43
f 197/413/44 171/357/44 172/359/44
f 196/411/45 172/359/45 173/361/45
f 195/409/46 173/361/46 174/364/46
f 194/407/47 174/363/47 175/366/47
f 193/404/48 175/366/48 176/368/48
f 192/402/49 176/368/49 177/370/49
f 191/400/50 177/370/50 170/355/50
f 179/376/58 160/332/58 162/337/58
f 187/392/57 162/337/57 163/339/57
f 186/390/56 163/339/56 164/341/56
f 185/388/55 164/341/55 165/344/55
f 184/386/54 165/343/54 166/346/54
f 183/383/53 166/346/53 167/348/53
f 182/381/52 167/348/52 168/350/52
f 181/379/51 168/350/51 161/335/51
f 162/338/3 176/369/3 172/360/3
f 6/15/1 1/2/1 2/3/1
f 2/4/2 3/6/2 4/9/2
f 125/256/3 7/17/3 5/11/3
f 7/17/3 144/297/3 142/292/3
f 144/297/3 146/301/3 145/299/3
f 146/301/3 148/306/3 147/303/3
f 148/306/3 150/310/3 149/308/3
f 143/294/4 126/257/4 124/254/4
f 148/306/3 143/294/3 150/310/3
f 144/297/3 148/306/3 146/301/3
f 125/256/3 144/297/3 7/17/3
f 131/268/3 125/256/3 132/270/3
f 129/264/3 131/268/3 130/266/3
f 127/259/3 129/264/3 128/261/3
f 143/294/3 127/259/3 126/257/3
f 144/297/3 143/294/3 148/306/3
f 131/268/3 144/297/3 125/256/3
f 127/259/3 131/268/3 129/264/3
f 144/297/3 127/259/3 143/294/3
f 152/315/4 6/14/4 8/19/4
f 6/14/4 135/277/4 133/272/4
f 135/277/4 137/281/4 136/279/4
f 137/281/4 139/286/4 138/283/4
f 139/286/4 141/290/4 140/288/4
f 134/274/4 153/317/4 151/313/4
f 139/286/4 134/274/4 141/290/4
f 135/277/4 139/286/4 137/281/4
f 152/315/4 135/277/4 6/14/4
f 158/328/4 152/315/4 159/330/4
f 156/324/4 158/328/4 157/326/4
f 154/319/4 156/324/4 155/321/4
f 134/274/4 154/319/4 153/317/4
f 135/277/4 134/274/4 139/286/4
f 158/328/4 135/277/4 152/315/4
f 154/319/4 158/328/4 156/324/4
f 135/277/4 154/319/4 134/274/4
f 8/20/5 142/293/5 152/316/5
f 2/5/4 8/19/4 6/14/4
f 5/12/6 19/47/6 20/50/6
f 4/10/5 7/18/5 8/20/5
f 143/295/4 134/275/4 151/314/4
f 10/24/1 16/39/1 14/35/1
f 3/6/7 10/23/7 9/22/7
f 3/7/5 19/48/5 7/18/5
f 1/2/1 20/51/1 10/24/1
f 13/31/3 16/40/3 15/38/3
f 9/22/2 14/36/2 13/32/2
f 16/39/1 188/394/1 170/355/1
f 19/48/5 13/33/5 15/37/5
f 19/48/5 160/332/5 179/376/5
f 180/377/4 31/73/4 17/42/4
f 180/377/4 22/55/4 31/73/4
f 190/398/4 178/372/4 189/395/4
f 178/372/4 22/55/4 180/377/4
f 27/65/4 190/398/4 18/45/4
f 178/372/4 27/65/4 22/55/4
f 178/373/4 169/353/4 189/396/4
f 24/59/8 48/105/8 56/118/8
f 20/52/4 26/63/4 12/29/4
f 20/52/4 21/53/4 26/63/4
f 11/26/4 20/52/4 19/49/4
f 20/52/4 30/71/4 21/53/4
f 19/49/4 32/75/4 11/26/4
f 19/49/4 23/57/4 32/75/4
f 180/377/4 19/49/4 179/375/4
f 28/67/4 180/377/4 17/42/4
f 19/49/4 28/67/4 23/57/4
f 190/398/4 33/77/4 18/45/4
f 190/398/4 24/60/4 33/77/4
f 20/52/4 190/398/4 188/393/4
f 29/69/4 20/52/4 12/29/4
f 190/398/4 29/69/4 24/60/4
f 33/78/9 56/118/9 55/116/9
f 23/58/10 46/100/10 54/114/10
f 29/70/11 43/94/11 48/105/11
f 32/76/12 54/114/12 53/112/12
f 22/56/13 44/97/13 52/111/13
f 28/68/14 47/102/14 46/100/14
f 31/74/15 52/111/15 51/110/15
f 26/64/16 50/108/16 42/93/16
f 27/66/17 45/98/17 44/97/17
f 18/46/18 55/116/18 45/99/18
f 21/54/19 49/107/19 50/108/19
f 12/30/20 42/93/20 43/95/20
f 11/27/21 53/112/21 62/131/21
f 17/43/22 51/110/22 47/103/22
f 30/72/23 62/130/23 49/107/23
f 51/110/15 68/144/15 67/142/15
f 42/93/16 25/61/16 41/90/16
f 45/99/18 71/151/18 38/84/18
f 50/108/19 34/79/19 25/61/19
f 62/131/21 69/146/21 78/161/21
f 120/245/24 116/233/24 119/242/24
f 86/173/3 63/132/3 64/136/3
f 85/172/4 66/139/4 84/169/4
f 49/107/23 78/162/23 34/79/23
f 44/97/17 38/85/17 39/87/17
f 111/223/4 101/203/4 110/222/4
f 109/221/3 105/213/3 106/214/3
f 55/116/9 72/153/9 71/151/9
f 83/168/3 60/126/3 63/132/3
f 53/112/12 70/148/12 69/146/12
f 52/111/13 39/87/13 68/144/13
f 82/167/4 38/86/4 71/152/4
f 73/156/4 67/143/4 68/145/4
f 74/157/4 76/159/4 75/158/4
f 35/81/4 77/160/4 72/154/4
f 79/164/4 75/158/4 77/160/4
f 41/91/4 74/157/4 79/164/4
f 40/89/4 79/164/4 35/81/4
f 69/147/4 76/159/4 80/165/4
f 78/163/4 80/165/4 34/80/4
f 34/80/4 74/157/4 25/62/4
f 81/166/4 36/82/4 67/143/4
f 76/159/4 37/83/4 81/166/4
f 75/158/4 81/166/4 73/156/4
f 73/156/4 39/88/4 82/167/4
f 77/160/4 73/156/4 82/167/4
f 77/160/4 71/152/4 72/154/4
f 63/133/25 59/125/25 65/137/25
f 64/135/26 65/137/26 66/140/26
f 61/129/10 66/141/10 58/122/10
f 88/176/4 59/124/4 87/175/4
f 94/193/3 91/183/3 93/190/3
f 57/120/27 59/125/27 60/127/27
f 84/169/4 65/138/4 88/176/4
f 89/179/3 64/136/3 61/128/3
f 54/115/3 86/173/3 89/179/3
f 36/82/4 84/169/4 88/176/4
f 51/110/17 87/174/17 57/120/17
f 70/149/28 89/178/28 85/170/28
f 36/82/4 87/175/4 67/143/4
f 47/104/3 57/121/3 83/168/3
f 70/150/4 84/169/4 37/83/4
f 47/104/3 86/173/3 46/101/3
f 92/187/29 91/184/29 90/180/29
f 95/194/30 90/181/30 91/185/30
f 97/198/4 90/182/4 96/196/4
f 97/199/31 93/191/31 92/188/31
f 85/171/32 94/192/32 97/199/32
f 85/172/4 96/196/4 58/123/4
f 61/129/33 96/197/33 95/194/33
f 89/179/3 95/195/3 94/193/3
f 105/212/34 101/204/34 100/200/34
f 106/215/35 100/201/35 107/216/35
f 104/209/36 102/205/36 101/204/36
f 113/227/3 103/207/3 104/210/3
f 114/228/37 102/205/37 103/208/37
f 110/222/4 102/206/4 115/230/4
f 112/225/4 100/202/4 111/223/4
f 108/218/3 104/210/3 105/213/3
f 48/106/3 113/227/3 108/218/3
f 35/81/4 112/225/4 111/223/4
f 40/89/4 115/230/4 41/91/4
f 42/93/23 115/231/23 114/228/23
f 43/96/3 114/229/3 113/227/3
f 48/106/3 109/221/3 56/119/3
f 35/81/4 110/222/4 40/89/4
f 72/155/38 109/220/38 112/224/38
f 119/243/39 117/235/39 118/238/39
f 121/246/3 117/236/3 116/234/3
f 120/244/4 118/239/4 123/251/4
f 122/248/40 118/240/40 117/237/40
f 106/215/41 123/250/41 122/248/41
f 112/225/4 123/251/4 107/217/4
f 109/221/3 122/249/3 121/246/3
f 112/226/42 121/247/42 120/245/42
f 134/276/43 126/258/43 141/291/43
f 141/291/44 127/260/44 140/289/44
f 140/289/45 128/262/45 139/287/45
f 139/287/46 129/265/46 138/284/46
f 138/285/47 130/267/47 137/282/47
f 137/282/48 131/269/48 136/280/48
f 136/280/49 132/271/49 135/278/49
f 132/271/50 133/273/50 135/278/50
f 143/296/51 153/318/51 150/311/51
f 150/311/52 154/320/52 149/309/52
f 149/309/53 155/322/53 148/307/53
f 148/307/54 156/325/54 147/304/54
f 147/305/55 157/327/55 146/302/55
f 146/302/56 158/329/56 145/300/56
f 145/300/57 159/331/57 144/298/57
f 159/331/58 142/293/58 144/298/58
f 133/273/1 5/13/1 6/15/1
f 189/397/43 171/357/43 197/413/43
f 197/413/44 172/359/44 196/411/44
f 196/411/45 173/361/45 195/409/45
f 195/409/46 174/364/46 194/406/46
f 194/407/47 175/366/47 193/404/47
f 193/404/48 176/368/48 192/402/48
f 192/402/49 177/370/49 191/400/49
f 191/400/50 170/355/50 188/394/50
f 179/376/58 162/337/58 187/392/58
f 187/392/57 163/339/57 186/390/57
f 186/390/56 164/341/56 185/388/56
f 185/388/55 165/344/55 184/385/55
f 184/386/54 166/346/54 183/383/54
f 183/383/53 167/348/53 182/381/53
f 182/381/52 168/350/52 181/379/52
f 181/379/51 161/335/51 178/374/51
f 170/356/3 15/38/3 16/40/3
f 15/38/3 162/338/3 160/333/3
f 162/338/3 164/342/3 163/340/3
f 164/342/3 166/347/3 165/345/3
f 166/347/3 168/351/3 167/349/3
f 161/336/4 171/358/4 169/354/4
f 166/347/3 161/336/3 168/351/3
f 162/338/3 166/347/3 164/342/3
f 170/356/3 162/338/3 15/38/3
f 176/369/3 170/356/3 177/371/3
f 174/365/3 176/369/3 175/367/3
f 172/360/3 174/365/3 173/362/3
f 161/336/3 172/360/3 171/358/3
f 162/338/3 161/336/3 166/347/3
f 176/369/3 162/338/3 170/356/3
f 172/360/3 176/369/3 174/365/3
f 162/338/3 172/360/3 161/336/3
l 99 98
