# Blender 3.3.1
# www.blender.org
o sign
v -0.161866 3.994455 0.038334
v -0.161866 4.391253 0.038334
v -0.161866 3.994455 -0.038334
v -0.161866 4.391253 -0.038334
v 0.161866 3.994455 0.038334
v 0.161866 4.391253 0.038334
v 0.161866 3.994455 -0.038334
v 0.161866 4.391253 -0.038334
v 0.038266 3.994454 -0.038266
v -0.038266 3.994454 -0.038266
v -0.053955 4.391253 -0.038334
v 0.053955 4.391253 -0.038334
v -0.038266 3.994454 0.038266
v 0.038266 3.994454 0.038266
v 0.053955 4.391253 0.038334
v -0.053955 4.391253 0.038334
v -0.000000 3.994454 -0.054116
v 0.000000 3.994454 0.054116
v -0.054116 3.994454 0.000000
v 0.054116 3.994454 -0.000000
v -0.000000 3.803868 -0.029210
v -0.020709 3.994454 -0.049997
v 0.020709 3.994454 0.049997
v -0.049997 3.994454 0.020709
v 0.049997 3.994454 0.020709
v 0.020709 3.994454 -0.049997
v -0.020709 3.994454 0.049997
v -0.049997 3.994454 -0.020709
v 0.049997 3.994454 -0.020709
v 0.011178 3.803868 -0.026987
v 0.026987 3.803868 0.011178
v -0.020655 3.803868 0.020655
v -0.026987 3.803868 0.011178
v 0.020655 3.803868 0.020655
v 0.011178 3.803868 0.026987
v -0.020655 3.803868 -0.020655
v -0.011178 3.803868 -0.026987
v -0.011178 3.994454 -0.026987
v -0.020655 3.994454 -0.020655
v 0.011178 3.994454 0.026987
v 0.020655 3.994454 0.020655
v -0.026987 3.994454 0.011178
v -0.020655 3.994454 0.020655
v 0.026987 3.994454 0.011178
v 0.011178 3.994454 -0.026987
v -0.000000 3.994454 -0.029210
v -0.011178 3.994454 0.026987
v 0.000000 3.994454 0.029210
v -0.026987 3.994454 -0.011178
v -0.029210 3.994454 0.000000
v 0.026987 3.994454 -0.011178
v 0.029210 3.994454 -0.000000
v 0.020655 3.994454 -0.020655
v -0.011178 3.803868 0.026987
v 0.000000 3.803868 0.029210
v -0.026987 3.803868 -0.011178
v -0.029210 3.803868 0.000000
v 0.026987 3.803868 -0.011178
v 0.029210 3.803868 -0.000000
v -0.000000 3.803868 0.010346
v -0.000000 3.803868 -0.010346
v -0.000000 3.803868 -0.000000
v -0.014562 3.803868 -0.000000
v 0.014562 3.803868 -0.000000
v 0.020655 3.803868 -0.020655
v 0.014562 3.803868 -0.010346
v -0.014562 3.803868 -0.010346
v -0.014562 3.803868 0.010346
v 0.014562 3.803868 0.010346
vn -1.0000 -0.0000 -0.0000
vn -0.0006 -0.0001 -1.0000
vn 1.0000 -0.0000 -0.0000
vn 0.0006 -0.0001 1.0000
vn -0.0000 -1.0000 -0.0000
vn -0.0000 1.0000 -0.0000
vn -0.0006 -0.0001 1.0000
vn -0.3812 0.0884 0.9203
vn 0.0006 -0.0001 -1.0000
vn 0.3812 0.0884 -0.9203
vn 0.1951 -0.0000 0.9808
vn -0.1951 -0.0000 0.9808
vn -0.1951 -0.0000 -0.9808
vn 0.8315 -0.0000 -0.5556
vn 0.1951 -0.0000 -0.9808
vn -0.8315 -0.0000 -0.5556
vn 0.8315 -0.0000 0.5556
vn -0.5556 -0.0000 0.8315
vn -0.8315 -0.0000 0.5556
vn 0.5556 -0.0000 -0.8315
vn 0.5556 -0.0000 0.8315
vn 0.9808 -0.0000 0.1951
vn -0.5556 -0.0000 -0.8315
vn 0.9808 -0.0000 -0.1951
vn -0.9808 -0.0000 0.1951
vn -0.9808 -0.0000 -0.1951
vn 0.0001 -1.0000 -0.0000
vn -0.0000 -0.0000 -1.0000
vn -0.0000 -0.0000 1.0000
vn 0.5554 -0.0221 0.8313
vn -0.0000 -0.0002 1.0000
vn 0.1951 0.0125 0.9807
vn -0.5554 -0.0221 -0.8313
vn -0.0000 -0.0002 -1.0000
vn -0.1951 0.0125 -0.9807
vn -0.0001 -1.0000 -0.0000
vt 0.918557 0.504511
vt 0.004511 0.004594
vt 0.118904 0.905159
vt 0.918557 0.995489
vt 0.004511 0.495568
vt 0.147453 0.905159
vt 0.823691 0.504511
vt 0.024039 0.905159
vt 0.814670 0.004594
vt 0.823691 0.995489
vt 0.242319 0.905159
vt 0.814670 0.495568
vt 0.823691 0.004511
vt 0.118904 0.504589
vt 0.405080 0.004594
vt 0.823691 0.495489
vt 0.147453 0.504589
vt 0.405080 0.495568
vt 0.918557 0.004511
vt 0.414101 0.004594
vt 0.024039 0.504589
vt 0.242319 0.504589
vt 0.414101 0.495568
vt 0.918557 0.495489
vt 0.024123 0.657526
vt 0.567037 0.004593
vt 0.661734 0.004593
vt 0.024123 0.752222
vt 0.242319 0.771635
vt 0.681147 0.495568
vt 0.242319 0.638112
vt 0.547624 0.495568
vt 0.157447 0.004593
vt 0.118820 0.752222
vt 0.252144 0.004593
vt 0.118820 0.657526
vt 0.147453 0.638112
vt 0.271557 0.495568
vt 0.147453 0.771635
vt 0.138034 0.495568
vt 0.614386 0.004511
vt 0.004511 0.704874
vt 0.204795 0.004511
vt 0.138432 0.704874
vt 0.071471 0.771835
vt 0.071471 0.637913
vt 0.276897 0.504590
vt 0.534373 0.532987
vt 0.640010 0.004532
vt 0.009608 0.730499
vt 0.230420 0.004532
vt 0.133335 0.679249
vt 0.097096 0.766738
vt 0.097096 0.643010
vt 0.588761 0.004532
vt 0.009608 0.679249
vt 0.179170 0.004532
vt 0.133335 0.730499
vt 0.045847 0.766738
vt 0.045847 0.643010
vt 0.263066 0.504601
vt 0.539769 0.519958
vt 0.485963 0.504589
vt 0.589902 0.509986
vt 0.414101 0.504634
vt 0.405080 0.504589
vt 0.589902 0.570091
vt 0.393354 0.504589
vt 0.576873 0.575487
vt 0.474237 0.504589
vt 0.465216 0.504634
vt 0.599874 0.519958
vt 0.453490 0.504601
vt 0.605271 0.532987
vt 0.353965 0.504589
vt 0.302454 0.504634
vt 0.539769 0.560119
vt 0.290729 0.504601
vt 0.534373 0.547090
vt 0.038079 0.718705
vt 0.290729 0.740421
vt 0.302454 0.740454
vt 0.045914 0.730431
vt 0.353965 0.740411
vt 0.104864 0.691042
vt 0.453490 0.740421
vt 0.465216 0.740454
vt 0.097029 0.679317
vt 0.474237 0.740411
vt 0.085303 0.738266
vt 0.393354 0.740411
vt 0.405080 0.740411
vt 0.097029 0.730431
vt 0.414101 0.740454
vt 0.085303 0.671482
vt 0.485963 0.740411
vt 0.038079 0.691042
vt 0.263065 0.740421
vt 0.035328 0.704874
vt 0.276897 0.740409
vt 0.104864 0.718705
vt 0.425827 0.740421
vt 0.107615 0.704874
vt 0.439658 0.740409
vt 0.057640 0.738266
vt 0.365691 0.740411
vt 0.071471 0.741017
vt 0.379522 0.740411
vt 0.057640 0.671482
vt 0.513626 0.740411
vt 0.071471 0.668730
vt 0.499794 0.740411
vt 0.525351 0.740411
vt 0.045914 0.679317
vt 0.251340 0.740454
vt 0.425827 0.504601
vt 0.599874 0.560119
vt 0.439658 0.504589
vt 0.605271 0.547090
vt 0.365691 0.504589
vt 0.549741 0.570091
vt 0.562770 0.575487
vt 0.379522 0.504589
vt 0.513626 0.504589
vt 0.562770 0.504589
vt 0.499794 0.504589
vt 0.576873 0.504589
vt 0.582377 0.542536
vt 0.557266 0.537541
vt 0.569822 0.540038
vt 0.566307 0.557710
vt 0.573337 0.522367
vt 0.525351 0.504589
vt 0.251340 0.504634
vt 0.549741 0.509986
vt 0.560781 0.519869
vt 0.553751 0.555213
vt 0.578862 0.560208
vt 0.585892 0.524864
s 0
f 2/4/1 3/7/1 1/1/1
f 12/32/2 7/20/2 9/26/2
f 8/24/3 5/13/3 7/19/3
f 16/40/4 1/2/4 13/33/4
f 7/21/5 25/54/5 20/46/5
f 4/11/6 16/39/6 11/29/6
f 12/31/6 6/17/6 8/22/6
f 11/29/6 15/37/6 12/31/6
f 19/45/5 24/53/5 1/3/5
f 9/25/5 45/97/5 26/56/5
f 5/15/7 15/38/7 14/35/7
f 15/38/8 13/33/8 18/43/8
f 3/9/9 11/30/9 10/27/9
f 11/30/10 9/26/10 17/41/10
f 23/52/5 41/88/5 14/36/5
f 20/46/5 44/95/5 52/111/5
f 20/46/5 51/109/5 29/60/5
f 19/45/5 42/90/5 24/53/5
f 14/36/5 44/95/5 25/54/5
f 19/45/5 49/105/5 50/107/5
f 18/44/5 40/85/5 23/52/5
f 24/53/5 43/93/5 13/34/5
f 18/44/5 47/101/5 48/103/5
f 17/42/5 38/80/5 22/50/5
f 29/60/5 53/114/5 9/25/5
f 17/42/5 45/97/5 46/99/5
f 22/50/5 39/83/5 10/28/5
f 10/28/5 49/105/5 28/59/5
f 13/34/5 47/101/5 27/58/5
f 48/104/11 35/73/11 40/86/11
f 47/102/12 55/118/12 48/104/12
f 46/100/13 37/78/13 38/81/13
f 51/110/14 65/133/14 53/113/14
f 45/98/15 21/47/15 46/100/15
f 39/84/16 56/120/16 49/106/16
f 41/89/17 31/63/17 44/96/17
f 43/94/18 54/116/18 47/102/18
f 42/91/19 32/66/19 43/92/19
f 53/115/20 30/61/20 45/98/20
f 40/86/21 34/71/21 41/87/21
f 44/96/22 59/126/22 52/112/22
f 38/81/23 36/76/23 39/82/23
f 52/112/24 58/124/24 51/110/24
f 50/108/25 33/68/25 42/91/25
f 49/106/26 57/123/26 50/108/26
f 69/139/27 34/72/27 35/74/27
f 60/128/5 54/117/5 68/138/5
f 61/129/5 63/131/5 67/137/5
f 58/125/27 64/132/27 66/136/27
f 66/136/5 62/130/5 61/129/5
f 30/62/27 61/129/27 21/48/27
f 65/135/5 66/136/5 30/62/5
f 56/121/27 63/131/27 57/122/27
f 36/77/5 67/137/5 56/121/5
f 37/79/5 61/129/5 67/137/5
f 68/138/27 32/67/27 33/69/27
f 63/131/5 33/69/5 57/122/5
f 62/130/5 68/138/5 63/131/5
f 60/128/5 35/74/5 55/119/5
f 64/132/5 60/128/5 62/130/5
f 64/132/5 31/64/5 69/139/5
f 2/4/1 4/10/1 3/7/1
f 12/32/28 8/23/28 7/20/28
f 8/24/3 6/16/3 5/13/3
f 16/40/29 2/5/29 1/2/29
f 29/60/5 9/25/5 7/21/5
f 7/21/5 5/14/5 14/36/5
f 7/21/5 14/36/5 25/54/5
f 20/46/5 29/60/5 7/21/5
f 4/11/6 2/6/6 16/39/6
f 12/31/6 15/37/6 6/17/6
f 11/29/6 16/39/6 15/37/6
f 1/3/5 3/8/5 10/28/5
f 1/3/5 10/28/5 28/59/5
f 24/53/5 13/34/5 1/3/5
f 1/3/5 28/59/5 19/45/5
f 9/25/5 53/114/5 45/97/5
f 5/15/29 6/18/29 15/38/29
f 23/51/30 14/35/30 15/38/30
f 15/38/31 16/40/31 13/33/31
f 13/33/6 27/57/6 18/43/6
f 18/43/32 23/51/32 15/38/32
f 3/9/28 4/12/28 11/30/28
f 22/49/33 10/27/33 11/30/33
f 11/30/34 12/32/34 9/26/34
f 9/26/6 26/55/6 17/41/6
f 17/41/35 22/49/35 11/30/35
f 23/52/5 40/85/5 41/88/5
f 20/46/5 25/54/5 44/95/5
f 20/46/5 52/111/5 51/109/5
f 19/45/5 50/107/5 42/90/5
f 14/36/5 41/88/5 44/95/5
f 19/45/5 28/59/5 49/105/5
f 18/44/5 48/103/5 40/85/5
f 24/53/5 42/90/5 43/93/5
f 18/44/5 27/58/5 47/101/5
f 17/42/5 46/99/5 38/80/5
f 29/60/5 51/109/5 53/114/5
f 17/42/5 26/56/5 45/97/5
f 22/50/5 38/80/5 39/83/5
f 10/28/5 39/83/5 49/105/5
f 13/34/5 43/93/5 47/101/5
f 48/104/11 55/118/11 35/73/11
f 47/102/12 54/116/12 55/118/12
f 46/100/13 21/47/13 37/78/13
f 51/110/14 58/124/14 65/133/14
f 45/98/15 30/61/15 21/47/15
f 39/84/16 36/75/16 56/120/16
f 41/89/17 34/70/17 31/63/17
f 43/94/18 32/65/18 54/116/18
f 42/91/19 33/68/19 32/66/19
f 53/115/20 65/134/20 30/61/20
f 40/86/21 35/73/21 34/71/21
f 44/96/22 31/63/22 59/126/22
f 38/81/23 37/78/23 36/76/23
f 52/112/24 59/126/24 58/124/24
f 50/108/25 57/123/25 33/68/25
f 49/106/26 56/120/26 57/123/26
f 69/139/36 31/64/36 34/72/36
f 60/128/36 55/119/36 54/117/36
f 61/129/5 62/130/5 63/131/5
f 58/125/5 59/127/5 64/132/5
f 66/136/5 64/132/5 62/130/5
f 30/62/5 66/136/5 61/129/5
f 65/135/5 58/125/5 66/136/5
f 56/121/36 67/137/36 63/131/36
f 36/77/5 37/79/5 67/137/5
f 37/79/5 21/48/5 61/129/5
f 68/138/27 54/117/27 32/67/27
f 63/131/5 68/138/5 33/69/5
f 62/130/5 60/128/5 68/138/5
f 60/128/5 69/139/5 35/74/5
f 64/132/5 69/139/5 60/128/5
f 64/132/5 59/127/5 31/64/5
