# Blender 3.3.1
# www.blender.org
o base
v 0.433854 3.829773 -0.433854
v 0.554304 0.013869 -0.554304
v 0.433854 3.829773 0.433854
v 0.554304 0.013869 0.554304
v -0.433854 3.829773 -0.433854
v -0.554304 0.013869 -0.554304
v -0.433854 3.829773 0.433854
v -0.554304 0.013869 0.554304
v 0.455510 3.233011 -0.455510
v -0.455510 3.233011 0.455510
v 0.455510 3.233011 0.455510
v -0.455510 3.233011 -0.455510
v -1.754807 3.339415 0.318136
v -1.671380 3.832241 0.303011
v 1.671380 3.832241 -0.303011
v 1.671380 3.832241 0.303011
v -1.671380 3.832241 -0.303011
v 1.754807 3.339415 -0.318136
v 1.754807 3.339415 0.318136
v -1.754807 3.339415 -0.318136
v -2.368306 3.404833 0.263532
v -2.495569 3.837703 0.251003
v 2.495546 3.837708 -0.251003
v 2.495546 3.837708 0.251003
v -2.495569 3.837703 -0.251003
v 2.368329 3.404828 -0.263532
v 2.368330 3.404828 0.263532
v -2.368306 3.404833 -0.263532
vn -0.0000 1.0000 -0.0000
vn -0.0000 0.0363 0.9993
vn -0.0816 -0.9967 -0.0000
vn -0.0000 -1.0000 -0.0000
vn 0.0020 1.0000 -0.0000
vn -0.0000 0.0363 -0.9993
vn -0.0000 0.0307 -0.9995
vn 0.9995 0.0307 -0.0000
vn -0.9995 0.0307 -0.0000
vn -0.0000 0.0307 0.9995
vn 0.0629 0.0104 0.9980
vn 0.1060 -0.9944 -0.0000
vn -0.0020 1.0000 -0.0000
vn 0.1050 0.0399 0.9937
vn -0.1012 0.0476 0.9937
vn 0.1012 0.0476 -0.9937
vn 0.0816 -0.9967 -0.0000
vn -0.1050 0.0399 -0.9937
vn -0.9594 -0.2821 -0.0000
vn 0.9594 -0.2820 -0.0000
vn 0.0066 1.0000 -0.0000
vn -0.0838 0.0447 0.9955
vn -0.1060 -0.9944 -0.0000
vn -0.0629 0.0104 -0.9980
vn 0.0838 0.0447 -0.9955
vn -0.0066 1.0000 -0.0000
vn 0.0838 0.0447 0.9955
vn 0.1012 0.0476 0.9937
vn -0.1050 0.0399 0.9937
vn 0.1050 0.0399 -0.9937
vn -0.1012 0.0476 -0.9937
vn -0.0629 0.0104 0.9980
vn -0.0838 0.0447 -0.9955
vn 0.0629 0.0104 -0.9980
vt 0.895755 0.336442
vt 0.881108 0.336442
vt 0.131376 0.581678
vt 0.638459 0.581678
vt 0.451138 0.350007
vt 0.436492 0.238715
vt 0.993479 0.336442
vt 0.006521 0.225150
vt 0.638459 0.706532
vt 0.006521 0.581678
vt 0.895755 0.238718
vt 0.881108 0.238718
vt 0.513604 0.581678
vt 0.451138 0.225152
vt 0.144419 0.581678
vt 0.993479 0.238718
vt 0.436492 0.336439
vt 0.269273 0.581678
vt 0.513604 0.706532
vt 0.006521 0.350005
vt 0.120249 0.939865
vt 0.813855 0.338880
vt 0.282316 0.797105
vt 0.397960 0.797102
vt 0.258147 0.939862
vt 0.369238 0.338878
vt 0.384918 0.797105
vt 0.017648 0.939865
vt 0.369238 0.236276
vt 0.500562 0.797102
vt 0.155545 0.939862
vt 0.813855 0.236279
vt 0.381749 0.485209
vt 0.413431 0.650772
vt 0.978743 0.099344
vt 0.437278 0.475813
vt 0.910491 0.475815
vt 0.881895 0.475815
vt 0.437278 0.099341
vt 0.978743 0.475815
vt 0.910491 0.099344
vt 0.881895 0.099344
vt 0.826366 0.485211
vt 0.297787 0.650774
vt 0.381749 0.089946
vt 0.369446 0.650774
vt 0.485090 0.650772
vt 0.826366 0.089948
vt 0.651501 0.581678
vt 0.389325 0.554303
vt 0.419581 0.581678
vt 0.701680 0.583089
vt 0.972885 0.006521
vt 0.438096 0.568635
vt 0.701680 0.655491
vt 0.882712 0.568635
vt 0.916348 0.568635
vt 0.438096 0.006521
vt 0.701680 0.712028
vt 0.972885 0.568635
vt 0.882712 0.006521
vt 0.701680 0.639626
vt 0.916348 0.006521
vt 0.651501 0.654080
vt 0.303937 0.581678
vt 0.833941 0.554308
vt 0.389324 0.020849
vt 0.363296 0.581678
vt 0.651501 0.713439
vt 0.651501 0.641037
vt 0.478941 0.581678
vt 0.833942 0.020854
s 0
f 5/11/1 3/7/1 1/1/1
f 3/6/2 10/26/2 11/29/2
f 10/24/3 20/47/3 12/30/3
f 2/4/4 8/19/4 6/13/4
f 5/11/5 14/35/5 7/16/5
f 5/12/6 9/22/6 12/32/6
f 12/32/7 2/5/7 6/14/7
f 9/21/8 4/10/8 2/3/8
f 10/25/9 6/15/9 8/18/9
f 11/29/10 8/20/10 4/8/10
f 16/39/11 27/67/11 24/58/11
f 18/44/12 27/68/12 19/46/12
f 3/7/13 15/37/13 1/1/13
f 11/29/14 16/39/14 3/6/14
f 10/26/15 14/36/15 13/33/15
f 9/22/16 15/38/16 18/43/16
f 9/23/17 19/46/17 11/27/17
f 12/32/18 17/42/18 5/12/18
f 21/49/19 25/62/19 28/70/19
f 23/55/20 27/69/20 26/64/20
f 17/41/21 22/53/21 14/35/21
f 14/36/22 21/50/22 13/33/22
f 13/34/23 28/71/23 20/47/23
f 17/42/24 28/72/24 25/61/24
f 15/38/25 26/66/25 18/43/25
f 16/40/26 23/57/26 15/37/26
f 5/11/1 7/16/1 3/7/1
f 3/6/2 7/17/2 10/26/2
f 10/24/3 13/34/3 20/47/3
f 2/4/4 4/9/4 8/19/4
f 5/11/5 17/41/5 14/35/5
f 5/12/6 1/2/6 9/22/6
f 12/32/7 9/22/7 2/5/7
f 9/21/8 11/28/8 4/10/8
f 10/25/9 12/31/9 6/15/9
f 11/29/10 10/26/10 8/20/10
f 16/39/27 19/45/27 27/67/27
f 18/44/12 26/65/12 27/68/12
f 3/7/13 16/40/13 15/37/13
f 11/29/28 19/45/28 16/39/28
f 10/26/29 7/17/29 14/36/29
f 9/22/30 1/2/30 15/38/30
f 9/23/17 18/44/17 19/46/17
f 12/32/31 20/48/31 17/42/31
f 21/49/19 22/52/19 25/62/19
f 23/55/20 24/59/20 27/69/20
f 17/41/21 25/63/21 22/53/21
f 14/36/32 22/54/32 21/50/32
f 13/34/23 21/51/23 28/71/23
f 17/42/33 20/48/33 28/72/33
f 15/38/34 23/56/34 26/66/34
f 16/40/26 24/60/26 23/57/26
