# Blender 3.3.1
# www.blender.org
o Cube
v 0.760468 2.004136 0.135583
v 1.000000 0.004136 -1.650116
v 0.760468 2.004136 0.597883
v 1.000000 0.004136 1.000000
v -0.760468 2.004136 0.135583
v -1.000000 0.004136 -1.650116
v -0.760468 2.004136 0.597883
v -1.000000 0.004136 1.000000
v 1.000000 0.481322 -1.650116
v -1.000000 0.481322 1.000000
v 1.000000 0.481322 1.000000
v -1.000000 0.481322 -1.650116
v -1.079360 0.481322 1.105156
v -1.079360 2.004136 1.105156
v 1.079360 2.004136 1.105156
v 1.079360 2.004136 -1.755273
v -1.079360 2.004136 -1.755273
v 1.079360 0.481322 -1.755273
v 1.079360 0.481322 1.105156
v -1.079360 0.481322 -1.755273
v 1.000000 2.004136 1.000000
v -1.000000 2.004136 1.000000
v 1.000000 2.004136 -1.650116
v -1.000000 2.004136 -1.650116
v 0.650787 2.124507 0.488202
v -0.650787 2.124507 0.488202
v 0.650787 2.124507 0.245264
v -0.650787 2.124507 0.245264
v 0.760468 2.124507 0.597883
v -0.760468 2.124507 0.597883
v 0.760468 2.124507 0.135583
v -0.760468 2.124507 0.135583
v 0.650787 1.972672 0.488202
v -0.650787 1.972672 0.488202
v 0.650787 1.972672 0.245264
v -0.650787 1.972672 0.245264
vn 1.0000 -0.0000 -0.0000
vn -0.0000 -1.0000 -0.0000
vn -0.0000 1.0000 -0.0000
vn -0.0000 -0.0000 -1.0000
vn -1.0000 -0.0000 -0.0000
vn -0.0000 -0.0000 1.0000
vt 0.984846 0.719591
vt 0.669189 0.378255
vt 0.358606 0.265454
vt 0.988373 0.369484
vt 0.280409 0.411057
vt 0.801358 0.719591
vt 0.669189 0.314913
vt 0.358606 0.328796
vt 0.973875 0.619448
vt 0.879497 0.993621
vt 0.280409 0.774163
vt 0.988373 0.006379
vt 0.639940 0.314913
vt 0.566997 0.265454
vt 0.984846 0.927982
vt 0.006379 0.411057
vt 0.801358 0.993621
vt 0.910234 0.006379
vt 0.973875 0.411057
vt 0.566997 0.328796
vt 0.639940 0.378255
vt 0.910234 0.369484
vt 0.006379 0.774163
vt 0.879497 0.719591
vt 0.291282 0.020787
vt 0.735977 0.719591
vt 0.922991 0.369484
vt 0.017252 0.383892
vt 0.844852 0.369484
vt 0.814116 0.719591
vt 0.922991 0.006379
vt 0.814116 0.993621
vt 0.291282 0.383892
vt 0.735977 0.993621
vt 0.844852 0.006379
vt 0.017252 0.020787
vt 0.723220 0.802979
vt 0.944625 0.411057
vt 0.006379 0.398300
vt 0.610690 0.398300
vt 0.735977 0.411057
vt 0.514571 0.802979
vt 0.735977 0.706834
vt 0.293166 0.411057
vt 0.314913 0.398300
vt 0.293166 0.802979
vt 0.623447 0.006379
vt 0.314913 0.006379
vt 0.514571 0.411057
vt 0.623447 0.302155
vt 0.610690 0.006379
vt 0.501814 0.802979
vt 0.832095 0.006379
vt 0.302155 0.006379
vt 0.944625 0.706834
vt 0.501814 0.411057
vt 0.302155 0.398300
vt 0.832095 0.302155
vt 0.723220 0.411057
vt 0.006379 0.006379
vt 0.325786 0.383892
vt 0.599816 0.383892
vt 0.325786 0.020787
vt 0.599816 0.020787
vt 0.681947 0.348199
vt 0.907282 0.734619
vt 0.085983 0.786920
vt 0.085983 0.965255
vt 0.681947 0.360956
vt 0.907282 0.912954
vt 0.052422 0.965255
vt 0.940569 0.734619
vt 0.681947 0.314913
vt 0.681947 0.394242
vt 0.940569 0.912954
vt 0.052422 0.786920
vt 0.652697 0.314913
vt 0.957382 0.619448
vt 0.892254 0.719591
vt 0.623447 0.378255
vt 0.957382 0.411057
vt 0.892254 0.927982
vt 0.652697 0.378255
vt 0.968354 0.719591
vt 0.955597 0.719591
vt 0.623447 0.314913
vt 0.968354 0.927982
vt 0.955597 0.927982
vt 0.006379 0.786920
vt 0.106786 0.786920
vt 0.702750 0.348199
vt 0.702750 0.360956
vt 0.006379 0.965255
vt 0.106786 0.965255
vt 0.039665 0.786920
vt 0.073226 0.965255
vt 0.702750 0.314913
vt 0.702750 0.394242
vt 0.039665 0.965255
vt 0.073226 0.786920
s 0
f 1/2/1 29/77/1 3/7/1
f 12/36/2 13/39/2 20/60/2
f 22/62/3 17/51/3 14/40/3
f 2/5/2 8/23/2 6/16/2
f 22/62/3 15/45/3 21/61/3
f 11/33/2 18/54/2 19/57/2
f 12/34/4 2/6/4 6/17/4
f 9/27/1 4/12/1 2/4/1
f 10/29/5 6/18/5 8/22/5
f 11/32/6 8/24/6 4/10/6
f 15/43/6 13/38/6 19/55/6
f 14/42/5 20/59/5 13/37/5
f 16/46/1 19/56/1 18/52/1
f 17/50/4 18/53/4 20/58/4
f 23/63/3 15/45/3 16/48/3
f 12/36/2 18/54/2 9/25/2
f 23/63/3 17/51/3 24/64/3
f 11/33/2 13/39/2 10/28/2
f 7/20/3 21/61/3 3/8/3
f 1/3/3 21/61/3 23/63/3
f 5/14/3 22/62/3 7/20/3
f 1/3/3 24/64/3 5/14/3
f 26/69/1 36/98/1 28/74/1
f 7/21/5 32/86/5 5/13/5
f 3/9/6 30/81/6 7/19/6
f 5/15/4 31/84/4 1/1/4
f 26/70/3 29/79/3 25/66/3
f 25/66/3 31/85/3 27/72/3
f 28/75/3 30/82/3 26/70/3
f 27/72/3 32/88/3 28/75/3
f 36/99/3 33/89/3 35/95/3
f 25/67/4 34/94/4 26/68/4
f 28/76/6 35/96/6 27/71/6
f 27/73/5 33/91/5 25/65/5
f 1/2/1 31/83/1 29/77/1
f 12/36/2 10/28/2 13/39/2
f 22/62/3 24/64/3 17/51/3
f 2/5/2 4/11/2 8/23/2
f 22/62/3 14/40/3 15/45/3
f 11/33/2 9/25/2 18/54/2
f 12/34/4 9/26/4 2/6/4
f 9/27/1 11/31/1 4/12/1
f 10/29/5 12/35/5 6/18/5
f 11/32/6 10/30/6 8/24/6
f 15/43/6 14/41/6 13/38/6
f 14/42/5 17/49/5 20/59/5
f 16/46/1 15/44/1 19/56/1
f 17/50/4 16/47/4 18/53/4
f 23/63/3 21/61/3 15/45/3
f 12/36/2 20/60/2 18/54/2
f 23/63/3 16/48/3 17/51/3
f 11/33/2 19/57/2 13/39/2
f 7/20/3 22/62/3 21/61/3
f 1/3/3 3/8/3 21/61/3
f 5/14/3 24/64/3 22/62/3
f 1/3/3 23/63/3 24/64/3
f 26/69/1 34/92/1 36/98/1
f 7/21/5 30/80/5 32/86/5
f 3/9/6 29/78/6 30/81/6
f 5/15/4 32/87/4 31/84/4
f 26/70/3 30/82/3 29/79/3
f 25/66/3 29/79/3 31/85/3
f 28/75/3 32/88/3 30/82/3
f 27/72/3 31/85/3 32/88/3
f 36/99/3 34/93/3 33/89/3
f 25/67/4 33/90/4 34/94/4
f 28/76/6 36/100/6 35/96/6
f 27/73/5 35/97/5 33/91/5
