# Blender 3.3.1
# www.blender.org
o Beer
v 0.000000 0.009439 -0.327277
v 0.000000 0.050536 -0.306883
v 0.063848 0.009439 -0.320988
v 0.059870 0.050536 -0.300986
v 0.125243 0.009439 -0.302364
v 0.117439 0.050536 -0.283523
v 0.181825 0.009439 -0.272121
v 0.170495 0.050536 -0.255164
v 0.231419 0.009439 -0.231419
v 0.216999 0.050536 -0.216999
v 0.272121 0.009439 -0.181825
v 0.255164 0.050536 -0.170495
v 0.302364 0.009439 -0.125243
v 0.283523 0.050536 -0.117439
v 0.320988 0.009439 -0.063848
v 0.300986 0.050536 -0.059870
v 0.327277 0.009439 0.000000
v 0.306883 0.050536 0.000000
v 0.320988 0.009439 0.063848
v 0.300986 0.050536 0.059870
v 0.302364 0.009439 0.125243
v 0.283523 0.050536 0.117439
v 0.272121 0.009439 0.181825
v 0.255164 0.050536 0.170495
v 0.231419 0.009439 0.231419
v 0.216999 0.050536 0.216999
v 0.181825 0.009439 0.272121
v 0.170495 0.050536 0.255164
v 0.125243 0.009439 0.302364
v 0.117439 0.050536 0.283523
v 0.063848 0.009439 0.320988
v 0.059870 0.050536 0.300986
v 0.000000 0.009439 0.327277
v 0.000000 0.050536 0.306883
v -0.063848 0.009439 0.320988
v -0.059870 0.050536 0.300986
v -0.125243 0.009439 0.302364
v -0.117439 0.050536 0.283523
v -0.181825 0.009439 0.272121
v -0.170495 0.050536 0.255164
v -0.231419 0.009439 0.231419
v -0.216999 0.050536 0.216999
v -0.272121 0.009439 0.181825
v -0.255164 0.050536 0.170495
v -0.302364 0.009439 0.125243
v -0.283523 0.050536 0.117439
v -0.320988 0.009439 0.063848
v -0.300986 0.050536 0.059870
v -0.327277 0.009439 0.000000
v -0.306883 0.050536 0.000000
v -0.320988 0.009439 -0.063848
v -0.300986 0.050536 -0.059870
v -0.302364 0.009439 -0.125243
v -0.283523 0.050536 -0.117439
v -0.272121 0.009439 -0.181825
v -0.255164 0.050536 -0.170495
v -0.231419 0.009439 -0.231419
v -0.216999 0.050536 -0.216999
v -0.181825 0.009439 -0.272121
v -0.170495 0.050536 -0.255164
v -0.125243 0.009439 -0.302364
v -0.117439 0.050536 -0.283523
v -0.063848 0.009439 -0.320988
v -0.059870 0.050536 -0.300986
v 0.039406 0.086997 -0.198108
v -0.000000 0.086997 -0.201989
v 0.077298 0.086997 -0.186613
v 0.112219 0.086997 -0.167947
v 0.142828 0.086997 -0.142828
v 0.167947 0.086997 -0.112219
v 0.186613 0.086997 -0.077298
v 0.198108 0.086997 -0.039406
v 0.201989 0.086997 -0.000000
v 0.198108 0.086997 0.039406
v 0.186613 0.086997 0.077298
v 0.167947 0.086997 0.112219
v 0.142828 0.086997 0.142828
v 0.112219 0.086997 0.167947
v 0.077298 0.086997 0.186613
v 0.039406 0.086997 0.198108
v -0.000000 0.086997 0.201989
v -0.039406 0.086997 0.198108
v -0.077298 0.086997 0.186613
v -0.112219 0.086997 0.167947
v -0.142828 0.086997 0.142828
v -0.167947 0.086997 0.112219
v -0.186613 0.086997 0.077298
v -0.198108 0.086997 0.039406
v -0.201989 0.086997 -0.000000
v -0.198108 0.086997 -0.039406
v -0.186613 0.086997 -0.077298
v -0.167947 0.086997 -0.112219
v -0.142828 0.086997 -0.142828
v -0.112219 0.086997 -0.167947
v -0.077298 0.086997 -0.186613
v -0.039406 0.086997 -0.198108
v 0.035526 0.105945 -0.178601
v 0.000000 0.105945 -0.182100
v 0.069687 0.105945 -0.168238
v 0.101169 0.105945 -0.151410
v 0.128764 0.105945 -0.128764
v 0.151410 0.105945 -0.101169
v 0.168238 0.105945 -0.069687
v 0.178601 0.105945 -0.035526
v 0.182100 0.105945 -0.000000
v 0.178601 0.105945 0.035526
v 0.168238 0.105945 0.069687
v 0.151410 0.105945 0.101169
v 0.128764 0.105945 0.128764
v 0.101169 0.105945 0.151410
v 0.069687 0.105945 0.168238
v 0.035526 0.105945 0.178601
v 0.000000 0.105945 0.182100
v -0.035526 0.105945 0.178601
v -0.069687 0.105945 0.168238
v -0.101169 0.105945 0.151410
v -0.128764 0.105945 0.128764
v -0.151410 0.105945 0.101169
v -0.168238 0.105945 0.069687
v -0.178601 0.105945 0.035526
v -0.182100 0.105945 -0.000000
v -0.178601 0.105945 -0.035526
v -0.168238 0.105945 -0.069687
v -0.151410 0.105945 -0.101169
v -0.128764 0.105945 -0.128764
v -0.101169 0.105945 -0.151410
v -0.069687 0.105945 -0.168238
v -0.035526 0.105945 -0.178601
v 0.038241 0.222615 -0.192252
v 0.000000 0.222615 -0.196019
v 0.075013 0.222615 -0.181098
v 0.108902 0.222615 -0.162984
v 0.138606 0.222615 -0.138606
v 0.162984 0.222615 -0.108902
v 0.181098 0.222615 -0.075013
v 0.192252 0.222615 -0.038241
v 0.196019 0.222615 -0.000000
v 0.192252 0.222615 0.038241
v 0.181098 0.222615 0.075013
v 0.162984 0.222615 0.108902
v 0.138606 0.222615 0.138606
v 0.108902 0.222615 0.162984
v 0.075013 0.222615 0.181098
v 0.038241 0.222615 0.192252
v 0.000000 0.222615 0.196019
v -0.038241 0.222615 0.192252
v -0.075013 0.222615 0.181098
v -0.108902 0.222615 0.162984
v -0.138606 0.222615 0.138606
v -0.162984 0.222615 0.108902
v -0.181098 0.222615 0.075013
v -0.192252 0.222615 0.038241
v -0.196019 0.222615 -0.000000
v -0.192252 0.222615 -0.038241
v -0.181098 0.222615 -0.075013
v -0.162984 0.222615 -0.108902
v -0.138606 0.222615 -0.138606
v -0.108902 0.222615 -0.162984
v -0.075013 0.222615 -0.181098
v -0.038241 0.222615 -0.192252
v 0.048816 0.481191 -0.245416
v -0.000000 0.481191 -0.250224
v 0.095757 0.481191 -0.231177
v 0.139017 0.481191 -0.208054
v 0.176935 0.481191 -0.176935
v 0.208054 0.481191 -0.139017
v 0.231177 0.481191 -0.095757
v 0.245416 0.481191 -0.048816
v 0.250224 0.481191 -0.000000
v 0.245416 0.481191 0.048816
v 0.231177 0.481191 0.095757
v 0.208054 0.481191 0.139017
v 0.176935 0.481191 0.176935
v 0.139017 0.481191 0.208054
v 0.095757 0.481191 0.231177
v 0.048816 0.481191 0.245416
v -0.000000 0.481191 0.250224
v -0.048816 0.481191 0.245416
v -0.095757 0.481191 0.231177
v -0.139017 0.481191 0.208054
v -0.176935 0.481191 0.176935
v -0.208054 0.481191 0.139017
v -0.231177 0.481191 0.095757
v -0.245416 0.481191 0.048816
v -0.250224 0.481191 -0.000000
v -0.245416 0.481191 -0.048816
v -0.231177 0.481191 -0.095757
v -0.208054 0.481191 -0.139017
v -0.176935 0.481191 -0.176935
v -0.139017 0.481191 -0.208054
v -0.095757 0.481191 -0.231177
v -0.048816 0.481191 -0.245416
v 0.059590 0.972421 -0.299577
v 0.000000 0.972421 -0.305446
v 0.116889 0.972421 -0.282195
v 0.169697 0.972421 -0.253969
v 0.215983 0.972421 -0.215983
v 0.253969 0.972421 -0.169697
v 0.282195 0.972421 -0.116889
v 0.299577 0.972421 -0.059589
v 0.305446 0.972421 -0.000000
v 0.299577 0.972421 0.059589
v 0.282195 0.972421 0.116889
v 0.253969 0.972421 0.169697
v 0.215983 0.972421 0.215983
v 0.169697 0.972421 0.253969
v 0.116889 0.972421 0.282195
v 0.059590 0.972421 0.299577
v 0.000000 0.972421 0.305446
v -0.059589 0.972421 0.299577
v -0.116889 0.972421 0.282195
v -0.169696 0.972421 0.253969
v -0.215983 0.972421 0.215983
v -0.253969 0.972421 0.169697
v -0.282195 0.972421 0.116889
v -0.299577 0.972421 0.059589
v -0.305446 0.972421 -0.000000
v -0.299577 0.972421 -0.059589
v -0.282195 0.972421 -0.116889
v -0.253969 0.972421 -0.169697
v -0.215983 0.972421 -0.215983
v -0.169696 0.972421 -0.253969
v -0.116889 0.972421 -0.282195
v -0.059589 0.972421 -0.299577
v 0.059269 1.719618 -0.297964
v 0.000000 1.719618 -0.303802
v 0.116260 1.719618 -0.280676
v 0.168783 1.719618 -0.252602
v 0.214820 1.719618 -0.214820
v 0.252602 1.719618 -0.168783
v 0.280676 1.719618 -0.116260
v 0.297964 1.719618 -0.059269
v 0.303802 1.719618 -0.000000
v 0.297964 1.719618 0.059269
v 0.280676 1.719618 0.116260
v 0.252602 1.719618 0.168783
v 0.214820 1.719618 0.214820
v 0.168783 1.719618 0.252602
v 0.116260 1.719618 0.280676
v 0.059269 1.719618 0.297964
v 0.000000 1.719618 0.303802
v -0.059269 1.719618 0.297964
v -0.116260 1.719618 0.280676
v -0.168783 1.719618 0.252602
v -0.214820 1.719618 0.214820
v -0.252602 1.719618 0.168783
v -0.280676 1.719618 0.116260
v -0.297964 1.719618 0.059269
v -0.303801 1.719618 -0.000000
v -0.297964 1.719618 -0.059269
v -0.280676 1.719618 -0.116260
v -0.252602 1.719618 -0.168783
v -0.214820 1.719618 -0.214820
v -0.168783 1.719618 -0.252602
v -0.116260 1.719618 -0.280676
v -0.059269 1.719618 -0.297964
v 0.064169 1.719618 -0.322597
v 0.000000 1.719618 -0.328917
v 0.125871 1.719618 -0.303880
v 0.182737 1.719618 -0.273485
v 0.232580 1.719618 -0.232580
v 0.273485 1.719618 -0.182737
v 0.303880 1.719618 -0.125871
v 0.322598 1.719618 -0.064169
v 0.328918 1.719618 -0.000000
v 0.322598 1.719618 0.064169
v 0.303880 1.719618 0.125871
v 0.273485 1.719618 0.182737
v 0.232580 1.719618 0.232580
v 0.182737 1.719618 0.273485
v 0.125871 1.719618 0.303880
v 0.064169 1.719618 0.322597
v 0.000000 1.719618 0.328917
v -0.064168 1.719618 0.322597
v -0.125871 1.719618 0.303880
v -0.182737 1.719618 0.273485
v -0.232580 1.719618 0.232580
v -0.273485 1.719618 0.182737
v -0.303880 1.719618 0.125871
v -0.322597 1.719618 0.064169
v -0.328917 1.719618 -0.000000
v -0.322597 1.719618 -0.064169
v -0.303880 1.719618 -0.125871
v -0.273485 1.719618 -0.182737
v -0.232580 1.719618 -0.232580
v -0.182737 1.719618 -0.273485
v -0.125871 1.719618 -0.303880
v -0.064168 1.719618 -0.322597
v 0.027373 0.174583 -0.137608
v 0.000001 0.174583 -0.140304
v 0.053693 0.174583 -0.129624
v 0.077949 0.174583 -0.116659
v 0.099211 0.174583 -0.099210
v 0.116659 0.174583 -0.077949
v 0.129625 0.174583 -0.053692
v 0.137609 0.174583 -0.027372
v 0.140305 0.174583 0.000000
v 0.137609 0.174583 0.027372
v 0.129625 0.174583 0.053692
v 0.116659 0.174583 0.077949
v 0.099211 0.174583 0.099210
v 0.077949 0.174583 0.116659
v 0.053693 0.174583 0.129624
v 0.027373 0.174583 0.137608
v 0.000001 0.174583 0.140304
v -0.027371 0.174583 0.137608
v -0.053692 0.174583 0.129624
v -0.077948 0.174583 0.116659
v -0.099209 0.174583 0.099210
v -0.116658 0.174583 0.077949
v -0.129624 0.174583 0.053692
v -0.137608 0.174583 0.027372
v -0.140304 0.174583 0.000000
v -0.137608 0.174583 -0.027372
v -0.129624 0.174583 -0.053692
v -0.116658 0.174583 -0.077949
v -0.099209 0.174583 -0.099210
v -0.077948 0.174583 -0.116659
v -0.053692 0.174583 -0.129624
v -0.027371 0.174583 -0.137608
vn 0.0879 0.4428 -0.8923
vn 0.2603 0.4428 -0.8580
vn 0.4227 0.4428 -0.7907
vn 0.5688 0.4428 -0.6931
vn 0.6931 0.4428 -0.5688
vn 0.7907 0.4428 -0.4227
vn 0.8580 0.4428 -0.2603
vn 0.8923 0.4428 -0.0879
vn 0.8923 0.4428 0.0879
vn 0.8580 0.4428 0.2603
vn 0.7907 0.4428 0.4227
vn 0.6931 0.4428 0.5688
vn 0.5688 0.4428 0.6931
vn 0.4227 0.4428 0.7907
vn 0.2603 0.4428 0.8580
vn 0.0879 0.4428 0.8923
vn -0.0879 0.4428 0.8923
vn -0.2603 0.4428 0.8580
vn -0.4227 0.4428 0.7907
vn -0.5688 0.4428 0.6931
vn -0.6931 0.4428 0.5688
vn -0.7907 0.4428 0.4227
vn -0.8580 0.4428 0.2603
vn -0.8923 0.4428 0.0879
vn -0.8923 0.4428 -0.0879
vn -0.8580 0.4428 -0.2603
vn -0.7907 0.4428 -0.4227
vn -0.6931 0.4428 -0.5688
vn -0.5688 0.4428 -0.6931
vn -0.4227 0.4428 -0.7907
vn -0.2908 0.9441 -0.1554
vn -0.2603 0.4428 -0.8580
vn -0.0879 0.4428 -0.8923
vn -0.0000 -1.0000 -0.0000
vn -0.0678 0.7224 0.6882
vn 0.2549 0.9441 -0.2092
vn 0.1554 0.9441 0.2908
vn -0.3155 0.9441 0.0957
vn 0.0323 0.9441 -0.3282
vn -0.0323 0.9441 -0.3282
vn 0.3155 0.9441 0.0957
vn -0.1554 0.9441 0.2908
vn -0.2549 0.9441 -0.2092
vn 0.2908 0.9441 -0.1554
vn 0.0957 0.9441 0.3155
vn -0.3282 0.9441 0.0323
vn 0.0957 0.9441 -0.3155
vn 0.2908 0.9441 0.1554
vn -0.2092 0.9441 0.2549
vn -0.2092 0.9441 -0.2549
vn 0.3155 0.9441 -0.0957
vn 0.0323 0.9441 0.3282
vn -0.3282 0.9441 -0.0323
vn 0.1554 0.9441 -0.2908
vn 0.2549 0.9441 0.2092
vn -0.2549 0.9441 0.2092
vn -0.1554 0.9441 -0.2908
vn 0.3282 0.9441 -0.0323
vn -0.0323 0.9441 0.3282
vn -0.3155 0.9441 -0.0957
vn 0.2092 0.9441 -0.2549
vn 0.2092 0.9441 0.2549
vn -0.2908 0.9441 0.1554
vn -0.0957 0.9441 -0.3155
vn 0.3282 0.9441 0.0323
vn -0.0957 0.9441 0.3155
vn -0.6300 -0.1179 0.7676
vn 0.4387 0.7224 -0.5346
vn -0.2007 0.7224 -0.6617
vn -0.2007 0.7224 0.6617
vn 0.5346 0.7224 -0.4387
vn -0.0678 0.7224 -0.6882
vn -0.3260 0.7224 0.6099
vn 0.6099 0.7224 -0.3260
vn -0.4387 0.7224 0.5346
vn 0.6617 0.7224 -0.2007
vn -0.5346 0.7224 0.4387
vn 0.6882 0.7224 -0.0678
vn -0.6099 0.7224 0.3260
vn 0.6882 0.7224 0.0678
vn -0.6617 0.7224 0.2007
vn 0.6617 0.7224 0.2007
vn -0.6882 0.7224 0.0678
vn 0.6099 0.7224 0.3260
vn -0.6882 0.7224 -0.0678
vn 0.5346 0.7224 0.4387
vn -0.6617 0.7224 -0.2007
vn 0.4387 0.7224 0.5346
vn -0.6099 0.7224 -0.3260
vn 0.3260 0.7224 0.6099
vn 0.0678 0.7224 -0.6882
vn -0.5346 0.7224 -0.4387
vn 0.2007 0.7224 0.6617
vn 0.2007 0.7224 -0.6617
vn -0.4387 0.7224 -0.5346
vn 0.0678 0.7224 0.6882
vn 0.3260 0.7224 -0.6099
vn -0.3260 0.7224 -0.6099
vn -0.9368 -0.2042 0.2842
vn 0.9503 -0.1179 -0.2883
vn -0.7676 -0.1179 0.6300
vn 0.9882 -0.1179 -0.0973
vn -0.8758 -0.1179 0.4681
vn 0.9882 -0.1179 0.0973
vn -0.9503 -0.1179 0.2883
vn 0.9503 -0.1179 0.2883
vn -0.9882 -0.1179 0.0973
vn 0.8758 -0.1179 0.4681
vn -0.9882 -0.1179 -0.0973
vn 0.7676 -0.1179 0.6300
vn -0.9503 -0.1179 -0.2883
vn 0.6300 -0.1179 0.7676
vn -0.8758 -0.1179 -0.4681
vn 0.4681 -0.1179 0.8758
vn 0.0973 -0.1179 -0.9882
vn -0.7676 -0.1179 -0.6300
vn 0.2883 -0.1179 0.9503
vn 0.2883 -0.1179 -0.9503
vn -0.6300 -0.1179 -0.7676
vn 0.0973 -0.1179 0.9882
vn 0.4681 -0.1179 -0.8758
vn -0.4681 -0.1179 -0.8758
vn -0.0973 -0.1179 0.9882
vn 0.6300 -0.1179 -0.7676
vn -0.2883 -0.1179 -0.9503
vn -0.2883 -0.1179 0.9503
vn 0.7676 -0.1179 -0.6300
vn -0.0973 -0.1179 -0.9882
vn -0.4681 -0.1179 0.8758
vn 0.8758 -0.1179 -0.4681
vn -0.9510 -0.1112 -0.2885
vn 0.9368 -0.2042 0.2842
vn -0.9742 -0.2042 0.0960
vn 0.8633 -0.2042 0.4615
vn -0.9742 -0.2042 -0.0960
vn 0.7567 -0.2042 0.6210
vn -0.9368 -0.2042 -0.2842
vn 0.6210 -0.2042 0.7567
vn -0.8633 -0.2042 -0.4615
vn 0.4615 -0.2042 0.8633
vn 0.0960 -0.2042 -0.9742
vn -0.7567 -0.2042 -0.6210
vn 0.2842 -0.2042 0.9368
vn 0.2842 -0.2042 -0.9368
vn -0.6210 -0.2042 -0.7567
vn 0.0960 -0.2042 0.9742
vn 0.4615 -0.2042 -0.8633
vn -0.4615 -0.2042 -0.8633
vn -0.0960 -0.2042 0.9742
vn 0.6210 -0.2042 -0.7567
vn -0.2842 -0.2042 -0.9368
vn -0.2842 -0.2042 0.9368
vn 0.7567 -0.2042 -0.6210
vn -0.0960 -0.2042 -0.9742
vn -0.4615 -0.2042 0.8633
vn 0.8633 -0.2042 -0.4615
vn -0.6210 -0.2042 0.7567
vn 0.9368 -0.2042 -0.2842
vn -0.7567 -0.2042 0.6210
vn 0.9742 -0.2042 -0.0960
vn -0.8633 -0.2042 0.4615
vn 0.9742 -0.2042 0.0960
vn 0.2901 -0.0312 -0.9565
vn 0.6305 -0.1112 0.7682
vn -0.8765 -0.1112 -0.4685
vn 0.4685 -0.1112 0.8765
vn 0.0974 -0.1112 -0.9890
vn -0.7682 -0.1112 -0.6305
vn 0.2885 -0.1112 0.9510
vn 0.2885 -0.1112 -0.9510
vn -0.6305 -0.1112 -0.7682
vn 0.0974 -0.1112 0.9890
vn 0.4685 -0.1112 -0.8765
vn -0.4685 -0.1112 -0.8765
vn -0.0974 -0.1112 0.9890
vn 0.6305 -0.1112 -0.7682
vn -0.2885 -0.1112 -0.9510
vn -0.2885 -0.1112 0.9510
vn 0.7682 -0.1112 -0.6305
vn -0.0974 -0.1112 -0.9890
vn -0.4685 -0.1112 0.8765
vn 0.8765 -0.1112 -0.4685
vn -0.6305 -0.1112 0.7682
vn 0.9510 -0.1112 -0.2885
vn -0.7682 -0.1112 0.6305
vn 0.9890 -0.1112 -0.0974
vn -0.8765 -0.1112 0.4685
vn 0.9890 -0.1112 0.0974
vn -0.9510 -0.1112 0.2885
vn 0.9510 -0.1112 0.2885
vn -0.9890 -0.1112 0.0974
vn 0.8765 -0.1112 0.4685
vn -0.9890 -0.1112 -0.0974
vn 0.7682 -0.1112 0.6305
vn 0.0975 0.1047 0.9897
vn -0.6341 -0.0312 -0.7726
vn 0.0980 -0.0312 0.9947
vn 0.4712 -0.0312 -0.8815
vn -0.4712 -0.0312 -0.8815
vn -0.0980 -0.0312 0.9947
vn 0.6341 -0.0312 -0.7726
vn -0.2901 -0.0312 -0.9565
vn -0.2901 -0.0312 0.9565
vn 0.7726 -0.0312 -0.6341
vn -0.0980 -0.0312 -0.9947
vn -0.4712 -0.0312 0.8815
vn 0.8815 -0.0312 -0.4712
vn -0.6341 -0.0312 0.7726
vn 0.9565 -0.0312 -0.2901
vn -0.7726 -0.0312 0.6341
vn 0.9947 -0.0312 -0.0980
vn -0.8815 -0.0312 0.4712
vn 0.9947 -0.0312 0.0980
vn -0.9565 -0.0312 0.2901
vn 0.9565 -0.0312 0.2901
vn -0.9947 -0.0312 0.0980
vn 0.8815 -0.0312 0.4712
vn -0.9947 -0.0312 -0.0980
vn 0.7726 -0.0312 0.6341
vn -0.9565 -0.0312 -0.2901
vn 0.6341 -0.0312 0.7726
vn -0.8815 -0.0312 -0.4712
vn 0.4712 -0.0312 0.8815
vn 0.0980 -0.0312 -0.9947
vn -0.7726 -0.0312 -0.6341
vn 0.2901 -0.0312 0.9565
vn -0.0000 1.0000 -0.0000
vn 0.4688 0.1047 -0.8771
vn -0.8771 0.1047 0.4688
vn 0.6309 0.1047 -0.7688
vn -0.9517 0.1047 0.2887
vn 0.7688 0.1047 -0.6309
vn -0.9897 0.1047 0.0975
vn 0.8771 0.1047 -0.4688
vn -0.9897 0.1047 -0.0975
vn 0.9517 0.1047 -0.2887
vn -0.9517 0.1047 -0.2887
vn 0.9897 0.1047 -0.0975
vn -0.8771 0.1047 -0.4688
vn 0.9897 0.1047 0.0975
vn -0.7688 0.1047 -0.6309
vn 0.9517 0.1047 0.2887
vn -0.6309 0.1047 -0.7688
vn 0.8771 0.1047 0.4688
vn -0.4688 0.1047 -0.8771
vn -0.0975 0.1047 0.9897
vn 0.7688 0.1047 0.6309
vn -0.2887 0.1047 -0.9517
vn -0.2887 0.1047 0.9517
vn 0.6309 0.1047 0.7688
vn -0.0975 0.1047 -0.9897
vn -0.4688 0.1047 0.8771
vn 0.4688 0.1047 0.8771
vn 0.0975 0.1047 -0.9897
vn -0.6309 0.1047 0.7688
vn 0.2887 0.1047 0.9517
vn 0.2887 0.1047 -0.9517
vn -0.7688 0.1047 0.6309
vt 1.000000 0.500000
vt 0.000000 0.500000
vt 0.750000 0.490000
vt 0.000000 1.000000
vt 1.000000 1.000000
vt 0.968750 0.500000
vt 0.796822 0.485388
vt 0.968750 1.000000
vt 0.937500 0.500000
vt 0.841844 0.471731
vt 0.937500 1.000000
vt 0.906250 0.500000
vt 0.883337 0.449553
vt 0.906250 1.000000
vt 0.875000 0.500000
vt 0.919706 0.419706
vt 0.875000 1.000000
vt 0.843750 0.500000
vt 0.949553 0.383337
vt 0.843750 1.000000
vt 0.812500 0.500000
vt 0.971731 0.341844
vt 0.812500 1.000000
vt 0.781250 0.500000
vt 0.985388 0.296822
vt 0.781250 1.000000
vt 0.750000 0.500000
vt 0.990000 0.250000
vt 0.750000 1.000000
vt 0.718750 0.500000
vt 0.985388 0.203178
vt 0.718750 1.000000
vt 0.687500 0.500000
vt 0.971731 0.158156
vt 0.687500 1.000000
vt 0.656250 0.500000
vt 0.949553 0.116663
vt 0.656250 1.000000
vt 0.625000 0.500000
vt 0.919706 0.080294
vt 0.625000 1.000000
vt 0.593750 0.500000
vt 0.883337 0.050447
vt 0.593750 1.000000
vt 0.562500 0.500000
vt 0.841844 0.028269
vt 0.562500 1.000000
vt 0.531250 0.500000
vt 0.796822 0.014612
vt 0.531250 1.000000
vt 0.500000 0.500000
vt 0.750000 0.010000
vt 0.500000 1.000000
vt 0.468750 0.500000
vt 0.703178 0.014612
vt 0.468750 1.000000
vt 0.437500 0.500000
vt 0.658156 0.028269
vt 0.437500 1.000000
vt 0.406250 0.500000
vt 0.616663 0.050447
vt 0.406250 1.000000
vt 0.375000 0.500000
vt 0.580294 0.080294
vt 0.375000 1.000000
vt 0.343750 0.500000
vt 0.550447 0.116663
vt 0.343750 1.000000
vt 0.312500 0.500000
vt 0.528269 0.158156
vt 0.312500 1.000000
vt 0.281250 0.500000
vt 0.514612 0.203178
vt 0.281250 1.000000
vt 0.250000 0.500000
vt 0.510000 0.250000
vt 0.250000 1.000000
vt 0.218750 0.500000
vt 0.514612 0.296822
vt 0.218750 1.000000
vt 0.187500 0.500000
vt 0.528269 0.341844
vt 0.187500 1.000000
vt 0.156250 0.500000
vt 0.550447 0.383337
vt 0.156250 1.000000
vt 0.125000 0.500000
vt 0.580294 0.419706
vt 0.125000 1.000000
vt 0.093750 0.500000
vt 0.616663 0.449553
vt 0.093750 1.000000
vt 0.062500 0.500000
vt 0.658156 0.471731
vt 0.062500 1.000000
vt 0.031250 0.500000
vt 0.703178 0.485388
vt 0.031250 1.000000
vt 0.968750 1.000000
vt 0.000000 1.000000
vt 1.000000 1.000000
vt 0.937500 1.000000
vt 0.906250 1.000000
vt 0.875000 1.000000
vt 0.843750 1.000000
vt 0.812500 1.000000
vt 0.781250 1.000000
vt 0.750000 1.000000
vt 0.718750 1.000000
vt 0.687500 1.000000
vt 0.656250 1.000000
vt 0.625000 1.000000
vt 0.593750 1.000000
vt 0.562500 1.000000
vt 0.531250 1.000000
vt 0.500000 1.000000
vt 0.468750 1.000000
vt 0.437500 1.000000
vt 0.406250 1.000000
vt 0.375000 1.000000
vt 0.343750 1.000000
vt 0.312500 1.000000
vt 0.281250 1.000000
vt 0.250000 1.000000
vt 0.218750 1.000000
vt 0.187500 1.000000
vt 0.156250 1.000000
vt 0.125000 1.000000
vt 0.093750 1.000000
vt 0.062500 1.000000
vt 0.031250 1.000000
vt 0.968750 1.000000
vt 0.000000 1.000000
vt 1.000000 1.000000
vt 0.937500 1.000000
vt 0.906250 1.000000
vt 0.875000 1.000000
vt 0.843750 1.000000
vt 0.812500 1.000000
vt 0.781250 1.000000
vt 0.750000 1.000000
vt 0.718750 1.000000
vt 0.687500 1.000000
vt 0.656250 1.000000
vt 0.625000 1.000000
vt 0.593750 1.000000
vt 0.562500 1.000000
vt 0.531250 1.000000
vt 0.500000 1.000000
vt 0.468750 1.000000
vt 0.437500 1.000000
vt 0.406250 1.000000
vt 0.375000 1.000000
vt 0.343750 1.000000
vt 0.312500 1.000000
vt 0.281250 1.000000
vt 0.250000 1.000000
vt 0.218750 1.000000
vt 0.187500 1.000000
vt 0.156250 1.000000
vt 0.125000 1.000000
vt 0.093750 1.000000
vt 0.062500 1.000000
vt 0.031250 1.000000
vt 0.968750 1.000000
vt 1.000000 1.000000
vt 0.000000 1.000000
vt 0.937500 1.000000
vt 0.906250 1.000000
vt 0.875000 1.000000
vt 0.843750 1.000000
vt 0.812500 1.000000
vt 0.781250 1.000000
vt 0.750000 1.000000
vt 0.718750 1.000000
vt 0.687500 1.000000
vt 0.656250 1.000000
vt 0.625000 1.000000
vt 0.593750 1.000000
vt 0.562500 1.000000
vt 0.531250 1.000000
vt 0.500000 1.000000
vt 0.468750 1.000000
vt 0.437500 1.000000
vt 0.406250 1.000000
vt 0.375000 1.000000
vt 0.343750 1.000000
vt 0.312500 1.000000
vt 0.281250 1.000000
vt 0.250000 1.000000
vt 0.218750 1.000000
vt 0.187500 1.000000
vt 0.156250 1.000000
vt 0.125000 1.000000
vt 0.093750 1.000000
vt 0.062500 1.000000
vt 0.031250 1.000000
vt 0.968750 1.000000
vt 0.000000 1.000000
vt 1.000000 1.000000
vt 0.937500 1.000000
vt 0.906250 1.000000
vt 0.875000 1.000000
vt 0.843750 1.000000
vt 0.812500 1.000000
vt 0.781250 1.000000
vt 0.750000 1.000000
vt 0.718750 1.000000
vt 0.687500 1.000000
vt 0.656250 1.000000
vt 0.625000 1.000000
vt 0.593750 1.000000
vt 0.562500 1.000000
vt 0.531250 1.000000
vt 0.500000 1.000000
vt 0.468750 1.000000
vt 0.437500 1.000000
vt 0.406250 1.000000
vt 0.375000 1.000000
vt 0.343750 1.000000
vt 0.312500 1.000000
vt 0.281250 1.000000
vt 0.250000 1.000000
vt 0.218750 1.000000
vt 0.187500 1.000000
vt 0.156250 1.000000
vt 0.125000 1.000000
vt 0.093750 1.000000
vt 0.062500 1.000000
vt 0.031250 1.000000
vt 0.968750 1.000000
vt 0.000000 1.000000
vt 1.000000 1.000000
vt 0.937500 1.000000
vt 0.906250 1.000000
vt 0.875000 1.000000
vt 0.843750 1.000000
vt 0.812500 1.000000
vt 0.781250 1.000000
vt 0.750000 1.000000
vt 0.718750 1.000000
vt 0.687500 1.000000
vt 0.656250 1.000000
vt 0.625000 1.000000
vt 0.593750 1.000000
vt 0.562500 1.000000
vt 0.531250 1.000000
vt 0.500000 1.000000
vt 0.468750 1.000000
vt 0.437500 1.000000
vt 0.406250 1.000000
vt 0.375000 1.000000
vt 0.343750 1.000000
vt 0.312500 1.000000
vt 0.281250 1.000000
vt 0.250000 1.000000
vt 0.218750 1.000000
vt 0.187500 1.000000
vt 0.156250 1.000000
vt 0.125000 1.000000
vt 0.093750 1.000000
vt 0.062500 1.000000
vt 0.031250 1.000000
vt 0.287357 0.437804
vt 0.250000 0.441483
vt 0.323277 0.426907
vt 0.356382 0.409212
vt 0.385399 0.385399
vt 0.409212 0.356382
vt 0.426907 0.323277
vt 0.437804 0.287356
vt 0.441483 0.250000
vt 0.437804 0.212644
vt 0.426907 0.176723
vt 0.409212 0.143618
vt 0.385399 0.114601
vt 0.356382 0.090788
vt 0.323277 0.073093
vt 0.287357 0.062196
vt 0.250000 0.058517
vt 0.212643 0.062196
vt 0.176723 0.073093
vt 0.143618 0.090788
vt 0.114601 0.114601
vt 0.090788 0.143618
vt 0.073093 0.176723
vt 0.062196 0.212643
vt 0.058517 0.250000
vt 0.062196 0.287356
vt 0.073093 0.323277
vt 0.090788 0.356382
vt 0.114601 0.385399
vt 0.143618 0.409212
vt 0.176723 0.426907
vt 0.212643 0.437804
vt 0.968750 1.000000
vt 0.296822 0.485388
vt 0.000000 1.000000
vt 1.000000 1.000000
vt 0.250000 0.490000
vt 0.937500 1.000000
vt 0.341844 0.471731
vt 0.906250 1.000000
vt 0.383337 0.449553
vt 0.875000 1.000000
vt 0.419706 0.419706
vt 0.843750 1.000000
vt 0.449553 0.383337
vt 0.812500 1.000000
vt 0.471731 0.341844
vt 0.781250 1.000000
vt 0.485388 0.296822
vt 0.750000 1.000000
vt 0.490000 0.250000
vt 0.718750 1.000000
vt 0.485388 0.203178
vt 0.687500 1.000000
vt 0.471731 0.158156
vt 0.656250 1.000000
vt 0.449553 0.116663
vt 0.625000 1.000000
vt 0.419706 0.080294
vt 0.593750 1.000000
vt 0.383337 0.050447
vt 0.562500 1.000000
vt 0.341844 0.028269
vt 0.531250 1.000000
vt 0.296822 0.014612
vt 0.500000 1.000000
vt 0.250000 0.010000
vt 0.468750 1.000000
vt 0.203178 0.014612
vt 0.437500 1.000000
vt 0.158156 0.028269
vt 0.406250 1.000000
vt 0.116663 0.050447
vt 0.375000 1.000000
vt 0.080294 0.080294
vt 0.343750 1.000000
vt 0.050447 0.116663
vt 0.312500 1.000000
vt 0.028269 0.158156
vt 0.281250 1.000000
vt 0.014612 0.203178
vt 0.250000 1.000000
vt 0.010000 0.250000
vt 0.218750 1.000000
vt 0.014612 0.296822
vt 0.187500 1.000000
vt 0.028269 0.341844
vt 0.156250 1.000000
vt 0.050447 0.383337
vt 0.125000 1.000000
vt 0.080294 0.419706
vt 0.093750 1.000000
vt 0.116663 0.449553
vt 0.062500 1.000000
vt 0.158156 0.471731
vt 0.031250 1.000000
vt 0.203178 0.485388
vt 0.287357 0.437804
vt 0.250000 0.441483
vt 0.323277 0.426907
vt 0.356382 0.409212
vt 0.385399 0.385399
vt 0.409212 0.356382
vt 0.426907 0.323277
vt 0.437804 0.287356
vt 0.441483 0.250000
vt 0.437804 0.212644
vt 0.426907 0.176723
vt 0.409212 0.143618
vt 0.385399 0.114601
vt 0.356382 0.090788
vt 0.323277 0.073093
vt 0.287357 0.062196
vt 0.250000 0.058517
vt 0.212643 0.062196
vt 0.176723 0.073093
vt 0.143618 0.090788
vt 0.114601 0.114601
vt 0.090788 0.143618
vt 0.073093 0.176723
vt 0.062196 0.212643
vt 0.058517 0.250000
vt 0.062196 0.287356
vt 0.073093 0.323277
vt 0.090788 0.356382
vt 0.114601 0.385399
vt 0.143618 0.409212
vt 0.176723 0.426907
vt 0.212643 0.437804
s 0
f 1/1/1 4/8/1 3/6/1
f 3/6/2 6/11/2 5/9/2
f 6/11/3 7/12/3 5/9/3
f 8/14/4 9/15/4 7/12/4
f 10/17/5 11/18/5 9/15/5
f 12/20/6 13/21/6 11/18/6
f 14/23/7 15/24/7 13/21/7
f 16/26/8 17/27/8 15/24/8
f 17/27/9 20/32/9 19/30/9
f 19/30/10 22/35/10 21/33/10
f 22/35/11 23/36/11 21/33/11
f 24/38/12 25/39/12 23/36/12
f 26/41/13 27/42/13 25/39/13
f 28/44/14 29/45/14 27/42/14
f 30/47/15 31/48/15 29/45/15
f 32/50/16 33/51/16 31/48/16
f 33/51/17 36/56/17 35/54/17
f 35/54/18 38/59/18 37/57/18
f 38/59/19 39/60/19 37/57/19
f 40/62/20 41/63/20 39/60/20
f 42/65/21 43/66/21 41/63/21
f 44/68/22 45/69/22 43/66/22
f 46/71/23 47/72/23 45/69/23
f 48/74/24 49/75/24 47/72/24
f 49/75/25 52/80/25 51/78/25
f 51/78/26 54/83/26 53/81/26
f 54/83/27 55/84/27 53/81/27
f 56/86/28 57/87/28 55/84/28
f 58/89/29 59/90/29 57/87/29
f 60/92/30 61/93/30 59/90/30
f 56/86/31 91/126/31 92/127/31
f 62/95/32 63/96/32 61/93/32
f 64/98/33 1/2/33 63/96/33
f 31/49/34 47/73/34 63/97/34
f 82/117/35 113/149/35 114/150/35
f 10/17/36 70/105/36 12/20/36
f 28/44/37 79/114/37 30/47/37
f 48/74/38 87/122/38 88/123/38
f 4/8/39 66/101/39 65/99/39
f 64/98/40 66/100/40 2/4/40
f 20/32/41 75/110/41 22/35/41
f 40/62/42 83/118/42 84/119/42
f 56/86/43 93/128/43 58/89/43
f 12/20/44 71/106/44 14/23/44
f 32/50/45 79/114/45 80/115/45
f 48/74/46 89/124/46 50/77/46
f 4/8/47 67/102/47 6/11/47
f 24/38/48 75/110/48 76/111/48
f 40/62/49 85/120/49 42/65/49
f 58/89/50 94/129/50 60/92/50
f 16/26/51 71/106/51 72/107/51
f 32/50/52 81/116/52 34/53/52
f 52/80/53 89/124/53 90/125/53
f 8/14/54 67/102/54 68/103/54
f 24/38/55 77/112/55 26/41/55
f 42/65/56 86/121/56 44/68/56
f 60/92/57 95/130/57 62/95/57
f 16/26/58 73/108/58 18/29/58
f 36/56/59 81/116/59 82/117/59
f 52/80/60 91/126/60 54/83/60
f 8/14/61 69/104/61 10/17/61
f 26/41/62 78/113/62 28/44/62
f 44/68/63 87/122/63 46/71/63
f 64/98/64 95/130/64 96/131/64
f 20/32/65 73/108/65 74/109/65
f 36/56/66 83/118/66 38/59/66
f 117/153/67 148/185/67 149/186/67
f 68/103/68 101/137/68 69/104/68
f 96/131/69 127/163/69 128/164/69
f 82/117/70 115/151/70 83/118/70
f 69/104/71 102/138/71 70/105/71
f 96/131/72 98/133/72 66/100/72
f 84/119/73 115/151/73 116/152/73
f 70/105/74 103/139/74 71/106/74
f 84/119/75 117/153/75 85/120/75
f 72/107/76 103/139/76 104/140/76
f 85/120/77 118/154/77 86/121/77
f 72/107/78 105/141/78 73/108/78
f 86/121/79 119/155/79 87/122/79
f 74/109/80 105/141/80 106/142/80
f 88/123/81 119/155/81 120/156/81
f 74/109/82 107/143/82 75/110/82
f 88/123/83 121/157/83 89/124/83
f 76/111/84 107/143/84 108/144/84
f 90/125/85 121/157/85 122/158/85
f 76/111/86 109/145/86 77/112/86
f 90/125/87 123/159/87 91/126/87
f 77/112/88 110/146/88 78/113/88
f 92/127/89 123/159/89 124/160/89
f 78/113/90 111/147/90 79/114/90
f 65/99/91 98/134/91 97/132/91
f 92/127/92 125/161/92 93/128/92
f 80/115/93 111/147/93 112/148/93
f 65/99/94 99/135/94 67/102/94
f 93/128/95 126/162/95 94/129/95
f 80/115/96 113/149/96 81/116/96
f 68/103/97 99/135/97 100/136/97
f 94/129/98 127/163/98 95/130/98
f 151/188/99 184/222/99 152/189/99
f 103/139/100 136/173/100 104/140/100
f 118/154/101 149/186/101 150/187/101
f 104/140/102 137/174/102 105/141/102
f 118/154/103 151/188/103 119/155/103
f 105/141/104 138/175/104 106/142/104
f 119/155/105 152/189/105 120/156/105
f 106/142/106 139/176/106 107/143/106
f 120/156/107 153/190/107 121/157/107
f 107/143/108 140/177/108 108/144/108
f 121/157/109 154/191/109 122/158/109
f 109/145/110 140/177/110 141/178/110
f 122/158/111 155/192/111 123/159/111
f 110/146/112 141/178/112 142/179/112
f 124/160/113 155/192/113 156/193/113
f 110/146/114 143/180/114 111/147/114
f 98/134/115 129/165/115 97/132/115
f 125/161/116 156/193/116 157/194/116
f 111/147/117 144/181/117 112/148/117
f 97/132/118 131/168/118 99/135/118
f 126/162/119 157/194/119 158/195/119
f 112/148/120 145/182/120 113/149/120
f 99/135/121 132/169/121 100/136/121
f 126/162/122 159/196/122 127/163/122
f 113/149/123 146/183/123 114/150/123
f 101/137/124 132/169/124 133/170/124
f 127/163/125 160/197/125 128/164/125
f 114/150/126 147/184/126 115/151/126
f 102/138/127 133/170/127 134/171/127
f 128/164/128 130/167/128 98/133/128
f 115/151/129 148/185/129 116/152/129
f 103/139/130 134/171/130 135/172/130
f 186/224/131 219/258/131 187/225/131
f 139/176/132 170/208/132 171/209/132
f 153/190/133 184/222/133 185/223/133
f 139/176/134 172/210/134 140/177/134
f 153/190/135 186/224/135 154/191/135
f 140/177/136 173/211/136 141/178/136
f 155/192/137 186/224/137 187/225/137
f 141/178/138 174/212/138 142/179/138
f 155/192/139 188/226/139 156/193/139
f 143/180/140 174/212/140 175/213/140
f 130/166/141 161/198/141 129/165/141
f 156/193/142 189/227/142 157/194/142
f 143/180/143 176/214/143 144/181/143
f 129/165/144 163/201/144 131/168/144
f 157/194/145 190/228/145 158/195/145
f 145/182/146 176/214/146 177/215/146
f 131/168/147 164/202/147 132/169/147
f 159/196/148 190/228/148 191/229/148
f 145/182/149 178/216/149 146/183/149
f 133/170/150 164/202/150 165/203/150
f 159/196/151 192/230/151 160/197/151
f 147/184/152 178/216/152 179/217/152
f 133/170/153 166/204/153 134/171/153
f 130/167/154 192/230/154 162/199/154
f 147/184/155 180/218/155 148/185/155
f 135/172/156 166/204/156 167/205/156
f 148/185/157 181/219/157 149/186/157
f 135/172/158 168/206/158 136/173/158
f 150/187/159 181/219/159 182/220/159
f 137/174/160 168/206/160 169/207/160
f 151/188/161 182/220/161 183/221/161
f 137/174/162 170/208/162 138/175/162
f 193/231/163 259/301/163 195/234/163
f 173/211/164 206/245/164 174/212/164
f 187/225/165 220/259/165 188/226/165
f 174/212/166 207/246/166 175/213/166
f 162/200/167 193/231/167 161/198/167
f 188/226/168 221/260/168 189/227/168
f 175/213/169 208/247/169 176/214/169
f 161/198/170 195/234/170 163/201/170
f 189/227/171 222/261/171 190/228/171
f 176/214/172 209/248/172 177/215/172
f 163/201/173 196/235/173 164/202/173
f 190/228/174 223/262/174 191/229/174
f 177/215/175 210/249/175 178/216/175
f 164/202/176 197/236/176 165/203/176
f 191/229/177 224/263/177 192/230/177
f 178/216/178 211/250/178 179/217/178
f 165/203/179 198/237/179 166/204/179
f 192/230/180 194/232/180 162/199/180
f 179/217/181 212/251/181 180/218/181
f 166/204/182 199/238/182 167/205/182
f 180/218/183 213/252/183 181/219/183
f 167/205/184 200/239/184 168/206/184
f 181/219/185 214/253/185 182/220/185
f 168/206/186 201/240/186 169/207/186
f 183/221/187 214/253/187 215/254/187
f 169/207/188 202/241/188 170/208/188
f 183/221/189 216/255/189 184/222/189
f 170/208/190 203/242/190 171/209/190
f 184/222/191 217/256/191 185/223/191
f 171/209/192 204/243/192 172/210/192
f 185/223/193 218/257/193 186/224/193
f 173/211/194 204/243/194 205/244/194
f 256/295/195 290/362/195 226/265/195
f 222/261/196 285/353/196 286/355/196
f 208/247/197 273/329/197 209/248/197
f 195/234/198 260/303/198 196/235/198
f 222/261/199 287/357/199 223/262/199
f 209/248/200 274/331/200 210/249/200
f 196/235/201 261/305/201 197/236/201
f 223/262/202 288/359/202 224/263/202
f 210/249/203 275/333/203 211/250/203
f 197/236/204 262/307/204 198/237/204
f 224/263/205 258/298/205 194/232/205
f 211/250/206 276/335/206 212/251/206
f 198/237/207 263/309/207 199/238/207
f 212/251/208 277/337/208 213/252/208
f 199/238/209 264/311/209 200/239/209
f 213/252/210 278/339/210 214/253/210
f 200/239/211 265/313/211 201/240/211
f 214/253/212 279/341/212 215/254/212
f 201/240/213 266/315/213 202/241/213
f 215/254/214 280/343/214 216/255/214
f 202/241/215 267/317/215 203/242/215
f 216/255/216 281/345/216 217/256/216
f 203/242/217 268/319/217 204/243/217
f 218/257/218 281/345/218 282/347/218
f 204/243/219 269/321/219 205/244/219
f 218/257/220 283/349/220 219/258/220
f 205/244/221 270/323/221 206/245/221
f 219/258/222 284/351/222 220/259/222
f 206/245/223 271/325/223 207/246/223
f 194/233/224 257/296/224 193/231/224
f 220/259/225 285/353/225 221/260/225
f 207/246/226 272/327/226 208/247/226
f 226/265/227 257/297/227 258/300/227
f 227/266/227 257/297/227 225/264/227
f 227/266/227 260/304/227 259/302/227
f 228/267/227 261/306/227 260/304/227
f 229/268/227 262/308/227 261/306/227
f 231/270/227 262/308/227 230/269/227
f 231/270/227 264/312/227 263/310/227
f 233/272/227 264/312/227 232/271/227
f 233/272/227 266/316/227 265/314/227
f 235/274/227 266/316/227 234/273/227
f 236/275/227 267/318/227 235/274/227
f 237/276/227 268/320/227 236/275/227
f 238/277/227 269/322/227 237/276/227
f 239/278/227 270/324/227 238/277/227
f 239/278/227 272/328/227 271/326/227
f 241/280/227 272/328/227 240/279/227
f 241/280/227 274/332/227 273/330/227
f 243/282/227 274/332/227 242/281/227
f 243/282/227 276/336/227 275/334/227
f 245/284/227 276/336/227 244/283/227
f 246/285/227 277/338/227 245/284/227
f 247/286/227 278/340/227 246/285/227
f 248/287/227 279/342/227 247/286/227
f 249/288/227 280/344/227 248/287/227
f 249/288/227 282/348/227 281/346/227
f 250/289/227 283/350/227 282/348/227
f 252/291/227 283/350/227 251/290/227
f 252/291/227 285/354/227 284/352/227
f 253/292/227 286/356/227 285/354/227
f 255/294/227 286/356/227 254/293/227
f 255/294/227 288/360/227 287/358/227
f 226/265/227 288/360/227 256/295/227
f 307/379/227 299/371/227 291/363/227
f 243/282/228 308/380/228 244/283/228
f 230/269/229 295/367/229 231/270/229
f 244/283/230 309/381/230 245/284/230
f 231/270/231 296/368/231 232/271/231
f 245/284/232 310/382/232 246/285/232
f 233/272/233 296/368/233 297/369/233
f 246/285/234 311/383/234 247/286/234
f 233/272/235 298/370/235 234/273/235
f 247/286/236 312/384/236 248/287/236
f 234/273/237 299/371/237 235/274/237
f 248/287/238 313/385/238 249/288/238
f 235/274/239 300/372/239 236/275/239
f 249/288/240 314/386/240 250/289/240
f 236/275/241 301/373/241 237/276/241
f 250/289/242 315/387/242 251/290/242
f 237/276/243 302/374/243 238/277/243
f 251/290/244 316/388/244 252/291/244
f 238/277/245 303/375/245 239/278/245
f 226/265/246 289/361/246 225/264/246
f 252/291/247 317/389/247 253/292/247
f 239/278/248 304/376/248 240/279/248
f 225/264/249 291/363/249 227/266/249
f 253/292/250 318/390/250 254/293/250
f 240/279/251 305/377/251 241/280/251
f 227/266/252 292/364/252 228/267/252
f 254/293/253 319/391/253 255/294/253
f 241/280/254 306/378/254 242/281/254
f 228/267/255 293/365/255 229/268/255
f 255/294/256 320/392/256 256/295/256
f 242/281/257 307/379/257 243/282/257
f 229/268/258 294/366/258 230/269/258
f 1/1/1 2/5/1 4/8/1
f 3/6/2 4/8/2 6/11/2
f 6/11/3 8/14/3 7/12/3
f 8/14/4 10/17/4 9/15/4
f 10/17/5 12/20/5 11/18/5
f 12/20/6 14/23/6 13/21/6
f 14/23/7 16/26/7 15/24/7
f 16/26/8 18/29/8 17/27/8
f 17/27/9 18/29/9 20/32/9
f 19/30/10 20/32/10 22/35/10
f 22/35/11 24/38/11 23/36/11
f 24/38/12 26/41/12 25/39/12
f 26/41/13 28/44/13 27/42/13
f 28/44/14 30/47/14 29/45/14
f 30/47/15 32/50/15 31/48/15
f 32/50/16 34/53/16 33/51/16
f 33/51/17 34/53/17 36/56/17
f 35/54/18 36/56/18 38/59/18
f 38/59/19 40/62/19 39/60/19
f 40/62/20 42/65/20 41/63/20
f 42/65/21 44/68/21 43/66/21
f 44/68/22 46/71/22 45/69/22
f 46/71/23 48/74/23 47/72/23
f 48/74/24 50/77/24 49/75/24
f 49/75/25 50/77/25 52/80/25
f 51/78/26 52/80/26 54/83/26
f 54/83/27 56/86/27 55/84/27
f 56/86/28 58/89/28 57/87/28
f 58/89/29 60/92/29 59/90/29
f 60/92/30 62/95/30 61/93/30
f 56/86/31 54/83/31 91/126/31
f 62/95/32 64/98/32 63/96/32
f 64/98/33 2/4/33 1/2/33
f 63/97/34 1/3/34 3/7/34
f 3/7/34 5/10/34 7/13/34
f 7/13/34 9/16/34 11/19/34
f 11/19/34 13/22/34 15/25/34
f 15/25/34 17/28/34 19/31/34
f 19/31/34 21/34/34 23/37/34
f 23/37/34 25/40/34 27/43/34
f 27/43/34 29/46/34 31/49/34
f 31/49/34 33/52/34 35/55/34
f 35/55/34 37/58/34 39/61/34
f 39/61/34 41/64/34 43/67/34
f 43/67/34 45/70/34 47/73/34
f 47/73/34 49/76/34 51/79/34
f 51/79/34 53/82/34 55/85/34
f 55/85/34 57/88/34 59/91/34
f 59/91/34 61/94/34 63/97/34
f 63/97/34 3/7/34 7/13/34
f 7/13/34 11/19/34 15/25/34
f 15/25/34 19/31/34 23/37/34
f 23/37/34 27/43/34 31/49/34
f 31/49/34 35/55/34 39/61/34
f 39/61/34 43/67/34 47/73/34
f 47/73/34 51/79/34 55/85/34
f 55/85/34 59/91/34 63/97/34
f 63/97/34 7/13/34 15/25/34
f 15/25/34 23/37/34 31/49/34
f 31/49/34 39/61/34 47/73/34
f 47/73/34 55/85/34 63/97/34
f 63/97/34 15/25/34 31/49/34
f 82/117/35 81/116/35 113/149/35
f 10/17/36 69/104/36 70/105/36
f 28/44/37 78/113/37 79/114/37
f 48/74/38 46/71/38 87/122/38
f 4/8/39 2/5/39 66/101/39
f 64/98/40 96/131/40 66/100/40
f 20/32/41 74/109/41 75/110/41
f 40/62/42 38/59/42 83/118/42
f 56/86/43 92/127/43 93/128/43
f 12/20/44 70/105/44 71/106/44
f 32/50/45 30/47/45 79/114/45
f 48/74/46 88/123/46 89/124/46
f 4/8/47 65/99/47 67/102/47
f 24/38/48 22/35/48 75/110/48
f 40/62/49 84/119/49 85/120/49
f 58/89/50 93/128/50 94/129/50
f 16/26/51 14/23/51 71/106/51
f 32/50/52 80/115/52 81/116/52
f 52/80/53 50/77/53 89/124/53
f 8/14/54 6/11/54 67/102/54
f 24/38/55 76/111/55 77/112/55
f 42/65/56 85/120/56 86/121/56
f 60/92/57 94/129/57 95/130/57
f 16/26/58 72/107/58 73/108/58
f 36/56/59 34/53/59 81/116/59
f 52/80/60 90/125/60 91/126/60
f 8/14/61 68/103/61 69/104/61
f 26/41/62 77/112/62 78/113/62
f 44/68/63 86/121/63 87/122/63
f 64/98/64 62/95/64 95/130/64
f 20/32/65 18/29/65 73/108/65
f 36/56/66 82/117/66 83/118/66
f 117/153/67 116/152/67 148/185/67
f 68/103/68 100/136/68 101/137/68
f 96/131/69 95/130/69 127/163/69
f 82/117/70 114/150/70 115/151/70
f 69/104/71 101/137/71 102/138/71
f 96/131/72 128/164/72 98/133/72
f 84/119/73 83/118/73 115/151/73
f 70/105/74 102/138/74 103/139/74
f 84/119/75 116/152/75 117/153/75
f 72/107/76 71/106/76 103/139/76
f 85/120/77 117/153/77 118/154/77
f 72/107/78 104/140/78 105/141/78
f 86/121/79 118/154/79 119/155/79
f 74/109/80 73/108/80 105/141/80
f 88/123/81 87/122/81 119/155/81
f 74/109/82 106/142/82 107/143/82
f 88/123/83 120/156/83 121/157/83
f 76/111/84 75/110/84 107/143/84
f 90/125/85 89/124/85 121/157/85
f 76/111/86 108/144/86 109/145/86
f 90/125/87 122/158/87 123/159/87
f 77/112/88 109/145/88 110/146/88
f 92/127/89 91/126/89 123/159/89
f 78/113/90 110/146/90 111/147/90
f 65/99/91 66/101/91 98/134/91
f 92/127/92 124/160/92 125/161/92
f 80/115/93 79/114/93 111/147/93
f 65/99/94 97/132/94 99/135/94
f 93/128/95 125/161/95 126/162/95
f 80/115/96 112/148/96 113/149/96
f 68/103/97 67/102/97 99/135/97
f 94/129/98 126/162/98 127/163/98
f 151/188/99 183/221/99 184/222/99
f 103/139/100 135/172/100 136/173/100
f 118/154/101 117/153/101 149/186/101
f 104/140/102 136/173/102 137/174/102
f 118/154/103 150/187/103 151/188/103
f 105/141/104 137/174/104 138/175/104
f 119/155/105 151/188/105 152/189/105
f 106/142/106 138/175/106 139/176/106
f 120/156/107 152/189/107 153/190/107
f 107/143/108 139/176/108 140/177/108
f 121/157/109 153/190/109 154/191/109
f 109/145/110 108/144/110 140/177/110
f 122/158/111 154/191/111 155/192/111
f 110/146/112 109/145/112 141/178/112
f 124/160/113 123/159/113 155/192/113
f 110/146/114 142/179/114 143/180/114
f 98/134/115 130/166/115 129/165/115
f 125/161/116 124/160/116 156/193/116
f 111/147/117 143/180/117 144/181/117
f 97/132/118 129/165/118 131/168/118
f 126/162/119 125/161/119 157/194/119
f 112/148/120 144/181/120 145/182/120
f 99/135/121 131/168/121 132/169/121
f 126/162/122 158/195/122 159/196/122
f 113/149/123 145/182/123 146/183/123
f 101/137/124 100/136/124 132/169/124
f 127/163/125 159/196/125 160/197/125
f 114/150/126 146/183/126 147/184/126
f 102/138/127 101/137/127 133/170/127
f 128/164/128 160/197/128 130/167/128
f 115/151/129 147/184/129 148/185/129
f 103/139/130 102/138/130 134/171/130
f 186/224/131 218/257/131 219/258/131
f 139/176/132 138/175/132 170/208/132
f 153/190/133 152/189/133 184/222/133
f 139/176/134 171/209/134 172/210/134
f 153/190/135 185/223/135 186/224/135
f 140/177/136 172/210/136 173/211/136
f 155/192/137 154/191/137 186/224/137
f 141/178/138 173/211/138 174/212/138
f 155/192/139 187/225/139 188/226/139
f 143/180/140 142/179/140 174/212/140
f 130/166/141 162/200/141 161/198/141
f 156/193/142 188/226/142 189/227/142
f 143/180/143 175/213/143 176/214/143
f 129/165/144 161/198/144 163/201/144
f 157/194/145 189/227/145 190/228/145
f 145/182/146 144/181/146 176/214/146
f 131/168/147 163/201/147 164/202/147
f 159/196/148 158/195/148 190/228/148
f 145/182/149 177/215/149 178/216/149
f 133/170/150 132/169/150 164/202/150
f 159/196/151 191/229/151 192/230/151
f 147/184/152 146/183/152 178/216/152
f 133/170/153 165/203/153 166/204/153
f 130/167/154 160/197/154 192/230/154
f 147/184/155 179/217/155 180/218/155
f 135/172/156 134/171/156 166/204/156
f 148/185/157 180/218/157 181/219/157
f 135/172/158 167/205/158 168/206/158
f 150/187/159 149/186/159 181/219/159
f 137/174/160 136/173/160 168/206/160
f 151/188/161 150/187/161 182/220/161
f 137/174/162 169/207/162 170/208/162
f 193/231/163 257/296/163 259/301/163
f 173/211/164 205/244/164 206/245/164
f 187/225/165 219/258/165 220/259/165
f 174/212/166 206/245/166 207/246/166
f 162/200/167 194/233/167 193/231/167
f 188/226/168 220/259/168 221/260/168
f 175/213/169 207/246/169 208/247/169
f 161/198/170 193/231/170 195/234/170
f 189/227/171 221/260/171 222/261/171
f 176/214/172 208/247/172 209/248/172
f 163/201/173 195/234/173 196/235/173
f 190/228/174 222/261/174 223/262/174
f 177/215/175 209/248/175 210/249/175
f 164/202/176 196/235/176 197/236/176
f 191/229/177 223/262/177 224/263/177
f 178/216/178 210/249/178 211/250/178
f 165/203/179 197/236/179 198/237/179
f 192/230/180 224/263/180 194/232/180
f 179/217/181 211/250/181 212/251/181
f 166/204/182 198/237/182 199/238/182
f 180/218/183 212/251/183 213/252/183
f 167/205/184 199/238/184 200/239/184
f 181/219/185 213/252/185 214/253/185
f 168/206/186 200/239/186 201/240/186
f 183/221/187 182/220/187 214/253/187
f 169/207/188 201/240/188 202/241/188
f 183/221/189 215/254/189 216/255/189
f 170/208/190 202/241/190 203/242/190
f 184/222/191 216/255/191 217/256/191
f 171/209/192 203/242/192 204/243/192
f 185/223/193 217/256/193 218/257/193
f 173/211/194 172/210/194 204/243/194
f 256/295/195 320/392/195 290/362/195
f 222/261/196 221/260/196 285/353/196
f 208/247/197 272/327/197 273/329/197
f 195/234/198 259/301/198 260/303/198
f 222/261/199 286/355/199 287/357/199
f 209/248/200 273/329/200 274/331/200
f 196/235/201 260/303/201 261/305/201
f 223/262/202 287/357/202 288/359/202
f 210/249/203 274/331/203 275/333/203
f 197/236/204 261/305/204 262/307/204
f 224/263/205 288/359/205 258/298/205
f 211/250/206 275/333/206 276/335/206
f 198/237/207 262/307/207 263/309/207
f 212/251/208 276/335/208 277/337/208
f 199/238/209 263/309/209 264/311/209
f 213/252/210 277/337/210 278/339/210
f 200/239/211 264/311/211 265/313/211
f 214/253/212 278/339/212 279/341/212
f 201/240/213 265/313/213 266/315/213
f 215/254/214 279/341/214 280/343/214
f 202/241/215 266/315/215 267/317/215
f 216/255/216 280/343/216 281/345/216
f 203/242/217 267/317/217 268/319/217
f 218/257/218 217/256/218 281/345/218
f 204/243/219 268/319/219 269/321/219
f 218/257/220 282/347/220 283/349/220
f 205/244/221 269/321/221 270/323/221
f 219/258/222 283/349/222 284/351/222
f 206/245/223 270/323/223 271/325/223
f 194/233/224 258/299/224 257/296/224
f 220/259/225 284/351/225 285/353/225
f 207/246/226 271/325/226 272/327/226
f 226/265/227 225/264/227 257/297/227
f 227/266/227 259/302/227 257/297/227
f 227/266/227 228/267/227 260/304/227
f 228/267/227 229/268/227 261/306/227
f 229/268/227 230/269/227 262/308/227
f 231/270/227 263/310/227 262/308/227
f 231/270/227 232/271/227 264/312/227
f 233/272/227 265/314/227 264/312/227
f 233/272/227 234/273/227 266/316/227
f 235/274/227 267/318/227 266/316/227
f 236/275/227 268/320/227 267/318/227
f 237/276/227 269/322/227 268/320/227
f 238/277/227 270/324/227 269/322/227
f 239/278/227 271/326/227 270/324/227
f 239/278/227 240/279/227 272/328/227
f 241/280/227 273/330/227 272/328/227
f 241/280/227 242/281/227 274/332/227
f 243/282/227 275/334/227 274/332/227
f 243/282/227 244/283/227 276/336/227
f 245/284/227 277/338/227 276/336/227
f 246/285/227 278/340/227 277/338/227
f 247/286/227 279/342/227 278/340/227
f 248/287/227 280/344/227 279/342/227
f 249/288/227 281/346/227 280/344/227
f 249/288/227 250/289/227 282/348/227
f 250/289/227 251/290/227 283/350/227
f 252/291/227 284/352/227 283/350/227
f 252/291/227 253/292/227 285/354/227
f 253/292/227 254/293/227 286/356/227
f 255/294/227 287/358/227 286/356/227
f 255/294/227 256/295/227 288/360/227
f 226/265/227 258/300/227 288/360/227
f 291/363/227 289/361/227 290/362/227
f 290/362/227 320/392/227 319/391/227
f 319/391/227 318/390/227 317/389/227
f 317/389/227 316/388/227 315/387/227
f 315/387/227 314/386/227 313/385/227
f 313/385/227 312/384/227 311/383/227
f 311/383/227 310/382/227 309/381/227
f 309/381/227 308/380/227 307/379/227
f 307/379/227 306/378/227 305/377/227
f 305/377/227 304/376/227 303/375/227
f 303/375/227 302/374/227 301/373/227
f 301/373/227 300/372/227 299/371/227
f 299/371/227 298/370/227 297/369/227
f 297/369/227 296/368/227 295/367/227
f 295/367/227 294/366/227 293/365/227
f 293/365/227 292/364/227 291/363/227
f 291/363/227 290/362/227 319/391/227
f 319/391/227 317/389/227 315/387/227
f 315/387/227 313/385/227 311/383/227
f 311/383/227 309/381/227 307/379/227
f 307/379/227 305/377/227 303/375/227
f 303/375/227 301/373/227 299/371/227
f 299/371/227 297/369/227 295/367/227
f 295/367/227 293/365/227 291/363/227
f 291/363/227 319/391/227 315/387/227
f 315/387/227 311/383/227 307/379/227
f 307/379/227 303/375/227 299/371/227
f 299/371/227 295/367/227 291/363/227
f 291/363/227 315/387/227 307/379/227
f 243/282/228 307/379/228 308/380/228
f 230/269/229 294/366/229 295/367/229
f 244/283/230 308/380/230 309/381/230
f 231/270/231 295/367/231 296/368/231
f 245/284/232 309/381/232 310/382/232
f 233/272/233 232/271/233 296/368/233
f 246/285/234 310/382/234 311/383/234
f 233/272/235 297/369/235 298/370/235
f 247/286/236 311/383/236 312/384/236
f 234/273/237 298/370/237 299/371/237
f 248/287/238 312/384/238 313/385/238
f 235/274/239 299/371/239 300/372/239
f 249/288/240 313/385/240 314/386/240
f 236/275/241 300/372/241 301/373/241
f 250/289/242 314/386/242 315/387/242
f 237/276/243 301/373/243 302/374/243
f 251/290/244 315/387/244 316/388/244
f 238/277/245 302/374/245 303/375/245
f 226/265/246 290/362/246 289/361/246
f 252/291/247 316/388/247 317/389/247
f 239/278/248 303/375/248 304/376/248
f 225/264/249 289/361/249 291/363/249
f 253/292/250 317/389/250 318/390/250
f 240/279/251 304/376/251 305/377/251
f 227/266/252 291/363/252 292/364/252
f 254/293/253 318/390/253 319/391/253
f 241/280/254 305/377/254 306/378/254
f 228/267/255 292/364/255 293/365/255
f 255/294/256 319/391/256 320/392/256
f 242/281/257 306/378/257 307/379/257
f 229/268/258 293/365/258 294/366/258
