# Blender 3.3.1
# www.blender.org
o big_coffee_cup
v -0.000000 0.019199 -0.164810
v -0.000000 0.487877 -0.344620
v 0.032153 0.019199 -0.161643
v 0.067232 0.487877 -0.337998
v 0.063070 0.019199 -0.152265
v 0.131880 0.487877 -0.318387
v 0.091563 0.019199 -0.137035
v 0.191460 0.487877 -0.286541
v 0.116538 0.019199 -0.116538
v 0.243683 0.487877 -0.243683
v 0.137034 0.019199 -0.091564
v 0.286541 0.487877 -0.191460
v 0.152264 0.019199 -0.063070
v 0.318387 0.487877 -0.131880
v 0.161643 0.019199 -0.032153
v 0.337998 0.487877 -0.067232
v 0.164810 0.019199 -0.000000
v 0.344620 0.487877 0.000000
v 0.161643 0.019199 0.032153
v 0.337998 0.487877 0.067232
v 0.152264 0.019199 0.063070
v 0.318387 0.487877 0.131880
v 0.137034 0.019199 0.091563
v 0.286541 0.487877 0.191461
v 0.116538 0.019199 0.116538
v 0.243683 0.487877 0.243683
v 0.091563 0.019199 0.137034
v 0.191460 0.487877 0.286541
v 0.063070 0.019199 0.152264
v 0.131880 0.487877 0.318387
v 0.032153 0.019199 0.161643
v 0.067232 0.487877 0.337998
v -0.000000 0.019199 0.164810
v -0.000000 0.487877 0.344620
v -0.032153 0.019199 0.161643
v -0.067232 0.487877 0.337998
v -0.063070 0.019199 0.152264
v -0.131880 0.487877 0.318387
v -0.091564 0.019199 0.137034
v -0.191461 0.487877 0.286541
v -0.116538 0.019199 0.116538
v -0.243683 0.487877 0.243683
v -0.137035 0.019199 0.091563
v -0.286541 0.487877 0.191461
v -0.152265 0.019199 0.063070
v -0.318387 0.487877 0.131880
v -0.161643 0.019199 0.032153
v -0.337998 0.487877 0.067232
v -0.164810 0.019199 -0.000000
v -0.344620 0.487877 0.000000
v -0.161643 0.019199 -0.032153
v -0.337998 0.487877 -0.067232
v -0.152265 0.019199 -0.063070
v -0.318387 0.487877 -0.131880
v -0.137035 0.019199 -0.091564
v -0.286541 0.487877 -0.191460
v -0.116538 0.019199 -0.116538
v -0.243683 0.487877 -0.243683
v -0.091564 0.019199 -0.137035
v -0.191461 0.487877 -0.286541
v -0.063070 0.019199 -0.152265
v -0.131880 0.487877 -0.318387
v -0.032153 0.019199 -0.161643
v -0.067232 0.487877 -0.337998
v 0.077224 0.487877 -0.388232
v -0.000000 0.487877 -0.395838
v 0.151480 0.487877 -0.365706
v 0.219916 0.487877 -0.329127
v 0.279899 0.487877 -0.279899
v 0.329127 0.487877 -0.219915
v 0.365706 0.487877 -0.151480
v 0.388232 0.487877 -0.077224
v 0.395838 0.487877 0.000000
v 0.388232 0.487877 0.077224
v 0.365706 0.487877 0.151481
v 0.329127 0.487877 0.219916
v 0.279899 0.487877 0.279900
v 0.219916 0.487877 0.329127
v 0.151480 0.487877 0.365706
v 0.077224 0.487877 0.388232
v -0.000000 0.487877 0.395838
v -0.077224 0.487877 0.388232
v -0.151481 0.487877 0.365706
v -0.219916 0.487877 0.329127
v -0.279900 0.487877 0.279900
v -0.329127 0.487877 0.219916
v -0.365706 0.487877 0.151481
v -0.388232 0.487877 0.077224
v -0.395838 0.487877 0.000000
v -0.388232 0.487877 -0.077224
v -0.365706 0.487877 -0.151480
v -0.329127 0.487877 -0.219915
v -0.279900 0.487877 -0.279899
v -0.219916 0.487877 -0.329127
v -0.151481 0.487877 -0.365706
v -0.077224 0.487877 -0.388232
v 0.046696 0.050015 -0.234756
v -0.000000 0.050015 -0.239355
v 0.091597 0.050015 -0.221135
v 0.132978 0.050015 -0.199016
v 0.169249 0.050015 -0.169249
v 0.199016 0.050015 -0.132978
v 0.221135 0.050015 -0.091597
v 0.234756 0.050015 -0.046696
v 0.239355 0.050015 0.000000
v 0.234756 0.050015 0.046696
v 0.221135 0.050015 0.091597
v 0.199016 0.050015 0.132978
v 0.169249 0.050015 0.169249
v 0.132978 0.050015 0.199016
v 0.091597 0.050015 0.221135
v 0.046696 0.050015 0.234756
v -0.000000 0.050015 0.239355
v -0.046696 0.050015 0.234756
v -0.091597 0.050015 0.221135
v -0.132978 0.050015 0.199016
v -0.169249 0.050015 0.169249
v -0.199016 0.050015 0.132978
v -0.221135 0.050015 0.091597
v -0.234756 0.050015 0.046696
v -0.239355 0.050015 0.000000
v -0.234756 0.050015 -0.046696
v -0.221135 0.050015 -0.091597
v -0.199016 0.050015 -0.132978
v -0.169249 0.050015 -0.169249
v -0.132978 0.050015 -0.199016
v -0.091597 0.050015 -0.221135
v -0.046696 0.050015 -0.234756
v -0.000000 -0.000455 -0.200623
v 0.039139 -0.000455 -0.196768
v 0.076775 -0.000455 -0.185352
v 0.111460 -0.000455 -0.166812
v 0.141862 -0.000455 -0.141862
v 0.166812 -0.000455 -0.111460
v 0.185351 -0.000455 -0.076775
v 0.196768 -0.000455 -0.039140
v 0.200623 -0.000455 -0.000000
v 0.196768 -0.000455 0.039139
v 0.185351 -0.000455 0.076775
v 0.166812 -0.000455 0.111460
v 0.141862 -0.000455 0.141862
v 0.111460 -0.000455 0.166812
v 0.076775 -0.000455 0.185351
v 0.039139 -0.000455 0.196768
v -0.000000 -0.000455 0.200623
v -0.039140 -0.000455 0.196768
v -0.076775 -0.000455 0.185351
v -0.111460 -0.000455 0.166812
v -0.141862 -0.000455 0.141862
v -0.166812 -0.000455 0.111460
v -0.185351 -0.000455 0.076775
v -0.196768 -0.000455 0.039139
v -0.200623 -0.000455 -0.000000
v -0.196768 -0.000455 -0.039140
v -0.185351 -0.000455 -0.076775
v -0.166812 -0.000455 -0.111460
v -0.141862 -0.000455 -0.141862
v -0.111460 -0.000455 -0.166812
v -0.076775 -0.000455 -0.185352
v -0.039140 -0.000455 -0.196768
v -0.000000 -0.000455 -0.172864
v 0.033724 -0.000455 -0.169542
v 0.066152 -0.000455 -0.159705
v 0.096038 -0.000455 -0.143731
v 0.122233 -0.000455 -0.122233
v 0.143731 -0.000455 -0.096038
v 0.159705 -0.000455 -0.066152
v 0.169542 -0.000455 -0.033724
v 0.172864 -0.000455 -0.000000
v 0.169542 -0.000455 0.033724
v 0.159705 -0.000455 0.066152
v 0.143731 -0.000455 0.096038
v 0.122233 -0.000455 0.122233
v 0.096038 -0.000455 0.143731
v 0.066152 -0.000455 0.159705
v 0.033724 -0.000455 0.169542
v -0.000000 -0.000455 0.172863
v -0.033724 -0.000455 0.169542
v -0.066152 -0.000455 0.159705
v -0.096038 -0.000455 0.143731
v -0.122233 -0.000455 0.122233
v -0.143731 -0.000455 0.096038
v -0.159705 -0.000455 0.066152
v -0.169542 -0.000455 0.033724
v -0.172864 -0.000455 -0.000000
v -0.169542 -0.000455 -0.033724
v -0.159705 -0.000455 -0.066152
v -0.143731 -0.000455 -0.096038
v -0.122233 -0.000455 -0.122233
v -0.096038 -0.000455 -0.143731
v -0.066152 -0.000455 -0.159705
v -0.033724 -0.000455 -0.169542
v -0.000000 0.111752 -0.307887
v -0.000000 0.225137 -0.350918
v -0.000000 0.367451 -0.382039
v 0.074532 0.367451 -0.374698
v 0.068461 0.225137 -0.344175
v 0.060066 0.111752 -0.301971
v 0.146200 0.367451 -0.352958
v 0.134290 0.225137 -0.324206
v 0.117823 0.111752 -0.284450
v 0.212250 0.367451 -0.317654
v 0.194960 0.225137 -0.291778
v 0.171053 0.111752 -0.255998
v 0.270143 0.367451 -0.270142
v 0.248137 0.225137 -0.248136
v 0.217709 0.111752 -0.217709
v 0.317654 0.367451 -0.212250
v 0.291778 0.225137 -0.194960
v 0.255999 0.111752 -0.171053
v 0.352958 0.367451 -0.146200
v 0.324206 0.225137 -0.134290
v 0.284450 0.111752 -0.117823
v 0.374698 0.367451 -0.074532
v 0.344175 0.225137 -0.068461
v 0.301971 0.111752 -0.060066
v 0.382039 0.367451 0.000000
v 0.350918 0.225137 0.000000
v 0.307887 0.111752 0.000000
v 0.374698 0.367451 0.074532
v 0.344175 0.225137 0.068461
v 0.301971 0.111752 0.060066
v 0.352958 0.367451 0.146200
v 0.324206 0.225137 0.134291
v 0.284450 0.111752 0.117823
v 0.317654 0.367451 0.212250
v 0.291778 0.225137 0.194960
v 0.255999 0.111752 0.171053
v 0.270143 0.367451 0.270143
v 0.248137 0.225137 0.248137
v 0.217709 0.111752 0.217709
v 0.212250 0.367451 0.317654
v 0.194960 0.225137 0.291778
v 0.171053 0.111752 0.255999
v 0.146200 0.367451 0.352959
v 0.134290 0.225137 0.324206
v 0.117823 0.111752 0.284450
v 0.074532 0.367451 0.374699
v 0.068461 0.225137 0.344175
v 0.060066 0.111752 0.301971
v -0.000000 0.367451 0.382040
v -0.000000 0.225137 0.350918
v -0.000000 0.111752 0.307887
v -0.074532 0.367451 0.374699
v -0.068461 0.225137 0.344175
v -0.060066 0.111752 0.301971
v -0.146200 0.367451 0.352959
v -0.134291 0.225137 0.324206
v -0.117823 0.111752 0.284450
v -0.212250 0.367451 0.317654
v -0.194960 0.225137 0.291778
v -0.171053 0.111752 0.255999
v -0.270143 0.367451 0.270143
v -0.248137 0.225137 0.248137
v -0.217709 0.111752 0.217709
v -0.317654 0.367451 0.212250
v -0.291778 0.225137 0.194960
v -0.255999 0.111752 0.171053
v -0.352958 0.367451 0.146200
v -0.324206 0.225137 0.134291
v -0.284450 0.111752 0.117823
v -0.374699 0.367451 0.074532
v -0.344175 0.225137 0.068461
v -0.301971 0.111752 0.060066
v -0.382039 0.367451 0.000000
v -0.350918 0.225137 0.000000
v -0.307887 0.111752 0.000000
v -0.374699 0.367451 -0.074532
v -0.344175 0.225137 -0.068461
v -0.301971 0.111752 -0.060066
v -0.352958 0.367451 -0.146200
v -0.324206 0.225137 -0.134290
v -0.284450 0.111752 -0.117823
v -0.317654 0.367451 -0.212250
v -0.291778 0.225137 -0.194960
v -0.255999 0.111752 -0.171053
v -0.270143 0.367451 -0.270142
v -0.248137 0.225137 -0.248136
v -0.217709 0.111752 -0.217709
v -0.212250 0.367451 -0.317654
v -0.194960 0.225137 -0.291778
v -0.171053 0.111752 -0.255998
v -0.146200 0.367451 -0.352958
v -0.134291 0.225137 -0.324206
v -0.117823 0.111752 -0.284450
v -0.074532 0.367451 -0.374698
v -0.068461 0.225137 -0.344175
v -0.060066 0.111752 -0.301971
v -0.359437 0.296294 0.071497
v -0.323073 0.168445 0.064263
v -0.366479 0.296294 0.000000
v -0.329403 0.168445 0.000000
v -0.304929 0.111752 0.030033
v -0.347547 0.225137 0.034231
v -0.378369 0.367451 0.037266
v -0.362958 0.296294 0.035748
v -0.326238 0.168445 0.032132
v -0.553949 0.337025 0.054559
v -0.557619 0.337025 0.017293
v -0.550278 0.337025 0.091825
v -0.571703 0.288223 0.092403
v -0.578744 0.288223 0.020906
v -0.575224 0.288223 0.056655
v -0.560439 0.187164 0.055199
v -0.563810 0.187164 0.020968
v -0.557067 0.187164 0.089429
v -0.500591 0.130472 0.081747
v -0.506921 0.130472 0.017484
v -0.503756 0.130472 0.049616
v -0.444747 0.119720 0.076247
v -0.447912 0.119720 0.044116
v -0.469220 0.176413 0.046214
v -0.465849 0.176413 0.080445
v -0.451076 0.119720 0.011984
v -0.472592 0.176413 0.011984
v -0.511246 0.306843 0.012728
v -0.511264 0.368589 0.012728
v -0.503923 0.368589 0.087260
v -0.504204 0.306843 0.084224
v -0.507725 0.306843 0.048476
v -0.507593 0.368589 0.049994
v -0.387051 0.123244 0.038121
v -0.404988 0.179937 0.074450
v -0.411731 0.179937 0.005990
v -0.383886 0.123244 0.070253
v -0.408360 0.179937 0.040220
v -0.390215 0.123244 0.005990
v -0.518614 0.239016 0.051079
v -0.522063 0.239016 0.016064
v -0.580226 0.239442 0.021792
v -0.576778 0.239442 0.056808
v -0.573329 0.239442 0.091823
v -0.515165 0.239016 0.086095
v -0.446652 0.377060 0.006364
v -0.436557 0.329745 0.079092
v -0.442981 0.377060 0.043630
v -0.443599 0.329745 0.007596
v -0.439311 0.377060 0.080896
v -0.440078 0.329745 0.043344
vn 0.0974 -0.1133 -0.9888
vn 0.2884 -0.1133 -0.9508
vn 0.4684 -0.1133 -0.8762
vn 0.6303 -0.1133 -0.7680
vn 0.7680 -0.1133 -0.6303
vn 0.8762 -0.1133 -0.4684
vn 0.9508 -0.1133 -0.2884
vn 0.9888 -0.1133 -0.0974
vn 0.9888 -0.1133 0.0974
vn 0.9508 -0.1133 0.2884
vn 0.8762 -0.1133 0.4684
vn 0.7680 -0.1133 0.6303
vn 0.6303 -0.1133 0.7680
vn 0.4684 -0.1133 0.8762
vn 0.2884 -0.1133 0.9508
vn 0.0974 -0.1133 0.9888
vn -0.0974 -0.1133 0.9888
vn -0.2884 -0.1133 0.9508
vn -0.4684 -0.1133 0.8762
vn -0.6303 -0.1133 0.7680
vn -0.7680 -0.1133 0.6303
vn -0.8762 -0.1133 0.4684
vn -0.9508 -0.1133 0.2884
vn -0.9888 -0.1133 0.0974
vn -0.9888 -0.1133 -0.0974
vn -0.9508 -0.1133 -0.2884
vn -0.8762 -0.1133 -0.4684
vn -0.7680 -0.1133 -0.6303
vn -0.6303 -0.1133 -0.7680
vn -0.4684 -0.1133 -0.8762
vn 0.9307 0.2327 0.2823
vn -0.2884 -0.1133 -0.9508
vn -0.0974 -0.1133 -0.9888
vn -0.0000 -1.0000 -0.0000
vn -0.0000 1.0000 -0.0000
vn -0.6170 0.2327 -0.7518
vn 0.8577 0.2327 0.4585
vn -0.4585 0.2327 -0.8577
vn -0.0953 0.2327 0.9679
vn 0.7518 0.2327 0.6170
vn -0.2823 0.2327 -0.9307
vn -0.2823 0.2327 0.9307
vn 0.6170 0.2327 0.7518
vn -0.0953 0.2327 -0.9679
vn -0.4585 0.2327 0.8577
vn 0.4585 0.2327 0.8577
vn 0.0953 0.2327 -0.9679
vn -0.6170 0.2327 0.7518
vn 0.2823 0.2327 0.9307
vn 0.2823 0.2327 -0.9307
vn -0.7518 0.2327 0.6170
vn 0.0953 0.2327 0.9679
vn 0.4585 0.2327 -0.8577
vn -0.8577 0.2327 0.4585
vn 0.6170 0.2327 -0.7518
vn -0.9307 0.2327 0.2823
vn 0.7518 0.2327 -0.6170
vn -0.9679 0.2327 0.0953
vn 0.8577 0.2327 -0.4585
vn -0.9679 0.2327 -0.0953
vn 0.9307 0.2327 -0.2823
vn -0.9307 0.2327 -0.2823
vn 0.9679 0.2327 -0.0953
vn -0.8577 0.2327 -0.4585
vn 0.9679 0.2327 0.0953
vn -0.7518 0.2327 -0.6170
vn -0.0908 -0.3776 0.9215
vn -0.2688 -0.3776 0.8861
vn -0.4365 -0.3776 0.8166
vn -0.5874 -0.3776 0.7158
vn -0.7158 -0.3776 0.5874
vn -0.8166 -0.3776 0.4365
vn -0.8861 -0.3776 0.2688
vn -0.9215 -0.3776 0.0908
vn -0.9215 -0.3776 -0.0908
vn -0.8861 -0.3776 -0.2688
vn -0.8166 -0.3776 -0.4365
vn -0.7158 -0.3776 -0.5874
vn -0.5874 -0.3776 -0.7158
vn -0.4365 -0.3776 -0.8166
vn -0.2688 -0.3776 -0.8861
vn -0.0908 -0.3776 -0.9215
vn 0.0908 -0.3776 -0.9215
vn 0.2688 -0.3776 -0.8861
vn 0.4365 -0.3776 -0.8166
vn 0.5874 -0.3776 -0.7158
vn 0.7158 -0.3776 -0.5874
vn 0.8166 -0.3776 -0.4365
vn 0.8861 -0.3776 -0.2688
vn 0.9215 -0.3776 -0.0908
vn 0.9215 -0.3776 0.0908
vn 0.8861 -0.3776 0.2688
vn 0.8166 -0.3776 0.4365
vn 0.7158 -0.3776 0.5874
vn 0.5874 -0.3776 0.7158
vn 0.4365 -0.3776 0.8166
vn 0.2688 -0.3776 0.8861
vn 0.0908 -0.3776 0.9215
vn -0.0710 -0.6893 -0.7210
vn -0.0917 -0.3533 -0.9310
vn -0.0958 -0.2127 -0.9724
vn -0.2103 -0.6893 -0.6933
vn -0.2716 -0.3533 -0.8952
vn -0.2836 -0.2127 -0.9351
vn -0.3415 -0.6893 -0.6390
vn -0.4410 -0.3533 -0.8250
vn -0.4606 -0.2127 -0.8618
vn -0.4596 -0.6893 -0.5601
vn -0.5935 -0.3533 -0.7232
vn -0.6199 -0.2127 -0.7553
vn -0.5601 -0.6893 -0.4596
vn -0.7232 -0.3533 -0.5935
vn -0.7553 -0.2127 -0.6199
vn -0.6390 -0.6893 -0.3415
vn -0.8250 -0.3533 -0.4410
vn -0.8618 -0.2127 -0.4606
vn -0.6933 -0.6893 -0.2103
vn -0.8952 -0.3533 -0.2716
vn -0.9351 -0.2127 -0.2836
vn -0.7210 -0.6893 -0.0710
vn -0.9310 -0.3533 -0.0917
vn -0.9724 -0.2127 -0.0958
vn -0.7210 -0.6893 0.0710
vn -0.9495 -0.2996 0.0935
vn -0.6933 -0.6893 0.2103
vn -0.8952 -0.3533 0.2716
vn -0.9351 -0.2127 0.2836
vn -0.6390 -0.6893 0.3415
vn -0.8250 -0.3533 0.4410
vn -0.8618 -0.2127 0.4606
vn -0.5601 -0.6893 0.4596
vn -0.7232 -0.3533 0.5935
vn -0.7553 -0.2127 0.6199
vn -0.4596 -0.6893 0.5601
vn -0.5935 -0.3533 0.7232
vn -0.6199 -0.2127 0.7553
vn -0.3415 -0.6893 0.6390
vn -0.4410 -0.3533 0.8250
vn -0.4606 -0.2127 0.8617
vn -0.2103 -0.6893 0.6933
vn -0.2716 -0.3533 0.8952
vn -0.2836 -0.2127 0.9351
vn -0.0710 -0.6893 0.7210
vn -0.0917 -0.3533 0.9310
vn -0.0958 -0.2127 0.9724
vn 0.0710 -0.6893 0.7210
vn 0.0917 -0.3533 0.9310
vn 0.0958 -0.2127 0.9724
vn 0.2103 -0.6893 0.6933
vn 0.2716 -0.3533 0.8952
vn 0.2836 -0.2127 0.9351
vn 0.3415 -0.6893 0.6390
vn 0.4410 -0.3533 0.8250
vn 0.4606 -0.2127 0.8618
vn 0.4596 -0.6893 0.5601
vn 0.5935 -0.3533 0.7232
vn 0.6199 -0.2127 0.7553
vn 0.5601 -0.6893 0.4596
vn 0.7232 -0.3533 0.5935
vn 0.7553 -0.2127 0.6199
vn 0.6390 -0.6893 0.3415
vn 0.8250 -0.3533 0.4410
vn 0.8618 -0.2127 0.4606
vn 0.6933 -0.6893 0.2103
vn 0.8952 -0.3533 0.2716
vn 0.9351 -0.2127 0.2836
vn 0.7210 -0.6893 0.0710
vn 0.9310 -0.3533 0.0917
vn 0.9724 -0.2127 0.0958
vn 0.7210 -0.6893 -0.0710
vn 0.9310 -0.3533 -0.0917
vn 0.9724 -0.2127 -0.0958
vn 0.6933 -0.6893 -0.2103
vn 0.8952 -0.3533 -0.2716
vn 0.9351 -0.2127 -0.2836
vn 0.6390 -0.6893 -0.3415
vn 0.8250 -0.3533 -0.4410
vn 0.8618 -0.2127 -0.4606
vn 0.5601 -0.6893 -0.4596
vn 0.7232 -0.3533 -0.5935
vn 0.7553 -0.2127 -0.6199
vn 0.4596 -0.6893 -0.5601
vn 0.5935 -0.3533 -0.7232
vn 0.6199 -0.2127 -0.7553
vn 0.3415 -0.6893 -0.6390
vn 0.4410 -0.3533 -0.8250
vn 0.4606 -0.2127 -0.8617
vn 0.2103 -0.6893 -0.6933
vn 0.2716 -0.3533 -0.8952
vn 0.2836 -0.2127 -0.9351
vn 0.0710 -0.6893 -0.7210
vn 0.0917 -0.3533 -0.9310
vn 0.0958 -0.2127 -0.9724
vn -0.9724 -0.2127 0.0958
vn -0.1873 -0.9821 0.0184
vn 0.1328 -0.0466 0.9900
vn -0.0980 -0.0000 -0.9952
vn -0.9310 -0.3533 0.0917
vn -0.9116 0.4012 0.0898
vn -0.5583 0.8278 0.0550
vn -0.0981 -0.0151 -0.9951
vn -0.7021 -0.7087 0.0691
vn -0.1028 -0.0421 -0.9938
vn 0.0903 -0.0401 0.9951
vn 0.7798 0.6213 -0.0768
vn -0.0572 0.9983 0.0056
vn 0.0572 -0.9983 -0.0056
vn 0.1000 -0.0364 0.9943
vn -0.0959 -0.0364 -0.9947
vn -0.1288 0.9916 0.0127
vn 0.3184 -0.9474 -0.0314
vn -0.0938 -0.0320 -0.9951
vn 0.0921 -0.0493 0.9945
vn 0.0979 -0.0151 0.9951
vn -0.5918 0.8040 0.0583
vn 0.5918 -0.8040 -0.0583
vn -0.0766 -0.0291 -0.9966
vn 0.1193 -0.0291 0.9924
vn 0.9821 -0.1614 -0.0967
vn 0.0964 -0.0139 0.9952
vn -0.1118 -0.0310 -0.9932
vn -0.9947 0.0320 0.0980
vn 0.0878 -0.0236 0.9959
vn -0.1028 -0.0325 -0.9942
vn -0.3944 -0.9181 0.0388
vn 0.1457 0.9892 -0.0144
vn -0.8617 -0.2127 -0.4606
vn -0.8617 -0.2127 0.4606
vn -0.4606 -0.2127 0.8618
vn 0.8617 -0.2127 0.4606
vn 0.8617 -0.2127 -0.4606
vn 0.4606 -0.2127 -0.8618
vn 0.1311 -0.0493 0.9901
vn -0.1136 -0.0243 -0.9932
vn -0.0996 -0.0139 -0.9949
vn -0.1056 -0.0401 -0.9936
vn 0.0930 -0.0421 0.9948
vn -0.0756 -0.0000 -0.9971
vn 0.1021 -0.0320 0.9943
vn 0.1180 0.0083 0.9930
vn 0.0932 -0.0325 0.9951
vn -0.1081 -0.0236 -0.9939
vt 0.750000 0.447158
vt 0.250000 0.458946
vt 0.788464 0.443370
vt 0.290763 0.454931
vt 0.825449 0.432150
vt 0.329960 0.443041
vt 0.859535 0.413931
vt 0.366084 0.423732
vt 0.889412 0.389412
vt 0.397747 0.397747
vt 0.913931 0.359535
vt 0.423732 0.366084
vt 0.932150 0.325449
vt 0.443041 0.329960
vt 0.943370 0.288464
vt 0.454931 0.290763
vt 0.947158 0.250000
vt 0.458946 0.250000
vt 0.943370 0.211536
vt 0.454931 0.209237
vt 0.932150 0.174551
vt 0.443041 0.170040
vt 0.913931 0.140465
vt 0.423732 0.133916
vt 0.889412 0.110588
vt 0.397747 0.102253
vt 0.859535 0.086069
vt 0.366084 0.076268
vt 0.825449 0.067850
vt 0.329960 0.056959
vt 0.788464 0.056630
vt 0.290763 0.045069
vt 0.750000 0.052842
vt 0.250000 0.041054
vt 0.711536 0.056630
vt 0.209237 0.045069
vt 0.674551 0.067850
vt 0.170040 0.056959
vt 0.640465 0.086069
vt 0.133916 0.076268
vt 0.610588 0.110588
vt 0.102253 0.102253
vt 0.586069 0.140465
vt 0.076268 0.133916
vt 0.567850 0.174551
vt 0.056959 0.170040
vt 0.556630 0.211536
vt 0.045069 0.209237
vt 0.552842 0.250000
vt 0.041054 0.250000
vt 0.556630 0.288464
vt 0.045069 0.290763
vt 0.567850 0.325449
vt 0.056959 0.329960
vt 0.586069 0.359535
vt 0.076268 0.366084
vt 0.610588 0.389412
vt 0.102253 0.397747
vt 0.640465 0.413931
vt 0.133916 0.423732
vt 0.674551 0.432150
vt 0.170040 0.443041
vt 0.711537 0.443370
vt 0.209237 0.454931
vt 0.968750 1.000000
vt 0.296822 0.485388
vt 1.000000 1.000000
vt 0.000000 1.000000
vt 0.250000 0.490000
vt 0.937500 1.000000
vt 0.341844 0.471731
vt 0.906250 1.000000
vt 0.383337 0.449553
vt 0.875000 1.000000
vt 0.419706 0.419706
vt 0.843750 1.000000
vt 0.449553 0.383337
vt 0.812500 1.000000
vt 0.471731 0.341844
vt 0.781250 1.000000
vt 0.485388 0.296822
vt 0.750000 1.000000
vt 0.490000 0.250000
vt 0.718750 1.000000
vt 0.485388 0.203178
vt 0.687500 1.000000
vt 0.471731 0.158156
vt 0.656250 1.000000
vt 0.449553 0.116663
vt 0.625000 1.000000
vt 0.419706 0.080294
vt 0.593750 1.000000
vt 0.383337 0.050447
vt 0.562500 1.000000
vt 0.341844 0.028269
vt 0.531250 1.000000
vt 0.296822 0.014612
vt 0.500000 1.000000
vt 0.250000 0.010000
vt 0.468750 1.000000
vt 0.203178 0.014612
vt 0.437500 1.000000
vt 0.158156 0.028269
vt 0.406250 1.000000
vt 0.116663 0.050447
vt 0.375000 1.000000
vt 0.080294 0.080294
vt 0.343750 1.000000
vt 0.050447 0.116663
vt 0.312500 1.000000
vt 0.028269 0.158156
vt 0.281250 1.000000
vt 0.014612 0.203178
vt 0.250000 1.000000
vt 0.010000 0.250000
vt 0.218750 1.000000
vt 0.014612 0.296822
vt 0.187500 1.000000
vt 0.028269 0.341844
vt 0.156250 1.000000
vt 0.050447 0.383337
vt 0.125000 1.000000
vt 0.080294 0.419706
vt 0.093750 1.000000
vt 0.116663 0.449553
vt 0.062500 1.000000
vt 0.158156 0.471731
vt 0.031250 1.000000
vt 0.203178 0.485388
vt 0.290763 0.454931
vt 0.250000 0.458946
vt 0.329960 0.443041
vt 0.366084 0.423732
vt 0.397747 0.397747
vt 0.423732 0.366084
vt 0.443041 0.329960
vt 0.454931 0.290763
vt 0.458946 0.250000
vt 0.454931 0.209237
vt 0.443041 0.170040
vt 0.423732 0.133916
vt 0.397747 0.102253
vt 0.366084 0.076268
vt 0.329960 0.056959
vt 0.290763 0.045069
vt 0.250000 0.041054
vt 0.209237 0.045069
vt 0.170040 0.056959
vt 0.133916 0.076268
vt 0.102253 0.102253
vt 0.076268 0.133916
vt 0.056959 0.170040
vt 0.045069 0.209237
vt 0.041054 0.250000
vt 0.045069 0.290763
vt 0.056959 0.329960
vt 0.076268 0.366084
vt 0.102253 0.397747
vt 0.133916 0.423732
vt 0.170040 0.443041
vt 0.209237 0.454931
vt 1.000000 0.500000
vt 0.750000 0.490000
vt 0.000000 0.500000
vt 0.796822 0.485388
vt 0.968750 0.500000
vt 0.841844 0.471731
vt 0.937500 0.500000
vt 0.883337 0.449553
vt 0.906250 0.500000
vt 0.919706 0.419706
vt 0.875000 0.500000
vt 0.949553 0.383337
vt 0.843750 0.500000
vt 0.971731 0.341844
vt 0.812500 0.500000
vt 0.985388 0.296822
vt 0.781250 0.500000
vt 0.990000 0.250000
vt 0.750000 0.500000
vt 0.985388 0.203178
vt 0.718750 0.500000
vt 0.971731 0.158156
vt 0.687500 0.500000
vt 0.949553 0.116663
vt 0.656250 0.500000
vt 0.919706 0.080294
vt 0.625000 0.500000
vt 0.883337 0.050447
vt 0.593750 0.500000
vt 0.841844 0.028269
vt 0.562500 0.500000
vt 0.796822 0.014612
vt 0.531250 0.500000
vt 0.750000 0.010000
vt 0.500000 0.500000
vt 0.703178 0.014612
vt 0.468750 0.500000
vt 0.658156 0.028269
vt 0.437500 0.500000
vt 0.616663 0.050447
vt 0.406250 0.500000
vt 0.580294 0.080294
vt 0.375000 0.500000
vt 0.550447 0.116663
vt 0.343750 0.500000
vt 0.528269 0.158156
vt 0.312500 0.500000
vt 0.514612 0.203178
vt 0.281250 0.500000
vt 0.510000 0.250000
vt 0.250000 0.500000
vt 0.514612 0.296822
vt 0.218750 0.500000
vt 0.528269 0.341844
vt 0.187500 0.500000
vt 0.550447 0.383337
vt 0.156250 0.500000
vt 0.580294 0.419706
vt 0.125000 0.500000
vt 0.616663 0.449553
vt 0.093750 0.500000
vt 0.658156 0.471731
vt 0.062500 0.500000
vt 0.031250 0.500000
vt 0.703178 0.485388
vt 0.750000 0.456792
vt 0.790343 0.452819
vt 0.829136 0.441051
vt 0.864888 0.421942
vt 0.896224 0.396224
vt 0.921942 0.364888
vt 0.941051 0.329136
vt 0.952819 0.290343
vt 0.956792 0.250000
vt 0.952819 0.209657
vt 0.941051 0.170864
vt 0.921942 0.135112
vt 0.896224 0.103776
vt 0.864888 0.078058
vt 0.829136 0.058949
vt 0.790343 0.047181
vt 0.750000 0.043208
vt 0.709657 0.047181
vt 0.670864 0.058949
vt 0.635112 0.078058
vt 0.603776 0.103776
vt 0.578058 0.135112
vt 0.558949 0.170864
vt 0.547181 0.209657
vt 0.543208 0.250000
vt 0.547181 0.290343
vt 0.558949 0.329136
vt 0.578058 0.364888
vt 0.603776 0.396224
vt 0.635112 0.421942
vt 0.670864 0.441051
vt 0.709657 0.452819
vt 0.000000 0.625000
vt 1.000000 0.625000
vt 0.000000 0.750000
vt 1.000000 0.750000
vt 0.000000 0.875000
vt 1.000000 0.875000
vt 0.968750 0.875000
vt 0.968750 0.750000
vt 0.968750 0.625000
vt 0.937500 0.875000
vt 0.937500 0.750000
vt 0.937500 0.625000
vt 0.906250 0.875000
vt 0.906250 0.750000
vt 0.906250 0.625000
vt 0.875000 0.875000
vt 0.875000 0.750000
vt 0.875000 0.625000
vt 0.843750 0.875000
vt 0.843750 0.750000
vt 0.843750 0.625000
vt 0.812500 0.875000
vt 0.812500 0.750000
vt 0.812500 0.625000
vt 0.781250 0.875000
vt 0.781250 0.750000
vt 0.781250 0.625000
vt 0.750000 0.875000
vt 0.750000 0.750000
vt 0.750000 0.625000
vt 0.718750 0.875000
vt 0.718750 0.750000
vt 0.718750 0.625000
vt 0.687500 0.875000
vt 0.687500 0.750000
vt 0.687500 0.625000
vt 0.656250 0.875000
vt 0.656250 0.750000
vt 0.656250 0.625000
vt 0.625000 0.875000
vt 0.625000 0.750000
vt 0.625000 0.625000
vt 0.593750 0.875000
vt 0.593750 0.750000
vt 0.593750 0.625000
vt 0.562500 0.875000
vt 0.562500 0.750000
vt 0.562500 0.625000
vt 0.531250 0.875000
vt 0.531250 0.750000
vt 0.531250 0.625000
vt 0.500000 0.875000
vt 0.500000 0.750000
vt 0.500000 0.625000
vt 0.468750 0.875000
vt 0.468750 0.750000
vt 0.468750 0.625000
vt 0.437500 0.875000
vt 0.437500 0.750000
vt 0.437500 0.625000
vt 0.406250 0.875000
vt 0.406250 0.750000
vt 0.406250 0.625000
vt 0.375000 0.875000
vt 0.375000 0.750000
vt 0.375000 0.625000
vt 0.343750 0.875000
vt 0.343750 0.750000
vt 0.343750 0.625000
vt 0.312500 0.875000
vt 0.312500 0.750000
vt 0.312500 0.625000
vt 0.281250 0.875000
vt 0.281250 0.750000
vt 0.281250 0.625000
vt 0.250000 0.875000
vt 0.250000 0.750000
vt 0.250000 0.625000
vt 0.218750 0.875000
vt 0.218750 0.750000
vt 0.218750 0.625000
vt 0.187500 0.875000
vt 0.187500 0.750000
vt 0.187500 0.625000
vt 0.156250 0.875000
vt 0.156250 0.750000
vt 0.156250 0.625000
vt 0.125000 0.875000
vt 0.125000 0.750000
vt 0.125000 0.625000
vt 0.093750 0.875000
vt 0.093750 0.750000
vt 0.093750 0.625000
vt 0.062500 0.875000
vt 0.062500 0.750000
vt 0.062500 0.625000
vt 0.031250 0.875000
vt 0.031250 0.750000
vt 0.031250 0.625000
vt 0.281250 0.812500
vt 0.281250 0.687500
vt 0.250000 0.812500
vt 0.250000 0.687500
vt 0.265625 0.625000
vt 0.265625 0.750000
vt 0.265625 0.875000
vt 0.265625 0.812500
vt 0.265625 0.687500
vt 0.265625 0.875000
vt 0.250000 0.875000
vt 0.281250 0.875000
vt 0.281250 0.812500
vt 0.250000 0.812500
vt 0.265625 0.812500
vt 0.265625 0.750000
vt 0.250000 0.750000
vt 0.281250 0.750000
vt 0.281250 0.687500
vt 0.250000 0.687500
vt 0.265625 0.687500
vt 0.281250 0.687500
vt 0.265625 0.687500
vt 0.265625 0.750000
vt 0.281250 0.750000
vt 0.250000 0.687500
vt 0.250000 0.750000
vt 0.250000 0.812500
vt 0.250000 0.875000
vt 0.281250 0.875000
vt 0.281250 0.812500
vt 0.265625 0.812500
vt 0.265625 0.875000
vt 0.265625 0.687500
vt 0.281250 0.750000
vt 0.250000 0.750000
vt 0.281250 0.687500
vt 0.265625 0.750000
vt 0.250000 0.687500
vt 0.265625 0.782331
vt 0.250000 0.782331
vt 0.250000 0.782331
vt 0.265625 0.782331
vt 0.281250 0.782331
vt 0.281250 0.782331
vt 0.250000 0.875000
vt 0.281250 0.812500
vt 0.265625 0.875000
vt 0.250000 0.812500
vt 0.281250 0.875000
vt 0.265625 0.812500
s 0
f 66/67/1 196/265/1 195/264/1
f 65/65/2 199/268/2 196/265/2
f 67/70/3 202/271/3 199/268/3
f 68/72/4 205/274/4 202/271/4
f 69/74/5 208/277/5 205/274/5
f 70/76/6 211/280/6 208/277/6
f 71/78/7 214/283/7 211/280/7
f 72/80/8 217/286/8 214/283/8
f 73/82/9 220/289/9 217/286/9
f 74/84/10 223/292/10 220/289/10
f 75/86/11 226/295/11 223/292/11
f 76/88/12 229/298/12 226/295/12
f 77/90/13 232/301/13 229/298/13
f 78/92/14 235/304/14 232/301/14
f 235/304/15 80/96/15 238/307/15
f 238/307/16 81/98/16 241/310/16
f 241/310/17 82/100/17 244/313/17
f 82/100/18 247/316/18 244/313/18
f 83/102/19 250/319/19 247/316/19
f 84/104/20 253/322/20 250/319/20
f 85/106/21 256/325/21 253/322/21
f 256/325/22 87/110/22 259/328/22
f 259/328/23 88/112/23 262/331/23
f 88/112/24 265/334/24 295/364/24
f 265/334/25 90/116/25 268/337/25
f 90/116/26 271/340/26 268/337/26
f 91/118/27 274/343/27 271/340/27
f 92/120/28 277/346/28 274/343/28
f 93/122/29 280/349/29 277/346/29
f 94/124/30 283/352/30 280/349/30
f 52/52/31 123/156/31 54/54/31
f 95/126/32 286/355/32 283/352/32
f 96/128/33 195/263/33 286/355/33
f 31/31/34 47/47/34 63/63/34
f 2/2/35 65/66/35 66/69/35
f 6/6/35 65/66/35 4/4/35
f 6/6/35 68/73/35 67/71/35
f 8/8/35 69/75/35 68/73/35
f 12/12/35 69/75/35 10/10/35
f 12/12/35 71/79/35 70/77/35
f 14/14/35 72/81/35 71/79/35
f 18/18/35 72/81/35 16/16/35
f 18/18/35 74/85/35 73/83/35
f 22/22/35 74/85/35 20/20/35
f 24/24/35 75/87/35 22/22/35
f 26/26/35 76/89/35 24/24/35
f 26/26/35 78/93/35 77/91/35
f 30/30/35 78/93/35 28/28/35
f 30/30/35 80/97/35 79/95/35
f 34/34/35 80/97/35 32/32/35
f 34/34/35 82/101/35 81/99/35
f 38/38/35 82/101/35 36/36/35
f 40/40/35 83/103/35 38/38/35
f 42/42/35 84/105/35 40/40/35
f 44/44/35 85/107/35 42/42/35
f 44/44/35 87/111/35 86/109/35
f 48/48/35 87/111/35 46/46/35
f 50/50/35 88/113/35 48/48/35
f 52/52/35 89/115/35 50/50/35
f 52/52/35 91/119/35 90/117/35
f 56/56/35 91/119/35 54/54/35
f 56/56/35 93/123/35 92/121/35
f 60/60/35 93/123/35 58/58/35
f 62/62/35 94/125/35 60/60/35
f 64/64/35 95/127/35 62/62/35
f 2/2/35 96/129/35 64/64/35
f 115/148/35 107/140/35 99/132/35
f 26/26/36 110/143/36 28/28/36
f 54/54/37 124/157/37 56/56/37
f 28/28/38 111/144/38 30/30/38
f 2/2/39 97/130/39 4/4/39
f 58/58/40 124/157/40 125/158/40
f 30/30/41 112/145/41 32/32/41
f 4/4/42 99/132/42 6/6/42
f 58/58/43 126/159/43 60/60/43
f 32/32/44 113/146/44 34/34/44
f 6/6/45 100/133/45 8/8/45
f 60/60/46 127/160/46 62/62/46
f 34/34/47 114/147/47 36/36/47
f 8/8/48 101/134/48 10/10/48
f 62/62/49 128/161/49 64/64/49
f 36/36/50 115/148/50 38/38/50
f 10/10/51 102/135/51 12/12/51
f 64/64/52 98/131/52 2/2/52
f 38/38/53 116/149/53 40/40/53
f 12/12/54 103/136/54 14/14/54
f 42/42/55 116/149/55 117/150/55
f 14/14/56 104/137/56 16/16/56
f 44/44/57 117/150/57 118/151/57
f 16/16/58 105/138/58 18/18/58
f 44/44/59 119/152/59 46/46/59
f 18/18/60 106/139/60 20/20/60
f 48/48/61 119/152/61 120/153/61
f 20/20/62 107/140/62 22/22/62
f 48/48/63 121/154/63 50/50/63
f 22/22/64 108/141/64 24/24/64
f 50/50/65 122/155/65 52/52/65
f 24/24/66 109/142/66 26/26/66
f 161/227/34 130/165/34 162/228/34
f 162/228/34 131/167/34 163/229/34
f 163/229/34 132/169/34 164/230/34
f 164/230/34 133/171/34 165/231/34
f 165/231/34 134/173/34 166/232/34
f 166/232/34 135/175/34 167/233/34
f 167/233/34 136/177/34 168/234/34
f 169/235/34 136/177/34 137/179/34
f 169/235/34 138/181/34 170/236/34
f 170/236/34 139/183/34 171/237/34
f 171/237/34 140/185/34 172/238/34
f 172/238/34 141/187/34 173/239/34
f 174/240/34 141/187/34 142/189/34
f 174/240/34 143/191/34 175/241/34
f 175/241/34 144/193/34 176/242/34
f 177/243/34 144/193/34 145/195/34
f 177/243/34 146/197/34 178/244/34
f 178/244/34 147/199/34 179/245/34
f 180/246/34 147/199/34 148/201/34
f 180/246/34 149/203/34 181/247/34
f 181/247/34 150/205/34 182/248/34
f 182/248/34 151/207/34 183/249/34
f 183/249/34 152/209/34 184/250/34
f 184/250/34 153/211/34 185/251/34
f 185/251/34 154/213/34 186/252/34
f 186/252/34 155/215/34 187/253/34
f 187/253/34 156/217/34 188/254/34
f 188/254/34 157/219/34 189/255/34
f 190/256/34 157/219/34 158/221/34
f 190/256/34 159/223/34 191/257/34
f 191/257/34 160/226/34 192/258/34
f 192/258/34 129/163/34 161/227/34
f 3/3/67 161/227/67 162/228/67
f 5/5/68 162/228/68 163/229/68
f 7/7/69 163/229/69 164/230/69
f 7/7/70 165/231/70 9/9/70
f 9/9/71 166/232/71 11/11/71
f 11/11/72 167/233/72 13/13/72
f 13/13/73 168/234/73 15/15/73
f 15/15/74 169/235/74 17/17/74
f 17/17/75 170/236/75 19/19/75
f 19/19/76 171/237/76 21/21/76
f 23/23/77 171/237/77 172/238/77
f 23/23/78 173/239/78 25/25/78
f 27/27/79 173/239/79 174/240/79
f 29/29/80 174/240/80 175/241/80
f 29/29/81 176/242/81 31/31/81
f 31/31/82 177/243/82 33/33/82
f 33/33/83 178/244/83 35/35/83
f 35/35/84 179/245/84 37/37/84
f 37/37/85 180/246/85 39/39/85
f 39/39/86 181/247/86 41/41/86
f 41/41/87 182/248/87 43/43/87
f 43/43/88 183/249/88 45/45/88
f 47/47/89 183/249/89 184/250/89
f 47/47/90 185/251/90 49/49/90
f 49/49/91 186/252/91 51/51/91
f 51/51/92 187/253/92 53/53/92
f 55/55/93 187/253/93 188/254/93
f 55/55/94 189/255/94 57/57/94
f 57/57/95 190/256/95 59/59/95
f 59/59/96 191/257/96 61/61/96
f 61/61/97 192/258/97 63/63/97
f 63/63/98 161/227/98 1/1/98
f 288/357/99 129/164/99 160/225/99
f 288/357/100 194/261/100 193/259/100
f 286/355/101 194/261/101 287/356/101
f 159/224/102 288/357/102 160/225/102
f 285/354/103 287/356/103 288/357/103
f 284/353/104 286/355/104 287/356/104
f 158/222/105 285/354/105 159/224/105
f 282/351/106 284/353/106 285/354/106
f 281/350/107 283/352/107 284/353/107
f 157/220/108 282/351/108 158/222/108
f 279/348/109 281/350/109 282/351/109
f 277/346/110 281/350/110 278/347/110
f 156/218/111 279/348/111 157/220/111
f 276/345/112 278/347/112 279/348/112
f 274/343/113 278/347/113 275/344/113
f 155/216/114 276/345/114 156/218/114
f 273/342/115 275/344/115 276/345/115
f 271/340/116 275/344/116 272/341/116
f 154/214/117 273/342/117 155/216/117
f 270/339/118 272/341/118 273/342/118
f 268/337/119 272/341/119 269/338/119
f 153/212/120 270/339/120 154/214/120
f 292/361/121 269/338/121 270/339/121
f 291/360/122 268/337/122 269/338/122
f 264/333/123 267/336/123 153/212/123
f 331/400/124 306/375/124 332/401/124
f 151/208/125 264/333/125 152/210/125
f 260/329/126 290/359/126 264/333/126
f 259/328/127 289/358/127 263/332/127
f 150/206/128 261/330/128 151/208/128
f 258/327/129 260/329/129 261/330/129
f 256/325/130 260/329/130 257/326/130
f 149/204/131 258/327/131 150/206/131
f 255/324/132 257/326/132 258/327/132
f 253/322/133 257/326/133 254/323/133
f 148/202/134 255/324/134 149/204/134
f 251/320/135 255/324/135 252/321/135
f 250/319/136 254/323/136 251/320/136
f 147/200/137 252/321/137 148/202/137
f 249/318/138 251/320/138 252/321/138
f 247/316/139 251/320/139 248/317/139
f 146/198/140 249/318/140 147/200/140
f 245/314/141 249/318/141 246/315/141
f 244/313/142 248/317/142 245/314/142
f 145/196/143 246/315/143 146/198/143
f 242/311/144 246/315/144 243/312/144
f 241/310/145 245/314/145 242/311/145
f 144/194/146 243/312/146 145/196/146
f 239/308/147 243/312/147 240/309/147
f 238/307/148 242/311/148 239/308/148
f 237/306/149 144/194/149 143/192/149
f 236/305/150 240/309/150 237/306/150
f 235/304/151 239/308/151 236/305/151
f 234/303/152 143/192/152 142/190/152
f 233/302/153 237/306/153 234/303/153
f 232/301/154 236/305/154 233/302/154
f 231/300/155 142/190/155 141/188/155
f 230/299/156 234/303/156 231/300/156
f 229/298/157 233/302/157 230/299/157
f 228/297/158 141/188/158 140/186/158
f 227/296/159 231/300/159 228/297/159
f 226/295/160 230/299/160 227/296/160
f 225/294/161 140/186/161 139/184/161
f 224/293/162 228/297/162 225/294/162
f 223/292/163 227/296/163 224/293/163
f 222/291/164 139/184/164 138/182/164
f 221/290/165 225/294/165 222/291/165
f 220/289/166 224/293/166 221/290/166
f 219/288/167 138/182/167 137/180/167
f 218/287/168 222/291/168 219/288/168
f 218/287/169 220/289/169 221/290/169
f 216/285/170 137/180/170 136/178/170
f 215/284/171 219/288/171 216/285/171
f 214/283/172 218/287/172 215/284/172
f 213/282/173 136/178/173 135/176/173
f 212/281/174 216/285/174 213/282/174
f 211/280/175 215/284/175 212/281/175
f 210/279/176 135/176/176 134/174/176
f 209/278/177 213/282/177 210/279/177
f 208/277/178 212/281/178 209/278/178
f 207/276/179 134/174/179 133/172/179
f 206/275/180 210/279/180 207/276/180
f 205/274/181 209/278/181 206/275/181
f 204/273/182 133/172/182 132/170/182
f 203/272/183 207/276/183 204/273/183
f 203/272/184 205/274/184 206/275/184
f 201/270/185 132/170/185 131/168/185
f 200/269/186 204/273/186 201/270/186
f 200/269/187 202/271/187 203/272/187
f 198/267/188 131/168/188 130/166/188
f 197/266/189 201/270/189 198/267/189
f 196/265/190 200/269/190 197/266/190
f 193/260/191 130/166/191 129/162/191
f 193/260/192 197/266/192 198/267/192
f 194/262/193 196/265/193 197/266/193
f 296/365/194 266/335/194 294/363/194
f 263/332/194 296/365/194 294/363/194
f 311/380/195 307/376/195 309/378/195
f 319/388/196 300/369/196 301/370/196
f 316/385/197 299/368/197 317/386/197
f 292/361/198 293/362/198 290/359/198
f 302/371/199 298/367/199 299/368/199
f 301/370/199 298/367/199 303/372/199
f 305/374/124 331/400/124 330/399/124
f 317/386/200 298/367/200 321/390/200
f 329/398/201 305/374/201 330/399/201
f 321/390/200 300/369/200 318/387/200
f 304/373/202 308/377/202 309/378/202
f 307/376/202 304/373/202 309/378/202
f 315/384/203 308/377/203 305/374/203
f 313/382/204 307/376/204 310/379/204
f 311/380/195 308/377/195 314/383/195
f 328/397/205 315/384/205 329/398/205
f 324/393/206 312/381/206 326/395/206
f 322/391/207 314/383/207 327/396/207
f 323/392/208 310/379/208 325/394/208
f 324/393/209 314/383/209 315/384/209
f 322/391/207 310/379/207 311/380/207
f 326/395/206 313/382/206 323/392/206
f 338/407/210 321/390/210 318/387/210
f 339/408/211 319/388/211 320/389/211
f 334/403/210 321/390/210 336/405/210
f 337/406/211 320/389/211 316/385/211
f 337/406/212 317/386/212 334/403/212
f 335/404/213 318/387/213 319/388/213
f 333/402/214 301/370/214 332/401/214
f 328/397/205 313/382/205 312/381/205
f 263/332/215 326/395/215 323/392/215
f 290/359/216 322/391/216 297/366/216
f 292/361/217 324/393/217 266/335/217
f 290/359/218 323/392/218 325/394/218
f 292/361/216 322/391/216 327/396/216
f 294/363/215 324/393/215 326/395/215
f 319/388/219 328/397/219 320/389/219
f 333/402/220 306/375/220 313/382/220
f 320/389/219 329/398/219 316/385/219
f 329/398/221 302/371/221 316/385/221
f 330/399/222 303/372/222 302/371/222
f 303/372/222 332/401/222 301/370/222
f 262/331/223 335/404/223 289/358/223
f 265/334/224 337/406/224 334/403/224
f 296/365/225 337/406/225 291/360/225
f 265/334/226 336/405/226 295/364/226
f 296/365/225 335/404/225 339/408/225
f 262/331/226 336/405/226 338/407/226
f 66/67/1 65/65/1 196/265/1
f 65/65/2 67/70/2 199/268/2
f 67/70/3 68/72/3 202/271/3
f 68/72/4 69/74/4 205/274/4
f 69/74/5 70/76/5 208/277/5
f 70/76/6 71/78/6 211/280/6
f 71/78/7 72/80/7 214/283/7
f 72/80/8 73/82/8 217/286/8
f 73/82/9 74/84/9 220/289/9
f 74/84/10 75/86/10 223/292/10
f 75/86/11 76/88/11 226/295/11
f 76/88/12 77/90/12 229/298/12
f 77/90/13 78/92/13 232/301/13
f 78/92/14 79/94/14 235/304/14
f 235/304/15 79/94/15 80/96/15
f 238/307/16 80/96/16 81/98/16
f 241/310/17 81/98/17 82/100/17
f 82/100/18 83/102/18 247/316/18
f 83/102/19 84/104/19 250/319/19
f 84/104/20 85/106/20 253/322/20
f 85/106/21 86/108/21 256/325/21
f 256/325/22 86/108/22 87/110/22
f 259/328/23 87/110/23 88/112/23
f 295/364/24 262/331/24 88/112/24
f 88/112/24 89/114/24 265/334/24
f 265/334/25 89/114/25 90/116/25
f 90/116/26 91/118/26 271/340/26
f 91/118/27 92/120/27 274/343/27
f 92/120/28 93/122/28 277/346/28
f 93/122/29 94/124/29 280/349/29
f 94/124/30 95/126/30 283/352/30
f 52/52/31 122/155/31 123/156/31
f 95/126/32 96/128/32 286/355/32
f 96/128/33 66/68/33 195/263/33
f 63/63/34 1/1/34 3/3/34
f 3/3/34 5/5/34 7/7/34
f 7/7/34 9/9/34 11/11/34
f 11/11/34 13/13/34 15/15/34
f 15/15/34 17/17/34 19/19/34
f 19/19/34 21/21/34 23/23/34
f 23/23/34 25/25/34 27/27/34
f 27/27/34 29/29/34 31/31/34
f 31/31/34 33/33/34 35/35/34
f 35/35/34 37/37/34 39/39/34
f 39/39/34 41/41/34 43/43/34
f 43/43/34 45/45/34 47/47/34
f 47/47/34 49/49/34 51/51/34
f 51/51/34 53/53/34 55/55/34
f 55/55/34 57/57/34 59/59/34
f 59/59/34 61/61/34 63/63/34
f 63/63/34 3/3/34 7/7/34
f 7/7/34 11/11/34 15/15/34
f 15/15/34 19/19/34 23/23/34
f 23/23/34 27/27/34 31/31/34
f 31/31/34 35/35/34 39/39/34
f 39/39/34 43/43/34 47/47/34
f 47/47/34 51/51/34 55/55/34
f 55/55/34 59/59/34 63/63/34
f 63/63/34 7/7/34 15/15/34
f 15/15/34 23/23/34 31/31/34
f 31/31/34 39/39/34 47/47/34
f 47/47/34 55/55/34 63/63/34
f 63/63/34 15/15/34 31/31/34
f 2/2/35 4/4/35 65/66/35
f 6/6/35 67/71/35 65/66/35
f 6/6/35 8/8/35 68/73/35
f 8/8/35 10/10/35 69/75/35
f 12/12/35 70/77/35 69/75/35
f 12/12/35 14/14/35 71/79/35
f 14/14/35 16/16/35 72/81/35
f 18/18/35 73/83/35 72/81/35
f 18/18/35 20/20/35 74/85/35
f 22/22/35 75/87/35 74/85/35
f 24/24/35 76/89/35 75/87/35
f 26/26/35 77/91/35 76/89/35
f 26/26/35 28/28/35 78/93/35
f 30/30/35 79/95/35 78/93/35
f 30/30/35 32/32/35 80/97/35
f 34/34/35 81/99/35 80/97/35
f 34/34/35 36/36/35 82/101/35
f 38/38/35 83/103/35 82/101/35
f 40/40/35 84/105/35 83/103/35
f 42/42/35 85/107/35 84/105/35
f 44/44/35 86/109/35 85/107/35
f 44/44/35 46/46/35 87/111/35
f 48/48/35 88/113/35 87/111/35
f 50/50/35 89/115/35 88/113/35
f 52/52/35 90/117/35 89/115/35
f 52/52/35 54/54/35 91/119/35
f 56/56/35 92/121/35 91/119/35
f 56/56/35 58/58/35 93/123/35
f 60/60/35 94/125/35 93/123/35
f 62/62/35 95/127/35 94/125/35
f 64/64/35 96/129/35 95/127/35
f 2/2/35 66/69/35 96/129/35
f 99/132/35 97/130/35 98/131/35
f 98/131/35 128/161/35 127/160/35
f 127/160/35 126/159/35 125/158/35
f 125/158/35 124/157/35 123/156/35
f 123/156/35 122/155/35 121/154/35
f 121/154/35 120/153/35 119/152/35
f 119/152/35 118/151/35 117/150/35
f 117/150/35 116/149/35 115/148/35
f 115/148/35 114/147/35 113/146/35
f 113/146/35 112/145/35 111/144/35
f 111/144/35 110/143/35 109/142/35
f 109/142/35 108/141/35 107/140/35
f 107/140/35 106/139/35 105/138/35
f 105/138/35 104/137/35 103/136/35
f 103/136/35 102/135/35 101/134/35
f 101/134/35 100/133/35 99/132/35
f 99/132/35 98/131/35 127/160/35
f 127/160/35 125/158/35 123/156/35
f 123/156/35 121/154/35 119/152/35
f 119/152/35 117/150/35 115/148/35
f 115/148/35 113/146/35 111/144/35
f 111/144/35 109/142/35 107/140/35
f 107/140/35 105/138/35 103/136/35
f 103/136/35 101/134/35 99/132/35
f 99/132/35 127/160/35 123/156/35
f 123/156/35 119/152/35 115/148/35
f 115/148/35 111/144/35 107/140/35
f 107/140/35 103/136/35 99/132/35
f 99/132/35 123/156/35 115/148/35
f 26/26/36 109/142/36 110/143/36
f 54/54/37 123/156/37 124/157/37
f 28/28/38 110/143/38 111/144/38
f 2/2/39 98/131/39 97/130/39
f 58/58/40 56/56/40 124/157/40
f 30/30/41 111/144/41 112/145/41
f 4/4/42 97/130/42 99/132/42
f 58/58/43 125/158/43 126/159/43
f 32/32/44 112/145/44 113/146/44
f 6/6/45 99/132/45 100/133/45
f 60/60/46 126/159/46 127/160/46
f 34/34/47 113/146/47 114/147/47
f 8/8/48 100/133/48 101/134/48
f 62/62/49 127/160/49 128/161/49
f 36/36/50 114/147/50 115/148/50
f 10/10/51 101/134/51 102/135/51
f 64/64/52 128/161/52 98/131/52
f 38/38/53 115/148/53 116/149/53
f 12/12/54 102/135/54 103/136/54
f 42/42/55 40/40/55 116/149/55
f 14/14/56 103/136/56 104/137/56
f 44/44/57 42/42/57 117/150/57
f 16/16/58 104/137/58 105/138/58
f 44/44/59 118/151/59 119/152/59
f 18/18/60 105/138/60 106/139/60
f 48/48/61 46/46/61 119/152/61
f 20/20/62 106/139/62 107/140/62
f 48/48/63 120/153/63 121/154/63
f 22/22/64 107/140/64 108/141/64
f 50/50/65 121/154/65 122/155/65
f 24/24/66 108/141/66 109/142/66
f 161/227/34 129/163/34 130/165/34
f 162/228/34 130/165/34 131/167/34
f 163/229/34 131/167/34 132/169/34
f 164/230/34 132/169/34 133/171/34
f 165/231/34 133/171/34 134/173/34
f 166/232/34 134/173/34 135/175/34
f 167/233/34 135/175/34 136/177/34
f 169/235/34 168/234/34 136/177/34
f 169/235/34 137/179/34 138/181/34
f 170/236/34 138/181/34 139/183/34
f 171/237/34 139/183/34 140/185/34
f 172/238/34 140/185/34 141/187/34
f 174/240/34 173/239/34 141/187/34
f 174/240/34 142/189/34 143/191/34
f 175/241/34 143/191/34 144/193/34
f 177/243/34 176/242/34 144/193/34
f 177/243/34 145/195/34 146/197/34
f 178/244/34 146/197/34 147/199/34
f 180/246/34 179/245/34 147/199/34
f 180/246/34 148/201/34 149/203/34
f 181/247/34 149/203/34 150/205/34
f 182/248/34 150/205/34 151/207/34
f 183/249/34 151/207/34 152/209/34
f 184/250/34 152/209/34 153/211/34
f 185/251/34 153/211/34 154/213/34
f 186/252/34 154/213/34 155/215/34
f 187/253/34 155/215/34 156/217/34
f 188/254/34 156/217/34 157/219/34
f 190/256/34 189/255/34 157/219/34
f 190/256/34 158/221/34 159/223/34
f 191/257/34 159/223/34 160/226/34
f 192/258/34 160/226/34 129/163/34
f 3/3/67 1/1/67 161/227/67
f 5/5/68 3/3/68 162/228/68
f 7/7/69 5/5/69 163/229/69
f 7/7/70 164/230/70 165/231/70
f 9/9/71 165/231/71 166/232/71
f 11/11/72 166/232/72 167/233/72
f 13/13/73 167/233/73 168/234/73
f 15/15/74 168/234/74 169/235/74
f 17/17/75 169/235/75 170/236/75
f 19/19/76 170/236/76 171/237/76
f 23/23/77 21/21/77 171/237/77
f 23/23/78 172/238/78 173/239/78
f 27/27/79 25/25/79 173/239/79
f 29/29/80 27/27/80 174/240/80
f 29/29/81 175/241/81 176/242/81
f 31/31/82 176/242/82 177/243/82
f 33/33/83 177/243/83 178/244/83
f 35/35/84 178/244/84 179/245/84
f 37/37/85 179/245/85 180/246/85
f 39/39/86 180/246/86 181/247/86
f 41/41/87 181/247/87 182/248/87
f 43/43/88 182/248/88 183/249/88
f 47/47/89 45/45/89 183/249/89
f 47/47/90 184/250/90 185/251/90
f 49/49/91 185/251/91 186/252/91
f 51/51/92 186/252/92 187/253/92
f 55/55/93 53/53/93 187/253/93
f 55/55/94 188/254/94 189/255/94
f 57/57/95 189/255/95 190/256/95
f 59/59/96 190/256/96 191/257/96
f 61/61/97 191/257/97 192/258/97
f 63/63/98 192/258/98 161/227/98
f 288/357/99 193/259/99 129/164/99
f 288/357/100 287/356/100 194/261/100
f 286/355/101 195/263/101 194/261/101
f 159/224/102 285/354/102 288/357/102
f 285/354/103 284/353/103 287/356/103
f 284/353/104 283/352/104 286/355/104
f 158/222/105 282/351/105 285/354/105
f 282/351/106 281/350/106 284/353/106
f 281/350/107 280/349/107 283/352/107
f 157/220/108 279/348/108 282/351/108
f 279/348/109 278/347/109 281/350/109
f 277/346/110 280/349/110 281/350/110
f 156/218/111 276/345/111 279/348/111
f 276/345/112 275/344/112 278/347/112
f 274/343/113 277/346/113 278/347/113
f 155/216/114 273/342/114 276/345/114
f 273/342/115 272/341/115 275/344/115
f 271/340/227 274/343/227 275/344/227
f 154/214/117 270/339/117 273/342/117
f 270/339/118 269/338/118 272/341/118
f 268/337/119 271/340/119 272/341/119
f 153/212/120 267/336/120 270/339/120
f 270/339/121 267/336/121 292/361/121
f 292/361/121 266/335/121 269/338/121
f 269/338/122 266/335/122 291/360/122
f 291/360/122 265/334/122 268/337/122
f 153/212/123 152/210/123 264/333/123
f 264/333/35 293/362/35 267/336/35
f 331/400/124 304/373/124 306/375/124
f 151/208/125 261/330/125 264/333/125
f 264/333/126 261/330/126 260/329/126
f 260/329/126 263/332/126 290/359/126
f 263/332/127 260/329/127 259/328/127
f 259/328/127 262/331/127 289/358/127
f 150/206/128 258/327/128 261/330/128
f 258/327/129 257/326/129 260/329/129
f 256/325/228 259/328/228 260/329/228
f 149/204/131 255/324/131 258/327/131
f 255/324/132 254/323/132 257/326/132
f 253/322/133 256/325/133 257/326/133
f 148/202/134 252/321/134 255/324/134
f 251/320/135 254/323/135 255/324/135
f 250/319/136 253/322/136 254/323/136
f 147/200/137 249/318/137 252/321/137
f 249/318/138 248/317/138 251/320/138
f 247/316/229 250/319/229 251/320/229
f 146/198/140 246/315/140 249/318/140
f 245/314/141 248/317/141 249/318/141
f 244/313/142 247/316/142 248/317/142
f 145/196/143 243/312/143 246/315/143
f 242/311/144 245/314/144 246/315/144
f 241/310/145 244/313/145 245/314/145
f 144/194/146 240/309/146 243/312/146
f 239/308/147 242/311/147 243/312/147
f 238/307/148 241/310/148 242/311/148
f 237/306/149 240/309/149 144/194/149
f 236/305/150 239/308/150 240/309/150
f 235/304/151 238/307/151 239/308/151
f 234/303/152 237/306/152 143/192/152
f 233/302/153 236/305/153 237/306/153
f 232/301/154 235/304/154 236/305/154
f 231/300/155 234/303/155 142/190/155
f 230/299/156 233/302/156 234/303/156
f 229/298/157 232/301/157 233/302/157
f 228/297/158 231/300/158 141/188/158
f 227/296/159 230/299/159 231/300/159
f 226/295/160 229/298/160 230/299/160
f 225/294/161 228/297/161 140/186/161
f 224/293/162 227/296/162 228/297/162
f 223/292/230 226/295/230 227/296/230
f 222/291/164 225/294/164 139/184/164
f 221/290/165 224/293/165 225/294/165
f 220/289/166 223/292/166 224/293/166
f 219/288/167 222/291/167 138/182/167
f 218/287/168 221/290/168 222/291/168
f 218/287/169 217/286/169 220/289/169
f 216/285/170 219/288/170 137/180/170
f 215/284/171 218/287/171 219/288/171
f 214/283/172 217/286/172 218/287/172
f 213/282/173 216/285/173 136/178/173
f 212/281/174 215/284/174 216/285/174
f 211/280/175 214/283/175 215/284/175
f 210/279/176 213/282/176 135/176/176
f 209/278/177 212/281/177 213/282/177
f 208/277/231 211/280/231 212/281/231
f 207/276/179 210/279/179 134/174/179
f 206/275/180 209/278/180 210/279/180
f 205/274/181 208/277/181 209/278/181
f 204/273/182 207/276/182 133/172/182
f 203/272/183 206/275/183 207/276/183
f 203/272/184 202/271/184 205/274/184
f 201/270/185 204/273/185 132/170/185
f 200/269/186 203/272/186 204/273/186
f 200/269/232 199/268/232 202/271/232
f 198/267/188 201/270/188 131/168/188
f 197/266/189 200/269/189 201/270/189
f 196/265/190 199/268/190 200/269/190
f 193/260/191 198/267/191 130/166/191
f 193/260/192 194/262/192 197/266/192
f 194/262/193 195/264/193 196/265/193
f 296/365/194 291/360/194 266/335/194
f 263/332/194 289/358/194 296/365/194
f 311/380/195 310/379/195 307/376/195
f 319/388/233 318/387/233 300/369/233
f 316/385/234 302/371/234 299/368/234
f 290/359/35 297/366/35 292/361/35
f 292/361/198 267/336/198 293/362/198
f 293/362/198 264/333/198 290/359/198
f 302/371/199 303/372/199 298/367/199
f 301/370/199 300/369/199 298/367/199
f 305/374/124 304/373/124 331/400/124
f 317/386/200 299/368/200 298/367/200
f 329/398/235 315/384/235 305/374/235
f 321/390/200 298/367/200 300/369/200
f 304/373/202 305/374/202 308/377/202
f 307/376/202 306/375/202 304/373/202
f 315/384/236 314/383/236 308/377/236
f 313/382/237 306/375/237 307/376/237
f 311/380/195 309/378/195 308/377/195
f 328/397/205 312/381/205 315/384/205
f 324/393/206 315/384/206 312/381/206
f 322/391/207 311/380/207 314/383/207
f 323/392/208 313/382/208 310/379/208
f 324/393/209 327/396/209 314/383/209
f 322/391/207 325/394/207 310/379/207
f 326/395/206 312/381/206 313/382/206
f 338/407/210 336/405/210 321/390/210
f 339/408/211 335/404/211 319/388/211
f 334/403/210 317/386/210 321/390/210
f 337/406/211 339/408/211 320/389/211
f 337/406/238 316/385/238 317/386/238
f 335/404/239 338/407/239 318/387/239
f 333/402/240 319/388/240 301/370/240
f 328/397/205 333/402/205 313/382/205
f 263/332/215 294/363/215 326/395/215
f 290/359/216 325/394/216 322/391/216
f 292/361/217 327/396/217 324/393/217
f 290/359/218 263/332/218 323/392/218
f 292/361/216 297/366/216 322/391/216
f 294/363/215 266/335/215 324/393/215
f 319/388/219 333/402/219 328/397/219
f 333/402/214 332/401/214 306/375/214
f 320/389/219 328/397/219 329/398/219
f 329/398/201 330/399/201 302/371/201
f 330/399/222 331/400/222 303/372/222
f 303/372/222 331/400/222 332/401/222
f 262/331/241 338/407/241 335/404/241
f 265/334/242 291/360/242 337/406/242
f 296/365/225 339/408/225 337/406/225
f 265/334/226 334/403/226 336/405/226
f 296/365/225 289/358/225 335/404/225
f 262/331/226 295/364/226 336/405/226
