# Blender 3.3.1
# www.blender.org
o Cube.001
v 0.000000 -0.003810 1.679901
v 0.000000 1.996190 1.679901
v -1.000000 -0.003810 -1.679901
v -1.000000 1.996190 -1.679901
v 0.666667 -0.003810 -1.762547
v 0.333333 -0.003810 -1.823437
v 1.000000 -0.003810 -1.679901
v 1.000000 1.996190 -1.679901
v -0.000000 -0.003810 -1.823437
v -0.333333 -0.003810 -1.823437
v -0.666667 -0.003810 -1.762547
v -0.666667 1.996190 -1.762547
v -0.333333 1.996190 -1.823437
v 0.000000 1.996190 -1.823437
v 0.333333 1.996190 -1.823437
v 0.666667 1.996190 -1.762547
vn -0.9584 -0.0000 0.2853
vn 0.2407 -0.0000 -0.9706
vn 0.9584 -0.0000 0.2853
vn -0.2407 -0.0000 -0.9706
vn -0.0000 -1.0000 -0.0000
vn -0.0000 1.0000 -0.0000
vn -0.1797 -0.0000 -0.9837
vn -0.0000 -0.0000 -1.0000
vn 0.1797 -0.0000 -0.9837
vt 0.375000 0.000000
vt 0.375000 0.750000
vt 0.125000 0.750000
vt 0.625000 0.000000
vt 0.625000 0.750000
vt 0.375000 0.250000
vt 0.125000 0.500000
vt 0.625000 0.250000
vt 0.875000 0.500000
vt 0.333333 0.500000
vt 0.375000 0.458333
vt 0.291667 0.500000
vt 0.375000 0.416667
vt 0.375000 0.500000
vt 0.625000 0.500000
vt 0.250000 0.500000
vt 0.375000 0.375000
vt 0.208333 0.500000
vt 0.375000 0.333333
vt 0.375000 0.291667
vt 0.166667 0.500000
vt 0.833333 0.500000
vt 0.625000 0.291667
vt 0.791667 0.500000
vt 0.625000 0.333333
vt 0.750000 0.500000
vt 0.625000 0.375000
vt 0.708333 0.500000
vt 0.625000 0.416667
vt 0.666667 0.500000
vt 0.625000 0.458333
s 0
f 2/4/1 3/6/1 1/1/1
f 16/31/2 7/14/2 5/11/2
f 8/15/3 1/2/3 7/14/3
f 4/8/4 11/20/4 3/6/4
f 9/16/5 5/10/5 1/3/5
f 14/26/6 12/22/6 2/5/6
f 12/23/7 10/19/7 11/20/7
f 13/25/8 9/17/8 10/19/8
f 14/27/8 6/13/8 9/17/8
f 15/29/9 5/11/9 6/13/9
f 2/4/1 4/8/1 3/6/1
f 16/31/2 8/15/2 7/14/2
f 8/15/3 2/5/3 1/2/3
f 4/8/4 12/23/4 11/20/4
f 1/3/5 3/7/5 11/21/5
f 11/21/5 10/18/5 9/16/5
f 9/16/5 6/12/5 5/10/5
f 5/10/5 7/14/5 1/3/5
f 1/3/5 11/21/5 9/16/5
f 2/5/6 8/15/6 16/30/6
f 16/30/6 15/28/6 14/26/6
f 14/26/6 13/24/6 12/22/6
f 12/22/6 4/9/6 2/5/6
f 2/5/6 16/30/6 14/26/6
f 12/23/7 13/25/7 10/19/7
f 13/25/8 14/27/8 9/17/8
f 14/27/8 15/29/8 6/13/8
f 15/29/9 16/31/9 5/11/9
