# Blender 3.3.1
# www.blender.org
o Cylinder.003
v -0.000000 -0.002877 -0.774955
v -0.000000 0.397064 -0.959853
v 0.151186 -0.002877 -0.760064
v 0.187258 0.397064 -0.941410
v 0.296562 -0.002877 -0.715965
v 0.367320 0.397064 -0.886788
v 0.430542 -0.002877 -0.644352
v 0.533266 0.397064 -0.798089
v 0.547976 -0.002877 -0.547976
v 0.678719 0.397064 -0.678719
v 0.644352 -0.002877 -0.430542
v 0.798089 0.397064 -0.533266
v 0.715965 -0.002877 -0.296562
v 0.886788 0.397064 -0.367320
v 0.760064 -0.002877 -0.151186
v 0.941410 0.397064 -0.187258
v 0.774955 -0.002877 0.000000
v 0.959853 0.397064 0.000000
v 0.760064 -0.002877 0.151186
v 0.941410 0.397064 0.187258
v 0.715965 -0.002877 0.296562
v 0.886788 0.397064 0.367320
v 0.644352 -0.002877 0.430542
v 0.798089 0.397064 0.533266
v 0.547976 -0.002877 0.547976
v 0.678719 0.397064 0.678719
v 0.430542 -0.002877 0.644352
v 0.533266 0.397064 0.798089
v 0.296562 -0.002877 0.715965
v 0.367320 0.397064 0.886788
v 0.151186 -0.002877 0.760064
v 0.187258 0.397064 0.941410
v -0.000000 -0.002877 0.774955
v -0.000000 0.397064 0.959853
v -0.151186 -0.002877 0.760064
v -0.187258 0.397064 0.941410
v -0.296562 -0.002877 0.715965
v -0.367320 0.397064 0.886788
v -0.430542 -0.002877 0.644352
v -0.533266 0.397064 0.798089
v -0.547976 -0.002877 0.547976
v -0.678719 0.397064 0.678719
v -0.644352 -0.002877 0.430542
v -0.798089 0.397064 0.533266
v -0.715965 -0.002877 0.296562
v -0.886788 0.397064 0.367320
v -0.760064 -0.002877 0.151186
v -0.941410 0.397064 0.187258
v -0.774955 -0.002877 0.000000
v -0.959853 0.397064 0.000000
v -0.760064 -0.002877 -0.151186
v -0.941410 0.397064 -0.187258
v -0.715965 -0.002877 -0.296562
v -0.886788 0.397064 -0.367320
v -0.644352 -0.002877 -0.430542
v -0.798089 0.397064 -0.533266
v -0.547976 -0.002877 -0.547976
v -0.678719 0.397064 -0.678719
v -0.430542 -0.002877 -0.644352
v -0.533266 0.397064 -0.798089
v -0.296562 -0.002877 -0.715965
v -0.367320 0.397064 -0.886788
v -0.151186 -0.002877 -0.760064
v -0.187258 0.397064 -0.941410
v -0.000000 0.487422 -0.863047
v 0.168372 0.487422 -0.846464
v 0.330274 0.487422 -0.797351
v 0.479483 0.487422 -0.717597
v 0.610266 0.487422 -0.610266
v 0.717597 0.487422 -0.479483
v 0.797351 0.487422 -0.330274
v 0.846464 0.487422 -0.168372
v 0.863047 0.487422 0.000000
v 0.846464 0.487422 0.168372
v 0.797351 0.487422 0.330274
v 0.717597 0.487422 0.479483
v 0.610266 0.487422 0.610266
v 0.479483 0.487422 0.717597
v 0.330274 0.487422 0.797351
v 0.168372 0.487422 0.846464
v -0.000000 0.487422 0.863047
v -0.168372 0.487422 0.846464
v -0.330274 0.487422 0.797351
v -0.479483 0.487422 0.717597
v -0.610266 0.487422 0.610266
v -0.717597 0.487422 0.479483
v -0.797351 0.487422 0.330274
v -0.846464 0.487422 0.168372
v -0.863047 0.487422 0.000000
v -0.846464 0.487422 -0.168372
v -0.797351 0.487422 -0.330274
v -0.717597 0.487422 -0.479483
v -0.610266 0.487422 -0.610266
v -0.479483 0.487422 -0.717597
v -0.330274 0.487422 -0.797351
v -0.168372 0.487422 -0.846464
v 0.187258 0.487422 -0.941410
v -0.000000 0.487422 -0.959853
v 0.367320 0.487422 -0.886788
v 0.533266 0.487422 -0.798089
v 0.678719 0.487422 -0.678719
v 0.798089 0.487422 -0.533266
v 0.886788 0.487422 -0.367320
v 0.941410 0.487422 -0.187258
v 0.959853 0.487422 0.000000
v 0.941410 0.487422 0.187258
v 0.886788 0.487422 0.367320
v 0.798089 0.487422 0.533266
v 0.678719 0.487422 0.678719
v 0.533266 0.487422 0.798089
v 0.367320 0.487422 0.886788
v 0.187258 0.487422 0.941410
v -0.000000 0.487422 0.959853
v -0.187258 0.487422 0.941410
v -0.367320 0.487422 0.886788
v -0.533266 0.487422 0.798089
v -0.678719 0.487422 0.678719
v -0.798089 0.487422 0.533266
v -0.886788 0.487422 0.367320
v -0.941410 0.487422 0.187258
v -0.959853 0.487422 0.000000
v -0.941410 0.487422 -0.187258
v -0.886788 0.487422 -0.367320
v -0.798089 0.487422 -0.533266
v -0.678719 0.487422 -0.678719
v -0.533266 0.487422 -0.798089
v -0.367320 0.487422 -0.886788
v -0.187258 0.487422 -0.941410
v 0.000000 0.439954 -0.863047
v 0.168372 0.439954 -0.846464
v 0.330274 0.439954 -0.797351
v 0.479483 0.439954 -0.717597
v 0.610266 0.439954 -0.610266
v 0.717597 0.439954 -0.479483
v 0.797351 0.439954 -0.330274
v 0.846464 0.439954 -0.168372
v 0.863047 0.439954 0.000000
v 0.846464 0.439954 0.168372
v 0.797351 0.439954 0.330274
v 0.717597 0.439954 0.479483
v 0.610266 0.439954 0.610266
v 0.479483 0.439954 0.717597
v 0.330274 0.439954 0.797351
v 0.168372 0.439954 0.846464
v 0.000000 0.439954 0.863047
v -0.168372 0.439954 0.846464
v -0.330274 0.439954 0.797351
v -0.479483 0.439954 0.717597
v -0.610266 0.439954 0.610266
v -0.717597 0.439954 0.479483
v -0.797351 0.439954 0.330274
v -0.846464 0.439954 0.168372
v -0.863047 0.439954 0.000000
v -0.846464 0.439954 -0.168372
v -0.797351 0.439954 -0.330274
v -0.717597 0.439954 -0.479483
v -0.610266 0.439954 -0.610266
v -0.479483 0.439954 -0.717597
v -0.330274 0.439954 -0.797351
v -0.168372 0.439954 -0.846464
v -0.000000 0.538443 -0.000000
v 0.000000 0.583500 -0.099818
v 0.000000 0.569960 -0.149388
v 0.000000 0.552269 -0.176215
v 0.000000 0.542695 -0.179667
v 0.000000 0.533121 -0.176215
v 0.000000 0.515430 -0.149388
v 0.006838 0.590828 -0.034378
v 0.013414 0.588035 -0.067435
v 0.019474 0.583500 -0.097900
v 0.024785 0.577397 -0.124603
v 0.029144 0.569960 -0.146517
v 0.032383 0.561475 -0.162801
v 0.034378 0.552269 -0.172829
v 0.035051 0.542695 -0.176215
v 0.034378 0.533121 -0.172829
v 0.032383 0.523914 -0.162801
v 0.029144 0.515430 -0.146517
v 0.024785 0.507993 -0.124603
v 0.019474 0.501890 -0.097900
v 0.013414 0.497355 -0.067435
v 0.006838 0.494562 -0.034378
v 0.013414 0.590828 -0.032383
v 0.026312 0.588035 -0.063522
v 0.038199 0.583500 -0.092220
v 0.048618 0.577397 -0.117373
v 0.057168 0.569960 -0.138016
v 0.063522 0.561475 -0.153356
v 0.067435 0.552269 -0.162801
v 0.068756 0.542695 -0.165991
v 0.067435 0.533121 -0.162801
v 0.063522 0.523914 -0.153356
v 0.057168 0.515430 -0.138016
v 0.048618 0.507993 -0.117373
v 0.038199 0.501890 -0.092220
v 0.026312 0.497355 -0.063522
v 0.013414 0.494562 -0.032383
v 0.019474 0.590828 -0.029144
v 0.038199 0.588035 -0.057168
v 0.055456 0.583500 -0.082995
v 0.070582 0.577397 -0.105633
v 0.082995 0.569960 -0.124211
v 0.092220 0.561475 -0.138016
v 0.097900 0.552269 -0.146517
v 0.099818 0.542695 -0.149388
v 0.097900 0.533121 -0.146517
v 0.092220 0.523914 -0.138016
v 0.082995 0.515430 -0.124211
v 0.070582 0.507993 -0.105633
v 0.055456 0.501890 -0.082995
v 0.038199 0.497355 -0.057168
v 0.019474 0.494562 -0.029144
v 0.024785 0.590828 -0.024785
v 0.048618 0.588035 -0.048618
v 0.070582 0.583500 -0.070582
v 0.089834 0.577397 -0.089834
v 0.105633 0.569960 -0.105633
v 0.117373 0.561475 -0.117373
v 0.124603 0.552269 -0.124603
v 0.127044 0.542695 -0.127044
v 0.124603 0.533121 -0.124603
v 0.117373 0.523914 -0.117373
v 0.105633 0.515430 -0.105633
v 0.089834 0.507993 -0.089834
v 0.070582 0.501890 -0.070582
v 0.048618 0.497355 -0.048618
v 0.024785 0.494562 -0.024785
v 0.029144 0.590828 -0.019473
v 0.057168 0.588035 -0.038199
v 0.082995 0.583500 -0.055456
v 0.105633 0.577397 -0.070582
v 0.124211 0.569960 -0.082995
v 0.138016 0.561475 -0.092220
v 0.146517 0.552269 -0.097900
v 0.149388 0.542695 -0.099818
v 0.146517 0.533121 -0.097900
v 0.138016 0.523914 -0.092220
v 0.124211 0.515430 -0.082995
v 0.105633 0.507993 -0.070582
v 0.082995 0.501890 -0.055456
v 0.057168 0.497355 -0.038199
v 0.029144 0.494562 -0.019473
v 0.000000 0.591771 -0.000000
v 0.032383 0.590828 -0.013414
v 0.063522 0.588035 -0.026312
v 0.092220 0.583500 -0.038199
v 0.117373 0.577397 -0.048618
v 0.138016 0.569960 -0.057168
v 0.153356 0.561475 -0.063522
v 0.162801 0.552269 -0.067435
v 0.165991 0.542695 -0.068756
v 0.162801 0.533121 -0.067435
v 0.153356 0.523914 -0.063522
v 0.138016 0.515430 -0.057168
v 0.117373 0.507993 -0.048618
v 0.092220 0.501890 -0.038199
v 0.063522 0.497355 -0.026312
v 0.032383 0.494562 -0.013414
v 0.034378 0.590828 -0.006838
v 0.067435 0.588035 -0.013414
v 0.097900 0.583500 -0.019473
v 0.124603 0.577397 -0.024785
v 0.146517 0.569960 -0.029144
v 0.162801 0.561475 -0.032383
v 0.172829 0.552269 -0.034378
v 0.176215 0.542695 -0.035051
v 0.172829 0.533121 -0.034378
v 0.162801 0.523914 -0.032383
v 0.146517 0.515430 -0.029144
v 0.124603 0.507993 -0.024785
v 0.097900 0.501890 -0.019473
v 0.067435 0.497355 -0.013414
v 0.034378 0.494562 -0.006838
v 0.035051 0.590828 -0.000000
v 0.068756 0.588035 -0.000000
v 0.099818 0.583500 -0.000000
v 0.127044 0.577397 -0.000000
v 0.149388 0.569960 -0.000000
v 0.165991 0.561475 -0.000000
v 0.176215 0.552269 -0.000000
v 0.179667 0.542695 0.000000
v 0.176215 0.533121 -0.000000
v 0.165991 0.523914 -0.000000
v 0.149388 0.515430 -0.000000
v 0.127044 0.507993 -0.000000
v 0.099818 0.501890 -0.000000
v 0.068756 0.497355 -0.000000
v 0.035051 0.494562 -0.000000
v 0.034378 0.590828 0.006838
v 0.067435 0.588035 0.013414
v 0.097900 0.583500 0.019473
v 0.124603 0.577397 0.024785
v 0.146517 0.569960 0.029144
v 0.162801 0.561475 0.032383
v 0.172829 0.552269 0.034378
v 0.176215 0.542695 0.035051
v 0.172829 0.533121 0.034378
v 0.162801 0.523914 0.032383
v 0.146517 0.515430 0.029144
v 0.124603 0.507993 0.024785
v 0.097900 0.501890 0.019473
v 0.067435 0.497355 0.013414
v 0.034378 0.494562 0.006838
v 0.032383 0.590828 0.013414
v 0.063522 0.588035 0.026312
v 0.092220 0.583500 0.038199
v 0.117373 0.577397 0.048618
v 0.138016 0.569960 0.057168
v 0.153356 0.561475 0.063522
v 0.162801 0.552269 0.067435
v 0.165991 0.542695 0.068756
v 0.162801 0.533121 0.067435
v 0.153356 0.523914 0.063522
v 0.138016 0.515430 0.057168
v 0.117373 0.507993 0.048618
v 0.092220 0.501890 0.038199
v 0.063522 0.497355 0.026312
v 0.032383 0.494562 0.013414
v 0.029144 0.590828 0.019473
v 0.057168 0.588035 0.038199
v 0.082995 0.583500 0.055456
v 0.105633 0.577397 0.070582
v 0.124211 0.569960 0.082995
v 0.138016 0.561475 0.092220
v 0.146517 0.552269 0.097900
v 0.149388 0.542695 0.099818
v 0.146517 0.533121 0.097900
v 0.138016 0.523914 0.092220
v 0.124211 0.515430 0.082995
v 0.105633 0.507993 0.070582
v 0.082995 0.501890 0.055456
v 0.057168 0.497355 0.038199
v 0.029144 0.494562 0.019473
v 0.024785 0.590828 0.024785
v 0.048618 0.588035 0.048618
v 0.070582 0.583500 0.070582
v 0.089834 0.577397 0.089834
v 0.105633 0.569960 0.105633
v 0.117373 0.561475 0.117373
v 0.124603 0.552269 0.124603
v 0.127044 0.542695 0.127044
v 0.124603 0.533121 0.124603
v 0.117373 0.523914 0.117373
v 0.105633 0.515430 0.105633
v 0.089834 0.507993 0.089834
v 0.070582 0.501890 0.070582
v 0.048618 0.497355 0.048618
v 0.024785 0.494562 0.024785
v 0.019474 0.590828 0.029144
v 0.038199 0.588035 0.057168
v 0.055456 0.583500 0.082995
v 0.070582 0.577397 0.105633
v 0.082995 0.569960 0.124211
v 0.092220 0.561475 0.138016
v 0.097900 0.552269 0.146517
v 0.099818 0.542695 0.149388
v 0.097900 0.533121 0.146517
v 0.092220 0.523914 0.138016
v 0.082995 0.515430 0.124211
v 0.070582 0.507993 0.105633
v 0.055456 0.501890 0.082995
v 0.038199 0.497355 0.057168
v 0.019474 0.494562 0.029144
v 0.013414 0.590828 0.032383
v 0.026312 0.588035 0.063522
v 0.038199 0.583500 0.092220
v 0.048618 0.577397 0.117373
v 0.057168 0.569960 0.138016
v 0.063522 0.561475 0.153355
v 0.067435 0.552269 0.162801
v 0.068756 0.542695 0.165991
v 0.067435 0.533121 0.162801
v 0.063522 0.523914 0.153355
v 0.057168 0.515430 0.138016
v 0.048618 0.507993 0.117373
v 0.038199 0.501890 0.092220
v 0.026312 0.497355 0.063522
v 0.013414 0.494562 0.032383
v 0.006838 0.590828 0.034378
v 0.013414 0.588035 0.067434
v 0.019473 0.583500 0.097900
v 0.024785 0.577397 0.124603
v 0.029144 0.569960 0.146517
v 0.032383 0.561475 0.162801
v 0.034378 0.552269 0.172829
v 0.035051 0.542695 0.176215
v 0.034378 0.533121 0.172829
v 0.032383 0.523914 0.162801
v 0.029144 0.515430 0.146517
v 0.024785 0.507993 0.124603
v 0.019473 0.501890 0.097900
v 0.013414 0.497355 0.067434
v 0.006838 0.494562 0.034378
v 0.000000 0.590828 0.035051
v 0.000000 0.588035 0.068756
v 0.000000 0.583500 0.099818
v 0.000000 0.577397 0.127044
v 0.000000 0.569960 0.149388
v 0.000000 0.561475 0.165991
v 0.000000 0.552269 0.176215
v -0.000000 0.542695 0.179667
v 0.000000 0.533121 0.176215
v 0.000000 0.523914 0.165991
v 0.000000 0.515430 0.149388
v 0.000000 0.507993 0.127044
v 0.000000 0.501890 0.099818
v 0.000000 0.497355 0.068756
v 0.000000 0.494562 0.035051
v -0.006838 0.590828 0.034378
v -0.013414 0.588035 0.067434
v -0.019473 0.583500 0.097900
v -0.024785 0.577397 0.124603
v -0.029144 0.569960 0.146517
v -0.032383 0.561475 0.162801
v -0.034378 0.552269 0.172829
v -0.035051 0.542695 0.176215
v -0.034378 0.533121 0.172829
v -0.032383 0.523914 0.162801
v -0.029144 0.515430 0.146517
v -0.024785 0.507993 0.124603
v -0.019473 0.501890 0.097900
v -0.013414 0.497355 0.067434
v -0.006838 0.494562 0.034378
v -0.013414 0.590828 0.032383
v -0.026312 0.588035 0.063522
v -0.038199 0.583500 0.092219
v -0.048618 0.577397 0.117373
v -0.057168 0.569960 0.138016
v -0.063522 0.561475 0.153355
v -0.067434 0.552269 0.162801
v -0.068756 0.542695 0.165991
v -0.067434 0.533121 0.162801
v -0.063522 0.523914 0.153355
v -0.057168 0.515430 0.138016
v -0.048618 0.507993 0.117373
v -0.038199 0.501890 0.092219
v -0.026312 0.497355 0.063522
v -0.013414 0.494562 0.032383
v -0.019473 0.590828 0.029144
v -0.038199 0.588035 0.057168
v -0.055456 0.583500 0.082995
v -0.070582 0.577397 0.105633
v -0.082995 0.569960 0.124211
v -0.092219 0.561475 0.138016
v -0.097900 0.552269 0.146517
v -0.099818 0.542695 0.149388
v -0.097900 0.533121 0.146517
v -0.092219 0.523914 0.138016
v -0.082995 0.515430 0.124211
v -0.070582 0.507993 0.105633
v -0.055456 0.501890 0.082995
v -0.038199 0.497355 0.057168
v -0.019473 0.494562 0.029144
v -0.024785 0.590828 0.024785
v -0.048618 0.588035 0.048618
v -0.070582 0.583500 0.070582
v -0.089834 0.577397 0.089834
v -0.105633 0.569960 0.105633
v -0.117373 0.561475 0.117373
v -0.124603 0.552269 0.124603
v -0.127044 0.542695 0.127044
v -0.124603 0.533121 0.124603
v -0.117373 0.523914 0.117373
v -0.105633 0.515430 0.105633
v -0.089834 0.507993 0.089834
v -0.070582 0.501890 0.070582
v -0.048618 0.497355 0.048618
v -0.024785 0.494562 0.024785
v 0.000000 0.493619 -0.000000
v -0.029144 0.590828 0.019473
v -0.057168 0.588035 0.038199
v -0.082995 0.583500 0.055456
v -0.105633 0.577397 0.070582
v -0.124211 0.569960 0.082995
v -0.138016 0.561475 0.092220
v -0.146517 0.552269 0.097900
v -0.149388 0.542695 0.099818
v -0.146517 0.533121 0.097900
v -0.138016 0.523914 0.092220
v -0.124211 0.515430 0.082995
v -0.105633 0.507993 0.070582
v -0.082995 0.501890 0.055456
v -0.057168 0.497355 0.038199
v -0.029144 0.494562 0.019473
v -0.032383 0.590828 0.013414
v -0.063522 0.588035 0.026312
v -0.092219 0.583500 0.038199
v -0.117373 0.577397 0.048618
v -0.138016 0.569960 0.057168
v -0.153355 0.561475 0.063522
v -0.162801 0.552269 0.067434
v -0.165991 0.542695 0.068756
v -0.162801 0.533121 0.067434
v -0.153355 0.523914 0.063522
v -0.138016 0.515430 0.057168
v -0.117373 0.507993 0.048618
v -0.092219 0.501890 0.038199
v -0.063522 0.497355 0.026312
v -0.032383 0.494562 0.013414
v -0.034378 0.590828 0.006838
v -0.067434 0.588035 0.013414
v -0.097900 0.583500 0.019473
v -0.124603 0.577397 0.024785
v -0.146517 0.569960 0.029144
v -0.162801 0.561475 0.032383
v -0.172829 0.552269 0.034378
v -0.176215 0.542695 0.035051
v -0.172829 0.533121 0.034378
v -0.162801 0.523914 0.032383
v -0.146517 0.515430 0.029144
v -0.124603 0.507993 0.024785
v -0.097900 0.501890 0.019473
v -0.067434 0.497355 0.013414
v -0.034378 0.494562 0.006838
v -0.035051 0.590828 -0.000000
v -0.068756 0.588035 -0.000000
v -0.099818 0.583500 -0.000000
v -0.127044 0.577397 -0.000000
v -0.149388 0.569960 -0.000000
v -0.165991 0.561475 -0.000000
v -0.176215 0.552269 -0.000000
v -0.179667 0.542695 -0.000000
v -0.176215 0.533121 -0.000000
v -0.165991 0.523914 -0.000000
v -0.149388 0.515430 -0.000000
v -0.127044 0.507993 -0.000000
v -0.099818 0.501890 -0.000000
v -0.068756 0.497355 -0.000000
v -0.035051 0.494562 -0.000000
v -0.034378 0.590828 -0.006838
v -0.067434 0.588035 -0.013414
v -0.097900 0.583500 -0.019474
v -0.124603 0.577397 -0.024785
v -0.146517 0.569960 -0.029144
v -0.162801 0.561475 -0.032383
v -0.172829 0.552269 -0.034378
v -0.176215 0.542695 -0.035051
v -0.172829 0.533121 -0.034378
v -0.162801 0.523914 -0.032383
v -0.146517 0.515430 -0.029144
v -0.124603 0.507993 -0.024785
v -0.097900 0.501890 -0.019474
v -0.067434 0.497355 -0.013414
v -0.034378 0.494562 -0.006838
v -0.032383 0.590828 -0.013414
v -0.063522 0.588035 -0.026312
v -0.092219 0.583500 -0.038199
v -0.117373 0.577397 -0.048618
v -0.138016 0.569960 -0.057168
v -0.153355 0.561475 -0.063522
v -0.162801 0.552269 -0.067435
v -0.165991 0.542695 -0.068756
v -0.162801 0.533121 -0.067435
v -0.153355 0.523914 -0.063522
v -0.138016 0.515430 -0.057168
v -0.117373 0.507993 -0.048618
v -0.092219 0.501890 -0.038199
v -0.063522 0.497355 -0.026312
v -0.032383 0.494562 -0.013414
v -0.029144 0.590828 -0.019473
v -0.057168 0.588035 -0.038199
v -0.082995 0.583500 -0.055456
v -0.105633 0.577397 -0.070582
v -0.124211 0.569960 -0.082995
v -0.138016 0.561475 -0.092220
v -0.146517 0.552269 -0.097900
v -0.149388 0.542695 -0.099818
v -0.146517 0.533121 -0.097900
v -0.138016 0.523914 -0.092220
v -0.124211 0.515430 -0.082995
v -0.105633 0.507993 -0.070582
v -0.082995 0.501890 -0.055456
v -0.057168 0.497355 -0.038199
v -0.029144 0.494562 -0.019473
v -0.024785 0.590828 -0.024785
v -0.048618 0.588035 -0.048618
v -0.070582 0.583500 -0.070582
v -0.089833 0.577397 -0.089834
v -0.105633 0.569960 -0.105633
v -0.117373 0.561475 -0.117373
v -0.124603 0.552269 -0.124603
v -0.127044 0.542695 -0.127044
v -0.124603 0.533121 -0.124603
v -0.117373 0.523914 -0.117373
v -0.105633 0.515430 -0.105633
v -0.089833 0.507993 -0.089834
v -0.070582 0.501890 -0.070582
v -0.048618 0.497355 -0.048618
v -0.024785 0.494562 -0.024785
v -0.019473 0.590828 -0.029144
v -0.038199 0.588035 -0.057168
v -0.055456 0.583500 -0.082995
v -0.070582 0.577397 -0.105633
v -0.082995 0.569960 -0.124211
v -0.092219 0.561475 -0.138016
v -0.097900 0.552269 -0.146517
v -0.099818 0.542695 -0.149388
v -0.097900 0.533121 -0.146517
v -0.092219 0.523914 -0.138016
v -0.082995 0.515430 -0.124211
v -0.070582 0.507993 -0.105633
v -0.055456 0.501890 -0.082995
v -0.038199 0.497355 -0.057168
v -0.019473 0.494562 -0.029144
v -0.013414 0.590828 -0.032383
v -0.026312 0.588035 -0.063522
v -0.038198 0.583500 -0.092220
v -0.048618 0.577397 -0.117373
v -0.057168 0.569960 -0.138016
v -0.063522 0.561475 -0.153355
v -0.067434 0.552269 -0.162801
v -0.068755 0.542695 -0.165991
v -0.067434 0.533121 -0.162801
v -0.063522 0.523914 -0.153355
v -0.057168 0.515430 -0.138016
v -0.048618 0.507993 -0.117373
v -0.038198 0.501890 -0.092220
v -0.026312 0.497355 -0.063522
v -0.013414 0.494562 -0.032383
v -0.006838 0.590828 -0.034378
v -0.013414 0.588035 -0.067435
v -0.019473 0.583500 -0.097900
v -0.024785 0.577397 -0.124603
v -0.029144 0.569960 -0.146517
v -0.032383 0.561475 -0.162801
v -0.034378 0.552269 -0.172829
v -0.035051 0.542695 -0.176215
v -0.034378 0.533121 -0.172829
v -0.032383 0.523914 -0.162801
v -0.029144 0.515430 -0.146517
v -0.024785 0.507993 -0.124603
v -0.019473 0.501890 -0.097900
v -0.013414 0.497355 -0.067435
v -0.006838 0.494562 -0.034378
v 0.000000 0.590828 -0.035051
v 0.000000 0.588035 -0.068756
v 0.000000 0.577397 -0.127044
v 0.000000 0.561475 -0.165991
v 0.000000 0.523914 -0.165991
v 0.000000 0.507993 -0.127044
v 0.000000 0.501890 -0.099818
v 0.000000 0.497355 -0.068756
v 0.000000 0.494562 -0.035051
vn 0.0890 -0.4180 -0.9041
vn 0.2637 -0.4180 -0.8693
vn 0.4282 -0.4180 -0.8012
vn 0.5763 -0.4180 -0.7022
vn 0.7022 -0.4180 -0.5763
vn 0.8012 -0.4180 -0.4282
vn 0.8693 -0.4180 -0.2637
vn 0.9041 -0.4180 -0.0890
vn 0.9041 -0.4180 0.0890
vn 0.8693 -0.4180 0.2637
vn 0.8012 -0.4180 0.4282
vn 0.7022 -0.4180 0.5763
vn 0.5763 -0.4180 0.7022
vn 0.4282 -0.4180 0.8012
vn 0.2637 -0.4180 0.8693
vn 0.0890 -0.4180 0.9041
vn -0.0890 -0.4180 0.9041
vn -0.2637 -0.4180 0.8693
vn -0.4282 -0.4180 0.8012
vn -0.5763 -0.4180 0.7022
vn -0.7022 -0.4180 0.5763
vn -0.8012 -0.4180 0.4282
vn -0.8693 -0.4180 0.2637
vn -0.9041 -0.4180 0.0890
vn -0.9041 -0.4180 -0.0890
vn -0.8693 -0.4180 -0.2637
vn -0.8012 -0.4180 -0.4282
vn -0.7022 -0.4180 -0.5763
vn -0.5763 -0.4180 -0.7022
vn -0.4282 -0.4180 -0.8012
vn 0.0980 -0.0000 0.9952
vn -0.2637 -0.4180 -0.8693
vn -0.0890 -0.4180 -0.9041
vn -0.0000 -1.0000 -0.0000
vn 0.4714 -0.0000 -0.8819
vn -0.9952 -0.0000 -0.0980
vn 0.7730 -0.0000 0.6344
vn -0.7730 -0.0000 0.6344
vn -0.4714 -0.0000 -0.8819
vn 0.9952 -0.0000 -0.0980
vn -0.0980 -0.0000 0.9952
vn -0.9569 -0.0000 -0.2903
vn 0.6344 -0.0000 -0.7730
vn 0.6344 -0.0000 0.7730
vn -0.8819 -0.0000 0.4714
vn -0.2903 -0.0000 -0.9569
vn 0.9952 -0.0000 0.0980
vn -0.2903 -0.0000 0.9569
vn -0.8819 -0.0000 -0.4714
vn 0.7730 -0.0000 -0.6344
vn 0.4714 -0.0000 0.8819
vn -0.9569 -0.0000 0.2903
vn 0.0980 -0.0000 -0.9952
vn -0.0980 -0.0000 -0.9952
vn 0.9569 -0.0000 0.2903
vn -0.4714 -0.0000 0.8819
vn -0.7730 -0.0000 -0.6344
vn 0.8819 -0.0000 -0.4714
vn 0.2903 -0.0000 0.9569
vn -0.9952 -0.0000 0.0980
vn 0.2903 -0.0000 -0.9569
vn 0.8819 -0.0000 0.4714
vn -0.6344 -0.0000 0.7730
vn -0.6344 -0.0000 -0.7730
vn 0.9569 -0.0000 -0.2903
vn -0.0000 1.0000 -0.0000
vn 0.0112 0.9935 -0.1134
vn -0.0112 0.9935 -0.1134
vn -0.0331 0.9935 -0.1090
vn -0.0537 0.9935 -0.1005
vn -0.0723 0.9935 -0.0881
vn -0.0881 0.9935 -0.0723
vn -0.1005 0.9935 -0.0537
vn -0.1090 0.9935 -0.0331
vn -0.1134 0.9935 -0.0112
vn -0.1134 0.9935 0.0112
vn -0.1090 0.9935 0.0331
vn -0.1005 0.9935 0.0537
vn -0.0881 0.9935 0.0723
vn -0.0723 0.9935 0.0881
vn -0.0537 0.9935 0.1005
vn -0.0331 0.9935 0.1090
vn -0.0112 0.9935 0.1134
vn 0.0112 0.9935 0.1134
vn 0.0331 0.9935 0.1090
vn 0.0537 0.9935 0.1005
vn 0.0723 0.9935 0.0881
vn 0.0881 0.9935 0.0723
vn 0.1005 0.9935 0.0537
vn 0.1090 0.9935 0.0331
vn 0.1134 0.9935 0.0112
vn 0.1134 0.9935 -0.0112
vn 0.1090 0.9935 -0.0331
vn 0.1005 0.9935 -0.0537
vn 0.0881 0.9935 -0.0723
vn 0.0723 0.9935 -0.0881
vn 0.0537 0.9935 -0.1005
vn 0.0331 0.9935 -0.1090
vn 0.0142 -0.9894 -0.1445
vn 0.0658 0.7415 -0.6677
vn 0.0081 -0.9966 -0.0826
vn 0.0923 0.3378 -0.9367
vn 0.0026 0.9996 -0.0269
vn 0.0026 -0.9996 -0.0269
vn 0.0923 -0.3378 -0.9367
vn 0.0081 0.9966 -0.0826
vn 0.0658 -0.7415 -0.6677
vn 0.0142 0.9894 -0.1445
vn 0.0448 -0.8896 -0.4546
vn 0.0215 0.9756 -0.2187
vn 0.0311 -0.9484 -0.3156
vn 0.0311 0.9484 -0.3156
vn 0.0215 -0.9756 -0.2187
vn 0.0448 0.8896 -0.4546
vn 0.0638 -0.9756 -0.2103
vn 0.1326 0.8896 -0.4371
vn 0.0421 -0.9894 -0.1389
vn 0.1948 0.7415 -0.6420
vn 0.0241 -0.9966 -0.0794
vn 0.2732 0.3378 -0.9007
vn 0.0078 0.9996 -0.0259
vn 0.0078 -0.9996 -0.0259
vn 0.2732 -0.3378 -0.9007
vn 0.0241 0.9966 -0.0794
vn 0.1948 -0.7415 -0.6420
vn 0.0421 0.9894 -0.1389
vn 0.1326 -0.8896 -0.4371
vn 0.0638 0.9756 -0.2103
vn 0.0921 -0.9484 -0.3035
vn 0.0921 0.9484 -0.3035
vn 0.0391 0.9966 -0.0732
vn 0.3163 -0.7415 -0.5917
vn 0.0684 0.9894 -0.1280
vn 0.2153 -0.8896 -0.4029
vn 0.1036 0.9756 -0.1938
vn 0.1495 -0.9484 -0.2797
vn 0.1495 0.9484 -0.2797
vn 0.1036 -0.9756 -0.1938
vn 0.2153 0.8896 -0.4029
vn 0.0684 -0.9894 -0.1280
vn 0.3163 0.7415 -0.5917
vn 0.0391 -0.9966 -0.0732
vn 0.4437 0.3378 -0.8301
vn 0.0128 0.9996 -0.0238
vn 0.0127 -0.9996 -0.0238
vn 0.4437 -0.3378 -0.8301
vn 0.2898 0.8896 -0.3531
vn 0.0921 -0.9894 -0.1122
vn 0.4256 0.7415 -0.5186
vn 0.0526 -0.9966 -0.0641
vn 0.5971 0.3378 -0.7276
vn 0.0171 0.9996 -0.0209
vn 0.0171 -0.9996 -0.0209
vn 0.5971 -0.3378 -0.7276
vn 0.0526 0.9966 -0.0641
vn 0.4256 -0.7415 -0.5186
vn 0.0921 0.9894 -0.1122
vn 0.2898 -0.8896 -0.3531
vn 0.1394 0.9756 -0.1699
vn 0.2012 -0.9484 -0.2452
vn 0.2012 0.9484 -0.2452
vn 0.1394 -0.9756 -0.1699
vn 0.5186 -0.7415 -0.4256
vn 0.1122 0.9894 -0.0921
vn 0.3531 -0.8896 -0.2898
vn 0.1699 0.9756 -0.1394
vn 0.2452 -0.9484 -0.2012
vn 0.2452 0.9484 -0.2012
vn 0.1699 -0.9756 -0.1394
vn 0.3531 0.8896 -0.2898
vn 0.1122 -0.9894 -0.0921
vn 0.5186 0.7415 -0.4256
vn 0.0641 -0.9966 -0.0526
vn 0.7276 0.3378 -0.5971
vn 0.0209 0.9996 -0.0171
vn 0.0209 -0.9996 -0.0171
vn 0.7276 -0.3378 -0.5971
vn 0.0641 0.9966 -0.0526
vn 0.1280 -0.9894 -0.0684
vn 0.5917 0.7415 -0.3163
vn 0.0732 -0.9966 -0.0391
vn 0.8301 0.3378 -0.4437
vn 0.0238 0.9996 -0.0127
vn 0.0238 -0.9996 -0.0127
vn 0.8301 -0.3378 -0.4437
vn 0.0732 0.9966 -0.0391
vn 0.5917 -0.7415 -0.3163
vn 0.1280 0.9894 -0.0684
vn 0.4029 -0.8896 -0.2153
vn 0.1938 0.9756 -0.1036
vn 0.2797 -0.9484 -0.1495
vn 0.2797 0.9484 -0.1495
vn 0.1938 -0.9756 -0.1036
vn 0.4029 0.8896 -0.2153
vn 0.4371 -0.8896 -0.1326
vn 0.2103 0.9756 -0.0638
vn 0.3035 -0.9484 -0.0921
vn 0.3035 0.9484 -0.0921
vn 0.2103 -0.9756 -0.0638
vn 0.4371 0.8896 -0.1326
vn 0.1389 -0.9894 -0.0421
vn 0.6420 0.7415 -0.1948
vn 0.0794 -0.9966 -0.0241
vn 0.9007 0.3378 -0.2732
vn 0.0259 0.9996 -0.0078
vn 0.0259 -0.9996 -0.0078
vn 0.9007 -0.3378 -0.2732
vn 0.0794 0.9966 -0.0241
vn 0.6420 -0.7415 -0.1948
vn 0.1389 0.9894 -0.0421
vn 0.0826 -0.9966 -0.0081
vn 0.9367 0.3378 -0.0923
vn 0.0269 0.9996 -0.0026
vn 0.0269 -0.9996 -0.0026
vn 0.9367 -0.3378 -0.0923
vn 0.0826 0.9966 -0.0081
vn 0.6677 -0.7415 -0.0658
vn 0.1445 0.9894 -0.0142
vn 0.4546 -0.8896 -0.0448
vn 0.2187 0.9756 -0.0215
vn 0.3156 -0.9484 -0.0311
vn 0.3156 0.9484 -0.0311
vn 0.2187 -0.9756 -0.0215
vn 0.4546 0.8896 -0.0448
vn 0.1445 -0.9894 -0.0142
vn 0.6677 0.7415 -0.0658
vn 0.2187 0.9756 0.0215
vn 0.3156 -0.9484 0.0311
vn 0.3156 0.9484 0.0311
vn 0.2187 -0.9756 0.0215
vn 0.4546 0.8896 0.0448
vn 0.1445 -0.9894 0.0142
vn 0.6677 0.7415 0.0658
vn 0.0826 -0.9966 0.0081
vn 0.9367 0.3377 0.0923
vn 0.0269 0.9996 0.0026
vn 0.0269 -0.9996 0.0026
vn 0.9367 -0.3378 0.0923
vn 0.0826 0.9966 0.0081
vn 0.6677 -0.7415 0.0658
vn 0.1445 0.9894 0.0142
vn 0.4546 -0.8896 0.0448
vn 0.9007 0.3377 0.2732
vn 0.0259 0.9996 0.0078
vn 0.0259 -0.9996 0.0078
vn 0.9007 -0.3378 0.2732
vn 0.0794 0.9966 0.0241
vn 0.6420 -0.7415 0.1948
vn 0.1389 0.9894 0.0421
vn 0.4371 -0.8896 0.1326
vn 0.2103 0.9756 0.0638
vn 0.3035 -0.9484 0.0921
vn 0.3035 0.9484 0.0921
vn 0.2103 -0.9756 0.0638
vn 0.4371 0.8896 0.1326
vn 0.1389 -0.9894 0.0421
vn 0.6420 0.7415 0.1948
vn 0.0794 -0.9966 0.0241
vn 0.2797 -0.9484 0.1495
vn 0.2797 0.9484 0.1495
vn 0.1938 -0.9756 0.1036
vn 0.4029 0.8896 0.2153
vn 0.1280 -0.9894 0.0684
vn 0.5917 0.7415 0.3163
vn 0.0732 -0.9966 0.0391
vn 0.8301 0.3378 0.4437
vn 0.0238 0.9996 0.0127
vn 0.0238 -0.9996 0.0127
vn 0.8301 -0.3377 0.4437
vn 0.0732 0.9966 0.0391
vn 0.5917 -0.7415 0.3163
vn 0.1280 0.9894 0.0684
vn 0.4029 -0.8896 0.2153
vn 0.1938 0.9756 0.1036
vn 0.0209 0.9996 0.0171
vn 0.0209 -0.9996 0.0171
vn 0.7276 -0.3378 0.5971
vn 0.0641 0.9966 0.0526
vn 0.5186 -0.7415 0.4256
vn 0.1122 0.9894 0.0921
vn 0.3531 -0.8896 0.2898
vn 0.1699 0.9756 0.1394
vn 0.2452 -0.9484 0.2012
vn 0.2452 0.9484 0.2012
vn 0.1699 -0.9756 0.1394
vn 0.3531 0.8896 0.2898
vn 0.1122 -0.9894 0.0921
vn 0.5186 0.7415 0.4256
vn 0.0641 -0.9966 0.0526
vn 0.7276 0.3378 0.5971
vn 0.2012 0.9484 0.2452
vn 0.1394 -0.9756 0.1699
vn 0.2898 0.8896 0.3531
vn 0.0921 -0.9894 0.1122
vn 0.4256 0.7415 0.5186
vn 0.0526 -0.9966 0.0641
vn 0.5971 0.3378 0.7276
vn 0.0172 0.9996 0.0209
vn 0.0171 -0.9996 0.0209
vn 0.5971 -0.3378 0.7276
vn 0.0526 0.9966 0.0641
vn 0.4256 -0.7415 0.5186
vn 0.0921 0.9894 0.1122
vn 0.2898 -0.8896 0.3531
vn 0.1394 0.9756 0.1699
vn 0.2012 -0.9484 0.2452
vn 0.4437 -0.3378 0.8301
vn 0.0391 0.9966 0.0732
vn 0.3163 -0.7415 0.5917
vn 0.0684 0.9894 0.1280
vn 0.2153 -0.8896 0.4029
vn 0.1036 0.9756 0.1938
vn 0.1495 -0.9484 0.2797
vn 0.1495 0.9484 0.2797
vn 0.1036 -0.9756 0.1938
vn 0.2153 0.8896 0.4029
vn 0.0684 -0.9894 0.1280
vn 0.3163 0.7415 0.5917
vn 0.0391 -0.9966 0.0732
vn 0.4437 0.3378 0.8301
vn 0.0127 0.9996 0.0238
vn 0.0127 -0.9996 0.0238
vn 0.0638 -0.9756 0.2103
vn 0.1326 0.8896 0.4371
vn 0.0421 -0.9894 0.1389
vn 0.1948 0.7415 0.6420
vn 0.0241 -0.9966 0.0794
vn 0.2732 0.3378 0.9007
vn 0.0078 0.9996 0.0259
vn 0.0078 -0.9996 0.0259
vn 0.2732 -0.3378 0.9007
vn 0.0241 0.9966 0.0794
vn 0.1948 -0.7415 0.6420
vn 0.0421 0.9894 0.1389
vn 0.1326 -0.8896 0.4371
vn 0.0638 0.9756 0.2103
vn 0.0921 -0.9484 0.3035
vn 0.0921 0.9484 0.3035
vn 0.0658 -0.7415 0.6677
vn 0.0142 0.9894 0.1445
vn 0.0448 -0.8896 0.4546
vn 0.0215 0.9756 0.2187
vn 0.0311 -0.9484 0.3156
vn 0.0311 0.9484 0.3156
vn 0.0215 -0.9756 0.2187
vn 0.0448 0.8896 0.4546
vn 0.0142 -0.9894 0.1445
vn 0.0658 0.7415 0.6677
vn 0.0081 -0.9966 0.0826
vn 0.0923 0.3377 0.9367
vn 0.0026 0.9996 0.0269
vn 0.0026 -0.9996 0.0269
vn 0.0923 -0.3378 0.9367
vn 0.0081 0.9966 0.0826
vn -0.0142 -0.9894 0.1445
vn -0.0658 0.7415 0.6677
vn -0.0081 -0.9966 0.0826
vn -0.0923 0.3377 0.9367
vn -0.0026 0.9996 0.0269
vn -0.0026 -0.9996 0.0269
vn -0.0923 -0.3377 0.9367
vn -0.0081 0.9966 0.0826
vn -0.0658 -0.7415 0.6677
vn -0.0142 0.9894 0.1445
vn -0.0448 -0.8896 0.4546
vn -0.0215 0.9756 0.2187
vn -0.0311 -0.9484 0.3156
vn -0.0311 0.9484 0.3156
vn -0.0215 -0.9756 0.2187
vn -0.0448 0.8896 0.4546
vn -0.0421 0.9894 0.1389
vn -0.1326 -0.8896 0.4371
vn -0.0638 0.9756 0.2103
vn -0.0921 -0.9484 0.3035
vn -0.0921 0.9484 0.3035
vn -0.0638 -0.9756 0.2103
vn -0.1326 0.8896 0.4371
vn -0.0421 -0.9894 0.1389
vn -0.1948 0.7415 0.6420
vn -0.0241 -0.9966 0.0794
vn -0.2732 0.3377 0.9007
vn -0.0078 0.9996 0.0259
vn -0.0078 -0.9996 0.0259
vn -0.2732 -0.3377 0.9007
vn -0.0241 0.9966 0.0794
vn -0.1948 -0.7415 0.6420
vn -0.3163 0.7415 0.5917
vn -0.0391 -0.9966 0.0732
vn -0.4437 0.3377 0.8301
vn -0.0127 0.9996 0.0238
vn -0.0127 -0.9996 0.0238
vn -0.4437 -0.3377 0.8301
vn -0.0391 0.9966 0.0732
vn -0.3163 -0.7415 0.5917
vn -0.0684 0.9894 0.1280
vn -0.2153 -0.8896 0.4029
vn -0.1036 0.9756 0.1938
vn -0.1495 -0.9484 0.2797
vn -0.1495 0.9484 0.2797
vn -0.1036 -0.9756 0.1938
vn -0.2153 0.8896 0.4029
vn -0.0684 -0.9894 0.1280
vn -0.2898 -0.8896 0.3531
vn -0.1394 0.9756 0.1699
vn -0.2012 -0.9484 0.2452
vn -0.2012 0.9484 0.2452
vn -0.1394 -0.9756 0.1699
vn -0.2898 0.8896 0.3531
vn -0.0921 -0.9894 0.1122
vn -0.4256 0.7415 0.5186
vn -0.0526 -0.9966 0.0641
vn -0.5971 0.3377 0.7276
vn -0.0171 0.9996 0.0209
vn -0.0171 -0.9996 0.0209
vn -0.5971 -0.3378 0.7276
vn -0.0526 0.9966 0.0641
vn -0.4256 -0.7415 0.5186
vn -0.0921 0.9894 0.1122
vn -0.0641 -0.9966 0.0526
vn -0.7276 0.3377 0.5971
vn -0.0209 0.9996 0.0171
vn -0.0209 -0.9996 0.0171
vn -0.7276 -0.3377 0.5971
vn -0.0641 0.9966 0.0526
vn -0.5186 -0.7415 0.4256
vn -0.1122 0.9894 0.0921
vn -0.3531 -0.8896 0.2898
vn -0.1699 0.9756 0.1394
vn -0.2452 -0.9484 0.2012
vn -0.2452 0.9484 0.2012
vn -0.1699 -0.9756 0.1394
vn -0.3531 0.8896 0.2898
vn -0.1122 -0.9894 0.0921
vn -0.5186 0.7415 0.4256
vn -0.1938 0.9756 0.1036
vn -0.2797 -0.9484 0.1495
vn -0.2797 0.9484 0.1495
vn -0.1938 -0.9756 0.1036
vn -0.4029 0.8896 0.2153
vn -0.1280 -0.9894 0.0684
vn -0.5917 0.7415 0.3163
vn -0.0732 -0.9966 0.0391
vn -0.8301 0.3377 0.4437
vn -0.0238 0.9996 0.0127
vn -0.0238 -0.9996 0.0127
vn -0.8301 -0.3377 0.4437
vn -0.0732 0.9966 0.0391
vn -0.5917 -0.7415 0.3163
vn -0.1280 0.9894 0.0684
vn -0.4029 -0.8896 0.2153
vn -0.9007 0.3377 0.2732
vn -0.0259 0.9996 0.0078
vn -0.0259 -0.9996 0.0078
vn -0.9007 -0.3377 0.2732
vn -0.0794 0.9966 0.0241
vn -0.6420 -0.7415 0.1948
vn -0.1389 0.9894 0.0421
vn -0.4371 -0.8896 0.1326
vn -0.2103 0.9756 0.0638
vn -0.3035 -0.9484 0.0921
vn -0.3035 0.9484 0.0921
vn -0.2103 -0.9756 0.0638
vn -0.4371 0.8896 0.1326
vn -0.1389 -0.9894 0.0421
vn -0.6420 0.7415 0.1948
vn -0.0794 -0.9966 0.0241
vn -0.3156 -0.9484 0.0311
vn -0.3156 0.9484 0.0311
vn -0.2187 -0.9756 0.0215
vn -0.4546 0.8896 0.0448
vn -0.1445 -0.9894 0.0142
vn -0.6677 0.7415 0.0658
vn -0.0826 -0.9966 0.0081
vn -0.9367 0.3377 0.0923
vn -0.0269 0.9996 0.0026
vn -0.0269 -0.9996 0.0026
vn -0.9367 -0.3377 0.0923
vn -0.0826 0.9966 0.0081
vn -0.6677 -0.7415 0.0658
vn -0.1445 0.9894 0.0142
vn -0.4546 -0.8896 0.0448
vn -0.2187 0.9756 0.0215
vn -0.0269 -0.9996 -0.0026
vn -0.9367 -0.3378 -0.0923
vn -0.0826 0.9966 -0.0081
vn -0.6677 -0.7415 -0.0658
vn -0.1445 0.9894 -0.0142
vn -0.4546 -0.8896 -0.0448
vn -0.2187 0.9756 -0.0215
vn -0.3156 -0.9484 -0.0311
vn -0.3157 0.9484 -0.0311
vn -0.2187 -0.9756 -0.0215
vn -0.4546 0.8896 -0.0448
vn -0.1445 -0.9894 -0.0142
vn -0.6677 0.7415 -0.0658
vn -0.0826 -0.9966 -0.0081
vn -0.9367 0.3378 -0.0923
vn -0.0269 0.9996 -0.0026
vn -0.2103 -0.9756 -0.0638
vn -0.4371 0.8896 -0.1326
vn -0.1389 -0.9894 -0.0421
vn -0.6420 0.7415 -0.1948
vn -0.0794 -0.9966 -0.0241
vn -0.9007 0.3377 -0.2732
vn -0.0259 0.9996 -0.0078
vn -0.0259 -0.9996 -0.0078
vn -0.9007 -0.3377 -0.2732
vn -0.0794 0.9966 -0.0241
vn -0.6420 -0.7415 -0.1948
vn -0.1389 0.9894 -0.0421
vn -0.4371 -0.8896 -0.1326
vn -0.2103 0.9756 -0.0638
vn -0.3035 -0.9484 -0.0921
vn -0.3035 0.9484 -0.0921
vn -0.0732 0.9966 -0.0391
vn -0.5917 -0.7415 -0.3163
vn -0.1280 0.9894 -0.0684
vn -0.4029 -0.8896 -0.2153
vn -0.1938 0.9756 -0.1036
vn -0.2797 -0.9484 -0.1495
vn -0.2797 0.9484 -0.1495
vn -0.1938 -0.9756 -0.1036
vn -0.4029 0.8896 -0.2153
vn -0.1280 -0.9894 -0.0684
vn -0.5917 0.7415 -0.3163
vn -0.0732 -0.9966 -0.0391
vn -0.8301 0.3377 -0.4437
vn -0.0238 0.9996 -0.0127
vn -0.0238 -0.9996 -0.0127
vn -0.8301 -0.3378 -0.4437
vn -0.3531 0.8896 -0.2898
vn -0.1122 -0.9894 -0.0921
vn -0.5186 0.7415 -0.4256
vn -0.0641 -0.9966 -0.0526
vn -0.7276 0.3378 -0.5971
vn -0.0209 0.9996 -0.0171
vn -0.0209 -0.9996 -0.0171
vn -0.7276 -0.3377 -0.5971
vn -0.0641 0.9966 -0.0526
vn -0.5186 -0.7415 -0.4256
vn -0.1122 0.9894 -0.0921
vn -0.3531 -0.8896 -0.2898
vn -0.1699 0.9756 -0.1394
vn -0.2452 -0.9484 -0.2012
vn -0.2452 0.9484 -0.2012
vn -0.1699 -0.9756 -0.1394
vn -0.4256 -0.7415 -0.5186
vn -0.0921 0.9894 -0.1122
vn -0.2898 -0.8896 -0.3531
vn -0.1394 0.9756 -0.1699
vn -0.2012 -0.9484 -0.2452
vn -0.2012 0.9484 -0.2452
vn -0.1394 -0.9756 -0.1699
vn -0.2898 0.8896 -0.3531
vn -0.0921 -0.9894 -0.1122
vn -0.4256 0.7415 -0.5186
vn -0.0526 -0.9966 -0.0641
vn -0.5971 0.3377 -0.7276
vn -0.0172 0.9996 -0.0209
vn -0.0171 -0.9996 -0.0209
vn -0.5971 -0.3378 -0.7276
vn -0.0526 0.9966 -0.0641
vn -0.0684 -0.9894 -0.1280
vn -0.3163 0.7415 -0.5917
vn -0.0391 -0.9966 -0.0732
vn -0.4437 0.3377 -0.8301
vn -0.0127 0.9996 -0.0238
vn -0.0127 -0.9996 -0.0238
vn -0.4437 -0.3377 -0.8301
vn -0.0391 0.9966 -0.0732
vn -0.3163 -0.7415 -0.5917
vn -0.0684 0.9894 -0.1280
vn -0.2153 -0.8896 -0.4029
vn -0.1036 0.9756 -0.1938
vn -0.1495 -0.9484 -0.2797
vn -0.1495 0.9484 -0.2797
vn -0.1036 -0.9756 -0.1938
vn -0.2153 0.8896 -0.4029
vn -0.0421 0.9894 -0.1389
vn -0.1326 -0.8896 -0.4371
vn -0.0638 0.9756 -0.2103
vn -0.0921 -0.9484 -0.3035
vn -0.0921 0.9484 -0.3035
vn -0.0638 -0.9756 -0.2103
vn -0.1326 0.8896 -0.4371
vn -0.0421 -0.9894 -0.1389
vn -0.1948 0.7415 -0.6420
vn -0.0241 -0.9966 -0.0794
vn -0.2732 0.3377 -0.9007
vn -0.0078 0.9996 -0.0259
vn -0.0078 -0.9996 -0.0259
vn -0.2732 -0.3377 -0.9007
vn -0.0241 0.9966 -0.0794
vn -0.1948 -0.7415 -0.6420
vn -0.0658 0.7415 -0.6677
vn -0.0081 -0.9966 -0.0826
vn -0.0923 0.3378 -0.9367
vn -0.0026 0.9996 -0.0269
vn -0.0026 -0.9996 -0.0269
vn -0.0923 -0.3377 -0.9367
vn -0.0081 0.9966 -0.0826
vn -0.0658 -0.7415 -0.6677
vn -0.0142 0.9894 -0.1445
vn -0.0448 -0.8896 -0.4546
vn -0.0215 0.9756 -0.2187
vn -0.0311 -0.9484 -0.3156
vn -0.0311 0.9484 -0.3156
vn -0.0215 -0.9756 -0.2187
vn -0.0448 0.8896 -0.4546
vn -0.0142 -0.9894 -0.1445
vn 0.9367 0.3378 0.0923
vn 0.9007 -0.3377 0.2732
vn 0.8301 0.3377 0.4437
vn 0.8301 -0.3378 0.4437
vn 0.0923 0.3378 0.9367
vn 0.0923 -0.3377 0.9367
vn -0.0082 0.9966 0.0826
vn -0.4437 -0.3378 0.8301
vn -0.5971 0.3378 0.7276
vn -0.5971 -0.3377 0.7276
vn -0.9367 -0.3377 -0.0923
vn -0.3156 0.9484 -0.0311
vn -0.9367 0.3377 -0.0923
vn -0.9007 0.3378 -0.2732
vn -0.9007 -0.3378 -0.2732
vn -0.8301 0.3378 -0.4437
vn -0.8301 -0.3377 -0.4437
vn -0.7276 0.3377 -0.5971
vn -0.7276 -0.3378 -0.5971
vn -0.5971 0.3378 -0.7276
vn -0.5971 -0.3377 -0.7276
vn -0.0923 0.3377 -0.9367
vn -0.0923 -0.3378 -0.9367
vt 1.000000 0.500000
vt 0.000000 0.500000
vt 0.750000 0.490000
vt 0.000000 1.000000
vt 1.000000 1.000000
vt 0.968750 0.500000
vt 0.796822 0.485388
vt 0.968750 1.000000
vt 0.937500 0.500000
vt 0.841844 0.471731
vt 0.937500 1.000000
vt 0.906250 0.500000
vt 0.883337 0.449553
vt 0.906250 1.000000
vt 0.875000 0.500000
vt 0.919706 0.419706
vt 0.875000 1.000000
vt 0.843750 0.500000
vt 0.949553 0.383337
vt 0.843750 1.000000
vt 0.812500 0.500000
vt 0.971731 0.341844
vt 0.812500 1.000000
vt 0.781250 0.500000
vt 0.985388 0.296822
vt 0.781250 1.000000
vt 0.750000 0.500000
vt 0.990000 0.250000
vt 0.750000 1.000000
vt 0.718750 0.500000
vt 0.985388 0.203178
vt 0.718750 1.000000
vt 0.687500 0.500000
vt 0.971731 0.158156
vt 0.687500 1.000000
vt 0.656250 0.500000
vt 0.949553 0.116663
vt 0.656250 1.000000
vt 0.625000 0.500000
vt 0.919706 0.080294
vt 0.625000 1.000000
vt 0.593750 0.500000
vt 0.883337 0.050447
vt 0.593750 1.000000
vt 0.562500 0.500000
vt 0.841844 0.028269
vt 0.562500 1.000000
vt 0.531250 0.500000
vt 0.796822 0.014612
vt 0.531250 1.000000
vt 0.500000 0.500000
vt 0.750000 0.010000
vt 0.500000 1.000000
vt 0.468750 0.500000
vt 0.703178 0.014612
vt 0.468750 1.000000
vt 0.437500 0.500000
vt 0.658156 0.028269
vt 0.437500 1.000000
vt 0.406250 0.500000
vt 0.616663 0.050447
vt 0.406250 1.000000
vt 0.375000 0.500000
vt 0.580294 0.080294
vt 0.375000 1.000000
vt 0.343750 0.500000
vt 0.550447 0.116663
vt 0.343750 1.000000
vt 0.312500 0.500000
vt 0.528269 0.158156
vt 0.312500 1.000000
vt 0.281250 0.500000
vt 0.514612 0.203178
vt 0.281250 1.000000
vt 0.250000 0.500000
vt 0.510000 0.250000
vt 0.250000 1.000000
vt 0.218750 0.500000
vt 0.514612 0.296822
vt 0.218750 1.000000
vt 0.187500 0.500000
vt 0.528269 0.341844
vt 0.187500 1.000000
vt 0.156250 0.500000
vt 0.550447 0.383337
vt 0.156250 1.000000
vt 0.125000 0.500000
vt 0.580294 0.419706
vt 0.125000 1.000000
vt 0.093750 0.500000
vt 0.616663 0.449553
vt 0.093750 1.000000
vt 0.062500 0.500000
vt 0.658156 0.471731
vt 0.062500 1.000000
vt 0.031250 0.500000
vt 0.703178 0.485388
vt 0.031250 1.000000
vt 0.250000 0.465795
vt 0.292099 0.461648
vt 0.332581 0.449368
vt 0.369889 0.429427
vt 0.402590 0.402590
vt 0.429427 0.369889
vt 0.449368 0.332581
vt 0.461648 0.292099
vt 0.465795 0.250000
vt 0.461648 0.207901
vt 0.449368 0.167419
vt 0.429427 0.130111
vt 0.402590 0.097410
vt 0.369889 0.070573
vt 0.332581 0.050632
vt 0.292099 0.038352
vt 0.250000 0.034205
vt 0.207900 0.038352
vt 0.167419 0.050632
vt 0.130111 0.070573
vt 0.097410 0.097410
vt 0.070573 0.130111
vt 0.050632 0.167419
vt 0.038352 0.207901
vt 0.034205 0.250000
vt 0.038352 0.292099
vt 0.050632 0.332581
vt 0.070573 0.369889
vt 0.097410 0.402590
vt 0.130111 0.429427
vt 0.167419 0.449368
vt 0.207900 0.461648
vt 0.968750 1.000000
vt 0.296822 0.485388
vt 1.000000 1.000000
vt 0.000000 1.000000
vt 0.250000 0.490000
vt 0.937500 1.000000
vt 0.341844 0.471731
vt 0.906250 1.000000
vt 0.383337 0.449553
vt 0.875000 1.000000
vt 0.419706 0.419706
vt 0.843750 1.000000
vt 0.449553 0.383337
vt 0.812500 1.000000
vt 0.471731 0.341844
vt 0.781250 1.000000
vt 0.485388 0.296822
vt 0.750000 1.000000
vt 0.490000 0.250000
vt 0.718750 1.000000
vt 0.485388 0.203178
vt 0.687500 1.000000
vt 0.471731 0.158156
vt 0.656250 1.000000
vt 0.449553 0.116663
vt 0.625000 1.000000
vt 0.419706 0.080294
vt 0.593750 1.000000
vt 0.383337 0.050447
vt 0.562500 1.000000
vt 0.341844 0.028269
vt 0.531250 1.000000
vt 0.296822 0.014612
vt 0.500000 1.000000
vt 0.250000 0.010000
vt 0.468750 1.000000
vt 0.203178 0.014612
vt 0.437500 1.000000
vt 0.158156 0.028269
vt 0.406250 1.000000
vt 0.116663 0.050447
vt 0.375000 1.000000
vt 0.080294 0.080294
vt 0.343750 1.000000
vt 0.050447 0.116663
vt 0.312500 1.000000
vt 0.028269 0.158156
vt 0.281250 1.000000
vt 0.014612 0.203178
vt 0.250000 1.000000
vt 0.010000 0.250000
vt 0.218750 1.000000
vt 0.014612 0.296822
vt 0.187500 1.000000
vt 0.028269 0.341844
vt 0.156250 1.000000
vt 0.050447 0.383337
vt 0.125000 1.000000
vt 0.080294 0.419706
vt 0.093750 1.000000
vt 0.116663 0.449553
vt 0.062500 1.000000
vt 0.158156 0.471731
vt 0.031250 1.000000
vt 0.203178 0.485388
vt 0.250000 0.465795
vt 0.292099 0.461648
vt 0.332581 0.449368
vt 0.369889 0.429427
vt 0.402590 0.402590
vt 0.429427 0.369889
vt 0.449368 0.332581
vt 0.461648 0.292099
vt 0.465795 0.250000
vt 0.461648 0.207901
vt 0.449368 0.167419
vt 0.429427 0.130111
vt 0.402590 0.097410
vt 0.369889 0.070573
vt 0.332581 0.050632
vt 0.292099 0.038352
vt 0.250000 0.034205
vt 0.207900 0.038352
vt 0.167419 0.050632
vt 0.130111 0.070573
vt 0.097410 0.097410
vt 0.070573 0.130111
vt 0.050632 0.167419
vt 0.038352 0.207901
vt 0.034205 0.250000
vt 0.038352 0.292099
vt 0.050632 0.332581
vt 0.070573 0.369889
vt 0.097410 0.402590
vt 0.130111 0.429427
vt 0.167419 0.449368
vt 0.207900 0.461648
vt 0.250000 0.250000
vt 0.750000 0.812500
vt 0.750000 0.687500
vt 0.750000 0.562500
vt 0.750000 0.500000
vt 0.750000 0.437500
vt 0.750000 0.312500
vt 0.718750 0.937500
vt 0.718750 0.875000
vt 0.718750 0.812500
vt 0.718750 0.750000
vt 0.718750 0.687500
vt 0.718750 0.625000
vt 0.718750 0.562500
vt 0.718750 0.500000
vt 0.718750 0.437500
vt 0.718750 0.375000
vt 0.718750 0.312500
vt 0.718750 0.250000
vt 0.718750 0.187500
vt 0.718750 0.125000
vt 0.718750 0.062500
vt 0.687500 0.937500
vt 0.687500 0.875000
vt 0.687500 0.812500
vt 0.687500 0.750000
vt 0.687500 0.687500
vt 0.687500 0.625000
vt 0.687500 0.562500
vt 0.687500 0.500000
vt 0.687500 0.437500
vt 0.687500 0.375000
vt 0.687500 0.312500
vt 0.687500 0.250000
vt 0.687500 0.187500
vt 0.687500 0.125000
vt 0.687500 0.062500
vt 0.656250 0.937500
vt 0.656250 0.875000
vt 0.656250 0.812500
vt 0.656250 0.750000
vt 0.656250 0.687500
vt 0.656250 0.625000
vt 0.656250 0.562500
vt 0.656250 0.500000
vt 0.656250 0.437500
vt 0.656250 0.375000
vt 0.656250 0.312500
vt 0.656250 0.250000
vt 0.656250 0.187500
vt 0.656250 0.125000
vt 0.656250 0.062500
vt 0.625000 0.937500
vt 0.625000 0.875000
vt 0.625000 0.812500
vt 0.625000 0.750000
vt 0.625000 0.687500
vt 0.625000 0.625000
vt 0.625000 0.562500
vt 0.625000 0.500000
vt 0.625000 0.437500
vt 0.625000 0.375000
vt 0.625000 0.312500
vt 0.625000 0.250000
vt 0.625000 0.187500
vt 0.625000 0.125000
vt 0.625000 0.062500
vt 0.593750 0.937500
vt 0.593750 0.875000
vt 0.593750 0.812500
vt 0.593750 0.750000
vt 0.593750 0.687500
vt 0.593750 0.625000
vt 0.593750 0.562500
vt 0.593750 0.500000
vt 0.593750 0.437500
vt 0.593750 0.375000
vt 0.593750 0.312500
vt 0.593750 0.250000
vt 0.593750 0.187500
vt 0.593750 0.125000
vt 0.593750 0.062500
vt 0.734375 1.000000
vt 0.703125 1.000000
vt 0.671875 1.000000
vt 0.640625 1.000000
vt 0.609375 1.000000
vt 0.578125 1.000000
vt 0.546875 1.000000
vt 0.515625 1.000000
vt 0.484375 1.000000
vt 0.453125 1.000000
vt 0.421875 1.000000
vt 0.390625 1.000000
vt 0.359375 1.000000
vt 0.328125 1.000000
vt 0.296875 1.000000
vt 0.265625 1.000000
vt 0.234375 1.000000
vt 0.203125 1.000000
vt 0.171875 1.000000
vt 0.140625 1.000000
vt 0.109375 1.000000
vt 0.078125 1.000000
vt 0.046875 1.000000
vt 0.015625 1.000000
vt 0.984375 1.000000
vt 0.953125 1.000000
vt 0.921875 1.000000
vt 0.890625 1.000000
vt 0.859375 1.000000
vt 0.828125 1.000000
vt 0.796875 1.000000
vt 0.765625 1.000000
vt 0.562500 0.937500
vt 0.562500 0.875000
vt 0.562500 0.812500
vt 0.562500 0.750000
vt 0.562500 0.687500
vt 0.562500 0.625000
vt 0.562500 0.562500
vt 0.562500 0.500000
vt 0.562500 0.437500
vt 0.562500 0.375000
vt 0.562500 0.312500
vt 0.562500 0.250000
vt 0.562500 0.187500
vt 0.562500 0.125000
vt 0.562500 0.062500
vt 0.531250 0.937500
vt 0.531250 0.875000
vt 0.531250 0.812500
vt 0.531250 0.750000
vt 0.531250 0.687500
vt 0.531250 0.625000
vt 0.531250 0.562500
vt 0.531250 0.500000
vt 0.531250 0.437500
vt 0.531250 0.375000
vt 0.531250 0.312500
vt 0.531250 0.250000
vt 0.531250 0.187500
vt 0.531250 0.125000
vt 0.531250 0.062500
vt 0.500000 0.937500
vt 0.500000 0.875000
vt 0.500000 0.812500
vt 0.500000 0.750000
vt 0.500000 0.687500
vt 0.500000 0.625000
vt 0.500000 0.562500
vt 0.500000 0.500000
vt 0.500000 0.437500
vt 0.500000 0.375000
vt 0.500000 0.312500
vt 0.500000 0.250000
vt 0.500000 0.187500
vt 0.500000 0.125000
vt 0.500000 0.062500
vt 0.468750 0.937500
vt 0.468750 0.875000
vt 0.468750 0.812500
vt 0.468750 0.750000
vt 0.468750 0.687500
vt 0.468750 0.625000
vt 0.468750 0.562500
vt 0.468750 0.500000
vt 0.468750 0.437500
vt 0.468750 0.375000
vt 0.468750 0.312500
vt 0.468750 0.250000
vt 0.468750 0.187500
vt 0.468750 0.125000
vt 0.468750 0.062500
vt 0.437500 0.937500
vt 0.437500 0.875000
vt 0.437500 0.812500
vt 0.437500 0.750000
vt 0.437500 0.687500
vt 0.437500 0.625000
vt 0.437500 0.562500
vt 0.437500 0.500000
vt 0.437500 0.437500
vt 0.437500 0.375000
vt 0.437500 0.312500
vt 0.437500 0.250000
vt 0.437500 0.187500
vt 0.437500 0.125000
vt 0.437500 0.062500
vt 0.406250 0.937500
vt 0.406250 0.875000
vt 0.406250 0.812500
vt 0.406250 0.750000
vt 0.406250 0.687500
vt 0.406250 0.625000
vt 0.406250 0.562500
vt 0.406250 0.500000
vt 0.406250 0.437500
vt 0.406250 0.375000
vt 0.406250 0.312500
vt 0.406250 0.250000
vt 0.406250 0.187500
vt 0.406250 0.125000
vt 0.406250 0.062500
vt 0.375000 0.937500
vt 0.375000 0.875000
vt 0.375000 0.812500
vt 0.375000 0.750000
vt 0.375000 0.687500
vt 0.375000 0.625000
vt 0.375000 0.562500
vt 0.375000 0.500000
vt 0.375000 0.437500
vt 0.375000 0.375000
vt 0.375000 0.312500
vt 0.375000 0.250000
vt 0.375000 0.187500
vt 0.375000 0.125000
vt 0.375000 0.062500
vt 0.343750 0.937500
vt 0.343750 0.875000
vt 0.343750 0.812500
vt 0.343750 0.750000
vt 0.343750 0.687500
vt 0.343750 0.625000
vt 0.343750 0.562500
vt 0.343750 0.500000
vt 0.343750 0.437500
vt 0.343750 0.375000
vt 0.343750 0.312500
vt 0.343750 0.250000
vt 0.343750 0.187500
vt 0.343750 0.125000
vt 0.343750 0.062500
vt 0.312500 0.937500
vt 0.312500 0.875000
vt 0.312500 0.812500
vt 0.312500 0.750000
vt 0.312500 0.687500
vt 0.312500 0.625000
vt 0.312500 0.562500
vt 0.312500 0.500000
vt 0.312500 0.437500
vt 0.312500 0.375000
vt 0.312500 0.312500
vt 0.312500 0.250000
vt 0.312500 0.187500
vt 0.312500 0.125000
vt 0.312500 0.062500
vt 0.281250 0.937500
vt 0.281250 0.875000
vt 0.281250 0.812500
vt 0.281250 0.750000
vt 0.281250 0.687500
vt 0.281250 0.625000
vt 0.281250 0.562500
vt 0.281250 0.500000
vt 0.281250 0.437500
vt 0.281250 0.375000
vt 0.281250 0.312500
vt 0.281250 0.250000
vt 0.281250 0.187500
vt 0.281250 0.125000
vt 0.281250 0.062500
vt 0.250000 0.937500
vt 0.250000 0.875000
vt 0.250000 0.812500
vt 0.250000 0.750000
vt 0.250000 0.687500
vt 0.250000 0.625000
vt 0.250000 0.562500
vt 0.250000 0.500000
vt 0.250000 0.437500
vt 0.250000 0.375000
vt 0.250000 0.312500
vt 0.250000 0.250000
vt 0.250000 0.187500
vt 0.250000 0.125000
vt 0.250000 0.062500
vt 0.218750 0.937500
vt 0.218750 0.875000
vt 0.218750 0.812500
vt 0.218750 0.750000
vt 0.218750 0.687500
vt 0.218750 0.625000
vt 0.218750 0.562500
vt 0.218750 0.500000
vt 0.218750 0.437500
vt 0.218750 0.375000
vt 0.218750 0.312500
vt 0.218750 0.250000
vt 0.218750 0.187500
vt 0.218750 0.125000
vt 0.218750 0.062500
vt 0.187500 0.937500
vt 0.187500 0.875000
vt 0.187500 0.812500
vt 0.187500 0.750000
vt 0.187500 0.687500
vt 0.187500 0.625000
vt 0.187500 0.562500
vt 0.187500 0.500000
vt 0.187500 0.437500
vt 0.187500 0.375000
vt 0.187500 0.312500
vt 0.187500 0.250000
vt 0.187500 0.187500
vt 0.187500 0.125000
vt 0.187500 0.062500
vt 0.156250 0.937500
vt 0.156250 0.875000
vt 0.156250 0.812500
vt 0.156250 0.750000
vt 0.156250 0.687500
vt 0.156250 0.625000
vt 0.156250 0.562500
vt 0.156250 0.500000
vt 0.156250 0.437500
vt 0.156250 0.375000
vt 0.156250 0.312500
vt 0.156250 0.250000
vt 0.156250 0.187500
vt 0.156250 0.125000
vt 0.156250 0.062500
vt 0.125000 0.937500
vt 0.125000 0.875000
vt 0.125000 0.812500
vt 0.125000 0.750000
vt 0.125000 0.687500
vt 0.125000 0.625000
vt 0.125000 0.562500
vt 0.125000 0.500000
vt 0.125000 0.437500
vt 0.125000 0.375000
vt 0.125000 0.312500
vt 0.125000 0.250000
vt 0.125000 0.187500
vt 0.125000 0.125000
vt 0.125000 0.062500
vt 0.734375 0.000000
vt 0.703125 0.000000
vt 0.671875 0.000000
vt 0.640625 0.000000
vt 0.609375 0.000000
vt 0.578125 0.000000
vt 0.546875 0.000000
vt 0.515625 0.000000
vt 0.484375 0.000000
vt 0.453125 0.000000
vt 0.421875 0.000000
vt 0.390625 0.000000
vt 0.359375 0.000000
vt 0.328125 0.000000
vt 0.296875 0.000000
vt 0.265625 0.000000
vt 0.234375 0.000000
vt 0.203125 0.000000
vt 0.171875 0.000000
vt 0.140625 0.000000
vt 0.109375 0.000000
vt 0.078125 0.000000
vt 0.046875 0.000000
vt 0.015625 0.000000
vt 0.984375 0.000000
vt 0.953125 0.000000
vt 0.921875 0.000000
vt 0.890625 0.000000
vt 0.859375 0.000000
vt 0.828125 0.000000
vt 0.796875 0.000000
vt 0.765625 0.000000
vt 0.093750 0.937500
vt 0.093750 0.875000
vt 0.093750 0.812500
vt 0.093750 0.750000
vt 0.093750 0.687500
vt 0.093750 0.625000
vt 0.093750 0.562500
vt 0.093750 0.500000
vt 0.093750 0.437500
vt 0.093750 0.375000
vt 0.093750 0.312500
vt 0.093750 0.250000
vt 0.093750 0.187500
vt 0.093750 0.125000
vt 0.093750 0.062500
vt 0.062500 0.937500
vt 0.062500 0.875000
vt 0.062500 0.812500
vt 0.062500 0.750000
vt 0.062500 0.687500
vt 0.062500 0.625000
vt 0.062500 0.562500
vt 0.062500 0.500000
vt 0.062500 0.437500
vt 0.062500 0.375000
vt 0.062500 0.312500
vt 0.062500 0.250000
vt 0.062500 0.187500
vt 0.062500 0.125000
vt 0.062500 0.062500
vt 0.031250 0.937500
vt 0.031250 0.875000
vt 0.031250 0.812500
vt 0.031250 0.750000
vt 0.031250 0.687500
vt 0.031250 0.625000
vt 0.031250 0.562500
vt 0.031250 0.500000
vt 0.031250 0.437500
vt 0.031250 0.375000
vt 0.031250 0.312500
vt 0.031250 0.250000
vt 0.031250 0.187500
vt 0.031250 0.125000
vt 0.031250 0.062500
vt 0.000000 0.937500
vt 1.000000 0.937500
vt 0.000000 0.875000
vt 1.000000 0.875000
vt 0.000000 0.812500
vt 1.000000 0.812500
vt 0.000000 0.750000
vt 1.000000 0.750000
vt 0.000000 0.687500
vt 1.000000 0.687500
vt 0.000000 0.625000
vt 1.000000 0.625000
vt 0.000000 0.562500
vt 1.000000 0.562500
vt 0.000000 0.500000
vt 1.000000 0.500000
vt 0.000000 0.437500
vt 1.000000 0.437500
vt 0.000000 0.375000
vt 1.000000 0.375000
vt 0.000000 0.312500
vt 1.000000 0.312500
vt 0.000000 0.250000
vt 1.000000 0.250000
vt 0.000000 0.187500
vt 1.000000 0.187500
vt 0.000000 0.125000
vt 1.000000 0.125000
vt 0.000000 0.062500
vt 1.000000 0.062500
vt 0.968750 0.937500
vt 0.968750 0.875000
vt 0.968750 0.812500
vt 0.968750 0.750000
vt 0.968750 0.687500
vt 0.968750 0.625000
vt 0.968750 0.562500
vt 0.968750 0.500000
vt 0.968750 0.437500
vt 0.968750 0.375000
vt 0.968750 0.312500
vt 0.968750 0.250000
vt 0.968750 0.187500
vt 0.968750 0.125000
vt 0.968750 0.062500
vt 0.937500 0.937500
vt 0.937500 0.875000
vt 0.937500 0.812500
vt 0.937500 0.750000
vt 0.937500 0.687500
vt 0.937500 0.625000
vt 0.937500 0.562500
vt 0.937500 0.500000
vt 0.937500 0.437500
vt 0.937500 0.375000
vt 0.937500 0.312500
vt 0.937500 0.250000
vt 0.937500 0.187500
vt 0.937500 0.125000
vt 0.937500 0.062500
vt 0.906250 0.937500
vt 0.906250 0.875000
vt 0.906250 0.812500
vt 0.906250 0.750000
vt 0.906250 0.687500
vt 0.906250 0.625000
vt 0.906250 0.562500
vt 0.906250 0.500000
vt 0.906250 0.437500
vt 0.906250 0.375000
vt 0.906250 0.312500
vt 0.906250 0.250000
vt 0.906250 0.187500
vt 0.906250 0.125000
vt 0.906250 0.062500
vt 0.875000 0.937500
vt 0.875000 0.875000
vt 0.875000 0.812500
vt 0.875000 0.750000
vt 0.875000 0.687500
vt 0.875000 0.625000
vt 0.875000 0.562500
vt 0.875000 0.500000
vt 0.875000 0.437500
vt 0.875000 0.375000
vt 0.875000 0.312500
vt 0.875000 0.250000
vt 0.875000 0.187500
vt 0.875000 0.125000
vt 0.875000 0.062500
vt 0.843750 0.937500
vt 0.843750 0.875000
vt 0.843750 0.812500
vt 0.843750 0.750000
vt 0.843750 0.687500
vt 0.843750 0.625000
vt 0.843750 0.562500
vt 0.843750 0.500000
vt 0.843750 0.437500
vt 0.843750 0.375000
vt 0.843750 0.312500
vt 0.843750 0.250000
vt 0.843750 0.187500
vt 0.843750 0.125000
vt 0.843750 0.062500
vt 0.812500 0.937500
vt 0.812500 0.875000
vt 0.812500 0.812500
vt 0.812500 0.750000
vt 0.812500 0.687500
vt 0.812500 0.625000
vt 0.812500 0.562500
vt 0.812500 0.500000
vt 0.812500 0.437500
vt 0.812500 0.375000
vt 0.812500 0.312500
vt 0.812500 0.250000
vt 0.812500 0.187500
vt 0.812500 0.125000
vt 0.812500 0.062500
vt 0.781250 0.937500
vt 0.781250 0.875000
vt 0.781250 0.812500
vt 0.781250 0.750000
vt 0.781250 0.687500
vt 0.781250 0.625000
vt 0.781250 0.562500
vt 0.781250 0.500000
vt 0.781250 0.437500
vt 0.781250 0.375000
vt 0.781250 0.312500
vt 0.781250 0.250000
vt 0.781250 0.187500
vt 0.781250 0.125000
vt 0.781250 0.062500
vt 0.750000 0.937500
vt 0.750000 0.875000
vt 0.750000 0.750000
vt 0.750000 0.625000
vt 0.750000 0.375000
vt 0.750000 0.250000
vt 0.750000 0.187500
vt 0.750000 0.125000
vt 0.750000 0.062500
s 0
f 1/1/1 4/8/1 3/6/1
f 4/8/2 5/9/2 3/6/2
f 6/11/3 7/12/3 5/9/3
f 8/14/4 9/15/4 7/12/4
f 10/17/5 11/18/5 9/15/5
f 12/20/6 13/21/6 11/18/6
f 14/23/7 15/24/7 13/21/7
f 16/26/8 17/27/8 15/24/8
f 17/27/9 20/32/9 19/30/9
f 20/32/10 21/33/10 19/30/10
f 22/35/11 23/36/11 21/33/11
f 24/38/12 25/39/12 23/36/12
f 26/41/13 27/42/13 25/39/13
f 28/44/14 29/45/14 27/42/14
f 30/47/15 31/48/15 29/45/15
f 32/50/16 33/51/16 31/48/16
f 33/51/17 36/56/17 35/54/17
f 36/56/18 37/57/18 35/54/18
f 38/59/19 39/60/19 37/57/19
f 40/62/20 41/63/20 39/60/20
f 42/65/21 43/66/21 41/63/21
f 44/68/22 45/69/22 43/66/22
f 46/71/23 47/72/23 45/69/23
f 48/74/24 49/75/24 47/72/24
f 49/75/25 52/80/25 51/78/25
f 52/80/26 53/81/26 51/78/26
f 54/83/27 55/84/27 53/81/27
f 56/86/28 57/87/28 55/84/28
f 58/89/29 59/90/29 57/87/29
f 60/92/30 61/93/30 59/90/30
f 32/50/31 113/164/31 34/53/31
f 62/95/32 63/96/32 61/93/32
f 64/98/33 1/2/33 63/96/33
f 31/49/34 47/73/34 63/97/34
f 83/117/35 148/215/35 84/118/35
f 50/77/36 122/182/36 52/80/36
f 6/11/35 100/138/35 8/14/35
f 24/38/37 109/156/37 26/41/37
f 42/65/38 118/174/38 44/68/38
f 60/92/39 127/192/39 62/95/39
f 16/26/40 105/148/40 18/29/40
f 34/53/41 114/166/41 36/56/41
f 52/80/42 123/184/42 54/83/42
f 8/14/43 101/140/43 10/17/43
f 26/41/44 110/158/44 28/44/44
f 44/68/45 119/176/45 46/71/45
f 62/95/46 128/194/46 64/98/46
f 18/29/47 106/150/47 20/32/47
f 36/56/48 115/168/48 38/59/48
f 54/83/49 124/186/49 56/86/49
f 10/17/50 102/142/50 12/20/50
f 28/44/51 111/160/51 30/47/51
f 46/71/52 120/178/52 48/74/52
f 2/5/53 97/131/53 4/8/53
f 64/98/54 98/134/54 2/4/54
f 20/32/55 107/152/55 22/35/55
f 38/59/56 116/170/56 40/62/56
f 56/86/57 125/188/57 58/89/57
f 12/20/58 103/144/58 14/23/58
f 30/47/59 112/162/59 32/50/59
f 48/74/60 121/180/60 50/77/60
f 4/8/61 99/136/61 6/11/61
f 22/35/62 108/154/62 24/38/62
f 40/62/63 117/172/63 42/65/63
f 58/89/64 126/190/64 60/92/64
f 14/23/65 104/146/65 16/26/65
f 66/100/66 98/135/66 65/99/66
f 67/101/66 97/132/66 66/100/66
f 68/102/66 99/137/66 67/101/66
f 69/103/66 100/139/66 68/102/66
f 70/104/66 101/141/66 69/103/66
f 71/105/66 102/143/66 70/104/66
f 72/106/66 103/145/66 71/105/66
f 73/107/66 104/147/66 72/106/66
f 74/108/66 105/149/66 73/107/66
f 75/109/66 106/151/66 74/108/66
f 76/110/66 107/153/66 75/109/66
f 77/111/66 108/155/66 76/110/66
f 78/112/66 109/157/66 77/111/66
f 79/113/66 110/159/66 78/112/66
f 80/114/66 111/161/66 79/113/66
f 81/115/66 112/163/66 80/114/66
f 82/116/66 113/165/66 81/115/66
f 83/117/66 114/167/66 82/116/66
f 84/118/66 115/169/66 83/117/66
f 85/119/66 116/171/66 84/118/66
f 86/120/66 117/173/66 85/119/66
f 87/121/66 118/175/66 86/120/66
f 88/122/66 119/177/66 87/121/66
f 89/123/66 120/179/66 88/122/66
f 90/124/66 121/181/66 89/123/66
f 91/125/66 122/183/66 90/124/66
f 92/126/66 123/185/66 91/125/66
f 93/127/66 124/187/66 92/126/66
f 94/128/66 125/189/66 93/127/66
f 95/129/66 126/191/66 94/128/66
f 96/130/66 127/193/66 95/129/66
f 65/99/66 128/195/66 96/130/66
f 70/104/45 135/202/45 71/105/45
f 84/118/43 149/216/43 85/119/43
f 71/105/52 136/203/52 72/106/52
f 85/119/50 150/217/50 86/120/50
f 72/106/60 137/204/60 73/107/60
f 86/120/58 151/218/58 87/121/58
f 73/107/36 138/205/36 74/108/36
f 87/121/65 152/219/65 88/122/65
f 74/108/42 139/206/42 75/109/42
f 88/122/40 153/220/40 89/123/40
f 75/109/49 140/207/49 76/110/49
f 89/123/47 154/221/47 90/124/47
f 76/110/57 141/208/57 77/111/57
f 90/124/55 155/222/55 91/125/55
f 77/111/64 142/209/64 78/112/64
f 91/125/62 156/223/62 92/126/62
f 78/112/39 143/210/39 79/113/39
f 65/99/41 130/197/41 66/100/41
f 92/126/37 157/224/37 93/127/37
f 79/113/46 144/211/46 80/114/46
f 66/100/48 131/198/48 67/101/48
f 93/127/44 158/225/44 94/128/44
f 80/114/54 145/212/54 81/115/54
f 67/101/56 132/199/56 68/102/56
f 94/128/51 159/226/51 95/129/51
f 81/115/53 146/213/53 82/116/53
f 68/102/63 133/200/63 69/103/63
f 95/129/59 160/227/59 96/130/59
f 82/116/61 147/214/61 83/117/61
f 69/103/38 134/201/38 70/104/38
f 96/130/31 129/196/31 65/99/31
f 130/197/67 129/196/67 161/228/67
f 129/196/68 160/227/68 161/228/68
f 160/227/69 159/226/69 161/228/69
f 159/226/70 158/225/70 161/228/70
f 158/225/71 157/224/71 161/228/71
f 157/224/72 156/223/72 161/228/72
f 156/223/73 155/222/73 161/228/73
f 155/222/74 154/221/74 161/228/74
f 154/221/75 153/220/75 161/228/75
f 153/220/76 152/219/76 161/228/76
f 152/219/77 151/218/77 161/228/77
f 151/218/78 150/217/78 161/228/78
f 150/217/79 149/216/79 161/228/79
f 149/216/80 148/215/80 161/228/80
f 148/215/81 147/214/81 161/228/81
f 147/214/82 146/213/82 161/228/82
f 146/213/83 145/212/83 161/228/83
f 145/212/84 144/211/84 161/228/84
f 144/211/85 143/210/85 161/228/85
f 143/210/86 142/209/86 161/228/86
f 142/209/87 141/208/87 161/228/87
f 141/208/88 140/207/88 161/228/88
f 140/207/89 139/206/89 161/228/89
f 139/206/90 138/205/90 161/228/90
f 138/205/91 137/204/91 161/228/91
f 137/204/92 136/203/92 161/228/92
f 136/203/93 135/202/93 161/228/93
f 135/202/94 134/201/94 161/228/94
f 134/201/95 133/200/95 161/228/95
f 133/200/96 132/199/96 161/228/96
f 132/199/97 131/198/97 161/228/97
f 131/198/98 130/197/98 161/228/98
f 641/785/99 181/248/99 642/786/99
f 164/231/100 173/240/100 174/241/100
f 642/786/101 182/249/101 643/787/101
f 165/232/102 174/241/102 175/242/102
f 635/779/103 243/310/103 168/235/103
f 469/567/104 643/787/104 182/249/104
f 165/232/105 176/243/105 166/233/105
f 636/780/106 168/235/106 169/236/106
f 166/233/107 177/244/107 639/783/107
f 162/229/108 169/236/108 170/237/108
f 639/783/109 178/245/109 167/234/109
f 637/781/110 170/237/110 171/238/110
f 640/784/111 178/245/111 179/246/111
f 163/230/112 171/238/112 172/239/112
f 640/784/113 180/247/113 641/785/113
f 638/782/114 172/239/114 173/240/114
f 180/247/115 194/261/115 195/262/115
f 172/239/116 188/255/116 173/240/116
f 180/247/117 196/263/117 181/248/117
f 173/240/118 189/256/118 174/241/118
f 181/248/119 197/264/119 182/249/119
f 174/241/120 190/257/120 175/242/120
f 168/235/121 243/311/121 183/250/121
f 469/568/122 182/249/122 197/264/122
f 175/242/123 191/258/123 176/243/123
f 168/235/124 184/251/124 169/236/124
f 176/243/125 192/259/125 177/244/125
f 169/236/126 185/252/126 170/237/126
f 177/244/127 193/260/127 178/245/127
f 170/237/128 186/253/128 171/238/128
f 179/246/129 193/260/129 194/261/129
f 171/238/130 187/254/130 172/239/130
f 184/251/131 198/265/131 199/266/131
f 192/259/132 206/273/132 207/274/132
f 184/251/133 200/267/133 185/252/133
f 192/259/134 208/275/134 193/260/134
f 186/253/135 200/267/135 201/268/135
f 194/261/136 208/275/136 209/276/136
f 186/253/137 202/269/137 187/254/137
f 194/261/138 210/277/138 195/262/138
f 187/254/139 203/270/139 188/255/139
f 196/263/140 210/277/140 211/278/140
f 188/255/141 204/271/141 189/256/141
f 196/263/142 212/279/142 197/264/142
f 189/256/143 205/272/143 190/257/143
f 183/250/144 243/312/144 198/265/144
f 469/569/145 197/264/145 212/279/145
f 191/258/146 205/272/146 206/273/146
f 202/269/147 218/285/147 203/270/147
f 211/278/148 225/292/148 226/293/148
f 203/270/149 219/286/149 204/271/149
f 211/278/150 227/294/150 212/279/150
f 205/272/151 219/286/151 220/287/151
f 198/265/152 243/313/152 213/280/152
f 469/570/153 212/279/153 227/294/153
f 205/272/154 221/288/154 206/273/154
f 199/266/155 213/280/155 214/281/155
f 206/273/156 222/289/156 207/274/156
f 199/266/157 215/282/157 200/267/157
f 208/275/158 222/289/158 223/290/158
f 200/267/159 216/283/159 201/268/159
f 209/276/160 223/290/160 224/291/160
f 201/268/161 217/284/161 202/269/161
f 210/277/162 224/291/162 225/292/162
f 221/288/163 237/304/163 222/289/163
f 214/281/164 230/297/164 215/282/164
f 222/289/165 238/305/165 223/290/165
f 215/282/166 231/298/166 216/283/166
f 223/290/167 239/306/167 224/291/167
f 217/284/168 231/298/168 232/299/168
f 225/292/169 239/306/169 240/307/169
f 217/284/170 233/300/170 218/285/170
f 226/293/171 240/307/171 241/308/171
f 218/285/172 234/301/172 219/286/172
f 227/294/173 241/308/173 242/309/173
f 220/287/174 234/301/174 235/302/174
f 213/280/175 243/314/175 228/295/175
f 469/571/176 227/294/176 242/309/176
f 220/287/177 236/303/177 221/288/177
f 214/281/178 228/295/178 229/296/178
f 241/308/179 256/354/179 257/355/179
f 234/301/180 249/347/180 250/348/180
f 241/308/181 258/356/181 242/309/181
f 234/301/182 251/349/182 235/302/182
f 228/295/183 243/315/183 244/342/183
f 469/572/184 242/309/184 258/356/184
f 235/302/185 252/350/185 236/303/185
f 228/295/186 245/343/186 229/296/186
f 236/303/187 253/351/187 237/304/187
f 229/296/188 246/344/188 230/297/188
f 238/305/189 253/351/189 254/352/189
f 230/297/190 247/345/190 231/298/190
f 238/305/191 255/353/191 239/306/191
f 232/299/192 247/345/192 248/346/192
f 239/306/193 256/354/193 240/307/193
f 232/299/194 249/347/194 233/300/194
f 254/352/195 268/366/195 269/367/195
f 246/344/196 262/360/196 247/345/196
f 255/353/197 269/367/197 270/368/197
f 247/345/198 263/361/198 248/346/198
f 255/353/199 271/369/199 256/354/199
f 248/346/200 264/362/200 249/347/200
f 256/354/201 272/370/201 257/355/201
f 250/348/202 264/362/202 265/363/202
f 257/355/203 273/371/203 258/356/203
f 251/349/204 265/363/204 266/364/204
f 244/342/205 243/316/205 259/357/205
f 469/573/206 258/356/206 273/371/206
f 251/349/207 267/365/207 252/350/207
f 244/342/208 260/358/208 245/343/208
f 252/350/209 268/366/209 253/351/209
f 245/343/210 261/359/210 246/344/210
f 273/371/211 287/385/211 288/386/211
f 266/364/212 280/378/212 281/379/212
f 259/357/213 243/317/213 274/372/213
f 469/574/214 273/371/214 288/386/214
f 266/364/215 282/380/215 267/365/215
f 259/357/216 275/373/216 260/358/216
f 267/365/217 283/381/217 268/366/217
f 260/358/218 276/374/218 261/359/218
f 269/367/219 283/381/219 284/382/219
f 261/359/220 277/375/220 262/360/220
f 269/367/221 285/383/221 270/368/221
f 263/361/222 277/375/222 278/376/222
f 271/369/223 285/383/223 286/384/223
f 263/361/224 279/377/224 264/362/224
f 272/370/225 286/384/225 287/385/225
f 265/363/226 279/377/226 280/378/226
f 276/374/227 292/390/227 277/375/227
f 284/382/228 300/398/228 285/383/228
f 278/376/229 292/390/229 293/391/229
f 285/383/230 301/399/230 286/384/230
f 278/376/231 294/392/231 279/377/231
f 286/384/232 302/400/232 287/385/232
f 280/378/233 294/392/233 295/393/233
f 287/385/234 303/401/234 288/386/234
f 281/379/235 295/393/235 296/394/235
f 274/372/236 243/318/236 289/387/236
f 469/575/237 288/386/237 303/401/237
f 281/379/238 297/395/238 282/380/238
f 275/373/239 289/387/239 290/388/239
f 282/380/240 298/396/240 283/381/240
f 276/374/241 290/388/241 291/389/241
f 284/382/242 298/396/242 299/397/242
f 296/394/243 310/408/243 311/409/243
f 289/387/244 243/319/244 304/402/244
f 469/576/245 303/401/245 318/416/245
f 296/394/246 312/410/246 297/395/246
f 289/387/247 305/403/247 290/388/247
f 297/395/248 313/411/248 298/396/248
f 290/388/249 306/404/249 291/389/249
f 299/397/250 313/411/250 314/412/250
f 291/389/251 307/405/251 292/390/251
f 299/397/252 315/413/252 300/398/252
f 293/391/253 307/405/253 308/406/253
f 301/399/254 315/413/254 316/414/254
f 293/391/255 309/407/255 294/392/255
f 302/400/256 316/414/256 317/415/256
f 295/393/257 309/407/257 310/408/257
f 302/400/258 318/416/258 303/401/258
f 315/413/259 329/427/259 330/428/259
f 307/405/260 323/421/260 308/406/260
f 316/414/261 330/428/261 331/429/261
f 308/406/262 324/422/262 309/407/262
f 316/414/263 332/430/263 317/415/263
f 309/407/264 325/423/264 310/408/264
f 318/416/265 332/430/265 333/431/265
f 311/409/266 325/423/266 326/424/266
f 304/402/267 243/320/267 319/417/267
f 469/577/268 318/416/268 333/431/268
f 311/409/269 327/425/269 312/410/269
f 304/402/270 320/418/270 305/403/270
f 312/410/271 328/426/271 313/411/271
f 306/404/272 320/418/272 321/419/272
f 314/412/273 328/426/273 329/427/273
f 306/404/274 322/420/274 307/405/274
f 319/417/275 243/321/275 334/432/275
f 469/578/276 333/431/276 348/446/276
f 326/424/277 342/440/277 327/425/277
f 319/417/278 335/433/278 320/418/278
f 327/425/279 343/441/279 328/426/279
f 320/418/280 336/434/280 321/419/280
f 329/427/281 343/441/281 344/442/281
f 321/419/282 337/435/282 322/420/282
f 329/427/283 345/443/283 330/428/283
f 323/421/284 337/435/284 338/436/284
f 331/429/285 345/443/285 346/444/285
f 323/421/286 339/437/286 324/422/286
f 331/429/287 347/445/287 332/430/287
f 325/423/288 339/437/288 340/438/288
f 332/430/289 348/446/289 333/431/289
f 326/424/290 340/438/290 341/439/290
f 338/436/291 352/450/291 353/451/291
f 346/444/292 360/458/292 361/459/292
f 338/436/293 354/452/293 339/437/293
f 346/444/294 362/460/294 347/445/294
f 340/438/295 354/452/295 355/453/295
f 347/445/296 363/461/296 348/446/296
f 341/439/297 355/453/297 356/454/297
f 334/432/298 243/322/298 349/447/298
f 469/579/299 348/446/299 363/461/299
f 341/439/300 357/455/300 342/440/300
f 334/432/301 350/448/301 335/433/301
f 342/440/302 358/456/302 343/441/302
f 336/434/303 350/448/303 351/449/303
f 344/442/304 358/456/304 359/457/304
f 336/434/305 352/450/305 337/435/305
f 344/442/306 360/458/306 345/443/306
f 356/454/307 372/470/307 357/455/307
f 349/447/308 365/463/308 350/448/308
f 357/455/309 373/471/309 358/456/309
f 350/448/310 366/464/310 351/449/310
f 359/457/311 373/471/311 374/472/311
f 351/449/312 367/465/312 352/450/312
f 359/457/313 375/473/313 360/458/313
f 353/451/314 367/465/314 368/466/314
f 361/459/315 375/473/315 376/474/315
f 353/451/316 369/467/316 354/452/316
f 362/460/317 376/474/317 377/475/317
f 355/453/318 369/467/318 370/468/318
f 362/460/319 378/476/319 363/461/319
f 356/454/320 370/468/320 371/469/320
f 349/447/321 243/323/321 364/462/321
f 469/580/322 363/461/322 378/476/322
f 375/473/323 391/489/323 376/474/323
f 368/466/324 384/482/324 369/467/324
f 376/474/325 392/490/325 377/475/325
f 370/468/326 384/482/326 385/483/326
f 377/475/327 393/491/327 378/476/327
f 371/469/328 385/483/328 386/484/328
f 364/462/329 243/324/329 379/477/329
f 469/581/330 378/476/330 393/491/330
f 371/469/331 387/485/331 372/470/331
f 364/462/332 380/478/332 365/463/332
f 372/470/333 388/486/333 373/471/333
f 366/464/334 380/478/334 381/479/334
f 374/472/335 388/486/335 389/487/335
f 367/465/336 381/479/336 382/480/336
f 374/472/337 390/488/337 375/473/337
f 368/466/338 382/480/338 383/481/338
f 387/485/339 403/501/339 388/486/339
f 381/479/340 395/493/340 396/494/340
f 389/487/341 403/501/341 404/502/341
f 381/479/342 397/495/342 382/480/342
f 390/488/343 404/502/343 405/503/343
f 383/481/344 397/495/344 398/496/344
f 391/489/345 405/503/345 406/504/345
f 383/481/346 399/497/346 384/482/346
f 392/490/347 406/504/347 407/505/347
f 385/483/348 399/497/348 400/498/348
f 392/490/349 408/506/349 393/491/349
f 386/484/350 400/498/350 401/499/350
f 379/477/351 243/325/351 394/492/351
f 469/582/352 393/491/352 408/506/352
f 386/484/353 402/500/353 387/485/353
f 380/478/354 394/492/354 395/493/354
f 407/505/355 421/519/355 422/520/355
f 400/498/356 414/512/356 415/513/356
f 408/506/357 422/520/357 423/521/357
f 401/499/358 415/513/358 416/514/358
f 394/492/359 243/326/359 409/507/359
f 469/583/360 408/506/360 423/521/360
f 401/499/361 417/515/361 402/500/361
f 394/492/362 410/508/362 395/493/362
f 402/500/363 418/516/363 403/501/363
f 395/493/364 411/509/364 396/494/364
f 404/502/365 418/516/365 419/517/365
f 396/494/366 412/510/366 397/495/366
f 404/502/367 420/518/367 405/503/367
f 398/496/368 412/510/368 413/511/368
f 406/504/369 420/518/369 421/519/369
f 398/496/370 414/512/370 399/497/370
f 411/509/371 425/523/371 426/524/371
f 419/517/372 433/531/372 434/532/372
f 411/509/373 427/525/373 412/510/373
f 420/518/374 434/532/374 435/533/374
f 412/510/375 428/526/375 413/511/375
f 421/519/376 435/533/376 436/534/376
f 413/511/377 429/527/377 414/512/377
f 421/519/378 437/535/378 422/520/378
f 415/513/379 429/527/379 430/528/379
f 422/520/380 438/536/380 423/521/380
f 416/514/381 430/528/381 431/529/381
f 409/507/382 243/327/382 424/522/382
f 469/584/383 423/521/383 438/536/383
f 416/514/384 432/530/384 417/515/384
f 410/508/385 424/522/385 425/523/385
f 417/515/386 433/531/386 418/516/386
f 430/528/387 444/542/387 445/543/387
f 437/535/388 453/551/388 438/536/388
f 431/529/389 445/543/389 446/544/389
f 424/522/390 243/328/390 439/537/390
f 469/585/391 438/536/391 453/551/391
f 431/529/392 447/545/392 432/530/392
f 424/522/393 440/538/393 425/523/393
f 432/530/394 448/546/394 433/531/394
f 426/524/395 440/538/395 441/539/395
f 434/532/396 448/546/396 449/547/396
f 426/524/397 442/540/397 427/525/397
f 434/532/398 450/548/398 435/533/398
f 428/526/399 442/540/399 443/541/399
f 436/534/400 450/548/400 451/549/400
f 428/526/401 444/542/401 429/527/401
f 436/534/402 452/550/402 437/535/402
f 449/547/403 463/561/403 464/562/403
f 441/539/404 457/555/404 442/540/404
f 449/547/405 465/563/405 450/548/405
f 443/541/406 457/555/406 458/556/406
f 451/549/407 465/563/407 466/564/407
f 443/541/408 459/557/408 444/542/408
f 452/550/409 466/564/409 467/565/409
f 445/543/410 459/557/410 460/558/410
f 453/551/411 467/565/411 468/566/411
f 446/544/412 460/558/412 461/559/412
f 439/537/413 243/329/413 454/552/413
f 469/586/414 453/551/414 468/566/414
f 446/544/415 462/560/415 447/545/415
f 439/537/416 455/553/416 440/538/416
f 447/545/417 463/561/417 448/546/417
f 440/538/418 456/554/418 441/539/418
f 467/565/419 484/613/419 468/566/419
f 461/559/420 476/605/420 477/606/420
f 454/552/421 243/330/421 470/599/421
f 469/587/422 468/566/422 484/613/422
f 461/559/423 478/607/423 462/560/423
f 454/552/424 471/600/424 455/553/424
f 462/560/425 479/608/425 463/561/425
f 455/553/426 472/601/426 456/554/426
f 464/562/427 479/608/427 480/609/427
f 456/554/428 473/602/428 457/555/428
f 464/562/429 481/610/429 465/563/429
f 458/556/430 473/602/430 474/603/430
f 466/564/431 481/610/431 482/611/431
f 458/556/432 475/604/432 459/557/432
f 466/564/433 483/612/433 467/565/433
f 460/558/434 475/604/434 476/605/434
f 472/601/435 488/617/435 473/602/435
f 480/609/436 496/625/436 481/610/436
f 474/603/437 488/617/437 489/618/437
f 482/611/438 496/625/438 497/626/438
f 474/603/439 490/619/439 475/604/439
f 482/611/440 498/627/440 483/612/440
f 476/605/441 490/619/441 491/620/441
f 483/612/442 499/628/442 484/613/442
f 477/606/443 491/620/443 492/621/443
f 470/599/444 243/331/444 485/614/444
f 469/588/445 484/613/445 499/628/445
f 477/606/446 493/622/446 478/607/446
f 471/600/447 485/614/447 486/615/447
f 478/607/448 494/623/448 479/608/448
f 472/601/449 486/615/449 487/616/449
f 480/609/450 494/623/450 495/624/450
f 492/621/451 506/635/451 507/636/451
f 485/614/452 243/332/452 500/629/452
f 469/589/453 499/628/453 514/643/453
f 492/621/454 508/637/454 493/622/454
f 485/614/455 501/630/455 486/615/455
f 493/622/456 509/638/456 494/623/456
f 486/615/457 502/631/457 487/616/457
f 495/624/458 509/638/458 510/639/458
f 487/616/459 503/632/459 488/617/459
f 495/624/460 511/640/460 496/625/460
f 489/618/461 503/632/461 504/633/461
f 497/626/462 511/640/462 512/641/462
f 489/618/463 505/634/463 490/619/463
f 498/627/464 512/641/464 513/642/464
f 491/620/465 505/634/465 506/635/465
f 499/628/466 513/642/466 514/643/466
f 510/639/467 526/666/467 511/640/467
f 504/633/468 518/650/468 519/652/468
f 512/641/469 526/666/469 527/668/469
f 504/633/470 520/654/470 505/634/470
f 512/641/471 528/670/471 513/642/471
f 506/635/472 520/654/472 521/656/472
f 513/642/473 529/672/473 514/643/473
f 507/636/474 521/656/474 522/658/474
f 500/629/475 243/333/475 515/644/475
f 469/590/476 514/643/476 529/672/476
f 507/636/477 523/660/477 508/637/477
f 501/630/478 515/644/478 516/646/478
f 508/637/479 524/662/479 509/638/479
f 502/631/480 516/646/480 517/648/480
f 510/639/481 524/662/481 525/664/481
f 502/631/482 518/650/482 503/632/482
f 469/591/483 529/673/483 544/688/483
f 522/659/484 538/682/484 523/661/484
f 515/645/485 531/675/485 516/647/485
f 523/661/486 539/683/486 524/663/486
f 516/647/487 532/676/487 517/649/487
f 525/665/488 539/683/488 540/684/488
f 517/649/489 533/677/489 518/651/489
f 526/667/490 540/684/490 541/685/490
f 518/651/491 534/678/491 519/653/491
f 527/669/492 541/685/492 542/686/492
f 519/653/493 535/679/493 520/655/493
f 528/671/494 542/686/494 543/687/494
f 521/657/495 535/679/495 536/680/495
f 529/673/496 543/687/496 544/688/496
f 522/659/497 536/680/497 537/681/497
f 515/645/498 243/334/498 530/674/498
f 542/686/499 556/700/499 557/701/499
f 534/678/500 550/694/500 535/679/500
f 543/687/501 557/701/501 558/702/501
f 536/680/502 550/694/502 551/695/502
f 544/688/503 558/702/503 559/703/503
f 537/681/504 551/695/504 552/696/504
f 530/674/505 243/335/505 545/689/505
f 469/592/506 544/688/506 559/703/506
f 537/681/507 553/697/507 538/682/507
f 530/674/508 546/690/508 531/675/508
f 538/682/509 554/698/509 539/683/509
f 531/675/510 547/691/510 532/676/510
f 540/684/511 554/698/511 555/699/511
f 532/676/512 548/692/512 533/677/512
f 540/684/513 556/700/513 541/685/513
f 534/678/514 548/692/514 549/693/514
f 546/690/515 560/704/515 561/705/515
f 553/697/516 569/713/516 554/698/516
f 546/690/517 562/706/517 547/691/517
f 555/699/518 569/713/518 570/714/518
f 547/691/519 563/707/519 548/692/519
f 555/699/520 571/715/520 556/700/520
f 549/693/521 563/707/521 564/708/521
f 557/701/522 571/715/522 572/716/522
f 549/693/523 565/709/523 550/694/523
f 558/702/524 572/716/524 573/717/524
f 551/695/525 565/709/525 566/710/525
f 558/702/526 574/718/526 559/703/526
f 552/696/527 566/710/527 567/711/527
f 545/689/528 243/336/528 560/704/528
f 469/593/529 559/703/529 574/718/529
f 552/696/530 568/712/530 553/697/530
f 564/708/531 580/724/531 565/709/531
f 572/716/532 588/732/532 573/717/532
f 566/710/533 580/724/533 581/725/533
f 574/718/534 588/732/534 589/733/534
f 567/711/535 581/725/535 582/726/535
f 560/704/536 243/337/536 575/719/536
f 469/594/537 574/718/537 589/733/537
f 567/711/538 583/727/538 568/712/538
f 560/704/539 576/720/539 561/705/539
f 568/712/540 584/728/540 569/713/540
f 561/705/541 577/721/541 562/706/541
f 570/714/542 584/728/542 585/729/542
f 562/706/543 578/722/543 563/707/543
f 571/715/544 585/729/544 586/730/544
f 563/707/545 579/723/545 564/708/545
f 572/716/546 586/730/546 587/731/546
f 583/727/547 599/743/547 584/728/547
f 577/721/548 591/735/548 592/736/548
f 585/729/549 599/743/549 600/744/549
f 577/721/550 593/737/550 578/722/550
f 585/729/551 601/745/551 586/730/551
f 579/723/552 593/737/552 594/738/552
f 587/731/553 601/745/553 602/746/553
f 579/723/554 595/739/554 580/724/554
f 587/731/555 603/747/555 588/732/555
f 581/725/556 595/739/556 596/740/556
f 588/732/557 604/748/557 589/733/557
f 582/726/558 596/740/558 597/741/558
f 575/719/559 243/338/559 590/734/559
f 469/595/560 589/733/560 604/748/560
f 582/726/561 598/742/561 583/727/561
f 576/720/562 590/734/562 591/735/562
f 602/746/563 618/762/563 603/747/563
f 596/740/564 610/754/564 611/755/564
f 604/748/565 618/762/565 619/763/565
f 597/741/566 611/755/566 612/756/566
f 590/734/567 243/339/567 605/749/567
f 469/596/568 604/748/568 619/763/568
f 597/741/569 613/757/569 598/742/569
f 590/734/570 606/750/570 591/735/570
f 598/742/571 614/758/571 599/743/571
f 592/736/572 606/750/572 607/751/572
f 600/744/573 614/758/573 615/759/573
f 592/736/574 608/752/574 593/737/574
f 600/744/575 616/760/575 601/745/575
f 593/737/576 609/753/576 594/738/576
f 602/746/577 616/760/577 617/761/577
f 594/738/578 610/754/578 595/739/578
f 607/751/579 621/765/579 622/766/579
f 615/759/580 629/773/580 630/774/580
f 607/751/581 623/767/581 608/752/581
f 616/760/582 630/774/582 631/775/582
f 609/753/583 623/767/583 624/768/583
f 617/761/584 631/775/584 632/776/584
f 609/753/585 625/769/585 610/754/585
f 618/762/586 632/776/586 633/777/586
f 611/755/587 625/769/587 626/770/587
f 619/763/588 633/777/588 634/778/588
f 612/756/589 626/770/589 627/771/589
f 605/749/590 243/340/590 620/764/590
f 469/597/591 619/763/591 634/778/591
f 612/756/592 628/772/592 613/757/592
f 605/749/593 621/765/593 606/750/593
f 613/757/594 629/773/594 614/758/594
f 626/770/595 638/782/595 164/231/595
f 633/777/596 643/787/596 634/778/596
f 627/771/597 164/231/597 165/232/597
f 620/764/598 243/341/598 635/779/598
f 469/598/599 634/778/599 643/787/599
f 627/771/600 166/233/600 628/772/600
f 621/765/601 635/779/601 636/780/601
f 628/772/602 639/783/602 629/773/602
f 622/766/603 636/780/603 162/229/603
f 629/773/604 167/234/604 630/774/604
f 623/767/605 162/229/605 637/781/605
f 630/774/606 640/784/606 631/775/606
f 624/768/607 637/781/607 163/230/607
f 632/776/608 640/784/608 641/785/608
f 625/769/609 163/230/609 638/782/609
f 632/776/610 642/786/610 633/777/610
f 1/1/1 2/5/1 4/8/1
f 4/8/2 6/11/2 5/9/2
f 6/11/3 8/14/3 7/12/3
f 8/14/4 10/17/4 9/15/4
f 10/17/5 12/20/5 11/18/5
f 12/20/6 14/23/6 13/21/6
f 14/23/7 16/26/7 15/24/7
f 16/26/8 18/29/8 17/27/8
f 17/27/9 18/29/9 20/32/9
f 20/32/10 22/35/10 21/33/10
f 22/35/11 24/38/11 23/36/11
f 24/38/12 26/41/12 25/39/12
f 26/41/13 28/44/13 27/42/13
f 28/44/14 30/47/14 29/45/14
f 30/47/15 32/50/15 31/48/15
f 32/50/16 34/53/16 33/51/16
f 33/51/17 34/53/17 36/56/17
f 36/56/18 38/59/18 37/57/18
f 38/59/19 40/62/19 39/60/19
f 40/62/20 42/65/20 41/63/20
f 42/65/21 44/68/21 43/66/21
f 44/68/22 46/71/22 45/69/22
f 46/71/23 48/74/23 47/72/23
f 48/74/24 50/77/24 49/75/24
f 49/75/25 50/77/25 52/80/25
f 52/80/26 54/83/26 53/81/26
f 54/83/27 56/86/27 55/84/27
f 56/86/28 58/89/28 57/87/28
f 58/89/29 60/92/29 59/90/29
f 60/92/30 62/95/30 61/93/30
f 32/50/31 112/162/31 113/164/31
f 62/95/32 64/98/32 63/96/32
f 64/98/33 2/4/33 1/2/33
f 63/97/34 1/3/34 3/7/34
f 3/7/34 5/10/34 7/13/34
f 7/13/34 9/16/34 11/19/34
f 11/19/34 13/22/34 15/25/34
f 15/25/34 17/28/34 19/31/34
f 19/31/34 21/34/34 23/37/34
f 23/37/34 25/40/34 27/43/34
f 27/43/34 29/46/34 31/49/34
f 31/49/34 33/52/34 35/55/34
f 35/55/34 37/58/34 39/61/34
f 39/61/34 41/64/34 43/67/34
f 43/67/34 45/70/34 47/73/34
f 47/73/34 49/76/34 51/79/34
f 51/79/34 53/82/34 55/85/34
f 55/85/34 57/88/34 59/91/34
f 59/91/34 61/94/34 63/97/34
f 63/97/34 3/7/34 7/13/34
f 7/13/34 11/19/34 15/25/34
f 15/25/34 19/31/34 23/37/34
f 23/37/34 27/43/34 31/49/34
f 31/49/34 35/55/34 39/61/34
f 39/61/34 43/67/34 47/73/34
f 47/73/34 51/79/34 55/85/34
f 55/85/34 59/91/34 63/97/34
f 63/97/34 7/13/34 15/25/34
f 15/25/34 23/37/34 31/49/34
f 31/49/34 39/61/34 47/73/34
f 47/73/34 55/85/34 63/97/34
f 63/97/34 15/25/34 31/49/34
f 83/117/35 147/214/35 148/215/35
f 50/77/36 121/180/36 122/182/36
f 6/11/35 99/136/35 100/138/35
f 24/38/37 108/154/37 109/156/37
f 42/65/38 117/172/38 118/174/38
f 60/92/39 126/190/39 127/192/39
f 16/26/40 104/146/40 105/148/40
f 34/53/41 113/164/41 114/166/41
f 52/80/42 122/182/42 123/184/42
f 8/14/43 100/138/43 101/140/43
f 26/41/44 109/156/44 110/158/44
f 44/68/45 118/174/45 119/176/45
f 62/95/46 127/192/46 128/194/46
f 18/29/47 105/148/47 106/150/47
f 36/56/48 114/166/48 115/168/48
f 54/83/49 123/184/49 124/186/49
f 10/17/50 101/140/50 102/142/50
f 28/44/51 110/158/51 111/160/51
f 46/71/52 119/176/52 120/178/52
f 2/5/53 98/133/53 97/131/53
f 64/98/54 128/194/54 98/134/54
f 20/32/55 106/150/55 107/152/55
f 38/59/56 115/168/56 116/170/56
f 56/86/57 124/186/57 125/188/57
f 12/20/58 102/142/58 103/144/58
f 30/47/59 111/160/59 112/162/59
f 48/74/60 120/178/60 121/180/60
f 4/8/61 97/131/61 99/136/61
f 22/35/62 107/152/62 108/154/62
f 40/62/63 116/170/63 117/172/63
f 58/89/64 125/188/64 126/190/64
f 14/23/65 103/144/65 104/146/65
f 66/100/66 97/132/66 98/135/66
f 67/101/66 99/137/66 97/132/66
f 68/102/66 100/139/66 99/137/66
f 69/103/66 101/141/66 100/139/66
f 70/104/66 102/143/66 101/141/66
f 71/105/66 103/145/66 102/143/66
f 72/106/66 104/147/66 103/145/66
f 73/107/66 105/149/66 104/147/66
f 74/108/66 106/151/66 105/149/66
f 75/109/66 107/153/66 106/151/66
f 76/110/66 108/155/66 107/153/66
f 77/111/66 109/157/66 108/155/66
f 78/112/66 110/159/66 109/157/66
f 79/113/66 111/161/66 110/159/66
f 80/114/66 112/163/66 111/161/66
f 81/115/66 113/165/66 112/163/66
f 82/116/66 114/167/66 113/165/66
f 83/117/66 115/169/66 114/167/66
f 84/118/66 116/171/66 115/169/66
f 85/119/66 117/173/66 116/171/66
f 86/120/66 118/175/66 117/173/66
f 87/121/66 119/177/66 118/175/66
f 88/122/66 120/179/66 119/177/66
f 89/123/66 121/181/66 120/179/66
f 90/124/66 122/183/66 121/181/66
f 91/125/66 123/185/66 122/183/66
f 92/126/66 124/187/66 123/185/66
f 93/127/66 125/189/66 124/187/66
f 94/128/66 126/191/66 125/189/66
f 95/129/66 127/193/66 126/191/66
f 96/130/66 128/195/66 127/193/66
f 65/99/66 98/135/66 128/195/66
f 70/104/45 134/201/45 135/202/45
f 84/118/43 148/215/43 149/216/43
f 71/105/52 135/202/52 136/203/52
f 85/119/50 149/216/50 150/217/50
f 72/106/60 136/203/60 137/204/60
f 86/120/58 150/217/58 151/218/58
f 73/107/36 137/204/36 138/205/36
f 87/121/65 151/218/65 152/219/65
f 74/108/42 138/205/42 139/206/42
f 88/122/40 152/219/40 153/220/40
f 75/109/49 139/206/49 140/207/49
f 89/123/47 153/220/47 154/221/47
f 76/110/57 140/207/57 141/208/57
f 90/124/55 154/221/55 155/222/55
f 77/111/64 141/208/64 142/209/64
f 91/125/62 155/222/62 156/223/62
f 78/112/39 142/209/39 143/210/39
f 65/99/41 129/196/41 130/197/41
f 92/126/37 156/223/37 157/224/37
f 79/113/46 143/210/46 144/211/46
f 66/100/48 130/197/48 131/198/48
f 93/127/44 157/224/44 158/225/44
f 80/114/54 144/211/54 145/212/54
f 67/101/56 131/198/56 132/199/56
f 94/128/51 158/225/51 159/226/51
f 81/115/53 145/212/53 146/213/53
f 68/102/63 132/199/63 133/200/63
f 95/129/59 159/226/59 160/227/59
f 82/116/61 146/213/61 147/214/61
f 69/103/38 133/200/38 134/201/38
f 96/130/31 160/227/31 129/196/31
f 641/785/99 180/247/99 181/248/99
f 164/231/100 638/782/100 173/240/100
f 642/786/101 181/248/101 182/249/101
f 165/232/102 164/231/102 174/241/102
f 165/232/105 175/242/105 176/243/105
f 636/780/106 635/779/106 168/235/106
f 166/233/107 176/243/107 177/244/107
f 162/229/108 636/780/108 169/236/108
f 639/783/109 177/244/109 178/245/109
f 637/781/110 162/229/110 170/237/110
f 640/784/111 167/234/111 178/245/111
f 163/230/112 637/781/112 171/238/112
f 640/784/113 179/246/113 180/247/113
f 638/782/114 163/230/114 172/239/114
f 180/247/115 179/246/115 194/261/115
f 172/239/116 187/254/116 188/255/116
f 180/247/117 195/262/117 196/263/117
f 173/240/118 188/255/118 189/256/118
f 181/248/119 196/263/119 197/264/119
f 174/241/120 189/256/120 190/257/120
f 175/242/123 190/257/123 191/258/123
f 168/235/124 183/250/124 184/251/124
f 176/243/125 191/258/125 192/259/125
f 169/236/126 184/251/126 185/252/126
f 177/244/127 192/259/127 193/260/127
f 170/237/128 185/252/128 186/253/128
f 179/246/129 178/245/129 193/260/129
f 171/238/130 186/253/130 187/254/130
f 184/251/131 183/250/131 198/265/131
f 192/259/132 191/258/132 206/273/132
f 184/251/133 199/266/133 200/267/133
f 192/259/134 207/274/134 208/275/134
f 186/253/135 185/252/135 200/267/135
f 194/261/136 193/260/136 208/275/136
f 186/253/137 201/268/137 202/269/137
f 194/261/138 209/276/138 210/277/138
f 187/254/139 202/269/139 203/270/139
f 196/263/140 195/262/140 210/277/140
f 188/255/141 203/270/141 204/271/141
f 196/263/142 211/278/142 212/279/142
f 189/256/143 204/271/143 205/272/143
f 191/258/146 190/257/146 205/272/146
f 202/269/147 217/284/147 218/285/147
f 211/278/148 210/277/148 225/292/148
f 203/270/149 218/285/149 219/286/149
f 211/278/150 226/293/150 227/294/150
f 205/272/151 204/271/151 219/286/151
f 205/272/154 220/287/154 221/288/154
f 199/266/155 198/265/155 213/280/155
f 206/273/156 221/288/156 222/289/156
f 199/266/157 214/281/157 215/282/157
f 208/275/158 207/274/158 222/289/158
f 200/267/159 215/282/159 216/283/159
f 209/276/160 208/275/160 223/290/160
f 201/268/161 216/283/161 217/284/161
f 210/277/162 209/276/162 224/291/162
f 221/288/163 236/303/163 237/304/163
f 214/281/164 229/296/164 230/297/164
f 222/289/165 237/304/165 238/305/165
f 215/282/166 230/297/166 231/298/166
f 223/290/167 238/305/167 239/306/167
f 217/284/168 216/283/168 231/298/168
f 225/292/169 224/291/169 239/306/169
f 217/284/170 232/299/170 233/300/170
f 226/293/171 225/292/171 240/307/171
f 218/285/172 233/300/172 234/301/172
f 227/294/173 226/293/173 241/308/173
f 220/287/174 219/286/174 234/301/174
f 220/287/177 235/302/177 236/303/177
f 214/281/178 213/280/178 228/295/178
f 241/308/179 240/307/179 256/354/179
f 234/301/180 233/300/180 249/347/180
f 241/308/181 257/355/181 258/356/181
f 234/301/182 250/348/182 251/349/182
f 235/302/185 251/349/185 252/350/185
f 228/295/186 244/342/186 245/343/186
f 236/303/187 252/350/187 253/351/187
f 229/296/188 245/343/188 246/344/188
f 238/305/189 237/304/189 253/351/189
f 230/297/190 246/344/190 247/345/190
f 238/305/191 254/352/191 255/353/191
f 232/299/192 231/298/192 247/345/192
f 239/306/193 255/353/193 256/354/193
f 232/299/194 248/346/194 249/347/194
f 254/352/195 253/351/195 268/366/195
f 246/344/196 261/359/196 262/360/196
f 255/353/197 254/352/197 269/367/197
f 247/345/198 262/360/198 263/361/198
f 255/353/199 270/368/199 271/369/199
f 248/346/200 263/361/200 264/362/200
f 256/354/201 271/369/201 272/370/201
f 250/348/202 249/347/202 264/362/202
f 257/355/203 272/370/203 273/371/203
f 251/349/204 250/348/204 265/363/204
f 251/349/207 266/364/207 267/365/207
f 244/342/208 259/357/208 260/358/208
f 252/350/209 267/365/209 268/366/209
f 245/343/210 260/358/210 261/359/210
f 273/371/211 272/370/211 287/385/211
f 266/364/212 265/363/212 280/378/212
f 266/364/215 281/379/215 282/380/215
f 259/357/216 274/372/216 275/373/216
f 267/365/217 282/380/217 283/381/217
f 260/358/218 275/373/218 276/374/218
f 269/367/219 268/366/219 283/381/219
f 261/359/220 276/374/220 277/375/220
f 269/367/221 284/382/221 285/383/221
f 263/361/222 262/360/222 277/375/222
f 271/369/223 270/368/223 285/383/223
f 263/361/224 278/376/224 279/377/224
f 272/370/225 271/369/225 286/384/225
f 265/363/226 264/362/226 279/377/226
f 276/374/227 291/389/227 292/390/227
f 284/382/228 299/397/228 300/398/228
f 278/376/229 277/375/229 292/390/229
f 285/383/230 300/398/230 301/399/230
f 278/376/231 293/391/231 294/392/231
f 286/384/232 301/399/232 302/400/232
f 280/378/233 279/377/233 294/392/233
f 287/385/234 302/400/234 303/401/234
f 281/379/611 280/378/611 295/393/611
f 281/379/238 296/394/238 297/395/238
f 275/373/239 274/372/239 289/387/239
f 282/380/240 297/395/240 298/396/240
f 276/374/241 275/373/241 290/388/241
f 284/382/242 283/381/242 298/396/242
f 296/394/243 295/393/243 310/408/243
f 296/394/612 311/409/612 312/410/612
f 289/387/247 304/402/247 305/403/247
f 297/395/248 312/410/248 313/411/248
f 290/388/249 305/403/249 306/404/249
f 299/397/250 298/396/250 313/411/250
f 291/389/251 306/404/251 307/405/251
f 299/397/252 314/412/252 315/413/252
f 293/391/253 292/390/253 307/405/253
f 301/399/254 300/398/254 315/413/254
f 293/391/255 308/406/255 309/407/255
f 302/400/256 301/399/256 316/414/256
f 295/393/257 294/392/257 309/407/257
f 302/400/258 317/415/258 318/416/258
f 315/413/259 314/412/259 329/427/259
f 307/405/260 322/420/260 323/421/260
f 316/414/261 315/413/261 330/428/261
f 308/406/262 323/421/262 324/422/262
f 316/414/263 331/429/263 332/430/263
f 309/407/264 324/422/264 325/423/264
f 318/416/265 317/415/265 332/430/265
f 311/409/613 310/408/613 325/423/613
f 311/409/614 326/424/614 327/425/614
f 304/402/270 319/417/270 320/418/270
f 312/410/271 327/425/271 328/426/271
f 306/404/272 305/403/272 320/418/272
f 314/412/273 313/411/273 328/426/273
f 306/404/274 321/419/274 322/420/274
f 326/424/277 341/439/277 342/440/277
f 319/417/278 334/432/278 335/433/278
f 327/425/279 342/440/279 343/441/279
f 320/418/280 335/433/280 336/434/280
f 329/427/281 328/426/281 343/441/281
f 321/419/282 336/434/282 337/435/282
f 329/427/283 344/442/283 345/443/283
f 323/421/284 322/420/284 337/435/284
f 331/429/285 330/428/285 345/443/285
f 323/421/286 338/436/286 339/437/286
f 331/429/287 346/444/287 347/445/287
f 325/423/288 324/422/288 339/437/288
f 332/430/289 347/445/289 348/446/289
f 326/424/290 325/423/290 340/438/290
f 338/436/291 337/435/291 352/450/291
f 346/444/292 345/443/292 360/458/292
f 338/436/293 353/451/293 354/452/293
f 346/444/294 361/459/294 362/460/294
f 340/438/295 339/437/295 354/452/295
f 347/445/296 362/460/296 363/461/296
f 341/439/297 340/438/297 355/453/297
f 341/439/300 356/454/300 357/455/300
f 334/432/301 349/447/301 350/448/301
f 342/440/302 357/455/302 358/456/302
f 336/434/303 335/433/303 350/448/303
f 344/442/304 343/441/304 358/456/304
f 336/434/305 351/449/305 352/450/305
f 344/442/306 359/457/306 360/458/306
f 356/454/307 371/469/307 372/470/307
f 349/447/308 364/462/308 365/463/308
f 357/455/309 372/470/309 373/471/309
f 350/448/310 365/463/310 366/464/310
f 359/457/311 358/456/311 373/471/311
f 351/449/312 366/464/312 367/465/312
f 359/457/313 374/472/313 375/473/313
f 353/451/314 352/450/314 367/465/314
f 361/459/315 360/458/315 375/473/315
f 353/451/316 368/466/316 369/467/316
f 362/460/317 361/459/317 376/474/317
f 355/453/318 354/452/318 369/467/318
f 362/460/319 377/475/319 378/476/319
f 356/454/320 355/453/320 370/468/320
f 375/473/323 390/488/323 391/489/323
f 368/466/324 383/481/324 384/482/324
f 376/474/325 391/489/325 392/490/325
f 370/468/326 369/467/326 384/482/326
f 377/475/327 392/490/327 393/491/327
f 371/469/328 370/468/328 385/483/328
f 371/469/331 386/484/331 387/485/331
f 364/462/332 379/477/332 380/478/332
f 372/470/333 387/485/333 388/486/333
f 366/464/334 365/463/334 380/478/334
f 374/472/335 373/471/335 388/486/335
f 367/465/336 366/464/336 381/479/336
f 374/472/337 389/487/337 390/488/337
f 368/466/338 367/465/338 382/480/338
f 387/485/339 402/500/339 403/501/339
f 381/479/340 380/478/340 395/493/340
f 389/487/341 388/486/341 403/501/341
f 381/479/342 396/494/342 397/495/342
f 390/488/343 389/487/343 404/502/343
f 383/481/344 382/480/344 397/495/344
f 391/489/345 390/488/345 405/503/345
f 383/481/346 398/496/346 399/497/346
f 392/490/347 391/489/347 406/504/347
f 385/483/348 384/482/348 399/497/348
f 392/490/349 407/505/349 408/506/349
f 386/484/615 385/483/615 400/498/615
f 386/484/616 401/499/616 402/500/616
f 380/478/354 379/477/354 394/492/354
f 407/505/355 406/504/355 421/519/355
f 400/498/356 399/497/356 414/512/356
f 408/506/357 407/505/357 422/520/357
f 401/499/358 400/498/358 415/513/358
f 401/499/361 416/514/361 417/515/361
f 394/492/617 409/507/617 410/508/617
f 402/500/363 417/515/363 418/516/363
f 395/493/364 410/508/364 411/509/364
f 404/502/365 403/501/365 418/516/365
f 396/494/366 411/509/366 412/510/366
f 404/502/367 419/517/367 420/518/367
f 398/496/368 397/495/368 412/510/368
f 406/504/369 405/503/369 420/518/369
f 398/496/370 413/511/370 414/512/370
f 411/509/371 410/508/371 425/523/371
f 419/517/372 418/516/372 433/531/372
f 411/509/373 426/524/373 427/525/373
f 420/518/374 419/517/374 434/532/374
f 412/510/375 427/525/375 428/526/375
f 421/519/376 420/518/376 435/533/376
f 413/511/377 428/526/377 429/527/377
f 421/519/378 436/534/378 437/535/378
f 415/513/379 414/512/379 429/527/379
f 422/520/380 437/535/380 438/536/380
f 416/514/381 415/513/381 430/528/381
f 416/514/384 431/529/384 432/530/384
f 410/508/385 409/507/385 424/522/385
f 417/515/386 432/530/386 433/531/386
f 430/528/387 429/527/387 444/542/387
f 437/535/388 452/550/388 453/551/388
f 431/529/389 430/528/389 445/543/389
f 431/529/618 446/544/618 447/545/618
f 424/522/393 439/537/393 440/538/393
f 432/530/394 447/545/394 448/546/394
f 426/524/395 425/523/395 440/538/395
f 434/532/396 433/531/396 448/546/396
f 426/524/397 441/539/397 442/540/397
f 434/532/398 449/547/398 450/548/398
f 428/526/399 427/525/399 442/540/399
f 436/534/400 435/533/400 450/548/400
f 428/526/401 443/541/401 444/542/401
f 436/534/402 451/549/402 452/550/402
f 449/547/403 448/546/403 463/561/403
f 441/539/404 456/554/404 457/555/404
f 449/547/405 464/562/405 465/563/405
f 443/541/406 442/540/406 457/555/406
f 451/549/407 450/548/407 465/563/407
f 443/541/408 458/556/408 459/557/408
f 452/550/409 451/549/409 466/564/409
f 445/543/410 444/542/410 459/557/410
f 453/551/411 452/550/411 467/565/411
f 446/544/619 445/543/619 460/558/619
f 446/544/620 461/559/620 462/560/620
f 439/537/416 454/552/416 455/553/416
f 447/545/417 462/560/417 463/561/417
f 440/538/418 455/553/418 456/554/418
f 467/565/419 483/612/419 484/613/419
f 461/559/420 460/558/420 476/605/420
f 461/559/423 477/606/423 478/607/423
f 454/552/424 470/599/424 471/600/424
f 462/560/425 478/607/425 479/608/425
f 455/553/426 471/600/426 472/601/426
f 464/562/427 463/561/427 479/608/427
f 456/554/428 472/601/428 473/602/428
f 464/562/429 480/609/429 481/610/429
f 458/556/430 457/555/430 473/602/430
f 466/564/431 465/563/431 481/610/431
f 458/556/432 474/603/432 475/604/432
f 466/564/433 482/611/433 483/612/433
f 460/558/434 459/557/434 475/604/434
f 472/601/435 487/616/435 488/617/435
f 480/609/436 495/624/436 496/625/436
f 474/603/437 473/602/437 488/617/437
f 482/611/438 481/610/438 496/625/438
f 474/603/439 489/618/439 490/619/439
f 482/611/440 497/626/440 498/627/440
f 476/605/441 475/604/441 490/619/441
f 483/612/442 498/627/442 499/628/442
f 477/606/443 476/605/443 491/620/443
f 477/606/446 492/621/446 493/622/446
f 471/600/447 470/599/447 485/614/447
f 478/607/448 493/622/448 494/623/448
f 472/601/449 471/600/449 486/615/449
f 480/609/450 479/608/450 494/623/450
f 492/621/451 491/620/451 506/635/451
f 492/621/454 507/636/454 508/637/454
f 485/614/455 500/629/455 501/630/455
f 493/622/456 508/637/456 509/638/456
f 486/615/457 501/630/457 502/631/457
f 495/624/458 494/623/458 509/638/458
f 487/616/459 502/631/459 503/632/459
f 495/624/460 510/639/460 511/640/460
f 489/618/461 488/617/461 503/632/461
f 497/626/462 496/625/462 511/640/462
f 489/618/463 504/633/463 505/634/463
f 498/627/464 497/626/464 512/641/464
f 491/620/465 490/619/465 505/634/465
f 499/628/466 498/627/466 513/642/466
f 510/639/467 525/664/467 526/666/467
f 504/633/468 503/632/468 518/650/468
f 512/641/469 511/640/469 526/666/469
f 504/633/470 519/652/470 520/654/470
f 512/641/471 527/668/471 528/670/471
f 506/635/472 505/634/472 520/654/472
f 513/642/473 528/670/473 529/672/473
f 507/636/474 506/635/474 521/656/474
f 507/636/477 522/658/477 523/660/477
f 501/630/478 500/629/478 515/644/478
f 508/637/479 523/660/479 524/662/479
f 502/631/480 501/630/480 516/646/480
f 510/639/481 509/638/481 524/662/481
f 502/631/482 517/648/482 518/650/482
f 522/659/621 537/681/621 538/682/621
f 515/645/485 530/674/485 531/675/485
f 523/661/486 538/682/486 539/683/486
f 516/647/487 531/675/487 532/676/487
f 525/665/488 524/663/488 539/683/488
f 517/649/489 532/676/489 533/677/489
f 526/667/490 525/665/490 540/684/490
f 518/651/622 533/677/622 534/678/622
f 527/669/492 526/667/492 541/685/492
f 519/653/493 534/678/493 535/679/493
f 528/671/494 527/669/494 542/686/494
f 521/657/495 520/655/495 535/679/495
f 529/673/496 528/671/496 543/687/496
f 522/659/623 521/657/623 536/680/623
f 542/686/499 541/685/499 556/700/499
f 534/678/500 549/693/500 550/694/500
f 543/687/501 542/686/501 557/701/501
f 536/680/502 535/679/502 550/694/502
f 544/688/503 543/687/503 558/702/503
f 537/681/624 536/680/624 551/695/624
f 537/681/625 552/696/625 553/697/625
f 530/674/508 545/689/508 546/690/508
f 538/682/509 553/697/509 554/698/509
f 531/675/510 546/690/510 547/691/510
f 540/684/511 539/683/511 554/698/511
f 532/676/512 547/691/512 548/692/512
f 540/684/513 555/699/513 556/700/513
f 534/678/514 533/677/514 548/692/514
f 546/690/515 545/689/515 560/704/515
f 553/697/516 568/712/516 569/713/516
f 546/690/517 561/705/517 562/706/517
f 555/699/518 554/698/518 569/713/518
f 547/691/519 562/706/519 563/707/519
f 555/699/520 570/714/520 571/715/520
f 549/693/521 548/692/521 563/707/521
f 557/701/522 556/700/522 571/715/522
f 549/693/523 564/708/523 565/709/523
f 558/702/524 557/701/524 572/716/524
f 551/695/525 550/694/525 565/709/525
f 558/702/526 573/717/526 574/718/526
f 552/696/626 551/695/626 566/710/626
f 552/696/627 567/711/627 568/712/627
f 564/708/531 579/723/531 580/724/531
f 572/716/532 587/731/532 588/732/532
f 566/710/533 565/709/533 580/724/533
f 574/718/534 573/717/534 588/732/534
f 567/711/628 566/710/628 581/725/628
f 567/711/629 582/726/629 583/727/629
f 560/704/539 575/719/539 576/720/539
f 568/712/540 583/727/540 584/728/540
f 561/705/541 576/720/541 577/721/541
f 570/714/542 569/713/542 584/728/542
f 562/706/543 577/721/543 578/722/543
f 571/715/544 570/714/544 585/729/544
f 563/707/545 578/722/545 579/723/545
f 572/716/546 571/715/546 586/730/546
f 583/727/547 598/742/547 599/743/547
f 577/721/548 576/720/548 591/735/548
f 585/729/549 584/728/549 599/743/549
f 577/721/550 592/736/550 593/737/550
f 585/729/551 600/744/551 601/745/551
f 579/723/552 578/722/552 593/737/552
f 587/731/553 586/730/553 601/745/553
f 579/723/554 594/738/554 595/739/554
f 587/731/555 602/746/555 603/747/555
f 581/725/556 580/724/556 595/739/556
f 588/732/557 603/747/557 604/748/557
f 582/726/630 581/725/630 596/740/630
f 582/726/631 597/741/631 598/742/631
f 576/720/562 575/719/562 590/734/562
f 602/746/563 617/761/563 618/762/563
f 596/740/564 595/739/564 610/754/564
f 604/748/565 603/747/565 618/762/565
f 597/741/566 596/740/566 611/755/566
f 597/741/569 612/756/569 613/757/569
f 590/734/570 605/749/570 606/750/570
f 598/742/571 613/757/571 614/758/571
f 592/736/572 591/735/572 606/750/572
f 600/744/573 599/743/573 614/758/573
f 592/736/574 607/751/574 608/752/574
f 600/744/575 615/759/575 616/760/575
f 593/737/576 608/752/576 609/753/576
f 602/746/577 601/745/577 616/760/577
f 594/738/578 609/753/578 610/754/578
f 607/751/579 606/750/579 621/765/579
f 615/759/580 614/758/580 629/773/580
f 607/751/581 622/766/581 623/767/581
f 616/760/582 615/759/582 630/774/582
f 609/753/583 608/752/583 623/767/583
f 617/761/584 616/760/584 631/775/584
f 609/753/585 624/768/585 625/769/585
f 618/762/586 617/761/586 632/776/586
f 611/755/587 610/754/587 625/769/587
f 619/763/588 618/762/588 633/777/588
f 612/756/589 611/755/589 626/770/589
f 612/756/592 627/771/592 628/772/592
f 605/749/593 620/764/593 621/765/593
f 613/757/594 628/772/594 629/773/594
f 626/770/595 625/769/595 638/782/595
f 633/777/596 642/786/596 643/787/596
f 627/771/632 626/770/632 164/231/632
f 627/771/633 165/232/633 166/233/633
f 621/765/601 620/764/601 635/779/601
f 628/772/602 166/233/602 639/783/602
f 622/766/603 621/765/603 636/780/603
f 629/773/604 639/783/604 167/234/604
f 623/767/605 622/766/605 162/229/605
f 630/774/606 167/234/606 640/784/606
f 624/768/607 623/767/607 637/781/607
f 632/776/608 631/775/608 640/784/608
f 625/769/609 624/768/609 163/230/609
f 632/776/610 641/785/610 642/786/610
