# Blender 3.3.1
# www.blender.org
o chai
v 0.335704 0.304573 0.042371
v 0.335704 1.793664 -0.125281
v 0.371099 0.304573 0.045857
v 0.403807 1.793664 -0.118573
v 0.405135 0.304573 0.056182
v 0.469292 1.793664 -0.098708
v 0.436502 0.304573 0.072948
v 0.529644 1.793664 -0.066449
v 0.463995 0.304573 0.095511
v 0.582543 1.793664 -0.023036
v 0.486559 0.304573 0.123005
v 0.625956 1.793664 0.029862
v 0.503325 0.304573 0.154372
v 0.658215 1.793664 0.090214
v 0.513649 0.304573 0.188407
v 0.678079 1.793664 0.155700
v 0.517135 0.304573 0.223803
v 0.684787 1.793664 0.223803
v 0.513649 0.304573 0.259198
v 0.678079 1.793664 0.291905
v 0.503325 0.304573 0.293233
v 0.658215 1.793664 0.357391
v 0.486559 0.304573 0.324600
v 0.625956 1.793664 0.417743
v 0.463995 0.304573 0.352094
v 0.582543 1.793664 0.470642
v 0.436502 0.304573 0.374657
v 0.529644 1.793664 0.514055
v 0.405135 0.304573 0.391423
v 0.469292 1.793664 0.546313
v 0.371099 0.304573 0.401748
v 0.403807 1.793664 0.566178
v 0.335704 0.304573 0.405234
v 0.335704 1.793664 0.572886
v 0.300308 0.304573 0.401748
v 0.267601 1.793664 0.566178
v 0.266273 0.304573 0.391423
v 0.202116 1.793664 0.546313
v 0.234906 0.304573 0.374657
v 0.141764 1.793664 0.514055
v 0.207413 0.304573 0.352094
v 0.088865 1.793664 0.470642
v 0.184849 0.304573 0.324600
v 0.045452 1.793664 0.417743
v 0.168083 0.304573 0.293233
v 0.013193 1.793664 0.357391
v 0.157759 0.304573 0.259198
v -0.006672 1.793664 0.291905
v 0.154273 0.304573 0.223803
v -0.013379 1.793664 0.223803
v 0.157759 0.304573 0.188407
v -0.006672 1.793664 0.155700
v 0.168083 0.304573 0.154372
v 0.013193 1.793664 0.090214
v 0.184849 0.304573 0.123005
v 0.045452 1.793664 0.029862
v 0.207413 0.304573 0.095511
v 0.088865 1.793664 -0.023036
v 0.234906 0.304573 0.072948
v 0.141764 1.793664 -0.066449
v 0.266273 0.304573 0.056182
v 0.202116 1.793664 -0.098708
v 0.300308 0.304573 0.045857
v 0.267601 1.793664 -0.118573
v 0.335704 0.264271 -0.125281
v 0.403807 0.264271 -0.118573
v 0.469292 0.264271 -0.098708
v 0.529644 0.264271 -0.066449
v 0.582543 0.264271 -0.023036
v 0.625956 0.264271 0.029862
v 0.658215 0.264271 0.090214
v 0.678079 0.264271 0.155700
v 0.684787 0.264271 0.223803
v 0.678079 0.264271 0.291905
v 0.658215 0.264271 0.357391
v 0.625956 0.264271 0.417743
v 0.582543 0.264271 0.470642
v 0.529644 0.264271 0.514055
v 0.469292 0.264271 0.546313
v 0.403807 0.264271 0.566178
v 0.335704 0.264271 0.572886
v 0.267601 0.264271 0.566178
v 0.202116 0.264271 0.546313
v 0.141764 0.264271 0.514055
v 0.088865 0.264271 0.470642
v 0.045452 0.264271 0.417743
v 0.013193 0.264271 0.357391
v -0.006672 0.264271 0.291905
v -0.013379 0.264271 0.223803
v -0.006672 0.264271 0.155700
v 0.013193 0.264271 0.090214
v 0.045452 0.264271 0.029862
v 0.088865 0.264271 -0.023036
v 0.141764 0.264271 -0.066449
v 0.202116 0.264271 -0.098708
v 0.267601 0.264271 -0.118573
v 0.335704 0.264271 -0.028706
v 0.384966 0.264271 -0.023854
v 0.432335 0.264271 -0.009485
v 0.475990 0.264271 0.013849
v 0.514255 0.264271 0.045252
v 0.545657 0.264271 0.083516
v 0.568992 0.264271 0.127172
v 0.583361 0.264271 0.174541
v 0.588213 0.264271 0.223803
v 0.583361 0.264271 0.273065
v 0.568992 0.264271 0.320434
v 0.545657 0.264271 0.364089
v 0.514255 0.264271 0.402353
v 0.475990 0.264271 0.433756
v 0.432335 0.264271 0.457090
v 0.384966 0.264271 0.471460
v 0.335704 0.264271 0.476312
v 0.286442 0.264271 0.471460
v 0.239073 0.264271 0.457090
v 0.195417 0.264271 0.433756
v 0.157153 0.264271 0.402353
v 0.125750 0.264271 0.364089
v 0.102416 0.264271 0.320434
v 0.088047 0.264271 0.273065
v 0.083195 0.264271 0.223803
v 0.088047 0.264271 0.174541
v 0.102416 0.264271 0.127172
v 0.125750 0.264271 0.083516
v 0.157153 0.264271 0.045252
v 0.195417 0.264271 0.013849
v 0.239073 0.264271 -0.009485
v 0.286442 0.264271 -0.023854
v 0.335553 2.197699 0.030040
v 0.335553 2.065345 -0.065968
v 0.335553 1.892415 -0.117927
v 0.335553 1.798826 -0.124613
v 0.335553 1.705237 -0.117927
v 0.335553 1.532307 -0.065968
v 0.361532 2.238797 0.092760
v 0.373269 2.197699 0.033755
v 0.383557 2.138040 -0.017964
v 0.391999 2.065345 -0.060408
v 0.398273 1.982407 -0.091947
v 0.402136 1.892415 -0.111369
v 0.403440 1.798826 -0.117927
v 0.402136 1.705237 -0.111369
v 0.398273 1.615245 -0.091947
v 0.391999 1.532307 -0.060408
v 0.383557 1.459612 -0.017964
v 0.373269 1.399953 0.033755
v 0.361532 1.355622 0.092760
v 0.348797 1.328323 0.156785
v 0.386513 2.238797 0.100338
v 0.409536 2.197699 0.044756
v 0.429716 2.138040 -0.003962
v 0.446277 2.065345 -0.043943
v 0.458583 1.982407 -0.073653
v 0.466161 1.892415 -0.091947
v 0.468719 1.798826 -0.098125
v 0.466161 1.705237 -0.091947
v 0.458583 1.615245 -0.073653
v 0.446277 1.532307 -0.043943
v 0.429716 1.459612 -0.003962
v 0.409536 1.399953 0.044756
v 0.386513 1.355622 0.100338
v 0.361532 1.328323 0.160648
v 0.409536 2.238797 0.112644
v 0.442960 2.197699 0.062622
v 0.472256 2.138040 0.018777
v 0.496299 2.065345 -0.017206
v 0.514165 1.982407 -0.043943
v 0.525166 1.892415 -0.060408
v 0.528881 1.798826 -0.065968
v 0.525166 1.705237 -0.060408
v 0.514165 1.615245 -0.043943
v 0.496299 1.532307 -0.017206
v 0.472256 1.459612 0.018777
v 0.442960 1.399953 0.062622
v 0.409536 1.355622 0.112644
v 0.373269 1.328323 0.166922
v 0.429716 2.238797 0.129205
v 0.472256 2.197699 0.086665
v 0.509543 2.138040 0.049377
v 0.540144 2.065345 0.018777
v 0.562882 1.982407 -0.003962
v 0.576885 1.892415 -0.017964
v 0.581613 1.798826 -0.022692
v 0.576885 1.705237 -0.017964
v 0.562882 1.615245 -0.003962
v 0.540144 1.532307 0.018777
v 0.509543 1.459612 0.049377
v 0.472256 1.399953 0.086665
v 0.429716 1.355622 0.129205
v 0.383557 1.328323 0.175364
v 0.446277 2.238797 0.149385
v 0.496299 2.197699 0.115961
v 0.540144 2.138040 0.086665
v 0.576127 2.065345 0.062622
v 0.602864 1.982407 0.044756
v 0.619329 1.892415 0.033755
v 0.624889 1.798826 0.030040
v 0.619329 1.705237 0.033755
v 0.602864 1.615245 0.044756
v 0.576127 1.532307 0.062622
v 0.540144 1.459612 0.086665
v 0.496299 1.399953 0.115961
v 0.446277 1.355622 0.149385
v 0.391999 1.328323 0.185652
v 0.458583 2.238797 0.172408
v 0.514165 2.197699 0.149385
v 0.562883 2.138040 0.129205
v 0.602864 2.065345 0.112644
v 0.632574 1.982407 0.100338
v 0.650868 1.892415 0.092760
v 0.657046 1.798826 0.090202
v 0.650868 1.705237 0.092760
v 0.632574 1.615245 0.100338
v 0.602864 1.532307 0.112644
v 0.562883 1.459612 0.129205
v 0.514165 1.399953 0.149385
v 0.458583 1.355622 0.172408
v 0.398273 1.328323 0.197389
v 0.466161 2.238797 0.197389
v 0.525166 2.197699 0.185652
v 0.576885 2.138040 0.175364
v 0.619329 2.065345 0.166922
v 0.650868 1.982407 0.160648
v 0.670290 1.892415 0.156785
v 0.676848 1.798826 0.155481
v 0.670290 1.705237 0.156785
v 0.650868 1.615245 0.160648
v 0.619329 1.532307 0.166922
v 0.576885 1.459612 0.175364
v 0.525166 1.399953 0.185652
v 0.466161 1.355622 0.197389
v 0.402136 1.328323 0.210124
v 0.468719 2.238797 0.223368
v 0.528881 2.197699 0.223368
v 0.581613 2.138040 0.223368
v 0.624889 2.065345 0.223368
v 0.657046 1.982407 0.223368
v 0.676848 1.892415 0.223368
v 0.683534 1.798826 0.223368
v 0.676848 1.705237 0.223368
v 0.657046 1.615245 0.223368
v 0.624889 1.532307 0.223368
v 0.581613 1.459612 0.223368
v 0.528881 1.399953 0.223368
v 0.468719 1.355622 0.223368
v 0.403440 1.328323 0.223368
v 0.466161 2.238797 0.249348
v 0.525166 2.197699 0.261085
v 0.576885 2.138040 0.271372
v 0.619329 2.065345 0.279815
v 0.650868 1.982407 0.286089
v 0.670290 1.892415 0.289952
v 0.676848 1.798826 0.291256
v 0.670290 1.705237 0.289952
v 0.650868 1.615245 0.286089
v 0.619329 1.532307 0.279815
v 0.576885 1.459612 0.271372
v 0.525166 1.399953 0.261085
v 0.466161 1.355622 0.249348
v 0.402136 1.328323 0.236613
v 0.458583 2.238797 0.274329
v 0.514165 2.197699 0.297352
v 0.562882 2.138040 0.317531
v 0.602864 2.065345 0.334092
v 0.632574 1.982407 0.346398
v 0.650868 1.892415 0.353976
v 0.657046 1.798826 0.356535
v 0.650868 1.705237 0.353976
v 0.632574 1.615245 0.346398
v 0.602864 1.532307 0.334092
v 0.562882 1.459612 0.317531
v 0.514165 1.399953 0.297352
v 0.458583 1.355622 0.274329
v 0.398273 1.328323 0.249348
v 0.446277 2.238797 0.297352
v 0.496299 2.197699 0.330776
v 0.540144 2.138040 0.360072
v 0.576127 2.065345 0.384115
v 0.602864 1.982407 0.401980
v 0.619329 1.892415 0.412982
v 0.624889 1.798826 0.416697
v 0.619329 1.705237 0.412982
v 0.602864 1.615245 0.401980
v 0.576127 1.532307 0.384115
v 0.540144 1.459612 0.360072
v 0.496299 1.399953 0.330776
v 0.446277 1.355622 0.297352
v 0.391999 1.328323 0.261085
v 0.429716 2.238797 0.317531
v 0.472256 2.197699 0.360072
v 0.509543 2.138040 0.397359
v 0.540144 2.065345 0.427960
v 0.562882 1.982407 0.450698
v 0.576885 1.892415 0.464701
v 0.581613 1.798826 0.469429
v 0.576885 1.705237 0.464701
v 0.562882 1.615245 0.450698
v 0.540144 1.532307 0.427960
v 0.509543 1.459612 0.397359
v 0.472256 1.399953 0.360072
v 0.429716 1.355622 0.317531
v 0.383557 1.328323 0.271372
v 0.409536 2.238797 0.334092
v 0.442960 2.197699 0.384115
v 0.472256 2.138040 0.427960
v 0.496299 2.065345 0.463943
v 0.514165 1.982407 0.490680
v 0.525166 1.892415 0.507145
v 0.528881 1.798826 0.512704
v 0.525166 1.705237 0.507145
v 0.514165 1.615245 0.490680
v 0.496299 1.532307 0.463943
v 0.472256 1.459612 0.427960
v 0.442960 1.399953 0.384115
v 0.409536 1.355622 0.334092
v 0.373269 1.328323 0.279815
v 0.386513 2.238797 0.346398
v 0.409536 2.197699 0.401980
v 0.429716 2.138040 0.450698
v 0.446277 2.065345 0.490680
v 0.458583 1.982407 0.520389
v 0.466161 1.892415 0.538684
v 0.468719 1.798826 0.544861
v 0.466161 1.705237 0.538684
v 0.458583 1.615245 0.520389
v 0.446277 1.532307 0.490680
v 0.429716 1.459612 0.450698
v 0.409536 1.399953 0.401980
v 0.386513 1.355622 0.346398
v 0.361532 1.328323 0.286088
v 0.361532 2.238797 0.353976
v 0.373269 2.197699 0.412982
v 0.383557 2.138040 0.464701
v 0.391999 2.065345 0.507145
v 0.398273 1.982407 0.538684
v 0.402136 1.892415 0.558106
v 0.403440 1.798826 0.564664
v 0.402136 1.705237 0.558106
v 0.398273 1.615245 0.538684
v 0.391999 1.532307 0.507145
v 0.383557 1.459612 0.464701
v 0.373269 1.399953 0.412982
v 0.361532 1.355622 0.353976
v 0.348797 1.328323 0.289952
v 0.335553 2.238797 0.356535
v 0.335553 2.197699 0.416697
v 0.335553 2.138040 0.469429
v 0.335553 2.065345 0.512704
v 0.335553 1.982407 0.544861
v 0.335553 1.892415 0.564664
v 0.335552 1.798826 0.571350
v 0.335553 1.705237 0.564664
v 0.335553 1.615245 0.544861
v 0.335553 1.532307 0.512704
v 0.335553 1.459612 0.469429
v 0.335553 1.399953 0.416697
v 0.335553 1.355622 0.356535
v 0.335553 1.328323 0.291256
v 0.309573 2.238797 0.353976
v 0.297836 2.197699 0.412982
v 0.287549 2.138040 0.464701
v 0.279106 2.065345 0.507145
v 0.272832 1.982407 0.538684
v 0.268969 1.892415 0.558106
v 0.267665 1.798826 0.564663
v 0.268969 1.705237 0.558106
v 0.272832 1.615245 0.538684
v 0.279106 1.532307 0.507145
v 0.287549 1.459612 0.464701
v 0.297836 1.399953 0.412982
v 0.309573 1.355622 0.353976
v 0.322308 1.328323 0.289952
v 0.284592 2.238797 0.346398
v 0.261569 2.197699 0.401980
v 0.241389 2.138040 0.450698
v 0.224828 2.065345 0.490680
v 0.212523 1.982407 0.520389
v 0.204945 1.892415 0.538684
v 0.202386 1.798826 0.544861
v 0.204945 1.705237 0.538684
v 0.212523 1.615245 0.520389
v 0.224828 1.532307 0.490680
v 0.241389 1.459612 0.450698
v 0.261569 1.399953 0.401980
v 0.284592 1.355622 0.346398
v 0.309573 1.328323 0.286088
v 0.261569 2.238797 0.334092
v 0.228145 2.197699 0.384115
v 0.198849 2.138040 0.427960
v 0.174806 2.065345 0.463942
v 0.156941 1.982407 0.490680
v 0.145939 1.892415 0.507145
v 0.142224 1.798826 0.512704
v 0.145939 1.705237 0.507145
v 0.156941 1.615245 0.490680
v 0.174806 1.532307 0.463942
v 0.198849 1.459612 0.427960
v 0.228145 1.399953 0.384115
v 0.261569 1.355622 0.334092
v 0.297836 1.328323 0.279815
v 0.241389 2.238797 0.317531
v 0.198849 2.197699 0.360072
v 0.161562 2.138040 0.397359
v 0.130961 2.065345 0.427960
v 0.108223 1.982407 0.450698
v 0.094220 1.892415 0.464700
v 0.089492 1.798826 0.469428
v 0.094220 1.705237 0.464700
v 0.108223 1.615245 0.450698
v 0.130961 1.532307 0.427960
v 0.161562 1.459612 0.397359
v 0.198849 1.399953 0.360072
v 0.241389 1.355622 0.317531
v 0.287549 1.328323 0.271372
v 0.335553 1.319105 0.223368
v 0.224828 2.238797 0.297352
v 0.174806 2.197699 0.330776
v 0.130961 2.138040 0.360072
v 0.094978 2.065345 0.384115
v 0.068241 1.982407 0.401980
v 0.051776 1.892415 0.412982
v 0.046217 1.798826 0.416696
v 0.051776 1.705237 0.412982
v 0.068241 1.615245 0.401980
v 0.094978 1.532307 0.384115
v 0.130961 1.459612 0.360072
v 0.174806 1.399953 0.330776
v 0.224828 1.355622 0.297352
v 0.279106 1.328323 0.261085
v 0.212523 2.238797 0.274329
v 0.156941 2.197699 0.297352
v 0.108223 2.138040 0.317531
v 0.068241 2.065345 0.334092
v 0.038532 1.982407 0.346398
v 0.020237 1.892415 0.353976
v 0.014060 1.798826 0.356535
v 0.020237 1.705237 0.353976
v 0.038532 1.615245 0.346398
v 0.068241 1.532307 0.334092
v 0.108223 1.459612 0.317531
v 0.156941 1.399953 0.297352
v 0.212523 1.355622 0.274329
v 0.272832 1.328323 0.249348
v 0.204945 2.238797 0.249348
v 0.145939 2.197699 0.261085
v 0.094220 2.138040 0.271372
v 0.051776 2.065345 0.279815
v 0.020237 1.982407 0.286088
v 0.000815 1.892415 0.289952
v -0.005742 1.798826 0.291256
v 0.000815 1.705237 0.289952
v 0.020237 1.615245 0.286088
v 0.051776 1.532307 0.279815
v 0.094220 1.459612 0.271372
v 0.145939 1.399953 0.261085
v 0.204945 1.355622 0.249348
v 0.268969 1.328323 0.236613
v 0.202386 2.238797 0.223368
v 0.142224 2.197699 0.223368
v 0.089492 2.138040 0.223368
v 0.046217 2.065345 0.223368
v 0.014060 1.982407 0.223368
v -0.005743 1.892415 0.223368
v -0.012429 1.798826 0.223368
v -0.005743 1.705237 0.223368
v 0.014060 1.615245 0.223368
v 0.046217 1.532307 0.223368
v 0.089492 1.459612 0.223368
v 0.142224 1.399953 0.223368
v 0.202386 1.355622 0.223368
v 0.267665 1.328323 0.223368
v 0.204945 2.238797 0.197389
v 0.145939 2.197699 0.185652
v 0.094220 2.138040 0.175364
v 0.051776 2.065345 0.166922
v 0.020237 1.982407 0.160648
v 0.000815 1.892415 0.156785
v -0.005742 1.798826 0.155480
v 0.000815 1.705237 0.156785
v 0.020237 1.615245 0.160648
v 0.051776 1.532307 0.166922
v 0.094220 1.459612 0.175364
v 0.145939 1.399953 0.185652
v 0.204945 1.355622 0.197389
v 0.268969 1.328323 0.210124
v 0.212523 2.238797 0.172408
v 0.156941 2.197699 0.149385
v 0.108223 2.138040 0.129205
v 0.068241 2.065345 0.112644
v 0.038532 1.982407 0.100338
v 0.020237 1.892415 0.092760
v 0.014060 1.798826 0.090201
v 0.020237 1.705237 0.092760
v 0.038532 1.615245 0.100338
v 0.068241 1.532307 0.112644
v 0.108223 1.459612 0.129205
v 0.156941 1.399953 0.149385
v 0.212523 1.355622 0.172408
v 0.272832 1.328323 0.197389
v 0.224828 2.238797 0.149385
v 0.174806 2.197699 0.115961
v 0.130961 2.138040 0.086665
v 0.094979 2.065345 0.062622
v 0.068241 1.982407 0.044756
v 0.051776 1.892415 0.033755
v 0.046217 1.798826 0.030040
v 0.051776 1.705237 0.033755
v 0.068241 1.615245 0.044756
v 0.094979 1.532307 0.062622
v 0.130961 1.459612 0.086665
v 0.174806 1.399953 0.115961
v 0.224828 1.355622 0.149385
v 0.279106 1.328323 0.185652
v 0.241389 2.238797 0.129205
v 0.198849 2.197699 0.086665
v 0.161562 2.138040 0.049378
v 0.130961 2.065345 0.018777
v 0.108223 1.982407 -0.003962
v 0.094221 1.892415 -0.017964
v 0.089493 1.798826 -0.022692
v 0.094221 1.705237 -0.017964
v 0.108223 1.615245 -0.003962
v 0.130961 1.532307 0.018777
v 0.161562 1.459612 0.049378
v 0.198849 1.399953 0.086665
v 0.241389 1.355622 0.129205
v 0.287549 1.328323 0.175364
v 0.261569 2.238797 0.112644
v 0.228145 2.197699 0.062622
v 0.198849 2.138040 0.018777
v 0.174806 2.065345 -0.017206
v 0.156941 1.982407 -0.043943
v 0.145939 1.892415 -0.060408
v 0.142225 1.798826 -0.065968
v 0.145939 1.705237 -0.060408
v 0.156941 1.615245 -0.043943
v 0.174806 1.532307 -0.017206
v 0.198849 1.459612 0.018777
v 0.228145 1.399953 0.062622
v 0.261569 1.355622 0.112644
v 0.297836 1.328323 0.166922
v 0.284592 2.238797 0.100338
v 0.261569 2.197699 0.044756
v 0.241389 2.138040 -0.003962
v 0.224829 2.065345 -0.043943
v 0.212523 1.982407 -0.073652
v 0.204945 1.892415 -0.091947
v 0.202386 1.798826 -0.098124
v 0.204945 1.705237 -0.091947
v 0.212523 1.615245 -0.073652
v 0.224829 1.532307 -0.043943
v 0.241389 1.459612 -0.003962
v 0.261569 1.399953 0.044756
v 0.284592 1.355622 0.100338
v 0.309573 1.328323 0.160648
v 0.309573 2.238797 0.092760
v 0.297836 2.197699 0.033755
v 0.287549 2.138040 -0.017964
v 0.279106 2.065345 -0.060408
v 0.272832 1.982407 -0.091947
v 0.268969 1.892415 -0.111369
v 0.267665 1.798826 -0.117927
v 0.268969 1.705237 -0.111369
v 0.272832 1.615245 -0.091947
v 0.279106 1.532307 -0.060408
v 0.287549 1.459612 -0.017964
v 0.297836 1.399953 0.033755
v 0.309573 1.355622 0.092760
v 0.322308 1.328323 0.156785
v 0.335553 2.238797 0.090202
v 0.335553 2.138040 -0.022692
v 0.335553 1.982407 -0.098125
v 0.335553 1.615245 -0.098125
v 0.335553 1.459612 -0.022692
v 0.335553 1.399953 0.030040
v 0.335553 1.355622 0.090202
v 0.335553 1.328323 0.155481
v 0.354077 2.238797 0.130237
v 0.371891 2.238797 0.135641
v 0.388307 2.238797 0.144416
v 0.402696 2.238797 0.156225
v 0.414505 2.238797 0.170614
v 0.423280 2.238797 0.187030
v 0.428684 2.238797 0.204843
v 0.430508 2.238797 0.223368
v 0.428684 2.238797 0.241893
v 0.423280 2.238797 0.259706
v 0.414505 2.238797 0.276123
v 0.402696 2.238797 0.290512
v 0.388307 2.238797 0.302321
v 0.371891 2.238797 0.311096
v 0.354078 2.238797 0.316499
v 0.335553 2.238797 0.318324
v 0.317028 2.238797 0.316499
v 0.299215 2.238797 0.311096
v 0.282798 2.238797 0.302321
v 0.268409 2.238797 0.290512
v 0.256600 2.238797 0.276123
v 0.247825 2.238797 0.259706
v 0.242422 2.238797 0.241893
v 0.240597 2.238797 0.223368
v 0.242422 2.238797 0.204843
v 0.247825 2.238797 0.187030
v 0.256600 2.238797 0.170614
v 0.268409 2.238797 0.156225
v 0.282798 2.238797 0.144416
v 0.299215 2.238797 0.135641
v 0.317028 2.238797 0.130237
v 0.335553 2.238797 0.128413
v 0.348797 2.284782 0.156785
v 0.354077 2.284782 0.130237
v 0.361532 2.284782 0.160648
v 0.371891 2.284782 0.135641
v 0.373269 2.284782 0.166922
v 0.388307 2.284782 0.144416
v 0.383557 2.284782 0.175364
v 0.402696 2.284782 0.156225
v 0.391999 2.284782 0.185652
v 0.414505 2.284782 0.170614
v 0.335553 2.284782 0.223368
v 0.398273 2.284782 0.197389
v 0.423280 2.284782 0.187030
v 0.402136 2.284782 0.210124
v 0.428684 2.284782 0.204843
v 0.403440 2.284782 0.223368
v 0.430508 2.284782 0.223368
v 0.402136 2.284782 0.236613
v 0.428684 2.284782 0.241893
v 0.398273 2.284782 0.249348
v 0.423280 2.284782 0.259706
v 0.391999 2.284782 0.261085
v 0.414505 2.284782 0.276123
v 0.383557 2.284782 0.271372
v 0.402696 2.284782 0.290512
v 0.373269 2.284782 0.279815
v 0.388307 2.284782 0.302321
v 0.361532 2.284782 0.286088
v 0.371891 2.284782 0.311096
v 0.348797 2.284782 0.289952
v 0.354078 2.284782 0.316499
v 0.335553 2.284782 0.291256
v 0.335553 2.284782 0.318324
v 0.322308 2.284782 0.289952
v 0.317028 2.284782 0.316499
v 0.309573 2.284782 0.286088
v 0.299215 2.284782 0.311096
v 0.297836 2.284782 0.279815
v 0.282798 2.284782 0.302321
v 0.287549 2.284782 0.271372
v 0.268409 2.284782 0.290512
v 0.279106 2.284782 0.261085
v 0.256600 2.284782 0.276123
v 0.272832 2.284782 0.249348
v 0.247825 2.284782 0.259706
v 0.268969 2.284782 0.236613
v 0.242422 2.284782 0.241893
v 0.267665 2.284782 0.223368
v 0.240597 2.284782 0.223368
v 0.268969 2.284782 0.210124
v 0.242422 2.284782 0.204843
v 0.272832 2.284782 0.197389
v 0.247825 2.284782 0.187030
v 0.279106 2.284782 0.185652
v 0.256600 2.284782 0.170614
v 0.287549 2.284782 0.175364
v 0.268409 2.284782 0.156225
v 0.297836 2.284782 0.166922
v 0.282798 2.284782 0.144416
v 0.309573 2.284782 0.160648
v 0.299215 2.284782 0.135641
v 0.322308 2.284782 0.156785
v 0.317028 2.284782 0.130237
v 0.335553 2.284782 0.155481
v 0.335553 2.284782 0.128413
vn 0.0980 -0.0000 -0.9952
vn 0.2903 -0.0000 -0.9569
vn 0.4714 -0.0000 -0.8819
vn 0.6344 -0.0000 -0.7730
vn 0.7730 -0.0000 -0.6344
vn 0.8819 -0.0000 -0.4714
vn 0.9569 -0.0000 -0.2903
vn 0.9952 -0.0000 -0.0980
vn 0.9952 -0.0000 0.0980
vn 0.9569 -0.0000 0.2903
vn 0.8819 -0.0000 0.4714
vn 0.7730 -0.0000 0.6344
vn 0.6344 -0.0000 0.7730
vn 0.4714 -0.0000 0.8819
vn 0.2903 -0.0000 0.9569
vn 0.0980 -0.0000 0.9952
vn -0.0980 -0.0000 0.9952
vn -0.2903 -0.0000 0.9569
vn -0.4714 -0.0000 0.8819
vn -0.6344 -0.0000 0.7730
vn -0.7730 -0.0000 0.6344
vn -0.8819 -0.0000 0.4714
vn -0.9569 -0.0000 0.2903
vn -0.9952 -0.0000 0.0980
vn -0.9952 -0.0000 -0.0980
vn -0.9569 -0.0000 -0.2903
vn -0.8819 -0.0000 -0.4714
vn -0.7730 -0.0000 -0.6344
vn -0.6344 -0.0000 -0.7730
vn -0.4714 -0.0000 -0.8819
vn -0.0000 1.0000 -0.0000
vn -0.2903 -0.0000 -0.9569
vn -0.0980 -0.0000 -0.9952
vn -0.0000 -1.0000 -0.0000
vn -0.0485 -0.8689 0.4927
vn -0.1437 -0.8689 0.4737
vn -0.2334 -0.8689 0.4366
vn -0.3141 -0.8689 0.3827
vn -0.3827 -0.8689 0.3141
vn -0.4366 -0.8689 0.2334
vn -0.4737 -0.8689 0.1437
vn -0.4927 -0.8689 0.0485
vn -0.4927 -0.8689 -0.0485
vn -0.4737 -0.8689 -0.1437
vn -0.4366 -0.8689 -0.2334
vn -0.3827 -0.8689 -0.3141
vn -0.3141 -0.8689 -0.3827
vn -0.2334 -0.8689 -0.4366
vn -0.1437 -0.8689 -0.4737
vn -0.0485 -0.8689 -0.4927
vn 0.0485 -0.8689 -0.4927
vn 0.1437 -0.8689 -0.4737
vn 0.2334 -0.8689 -0.4366
vn 0.3141 -0.8689 -0.3827
vn 0.3827 -0.8689 -0.3141
vn 0.4366 -0.8689 -0.2334
vn 0.4737 -0.8689 -0.1437
vn 0.4927 -0.8689 -0.0485
vn 0.4927 -0.8689 0.0485
vn 0.4737 -0.8689 0.1437
vn 0.4366 -0.8689 0.2334
vn 0.3827 -0.8689 0.3141
vn 0.3141 -0.8689 0.3827
vn 0.2334 -0.8689 0.4366
vn 0.1437 -0.8689 0.4737
vn 0.0485 -0.8689 0.4927
vn 0.0914 -0.3600 -0.9285
vn 0.0736 0.6605 -0.7472
vn 0.0843 -0.5097 -0.8562
vn 0.0843 0.5097 -0.8562
vn 0.0736 -0.6605 -0.7472
vn 0.0914 0.3600 -0.9285
vn 0.0583 -0.8037 -0.5922
vn 0.0957 0.2139 -0.9721
vn 0.0380 -0.9219 -0.3855
vn 0.0978 0.0709 -0.9927
vn 0.0132 -0.9908 -0.1345
vn 0.0978 -0.0709 -0.9927
vn 0.0957 -0.2139 -0.9721
vn 0.0555 0.8245 -0.5632
vn 0.2836 -0.2139 -0.9348
vn 0.1643 0.8245 -0.5416
vn 0.2708 -0.3600 -0.8928
vn 0.2180 0.6605 -0.7185
vn 0.2497 -0.5097 -0.8233
vn 0.2497 0.5097 -0.8233
vn 0.2180 -0.6605 -0.7185
vn 0.2708 0.3600 -0.8928
vn 0.1727 -0.8037 -0.5694
vn 0.2836 0.2139 -0.9348
vn 0.1125 -0.9219 -0.3707
vn 0.2896 0.0709 -0.9545
vn 0.0392 -0.9908 -0.1294
vn 0.2896 -0.0709 -0.9545
vn 0.2805 -0.8037 -0.5248
vn 0.4605 0.2139 -0.8615
vn 0.1826 -0.9219 -0.3417
vn 0.4702 0.0709 -0.8797
vn 0.0637 -0.9908 -0.1192
vn 0.4702 -0.0709 -0.8797
vn 0.4605 -0.2139 -0.8615
vn 0.2668 0.8245 -0.4991
vn 0.4398 -0.3600 -0.8228
vn 0.3539 0.6605 -0.6622
vn 0.4056 -0.5097 -0.7588
vn 0.4056 0.5097 -0.7588
vn 0.3539 -0.6605 -0.6622
vn 0.4398 0.3600 -0.8228
vn 0.3590 0.8245 -0.4375
vn 0.5919 -0.3600 -0.7212
vn 0.4763 0.6605 -0.5804
vn 0.5458 -0.5097 -0.6651
vn 0.5458 0.5097 -0.6651
vn 0.4763 -0.6605 -0.5804
vn 0.5919 0.3600 -0.7212
vn 0.3775 -0.8037 -0.4600
vn 0.6197 0.2139 -0.7551
vn 0.2458 -0.9219 -0.2995
vn 0.6328 0.0709 -0.7711
vn 0.0858 -0.9908 -0.1045
vn 0.6328 -0.0709 -0.7711
vn 0.6197 -0.2139 -0.7551
vn 0.7551 0.2139 -0.6197
vn 0.2995 -0.9219 -0.2458
vn 0.7711 0.0709 -0.6328
vn 0.1045 -0.9908 -0.0858
vn 0.7711 -0.0709 -0.6328
vn 0.7551 -0.2139 -0.6197
vn 0.4375 0.8245 -0.3590
vn 0.7212 -0.3600 -0.5919
vn 0.5804 0.6605 -0.4763
vn 0.6651 -0.5097 -0.5458
vn 0.6651 0.5097 -0.5458
vn 0.5804 -0.6605 -0.4763
vn 0.7212 0.3600 -0.5919
vn 0.4600 -0.8037 -0.3775
vn 0.8228 -0.3600 -0.4398
vn 0.6622 0.6605 -0.3539
vn 0.7588 -0.5097 -0.4056
vn 0.7588 0.5097 -0.4056
vn 0.6622 -0.6605 -0.3539
vn 0.8228 0.3600 -0.4398
vn 0.5248 -0.8037 -0.2805
vn 0.8615 0.2139 -0.4605
vn 0.3417 -0.9219 -0.1826
vn 0.8797 0.0709 -0.4702
vn 0.1192 -0.9908 -0.0637
vn 0.8797 -0.0709 -0.4702
vn 0.8615 -0.2139 -0.4605
vn 0.4991 0.8245 -0.2668
vn 0.3707 -0.9219 -0.1125
vn 0.9545 0.0709 -0.2896
vn 0.1294 -0.9908 -0.0392
vn 0.9545 -0.0709 -0.2896
vn 0.9348 -0.2139 -0.2836
vn 0.5416 0.8245 -0.1643
vn 0.8928 -0.3600 -0.2708
vn 0.7185 0.6605 -0.2180
vn 0.8233 -0.5097 -0.2497
vn 0.8233 0.5097 -0.2497
vn 0.7185 -0.6605 -0.2180
vn 0.8928 0.3600 -0.2708
vn 0.5694 -0.8037 -0.1727
vn 0.9348 0.2139 -0.2836
vn 0.8562 -0.5097 -0.0843
vn 0.8562 0.5097 -0.0843
vn 0.7472 -0.6605 -0.0736
vn 0.9285 0.3600 -0.0914
vn 0.5922 -0.8037 -0.0583
vn 0.9721 0.2139 -0.0957
vn 0.3855 -0.9219 -0.0380
vn 0.9927 0.0709 -0.0978
vn 0.1345 -0.9908 -0.0132
vn 0.9927 -0.0709 -0.0978
vn 0.9721 -0.2139 -0.0957
vn 0.5632 0.8245 -0.0555
vn 0.9285 -0.3600 -0.0914
vn 0.7472 0.6605 -0.0736
vn 0.1345 -0.9908 0.0132
vn 0.9927 -0.0709 0.0978
vn 0.9721 -0.2139 0.0957
vn 0.5632 0.8245 0.0555
vn 0.9285 -0.3600 0.0914
vn 0.7472 0.6605 0.0736
vn 0.8562 -0.5097 0.0843
vn 0.8562 0.5097 0.0843
vn 0.7472 -0.6605 0.0736
vn 0.9285 0.3600 0.0914
vn 0.5922 -0.8037 0.0583
vn 0.9721 0.2139 0.0958
vn 0.3855 -0.9219 0.0380
vn 0.9927 0.0709 0.0978
vn 0.8233 0.5097 0.2497
vn 0.7185 -0.6605 0.2180
vn 0.8928 0.3600 0.2708
vn 0.5694 -0.8037 0.1727
vn 0.9348 0.2139 0.2836
vn 0.3707 -0.9219 0.1125
vn 0.9545 0.0709 0.2896
vn 0.1294 -0.9908 0.0392
vn 0.9545 -0.0709 0.2896
vn 0.9348 -0.2139 0.2836
vn 0.5416 0.8245 0.1643
vn 0.8928 -0.3600 0.2708
vn 0.7185 0.6605 0.2180
vn 0.8233 -0.5097 0.2497
vn 0.8797 -0.0709 0.4702
vn 0.8615 -0.2139 0.4605
vn 0.4991 0.8245 0.2668
vn 0.8228 -0.3600 0.4398
vn 0.6622 0.6605 0.3539
vn 0.7588 -0.5097 0.4056
vn 0.7588 0.5097 0.4056
vn 0.6622 -0.6605 0.3539
vn 0.8228 0.3600 0.4398
vn 0.5248 -0.8037 0.2805
vn 0.8615 0.2139 0.4605
vn 0.3417 -0.9219 0.1826
vn 0.8797 0.0709 0.4702
vn 0.1192 -0.9908 0.0637
vn 0.5804 -0.6605 0.4763
vn 0.7212 0.3600 0.5919
vn 0.4600 -0.8037 0.3775
vn 0.7551 0.2139 0.6197
vn 0.2995 -0.9219 0.2458
vn 0.7711 0.0709 0.6328
vn 0.1045 -0.9908 0.0858
vn 0.7711 -0.0709 0.6328
vn 0.7551 -0.2139 0.6197
vn 0.4375 0.8245 0.3590
vn 0.7212 -0.3600 0.5919
vn 0.5804 0.6605 0.4763
vn 0.6651 -0.5097 0.5458
vn 0.6651 0.5097 0.5458
vn 0.6197 -0.2139 0.7551
vn 0.3590 0.8245 0.4375
vn 0.5919 -0.3600 0.7212
vn 0.4763 0.6605 0.5804
vn 0.5458 -0.5097 0.6651
vn 0.5458 0.5097 0.6651
vn 0.4763 -0.6605 0.5804
vn 0.5919 0.3600 0.7212
vn 0.3775 -0.8037 0.4600
vn 0.6197 0.2139 0.7551
vn 0.2458 -0.9219 0.2995
vn 0.6328 0.0709 0.7711
vn 0.0858 -0.9908 0.1045
vn 0.6328 -0.0709 0.7711
vn 0.4398 0.3600 0.8228
vn 0.2805 -0.8037 0.5248
vn 0.4605 0.2139 0.8615
vn 0.1826 -0.9219 0.3417
vn 0.4702 0.0709 0.8797
vn 0.0637 -0.9908 0.1192
vn 0.4702 -0.0709 0.8797
vn 0.4605 -0.2139 0.8615
vn 0.2668 0.8245 0.4991
vn 0.4398 -0.3600 0.8228
vn 0.3539 0.6605 0.6622
vn 0.4056 -0.5097 0.7588
vn 0.4056 0.5097 0.7588
vn 0.3539 -0.6605 0.6622
vn 0.2836 -0.2139 0.9348
vn 0.1643 0.8245 0.5416
vn 0.2708 -0.3600 0.8928
vn 0.2180 0.6605 0.7185
vn 0.2497 -0.5097 0.8233
vn 0.2497 0.5097 0.8233
vn 0.2180 -0.6605 0.7185
vn 0.2708 0.3600 0.8928
vn 0.1727 -0.8037 0.5694
vn 0.2836 0.2139 0.9348
vn 0.1125 -0.9219 0.3707
vn 0.2896 0.0709 0.9545
vn 0.0392 -0.9908 0.1294
vn 0.2896 -0.0709 0.9545
vn 0.0583 -0.8037 0.5922
vn 0.0957 0.2139 0.9721
vn 0.0380 -0.9219 0.3855
vn 0.0978 0.0709 0.9927
vn 0.0133 -0.9908 0.1345
vn 0.0978 -0.0709 0.9927
vn 0.0957 -0.2139 0.9721
vn 0.0555 0.8245 0.5632
vn 0.0914 -0.3600 0.9285
vn 0.0736 0.6605 0.7472
vn 0.0843 -0.5097 0.8562
vn 0.0843 0.5097 0.8562
vn 0.0736 -0.6605 0.7472
vn 0.0914 0.3600 0.9285
vn -0.0914 -0.3600 0.9285
vn -0.0736 0.6605 0.7472
vn -0.0843 -0.5097 0.8562
vn -0.0843 0.5097 0.8562
vn -0.0736 -0.6605 0.7472
vn -0.0914 0.3600 0.9285
vn -0.0583 -0.8037 0.5922
vn -0.0957 0.2139 0.9721
vn -0.0380 -0.9219 0.3855
vn -0.0978 0.0709 0.9927
vn -0.0133 -0.9908 0.1345
vn -0.0978 -0.0709 0.9927
vn -0.0957 -0.2139 0.9721
vn -0.0555 0.8245 0.5632
vn -0.1125 -0.9219 0.3707
vn -0.2896 0.0709 0.9545
vn -0.0392 -0.9908 0.1294
vn -0.2896 -0.0709 0.9545
vn -0.2836 -0.2139 0.9348
vn -0.1643 0.8245 0.5416
vn -0.2708 -0.3600 0.8928
vn -0.2180 0.6605 0.7185
vn -0.2497 -0.5097 0.8233
vn -0.2497 0.5097 0.8233
vn -0.2180 -0.6605 0.7185
vn -0.2708 0.3600 0.8928
vn -0.1727 -0.8037 0.5694
vn -0.2836 0.2139 0.9348
vn -0.3540 0.6605 0.6622
vn -0.4056 -0.5097 0.7588
vn -0.4056 0.5097 0.7588
vn -0.3539 -0.6605 0.6622
vn -0.4398 0.3600 0.8228
vn -0.2805 -0.8037 0.5248
vn -0.4605 0.2139 0.8615
vn -0.1826 -0.9219 0.3417
vn -0.4702 0.0709 0.8797
vn -0.0637 -0.9908 0.1192
vn -0.4702 -0.0709 0.8797
vn -0.4605 -0.2139 0.8615
vn -0.2668 0.8245 0.4991
vn -0.4398 -0.3600 0.8228
vn -0.6328 0.0709 0.7711
vn -0.0858 -0.9908 0.1045
vn -0.6328 -0.0709 0.7711
vn -0.6197 -0.2139 0.7551
vn -0.3590 0.8245 0.4375
vn -0.5919 -0.3600 0.7212
vn -0.4763 0.6605 0.5804
vn -0.5458 -0.5097 0.6651
vn -0.5458 0.5097 0.6651
vn -0.4763 -0.6605 0.5804
vn -0.5919 0.3600 0.7212
vn -0.3775 -0.8037 0.4600
vn -0.6197 0.2139 0.7551
vn -0.2458 -0.9219 0.2995
vn -0.6651 -0.5097 0.5458
vn -0.6651 0.5097 0.5458
vn -0.5804 -0.6605 0.4763
vn -0.7212 0.3600 0.5919
vn -0.4600 -0.8037 0.3775
vn -0.7551 0.2139 0.6197
vn -0.2995 -0.9219 0.2458
vn -0.7711 0.0709 0.6328
vn -0.1045 -0.9908 0.0858
vn -0.7711 -0.0709 0.6328
vn -0.7551 -0.2139 0.6197
vn -0.4375 0.8245 0.3590
vn -0.7212 -0.3600 0.5919
vn -0.5804 0.6605 0.4763
vn -0.1192 -0.9908 0.0637
vn -0.8797 -0.0709 0.4702
vn -0.8615 -0.2139 0.4605
vn -0.4991 0.8245 0.2668
vn -0.8228 -0.3600 0.4398
vn -0.6622 0.6605 0.3539
vn -0.7588 -0.5097 0.4056
vn -0.7588 0.5097 0.4056
vn -0.6622 -0.6605 0.3539
vn -0.8228 0.3600 0.4398
vn -0.5248 -0.8037 0.2805
vn -0.8615 0.2139 0.4605
vn -0.3417 -0.9219 0.1826
vn -0.8797 0.0709 0.4702
vn -0.8233 0.5097 0.2497
vn -0.7185 -0.6605 0.2180
vn -0.8928 0.3600 0.2708
vn -0.5694 -0.8037 0.1727
vn -0.9348 0.2139 0.2836
vn -0.3707 -0.9219 0.1125
vn -0.9545 0.0709 0.2896
vn -0.1294 -0.9908 0.0392
vn -0.9545 -0.0709 0.2896
vn -0.9348 -0.2139 0.2836
vn -0.5416 0.8245 0.1643
vn -0.8928 -0.3600 0.2708
vn -0.7185 0.6605 0.2180
vn -0.8233 -0.5097 0.2497
vn -0.9927 -0.0709 0.0978
vn -0.9721 -0.2139 0.0957
vn -0.5632 0.8245 0.0555
vn -0.9285 -0.3600 0.0914
vn -0.7472 0.6605 0.0736
vn -0.8562 -0.5097 0.0843
vn -0.8562 0.5097 0.0843
vn -0.7472 -0.6605 0.0736
vn -0.9285 0.3600 0.0914
vn -0.5922 -0.8037 0.0583
vn -0.9721 0.2139 0.0957
vn -0.3855 -0.9219 0.0380
vn -0.9927 0.0709 0.0978
vn -0.1345 -0.9908 0.0132
vn -0.7472 -0.6605 -0.0736
vn -0.9285 0.3600 -0.0914
vn -0.5922 -0.8037 -0.0583
vn -0.9721 0.2139 -0.0957
vn -0.3855 -0.9219 -0.0380
vn -0.9927 0.0709 -0.0978
vn -0.1345 -0.9908 -0.0132
vn -0.9927 -0.0709 -0.0978
vn -0.9721 -0.2139 -0.0957
vn -0.5632 0.8245 -0.0555
vn -0.9285 -0.3600 -0.0914
vn -0.7472 0.6605 -0.0736
vn -0.8562 -0.5097 -0.0843
vn -0.8562 0.5097 -0.0843
vn -0.9348 -0.2139 -0.2836
vn -0.5416 0.8245 -0.1643
vn -0.8928 -0.3600 -0.2708
vn -0.7185 0.6605 -0.2180
vn -0.8233 -0.5097 -0.2497
vn -0.8233 0.5097 -0.2497
vn -0.7185 -0.6605 -0.2180
vn -0.8928 0.3600 -0.2708
vn -0.5694 -0.8037 -0.1727
vn -0.9348 0.2139 -0.2836
vn -0.3707 -0.9219 -0.1125
vn -0.9545 0.0709 -0.2896
vn -0.1294 -0.9908 -0.0392
vn -0.9545 -0.0709 -0.2896
vn -0.5248 -0.8037 -0.2805
vn -0.8615 0.2139 -0.4605
vn -0.3417 -0.9219 -0.1826
vn -0.8797 0.0709 -0.4702
vn -0.1192 -0.9908 -0.0637
vn -0.8797 -0.0709 -0.4702
vn -0.8615 -0.2139 -0.4605
vn -0.4991 0.8245 -0.2668
vn -0.8228 -0.3600 -0.4398
vn -0.6622 0.6605 -0.3539
vn -0.7588 -0.5097 -0.4056
vn -0.7588 0.5097 -0.4056
vn -0.6622 -0.6605 -0.3539
vn -0.8228 0.3600 -0.4398
vn -0.4375 0.8245 -0.3590
vn -0.7212 -0.3600 -0.5919
vn -0.5804 0.6605 -0.4763
vn -0.6651 -0.5097 -0.5458
vn -0.6651 0.5097 -0.5458
vn -0.5804 -0.6605 -0.4763
vn -0.7212 0.3600 -0.5919
vn -0.4600 -0.8037 -0.3775
vn -0.7551 0.2139 -0.6197
vn -0.2995 -0.9219 -0.2458
vn -0.7711 0.0709 -0.6328
vn -0.1045 -0.9908 -0.0858
vn -0.7711 -0.0709 -0.6328
vn -0.7551 -0.2139 -0.6197
vn -0.6197 0.2139 -0.7551
vn -0.2458 -0.9219 -0.2995
vn -0.6328 0.0709 -0.7711
vn -0.0858 -0.9908 -0.1045
vn -0.6328 -0.0709 -0.7711
vn -0.6197 -0.2139 -0.7551
vn -0.3590 0.8245 -0.4375
vn -0.5919 -0.3600 -0.7212
vn -0.4763 0.6605 -0.5804
vn -0.5458 -0.5097 -0.6651
vn -0.5458 0.5097 -0.6651
vn -0.4763 -0.6605 -0.5804
vn -0.5919 0.3600 -0.7212
vn -0.3775 -0.8037 -0.4600
vn -0.4398 -0.3600 -0.8228
vn -0.3539 0.6605 -0.6622
vn -0.4056 -0.5097 -0.7588
vn -0.4056 0.5097 -0.7588
vn -0.3539 -0.6605 -0.6622
vn -0.4398 0.3600 -0.8228
vn -0.2805 -0.8037 -0.5248
vn -0.4605 0.2139 -0.8615
vn -0.1826 -0.9219 -0.3417
vn -0.4702 0.0709 -0.8797
vn -0.0637 -0.9908 -0.1192
vn -0.4702 -0.0709 -0.8797
vn -0.4605 -0.2139 -0.8615
vn -0.2668 0.8244 -0.4991
vn -0.1125 -0.9219 -0.3707
vn -0.2896 0.0709 -0.9545
vn -0.0392 -0.9908 -0.1294
vn -0.2896 -0.0709 -0.9545
vn -0.2836 -0.2139 -0.9348
vn -0.1643 0.8245 -0.5416
vn -0.2708 -0.3600 -0.8928
vn -0.2180 0.6605 -0.7185
vn -0.2497 -0.5097 -0.8233
vn -0.2497 0.5097 -0.8233
vn -0.2180 -0.6605 -0.7185
vn -0.2708 0.3600 -0.8928
vn -0.1727 -0.8037 -0.5694
vn -0.2836 0.2139 -0.9348
vn -0.0736 0.6605 -0.7472
vn -0.0843 -0.5097 -0.8562
vn -0.0843 0.5097 -0.8562
vn -0.0736 -0.6605 -0.7472
vn -0.0914 0.3600 -0.9285
vn -0.0583 -0.8037 -0.5922
vn -0.0958 0.2139 -0.9721
vn -0.0380 -0.9219 -0.3855
vn -0.0978 0.0709 -0.9927
vn -0.0132 -0.9908 -0.1345
vn -0.0978 -0.0709 -0.9927
vn -0.0957 -0.2139 -0.9721
vn -0.0555 0.8245 -0.5632
vn -0.0915 -0.3600 -0.9285
vn 0.4375 0.8244 -0.3590
vn 0.9721 0.2139 0.0957
vn -0.3539 0.6605 0.6622
vn -0.2668 0.8244 0.4991
vn -0.5416 0.8244 0.1643
vn -0.5632 0.8244 0.0555
vn -0.5416 0.8244 -0.1643
vn -0.2668 0.8245 -0.4991
vn -0.0915 0.3600 -0.9285
vn -0.0957 0.2139 -0.9721
vn -0.0958 -0.2139 -0.9721
vn -0.0914 -0.3600 -0.9285
vt 0.750000 0.374737
vt 1.000000 1.000000
vt 0.250000 0.490000
vt 0.000000 1.000000
vt 0.774335 0.372340
vt 0.968750 1.000000
vt 0.296822 0.485388
vt 0.797735 0.365242
vt 0.937500 1.000000
vt 0.341844 0.471731
vt 0.819300 0.353715
vt 0.906250 1.000000
vt 0.383337 0.449553
vt 0.838202 0.338202
vt 0.875000 1.000000
vt 0.419706 0.419706
vt 0.853715 0.319300
vt 0.843750 1.000000
vt 0.449553 0.383337
vt 0.865242 0.297735
vt 0.812500 1.000000
vt 0.471731 0.341844
vt 0.872340 0.274335
vt 0.781250 1.000000
vt 0.485388 0.296822
vt 0.874737 0.250000
vt 0.750000 1.000000
vt 0.490000 0.250000
vt 0.872340 0.225665
vt 0.718750 1.000000
vt 0.485388 0.203178
vt 0.865242 0.202265
vt 0.687500 1.000000
vt 0.471731 0.158156
vt 0.853715 0.180700
vt 0.656250 1.000000
vt 0.449553 0.116663
vt 0.838202 0.161798
vt 0.625000 1.000000
vt 0.419706 0.080294
vt 0.819300 0.146285
vt 0.593750 1.000000
vt 0.383337 0.050447
vt 0.797735 0.134758
vt 0.562500 1.000000
vt 0.341844 0.028269
vt 0.774335 0.127660
vt 0.531250 1.000000
vt 0.296822 0.014612
vt 0.750000 0.125263
vt 0.500000 1.000000
vt 0.250000 0.010000
vt 0.725665 0.127660
vt 0.468750 1.000000
vt 0.203178 0.014612
vt 0.702265 0.134758
vt 0.437500 1.000000
vt 0.158156 0.028269
vt 0.680700 0.146285
vt 0.406250 1.000000
vt 0.116663 0.050447
vt 0.661798 0.161798
vt 0.375000 1.000000
vt 0.080294 0.080294
vt 0.646285 0.180700
vt 0.343750 1.000000
vt 0.050447 0.116663
vt 0.634758 0.202265
vt 0.312500 1.000000
vt 0.028269 0.158156
vt 0.627660 0.225665
vt 0.281250 1.000000
vt 0.014612 0.203178
vt 0.625263 0.250000
vt 0.250000 1.000000
vt 0.010000 0.250000
vt 0.627660 0.274335
vt 0.218750 1.000000
vt 0.014612 0.296822
vt 0.634758 0.297735
vt 0.187500 1.000000
vt 0.028269 0.341844
vt 0.646285 0.319300
vt 0.156250 1.000000
vt 0.050447 0.383337
vt 0.661798 0.338202
vt 0.125000 1.000000
vt 0.080294 0.419706
vt 0.680700 0.353715
vt 0.093750 1.000000
vt 0.116663 0.449553
vt 0.702265 0.365242
vt 0.158156 0.471731
vt 0.062500 1.000000
vt 0.725665 0.372340
vt 0.203178 0.485388
vt 0.031250 1.000000
vt 1.000000 0.500000
vt 0.000000 0.500000
vt 0.750000 0.490000
vt 0.968750 0.500000
vt 0.796822 0.485388
vt 0.937500 0.500000
vt 0.841844 0.471731
vt 0.906250 0.500000
vt 0.883337 0.449553
vt 0.875000 0.500000
vt 0.919706 0.419706
vt 0.843750 0.500000
vt 0.949553 0.383337
vt 0.812500 0.500000
vt 0.971731 0.341844
vt 0.781250 0.500000
vt 0.985388 0.296822
vt 0.750000 0.500000
vt 0.990000 0.250000
vt 0.718750 0.500000
vt 0.985388 0.203178
vt 0.687500 0.500000
vt 0.971731 0.158156
vt 0.656250 0.500000
vt 0.949553 0.116663
vt 0.625000 0.500000
vt 0.919706 0.080294
vt 0.593750 0.500000
vt 0.883337 0.050447
vt 0.562500 0.500000
vt 0.841844 0.028269
vt 0.531250 0.500000
vt 0.796822 0.014612
vt 0.500000 0.500000
vt 0.750000 0.010000
vt 0.468750 0.500000
vt 0.703178 0.014612
vt 0.437500 0.500000
vt 0.658156 0.028269
vt 0.406250 0.500000
vt 0.616663 0.050447
vt 0.375000 0.500000
vt 0.580294 0.080294
vt 0.343750 0.500000
vt 0.550447 0.116663
vt 0.312500 0.500000
vt 0.528269 0.158156
vt 0.281250 0.500000
vt 0.514612 0.203178
vt 0.250000 0.500000
vt 0.510000 0.250000
vt 0.218750 0.500000
vt 0.514612 0.296822
vt 0.187500 0.500000
vt 0.528269 0.341844
vt 0.156250 0.500000
vt 0.550447 0.383337
vt 0.125000 0.500000
vt 0.580294 0.419706
vt 0.093750 0.500000
vt 0.616663 0.449553
vt 0.062500 0.500000
vt 0.658156 0.471731
vt 0.031250 0.500000
vt 0.703178 0.485388
vt 0.750000 0.423604
vt 0.783868 0.420268
vt 0.816435 0.410389
vt 0.846449 0.394346
vt 0.872756 0.372756
vt 0.894346 0.346449
vt 0.910389 0.316435
vt 0.920268 0.283868
vt 0.923604 0.250000
vt 0.920268 0.216132
vt 0.910389 0.183565
vt 0.894346 0.153551
vt 0.872756 0.127244
vt 0.846449 0.105654
vt 0.816435 0.089611
vt 0.783868 0.079732
vt 0.750000 0.076396
vt 0.716132 0.079732
vt 0.683565 0.089611
vt 0.653551 0.105654
vt 0.627244 0.127244
vt 0.605654 0.153551
vt 0.589611 0.183565
vt 0.579732 0.216132
vt 0.576396 0.250000
vt 0.579732 0.283868
vt 0.589611 0.316435
vt 0.605654 0.346449
vt 0.627244 0.372756
vt 0.653551 0.394346
vt 0.683565 0.410389
vt 0.716132 0.420268
vt 0.750000 0.812500
vt 0.750000 0.687500
vt 0.750000 0.562500
vt 0.750000 0.500000
vt 0.750000 0.437500
vt 0.750000 0.312500
vt 0.718750 0.875000
vt 0.718750 0.812500
vt 0.718750 0.750000
vt 0.718750 0.687500
vt 0.718750 0.625000
vt 0.718750 0.562500
vt 0.718750 0.500000
vt 0.718750 0.437500
vt 0.718750 0.375000
vt 0.718750 0.312500
vt 0.718750 0.250000
vt 0.718750 0.187500
vt 0.718750 0.125000
vt 0.718750 0.062500
vt 0.687500 0.875000
vt 0.687500 0.812500
vt 0.687500 0.750000
vt 0.687500 0.687500
vt 0.687500 0.625000
vt 0.687500 0.562500
vt 0.687500 0.500000
vt 0.687500 0.437500
vt 0.687500 0.375000
vt 0.687500 0.312500
vt 0.687500 0.250000
vt 0.687500 0.187500
vt 0.687500 0.125000
vt 0.687500 0.062500
vt 0.656250 0.875000
vt 0.656250 0.812500
vt 0.656250 0.750000
vt 0.656250 0.687500
vt 0.656250 0.625000
vt 0.656250 0.562500
vt 0.656250 0.500000
vt 0.656250 0.437500
vt 0.656250 0.375000
vt 0.656250 0.312500
vt 0.656250 0.250000
vt 0.656250 0.187500
vt 0.656250 0.125000
vt 0.656250 0.062500
vt 0.625000 0.875000
vt 0.625000 0.812500
vt 0.625000 0.750000
vt 0.625000 0.687500
vt 0.625000 0.625000
vt 0.625000 0.562500
vt 0.625000 0.500000
vt 0.625000 0.437500
vt 0.625000 0.375000
vt 0.625000 0.312500
vt 0.625000 0.250000
vt 0.625000 0.187500
vt 0.625000 0.125000
vt 0.625000 0.062500
vt 0.593750 0.875000
vt 0.593750 0.812500
vt 0.593750 0.750000
vt 0.593750 0.687500
vt 0.593750 0.625000
vt 0.593750 0.562500
vt 0.593750 0.500000
vt 0.593750 0.437500
vt 0.593750 0.375000
vt 0.593750 0.312500
vt 0.593750 0.250000
vt 0.593750 0.187500
vt 0.593750 0.125000
vt 0.593750 0.062500
vt 0.562500 0.875000
vt 0.562500 0.812500
vt 0.562500 0.750000
vt 0.562500 0.687500
vt 0.562500 0.625000
vt 0.562500 0.562500
vt 0.562500 0.500000
vt 0.562500 0.437500
vt 0.562500 0.375000
vt 0.562500 0.312500
vt 0.562500 0.250000
vt 0.562500 0.187500
vt 0.562500 0.125000
vt 0.562500 0.062500
vt 0.531250 0.875000
vt 0.531250 0.812500
vt 0.531250 0.750000
vt 0.531250 0.687500
vt 0.531250 0.625000
vt 0.531250 0.562500
vt 0.531250 0.500000
vt 0.531250 0.437500
vt 0.531250 0.375000
vt 0.531250 0.312500
vt 0.531250 0.250000
vt 0.531250 0.187500
vt 0.531250 0.125000
vt 0.531250 0.062500
vt 0.500000 0.875000
vt 0.500000 0.812500
vt 0.500000 0.750000
vt 0.500000 0.687500
vt 0.500000 0.625000
vt 0.500000 0.562500
vt 0.500000 0.500000
vt 0.500000 0.437500
vt 0.500000 0.375000
vt 0.500000 0.312500
vt 0.500000 0.250000
vt 0.500000 0.187500
vt 0.500000 0.125000
vt 0.500000 0.062500
vt 0.468750 0.875000
vt 0.468750 0.812500
vt 0.468750 0.750000
vt 0.468750 0.687500
vt 0.468750 0.625000
vt 0.468750 0.562500
vt 0.468750 0.500000
vt 0.468750 0.437500
vt 0.468750 0.375000
vt 0.468750 0.312500
vt 0.468750 0.250000
vt 0.468750 0.187500
vt 0.468750 0.125000
vt 0.468750 0.062500
vt 0.437500 0.875000
vt 0.437500 0.812500
vt 0.437500 0.750000
vt 0.437500 0.687500
vt 0.437500 0.625000
vt 0.437500 0.562500
vt 0.437500 0.500000
vt 0.437500 0.437500
vt 0.437500 0.375000
vt 0.437500 0.312500
vt 0.437500 0.250000
vt 0.437500 0.187500
vt 0.437500 0.125000
vt 0.437500 0.062500
vt 0.406250 0.875000
vt 0.406250 0.812500
vt 0.406250 0.750000
vt 0.406250 0.687500
vt 0.406250 0.625000
vt 0.406250 0.562500
vt 0.406250 0.500000
vt 0.406250 0.437500
vt 0.406250 0.375000
vt 0.406250 0.312500
vt 0.406250 0.250000
vt 0.406250 0.187500
vt 0.406250 0.125000
vt 0.406250 0.062500
vt 0.375000 0.875000
vt 0.375000 0.812500
vt 0.375000 0.750000
vt 0.375000 0.687500
vt 0.375000 0.625000
vt 0.375000 0.562500
vt 0.375000 0.500000
vt 0.375000 0.437500
vt 0.375000 0.375000
vt 0.375000 0.312500
vt 0.375000 0.250000
vt 0.375000 0.187500
vt 0.375000 0.125000
vt 0.375000 0.062500
vt 0.343750 0.875000
vt 0.343750 0.812500
vt 0.343750 0.750000
vt 0.343750 0.687500
vt 0.343750 0.625000
vt 0.343750 0.562500
vt 0.343750 0.500000
vt 0.343750 0.437500
vt 0.343750 0.375000
vt 0.343750 0.312500
vt 0.343750 0.250000
vt 0.343750 0.187500
vt 0.343750 0.125000
vt 0.343750 0.062500
vt 0.312500 0.875000
vt 0.312500 0.812500
vt 0.312500 0.750000
vt 0.312500 0.687500
vt 0.312500 0.625000
vt 0.312500 0.562500
vt 0.312500 0.500000
vt 0.312500 0.437500
vt 0.312500 0.375000
vt 0.312500 0.312500
vt 0.312500 0.250000
vt 0.312500 0.187500
vt 0.312500 0.125000
vt 0.312500 0.062500
vt 0.281250 0.875000
vt 0.281250 0.812500
vt 0.281250 0.750000
vt 0.281250 0.687500
vt 0.281250 0.625000
vt 0.281250 0.562500
vt 0.281250 0.500000
vt 0.281250 0.437500
vt 0.281250 0.375000
vt 0.281250 0.312500
vt 0.281250 0.250000
vt 0.281250 0.187500
vt 0.281250 0.125000
vt 0.281250 0.062500
vt 0.250000 0.875000
vt 0.250000 0.812500
vt 0.250000 0.750000
vt 0.250000 0.687500
vt 0.250000 0.625000
vt 0.250000 0.562500
vt 0.250000 0.500000
vt 0.250000 0.437500
vt 0.250000 0.375000
vt 0.250000 0.312500
vt 0.250000 0.250000
vt 0.250000 0.187500
vt 0.250000 0.125000
vt 0.250000 0.062500
vt 0.218750 0.875000
vt 0.218750 0.812500
vt 0.218750 0.750000
vt 0.218750 0.687500
vt 0.218750 0.625000
vt 0.218750 0.562500
vt 0.218750 0.500000
vt 0.218750 0.437500
vt 0.218750 0.375000
vt 0.218750 0.312500
vt 0.218750 0.250000
vt 0.218750 0.187500
vt 0.218750 0.125000
vt 0.218750 0.062500
vt 0.187500 0.875000
vt 0.187500 0.812500
vt 0.187500 0.750000
vt 0.187500 0.687500
vt 0.187500 0.625000
vt 0.187500 0.562500
vt 0.187500 0.500000
vt 0.187500 0.437500
vt 0.187500 0.375000
vt 0.187500 0.312500
vt 0.187500 0.250000
vt 0.187500 0.187500
vt 0.187500 0.125000
vt 0.187500 0.062500
vt 0.156250 0.875000
vt 0.156250 0.812500
vt 0.156250 0.750000
vt 0.156250 0.687500
vt 0.156250 0.625000
vt 0.156250 0.562500
vt 0.156250 0.500000
vt 0.156250 0.437500
vt 0.156250 0.375000
vt 0.156250 0.312500
vt 0.156250 0.250000
vt 0.156250 0.187500
vt 0.156250 0.125000
vt 0.156250 0.062500
vt 0.125000 0.875000
vt 0.125000 0.812500
vt 0.125000 0.750000
vt 0.125000 0.687500
vt 0.125000 0.625000
vt 0.125000 0.562500
vt 0.125000 0.500000
vt 0.125000 0.437500
vt 0.125000 0.375000
vt 0.125000 0.312500
vt 0.125000 0.250000
vt 0.125000 0.187500
vt 0.125000 0.125000
vt 0.125000 0.062500
vt 0.734375 0.000000
vt 0.703125 0.000000
vt 0.671875 0.000000
vt 0.640625 0.000000
vt 0.609375 0.000000
vt 0.578125 0.000000
vt 0.546875 0.000000
vt 0.515625 0.000000
vt 0.484375 0.000000
vt 0.453125 0.000000
vt 0.421875 0.000000
vt 0.390625 0.000000
vt 0.359375 0.000000
vt 0.328125 0.000000
vt 0.296875 0.000000
vt 0.265625 0.000000
vt 0.234375 0.000000
vt 0.203125 0.000000
vt 0.171875 0.000000
vt 0.140625 0.000000
vt 0.109375 0.000000
vt 0.078125 0.000000
vt 0.046875 0.000000
vt 0.015625 0.000000
vt 0.984375 0.000000
vt 0.953125 0.000000
vt 0.921875 0.000000
vt 0.890625 0.000000
vt 0.859375 0.000000
vt 0.828125 0.000000
vt 0.796875 0.000000
vt 0.765625 0.000000
vt 0.093750 0.875000
vt 0.093750 0.812500
vt 0.093750 0.750000
vt 0.093750 0.687500
vt 0.093750 0.625000
vt 0.093750 0.562500
vt 0.093750 0.500000
vt 0.093750 0.437500
vt 0.093750 0.375000
vt 0.093750 0.312500
vt 0.093750 0.250000
vt 0.093750 0.187500
vt 0.093750 0.125000
vt 0.093750 0.062500
vt 0.062500 0.875000
vt 0.062500 0.812500
vt 0.062500 0.750000
vt 0.062500 0.687500
vt 0.062500 0.625000
vt 0.062500 0.562500
vt 0.062500 0.500000
vt 0.062500 0.437500
vt 0.062500 0.375000
vt 0.062500 0.312500
vt 0.062500 0.250000
vt 0.062500 0.187500
vt 0.062500 0.125000
vt 0.062500 0.062500
vt 0.031250 0.875000
vt 0.031250 0.812500
vt 0.031250 0.750000
vt 0.031250 0.687500
vt 0.031250 0.625000
vt 0.031250 0.562500
vt 0.031250 0.500000
vt 0.031250 0.437500
vt 0.031250 0.375000
vt 0.031250 0.312500
vt 0.031250 0.250000
vt 0.031250 0.187500
vt 0.031250 0.125000
vt 0.031250 0.062500
vt 0.000000 0.875000
vt 1.000000 0.875000
vt 0.000000 0.812500
vt 1.000000 0.812500
vt 0.000000 0.750000
vt 1.000000 0.750000
vt 0.000000 0.687500
vt 1.000000 0.687500
vt 0.000000 0.625000
vt 1.000000 0.625000
vt 0.000000 0.562500
vt 1.000000 0.562500
vt 0.000000 0.500000
vt 1.000000 0.500000
vt 0.000000 0.437500
vt 1.000000 0.437500
vt 0.000000 0.375000
vt 1.000000 0.375000
vt 0.000000 0.312500
vt 1.000000 0.312500
vt 0.000000 0.250000
vt 1.000000 0.250000
vt 0.000000 0.187500
vt 1.000000 0.187500
vt 0.000000 0.125000
vt 1.000000 0.125000
vt 0.000000 0.062500
vt 1.000000 0.062500
vt 0.968750 0.875000
vt 0.968750 0.812500
vt 0.968750 0.750000
vt 0.968750 0.687500
vt 0.968750 0.625000
vt 0.968750 0.562500
vt 0.968750 0.500000
vt 0.968750 0.437500
vt 0.968750 0.375000
vt 0.968750 0.312500
vt 0.968750 0.250000
vt 0.968750 0.187500
vt 0.968750 0.125000
vt 0.968750 0.062500
vt 0.937500 0.875000
vt 0.937500 0.812500
vt 0.937500 0.750000
vt 0.937500 0.687500
vt 0.937500 0.625000
vt 0.937500 0.562500
vt 0.937500 0.500000
vt 0.937500 0.437500
vt 0.937500 0.375000
vt 0.937500 0.312500
vt 0.937500 0.250000
vt 0.937500 0.187500
vt 0.937500 0.125000
vt 0.937500 0.062500
vt 0.906250 0.875000
vt 0.906250 0.812500
vt 0.906250 0.750000
vt 0.906250 0.687500
vt 0.906250 0.625000
vt 0.906250 0.562500
vt 0.906250 0.500000
vt 0.906250 0.437500
vt 0.906250 0.375000
vt 0.906250 0.312500
vt 0.906250 0.250000
vt 0.906250 0.187500
vt 0.906250 0.125000
vt 0.906250 0.062500
vt 0.875000 0.875000
vt 0.875000 0.812500
vt 0.875000 0.750000
vt 0.875000 0.687500
vt 0.875000 0.625000
vt 0.875000 0.562500
vt 0.875000 0.500000
vt 0.875000 0.437500
vt 0.875000 0.375000
vt 0.875000 0.312500
vt 0.875000 0.250000
vt 0.875000 0.187500
vt 0.875000 0.125000
vt 0.875000 0.062500
vt 0.843750 0.875000
vt 0.843750 0.812500
vt 0.843750 0.750000
vt 0.843750 0.687500
vt 0.843750 0.625000
vt 0.843750 0.562500
vt 0.843750 0.500000
vt 0.843750 0.437500
vt 0.843750 0.375000
vt 0.843750 0.312500
vt 0.843750 0.250000
vt 0.843750 0.187500
vt 0.843750 0.125000
vt 0.843750 0.062500
vt 0.812500 0.875000
vt 0.812500 0.812500
vt 0.812500 0.750000
vt 0.812500 0.687500
vt 0.812500 0.625000
vt 0.812500 0.562500
vt 0.812500 0.500000
vt 0.812500 0.437500
vt 0.812500 0.375000
vt 0.812500 0.312500
vt 0.812500 0.250000
vt 0.812500 0.187500
vt 0.812500 0.125000
vt 0.812500 0.062500
vt 0.781250 0.875000
vt 0.781250 0.812500
vt 0.781250 0.750000
vt 0.781250 0.687500
vt 0.781250 0.625000
vt 0.781250 0.562500
vt 0.781250 0.500000
vt 0.781250 0.437500
vt 0.781250 0.375000
vt 0.781250 0.312500
vt 0.781250 0.250000
vt 0.781250 0.187500
vt 0.781250 0.125000
vt 0.781250 0.062500
vt 0.750000 0.875000
vt 0.750000 0.750000
vt 0.750000 0.625000
vt 0.750000 0.375000
vt 0.750000 0.250000
vt 0.750000 0.187500
vt 0.750000 0.125000
vt 0.750000 0.062500
vt 0.718750 0.911585
vt 0.687500 0.911585
vt 0.656250 0.911585
vt 0.625000 0.911585
vt 0.593750 0.911585
vt 0.562500 0.911585
vt 0.531250 0.911585
vt 0.500000 0.911585
vt 0.468750 0.911585
vt 0.437500 0.911585
vt 0.406250 0.911585
vt 0.375000 0.911585
vt 0.343750 0.911585
vt 0.312500 0.911585
vt 0.281250 0.911585
vt 0.250000 0.911585
vt 0.218750 0.911585
vt 0.187500 0.911585
vt 0.156250 0.911585
vt 0.125000 0.911585
vt 0.093750 0.911585
vt 0.062500 0.911585
vt 0.031250 0.911585
vt 1.000000 0.911585
vt 0.000000 0.911585
vt 0.968750 0.911585
vt 0.937500 0.911585
vt 0.906250 0.911585
vt 0.875000 0.911585
vt 0.843750 0.911585
vt 0.812500 0.911585
vt 0.781250 0.911585
vt 0.750000 0.911585
vt 0.718750 0.937500
vt 0.718750 0.911585
vt 0.687500 0.937500
vt 0.687500 0.911585
vt 0.656250 0.937500
vt 0.656250 0.911585
vt 0.625000 0.937500
vt 0.625000 0.911585
vt 0.593750 0.937500
vt 0.593750 0.911585
vt 0.734375 1.000000
vt 0.703125 1.000000
vt 0.671875 1.000000
vt 0.640625 1.000000
vt 0.609375 1.000000
vt 0.578125 1.000000
vt 0.546875 1.000000
vt 0.515625 1.000000
vt 0.484375 1.000000
vt 0.453125 1.000000
vt 0.421875 1.000000
vt 0.390625 1.000000
vt 0.359375 1.000000
vt 0.328125 1.000000
vt 0.296875 1.000000
vt 0.265625 1.000000
vt 0.234375 1.000000
vt 0.203125 1.000000
vt 0.171875 1.000000
vt 0.140625 1.000000
vt 0.109375 1.000000
vt 0.078125 1.000000
vt 0.046875 1.000000
vt 0.015625 1.000000
vt 0.984375 1.000000
vt 0.953125 1.000000
vt 0.921875 1.000000
vt 0.890625 1.000000
vt 0.859375 1.000000
vt 0.828125 1.000000
vt 0.796875 1.000000
vt 0.765625 1.000000
vt 0.562500 0.937500
vt 0.562500 0.911585
vt 0.531250 0.937500
vt 0.531250 0.911585
vt 0.500000 0.937500
vt 0.500000 0.911585
vt 0.468750 0.937500
vt 0.468750 0.911585
vt 0.437500 0.937500
vt 0.437500 0.911585
vt 0.406250 0.937500
vt 0.406250 0.911585
vt 0.375000 0.937500
vt 0.375000 0.911585
vt 0.343750 0.937500
vt 0.343750 0.911585
vt 0.312500 0.937500
vt 0.312500 0.911585
vt 0.281250 0.937500
vt 0.281250 0.911585
vt 0.250000 0.937500
vt 0.250000 0.911585
vt 0.218750 0.937500
vt 0.218750 0.911585
vt 0.187500 0.937500
vt 0.187500 0.911585
vt 0.156250 0.937500
vt 0.156250 0.911585
vt 0.125000 0.937500
vt 0.125000 0.911585
vt 0.093750 0.937500
vt 0.093750 0.911585
vt 0.062500 0.937500
vt 0.062500 0.911585
vt 0.031250 0.937500
vt 0.031250 0.911585
vt 0.000000 0.937500
vt 1.000000 0.937500
vt 1.000000 0.911585
vt 0.000000 0.911585
vt 0.968750 0.937500
vt 0.968750 0.911585
vt 0.937500 0.937500
vt 0.937500 0.911585
vt 0.906250 0.937500
vt 0.906250 0.911585
vt 0.875000 0.937500
vt 0.875000 0.911585
vt 0.843750 0.937500
vt 0.843750 0.911585
vt 0.812500 0.937500
vt 0.812500 0.911585
vt 0.781250 0.937500
vt 0.781250 0.911585
vt 0.750000 0.937500
vt 0.750000 0.911585
s 0
f 2/2/1 66/101/1 65/98/1
f 4/6/2 67/103/2 66/101/2
f 6/9/3 68/105/3 67/103/3
f 8/12/4 69/107/4 68/105/4
f 10/15/5 70/109/5 69/107/5
f 12/18/6 71/111/6 70/109/6
f 14/21/7 72/113/7 71/111/7
f 16/24/8 73/115/8 72/113/8
f 18/27/9 74/117/9 73/115/9
f 20/30/10 75/119/10 74/117/10
f 22/33/11 76/121/11 75/119/11
f 24/36/12 77/123/12 76/121/12
f 26/39/13 78/125/13 77/123/13
f 28/42/14 79/127/14 78/125/14
f 30/45/15 80/129/15 79/127/15
f 32/48/16 81/131/16 80/129/16
f 34/51/17 82/133/17 81/131/17
f 36/54/18 83/135/18 82/133/18
f 38/57/19 84/137/19 83/135/19
f 40/60/20 85/139/20 84/137/20
f 42/63/21 86/141/21 85/139/21
f 44/66/22 87/143/22 86/141/22
f 46/69/23 88/145/23 87/143/23
f 48/72/24 89/147/24 88/145/24
f 50/75/25 90/149/25 89/147/25
f 52/78/26 91/151/26 90/149/26
f 54/81/27 92/153/27 91/151/27
f 56/84/28 93/155/28 92/153/28
f 58/87/29 94/157/29 93/155/29
f 60/90/30 95/159/30 94/157/30
f 38/58/31 22/34/31 6/10/31
f 62/94/32 96/161/32 95/159/32
f 64/97/33 65/99/33 96/161/33
f 31/47/34 47/71/34 63/95/34
f 97/163/34 66/102/34 98/164/34
f 99/165/34 66/102/34 67/104/34
f 99/165/34 68/106/34 100/166/34
f 100/166/34 69/108/34 101/167/34
f 101/167/34 70/110/34 102/168/34
f 102/168/34 71/112/34 103/169/34
f 103/169/34 72/114/34 104/170/34
f 105/171/34 72/114/34 73/116/34
f 105/171/34 74/118/34 106/172/34
f 107/173/34 74/118/34 75/120/34
f 107/173/34 76/122/34 108/174/34
f 108/174/34 77/124/34 109/175/34
f 109/175/34 78/126/34 110/176/34
f 110/176/34 79/128/34 111/177/34
f 111/177/34 80/130/34 112/178/34
f 113/179/34 80/130/34 81/132/34
f 113/179/34 82/134/34 114/180/34
f 115/181/34 82/134/34 83/136/34
f 115/181/34 84/138/34 116/182/34
f 116/182/34 85/140/34 117/183/34
f 117/183/34 86/142/34 118/184/34
f 118/184/34 87/144/34 119/185/34
f 119/185/34 88/146/34 120/186/34
f 121/187/34 88/146/34 89/148/34
f 121/187/34 90/150/34 122/188/34
f 123/189/34 90/150/34 91/152/34
f 123/189/34 92/154/34 124/190/34
f 124/190/34 93/156/34 125/191/34
f 125/191/34 94/158/34 126/192/34
f 126/192/34 95/160/34 127/193/34
f 127/193/34 96/162/34 128/194/34
f 97/163/34 96/162/34 65/100/34
f 1/1/35 98/164/35 3/5/35
f 3/5/36 99/165/36 5/8/36
f 5/8/37 100/166/37 7/11/37
f 7/11/38 101/167/38 9/14/38
f 9/14/39 102/168/39 11/17/39
f 11/17/40 103/169/40 13/20/40
f 13/20/41 104/170/41 15/23/41
f 15/23/42 105/171/42 17/26/42
f 17/26/43 106/172/43 19/29/43
f 19/29/44 107/173/44 21/32/44
f 21/32/45 108/174/45 23/35/45
f 23/35/46 109/175/46 25/38/46
f 25/38/47 110/176/47 27/41/47
f 27/41/48 111/177/48 29/44/48
f 29/44/49 112/178/49 31/47/49
f 31/47/50 113/179/50 33/50/50
f 33/50/51 114/180/51 35/53/51
f 35/53/52 115/181/52 37/56/52
f 37/56/53 116/182/53 39/59/53
f 39/59/54 117/183/54 41/62/54
f 41/62/55 118/184/55 43/65/55
f 43/65/56 119/185/56 45/68/56
f 45/68/57 120/186/57 47/71/57
f 47/71/58 121/187/58 49/74/58
f 49/74/59 122/188/59 51/77/59
f 51/77/60 123/189/60 53/80/60
f 53/80/61 124/190/61 55/83/61
f 55/83/62 125/191/62 57/86/62
f 57/86/63 126/192/63 59/89/63
f 59/89/64 127/193/64 61/92/64
f 61/92/65 128/194/65 63/95/65
f 63/95/66 97/163/66 1/1/66
f 573/684/67 144/210/67 134/200/67
f 571/682/68 136/202/68 137/203/68
f 574/685/69 144/210/69 145/211/69
f 130/196/70 137/203/70 138/204/70
f 574/685/71 146/212/71 575/686/71
f 572/683/72 138/204/72 139/205/72
f 575/686/73 147/213/73 576/687/73
f 572/683/74 140/206/74 131/197/74
f 576/687/75 148/214/75 577/688/75
f 132/198/76 140/206/76 141/207/76
f 415/481/77 577/688/77 148/214/77
f 133/199/78 141/207/78 142/208/78
f 573/684/79 142/208/79 143/209/79
f 570/681/80 136/202/80 129/195/80
f 142/208/81 157/223/81 143/209/81
f 136/202/82 149/215/82 150/216/82
f 144/210/83 157/223/83 158/224/83
f 136/202/84 151/217/84 137/203/84
f 145/211/85 158/224/85 159/225/85
f 137/203/86 152/218/86 138/204/86
f 145/211/87 160/226/87 146/212/87
f 138/204/88 153/219/88 139/205/88
f 147/213/89 160/226/89 161/227/89
f 140/206/90 153/219/90 154/220/90
f 148/214/91 161/227/91 162/228/91
f 140/206/92 155/221/92 141/207/92
f 415/482/93 148/214/93 162/228/93
f 141/207/94 156/222/94 142/208/94
f 160/226/95 175/241/95 161/227/95
f 154/220/96 167/233/96 168/234/96
f 161/227/97 176/242/97 162/228/97
f 154/220/98 169/235/98 155/221/98
f 415/483/99 162/228/99 176/242/99
f 155/221/100 170/236/100 156/222/100
f 156/222/101 171/237/101 157/223/101
f 150/216/102 163/229/102 164/230/102
f 157/223/103 172/238/103 158/224/103
f 150/216/104 165/231/104 151/217/104
f 158/224/105 173/239/105 159/225/105
f 151/217/106 166/232/106 152/218/106
f 159/225/107 174/240/107 160/226/107
f 152/218/108 167/233/108 153/219/108
f 163/229/109 178/244/109 164/230/109
f 172/238/110 185/251/110 186/252/110
f 165/231/111 178/244/111 179/245/111
f 173/239/112 186/252/112 187/253/112
f 165/231/113 180/246/113 166/232/113
f 173/239/114 188/254/114 174/240/114
f 166/232/115 181/247/115 167/233/115
f 175/241/116 188/254/116 189/255/116
f 168/234/117 181/247/117 182/248/117
f 175/241/118 190/256/118 176/242/118
f 168/234/119 183/249/119 169/235/119
f 415/484/120 176/242/120 190/256/120
f 169/235/121 184/250/121 170/236/121
f 170/236/122 185/251/122 171/237/122
f 182/248/123 195/261/123 196/262/123
f 189/255/124 204/270/124 190/256/124
f 182/248/125 197/263/125 183/249/125
f 415/485/126 190/256/126 204/270/126
f 183/249/127 198/264/127 184/250/127
f 184/250/128 199/265/128 185/251/128
f 178/244/129 191/257/129 192/258/129
f 186/252/130 199/265/130 200/266/130
f 178/244/131 193/259/131 179/245/131
f 187/253/132 200/266/132 201/267/132
f 179/245/133 194/260/133 180/246/133
f 188/254/134 201/267/134 202/268/134
f 180/246/135 195/261/135 181/247/135
f 188/254/136 203/269/136 189/255/136
f 200/266/137 213/279/137 214/280/137
f 192/258/138 207/273/138 193/259/138
f 200/266/139 215/281/139 201/267/139
f 193/259/140 208/274/140 194/260/140
f 202/268/141 215/281/141 216/282/141
f 195/261/142 208/274/142 209/275/142
f 203/269/143 216/282/143 217/283/143
f 196/262/144 209/275/144 210/276/144
f 203/269/145 218/284/145 204/270/145
f 197/263/146 210/276/146 211/277/146
f 415/486/147 204/270/147 218/284/147
f 197/263/148 212/278/148 198/264/148
f 198/264/149 213/279/149 199/265/149
f 191/257/150 206/272/150 192/258/150
f 217/283/151 232/298/151 218/284/151
f 210/276/152 225/291/152 211/277/152
f 415/487/153 218/284/153 232/298/153
f 211/277/154 226/292/154 212/278/154
f 212/278/155 227/293/155 213/279/155
f 206/272/156 219/285/156 220/286/156
f 214/280/157 227/293/157 228/294/157
f 206/272/158 221/287/158 207/273/158
f 214/280/159 229/295/159 215/281/159
f 208/274/160 221/287/160 222/288/160
f 216/282/161 229/295/161 230/296/161
f 208/274/162 223/289/162 209/275/162
f 216/282/163 231/297/163 217/283/163
f 210/276/164 223/289/164 224/290/164
f 229/295/165 242/308/165 243/309/165
f 222/288/166 235/301/166 236/302/166
f 230/296/167 243/309/167 244/310/167
f 222/288/168 237/303/168 223/289/168
f 230/296/169 245/311/169 231/297/169
f 224/290/170 237/303/170 238/304/170
f 231/297/171 246/312/171 232/298/171
f 224/290/172 239/305/172 225/291/172
f 415/488/173 232/298/173 246/312/173
f 225/291/174 240/306/174 226/292/174
f 226/292/175 241/307/175 227/293/175
f 220/286/176 233/299/176 234/300/176
f 228/294/177 241/307/177 242/308/177
f 220/286/178 235/301/178 221/287/178
f 415/489/179 246/312/179 260/326/179
f 239/305/180 254/320/180 240/306/180
f 240/306/181 255/321/181 241/307/181
f 234/300/182 247/313/182 248/314/182
f 242/308/183 255/321/183 256/322/183
f 234/300/184 249/315/184 235/301/184
f 242/308/185 257/323/185 243/309/185
f 236/302/186 249/315/186 250/316/186
f 244/310/187 257/323/187 258/324/187
f 236/302/188 251/317/188 237/303/188
f 244/310/189 259/325/189 245/311/189
f 237/303/190 252/318/190 238/304/190
f 245/311/191 260/326/191 246/312/191
f 239/305/192 252/318/192 253/319/192
f 249/315/193 264/330/193 250/316/193
f 257/323/194 272/338/194 258/324/194
f 250/316/195 265/331/195 251/317/195
f 258/324/196 273/339/196 259/325/196
f 252/318/197 265/331/197 266/332/197
f 260/326/198 273/339/198 274/340/198
f 253/319/199 266/332/199 267/333/199
f 415/490/200 260/326/200 274/340/200
f 253/319/201 268/334/201 254/320/201
f 254/320/202 269/335/202 255/321/202
f 248/314/203 261/327/203 262/328/203
f 256/322/204 269/335/204 270/336/204
f 248/314/205 263/329/205 249/315/205
f 256/322/206 271/337/206 257/323/206
f 267/333/207 282/348/207 268/334/207
f 268/334/208 283/349/208 269/335/208
f 262/328/209 275/341/209 276/342/209
f 269/335/210 284/350/210 270/336/210
f 262/328/211 277/343/211 263/329/211
f 271/337/212 284/350/212 285/351/212
f 264/330/213 277/343/213 278/344/213
f 272/338/214 285/351/214 286/352/214
f 264/330/215 279/345/215 265/331/215
f 272/338/216 287/353/216 273/339/216
f 266/332/217 279/345/217 280/346/217
f 274/340/218 287/353/218 288/354/218
f 267/333/219 280/346/219 281/347/219
f 415/491/220 274/340/220 288/354/220
f 286/352/221 299/365/221 300/366/221
f 278/344/222 293/359/222 279/345/222
f 286/352/223 301/367/223 287/353/223
f 280/346/224 293/359/224 294/360/224
f 287/353/225 302/368/225 288/354/225
f 281/347/226 294/360/226 295/361/226
f 415/492/227 288/354/227 302/368/227
f 281/347/228 296/362/228 282/348/228
f 282/348/229 297/363/229 283/349/229
f 276/342/230 289/355/230 290/356/230
f 284/350/231 297/363/231 298/364/231
f 276/342/232 291/357/232 277/343/232
f 285/351/233 298/364/233 299/365/233
f 278/344/234 291/357/234 292/358/234
f 296/362/235 311/377/235 297/363/235
f 290/356/236 303/369/236 304/370/236
f 298/364/237 311/377/237 312/378/237
f 290/356/238 305/371/238 291/357/238
f 298/364/239 313/379/239 299/365/239
f 292/358/240 305/371/240 306/372/240
f 299/365/241 314/380/241 300/366/241
f 292/358/242 307/373/242 293/359/242
f 300/366/243 315/381/243 301/367/243
f 294/360/244 307/373/244 308/374/244
f 301/367/245 316/382/245 302/368/245
f 295/361/246 308/374/246 309/375/246
f 415/493/247 302/368/247 316/382/247
f 295/361/248 310/376/248 296/362/248
f 306/372/249 321/387/249 307/373/249
f 315/381/250 328/394/250 329/395/250
f 308/374/251 321/387/251 322/388/251
f 315/381/252 330/396/252 316/382/252
f 309/375/253 322/388/253 323/389/253
f 415/494/254 316/382/254 330/396/254
f 309/375/255 324/390/255 310/376/255
f 310/376/256 325/391/256 311/377/256
f 304/370/257 317/383/257 318/384/257
f 312/378/258 325/391/258 326/392/258
f 305/371/259 318/384/259 319/385/259
f 313/379/260 326/392/260 327/393/260
f 305/371/261 320/386/261 306/372/261
f 314/380/262 327/393/262 328/394/262
f 324/390/263 339/405/263 325/391/263
f 318/384/264 331/397/264 332/398/264
f 326/392/265 339/405/265 340/406/265
f 318/384/266 333/399/266 319/385/266
f 326/392/267 341/407/267 327/393/267
f 320/386/268 333/399/268 334/400/268
f 328/394/269 341/407/269 342/408/269
f 321/387/270 334/400/270 335/401/270
f 328/394/271 343/409/271 329/395/271
f 322/388/272 335/401/272 336/402/272
f 329/395/273 344/410/273 330/396/273
f 323/389/274 336/402/274 337/403/274
f 415/495/275 330/396/275 344/410/275
f 323/389/276 338/404/276 324/390/276
f 342/408/277 357/423/277 343/409/277
f 336/402/278 349/415/278 350/416/278
f 343/409/279 358/424/279 344/410/279
f 337/403/280 350/416/280 351/417/280
f 415/496/281 344/410/281 358/424/281
f 337/403/282 352/418/282 338/404/282
f 338/404/283 353/419/283 339/405/283
f 332/398/284 345/411/284 346/412/284
f 340/406/285 353/419/285 354/420/285
f 332/398/286 347/413/286 333/399/286
f 341/407/287 354/420/287 355/421/287
f 334/400/288 347/413/288 348/414/288
f 341/407/289 356/422/289 342/408/289
f 334/400/290 349/415/290 335/401/290
f 354/420/291 367/433/291 368/434/291
f 346/412/292 361/427/292 347/413/292
f 355/421/293 368/434/293 369/435/293
f 347/413/294 362/428/294 348/414/294
f 356/422/295 369/435/295 370/436/295
f 348/414/296 363/429/296 349/415/296
f 357/423/297 370/436/297 371/437/297
f 350/416/298 363/429/298 364/430/298
f 357/423/299 372/438/299 358/424/299
f 351/417/300 364/430/300 365/431/300
f 580/691/4 617/729/4 581/692/4
f 415/497/301 358/424/301 372/438/301
f 351/417/302 366/432/302 352/418/302
f 593/704/17 644/787/17 594/705/17
f 352/418/303 367/433/303 353/419/303
f 345/411/304 360/426/304 346/412/304
f 371/437/305 386/452/305 372/438/305
f 365/431/306 378/444/306 379/445/306
f 606/718/30 670/815/30 607/719/30
f 415/498/307 372/438/307 386/452/307
f 365/431/308 380/446/308 366/432/308
f 579/690/3 615/727/3 580/691/3
f 366/432/309 381/447/309 367/433/309
f 360/426/310 373/439/310 374/440/310
f 368/434/311 381/447/311 382/448/311
f 360/426/312 375/441/312 361/427/312
f 368/434/313 383/449/313 369/435/313
f 362/428/314 375/441/314 376/442/314
f 370/436/315 383/449/315 384/450/315
f 362/428/316 377/443/316 363/429/316
f 371/437/317 384/450/317 385/451/317
f 364/430/318 377/443/318 378/444/318
f 374/440/319 389/455/319 375/441/319
f 382/448/320 397/463/320 383/449/320
f 375/441/321 390/456/321 376/442/321
f 384/450/322 397/463/322 398/464/322
f 376/442/323 391/457/323 377/443/323
f 385/451/324 398/464/324 399/465/324
f 378/444/325 391/457/325 392/458/325
f 385/451/326 400/466/326 386/452/326
f 379/445/327 392/458/327 393/459/327
f 592/703/16 642/785/16 593/704/16
f 415/499/328 386/452/328 400/466/328
f 379/445/329 394/460/329 380/446/329
f 605/717/29 668/813/29 606/718/29
f 380/446/330 395/461/330 381/447/330
f 374/440/331 387/453/331 388/454/331
f 382/448/332 395/461/332 396/462/332
f 393/459/333 406/472/333 407/473/333
f 578/689/2 613/725/2 579/690/2
f 415/500/334 400/466/334 414/480/334
f 393/459/335 408/474/335 394/460/335
f 591/702/15 640/783/15 592/703/15
f 394/460/336 409/475/336 395/461/336
f 387/453/337 402/468/337 388/454/337
f 395/461/338 410/476/338 396/462/338
f 388/454/339 403/469/339 389/455/339
f 396/462/340 411/477/340 397/463/340
f 390/456/341 403/469/341 404/470/341
f 398/464/342 411/477/342 412/478/342
f 390/456/343 405/471/343 391/457/343
f 398/464/344 413/479/344 399/465/344
f 392/458/345 405/471/345 406/472/345
f 399/465/346 414/480/346 400/466/346
f 410/476/347 426/523/347 411/477/347
f 404/470/348 418/515/348 419/516/348
f 412/478/349 426/523/349 427/524/349
f 404/470/350 420/517/350 405/471/350
f 412/478/351 428/525/351 413/479/351
f 405/471/352 421/518/352 406/472/352
f 413/479/353 429/526/353 414/480/353
f 407/473/354 421/518/354 422/519/354
f 604/716/28 666/811/28 605/717/28
f 415/501/355 414/480/355 429/526/355
f 407/473/356 423/520/356 408/474/356
f 590/701/14 638/781/14 591/702/14
f 408/474/357 424/521/357 409/475/357
f 402/468/358 416/513/358 417/514/358
f 410/476/359 424/521/359 425/522/359
f 402/468/360 418/515/360 403/469/360
f 603/715/27 664/809/27 604/716/27
f 415/502/361 429/526/361 443/540/361
f 422/519/362 437/534/362 423/520/362
f 589/700/13 636/779/13 590/701/13
f 423/520/363 438/535/363 424/521/363
f 417/514/364 430/527/364 431/528/364
f 425/522/365 438/535/365 439/536/365
f 417/514/366 432/529/366 418/515/366
f 425/522/367 440/537/367 426/523/367
f 419/516/368 432/529/368 433/530/368
f 426/523/369 441/538/369 427/524/369
f 419/516/370 434/531/370 420/517/370
f 428/525/371 441/538/371 442/539/371
f 421/518/372 434/531/372 435/532/372
f 429/526/373 442/539/373 443/540/373
f 422/519/374 435/532/374 436/533/374
f 432/529/375 447/544/375 433/530/375
f 441/538/376 454/551/376 455/552/376
f 433/530/377 448/545/377 434/531/377
f 441/538/378 456/553/378 442/539/378
f 435/532/379 448/545/379 449/546/379
f 442/539/380 457/554/380 443/540/380
f 436/533/381 449/546/381 450/547/381
f 602/714/26 662/807/26 603/715/26
f 415/503/382 443/540/382 457/554/382
f 436/533/383 451/548/383 437/534/383
f 588/699/12 634/777/12 589/700/12
f 437/534/384 452/549/384 438/535/384
f 431/528/385 444/541/385 445/542/385
f 439/536/386 452/549/386 453/550/386
f 431/528/387 446/543/387 432/529/387
f 439/536/388 454/551/388 440/537/388
f 450/547/389 465/569/389 451/548/389
f 601/712/25 660/805/25 602/714/25
f 451/548/390 466/571/390 452/549/390
f 445/542/391 458/555/391 459/557/391
f 452/549/392 467/573/392 453/550/392
f 445/542/393 460/559/393 446/543/393
f 453/550/394 468/575/394 454/551/394
f 447/544/395 460/559/395 461/561/395
f 455/552/396 468/575/396 469/577/396
f 447/544/397 462/563/397 448/545/397
f 455/552/398 470/579/398 456/553/398
f 449/546/399 462/563/399 463/565/399
f 456/553/400 471/581/400 457/554/400
f 450/547/401 463/565/401 464/567/401
f 587/698/11 632/775/11 588/699/11
f 415/504/402 457/554/402 471/581/402
f 468/576/403 483/594/403 469/578/403
f 461/562/404 476/587/404 462/564/404
f 469/578/405 484/595/405 470/580/405
f 463/566/406 476/587/406 477/588/406
f 471/582/407 484/595/407 485/596/407
f 464/568/408 477/588/408 478/589/408
f 600/711/24 658/803/24 601/713/24
f 415/505/409 471/582/409 485/596/409
f 464/568/410 479/590/410 465/570/410
f 586/697/10 630/773/10 587/698/10
f 465/570/411 480/591/411 466/572/411
f 459/558/412 472/583/412 473/584/412
f 467/574/413 480/591/413 481/592/413
f 459/558/414 474/585/414 460/560/414
f 467/574/415 482/593/415 468/576/415
f 461/562/416 474/585/416 475/586/416
f 479/590/417 494/605/417 480/591/417
f 472/583/418 487/598/418 473/584/418
f 481/592/419 494/605/419 495/606/419
f 473/584/420 488/599/420 474/585/420
f 481/592/421 496/607/421 482/593/421
f 475/586/422 488/599/422 489/600/422
f 483/594/423 496/607/423 497/608/423
f 476/587/424 489/600/424 490/601/424
f 484/595/425 497/608/425 498/609/425
f 477/588/426 490/601/426 491/602/426
f 485/596/427 498/609/427 499/610/427
f 478/589/428 491/602/428 492/603/428
f 599/710/23 656/799/23 600/711/23
f 415/506/429 485/596/429 499/610/429
f 478/589/430 493/604/430 479/590/430
f 585/696/9 628/771/9 586/697/9
f 497/608/431 512/623/431 498/609/431
f 491/602/432 504/615/432 505/616/432
f 499/610/433 512/623/433 513/624/433
f 492/603/434 505/616/434 506/617/434
f 598/709/22 654/797/22 599/710/22
f 415/507/435 499/610/435 513/624/435
f 492/603/436 507/618/436 493/604/436
f 584/695/8 626/769/8 585/696/8
f 493/604/437 508/619/437 494/605/437
f 487/598/438 500/611/438 501/612/438
f 495/606/439 508/619/439 509/620/439
f 487/598/440 502/613/440 488/599/440
f 495/606/441 510/621/441 496/607/441
f 489/600/442 502/613/442 503/614/442
f 497/608/443 510/621/443 511/622/443
f 489/600/444 504/615/444 490/601/444
f 501/612/445 514/625/445 515/626/445
f 509/620/446 522/633/446 523/634/446
f 501/612/447 516/627/447 502/613/447
f 509/620/448 524/635/448 510/621/448
f 503/614/449 516/627/449 517/628/449
f 511/622/450 524/635/450 525/636/450
f 503/614/451 518/629/451 504/615/451
f 511/622/452 526/637/452 512/623/452
f 505/616/453 518/629/453 519/630/453
f 512/623/454 527/638/454 513/624/454
f 506/617/455 519/630/455 520/631/455
f 597/708/21 652/795/21 598/709/21
f 415/508/456 513/624/456 527/638/456
f 506/617/457 521/632/457 507/618/457
f 583/694/7 624/767/7 584/695/7
f 507/618/458 522/633/458 508/619/458
f 519/630/459 532/643/459 533/644/459
f 527/638/460 540/651/460 541/652/460
f 520/631/461 533/644/461 534/645/461
f 596/707/20 650/793/20 597/708/20
f 415/509/462 527/638/462 541/652/462
f 520/631/463 535/646/463 521/632/463
f 609/721/1 611/723/1 578/689/1
f 521/632/464 536/647/464 522/633/464
f 515/626/465 528/639/465 529/640/465
f 523/634/466 536/647/466 537/648/466
f 515/626/467 530/641/467 516/627/467
f 523/634/468 538/649/468 524/635/468
f 517/628/469 530/641/469 531/642/469
f 525/636/470 538/649/470 539/650/470
f 517/628/471 532/643/471 518/629/471
f 526/637/472 539/650/472 540/651/472
f 537/648/473 550/661/473 551/662/473
f 530/641/474 543/654/474 544/655/474
f 537/648/475 552/663/475 538/649/475
f 530/641/476 545/656/476 531/642/476
f 539/650/477 552/663/477 553/664/477
f 531/642/478 546/657/478 532/643/478
f 539/650/479 554/665/479 540/651/479
f 533/644/480 546/657/480 547/658/480
f 540/651/481 555/666/481 541/652/481
f 534/645/482 547/658/482 548/659/482
f 582/693/6 622/765/6 583/694/6
f 415/510/483 541/652/483 555/666/483
f 534/645/484 549/660/484 535/646/484
f 595/706/19 648/791/19 596/707/19
f 535/646/485 550/661/485 536/647/485
f 529/640/486 542/653/486 543/654/486
f 554/665/487 569/680/487 555/666/487
f 548/659/488 561/672/488 562/673/488
f 608/720/33 674/819/33 609/721/33
f 415/511/489 555/666/489 569/680/489
f 548/659/490 563/674/490 549/660/490
f 581/692/5 619/731/5 582/693/5
f 549/660/491 564/675/491 550/661/491
f 543/654/492 556/667/492 557/668/492
f 551/662/493 564/675/493 565/676/493
f 543/654/494 558/669/494 544/655/494
f 551/662/495 566/677/495 552/663/495
f 545/656/496 558/669/496 559/670/496
f 553/664/497 566/677/497 567/678/497
f 546/657/498 559/670/498 560/671/498
f 553/664/499 568/679/499 554/665/499
f 547/658/500 560/671/500 561/672/500
f 558/669/501 129/195/501 571/682/501
f 565/676/502 574/685/502 566/677/502
f 558/669/503 130/196/503 559/670/503
f 567/678/504 574/685/504 575/686/504
f 559/670/505 572/683/505 560/671/505
f 567/678/506 576/687/506 568/679/506
f 561/672/507 572/683/507 131/197/507
f 569/680/508 576/687/508 577/688/508
f 562/673/509 131/197/509 132/198/509
f 594/705/18 646/789/18 595/706/18
f 415/512/510 569/680/510 577/688/510
f 562/673/511 133/199/511 563/674/511
f 607/719/32 672/817/32 608/720/32
f 563/674/512 573/684/512 564/675/512
f 557/668/513 570/681/513 129/195/513
f 565/676/514 573/684/514 134/200/514
f 578/689/31 149/215/31 135/201/31
f 580/691/31 149/215/31 579/690/31
f 580/691/31 177/243/31 163/229/31
f 582/693/31 177/243/31 581/692/31
f 582/693/31 205/271/31 191/257/31
f 584/695/31 205/271/31 583/694/31
f 584/695/31 233/299/31 219/285/31
f 586/697/31 233/299/31 585/696/31
f 586/697/31 261/327/31 247/313/31
f 588/699/31 261/327/31 587/698/31
f 589/700/31 275/341/31 588/699/31
f 589/700/31 303/369/31 289/355/31
f 591/702/31 303/369/31 590/701/31
f 592/703/31 317/383/31 591/702/31
f 592/703/31 345/411/31 331/397/31
f 594/705/31 345/411/31 593/704/31
f 595/706/31 359/425/31 594/705/31
f 596/707/31 373/439/31 595/706/31
f 596/707/31 401/467/31 387/453/31
f 598/709/31 401/467/31 597/708/31
f 599/710/31 416/513/31 598/709/31
f 600/711/31 430/527/31 599/710/31
f 600/711/31 458/555/31 444/541/31
f 602/714/31 458/556/31 601/712/31
f 603/715/31 472/583/31 602/714/31
f 604/716/31 486/597/31 603/715/31
f 605/717/31 500/611/31 604/716/31
f 606/718/31 514/625/31 605/717/31
f 606/718/31 542/653/31 528/639/31
f 608/720/31 542/653/31 607/719/31
f 608/720/31 570/681/31 556/667/31
f 578/689/31 570/681/31 609/721/31
f 673/818/31 620/732/31 610/722/31
f 674/819/31 610/722/31 611/723/31
f 610/722/31 620/733/31 612/724/31
f 610/722/31 613/725/31 611/723/31
f 612/724/31 620/734/31 614/726/31
f 613/725/31 614/726/31 615/727/31
f 614/726/31 620/735/31 616/728/31
f 614/726/31 617/729/31 615/727/31
f 616/728/31 620/736/31 618/730/31
f 616/728/31 619/731/31 617/729/31
f 618/730/31 620/737/31 621/764/31
f 618/730/31 622/765/31 619/731/31
f 621/764/31 620/738/31 623/766/31
f 621/764/31 624/767/31 622/765/31
f 623/766/31 620/739/31 625/768/31
f 623/766/31 626/769/31 624/767/31
f 625/768/31 620/740/31 627/770/31
f 625/768/31 628/771/31 626/769/31
f 627/770/31 620/741/31 629/772/31
f 627/770/31 630/773/31 628/771/31
f 629/772/31 632/775/31 630/773/31
f 629/772/31 620/742/31 631/774/31
f 631/774/31 620/743/31 633/776/31
f 631/774/31 634/777/31 632/775/31
f 633/776/31 636/779/31 634/777/31
f 633/776/31 620/744/31 635/778/31
f 635/778/31 620/745/31 637/780/31
f 635/778/31 638/781/31 636/779/31
f 637/780/31 620/746/31 639/782/31
f 637/780/31 640/783/31 638/781/31
f 639/782/31 620/747/31 641/784/31
f 639/782/31 642/785/31 640/783/31
f 641/784/31 620/748/31 643/786/31
f 641/784/31 644/787/31 642/785/31
f 643/786/31 620/749/31 645/788/31
f 643/786/31 646/789/31 644/787/31
f 645/788/31 620/750/31 647/790/31
f 645/788/31 648/791/31 646/789/31
f 647/790/31 620/751/31 649/792/31
f 647/790/31 650/793/31 648/791/31
f 649/792/31 620/752/31 651/794/31
f 649/792/31 652/795/31 650/793/31
f 651/794/31 620/753/31 653/796/31
f 651/794/31 654/797/31 652/795/31
f 653/796/31 620/754/31 655/798/31
f 653/796/31 656/799/31 654/797/31
f 655/798/31 658/803/31 656/799/31
f 655/798/31 620/755/31 657/800/31
f 657/801/31 620/756/31 659/804/31
f 657/801/31 660/805/31 658/802/31
f 659/804/31 620/757/31 661/806/31
f 659/804/31 662/807/31 660/805/31
f 661/806/31 620/758/31 663/808/31
f 661/806/31 664/809/31 662/807/31
f 663/808/31 620/759/31 665/810/31
f 663/808/31 666/811/31 664/809/31
f 665/810/31 620/760/31 667/812/31
f 665/810/31 668/813/31 666/811/31
f 667/812/31 620/761/31 669/814/31
f 667/812/31 670/815/31 668/813/31
f 669/814/31 620/762/31 671/816/31
f 670/815/31 671/816/31 672/817/31
f 671/816/31 620/763/31 673/818/31
f 671/816/31 674/819/31 672/817/31
f 2/2/1 4/6/1 66/101/1
f 4/6/2 6/9/2 67/103/2
f 6/9/3 8/12/3 68/105/3
f 8/12/4 10/15/4 69/107/4
f 10/15/5 12/18/5 70/109/5
f 12/18/6 14/21/6 71/111/6
f 14/21/7 16/24/7 72/113/7
f 16/24/8 18/27/8 73/115/8
f 18/27/9 20/30/9 74/117/9
f 20/30/10 22/33/10 75/119/10
f 22/33/11 24/36/11 76/121/11
f 24/36/12 26/39/12 77/123/12
f 26/39/13 28/42/13 78/125/13
f 28/42/14 30/45/14 79/127/14
f 30/45/15 32/48/15 80/129/15
f 32/48/16 34/51/16 81/131/16
f 34/51/17 36/54/17 82/133/17
f 36/54/18 38/57/18 83/135/18
f 38/57/19 40/60/19 84/137/19
f 40/60/20 42/63/20 85/139/20
f 42/63/21 44/66/21 86/141/21
f 44/66/22 46/69/22 87/143/22
f 46/69/23 48/72/23 88/145/23
f 48/72/24 50/75/24 89/147/24
f 50/75/25 52/78/25 90/149/25
f 52/78/26 54/81/26 91/151/26
f 54/81/27 56/84/27 92/153/27
f 56/84/28 58/87/28 93/155/28
f 58/87/29 60/90/29 94/157/29
f 60/90/30 62/94/30 95/159/30
f 6/10/31 4/7/31 2/3/31
f 2/3/31 64/96/31 62/93/31
f 62/93/31 60/91/31 58/88/31
f 58/88/31 56/85/31 54/82/31
f 54/82/31 52/79/31 50/76/31
f 50/76/31 48/73/31 46/70/31
f 46/70/31 44/67/31 42/64/31
f 42/64/31 40/61/31 38/58/31
f 38/58/31 36/55/31 34/52/31
f 34/52/31 32/49/31 30/46/31
f 30/46/31 28/43/31 26/40/31
f 26/40/31 24/37/31 22/34/31
f 22/34/31 20/31/31 18/28/31
f 18/28/31 16/25/31 14/22/31
f 14/22/31 12/19/31 10/16/31
f 10/16/31 8/13/31 6/10/31
f 6/10/31 2/3/31 62/93/31
f 62/93/31 58/88/31 54/82/31
f 54/82/31 50/76/31 46/70/31
f 46/70/31 42/64/31 38/58/31
f 38/58/31 34/52/31 30/46/31
f 30/46/31 26/40/31 22/34/31
f 22/34/31 18/28/31 14/22/31
f 14/22/31 10/16/31 6/10/31
f 6/10/31 62/93/31 54/82/31
f 54/82/31 46/70/31 38/58/31
f 38/58/31 30/46/31 22/34/31
f 22/34/31 14/22/31 6/10/31
f 6/10/31 54/82/31 38/58/31
f 62/94/32 64/97/32 96/161/32
f 64/97/33 2/4/33 65/99/33
f 63/95/34 1/1/34 3/5/34
f 3/5/34 5/8/34 7/11/34
f 7/11/34 9/14/34 11/17/34
f 11/17/34 13/20/34 15/23/34
f 15/23/34 17/26/34 19/29/34
f 19/29/34 21/32/34 23/35/34
f 23/35/34 25/38/34 27/41/34
f 27/41/34 29/44/34 31/47/34
f 31/47/34 33/50/34 35/53/34
f 35/53/34 37/56/34 39/59/34
f 39/59/34 41/62/34 43/65/34
f 43/65/34 45/68/34 47/71/34
f 47/71/34 49/74/34 51/77/34
f 51/77/34 53/80/34 55/83/34
f 55/83/34 57/86/34 59/89/34
f 59/89/34 61/92/34 63/95/34
f 63/95/34 3/5/34 7/11/34
f 7/11/34 11/17/34 15/23/34
f 15/23/34 19/29/34 23/35/34
f 23/35/34 27/41/34 31/47/34
f 31/47/34 35/53/34 39/59/34
f 39/59/34 43/65/34 47/71/34
f 47/71/34 51/77/34 55/83/34
f 55/83/34 59/89/34 63/95/34
f 63/95/34 7/11/34 15/23/34
f 15/23/34 23/35/34 31/47/34
f 31/47/34 39/59/34 47/71/34
f 47/71/34 55/83/34 63/95/34
f 63/95/34 15/23/34 31/47/34
f 97/163/34 65/100/34 66/102/34
f 99/165/34 98/164/34 66/102/34
f 99/165/34 67/104/34 68/106/34
f 100/166/34 68/106/34 69/108/34
f 101/167/34 69/108/34 70/110/34
f 102/168/34 70/110/34 71/112/34
f 103/169/34 71/112/34 72/114/34
f 105/171/34 104/170/34 72/114/34
f 105/171/34 73/116/34 74/118/34
f 107/173/34 106/172/34 74/118/34
f 107/173/34 75/120/34 76/122/34
f 108/174/34 76/122/34 77/124/34
f 109/175/34 77/124/34 78/126/34
f 110/176/34 78/126/34 79/128/34
f 111/177/34 79/128/34 80/130/34
f 113/179/34 112/178/34 80/130/34
f 113/179/34 81/132/34 82/134/34
f 115/181/34 114/180/34 82/134/34
f 115/181/34 83/136/34 84/138/34
f 116/182/34 84/138/34 85/140/34
f 117/183/34 85/140/34 86/142/34
f 118/184/34 86/142/34 87/144/34
f 119/185/34 87/144/34 88/146/34
f 121/187/34 120/186/34 88/146/34
f 121/187/34 89/148/34 90/150/34
f 123/189/34 122/188/34 90/150/34
f 123/189/34 91/152/34 92/154/34
f 124/190/34 92/154/34 93/156/34
f 125/191/34 93/156/34 94/158/34
f 126/192/34 94/158/34 95/160/34
f 127/193/34 95/160/34 96/162/34
f 97/163/34 128/194/34 96/162/34
f 1/1/35 97/163/35 98/164/35
f 3/5/36 98/164/36 99/165/36
f 5/8/37 99/165/37 100/166/37
f 7/11/38 100/166/38 101/167/38
f 9/14/39 101/167/39 102/168/39
f 11/17/40 102/168/40 103/169/40
f 13/20/41 103/169/41 104/170/41
f 15/23/42 104/170/42 105/171/42
f 17/26/43 105/171/43 106/172/43
f 19/29/44 106/172/44 107/173/44
f 21/32/45 107/173/45 108/174/45
f 23/35/46 108/174/46 109/175/46
f 25/38/47 109/175/47 110/176/47
f 27/41/48 110/176/48 111/177/48
f 29/44/49 111/177/49 112/178/49
f 31/47/50 112/178/50 113/179/50
f 33/50/51 113/179/51 114/180/51
f 35/53/52 114/180/52 115/181/52
f 37/56/53 115/181/53 116/182/53
f 39/59/54 116/182/54 117/183/54
f 41/62/55 117/183/55 118/184/55
f 43/65/56 118/184/56 119/185/56
f 45/68/57 119/185/57 120/186/57
f 47/71/58 120/186/58 121/187/58
f 49/74/59 121/187/59 122/188/59
f 51/77/60 122/188/60 123/189/60
f 53/80/61 123/189/61 124/190/61
f 55/83/62 124/190/62 125/191/62
f 57/86/63 125/191/63 126/192/63
f 59/89/64 126/192/64 127/193/64
f 61/92/65 127/193/65 128/194/65
f 63/95/66 128/194/66 97/163/66
f 573/684/67 143/209/67 144/210/67
f 571/682/68 129/195/68 136/202/68
f 574/685/69 134/200/69 144/210/69
f 130/196/70 571/682/70 137/203/70
f 574/685/71 145/211/71 146/212/71
f 572/683/72 130/196/72 138/204/72
f 575/686/73 146/212/73 147/213/73
f 572/683/74 139/205/74 140/206/74
f 576/687/75 147/213/75 148/214/75
f 132/198/76 131/197/76 140/206/76
f 133/199/78 132/198/78 141/207/78
f 573/684/79 133/199/79 142/208/79
f 570/681/80 135/201/80 136/202/80
f 142/208/81 156/222/81 157/223/81
f 136/202/82 135/201/82 149/215/82
f 144/210/83 143/209/83 157/223/83
f 136/202/84 150/216/84 151/217/84
f 145/211/85 144/210/85 158/224/85
f 137/203/86 151/217/86 152/218/86
f 145/211/87 159/225/87 160/226/87
f 138/204/88 152/218/88 153/219/88
f 147/213/89 146/212/89 160/226/89
f 140/206/90 139/205/90 153/219/90
f 148/214/91 147/213/91 161/227/91
f 140/206/92 154/220/92 155/221/92
f 141/207/94 155/221/94 156/222/94
f 160/226/95 174/240/95 175/241/95
f 154/220/96 153/219/96 167/233/96
f 161/227/97 175/241/97 176/242/97
f 154/220/98 168/234/98 169/235/98
f 155/221/100 169/235/100 170/236/100
f 156/222/101 170/236/101 171/237/101
f 150/216/102 149/215/102 163/229/102
f 157/223/103 171/237/103 172/238/103
f 150/216/104 164/230/104 165/231/104
f 158/224/105 172/238/105 173/239/105
f 151/217/106 165/231/106 166/232/106
f 159/225/107 173/239/107 174/240/107
f 152/218/108 166/232/108 167/233/108
f 163/229/109 177/243/109 178/244/109
f 172/238/110 171/237/110 185/251/110
f 165/231/111 164/230/111 178/244/111
f 173/239/112 172/238/112 186/252/112
f 165/231/113 179/245/113 180/246/113
f 173/239/114 187/253/114 188/254/114
f 166/232/115 180/246/115 181/247/115
f 175/241/116 174/240/116 188/254/116
f 168/234/117 167/233/117 181/247/117
f 175/241/118 189/255/118 190/256/118
f 168/234/119 182/248/119 183/249/119
f 169/235/121 183/249/121 184/250/121
f 170/236/122 184/250/122 185/251/122
f 182/248/123 181/247/123 195/261/123
f 189/255/124 203/269/124 204/270/124
f 182/248/125 196/262/125 197/263/125
f 183/249/127 197/263/127 198/264/127
f 184/250/128 198/264/128 199/265/128
f 178/244/515 177/243/515 191/257/515
f 186/252/130 185/251/130 199/265/130
f 178/244/131 192/258/131 193/259/131
f 187/253/132 186/252/132 200/266/132
f 179/245/133 193/259/133 194/260/133
f 188/254/134 187/253/134 201/267/134
f 180/246/135 194/260/135 195/261/135
f 188/254/136 202/268/136 203/269/136
f 200/266/137 199/265/137 213/279/137
f 192/258/138 206/272/138 207/273/138
f 200/266/139 214/280/139 215/281/139
f 193/259/140 207/273/140 208/274/140
f 202/268/141 201/267/141 215/281/141
f 195/261/142 194/260/142 208/274/142
f 203/269/143 202/268/143 216/282/143
f 196/262/144 195/261/144 209/275/144
f 203/269/145 217/283/145 218/284/145
f 197/263/146 196/262/146 210/276/146
f 197/263/148 211/277/148 212/278/148
f 198/264/149 212/278/149 213/279/149
f 191/257/150 205/271/150 206/272/150
f 217/283/151 231/297/151 232/298/151
f 210/276/152 224/290/152 225/291/152
f 211/277/154 225/291/154 226/292/154
f 212/278/155 226/292/155 227/293/155
f 206/272/156 205/271/156 219/285/156
f 214/280/157 213/279/157 227/293/157
f 206/272/158 220/286/158 221/287/158
f 214/280/159 228/294/159 229/295/159
f 208/274/160 207/273/160 221/287/160
f 216/282/161 215/281/161 229/295/161
f 208/274/162 222/288/162 223/289/162
f 216/282/163 230/296/163 231/297/163
f 210/276/164 209/275/164 223/289/164
f 229/295/165 228/294/165 242/308/165
f 222/288/166 221/287/166 235/301/166
f 230/296/167 229/295/167 243/309/167
f 222/288/168 236/302/168 237/303/168
f 230/296/169 244/310/169 245/311/169
f 224/290/170 223/289/170 237/303/170
f 231/297/171 245/311/171 246/312/171
f 224/290/172 238/304/172 239/305/172
f 225/291/174 239/305/174 240/306/174
f 226/292/175 240/306/175 241/307/175
f 220/286/176 219/285/176 233/299/176
f 228/294/177 227/293/177 241/307/177
f 220/286/178 234/300/178 235/301/178
f 239/305/180 253/319/180 254/320/180
f 240/306/181 254/320/181 255/321/181
f 234/300/182 233/299/182 247/313/182
f 242/308/183 241/307/183 255/321/183
f 234/300/184 248/314/184 249/315/184
f 242/308/185 256/322/185 257/323/185
f 236/302/186 235/301/186 249/315/186
f 244/310/187 243/309/187 257/323/187
f 236/302/188 250/316/188 251/317/188
f 244/310/189 258/324/189 259/325/189
f 237/303/516 251/317/516 252/318/516
f 245/311/191 259/325/191 260/326/191
f 239/305/192 238/304/192 252/318/192
f 249/315/193 263/329/193 264/330/193
f 257/323/194 271/337/194 272/338/194
f 250/316/195 264/330/195 265/331/195
f 258/324/196 272/338/196 273/339/196
f 252/318/197 251/317/197 265/331/197
f 260/326/198 259/325/198 273/339/198
f 253/319/199 252/318/199 266/332/199
f 253/319/201 267/333/201 268/334/201
f 254/320/202 268/334/202 269/335/202
f 248/314/203 247/313/203 261/327/203
f 256/322/204 255/321/204 269/335/204
f 248/314/205 262/328/205 263/329/205
f 256/322/206 270/336/206 271/337/206
f 267/333/207 281/347/207 282/348/207
f 268/334/208 282/348/208 283/349/208
f 262/328/209 261/327/209 275/341/209
f 269/335/210 283/349/210 284/350/210
f 262/328/211 276/342/211 277/343/211
f 271/337/212 270/336/212 284/350/212
f 264/330/213 263/329/213 277/343/213
f 272/338/214 271/337/214 285/351/214
f 264/330/215 278/344/215 279/345/215
f 272/338/216 286/352/216 287/353/216
f 266/332/217 265/331/217 279/345/217
f 274/340/218 273/339/218 287/353/218
f 267/333/219 266/332/219 280/346/219
f 286/352/221 285/351/221 299/365/221
f 278/344/222 292/358/222 293/359/222
f 286/352/223 300/366/223 301/367/223
f 280/346/224 279/345/224 293/359/224
f 287/353/225 301/367/225 302/368/225
f 281/347/226 280/346/226 294/360/226
f 281/347/228 295/361/228 296/362/228
f 282/348/229 296/362/229 297/363/229
f 276/342/230 275/341/230 289/355/230
f 284/350/231 283/349/231 297/363/231
f 276/342/232 290/356/232 291/357/232
f 285/351/233 284/350/233 298/364/233
f 278/344/234 277/343/234 291/357/234
f 296/362/235 310/376/235 311/377/235
f 290/356/236 289/355/236 303/369/236
f 298/364/237 297/363/237 311/377/237
f 290/356/238 304/370/238 305/371/238
f 298/364/239 312/378/239 313/379/239
f 292/358/240 291/357/240 305/371/240
f 299/365/241 313/379/241 314/380/241
f 292/358/242 306/372/242 307/373/242
f 300/366/243 314/380/243 315/381/243
f 294/360/244 293/359/244 307/373/244
f 301/367/245 315/381/245 316/382/245
f 295/361/246 294/360/246 308/374/246
f 295/361/248 309/375/248 310/376/248
f 306/372/249 320/386/249 321/387/249
f 315/381/250 314/380/250 328/394/250
f 308/374/251 307/373/251 321/387/251
f 315/381/252 329/395/252 330/396/252
f 309/375/253 308/374/253 322/388/253
f 309/375/255 323/389/255 324/390/255
f 310/376/256 324/390/256 325/391/256
f 304/370/257 303/369/257 317/383/257
f 312/378/258 311/377/258 325/391/258
f 305/371/259 304/370/259 318/384/259
f 313/379/260 312/378/260 326/392/260
f 305/371/261 319/385/261 320/386/261
f 314/380/262 313/379/262 327/393/262
f 324/390/263 338/404/263 339/405/263
f 318/384/264 317/383/264 331/397/264
f 326/392/265 325/391/265 339/405/265
f 318/384/266 332/398/266 333/399/266
f 326/392/267 340/406/267 341/407/267
f 320/386/268 319/385/268 333/399/268
f 328/394/269 327/393/269 341/407/269
f 321/387/270 320/386/270 334/400/270
f 328/394/271 342/408/271 343/409/271
f 322/388/272 321/387/272 335/401/272
f 329/395/273 343/409/273 344/410/273
f 323/389/274 322/388/274 336/402/274
f 323/389/276 337/403/276 338/404/276
f 342/408/277 356/422/277 357/423/277
f 336/402/278 335/401/278 349/415/278
f 343/409/279 357/423/279 358/424/279
f 337/403/280 336/402/280 350/416/280
f 337/403/282 351/417/282 352/418/282
f 338/404/283 352/418/283 353/419/283
f 332/398/284 331/397/284 345/411/284
f 340/406/285 339/405/285 353/419/285
f 332/398/286 346/412/286 347/413/286
f 341/407/287 340/406/287 354/420/287
f 334/400/288 333/399/288 347/413/288
f 341/407/289 355/421/289 356/422/289
f 334/400/290 348/414/290 349/415/290
f 354/420/291 353/419/291 367/433/291
f 346/412/292 360/426/292 361/427/292
f 355/421/293 354/420/293 368/434/293
f 347/413/294 361/427/294 362/428/294
f 356/422/295 355/421/295 369/435/295
f 348/414/296 362/428/296 363/429/296
f 357/423/297 356/422/297 370/436/297
f 350/416/298 349/415/298 363/429/298
f 357/423/299 371/437/299 372/438/299
f 351/417/300 350/416/300 364/430/300
f 580/691/4 615/727/4 617/729/4
f 351/417/302 365/431/302 366/432/302
f 593/704/17 642/785/17 644/787/17
f 352/418/303 366/432/303 367/433/303
f 345/411/304 359/425/304 360/426/304
f 371/437/305 385/451/305 386/452/305
f 365/431/306 364/430/306 378/444/306
f 606/718/30 668/813/30 670/815/30
f 365/431/308 379/445/308 380/446/308
f 579/690/3 613/725/3 615/727/3
f 366/432/309 380/446/309 381/447/309
f 360/426/310 359/425/310 373/439/310
f 368/434/311 367/433/311 381/447/311
f 360/426/312 374/440/312 375/441/312
f 368/434/313 382/448/313 383/449/313
f 362/428/314 361/427/314 375/441/314
f 370/436/315 369/435/315 383/449/315
f 362/428/316 376/442/316 377/443/316
f 371/437/317 370/436/317 384/450/317
f 364/430/318 363/429/318 377/443/318
f 374/440/517 388/454/517 389/455/517
f 382/448/320 396/462/320 397/463/320
f 375/441/321 389/455/321 390/456/321
f 384/450/322 383/449/322 397/463/322
f 376/442/323 390/456/323 391/457/323
f 385/451/324 384/450/324 398/464/324
f 378/444/325 377/443/325 391/457/325
f 385/451/326 399/465/326 400/466/326
f 379/445/327 378/444/327 392/458/327
f 592/703/16 640/783/16 642/785/16
f 379/445/329 393/459/329 394/460/329
f 605/717/29 666/811/29 668/813/29
f 380/446/330 394/460/330 395/461/330
f 374/440/518 373/439/518 387/453/518
f 382/448/332 381/447/332 395/461/332
f 393/459/333 392/458/333 406/472/333
f 578/689/2 611/723/2 613/725/2
f 393/459/335 407/473/335 408/474/335
f 591/702/15 638/781/15 640/783/15
f 394/460/336 408/474/336 409/475/336
f 387/453/337 401/467/337 402/468/337
f 395/461/338 409/475/338 410/476/338
f 388/454/339 402/468/339 403/469/339
f 396/462/340 410/476/340 411/477/340
f 390/456/341 389/455/341 403/469/341
f 398/464/342 397/463/342 411/477/342
f 390/456/343 404/470/343 405/471/343
f 398/464/344 412/478/344 413/479/344
f 392/458/345 391/457/345 405/471/345
f 399/465/346 413/479/346 414/480/346
f 410/476/347 425/522/347 426/523/347
f 404/470/348 403/469/348 418/515/348
f 412/478/349 411/477/349 426/523/349
f 404/470/350 419/516/350 420/517/350
f 412/478/351 427/524/351 428/525/351
f 405/471/352 420/517/352 421/518/352
f 413/479/353 428/525/353 429/526/353
f 407/473/354 406/472/354 421/518/354
f 604/716/28 664/809/28 666/811/28
f 407/473/356 422/519/356 423/520/356
f 590/701/14 636/779/14 638/781/14
f 408/474/357 423/520/357 424/521/357
f 402/468/358 401/467/358 416/513/358
f 410/476/359 409/475/359 424/521/359
f 402/468/360 417/514/360 418/515/360
f 603/715/27 662/807/27 664/809/27
f 422/519/362 436/533/362 437/534/362
f 589/700/13 634/777/13 636/779/13
f 423/520/363 437/534/363 438/535/363
f 417/514/364 416/513/364 430/527/364
f 425/522/365 424/521/365 438/535/365
f 417/514/366 431/528/366 432/529/366
f 425/522/367 439/536/367 440/537/367
f 419/516/368 418/515/368 432/529/368
f 426/523/369 440/537/369 441/538/369
f 419/516/370 433/530/370 434/531/370
f 428/525/371 427/524/371 441/538/371
f 421/518/372 420/517/372 434/531/372
f 429/526/373 428/525/373 442/539/373
f 422/519/374 421/518/374 435/532/374
f 432/529/375 446/543/375 447/544/375
f 441/538/376 440/537/376 454/551/376
f 433/530/377 447/544/377 448/545/377
f 441/538/378 455/552/378 456/553/378
f 435/532/379 434/531/379 448/545/379
f 442/539/380 456/553/380 457/554/380
f 436/533/381 435/532/381 449/546/381
f 602/714/26 660/805/26 662/807/26
f 436/533/383 450/547/383 451/548/383
f 588/699/12 632/775/12 634/777/12
f 437/534/384 451/548/384 452/549/384
f 431/528/519 430/527/519 444/541/519
f 439/536/386 438/535/386 452/549/386
f 431/528/387 445/542/387 446/543/387
f 439/536/388 453/550/388 454/551/388
f 450/547/389 464/567/389 465/569/389
f 601/712/25 658/802/25 660/805/25
f 451/548/390 465/569/390 466/571/390
f 445/542/520 444/541/520 458/555/520
f 452/549/392 466/571/392 467/573/392
f 445/542/393 459/557/393 460/559/393
f 453/550/394 467/573/394 468/575/394
f 447/544/395 446/543/395 460/559/395
f 455/552/396 454/551/396 468/575/396
f 447/544/397 461/561/397 462/563/397
f 455/552/398 469/577/398 470/579/398
f 449/546/399 448/545/399 462/563/399
f 456/553/400 470/579/400 471/581/400
f 450/547/401 449/546/401 463/565/401
f 587/698/11 630/773/11 632/775/11
f 468/576/403 482/593/403 483/594/403
f 461/562/404 475/586/404 476/587/404
f 469/578/405 483/594/405 484/595/405
f 463/566/406 462/564/406 476/587/406
f 471/582/407 470/580/407 484/595/407
f 464/568/408 463/566/408 477/588/408
f 600/711/24 656/799/24 658/803/24
f 464/568/410 478/589/410 479/590/410
f 586/697/10 628/771/10 630/773/10
f 465/570/411 479/590/411 480/591/411
f 459/558/412 458/556/412 472/583/412
f 467/574/413 466/572/413 480/591/413
f 459/558/414 473/584/414 474/585/414
f 467/574/415 481/592/415 482/593/415
f 461/562/416 460/560/416 474/585/416
f 479/590/417 493/604/417 494/605/417
f 472/583/521 486/597/521 487/598/521
f 481/592/419 480/591/419 494/605/419
f 473/584/420 487/598/420 488/599/420
f 481/592/421 495/606/421 496/607/421
f 475/586/422 474/585/422 488/599/422
f 483/594/423 482/593/423 496/607/423
f 476/587/424 475/586/424 489/600/424
f 484/595/425 483/594/425 497/608/425
f 477/588/426 476/587/426 490/601/426
f 485/596/427 484/595/427 498/609/427
f 478/589/428 477/588/428 491/602/428
f 599/710/23 654/797/23 656/799/23
f 478/589/430 492/603/430 493/604/430
f 585/696/9 626/769/9 628/771/9
f 497/608/431 511/622/431 512/623/431
f 491/602/432 490/601/432 504/615/432
f 499/610/433 498/609/433 512/623/433
f 492/603/434 491/602/434 505/616/434
f 598/709/22 652/795/22 654/797/22
f 492/603/436 506/617/436 507/618/436
f 584/695/8 624/767/8 626/769/8
f 493/604/437 507/618/437 508/619/437
f 487/598/438 486/597/438 500/611/438
f 495/606/439 494/605/439 508/619/439
f 487/598/440 501/612/440 502/613/440
f 495/606/441 509/620/441 510/621/441
f 489/600/442 488/599/442 502/613/442
f 497/608/443 496/607/443 510/621/443
f 489/600/444 503/614/444 504/615/444
f 501/612/445 500/611/445 514/625/445
f 509/620/446 508/619/446 522/633/446
f 501/612/447 515/626/447 516/627/447
f 509/620/448 523/634/448 524/635/448
f 503/614/449 502/613/449 516/627/449
f 511/622/450 510/621/450 524/635/450
f 503/614/451 517/628/451 518/629/451
f 511/622/452 525/636/452 526/637/452
f 505/616/453 504/615/453 518/629/453
f 512/623/454 526/637/454 527/638/454
f 506/617/455 505/616/455 519/630/455
f 597/708/21 650/793/21 652/795/21
f 506/617/457 520/631/457 521/632/457
f 583/694/7 622/765/7 624/767/7
f 507/618/458 521/632/458 522/633/458
f 519/630/459 518/629/459 532/643/459
f 527/638/460 526/637/460 540/651/460
f 520/631/461 519/630/461 533/644/461
f 596/707/20 648/791/20 650/793/20
f 520/631/463 534/645/463 535/646/463
f 609/721/1 674/819/1 611/723/1
f 521/632/464 535/646/464 536/647/464
f 515/626/465 514/625/465 528/639/465
f 523/634/466 522/633/466 536/647/466
f 515/626/467 529/640/467 530/641/467
f 523/634/468 537/648/468 538/649/468
f 517/628/469 516/627/469 530/641/469
f 525/636/470 524/635/470 538/649/470
f 517/628/471 531/642/471 532/643/471
f 526/637/472 525/636/472 539/650/472
f 537/648/473 536/647/473 550/661/473
f 530/641/474 529/640/474 543/654/474
f 537/648/475 551/662/475 552/663/475
f 530/641/476 544/655/476 545/656/476
f 539/650/477 538/649/477 552/663/477
f 531/642/478 545/656/478 546/657/478
f 539/650/479 553/664/479 554/665/479
f 533/644/480 532/643/480 546/657/480
f 540/651/481 554/665/481 555/666/481
f 534/645/482 533/644/482 547/658/482
f 582/693/6 619/731/6 622/765/6
f 534/645/484 548/659/484 549/660/484
f 595/706/19 646/789/19 648/791/19
f 535/646/485 549/660/485 550/661/485
f 529/640/522 528/639/522 542/653/522
f 554/665/487 568/679/487 569/680/487
f 548/659/488 547/658/488 561/672/488
f 608/720/33 672/817/33 674/819/33
f 548/659/490 562/673/490 563/674/490
f 581/692/5 617/729/5 619/731/5
f 549/660/491 563/674/491 564/675/491
f 543/654/492 542/653/492 556/667/492
f 551/662/493 550/661/493 564/675/493
f 543/654/494 557/668/494 558/669/494
f 551/662/495 565/676/495 566/677/495
f 545/656/496 544/655/496 558/669/496
f 553/664/497 552/663/497 566/677/497
f 546/657/498 545/656/498 559/670/498
f 553/664/499 567/678/499 568/679/499
f 547/658/500 546/657/500 560/671/500
f 558/669/501 557/668/501 129/195/501
f 565/676/502 134/200/502 574/685/502
f 558/669/503 571/682/503 130/196/503
f 567/678/504 566/677/504 574/685/504
f 559/670/523 130/196/523 572/683/523
f 567/678/506 575/686/506 576/687/506
f 561/672/524 560/671/524 572/683/524
f 569/680/508 568/679/508 576/687/508
f 562/673/509 561/672/509 131/197/509
f 594/705/18 644/787/18 646/789/18
f 562/673/511 132/198/511 133/199/511
f 607/719/32 670/815/32 672/817/32
f 563/674/525 133/199/525 573/684/525
f 557/668/513 556/667/513 570/681/513
f 565/676/526 564/675/526 573/684/526
f 578/689/31 579/690/31 149/215/31
f 580/691/31 163/229/31 149/215/31
f 580/691/31 581/692/31 177/243/31
f 582/693/31 191/257/31 177/243/31
f 582/693/31 583/694/31 205/271/31
f 584/695/31 219/285/31 205/271/31
f 584/695/31 585/696/31 233/299/31
f 586/697/31 247/313/31 233/299/31
f 586/697/31 587/698/31 261/327/31
f 588/699/31 275/341/31 261/327/31
f 589/700/31 289/355/31 275/341/31
f 589/700/31 590/701/31 303/369/31
f 591/702/31 317/383/31 303/369/31
f 592/703/31 331/397/31 317/383/31
f 592/703/31 593/704/31 345/411/31
f 594/705/31 359/425/31 345/411/31
f 595/706/31 373/439/31 359/425/31
f 596/707/31 387/453/31 373/439/31
f 596/707/31 597/708/31 401/467/31
f 598/709/31 416/513/31 401/467/31
f 599/710/31 430/527/31 416/513/31
f 600/711/31 444/541/31 430/527/31
f 600/711/31 601/713/31 458/555/31
f 602/714/31 472/583/31 458/556/31
f 603/715/31 486/597/31 472/583/31
f 604/716/31 500/611/31 486/597/31
f 605/717/31 514/625/31 500/611/31
f 606/718/31 528/639/31 514/625/31
f 606/718/31 607/719/31 542/653/31
f 608/720/31 556/667/31 542/653/31
f 608/720/31 609/721/31 570/681/31
f 578/689/31 135/201/31 570/681/31
f 674/819/31 673/818/31 610/722/31
f 610/722/31 612/724/31 613/725/31
f 613/725/31 612/724/31 614/726/31
f 614/726/31 616/728/31 617/729/31
f 616/728/31 618/730/31 619/731/31
f 618/730/31 621/764/31 622/765/31
f 621/764/31 623/766/31 624/767/31
f 623/766/31 625/768/31 626/769/31
f 625/768/31 627/770/31 628/771/31
f 627/770/31 629/772/31 630/773/31
f 629/772/31 631/774/31 632/775/31
f 631/774/31 633/776/31 634/777/31
f 633/776/31 635/778/31 636/779/31
f 635/778/31 637/780/31 638/781/31
f 637/780/31 639/782/31 640/783/31
f 639/782/31 641/784/31 642/785/31
f 641/784/31 643/786/31 644/787/31
f 643/786/31 645/788/31 646/789/31
f 645/788/31 647/790/31 648/791/31
f 647/790/31 649/792/31 650/793/31
f 649/792/31 651/794/31 652/795/31
f 651/794/31 653/796/31 654/797/31
f 653/796/31 655/798/31 656/799/31
f 655/798/31 657/800/31 658/803/31
f 657/801/31 659/804/31 660/805/31
f 659/804/31 661/806/31 662/807/31
f 661/806/31 663/808/31 664/809/31
f 663/808/31 665/810/31 666/811/31
f 665/810/31 667/812/31 668/813/31
f 667/812/31 669/814/31 670/815/31
f 670/815/31 669/814/31 671/816/31
f 671/816/31 673/818/31 674/819/31
