# Blender 3.3.1
# www.blender.org
o Cube
v -0.786443 0.120175 1.857424
v -1.111177 3.382089 -1.857424
v 1.111177 0.120175 1.532233
v -0.140436 3.382089 1.532233
v 0.786443 0.120175 1.857424
v 1.111177 3.382089 -1.857424
v 1.111177 3.382089 1.857424
v 0.786443 0.120175 1.532233
v 0.814691 0.000067 1.829137
v 1.082929 0.000067 1.560520
v 0.814691 0.000067 1.560520
v 0.814691 0.110247 1.829137
v 1.082929 0.110247 1.560520
v 0.814691 0.110247 1.560520
v 0.140436 3.382089 -1.728470
v 0.993912 3.382089 -1.728470
v 1.111177 0.120175 1.857394
v 1.082929 0.000067 1.829137
v 1.082929 0.110247 1.829137
v 0.993912 3.382089 -0.420505
v 0.140436 3.382089 -0.420505
v 0.140436 3.963672 -1.728470
v 0.940351 3.963672 -1.674345
v 0.993912 3.963672 -1.728470
v 0.993912 3.963672 -0.420505
v 0.140436 3.963672 -0.420505
v 0.193996 3.963672 -1.674345
v 0.940351 3.963672 -0.469971
v 0.193996 3.963672 -0.469971
v 0.940351 3.381251 -1.674345
v 0.940351 3.381251 -0.469971
v 0.193996 3.381251 -1.674345
v 0.193996 3.381251 -0.469971
v -1.111177 0.120175 1.532233
v -1.111177 3.382089 1.857424
v -0.993912 3.382089 1.532233
v -0.786443 0.120175 1.532233
v -0.814691 0.000067 1.829137
v -1.082929 0.000067 1.560520
v -0.814691 0.000067 1.560520
v -0.814691 0.110247 1.829137
v -1.082929 0.110247 1.560520
v -0.814691 0.110247 1.560520
v -0.993912 3.382089 -1.728470
v -1.111177 0.120175 1.857424
v -1.082929 0.000067 1.829137
v -1.082929 0.110247 1.829137
v -0.140436 3.382089 -1.728470
v -0.993912 3.382089 -0.420505
v -0.140436 3.382089 -0.420505
v -0.140436 3.963672 -1.728470
v -0.940351 3.963672 -1.674345
v -0.993912 3.963672 -1.728470
v -0.993912 3.963672 -0.420505
v -0.140436 3.963672 -0.420505
v -0.193996 3.963672 -1.674345
v -0.940351 3.963672 -0.469971
v -0.193996 3.963672 -0.469971
v -0.940351 3.381251 -1.674345
v -0.940351 3.381251 -0.469971
v -0.193996 3.381251 -1.674345
v -0.193996 3.381251 -0.469971
v 1.111177 0.120175 -1.532233
v 0.786443 0.120175 -1.857424
v 0.786443 0.120175 -1.532233
v 0.814691 0.000067 -1.829137
v 1.082929 0.000067 -1.560520
v 0.814691 0.000067 -1.560520
v 0.814691 0.110247 -1.829137
v 1.082929 0.110247 -1.560520
v 0.814691 0.110247 -1.560520
v 1.111177 0.120175 -1.857424
v 1.082929 0.000067 -1.829137
v 1.082929 0.110247 -1.829137
v -1.111177 0.120175 -1.532233
v -0.786443 0.120175 -1.857424
v -0.786443 0.120175 -1.532233
v -0.814691 0.000067 -1.829137
v -1.082929 0.000067 -1.560520
v -0.814691 0.000067 -1.560520
v -0.814691 0.110247 -1.829137
v -1.082929 0.110247 -1.560520
v -0.814691 0.110247 -1.560520
v -1.111177 0.120175 -1.857424
v -1.082929 0.000067 -1.829137
v -1.082929 0.110247 -1.829137
v 0.993912 3.382089 -1.728470
v 0.140436 3.382089 -1.728470
v 0.993912 3.382089 -0.420505
v 0.140436 3.382089 -0.420505
v 0.140436 3.963672 -1.728470
v 0.940351 3.963672 -1.674345
v 0.993912 3.963672 -1.728470
v 0.993912 3.963672 -0.420505
v 0.140436 3.963672 -0.420505
v 0.193996 3.963672 -1.674345
v 0.940351 3.963672 -0.469971
v 0.193996 3.963672 -0.469971
v 0.940351 3.381251 -1.674345
v 0.940351 3.381251 -0.469971
v 0.193996 3.381251 -1.674345
v 0.193996 3.381251 -0.469971
v 0.993912 3.382089 -0.070189
v 0.140436 3.382089 -0.070189
v 0.993912 3.382089 1.237777
v 0.140436 3.382089 1.237777
v 0.140436 3.831322 -0.070189
v 0.940351 3.831322 -0.016063
v 0.993912 3.831322 -0.070189
v 0.993912 3.831322 1.237777
v 0.140436 3.831322 1.237777
v 0.193996 3.831322 -0.016063
v 0.940351 3.831322 1.188310
v 0.193996 3.831322 1.188310
v 0.940351 3.381251 -0.016063
v 0.940351 3.381251 1.188310
v 0.193996 3.381251 -0.016063
v 0.193996 3.381251 1.188310
v 1.111177 0.120175 -1.857424
v -0.993912 3.382089 -0.284898
v -0.140436 3.382089 -0.284898
v -1.111177 0.120175 -1.857424
v -0.193775 3.342555 1.435276
v -0.956172 3.342555 1.435276
v -0.956172 3.342555 -0.187941
v -0.193775 3.342555 -0.187941
v -0.193775 3.342555 1.435276
v -0.956172 3.342555 1.435276
v -0.956172 3.342555 -0.187941
v -0.193775 3.342555 -0.187941
v -0.956172 3.342555 -0.106780
v -0.956172 3.342555 -0.025620
v -0.956172 3.342555 0.055541
v -0.956172 3.342555 0.136702
v -0.956172 3.342555 0.217863
v -0.956172 3.342555 0.299024
v -0.956172 3.342555 0.380185
v -0.956172 3.342555 0.461345
v -0.956172 3.342555 0.542506
v -0.956172 3.342555 0.623667
v -0.956172 3.342555 0.704828
v -0.956172 3.342555 0.785989
v -0.956172 3.342555 0.867150
v -0.956172 3.342555 0.948311
v -0.956172 3.342555 1.029472
v -0.956172 3.342555 1.110632
v -0.956172 3.342555 1.191793
v -0.956172 3.342555 1.272954
v -0.956172 3.342555 1.354115
v -0.193775 3.342555 -0.106780
v -0.193775 3.342555 -0.025620
v -0.193775 3.342555 0.055541
v -0.193775 3.342555 0.136702
v -0.193775 3.342555 0.217863
v -0.193775 3.342555 0.299024
v -0.193775 3.342555 0.380185
v -0.193775 3.342555 0.461345
v -0.193775 3.342555 0.542506
v -0.193775 3.342555 0.623667
v -0.193775 3.342555 0.704828
v -0.193775 3.342555 0.785989
v -0.193775 3.342555 0.867150
v -0.193775 3.342555 0.948311
v -0.193775 3.342555 1.029472
v -0.193775 3.342555 1.110632
v -0.193775 3.342555 1.191793
v -0.193775 3.342555 1.272954
v -0.193775 3.342555 1.354115
v -0.193775 3.353629 1.435276
v -0.956172 3.353629 1.435276
v -0.956172 3.353629 1.354115
v -0.193775 3.353629 1.354115
v -0.956172 3.353629 -0.106780
v -0.956172 3.353629 -0.025620
v -0.956172 3.353629 0.055541
v -0.956172 3.353629 0.136702
v -0.956172 3.353629 0.217863
v -0.956172 3.353629 0.299024
v -0.956172 3.353629 0.380185
v -0.956172 3.353629 0.461345
v -0.956172 3.353629 0.542506
v -0.956172 3.353629 0.623667
v -0.956172 3.353629 0.704828
v -0.956172 3.353629 0.785989
v -0.956172 3.353629 0.867150
v -0.956172 3.353629 0.948311
v -0.956172 3.353629 1.029472
v -0.956172 3.353629 1.110632
v -0.956172 3.353629 1.191793
v -0.956172 3.353629 1.272954
v -0.193775 3.353629 -0.106780
v -0.193775 3.353629 -0.025620
v -0.193775 3.353629 0.055541
v -0.193775 3.353629 0.136702
v -0.193775 3.353629 0.217863
v -0.193775 3.353629 0.299024
v -0.193775 3.353629 0.380185
v -0.193775 3.353629 0.461345
v -0.193775 3.353629 0.542506
v -0.193775 3.353629 0.623667
v -0.193775 3.353629 0.704828
v -0.193775 3.353629 0.785989
v -0.193775 3.353629 0.867150
v -0.193775 3.353629 0.948311
v -0.193775 3.353629 1.029472
v -0.193775 3.353629 1.110632
v -0.193775 3.353629 1.191793
v -0.193775 3.353629 1.272954
v -0.907526 1.840584 1.857424
v -0.907526 3.083176 1.857424
v 0.907526 3.083176 1.857424
v 0.907526 1.840584 1.857424
v -1.111177 3.382089 1.857424
v -1.111177 0.120175 1.857455
v 0.907526 3.083176 2.230333
v -0.907526 3.083176 2.230333
v -0.907526 1.840584 2.230333
v 0.907526 1.840584 2.230333
v -0.907526 1.840584 1.924770
v -0.907526 1.840584 2.135197
v -0.907526 3.083176 2.135197
v -0.907526 3.083176 1.924770
v 0.907526 1.840584 1.924770
v 0.907526 1.840584 2.135197
v 0.907526 3.083176 1.924770
v 0.907526 3.083176 2.135197
v -0.739229 1.955801 1.944282
v -0.739229 1.955801 2.115685
v -0.739229 2.967959 2.115685
v -0.739229 2.967959 1.944282
v 0.739229 1.955801 1.944282
v 0.739229 1.955801 2.115685
v 0.739229 2.967959 1.944282
v 0.739229 2.967959 2.115685
v 0.986827 0.277938 1.857337
v -0.985195 0.362028 1.857357
v 0.554487 1.811224 1.857576
v -0.556366 1.811231 1.857424
v 0.557436 1.495940 2.226411
v -0.555557 1.495934 2.226563
v 0.554487 1.811046 2.226715
v -0.556366 1.811053 2.226563
v 0.391638 1.496091 1.912284
v -0.389758 1.496086 1.912391
v 0.391638 1.495966 2.171444
v -0.389758 1.495961 2.171551
v 0.391639 1.349343 1.912214
v -0.389758 1.349339 1.912320
v 0.391639 1.349218 2.171374
v -0.389758 1.349214 2.171480
v 0.391639 1.349218 2.171374
v -0.389758 1.349339 1.912320
v -0.389758 1.349214 2.171480
v 0.198137 1.349332 1.932816
v 0.198137 1.315629 1.932799
v -0.196256 1.315627 1.932853
v -0.196256 1.315522 2.150862
v -0.196256 1.349330 1.932869
v -0.196256 1.349225 2.150878
v 0.079819 1.315628 1.932815
v -0.077938 1.315628 1.932837
v -0.077938 1.315522 2.150846
v 0.391639 1.349343 1.912214
v 0.198137 1.349227 2.150824
v 0.198137 1.315524 2.150808
v 0.104142 1.315588 2.017500
v -0.053615 1.315587 2.017521
v 0.113833 1.315572 2.049884
v -0.043924 1.315571 2.049906
v -0.109715 1.315581 2.028677
v -0.064774 1.315590 2.010064
v -0.077936 1.315591 2.007446
v 0.092984 1.315591 2.010043
v 0.079821 1.315592 2.007425
v 0.111597 1.315582 2.028659
v 0.055499 1.315587 2.017498
v -0.046160 1.315582 2.028680
v -0.102258 1.315587 2.017519
v -0.091099 1.315590 2.010064
v -0.102260 1.315563 2.066162
v 0.066658 1.315591 2.010042
v 0.055497 1.315564 2.066140
v 0.098169 1.315562 2.071573
v 0.048041 1.315569 2.054981
v 0.045309 1.315578 2.036251
v -0.059588 1.315561 2.071595
v -0.109716 1.315568 2.055002
v -0.112333 1.315575 2.041840
v -0.084718 1.315558 2.075916
v 0.073040 1.315559 2.075895
v 0.111599 1.120143 2.028498
v 0.098174 1.120151 2.011908
v 0.045807 1.120140 2.033595
v 0.114217 1.120137 2.041661
v 0.111598 1.120130 2.054823
v 0.073045 1.120153 2.007584
v 0.100286 1.120123 2.070000
v 0.079820 1.120120 2.076055
v 0.066657 1.120121 2.073436
v -0.109712 1.120142 2.028517
v -0.046158 1.120142 2.028520
v -0.053613 1.120148 2.017361
v -0.071156 1.120152 2.007606
v -0.112331 1.120136 2.041679
v -0.043540 1.120136 2.041682
v -0.109714 1.120129 2.054842
v -0.046159 1.120129 2.054845
v -0.091097 1.120151 2.009903
v -0.057471 1.120122 2.070021
v -0.077937 1.120119 2.076076
v -0.091100 1.120120 2.073457
v 0.055501 1.120148 2.017337
v -0.102256 1.120147 2.017359
v -0.102258 1.120124 2.066001
v 0.050067 1.120128 2.060009
v 0.557436 1.496118 1.857333
v -0.980667 0.163599 1.857451
v -0.555557 1.496112 1.857364
v 0.980764 0.163896 2.334330
v -0.984972 0.278131 2.334301
v 0.986827 0.362044 1.857284
v -0.984972 0.362336 2.334246
v 0.928059 0.362054 1.871500
v -0.926204 0.362323 2.282972
v -0.926204 0.245750 2.282972
v -0.926227 0.345699 1.871527
v 0.928059 0.345705 1.871500
v 0.928059 0.245476 1.871500
v 0.986851 0.278252 2.334270
v 0.980748 0.163599 1.857394
v -0.980654 0.163896 2.334375
v 0.986851 0.362347 2.334218
v 0.928082 0.362330 2.282945
v -0.926227 0.362051 1.871527
v 0.928061 0.345728 1.905787
v 0.928063 0.345752 1.940074
v 0.928065 0.345775 1.974361
v 0.928066 0.345798 2.008648
v 0.928068 0.345821 2.042935
v 0.928070 0.345845 2.077222
v 0.928072 0.345868 2.111509
v 0.928074 0.345891 2.145796
v 0.928076 0.345914 2.180083
v 0.928078 0.345938 2.214370
v 0.928080 0.345961 2.248658
v 0.928082 0.245756 2.282945
v -0.926206 0.345955 2.248685
v -0.926208 0.345932 2.214398
v -0.926210 0.345909 2.180111
v -0.926211 0.345885 2.145823
v -0.926213 0.345862 2.111537
v -0.926215 0.345839 2.077250
v -0.926217 0.345816 2.042962
v -0.926219 0.345792 2.008675
v -0.926221 0.345769 1.974388
v -0.926223 0.345746 1.940101
v -0.926225 0.345723 1.905814
v -0.926227 0.245471 1.871527
vn 1.0000 -0.0000 -0.0000
vn -0.0000 1.0000 -0.0000
vn -1.0000 -0.0000 -0.0000
vn -0.0000 -1.0000 -0.0000
vn -0.0000 -1.0000 -0.0005
vn -0.0001 0.0005 -1.0000
vn 0.8018 0.0039 0.5976
vn 0.9808 -0.0063 0.1951
vn -0.1950 0.0060 -0.9808
vn -0.8315 0.0057 0.5555
vn -0.0001 -1.0000 -0.0005
vn 0.0001 -1.0000 -0.0005
vn -0.0008 -0.0003 1.0000
vn -0.0001 0.0005 1.0000
vn -0.0000 -0.0006 -1.0000
vn 1.0000 -0.0000 -0.0001
vn -1.0000 -0.0000 0.0001
vn -0.0000 1.0000 -0.0007
vn -0.0004 1.0000 -0.0007
vn -0.0000 -1.0000 0.0006
vn 0.9986 -0.0532 -0.0000
vn -0.3316 -0.9434 -0.0000
vn 0.3316 -0.9434 -0.0000
vn -0.0000 -0.9435 0.3314
vn -0.0000 -0.9436 -0.3311
vn -0.0000 -0.0000 -1.0000
vn -0.0000 -0.0000 1.0000
vn 0.7233 0.6905 -0.0000
vn -0.0000 -0.9436 0.3311
vn -0.5955 0.8034 -0.0000
vn -0.0000 0.9260 -0.3776
vn -0.0000 0.9260 0.3776
vn 0.0005 -0.0008 1.0000
vn 0.0001 -0.0000 1.0000
vn -0.0000 -0.1670 0.9860
vn -0.1152 -0.0000 0.9933
vn -0.0000 0.1670 -0.9860
vn 0.1152 -0.0000 -0.9933
vn 0.1152 -0.0000 0.9933
vn -0.0000 0.1670 0.9860
vn -0.1152 -0.0000 -0.9933
vn -0.0000 -0.1670 -0.9860
vn 1.0000 0.0094 -0.0000
vn 0.0002 -0.0000 1.0000
vn -0.0001 -0.0016 1.0000
vn 0.0001 -0.0010 1.0000
vn -1.0000 -0.0026 -0.0000
vn -0.0000 1.0000 0.0005
vn 0.0001 -0.0005 1.0000
vn -0.0003 -1.0000 -0.0004
vn 0.1951 0.0060 -0.9808
vn -0.6291 -0.0069 0.7773
vn 0.5556 0.0007 -0.8314
vn -0.4859 -0.0049 -0.8740
vn -0.9808 0.0001 -0.1951
vn -0.5556 -0.0007 0.8314
vn -0.9808 -0.0002 0.1950
vn -0.5555 0.0007 -0.8315
vn -0.1951 -0.0060 0.9808
vn -0.8315 -0.0005 0.5555
vn 0.1695 0.0067 0.9855
vn -0.8314 0.0004 -0.5556
vn 0.9945 0.0064 -0.1048
vn 0.8315 0.0005 -0.5555
vn -0.8589 0.0004 -0.5121
vn 0.1951 -0.0042 -0.9808
vn -0.9872 -0.0061 0.1592
vn 0.5556 0.0068 -0.8314
vn -0.1144 -0.0048 -0.9934
vn -0.0000 0.0005 1.0000
vn 0.0002 0.0005 1.0000
vn 0.0029 -0.0011 1.0000
vn -0.0000 0.0006 1.0000
vn -0.0000 1.0000 -0.0016
vn -0.0000 1.0000 -0.0003
vn -0.9993 -0.0378 0.0001
vn -0.0002 1.0000 -0.0006
vn -1.0000 -0.0000 0.0005
vn 0.0003 1.0000 -0.0007
vn -0.0000 1.0000 -0.0006
vn 0.9986 -0.0531 -0.0000
vn -0.0000 -1.0000 0.0007
vn 0.8107 0.0055 0.5855
vn -0.0002 -0.0000 1.0000
vn -0.0000 -0.0002 1.0000
vn -0.0000 0.0052 1.0000
vn -0.0001 -0.0000 1.0000
vn 0.0005 -1.0000 -0.0005
vn -0.4860 0.0049 0.8740
vn 0.4860 -0.0049 -0.8740
vn 0.2837 -0.0046 0.9589
vn 0.9808 0.0002 -0.1950
vn -0.8787 0.0042 -0.4774
vn 0.1695 -0.0067 -0.9855
vn 0.7773 -0.0057 -0.6291
vn -0.9895 -0.0045 0.1443
vn -0.1951 0.0008 -0.9808
vn -0.0000 0.0001 1.0000
vn -0.0000 1.0000 -0.0002
vn -0.9997 -0.0228 -0.0035
vt 0.285888 0.555104
vt 0.167227 0.294869
vt 0.597594 0.523374
vt 0.491648 0.271778
vt 0.011544 0.249001
vt 0.418823 0.532323
vt 0.099223 0.532327
vt 0.396074 0.555104
vt 0.240052 0.011544
vt 0.011544 0.294869
vt 0.441910 0.523374
vt 0.240052 0.271782
vt 0.011544 0.555107
vt 0.514735 0.011544
vt 0.396074 0.532323
vt 0.977774 0.713502
vt 0.552045 0.956017
vt 0.505798 0.946328
vt 0.084762 0.978531
vt 0.050068 0.971053
vt 0.524589 0.927510
vt 0.552045 0.974835
vt 0.505798 0.927510
vt 0.084762 0.959740
vt 0.559764 0.956017
vt 0.398053 0.553122
vt 0.985493 0.713502
vt 0.042350 0.971053
vt 0.416844 0.534304
vt 0.092480 0.978531
vt 0.559764 0.974835
vt 0.398053 0.534304
vt 0.092480 0.959740
vt 0.823250 0.606250
vt 0.718679 0.752801
vt 0.079547 0.303903
vt 0.019759 0.303903
vt 0.696053 0.409580
vt 0.823250 0.546461
vt 0.011544 0.271779
vt 0.418823 0.555101
vt 0.514735 0.240052
vt 0.050068 0.952236
vt 0.524589 0.946328
vt 0.977774 0.694712
vt 0.042350 0.952236
vt 0.416844 0.553122
vt 0.985493 0.694712
vt 0.019759 0.395531
vt 0.696053 0.501208
vt 0.718679 0.775888
vt 0.079547 0.395531
vt 0.718679 0.835675
vt 0.718679 0.661175
vt 0.237085 0.578195
vt 0.759421 0.752801
vt 0.782508 0.606250
vt 0.181049 0.581987
vt 0.852687 0.194372
vt 0.482711 0.781069
vt 0.736795 0.409581
vt 0.782508 0.546461
vt 0.177296 0.578195
vt 0.736795 0.501208
vt 0.759421 0.775888
vt 0.177296 0.669822
vt 0.759421 0.661175
vt 0.759421 0.835675
vt 0.237085 0.669822
vt 0.233333 0.581987
vt 0.852687 0.246655
vt 0.116232 0.692910
vt 0.181048 0.666357
vt 0.011544 0.800368
vt 0.482711 0.696700
vt 0.011544 0.852652
vt 0.233333 0.666357
vt 0.116232 0.777280
vt 0.811887 0.194372
vt 0.693500 0.011544
vt 0.441910 0.781069
vt 0.441910 0.696700
vt 0.052344 0.800368
vt 0.693500 0.095914
vt 0.075432 0.692910
vt 0.811887 0.246655
vt 0.745785 0.011544
vt 0.052344 0.852652
vt 0.745785 0.095914
vt 0.075432 0.777280
vt 0.263139 0.034324
vt 0.263139 0.532323
vt 0.491648 0.011544
vt 0.167227 0.555107
vt 0.910407 0.771203
vt 0.159012 0.532327
vt 0.285888 0.532323
vt 0.980738 0.119002
vt 0.011544 0.971053
vt 0.373275 0.935294
vt 0.652896 0.964901
vt 0.203208 0.978310
vt 0.392066 0.954111
vt 0.011544 0.952236
vt 0.373275 0.954111
vt 0.652896 0.983692
vt 0.988456 0.119002
vt 0.019262 0.971053
vt 0.283909 0.553122
vt 0.210926 0.978310
vt 0.265118 0.534304
vt 0.660614 0.964901
vt 0.019262 0.952236
vt 0.283909 0.534304
vt 0.660614 0.983692
vt 0.159012 0.303903
vt 0.718679 0.638087
vt 0.414017 0.790968
vt 0.263139 0.011544
vt 0.263139 0.555104
vt 0.980738 0.137792
vt 0.203208 0.959493
vt 0.392066 0.935294
vt 0.988456 0.137792
vt 0.210926 0.959493
vt 0.265118 0.553122
vt 0.099223 0.303903
vt 0.693500 0.119002
vt 0.414017 0.731179
vt 0.159012 0.395531
vt 0.718679 0.546461
vt 0.782509 0.689124
vt 0.782509 0.629338
vt 0.693500 0.210629
vt 0.099223 0.395531
vt 0.094420 0.578195
vt 0.734241 0.119002
vt 0.373275 0.731179
vt 0.150457 0.581986
vt 0.852687 0.171284
vt 0.052344 0.692910
vt 0.759421 0.638087
vt 0.373275 0.790968
vt 0.154209 0.578195
vt 0.759421 0.546461
vt 0.823251 0.689124
vt 0.154209 0.669822
vt 0.734241 0.210629
vt 0.823251 0.629338
vt 0.094420 0.669822
vt 0.098172 0.581986
vt 0.852687 0.119002
vt 0.695592 0.791322
vt 0.139319 0.852652
vt 0.150457 0.666357
vt 0.052344 0.777280
vt 0.139319 0.800368
vt 0.098172 0.666357
vt 0.695592 0.706953
vt 0.811887 0.171284
vt 0.672966 0.409580
vt 0.011544 0.692910
vt 0.011544 0.777280
vt 0.180120 0.852652
vt 0.672966 0.493951
vt 0.654791 0.791322
vt 0.811887 0.119002
vt 0.620681 0.409580
vt 0.180120 0.800368
vt 0.620681 0.493951
vt 0.654791 0.706953
vt 0.396023 0.912206
vt 0.373275 0.889425
vt 0.373275 0.912206
vt 0.449629 0.982317
vt 0.590570 0.956018
vt 0.935896 0.694712
vt 0.513517 0.988205
vt 0.145662 0.971053
vt 0.954687 0.713530
vt 0.590570 0.974835
vt 0.935896 0.713530
vt 0.513517 0.969415
vt 0.441910 0.982317
vt 0.582851 0.956018
vt 0.375253 0.891407
vt 0.153380 0.971053
vt 0.394044 0.910224
vt 0.505798 0.988205
vt 0.582851 0.974835
vt 0.375253 0.910224
vt 0.505798 0.969415
vt 0.396023 0.889425
vt 0.449629 0.963526
vt 0.145662 0.952236
vt 0.954687 0.694712
vt 0.441910 0.963526
vt 0.153380 0.952236
vt 0.394044 0.891407
vt 0.804376 0.418556
vt 0.827125 0.395776
vt 0.827125 0.418556
vt 0.472716 0.982317
vt 0.262085 0.946016
vt 0.718679 0.955405
vt 0.988456 0.160879
vt 0.968913 0.541725
vt 0.737470 0.936587
vt 0.262085 0.964834
vt 0.718679 0.936587
vt 0.988456 0.179670
vt 0.480435 0.982317
vt 0.269804 0.946016
vt 0.825146 0.397757
vt 0.976632 0.541725
vt 0.806355 0.416575
vt 0.980738 0.160879
vt 0.269804 0.964834
vt 0.825146 0.416575
vt 0.980738 0.179670
vt 0.804376 0.395776
vt 0.968913 0.560543
vt 0.472716 0.963526
vt 0.737470 0.955405
vt 0.480435 0.963526
vt 0.976632 0.560543
vt 0.806355 0.397757
vt 0.190315 0.456104
vt 0.808129 0.456081
vt 0.808129 0.515869
vt 0.703557 0.386492
vt 0.190315 0.547732
vt 0.782509 0.712212
vt 0.782509 0.771998
vt 0.703557 0.294866
vt 0.680470 0.294866
vt 0.744299 0.386492
vt 0.767387 0.515869
vt 0.624433 0.298657
vt 0.592846 0.804151
vt 0.592846 0.781064
vt 0.231056 0.456104
vt 0.767387 0.456081
vt 0.620681 0.294866
vt 0.231056 0.547732
vt 0.823251 0.712212
vt 0.620681 0.386493
vt 0.744299 0.294866
vt 0.823251 0.771998
vt 0.680470 0.386493
vt 0.676718 0.298657
vt 0.592846 0.856434
vt 0.180120 0.692910
vt 0.624433 0.383028
vt 0.782508 0.795086
vt 0.592846 0.696695
vt 0.782508 0.847371
vt 0.676718 0.383028
vt 0.180120 0.777280
vt 0.552046 0.804151
vt 0.552046 0.781064
vt 0.552046 0.696695
vt 0.823309 0.795086
vt 0.139320 0.692910
vt 0.552046 0.856434
vt 0.823309 0.847371
vt 0.139320 0.777280
vt 0.203207 0.692910
vt 0.116232 0.800368
vt 0.757329 0.210628
vt 0.116232 0.860157
vt 0.203207 0.784537
vt 0.441910 0.804156
vt 0.441910 0.863943
vt 0.757329 0.119002
vt 0.084762 0.860157
vt 0.071333 0.578195
vt 0.788799 0.210628
vt 0.015296 0.581986
vt 0.404804 0.814055
vt 0.294668 0.812793
vt 0.234678 0.692910
vt 0.084762 0.800368
vt 0.011544 0.578195
vt 0.234678 0.784537
vt 0.473381 0.804156
vt 0.011544 0.669822
vt 0.788799 0.119002
vt 0.473381 0.863943
vt 0.071333 0.669822
vt 0.067581 0.581986
vt 0.404804 0.866338
vt 0.800401 0.011544
vt 0.015296 0.666357
vt 0.203208 0.807625
vt 0.294668 0.728424
vt 0.203208 0.859909
vt 0.067581 0.666357
vt 0.800401 0.095914
vt 0.373275 0.814055
vt 0.263139 0.812793
vt 0.263139 0.728424
vt 0.234737 0.807625
vt 0.768872 0.011544
vt 0.373275 0.866338
vt 0.234737 0.859909
vt 0.768872 0.095914
vt 0.418823 0.294866
vt 0.011544 0.011544
vt 0.441910 0.294866
vt 0.910407 0.898499
vt 0.159012 0.405030
vt 0.099223 0.405030
vt 0.263139 0.294866
vt 0.597594 0.294866
vt 0.263139 0.271777
vt 0.102960 0.525534
vt 0.913172 0.778000
vt 0.156369 0.525534
vt 0.913172 0.891711
vt 0.156369 0.411822
vt 0.102960 0.411822
vt 0.960122 0.771203
vt 0.570277 0.268825
vt 0.960122 0.824609
vt 0.742543 0.978492
vt 0.090447 0.936653
vt 0.090447 0.883244
vt 0.084762 0.936653
vt 0.373275 0.982884
vt 0.936259 0.771203
vt 0.938204 0.064952
vt 0.373275 0.977198
vt 0.962827 0.424768
vt 0.718679 0.984178
vt 0.932519 0.064952
vt 0.471459 0.940439
vt 0.939740 0.348274
vt 0.718679 0.978492
vt 0.960122 0.977599
vt 0.968913 0.589316
vt 0.934054 0.348274
vt 0.935896 0.618216
vt 0.119220 0.936653
vt 0.968913 0.583630
vt 0.936259 0.977601
vt 0.113535 0.936653
vt 0.975335 0.093725
vt 0.959326 0.465229
vt 0.237666 0.936405
vt 0.975335 0.088040
vt 0.966058 0.262548
vt 0.231981 0.936405
vt 0.960535 0.671625
vt 0.317756 0.982112
vt 0.586504 0.932930
vt 0.962827 0.348272
vt 0.317756 0.976426
vt 0.292891 0.835881
vt 0.580818 0.932930
vt 0.689886 0.980945
vt 0.557731 0.932930
vt 0.961292 0.064950
vt 0.689886 0.975260
vt 0.552045 0.932930
vt 0.956875 0.119002
vt 0.951472 0.093725
vt 0.788194 0.923866
vt 0.960122 0.901105
vt 0.951472 0.088040
vt 0.782508 0.923866
vt 0.935896 0.742302
vt 0.937035 0.901107
vt 0.939740 0.424770
vt 0.910407 0.974993
vt 0.935896 0.736617
vt 0.934054 0.424770
vt 0.959759 0.742302
vt 0.347508 0.829481
vt 0.816967 0.923866
vt 0.959759 0.736617
vt 0.292891 0.965783
vt 0.811282 0.923866
vt 0.742543 0.984178
vt 0.348284 0.959386
vt 0.084762 0.883244
vt 0.620681 0.517038
vt 0.936259 0.824611
vt 0.620681 0.522724
vt 0.938204 0.011544
vt 0.962827 0.371362
vt 0.932519 0.011544
vt 0.927609 0.088040
vt 0.471459 0.887030
vt 0.939740 0.294866
vt 0.927609 0.093725
vt 0.960122 0.924193
vt 0.934054 0.294866
vt 0.665730 0.263140
vt 0.935896 0.671625
vt 0.119220 0.883244
vt 0.665730 0.268825
vt 0.936259 0.924195
vt 0.113535 0.883244
vt 0.959326 0.518638
vt 0.903746 0.088040
vt 0.237666 0.882997
vt 0.966058 0.209142
vt 0.903746 0.093725
vt 0.231981 0.882997
vt 0.960535 0.618216
vt 0.668407 0.517038
vt 0.586504 0.879521
vt 0.962827 0.294866
vt 0.668407 0.522724
vt 0.292891 0.889289
vt 0.580818 0.879521
vt 0.641867 0.263140
vt 0.557731 0.879521
vt 0.961292 0.011544
vt 0.641867 0.268825
vt 0.644544 0.517038
vt 0.552045 0.879521
vt 0.956875 0.172410
vt 0.644544 0.522724
vt 0.788194 0.870458
vt 0.960122 0.847699
vt 0.782508 0.870458
vt 0.594141 0.263140
vt 0.937035 0.847699
vt 0.939740 0.371362
vt 0.594141 0.268825
vt 0.910407 0.921586
vt 0.934054 0.371362
vt 0.618004 0.263140
vt 0.347508 0.882890
vt 0.816967 0.870458
vt 0.618004 0.268825
vt 0.292891 0.912377
vt 0.811282 0.870458
vt 0.348284 0.905977
vt 0.570277 0.263140
vt 0.960898 0.771203
vt 0.441910 0.887030
vt 0.571053 0.268825
vt 0.743318 0.978492
vt 0.441910 0.940439
vt 0.960898 0.824609
vt 0.447596 0.940439
vt 0.347508 0.959386
vt 0.743318 0.984178
vt 0.571053 0.263140
vt 0.447596 0.887030
vt 0.347508 0.905977
vt 0.208893 0.936405
vt 0.937035 0.771203
vt 0.374050 0.982884
vt 0.374050 0.977198
vt 0.203208 0.936405
vt 0.963603 0.424768
vt 0.936239 0.518638
vt 0.470683 0.940439
vt 0.719455 0.984178
vt 0.719455 0.978492
vt 0.930553 0.518638
vt 0.960898 0.977599
vt 0.151347 0.929148
vt 0.936672 0.618216
vt 0.969689 0.589316
vt 0.969689 0.583630
vt 0.145662 0.929148
vt 0.937035 0.977601
vt 0.180120 0.929148
vt 0.960102 0.465229
vt 0.976111 0.093725
vt 0.976111 0.088040
vt 0.174434 0.929148
vt 0.966834 0.262548
vt 0.046002 0.929148
vt 0.959759 0.671625
vt 0.318532 0.982112
vt 0.318532 0.976426
vt 0.040317 0.929148
vt 0.963603 0.348272
vt 0.293667 0.835881
vt 0.017229 0.929148
vt 0.690662 0.980945
vt 0.690662 0.975260
vt 0.962068 0.064950
vt 0.011544 0.929148
vt 0.957650 0.119002
vt 0.880997 0.924942
vt 0.952248 0.093725
vt 0.952248 0.088040
vt 0.960898 0.901105
vt 0.875312 0.924942
vt 0.757732 0.912171
vt 0.936259 0.901107
vt 0.936672 0.742302
vt 0.936672 0.736617
vt 0.752047 0.912171
vt 0.911183 0.974993
vt 0.909431 0.064952
vt 0.348284 0.829481
vt 0.960535 0.742302
vt 0.960535 0.736617
vt 0.903746 0.064952
vt 0.293667 0.965783
vt 0.621457 0.517038
vt 0.208893 0.882997
vt 0.937035 0.824611
vt 0.963603 0.371362
vt 0.621457 0.522724
vt 0.203208 0.882997
vt 0.928385 0.088040
vt 0.936239 0.465229
vt 0.470683 0.887030
vt 0.960898 0.924193
vt 0.930553 0.465229
vt 0.928385 0.093725
vt 0.666506 0.263140
vt 0.151347 0.875740
vt 0.936672 0.671625
vt 0.937035 0.924195
vt 0.145662 0.875740
vt 0.666506 0.268825
vt 0.904522 0.088040
vt 0.180120 0.875740
vt 0.960102 0.518638
vt 0.966834 0.209142
vt 0.174434 0.875740
vt 0.904522 0.093725
vt 0.669183 0.517038
vt 0.046002 0.875740
vt 0.959759 0.618216
vt 0.963603 0.294866
vt 0.040317 0.875740
vt 0.669183 0.522724
vt 0.642643 0.263140
vt 0.293667 0.889289
vt 0.017229 0.875740
vt 0.962068 0.011544
vt 0.642643 0.268825
vt 0.011544 0.875740
vt 0.645320 0.517038
vt 0.957650 0.172410
vt 0.880997 0.871533
vt 0.960898 0.847699
vt 0.645320 0.522724
vt 0.875312 0.871533
vt 0.594917 0.263140
vt 0.757732 0.858762
vt 0.936259 0.847699
vt 0.911183 0.921586
vt 0.752047 0.858762
vt 0.594917 0.268825
vt 0.618780 0.263140
vt 0.909431 0.011544
vt 0.348284 0.882890
vt 0.293667 0.912377
vt 0.903746 0.011544
vt 0.618780 0.268825
vt 0.852224 0.629338
vt 0.933787 0.206049
vt 0.656147 0.119531
vt 0.656147 0.032484
vt 0.880493 0.246152
vt 0.933787 0.119002
vt 0.529001 0.032484
vt 0.880493 0.119002
vt 0.689886 0.814409
vt 0.689886 0.901457
vt 0.852224 0.756488
vt 0.529001 0.119532
vt 0.670412 0.011544
vt 0.670412 0.240052
vt 0.875312 0.467978
vt 0.552045 0.673607
vt 0.324420 0.829481
vt 0.263139 0.835881
vt 0.552045 0.546461
vt 0.875312 0.595129
vt 0.853323 0.294866
vt 0.263139 0.922929
vt 0.639093 0.546461
vt 0.324420 0.916529
vt 0.639093 0.673607
vt 0.853323 0.422016
vt 0.847507 0.629338
vt 0.350187 0.578191
vt 0.929070 0.206049
vt 0.269804 0.922929
vt 0.859988 0.294866
vt 0.528958 0.673612
vt 0.269804 0.835881
vt 0.881976 0.595129
vt 0.441910 0.673612
vt 0.929070 0.119002
vt 0.875775 0.246152
vt 0.263139 0.578191
vt 0.694604 0.901457
vt 0.847507 0.756488
vt 0.350187 0.705337
vt 0.859988 0.422016
vt 0.317756 0.916529
vt 0.528958 0.546461
vt 0.875775 0.119002
vt 0.694604 0.814409
vt 0.263139 0.705337
vt 0.317756 0.829481
vt 0.881976 0.467978
vt 0.441910 0.546461
vt 0.342116 0.589993
vt 0.887319 0.744874
vt 0.666798 0.885315
vt 0.875312 0.744874
vt 0.654791 0.885315
vt 0.520887 0.661823
vt 0.654791 0.814409
vt 0.875312 0.721787
vt 0.449981 0.661823
vt 0.887319 0.721787
vt 0.666798 0.814409
vt 0.271210 0.589992
vt 0.868651 0.082449
vt 0.887319 0.848446
vt 0.342116 0.693560
vt 0.880658 0.082449
vt 0.520887 0.558252
vt 0.875312 0.848446
vt 0.271210 0.693560
vt 0.887319 0.618216
vt 0.868651 0.011544
vt 0.875312 0.618216
vt 0.449981 0.558252
vt 0.880658 0.011544
vt 0.852224 0.467978
vt 0.658788 0.941813
vt 0.523446 0.229000
vt 0.852224 0.606250
vt 0.223726 0.433017
vt 0.661587 0.223109
vt 0.929070 0.229141
vt 0.738662 0.259576
vt 0.553731 0.121588
vt 0.804376 0.372685
vt 0.804376 0.294865
vt 0.631548 0.121588
vt 0.715575 0.259586
vt 0.845564 0.089566
vt 0.760736 0.233728
vt 0.317764 0.806393
vt 0.693500 0.233717
vt 0.845564 0.011600
vt 0.317756 0.728424
vt 0.738662 0.233717
vt 0.823489 0.089360
vt 0.830236 0.372688
vt 0.823488 0.011544
vt 0.715575 0.233727
vt 0.830236 0.294869
vt 0.339770 0.794779
vt 0.782509 0.965109
vt 0.626214 0.904421
vt 0.885592 0.966184
vt 0.339764 0.740040
vt 0.626214 0.849681
vt 0.321615 0.794779
vt 0.728959 0.858762
vt 0.782509 0.946954
vt 0.885592 0.948029
vt 0.321609 0.740039
vt 0.728959 0.913500
vt 0.792789 0.965109
vt 0.615933 0.904421
vt 0.875312 0.966184
vt 0.615933 0.849681
vt 0.718679 0.858763
vt 0.792789 0.946954
vt 0.875312 0.948029
vt 0.718679 0.913500
vt 0.505798 0.904420
vt 0.523953 0.849683
vt 0.505798 0.849681
vt 0.786185 0.261345
vt 0.818237 0.946954
vt 0.522512 0.890867
vt 0.783824 0.261345
vt 0.945825 0.569356
vt 0.815876 0.946954
vt 0.783824 0.233717
vt 0.945825 0.541727
vt 0.176467 0.967508
vt 0.689886 0.952172
vt 0.930553 0.541725
vt 0.176467 0.952236
vt 0.522512 0.863239
vt 0.178828 0.967508
vt 0.786185 0.233717
vt 0.507240 0.863237
vt 0.692247 0.952172
vt 0.178828 0.952236
vt 0.783824 0.253057
vt 0.945825 0.561067
vt 0.783824 0.242005
vt 0.945825 0.550016
vt 0.689886 0.943884
vt 0.930553 0.550014
vt 0.523953 0.904423
vt 0.692247 0.924545
vt 0.818237 0.962226
vt 0.507240 0.890865
vt 0.689886 0.924545
vt 0.815876 0.962226
vt 0.930553 0.569354
vt 0.983189 0.515700
vt 0.939893 0.562770
vt 0.318036 0.939645
vt 0.986597 0.465230
vt 0.939893 0.551719
vt 0.237802 0.973184
vt 0.320303 0.939626
vt 0.937624 0.563449
vt 0.937624 0.552398
vt 0.235535 0.973186
vt 0.939112 0.547789
vt 0.116352 0.973432
vt 0.940415 0.550937
vt 0.985815 0.465230
vt 0.940599 0.550015
vt 0.984893 0.465229
vt 0.983972 0.515700
vt 0.940415 0.561989
vt 0.940599 0.561067
vt 0.984894 0.515700
vt 0.939111 0.563293
vt 0.318817 0.939638
vt 0.986597 0.515700
vt 0.939893 0.559363
vt 0.418561 0.972073
vt 0.237021 0.973185
vt 0.939111 0.552241
vt 0.939893 0.548311
vt 0.983189 0.465230
vt 0.115568 0.973431
vt 0.940416 0.549093
vt 0.983971 0.465229
vt 0.936486 0.548311
vt 0.986762 0.618216
vt 0.118975 0.973432
vt 0.940416 0.560145
vt 0.985816 0.515700
vt 0.415153 0.972072
vt 0.936486 0.559362
vt 0.415536 0.948985
vt 0.321825 0.939617
vt 0.936105 0.562352
vt 0.418529 0.948985
vt 0.937268 0.558840
vt 0.415932 0.972072
vt 0.938580 0.558649
vt 0.417243 0.972073
vt 0.936105 0.551300
vt 0.234014 0.973185
vt 0.983770 0.618216
vt 0.937268 0.547789
vt 0.118197 0.973432
vt 0.938190 0.547605
vt 0.117276 0.973432
vt 0.935802 0.549540
vt 0.985527 0.618216
vt 0.935802 0.560591
vt 0.416771 0.948985
vt 0.542583 0.266074
vt 0.318916 0.953329
vt 0.983608 0.502008
vt 0.317756 0.953339
vt 0.543326 0.267371
vt 0.547190 0.266456
vt 0.417418 0.985764
vt 0.319838 0.953321
vt 0.542549 0.265135
vt 0.542877 0.264254
vt 0.320760 0.953315
vt 0.985369 0.502009
vt 0.545016 0.267951
vt 0.321825 0.953308
vt 0.543828 0.263330
vt 0.418677 0.935294
vt 0.545311 0.263140
vt 0.417247 0.935293
vt 0.546192 0.263468
vt 0.416323 0.935294
vt 0.515759 0.267506
vt 0.116352 0.959741
vt 0.516628 0.263140
vt 0.237022 0.959494
vt 0.986597 0.478921
vt 0.237802 0.959493
vt 0.515759 0.263499
vt 0.514850 0.264571
vt 0.985368 0.478921
vt 0.516628 0.267866
vt 0.117276 0.959741
vt 0.236100 0.959495
vt 0.517568 0.263140
vt 0.118197 0.959741
vt 0.517568 0.267866
vt 0.518437 0.263499
vt 0.235178 0.959495
vt 0.514735 0.265973
vt 0.983971 0.478921
vt 0.234113 0.959494
vt 0.519325 0.264484
vt 0.983623 0.631907
vt 0.519461 0.265973
vt 0.985052 0.631907
vt 0.519102 0.266842
vt 0.985976 0.631907
vt 0.546338 0.267472
vt 0.418561 0.985765
vt 0.986597 0.502008
vt 0.115568 0.959740
vt 0.515095 0.266842
vt 0.983189 0.478921
vt 0.518437 0.267506
vt 0.986762 0.631907
vt 0.118975 0.959741
vt 0.415153 0.935294
vt 0.415569 0.985763
vt 0.547190 0.264581
vt 0.760736 0.259583
vt 0.343619 0.806394
vt 0.553525 0.143663
vt 0.695592 0.546461
vt 0.661270 0.237010
vt 0.942971 0.229137
vt 0.631491 0.143663
vt 0.693500 0.259580
vt 0.343619 0.728425
vt 0.666798 0.908402
vt 0.662181 0.683865
vt 0.767387 0.295292
vt 0.775390 0.432993
vt 0.934968 0.262548
vt 0.846338 0.468229
vt 0.652896 0.941813
vt 0.223726 0.294870
vt 0.929069 0.262548
vt 0.781289 0.432993
vt 0.190318 0.433002
vt 0.222730 0.298987
vt 0.513965 0.696700
vt 0.849909 0.961385
vt 0.193910 0.428885
vt 0.615934 0.826594
vt 0.624100 0.956337
vt 0.373275 0.708090
vt 0.624100 0.826594
vt 0.615934 0.956331
vt 0.622955 0.927513
vt 0.512820 0.826593
vt 0.910407 0.748115
vt 0.848763 0.961386
vt 0.512820 0.696700
vt 0.910407 0.618216
vt 0.402098 0.578192
vt 0.841742 0.961391
vt 0.505798 0.696700
vt 0.658787 0.908402
vt 0.775398 0.294866
vt 0.695592 0.683865
vt 0.666798 0.941813
vt 0.523872 0.237010
vt 0.942971 0.262547
vt 0.662182 0.546461
vt 0.767388 0.432691
vt 0.781289 0.294866
vt 0.652896 0.908402
vt 0.190315 0.294869
vt 0.615933 0.696695
vt 0.193907 0.298986
vt 0.849909 0.932563
vt 0.222733 0.428886
vt 0.513965 0.826593
vt 0.624100 0.927513
vt 0.848763 0.958984
vt 0.912809 0.618216
vt 0.848763 0.956582
vt 0.908565 0.424765
vt 0.848763 0.954180
vt 0.910967 0.424765
vt 0.848763 0.951778
vt 0.903580 0.248901
vt 0.848763 0.949377
vt 0.905982 0.248901
vt 0.848763 0.946975
vt 0.885477 0.294866
vt 0.848763 0.944573
vt 0.883075 0.294866
vt 0.848763 0.942171
vt 0.847507 0.909475
vt 0.849908 0.909475
vt 0.848763 0.939769
vt 0.848763 0.937367
vt 0.907466 0.595128
vt 0.848763 0.934965
vt 0.905064 0.595129
vt 0.373275 0.578191
vt 0.624100 0.696695
vt 0.841742 0.932568
vt 0.622955 0.953934
vt 0.905064 0.465230
vt 0.622955 0.951532
vt 0.907466 0.465229
vt 0.622955 0.949130
vt 0.849908 0.779576
vt 0.622955 0.946728
vt 0.847507 0.779576
vt 0.622955 0.944326
vt 0.883075 0.424765
vt 0.622955 0.941924
vt 0.885477 0.424765
vt 0.622955 0.939522
vt 0.905982 0.119002
vt 0.622955 0.937120
vt 0.903580 0.119002
vt 0.622955 0.934718
vt 0.910967 0.294866
vt 0.622955 0.932316
vt 0.908565 0.294866
vt 0.622955 0.929915
vt 0.912809 0.748115
vt 0.505798 0.826594
vt 0.402098 0.708091
vt 0.615933 0.927508
s 0
f 7/12/1 17/40/1 3/5/1
f 121/313/2 4/7/2 21/52/2
f 20/49/2 7/13/2 6/10/2
f 45/119/3 35/93/3 34/91/3
f 34/92/4 122/314/4 119/308/4
f 35/94/2 4/7/2 36/96/2
f 119/308/4 8/15/4 37/97/4
f 119/308/4 3/6/4 8/15/4
f 6/10/2 16/37/2 20/49/2
f 4/7/2 35/94/2 7/13/2
f 15/36/2 121/313/2 21/52/2
f 48/127/2 15/36/2 2/2/2
f 37/97/4 34/92/4 119/308/4
f 44/116/2 48/127/2 2/2/2
f 2/2/2 49/130/2 44/116/2
f 2/2/2 120/312/2 49/130/2
f 264/712/5 251/682/5 253/684/5
f 254/685/6 255/688/6 260/703/6
f 290/772/5 283/757/5 265/715/5
f 289/770/5 286/763/5 262/708/5
f 252/683/5 254/687/5 258/697/5
f 253/684/5 259/700/5 264/712/5
f 295/784/7 283/756/7 297/787/7
f 278/743/5 256/692/5 261/706/5
f 252/683/5 258/697/5 259/700/5
f 252/683/5 259/700/5 253/684/5
f 252/683/5 263/709/5 254/687/5
f 269/725/8 307/810/8 305/805/8
f 284/759/5 269/724/5 285/761/5
f 274/735/9 296/785/9 281/752/9
f 284/760/10 315/830/10 282/753/10
f 268/722/8 295/784/8 294/781/8
f 315/831/5 293/779/5 312/820/5
f 291/774/11 294/782/11 292/778/11
f 315/831/5 312/820/5 296/786/5
f 297/788/5 315/831/5 294/782/5
f 306/808/5 300/794/5 313/824/5
f 301/796/12 305/806/12 302/800/12
f 306/808/5 313/824/5 303/801/5
f 309/814/5 306/808/5 305/806/5
f 306/808/12 311/818/12 314/826/12
f 235/639/13 17/42/13 316/834/13
f 236/642/14 214/576/14 317/836/14
f 236/640/15 321/846/15 235/637/15
f 235/638/16 321/847/16 329/870/16
f 327/864/17 328/868/17 335/887/17
f 347/912/16 324/857/16 325/860/16
f 334/886/16 357/932/16 326/861/16
f 334/886/16 356/930/16 357/932/16
f 334/886/16 355/928/16 356/930/16
f 334/886/16 354/926/16 355/928/16
f 334/886/16 353/924/16 354/926/16
f 334/886/16 352/922/16 353/924/16
f 334/886/16 351/920/16 352/922/16
f 324/857/16 349/916/16 350/918/16
f 324/857/16 348/914/16 349/916/16
f 324/857/16 347/912/16 348/914/16
f 344/905/3 346/911/3 345/907/3
f 342/901/17 328/868/17 343/904/17
f 341/899/17 328/868/17 342/901/17
f 340/897/17 328/868/17 341/899/17
f 339/895/17 328/868/17 340/897/17
f 338/893/17 328/868/17 339/895/17
f 337/891/17 328/868/17 338/893/17
f 336/889/17 328/868/17 337/891/17
f 335/887/17 328/868/17 336/889/17
f 328/867/18 358/935/18 346/909/18
f 322/851/19 324/855/19 334/884/19
f 317/835/20 330/872/20 331/876/20
f 329/870/21 319/841/21 330/873/21
f 6/9/1 3/5/1 119/309/1
f 5/8/4 37/97/4 8/15/4
f 10/20/1 19/46/1 18/43/1
f 9/17/3 14/31/3 11/22/3
f 12/26/22 8/15/22 14/32/22
f 17/41/23 13/29/23 3/6/23
f 5/8/24 19/47/24 17/41/24
f 3/6/25 14/32/25 8/15/25
f 11/24/26 13/30/26 10/19/26
f 10/21/4 9/18/4 11/23/4
f 15/36/2 6/10/2 2/2/2
f 4/7/2 20/49/2 21/52/2
f 25/64/1 16/38/1 24/61/1
f 29/77/2 25/66/2 28/73/2
f 20/51/27 26/68/27 21/53/27
f 23/58/2 22/55/2 27/70/2
f 22/56/3 21/54/3 26/67/3
f 29/76/26 31/83/26 33/88/26
f 26/69/2 27/70/2 22/55/2
f 22/57/26 16/39/26 15/34/26
f 25/66/2 23/58/2 28/73/2
f 23/59/27 32/86/27 30/79/27
f 27/72/1 33/90/1 32/85/1
f 31/84/2 32/87/2 33/89/2
f 28/75/3 30/81/3 31/82/3
f 2/3/26 119/310/26 122/315/26
f 38/98/27 47/124/27 46/121/27
f 2/4/3 34/91/3 35/93/3
f 125/320/28 36/95/28 124/318/28
f 47/125/3 39/102/3 46/122/3
f 43/113/1 38/99/1 40/104/1
f 41/109/23 37/97/23 1/1/23
f 45/120/22 42/111/22 47/126/22
f 45/120/29 41/109/29 1/1/29
f 43/114/25 34/92/25 37/97/25
f 42/112/26 40/106/26 39/101/26
f 38/100/4 39/103/4 40/105/4
f 35/94/2 120/312/2 2/2/2
f 123/317/30 121/313/30 126/322/30
f 50/135/2 15/36/2 48/127/2
f 44/117/3 54/145/3 53/142/3
f 55/150/2 57/155/2 54/147/2
f 55/149/27 49/132/27 50/133/27
f 51/136/2 52/139/2 56/151/2
f 50/134/1 51/137/1 55/148/1
f 60/164/26 58/157/26 62/169/26
f 56/151/2 55/150/2 51/136/2
f 51/138/26 44/118/26 53/143/26
f 54/147/2 52/139/2 53/144/2
f 61/167/27 52/140/27 59/160/27
f 62/171/3 56/153/3 61/166/3
f 61/168/2 60/165/2 62/170/2
f 59/162/1 57/156/1 60/163/1
f 66/175/26 74/197/26 73/194/26
f 74/198/1 67/179/1 73/195/1
f 71/190/3 66/176/3 68/181/3
f 65/174/22 69/186/22 71/191/22
f 70/188/23 72/193/23 63/172/23
f 72/193/25 69/186/25 64/173/25
f 71/191/29 63/172/29 65/174/29
f 70/189/27 68/183/27 67/178/27
f 66/177/4 67/180/4 68/182/4
f 85/223/26 81/212/26 78/203/26
f 79/207/3 86/226/3 85/222/3
f 78/204/1 83/218/1 80/209/1
f 81/214/23 77/202/23 83/219/23
f 84/221/22 82/216/22 75/200/22
f 81/214/25 84/221/25 76/201/25
f 75/200/29 83/219/29 77/202/29
f 80/211/27 82/217/27 79/206/27
f 79/208/4 78/205/4 80/210/4
f 94/245/1 87/228/1 93/242/1
f 98/258/2 94/247/2 97/254/2
f 89/233/27 95/249/27 90/234/27
f 92/239/2 91/236/2 96/251/2
f 91/237/3 90/235/3 95/248/3
f 98/257/26 100/263/26 102/266/26
f 95/250/2 96/251/2 91/236/2
f 91/238/26 87/229/26 88/230/26
f 94/247/2 92/239/2 97/254/2
f 92/240/27 101/265/27 99/260/27
f 96/253/1 102/267/1 101/264/1
f 97/256/3 99/261/3 100/262/3
f 110/285/1 103/268/1 109/282/1
f 111/290/2 113/294/2 114/298/2
f 105/273/27 111/289/27 106/274/27
f 108/279/2 107/277/2 112/291/2
f 107/278/3 106/275/3 111/288/3
f 114/297/26 116/303/26 118/306/26
f 111/290/2 112/291/2 107/277/2
f 109/283/26 104/271/26 107/276/26
f 110/287/2 108/279/2 113/294/2
f 108/280/27 117/305/27 115/300/27
f 112/293/1 118/307/1 117/304/1
f 113/296/3 115/301/3 116/302/3
f 120/312/2 50/135/2 49/130/2
f 36/96/31 123/317/31 124/319/31
f 120/312/32 126/322/32 121/313/32
f 131/329/2 130/328/2 129/327/2
f 192/513/1 150/387/1 191/509/1
f 149/383/2 167/437/2 148/380/2
f 201/540/26 141/359/26 183/485/26
f 147/377/2 165/431/2 146/374/2
f 204/549/1 162/422/1 203/545/1
f 145/371/2 163/426/2 144/368/2
f 177/469/3 136/345/3 178/470/3
f 143/365/2 161/419/2 142/362/2
f 184/489/27 161/420/27 202/542/27
f 141/360/2 159/413/2 140/356/2
f 203/546/26 143/366/26 185/491/26
f 139/353/2 157/407/2 138/350/2
f 189/505/3 148/381/3 190/506/3
f 137/347/2 155/401/2 136/344/2
f 202/543/1 160/418/1 201/539/1
f 135/342/2 153/395/2 134/338/2
f 175/463/3 134/339/3 176/464/3
f 133/336/2 151/390/2 132/332/2
f 186/495/27 163/427/27 204/548/27
f 170/447/2 172/453/2 171/449/2
f 190/507/2 207/558/2 189/503/2
f 188/501/2 205/552/2 187/497/2
f 186/496/2 203/547/2 185/492/2
f 184/490/2 201/541/2 183/486/2
f 182/483/2 199/534/2 181/479/2
f 180/477/2 197/528/2 179/473/2
f 178/471/2 195/522/2 177/467/2
f 176/465/2 193/516/2 175/461/2
f 174/459/2 191/510/2 173/455/2
f 182/484/27 159/414/27 200/536/27
f 179/475/3 138/351/3 180/476/3
f 206/556/1 164/429/1 205/551/1
f 199/535/26 139/354/26 181/480/26
f 194/520/1 152/393/1 193/515/1
f 180/478/27 157/408/27 198/530/27
f 181/481/3 140/358/3 182/482/3
f 208/562/1 166/435/1 207/557/1
f 170/448/27 127/323/27 169/443/27
f 197/529/26 137/349/26 179/474/26
f 171/451/3 128/326/3 170/446/3
f 196/526/1 154/399/1 195/521/1
f 178/472/27 155/403/27 196/524/27
f 183/487/3 142/364/3 184/488/3
f 172/454/26 149/385/26 171/450/26
f 169/445/1 168/442/1 172/452/1
f 195/523/26 135/343/26 177/468/26
f 190/508/27 167/439/27 208/560/27
f 198/532/1 156/406/1 197/527/1
f 176/466/27 153/397/27 194/518/27
f 185/493/3 144/370/3 186/494/3
f 207/559/26 147/379/26 189/504/26
f 193/517/26 133/337/26 175/462/26
f 188/502/27 165/433/27 206/554/27
f 173/457/3 132/333/3 174/458/3
f 200/538/1 158/412/1 199/533/1
f 174/460/27 151/391/27 192/512/27
f 187/499/3 146/376/3 188/500/3
f 205/553/26 145/373/26 187/498/26
f 191/511/26 131/331/26 173/456/26
f 7/14/27 210/566/27 211/569/27
f 221/595/3 217/584/3 216/580/3
f 212/574/27 7/14/27 211/569/27
f 316/834/33 212/574/33 237/645/33
f 209/565/34 213/575/34 214/576/34
f 217/585/27 215/578/27 216/581/27
f 220/593/4 218/588/4 217/583/4
f 224/605/1 215/579/1 218/586/1
f 226/611/2 216/582/2 215/577/2
f 211/570/2 222/599/2 225/607/2
f 219/590/35 231/627/35 227/613/35
f 212/572/1 225/608/1 223/601/1
f 230/624/36 219/590/36 227/613/36
f 209/563/4 223/602/4 219/589/4
f 221/597/37 234/635/37 229/621/37
f 210/568/3 219/591/3 222/598/3
f 226/612/38 232/629/38 234/635/38
f 233/632/2 229/620/2 234/634/2
f 231/625/1 234/636/1 232/628/1
f 227/614/4 232/630/4 228/616/4
f 230/623/3 228/617/3 229/619/3
f 231/627/39 225/609/39 233/631/39
f 225/609/40 230/624/40 233/631/40
f 220/594/41 229/621/41 228/618/41
f 224/606/42 228/618/42 232/629/42
f 239/651/43 237/644/43 241/656/43
f 318/838/44 209/565/44 214/576/44
f 237/645/45 209/565/45 238/648/45
f 241/657/46 240/654/46 239/650/46
f 246/672/5 239/652/5 240/655/5
f 242/660/47 318/839/47 240/653/47
f 242/661/48 237/646/48 238/647/48
f 246/671/3 248/676/3 250/680/3
f 245/668/5 316/833/5 239/652/5
f 243/662/5 318/840/5 316/833/5
f 244/666/5 240/655/5 318/840/5
f 245/669/49 250/681/49 249/678/49
f 243/663/1 249/679/1 247/674/1
f 248/677/6 243/664/6 247/675/6
f 280/748/5 257/695/5 256/692/5
f 264/710/49 262/707/49 265/713/49
f 259/701/49 257/694/49 262/707/49
f 261/705/6 254/685/6 260/703/6
f 258/699/6 261/705/6 256/691/6
f 282/754/5 262/708/5 286/763/5
f 265/715/50 282/754/50 290/772/50
f 262/708/5 280/748/5 289/770/5
f 272/730/5 261/706/5 271/728/5
f 261/706/5 276/739/5 267/720/5
f 269/724/5 282/754/5 286/763/5
f 274/734/5 260/704/5 273/733/5
f 255/689/5 266/717/5 260/704/5
f 272/731/51 271/729/51 303/802/51
f 268/723/5 275/736/5 265/715/5
f 255/690/1 264/711/1 265/714/1
f 270/726/5 288/768/5 256/692/5
f 256/693/3 259/702/3 258/698/3
f 251/682/5 254/687/5 263/709/5
f 299/793/52 282/755/52 315/829/52
f 302/798/53 271/729/53 267/719/53
f 312/822/54 281/752/54 296/785/54
f 304/804/55 270/727/55 300/795/55
f 311/819/56 280/749/56 314/827/56
f 306/807/57 288/769/57 304/804/57
f 313/825/58 279/747/58 308/812/58
f 290/773/59 299/793/59 298/791/59
f 314/828/60 287/767/60 306/807/60
f 298/791/61 283/758/61 290/773/61
f 300/795/62 278/745/62 313/823/62
f 305/805/63 277/741/63 269/725/63
f 301/797/64 267/721/64 277/741/64
f 276/739/5 277/742/5 267/720/5
f 18/45/27 12/27/27 9/16/27
f 293/780/65 276/740/65 312/821/65
f 285/761/5 269/724/5 277/742/5
f 307/810/7 286/764/7 309/813/7
f 292/776/66 274/735/66 273/732/66
f 291/775/64 266/718/64 275/737/64
f 284/760/67 293/780/67 315/830/67
f 273/732/68 266/716/68 292/776/68
f 310/817/61 286/765/61 289/771/61
f 289/771/59 311/819/59 310/817/59
f 294/781/63 275/737/63 268/722/63
f 308/812/69 272/731/69 303/802/69
f 296/786/5 294/782/5 315/831/5
f 302/800/5 306/808/5 303/801/5
f 295/783/12 297/788/12 294/782/12
f 297/788/5 298/790/5 315/831/5
f 315/831/5 298/790/5 299/792/5
f 306/808/5 304/803/5 300/794/5
f 303/801/5 313/824/5 308/811/5
f 17/42/27 317/836/27 214/576/27
f 307/809/5 309/814/5 305/806/5
f 309/814/5 310/816/5 306/808/5
f 306/808/5 310/816/5 311/818/5
f 236/642/27 316/834/27 318/838/27
f 320/844/70 319/843/70 329/871/70
f 235/639/71 330/874/71 17/42/71
f 236/642/72 318/838/72 214/576/72
f 322/850/73 329/871/73 332/878/73
f 334/884/74 321/848/74 236/641/74
f 333/882/75 322/851/75 332/880/75
f 346/910/26 324/856/26 333/881/26
f 323/853/27 326/862/27 327/865/27
f 328/869/27 326/862/27 358/934/27
f 325/860/16 349/916/16 348/914/16
f 323/854/17 327/864/17 335/887/17
f 326/861/16 357/932/16 358/936/16
f 357/932/16 356/930/16 358/936/16
f 356/930/16 355/928/16 358/936/16
f 355/928/16 354/926/16 358/936/16
f 354/926/16 353/924/16 358/936/16
f 353/924/16 352/922/16 358/936/16
f 352/922/16 351/920/16 358/936/16
f 351/920/16 350/918/16 358/936/16
f 350/918/16 349/916/16 358/936/16
f 351/920/16 324/857/16 350/918/16
f 348/914/16 347/912/16 325/860/16
f 346/911/17 343/904/17 328/868/17
f 345/907/17 346/911/17 333/883/17
f 340/897/17 323/854/17 339/895/17
f 333/883/3 344/905/3 345/907/3
f 333/883/17 343/904/17 344/905/17
f 333/883/17 342/901/17 343/904/17
f 333/883/17 341/899/17 342/901/17
f 333/883/17 340/897/17 341/899/17
f 320/845/76 317/837/76 331/875/76
f 323/854/17 338/893/17 339/895/17
f 323/854/17 337/891/17 338/893/17
f 323/854/17 336/889/17 337/891/17
f 323/854/17 335/887/17 336/889/17
f 346/909/18 358/935/18 325/858/18
f 236/641/77 322/851/77 334/884/77
f 320/845/78 322/849/78 236/643/78
f 329/870/16 321/847/16 332/879/16
f 332/880/79 323/852/79 333/882/79
f 332/880/80 321/848/80 323/852/80
f 331/876/20 330/872/20 319/842/20
f 342/902/18 349/917/18 343/903/18
f 235/638/81 329/870/81 330/873/81
f 347/913/82 344/906/82 345/908/82
f 351/921/18 340/898/18 352/923/18
f 338/894/18 353/925/18 339/896/18
f 355/929/18 336/890/18 356/931/18
f 357/933/82 327/866/82 335/888/82
f 295/784/83 268/722/83 283/756/83
f 6/9/1 7/12/1 3/5/1
f 5/8/4 1/1/4 37/97/4
f 10/20/1 13/28/1 19/46/1
f 9/17/3 12/25/3 14/31/3
f 12/26/22 5/8/22 8/15/22
f 17/41/23 19/47/23 13/29/23
f 5/8/29 12/26/29 19/47/29
f 3/6/25 13/29/25 14/32/25
f 11/24/26 14/33/26 13/30/26
f 10/21/4 18/44/4 9/18/4
f 15/36/2 16/37/2 6/10/2
f 4/7/2 7/13/2 20/49/2
f 25/64/1 20/50/1 16/38/1
f 29/77/2 26/69/2 25/66/2
f 20/51/27 25/65/27 26/68/27
f 23/58/2 24/63/2 22/55/2
f 22/56/3 15/35/3 21/54/3
f 29/76/26 28/74/26 31/83/26
f 26/69/2 29/77/2 27/70/2
f 22/57/26 24/62/26 16/39/26
f 25/66/2 24/63/2 23/58/2
f 23/59/27 27/71/27 32/86/27
f 27/72/1 29/78/1 33/90/1
f 31/84/2 30/80/2 32/87/2
f 28/75/3 23/60/3 30/81/3
f 2/3/26 6/11/26 119/310/26
f 38/98/27 41/107/27 47/124/27
f 2/4/3 122/316/3 34/91/3
f 125/320/28 120/311/28 36/95/28
f 47/125/3 42/110/3 39/102/3
f 43/113/1 41/108/1 38/99/1
f 41/109/23 43/114/23 37/97/23
f 45/120/22 34/92/22 42/111/22
f 45/120/29 47/126/29 41/109/29
f 43/114/25 42/111/25 34/92/25
f 42/112/26 43/115/26 40/106/26
f 38/100/4 46/123/4 39/103/4
f 35/94/2 36/96/2 120/312/2
f 123/317/30 4/7/30 121/313/30
f 50/135/2 121/313/2 15/36/2
f 44/117/3 49/131/3 54/145/3
f 55/150/2 58/158/2 57/155/2
f 55/149/27 54/146/27 49/132/27
f 51/136/2 53/144/2 52/139/2
f 50/134/1 48/128/1 51/137/1
f 60/164/26 57/154/26 58/157/26
f 56/151/2 58/158/2 55/150/2
f 51/138/26 48/129/26 44/118/26
f 54/147/2 57/155/2 52/139/2
f 61/167/27 56/152/27 52/140/27
f 62/171/3 58/159/3 56/153/3
f 61/168/2 59/161/2 60/165/2
f 59/162/1 52/141/1 57/156/1
f 66/175/26 69/184/26 74/197/26
f 74/198/1 70/187/1 67/179/1
f 71/190/3 69/185/3 66/176/3
f 65/174/22 64/173/22 69/186/22
f 70/188/23 74/199/23 72/193/23
f 72/193/25 74/199/25 69/186/25
f 71/191/29 70/188/29 63/172/29
f 70/189/27 71/192/27 68/183/27
f 66/177/4 73/196/4 67/180/4
f 85/223/26 86/225/26 81/212/26
f 79/207/3 82/215/3 86/226/3
f 78/204/1 81/213/1 83/218/1
f 81/214/23 76/201/23 77/202/23
f 84/221/22 86/227/22 82/216/22
f 81/214/25 86/227/25 84/221/25
f 75/200/29 82/216/29 83/219/29
f 80/211/27 83/220/27 82/217/27
f 79/208/4 85/224/4 78/205/4
f 94/245/1 89/232/1 87/228/1
f 98/258/2 95/250/2 94/247/2
f 89/233/27 94/246/27 95/249/27
f 92/239/2 93/244/2 91/236/2
f 91/237/3 88/231/3 90/235/3
f 98/257/26 97/255/26 100/263/26
f 95/250/2 98/258/2 96/251/2
f 91/238/26 93/243/26 87/229/26
f 94/247/2 93/244/2 92/239/2
f 92/240/27 96/252/27 101/265/27
f 96/253/1 98/259/1 102/267/1
f 97/256/3 92/241/3 99/261/3
f 110/285/1 105/272/1 103/268/1
f 111/290/2 110/287/2 113/294/2
f 105/273/27 110/286/27 111/289/27
f 108/279/2 109/284/2 107/277/2
f 107/278/3 104/270/3 106/275/3
f 114/297/26 113/295/26 116/303/26
f 111/290/2 114/298/2 112/291/2
f 109/283/26 103/269/26 104/271/26
f 110/287/2 109/284/2 108/279/2
f 108/280/27 112/292/27 117/305/27
f 112/293/1 114/299/1 118/307/1
f 113/296/3 108/281/3 115/301/3
f 120/312/2 121/313/2 50/135/2
f 36/96/31 4/7/31 123/317/31
f 120/312/32 125/321/32 126/322/32
f 131/329/2 150/386/2 130/328/2
f 192/513/1 151/389/1 150/387/1
f 149/383/2 168/440/2 167/437/2
f 201/540/26 160/416/26 141/359/26
f 147/377/2 166/434/2 165/431/2
f 204/549/1 163/425/1 162/422/1
f 145/371/2 164/428/2 163/426/2
f 177/469/3 135/341/3 136/345/3
f 143/365/2 162/423/2 161/419/2
f 184/489/27 142/363/27 161/420/27
f 141/360/2 160/417/2 159/413/2
f 203/546/26 162/424/26 143/366/26
f 139/353/2 158/410/2 157/407/2
f 189/505/3 147/378/3 148/381/3
f 137/347/2 156/404/2 155/401/2
f 202/543/1 161/421/1 160/418/1
f 135/342/2 154/398/2 153/395/2
f 175/463/3 133/335/3 134/339/3
f 133/336/2 152/392/2 151/390/2
f 186/495/27 144/369/27 163/427/27
f 170/447/2 169/444/2 172/453/2
f 190/507/2 208/561/2 207/558/2
f 188/501/2 206/555/2 205/552/2
f 186/496/2 204/550/2 203/547/2
f 184/490/2 202/544/2 201/541/2
f 182/483/2 200/537/2 199/534/2
f 180/477/2 198/531/2 197/528/2
f 178/471/2 196/525/2 195/522/2
f 176/465/2 194/519/2 193/516/2
f 174/459/2 192/514/2 191/510/2
f 182/484/27 140/357/27 159/414/27
f 179/475/3 137/348/3 138/351/3
f 206/556/1 165/432/1 164/429/1
f 199/535/26 158/411/26 139/354/26
f 194/520/1 153/396/1 152/393/1
f 180/478/27 138/352/27 157/408/27
f 181/481/3 139/355/3 140/358/3
f 208/562/1 167/438/1 166/435/1
f 170/448/27 128/325/27 127/323/27
f 197/529/26 156/405/26 137/349/26
f 171/451/3 149/384/3 128/326/3
f 196/526/1 155/402/1 154/399/1
f 178/472/27 136/346/27 155/403/27
f 183/487/3 141/361/3 142/364/3
f 172/454/26 168/441/26 149/385/26
f 169/445/1 127/324/1 168/442/1
f 195/523/26 154/400/26 135/343/26
f 190/508/27 148/382/27 167/439/27
f 198/532/1 157/409/1 156/406/1
f 176/466/27 134/340/27 153/397/27
f 185/493/3 143/367/3 144/370/3
f 207/559/26 166/436/26 147/379/26
f 193/517/26 152/394/26 133/337/26
f 188/502/27 146/375/27 165/433/27
f 173/457/3 131/330/3 132/333/3
f 200/538/1 159/415/1 158/412/1
f 174/460/27 132/334/27 151/391/27
f 187/499/3 145/372/3 146/376/3
f 205/553/26 164/430/26 145/373/26
f 191/511/26 150/388/26 131/331/26
f 7/14/27 213/575/27 210/566/27
f 221/595/3 220/592/3 217/584/3
f 212/574/34 17/42/34 7/14/34
f 316/834/84 17/42/84 212/574/84
f 209/565/27 210/566/27 213/575/27
f 217/585/27 218/587/27 215/578/27
f 220/593/4 224/604/4 218/588/4
f 224/605/1 226/610/1 215/579/1
f 226/611/2 221/596/2 216/582/2
f 211/570/2 210/567/2 222/599/2
f 219/590/35 223/603/35 231/627/35
f 212/572/1 211/571/1 225/608/1
f 230/624/36 222/600/36 219/590/36
f 209/563/4 212/573/4 223/602/4
f 221/597/37 226/612/37 234/635/37
f 210/568/3 209/564/3 219/591/3
f 226/612/38 224/606/38 232/629/38
f 233/632/2 230/622/2 229/620/2
f 231/625/1 233/633/1 234/636/1
f 227/614/4 231/626/4 232/630/4
f 230/623/3 227/615/3 228/617/3
f 231/627/39 223/603/39 225/609/39
f 225/609/40 222/600/40 230/624/40
f 220/594/41 221/597/41 229/621/41
f 224/606/42 220/594/42 228/618/42
f 239/651/43 316/832/43 237/644/43
f 318/838/85 238/648/85 209/565/85
f 237/645/86 212/574/86 209/565/86
f 241/657/87 242/659/87 240/654/87
f 246/672/5 245/668/5 239/652/5
f 242/660/47 238/649/47 318/839/47
f 242/661/48 241/658/48 237/646/48
f 246/671/3 244/665/3 248/676/3
f 245/668/5 243/662/5 316/833/5
f 243/662/5 244/666/5 318/840/5
f 244/666/5 246/672/5 240/655/5
f 245/669/49 246/673/49 250/681/49
f 243/663/1 245/670/1 249/679/1
f 248/677/6 244/667/6 243/664/6
f 280/748/5 262/708/5 257/695/5
f 264/710/49 259/701/49 262/707/49
f 261/705/6 258/699/6 254/685/6
f 282/754/5 265/715/5 262/708/5
f 279/746/5 278/743/5 261/706/5
f 261/706/5 267/720/5 271/728/5
f 272/730/5 279/746/5 261/706/5
f 261/706/5 260/704/5 276/739/5
f 269/724/5 284/759/5 282/754/5
f 281/751/5 276/739/5 260/704/5
f 260/704/5 266/717/5 273/733/5
f 274/734/5 281/751/5 260/704/5
f 255/689/5 265/715/5 266/717/5
f 275/736/88 266/717/88 265/715/88
f 265/715/5 283/757/5 268/723/5
f 255/690/1 254/686/1 264/711/1
f 287/766/5 280/748/5 256/692/5
f 256/692/5 278/743/5 270/726/5
f 288/768/5 287/766/5 256/692/5
f 256/693/3 257/696/3 259/702/3
f 251/682/5 264/712/5 254/687/5
f 299/793/89 290/773/89 282/755/89
f 302/798/90 303/802/90 271/729/90
f 312/822/58 276/738/58 281/752/58
f 304/804/55 288/769/55 270/727/55
f 311/819/89 289/771/89 280/749/89
f 306/807/57 287/767/57 288/769/57
f 313/825/58 278/744/58 279/747/58
f 314/828/60 280/750/60 287/767/60
f 298/791/91 297/789/91 283/758/91
f 300/795/62 270/727/62 278/745/62
f 305/805/92 301/797/92 277/741/92
f 301/797/64 302/799/64 267/721/64
f 276/739/5 285/761/5 277/742/5
f 18/45/27 19/48/27 12/27/27
f 293/780/93 285/762/93 276/740/93
f 307/810/83 269/725/83 286/764/83
f 292/776/94 296/785/94 274/735/94
f 291/775/95 292/777/95 266/718/95
f 284/760/96 285/762/96 293/780/96
f 310/817/91 309/815/91 286/765/91
f 294/781/92 291/775/92 275/737/92
f 308/812/97 279/747/97 272/731/97
f 296/786/5 292/778/5 294/782/5
f 302/800/5 305/806/5 306/808/5
f 17/42/98 330/874/98 317/836/98
f 236/642/27 235/639/27 316/834/27
f 320/844/73 331/877/73 319/843/73
f 322/850/73 320/844/73 329/871/73
f 334/884/18 323/852/18 321/848/18
f 333/882/99 324/855/99 322/851/99
f 346/910/26 325/859/26 324/856/26
f 323/853/27 334/885/27 326/862/27
f 328/869/27 327/865/27 326/862/27
f 325/860/16 358/936/16 349/916/16
f 351/920/16 334/886/16 324/857/16
f 346/911/17 344/905/17 343/904/17
f 340/897/17 333/883/17 323/854/17
f 320/845/100 236/643/100 317/837/100
f 342/902/18 350/919/18 349/917/18
f 347/913/82 348/915/82 344/906/82
f 351/921/18 341/900/18 340/898/18
f 338/894/18 354/927/18 353/925/18
f 355/929/18 337/892/18 336/890/18
f 357/933/82 326/863/82 327/866/82
