# Blender 3.3.1
# www.blender.org
o Torus
v 2.497735 0.865635 0.271436
v 2.443930 1.072922 0.257654
v 2.296932 1.224666 0.220000
v 2.096128 1.280208 0.168565
v 1.895325 1.224666 0.117129
v 1.748327 1.072922 0.079475
v 1.694522 0.865635 0.065693
v 1.748327 0.658349 0.079475
v 1.895325 0.506605 0.117129
v 2.096128 0.451063 0.168565
v 2.296932 0.506605 0.220000
v 2.443930 0.658349 0.257654
v 2.744311 0.865635 -0.052042
v 2.669966 1.145101 -0.060996
v 2.466851 1.349684 -0.085459
v 2.189390 1.424566 -0.118875
v 1.911929 1.349684 -0.152292
v 1.708814 1.145101 -0.176754
v 1.634469 0.865635 -0.185708
v 1.708814 0.586170 -0.176754
v 1.911929 0.381587 -0.152292
v 2.189390 0.306705 -0.118875
v 2.466851 0.381587 -0.085459
v 2.669966 0.586170 -0.060996
v 2.809690 0.865635 -0.687643
v 2.734405 1.156516 -0.667470
v 2.528721 1.369455 -0.612357
v 2.247752 1.447396 -0.537072
v 1.966783 1.369455 -0.461786
v 1.761099 1.156516 -0.406674
v 1.685814 0.865635 -0.386501
v 1.761099 0.574755 -0.406674
v 1.966783 0.361816 -0.461786
v 2.247752 0.283875 -0.537072
v 2.528721 0.361816 -0.612357
v 2.734405 0.574755 -0.667470
v 2.819363 0.865635 -1.015522
v 2.743819 1.170801 -0.984231
v 2.537427 1.394198 -0.898740
v 2.255491 1.475967 -0.781959
v 1.973554 1.394198 -0.665177
v 1.767162 1.170801 -0.579687
v 1.691618 0.865635 -0.548395
v 1.767162 0.560470 -0.579687
v 1.973554 0.337073 -0.665177
v 2.255491 0.255304 -0.781959
v 2.537427 0.337073 -0.898740
v 2.743819 0.560470 -0.984231
v 2.642812 0.865635 -1.373533
v 2.571998 1.170801 -1.332648
v 2.378531 1.394198 -1.220950
v 2.114249 1.475967 -1.068367
v 1.849968 1.394198 -0.915784
v 1.656501 1.170801 -0.804086
v 1.585687 0.865635 -0.763201
v 1.656501 0.560470 -0.804086
v 1.849968 0.337073 -0.915784
v 2.114249 0.255304 -1.068367
v 2.378531 0.337073 -1.220950
v 2.571998 0.560470 -1.332648
v 2.581547 0.865635 -1.691422
v 2.512375 1.191032 -1.638344
v 2.323392 1.429239 -1.493333
v 2.065237 1.516429 -1.295244
v 1.807083 1.429239 -1.097154
v 1.618100 1.191032 -0.952143
v 1.548928 0.865635 -0.899066
v 1.618100 0.540239 -0.952143
v 1.807083 0.302032 -1.097154
v 2.065237 0.214842 -1.295244
v 2.323392 0.302032 -1.493333
v 2.512375 0.540239 -1.638344
v 2.300902 0.865635 -2.011434
v 2.239250 1.191032 -1.949782
v 2.070812 1.429239 -1.781344
v 1.840722 1.516429 -1.551254
v 1.610632 1.429239 -1.321164
v 1.442194 1.191032 -1.152726
v 1.380542 0.865635 -1.091074
v 1.442194 0.540239 -1.152726
v 1.610632 0.302032 -1.321164
v 1.840722 0.214842 -1.551254
v 2.070812 0.302032 -1.781344
v 2.239250 0.540239 -1.949782
v 2.183589 0.865635 -2.312112
v 2.125080 1.224329 -2.235862
v 1.965230 1.486911 -2.027542
v 1.746871 1.583023 -1.742971
v 1.528512 1.486911 -1.458400
v 1.368662 1.224329 -1.250080
v 1.310153 0.865635 -1.173830
v 1.368662 0.506942 -1.250080
v 1.528512 0.244360 -1.458400
v 1.746871 0.148248 -1.742971
v 1.965230 0.244360 -2.027542
v 2.125080 0.506942 -2.235862
v 1.793468 0.865635 -2.572784
v 1.745412 1.224329 -2.489548
v 1.614121 1.486911 -2.262145
v 1.434774 1.583023 -1.951508
v 1.255428 1.486911 -1.640870
v 1.124137 1.224329 -1.413467
v 1.076081 0.865635 -1.330232
v 1.124137 0.506942 -1.413467
v 1.255428 0.244360 -1.640870
v 1.434774 0.148248 -1.951508
v 1.614121 0.244360 -2.262145
v 1.745412 0.506942 -2.489548
v 1.606105 0.865635 -2.872427
v 1.563069 1.285331 -2.768531
v 1.445494 1.592569 -2.484680
v 1.284884 1.705026 -2.096932
v 1.124273 1.592569 -1.709184
v 1.006698 1.285331 -1.425334
v 0.963663 0.865635 -1.321437
v 1.006698 0.445940 -1.425334
v 1.124273 0.138702 -1.709184
v 1.284884 0.026245 -2.096932
v 1.445494 0.138702 -2.484680
v 1.563069 0.445940 -2.768531
v 1.086251 0.865635 -3.048894
v 1.057145 1.285331 -2.940269
v 0.977626 1.592569 -2.643499
v 0.869001 1.705026 -2.238106
v 0.760376 1.592569 -1.832711
v 0.680857 1.285331 -1.535942
v 0.651751 0.865635 -1.427317
v 0.680857 0.445940 -1.535942
v 0.760376 0.138702 -1.832711
v 0.869001 0.026245 -2.238106
v 0.977626 0.138702 -2.643499
v 1.057145 0.445940 -2.940269
v 0.646681 0.865635 -3.304467
v 0.629353 1.361078 -3.172849
v 0.582013 1.723767 -2.813263
v 0.517345 1.856520 -2.322059
v 0.452677 1.723767 -1.830856
v 0.405337 1.361078 -1.471270
v 0.388009 0.865635 -1.339652
v 0.405337 0.370193 -1.471270
v 0.452677 0.007504 -1.830856
v 0.517345 -0.125249 -2.322059
v 0.582013 0.007504 -2.813263
v 0.629353 0.370193 -3.172849
v 0.000001 0.865635 -3.443171
v 0.000001 1.409237 -3.297513
v 0.000000 1.807181 -2.899570
v 0.000000 1.952839 -2.355968
v 0.000000 1.807181 -1.812366
v 0.000000 1.409237 -1.414422
v 0.000000 0.865635 -1.268765
v 0.000000 0.322034 -1.414422
v 0.000000 -0.075910 -1.812366
v 0.000000 -0.221568 -2.355968
v 0.000000 -0.075910 -2.899570
v 0.000001 0.322034 -3.297513
v -0.646682 0.865635 -3.304466
v -0.629355 1.361078 -3.172849
v -0.582014 1.723767 -2.813263
v -0.517346 1.856520 -2.322059
v -0.452678 1.723767 -1.830856
v -0.405337 1.361078 -1.471270
v -0.388009 0.865635 -1.339652
v -0.405337 0.370193 -1.471270
v -0.452678 0.007504 -1.830856
v -0.517346 -0.125249 -2.322059
v -0.582014 0.007504 -2.813263
v -0.629355 0.370193 -3.172849
v -1.086250 0.865635 -3.048894
v -1.057144 1.285331 -2.940269
v -0.977625 1.592569 -2.643499
v -0.869000 1.705026 -2.238106
v -0.760375 1.592569 -1.832712
v -0.680856 1.285331 -1.535942
v -0.651750 0.865635 -1.427317
v -0.680856 0.445940 -1.535942
v -0.760375 0.138702 -1.832712
v -0.869000 0.026245 -2.238106
v -0.977625 0.138702 -2.643499
v -1.057144 0.445940 -2.940269
v -1.606104 0.865635 -2.872428
v -1.563069 1.285331 -2.768532
v -1.445494 1.592569 -2.484680
v -1.284883 1.705026 -2.096933
v -1.124273 1.592569 -1.709185
v -1.006698 1.285331 -1.425334
v -0.963662 0.865635 -1.321437
v -1.006698 0.445940 -1.425334
v -1.124273 0.138702 -1.709185
v -1.284883 0.026245 -2.096933
v -1.445494 0.138702 -2.484680
v -1.563069 0.445940 -2.768532
v -1.793468 0.865635 -2.572784
v -1.745412 1.224329 -2.489548
v -1.614121 1.486911 -2.262146
v -1.434774 1.583023 -1.951508
v -1.255427 1.486911 -1.640870
v -1.124136 1.224329 -1.413467
v -1.076081 0.865635 -1.330232
v -1.124136 0.506942 -1.413467
v -1.255427 0.244360 -1.640870
v -1.434774 0.148248 -1.951508
v -1.614121 0.244360 -2.262146
v -1.745412 0.506942 -2.489548
v -2.183589 0.865635 -2.312113
v -2.125080 1.224329 -2.235862
v -1.965230 1.486911 -2.027542
v -1.746871 1.583023 -1.742971
v -1.528512 1.486911 -1.458401
v -1.368662 1.224329 -1.250080
v -1.310153 0.865635 -1.173830
v -1.368662 0.506942 -1.250080
v -1.528512 0.244360 -1.458401
v -1.746871 0.148248 -1.742971
v -1.965230 0.244360 -2.027542
v -2.125080 0.506942 -2.235862
v -2.300903 0.865635 -2.011434
v -2.239251 1.191032 -1.949782
v -2.070813 1.429239 -1.781344
v -1.840723 1.516429 -1.551253
v -1.610632 1.429239 -1.321163
v -1.442195 1.191032 -1.152725
v -1.380542 0.865635 -1.091073
v -1.442195 0.540239 -1.152725
v -1.610632 0.302032 -1.321163
v -1.840723 0.214842 -1.551253
v -2.070813 0.302032 -1.781344
v -2.239251 0.540239 -1.949782
v -2.581546 0.865635 -1.691422
v -2.512373 1.191032 -1.638344
v -2.323392 1.429239 -1.493333
v -2.065237 1.516429 -1.295244
v -1.807083 1.429239 -1.097155
v -1.618100 1.191032 -0.952144
v -1.548928 0.865635 -0.899066
v -1.618100 0.540239 -0.952144
v -1.807083 0.302032 -1.097155
v -2.065237 0.214842 -1.295244
v -2.323392 0.302032 -1.493333
v -2.512373 0.540239 -1.638344
v -2.642811 0.865635 -1.373533
v -2.571997 1.170801 -1.332649
v -2.378530 1.394198 -1.220950
v -2.114249 1.475967 -1.068367
v -1.849968 1.394198 -0.915784
v -1.656501 1.170801 -0.804086
v -1.585687 0.865635 -0.763202
v -1.656501 0.560470 -0.804086
v -1.849968 0.337073 -0.915784
v -2.114249 0.255304 -1.068367
v -2.378530 0.337073 -1.220950
v -2.571997 0.560470 -1.332649
v -2.819362 0.865635 -1.015523
v -2.743818 1.170801 -0.984231
v -2.537426 1.394198 -0.898741
v -2.255490 1.475967 -0.781959
v -1.973554 1.394198 -0.665177
v -1.767162 1.170801 -0.579687
v -1.691618 0.865635 -0.548395
v -1.767162 0.560470 -0.579687
v -1.973554 0.337073 -0.665177
v -2.255490 0.255304 -0.781959
v -2.537426 0.337073 -0.898741
v -2.743818 0.560470 -0.984231
v -2.809690 0.865635 -0.687642
v -2.734405 1.156516 -0.667470
v -2.528721 1.369455 -0.612357
v -2.247751 1.447396 -0.537072
v -1.966783 1.369455 -0.461786
v -1.761099 1.156516 -0.406674
v -1.685814 0.865635 -0.386501
v -1.761099 0.574755 -0.406674
v -1.966783 0.361816 -0.461786
v -2.247751 0.283875 -0.537072
v -2.528721 0.361816 -0.612357
v -2.734405 0.574755 -0.667470
v -2.770746 0.865635 -0.364776
v -2.696503 1.145101 -0.355002
v -2.493671 1.349684 -0.328298
v -2.216596 1.424566 -0.291821
v -1.939522 1.349684 -0.255343
v -1.736689 1.145101 -0.228640
v -1.662447 0.865635 -0.218866
v -1.736689 0.586170 -0.228640
v -1.939522 0.381587 -0.255343
v -2.216596 0.306705 -0.291821
v -2.493671 0.381587 -0.328298
v -2.696503 0.586170 -0.355002
v -2.410485 0.865635 0.210203
v -2.362054 1.049718 0.200854
v -2.229738 1.184476 0.175313
v -2.048992 1.233801 0.140423
v -1.868246 1.184476 0.105532
v -1.735931 1.049718 0.079991
v -1.687500 0.865635 0.070642
v -1.735931 0.681553 0.079991
v -1.868246 0.546795 0.105532
v -2.048992 0.497470 0.140423
v -2.229738 0.546795 0.175313
v -2.362054 0.681553 0.200854
v -1.537105 0.865635 0.326772
v 1.642281 0.865635 0.548580
vn 0.7658 0.2385 0.5972
vn 0.5240 0.6455 0.5557
vn 0.1190 0.8713 0.4762
vn -0.3357 0.8622 0.3794
vn -0.7225 0.6283 0.2884
vn -0.9464 0.2306 0.2261
vn -0.9464 -0.2306 0.2261
vn -0.7225 -0.6283 0.2884
vn -0.3357 -0.8622 0.3794
vn 0.1190 -0.8713 0.4762
vn 0.5240 -0.6455 0.5557
vn 0.7658 -0.2385 0.5972
vn 0.9600 0.2588 0.1069
vn 0.6989 0.7069 0.1086
vn 0.2497 0.9644 0.0875
vn -0.2622 0.9649 0.0152
vn -0.6968 0.7066 -0.1234
vn -0.9363 0.2568 -0.2394
vn -0.9363 -0.2568 -0.2394
vn -0.6968 -0.7066 -0.1234
vn -0.2622 -0.9649 0.0152
vn 0.2497 -0.9644 0.0875
vn 0.6989 -0.7069 0.1086
vn 0.9600 -0.2588 0.1069
vn 0.9680 0.2478 0.0399
vn 0.7273 0.6815 0.0810
vn 0.2951 0.9479 0.1199
vn -0.2384 0.9650 0.1095
vn -0.7146 0.6987 0.0326
vn -0.9681 0.2482 -0.0347
vn -0.9681 -0.2482 -0.0347
vn -0.7146 -0.6987 0.0326
vn -0.2384 -0.9650 0.1095
vn 0.2951 -0.9479 0.1199
vn 0.7273 -0.6815 0.0810
vn 0.9680 -0.2478 0.0399
vn 0.8664 0.2583 -0.4273
vn 0.6349 0.7063 -0.3131
vn 0.2326 0.9658 -0.1147
vn -0.2326 0.9658 0.1147
vn -0.6349 0.7063 0.3131
vn -0.8664 0.2583 0.4273
vn -0.8664 -0.2583 0.4273
vn -0.6349 -0.7063 0.3131
vn -0.2326 -0.9658 0.1147
vn 0.2326 -0.9658 -0.1147
vn 0.6349 -0.7063 -0.3131
vn 0.8664 -0.2583 -0.4273
vn 0.9547 0.2443 -0.1700
vn 0.7386 0.6712 -0.0632
vn 0.3428 0.9348 0.0927
vn -0.1671 0.9599 0.2250
vn -0.6584 0.7037 0.2669
vn -0.9345 0.2507 0.2528
vn -0.9345 -0.2507 0.2528
vn -0.6584 -0.7037 0.2669
vn -0.1671 -0.9599 0.2250
vn 0.3428 -0.9348 0.0927
vn 0.7386 -0.6712 -0.0632
vn 0.9547 -0.2443 -0.1700
vn 0.7263 0.2583 -0.6370
vn 0.5322 0.7063 -0.4667
vn 0.1950 0.9658 -0.1710
vn -0.1950 0.9658 0.1710
vn -0.5322 0.7063 0.4667
vn -0.7263 0.2583 0.6370
vn -0.7263 -0.2583 0.6370
vn -0.5322 -0.7063 0.4667
vn -0.1950 -0.9658 0.1710
vn 0.1950 -0.9658 -0.1710
vn 0.5322 -0.7063 -0.4667
vn 0.7263 -0.2583 -0.6370
vn 0.9116 0.2364 -0.3363
vn 0.7449 0.6456 -0.1682
vn 0.4362 0.8946 0.0972
vn 0.0239 0.9267 0.3751
vn -0.4299 0.7039 0.5655
vn -0.7359 0.2580 0.6260
vn -0.7359 -0.2580 0.6260
vn -0.4299 -0.7039 0.5655
vn 0.0239 -0.9267 0.3751
vn 0.4362 -0.8946 0.0972
vn 0.7449 -0.6456 -0.1682
vn 0.9116 -0.2364 -0.3363
vn 0.5367 0.2583 -0.8033
vn 0.3933 0.7063 -0.5886
vn 0.1441 0.9658 -0.2156
vn -0.1441 0.9658 0.2156
vn -0.3933 0.7063 0.5886
vn -0.5367 0.2583 0.8033
vn -0.5367 -0.2583 0.8033
vn -0.3933 -0.7063 0.5886
vn -0.1441 -0.9658 0.2156
vn 0.1441 -0.9658 -0.2156
vn 0.3933 -0.7063 -0.5886
vn 0.5367 -0.2583 -0.8033
vn 0.8371 0.2276 -0.4974
vn 0.7439 0.6095 -0.2743
vn 0.5791 0.8110 0.0834
vn 0.3917 0.7906 0.4707
vn 0.2185 0.5741 0.7891
vn 0.0762 0.2157 0.9735
vn 0.0762 -0.2157 0.9735
vn 0.2185 -0.5741 0.7891
vn 0.3917 -0.7906 0.4707
vn 0.5791 -0.8110 0.0834
vn 0.7439 -0.6095 -0.2743
vn 0.8371 -0.2276 -0.4974
vn 0.3105 0.2583 -0.9148
vn 0.2275 0.7063 -0.6703
vn 0.0834 0.9658 -0.2456
vn -0.0834 0.9658 0.2456
vn -0.2275 0.7063 0.6703
vn -0.3105 0.2583 0.9148
vn -0.3105 -0.2583 0.9148
vn -0.2275 -0.7063 0.6703
vn -0.0834 -0.9658 0.2456
vn 0.0834 -0.9658 -0.2456
vn 0.2275 -0.7063 -0.6703
vn 0.3105 -0.2583 -0.9148
vn 0.4963 0.2496 -0.8315
vn 0.4687 0.6735 -0.5717
vn 0.4193 0.8975 -0.1366
vn 0.3707 0.8646 0.3392
vn 0.3360 0.6079 0.7194
vn 0.3078 0.2183 0.9261
vn 0.3078 -0.2183 0.9261
vn 0.3360 -0.6079 0.7194
vn 0.3707 -0.8646 0.3392
vn 0.4193 -0.8975 -0.1366
vn 0.4687 -0.6735 -0.5717
vn 0.4963 -0.2496 -0.8315
vn 0.2026 0.2580 -0.9447
vn 0.1895 0.7037 -0.6848
vn 0.1721 0.9564 -0.2358
vn 0.1583 0.9477 0.2770
vn 0.1553 0.6852 0.7116
vn 0.1634 0.2480 0.9549
vn 0.1634 -0.2480 0.9549
vn 0.1553 -0.6852 0.7116
vn 0.1583 -0.9477 0.2770
vn 0.1721 -0.9564 -0.2358
vn 0.1895 -0.7037 -0.6848
vn 0.2026 -0.2580 -0.9447
vn -0.2066 0.2532 -0.9451
vn -0.2020 0.6925 -0.6925
vn -0.1931 0.9477 -0.2539
vn -0.1853 0.9492 0.2543
vn -0.1802 0.6955 0.6955
vn -0.1738 0.2549 0.9512
vn -0.1738 -0.2549 0.9512
vn -0.1802 -0.6955 0.6955
vn -0.1853 -0.9492 0.2543
vn -0.1931 -0.9477 -0.2539
vn -0.2020 -0.6925 -0.6925
vn -0.2066 -0.2532 -0.9451
vn -0.4879 0.2400 -0.8392
vn -0.4460 0.6588 -0.6058
vn -0.3827 0.9033 -0.1937
vn -0.3206 0.9029 0.2862
vn -0.2840 0.6561 0.6992
vn -0.2833 0.2370 0.9293
vn -0.2833 -0.2370 0.9293
vn -0.2840 -0.6561 0.6992
vn -0.3206 -0.9029 0.2862
vn -0.3827 -0.9033 -0.1937
vn -0.4460 -0.6588 -0.6058
vn -0.4879 -0.2400 -0.8392
vn -0.3105 0.2583 -0.9148
vn -0.2275 0.7063 -0.6703
vn -0.0834 0.9658 -0.2456
vn 0.0834 0.9658 0.2456
vn 0.2275 0.7063 0.6703
vn 0.3105 0.2583 0.9148
vn 0.3105 -0.2583 0.9148
vn 0.2275 -0.7063 0.6703
vn 0.0834 -0.9658 0.2456
vn -0.0834 -0.9658 -0.2456
vn -0.2275 -0.7063 -0.6703
vn -0.3105 -0.2583 -0.9148
vn -0.8284 0.2132 -0.5180
vn -0.7258 0.5957 -0.3441
vn -0.5464 0.8373 -0.0165
vn -0.3276 0.8624 0.3858
vn -0.1285 0.6460 0.7524
vn -0.0254 0.2378 0.9710
vn -0.0254 -0.2378 0.9710
vn -0.1285 -0.6460 0.7524
vn -0.3276 -0.8624 0.3858
vn -0.5464 -0.8373 -0.0165
vn -0.7258 -0.5957 -0.3441
vn -0.8284 -0.2132 -0.5180
vn -0.5367 0.2583 -0.8033
vn -0.3933 0.7063 -0.5886
vn -0.1441 0.9658 -0.2156
vn 0.1441 0.9658 0.2156
vn 0.3933 0.7063 0.5886
vn 0.5367 0.2583 0.8033
vn 0.5367 -0.2583 0.8033
vn 0.3933 -0.7063 0.5886
vn 0.1441 -0.9658 0.2156
vn -0.1441 -0.9658 -0.2156
vn -0.3933 -0.7063 -0.5886
vn -0.5367 -0.2583 -0.8033
vn -0.9081 0.2234 -0.3543
vn -0.7437 0.6300 -0.2235
vn -0.4312 0.9018 0.0263
vn -0.0072 0.9457 0.3250
vn 0.4350 0.7071 0.5575
vn 0.7280 0.2541 0.6368
vn 0.7280 -0.2541 0.6368
vn 0.4350 -0.7071 0.5575
vn -0.0072 -0.9457 0.3250
vn -0.4312 -0.9018 0.0263
vn -0.7437 -0.6300 -0.2235
vn -0.9081 -0.2234 -0.3543
vn -0.7263 0.2583 -0.6370
vn -0.5322 0.7063 -0.4667
vn -0.1950 0.9658 -0.1710
vn 0.1950 0.9658 0.1710
vn 0.5322 0.7063 0.4667
vn 0.7263 0.2583 0.6370
vn 0.7263 -0.2583 0.6370
vn 0.5322 -0.7063 0.4667
vn 0.1950 -0.9658 0.1710
vn -0.1950 -0.9658 -0.1710
vn -0.5322 -0.7063 -0.4667
vn -0.7263 -0.2583 -0.6370
vn -0.9549 0.2330 -0.1840
vn -0.7480 0.6558 -0.1025
vn -0.3530 0.9344 0.0488
vn 0.1661 0.9640 0.2078
vn 0.6560 0.6969 0.2898
vn 0.9305 0.2426 0.2745
vn 0.9305 -0.2426 0.2745
vn 0.6560 -0.6969 0.2898
vn 0.1661 -0.9640 0.2078
vn -0.3530 -0.9344 0.0488
vn -0.7480 -0.6558 -0.1025
vn -0.9549 -0.2330 -0.1840
vn -0.8664 0.2583 -0.4273
vn -0.6349 0.7063 -0.3131
vn -0.2326 0.9658 -0.1147
vn 0.2326 0.9658 0.1147
vn 0.6349 0.7063 0.3131
vn 0.8664 0.2583 0.4273
vn 0.8664 -0.2583 0.4273
vn 0.6349 -0.7063 0.3131
vn 0.2326 -0.9658 0.1147
vn -0.2326 -0.9658 -0.1147
vn -0.6349 -0.7063 -0.3131
vn -0.8664 -0.2583 -0.4273
vn -0.9710 0.2374 0.0286
vn -0.7434 0.6668 0.0522
vn -0.3120 0.9457 0.0912
vn 0.2366 0.9659 0.1052
vn 0.7217 0.6896 0.0599
vn 0.9709 0.2389 -0.0143
vn 0.9709 -0.2389 -0.0143
vn 0.7217 -0.6896 0.0599
vn 0.2366 -0.9659 0.1052
vn -0.3120 -0.9457 0.0912
vn -0.7434 -0.6668 0.0522
vn -0.9710 -0.2374 0.0286
vn -0.9635 0.2413 0.1162
vn -0.7291 0.6750 0.1131
vn -0.2912 0.9512 0.1021
vn 0.2524 0.9659 0.0578
vn 0.7227 0.6905 -0.0293
vn 0.9634 0.2413 -0.1166
vn 0.9634 -0.2413 -0.1166
vn 0.7227 -0.6905 -0.0293
vn 0.2524 -0.9659 0.0578
vn -0.2912 -0.9512 0.1021
vn -0.7291 -0.6750 0.1131
vn -0.9635 -0.2413 0.1162
vn -0.8299 0.2023 0.5200
vn -0.6500 0.5804 0.4907
vn -0.2879 0.8550 0.4314
vn 0.2062 0.9222 0.3271
vn 0.6853 0.7039 0.1869
vn 0.9629 0.2585 0.0775
vn 0.9629 -0.2585 0.0775
vn 0.6853 -0.7039 0.1869
vn 0.2062 -0.9222 0.3271
vn -0.2879 -0.8550 0.4314
vn -0.6500 -0.5804 0.4907
vn -0.8299 -0.2023 0.5200
vn -0.1318 0.0848 0.9876
vn -0.0869 0.2672 0.9597
vn 0.0347 0.4893 0.8714
vn 0.3165 0.7403 0.5931
vn 0.7085 0.7043 -0.0455
vn 0.8361 0.2449 -0.4909
vn 0.8361 -0.2449 -0.4909
vn 0.7085 -0.7043 -0.0455
vn 0.3165 -0.7403 0.5931
vn 0.0347 -0.4893 0.8714
vn -0.0869 -0.2672 0.9597
vn -0.1318 -0.0848 0.9876
vn 0.3051 0.1418 0.9417
vn 0.2106 0.4227 0.8815
vn -0.0015 0.6766 0.7364
vn -0.3453 0.8110 0.4723
vn -0.7281 0.6725 0.1325
vn -0.9610 0.2564 -0.1040
vn -0.9610 -0.2564 -0.1040
vn -0.7281 -0.6725 0.1325
vn -0.3453 -0.8110 0.4723
vn -0.0015 -0.6766 0.7364
vn 0.2106 -0.4227 0.8815
vn 0.3051 -0.1418 0.9417
vn 0.7749 0.2251 0.5907
vn 0.5635 0.6242 0.5411
vn 0.1801 0.8712 0.4567
vn -0.2832 0.8908 0.3555
vn -0.7000 0.6633 0.2647
vn -0.9455 0.2447 0.2147
vn -0.9455 -0.2447 0.2147
vn -0.7000 -0.6633 0.2647
vn -0.2832 -0.8908 0.3555
vn 0.1801 -0.8712 0.4567
vn 0.5635 -0.6242 0.5411
vn 0.7749 -0.2251 0.5907
vn 0.9650 0.2429 0.0993
vn 0.7279 0.6798 0.0901
vn 0.2838 0.9564 0.0692
vn -0.2633 0.9646 0.0159
vn -0.7276 0.6807 -0.0855
vn -0.9509 0.2319 -0.2047
vn -0.9509 -0.2319 -0.2047
vn -0.7276 -0.6807 -0.0855
vn -0.2633 -0.9646 0.0159
vn 0.2838 -0.9564 0.0692
vn 0.7279 -0.6798 0.0901
vn 0.9650 -0.2429 0.0993
vn 0.9710 0.2374 0.0286
vn 0.7434 0.6668 0.0522
vn 0.3120 0.9457 0.0912
vn -0.2366 0.9659 0.1052
vn -0.7217 0.6896 0.0599
vn -0.9709 0.2389 -0.0143
vn -0.9709 -0.2389 -0.0143
vn -0.7217 -0.6896 0.0599
vn -0.2366 -0.9659 0.1052
vn 0.3120 -0.9457 0.0912
vn 0.7434 -0.6668 0.0522
vn 0.9710 -0.2374 0.0286
vn 0.9549 0.2330 -0.1840
vn 0.7480 0.6558 -0.1025
vn 0.3530 0.9344 0.0487
vn -0.1661 0.9640 0.2078
vn -0.6560 0.6969 0.2898
vn -0.9305 0.2426 0.2745
vn -0.9305 -0.2426 0.2745
vn -0.6560 -0.6969 0.2898
vn -0.1661 -0.9640 0.2078
vn 0.3530 -0.9344 0.0487
vn 0.7480 -0.6558 -0.1025
vn 0.9549 -0.2330 -0.1840
vn 0.9081 0.2234 -0.3543
vn 0.7437 0.6300 -0.2235
vn 0.4312 0.9018 0.0263
vn 0.0072 0.9457 0.3250
vn -0.4350 0.7071 0.5575
vn -0.7280 0.2541 0.6368
vn -0.7280 -0.2541 0.6368
vn -0.4350 -0.7071 0.5575
vn 0.0072 -0.9457 0.3250
vn 0.4312 -0.9018 0.0263
vn 0.7437 -0.6300 -0.2235
vn 0.9081 -0.2234 -0.3543
vn 0.8284 0.2132 -0.5180
vn 0.7258 0.5957 -0.3441
vn 0.5464 0.8373 -0.0165
vn 0.3276 0.8624 0.3858
vn 0.1285 0.6460 0.7524
vn 0.0254 0.2378 0.9710
vn 0.0254 -0.2378 0.9710
vn 0.1285 -0.6460 0.7524
vn 0.3276 -0.8624 0.3858
vn 0.5464 -0.8373 -0.0165
vn 0.7258 -0.5957 -0.3441
vn 0.8284 -0.2132 -0.5180
vn 0.4879 0.2400 -0.8392
vn 0.4460 0.6588 -0.6058
vn 0.3827 0.9033 -0.1937
vn 0.3206 0.9029 0.2862
vn 0.2840 0.6561 0.6992
vn 0.2833 0.2370 0.9293
vn 0.2833 -0.2370 0.9293
vn 0.2840 -0.6561 0.6992
vn 0.3206 -0.9029 0.2862
vn 0.3827 -0.9033 -0.1937
vn 0.4460 -0.6588 -0.6058
vn 0.4879 -0.2400 -0.8392
vn 0.2066 0.2532 -0.9451
vn 0.2020 0.6925 -0.6925
vn 0.1931 0.9477 -0.2539
vn 0.1853 0.9492 0.2543
vn 0.1802 0.6955 0.6955
vn 0.1738 0.2549 0.9512
vn 0.1738 -0.2549 0.9512
vn 0.1802 -0.6955 0.6955
vn 0.1853 -0.9492 0.2543
vn 0.1931 -0.9477 -0.2539
vn 0.2020 -0.6925 -0.6925
vn 0.2066 -0.2532 -0.9451
vn -0.2026 0.2580 -0.9446
vn -0.1895 0.7037 -0.6848
vn -0.1720 0.9564 -0.2358
vn -0.1583 0.9477 0.2770
vn -0.1553 0.6852 0.7116
vn -0.1634 0.2480 0.9549
vn -0.1634 -0.2480 0.9549
vn -0.1553 -0.6852 0.7116
vn -0.1583 -0.9477 0.2770
vn -0.1720 -0.9564 -0.2358
vn -0.1895 -0.7037 -0.6848
vn -0.2026 -0.2580 -0.9446
vn -0.4963 0.2496 -0.8315
vn -0.4687 0.6735 -0.5717
vn -0.4193 0.8975 -0.1366
vn -0.3707 0.8646 0.3392
vn -0.3360 0.6079 0.7194
vn -0.3078 0.2183 0.9261
vn -0.3078 -0.2183 0.9261
vn -0.3360 -0.6079 0.7194
vn -0.3707 -0.8646 0.3392
vn -0.4193 -0.8975 -0.1366
vn -0.4687 -0.6735 -0.5717
vn -0.4963 -0.2496 -0.8315
vn -0.8371 0.2276 -0.4974
vn -0.7439 0.6095 -0.2743
vn -0.5791 0.8110 0.0834
vn -0.3917 0.7906 0.4707
vn -0.2185 0.5741 0.7891
vn -0.0762 0.2157 0.9735
vn -0.0762 -0.2157 0.9735
vn -0.2185 -0.5741 0.7891
vn -0.3917 -0.7906 0.4707
vn -0.5791 -0.8110 0.0834
vn -0.7439 -0.6095 -0.2743
vn -0.8371 -0.2276 -0.4974
vn -0.9116 0.2364 -0.3363
vn -0.7449 0.6456 -0.1682
vn -0.4362 0.8946 0.0972
vn -0.0239 0.9267 0.3751
vn 0.4299 0.7039 0.5655
vn 0.7359 0.2580 0.6260
vn 0.7359 -0.2580 0.6260
vn 0.4299 -0.7039 0.5655
vn -0.0239 -0.9267 0.3751
vn -0.4362 -0.8946 0.0972
vn -0.7449 -0.6456 -0.1682
vn -0.9116 -0.2364 -0.3363
vn -0.9547 0.2443 -0.1700
vn -0.7386 0.6712 -0.0632
vn -0.3428 0.9348 0.0927
vn 0.1671 0.9599 0.2250
vn 0.6584 0.7037 0.2669
vn 0.9345 0.2507 0.2528
vn 0.9345 -0.2507 0.2528
vn 0.6584 -0.7037 0.2669
vn 0.1671 -0.9599 0.2250
vn -0.3428 -0.9348 0.0927
vn -0.7386 -0.6712 -0.0632
vn -0.9547 -0.2443 -0.1700
vn -0.9680 0.2478 0.0399
vn -0.7273 0.6815 0.0810
vn -0.2951 0.9479 0.1199
vn 0.2384 0.9650 0.1095
vn 0.7146 0.6987 0.0326
vn 0.9681 0.2482 -0.0347
vn 0.9681 -0.2482 -0.0347
vn 0.7146 -0.6987 0.0326
vn 0.2384 -0.9650 0.1095
vn -0.2951 -0.9479 0.1199
vn -0.7273 -0.6815 0.0810
vn -0.9680 -0.2478 0.0399
vn -0.9599 0.2506 0.1256
vn -0.7124 0.6885 0.1358
vn -0.2740 0.9537 0.1236
vn 0.2532 0.9656 0.0590
vn 0.7126 0.6996 -0.0528
vn 0.9590 0.2501 -0.1337
vn 0.9590 -0.2501 -0.1337
vn 0.7126 -0.6996 -0.0528
vn 0.2532 -0.9656 0.0590
vn -0.2740 -0.9537 0.1236
vn -0.7124 -0.6885 0.1358
vn -0.9599 -0.2506 0.1256
vn -0.8128 0.2408 0.5304
vn -0.5640 0.6503 0.5089
vn -0.1538 0.8806 0.4483
vn 0.3085 0.8865 0.3449
vn 0.7176 0.6659 0.2040
vn 0.9647 0.2496 0.0835
vn 0.9647 -0.2496 0.0835
vn 0.7176 -0.6659 0.2040
vn 0.3085 -0.8865 0.3449
vn -0.1538 -0.8806 0.4483
vn -0.5640 -0.6503 0.5089
vn -0.8128 -0.2408 0.5304
vt 0.500000 0.500000
vt 0.500000 0.583333
vt 0.500000 0.666667
vt 0.500000 0.750000
vt 0.500000 0.833333
vt 0.500000 0.916667
vt 0.500000 1.000000
vt 0.500000 0.000000
vt 0.500000 0.083333
vt 0.500000 0.166667
vt 0.500000 0.250000
vt 0.500000 0.333333
vt 0.500000 0.416667
vt 0.520833 0.500000
vt 0.520833 0.583333
vt 0.520833 0.666667
vt 0.520833 0.750000
vt 0.520833 0.833333
vt 0.520833 0.916667
vt 0.520833 1.000000
vt 0.520833 0.000000
vt 0.520833 0.083333
vt 0.520833 0.166667
vt 0.520833 0.250000
vt 0.520833 0.333333
vt 0.520833 0.416667
vt 0.541667 0.500000
vt 0.541667 0.583333
vt 0.541667 0.666667
vt 0.541667 0.750000
vt 0.541667 0.833333
vt 0.541667 0.916667
vt 0.541667 1.000000
vt 0.541667 0.000000
vt 0.541667 0.083333
vt 0.541667 0.166667
vt 0.541667 0.250000
vt 0.541667 0.333333
vt 0.541667 0.416667
vt 0.562500 0.500000
vt 0.562500 0.583333
vt 0.562500 0.666667
vt 0.562500 0.750000
vt 0.562500 0.833333
vt 0.562500 0.916667
vt 0.562500 0.000000
vt 0.562500 1.000000
vt 0.562500 0.083333
vt 0.562500 0.166667
vt 0.562500 0.250000
vt 0.562500 0.333333
vt 0.562500 0.416667
vt 0.583333 0.500000
vt 0.583333 0.583333
vt 0.583333 0.666667
vt 0.583333 0.750000
vt 0.583333 0.833333
vt 0.583333 0.916667
vt 0.583333 1.000000
vt 0.583333 0.000000
vt 0.583333 0.083333
vt 0.583333 0.166667
vt 0.583333 0.250000
vt 0.583333 0.333333
vt 0.583333 0.416667
vt 0.604167 0.500000
vt 0.604167 0.583333
vt 0.604167 0.666667
vt 0.604167 0.750000
vt 0.604167 0.833333
vt 0.604167 0.916667
vt 0.604167 1.000000
vt 0.604167 0.000000
vt 0.604167 0.083333
vt 0.604167 0.166667
vt 0.604167 0.250000
vt 0.604167 0.333333
vt 0.604167 0.416667
vt 0.625000 0.500000
vt 0.625000 0.583333
vt 0.625000 0.666667
vt 0.625000 0.750000
vt 0.625000 0.833333
vt 0.625000 0.916667
vt 0.625000 1.000000
vt 0.625000 0.000000
vt 0.625000 0.083333
vt 0.625000 0.166667
vt 0.625000 0.250000
vt 0.625000 0.333333
vt 0.625000 0.416667
vt 0.645833 0.500000
vt 0.645833 0.583333
vt 0.645833 0.666667
vt 0.645833 0.750000
vt 0.645833 0.833333
vt 0.645833 0.916667
vt 0.645833 0.000000
vt 0.645833 1.000000
vt 0.645833 0.083333
vt 0.645833 0.166667
vt 0.645833 0.250000
vt 0.645833 0.333333
vt 0.645833 0.416667
vt 0.666667 0.500000
vt 0.666667 0.583333
vt 0.666667 0.666667
vt 0.666667 0.750000
vt 0.666667 0.833333
vt 0.666667 0.916667
vt 0.666667 1.000000
vt 0.666667 0.000000
vt 0.666667 0.083333
vt 0.666667 0.166667
vt 0.666667 0.250000
vt 0.666667 0.333333
vt 0.666667 0.416667
vt 0.687500 0.500000
vt 0.687500 0.583333
vt 0.687500 0.666667
vt 0.687500 0.750000
vt 0.687500 0.833333
vt 0.687500 0.916667
vt 0.687500 1.000000
vt 0.687500 0.000000
vt 0.687500 0.083333
vt 0.687500 0.166667
vt 0.687500 0.250000
vt 0.687500 0.333333
vt 0.687500 0.416667
vt 0.708333 0.500000
vt 0.708333 0.583333
vt 0.708333 0.666667
vt 0.708333 0.750000
vt 0.708333 0.833333
vt 0.708333 0.916667
vt 0.708333 1.000000
vt 0.708333 0.000000
vt 0.708333 0.083333
vt 0.708333 0.166667
vt 0.708333 0.250000
vt 0.708333 0.333333
vt 0.708333 0.416667
vt 0.729167 0.500000
vt 0.729167 0.583333
vt 0.729167 0.666667
vt 0.729167 0.750000
vt 0.729167 0.833333
vt 0.729167 0.916667
vt 0.729167 1.000000
vt 0.729167 0.000000
vt 0.729167 0.083333
vt 0.729167 0.166667
vt 0.729167 0.250000
vt 0.729167 0.333333
vt 0.729167 0.416667
vt 0.750000 0.500000
vt 0.750000 0.583333
vt 0.750000 0.666667
vt 0.750000 0.750000
vt 0.750000 0.833333
vt 0.750000 0.916667
vt 0.750000 1.000000
vt 0.750000 0.000000
vt 0.750000 0.083333
vt 0.750000 0.166667
vt 0.750000 0.250000
vt 0.750000 0.333333
vt 0.750000 0.416667
vt 0.770833 0.500000
vt 0.770833 0.583333
vt 0.770833 0.666667
vt 0.770833 0.750000
vt 0.770833 0.833333
vt 0.770833 0.916667
vt 0.770833 1.000000
vt 0.770833 0.000000
vt 0.770833 0.083333
vt 0.770833 0.166667
vt 0.770833 0.250000
vt 0.770833 0.333333
vt 0.770833 0.416667
vt 0.791667 0.500000
vt 0.791667 0.583333
vt 0.791667 0.666667
vt 0.791667 0.750000
vt 0.791667 0.833333
vt 0.791667 0.916667
vt 0.791667 1.000000
vt 0.791667 0.000000
vt 0.791667 0.083333
vt 0.791667 0.166667
vt 0.791667 0.250000
vt 0.791667 0.333333
vt 0.791667 0.416667
vt 0.812500 0.500000
vt 0.812500 0.583333
vt 0.812500 0.666667
vt 0.812500 0.750000
vt 0.812500 0.833333
vt 0.812500 0.916667
vt 0.812500 1.000000
vt 0.812500 0.000000
vt 0.812500 0.083333
vt 0.812500 0.166667
vt 0.812500 0.250000
vt 0.812500 0.333333
vt 0.812500 0.416667
vt 0.833333 0.500000
vt 0.833333 0.583333
vt 0.833333 0.666667
vt 0.833333 0.750000
vt 0.833333 0.833333
vt 0.833333 0.916667
vt 0.833333 1.000000
vt 0.833333 0.000000
vt 0.833333 0.083333
vt 0.833333 0.166667
vt 0.833333 0.250000
vt 0.833333 0.333333
vt 0.833333 0.416667
vt 0.854167 0.500000
vt 0.854167 0.583333
vt 0.854167 0.666667
vt 0.854167 0.750000
vt 0.854167 0.833333
vt 0.854167 0.916667
vt 0.854167 1.000000
vt 0.854167 0.000000
vt 0.854167 0.083333
vt 0.854167 0.166667
vt 0.854167 0.250000
vt 0.854167 0.333333
vt 0.854167 0.416667
vt 0.875000 0.500000
vt 0.875000 0.583333
vt 0.875000 0.666667
vt 0.875000 0.750000
vt 0.875000 0.833333
vt 0.875000 0.916667
vt 0.875000 1.000000
vt 0.875000 0.000000
vt 0.875000 0.083333
vt 0.875000 0.166667
vt 0.875000 0.250000
vt 0.875000 0.333333
vt 0.875000 0.416667
vt 0.895833 0.500000
vt 0.895833 0.583333
vt 0.895833 0.666667
vt 0.895833 0.750000
vt 0.895833 0.833333
vt 0.895833 0.916667
vt 0.895833 1.000000
vt 0.895833 0.000000
vt 0.895833 0.083333
vt 0.895833 0.166667
vt 0.895833 0.250000
vt 0.895833 0.333333
vt 0.895833 0.416667
vt 0.916667 0.500000
vt 0.916667 0.583333
vt 0.916667 0.666667
vt 0.916667 0.750000
vt 0.916667 0.833333
vt 0.916667 0.916667
vt 0.916667 0.000000
vt 0.916667 1.000000
vt 0.916667 0.083333
vt 0.916667 0.166667
vt 0.916667 0.250000
vt 0.916667 0.333333
vt 0.916667 0.416667
vt 0.937500 0.500000
vt 0.937500 0.583333
vt 0.937500 0.666667
vt 0.937500 0.750000
vt 0.937500 0.833333
vt 0.937500 0.916667
vt 0.937500 1.000000
vt 0.937500 0.000000
vt 0.937500 0.083333
vt 0.937500 0.166667
vt 0.937500 0.250000
vt 0.937500 0.333333
vt 0.937500 0.416667
vt 0.958333 0.500000
vt 0.958333 0.583333
vt 0.958333 0.666667
vt 0.958333 0.750000
vt 0.958333 0.833333
vt 0.958333 0.916667
vt 0.958333 1.000000
vt 0.958333 0.000000
vt 0.958333 0.083333
vt 0.958333 0.166667
vt 0.958333 0.250000
vt 0.958333 0.333333
vt 0.958333 0.416667
vt 0.979167 0.500000
vt 0.979167 0.583333
vt 0.979167 0.666667
vt 0.979167 0.750000
vt 0.979167 0.833333
vt 0.979167 0.916667
vt 0.979167 1.000000
vt 0.979167 0.000000
vt 0.979167 0.083333
vt 0.979167 0.166667
vt 0.979167 0.250000
vt 0.979167 0.333333
vt 0.979167 0.416667
vt 0.000000 0.500000
vt 1.000000 0.500000
vt 0.000000 0.583333
vt 1.000000 0.583333
vt 0.000000 0.666667
vt 1.000000 0.666667
vt 0.000000 0.750000
vt 1.000000 0.750000
vt 0.000000 0.833333
vt 1.000000 0.833333
vt 0.000000 0.916667
vt 1.000000 0.916667
vt 0.000000 1.000000
vt 0.000000 0.000000
vt 1.000000 1.000000
vt 1.000000 0.000000
vt 0.000000 0.083333
vt 1.000000 0.083333
vt 0.000000 0.166667
vt 1.000000 0.166667
vt 0.000000 0.250000
vt 1.000000 0.250000
vt 0.000000 0.333333
vt 1.000000 0.333333
vt 0.000000 0.416667
vt 1.000000 0.416667
vt 0.020833 0.583333
vt 0.020833 0.666667
vt 0.020833 0.750000
vt 0.020833 0.833333
vt 0.020833 0.916667
vt 0.020833 1.000000
vt 0.020833 0.083333
vt 0.020833 0.166667
vt 0.020833 0.250000
vt 0.020833 0.333333
vt 0.020833 0.416667
vt 0.020833 0.500000
vt 0.479167 0.500000
vt 0.479167 0.583333
vt 0.479167 0.666667
vt 0.479167 0.750000
vt 0.479167 0.833333
vt 0.479167 0.916667
vt 0.479167 0.000000
vt 0.479167 0.083333
vt 0.479167 0.166667
vt 0.479167 0.250000
vt 0.479167 0.333333
vt 0.479167 0.416667
s 0
f 1/1/1 14/15/1 2/2/1
f 2/2/2 15/16/2 3/3/2
f 3/3/3 16/17/3 4/4/3
f 4/4/4 17/18/4 5/5/4
f 5/5/5 18/19/5 6/6/5
f 6/6/6 19/20/6 7/7/6
f 19/21/7 8/9/7 7/8/7
f 20/22/8 9/10/8 8/9/8
f 21/23/9 10/11/9 9/10/9
f 22/24/10 11/12/10 10/11/10
f 23/25/11 12/13/11 11/12/11
f 24/26/12 1/1/12 12/13/12
f 13/14/13 26/28/13 14/15/13
f 14/15/14 27/29/14 15/16/14
f 15/16/15 28/30/15 16/17/15
f 16/17/16 29/31/16 17/18/16
f 17/18/17 30/32/17 18/19/17
f 18/19/18 31/33/18 19/20/18
f 31/34/19 20/22/19 19/21/19
f 32/35/20 21/23/20 20/22/20
f 33/36/21 22/24/21 21/23/21
f 34/37/22 23/25/22 22/24/22
f 35/38/23 24/26/23 23/25/23
f 36/39/24 13/14/24 24/26/24
f 25/27/25 38/41/25 26/28/25
f 26/28/26 39/42/26 27/29/26
f 27/29/27 40/43/27 28/30/27
f 28/30/28 41/44/28 29/31/28
f 29/31/29 42/45/29 30/32/29
f 30/32/30 43/47/30 31/33/30
f 43/46/31 32/35/31 31/34/31
f 44/48/32 33/36/32 32/35/32
f 45/49/33 34/37/33 33/36/33
f 46/50/34 35/38/34 34/37/34
f 47/51/35 36/39/35 35/38/35
f 48/52/36 25/27/36 36/39/36
f 37/40/37 50/54/37 38/41/37
f 50/54/38 39/42/38 38/41/38
f 51/55/39 40/43/39 39/42/39
f 52/56/40 41/44/40 40/43/40
f 53/57/41 42/45/41 41/44/41
f 54/58/42 43/47/42 42/45/42
f 55/60/43 44/48/43 43/46/43
f 56/61/44 45/49/44 44/48/44
f 45/49/45 58/63/45 46/50/45
f 46/50/46 59/64/46 47/51/46
f 59/64/47 48/52/47 47/51/47
f 60/65/48 37/40/48 48/52/48
f 49/53/49 62/67/49 50/54/49
f 50/54/50 63/68/50 51/55/50
f 51/55/51 64/69/51 52/56/51
f 52/56/52 65/70/52 53/57/52
f 53/57/53 66/71/53 54/58/53
f 54/58/54 67/72/54 55/59/54
f 67/73/55 56/61/55 55/60/55
f 68/74/56 57/62/56 56/61/56
f 69/75/57 58/63/57 57/62/57
f 70/76/58 59/64/58 58/63/58
f 71/77/59 60/65/59 59/64/59
f 72/78/60 49/53/60 60/65/60
f 73/79/61 62/67/61 61/66/61
f 74/80/62 63/68/62 62/67/62
f 63/68/63 76/82/63 64/69/63
f 64/69/64 77/83/64 65/70/64
f 77/83/65 66/71/65 65/70/65
f 66/71/66 79/85/66 67/72/66
f 79/86/67 68/74/67 67/73/67
f 80/87/68 69/75/68 68/74/68
f 81/88/69 70/76/69 69/75/69
f 82/89/70 71/77/70 70/76/70
f 71/77/71 84/91/71 72/78/71
f 72/78/72 73/79/72 61/66/72
f 73/79/73 86/93/73 74/80/73
f 74/80/74 87/94/74 75/81/74
f 75/81/75 88/95/75 76/82/75
f 76/82/76 89/96/76 77/83/76
f 77/83/77 90/97/77 78/84/77
f 78/84/78 91/99/78 79/85/78
f 91/98/79 80/87/79 79/86/79
f 92/100/80 81/88/80 80/87/80
f 93/101/81 82/89/81 81/88/81
f 94/102/82 83/90/82 82/89/82
f 95/103/83 84/91/83 83/90/83
f 96/104/84 73/79/84 84/91/84
f 85/92/85 98/106/85 86/93/85
f 86/93/86 99/107/86 87/94/86
f 99/107/87 88/95/87 87/94/87
f 88/95/88 101/109/88 89/96/88
f 89/96/89 102/110/89 90/97/89
f 102/110/90 91/99/90 90/97/90
f 103/112/91 92/100/91 91/98/91
f 104/113/92 93/101/92 92/100/92
f 105/114/93 94/102/93 93/101/93
f 94/102/94 107/116/94 95/103/94
f 107/116/95 96/104/95 95/103/95
f 108/117/96 85/92/96 96/104/96
f 97/105/97 110/119/97 98/106/97
f 98/106/98 111/120/98 99/107/98
f 99/107/99 112/121/99 100/108/99
f 100/108/100 113/122/100 101/109/100
f 101/109/101 114/123/101 102/110/101
f 102/110/102 115/124/102 103/111/102
f 115/125/103 104/113/103 103/112/103
f 116/126/104 105/114/104 104/113/104
f 117/127/105 106/115/105 105/114/105
f 118/128/106 107/116/106 106/115/106
f 119/129/107 108/117/107 107/116/107
f 120/130/108 97/105/108 108/117/108
f 121/131/109 110/119/109 109/118/109
f 122/132/110 111/120/110 110/119/110
f 123/133/111 112/121/111 111/120/111
f 112/121/112 125/135/112 113/122/112
f 125/135/113 114/123/113 113/122/113
f 114/123/114 127/137/114 115/124/114
f 127/138/115 116/126/115 115/125/115
f 128/139/116 117/127/116 116/126/116
f 129/140/117 118/128/117 117/127/117
f 118/128/118 131/142/118 119/129/118
f 119/129/119 132/143/119 120/130/119
f 132/143/120 109/118/120 120/130/120
f 121/131/121 134/145/121 122/132/121
f 122/132/122 135/146/122 123/133/122
f 123/133/123 136/147/123 124/134/123
f 124/134/124 137/148/124 125/135/124
f 125/135/125 138/149/125 126/136/125
f 126/136/126 139/150/126 127/137/126
f 139/151/127 128/139/127 127/138/127
f 140/152/128 129/140/128 128/139/128
f 141/153/129 130/141/129 129/140/129
f 142/154/130 131/142/130 130/141/130
f 143/155/131 132/143/131 131/142/131
f 144/156/132 121/131/132 132/143/132
f 145/157/133 134/145/133 133/144/133
f 146/158/134 135/146/134 134/145/134
f 147/159/135 136/147/135 135/146/135
f 148/160/136 137/148/136 136/147/136
f 149/161/137 138/149/137 137/148/137
f 150/162/138 139/150/138 138/149/138
f 139/151/139 152/165/139 140/152/139
f 140/152/140 153/166/140 141/153/140
f 141/153/141 154/167/141 142/154/141
f 142/154/142 155/168/142 143/155/142
f 143/155/143 156/169/143 144/156/143
f 144/156/144 145/157/144 133/144/144
f 145/157/145 158/171/145 146/158/145
f 146/158/146 159/172/146 147/159/146
f 147/159/147 160/173/147 148/160/147
f 148/160/148 161/174/148 149/161/148
f 149/161/149 162/175/149 150/162/149
f 150/162/150 163/176/150 151/163/150
f 163/177/151 152/165/151 151/164/151
f 164/178/152 153/166/152 152/165/152
f 165/179/153 154/167/153 153/166/153
f 166/180/154 155/168/154 154/167/154
f 167/181/155 156/169/155 155/168/155
f 168/182/156 145/157/156 156/169/156
f 169/183/157 158/171/157 157/170/157
f 170/184/158 159/172/158 158/171/158
f 171/185/159 160/173/159 159/172/159
f 172/186/160 161/174/160 160/173/160
f 173/187/161 162/175/161 161/174/161
f 174/188/162 163/176/162 162/175/162
f 163/177/163 176/191/163 164/178/163
f 164/178/164 177/192/164 165/179/164
f 165/179/165 178/193/165 166/180/165
f 166/180/166 179/194/166 167/181/166
f 167/181/167 180/195/167 168/182/167
f 168/182/168 169/183/168 157/170/168
f 169/183/169 182/197/169 170/184/169
f 170/184/170 183/198/170 171/185/170
f 171/185/171 184/199/171 172/186/171
f 184/199/172 173/187/172 172/186/172
f 185/200/173 174/188/173 173/187/173
f 186/201/174 175/189/174 174/188/174
f 175/190/175 188/204/175 176/191/175
f 176/191/176 189/205/176 177/192/176
f 177/192/177 190/206/177 178/193/177
f 190/206/178 179/194/178 178/193/178
f 191/207/179 180/195/179 179/194/179
f 192/208/180 169/183/180 180/195/180
f 193/209/181 182/197/181 181/196/181
f 194/210/182 183/198/182 182/197/182
f 195/211/183 184/199/183 183/198/183
f 196/212/184 185/200/184 184/199/184
f 197/213/185 186/201/185 185/200/185
f 198/214/186 187/202/186 186/201/186
f 187/203/187 200/217/187 188/204/187
f 188/204/188 201/218/188 189/205/188
f 189/205/189 202/219/189 190/206/189
f 190/206/190 203/220/190 191/207/190
f 191/207/191 204/221/191 192/208/191
f 192/208/192 193/209/192 181/196/192
f 205/222/193 194/210/193 193/209/193
f 194/210/194 207/224/194 195/211/194
f 207/224/195 196/212/195 195/211/195
f 208/225/196 197/213/196 196/212/196
f 209/226/197 198/214/197 197/213/197
f 210/227/198 199/215/198 198/214/198
f 199/216/199 212/230/199 200/217/199
f 200/217/200 213/231/200 201/218/200
f 201/218/201 214/232/201 202/219/201
f 202/219/202 215/233/202 203/220/202
f 215/233/203 204/221/203 203/220/203
f 204/221/204 205/222/204 193/209/204
f 217/235/205 206/223/205 205/222/205
f 218/236/206 207/224/206 206/223/206
f 219/237/207 208/225/207 207/224/207
f 220/238/208 209/226/208 208/225/208
f 221/239/209 210/227/209 209/226/209
f 222/240/210 211/228/210 210/227/210
f 211/229/211 224/243/211 212/230/211
f 212/230/212 225/244/212 213/231/212
f 213/231/213 226/245/213 214/232/213
f 214/232/214 227/246/214 215/233/214
f 215/233/215 228/247/215 216/234/215
f 216/234/216 217/235/216 205/222/216
f 217/235/217 230/249/217 218/236/217
f 230/249/218 219/237/218 218/236/218
f 231/250/219 220/238/219 219/237/219
f 232/251/220 221/239/220 220/238/220
f 233/252/221 222/240/221 221/239/221
f 234/253/222 223/241/222 222/240/222
f 223/242/223 236/256/223 224/243/223
f 236/256/224 225/244/224 224/243/224
f 225/244/225 238/258/225 226/245/225
f 226/245/226 239/259/226 227/246/226
f 227/246/227 240/260/227 228/247/227
f 240/260/228 217/235/228 228/247/228
f 241/261/229 230/249/229 229/248/229
f 242/262/230 231/250/230 230/249/230
f 243/263/231 232/251/231 231/250/231
f 244/264/232 233/252/232 232/251/232
f 245/265/233 234/253/233 233/252/233
f 246/266/234 235/254/234 234/253/234
f 235/255/235 248/269/235 236/256/235
f 236/256/236 249/270/236 237/257/236
f 237/257/237 250/271/237 238/258/237
f 238/258/238 251/272/238 239/259/238
f 239/259/239 252/273/239 240/260/239
f 240/260/240 241/261/240 229/248/240
f 253/274/241 242/262/241 241/261/241
f 242/262/242 255/276/242 243/263/242
f 255/276/243 244/264/243 243/263/243
f 256/277/244 245/265/244 244/264/244
f 257/278/245 246/266/245 245/265/245
f 258/279/246 247/268/246 246/266/246
f 259/281/247 248/269/247 247/267/247
f 248/269/248 261/283/248 249/270/248
f 249/270/249 262/284/249 250/271/249
f 250/271/250 263/285/250 251/272/250
f 263/285/251 252/273/251 251/272/251
f 252/273/252 253/274/252 241/261/252
f 265/287/253 254/275/253 253/274/253
f 266/288/254 255/276/254 254/275/254
f 267/289/255 256/277/255 255/276/255
f 268/290/256 257/278/256 256/277/256
f 269/291/257 258/279/257 257/278/257
f 270/292/258 259/280/258 258/279/258
f 259/281/259 272/295/259 260/282/259
f 260/282/260 273/296/260 261/283/260
f 261/283/261 274/297/261 262/284/261
f 262/284/262 275/298/262 263/285/262
f 263/285/263 276/299/263 264/286/263
f 264/286/264 265/287/264 253/274/264
f 277/300/265 266/288/265 265/287/265
f 278/301/266 267/289/266 266/288/266
f 279/302/267 268/290/267 267/289/267
f 280/303/268 269/291/268 268/290/268
f 281/304/269 270/292/269 269/291/269
f 282/305/270 271/293/270 270/292/270
f 271/294/271 284/308/271 272/295/271
f 272/295/272 285/309/272 273/296/272
f 273/296/273 286/310/273 274/297/273
f 274/297/274 287/311/274 275/298/274
f 275/298/275 288/312/275 276/299/275
f 276/299/276 277/300/276 265/287/276
f 289/314/277 278/301/277 277/300/277
f 290/316/278 279/302/278 278/301/278
f 291/318/279 280/303/279 279/302/279
f 292/320/280 281/304/280 280/303/280
f 293/322/281 282/305/281 281/304/281
f 294/324/282 283/306/282 282/305/282
f 283/307/283 296/330/283 284/308/283
f 284/308/284 297/332/284 285/309/284
f 285/309/285 298/334/285 286/310/285
f 286/310/286 299/336/286 287/311/286
f 287/311/287 300/338/287 288/312/287
f 288/312/288 289/314/288 277/300/288
f 289/313/289 301/339/289 290/315/289
f 290/315/290 301/340/290 291/317/290
f 291/317/291 301/341/291 292/319/291
f 292/319/292 301/342/292 293/321/292
f 293/321/293 301/343/293 294/323/293
f 294/323/294 301/344/294 295/325/294
f 295/326/295 301/345/295 296/329/295
f 296/329/296 301/346/296 297/331/296
f 297/331/297 301/347/297 298/333/297
f 298/333/298 301/348/298 299/335/298
f 299/335/299 301/349/299 300/337/299
f 300/337/300 301/350/300 289/313/300
f 302/351/301 1/1/301 2/2/301
f 302/352/302 2/2/302 3/3/302
f 302/353/303 3/3/303 4/4/303
f 302/354/304 4/4/304 5/5/304
f 302/355/305 5/5/305 6/6/305
f 302/356/306 6/6/306 7/7/306
f 302/357/307 7/8/307 8/9/307
f 302/358/308 8/9/308 9/10/308
f 302/359/309 9/10/309 10/11/309
f 302/360/310 10/11/310 11/12/310
f 302/361/311 11/12/311 12/13/311
f 302/362/312 12/13/312 1/1/312
f 1/1/313 13/14/313 14/15/313
f 2/2/314 14/15/314 15/16/314
f 3/3/315 15/16/315 16/17/315
f 4/4/316 16/17/316 17/18/316
f 5/5/317 17/18/317 18/19/317
f 6/6/318 18/19/318 19/20/318
f 19/21/319 20/22/319 8/9/319
f 20/22/320 21/23/320 9/10/320
f 21/23/321 22/24/321 10/11/321
f 22/24/322 23/25/322 11/12/322
f 23/25/323 24/26/323 12/13/323
f 24/26/324 13/14/324 1/1/324
f 13/14/325 25/27/325 26/28/325
f 14/15/326 26/28/326 27/29/326
f 15/16/327 27/29/327 28/30/327
f 16/17/328 28/30/328 29/31/328
f 17/18/329 29/31/329 30/32/329
f 18/19/330 30/32/330 31/33/330
f 31/34/331 32/35/331 20/22/331
f 32/35/332 33/36/332 21/23/332
f 33/36/333 34/37/333 22/24/333
f 34/37/334 35/38/334 23/25/334
f 35/38/335 36/39/335 24/26/335
f 36/39/336 25/27/336 13/14/336
f 25/27/337 37/40/337 38/41/337
f 26/28/338 38/41/338 39/42/338
f 27/29/339 39/42/339 40/43/339
f 28/30/340 40/43/340 41/44/340
f 29/31/341 41/44/341 42/45/341
f 30/32/342 42/45/342 43/47/342
f 43/46/343 44/48/343 32/35/343
f 44/48/344 45/49/344 33/36/344
f 45/49/345 46/50/345 34/37/345
f 46/50/346 47/51/346 35/38/346
f 47/51/347 48/52/347 36/39/347
f 48/52/348 37/40/348 25/27/348
f 37/40/37 49/53/37 50/54/37
f 50/54/38 51/55/38 39/42/38
f 51/55/39 52/56/39 40/43/39
f 52/56/40 53/57/40 41/44/40
f 53/57/41 54/58/41 42/45/41
f 54/58/42 55/59/42 43/47/42
f 55/60/43 56/61/43 44/48/43
f 56/61/44 57/62/44 45/49/44
f 45/49/45 57/62/45 58/63/45
f 46/50/46 58/63/46 59/64/46
f 59/64/47 60/65/47 48/52/47
f 60/65/48 49/53/48 37/40/48
f 49/53/349 61/66/349 62/67/349
f 50/54/350 62/67/350 63/68/350
f 51/55/351 63/68/351 64/69/351
f 52/56/352 64/69/352 65/70/352
f 53/57/353 65/70/353 66/71/353
f 54/58/354 66/71/354 67/72/354
f 67/73/355 68/74/355 56/61/355
f 68/74/356 69/75/356 57/62/356
f 69/75/357 70/76/357 58/63/357
f 70/76/358 71/77/358 59/64/358
f 71/77/359 72/78/359 60/65/359
f 72/78/360 61/66/360 49/53/360
f 73/79/61 74/80/61 62/67/61
f 74/80/62 75/81/62 63/68/62
f 63/68/63 75/81/63 76/82/63
f 64/69/64 76/82/64 77/83/64
f 77/83/65 78/84/65 66/71/65
f 66/71/66 78/84/66 79/85/66
f 79/86/67 80/87/67 68/74/67
f 80/87/68 81/88/68 69/75/68
f 81/88/69 82/89/69 70/76/69
f 82/89/70 83/90/70 71/77/70
f 71/77/71 83/90/71 84/91/71
f 72/78/72 84/91/72 73/79/72
f 73/79/361 85/92/361 86/93/361
f 74/80/362 86/93/362 87/94/362
f 75/81/363 87/94/363 88/95/363
f 76/82/364 88/95/364 89/96/364
f 77/83/365 89/96/365 90/97/365
f 78/84/366 90/97/366 91/99/366
f 91/98/367 92/100/367 80/87/367
f 92/100/368 93/101/368 81/88/368
f 93/101/369 94/102/369 82/89/369
f 94/102/370 95/103/370 83/90/370
f 95/103/371 96/104/371 84/91/371
f 96/104/372 85/92/372 73/79/372
f 85/92/85 97/105/85 98/106/85
f 86/93/86 98/106/86 99/107/86
f 99/107/87 100/108/87 88/95/87
f 88/95/88 100/108/88 101/109/88
f 89/96/89 101/109/89 102/110/89
f 102/110/90 103/111/90 91/99/90
f 103/112/91 104/113/91 92/100/91
f 104/113/92 105/114/92 93/101/92
f 105/114/93 106/115/93 94/102/93
f 94/102/94 106/115/94 107/116/94
f 107/116/95 108/117/95 96/104/95
f 108/117/96 97/105/96 85/92/96
f 97/105/373 109/118/373 110/119/373
f 98/106/374 110/119/374 111/120/374
f 99/107/375 111/120/375 112/121/375
f 100/108/376 112/121/376 113/122/376
f 101/109/377 113/122/377 114/123/377
f 102/110/378 114/123/378 115/124/378
f 115/125/379 116/126/379 104/113/379
f 116/126/380 117/127/380 105/114/380
f 117/127/381 118/128/381 106/115/381
f 118/128/382 119/129/382 107/116/382
f 119/129/383 120/130/383 108/117/383
f 120/130/384 109/118/384 97/105/384
f 121/131/109 122/132/109 110/119/109
f 122/132/110 123/133/110 111/120/110
f 123/133/111 124/134/111 112/121/111
f 112/121/112 124/134/112 125/135/112
f 125/135/113 126/136/113 114/123/113
f 114/123/114 126/136/114 127/137/114
f 127/138/115 128/139/115 116/126/115
f 128/139/116 129/140/116 117/127/116
f 129/140/117 130/141/117 118/128/117
f 118/128/118 130/141/118 131/142/118
f 119/129/119 131/142/119 132/143/119
f 132/143/120 121/131/120 109/118/120
f 121/131/385 133/144/385 134/145/385
f 122/132/386 134/145/386 135/146/386
f 123/133/387 135/146/387 136/147/387
f 124/134/388 136/147/388 137/148/388
f 125/135/389 137/148/389 138/149/389
f 126/136/390 138/149/390 139/150/390
f 139/151/391 140/152/391 128/139/391
f 140/152/392 141/153/392 129/140/392
f 141/153/393 142/154/393 130/141/393
f 142/154/394 143/155/394 131/142/394
f 143/155/395 144/156/395 132/143/395
f 144/156/396 133/144/396 121/131/396
f 145/157/397 146/158/397 134/145/397
f 146/158/398 147/159/398 135/146/398
f 147/159/399 148/160/399 136/147/399
f 148/160/400 149/161/400 137/148/400
f 149/161/401 150/162/401 138/149/401
f 150/162/402 151/163/402 139/150/402
f 139/151/403 151/164/403 152/165/403
f 140/152/404 152/165/404 153/166/404
f 141/153/405 153/166/405 154/167/405
f 142/154/406 154/167/406 155/168/406
f 143/155/407 155/168/407 156/169/407
f 144/156/408 156/169/408 145/157/408
f 145/157/409 157/170/409 158/171/409
f 146/158/410 158/171/410 159/172/410
f 147/159/411 159/172/411 160/173/411
f 148/160/412 160/173/412 161/174/412
f 149/161/413 161/174/413 162/175/413
f 150/162/414 162/175/414 163/176/414
f 163/177/415 164/178/415 152/165/415
f 164/178/416 165/179/416 153/166/416
f 165/179/417 166/180/417 154/167/417
f 166/180/418 167/181/418 155/168/418
f 167/181/419 168/182/419 156/169/419
f 168/182/420 157/170/420 145/157/420
f 169/183/421 170/184/421 158/171/421
f 170/184/422 171/185/422 159/172/422
f 171/185/423 172/186/423 160/173/423
f 172/186/424 173/187/424 161/174/424
f 173/187/425 174/188/425 162/175/425
f 174/188/426 175/189/426 163/176/426
f 163/177/427 175/190/427 176/191/427
f 164/178/428 176/191/428 177/192/428
f 165/179/429 177/192/429 178/193/429
f 166/180/430 178/193/430 179/194/430
f 167/181/431 179/194/431 180/195/431
f 168/182/432 180/195/432 169/183/432
f 169/183/169 181/196/169 182/197/169
f 170/184/170 182/197/170 183/198/170
f 171/185/171 183/198/171 184/199/171
f 184/199/172 185/200/172 173/187/172
f 185/200/173 186/201/173 174/188/173
f 186/201/174 187/202/174 175/189/174
f 175/190/175 187/203/175 188/204/175
f 176/191/176 188/204/176 189/205/176
f 177/192/177 189/205/177 190/206/177
f 190/206/178 191/207/178 179/194/178
f 191/207/179 192/208/179 180/195/179
f 192/208/180 181/196/180 169/183/180
f 193/209/433 194/210/433 182/197/433
f 194/210/434 195/211/434 183/198/434
f 195/211/435 196/212/435 184/199/435
f 196/212/436 197/213/436 185/200/436
f 197/213/437 198/214/437 186/201/437
f 198/214/438 199/215/438 187/202/438
f 187/203/439 199/216/439 200/217/439
f 188/204/440 200/217/440 201/218/440
f 189/205/441 201/218/441 202/219/441
f 190/206/442 202/219/442 203/220/442
f 191/207/443 203/220/443 204/221/443
f 192/208/444 204/221/444 193/209/444
f 205/222/193 206/223/193 194/210/193
f 194/210/194 206/223/194 207/224/194
f 207/224/195 208/225/195 196/212/195
f 208/225/196 209/226/196 197/213/196
f 209/226/197 210/227/197 198/214/197
f 210/227/198 211/228/198 199/215/198
f 199/216/199 211/229/199 212/230/199
f 200/217/200 212/230/200 213/231/200
f 201/218/201 213/231/201 214/232/201
f 202/219/202 214/232/202 215/233/202
f 215/233/203 216/234/203 204/221/203
f 204/221/204 216/234/204 205/222/204
f 217/235/445 218/236/445 206/223/445
f 218/236/446 219/237/446 207/224/446
f 219/237/447 220/238/447 208/225/447
f 220/238/448 221/239/448 209/226/448
f 221/239/449 222/240/449 210/227/449
f 222/240/450 223/241/450 211/228/450
f 211/229/451 223/242/451 224/243/451
f 212/230/452 224/243/452 225/244/452
f 213/231/453 225/244/453 226/245/453
f 214/232/454 226/245/454 227/246/454
f 215/233/455 227/246/455 228/247/455
f 216/234/456 228/247/456 217/235/456
f 217/235/217 229/248/217 230/249/217
f 230/249/218 231/250/218 219/237/218
f 231/250/219 232/251/219 220/238/219
f 232/251/220 233/252/220 221/239/220
f 233/252/221 234/253/221 222/240/221
f 234/253/222 235/254/222 223/241/222
f 223/242/223 235/255/223 236/256/223
f 236/256/224 237/257/224 225/244/224
f 225/244/225 237/257/225 238/258/225
f 226/245/226 238/258/226 239/259/226
f 227/246/227 239/259/227 240/260/227
f 240/260/228 229/248/228 217/235/228
f 241/261/457 242/262/457 230/249/457
f 242/262/458 243/263/458 231/250/458
f 243/263/459 244/264/459 232/251/459
f 244/264/460 245/265/460 233/252/460
f 245/265/461 246/266/461 234/253/461
f 246/266/462 247/268/462 235/254/462
f 235/255/463 247/267/463 248/269/463
f 236/256/464 248/269/464 249/270/464
f 237/257/465 249/270/465 250/271/465
f 238/258/466 250/271/466 251/272/466
f 239/259/467 251/272/467 252/273/467
f 240/260/468 252/273/468 241/261/468
f 253/274/241 254/275/241 242/262/241
f 242/262/242 254/275/242 255/276/242
f 255/276/243 256/277/243 244/264/243
f 256/277/244 257/278/244 245/265/244
f 257/278/245 258/279/245 246/266/245
f 258/279/246 259/280/246 247/268/246
f 259/281/247 260/282/247 248/269/247
f 248/269/248 260/282/248 261/283/248
f 249/270/249 261/283/249 262/284/249
f 250/271/250 262/284/250 263/285/250
f 263/285/251 264/286/251 252/273/251
f 252/273/252 264/286/252 253/274/252
f 265/287/469 266/288/469 254/275/469
f 266/288/470 267/289/470 255/276/470
f 267/289/471 268/290/471 256/277/471
f 268/290/472 269/291/472 257/278/472
f 269/291/473 270/292/473 258/279/473
f 270/292/474 271/293/474 259/280/474
f 259/281/475 271/294/475 272/295/475
f 260/282/476 272/295/476 273/296/476
f 261/283/477 273/296/477 274/297/477
f 262/284/478 274/297/478 275/298/478
f 263/285/479 275/298/479 276/299/479
f 264/286/480 276/299/480 265/287/480
f 277/300/481 278/301/481 266/288/481
f 278/301/482 279/302/482 267/289/482
f 279/302/483 280/303/483 268/290/483
f 280/303/484 281/304/484 269/291/484
f 281/304/485 282/305/485 270/292/485
f 282/305/486 283/306/486 271/293/486
f 271/294/487 283/307/487 284/308/487
f 272/295/488 284/308/488 285/309/488
f 273/296/489 285/309/489 286/310/489
f 274/297/490 286/310/490 287/311/490
f 275/298/491 287/311/491 288/312/491
f 276/299/492 288/312/492 277/300/492
f 289/314/493 290/316/493 278/301/493
f 290/316/494 291/318/494 279/302/494
f 291/318/495 292/320/495 280/303/495
f 292/320/496 293/322/496 281/304/496
f 293/322/497 294/324/497 282/305/497
f 294/324/498 295/327/498 283/306/498
f 283/307/499 295/328/499 296/330/499
f 284/308/500 296/330/500 297/332/500
f 285/309/501 297/332/501 298/334/501
f 286/310/502 298/334/502 299/336/502
f 287/311/503 299/336/503 300/338/503
f 288/312/504 300/338/504 289/314/504
