# Blender 3.3.1
# www.blender.org
o bottom_drawer
v -0.336643 0.957432 2.818814
v -0.336643 1.082751 2.818814
v -1.482139 0.164642 -0.920316
v -1.381536 1.875540 -0.827550
v 0.336643 0.957432 2.818814
v 0.336643 1.082751 2.818814
v 1.482139 0.164642 -0.920316
v 1.381536 1.875540 -0.827550
v -1.482139 0.164642 2.818541
v -1.381536 1.875540 2.709335
v 1.381536 1.875540 2.709335
v 1.482139 0.164642 2.818541
v -0.336643 0.957432 2.959587
v -0.336643 1.082751 2.959587
v 0.336643 1.082751 2.959587
v 0.336643 0.957432 2.959587
v -0.410789 0.957432 2.818541
v 0.410789 0.957432 2.818541
v 0.410789 1.082751 2.818541
v -0.410789 1.082751 2.818541
v -0.410789 0.957432 3.009417
v 0.410789 0.957432 3.009417
v 0.410789 1.082751 3.009417
v -0.410789 1.082751 3.009417
v 1.308054 1.746718 2.818541
v -1.482139 1.746718 2.818541
v -1.308054 1.746719 2.818541
v 1.482139 1.746718 2.818541
v -1.482139 1.875540 2.886443
v -1.482139 1.875540 -0.928154
v 1.482139 1.875540 -0.928154
v 1.482139 1.875540 2.886443
v -1.381536 0.249816 2.709335
v -1.381536 0.249816 -0.827550
v 1.381536 0.249816 -0.827550
v 1.381536 0.249816 2.709335
v -0.690768 0.249816 -0.827550
v 0.000000 0.249816 -0.827550
v 0.690768 0.249816 -0.827550
v 0.690768 0.249816 2.709335
v 0.000000 0.249816 2.709335
v -0.690768 0.249816 2.709335
v -1.381536 0.249816 2.001958
v -1.381536 0.249816 1.294581
v -1.381536 0.249816 0.587204
v -1.381536 0.249816 -0.120173
v 1.381536 0.249816 -0.120173
v 1.381536 0.249816 0.587204
v 1.381536 0.249816 1.294581
v 1.381536 0.249816 2.001958
v 0.690768 0.249816 -0.120173
v 0.690768 0.249816 0.587204
v 0.690768 0.249816 1.294581
v 0.690768 0.249816 2.001958
v 0.000000 0.249816 -0.120173
v 0.000000 0.249816 0.587204
v 0.000000 0.249816 1.294581
v 0.000000 0.249816 2.001958
v -0.690768 0.249816 -0.120173
v -0.690768 0.249816 0.587204
v -0.690768 0.249816 1.294581
v -0.690768 0.249816 2.001958
vn -1.0000 -0.0000 -0.0000
vn -0.0000 -0.0046 -1.0000
vn 1.0000 -0.0000 -0.0000
vn -0.0000 -1.0000 -0.0000
vn -0.0000 -0.0000 -1.0000
vn -0.0000 -0.0000 1.0000
vn -0.0000 1.0000 -0.0000
vn -0.0000 -0.4663 0.8846
vt 0.251217 0.516390
vt 0.211322 0.530866
vt 0.200374 0.383203
vt 0.234890 0.445146
vt 0.239688 0.516390
vt 0.222733 0.530866
vt 0.911753 0.281195
vt 0.298150 0.008478
vt 0.165883 0.377102
vt 0.271940 0.017733
vt 0.569312 0.737316
vt 0.893241 0.369413
vt 0.279702 0.503438
vt 0.200374 0.445146
vt 0.211322 0.468922
vt 0.234890 0.383203
vt 0.222733 0.468922
vt 0.268173 0.503438
vt 0.911753 0.008478
vt 0.726717 0.719640
vt 0.570868 0.008478
vt 0.017733 0.017733
vt 0.569312 0.991523
vt 0.737392 0.333876
vt 0.165883 0.721082
vt 0.298150 0.352458
vt 0.454824 0.711766
vt 0.743672 0.965973
vt 0.271940 0.343132
vt 0.893241 0.694811
vt 0.743672 0.711766
vt 0.017733 0.343131
vt 0.737392 0.008478
vt 0.726717 0.375660
vt 0.570868 0.352458
vt 0.454824 0.984484
vt 0.182838 0.468922
vt 0.187422 0.383203
vt 0.251217 0.503438
vt 0.221938 0.445146
vt 0.239688 0.503438
vt 0.194367 0.468922
vt 0.221938 0.383203
vt 0.268173 0.516390
vt 0.194367 0.530866
vt 0.187422 0.445146
vt 0.279702 0.516390
vt 0.182838 0.530866
vt 0.382641 0.810332
vt 0.268173 0.486483
vt 0.200399 0.376381
vt 0.239688 0.468923
vt 0.382641 0.885918
vt 0.200399 0.451967
vt 0.371230 0.885918
vt 0.251217 0.468923
vt 0.234915 0.376381
vt 0.279702 0.486483
vt 0.371230 0.810332
vt 0.234915 0.451967
vt 0.263280 0.376381
vt 0.268173 0.468923
vt 0.182838 0.376381
vt 0.263280 0.451967
vt 0.239688 0.486483
vt 0.182838 0.451967
vt 0.251870 0.451967
vt 0.251217 0.486483
vt 0.217354 0.376381
vt 0.251870 0.376381
vt 0.279702 0.468923
vt 0.217354 0.451967
vt 0.310776 0.968468
vt 0.020329 0.721082
vt 0.310776 0.711766
vt 0.310776 0.727782
vt 0.581164 0.375660
vt 0.310776 0.984484
vt 0.008478 0.727329
vt 0.298151 0.711766
vt 0.281195 0.359426
vt 0.008478 0.376381
vt 0.754347 0.281195
vt 0.281195 0.008478
vt 0.754347 0.008478
vt 0.569312 0.720361
vt 0.008478 0.008478
vt 0.569312 0.369413
vt 0.298151 0.984484
vt 0.008478 0.359426
vt 0.893241 0.965973
vt 0.552357 0.694811
vt 0.743672 0.694811
vt 0.717335 0.737316
vt 0.743672 0.369413
vt 0.552357 0.369413
vt 0.298151 0.369413
vt 0.717335 0.991523
vt 0.587823 0.333876
vt 0.893241 0.711766
vt 0.587823 0.008478
vt 0.298151 0.694811
vt 0.717335 0.800868
vt 0.488805 0.369413
vt 0.717335 0.864419
vt 0.425254 0.369413
vt 0.717335 0.927971
vt 0.361702 0.369413
vt 0.893241 0.775318
vt 0.361702 0.694811
vt 0.893241 0.838869
vt 0.425254 0.694811
vt 0.893241 0.902421
vt 0.488805 0.694811
vt 0.743672 0.629731
vt 0.552357 0.629731
vt 0.743672 0.564652
vt 0.552357 0.564652
vt 0.743672 0.499572
vt 0.552357 0.499572
vt 0.743672 0.434492
vt 0.552357 0.434492
vt 0.587823 0.268796
vt 0.298151 0.434492
vt 0.587823 0.203717
vt 0.298151 0.499572
vt 0.587823 0.138637
vt 0.298151 0.564652
vt 0.587823 0.073557
vt 0.298151 0.629731
vt 0.361702 0.434492
vt 0.361702 0.499572
vt 0.361702 0.564652
vt 0.361702 0.629731
vt 0.425254 0.434492
vt 0.425254 0.499572
vt 0.425254 0.564652
vt 0.425254 0.629731
vt 0.488805 0.434492
vt 0.488805 0.499572
vt 0.488805 0.564652
vt 0.488805 0.629731
s 0
f 26/74/1 30/82/1 3/9/1
f 30/83/2 7/19/2 3/7/2
f 31/86/3 28/77/3 12/34/3
f 7/21/4 9/26/4 3/8/4
f 11/31/5 41/111/5 33/91/5
f 20/59/6 26/75/6 9/27/6
f 18/53/6 28/78/6 25/73/6
f 17/49/6 12/36/6 18/53/6
f 20/59/6 25/73/6 27/76/6
f 23/67/6 21/61/6 22/64/6
f 17/50/1 24/71/1 20/58/1
f 19/56/3 22/65/3 18/52/3
f 1/3/4 18/54/4 5/14/4
f 6/16/7 20/60/7 2/4/7
f 16/46/4 21/63/4 13/38/4
f 14/40/7 23/69/7 15/43/7
f 16/46/4 18/54/4 22/66/4
f 13/38/4 17/51/4 1/3/4
f 14/40/7 20/60/7 24/72/7
f 15/43/7 19/57/7 6/16/7
f 2/5/3 13/39/3 1/1/3
f 5/15/6 2/6/6 1/2/6
f 16/47/1 6/18/1 5/13/1
f 14/42/5 16/48/5 13/37/5
f 26/75/8 27/76/8 29/80/8
f 25/73/8 28/78/8 32/89/8
f 25/73/8 29/80/8 27/76/8
f 10/29/7 30/84/7 29/81/7
f 8/22/7 30/84/7 4/10/7
f 11/32/7 31/87/7 8/22/7
f 10/29/7 32/90/7 11/32/7
f 43/116/7 42/114/7 62/142/7
f 4/11/6 38/105/6 35/98/6
f 8/24/1 48/125/1 50/129/1
f 10/30/3 44/117/3 46/121/3
f 54/134/7 36/102/7 50/130/7
f 58/138/7 40/110/7 54/134/7
f 62/142/7 41/112/7 58/138/7
f 37/104/7 55/135/7 38/106/7
f 59/139/7 56/136/7 55/135/7
f 60/140/7 57/137/7 56/136/7
f 61/141/7 58/138/7 57/137/7
f 38/106/7 51/131/7 39/108/7
f 55/135/7 52/132/7 51/131/7
f 56/136/7 53/133/7 52/132/7
f 57/137/7 54/134/7 53/133/7
f 39/108/7 47/124/7 35/97/7
f 51/131/7 48/126/7 47/124/7
f 52/132/7 49/128/7 48/126/7
f 53/133/7 50/130/7 49/128/7
f 34/96/7 59/139/7 37/104/7
f 46/122/7 60/140/7 59/139/7
f 45/120/7 61/141/7 60/140/7
f 61/141/7 43/116/7 62/142/7
f 3/9/1 9/25/1 26/74/1
f 26/74/1 29/79/1 30/82/1
f 30/83/2 31/85/2 7/19/2
f 12/34/3 7/20/3 31/86/3
f 31/86/3 32/88/3 28/77/3
f 7/21/4 12/35/4 9/26/4
f 33/91/5 10/28/5 11/31/5
f 11/31/5 36/100/5 40/109/5
f 41/111/7 42/113/7 33/91/7
f 11/31/5 40/109/5 41/111/5
f 9/27/6 17/49/6 20/59/6
f 20/59/6 27/76/6 26/75/6
f 25/73/6 19/55/6 18/53/6
f 18/53/6 12/36/6 28/78/6
f 17/49/6 9/27/6 12/36/6
f 20/59/6 19/55/6 25/73/6
f 23/67/6 24/70/6 21/61/6
f 17/50/1 21/62/1 24/71/1
f 19/56/3 23/68/3 22/65/3
f 1/3/4 17/51/4 18/54/4
f 6/16/7 19/57/7 20/60/7
f 16/46/4 22/66/4 21/63/4
f 14/40/7 24/72/7 23/69/7
f 16/46/4 5/14/4 18/54/4
f 13/38/4 21/63/4 17/51/4
f 14/40/7 2/4/7 20/60/7
f 15/43/7 23/69/7 19/57/7
f 2/5/3 14/41/3 13/39/3
f 5/15/6 6/17/6 2/6/6
f 16/47/1 15/44/1 6/18/1
f 14/42/5 15/45/5 16/48/5
f 25/73/8 32/89/8 29/80/8
f 10/29/7 4/10/7 30/84/7
f 8/22/7 31/87/7 30/84/7
f 11/32/7 32/90/7 31/87/7
f 10/29/7 29/81/7 32/90/7
f 43/116/7 33/92/7 42/114/7
f 35/98/6 8/23/6 4/11/6
f 4/11/6 34/94/6 37/103/6
f 38/105/7 39/107/7 35/98/7
f 4/11/6 37/103/6 38/105/6
f 36/101/1 11/33/1 8/24/1
f 8/24/1 35/99/1 47/123/1
f 48/125/7 49/127/7 50/129/7
f 8/24/1 47/123/1 48/125/1
f 50/129/1 36/101/1 8/24/1
f 34/95/3 4/12/3 10/30/3
f 10/30/3 33/93/3 43/115/3
f 44/117/7 45/119/7 46/121/7
f 10/30/3 43/115/3 44/117/3
f 46/121/3 34/95/3 10/30/3
f 54/134/7 40/110/7 36/102/7
f 58/138/7 41/112/7 40/110/7
f 62/142/7 42/114/7 41/112/7
f 37/104/7 59/139/7 55/135/7
f 59/139/7 60/140/7 56/136/7
f 60/140/7 61/141/7 57/137/7
f 61/141/7 62/142/7 58/138/7
f 38/106/7 55/135/7 51/131/7
f 55/135/7 56/136/7 52/132/7
f 56/136/7 57/137/7 53/133/7
f 57/137/7 58/138/7 54/134/7
f 39/108/7 51/131/7 47/124/7
f 51/131/7 52/132/7 48/126/7
f 52/132/7 53/133/7 49/128/7
f 53/133/7 54/134/7 50/130/7
f 34/96/7 46/122/7 59/139/7
f 46/122/7 45/120/7 60/140/7
f 45/120/7 44/118/7 61/141/7
f 61/141/7 44/118/7 43/116/7
