# Blender 3.3.1
# www.blender.org
o bottom_grid
v -1.381536 1.960717 2.709335
v -1.381536 1.960717 -0.827550
v 1.381536 1.960717 -0.827550
v 1.381536 1.960717 2.709335
v -0.690768 1.960717 -0.827550
v 0.000000 1.960717 -0.827550
v 0.690768 1.960717 -0.827550
v 0.690768 1.960717 2.709335
v 0.000000 1.960717 2.709335
v -0.690768 1.960717 2.709335
v -1.381536 1.960717 2.001958
v -1.381536 1.960717 1.294581
v -1.381536 1.960717 0.587204
v -1.381536 1.960717 -0.120173
v 1.381536 1.960717 -0.120173
v 1.381536 1.960717 0.587204
v 1.381536 1.960717 1.294581
v 1.381536 1.960717 2.001958
v 0.690768 1.960717 -0.120173
v 0.690768 1.960717 0.587204
v 0.690768 1.960717 1.294581
v 0.690768 1.960717 2.001958
v 0.000000 1.960717 -0.120173
v 0.000000 1.960717 0.587204
v 0.000000 1.960717 1.294581
v 0.000000 1.960717 2.001958
v -0.690768 1.960717 -0.120173
v -0.690768 1.960717 0.587204
v -0.690768 1.960717 1.294581
v -0.690768 1.960717 2.001958
v -0.724828 1.960717 2.036018
v -1.347476 1.960717 2.036018
v -1.347476 1.960717 2.675275
v -0.724828 1.960717 2.675275
v 1.347476 1.960717 2.036018
v 0.724828 1.960717 2.036018
v 0.724828 1.960717 2.675275
v 1.347476 1.960717 2.675275
v 0.656708 1.960717 2.036018
v 0.034060 1.960717 2.036018
v 0.034060 1.960717 2.675275
v 0.656708 1.960717 2.675275
v -0.034060 1.960717 2.036018
v -0.656708 1.960717 2.036018
v -0.656708 1.960717 2.675275
v -0.034060 1.960717 2.675275
v -0.034060 1.960717 -0.793490
v -0.656708 1.960717 -0.793490
v -0.656708 1.960717 -0.154233
v -0.034060 1.960717 -0.154233
v -0.034060 1.960717 -0.086113
v -0.656708 1.960717 -0.086113
v -0.656708 1.960717 0.553144
v -0.034060 1.960717 0.553144
v -0.034060 1.960717 0.621264
v -0.656708 1.960717 0.621264
v -0.656708 1.960717 1.260521
v -0.034060 1.960717 1.260521
v -0.034060 1.960717 1.328641
v -0.656708 1.960717 1.328641
v -0.656708 1.960717 1.967898
v -0.034060 1.960717 1.967898
v 0.656708 1.960717 -0.793490
v 0.034060 1.960717 -0.793490
v 0.034060 1.960717 -0.154233
v 0.656708 1.960717 -0.154233
v 0.656708 1.960717 -0.086113
v 0.034060 1.960717 -0.086113
v 0.034060 1.960717 0.553144
v 0.656708 1.960717 0.553144
v 0.656708 1.960717 0.621264
v 0.034060 1.960717 0.621264
v 0.034060 1.960717 1.260521
v 0.656708 1.960717 1.260521
v 0.656708 1.960717 1.328641
v 0.034060 1.960717 1.328641
v 0.034060 1.960717 1.967898
v 0.656708 1.960717 1.967898
v 1.347476 1.960717 -0.793490
v 0.724828 1.960717 -0.793490
v 0.724828 1.960717 -0.154233
v 1.347476 1.960717 -0.154233
v 1.347476 1.960717 -0.086113
v 0.724828 1.960717 -0.086113
v 0.724828 1.960717 0.553144
v 1.347476 1.960717 0.553144
v 1.347476 1.960717 0.621264
v 0.724828 1.960717 0.621264
v 0.724828 1.960717 1.260521
v 1.347476 1.960717 1.260521
v 1.347476 1.960717 1.328641
v 0.724828 1.960717 1.328641
v 0.724828 1.960717 1.967898
v 1.347476 1.960717 1.967898
v -0.724828 1.960717 -0.793490
v -1.347476 1.960717 -0.793490
v -1.347476 1.960717 -0.154233
v -0.724828 1.960717 -0.154233
v -0.724828 1.960717 -0.086113
v -1.347476 1.960717 -0.086113
v -1.347476 1.960717 0.553144
v -0.724828 1.960717 0.553144
v -0.724828 1.960717 0.621264
v -1.347476 1.960717 0.621264
v -1.347476 1.960717 1.260521
v -0.724828 1.960717 1.260521
v -0.724828 1.960717 1.328641
v -1.347476 1.960717 1.328641
v -1.347476 1.960717 1.967898
v -0.724828 1.960717 1.967898
vn -0.0000 1.0000 -0.0000
vt 0.779733 0.997362
vt 0.779733 0.002638
vt 0.002638 0.002638
vt 0.002638 0.997362
vt 0.585459 0.002638
vt 0.391185 0.002638
vt 0.196911 0.002638
vt 0.196911 0.997362
vt 0.391185 0.997362
vt 0.585459 0.997362
vt 0.779733 0.798417
vt 0.779733 0.599473
vt 0.779733 0.400528
vt 0.779733 0.201583
vt 0.002638 0.201583
vt 0.002638 0.400528
vt 0.002638 0.599472
vt 0.002638 0.798417
vt 0.196911 0.201583
vt 0.196911 0.400528
vt 0.196911 0.599472
vt 0.196911 0.798417
vt 0.391185 0.201583
vt 0.391185 0.400528
vt 0.391185 0.599473
vt 0.391185 0.798417
vt 0.585459 0.201583
vt 0.585459 0.400528
vt 0.585459 0.599473
vt 0.585459 0.798417
vt 0.595038 0.807997
vt 0.770154 0.807997
vt 0.770154 0.987783
vt 0.595038 0.987783
vt 0.012217 0.807997
vt 0.187332 0.807997
vt 0.187332 0.987783
vt 0.012217 0.987783
vt 0.206491 0.807997
vt 0.381606 0.807997
vt 0.381606 0.987783
vt 0.206491 0.987783
vt 0.400764 0.807997
vt 0.575880 0.807997
vt 0.575880 0.987783
vt 0.400764 0.987783
vt 0.400764 0.012217
vt 0.575880 0.012217
vt 0.575880 0.192003
vt 0.400764 0.192003
vt 0.400764 0.211162
vt 0.575880 0.211162
vt 0.575880 0.390948
vt 0.400764 0.390948
vt 0.400764 0.410107
vt 0.575880 0.410107
vt 0.575880 0.589893
vt 0.400764 0.589893
vt 0.400764 0.609052
vt 0.575880 0.609052
vt 0.575880 0.788838
vt 0.400764 0.788838
vt 0.206491 0.012217
vt 0.381606 0.012217
vt 0.381606 0.192003
vt 0.206491 0.192003
vt 0.206491 0.211162
vt 0.381606 0.211162
vt 0.381606 0.390948
vt 0.206491 0.390948
vt 0.206491 0.410107
vt 0.381606 0.410107
vt 0.381606 0.589893
vt 0.206491 0.589893
vt 0.206491 0.609052
vt 0.381606 0.609052
vt 0.381606 0.788838
vt 0.206491 0.788838
vt 0.012217 0.012217
vt 0.187332 0.012217
vt 0.187332 0.192003
vt 0.012217 0.192003
vt 0.012217 0.211162
vt 0.187332 0.211162
vt 0.187332 0.390948
vt 0.012217 0.390948
vt 0.012217 0.410107
vt 0.187332 0.410107
vt 0.187332 0.589893
vt 0.012217 0.589893
vt 0.012217 0.609052
vt 0.187332 0.609052
vt 0.187332 0.788838
vt 0.012217 0.788838
vt 0.595038 0.012217
vt 0.770154 0.012217
vt 0.770154 0.192003
vt 0.595038 0.192003
vt 0.595038 0.211162
vt 0.770154 0.211162
vt 0.770154 0.390948
vt 0.595038 0.390948
vt 0.595038 0.410107
vt 0.770154 0.410107
vt 0.770154 0.589893
vt 0.595038 0.589893
vt 0.595038 0.609052
vt 0.770154 0.609052
vt 0.770154 0.788838
vt 0.595038 0.788838
s 0
f 11/11/1 31/31/1 30/30/1
f 1/1/1 32/32/1 11/11/1
f 10/10/1 33/33/1 1/1/1
f 30/30/1 34/34/1 10/10/1
f 22/22/1 35/35/1 18/18/1
f 8/8/1 36/36/1 22/22/1
f 4/4/1 37/37/1 8/8/1
f 18/18/1 38/38/1 4/4/1
f 26/26/1 39/39/1 22/22/1
f 9/9/1 40/40/1 26/26/1
f 8/8/1 41/41/1 9/9/1
f 22/22/1 42/42/1 8/8/1
f 30/30/1 43/43/1 26/26/1
f 10/10/1 44/44/1 30/30/1
f 9/9/1 45/45/1 10/10/1
f 26/26/1 46/46/1 9/9/1
f 5/5/1 47/47/1 6/6/1
f 27/27/1 48/48/1 5/5/1
f 23/23/1 49/49/1 27/27/1
f 6/6/1 50/50/1 23/23/1
f 27/27/1 51/51/1 23/23/1
f 28/28/1 52/52/1 27/27/1
f 24/24/1 53/53/1 28/28/1
f 24/24/1 51/51/1 54/54/1
f 28/28/1 55/55/1 24/24/1
f 29/29/1 56/56/1 28/28/1
f 25/25/1 57/57/1 29/29/1
f 24/24/1 58/58/1 25/25/1
f 29/29/1 59/59/1 25/25/1
f 30/30/1 60/60/1 29/29/1
f 26/26/1 61/61/1 30/30/1
f 25/25/1 62/62/1 26/26/1
f 6/6/1 63/63/1 7/7/1
f 23/23/1 64/64/1 6/6/1
f 19/19/1 65/65/1 23/23/1
f 7/7/1 66/66/1 19/19/1
f 23/23/1 67/67/1 19/19/1
f 23/23/1 69/69/1 68/68/1
f 20/20/1 69/69/1 24/24/1
f 19/19/1 70/70/1 20/20/1
f 24/24/1 71/71/1 20/20/1
f 25/25/1 72/72/1 24/24/1
f 21/21/1 73/73/1 25/25/1
f 20/20/1 74/74/1 21/21/1
f 25/25/1 75/75/1 21/21/1
f 26/26/1 76/76/1 25/25/1
f 22/22/1 77/77/1 26/26/1
f 21/21/1 78/78/1 22/22/1
f 7/7/1 79/79/1 3/3/1
f 19/19/1 80/80/1 7/7/1
f 19/19/1 82/82/1 81/81/1
f 3/3/1 82/82/1 15/15/1
f 19/19/1 83/83/1 15/15/1
f 20/20/1 84/84/1 19/19/1
f 20/20/1 86/86/1 85/85/1
f 16/16/1 83/83/1 86/86/1
f 20/20/1 87/87/1 16/16/1
f 21/21/1 88/88/1 20/20/1
f 17/17/1 89/89/1 21/21/1
f 16/16/1 90/90/1 17/17/1
f 21/21/1 91/91/1 17/17/1
f 22/22/1 92/92/1 21/21/1
f 18/18/1 93/93/1 22/22/1
f 17/17/1 94/94/1 18/18/1
f 5/5/1 96/96/1 95/95/1
f 2/2/1 97/97/1 96/96/1
f 27/27/1 97/97/1 14/14/1
f 5/5/1 98/98/1 27/27/1
f 14/14/1 99/99/1 27/27/1
f 13/13/1 100/100/1 14/14/1
f 28/28/1 101/101/1 13/13/1
f 27/27/1 102/102/1 28/28/1
f 13/13/1 103/103/1 28/28/1
f 12/12/1 104/104/1 13/13/1
f 29/29/1 105/105/1 12/12/1
f 28/28/1 106/106/1 29/29/1
f 29/29/1 108/108/1 107/107/1
f 11/11/1 108/108/1 12/12/1
f 30/30/1 109/109/1 11/11/1
f 29/29/1 110/110/1 30/30/1
f 11/11/1 32/32/1 31/31/1
f 1/1/1 33/33/1 32/32/1
f 10/10/1 34/34/1 33/33/1
f 30/30/1 31/31/1 34/34/1
f 22/22/1 36/36/1 35/35/1
f 8/8/1 37/37/1 36/36/1
f 4/4/1 38/38/1 37/37/1
f 18/18/1 35/35/1 38/38/1
f 26/26/1 40/40/1 39/39/1
f 9/9/1 41/41/1 40/40/1
f 8/8/1 42/42/1 41/41/1
f 22/22/1 39/39/1 42/42/1
f 30/30/1 44/44/1 43/43/1
f 10/10/1 45/45/1 44/44/1
f 9/9/1 46/46/1 45/45/1
f 26/26/1 43/43/1 46/46/1
f 5/5/1 48/48/1 47/47/1
f 27/27/1 49/49/1 48/48/1
f 23/23/1 50/50/1 49/49/1
f 6/6/1 47/47/1 50/50/1
f 27/27/1 52/52/1 51/51/1
f 28/28/1 53/53/1 52/52/1
f 24/24/1 54/54/1 53/53/1
f 24/24/1 23/23/1 51/51/1
f 28/28/1 56/56/1 55/55/1
f 29/29/1 57/57/1 56/56/1
f 25/25/1 58/58/1 57/57/1
f 24/24/1 55/55/1 58/58/1
f 29/29/1 60/60/1 59/59/1
f 30/30/1 61/61/1 60/60/1
f 26/26/1 62/62/1 61/61/1
f 25/25/1 59/59/1 62/62/1
f 6/6/1 64/64/1 63/63/1
f 23/23/1 65/65/1 64/64/1
f 19/19/1 66/66/1 65/65/1
f 7/7/1 63/63/1 66/66/1
f 23/23/1 68/68/1 67/67/1
f 23/23/1 24/24/1 69/69/1
f 20/20/1 70/70/1 69/69/1
f 19/19/1 67/67/1 70/70/1
f 24/24/1 72/72/1 71/71/1
f 25/25/1 73/73/1 72/72/1
f 21/21/1 74/74/1 73/73/1
f 20/20/1 71/71/1 74/74/1
f 25/25/1 76/76/1 75/75/1
f 26/26/1 77/77/1 76/76/1
f 22/22/1 78/78/1 77/77/1
f 21/21/1 75/75/1 78/78/1
f 7/7/1 80/80/1 79/79/1
f 19/19/1 81/81/1 80/80/1
f 19/19/1 15/15/1 82/82/1
f 3/3/1 79/79/1 82/82/1
f 19/19/1 84/84/1 83/83/1
f 20/20/1 85/85/1 84/84/1
f 20/20/1 16/16/1 86/86/1
f 16/16/1 15/15/1 83/83/1
f 20/20/1 88/88/1 87/87/1
f 21/21/1 89/89/1 88/88/1
f 17/17/1 90/90/1 89/89/1
f 16/16/1 87/87/1 90/90/1
f 21/21/1 92/92/1 91/91/1
f 22/22/1 93/93/1 92/92/1
f 18/18/1 94/94/1 93/93/1
f 17/17/1 91/91/1 94/94/1
f 5/5/1 2/2/1 96/96/1
f 2/2/1 14/14/1 97/97/1
f 27/27/1 98/98/1 97/97/1
f 5/5/1 95/95/1 98/98/1
f 14/14/1 100/100/1 99/99/1
f 13/13/1 101/101/1 100/100/1
f 28/28/1 102/102/1 101/101/1
f 27/27/1 99/99/1 102/102/1
f 13/13/1 104/104/1 103/103/1
f 12/12/1 105/105/1 104/104/1
f 29/29/1 106/106/1 105/105/1
f 28/28/1 103/103/1 106/106/1
f 29/29/1 12/12/1 108/108/1
f 11/11/1 109/109/1 108/108/1
f 30/30/1 110/110/1 109/109/1
f 29/29/1 107/107/1 110/110/1
