# Blender 3.3.1
# www.blender.org
o ice_cubes
v -0.115747 -0.003213 0.048127
v -0.098758 0.001422 0.077258
v -0.107440 0.028234 0.058167
v 0.009232 0.059645 0.109915
v 0.033191 0.077086 0.093167
v 0.000550 0.086456 0.090824
v -0.097366 0.030560 -0.072868
v -0.089060 0.062007 -0.062828
v -0.073408 0.048002 -0.089616
v 0.051572 0.110860 -0.027828
v 0.034583 0.106224 -0.056959
v 0.018931 0.120230 -0.030171
v -0.051572 -0.110860 0.027828
v -0.018931 -0.120230 0.030171
v -0.034583 -0.106224 0.056959
v 0.097366 -0.030560 0.072868
v 0.073408 -0.048002 0.089616
v 0.089060 -0.062007 0.062828
v -0.033191 -0.077086 -0.093167
v -0.009232 -0.059645 -0.109915
v -0.000550 -0.086456 -0.090824
v 0.115747 0.003213 -0.048127
v 0.107440 -0.028234 -0.058167
v 0.098758 -0.001422 -0.077258
v -0.065876 -0.063087 0.163179
v -0.066214 -0.026868 0.171872
v -0.089066 -0.039907 0.145504
v -0.051399 0.091423 0.100536
v -0.045444 0.100057 0.064794
v -0.074252 0.078384 0.074169
v -0.049278 -0.135836 0.045990
v -0.072468 -0.112656 0.028316
v -0.043322 -0.127202 0.010248
v -0.028846 0.027308 -0.052394
v -0.028508 -0.008911 -0.061087
v -0.057654 0.005635 -0.043020
v 0.071259 -0.067061 0.185069
v 0.100067 -0.045388 0.175694
v 0.070921 -0.030842 0.193762
v 0.091691 0.096083 0.086684
v 0.085736 0.087449 0.122426
v 0.114882 0.072903 0.104359
v 0.087857 -0.139810 0.067880
v 0.093813 -0.131176 0.032138
v 0.116665 -0.118137 0.058506
v 0.108289 0.023334 -0.030504
v 0.131480 0.000154 -0.012829
v 0.108627 -0.012885 -0.039197
v -0.194782 -0.033781 0.100960
v -0.174968 -0.009512 0.106154
v -0.202742 -0.004499 0.091592
v -0.124419 0.073343 0.038264
v -0.125065 0.080491 0.007328
v -0.152192 0.078356 0.023703
v -0.248743 -0.078932 0.005677
v -0.256702 -0.049650 -0.003691
v -0.249389 -0.071784 -0.025258
v -0.179026 0.035340 -0.087954
v -0.198840 0.011071 -0.093148
v -0.206153 0.033205 -0.071580
v -0.102250 -0.105374 0.082483
v -0.075123 -0.103239 0.066109
v -0.082436 -0.081105 0.087677
v -0.032533 0.008898 -0.011149
v -0.031886 0.001750 0.019787
v -0.024573 -0.020384 -0.001780
v -0.156210 -0.150525 -0.012800
v -0.156857 -0.143377 -0.043735
v -0.129084 -0.148390 -0.029174
v -0.086493 -0.036254 -0.106432
v -0.078534 -0.065535 -0.097063
v -0.106307 -0.060522 -0.111625
vn -0.1448 -0.2660 0.9530
vn 0.5055 -0.8479 -0.1599
vn 0.8506 0.4586 0.2572
vn -0.5055 0.8479 0.1599
vn 0.1448 0.2660 -0.9530
vn -0.8665 0.0712 0.4940
vn 0.1157 0.6007 0.7911
vn -0.6993 0.3783 -0.6064
vn 0.2828 0.9079 -0.3094
vn -0.2828 -0.9079 0.3094
vn 0.6993 -0.3783 0.6064
vn -0.1157 -0.6007 -0.7911
vn 0.8665 -0.0712 -0.4940
vn -0.9589 0.2753 -0.0688
vn -0.4598 0.4114 0.7870
vn 0.2440 0.9238 0.2949
vn -0.2551 0.7877 -0.5608
vn -0.4991 -0.1362 -0.8558
vn 0.7038 0.5124 -0.4920
vn 0.4598 -0.4114 -0.7870
vn -0.2440 -0.9238 -0.2949
vn 0.9589 -0.2753 0.0688
vn 0.2551 -0.7877 0.5608
vn -0.7038 -0.5124 0.4920
vn 0.4991 0.1362 0.8558
vn -0.8506 -0.4586 -0.2572
vn -0.1195 0.5236 0.8435
vn 0.9871 -0.0286 0.1576
vn 0.1066 0.8515 -0.5135
vn -0.9871 0.0286 -0.1576
vn 0.1195 -0.5236 -0.8435
vn -0.7004 -0.1727 0.6925
vn -0.5773 0.8104 0.0996
vn -0.5625 -0.7774 -0.2815
vn -0.4394 0.2058 -0.8744
vn 0.4394 -0.2058 0.8744
vn 0.5625 0.7774 0.2815
vn 0.5773 -0.8104 -0.0996
vn 0.7004 0.1727 -0.6925
vn -0.7734 -0.5818 0.2517
vn -0.7825 0.3905 0.4850
vn -0.6226 0.6223 -0.4745
vn -0.6135 -0.3500 -0.7079
vn 0.0091 -0.9723 -0.2334
vn 0.1599 0.2318 -0.9595
vn 0.7825 -0.3905 -0.4850
vn 0.6226 -0.6223 0.4745
vn 0.7734 0.5818 -0.2517
vn 0.6135 0.3500 0.7079
vn -0.1599 -0.2318 0.9595
vn -0.0091 0.9723 0.2334
vn -0.1066 -0.8515 0.5135
vn 0.4556 0.3812 0.8044
vn 0.7812 -0.6044 -0.1560
vn 0.4268 0.6995 -0.5732
vn -0.7812 0.6044 0.1560
vn -0.4556 -0.3812 -0.8044
vn -0.4344 0.1652 0.8854
vn 0.0584 0.9729 0.2236
vn -0.9605 -0.2750 -0.0435
vn -0.4677 0.5328 -0.7053
vn 0.4677 -0.5328 0.7053
vn 0.9605 0.2750 0.0435
vn -0.0584 -0.9729 -0.2236
vn 0.4344 -0.1652 -0.8854
vn -0.8542 -0.0672 0.5156
vn -0.2303 0.6970 0.6791
vn -0.2506 0.9220 -0.2950
vn -0.8745 0.1579 -0.4585
vn -0.6239 -0.7642 -0.1635
vn -0.0204 0.2251 -0.9741
vn 0.2303 -0.6970 -0.6791
vn 0.2506 -0.9220 0.2950
vn 0.8542 0.0672 -0.5156
vn 0.8745 -0.1579 0.4585
vn 0.0204 -0.2251 0.9741
vn 0.6239 0.7642 0.1635
vn -0.4268 -0.6995 0.5732
vt 0.159366 0.715634
vt 0.409366 0.000000
vt 0.409366 0.965634
vt 0.159366 0.750000
vt 0.125000 0.715634
vt 0.409366 0.034366
vt 0.590634 0.000000
vt 0.590634 0.965634
vt 0.625000 0.034366
vt 0.840634 0.715634
vt 0.625000 0.965634
vt 0.590634 0.034366
vt 0.159366 0.534366
vt 0.125000 0.534366
vt 0.409366 0.215634
vt 0.409366 0.284366
vt 0.159366 0.500000
vt 0.625000 0.284366
vt 0.840634 0.534366
vt 0.625000 0.215634
vt 0.590634 0.250000
vt 0.590634 0.284366
vt 0.590634 0.215634
vt 0.340634 0.715634
vt 0.375000 0.715634
vt 0.409366 0.715634
vt 0.409366 0.784366
vt 0.340634 0.750000
vt 0.625000 0.784366
vt 0.659366 0.715634
vt 0.590634 0.784366
vt 0.590634 0.750000
vt 0.590634 0.715634
vt 0.340634 0.534366
vt 0.340634 0.500000
vt 0.409366 0.465634
vt 0.375000 0.534366
vt 0.409366 0.534366
vt 0.659366 0.534366
vt 0.625000 0.465634
vt 0.590634 0.500000
vt 0.590634 0.534366
vt 0.590634 0.465634
vt 0.159366 0.715634
vt 0.409366 0.000000
vt 0.159366 0.750000
vt 0.409366 0.965634
vt 0.125000 0.715634
vt 0.409366 0.034366
vt 0.590634 0.000000
vt 0.590634 0.965634
vt 0.840634 0.715634
vt 0.625000 0.034366
vt 0.625000 0.965634
vt 0.590634 0.034366
vt 0.159366 0.534366
vt 0.125000 0.534366
vt 0.409366 0.215634
vt 0.409366 0.284366
vt 0.159366 0.500000
vt 0.625000 0.284366
vt 0.840634 0.534366
vt 0.625000 0.215634
vt 0.590634 0.250000
vt 0.590634 0.284366
vt 0.590634 0.215634
vt 0.340634 0.715634
vt 0.375000 0.715634
vt 0.409366 0.715634
vt 0.409366 0.784366
vt 0.340634 0.750000
vt 0.625000 0.784366
vt 0.659366 0.715634
vt 0.590634 0.784366
vt 0.590634 0.750000
vt 0.590634 0.715634
vt 0.340634 0.534366
vt 0.340634 0.500000
vt 0.409366 0.465634
vt 0.375000 0.534366
vt 0.409366 0.534366
vt 0.625000 0.465634
vt 0.659366 0.534366
vt 0.590634 0.500000
vt 0.590634 0.534366
vt 0.590634 0.465634
vt 0.159366 0.715634
vt 0.409366 0.000000
vt 0.409366 0.965634
vt 0.159366 0.750000
vt 0.125000 0.715634
vt 0.409366 0.034366
vt 0.590634 0.000000
vt 0.590634 0.965634
vt 0.840634 0.715634
vt 0.625000 0.034366
vt 0.625000 0.965634
vt 0.590634 0.034366
vt 0.159366 0.534366
vt 0.125000 0.534366
vt 0.409366 0.215634
vt 0.409366 0.284366
vt 0.159366 0.500000
vt 0.625000 0.284366
vt 0.840634 0.534366
vt 0.625000 0.215634
vt 0.590634 0.250000
vt 0.590634 0.284366
vt 0.590634 0.215634
vt 0.340634 0.715634
vt 0.375000 0.715634
vt 0.409366 0.715634
vt 0.409366 0.784366
vt 0.340634 0.750000
vt 0.659366 0.715634
vt 0.625000 0.784366
vt 0.590634 0.784366
vt 0.590634 0.750000
vt 0.590634 0.715634
vt 0.340634 0.534366
vt 0.340634 0.500000
vt 0.409366 0.465634
vt 0.375000 0.534366
vt 0.409366 0.534366
vt 0.659366 0.534366
vt 0.625000 0.465634
vt 0.590634 0.500000
vt 0.590634 0.534366
vt 0.590634 0.465634
s 0
f 17/31/1 2/3/1 15/27/1
f 23/42/2 14/26/2 21/38/2
f 10/19/3 16/30/3 22/39/3
f 6/12/4 8/15/4 3/6/4
f 11/22/5 20/36/5 9/16/5
f 1/1/6 2/4/6 3/5/6
f 4/7/7 5/9/7 6/12/7
f 7/13/8 8/14/8 9/17/8
f 10/20/9 11/21/9 12/23/9
f 13/24/10 14/25/10 15/28/10
f 16/29/11 17/31/11 18/32/11
f 19/34/12 20/35/12 21/37/12
f 22/40/13 23/41/13 24/43/13
f 1/1/14 8/14/14 7/13/14
f 4/7/15 3/6/15 2/2/15
f 10/20/16 6/12/16 5/9/16
f 9/16/17 12/23/17 11/22/17
f 7/13/18 20/35/18 19/34/18
f 22/40/19 11/22/19 10/18/19
f 21/38/20 24/43/20 23/42/20
f 19/34/21 14/26/21 13/24/21
f 16/30/22 23/42/22 22/39/22
f 15/27/23 18/33/23 17/31/23
f 13/24/24 2/4/24 1/1/24
f 5/11/25 17/31/25 16/29/25
f 19/34/26 1/1/26 7/13/26
f 41/74/27 26/47/27 39/70/27
f 47/85/28 38/69/28 45/81/28
f 46/83/29 29/52/29 40/73/29
f 27/49/30 36/66/30 32/58/30
f 33/59/31 48/86/31 44/79/31
f 25/44/32 26/46/32 27/48/32
f 28/50/33 29/53/33 30/55/33
f 31/56/34 32/57/34 33/60/34
f 34/63/35 35/64/35 36/66/35
f 37/67/36 38/68/36 39/71/36
f 40/72/37 41/74/37 42/75/37
f 43/77/38 44/78/38 45/80/38
f 46/82/39 47/84/39 48/86/39
f 25/44/40 32/57/40 31/56/40
f 28/50/41 27/49/41 26/45/41
f 29/53/42 36/66/42 30/55/42
f 33/59/43 36/66/43 35/65/43
f 43/77/44 33/60/44 44/78/44
f 46/82/45 35/65/45 34/61/45
f 47/85/46 44/79/46 48/86/46
f 43/77/47 38/69/47 37/67/47
f 46/83/48 42/76/48 47/85/48
f 41/74/49 38/69/49 42/76/49
f 25/44/50 39/71/50 26/46/50
f 29/54/51 41/74/51 40/72/51
f 31/56/52 37/67/52 25/44/52
f 65/117/53 50/89/53 63/113/53
f 71/128/54 62/112/54 69/124/54
f 58/105/55 64/115/55 70/125/55
f 54/98/56 56/101/56 51/92/56
f 59/108/57 68/122/57 57/102/57
f 49/87/58 50/90/58 51/91/58
f 52/93/59 53/96/59 54/98/59
f 55/99/60 56/100/60 57/103/60
f 58/106/61 59/107/61 60/109/61
f 61/110/62 62/111/62 63/114/62
f 64/116/63 65/117/63 66/118/63
f 67/120/64 68/121/64 69/123/64
f 70/126/65 71/127/65 72/129/65
f 49/87/66 56/100/66 55/99/66
f 52/93/67 51/92/67 50/88/67
f 53/96/68 60/109/68 54/98/68
f 57/102/69 60/109/69 59/108/69
f 55/99/70 68/121/70 67/120/70
f 70/126/71 59/108/71 58/104/71
f 69/124/72 72/129/72 71/128/72
f 67/120/73 62/112/73 61/110/73
f 64/115/74 71/128/74 70/125/74
f 63/113/75 66/119/75 65/117/75
f 61/110/76 50/90/76 49/87/76
f 64/116/77 52/94/77 65/117/77
f 55/99/78 61/110/78 49/87/78
f 17/31/1 4/8/1 2/3/1
f 23/42/2 18/33/2 14/26/2
f 10/19/3 5/10/3 16/30/3
f 6/12/4 12/23/4 8/15/4
f 11/22/5 24/43/5 20/36/5
f 1/1/14 3/5/14 8/14/14
f 4/7/15 6/12/15 3/6/15
f 10/20/16 12/23/16 6/12/16
f 9/16/17 8/15/17 12/23/17
f 7/13/18 9/17/18 20/35/18
f 22/40/19 24/43/19 11/22/19
f 21/38/20 20/36/20 24/43/20
f 19/34/21 21/38/21 14/26/21
f 16/30/22 18/33/22 23/42/22
f 15/27/23 14/26/23 18/33/23
f 13/24/24 15/28/24 2/4/24
f 5/11/25 4/8/25 17/31/25
f 19/34/26 13/24/26 1/1/26
f 41/74/27 28/51/27 26/47/27
f 47/85/28 42/76/28 38/69/28
f 46/83/29 34/62/29 29/52/29
f 27/49/30 30/55/30 36/66/30
f 33/59/31 35/65/31 48/86/31
f 25/44/40 27/48/40 32/57/40
f 28/50/41 30/55/41 27/49/41
f 29/53/42 34/63/42 36/66/42
f 33/59/43 32/58/43 36/66/43
f 43/77/44 31/56/44 33/60/44
f 46/82/45 48/86/45 35/65/45
f 47/85/46 45/81/46 44/79/46
f 43/77/47 45/81/47 38/69/47
f 46/83/48 40/73/48 42/76/48
f 41/74/49 39/70/49 38/69/49
f 25/44/50 37/67/50 39/71/50
f 29/54/51 28/51/51 41/74/51
f 31/56/52 43/77/52 37/67/52
f 65/117/53 52/94/53 50/89/53
f 71/128/54 66/119/54 62/112/54
f 58/105/55 53/95/55 64/115/55
f 54/98/56 60/109/56 56/101/56
f 59/108/57 72/129/57 68/122/57
f 49/87/66 51/91/66 56/100/66
f 52/93/67 54/98/67 51/92/67
f 53/96/68 58/106/68 60/109/68
f 57/102/69 56/101/69 60/109/69
f 55/99/70 57/103/70 68/121/70
f 70/126/71 72/129/71 59/108/71
f 69/124/72 68/122/72 72/129/72
f 67/120/73 69/124/73 62/112/73
f 64/115/74 66/119/74 71/128/74
f 63/113/75 62/112/75 66/119/75
f 61/110/76 63/114/76 50/90/76
f 64/116/77 53/97/77 52/94/77
f 55/99/78 67/120/78 61/110/78
