# Blender 3.3.1
# www.blender.org
o door
v -1.453369 2.538170 -0.074821
v 1.453369 2.538170 -0.074821
v -1.222856 0.096813 0.074821
v -1.453369 -0.064512 0.062954
v -1.222856 2.376845 0.074821
v -1.453369 2.538170 0.062954
v -1.453369 0.096813 -0.074821
v -1.453369 -0.064512 -0.062954
v 1.222856 0.096813 0.074821
v 1.453369 -0.064512 0.062954
v 1.222856 2.376845 0.074821
v 1.453369 2.538170 0.062954
v 1.453369 -0.064512 -0.062954
v 1.453369 0.096813 -0.074821
v 0.467458 1.894980 0.368921
v 0.495054 1.894980 0.367501
v 0.467458 1.914292 0.367501
v 0.467458 1.761883 0.367501
v 0.495054 1.781196 0.367501
v 0.467458 1.781196 0.368921
v -0.415292 1.894980 0.052309
v -0.442888 1.894980 0.053730
v -0.415292 1.914292 0.053730
v -0.415292 1.761883 0.053730
v -0.442888 1.781196 0.053730
v -0.415292 1.781196 0.052309
v -0.442888 1.894980 0.367501
v -0.415292 1.894980 0.368921
v -0.415292 1.914292 0.367501
v -0.415292 1.761883 0.367501
v -0.415292 1.781196 0.368921
v -0.442888 1.781196 0.367501
v 0.467458 1.761883 0.053730
v 0.467458 1.781196 0.052309
v 0.495054 1.781196 0.053730
v 0.467458 1.914292 0.053730
v 0.495054 1.894980 0.053730
v 0.467458 1.894980 0.052309
v -0.309407 1.781196 0.368921
v -0.309407 1.761883 0.367501
v -0.254217 1.761883 0.367501
v -0.254217 1.781196 0.368921
v 0.361573 1.781196 0.368921
v 0.306382 1.781196 0.368921
v 0.306382 1.761883 0.367501
v 0.361573 1.761883 0.367501
v -0.309407 1.914292 0.053730
v -0.281812 1.894980 0.053730
v -0.309407 1.894980 0.052309
v 0.361573 1.914292 0.053730
v 0.361573 1.894980 0.052309
v 0.333978 1.894980 0.053730
v 0.361573 1.761883 0.053730
v 0.333978 1.781196 0.053730
v 0.361573 1.781196 0.052309
v -0.309407 1.761883 0.053730
v -0.309407 1.781196 0.052309
v -0.281812 1.781196 0.053730
v 0.361573 1.894980 0.368921
v 0.361573 1.914292 0.367501
v 0.306382 1.914292 0.367501
v 0.306382 1.894980 0.368921
v -0.309407 1.894980 0.368921
v -0.254217 1.894980 0.368921
v -0.254217 1.914292 0.367501
v -0.309407 1.914292 0.367501
v 0.495054 1.781196 0.209195
v 0.495054 1.781196 0.212036
v 0.467458 1.761883 0.212036
v 0.467458 1.761883 0.209195
v -0.442888 1.781196 0.212036
v -0.442888 1.781196 0.209195
v -0.415292 1.761883 0.209195
v -0.415292 1.761883 0.212036
v -0.442888 1.894980 0.209195
v -0.442888 1.894980 0.212036
v -0.415292 1.914292 0.212036
v -0.415292 1.914292 0.209195
v 0.495054 1.894980 0.212036
v 0.495054 1.894980 0.209195
v 0.467458 1.914292 0.209195
v 0.467458 1.914292 0.212036
v 0.306382 1.894980 0.210615
v 0.306382 1.914292 0.212036
v 0.361573 1.914292 0.212036
v 0.361573 1.914292 0.209195
v 0.333978 1.894980 0.209195
v -0.254217 1.894980 0.210615
v -0.281812 1.894980 0.209195
v -0.309407 1.914292 0.209195
v -0.309407 1.914292 0.212036
v -0.254217 1.914292 0.212036
v -0.254217 1.781196 0.210615
v -0.254217 1.761883 0.212036
v -0.309407 1.761883 0.212036
v -0.309407 1.761883 0.209195
v -0.281812 1.781196 0.209195
v 0.306382 1.781196 0.210615
v 0.333978 1.781196 0.209195
v 0.361573 1.761883 0.209195
v 0.361573 1.761883 0.212036
v 0.306382 1.761883 0.212036
vn -0.0000 -0.0000 1.0000
vn 1.0000 -0.0000 -0.0000
vn -0.0000 1.0000 -0.0000
vn -1.0000 -0.0000 -0.0000
vn -0.0000 -0.0000 -1.0000
vn -0.0514 -0.0000 0.9987
vn -0.0000 -0.0734 -0.9973
vn 0.0514 -0.0000 0.9987
vn -0.0000 -0.0734 0.9973
vn -0.0000 0.0734 0.9973
vn -0.0000 -1.0000 -0.0000
vn 0.0513 0.0733 0.9960
vn 0.0513 -0.0733 0.9960
vn -0.0513 0.0733 -0.9960
vn -0.0513 -0.0733 -0.9960
vn -0.0513 0.0733 0.9960
vn -0.0513 -0.0733 0.9960
vn 0.0513 -0.0733 -0.9960
vn 0.0513 0.0733 -0.9960
vn 0.5734 -0.8193 -0.0000
vn -0.5734 -0.8193 -0.0000
vn -0.5734 0.8193 -0.0000
vn 0.5734 0.8193 -0.0000
vn -0.0000 0.1456 -0.9894
vn -0.0000 -0.1455 -0.9894
vn -0.0000 0.0734 -0.9973
vn -0.0514 -0.0000 -0.9987
vn 0.0514 -0.0000 -0.9987
vt 0.875000 0.500000
vt 0.625000 0.250000
vt 0.625000 0.500000
vt 0.390496 0.980174
vt 0.375000 0.019826
vt 0.375000 1.000000
vt 0.125000 0.730174
vt 0.609504 0.980174
vt 0.875000 0.730174
vt 0.625000 0.019826
vt 0.625000 1.000000
vt 0.390496 0.250000
vt 0.125000 0.500000
vt 0.375000 0.230174
vt 0.125000 0.519826
vt 0.390496 0.769826
vt 0.375000 0.750000
vt 0.375000 0.730174
vt 0.609504 0.769826
vt 0.625000 0.750000
vt 0.625000 0.730174
vt 0.375000 0.519826
vt 0.390496 0.500000
vt 0.375000 0.500000
vt 0.593321 0.764277
vt 0.593321 0.750000
vt 0.593321 0.748878
vt 0.625000 0.764277
vt 0.639277 0.748878
vt 0.360723 0.748878
vt 0.375000 0.748878
vt 0.406679 0.748878
vt 0.360723 0.750000
vt 0.406679 0.764277
vt 0.593321 0.250000
vt 0.593321 0.264277
vt 0.593321 0.248878
vt 0.625000 0.264277
vt 0.860723 0.501122
vt 0.625000 0.248878
vt 0.139277 0.501122
vt 0.375000 0.248878
vt 0.375000 0.264277
vt 0.406679 0.248878
vt 0.406679 0.250000
vt 0.406679 0.264277
vt 0.593321 0.001122
vt 0.593321 0.000000
vt 0.593321 0.985723
vt 0.625000 0.001122
vt 0.860723 0.748878
vt 0.625000 0.985723
vt 0.139277 0.748878
vt 0.375000 0.001122
vt 0.406679 0.000000
vt 0.406679 0.985723
vt 0.139277 0.750000
vt 0.406679 0.001122
vt 0.360723 0.501122
vt 0.406679 0.485723
vt 0.360723 0.500000
vt 0.375000 0.501122
vt 0.406679 0.501122
vt 0.639277 0.501122
vt 0.625000 0.485723
vt 0.593321 0.500000
vt 0.593321 0.501122
vt 0.593321 0.485723
vt 0.194057 0.750000
vt 0.406679 0.930943
vt 0.194057 0.748878
vt 0.208333 0.748878
vt 0.212068 0.748878
vt 0.208333 0.750000
vt 0.212068 0.750000
vt 0.406679 0.912932
vt 0.291667 0.750000
vt 0.305943 0.750000
vt 0.406679 0.819057
vt 0.287932 0.750000
vt 0.406679 0.837068
vt 0.287932 0.748878
vt 0.291667 0.748878
vt 0.305943 0.748878
vt 0.805943 0.501122
vt 0.626496 0.335951
vt 0.625000 0.319057
vt 0.593321 0.333333
vt 0.573225 0.356597
vt 0.593321 0.319057
vt 0.625000 0.430943
vt 0.694057 0.501122
vt 0.625748 0.418536
vt 0.582762 0.427226
vt 0.593321 0.430943
vt 0.583273 0.428859
vt 0.305943 0.501122
vt 0.291667 0.501122
vt 0.334142 0.490799
vt 0.406679 0.430943
vt 0.305943 0.500000
vt 0.333905 0.489440
vt 0.375000 0.319057
vt 0.194057 0.501122
vt 0.406679 0.319057
vt 0.261604 0.480475
vt 0.406679 0.333333
vt 0.593321 0.833333
vt 0.593321 0.819057
vt 0.625000 0.833333
vt 0.625000 0.819057
vt 0.694057 0.748878
vt 0.625000 0.837068
vt 0.712068 0.748878
vt 0.593321 0.837068
vt 0.593321 0.930943
vt 0.593321 0.916667
vt 0.593321 0.912932
vt 0.625000 0.916667
vt 0.625000 0.912932
vt 0.787932 0.748878
vt 0.625000 0.930943
vt 0.805943 0.748878
vt 0.406679 0.623878
vt 0.406679 0.626122
vt 0.360723 0.626122
vt 0.360723 0.623878
vt 0.406679 0.123878
vt 0.406679 0.125000
vt 0.406679 0.126122
vt 0.375000 0.125000
vt 0.375000 0.126122
vt 0.139277 0.623878
vt 0.375000 0.123878
vt 0.139277 0.626122
vt 0.593321 0.125000
vt 0.593321 0.126122
vt 0.593321 0.123878
vt 0.860723 0.626122
vt 0.625000 0.123878
vt 0.625000 0.126122
vt 0.625000 0.125000
vt 0.860723 0.623878
vt 0.593321 0.626122
vt 0.593321 0.623878
vt 0.639277 0.623878
vt 0.639277 0.626122
vt 0.657137 0.625000
vt 0.712068 0.625000
vt 0.712068 0.626122
vt 0.708333 0.625000
vt 0.694057 0.626122
vt 0.708333 0.625000
vt 0.707586 0.623130
vt 0.694057 0.623878
vt 0.655535 0.625000
vt 0.655024 0.623367
vt 0.717749 0.625000
vt 0.716148 0.625000
vt 0.716727 0.622856
vt 0.790171 0.622383
vt 0.805943 0.623878
vt 0.791667 0.625000
vt 0.805943 0.626122
vt 0.791667 0.625000
vt 0.787932 0.626122
vt 0.283852 0.625000
vt 0.212068 0.626122
vt 0.194057 0.626122
vt 0.194057 0.623878
vt 0.281777 0.623405
vt 0.342863 0.625000
vt 0.344228 0.623642
vt 0.305943 0.623878
vt 0.305943 0.626122
vt 0.287932 0.626122
s 0
f 11/19/1 3/4/1 9/16/1
f 14/23/2 12/21/2 10/18/2
f 23/39/3 90/162/3 47/85/3
f 1/1/3 12/21/3 2/3/3
f 6/10/4 7/12/4 8/14/4
f 1/2/5 14/23/5 7/12/5
f 5/8/6 4/6/6 3/4/6
f 8/15/7 14/24/7 13/22/7
f 9/16/8 12/21/8 11/19/8
f 10/17/9 3/4/9 4/6/9
f 6/11/10 11/19/10 12/20/10
f 13/22/11 4/7/11 8/15/11
f 33/59/11 100/174/11 53/97/11
f 85/152/3 17/29/3 82/147/3
f 77/139/3 66/123/3 91/164/3
f 21/36/5 57/105/5 26/46/5
f 95/169/11 30/53/11 74/135/11
f 69/126/11 46/84/11 101/175/11
f 88/159/5 98/172/5 93/167/5
f 37/67/2 67/124/2 35/63/2
f 58/106/2 89/160/2 97/171/2
f 79/144/2 19/32/2 68/125/2
f 102/176/11 41/73/11 94/168/11
f 75/137/4 25/44/4 72/130/4
f 92/166/3 61/114/3 84/150/3
f 27/47/4 71/128/4 32/58/4
f 87/157/4 54/99/4 99/173/4
f 62/115/1 42/76/1 44/81/1
f 56/104/11 73/133/11 24/41/11
f 50/92/3 81/146/3 36/64/3
f 51/95/5 34/60/5 55/100/5
f 63/116/1 31/56/1 39/70/1
f 15/25/12 16/26/12 17/28/12
f 18/30/13 19/31/13 20/33/13
f 21/35/14 22/37/14 23/40/14
f 24/42/15 25/44/15 26/45/15
f 27/47/16 28/48/16 29/50/16
f 30/54/17 31/55/17 32/58/17
f 33/59/18 34/61/18 35/62/18
f 36/65/19 37/66/19 38/68/19
f 40/71/9 42/74/9 39/69/9
f 44/80/9 46/83/9 43/77/9
f 47/87/19 48/88/19 49/90/19
f 50/93/14 51/94/14 52/96/14
f 53/97/15 54/98/15 55/101/15
f 56/103/18 57/105/18 58/107/18
f 60/110/10 62/115/10 59/108/10
f 64/117/10 66/122/10 63/116/10
f 68/125/20 70/127/20 67/124/20
f 72/129/21 74/134/21 71/128/21
f 76/138/22 78/142/22 75/136/22
f 80/145/23 82/147/23 79/144/23
f 84/149/14 86/153/14 87/156/14
f 89/160/24 91/163/24 92/165/24
f 94/168/18 96/170/18 97/171/18
f 99/173/25 101/175/25 102/176/25
f 18/30/9 43/78/9 46/84/9
f 20/34/8 16/27/8 15/25/8
f 33/59/20 67/124/20 70/127/20
f 36/65/26 51/95/26 50/91/26
f 24/43/7 57/105/7 56/103/7
f 30/54/21 71/128/21 74/134/21
f 26/46/27 22/37/27 21/36/27
f 28/48/6 32/58/6 31/55/6
f 23/40/22 75/137/22 78/141/22
f 17/29/23 79/144/23 82/147/23
f 35/63/28 38/68/28 37/67/28
f 29/52/10 63/116/10 66/122/10
f 40/71/9 31/57/9 30/53/9
f 45/82/9 42/75/9 41/73/9
f 47/87/26 21/36/26 23/38/26
f 89/160/28 93/167/28 97/171/28
f 53/97/7 34/61/7 33/59/7
f 99/173/27 83/148/27 87/157/27
f 60/111/10 15/25/10 17/28/10
f 65/120/10 62/115/10 61/113/10
f 61/114/3 85/152/3 84/150/3
f 66/123/3 92/166/3 91/164/3
f 41/73/11 95/169/11 94/168/11
f 46/84/11 102/176/11 101/175/11
f 44/81/1 59/109/1 62/115/1
f 39/70/1 64/118/1 63/116/1
f 58/107/28 49/90/28 48/88/28
f 55/102/27 52/96/27 51/94/27
f 69/126/20 19/32/20 18/30/20
f 73/132/21 25/44/21 24/42/21
f 77/140/22 27/47/22 29/50/22
f 81/146/23 37/67/23 36/64/23
f 87/157/22 50/93/22 52/96/22
f 90/161/23 48/89/23 47/86/23
f 97/171/20 56/104/20 58/106/20
f 100/174/21 54/99/21 53/97/21
f 94/168/7 98/172/7 102/176/7
f 74/135/11 96/170/11 95/169/11
f 84/150/26 88/159/26 92/166/26
f 82/147/3 86/155/3 85/152/3
f 91/164/3 78/143/3 77/139/3
f 101/175/11 70/127/11 69/126/11
f 68/125/2 80/145/2 79/144/2
f 72/130/4 76/138/4 75/137/4
f 15/25/1 43/79/1 20/34/1
f 11/19/1 5/8/1 3/4/1
f 10/18/2 13/22/2 14/23/2
f 14/23/2 2/3/2 12/21/2
f 23/39/3 78/143/3 90/162/3
f 1/1/3 6/9/3 12/21/3
f 8/14/4 4/5/4 6/10/4
f 6/10/4 1/2/4 7/12/4
f 1/2/5 2/3/5 14/23/5
f 5/8/6 6/11/6 4/6/6
f 8/15/7 7/13/7 14/24/7
f 9/16/8 10/18/8 12/21/8
f 10/17/9 9/16/9 3/4/9
f 6/11/10 5/8/10 11/19/10
f 13/22/11 10/18/11 4/7/11
f 33/59/11 70/127/11 100/174/11
f 85/152/3 60/112/3 17/29/3
f 77/139/3 29/51/3 66/123/3
f 21/36/5 49/90/5 57/105/5
f 95/169/11 40/71/11 30/53/11
f 69/126/11 18/30/11 46/84/11
f 88/159/5 83/148/5 98/172/5
f 37/67/2 80/145/2 67/124/2
f 58/106/2 48/89/2 89/160/2
f 79/144/2 16/27/2 19/32/2
f 102/176/11 45/82/11 41/73/11
f 75/137/4 22/37/4 25/44/4
f 92/166/3 65/121/3 61/114/3
f 27/47/4 76/138/4 71/128/4
f 87/157/4 52/96/4 54/99/4
f 62/115/1 64/118/1 42/76/1
f 56/104/11 96/170/11 73/133/11
f 50/92/3 86/155/3 81/146/3
f 51/95/5 38/68/5 34/60/5
f 63/116/1 28/49/1 31/56/1
f 40/71/9 41/72/9 42/74/9
f 44/80/9 45/82/9 46/83/9
f 60/110/10 61/113/10 62/115/10
f 64/117/10 65/119/10 66/122/10
f 68/125/20 69/126/20 70/127/20
f 72/129/21 73/131/21 74/134/21
f 76/138/22 77/140/22 78/142/22
f 80/145/23 81/146/23 82/147/23
f 87/156/14 83/148/14 84/149/14
f 84/149/3 85/151/3 86/153/3
f 92/165/19 88/158/19 89/160/19
f 89/160/23 90/161/23 91/163/23
f 97/171/18 93/167/18 94/168/18
f 94/168/11 95/169/11 96/170/11
f 102/176/15 98/172/15 99/173/15
f 99/173/21 100/174/21 101/175/21
f 18/30/9 20/33/9 43/78/9
f 20/34/8 19/32/8 16/27/8
f 33/59/20 35/63/20 67/124/20
f 36/65/26 38/68/26 51/95/26
f 24/43/7 26/46/7 57/105/7
f 30/54/21 32/58/21 71/128/21
f 26/46/27 25/44/27 22/37/27
f 28/48/6 27/47/6 32/58/6
f 23/40/22 22/37/22 75/137/22
f 17/29/23 16/27/23 79/144/23
f 35/63/28 34/60/28 38/68/28
f 29/52/10 28/49/10 63/116/10
f 40/71/9 39/69/9 31/57/9
f 45/82/9 44/80/9 42/75/9
f 47/87/26 49/90/26 21/36/26
f 89/160/28 88/159/28 93/167/28
f 53/97/7 55/101/7 34/61/7
f 99/173/27 98/172/27 83/148/27
f 60/111/10 59/109/10 15/25/10
f 65/120/10 64/118/10 62/115/10
f 61/114/3 60/112/3 85/152/3
f 66/123/3 65/121/3 92/166/3
f 41/73/11 40/71/11 95/169/11
f 46/84/11 45/82/11 102/176/11
f 44/81/1 43/79/1 59/109/1
f 39/70/1 42/76/1 64/118/1
f 58/107/28 57/105/28 49/90/28
f 55/102/27 54/99/27 52/96/27
f 69/126/20 68/125/20 19/32/20
f 73/132/21 72/130/21 25/44/21
f 77/140/22 76/138/22 27/47/22
f 81/146/23 80/145/23 37/67/23
f 87/157/22 86/154/22 50/93/22
f 90/161/23 89/160/23 48/89/23
f 97/171/20 96/170/20 56/104/20
f 100/174/21 99/173/21 54/99/21
f 94/168/7 93/167/7 98/172/7
f 74/135/11 73/133/11 96/170/11
f 84/150/26 83/148/26 88/159/26
f 82/147/3 81/146/3 86/155/3
f 91/164/3 90/162/3 78/143/3
f 101/175/11 100/174/11 70/127/11
f 68/125/2 67/124/2 80/145/2
f 72/130/4 71/128/4 76/138/4
f 15/25/1 59/109/1 43/79/1
