# Blender 3.3.1
# www.blender.org
o juice
v -0.664070 0.216791 0.556192
v -0.664070 1.956540 0.556192
v -0.664070 0.216791 -0.089725
v -0.664070 1.956540 -0.089725
v 0.625528 0.216791 0.556192
v 0.625528 1.956540 0.556192
v 0.625528 0.216791 -0.089725
v 0.625528 1.956540 -0.089725
v -0.664070 1.956540 0.233233
v -0.019271 1.956540 -0.089725
v 0.625528 1.956540 0.233233
v -0.019271 1.956540 0.556192
v -0.019271 1.956540 0.233233
v -0.664070 1.956540 0.071754
v -0.341670 1.956540 0.556192
v -0.664070 1.956540 0.394712
v -0.341670 1.956540 -0.089725
v -0.019271 1.956540 0.394712
v -0.019271 1.956540 0.071754
v -0.341670 1.956540 0.071754
v -0.341670 1.956540 0.394712
v -0.664070 1.956540 0.313973
v -0.019271 1.956540 0.152494
v -0.362126 1.956541 0.233233
v -0.664070 1.956540 0.152494
v -0.019271 1.956540 0.313973
v -0.597076 1.956541 0.233233
v -0.479601 1.956541 0.118350
v -0.180470 1.956540 0.071754
v -0.502870 1.956540 0.071754
v -0.479601 1.956541 0.348116
v -0.180470 1.956540 0.394712
v -0.502870 1.956540 0.394712
v -0.562669 1.956541 0.314468
v -0.396533 1.956541 0.314468
v -0.396533 1.956541 0.151999
v -0.562669 1.956541 0.151999
v -0.588134 1.956541 0.277197
v -0.524557 1.956541 0.339371
v -0.371068 1.956541 0.277197
v -0.434645 1.956541 0.339371
v -0.371068 1.956541 0.189269
v -0.434645 1.956541 0.127095
v -0.588134 1.956541 0.189269
v -0.524557 1.956541 0.127095
v -0.523364 2.023996 0.233233
v -0.479601 2.023996 0.233233
v -0.479601 2.023996 0.177716
v -0.435838 2.023996 0.233233
v -0.362126 2.023996 0.233233
v -0.479601 2.023996 0.288751
v -0.479601 2.023996 0.348116
v -0.588134 2.023996 0.277197
v -0.562669 2.023996 0.314468
v -0.524557 2.023996 0.339371
v -0.371068 2.023996 0.277197
v -0.396533 2.023996 0.314468
v -0.434645 2.023996 0.339371
v -0.371068 2.023996 0.189269
v -0.434645 2.023996 0.127095
v -0.396533 2.023996 0.151999
v -0.588134 2.023996 0.189269
v -0.597076 2.023996 0.233233
v -0.524557 2.023996 0.127095
v -0.479601 2.023996 0.118350
v -0.562669 2.023996 0.151999
v -0.523364 2.023996 0.177716
v -0.435838 2.023996 0.288751
v -0.523364 2.023996 0.288751
v -0.435838 2.023996 0.177716
vn -1.0000 -0.0000 -0.0000
vn -0.0000 -0.0000 -1.0000
vn 1.0000 -0.0000 -0.0000
vn -0.0000 -0.0000 1.0000
vn -0.0000 -1.0000 -0.0000
vn -0.0000 1.0000 -0.0000
vn -0.5470 -0.0000 -0.8371
vn -0.9799 -0.0000 -0.1993
vn -0.8257 -0.0000 -0.5641
vn 0.5470 -0.0000 -0.8371
vn 0.1909 -0.0000 -0.9816
vn -0.1909 -0.0000 0.9816
vn 0.8257 -0.0000 -0.5641
vn -0.8257 -0.0000 0.5641
vn 0.1909 -0.0000 0.9816
vn 0.9799 -0.0000 -0.1993
vn 0.9799 -0.0000 0.1993
vn 0.5470 -0.0000 0.8371
vn -0.1909 -0.0000 -0.9816
vn -0.5470 -0.0000 0.8371
vn -0.9799 -0.0000 0.1993
vn 0.8257 -0.0000 0.5641
vt 0.375000 0.000000
vt 0.375000 1.000000
vt 0.125000 0.750000
vt 0.625000 0.000000
vt 0.625000 1.000000
vt 0.875000 0.750000
vt 0.125000 0.500000
vt 0.375000 0.250000
vt 0.625000 0.250000
vt 0.875000 0.500000
vt 0.375000 0.750000
vt 0.625000 0.750000
vt 0.375000 0.500000
vt 0.625000 0.500000
vt 0.625000 0.125000
vt 0.875000 0.625000
vt 0.625000 0.375000
vt 0.750000 0.500000
vt 0.625000 0.625000
vt 0.625000 0.875000
vt 0.750000 0.750000
vt 0.750000 0.625000
vt 0.625000 0.187500
vt 0.875000 0.562500
vt 0.625000 0.937500
vt 0.812500 0.750000
vt 0.625000 0.062500
vt 0.875000 0.687500
vt 0.625000 0.312500
vt 0.812500 0.500000
vt 0.750000 0.687500
vt 0.750000 0.562500
vt 0.812500 0.562500
vt 0.812500 0.687500
vt 0.625000 0.093750
vt 0.875000 0.656250
vt 0.750000 0.593750
vt 0.781250 0.625000
vt 0.625000 0.156250
vt 0.875000 0.593750
vt 0.750000 0.656250
vt 0.843750 0.625000
vt 0.812500 0.593750
vt 0.781250 0.562500
vt 0.843750 0.562500
vt 0.812500 0.656250
vt 0.781250 0.687500
vt 0.843750 0.687500
vt 0.843750 0.656250
vt 0.781250 0.656250
vt 0.781250 0.593750
vt 0.843750 0.593750
vt 0.843750 0.640625
vt 0.828125 0.656250
vt 0.781250 0.640625
vt 0.796875 0.656250
vt 0.781250 0.609375
vt 0.796875 0.593750
vt 0.843750 0.609375
vt 0.828125 0.593750
vt 0.828125 0.625000
vt 0.812500 0.625000
vt 0.812500 0.609375
vt 0.796875 0.625000
vt 0.781250 0.625000
vt 0.812500 0.640625
vt 0.812500 0.656250
vt 0.843750 0.640625
vt 0.843750 0.656250
vt 0.828125 0.656250
vt 0.781250 0.640625
vt 0.781250 0.656250
vt 0.796875 0.656250
vt 0.781250 0.609375
vt 0.796875 0.593750
vt 0.781250 0.593750
vt 0.843750 0.609375
vt 0.843750 0.625000
vt 0.828125 0.593750
vt 0.812500 0.593750
vt 0.843750 0.593750
vt 0.828125 0.609375
vt 0.796875 0.640625
vt 0.828125 0.640625
vt 0.796875 0.609375
s 0
f 16/27/1 25/39/1 3/8/1
f 17/29/2 8/14/2 7/13/2
f 8/14/3 11/19/3 5/11/3
f 12/20/4 2/5/4 1/2/4
f 7/13/5 1/3/5 3/7/5
f 33/48/6 2/6/6 15/26/6
f 13/22/6 18/31/6 6/12/6
f 10/18/6 23/37/6 11/19/6
f 25/40/6 27/42/6 44/59/6
f 37/52/7 64/79/7 45/60/7
f 17/30/6 29/44/6 19/32/6
f 4/10/6 30/45/6 20/33/6
f 32/47/6 15/26/6 12/21/6
f 41/56/6 21/34/6 32/47/6
f 34/49/6 16/28/6 33/48/6
f 39/54/6 33/48/6 21/34/6
f 27/42/8 62/77/8 44/59/8
f 9/16/6 34/49/6 38/53/6
f 26/41/6 32/47/6 18/31/6
f 24/38/6 40/55/6 26/41/6
f 44/59/9 66/81/9 37/52/9
f 36/51/6 42/57/6 13/22/6
f 29/44/6 23/37/6 19/32/6
f 20/33/6 43/58/6 36/51/6
f 43/58/10 61/76/10 36/51/10
f 30/45/6 45/60/6 28/43/6
f 14/24/6 37/52/6 30/45/6
f 28/43/11 60/75/11 43/58/11
f 31/46/12 55/70/12 39/54/12
f 36/51/13 59/74/13 42/57/13
f 34/49/14 53/68/14 38/53/14
f 41/56/15 52/67/15 31/46/15
f 42/57/16 50/65/16 24/38/16
f 24/38/17 56/71/17 40/55/17
f 35/50/18 58/73/18 41/56/18
f 45/60/19 65/80/19 28/43/19
f 39/54/20 54/69/20 34/49/20
f 38/53/21 63/78/21 27/42/21
f 40/55/22 57/72/22 35/50/22
f 48/63/6 49/64/6 70/85/6
f 69/84/6 54/69/6 55/70/6
f 51/66/6 58/73/6 68/83/6
f 62/77/6 46/61/6 67/82/6
f 67/82/6 47/62/6 48/63/6
f 64/79/6 48/63/6 65/80/6
f 66/81/6 67/82/6 64/79/6
f 68/83/6 57/72/6 56/71/6
f 49/64/6 56/71/6 50/65/6
f 47/62/6 68/83/6 49/64/6
f 51/66/6 55/70/6 52/67/6
f 46/61/6 51/66/6 47/62/6
f 46/61/6 53/68/6 69/84/6
f 59/74/6 49/64/6 50/65/6
f 61/76/6 70/85/6 59/74/6
f 60/75/6 48/63/6 70/85/6
f 3/8/1 1/1/1 2/4/1
f 16/27/6 22/35/6 9/15/6
f 3/8/1 2/4/1 16/27/1
f 14/23/1 4/9/1 3/8/1
f 16/27/3 9/15/3 25/39/3
f 25/39/1 14/23/1 3/8/1
f 7/13/2 3/8/2 4/9/2
f 17/29/6 10/17/6 8/14/6
f 7/13/2 4/9/2 17/29/2
f 5/11/3 7/13/3 8/14/3
f 11/19/3 6/12/3 5/11/3
f 1/2/4 5/11/4 6/12/4
f 12/20/6 15/25/6 2/5/6
f 1/2/4 6/12/4 12/20/4
f 7/13/5 5/11/5 1/3/5
f 15/26/6 21/34/6 33/48/6
f 33/48/6 16/28/6 2/6/6
f 6/12/6 11/19/6 13/22/6
f 13/22/6 26/41/6 18/31/6
f 18/31/6 12/21/6 6/12/6
f 11/19/6 8/14/6 10/18/6
f 10/18/1 19/32/1 23/37/1
f 23/37/6 13/22/6 11/19/6
f 44/59/6 37/52/6 25/40/6
f 25/40/6 9/16/6 27/42/6
f 37/52/7 66/81/7 64/79/7
f 19/32/6 10/18/6 17/30/6
f 17/30/6 20/33/6 29/44/6
f 20/33/6 17/30/6 4/10/6
f 4/10/6 14/24/6 30/45/6
f 12/21/6 18/31/6 32/47/6
f 32/47/6 21/34/6 15/26/6
f 32/47/6 35/50/6 41/56/6
f 41/56/6 31/46/6 21/34/6
f 34/49/6 22/36/6 16/28/6
f 21/34/6 31/46/6 39/54/6
f 39/54/6 34/49/6 33/48/6
f 27/42/8 63/78/8 62/77/8
f 38/53/6 27/42/6 9/16/6
f 9/16/6 22/36/6 34/49/6
f 26/41/6 35/50/6 32/47/6
f 26/41/6 13/22/6 24/38/6
f 40/55/6 35/50/6 26/41/6
f 44/59/9 62/77/9 66/81/9
f 13/22/6 23/37/6 36/51/6
f 42/57/6 24/38/6 13/22/6
f 29/44/6 36/51/6 23/37/6
f 36/51/6 29/44/6 20/33/6
f 20/33/6 28/43/6 43/58/6
f 43/58/10 60/75/10 61/76/10
f 28/43/6 20/33/6 30/45/6
f 30/45/6 37/52/6 45/60/6
f 14/24/6 25/40/6 37/52/6
f 28/43/11 65/80/11 60/75/11
f 31/46/12 52/67/12 55/70/12
f 36/51/13 61/76/13 59/74/13
f 34/49/14 54/69/14 53/68/14
f 41/56/15 58/73/15 52/67/15
f 42/57/16 59/74/16 50/65/16
f 24/38/17 50/65/17 56/71/17
f 35/50/18 57/72/18 58/73/18
f 45/60/19 64/79/19 65/80/19
f 39/54/20 55/70/20 54/69/20
f 38/53/21 53/68/21 63/78/21
f 40/55/22 56/71/22 57/72/22
f 48/63/6 47/62/6 49/64/6
f 69/84/6 53/68/6 54/69/6
f 51/66/6 52/67/6 58/73/6
f 62/77/6 63/78/6 46/61/6
f 67/82/6 46/61/6 47/62/6
f 64/79/6 67/82/6 48/63/6
f 66/81/6 62/77/6 67/82/6
f 68/83/6 58/73/6 57/72/6
f 49/64/6 68/83/6 56/71/6
f 47/62/6 51/66/6 68/83/6
f 51/66/6 69/84/6 55/70/6
f 46/61/6 69/84/6 51/66/6
f 46/61/6 63/78/6 53/68/6
f 59/74/6 70/85/6 49/64/6
f 61/76/6 60/75/6 70/85/6
f 60/75/6 65/80/6 48/63/6
