# Blender 3.3.1
# www.blender.org
o lemon
v 0.000000 -0.019581 -0.227420
v 0.000000 0.019581 -0.227420
v 0.044367 -0.019581 -0.223050
v 0.044367 0.019581 -0.223050
v 0.087030 -0.019581 -0.210108
v 0.087030 0.019581 -0.210108
v 0.126348 -0.019581 -0.189093
v 0.126348 0.019581 -0.189093
v 0.160810 -0.019581 -0.160810
v 0.160810 0.019581 -0.160810
v 0.189093 -0.019581 -0.126348
v 0.189093 0.019581 -0.126348
v 0.210108 -0.019581 -0.087030
v 0.210108 0.019581 -0.087030
v 0.223050 -0.019581 -0.044367
v 0.223050 0.019581 -0.044367
v 0.227420 -0.019581 -0.000000
v 0.227420 0.019581 -0.000000
v 0.223050 -0.019581 0.044367
v 0.223050 0.019581 0.044367
v 0.210108 -0.019581 0.087030
v 0.210108 0.019581 0.087030
v 0.189093 -0.019581 0.126348
v 0.189093 0.019581 0.126348
v 0.160810 -0.019581 0.160810
v 0.160810 0.019581 0.160810
v 0.126348 -0.019581 0.189093
v 0.126348 0.019581 0.189093
v 0.087030 -0.019581 0.210108
v 0.087030 0.019581 0.210108
v 0.044367 -0.019581 0.223050
v 0.044367 0.019581 0.223050
v 0.000000 -0.019581 0.227420
v 0.000000 0.019581 0.227420
vn 0.0980 -0.0000 -0.9952
vn 0.2903 -0.0000 -0.9569
vn 0.4714 -0.0000 -0.8819
vn 0.6344 -0.0000 -0.7730
vn 0.7730 -0.0000 -0.6344
vn 0.8819 -0.0000 -0.4714
vn 0.9569 -0.0000 -0.2903
vn 0.9952 -0.0000 -0.0980
vn 0.9952 -0.0000 0.0980
vn 0.9569 -0.0000 0.2903
vn 0.8819 -0.0000 0.4714
vn 0.7730 -0.0000 0.6344
vn 0.6344 -0.0000 0.7730
vn 0.4714 -0.0000 0.8819
vn 0.2903 -0.0000 0.9569
vn 0.0980 -0.0000 0.9952
vn -0.0000 1.0000 -0.0000
vn -0.0000 -1.0000 -0.0000
vn -1.0000 -0.0000 -0.0000
vt 1.000000 0.500000
vt 0.750000 0.490000
vt 1.000000 1.000000
vt 0.250000 0.490000
vt 0.968750 0.500000
vt 0.796822 0.485388
vt 0.968750 1.000000
vt 0.296822 0.485388
vt 0.937500 0.500000
vt 0.841844 0.471731
vt 0.937500 1.000000
vt 0.341844 0.471731
vt 0.906250 0.500000
vt 0.883337 0.449553
vt 0.906250 1.000000
vt 0.383337 0.449553
vt 0.875000 0.500000
vt 0.919706 0.419706
vt 0.875000 1.000000
vt 0.419706 0.419706
vt 0.843750 0.500000
vt 0.949553 0.383337
vt 0.843750 1.000000
vt 0.449553 0.383337
vt 0.812500 0.500000
vt 0.971731 0.341844
vt 0.812500 1.000000
vt 0.471731 0.341844
vt 0.781250 0.500000
vt 0.985388 0.296822
vt 0.781250 1.000000
vt 0.485388 0.296822
vt 0.750000 0.500000
vt 0.990000 0.250000
vt 0.750000 1.000000
vt 0.490000 0.250000
vt 0.718750 0.500000
vt 0.985388 0.203178
vt 0.718750 1.000000
vt 0.485388 0.203178
vt 0.687500 0.500000
vt 0.971731 0.158156
vt 0.687500 1.000000
vt 0.471731 0.158156
vt 0.656250 0.500000
vt 0.949553 0.116663
vt 0.656250 1.000000
vt 0.449553 0.116663
vt 0.625000 0.500000
vt 0.919706 0.080294
vt 0.625000 1.000000
vt 0.419706 0.080294
vt 0.593750 0.500000
vt 0.883337 0.050447
vt 0.593750 1.000000
vt 0.383337 0.050447
vt 0.562500 0.500000
vt 0.841844 0.028269
vt 0.562500 1.000000
vt 0.341844 0.028269
vt 0.531250 0.500000
vt 0.796822 0.014612
vt 0.531250 1.000000
vt 0.296822 0.014612
vt 0.500000 0.500000
vt 0.750000 0.010000
vt 0.250000 0.010000
vt 0.500000 1.000000
s 0
f 2/3/1 3/5/1 1/1/1
f 4/7/2 5/9/2 3/5/2
f 6/11/3 7/13/3 5/9/3
f 8/15/4 9/17/4 7/13/4
f 10/19/5 11/21/5 9/17/5
f 12/23/6 13/25/6 11/21/6
f 14/27/7 15/29/7 13/25/7
f 16/31/8 17/33/8 15/29/8
f 18/35/9 19/37/9 17/33/9
f 20/39/10 21/41/10 19/37/10
f 22/43/11 23/45/11 21/41/11
f 24/47/12 25/49/12 23/45/12
f 26/51/13 27/53/13 25/49/13
f 28/55/14 29/57/14 27/53/14
f 30/59/15 31/61/15 29/57/15
f 32/63/16 33/65/16 31/61/16
f 2/4/17 20/40/17 12/24/17
f 1/2/18 17/34/18 25/50/18
f 33/66/19 2/4/19 1/2/19
f 2/3/1 4/7/1 3/5/1
f 4/7/2 6/11/2 5/9/2
f 6/11/3 8/15/3 7/13/3
f 8/15/4 10/19/4 9/17/4
f 10/19/5 12/23/5 11/21/5
f 12/23/6 14/27/6 13/25/6
f 14/27/7 16/31/7 15/29/7
f 16/31/8 18/35/8 17/33/8
f 18/35/9 20/39/9 19/37/9
f 20/39/10 22/43/10 21/41/10
f 22/43/11 24/47/11 23/45/11
f 24/47/12 26/51/12 25/49/12
f 26/51/13 28/55/13 27/53/13
f 28/55/14 30/59/14 29/57/14
f 30/59/15 32/63/15 31/61/15
f 32/63/16 34/68/16 33/65/16
f 6/12/17 4/8/17 2/4/17
f 2/4/17 34/67/17 32/64/17
f 32/64/17 30/60/17 28/56/17
f 28/56/17 26/52/17 24/48/17
f 24/48/17 22/44/17 20/40/17
f 20/40/17 18/36/17 16/32/17
f 16/32/17 14/28/17 12/24/17
f 12/24/17 10/20/17 8/16/17
f 8/16/17 6/12/17 2/4/17
f 2/4/17 32/64/17 28/56/17
f 28/56/17 24/48/17 20/40/17
f 20/40/17 16/32/17 12/24/17
f 12/24/17 8/16/17 2/4/17
f 2/4/17 28/56/17 20/40/17
f 31/62/18 33/66/18 1/2/18
f 1/2/18 3/6/18 5/10/18
f 5/10/18 7/14/18 9/18/18
f 9/18/18 11/22/18 13/26/18
f 13/26/18 15/30/18 17/34/18
f 17/34/18 19/38/18 21/42/18
f 21/42/18 23/46/18 25/50/18
f 25/50/18 27/54/18 29/58/18
f 29/58/18 31/62/18 1/2/18
f 1/2/18 5/10/18 9/18/18
f 9/18/18 13/26/18 17/34/18
f 17/34/18 21/42/18 25/50/18
f 25/50/18 29/58/18 1/2/18
f 1/2/18 9/18/18 17/34/18
f 33/66/19 34/68/19 2/4/19
