# Blender 3.3.1
# www.blender.org
o Cube
v -0.147820 0.405436 -0.919490
v -0.147820 0.306662 -0.884034
v 0.918469 0.405436 0.123184
v 0.859397 0.306662 0.123184
v -0.147820 0.306662 0.123184
v -0.147820 0.405436 0.123184
v -0.573904 0.399353 -0.775499
v 0.355789 0.306662 -0.884034
v 0.859397 0.405436 -0.380425
v 0.750862 0.312744 0.549267
v 0.355789 0.405436 -0.884034
v -0.573904 0.312744 -0.775499
v 0.750862 0.399353 0.549267
v 0.859397 0.306662 -0.380425
v -0.147820 0.306662 0.626792
v -0.147820 0.306662 -0.380425
v 0.355789 0.306662 0.123184
v -0.651429 0.306662 0.123184
v -0.147820 0.405436 0.626792
v -0.147820 0.405436 -0.380425
v -0.651429 0.405436 0.123184
v 0.355789 0.405436 0.123184
v 0.355789 0.405436 -0.380425
v -0.651429 0.405436 -0.380425
v -0.651429 0.405436 0.626792
v -0.651429 0.306662 -0.380425
v 0.355789 0.306662 -0.380425
v 0.355789 0.306662 0.626792
v -0.651429 0.306662 0.626792
v 0.355789 0.405436 0.626792
v 0.530068 0.312744 -0.775499
v 0.750862 0.399353 -0.554704
v 0.103984 0.405436 -0.919490
v -0.399625 0.306662 -0.884034
v 0.859397 0.405436 0.374988
v 0.859397 0.306662 -0.128621
v -0.147820 0.306662 0.878597
v -0.147820 0.306662 -0.128621
v 0.607593 0.306662 0.123184
v -0.399625 0.306662 0.123184
v -0.147820 0.405436 0.905529
v -0.147820 0.405436 -0.128621
v -0.903233 0.405436 0.123184
v 0.103984 0.405436 0.123184
v -0.399625 0.405436 -0.884034
v 0.103984 0.306662 -0.884034
v 0.918469 0.405436 -0.128621
v 0.859397 0.306662 0.374988
v 0.530068 0.399353 -0.775499
v 0.750862 0.312744 -0.554704
v -0.147820 0.306662 0.374988
v -0.147820 0.306662 -0.632230
v 0.103984 0.306662 0.123184
v -0.903233 0.306662 0.123184
v -0.147820 0.405436 0.374988
v -0.147820 0.405436 -0.632230
v -0.399625 0.405436 0.123184
v 0.607593 0.405436 0.123184
v 0.355789 0.405436 -0.128621
v 0.355789 0.405436 -0.632230
v 0.103984 0.405436 -0.380425
v 0.607593 0.405436 -0.380425
v -0.651429 0.405436 -0.128621
v -0.651429 0.405436 -0.632230
v -0.903233 0.405436 -0.380425
v -0.399625 0.405436 -0.380425
v -0.573904 0.399353 0.770061
v -0.651429 0.405436 0.374988
v -0.794698 0.399353 0.549267
v -0.399625 0.405436 0.626792
v -0.651429 0.306662 -0.128621
v -0.651429 0.306662 -0.632230
v -0.399625 0.306662 -0.380425
v -0.903233 0.306662 -0.380425
v 0.355789 0.306662 -0.128621
v 0.355789 0.306662 -0.632230
v 0.607593 0.306662 -0.380425
v 0.103984 0.306662 -0.380425
v 0.355789 0.306662 0.878597
v 0.355789 0.306662 0.374988
v 0.607593 0.306662 0.626792
v 0.103984 0.306662 0.626792
v -0.573904 0.312744 0.770061
v -0.651429 0.306662 0.374988
v -0.399625 0.306662 0.626792
v -0.794698 0.312744 0.549267
v 0.355789 0.405436 0.878597
v 0.355789 0.405436 0.374988
v 0.103984 0.405436 0.626792
v 0.607593 0.405436 0.626792
v 0.607593 0.405436 0.374988
v 0.103984 0.405436 0.374988
v 0.103984 0.405436 0.905529
v -0.903233 0.306662 0.374988
v -0.399625 0.306662 0.374988
v -0.399625 0.306662 0.878597
v 0.103984 0.306662 0.374988
v 0.607593 0.306662 0.374988
v 0.530068 0.312744 0.770061
v 0.103984 0.306662 -0.632230
v 0.607593 0.306662 -0.632230
v 0.607593 0.306662 -0.128621
v -0.794698 0.312744 -0.554704
v -0.399625 0.306662 -0.632230
v -0.399625 0.306662 -0.128621
v -0.399625 0.405436 0.374988
v -0.903233 0.405436 0.374988
v -0.399625 0.405436 -0.632230
v -0.794698 0.399353 -0.554704
v -0.903233 0.405436 -0.128621
v 0.607593 0.405436 -0.632230
v 0.103984 0.405436 -0.632230
v 0.103984 0.405436 -0.128621
v 0.607593 0.405436 -0.128621
v -0.399625 0.405436 -0.128621
v -0.399625 0.405436 0.878597
v -0.903233 0.306662 -0.128621
v 0.103984 0.306662 -0.128621
v 0.103984 0.306662 0.878597
v 0.530068 0.399353 0.770061
v 0.000000 0.423652 -0.905595
v 0.000000 -0.003134 -1.000000
v 0.176673 0.423652 -0.888194
v 0.195090 -0.003134 -0.980785
v 0.346556 0.423652 -0.836661
v 0.382683 -0.003134 -0.923880
v 0.503122 0.423652 -0.752975
v 0.555570 -0.003134 -0.831470
v 0.640352 0.423652 -0.640352
v 0.707107 -0.003134 -0.707107
v 0.752975 0.423652 -0.503122
v 0.831470 -0.003134 -0.555570
v 0.836661 0.423652 -0.346556
v 0.923880 -0.003134 -0.382683
v 0.888194 0.423652 -0.176673
v 0.980785 -0.003134 -0.195090
v 0.905595 0.423652 0.000000
v 1.000000 -0.003134 0.000000
v 0.888194 0.423652 0.176673
v 0.980785 -0.003134 0.195090
v 0.836661 0.423652 0.346556
v 0.923880 -0.003134 0.382683
v 0.752975 0.423652 0.503122
v 0.831470 -0.003134 0.555570
v 0.640352 0.423652 0.640352
v 0.707107 -0.003134 0.707107
v 0.503122 0.423652 0.752975
v 0.555570 -0.003134 0.831470
v 0.346556 0.423652 0.836661
v 0.382683 -0.003134 0.923880
v 0.176673 0.423652 0.888194
v 0.195090 -0.003134 0.980785
v 0.000000 0.423652 0.905595
v 0.000000 -0.003134 1.000000
v -0.176673 0.423652 0.888194
v -0.195090 -0.003134 0.980785
v -0.346556 0.423652 0.836661
v -0.382683 -0.003134 0.923880
v -0.503122 0.423652 0.752975
v -0.555570 -0.003134 0.831470
v -0.640352 0.423652 0.640352
v -0.707107 -0.003134 0.707107
v -0.752975 0.423652 0.503122
v -0.831470 -0.003134 0.555570
v -0.836661 0.423652 0.346556
v -0.923880 -0.003134 0.382683
v -0.888194 0.423652 0.176673
v -0.980785 -0.003134 0.195090
v -0.905595 0.423652 0.000000
v -1.000000 -0.003134 0.000000
v -0.888194 0.423652 -0.176673
v -0.980785 -0.003134 -0.195090
v -0.836661 0.423652 -0.346556
v -0.923880 -0.003134 -0.382683
v -0.752975 0.423652 -0.503122
v -0.831470 -0.003134 -0.555570
v -0.640352 0.423652 -0.640352
v -0.707107 -0.003134 -0.707107
v -0.503122 0.423652 -0.752975
v -0.555570 -0.003134 -0.831470
v -0.346556 0.423652 -0.836661
v -0.382683 -0.003134 -0.923880
v -0.176673 0.423652 -0.888194
v -0.195090 -0.003134 -0.980785
v 0.000000 0.423652 -1.000000
v 0.195090 0.423652 -0.980785
v 0.382683 0.423652 -0.923880
v 0.555570 0.423652 -0.831470
v 0.707107 0.423652 -0.707107
v 0.831470 0.423652 -0.555570
v 0.923880 0.423652 -0.382683
v 0.980785 0.423652 -0.195090
v 1.000000 0.423652 0.000000
v 0.980785 0.423652 0.195090
v 0.923880 0.423652 0.382683
v 0.831470 0.423652 0.555570
v 0.707107 0.423652 0.707107
v 0.555570 0.423652 0.831470
v 0.382683 0.423652 0.923880
v 0.195090 0.423652 0.980785
v 0.000000 0.423652 1.000000
v -0.195090 0.423652 0.980785
v -0.382683 0.423652 0.923880
v -0.555570 0.423652 0.831470
v -0.707107 0.423652 0.707107
v -0.831470 0.423652 0.555570
v -0.923880 0.423652 0.382683
v -0.980785 0.423652 0.195090
v -1.000000 0.423652 0.000000
v -0.980785 0.423652 -0.195090
v -0.923880 0.423652 -0.382683
v -0.831470 0.423652 -0.555570
v -0.707107 0.423652 -0.707107
v -0.555570 0.423652 -0.831470
v -0.382683 0.423652 -0.923880
v -0.195090 0.423652 -0.980785
v -0.000000 0.361396 -0.905595
v 0.176673 0.361396 -0.888194
v 0.346556 0.361396 -0.836661
v 0.503122 0.361396 -0.752975
v 0.640352 0.361396 -0.640352
v 0.752975 0.361396 -0.503122
v 0.836661 0.361396 -0.346556
v 0.888194 0.361396 -0.176673
v 0.905595 0.361396 0.000000
v 0.888194 0.361396 0.176673
v 0.836661 0.361396 0.346556
v 0.752975 0.361396 0.503122
v 0.640352 0.361396 0.640352
v 0.503122 0.361396 0.752975
v 0.346556 0.361396 0.836661
v 0.176673 0.361396 0.888194
v -0.000000 0.361396 0.905595
v -0.176673 0.361396 0.888194
v -0.346556 0.361396 0.836661
v -0.503122 0.361396 0.752975
v -0.640352 0.361396 0.640352
v -0.752975 0.361396 0.503122
v -0.836661 0.361396 0.346556
v -0.888194 0.361396 0.176673
v -0.905595 0.361396 0.000000
v -0.888194 0.361396 -0.176673
v -0.836661 0.361396 -0.346556
v -0.752975 0.361396 -0.503122
v -0.640352 0.361396 -0.640352
v -0.503122 0.361396 -0.752975
v -0.346556 0.361396 -0.836661
v -0.176673 0.361396 -0.888194
vn -0.0000 1.0000 -0.0000
vn -0.0000 -1.0000 -0.0000
vn -0.0424 -0.9991 -0.0000
vn -0.0000 -0.9994 0.0349
vn -0.0000 -0.9994 -0.0349
vn 0.0424 0.9991 -0.0000
vn 0.0349 0.9994 -0.0000
vn -0.0000 0.9994 -0.0349
vn -0.0000 0.9991 -0.0424
vn -0.0000 0.9994 0.0349
vn -0.0000 0.9991 0.0424
vn -0.0000 -0.9991 0.0424
vn -0.0349 -0.9994 -0.0000
vn -0.0000 -0.9991 -0.0424
vn 0.5286 -0.0000 -0.8488
vn 1.0000 -0.0000 -0.0000
vn -1.0000 -0.0000 -0.0000
vn -0.0000 0.2631 -0.9648
vn -0.5286 -0.0000 -0.8488
vn -0.8488 -0.0000 -0.5286
vn -0.8582 0.5133 -0.0000
vn -0.8488 -0.0000 0.5286
vn -0.0000 -0.0000 -1.0000
vn 0.8488 -0.0000 0.5286
vn 0.8488 -0.0000 -0.5286
vn -0.5286 -0.0000 0.8488
vn -0.0000 0.3379 0.9412
vn 0.5286 -0.0000 0.8488
vn -0.0000 -0.0000 1.0000
vn -0.0980 -0.0000 0.9952
vn -0.2903 -0.0000 0.9569
vn -0.4714 -0.0000 0.8819
vn -0.6344 -0.0000 0.7730
vn -0.7730 -0.0000 0.6344
vn -0.8819 -0.0000 0.4714
vn -0.9569 -0.0000 0.2903
vn -0.9952 -0.0000 0.0980
vn -0.9952 -0.0000 -0.0980
vn -0.9569 -0.0000 -0.2903
vn -0.8819 -0.0000 -0.4714
vn -0.7730 -0.0000 -0.6344
vn -0.6344 -0.0000 -0.7730
vn -0.4714 -0.0000 -0.8819
vn -0.2903 -0.0000 -0.9569
vn -0.0980 -0.0000 -0.9952
vn 0.0980 -0.0000 -0.9952
vn 0.2903 -0.0000 -0.9569
vn 0.4714 -0.0000 -0.8819
vn 0.6344 -0.0000 -0.7730
vn 0.7730 -0.0000 -0.6344
vn 0.8819 -0.0000 -0.4714
vn 0.9569 -0.0000 -0.2903
vn 0.9952 -0.0000 -0.0980
vn 0.9952 -0.0000 0.0980
vn 0.9569 -0.0000 0.2903
vn 0.8819 -0.0000 0.4714
vn 0.7730 -0.0000 0.6344
vn 0.6344 -0.0000 0.7730
vn 0.4714 -0.0000 0.8819
vn 0.2903 -0.0000 0.9569
vn 0.0980 -0.0000 0.9952
vn 0.0424 -0.9991 -0.0000
vn -0.0424 0.9991 -0.0000
vn -0.0349 0.9994 -0.0000
vn 0.0349 -0.9994 -0.0000
vt 0.250000 0.500000
vt 0.000000 0.000000
vt 0.000000 0.000000
vt 0.750000 0.500000
vt 0.375000 0.625000
vt 0.625000 0.625000
vt 0.750000 0.625000
vt 0.250000 0.625000
vt 0.187500 0.500000
vt 0.000000 0.000000
vt 0.000000 0.000000
vt 0.687500 0.500000
vt 0.375000 0.562500
vt 0.625000 0.687500
vt 0.312500 0.500000
vt 0.000000 0.000000
vt 0.000000 0.000000
vt 0.812500 0.500000
vt 0.375000 0.687500
vt 0.625000 0.562500
vt 0.750000 0.687500
vt 0.750000 0.562500
vt 0.687500 0.625000
vt 0.812500 0.625000
vt 0.250000 0.687500
vt 0.250000 0.562500
vt 0.187500 0.625000
vt 0.312500 0.625000
vt 0.312500 0.562500
vt 0.187500 0.562500
vt 0.187500 0.687500
vt 0.000000 0.000000
vt 0.812500 0.562500
vt 0.687500 0.562500
vt 0.687500 0.687500
vt 0.000000 0.000000
vt 0.812500 0.687500
vt 0.312500 0.687500
vt 0.656250 0.500000
vt 0.000000 0.000000
vt 0.375000 0.531250
vt 0.281250 0.500000
vt 0.000000 0.000000
vt 0.781250 0.500000
vt 0.000000 0.000000
vt 0.375000 0.656250
vt 0.625000 0.593750
vt 0.000000 0.000000
vt 0.750000 0.718750
vt 0.750000 0.593750
vt 0.656250 0.625000
vt 0.781250 0.625000
vt 0.250000 0.718750
vt 0.000000 0.000000
vt 0.250000 0.593750
vt 0.156250 0.625000
vt 0.000000 0.000000
vt 0.281250 0.625000
vt 0.000000 0.000000
vt 0.218750 0.500000
vt 0.718750 0.500000
vt 0.000000 0.000000
vt 0.375000 0.593750
vt 0.625000 0.656250
vt 0.000000 0.000000
vt 0.343750 0.500000
vt 0.625000 0.531250
vt 0.750000 0.656250
vt 0.750000 0.531250
vt 0.718750 0.625000
vt 0.843750 0.625000
vt 0.000000 0.000000
vt 0.250000 0.656250
vt 0.250000 0.531250
vt 0.218750 0.625000
vt 0.343750 0.625000
vt 0.312500 0.593750
vt 0.312500 0.531250
vt 0.281250 0.562500
vt 0.343750 0.562500
vt 0.187500 0.593750
vt 0.187500 0.531250
vt 0.000000 0.000000
vt 0.156250 0.562500
vt 0.000000 0.000000
vt 0.218750 0.562500
vt 0.187500 0.718750
vt 0.187500 0.656250
vt 0.156250 0.687500
vt 0.000000 0.000000
vt 0.218750 0.687500
vt 0.812500 0.593750
vt 0.812500 0.531250
vt 0.000000 0.000000
vt 0.781250 0.562500
vt 0.843750 0.562500
vt 0.000000 0.000000
vt 0.687500 0.593750
vt 0.687500 0.531250
vt 0.656250 0.562500
vt 0.718750 0.562500
vt 0.687500 0.718750
vt 0.000000 0.000000
vt 0.687500 0.656250
vt 0.656250 0.687500
vt 0.000000 0.000000
vt 0.718750 0.687500
vt 0.812500 0.718750
vt 0.812500 0.656250
vt 0.781250 0.687500
vt 0.843750 0.687500
vt 0.000000 0.000000
vt 0.312500 0.718750
vt 0.000000 0.000000
vt 0.312500 0.656250
vt 0.281250 0.687500
vt 0.343750 0.687500
vt 0.000000 0.000000
vt 0.343750 0.656250
vt 0.281250 0.656250
vt 0.281250 0.718750
vt 0.843750 0.656250
vt 0.781250 0.656250
vt 0.781250 0.718750
vt 0.718750 0.656250
vt 0.656250 0.656250
vt 0.656250 0.718750
vt 0.718750 0.531250
vt 0.656250 0.531250
vt 0.000000 0.000000
vt 0.656250 0.593750
vt 0.843750 0.531250
vt 0.781250 0.531250
vt 0.781250 0.593750
vt 0.218750 0.656250
vt 0.156250 0.656250
vt 0.218750 0.531250
vt 0.156250 0.531250
vt 0.156250 0.593750
vt 0.343750 0.531250
vt 0.000000 0.000000
vt 0.281250 0.531250
vt 0.281250 0.593750
vt 0.343750 0.593750
vt 0.218750 0.593750
vt 0.218750 0.718750
vt 0.843750 0.593750
vt 0.718750 0.593750
vt 0.718750 0.718750
vt 0.343750 0.718750
vt 0.750000 0.467343
vt 1.000000 1.000000
vt 0.250000 0.490000
vt 0.000000 1.000000
vt 0.792401 0.463167
vt 0.968750 1.000000
vt 0.296822 0.485388
vt 0.833174 0.450799
vt 0.937500 1.000000
vt 0.341844 0.471731
vt 0.870749 0.430714
vt 0.906250 1.000000
vt 0.383337 0.449553
vt 0.903684 0.403684
vt 0.875000 1.000000
vt 0.419706 0.419706
vt 0.930714 0.370749
vt 0.843750 1.000000
vt 0.449553 0.383337
vt 0.950799 0.333173
vt 0.812500 1.000000
vt 0.471731 0.341844
vt 0.963166 0.292401
vt 0.781250 1.000000
vt 0.485388 0.296822
vt 0.967343 0.250000
vt 0.750000 1.000000
vt 0.490000 0.250000
vt 0.963166 0.207599
vt 0.718750 1.000000
vt 0.485388 0.203178
vt 0.950798 0.166826
vt 0.687500 1.000000
vt 0.471731 0.158156
vt 0.930714 0.129251
vt 0.656250 1.000000
vt 0.449553 0.116663
vt 0.903684 0.096315
vt 0.625000 1.000000
vt 0.419706 0.080294
vt 0.870749 0.069286
vt 0.593750 1.000000
vt 0.383337 0.050447
vt 0.833174 0.049201
vt 0.562500 1.000000
vt 0.341844 0.028269
vt 0.792401 0.036833
vt 0.531250 1.000000
vt 0.296822 0.014612
vt 0.750000 0.032657
vt 0.500000 1.000000
vt 0.250000 0.010000
vt 0.707599 0.036833
vt 0.468750 1.000000
vt 0.203178 0.014612
vt 0.666827 0.049201
vt 0.437500 1.000000
vt 0.158156 0.028269
vt 0.629251 0.069286
vt 0.406250 1.000000
vt 0.116663 0.050447
vt 0.596315 0.096315
vt 0.375000 1.000000
vt 0.080294 0.080294
vt 0.569286 0.129251
vt 0.343750 1.000000
vt 0.050447 0.116663
vt 0.549201 0.166827
vt 0.312500 1.000000
vt 0.028269 0.158156
vt 0.536833 0.207599
vt 0.281250 1.000000
vt 0.014612 0.203178
vt 0.532657 0.250000
vt 0.250000 1.000000
vt 0.010000 0.250000
vt 0.536833 0.292401
vt 0.218750 1.000000
vt 0.014612 0.296822
vt 0.549201 0.333173
vt 0.187500 1.000000
vt 0.028269 0.341844
vt 0.569286 0.370749
vt 0.156250 1.000000
vt 0.050447 0.383337
vt 0.596315 0.403685
vt 0.125000 1.000000
vt 0.080294 0.419706
vt 0.629251 0.430714
vt 0.093750 1.000000
vt 0.116663 0.449553
vt 0.666826 0.450799
vt 0.158156 0.471731
vt 0.062500 1.000000
vt 0.707599 0.463167
vt 0.203178 0.485388
vt 0.031250 1.000000
vt 1.000000 0.500000
vt 0.000000 0.500000
vt 0.750000 0.490000
vt 0.968750 0.500000
vt 0.796822 0.485388
vt 0.937500 0.500000
vt 0.841844 0.471731
vt 0.906250 0.500000
vt 0.883337 0.449553
vt 0.875000 0.500000
vt 0.919706 0.419706
vt 0.843750 0.500000
vt 0.949553 0.383337
vt 0.812500 0.500000
vt 0.971731 0.341844
vt 0.781250 0.500000
vt 0.985388 0.296822
vt 0.750000 0.500000
vt 0.990000 0.250000
vt 0.718750 0.500000
vt 0.985388 0.203178
vt 0.687500 0.500000
vt 0.971731 0.158156
vt 0.656250 0.500000
vt 0.949553 0.116663
vt 0.625000 0.500000
vt 0.919706 0.080294
vt 0.593750 0.500000
vt 0.883337 0.050447
vt 0.562500 0.500000
vt 0.841844 0.028269
vt 0.531250 0.500000
vt 0.796822 0.014612
vt 0.500000 0.500000
vt 0.750000 0.010000
vt 0.468750 0.500000
vt 0.703178 0.014612
vt 0.437500 0.500000
vt 0.658156 0.028269
vt 0.406250 0.500000
vt 0.616663 0.050447
vt 0.375000 0.500000
vt 0.580294 0.080294
vt 0.343750 0.500000
vt 0.550447 0.116663
vt 0.312500 0.500000
vt 0.528269 0.158156
vt 0.281250 0.500000
vt 0.514612 0.203178
vt 0.250000 0.500000
vt 0.510000 0.250000
vt 0.218750 0.500000
vt 0.514612 0.296822
vt 0.187500 0.500000
vt 0.528269 0.341844
vt 0.156250 0.500000
vt 0.550447 0.383337
vt 0.125000 0.500000
vt 0.580294 0.419706
vt 0.093750 0.500000
vt 0.616663 0.449553
vt 0.062500 0.500000
vt 0.658156 0.471731
vt 0.031250 0.500000
vt 0.703178 0.485388
vt 0.750000 0.467343
vt 0.792401 0.463167
vt 0.833174 0.450799
vt 0.870749 0.430714
vt 0.903684 0.403684
vt 0.930714 0.370749
vt 0.950799 0.333173
vt 0.963166 0.292401
vt 0.967343 0.250000
vt 0.963166 0.207599
vt 0.950798 0.166826
vt 0.930714 0.129251
vt 0.903684 0.096315
vt 0.870749 0.069286
vt 0.833174 0.049201
vt 0.792401 0.036833
vt 0.750000 0.032657
vt 0.707599 0.036833
vt 0.666827 0.049201
vt 0.629251 0.069286
vt 0.596315 0.096315
vt 0.569286 0.129251
vt 0.549201 0.166827
vt 0.536833 0.207599
vt 0.532657 0.250000
vt 0.536833 0.292401
vt 0.549201 0.333173
vt 0.569286 0.370749
vt 0.596315 0.403685
vt 0.629251 0.430714
vt 0.666826 0.450799
vt 0.707599 0.463167
s 0
f 38/50/1 53/70/1 118/148/1
f 42/55/2 57/75/2 115/145/2
f 47/63/2 58/76/2 114/144/2
f 59/77/2 44/58/2 113/143/2
f 60/78/2 61/79/2 112/142/2
f 32/41/3 62/80/3 111/140/3
f 63/81/2 43/56/2 110/139/2
f 109/138/4 24/30/4 65/84/4
f 56/74/2 66/86/2 108/137/2
f 68/88/5 69/89/5 107/136/5
f 55/73/2 70/91/2 106/135/2
f 71/92/1 40/52/1 105/134/1
f 72/93/1 73/95/1 104/133/1
f 75/98/1 39/51/1 102/131/1
f 76/99/1 77/100/1 101/129/1
f 52/69/1 78/101/1 100/128/1
f 80/104/1 81/105/1 98/126/1
f 51/68/1 82/107/1 97/125/1
f 84/109/1 85/110/1 95/123/1
f 88/115/2 89/116/2 92/120/2
f 91/119/3 13/19/3 90/117/3
f 91/119/2 30/38/2 88/115/2
f 58/76/2 88/115/2 22/28/2
f 92/120/2 19/25/2 55/73/2
f 44/58/2 55/73/2 6/8/2
f 89/116/2 41/53/2 19/25/2
f 84/109/6 86/111/6 29/37/6
f 95/123/1 15/21/1 51/68/1
f 18/24/1 95/123/1 40/52/1
f 85/110/7 83/108/7 96/124/7
f 97/125/1 28/35/1 80/104/1
f 5/7/1 97/125/1 53/70/1
f 98/126/8 10/14/8 48/64/8
f 17/23/1 98/126/1 39/51/1
f 28/35/9 99/127/9 81/105/9
f 100/128/1 27/34/1 76/99/1
f 2/4/1 100/128/1 46/61/1
f 50/67/10 77/100/10 14/20/10
f 31/39/11 76/99/11 101/129/11
f 102/131/1 4/6/1 36/47/1
f 27/34/1 102/131/1 77/100/1
f 103/132/6 26/33/6 72/93/6
f 104/133/1 16/22/1 52/69/1
f 12/18/7 104/133/7 34/44/7
f 105/134/1 5/7/1 38/50/1
f 26/33/1 105/134/1 73/95/1
f 106/135/2 25/31/2 68/88/2
f 57/75/2 68/88/2 21/27/2
f 108/137/2 24/30/2 64/82/2
f 7/9/12 108/137/12 64/82/12
f 111/140/2 23/29/2 60/78/2
f 49/66/13 60/78/13 11/15/13
f 112/142/2 20/26/2 56/74/2
f 33/42/2 56/74/2 1/1/2
f 113/143/2 6/8/2 42/55/2
f 61/79/2 42/55/2 20/26/2
f 114/144/2 22/28/2 59/77/2
f 62/80/2 59/77/2 23/29/2
f 115/145/2 21/27/2 63/81/2
f 66/86/2 63/81/2 24/30/2
f 70/91/14 67/87/14 25/31/14
f 117/147/1 18/24/1 71/92/1
f 118/148/1 17/23/1 75/98/1
f 16/22/1 118/148/1 78/101/1
f 15/21/1 119/149/1 82/107/1
f 30/38/13 120/150/13 87/113/13
f 67/87/15 96/124/15 83/108/15
f 67/87/16 12/17/16 7/10/16
f 41/54/17 2/3/17 37/48/17
f 8/11/17 87/114/17 11/16/17
f 119/149/18 41/54/18 93/121/18
f 79/103/19 120/150/19 99/127/19
f 10/14/20 35/46/20 48/64/20
f 4/6/21 47/63/21 36/47/21
f 14/20/22 32/41/22 50/67/22
f 31/40/17 120/150/17 49/65/17
f 93/121/17 46/62/17 119/149/17
f 34/45/17 116/146/17 45/59/17
f 10/14/23 69/90/23 13/19/23
f 43/57/23 4/6/23 54/72/23
f 9/13/23 74/97/23 65/85/23
f 103/132/24 65/85/24 74/97/24
f 54/72/16 110/139/16 43/57/16
f 94/122/25 69/90/25 86/112/25
f 11/16/26 31/40/26 49/65/26
f 1/2/27 46/62/27 33/43/27
f 7/10/28 34/45/28 45/59/28
f 109/138/29 50/67/29 32/41/29
f 36/47/29 110/139/29 117/147/29
f 107/136/29 48/64/29 35/46/29
f 25/32/23 81/106/23 29/36/23
f 72/94/16 25/32/16 29/36/16
f 72/94/29 111/141/29 64/83/29
f 90/118/17 101/130/17 81/106/17
f 122/152/30 186/251/30 185/248/30
f 124/156/31 187/253/31 186/251/31
f 126/159/32 188/255/32 187/253/32
f 128/162/33 189/257/33 188/255/33
f 130/165/34 190/259/34 189/257/34
f 132/168/35 191/261/35 190/259/35
f 134/171/36 192/263/36 191/261/36
f 136/174/37 193/265/37 192/263/37
f 138/177/38 194/267/38 193/265/38
f 140/180/39 195/269/39 194/267/39
f 142/183/40 196/271/40 195/269/40
f 144/186/41 197/273/41 196/271/41
f 146/189/42 198/275/42 197/273/42
f 148/192/43 199/277/43 198/275/43
f 150/195/44 200/279/44 199/277/44
f 152/198/45 201/281/45 200/279/45
f 154/201/46 202/283/46 201/281/46
f 156/204/47 203/285/47 202/283/47
f 158/207/48 204/287/48 203/285/48
f 160/210/49 205/289/49 204/287/49
f 162/213/50 206/291/50 205/289/50
f 164/216/51 207/293/51 206/291/51
f 166/219/52 208/295/52 207/293/52
f 168/222/53 209/297/53 208/295/53
f 170/225/54 210/299/54 209/297/54
f 172/228/55 211/301/55 210/299/55
f 174/231/56 212/303/56 211/301/56
f 176/234/57 213/305/57 212/303/57
f 178/237/58 214/307/58 213/305/58
f 180/240/59 215/309/59 214/307/59
f 158/208/1 142/184/1 126/160/1
f 182/244/60 216/311/60 215/309/60
f 184/247/61 185/249/61 216/311/61
f 139/179/54 225/321/54 137/176/54
f 123/155/2 185/250/2 186/252/2
f 123/155/2 187/254/2 125/158/2
f 125/158/2 188/256/2 127/161/2
f 127/161/2 189/258/2 129/164/2
f 131/167/2 189/258/2 190/260/2
f 131/167/2 191/262/2 133/170/2
f 133/170/2 192/264/2 135/173/2
f 135/173/2 193/266/2 137/176/2
f 139/179/2 193/266/2 194/268/2
f 139/179/2 195/270/2 141/182/2
f 141/182/2 196/272/2 143/185/2
f 143/185/2 197/274/2 145/188/2
f 147/191/2 197/274/2 198/276/2
f 147/191/2 199/278/2 149/194/2
f 149/194/2 200/280/2 151/197/2
f 151/197/2 201/282/2 153/200/2
f 155/203/2 201/282/2 202/284/2
f 155/203/2 203/286/2 157/206/2
f 157/206/2 204/288/2 159/209/2
f 159/209/2 205/290/2 161/212/2
f 163/215/2 205/290/2 206/292/2
f 163/215/2 207/294/2 165/218/2
f 165/218/2 208/296/2 167/221/2
f 167/221/2 209/298/2 169/224/2
f 171/227/2 209/298/2 210/300/2
f 171/227/2 211/302/2 173/230/2
f 173/230/2 212/304/2 175/233/2
f 175/233/2 213/306/2 177/236/2
f 179/239/2 213/306/2 214/308/2
f 179/239/2 215/310/2 181/242/2
f 181/242/2 216/312/2 183/245/2
f 183/245/2 185/250/2 121/151/2
f 232/328/2 240/336/2 248/344/2
f 167/221/36 239/335/36 165/218/36
f 141/182/55 226/322/55 139/179/55
f 169/224/37 240/336/37 167/221/37
f 143/185/56 227/323/56 141/182/56
f 171/227/38 241/337/38 169/224/38
f 145/188/57 228/324/57 143/185/57
f 173/230/39 242/338/39 171/227/39
f 147/191/58 229/325/58 145/188/58
f 175/233/40 243/339/40 173/230/40
f 149/194/59 230/326/59 147/191/59
f 123/155/46 217/313/46 121/151/46
f 177/236/41 244/340/41 175/233/41
f 151/197/60 231/327/60 149/194/60
f 125/158/47 218/314/47 123/155/47
f 179/239/42 245/341/42 177/236/42
f 153/200/61 232/328/61 151/197/61
f 127/161/48 219/315/48 125/158/48
f 181/242/43 246/342/43 179/239/43
f 155/203/30 233/329/30 153/200/30
f 129/164/49 220/316/49 127/161/49
f 183/245/44 247/343/44 181/242/44
f 157/206/31 234/330/31 155/203/31
f 131/167/50 221/317/50 129/164/50
f 121/151/45 248/344/45 183/245/45
f 159/209/32 235/331/32 157/206/32
f 133/170/51 222/318/51 131/167/51
f 161/212/33 236/332/33 159/209/33
f 135/173/52 223/319/52 133/170/52
f 163/215/34 237/333/34 161/212/34
f 137/176/53 224/320/53 135/173/53
f 165/218/35 238/334/35 163/215/35
f 38/50/1 5/7/1 53/70/1
f 42/55/2 6/8/2 57/75/2
f 47/63/2 3/5/2 58/76/2
f 59/77/2 22/28/2 44/58/2
f 60/78/2 23/29/2 61/79/2
f 32/41/4 9/13/4 62/80/4
f 63/81/2 21/27/2 43/56/2
f 109/138/62 64/82/62 24/30/62
f 56/74/2 20/26/2 66/86/2
f 68/88/62 25/31/62 69/89/62
f 55/73/2 19/25/2 70/91/2
f 71/92/1 18/24/1 40/52/1
f 72/93/1 26/33/1 73/95/1
f 75/98/1 17/23/1 39/51/1
f 76/99/1 27/34/1 77/100/1
f 52/69/1 16/22/1 78/101/1
f 80/104/1 28/35/1 81/105/1
f 51/68/1 15/21/1 82/107/1
f 84/109/1 29/37/1 85/110/1
f 88/115/2 30/38/2 89/116/2
f 91/119/5 35/46/5 13/19/5
f 91/119/2 90/117/2 30/38/2
f 58/76/2 91/119/2 88/115/2
f 92/120/2 89/116/2 19/25/2
f 44/58/2 92/120/2 55/73/2
f 89/116/2 93/121/2 41/53/2
f 84/109/8 94/122/8 86/111/8
f 95/123/1 85/110/1 15/21/1
f 18/24/1 84/109/1 95/123/1
f 85/110/9 29/37/9 83/108/9
f 97/125/1 82/107/1 28/35/1
f 5/7/1 51/68/1 97/125/1
f 98/126/63 81/105/63 10/14/63
f 17/23/1 80/104/1 98/126/1
f 28/35/64 79/102/64 99/127/64
f 100/128/1 78/101/1 27/34/1
f 2/4/1 52/69/1 100/128/1
f 50/67/63 101/129/63 77/100/63
f 31/39/64 8/12/64 76/99/64
f 102/131/1 39/51/1 4/6/1
f 27/34/1 75/98/1 102/131/1
f 103/132/10 74/96/10 26/33/10
f 104/133/1 73/95/1 16/22/1
f 12/18/11 72/93/11 104/133/11
f 105/134/1 40/52/1 5/7/1
f 26/33/1 71/92/1 105/134/1
f 106/135/2 70/91/2 25/31/2
f 57/75/2 106/135/2 68/88/2
f 108/137/2 66/86/2 24/30/2
f 7/9/65 45/60/65 108/137/65
f 111/140/2 62/80/2 23/29/2
f 49/66/12 111/140/12 60/78/12
f 112/142/2 61/79/2 20/26/2
f 33/42/2 112/142/2 56/74/2
f 113/143/2 44/58/2 6/8/2
f 61/79/2 113/143/2 42/55/2
f 114/144/2 58/76/2 22/28/2
f 62/80/2 114/144/2 59/77/2
f 115/145/2 57/75/2 21/27/2
f 66/86/2 115/145/2 63/81/2
f 70/91/65 116/146/65 67/87/65
f 117/147/1 54/71/1 18/24/1
f 118/148/1 53/70/1 17/23/1
f 16/22/1 38/50/1 118/148/1
f 15/21/1 37/49/1 119/149/1
f 30/38/14 90/117/14 120/150/14
f 67/87/15 116/146/15 96/124/15
f 67/87/16 83/108/16 12/17/16
f 41/54/17 1/2/17 2/3/17
f 8/11/17 79/103/17 87/114/17
f 119/149/18 37/49/18 41/54/18
f 79/103/19 87/114/19 120/150/19
f 10/14/20 13/19/20 35/46/20
f 4/6/21 3/5/21 47/63/21
f 14/20/22 9/13/22 32/41/22
f 31/40/17 99/127/17 120/150/17
f 93/121/17 33/43/17 46/62/17
f 34/45/17 96/124/17 116/146/17
f 10/14/23 86/112/23 69/90/23
f 43/57/23 3/5/23 4/6/23
f 9/13/23 14/20/23 74/97/23
f 103/132/24 109/138/24 65/85/24
f 54/72/16 117/147/16 110/139/16
f 94/122/25 107/136/25 69/90/25
f 11/16/26 8/12/26 31/40/26
f 1/2/27 2/4/27 46/62/27
f 7/10/28 12/18/28 34/45/28
f 109/138/29 103/132/29 50/67/29
f 36/47/29 47/63/29 110/139/29
f 107/136/29 94/122/29 48/64/29
f 25/32/23 90/118/23 81/106/23
f 72/94/16 64/83/16 25/32/16
f 72/94/29 101/130/29 111/141/29
f 90/118/17 111/141/17 101/130/17
f 122/152/30 124/156/30 186/251/30
f 124/156/31 126/159/31 187/253/31
f 126/159/32 128/162/32 188/255/32
f 128/162/33 130/165/33 189/257/33
f 130/165/34 132/168/34 190/259/34
f 132/168/35 134/171/35 191/261/35
f 134/171/36 136/174/36 192/263/36
f 136/174/37 138/177/37 193/265/37
f 138/177/38 140/180/38 194/267/38
f 140/180/39 142/183/39 195/269/39
f 142/183/40 144/186/40 196/271/40
f 144/186/41 146/189/41 197/273/41
f 146/189/42 148/192/42 198/275/42
f 148/192/43 150/195/43 199/277/43
f 150/195/44 152/198/44 200/279/44
f 152/198/45 154/201/45 201/281/45
f 154/201/46 156/204/46 202/283/46
f 156/204/47 158/207/47 203/285/47
f 158/207/48 160/210/48 204/287/48
f 160/210/49 162/213/49 205/289/49
f 162/213/50 164/216/50 206/291/50
f 164/216/51 166/219/51 207/293/51
f 166/219/52 168/222/52 208/295/52
f 168/222/53 170/225/53 209/297/53
f 170/225/54 172/228/54 210/299/54
f 172/228/55 174/231/55 211/301/55
f 174/231/56 176/234/56 212/303/56
f 176/234/57 178/237/57 213/305/57
f 178/237/58 180/240/58 214/307/58
f 180/240/59 182/244/59 215/309/59
f 126/160/1 124/157/1 122/153/1
f 122/153/1 184/246/1 182/243/1
f 182/243/1 180/241/1 178/238/1
f 178/238/1 176/235/1 174/232/1
f 174/232/1 172/229/1 170/226/1
f 170/226/1 168/223/1 166/220/1
f 166/220/1 164/217/1 162/214/1
f 162/214/1 160/211/1 158/208/1
f 158/208/1 156/205/1 154/202/1
f 154/202/1 152/199/1 150/196/1
f 150/196/1 148/193/1 146/190/1
f 146/190/1 144/187/1 142/184/1
f 142/184/1 140/181/1 138/178/1
f 138/178/1 136/175/1 134/172/1
f 134/172/1 132/169/1 130/166/1
f 130/166/1 128/163/1 126/160/1
f 126/160/1 122/153/1 182/243/1
f 182/243/1 178/238/1 174/232/1
f 174/232/1 170/226/1 166/220/1
f 166/220/1 162/214/1 158/208/1
f 158/208/1 154/202/1 150/196/1
f 150/196/1 146/190/1 142/184/1
f 142/184/1 138/178/1 134/172/1
f 134/172/1 130/166/1 126/160/1
f 126/160/1 182/243/1 174/232/1
f 174/232/1 166/220/1 158/208/1
f 158/208/1 150/196/1 142/184/1
f 142/184/1 134/172/1 126/160/1
f 126/160/1 174/232/1 158/208/1
f 182/244/60 184/247/60 216/311/60
f 184/247/61 122/154/61 185/249/61
f 139/179/54 226/322/54 225/321/54
f 123/155/2 121/151/2 185/250/2
f 123/155/2 186/252/2 187/254/2
f 125/158/2 187/254/2 188/256/2
f 127/161/2 188/256/2 189/258/2
f 131/167/2 129/164/2 189/258/2
f 131/167/2 190/260/2 191/262/2
f 133/170/2 191/262/2 192/264/2
f 135/173/2 192/264/2 193/266/2
f 139/179/2 137/176/2 193/266/2
f 139/179/2 194/268/2 195/270/2
f 141/182/2 195/270/2 196/272/2
f 143/185/2 196/272/2 197/274/2
f 147/191/2 145/188/2 197/274/2
f 147/191/2 198/276/2 199/278/2
f 149/194/2 199/278/2 200/280/2
f 151/197/2 200/280/2 201/282/2
f 155/203/2 153/200/2 201/282/2
f 155/203/2 202/284/2 203/286/2
f 157/206/2 203/286/2 204/288/2
f 159/209/2 204/288/2 205/290/2
f 163/215/2 161/212/2 205/290/2
f 163/215/2 206/292/2 207/294/2
f 165/218/2 207/294/2 208/296/2
f 167/221/2 208/296/2 209/298/2
f 171/227/2 169/224/2 209/298/2
f 171/227/2 210/300/2 211/302/2
f 173/230/2 211/302/2 212/304/2
f 175/233/2 212/304/2 213/306/2
f 179/239/2 177/236/2 213/306/2
f 179/239/2 214/308/2 215/310/2
f 181/242/2 215/310/2 216/312/2
f 183/245/2 216/312/2 185/250/2
f 248/344/2 217/313/2 218/314/2
f 218/314/2 219/315/2 220/316/2
f 220/316/2 221/317/2 222/318/2
f 222/318/2 223/319/2 224/320/2
f 224/320/2 225/321/2 226/322/2
f 226/322/2 227/323/2 228/324/2
f 228/324/2 229/325/2 230/326/2
f 230/326/2 231/327/2 232/328/2
f 232/328/2 233/329/2 234/330/2
f 234/330/2 235/331/2 236/332/2
f 236/332/2 237/333/2 238/334/2
f 238/334/2 239/335/2 240/336/2
f 240/336/2 241/337/2 242/338/2
f 242/338/2 243/339/2 244/340/2
f 244/340/2 245/341/2 246/342/2
f 246/342/2 247/343/2 248/344/2
f 248/344/2 218/314/2 220/316/2
f 220/316/2 222/318/2 224/320/2
f 224/320/2 226/322/2 228/324/2
f 228/324/2 230/326/2 232/328/2
f 232/328/2 234/330/2 236/332/2
f 236/332/2 238/334/2 240/336/2
f 240/336/2 242/338/2 244/340/2
f 244/340/2 246/342/2 248/344/2
f 248/344/2 220/316/2 224/320/2
f 224/320/2 228/324/2 232/328/2
f 232/328/2 236/332/2 240/336/2
f 240/336/2 244/340/2 248/344/2
f 248/344/2 224/320/2 232/328/2
f 167/221/36 240/336/36 239/335/36
f 141/182/55 227/323/55 226/322/55
f 169/224/37 241/337/37 240/336/37
f 143/185/56 228/324/56 227/323/56
f 171/227/38 242/338/38 241/337/38
f 145/188/57 229/325/57 228/324/57
f 173/230/39 243/339/39 242/338/39
f 147/191/58 230/326/58 229/325/58
f 175/233/40 244/340/40 243/339/40
f 149/194/59 231/327/59 230/326/59
f 123/155/46 218/314/46 217/313/46
f 177/236/41 245/341/41 244/340/41
f 151/197/60 232/328/60 231/327/60
f 125/158/47 219/315/47 218/314/47
f 179/239/42 246/342/42 245/341/42
f 153/200/61 233/329/61 232/328/61
f 127/161/48 220/316/48 219/315/48
f 181/242/43 247/343/43 246/342/43
f 155/203/30 234/330/30 233/329/30
f 129/164/49 221/317/49 220/316/49
f 183/245/44 248/344/44 247/343/44
f 157/206/31 235/331/31 234/330/31
f 131/167/50 222/318/50 221/317/50
f 121/151/45 217/313/45 248/344/45
f 159/209/32 236/332/32 235/331/32
f 133/170/51 223/319/51 222/318/51
f 161/212/33 237/333/33 236/332/33
f 135/173/52 224/320/52 223/319/52
f 163/215/34 238/334/34 237/333/34
f 137/176/53 225/321/53 224/320/53
f 165/218/35 239/335/35 238/334/35
