# Blender 3.3.1
# www.blender.org
o milk
v -0.656032 0.001377 0.543251
v -0.600860 1.568849 0.470950
v -0.656032 0.001377 -0.092124
v -0.600860 1.568849 -0.019823
v -0.020657 0.001377 0.543251
v -0.075829 1.568849 0.470950
v -0.020657 0.001377 -0.092124
v -0.075829 1.568849 -0.019823
v -0.656032 0.001377 0.225563
v -0.600860 1.765460 0.225563
v -0.020657 0.001377 0.225563
v -0.075829 1.765460 0.225563
v -0.656032 1.904619 0.225563
v -0.020657 1.904619 0.225563
v -0.075829 1.568849 0.225563
v -0.600860 1.568849 0.225563
v -0.656032 1.797998 0.225563
v -0.656032 1.543456 -0.092124
v -0.020657 1.797998 0.225563
v -0.020657 1.543456 0.543251
v -0.656032 1.543456 0.543251
v -0.020657 1.543456 -0.092124
v -0.020657 1.543456 0.225563
v -0.656032 1.543456 0.225563
v -0.020657 1.670727 0.384407
v -0.338345 1.543456 0.543251
v -0.656032 1.670727 0.384407
v -0.338345 1.797998 0.225563
v -0.020657 1.607092 0.463829
v -0.497189 1.543456 0.543251
v -0.656032 1.734363 0.304985
v -0.179501 1.797998 0.225563
v -0.020657 1.734363 0.304985
v -0.179501 1.543456 0.543251
v -0.656032 1.607092 0.463829
v -0.497189 1.797998 0.225563
v -0.338345 1.586761 0.489204
v -0.338345 1.754694 0.279610
v -0.204058 1.670727 0.384407
v -0.472631 1.670727 0.384407
v -0.433299 1.730101 0.310304
v -0.243390 1.730101 0.310304
v -0.243390 1.611354 0.458510
v -0.433299 1.611354 0.458510
v -0.462409 1.702860 0.344303
v -0.389734 1.748302 0.287587
v -0.214280 1.702860 0.344303
v -0.286956 1.748302 0.287587
v -0.214280 1.638595 0.424511
v -0.286956 1.593152 0.481227
v -0.462409 1.638595 0.424511
v -0.389734 1.593152 0.481227
v -0.338345 1.763732 0.401961
v -0.338345 1.735936 0.436654
v -0.407730 1.735936 0.436654
v -0.338345 1.708139 0.471346
v -0.338345 1.651969 0.541451
v -0.268960 1.735936 0.436654
v -0.204058 1.735936 0.436654
v -0.462409 1.768068 0.396550
v -0.472631 1.735936 0.436654
v -0.389734 1.813511 0.339834
v -0.338345 1.819902 0.331857
v -0.214280 1.768068 0.396550
v -0.286956 1.813511 0.339834
v -0.243390 1.795309 0.362551
v -0.214280 1.703803 0.476758
v -0.243390 1.676562 0.510757
v -0.286956 1.658361 0.533474
v -0.462409 1.703803 0.476758
v -0.433299 1.676562 0.510757
v -0.389734 1.658361 0.533474
v -0.433299 1.795309 0.362551
v -0.407730 1.708139 0.471346
v -0.268960 1.708139 0.471346
v -0.407730 1.763732 0.401961
v -0.268960 1.763732 0.401961
vn -1.0000 -0.0000 -0.0000
vn -0.0000 -0.0000 -1.0000
vn 1.0000 -0.0000 -0.0000
vn -0.0000 -0.0000 1.0000
vn -0.0000 -1.0000 -0.0000
vn -0.0000 0.7804 0.6253
vn -0.0000 0.7804 -0.6253
vn -0.4181 -0.7089 0.5680
vn 0.4181 -0.7089 -0.5680
vn -0.4181 -0.7089 -0.5680
vn 0.4181 -0.7089 0.5680
vn 0.4181 0.9084 -0.0000
vn -0.4181 0.9084 -0.0000
vn -0.8315 -0.3474 0.4336
vn -0.8315 0.3474 -0.4336
vn -0.5556 -0.5199 0.6489
vn 0.9808 0.1220 -0.1522
vn -0.9808 -0.1220 0.1522
vn 0.5556 -0.5199 0.6489
vn 0.1951 -0.6133 0.7654
vn -0.1951 0.6133 -0.7654
vn 0.9808 -0.1220 0.1522
vn 0.8315 -0.3474 0.4336
vn 0.1951 0.6133 -0.7654
vn -0.9808 0.1220 -0.1522
vn 0.8315 0.3474 -0.4336
vn 0.5556 0.5199 -0.6489
vn -0.1951 -0.6133 0.7654
vn -0.5556 0.5199 -0.6489
vn -0.0000 1.0000 -0.0000
vt 0.375000 0.000000
vt 0.375000 1.000000
vt 0.125000 0.750000
vt 0.620472 0.028448
vt 0.125000 0.500000
vt 0.375000 0.250000
vt 0.620472 0.221552
vt 0.375000 0.750000
vt 0.620472 0.721552
vt 0.375000 0.500000
vt 0.620472 0.528448
vt 0.125000 0.625000
vt 0.375000 0.125000
vt 0.620472 0.125000
vt 0.375000 0.625000
vt 0.620472 0.625000
vt 0.875000 0.625000
vt 0.625000 0.625000
vt 0.593114 0.625000
vt 0.593114 0.125000
vt 0.625000 0.125000
vt 0.875000 0.625000
vt 0.875000 0.500000
vt 0.625000 0.250000
vt 0.625000 0.625000
vt 0.625000 0.750000
vt 0.625000 1.000000
vt 0.875000 0.750000
vt 0.625000 0.000000
vt 0.625000 0.500000
vt 0.589581 0.625000
vt 0.589581 0.125000
vt 0.625000 0.687500
vt 0.625000 0.875000
vt 0.750000 0.750000
vt 0.625000 0.062500
vt 0.875000 0.687500
vt 0.750000 0.625000
vt 0.625000 0.718750
vt 0.625000 0.937500
vt 0.812500 0.750000
vt 0.625000 0.093750
vt 0.875000 0.656250
vt 0.687500 0.625000
vt 0.625000 0.656250
vt 0.625000 0.812500
vt 0.687500 0.750000
vt 0.625000 0.031250
vt 0.875000 0.718750
vt 0.812500 0.625000
vt 0.750000 0.718750
vt 0.750000 0.656250
vt 0.687500 0.687500
vt 0.812500 0.687500
vt 0.812500 0.656250
vt 0.687500 0.656250
vt 0.687500 0.718750
vt 0.812500 0.718750
vt 0.812500 0.671875
vt 0.781250 0.656250
vt 0.687500 0.671875
vt 0.718750 0.656250
vt 0.687500 0.703125
vt 0.718750 0.718750
vt 0.812500 0.703125
vt 0.781250 0.718750
vt 0.750000 0.671875
vt 0.750000 0.687500
vt 0.781250 0.687500
vt 0.750000 0.703125
vt 0.750000 0.718750
vt 0.718750 0.687500
vt 0.687500 0.687500
vt 0.812500 0.671875
vt 0.812500 0.687500
vt 0.781250 0.656250
vt 0.750000 0.656250
vt 0.687500 0.671875
vt 0.718750 0.656250
vt 0.687500 0.656250
vt 0.687500 0.703125
vt 0.687500 0.718750
vt 0.718750 0.718750
vt 0.812500 0.703125
vt 0.812500 0.718750
vt 0.781250 0.718750
vt 0.812500 0.656250
vt 0.781250 0.703125
vt 0.718750 0.703125
vt 0.781250 0.671875
vt 0.718750 0.671875
s 0
f 24/32/1 3/6/1 9/13/1
f 18/24/2 7/10/2 3/6/2
f 23/31/3 5/8/3 11/15/3
f 34/46/4 30/40/4 1/2/4
f 11/15/5 1/3/5 9/12/5
f 35/49/6 30/41/6 44/58/6
f 18/23/7 28/38/7 19/25/7
f 7/10/5 9/12/5 3/5/5
f 22/30/3 11/15/3 7/10/3
f 21/29/1 9/13/1 1/1/1
f 28/38/2 17/22/2 14/18/2
f 15/19/3 8/11/3 12/16/3
f 6/9/3 15/19/3 12/16/3
f 4/7/1 16/20/1 10/14/1
f 16/20/1 2/4/1 10/14/1
f 4/7/8 17/21/8 18/24/8
f 12/16/9 25/33/9 20/26/9
f 2/4/10 27/36/10 31/42/10
f 8/11/11 19/25/11 12/16/11
f 8/11/12 23/31/12 22/30/12
f 6/9/12 23/31/12 15/19/12
f 4/7/13 24/32/13 16/20/13
f 2/4/13 24/32/13 21/29/13
f 50/64/6 26/35/6 34/47/6
f 51/65/14 71/85/14 70/84/14
f 31/43/6 40/54/6 45/59/6
f 45/59/15 73/87/15 41/55/15
f 36/50/6 46/60/6 38/52/6
f 36/50/6 31/43/6 41/55/6
f 42/56/6 47/61/6 25/33/6
f 32/44/6 33/45/6 19/25/6
f 28/38/6 48/62/6 42/56/6
f 29/39/6 34/47/6 20/26/6
f 39/53/6 49/63/6 29/39/6
f 44/58/16 72/86/16 71/85/16
f 52/66/6 30/41/6 26/35/6
f 47/61/17 59/73/17 39/53/17
f 27/37/6 44/58/6 51/65/6
f 51/65/18 61/75/18 40/54/18
f 43/57/19 69/83/19 50/64/19
f 50/64/20 57/71/20 37/51/20
f 38/52/21 62/76/21 63/77/21
f 49/63/22 59/73/22 67/81/22
f 49/63/23 68/82/23 43/57/23
f 38/52/24 65/79/24 48/62/24
f 40/54/25 60/74/25 45/59/25
f 47/61/26 66/80/26 64/78/26
f 42/56/27 65/79/27 66/80/27
f 52/66/28 57/71/28 72/86/28
f 41/55/29 62/76/29 46/60/29
f 53/67/6 58/72/6 77/91/6
f 60/74/6 55/69/6 76/90/6
f 56/70/6 69/83/6 75/89/6
f 74/88/6 71/85/6 72/86/6
f 56/70/6 72/86/6 57/71/6
f 55/69/6 56/70/6 54/68/6
f 55/69/6 70/84/6 74/88/6
f 75/89/6 68/82/6 67/81/6
f 58/72/6 67/81/6 59/73/6
f 54/68/6 75/89/6 58/72/6
f 76/90/6 54/68/6 53/67/6
f 62/76/6 53/67/6 63/77/6
f 73/87/6 76/90/6 62/76/6
f 64/78/6 58/72/6 59/73/6
f 66/80/6 77/91/6 64/78/6
f 65/79/6 53/67/6 77/91/6
f 24/32/1 18/24/1 3/6/1
f 18/24/2 22/30/2 7/10/2
f 23/31/3 20/26/3 5/8/3
f 1/2/4 5/8/4 20/26/4
f 34/46/30 26/34/30 30/40/30
f 1/2/4 20/26/4 34/46/4
f 30/40/4 21/27/4 1/2/4
f 11/15/5 5/8/5 1/3/5
f 35/49/6 21/28/6 30/41/6
f 19/25/7 22/30/7 18/23/7
f 18/23/7 17/22/7 36/50/7
f 28/38/30 32/44/30 19/25/30
f 18/23/7 36/50/7 28/38/7
f 7/10/5 11/15/5 9/12/5
f 22/30/3 23/31/3 11/15/3
f 21/29/1 24/32/1 9/13/1
f 14/18/2 19/25/2 32/44/2
f 28/38/30 36/50/30 17/22/30
f 14/18/2 32/44/2 28/38/2
f 17/22/2 13/17/2 14/18/2
f 4/7/8 10/14/8 17/21/8
f 20/26/9 6/9/9 12/16/9
f 12/16/9 19/25/9 33/45/9
f 25/33/30 29/39/30 20/26/30
f 12/16/9 33/45/9 25/33/9
f 17/21/10 10/14/10 2/4/10
f 2/4/10 21/29/10 35/48/10
f 2/4/10 35/48/10 27/36/10
f 31/42/10 17/21/10 2/4/10
f 8/11/11 22/30/11 19/25/11
f 8/11/12 15/19/12 23/31/12
f 6/9/12 20/26/12 23/31/12
f 4/7/13 18/24/13 24/32/13
f 2/4/13 16/20/13 24/32/13
f 34/47/6 43/57/6 50/64/6
f 50/64/6 37/51/6 26/35/6
f 51/65/14 44/58/14 71/85/14
f 45/59/6 41/55/6 31/43/6
f 31/43/6 27/37/6 40/54/6
f 45/59/15 60/74/15 73/87/15
f 38/52/6 28/38/6 36/50/6
f 36/50/6 41/55/6 46/60/6
f 36/50/6 17/22/6 31/43/6
f 25/33/6 33/45/6 42/56/6
f 47/61/6 39/53/6 25/33/6
f 32/44/6 42/56/6 33/45/6
f 42/56/6 32/44/6 28/38/6
f 28/38/6 38/52/6 48/62/6
f 29/39/6 43/57/6 34/47/6
f 29/39/6 25/33/6 39/53/6
f 49/63/6 43/57/6 29/39/6
f 44/58/16 52/66/16 72/86/16
f 26/35/6 37/51/6 52/66/6
f 52/66/6 44/58/6 30/41/6
f 47/61/17 64/78/17 59/73/17
f 51/65/6 40/54/6 27/37/6
f 27/37/6 35/49/6 44/58/6
f 51/65/18 70/84/18 61/75/18
f 43/57/19 68/82/19 69/83/19
f 50/64/20 69/83/20 57/71/20
f 38/52/21 46/60/21 62/76/21
f 49/63/22 39/53/22 59/73/22
f 49/63/23 67/81/23 68/82/23
f 38/52/24 63/77/24 65/79/24
f 40/54/25 61/75/25 60/74/25
f 47/61/26 42/56/26 66/80/26
f 42/56/27 48/62/27 65/79/27
f 52/66/28 37/51/28 57/71/28
f 41/55/29 73/87/29 62/76/29
f 53/67/6 54/68/6 58/72/6
f 60/74/6 61/75/6 55/69/6
f 56/70/6 57/71/6 69/83/6
f 74/88/6 70/84/6 71/85/6
f 56/70/6 74/88/6 72/86/6
f 55/69/6 74/88/6 56/70/6
f 55/69/6 61/75/6 70/84/6
f 75/89/6 69/83/6 68/82/6
f 58/72/6 75/89/6 67/81/6
f 54/68/6 56/70/6 75/89/6
f 76/90/6 55/69/6 54/68/6
f 62/76/6 76/90/6 53/67/6
f 73/87/6 60/74/6 76/90/6
f 64/78/6 77/91/6 58/72/6
f 66/80/6 65/79/6 77/91/6
f 65/79/6 63/77/6 53/67/6
