# Blender 3.3.1
# www.blender.org
o lid
v 0.000000 1.569683 -0.776991
v 0.000000 1.756229 -0.776991
v 0.101418 1.569683 -0.770344
v 0.101418 1.756229 -0.770344
v 0.201100 1.569683 -0.750516
v 0.201100 1.756229 -0.750516
v 0.297342 1.569683 -0.717846
v 0.297342 1.756229 -0.717846
v 0.388496 1.569683 -0.672894
v 0.388496 1.756229 -0.672894
v 0.473002 1.569683 -0.616429
v 0.473002 1.756229 -0.616429
v 0.549416 1.569683 -0.549416
v 0.549416 1.756229 -0.549416
v 0.616429 1.569683 -0.473002
v 0.616429 1.756229 -0.473002
v 0.672894 1.569683 -0.388496
v 0.672894 1.756229 -0.388496
v 0.717846 1.569683 -0.297342
v 0.717846 1.756229 -0.297342
v 0.750516 1.569683 -0.201100
v 0.750516 1.756229 -0.201100
v 0.750516 1.569683 0.201100
v 0.750516 1.756229 0.201100
v 0.717846 1.569683 0.297342
v 0.717846 1.756229 0.297342
v 0.672894 1.569683 0.388496
v 0.672894 1.756229 0.388496
v 0.616429 1.569683 0.473002
v 0.616429 1.756229 0.473002
v 0.549416 1.569683 0.549416
v 0.549416 1.756229 0.549416
v 0.473002 1.569683 0.616429
v 0.473002 1.756229 0.616429
v 0.388496 1.569683 0.672894
v 0.388496 1.756229 0.672894
v 0.297342 1.569683 0.717846
v 0.297342 1.756229 0.717846
v 0.201100 1.569683 0.750516
v 0.201100 1.756229 0.750516
v 0.101418 1.569683 0.770344
v 0.101418 1.756229 0.770344
v 0.000000 1.569683 0.776991
v 0.000000 1.756229 0.776991
v -0.101418 1.569683 0.770344
v -0.101418 1.756229 0.770344
v -0.201100 1.569683 0.750516
v -0.201100 1.756229 0.750516
v -0.297342 1.569683 0.717846
v -0.297342 1.756229 0.717846
v -0.388496 1.569683 0.672894
v -0.388496 1.756229 0.672894
v -0.473002 1.569683 0.616429
v -0.473002 1.756229 0.616429
v -0.549416 1.569683 0.549416
v -0.549416 1.756229 0.549416
v -0.616429 1.569683 0.473002
v -0.616429 1.756229 0.473002
v -0.672894 1.569683 0.388496
v -0.672894 1.756229 0.388496
v -0.717846 1.569683 0.297342
v -0.717846 1.756229 0.297342
v -0.750516 1.569683 0.201100
v -0.750516 1.756229 0.201100
v -0.770344 1.569683 0.101418
v -0.770344 1.756229 0.101418
v -0.776991 1.569683 0.000000
v -0.776991 1.756229 0.000000
v -0.770344 1.569683 -0.101418
v -0.770344 1.756229 -0.101418
v -0.750516 1.569683 -0.201100
v -0.750516 1.756229 -0.201100
v -0.717846 1.569683 -0.297342
v -0.717846 1.756229 -0.297342
v -0.672894 1.569683 -0.388496
v -0.672894 1.756229 -0.388496
v -0.616429 1.569683 -0.473002
v -0.616429 1.756229 -0.473002
v -0.549416 1.569683 -0.549416
v -0.549416 1.756229 -0.549416
v -0.473002 1.569683 -0.616429
v -0.473002 1.756229 -0.616429
v -0.388496 1.569683 -0.672894
v -0.388496 1.756229 -0.672894
v -0.297342 1.569683 -0.717846
v -0.297342 1.756229 -0.717846
v -0.201100 1.569683 -0.750516
v -0.201100 1.756229 -0.750516
v -0.101418 1.569683 -0.770344
v -0.101418 1.756229 -0.770344
v 0.095197 1.826028 -0.723096
v -0.000000 1.826028 -0.729336
v 0.188766 1.826028 -0.704484
v 0.279105 1.826028 -0.673819
v 0.364668 1.826028 -0.631623
v 0.443992 1.826028 -0.578621
v 0.515718 1.826028 -0.515718
v 0.578621 1.826028 -0.443992
v 0.631623 1.826028 -0.364668
v 0.673819 1.826028 -0.279105
v 0.610776 1.826028 -0.188766
v 0.529537 1.826028 -0.095197
v 0.535776 1.826028 -0.000000
v 0.529537 1.826028 0.095197
v 0.610776 1.826028 0.188766
v 0.673819 1.826028 0.279105
v 0.631623 1.826028 0.364668
v 0.578621 1.826028 0.443992
v 0.515718 1.826028 0.515718
v 0.443992 1.826028 0.578621
v 0.364668 1.826028 0.631623
v 0.279105 1.826028 0.673819
v 0.188766 1.826028 0.704484
v 0.095197 1.826028 0.723096
v -0.000000 1.826028 0.729336
v -0.095197 1.826028 0.723096
v -0.188766 1.826028 0.704484
v -0.279105 1.826028 0.673819
v -0.364668 1.826028 0.631623
v -0.443992 1.826028 0.578621
v -0.515718 1.826028 0.515718
v -0.578621 1.826028 0.443992
v -0.631623 1.826028 0.364668
v -0.673819 1.826028 0.279105
v -0.704484 1.826028 0.188766
v -0.723096 1.826028 0.095197
v -0.729336 1.826028 -0.000000
v -0.723096 1.826028 -0.095197
v -0.704484 1.826028 -0.188766
v -0.673819 1.826028 -0.279105
v -0.631623 1.826028 -0.364668
v -0.578621 1.826028 -0.443992
v -0.515718 1.826028 -0.515718
v -0.443992 1.826028 -0.578621
v -0.364668 1.826028 -0.631623
v -0.279105 1.826028 -0.673819
v -0.188766 1.826028 -0.704484
v -0.095197 1.826028 -0.723096
v 0.066259 1.874694 -0.503286
v -0.000000 1.874694 -0.507629
v 0.131384 1.874694 -0.490332
v 0.194261 1.874694 -0.468988
v 0.253814 1.874694 -0.439620
v 0.309025 1.874694 -0.402729
v 0.358948 1.874694 -0.358948
v 0.402729 1.874694 -0.309025
v 0.439620 1.874694 -0.253815
v 0.468988 1.874694 -0.194261
v 0.490332 1.874694 -0.131384
v 0.503286 1.874694 -0.066259
v 0.507629 1.874694 0.000000
v 0.503286 1.874694 0.066259
v 0.490332 1.874694 0.131384
v 0.468988 1.874694 0.194261
v 0.439620 1.874694 0.253815
v 0.402729 1.874694 0.309025
v 0.358948 1.874694 0.358948
v 0.309025 1.874694 0.402729
v 0.253814 1.874694 0.439620
v 0.194261 1.874694 0.468988
v 0.131384 1.874694 0.490332
v 0.066259 1.874694 0.503286
v -0.000000 1.874694 0.507629
v -0.066259 1.874694 0.503286
v -0.131384 1.874694 0.490332
v -0.194261 1.874694 0.468988
v -0.253815 1.874694 0.439620
v -0.309025 1.874694 0.402729
v -0.358948 1.874694 0.358948
v -0.402729 1.874694 0.309025
v -0.439620 1.874694 0.253815
v -0.468988 1.874694 0.194261
v -0.490332 1.874694 0.131384
v -0.503286 1.874694 0.066259
v -0.507629 1.874694 0.000000
v -0.503286 1.874694 -0.066259
v -0.490332 1.874694 -0.131384
v -0.468988 1.874694 -0.194261
v -0.439620 1.874694 -0.253815
v -0.402729 1.874694 -0.309025
v -0.358948 1.874694 -0.358948
v -0.309025 1.874694 -0.402729
v -0.253815 1.874694 -0.439620
v -0.194261 1.874694 -0.468988
v -0.131384 1.874694 -0.490332
v -0.066259 1.874694 -0.503286
v 0.558012 1.756229 -0.201100
v 0.558012 1.569683 -0.201100
v 0.577840 1.569683 -0.101418
v 0.577840 1.756229 -0.101418
v 0.584487 1.569683 0.000000
v 0.584487 1.756229 0.000000
v 0.577840 1.569683 0.101418
v 0.577840 1.756229 0.101418
v 0.558012 1.569683 0.201100
v 0.558012 1.756229 0.201100
v 0.530592 1.826028 -0.095197
v 0.511980 1.826028 -0.188766
v 0.536832 1.826028 -0.000000
v 0.530592 1.826028 0.095197
v 0.511980 1.826028 0.188766
vn 0.0654 -0.0000 -0.9979
vn 0.1951 -0.0000 -0.9808
vn 0.3214 -0.0000 -0.9469
vn 0.4423 -0.0000 -0.8969
vn 0.5556 -0.0000 -0.8315
vn 0.6593 -0.0000 -0.7518
vn 0.7518 -0.0000 -0.6593
vn 0.8315 -0.0000 -0.5556
vn 0.8969 -0.0000 -0.4423
vn 0.9469 -0.0000 -0.3214
vn -0.0000 1.0000 -0.0000
vn -0.0000 -0.0000 1.0000
vn -0.0000 -1.0000 -0.0000
vn -0.0000 -0.1740 -0.9847
vn 0.9469 -0.0000 0.3214
vn 0.8969 -0.0000 0.4423
vn 0.8315 -0.0000 0.5556
vn 0.7518 -0.0000 0.6593
vn 0.6593 -0.0000 0.7518
vn 0.5556 -0.0000 0.8315
vn 0.4423 -0.0000 0.8969
vn 0.3214 -0.0000 0.9469
vn 0.1951 -0.0000 0.9808
vn 0.0654 -0.0000 0.9979
vn -0.0654 -0.0000 0.9979
vn -0.1951 -0.0000 0.9808
vn -0.3214 -0.0000 0.9469
vn -0.4423 -0.0000 0.8969
vn -0.5556 -0.0000 0.8315
vn -0.6593 -0.0000 0.7518
vn -0.7518 -0.0000 0.6593
vn -0.8315 -0.0000 0.5556
vn -0.8969 -0.0000 0.4423
vn -0.9469 -0.0000 0.3214
vn -0.9808 -0.0000 0.1951
vn -0.9979 -0.0000 0.0654
vn -0.9979 -0.0000 -0.0654
vn -0.9808 -0.0000 -0.1951
vn -0.9469 -0.0000 -0.3214
vn -0.8969 -0.0000 -0.4423
vn -0.8315 -0.0000 -0.5556
vn -0.7518 -0.0000 -0.6593
vn -0.6593 -0.0000 -0.7518
vn -0.5556 -0.0000 -0.8315
vn -0.4423 -0.0000 -0.8969
vn -0.3214 -0.0000 -0.9469
vn -0.6213 0.5630 -0.5449
vn -0.1951 -0.0000 -0.9808
vn -0.0654 -0.0000 -0.9979
vn 0.1927 0.9766 -0.0950
vn 0.1612 0.5630 -0.8105
vn -0.0000 -0.1740 0.9847
vn 0.4591 0.5630 0.6872
vn -0.4591 0.5630 0.6872
vn -0.8105 0.5630 -0.1612
vn -0.1612 0.5630 -0.8106
vn 0.6213 0.5630 -0.5449
vn 0.7412 0.5630 0.3655
vn -0.0541 0.5630 0.8247
vn -0.7826 0.5630 0.2656
vn -0.5449 0.5630 -0.6213
vn 0.2656 0.5630 -0.7826
vn 0.3655 0.5630 0.7412
vn -0.5449 0.5630 0.6213
vn -0.7826 0.5630 -0.2656
vn -0.0541 0.5630 -0.8247
vn 0.6872 0.5630 -0.4591
vn 0.6872 0.5630 0.4591
vn -0.1612 0.5630 0.8105
vn -0.8106 0.5630 0.1612
vn -0.4591 0.5630 -0.6872
vn 0.3655 0.5630 -0.7412
vn -0.0000 -0.0000 -1.0000
vn 0.2656 0.5630 0.7826
vn -0.6213 0.5630 0.5449
vn -0.7412 0.5630 -0.3655
vn 0.7412 0.5630 -0.3655
vn 0.6213 0.5630 0.5449
vn -0.2656 0.5630 0.7826
vn -0.8247 0.5630 0.0541
vn -0.3655 0.5630 -0.7412
vn 0.4591 0.5630 -0.6872
vn 0.1612 0.5630 0.8106
vn 0.0541 0.5630 -0.8247
vn -0.6872 0.5630 0.4591
vn -0.6872 0.5630 -0.4591
vn 0.4465 0.8388 0.3116
vn 0.5449 0.5630 0.6213
vn -0.3655 0.5630 0.7412
vn -0.8247 0.5630 -0.0541
vn -0.2656 0.5630 -0.7826
vn 0.5449 0.5630 -0.6213
vn 0.7826 0.5630 0.2656
vn 0.0541 0.5630 0.8247
vn -0.7412 0.5630 0.3655
vn -0.2144 0.9766 0.0141
vn 0.0419 0.9766 0.2107
vn 0.3265 0.9387 -0.1108
vn -0.2144 0.9766 -0.0141
vn 0.0141 0.9766 0.2144
vn 0.8242 0.5421 -0.1639
vn -0.2107 0.9766 -0.0419
vn -0.0141 0.9766 0.2144
vn 0.8642 0.4999 -0.0566
vn -0.2034 0.9766 -0.0691
vn -0.0419 0.9766 0.2107
vn 0.8642 0.4999 0.0566
vn -0.1927 0.9766 -0.0950
vn -0.0691 0.9766 0.2034
vn 0.5090 0.7387 -0.4419
vn -0.1786 0.9766 -0.1194
vn 0.0141 0.9766 -0.2144
vn -0.0950 0.9766 0.1927
vn 0.3095 0.9261 -0.2160
vn -0.1615 0.9766 -0.1417
vn 0.0419 0.9766 -0.2107
vn -0.1194 0.9766 0.1786
vn 0.1927 0.9766 0.0950
vn -0.1417 0.9766 -0.1615
vn 0.0691 0.9766 -0.2034
vn -0.1417 0.9766 0.1615
vn 0.1786 0.9766 0.1194
vn -0.1194 0.9766 -0.1786
vn 0.0950 0.9766 -0.1927
vn -0.1615 0.9766 0.1417
vn 0.1615 0.9766 0.1417
vn -0.0950 0.9766 -0.1927
vn 0.1194 0.9766 -0.1786
vn -0.1786 0.9766 0.1194
vn 0.1417 0.9766 0.1615
vn -0.0691 0.9766 -0.2034
vn 0.1417 0.9766 -0.1615
vn -0.1927 0.9766 0.0950
vn 0.1194 0.9766 0.1786
vn -0.0419 0.9766 -0.2107
vn 0.1615 0.9766 -0.1417
vn -0.2034 0.9766 0.0691
vn 0.0950 0.9766 0.1927
vn -0.0141 0.9766 -0.2144
vn 0.1786 0.9766 -0.1194
vn -0.2107 0.9766 0.0419
vn 0.0691 0.9766 0.2034
vn 0.9808 -0.0000 -0.1951
vn 0.9979 -0.0000 -0.0654
vn 0.9979 -0.0000 0.0654
vn 0.9808 -0.0000 0.1951
vn 0.8106 0.5630 -0.1612
vn 0.8247 0.5630 -0.0541
vn 0.8247 0.5630 0.0541
vn 0.8105 0.5630 0.1612
vn 0.1612 0.5630 -0.8106
vn -0.8106 0.5630 -0.1612
vn -0.1612 0.5630 -0.8105
vn -0.1612 0.5630 0.8106
vn -0.8105 0.5630 0.1612
vn 0.1612 0.5630 0.8105
vn 0.7826 0.5630 -0.2656
vn 0.4465 0.8388 -0.3116
vn 0.3095 0.9261 0.2160
vn 0.5090 0.7387 0.4419
vn -0.0140 0.9766 0.2144
vn 0.8242 0.5421 0.1639
vn 0.0140 0.9766 -0.2144
vn 0.3265 0.9387 0.1108
vn 0.8105 0.5630 -0.1612
vn 0.8106 0.5630 0.1612
vt 0.518981 0.578315
vt 0.580196 0.578315
vt 0.518981 0.611382
vt 0.580196 0.611382
vt 0.518981 0.643598
vt 0.580196 0.643598
vt 0.518981 0.674411
vt 0.580196 0.674411
vt 0.518981 0.703295
vt 0.580196 0.703295
vt 0.518981 0.729754
vt 0.580196 0.729754
vt 0.518981 0.753338
vt 0.518981 0.003376
vt 0.580196 0.753338
vt 0.580196 0.003376
vt 0.518981 0.026959
vt 0.580196 0.026959
vt 0.518981 0.053419
vt 0.580196 0.053419
vt 0.518981 0.082303
vt 0.580196 0.082303
vt 0.518981 0.113116
vt 0.580196 0.113116
vt 0.518981 0.244817
vt 0.580196 0.244817
vt 0.518981 0.277032
vt 0.580196 0.277032
vt 0.518981 0.307846
vt 0.580196 0.307846
vt 0.518981 0.336729
vt 0.580196 0.336729
vt 0.518981 0.363189
vt 0.580196 0.363189
vt 0.671068 0.003376
vt 0.609853 0.026959
vt 0.518981 0.386773
vt 0.580196 0.386773
vt 0.671068 0.026959
vt 0.609853 0.053419
vt 0.671068 0.053419
vt 0.609853 0.082303
vt 0.671068 0.082303
vt 0.609853 0.113116
vt 0.671068 0.113116
vt 0.609853 0.145332
vt 0.671068 0.145332
vt 0.609853 0.178398
vt 0.671068 0.178398
vt 0.609853 0.211750
vt 0.671068 0.211750
vt 0.609853 0.244817
vt 0.671068 0.244817
vt 0.609853 0.277032
vt 0.671068 0.277032
vt 0.609853 0.307846
vt 0.671068 0.307846
vt 0.609853 0.336729
vt 0.671068 0.336729
vt 0.609853 0.363189
vt 0.671068 0.363189
vt 0.609853 0.393524
vt 0.609853 0.386773
vt 0.671068 0.386773
vt 0.671068 0.393524
vt 0.609853 0.419984
vt 0.671068 0.419984
vt 0.609853 0.448868
vt 0.671068 0.448868
vt 0.609853 0.479681
vt 0.671068 0.479681
vt 0.609853 0.511897
vt 0.671068 0.511897
vt 0.609853 0.544963
vt 0.671068 0.544963
vt 0.609853 0.578315
vt 0.671068 0.578315
vt 0.609853 0.611382
vt 0.671068 0.611382
vt 0.609853 0.643598
vt 0.671068 0.643598
vt 0.609853 0.674411
vt 0.671068 0.674411
vt 0.609853 0.703295
vt 0.671068 0.703295
vt 0.518981 0.393524
vt 0.609853 0.729754
vt 0.671068 0.729754
vt 0.580196 0.393524
vt 0.518981 0.419984
vt 0.580196 0.419984
vt 0.518981 0.448868
vt 0.580196 0.448868
vt 0.518981 0.479681
vt 0.580196 0.479681
vt 0.518981 0.511897
vt 0.580196 0.511897
vt 0.518981 0.544963
vt 0.580196 0.544963
vt 0.603101 0.608331
vt 0.015565 0.834734
vt 0.603101 0.577293
vt 0.007462 0.804494
vt 0.603101 0.638571
vt 0.027545 0.863657
vt 0.603101 0.667494
vt 0.043198 0.890769
vt 0.603101 0.694606
vt 0.062257 0.915606
vt 0.603101 0.719443
vt 0.084394 0.937744
vt 0.603101 0.015133
vt 0.603101 0.741580
vt 0.109231 0.956802
vt 0.603101 0.037270
vt 0.136343 0.972455
vt 0.165266 0.984435
vt 0.603101 0.062107
vt 0.603101 0.089219
vt 0.195506 0.992538
vt 0.603101 0.118143
vt 0.226544 0.996624
vt 0.257851 0.996624
vt 0.288889 0.992538
vt 0.319129 0.984435
vt 0.603101 0.241766
vt 0.348053 0.972455
vt 0.603101 0.272006
vt 0.375165 0.956802
vt 0.603101 0.300929
vt 0.400002 0.937743
vt 0.603101 0.328041
vt 0.422139 0.915606
vt 0.603101 0.352878
vt 0.693973 0.015133
vt 0.441197 0.890769
vt 0.693973 0.037270
vt 0.456850 0.863657
vt 0.693973 0.062107
vt 0.468831 0.834734
vt 0.693973 0.089219
vt 0.476933 0.804494
vt 0.693973 0.118143
vt 0.481020 0.773456
vt 0.693973 0.148382
vt 0.481020 0.742149
vt 0.693973 0.179421
vt 0.476933 0.711110
vt 0.693973 0.210727
vt 0.468831 0.680871
vt 0.693973 0.241766
vt 0.456850 0.651947
vt 0.693973 0.272006
vt 0.441197 0.624835
vt 0.693973 0.300929
vt 0.422139 0.599998
vt 0.693973 0.328041
vt 0.400002 0.577861
vt 0.693973 0.352878
vt 0.375165 0.558803
vt 0.693973 0.375015
vt 0.693973 0.403835
vt 0.348052 0.543150
vt 0.693973 0.428672
vt 0.319129 0.531169
vt 0.693973 0.455784
vt 0.288889 0.523067
vt 0.693973 0.484708
vt 0.257851 0.518980
vt 0.693973 0.514947
vt 0.226544 0.518980
vt 0.693973 0.545986
vt 0.195506 0.523067
vt 0.693973 0.577293
vt 0.165266 0.531169
vt 0.693973 0.608331
vt 0.136343 0.543150
vt 0.693973 0.638571
vt 0.109230 0.558803
vt 0.693973 0.667494
vt 0.084393 0.577861
vt 0.693973 0.694606
vt 0.062256 0.599998
vt 0.693973 0.719443
vt 0.603101 0.403835
vt 0.043198 0.624835
vt 0.603101 0.428672
vt 0.027545 0.651948
vt 0.603101 0.455784
vt 0.015565 0.680871
vt 0.603101 0.484708
vt 0.007462 0.711111
vt 0.603101 0.514948
vt 0.003376 0.742149
vt 0.603101 0.545986
vt 0.003376 0.773456
vt 0.084458 0.811348
vt 0.078818 0.790301
vt 0.092796 0.831479
vt 0.103691 0.850350
vt 0.116956 0.867636
vt 0.132363 0.883044
vt 0.149651 0.896309
vt 0.168521 0.907204
vt 0.188652 0.915542
vt 0.209699 0.921182
vt 0.231303 0.924026
vt 0.253093 0.924026
vt 0.274696 0.921182
vt 0.295743 0.915542
vt 0.315874 0.907204
vt 0.334745 0.896309
vt 0.352032 0.883044
vt 0.367439 0.867636
vt 0.380704 0.850349
vt 0.391599 0.831479
vt 0.399938 0.811348
vt 0.405577 0.790301
vt 0.408421 0.768697
vt 0.408421 0.746907
vt 0.405577 0.725304
vt 0.399938 0.704257
vt 0.391599 0.684126
vt 0.380704 0.665255
vt 0.367439 0.647968
vt 0.352032 0.632561
vt 0.334745 0.619296
vt 0.315874 0.608401
vt 0.295743 0.600062
vt 0.274696 0.594423
vt 0.253092 0.591579
vt 0.231303 0.591579
vt 0.209699 0.594423
vt 0.188652 0.600062
vt 0.168521 0.608401
vt 0.149650 0.619296
vt 0.132363 0.632561
vt 0.116956 0.647968
vt 0.103691 0.665255
vt 0.092796 0.684126
vt 0.084458 0.704257
vt 0.078818 0.725304
vt 0.075974 0.746908
vt 0.075974 0.768697
vt 0.580196 0.113116
vt 0.518981 0.113116
vt 0.518981 0.145332
vt 0.580196 0.145332
vt 0.518981 0.178398
vt 0.580196 0.178398
vt 0.518981 0.211750
vt 0.580196 0.211750
vt 0.518981 0.244817
vt 0.580196 0.244817
vt 0.257851 0.996624
vt 0.603101 0.148382
vt 0.226544 0.996624
vt 0.603101 0.118143
vt 0.288889 0.992538
vt 0.603101 0.179421
vt 0.319129 0.984435
vt 0.603101 0.210727
vt 0.603101 0.241766
vt 0.348053 0.972455
s 0
f 2/2/1 3/3/1 1/1/1
f 4/4/2 5/5/2 3/3/2
f 6/6/3 7/7/3 5/5/3
f 8/8/4 9/9/4 7/7/4
f 10/10/5 11/11/5 9/9/5
f 12/12/6 13/13/6 11/11/6
f 14/16/7 15/17/7 13/14/7
f 16/18/8 17/19/8 15/17/8
f 18/20/9 19/21/9 17/19/9
f 20/22/10 21/23/10 19/21/10
f 103/124/11 200/261/11 199/259/11
f 22/24/12 188/246/12 21/23/12
f 195/253/13 45/50/13 77/84/13
f 105/126/14 196/254/14 201/263/14
f 24/26/15 25/27/15 23/25/15
f 26/28/16 27/29/16 25/27/16
f 28/30/17 29/31/17 27/29/17
f 30/32/18 31/33/18 29/31/18
f 32/34/19 33/37/19 31/33/19
f 34/39/20 35/40/20 33/36/20
f 36/41/21 37/42/21 35/40/21
f 38/43/22 39/44/22 37/42/22
f 40/45/23 41/46/23 39/44/23
f 42/47/24 43/48/24 41/46/24
f 44/49/25 45/50/25 43/48/25
f 46/51/26 47/52/26 45/50/26
f 48/53/27 49/54/27 47/52/27
f 50/55/28 51/56/28 49/54/28
f 52/57/29 53/58/29 51/56/29
f 54/59/30 55/60/30 53/58/30
f 56/61/31 57/63/31 55/60/31
f 58/65/32 59/66/32 57/62/32
f 60/67/33 61/68/33 59/66/33
f 62/69/34 63/70/34 61/68/34
f 64/71/35 65/72/35 63/70/35
f 66/73/36 67/74/36 65/72/36
f 68/75/37 69/76/37 67/74/37
f 70/77/38 71/78/38 69/76/38
f 72/79/39 73/80/39 71/78/39
f 74/81/40 75/82/40 73/80/40
f 76/83/41 77/84/41 75/82/41
f 78/85/42 79/87/42 77/84/42
f 80/89/43 81/90/43 79/86/43
f 82/91/44 83/92/44 81/90/44
f 84/93/45 85/94/45 83/92/45
f 86/95/46 87/96/46 85/94/46
f 78/85/47 133/184/47 80/88/47
f 88/97/48 89/98/48 87/96/48
f 90/99/49 1/1/49 89/98/49
f 99/117/50 148/206/50 100/120/50
f 4/4/51 93/104/51 6/6/51
f 101/121/52 187/245/52 22/24/52
f 34/39/53 111/139/53 36/41/53
f 52/57/54 120/157/54 54/59/54
f 72/79/55 128/174/55 129/176/55
f 88/97/56 138/195/56 90/99/56
f 14/16/57 98/115/57 16/18/57
f 26/28/58 107/130/58 28/30/58
f 44/49/59 116/149/59 46/51/59
f 62/69/60 125/168/60 64/71/60
f 80/89/61 134/187/61 82/91/61
f 6/6/62 94/106/62 8/8/62
f 103/124/11 197/255/11 102/123/11
f 36/41/63 112/141/63 38/43/63
f 54/59/64 121/159/64 56/61/64
f 72/79/65 130/178/65 74/81/65
f 90/99/66 92/102/66 2/2/66
f 16/18/67 99/118/67 18/20/67
f 28/30/68 108/132/68 30/32/68
f 48/53/69 116/149/69 117/151/69
f 64/71/70 126/170/70 66/73/70
f 82/91/71 135/189/71 84/93/71
f 8/8/72 95/108/72 10/10/72
f 23/25/73 196/254/73 24/26/73
f 38/43/74 113/143/74 40/45/74
f 56/61/75 122/161/75 58/64/75
f 74/81/76 131/180/76 76/83/76
f 18/20/77 100/119/77 20/22/77
f 30/32/78 109/134/78 32/34/78
f 48/53/79 118/153/79 50/55/79
f 68/75/80 126/170/80 127/172/80
f 84/93/81 136/191/81 86/95/81
f 10/10/82 96/110/82 12/12/82
f 101/122/13 197/255/13 198/257/13
f 42/47/83 113/143/83 114/145/83
f 2/2/84 91/100/84 4/4/84
f 58/65/85 123/164/85 60/67/85
f 76/83/86 132/182/86 78/85/86
f 22/24/87 100/119/87 101/121/87
f 32/35/88 110/137/88 34/39/88
f 50/55/89 119/155/89 52/57/89
f 68/75/90 128/174/90 70/77/90
f 86/95/91 137/193/91 88/97/91
f 12/12/92 97/113/92 14/15/92
f 24/26/93 106/128/93 26/28/93
f 44/49/94 114/145/94 115/147/94
f 60/67/95 124/166/95 62/69/95
f 173/231/11 157/215/11 141/199/11
f 126/171/96 175/233/96 127/173/96
f 113/144/97 162/220/97 114/146/97
f 101/122/98 148/206/98 149/207/98
f 127/173/99 176/234/99 128/175/99
f 114/146/100 163/221/100 115/148/100
f 102/123/101 149/207/101 150/208/101
f 129/177/102 176/234/102 177/235/102
f 115/148/103 164/222/103 116/150/103
f 103/124/104 150/208/104 151/209/104
f 129/177/105 178/236/105 130/179/105
f 116/150/106 165/223/106 117/152/106
f 103/124/107 152/210/107 104/125/107
f 130/179/108 179/237/108 131/181/108
f 117/152/109 166/224/109 118/154/109
f 104/125/110 153/211/110 105/127/110
f 132/183/111 179/237/111 180/238/111
f 92/103/112 139/197/112 91/101/112
f 118/154/113 167/225/113 119/156/113
f 105/127/114 154/212/114 106/129/114
f 132/183/115 181/239/115 133/186/115
f 93/105/116 139/197/116 141/199/116
f 120/158/117 167/225/117 168/226/117
f 106/129/118 155/213/118 107/131/118
f 133/186/119 182/240/119 134/188/119
f 93/105/120 142/200/120 94/107/120
f 120/158/121 169/227/121 121/160/121
f 108/133/122 155/213/122 156/214/122
f 134/188/123 183/241/123 135/190/123
f 94/107/124 143/201/124 95/109/124
f 121/160/125 170/228/125 122/163/125
f 108/133/126 157/215/126 109/136/126
f 135/190/127 184/242/127 136/192/127
f 96/111/128 143/201/128 144/202/128
f 122/163/129 171/229/129 123/165/129
f 109/136/130 158/216/130 110/138/130
f 137/194/131 184/242/131 185/243/131
f 96/111/132 145/203/132 97/114/132
f 123/165/133 172/230/133 124/167/133
f 110/138/134 159/217/134 111/140/134
f 137/194/135 186/244/135 138/196/135
f 97/114/136 146/204/136 98/116/136
f 125/169/137 172/230/137 173/231/137
f 111/140/138 160/218/138 112/142/138
f 138/196/139 140/198/139 92/103/139
f 98/116/140 147/205/140 99/117/140
f 125/169/141 174/232/141 126/171/141
f 112/142/142 161/219/142 113/144/142
f 187/245/143 189/247/143 188/246/143
f 190/248/144 191/249/144 189/247/144
f 192/250/145 193/251/145 191/249/145
f 194/252/146 195/253/146 193/251/146
f 187/245/147 197/256/147 190/248/147
f 192/250/148 197/256/148 199/260/148
f 192/250/149 200/262/149 194/252/149
f 196/254/150 200/262/150 201/263/150
f 104/125/11 201/264/11 200/261/11
f 2/2/1 4/4/1 3/3/1
f 4/4/2 6/6/2 5/5/2
f 6/6/3 8/8/3 7/7/3
f 8/8/4 10/10/4 9/9/4
f 10/10/5 12/12/5 11/11/5
f 12/12/6 14/15/6 13/13/6
f 14/16/7 16/18/7 15/17/7
f 16/18/8 18/20/8 17/19/8
f 18/20/9 20/22/9 19/21/9
f 20/22/10 22/24/10 21/23/10
f 103/124/11 104/125/11 200/261/11
f 22/24/12 187/245/12 188/246/12
f 89/98/13 1/1/13 3/3/13
f 3/3/13 5/5/13 7/7/13
f 7/7/13 9/9/13 11/11/13
f 11/11/13 13/14/13 15/17/13
f 15/17/13 17/19/13 19/21/13
f 19/21/13 21/23/13 188/246/13
f 188/246/13 189/247/13 191/249/13
f 191/249/13 193/251/13 195/253/13
f 195/253/13 23/25/13 25/27/13
f 25/27/13 27/29/13 29/31/13
f 29/31/13 31/33/13 33/36/13
f 33/36/13 35/40/13 37/42/13
f 37/42/13 39/44/13 41/46/13
f 41/46/13 43/48/13 45/50/13
f 45/50/13 47/52/13 49/54/13
f 49/54/13 51/56/13 53/58/13
f 53/58/13 55/60/13 57/62/13
f 57/62/13 59/66/13 61/68/13
f 61/68/13 63/70/13 65/72/13
f 65/72/13 67/74/13 69/76/13
f 69/76/13 71/78/13 73/80/13
f 73/80/13 75/82/13 77/84/13
f 77/84/13 79/86/13 81/90/13
f 81/90/13 83/92/13 85/94/13
f 85/94/13 87/96/13 89/98/13
f 89/98/13 3/3/13 7/7/13
f 7/7/13 11/11/13 15/17/13
f 15/17/13 19/21/13 188/246/13
f 188/246/13 191/249/13 195/253/13
f 195/253/13 25/27/13 29/31/13
f 29/31/13 33/36/13 37/42/13
f 37/42/13 41/46/13 45/50/13
f 45/50/13 49/54/13 53/58/13
f 53/58/13 57/62/13 61/68/13
f 61/68/13 65/72/13 69/76/13
f 69/76/13 73/80/13 77/84/13
f 77/84/13 81/90/13 85/94/13
f 85/94/13 89/98/13 7/7/13
f 7/7/13 15/17/13 188/246/13
f 195/253/13 29/31/13 37/42/13
f 7/7/13 188/246/13 195/253/13
f 77/84/13 85/94/13 7/7/13
f 61/68/13 69/76/13 77/84/13
f 45/50/13 53/58/13 61/68/13
f 195/253/13 37/42/13 45/50/13
f 77/84/13 7/7/13 195/253/13
f 45/50/13 61/68/13 77/84/13
f 105/126/14 24/26/14 196/254/14
f 24/26/15 26/28/15 25/27/15
f 26/28/16 28/30/16 27/29/16
f 28/30/17 30/32/17 29/31/17
f 30/32/18 32/34/18 31/33/18
f 32/34/19 34/38/19 33/37/19
f 34/39/20 36/41/20 35/40/20
f 36/41/21 38/43/21 37/42/21
f 38/43/22 40/45/22 39/44/22
f 40/45/23 42/47/23 41/46/23
f 42/47/24 44/49/24 43/48/24
f 44/49/25 46/51/25 45/50/25
f 46/51/26 48/53/26 47/52/26
f 48/53/27 50/55/27 49/54/27
f 50/55/28 52/57/28 51/56/28
f 52/57/29 54/59/29 53/58/29
f 54/59/30 56/61/30 55/60/30
f 56/61/31 58/64/31 57/63/31
f 58/65/32 60/67/32 59/66/32
f 60/67/33 62/69/33 61/68/33
f 62/69/34 64/71/34 63/70/34
f 64/71/35 66/73/35 65/72/35
f 66/73/36 68/75/36 67/74/36
f 68/75/37 70/77/37 69/76/37
f 70/77/38 72/79/38 71/78/38
f 72/79/39 74/81/39 73/80/39
f 74/81/40 76/83/40 75/82/40
f 76/83/41 78/85/41 77/84/41
f 78/85/42 80/88/42 79/87/42
f 80/89/43 82/91/43 81/90/43
f 82/91/44 84/93/44 83/92/44
f 84/93/45 86/95/45 85/94/45
f 86/95/46 88/97/46 87/96/46
f 78/85/47 132/182/47 133/184/47
f 88/97/48 90/99/48 89/98/48
f 90/99/49 2/2/49 1/1/49
f 99/117/50 147/205/50 148/206/50
f 4/4/151 91/100/151 93/104/151
f 101/121/52 198/258/52 187/245/52
f 34/39/53 110/137/53 111/139/53
f 52/57/54 119/155/54 120/157/54
f 72/79/152 70/77/152 128/174/152
f 88/97/153 137/193/153 138/195/153
f 14/16/57 97/112/57 98/115/57
f 26/28/58 106/128/58 107/130/58
f 44/49/59 115/147/59 116/149/59
f 62/69/60 124/166/60 125/168/60
f 80/89/61 133/185/61 134/187/61
f 6/6/62 93/104/62 94/106/62
f 103/124/11 199/259/11 197/255/11
f 36/41/63 111/139/63 112/141/63
f 54/59/64 120/157/64 121/159/64
f 72/79/65 129/176/65 130/178/65
f 90/99/66 138/195/66 92/102/66
f 16/18/67 98/115/67 99/118/67
f 28/30/68 107/130/68 108/132/68
f 48/53/154 46/51/154 116/149/154
f 64/71/155 125/168/155 126/170/155
f 82/91/71 134/187/71 135/189/71
f 8/8/72 94/106/72 95/108/72
f 23/25/73 195/253/73 196/254/73
f 38/43/74 112/141/74 113/143/74
f 56/61/75 121/159/75 122/161/75
f 74/81/76 130/178/76 131/180/76
f 18/20/77 99/118/77 100/119/77
f 30/32/78 108/132/78 109/134/78
f 48/53/79 117/151/79 118/153/79
f 68/75/80 66/73/80 126/170/80
f 84/93/81 135/189/81 136/191/81
f 10/10/82 95/108/82 96/110/82
f 101/122/11 102/123/11 197/255/11
f 42/47/156 40/45/156 113/143/156
f 2/2/84 92/102/84 91/100/84
f 58/65/85 122/162/85 123/164/85
f 76/83/86 131/180/86 132/182/86
f 22/24/157 20/22/157 100/119/157
f 32/35/88 109/135/88 110/137/88
f 50/55/89 118/153/89 119/155/89
f 68/75/90 127/172/90 128/174/90
f 86/95/91 136/191/91 137/193/91
f 12/12/92 96/110/92 97/113/92
f 24/26/158 105/126/158 106/128/158
f 44/49/94 42/47/94 114/145/94
f 60/67/95 123/164/95 124/166/95
f 141/199/11 139/197/11 140/198/11
f 140/198/11 186/244/11 185/243/11
f 185/243/11 184/242/11 183/241/11
f 183/241/11 182/240/11 181/239/11
f 181/239/11 180/238/11 179/237/11
f 179/237/11 178/236/11 177/235/11
f 177/235/11 176/234/11 175/233/11
f 175/233/11 174/232/11 173/231/11
f 173/231/11 172/230/11 171/229/11
f 171/229/11 170/228/11 169/227/11
f 169/227/11 168/226/11 167/225/11
f 167/225/11 166/224/11 165/223/11
f 165/223/11 164/222/11 163/221/11
f 163/221/11 162/220/11 161/219/11
f 161/219/11 160/218/11 159/217/11
f 159/217/11 158/216/11 157/215/11
f 157/215/11 156/214/11 155/213/11
f 155/213/11 154/212/11 153/211/11
f 153/211/11 152/210/11 151/209/11
f 151/209/11 150/208/11 149/207/11
f 149/207/11 148/206/11 147/205/11
f 147/205/11 146/204/11 145/203/11
f 145/203/11 144/202/11 143/201/11
f 143/201/11 142/200/11 141/199/11
f 141/199/11 140/198/11 185/243/11
f 185/243/11 183/241/11 181/239/11
f 181/239/11 179/237/11 177/235/11
f 177/235/11 175/233/11 173/231/11
f 173/231/11 171/229/11 169/227/11
f 169/227/11 167/225/11 165/223/11
f 165/223/11 163/221/11 161/219/11
f 161/219/11 159/217/11 157/215/11
f 157/215/11 155/213/11 153/211/11
f 153/211/11 151/209/11 149/207/11
f 149/207/11 147/205/11 145/203/11
f 145/203/11 143/201/11 141/199/11
f 141/199/11 185/243/11 181/239/11
f 181/239/11 177/235/11 173/231/11
f 173/231/11 169/227/11 165/223/11
f 165/223/11 161/219/11 157/215/11
f 157/215/11 153/211/11 149/207/11
f 149/207/11 145/203/11 141/199/11
f 141/199/11 181/239/11 173/231/11
f 173/231/11 165/223/11 157/215/11
f 157/215/11 149/207/11 141/199/11
f 126/171/96 174/232/96 175/233/96
f 113/144/97 161/219/97 162/220/97
f 101/122/159 100/120/159 148/206/159
f 127/173/99 175/233/99 176/234/99
f 114/146/100 162/220/100 163/221/100
f 102/123/160 101/122/160 149/207/160
f 129/177/102 128/175/102 176/234/102
f 115/148/161 163/221/161 164/222/161
f 103/124/104 102/123/104 150/208/104
f 129/177/105 177/235/105 178/236/105
f 116/150/106 164/222/106 165/223/106
f 103/124/107 151/209/107 152/210/107
f 130/179/108 178/236/108 179/237/108
f 117/152/109 165/223/109 166/224/109
f 104/125/162 152/210/162 153/211/162
f 132/183/111 131/181/111 179/237/111
f 92/103/163 140/198/163 139/197/163
f 118/154/113 166/224/113 167/225/113
f 105/127/164 153/211/164 154/212/164
f 132/183/115 180/238/115 181/239/115
f 93/105/116 91/101/116 139/197/116
f 120/158/117 119/156/117 167/225/117
f 106/129/118 154/212/118 155/213/118
f 133/186/119 181/239/119 182/240/119
f 93/105/120 141/199/120 142/200/120
f 120/158/121 168/226/121 169/227/121
f 108/133/122 107/131/122 155/213/122
f 134/188/123 182/240/123 183/241/123
f 94/107/124 142/200/124 143/201/124
f 121/160/125 169/227/125 170/228/125
f 108/133/126 156/214/126 157/215/126
f 135/190/127 183/241/127 184/242/127
f 96/111/128 95/109/128 143/201/128
f 122/163/129 170/228/129 171/229/129
f 109/136/130 157/215/130 158/216/130
f 137/194/131 136/192/131 184/242/131
f 96/111/132 144/202/132 145/203/132
f 123/165/133 171/229/133 172/230/133
f 110/138/134 158/216/134 159/217/134
f 137/194/135 185/243/135 186/244/135
f 97/114/136 145/203/136 146/204/136
f 125/169/137 124/167/137 172/230/137
f 111/140/138 159/217/138 160/218/138
f 138/196/139 186/244/139 140/198/139
f 98/116/140 146/204/140 147/205/140
f 125/169/141 173/231/141 174/232/141
f 112/142/142 160/218/142 161/219/142
f 187/245/143 190/248/143 189/247/143
f 190/248/144 192/250/144 191/249/144
f 192/250/145 194/252/145 193/251/145
f 194/252/146 196/254/146 195/253/146
f 187/245/165 198/258/165 197/256/165
f 192/250/148 190/248/148 197/256/148
f 192/250/149 199/260/149 200/262/149
f 196/254/166 194/252/166 200/262/166
f 104/125/13 105/127/13 201/264/13
