# Blender 3.3.1
# www.blender.org
o cup
v 0.000000 0.270772 -0.694344
v 0.000000 1.791612 -0.694344
v 0.135460 0.270772 -0.681002
v 0.135460 1.791612 -0.681002
v 0.265714 0.270772 -0.641490
v 0.265714 1.791612 -0.641490
v 0.385757 0.270772 -0.577326
v 0.385757 1.791612 -0.577326
v 0.490975 0.270772 -0.490975
v 0.490975 1.791612 -0.490975
v 0.577326 0.270772 -0.385757
v 0.577326 1.791612 -0.385757
v 0.641490 0.270772 -0.265714
v 0.641490 1.791612 -0.265714
v 0.681002 0.270772 -0.135460
v 0.681002 1.791612 -0.135460
v 0.694344 0.270772 0.000000
v 0.694344 1.791612 0.000000
v 0.681002 0.270772 0.135460
v 0.681002 1.791612 0.135460
v 0.641490 0.270772 0.265714
v 0.641490 1.791612 0.265714
v 0.577326 0.270772 0.385757
v 0.577326 1.791612 0.385757
v 0.490975 0.270772 0.490975
v 0.490975 1.791612 0.490975
v 0.385757 0.270772 0.577326
v 0.385757 1.791612 0.577326
v 0.265714 0.270772 0.641490
v 0.265714 1.791612 0.641490
v 0.135460 0.270772 0.681002
v 0.135460 1.791612 0.681002
v 0.000000 0.270772 0.694344
v 0.000000 1.791612 0.694344
v -0.135460 0.270772 0.681002
v -0.135460 1.791612 0.681002
v -0.265714 0.270772 0.641490
v -0.265714 1.791612 0.641490
v -0.385757 0.270772 0.577326
v -0.385757 1.791612 0.577326
v -0.490975 0.270772 0.490975
v -0.490975 1.791612 0.490975
v -0.577326 0.270772 0.385757
v -0.577326 1.791612 0.385757
v -0.641490 0.270772 0.265714
v -0.641490 1.791612 0.265714
v -0.681002 0.270772 0.135460
v -0.681002 1.791612 0.135460
v -0.694344 0.270772 0.000000
v -0.694344 1.791612 0.000000
v -0.681002 0.270772 -0.135460
v -0.681002 1.791612 -0.135460
v -0.641490 0.270772 -0.265714
v -0.641490 1.791612 -0.265714
v -0.577326 0.270772 -0.385757
v -0.577326 1.791612 -0.385757
v -0.490975 0.270772 -0.490975
v -0.490975 1.791612 -0.490975
v -0.385757 0.270772 -0.577326
v -0.385757 1.791612 -0.577326
v -0.265714 0.270772 -0.641490
v -0.265714 1.791612 -0.641490
v -0.135460 0.270772 -0.681002
v -0.135460 1.791612 -0.681002
v 0.118357 1.791612 -0.595020
v 0.000000 1.791612 -0.606678
v 0.232165 1.791612 -0.560497
v 0.337052 1.791612 -0.504434
v 0.428986 1.791612 -0.428986
v 0.504434 1.791612 -0.337052
v 0.560497 1.791612 -0.232165
v 0.595020 1.791612 -0.118357
v 0.606678 1.791612 -0.000000
v 0.595020 1.791612 0.118357
v 0.560497 1.791612 0.232165
v 0.504434 1.791612 0.337052
v 0.428986 1.791612 0.428986
v 0.337052 1.791612 0.504434
v 0.232165 1.791612 0.560497
v 0.118357 1.791612 0.595020
v 0.000000 1.791612 0.606678
v -0.118357 1.791612 0.595020
v -0.232165 1.791612 0.560497
v -0.337052 1.791612 0.504434
v -0.428986 1.791612 0.428986
v -0.504434 1.791612 0.337052
v -0.560497 1.791612 0.232165
v -0.595020 1.791612 0.118357
v -0.606678 1.791612 -0.000000
v -0.595020 1.791612 -0.118357
v -0.560497 1.791612 -0.232165
v -0.504434 1.791612 -0.337052
v -0.428986 1.791612 -0.428986
v -0.337052 1.791612 -0.504434
v -0.232165 1.791612 -0.560497
v -0.118357 1.791612 -0.595020
v 0.118357 0.331348 -0.595020
v -0.000000 0.331348 -0.606678
v 0.232165 0.331348 -0.560497
v 0.337052 0.331348 -0.504434
v 0.428986 0.331348 -0.428986
v 0.504434 0.331348 -0.337052
v 0.560497 0.331348 -0.232165
v 0.595020 0.331348 -0.118357
v 0.606677 0.331348 -0.000000
v 0.595020 0.331348 0.118357
v 0.560497 0.331348 0.232165
v 0.504434 0.331348 0.337052
v 0.428986 0.331348 0.428986
v 0.337052 0.331348 0.504434
v 0.232165 0.331348 0.560497
v 0.118357 0.331348 0.595020
v -0.000000 0.331348 0.606678
v -0.118357 0.331348 0.595020
v -0.232166 0.331348 0.560497
v -0.337052 0.331348 0.504434
v -0.428986 0.331348 0.428986
v -0.504434 0.331348 0.337052
v -0.560497 0.331348 0.232165
v -0.595021 0.331348 0.118357
v -0.606678 0.331348 -0.000000
v -0.595021 0.331348 -0.118357
v -0.560497 0.331348 -0.232165
v -0.504434 0.331348 -0.337052
v -0.428986 0.331348 -0.428986
v -0.337052 0.331348 -0.504434
v -0.232166 0.331348 -0.560497
v -0.118357 0.331348 -0.595020
v 0.000000 1.612553 -0.694344
v 0.135460 1.612553 -0.681002
v 0.265714 1.612553 -0.641490
v 0.385757 1.612553 -0.577326
v 0.490975 1.612553 -0.490975
v 0.577326 1.612553 -0.385757
v 0.641490 1.612553 -0.265714
v 0.681002 1.612553 -0.135460
v 0.694344 1.612553 0.000000
v 0.681002 1.612553 0.135460
v 0.641490 1.612553 0.265714
v 0.577326 1.612553 0.385757
v 0.490975 1.612553 0.490975
v 0.385757 1.612553 0.577326
v 0.265714 1.612553 0.641490
v 0.135460 1.612553 0.681002
v 0.000000 1.612553 0.694344
v -0.135460 1.612553 0.681002
v -0.265714 1.612553 0.641490
v -0.385757 1.612553 0.577326
v -0.490975 1.612553 0.490975
v -0.577326 1.612553 0.385757
v -0.641490 1.612553 0.265714
v -0.681002 1.612553 0.135460
v -0.694344 1.612553 0.000000
v -0.681002 1.612553 -0.135460
v -0.641490 1.612553 -0.265714
v -0.577326 1.612553 -0.385757
v -0.490975 1.612553 -0.490975
v -0.385757 1.612553 -0.577326
v -0.265714 1.612553 -0.641490
v -0.135460 1.612553 -0.681002
v 0.951181 1.791612 0.005751
v 0.937840 1.791612 -0.129708
v 0.937840 1.791612 0.141211
v 0.996235 1.612553 -0.135460
v 1.009576 1.612553 0.000000
v 0.996235 1.612553 0.135460
v 0.838618 1.612553 -0.135460
v 0.851960 1.612553 0.000000
v 0.851960 1.791612 0.000000
v 0.838618 1.791612 -0.135460
v 0.838618 1.612553 0.135460
v 0.838618 1.791612 0.135460
v 0.838618 1.042785 -0.135460
v 0.923117 1.042785 -0.128258
v 0.936458 1.042785 0.007202
v 0.923117 1.042785 0.142661
v 0.851960 1.042785 0.000000
v 0.838618 1.042785 0.135460
vn 0.0980 -0.0000 -0.9952
vn 0.2903 -0.0000 -0.9569
vn 0.4714 -0.0000 -0.8819
vn 0.6344 -0.0000 -0.7730
vn 0.7730 -0.0000 -0.6344
vn 0.8819 -0.0000 -0.4714
vn 0.9569 -0.0000 -0.2903
vn -0.0000 1.0000 -0.0000
vn -0.0000 0.0126 0.9999
vn 0.9569 -0.0000 0.2903
vn 0.8819 -0.0000 0.4714
vn 0.7730 -0.0000 0.6344
vn 0.6344 -0.0000 0.7730
vn 0.4714 -0.0000 0.8819
vn 0.2903 -0.0000 0.9569
vn 0.0980 -0.0000 0.9952
vn -0.0980 -0.0000 0.9952
vn -0.2903 -0.0000 0.9569
vn -0.4714 -0.0000 0.8819
vn -0.6344 -0.0000 0.7730
vn -0.7730 -0.0000 0.6344
vn -0.8819 -0.0000 0.4714
vn -0.9569 -0.0000 0.2903
vn -0.9952 -0.0000 0.0980
vn -0.9952 -0.0000 -0.0980
vn -0.9569 -0.0000 -0.2903
vn -0.8819 -0.0000 -0.4714
vn -0.7730 -0.0000 -0.6344
vn -0.6344 -0.0000 -0.7730
vn -0.4714 -0.0000 -0.8819
vn -0.2903 -0.0000 -0.9569
vn -0.0980 -0.0000 -0.9952
vn -0.0000 -1.0000 -0.0000
vn 0.9952 -0.0000 -0.0980
vn 0.9952 -0.0000 0.0980
vn 0.9457 0.3114 -0.0931
vn 0.9475 0.3060 0.0933
vn 0.9873 -0.1255 0.0972
vn -0.0579 -0.0000 0.9983
vn -0.0000 0.0321 -0.9995
vn -0.0000 -0.0000 -1.0000
vn -0.0000 -0.0000 1.0000
vn 0.0849 -0.0000 -0.9964
vn 0.9870 -0.1279 -0.0972
vn -0.0849 -0.0000 0.9964
vn -0.0000 -0.0321 0.9995
vn 0.0579 -0.0000 -0.9983
vn -0.0000 -0.0126 -0.9999
vt 0.315653 0.139857
vt 0.420738 0.315485
vt 0.420738 0.640645
vt 0.269805 0.274929
vt 0.321330 0.111314
vt 0.391769 0.315487
vt 0.391769 0.640646
vt 0.285829 0.250636
vt 0.332467 0.084427
vt 0.363898 0.315491
vt 0.363898 0.640651
vt 0.296806 0.223684
vt 0.348635 0.060230
vt 0.338197 0.315499
vt 0.338197 0.640659
vt 0.302313 0.195108
vt 0.748087 0.316656
vt 0.369213 0.039652
vt 0.315653 0.315510
vt 0.315653 0.640670
vt 0.748087 0.641735
vt 0.302140 0.166007
vt 0.393411 0.023484
vt 0.727279 0.316202
vt 0.727278 0.641280
vt 0.296293 0.137498
vt 0.420297 0.012347
vt 0.702900 0.315847
vt 0.702900 0.640926
vt 0.284997 0.110679
vt 0.448840 0.006670
vt 0.675890 0.315605
vt 0.675890 0.640684
vt 0.268685 0.086578
vt 0.297349 0.676140
vt 0.477942 0.006670
vt 0.647285 0.315485
vt 0.247985 0.066122
vt 0.506484 0.012347
vt 0.618185 0.315492
vt 0.229953 0.502699
vt 0.618185 0.640571
vt 0.223692 0.050098
vt 0.533371 0.023484
vt 0.589708 0.315626
vt 0.589708 0.640705
vt 0.196740 0.039122
vt 0.557568 0.039652
vt 0.562949 0.315882
vt 0.562949 0.640961
vt 0.168164 0.033614
vt 0.006670 0.667782
vt 0.578146 0.060230
vt 0.538936 0.316249
vt 0.538936 0.641328
vt 0.006670 0.342622
vt 0.139063 0.033787
vt 0.594314 0.084428
vt 0.029118 0.667771
vt 0.029118 0.342611
vt 0.110554 0.039634
vt 0.605451 0.111314
vt 0.054747 0.667763
vt 0.054747 0.342604
vt 0.083734 0.050930
vt 0.611129 0.139857
vt 0.082574 0.667759
vt 0.082574 0.342599
vt 0.059634 0.067242
vt 0.611129 0.168959
vt 0.111528 0.667757
vt 0.111528 0.342597
vt 0.039178 0.087942
vt 0.605451 0.197501
vt 0.140497 0.667759
vt 0.140497 0.342599
vt 0.023154 0.112235
vt 0.594314 0.224388
vt 0.168368 0.667763
vt 0.168368 0.342603
vt 0.012177 0.139187
vt 0.578146 0.248585
vt 0.194069 0.667771
vt 0.194069 0.342611
vt 0.006670 0.167763
vt 0.970590 0.315485
vt 0.557568 0.269163
vt 0.216613 0.667782
vt 0.216613 0.342622
vt 0.970590 0.640645
vt 0.006843 0.196864
vt 0.533371 0.285331
vt 0.949768 0.315485
vt 0.949768 0.640645
vt 0.012690 0.225373
vt 0.506484 0.296468
vt 0.925381 0.315485
vt 0.925381 0.640645
vt 0.023986 0.252193
vt 0.477942 0.302146
vt 0.898364 0.315485
vt 0.898364 0.640645
vt 0.040298 0.276294
vt 0.448840 0.302146
vt 0.869755 0.315485
vt 0.869755 0.640645
vt 0.060998 0.296749
vt 0.420297 0.296468
vt 0.840656 0.315485
vt 0.840656 0.640645
vt 0.085291 0.312773
vt 0.393411 0.285331
vt 0.812182 0.315485
vt 0.812182 0.640645
vt 0.112243 0.323750
vt 0.369213 0.269163
vt 0.785430 0.315485
vt 0.785430 0.640645
vt 0.140819 0.329257
vt 0.525596 0.315510
vt 0.348635 0.248585
vt 0.761427 0.315485
vt 0.761427 0.640645
vt 0.525596 0.640670
vt 0.169920 0.329085
vt 0.332467 0.224388
vt 0.503148 0.315499
vt 0.503148 0.640659
vt 0.198429 0.323237
vt 0.321330 0.197501
vt 0.477518 0.315492
vt 0.477518 0.640652
vt 0.225249 0.311941
vt 0.315653 0.168959
vt 0.449692 0.315487
vt 0.449692 0.640647
vt 0.249349 0.295629
vt 0.269246 0.241899
vt 0.827932 0.654005
vt 0.255246 0.263125
vt 0.853244 0.654006
vt 0.278837 0.218350
vt 0.803581 0.654001
vt 0.283650 0.193382
vt 0.781124 0.653994
vt 0.761427 0.653985
vt 0.283499 0.167955
vt 0.006670 0.993330
vt 0.278390 0.143046
vt 0.024862 0.993330
vt 0.268520 0.119612
vt 0.046171 0.993330
vt 0.254267 0.098554
vt 0.069777 0.993330
vt 0.236181 0.080682
vt 0.094773 0.993330
vt 0.214955 0.066681
vt 0.120199 0.993330
vt 0.191406 0.057090
vt 0.145077 0.993330
vt 0.166438 0.052278
vt 0.168451 0.993330
vt 0.189424 0.993330
vt 0.141011 0.052429
vt 0.499089 0.654032
vt 0.116102 0.057537
vt 0.479475 0.654022
vt 0.092668 0.067408
vt 0.457082 0.654015
vt 0.071610 0.081660
vt 0.432768 0.654011
vt 0.053737 0.099746
vt 0.407470 0.654010
vt 0.039737 0.120972
vt 0.382158 0.654011
vt 0.030146 0.144521
vt 0.357807 0.654015
vt 0.335350 0.654022
vt 0.025333 0.169489
vt 0.315653 0.654031
vt 0.025485 0.194916
vt 0.721680 0.656097
vt 0.030593 0.219825
vt 0.703499 0.655700
vt 0.040463 0.243259
vt 0.682199 0.655390
vt 0.054716 0.264317
vt 0.658598 0.655179
vt 0.072802 0.282190
vt 0.633605 0.655074
vt 0.094028 0.296191
vt 0.608179 0.655081
vt 0.117577 0.305781
vt 0.583298 0.655198
vt 0.142545 0.310594
vt 0.559917 0.655421
vt 0.538936 0.655742
vt 0.167972 0.310443
vt 0.944863 0.653985
vt 0.192881 0.305334
vt 0.925249 0.653994
vt 0.216315 0.295464
vt 0.902856 0.654001
vt 0.237373 0.281212
vt 0.878542 0.654005
vt 0.639159 0.196899
vt 0.827932 0.966214
vt 0.629429 0.173407
vt 0.853244 0.966215
vt 0.653286 0.218041
vt 0.803581 0.966210
vt 0.671266 0.236021
vt 0.781124 0.966203
vt 0.692408 0.250148
vt 0.761427 0.966193
vt 0.006670 0.681121
vt 0.715900 0.259879
vt 0.024862 0.681121
vt 0.740839 0.264839
vt 0.046171 0.681121
vt 0.766267 0.264839
vt 0.069777 0.681121
vt 0.791206 0.259879
vt 0.094773 0.681121
vt 0.814698 0.250148
vt 0.120199 0.681121
vt 0.835840 0.236021
vt 0.145077 0.681121
vt 0.853820 0.218041
vt 0.168451 0.681121
vt 0.867946 0.196899
vt 0.189424 0.681121
vt 0.499089 0.966240
vt 0.877677 0.173407
vt 0.479475 0.966231
vt 0.882638 0.148468
vt 0.457082 0.966224
vt 0.882638 0.123041
vt 0.432768 0.966220
vt 0.877677 0.098102
vt 0.407470 0.966218
vt 0.867946 0.074610
vt 0.382158 0.966220
vt 0.853820 0.053468
vt 0.357807 0.966224
vt 0.835840 0.035488
vt 0.335350 0.966231
vt 0.315653 0.966240
vt 0.814698 0.021361
vt 0.721680 0.968228
vt 0.791206 0.011630
vt 0.703499 0.967831
vt 0.766267 0.006670
vt 0.682199 0.967521
vt 0.740839 0.006670
vt 0.658598 0.967310
vt 0.715900 0.011630
vt 0.633605 0.967205
vt 0.692408 0.021361
vt 0.608179 0.967212
vt 0.671266 0.035488
vt 0.583298 0.967329
vt 0.653286 0.053468
vt 0.559917 0.967552
vt 0.639159 0.074610
vt 0.538936 0.967873
vt 0.944863 0.966193
vt 0.629429 0.098102
vt 0.925249 0.966203
vt 0.624468 0.123041
vt 0.902856 0.966209
vt 0.624468 0.148468
vt 0.878542 0.966214
vt 0.420738 0.602362
vt 0.391769 0.602363
vt 0.363898 0.602368
vt 0.338197 0.602376
vt 0.748087 0.603461
vt 0.315653 0.602386
vt 0.727278 0.603007
vt 0.702900 0.602652
vt 0.297350 0.637857
vt 0.675890 0.602410
vt 0.266504 0.921058
vt 0.647285 0.602290
vt 0.263651 0.892096
vt 0.266504 0.863134
vt 0.618185 0.602297
vt 0.229952 0.464415
vt 0.589708 0.602431
vt 0.562949 0.602687
vt 0.006670 0.380906
vt 0.538936 0.603054
vt 0.029118 0.380895
vt 0.054747 0.380887
vt 0.082574 0.380882
vt 0.111528 0.380880
vt 0.140497 0.380882
vt 0.168368 0.380887
vt 0.194069 0.380895
vt 0.970590 0.602362
vt 0.216613 0.380905
vt 0.949768 0.602362
vt 0.925381 0.602362
vt 0.898364 0.602362
vt 0.869755 0.602362
vt 0.840656 0.602362
vt 0.812182 0.602362
vt 0.785430 0.602362
vt 0.525596 0.602387
vt 0.761427 0.602362
vt 0.503148 0.602376
vt 0.477518 0.602368
vt 0.449692 0.602363
vt 0.281613 0.022694
vt 0.261005 0.689703
vt 0.302313 0.043149
vt 0.232401 0.689480
vt 0.242434 0.676140
vt 0.290105 0.689802
vt 0.257320 0.006670
vt 0.284868 0.502699
vt 0.229952 0.728020
vt 0.229952 0.637856
vt 0.258557 0.728244
vt 0.287656 0.728342
vt 0.297350 0.464414
vt 0.232805 0.921058
vt 0.263651 0.637856
vt 0.895977 0.128488
vt 0.229952 0.892096
vt 0.924585 0.128488
vt 0.269208 0.039946
vt 0.263651 0.676140
vt 0.289908 0.060402
vt 0.953685 0.128488
vt 0.263651 0.464415
vt 0.232805 0.863134
vt 0.263651 0.502698
vt 0.244915 0.023922
vt 0.263652 0.516038
vt 0.916896 0.201290
vt 0.895977 0.006670
vt 0.898830 0.199751
vt 0.245582 0.516039
vt 0.232401 0.849473
vt 0.895977 0.170789
vt 0.261005 0.849696
vt 0.281720 0.342598
vt 0.290105 0.849795
vt 0.898830 0.141827
vt 0.914043 0.172329
vt 0.924585 0.006670
vt 0.916896 0.143367
vt 0.263650 0.342597
vt 0.953685 0.006670
s 0
f 2/3/1 130/275/1 129/274/1
f 4/7/2 131/276/2 130/275/2
f 6/11/3 132/277/3 131/276/3
f 8/15/4 133/279/4 132/277/4
f 10/21/5 134/280/5 133/278/5
f 12/25/6 135/281/6 134/280/6
f 14/29/7 136/283/7 135/281/7
f 169/333/8 162/317/8 170/335/8
f 171/337/9 176/349/9 166/327/9
f 20/42/10 139/290/10 138/288/10
f 22/46/11 140/291/11 139/290/11
f 24/50/12 141/293/12 140/291/12
f 26/56/13 142/294/13 141/292/13
f 28/60/14 143/295/14 142/294/14
f 30/64/15 144/296/15 143/295/15
f 32/68/16 145/297/16 144/296/16
f 34/72/17 146/298/17 145/297/17
f 36/76/18 147/299/18 146/298/18
f 38/80/19 148/300/19 147/299/19
f 40/84/20 149/302/20 148/300/20
f 42/90/21 150/303/21 149/301/21
f 44/94/22 151/304/22 150/303/22
f 46/98/23 152/305/23 151/304/23
f 48/102/24 153/306/24 152/305/24
f 50/106/25 154/307/25 153/306/25
f 52/110/26 155/308/26 154/307/26
f 54/114/27 156/309/27 155/308/27
f 56/118/28 157/311/28 156/309/28
f 58/124/29 158/312/29 157/310/29
f 60/128/30 159/313/30 158/312/30
f 62/133/8 96/204/8 64/137/8
f 62/132/31 160/314/31 159/313/31
f 64/136/32 129/274/32 160/314/32
f 31/66/33 47/100/33 63/134/33
f 84/178/4 117/248/4 85/180/4
f 20/43/8 73/155/8 74/157/8
f 36/77/8 83/176/8 38/81/8
f 54/115/8 92/195/8 56/119/8
f 10/22/8 70/149/8 12/26/8
f 30/65/8 78/166/8 79/168/8
f 46/99/8 88/187/8 48/103/8
f 4/8/8 66/140/8 65/138/8
f 64/137/8 66/140/8 2/4/8
f 20/43/8 75/159/8 22/47/8
f 38/81/8 84/179/8 40/85/8
f 56/119/8 93/198/8 58/125/8
f 14/30/8 70/149/8 71/151/8
f 30/65/8 80/170/8 32/69/8
f 48/103/8 89/189/8 50/107/8
f 4/8/8 67/142/8 6/12/8
f 22/47/8 76/161/8 24/51/8
f 40/85/8 85/181/8 42/91/8
f 58/125/8 94/200/8 60/129/8
f 14/30/8 72/153/8 16/34/8
f 32/69/8 81/172/8 34/73/8
f 52/111/8 89/189/8 90/191/8
f 6/12/8 68/144/8 8/16/8
f 24/51/8 77/164/8 26/57/8
f 42/91/8 86/183/8 44/95/8
f 62/133/8 94/200/8 95/202/8
f 16/34/8 73/155/8 18/38/8
f 36/77/8 81/172/8 82/174/8
f 52/111/8 91/193/8 54/115/8
f 8/16/8 69/147/8 10/22/8
f 26/57/8 78/166/8 28/61/8
f 46/99/8 86/183/8 87/185/8
f 115/244/8 107/227/8 99/210/8
f 71/152/23 104/222/23 72/154/23
f 85/182/5 118/252/5 86/184/5
f 72/154/24 105/224/24 73/156/24
f 86/184/6 119/254/6 87/186/6
f 74/158/25 105/224/25 106/226/25
f 87/186/7 120/256/7 88/188/7
f 74/158/26 107/228/26 75/160/26
f 89/190/34 120/256/34 121/258/34
f 75/160/27 108/230/27 76/162/27
f 89/190/35 122/260/35 90/192/35
f 76/162/28 109/232/28 77/163/28
f 90/192/10 123/262/10 91/194/10
f 77/165/29 110/235/29 78/167/29
f 92/196/11 123/262/11 124/264/11
f 78/167/30 111/237/30 79/169/30
f 66/141/17 97/207/17 65/139/17
f 92/196/12 125/266/12 93/197/12
f 79/169/31 112/239/31 80/171/31
f 65/139/18 99/211/18 67/143/18
f 93/199/13 126/269/13 94/201/13
f 80/171/32 113/241/32 81/173/32
f 67/143/19 100/213/19 68/145/19
f 94/201/14 127/271/14 95/203/14
f 82/175/1 113/241/1 114/243/1
f 68/145/20 101/215/20 69/146/20
f 95/203/15 128/273/15 96/205/15
f 82/175/2 115/245/2 83/177/2
f 69/148/21 102/218/21 70/150/21
f 96/205/16 98/209/16 66/141/16
f 83/177/3 116/247/3 84/178/3
f 70/150/22 103/220/22 71/152/22
f 160/314/32 1/2/32 63/135/32
f 159/313/31 63/135/31 61/131/31
f 158/312/30 61/131/30 59/127/30
f 157/310/29 59/127/29 57/120/29
f 156/309/28 57/122/28 55/117/28
f 155/308/27 55/117/27 53/113/27
f 154/307/26 53/113/26 51/109/26
f 153/306/25 51/109/25 49/105/25
f 152/305/24 49/105/24 47/101/24
f 151/304/23 47/101/23 45/97/23
f 150/303/22 45/97/22 43/93/22
f 149/301/21 43/93/21 41/86/21
f 148/300/20 41/88/20 39/83/20
f 147/299/19 39/83/19 37/79/19
f 146/298/18 37/79/18 35/75/18
f 145/297/17 35/75/17 33/71/17
f 144/296/16 33/71/16 31/67/16
f 143/295/15 31/67/15 29/63/15
f 142/294/14 29/63/14 27/59/14
f 141/292/13 27/59/13 25/52/13
f 140/291/12 25/54/12 23/49/12
f 139/290/11 23/49/11 21/45/11
f 138/288/10 21/45/10 19/40/10
f 137/285/35 19/40/35 17/37/35
f 136/283/34 17/37/34 15/32/34
f 135/281/7 15/32/7 13/28/7
f 134/280/6 13/28/6 11/24/6
f 133/278/5 11/24/5 9/17/5
f 132/277/4 9/19/4 7/14/4
f 131/276/3 7/14/3 5/10/3
f 130/275/2 5/10/2 3/6/2
f 129/274/1 3/6/1 1/2/1
f 162/318/36 165/325/36 164/323/36
f 161/316/37 166/326/37 165/325/37
f 166/326/38 175/348/38 165/325/38
f 169/333/8 163/321/8 161/315/8
f 171/337/39 163/322/39 172/339/39
f 167/329/40 162/319/40 164/324/40
f 16/35/41 167/329/41 136/282/41
f 138/289/42 172/339/42 20/41/42
f 18/38/8 172/340/8 169/333/8
f 137/286/33 171/338/33 138/287/33
f 137/286/33 167/328/33 168/331/33
f 18/38/8 170/335/8 16/34/8
f 177/352/33 174/344/33 175/347/33
f 177/352/33 176/351/33 178/354/33
f 168/332/25 178/356/25 171/336/25
f 167/329/43 174/345/43 173/341/43
f 165/325/44 174/346/44 164/323/44
f 167/330/24 177/353/24 168/332/24
f 2/3/1 4/7/1 130/275/1
f 4/7/2 6/11/2 131/276/2
f 6/11/3 8/15/3 132/277/3
f 8/15/4 10/20/4 133/279/4
f 10/21/5 12/25/5 134/280/5
f 12/25/6 14/29/6 135/281/6
f 14/29/7 16/33/7 136/283/7
f 169/333/8 161/315/8 162/317/8
f 171/337/45 178/355/45 176/349/45
f 20/42/10 22/46/10 139/290/10
f 22/46/11 24/50/11 140/291/11
f 24/50/12 26/55/12 141/293/12
f 26/56/13 28/60/13 142/294/13
f 28/60/14 30/64/14 143/295/14
f 30/64/15 32/68/15 144/296/15
f 32/68/16 34/72/16 145/297/16
f 34/72/17 36/76/17 146/298/17
f 36/76/18 38/80/18 147/299/18
f 38/80/19 40/84/19 148/300/19
f 40/84/20 42/89/20 149/302/20
f 42/90/21 44/94/21 150/303/21
f 44/94/22 46/98/22 151/304/22
f 46/98/23 48/102/23 152/305/23
f 48/102/24 50/106/24 153/306/24
f 50/106/25 52/110/25 154/307/25
f 52/110/26 54/114/26 155/308/26
f 54/114/27 56/118/27 156/309/27
f 56/118/28 58/123/28 157/311/28
f 58/124/29 60/128/29 158/312/29
f 60/128/30 62/132/30 159/313/30
f 62/133/8 95/202/8 96/204/8
f 62/132/31 64/136/31 160/314/31
f 64/136/32 2/3/32 129/274/32
f 63/134/33 1/1/33 3/5/33
f 3/5/33 5/9/33 7/13/33
f 7/13/33 9/18/33 11/23/33
f 11/23/33 13/27/33 15/31/33
f 15/31/33 17/36/33 19/39/33
f 19/39/33 21/44/33 23/48/33
f 23/48/33 25/53/33 27/58/33
f 27/58/33 29/62/33 31/66/33
f 31/66/33 33/70/33 35/74/33
f 35/74/33 37/78/33 39/82/33
f 39/82/33 41/87/33 43/92/33
f 43/92/33 45/96/33 47/100/33
f 47/100/33 49/104/33 51/108/33
f 51/108/33 53/112/33 55/116/33
f 55/116/33 57/121/33 59/126/33
f 59/126/33 61/130/33 63/134/33
f 63/134/33 3/5/33 7/13/33
f 7/13/33 11/23/33 15/31/33
f 15/31/33 19/39/33 23/48/33
f 23/48/33 27/58/33 31/66/33
f 31/66/33 35/74/33 39/82/33
f 39/82/33 43/92/33 47/100/33
f 47/100/33 51/108/33 55/116/33
f 55/116/33 59/126/33 63/134/33
f 63/134/33 7/13/33 15/31/33
f 15/31/33 23/48/33 31/66/33
f 31/66/33 39/82/33 47/100/33
f 47/100/33 55/116/33 63/134/33
f 63/134/33 15/31/33 31/66/33
f 84/178/4 116/247/4 117/248/4
f 20/43/8 18/38/8 73/155/8
f 36/77/8 82/174/8 83/176/8
f 54/115/8 91/193/8 92/195/8
f 10/22/8 69/147/8 70/149/8
f 30/65/8 28/61/8 78/166/8
f 46/99/8 87/185/8 88/187/8
f 4/8/8 2/4/8 66/140/8
f 64/137/8 96/204/8 66/140/8
f 20/43/8 74/157/8 75/159/8
f 38/81/8 83/176/8 84/179/8
f 56/119/8 92/195/8 93/198/8
f 14/30/8 12/26/8 70/149/8
f 30/65/8 79/168/8 80/170/8
f 48/103/8 88/187/8 89/189/8
f 4/8/8 65/138/8 67/142/8
f 22/47/8 75/159/8 76/161/8
f 40/85/8 84/179/8 85/181/8
f 58/125/8 93/198/8 94/200/8
f 14/30/8 71/151/8 72/153/8
f 32/69/8 80/170/8 81/172/8
f 52/111/8 50/107/8 89/189/8
f 6/12/8 67/142/8 68/144/8
f 24/51/8 76/161/8 77/164/8
f 42/91/8 85/181/8 86/183/8
f 62/133/8 60/129/8 94/200/8
f 16/34/8 72/153/8 73/155/8
f 36/77/8 34/73/8 81/172/8
f 52/111/8 90/191/8 91/193/8
f 8/16/8 68/144/8 69/147/8
f 26/57/8 77/164/8 78/166/8
f 46/99/8 44/95/8 86/183/8
f 99/210/8 97/206/8 98/208/8
f 98/208/8 128/272/8 127/270/8
f 127/270/8 126/268/8 125/265/8
f 125/265/8 124/263/8 123/261/8
f 123/261/8 122/259/8 121/257/8
f 121/257/8 120/255/8 119/253/8
f 119/253/8 118/251/8 117/249/8
f 117/249/8 116/246/8 115/244/8
f 115/244/8 114/242/8 113/240/8
f 113/240/8 112/238/8 111/236/8
f 111/236/8 110/234/8 109/231/8
f 109/231/8 108/229/8 107/227/8
f 107/227/8 106/225/8 105/223/8
f 105/223/8 104/221/8 103/219/8
f 103/219/8 102/217/8 101/214/8
f 101/214/8 100/212/8 99/210/8
f 99/210/8 98/208/8 127/270/8
f 127/270/8 125/265/8 123/261/8
f 123/261/8 121/257/8 119/253/8
f 119/253/8 117/249/8 115/244/8
f 115/244/8 113/240/8 111/236/8
f 111/236/8 109/231/8 107/227/8
f 107/227/8 105/223/8 103/219/8
f 103/219/8 101/214/8 99/210/8
f 99/210/8 127/270/8 123/261/8
f 123/261/8 119/253/8 115/244/8
f 115/244/8 111/236/8 107/227/8
f 107/227/8 103/219/8 99/210/8
f 99/210/8 123/261/8 115/244/8
f 71/152/23 103/220/23 104/222/23
f 85/182/5 117/250/5 118/252/5
f 72/154/24 104/222/24 105/224/24
f 86/184/6 118/252/6 119/254/6
f 74/158/25 73/156/25 105/224/25
f 87/186/7 119/254/7 120/256/7
f 74/158/26 106/226/26 107/228/26
f 89/190/34 88/188/34 120/256/34
f 75/160/27 107/228/27 108/230/27
f 89/190/35 121/258/35 122/260/35
f 76/162/28 108/230/28 109/232/28
f 90/192/10 122/260/10 123/262/10
f 77/165/29 109/233/29 110/235/29
f 92/196/11 91/194/11 123/262/11
f 78/167/30 110/235/30 111/237/30
f 66/141/17 98/209/17 97/207/17
f 92/196/12 124/264/12 125/266/12
f 79/169/31 111/237/31 112/239/31
f 65/139/18 97/207/18 99/211/18
f 93/199/13 125/267/13 126/269/13
f 80/171/32 112/239/32 113/241/32
f 67/143/19 99/211/19 100/213/19
f 94/201/14 126/269/14 127/271/14
f 82/175/1 81/173/1 113/241/1
f 68/145/20 100/213/20 101/215/20
f 95/203/15 127/271/15 128/273/15
f 82/175/2 114/243/2 115/245/2
f 69/148/21 101/216/21 102/218/21
f 96/205/16 128/273/16 98/209/16
f 83/177/3 115/245/3 116/247/3
f 70/150/22 102/218/22 103/220/22
f 160/314/32 129/274/32 1/2/32
f 159/313/31 160/314/31 63/135/31
f 158/312/30 159/313/30 61/131/30
f 157/310/29 158/312/29 59/127/29
f 156/309/28 157/311/28 57/122/28
f 155/308/27 156/309/27 55/117/27
f 154/307/26 155/308/26 53/113/26
f 153/306/25 154/307/25 51/109/25
f 152/305/24 153/306/24 49/105/24
f 151/304/23 152/305/23 47/101/23
f 150/303/22 151/304/22 45/97/22
f 149/301/21 150/303/21 43/93/21
f 148/300/20 149/302/20 41/88/20
f 147/299/19 148/300/19 39/83/19
f 146/298/18 147/299/18 37/79/18
f 145/297/17 146/298/17 35/75/17
f 144/296/16 145/297/16 33/71/16
f 143/295/15 144/296/15 31/67/15
f 142/294/14 143/295/14 29/63/14
f 141/292/13 142/294/13 27/59/13
f 140/291/12 141/293/12 25/54/12
f 139/290/11 140/291/11 23/49/11
f 138/288/10 139/290/10 21/45/10
f 137/285/35 138/288/35 19/40/35
f 136/283/34 137/285/34 17/37/34
f 135/281/7 136/283/7 15/32/7
f 134/280/6 135/281/6 13/28/6
f 133/278/5 134/280/5 11/24/5
f 132/277/4 133/279/4 9/19/4
f 131/276/3 132/277/3 7/14/3
f 130/275/2 131/276/2 5/10/2
f 129/274/1 130/275/1 3/6/1
f 162/318/36 161/316/36 165/325/36
f 161/316/37 163/320/37 166/326/37
f 166/326/38 176/350/38 175/348/38
f 169/333/8 172/340/8 163/321/8
f 171/337/46 166/327/46 163/322/46
f 167/329/47 170/334/47 162/319/47
f 16/35/41 170/334/41 167/329/41
f 138/289/42 171/337/42 172/339/42
f 18/38/8 20/43/8 172/340/8
f 137/286/33 168/331/33 171/338/33
f 137/286/33 136/284/33 167/328/33
f 18/38/8 169/333/8 170/335/8
f 177/352/33 173/342/33 174/344/33
f 177/352/33 175/347/33 176/351/33
f 168/332/25 177/353/25 178/356/25
f 167/329/48 164/324/48 174/345/48
f 165/325/44 175/348/44 174/346/44
f 167/330/24 173/343/24 177/353/24
