# Blender 3.3.1
# www.blender.org
o Cylinder
v 0.000000 0.052258 -0.449072
v 0.000000 3.601932 -0.857836
v 0.087610 0.052258 -0.440443
v 0.167355 3.601932 -0.841353
v 0.171852 0.052258 -0.414888
v 0.328280 3.601932 -0.792537
v 0.249491 0.052258 -0.373390
v 0.476588 3.601932 -0.713264
v 0.317542 0.052258 -0.317542
v 0.606581 3.601932 -0.606581
v 0.373390 0.052258 -0.249491
v 0.713264 3.601932 -0.476588
v 0.414888 0.052258 -0.171852
v 0.792537 3.601932 -0.328280
v 0.440443 0.052258 -0.087610
v 0.841353 3.601932 -0.167355
v 0.449072 0.052258 -0.000000
v 0.857836 3.601932 0.000000
v 0.440443 0.052258 0.087610
v 0.841353 3.601932 0.167355
v 0.414888 0.052258 0.171852
v 0.792537 3.601932 0.328280
v 0.373390 0.052258 0.249491
v 0.713264 3.601932 0.476588
v 0.317542 0.052258 0.317542
v 0.606581 3.601932 0.606581
v 0.249491 0.052258 0.373390
v 0.476588 3.601932 0.713264
v 0.171852 0.052258 0.414888
v 0.328280 3.601932 0.792537
v 0.087610 0.052258 0.440443
v 0.167355 3.601932 0.841353
v 0.000000 0.052258 0.449072
v 0.000000 3.601932 0.857836
v -0.087610 0.052258 0.440443
v -0.167355 3.601932 0.841353
v -0.171852 0.052258 0.414888
v -0.328280 3.601932 0.792537
v -0.249491 0.052258 0.373390
v -0.476588 3.601932 0.713264
v -0.317542 0.052258 0.317542
v -0.606581 3.601932 0.606581
v -0.373390 0.052258 0.249491
v -0.713264 3.601932 0.476588
v -0.414888 0.052258 0.171852
v -0.792537 3.601932 0.328280
v -0.440443 0.052258 0.087610
v -0.841353 3.601932 0.167355
v -0.449072 0.052258 -0.000000
v -0.857836 3.601932 0.000000
v -0.440443 0.052258 -0.087610
v -0.841353 3.601932 -0.167355
v -0.414888 0.052258 -0.171852
v -0.792537 3.601932 -0.328280
v -0.373390 0.052258 -0.249491
v -0.713264 3.601932 -0.476588
v -0.317542 0.052258 -0.317542
v -0.606581 3.601932 -0.606581
v -0.249491 0.052258 -0.373390
v -0.476588 3.601932 -0.713264
v -0.171852 0.052258 -0.414888
v -0.328280 3.601932 -0.792537
v -0.087610 0.052258 -0.440443
v -0.167355 3.601932 -0.841353
v 0.195090 3.601932 -0.980785
v 0.000000 3.601932 -1.000000
v 0.382683 3.601932 -0.923880
v 0.555570 3.601932 -0.831470
v 0.707107 3.601932 -0.707107
v 0.831470 3.601932 -0.555570
v 0.923880 3.601932 -0.382683
v 0.980785 3.601932 -0.195090
v 1.000000 3.601932 0.000000
v 0.980785 3.601932 0.195090
v 0.923880 3.601932 0.382683
v 0.831470 3.601932 0.555570
v 0.707107 3.601932 0.707107
v 0.555570 3.601932 0.831470
v 0.382683 3.601932 0.923880
v 0.195090 3.601932 0.980785
v 0.000000 3.601932 1.000000
v -0.195090 3.601932 0.980785
v -0.382683 3.601932 0.923880
v -0.555570 3.601932 0.831470
v -0.707107 3.601932 0.707107
v -0.831470 3.601932 0.555570
v -0.923880 3.601932 0.382683
v -0.980785 3.601932 0.195090
v -1.000000 3.601932 0.000000
v -0.980785 3.601932 -0.195090
v -0.923880 3.601932 -0.382683
v -0.831470 3.601932 -0.555570
v -0.707107 3.601932 -0.707107
v -0.555570 3.601932 -0.831470
v -0.382683 3.601932 -0.923880
v -0.195090 3.601932 -0.980785
v 0.115208 0.185078 -0.579188
v 0.000000 0.185078 -0.590535
v 0.225988 0.185078 -0.545583
v 0.328084 0.185078 -0.491012
v 0.417571 0.185078 -0.417571
v 0.491012 0.185078 -0.328084
v 0.545583 0.185078 -0.225988
v 0.579188 0.185078 -0.115208
v 0.590535 0.185078 -0.000000
v 0.579188 0.185078 0.115208
v 0.545583 0.185078 0.225988
v 0.491012 0.185078 0.328084
v 0.417571 0.185078 0.417571
v 0.328084 0.185078 0.491012
v 0.225988 0.185078 0.545583
v 0.115208 0.185078 0.579188
v 0.000000 0.185078 0.590535
v -0.115208 0.185078 0.579188
v -0.225988 0.185078 0.545583
v -0.328084 0.185078 0.491012
v -0.417571 0.185078 0.417571
v -0.491012 0.185078 0.328084
v -0.545583 0.185078 0.225988
v -0.579188 0.185078 0.115208
v -0.590535 0.185078 -0.000000
v -0.579188 0.185078 -0.115208
v -0.545583 0.185078 -0.225988
v -0.491012 0.185078 -0.328084
v -0.417571 0.185078 -0.417571
v -0.328084 0.185078 -0.491012
v -0.225988 0.185078 -0.545583
v -0.115208 0.185078 -0.579188
v 0.000000 0.011860 -0.688401
v 0.134300 0.011860 -0.675174
v 0.263440 0.011860 -0.636000
v 0.382455 0.011860 -0.572384
v 0.486773 0.011860 -0.486773
v 0.572384 0.011860 -0.382455
v 0.636000 0.011860 -0.263440
v 0.675174 0.011860 -0.134300
v 0.688401 0.011860 -0.000000
v 0.675174 0.011860 0.134300
v 0.636000 0.011860 0.263440
v 0.572384 0.011860 0.382455
v 0.486773 0.011860 0.486773
v 0.382455 0.011860 0.572384
v 0.263440 0.011860 0.636000
v 0.134300 0.011860 0.675174
v 0.000000 0.011860 0.688401
v -0.134300 0.011860 0.675174
v -0.263440 0.011860 0.636000
v -0.382455 0.011860 0.572384
v -0.486773 0.011860 0.486773
v -0.572384 0.011860 0.382455
v -0.636000 0.011860 0.263440
v -0.675174 0.011860 0.134300
v -0.688401 0.011860 -0.000000
v -0.675174 0.011860 -0.134300
v -0.636000 0.011860 -0.263440
v -0.572384 0.011860 -0.382455
v -0.486773 0.011860 -0.486773
v -0.382455 0.011860 -0.572384
v -0.263440 0.011860 -0.636000
v -0.134300 0.011860 -0.675174
v 0.000000 0.011860 -0.549478
v 0.107198 0.011860 -0.538920
v 0.210276 0.011860 -0.507652
v 0.305274 0.011860 -0.456875
v 0.388540 0.011860 -0.388540
v 0.456875 0.011860 -0.305274
v 0.507652 0.011860 -0.210276
v 0.538920 0.011860 -0.107198
v 0.549478 0.011860 -0.000000
v 0.538920 0.011860 0.107198
v 0.507652 0.011860 0.210276
v 0.456875 0.011860 0.305274
v 0.388540 0.011860 0.388540
v 0.305274 0.011860 0.456875
v 0.210276 0.011860 0.507652
v 0.107198 0.011860 0.538920
v 0.000000 0.011860 0.549478
v -0.107198 0.011860 0.538920
v -0.210276 0.011860 0.507652
v -0.305274 0.011860 0.456875
v -0.388540 0.011860 0.388540
v -0.456875 0.011860 0.305274
v -0.507652 0.011860 0.210276
v -0.538920 0.011860 0.107198
v -0.549478 0.011860 -0.000000
v -0.538920 0.011860 -0.107198
v -0.507652 0.011860 -0.210276
v -0.456875 0.011860 -0.305274
v -0.388540 0.011860 -0.388540
v -0.305274 0.011860 -0.456875
v -0.210276 0.011860 -0.507652
v -0.107198 0.011860 -0.538920
vn 0.0977 -0.0861 -0.9915
vn 0.2892 -0.0861 -0.9534
vn 0.4696 -0.0861 -0.8786
vn 0.6320 -0.0861 -0.7701
vn 0.7701 -0.0861 -0.6320
vn 0.8786 -0.0861 -0.4696
vn 0.9534 -0.0861 -0.2892
vn 0.9915 -0.0861 -0.0977
vn 0.9915 -0.0861 0.0977
vn 0.9534 -0.0861 0.2892
vn 0.8786 -0.0861 0.4696
vn 0.7701 -0.0861 0.6320
vn 0.6320 -0.0861 0.7701
vn 0.4696 -0.0861 0.8786
vn 0.2892 -0.0861 0.9534
vn 0.0977 -0.0861 0.9915
vn -0.0977 -0.0861 0.9915
vn -0.2892 -0.0861 0.9534
vn -0.4696 -0.0861 0.8786
vn -0.6320 -0.0861 0.7701
vn -0.7701 -0.0861 0.6320
vn -0.8786 -0.0861 0.4696
vn -0.9534 -0.0861 0.2892
vn -0.9915 -0.0861 0.0977
vn -0.9915 -0.0861 -0.0977
vn -0.9534 -0.0861 -0.2892
vn -0.8786 -0.0861 -0.4696
vn -0.7701 -0.0861 -0.6320
vn -0.6320 -0.0861 -0.7701
vn -0.4696 -0.0861 -0.8786
vn 0.0977 0.0776 -0.9922
vn -0.2892 -0.0861 -0.9534
vn -0.0977 -0.0861 -0.9915
vn -0.0000 -1.0000 -0.0000
vn -0.0000 1.0000 -0.0000
vn -0.6325 0.0776 0.7707
vn 0.2894 0.0776 0.9541
vn 0.2894 0.0776 -0.9541
vn -0.7707 0.0776 0.6325
vn 0.0977 0.0776 0.9922
vn 0.4700 0.0776 -0.8793
vn -0.8793 0.0776 0.4700
vn 0.6325 0.0776 -0.7707
vn -0.9541 0.0776 0.2894
vn 0.7707 0.0776 -0.6325
vn -0.9922 0.0776 0.0977
vn 0.8793 0.0776 -0.4700
vn -0.9922 0.0776 -0.0977
vn 0.9541 0.0776 -0.2894
vn -0.9541 0.0776 -0.2894
vn 0.9922 0.0776 -0.0977
vn -0.8793 0.0776 -0.4700
vn 0.9922 0.0776 0.0977
vn -0.7707 0.0776 -0.6325
vn 0.9541 0.0776 0.2894
vn -0.6325 0.0776 -0.7707
vn 0.8793 0.0776 0.4700
vn -0.4700 0.0776 -0.8793
vn -0.0977 0.0776 0.9922
vn 0.7707 0.0776 0.6325
vn -0.2894 0.0776 -0.9541
vn -0.2894 0.0776 0.9541
vn 0.6325 0.0776 0.7707
vn -0.0977 0.0776 -0.9922
vn -0.4700 0.0776 0.8793
vn 0.4700 0.0776 0.8793
vn -0.0367 -0.9271 0.3730
vn -0.1088 -0.9271 0.3587
vn -0.1767 -0.9271 0.3306
vn -0.2378 -0.9271 0.2897
vn -0.2897 -0.9271 0.2378
vn -0.3306 -0.9271 0.1767
vn -0.3587 -0.9271 0.1088
vn -0.3730 -0.9271 0.0367
vn -0.3730 -0.9271 -0.0367
vn -0.3587 -0.9271 -0.1088
vn -0.3306 -0.9271 -0.1767
vn -0.2897 -0.9271 -0.2378
vn -0.2378 -0.9271 -0.2897
vn -0.1767 -0.9271 -0.3306
vn -0.1088 -0.9271 -0.3587
vn -0.0367 -0.9271 -0.3730
vn 0.0367 -0.9271 -0.3730
vn 0.1088 -0.9271 -0.3587
vn 0.1767 -0.9271 -0.3306
vn 0.2378 -0.9271 -0.2897
vn 0.2897 -0.9271 -0.2378
vn 0.3306 -0.9271 -0.1767
vn 0.3587 -0.9271 -0.1088
vn 0.3730 -0.9271 -0.0367
vn 0.3730 -0.9271 0.0367
vn 0.3587 -0.9271 0.1088
vn 0.3306 -0.9271 0.1767
vn 0.2897 -0.9271 0.2378
vn 0.2378 -0.9271 0.2897
vn 0.1767 -0.9271 0.3306
vn 0.1088 -0.9271 0.3587
vn 0.0367 -0.9271 0.3730
vt 0.750000 0.406562
vt 0.250000 0.455881
vt 0.780544 0.403553
vt 0.290165 0.451925
vt 0.809914 0.394644
vt 0.328787 0.440209
vt 0.836981 0.380176
vt 0.364381 0.421183
vt 0.860706 0.360706
vt 0.395580 0.395580
vt 0.880177 0.336981
vt 0.421183 0.364381
vt 0.894644 0.309914
vt 0.440209 0.328787
vt 0.903553 0.280544
vt 0.451925 0.290165
vt 0.906562 0.250000
vt 0.455881 0.250000
vt 0.903553 0.219456
vt 0.451925 0.209835
vt 0.894644 0.190086
vt 0.440209 0.171213
vt 0.880176 0.163019
vt 0.421183 0.135619
vt 0.860706 0.139294
vt 0.395580 0.104420
vt 0.836981 0.119824
vt 0.364381 0.078817
vt 0.809914 0.105356
vt 0.328787 0.059791
vt 0.780544 0.096447
vt 0.290165 0.048075
vt 0.750000 0.093438
vt 0.250000 0.044119
vt 0.719456 0.096447
vt 0.209835 0.048075
vt 0.690086 0.105356
vt 0.171213 0.059791
vt 0.663019 0.119824
vt 0.135619 0.078817
vt 0.639294 0.139294
vt 0.104420 0.104420
vt 0.619824 0.163019
vt 0.078817 0.135619
vt 0.605356 0.190086
vt 0.059791 0.171213
vt 0.596447 0.219456
vt 0.048075 0.209835
vt 0.593438 0.250000
vt 0.044119 0.250000
vt 0.596447 0.280544
vt 0.048075 0.290165
vt 0.605356 0.309914
vt 0.059791 0.328787
vt 0.619824 0.336981
vt 0.078817 0.364381
vt 0.639294 0.360706
vt 0.104420 0.395580
vt 0.663019 0.380176
vt 0.135619 0.421184
vt 0.690086 0.394644
vt 0.171213 0.440209
vt 0.719456 0.403553
vt 0.209835 0.451925
vt 0.968750 1.000000
vt 0.296822 0.485388
vt 1.000000 1.000000
vt 0.000000 1.000000
vt 0.250000 0.490000
vt 0.937500 1.000000
vt 0.341844 0.471731
vt 0.906250 1.000000
vt 0.383337 0.449553
vt 0.875000 1.000000
vt 0.419706 0.419706
vt 0.843750 1.000000
vt 0.449553 0.383337
vt 0.812500 1.000000
vt 0.471731 0.341844
vt 0.781250 1.000000
vt 0.485388 0.296822
vt 0.750000 1.000000
vt 0.490000 0.250000
vt 0.718750 1.000000
vt 0.485388 0.203178
vt 0.687500 1.000000
vt 0.471731 0.158156
vt 0.656250 1.000000
vt 0.449553 0.116663
vt 0.625000 1.000000
vt 0.419706 0.080294
vt 0.593750 1.000000
vt 0.383337 0.050447
vt 0.562500 1.000000
vt 0.341844 0.028269
vt 0.531250 1.000000
vt 0.296822 0.014612
vt 0.500000 1.000000
vt 0.250000 0.010000
vt 0.468750 1.000000
vt 0.203178 0.014612
vt 0.437500 1.000000
vt 0.158156 0.028269
vt 0.406250 1.000000
vt 0.116663 0.050447
vt 0.375000 1.000000
vt 0.080294 0.080294
vt 0.343750 1.000000
vt 0.050447 0.116663
vt 0.312500 1.000000
vt 0.028269 0.158156
vt 0.281250 1.000000
vt 0.014612 0.203178
vt 0.250000 1.000000
vt 0.010000 0.250000
vt 0.218750 1.000000
vt 0.014612 0.296822
vt 0.187500 1.000000
vt 0.028269 0.341844
vt 0.156250 1.000000
vt 0.050447 0.383337
vt 0.125000 1.000000
vt 0.080294 0.419706
vt 0.093750 1.000000
vt 0.116663 0.449553
vt 0.062500 1.000000
vt 0.158156 0.471731
vt 0.031250 1.000000
vt 0.203178 0.485388
vt 0.290165 0.451925
vt 0.250000 0.455881
vt 0.328787 0.440209
vt 0.364381 0.421183
vt 0.395580 0.395580
vt 0.421183 0.364381
vt 0.440209 0.328787
vt 0.451925 0.290165
vt 0.455881 0.250000
vt 0.451925 0.209835
vt 0.440209 0.171213
vt 0.421183 0.135619
vt 0.395580 0.104420
vt 0.364381 0.078817
vt 0.328787 0.059791
vt 0.290165 0.048075
vt 0.250000 0.044119
vt 0.209835 0.048075
vt 0.171213 0.059791
vt 0.135619 0.078817
vt 0.104420 0.104420
vt 0.078817 0.135619
vt 0.059791 0.171213
vt 0.048075 0.209835
vt 0.044119 0.250000
vt 0.048075 0.290165
vt 0.059791 0.328787
vt 0.078817 0.364381
vt 0.104420 0.395580
vt 0.135619 0.421184
vt 0.171213 0.440209
vt 0.209835 0.451925
vt 1.000000 0.500000
vt 0.000000 0.500000
vt 0.750000 0.490000
vt 0.968750 0.500000
vt 0.796822 0.485388
vt 0.937500 0.500000
vt 0.841844 0.471731
vt 0.906250 0.500000
vt 0.883337 0.449553
vt 0.875000 0.500000
vt 0.919706 0.419706
vt 0.843750 0.500000
vt 0.949553 0.383337
vt 0.812500 0.500000
vt 0.971731 0.341844
vt 0.781250 0.500000
vt 0.985388 0.296822
vt 0.750000 0.500000
vt 0.990000 0.250000
vt 0.718750 0.500000
vt 0.985388 0.203178
vt 0.687500 0.500000
vt 0.971731 0.158156
vt 0.656250 0.500000
vt 0.949553 0.116663
vt 0.625000 0.500000
vt 0.919706 0.080294
vt 0.593750 0.500000
vt 0.883337 0.050447
vt 0.562500 0.500000
vt 0.841844 0.028269
vt 0.531250 0.500000
vt 0.796822 0.014612
vt 0.500000 0.500000
vt 0.750000 0.010000
vt 0.468750 0.500000
vt 0.703178 0.014612
vt 0.437500 0.500000
vt 0.658156 0.028269
vt 0.406250 0.500000
vt 0.616663 0.050447
vt 0.375000 0.500000
vt 0.580294 0.080294
vt 0.343750 0.500000
vt 0.550447 0.116663
vt 0.312500 0.500000
vt 0.528269 0.158156
vt 0.281250 0.500000
vt 0.514612 0.203178
vt 0.250000 0.500000
vt 0.510000 0.250000
vt 0.218750 0.500000
vt 0.514612 0.296822
vt 0.187500 0.500000
vt 0.528269 0.341844
vt 0.156250 0.500000
vt 0.550447 0.383337
vt 0.125000 0.500000
vt 0.580294 0.419706
vt 0.093750 0.500000
vt 0.616663 0.449553
vt 0.062500 0.500000
vt 0.658156 0.471731
vt 0.031250 0.500000
vt 0.703178 0.485388
vt 0.750000 0.441567
vt 0.787373 0.437886
vt 0.823310 0.426985
vt 0.856429 0.409282
vt 0.885458 0.385458
vt 0.909282 0.356429
vt 0.926985 0.323309
vt 0.937886 0.287373
vt 0.941567 0.250000
vt 0.937886 0.212627
vt 0.926985 0.176691
vt 0.909282 0.143571
vt 0.885458 0.114542
vt 0.856429 0.090718
vt 0.823309 0.073015
vt 0.787373 0.062114
vt 0.750000 0.058433
vt 0.712627 0.062114
vt 0.676691 0.073015
vt 0.643571 0.090718
vt 0.614542 0.114542
vt 0.590718 0.143571
vt 0.573015 0.176691
vt 0.562114 0.212627
vt 0.558433 0.250000
vt 0.562114 0.287373
vt 0.573015 0.323309
vt 0.590718 0.356429
vt 0.614542 0.385458
vt 0.643571 0.409282
vt 0.676691 0.426985
vt 0.712627 0.437886
s 0
f 66/67/1 130/165/1 129/162/1
f 65/65/2 131/167/2 130/165/2
f 67/70/3 132/169/3 131/167/3
f 68/72/4 133/171/4 132/169/4
f 69/74/5 134/173/5 133/171/5
f 70/76/6 135/175/6 134/173/6
f 71/78/7 136/177/7 135/175/7
f 72/80/8 137/179/8 136/177/8
f 73/82/9 138/181/9 137/179/9
f 74/84/10 139/183/10 138/181/10
f 75/86/11 140/185/11 139/183/11
f 76/88/12 141/187/12 140/185/12
f 77/90/13 142/189/13 141/187/13
f 78/92/14 143/191/14 142/189/14
f 79/94/15 144/193/15 143/191/15
f 80/96/16 145/195/16 144/193/16
f 81/98/17 146/197/17 145/195/17
f 82/100/18 147/199/18 146/197/18
f 83/102/19 148/201/19 147/199/19
f 84/104/20 149/203/20 148/201/20
f 85/106/21 150/205/21 149/203/21
f 86/108/22 151/207/22 150/205/22
f 87/110/23 152/209/23 151/207/23
f 88/112/24 153/211/24 152/209/24
f 89/114/25 154/213/25 153/211/25
f 90/116/26 155/215/26 154/213/26
f 91/118/27 156/217/27 155/215/27
f 92/120/28 157/219/28 156/217/28
f 93/122/29 158/221/29 157/219/29
f 94/124/30 159/223/30 158/221/30
f 36/36/31 113/146/31 114/147/31
f 95/126/32 160/225/32 159/223/32
f 96/128/33 129/163/33 160/225/33
f 31/31/34 47/47/34 63/63/34
f 2/2/35 65/66/35 66/69/35
f 6/6/35 65/66/35 4/4/35
f 6/6/35 68/73/35 67/71/35
f 10/10/35 68/73/35 8/8/35
f 10/10/35 70/77/35 69/75/35
f 14/14/35 70/77/35 12/12/35
f 16/16/35 71/79/35 14/14/35
f 18/18/35 72/81/35 16/16/35
f 18/18/35 74/85/35 73/83/35
f 22/22/35 74/85/35 20/20/35
f 22/22/35 76/89/35 75/87/35
f 26/26/35 76/89/35 24/24/35
f 26/26/35 78/93/35 77/91/35
f 30/30/35 78/93/35 28/28/35
f 32/32/35 79/95/35 30/30/35
f 34/34/35 80/97/35 32/32/35
f 34/34/35 82/101/35 81/99/35
f 38/38/35 82/101/35 36/36/35
f 38/38/35 84/105/35 83/103/35
f 42/42/35 84/105/35 40/40/35
f 42/42/35 86/109/35 85/107/35
f 46/46/35 86/109/35 44/44/35
f 48/48/35 87/111/35 46/46/35
f 50/50/35 88/113/35 48/48/35
f 50/50/35 90/117/35 89/115/35
f 54/54/35 90/117/35 52/52/35
f 54/54/35 92/121/35 91/119/35
f 58/58/35 92/121/35 56/56/35
f 58/58/35 94/125/35 93/123/35
f 62/62/35 94/125/35 60/60/35
f 64/64/35 95/127/35 62/62/35
f 2/2/35 96/129/35 64/64/35
f 115/148/35 107/140/35 99/132/35
f 8/8/36 101/134/36 10/10/36
f 62/62/37 128/161/37 64/64/37
f 36/36/38 115/148/38 38/38/38
f 10/10/39 102/135/39 12/12/39
f 2/2/40 128/161/40 98/131/40
f 38/38/41 116/149/41 40/40/41
f 12/12/42 103/136/42 14/14/42
f 40/40/43 117/150/43 42/42/43
f 14/14/44 104/137/44 16/16/44
f 42/42/45 118/151/45 44/44/45
f 16/16/46 105/138/46 18/18/46
f 44/44/47 119/152/47 46/46/47
f 18/18/48 106/139/48 20/20/48
f 46/46/49 120/153/49 48/48/49
f 20/20/50 107/140/50 22/22/50
f 48/48/51 121/154/51 50/50/51
f 22/22/52 108/141/52 24/24/52
f 50/50/53 122/155/53 52/52/53
f 24/24/54 109/142/54 26/26/54
f 52/52/55 123/156/55 54/54/55
f 26/26/56 110/143/56 28/28/56
f 54/54/57 124/157/57 56/56/57
f 28/28/58 111/144/58 30/30/58
f 2/2/59 97/130/59 4/4/59
f 56/56/60 125/158/60 58/58/60
f 30/30/61 112/145/61 32/32/61
f 4/4/62 99/132/62 6/6/62
f 58/58/63 126/159/63 60/60/63
f 32/32/64 113/146/64 34/34/64
f 6/6/65 100/133/65 8/8/65
f 60/60/66 127/160/66 62/62/66
f 161/227/34 130/166/34 162/228/34
f 163/229/34 130/166/34 131/168/34
f 163/229/34 132/170/34 164/230/34
f 164/230/34 133/172/34 165/231/34
f 166/232/34 133/172/34 134/174/34
f 167/233/34 134/174/34 135/176/34
f 167/233/34 136/178/34 168/234/34
f 168/234/34 137/180/34 169/235/34
f 169/235/34 138/182/34 170/236/34
f 171/237/34 138/182/34 139/184/34
f 171/237/34 140/186/34 172/238/34
f 172/238/34 141/188/34 173/239/34
f 174/240/34 141/188/34 142/190/34
f 174/240/34 143/192/34 175/241/34
f 175/241/34 144/194/34 176/242/34
f 176/242/34 145/196/34 177/243/34
f 177/243/34 146/198/34 178/244/34
f 179/245/34 146/198/34 147/200/34
f 180/246/34 147/200/34 148/202/34
f 180/246/34 149/204/34 181/247/34
f 182/248/34 149/204/34 150/206/34
f 183/249/34 150/206/34 151/208/34
f 183/249/34 152/210/34 184/250/34
f 184/250/34 153/212/34 185/251/34
f 185/251/34 154/214/34 186/252/34
f 187/253/34 154/214/34 155/216/34
f 187/253/34 156/218/34 188/254/34
f 188/254/34 157/220/34 189/255/34
f 190/256/34 157/220/34 158/222/34
f 190/256/34 159/224/34 191/257/34
f 191/257/34 160/226/34 192/258/34
f 192/258/34 129/164/34 161/227/34
f 1/1/67 162/228/67 3/3/67
f 5/5/68 162/228/68 163/229/68
f 7/7/69 163/229/69 164/230/69
f 7/7/70 165/231/70 9/9/70
f 9/9/71 166/232/71 11/11/71
f 11/11/72 167/233/72 13/13/72
f 13/13/73 168/234/73 15/15/73
f 17/17/74 168/234/74 169/235/74
f 17/17/75 170/236/75 19/19/75
f 21/21/76 170/236/76 171/237/76
f 23/23/77 171/237/77 172/238/77
f 23/23/78 173/239/78 25/25/78
f 27/27/79 173/239/79 174/240/79
f 27/27/80 175/241/80 29/29/80
f 29/29/81 176/242/81 31/31/81
f 33/33/82 176/242/82 177/243/82
f 33/33/83 178/244/83 35/35/83
f 37/37/84 178/244/84 179/245/84
f 37/37/85 180/246/85 39/39/85
f 39/39/86 181/247/86 41/41/86
f 41/41/87 182/248/87 43/43/87
f 43/43/88 183/249/88 45/45/88
f 45/45/89 184/250/89 47/47/89
f 49/49/90 184/250/90 185/251/90
f 49/49/91 186/252/91 51/51/91
f 53/53/92 186/252/92 187/253/92
f 55/55/93 187/253/93 188/254/93
f 55/55/94 189/255/94 57/57/94
f 59/59/95 189/255/95 190/256/95
f 61/61/96 190/256/96 191/257/96
f 61/61/97 192/258/97 63/63/97
f 1/1/98 192/258/98 161/227/98
f 66/67/1 65/65/1 130/165/1
f 65/65/2 67/70/2 131/167/2
f 67/70/3 68/72/3 132/169/3
f 68/72/4 69/74/4 133/171/4
f 69/74/5 70/76/5 134/173/5
f 70/76/6 71/78/6 135/175/6
f 71/78/7 72/80/7 136/177/7
f 72/80/8 73/82/8 137/179/8
f 73/82/9 74/84/9 138/181/9
f 74/84/10 75/86/10 139/183/10
f 75/86/11 76/88/11 140/185/11
f 76/88/12 77/90/12 141/187/12
f 77/90/13 78/92/13 142/189/13
f 78/92/14 79/94/14 143/191/14
f 79/94/15 80/96/15 144/193/15
f 80/96/16 81/98/16 145/195/16
f 81/98/17 82/100/17 146/197/17
f 82/100/18 83/102/18 147/199/18
f 83/102/19 84/104/19 148/201/19
f 84/104/20 85/106/20 149/203/20
f 85/106/21 86/108/21 150/205/21
f 86/108/22 87/110/22 151/207/22
f 87/110/23 88/112/23 152/209/23
f 88/112/24 89/114/24 153/211/24
f 89/114/25 90/116/25 154/213/25
f 90/116/26 91/118/26 155/215/26
f 91/118/27 92/120/27 156/217/27
f 92/120/28 93/122/28 157/219/28
f 93/122/29 94/124/29 158/221/29
f 94/124/30 95/126/30 159/223/30
f 36/36/31 34/34/31 113/146/31
f 95/126/32 96/128/32 160/225/32
f 96/128/33 66/68/33 129/163/33
f 63/63/34 1/1/34 3/3/34
f 3/3/34 5/5/34 7/7/34
f 7/7/34 9/9/34 11/11/34
f 11/11/34 13/13/34 15/15/34
f 15/15/34 17/17/34 19/19/34
f 19/19/34 21/21/34 23/23/34
f 23/23/34 25/25/34 27/27/34
f 27/27/34 29/29/34 31/31/34
f 31/31/34 33/33/34 35/35/34
f 35/35/34 37/37/34 39/39/34
f 39/39/34 41/41/34 43/43/34
f 43/43/34 45/45/34 47/47/34
f 47/47/34 49/49/34 51/51/34
f 51/51/34 53/53/34 55/55/34
f 55/55/34 57/57/34 59/59/34
f 59/59/34 61/61/34 63/63/34
f 63/63/34 3/3/34 7/7/34
f 7/7/34 11/11/34 15/15/34
f 15/15/34 19/19/34 23/23/34
f 23/23/34 27/27/34 31/31/34
f 31/31/34 35/35/34 39/39/34
f 39/39/34 43/43/34 47/47/34
f 47/47/34 51/51/34 55/55/34
f 55/55/34 59/59/34 63/63/34
f 63/63/34 7/7/34 15/15/34
f 15/15/34 23/23/34 31/31/34
f 31/31/34 39/39/34 47/47/34
f 47/47/34 55/55/34 63/63/34
f 63/63/34 15/15/34 31/31/34
f 2/2/35 4/4/35 65/66/35
f 6/6/35 67/71/35 65/66/35
f 6/6/35 8/8/35 68/73/35
f 10/10/35 69/75/35 68/73/35
f 10/10/35 12/12/35 70/77/35
f 14/14/35 71/79/35 70/77/35
f 16/16/35 72/81/35 71/79/35
f 18/18/35 73/83/35 72/81/35
f 18/18/35 20/20/35 74/85/35
f 22/22/35 75/87/35 74/85/35
f 22/22/35 24/24/35 76/89/35
f 26/26/35 77/91/35 76/89/35
f 26/26/35 28/28/35 78/93/35
f 30/30/35 79/95/35 78/93/35
f 32/32/35 80/97/35 79/95/35
f 34/34/35 81/99/35 80/97/35
f 34/34/35 36/36/35 82/101/35
f 38/38/35 83/103/35 82/101/35
f 38/38/35 40/40/35 84/105/35
f 42/42/35 85/107/35 84/105/35
f 42/42/35 44/44/35 86/109/35
f 46/46/35 87/111/35 86/109/35
f 48/48/35 88/113/35 87/111/35
f 50/50/35 89/115/35 88/113/35
f 50/50/35 52/52/35 90/117/35
f 54/54/35 91/119/35 90/117/35
f 54/54/35 56/56/35 92/121/35
f 58/58/35 93/123/35 92/121/35
f 58/58/35 60/60/35 94/125/35
f 62/62/35 95/127/35 94/125/35
f 64/64/35 96/129/35 95/127/35
f 2/2/35 66/69/35 96/129/35
f 99/132/35 97/130/35 98/131/35
f 98/131/35 128/161/35 127/160/35
f 127/160/35 126/159/35 125/158/35
f 125/158/35 124/157/35 123/156/35
f 123/156/35 122/155/35 121/154/35
f 121/154/35 120/153/35 119/152/35
f 119/152/35 118/151/35 117/150/35
f 117/150/35 116/149/35 115/148/35
f 115/148/35 114/147/35 113/146/35
f 113/146/35 112/145/35 111/144/35
f 111/144/35 110/143/35 109/142/35
f 109/142/35 108/141/35 107/140/35
f 107/140/35 106/139/35 105/138/35
f 105/138/35 104/137/35 103/136/35
f 103/136/35 102/135/35 101/134/35
f 101/134/35 100/133/35 99/132/35
f 99/132/35 98/131/35 127/160/35
f 127/160/35 125/158/35 123/156/35
f 123/156/35 121/154/35 119/152/35
f 119/152/35 117/150/35 115/148/35
f 115/148/35 113/146/35 111/144/35
f 111/144/35 109/142/35 107/140/35
f 107/140/35 105/138/35 103/136/35
f 103/136/35 101/134/35 99/132/35
f 99/132/35 127/160/35 123/156/35
f 123/156/35 119/152/35 115/148/35
f 115/148/35 111/144/35 107/140/35
f 107/140/35 103/136/35 99/132/35
f 99/132/35 123/156/35 115/148/35
f 8/8/36 100/133/36 101/134/36
f 62/62/37 127/160/37 128/161/37
f 36/36/38 114/147/38 115/148/38
f 10/10/39 101/134/39 102/135/39
f 2/2/40 64/64/40 128/161/40
f 38/38/41 115/148/41 116/149/41
f 12/12/42 102/135/42 103/136/42
f 40/40/43 116/149/43 117/150/43
f 14/14/44 103/136/44 104/137/44
f 42/42/45 117/150/45 118/151/45
f 16/16/46 104/137/46 105/138/46
f 44/44/47 118/151/47 119/152/47
f 18/18/48 105/138/48 106/139/48
f 46/46/49 119/152/49 120/153/49
f 20/20/50 106/139/50 107/140/50
f 48/48/51 120/153/51 121/154/51
f 22/22/52 107/140/52 108/141/52
f 50/50/53 121/154/53 122/155/53
f 24/24/54 108/141/54 109/142/54
f 52/52/55 122/155/55 123/156/55
f 26/26/56 109/142/56 110/143/56
f 54/54/57 123/156/57 124/157/57
f 28/28/58 110/143/58 111/144/58
f 2/2/59 98/131/59 97/130/59
f 56/56/60 124/157/60 125/158/60
f 30/30/61 111/144/61 112/145/61
f 4/4/62 97/130/62 99/132/62
f 58/58/63 125/158/63 126/159/63
f 32/32/64 112/145/64 113/146/64
f 6/6/65 99/132/65 100/133/65
f 60/60/66 126/159/66 127/160/66
f 161/227/34 129/164/34 130/166/34
f 163/229/34 162/228/34 130/166/34
f 163/229/34 131/168/34 132/170/34
f 164/230/34 132/170/34 133/172/34
f 166/232/34 165/231/34 133/172/34
f 167/233/34 166/232/34 134/174/34
f 167/233/34 135/176/34 136/178/34
f 168/234/34 136/178/34 137/180/34
f 169/235/34 137/180/34 138/182/34
f 171/237/34 170/236/34 138/182/34
f 171/237/34 139/184/34 140/186/34
f 172/238/34 140/186/34 141/188/34
f 174/240/34 173/239/34 141/188/34
f 174/240/34 142/190/34 143/192/34
f 175/241/34 143/192/34 144/194/34
f 176/242/34 144/194/34 145/196/34
f 177/243/34 145/196/34 146/198/34
f 179/245/34 178/244/34 146/198/34
f 180/246/34 179/245/34 147/200/34
f 180/246/34 148/202/34 149/204/34
f 182/248/34 181/247/34 149/204/34
f 183/249/34 182/248/34 150/206/34
f 183/249/34 151/208/34 152/210/34
f 184/250/34 152/210/34 153/212/34
f 185/251/34 153/212/34 154/214/34
f 187/253/34 186/252/34 154/214/34
f 187/253/34 155/216/34 156/218/34
f 188/254/34 156/218/34 157/220/34
f 190/256/34 189/255/34 157/220/34
f 190/256/34 158/222/34 159/224/34
f 191/257/34 159/224/34 160/226/34
f 192/258/34 160/226/34 129/164/34
f 1/1/67 161/227/67 162/228/67
f 5/5/68 3/3/68 162/228/68
f 7/7/69 5/5/69 163/229/69
f 7/7/70 164/230/70 165/231/70
f 9/9/71 165/231/71 166/232/71
f 11/11/72 166/232/72 167/233/72
f 13/13/73 167/233/73 168/234/73
f 17/17/74 15/15/74 168/234/74
f 17/17/75 169/235/75 170/236/75
f 21/21/76 19/19/76 170/236/76
f 23/23/77 21/21/77 171/237/77
f 23/23/78 172/238/78 173/239/78
f 27/27/79 25/25/79 173/239/79
f 27/27/80 174/240/80 175/241/80
f 29/29/81 175/241/81 176/242/81
f 33/33/82 31/31/82 176/242/82
f 33/33/83 177/243/83 178/244/83
f 37/37/84 35/35/84 178/244/84
f 37/37/85 179/245/85 180/246/85
f 39/39/86 180/246/86 181/247/86
f 41/41/87 181/247/87 182/248/87
f 43/43/88 182/248/88 183/249/88
f 45/45/89 183/249/89 184/250/89
f 49/49/90 47/47/90 184/250/90
f 49/49/91 185/251/91 186/252/91
f 53/53/92 51/51/92 186/252/92
f 55/55/93 53/53/93 187/253/93
f 55/55/94 188/254/94 189/255/94
f 59/59/95 57/57/95 189/255/95
f 61/61/96 59/59/96 190/256/96
f 61/61/97 191/257/97 192/258/97
f 1/1/98 63/63/98 192/258/98
