# Blender 3.3.1
# www.blender.org
o Cube
v -0.989938 0.265523 -2.426100
v -0.989938 -0.020561 -2.426100
v 0.989938 0.265523 -2.426100
v 0.989938 -0.020561 -2.426100
v -0.989938 0.265523 -0.932362
v -0.989938 -0.020561 -0.932362
v 0.989938 0.265523 -0.932362
v 0.989938 -0.020561 -0.932362
v 0.989938 4.974021 -2.346933
v -0.989938 4.974021 -2.346933
v 0.101433 4.974022 -0.259587
v -0.101433 4.974022 -0.259587
v 0.989938 5.917417 -2.346933
v -0.989938 5.917417 -2.346933
v 0.989938 5.917417 -1.286845
v -0.989938 5.917417 -1.286845
v 0.101433 4.974022 -0.056721
v -0.101433 4.974022 -0.056721
v 0.989938 4.974021 -1.286845
v -0.989938 4.974021 -1.286845
v 0.000000 4.974022 -0.301602
v -0.000000 4.974022 -0.014706
v 0.143448 4.974022 -0.158154
v -0.143448 4.974022 -0.158154
v 0.000000 2.535130 -0.301602
v -0.054895 4.974022 -0.290683
v -0.054895 4.974022 -0.025625
v 0.132529 4.974022 -0.103259
v -0.132529 4.974022 -0.213049
v 0.054895 4.974022 -0.290683
v 0.054895 4.974022 -0.025625
v 0.132529 4.974022 -0.213049
v -0.132529 4.974022 -0.103259
v 0.054895 2.535130 -0.290683
v -0.132529 2.535130 -0.213049
v 0.101433 2.535130 -0.056721
v 0.132529 2.535130 -0.103259
v -0.101433 2.535130 -0.056721
v -0.054895 2.535130 -0.025625
v -0.101433 2.535130 -0.259587
v -0.054895 2.535130 -0.290683
v -0.054895 2.658531 -0.290683
v -0.101433 2.658531 -0.259587
v -0.054895 2.658531 -0.025625
v -0.101433 2.658531 -0.056721
v 0.132529 2.658531 -0.103259
v 0.101433 2.658531 -0.056721
v -0.132529 2.658531 -0.213049
v 0.054895 2.658531 -0.290683
v 0.000000 2.658531 -0.301602
v 0.054895 2.658531 -0.025625
v -0.000000 2.658531 -0.014706
v 0.132529 2.658531 -0.213049
v 0.143448 2.658531 -0.158154
v -0.132529 2.658531 -0.103259
v -0.143448 2.658531 -0.158154
v 0.285372 2.658531 0.128374
v 0.604401 2.535130 0.149845
v 0.424858 2.535130 0.229874
v 0.424858 2.658531 0.229874
v 0.604401 2.658531 0.149845
v 0.101433 2.658531 -0.259587
v 0.539915 2.658531 0.251278
v 0.593482 2.658531 0.204740
v 0.539915 2.535130 0.251278
v 0.593482 2.535130 0.204740
v 0.054895 2.535130 -0.025625
v -0.000000 2.535130 -0.014706
v 0.132529 2.535130 -0.213049
v 0.143448 2.535130 -0.158154
v -0.132529 2.535130 -0.103259
v -0.143448 2.535130 -0.158154
v 0.000000 2.535130 -0.084937
v 0.000000 2.535130 -0.231371
v 0.000000 2.535130 -0.158154
v 0.048660 2.535130 -0.158154
v -0.048660 2.535130 -0.158154
v 0.101433 2.535130 -0.259587
v -0.048660 2.535130 -0.231371
v 0.048660 2.535130 -0.231371
v 0.048660 2.535130 -0.084937
v -0.048660 2.535130 -0.084937
v 0.331910 2.658531 0.097279
v 0.363005 2.535130 0.050741
v 0.425354 2.535130 0.028895
v 0.363005 2.658531 0.050741
v 0.285372 2.535130 0.128374
v 0.331910 2.535130 0.097279
v 0.425354 2.658531 0.028895
v 0.552459 2.535130 -0.166654
v 0.552459 2.658531 -0.166654
v 0.402997 2.535130 -0.294462
v 0.402997 2.658531 -0.294462
v 0.465902 2.658531 -0.100212
v 0.607953 2.658531 -0.008404
v 0.607953 2.535130 -0.008404
v 0.465902 2.535130 -0.100212
v 0.539915 2.658531 0.251278
v 0.539915 2.535130 0.251278
v -0.527624 2.535130 -0.477044
v -0.473334 2.535130 -0.505508
v -0.333449 2.535130 -0.480637
v -0.333449 2.658531 -0.480637
v -0.473334 2.658531 -0.505508
v -0.527624 2.658531 -0.477044
v -0.566399 2.658531 -0.422148
v -0.566399 2.535130 -0.422148
v -0.330076 2.658531 -0.345046
v -0.369291 2.658531 -0.296500
v -0.298981 2.535130 -0.391584
v -0.330076 2.535130 -0.345046
v -0.369291 2.535130 -0.296500
v -0.298981 2.658531 -0.391584
v -0.252443 2.658531 -0.422680
v -0.252443 2.535130 -0.422680
v -0.339261 2.658531 0.011755
v -0.546387 2.658531 -0.139083
v -0.546387 2.535130 -0.139083
v -0.339261 2.535130 0.011755
v -0.452947 2.535130 -0.205786
v -0.452947 2.658531 -0.205786
v -0.583262 2.658531 -0.299892
v -0.583262 2.535130 -0.299892
v 0.000000 0.265523 0.989938
v -0.989938 0.265523 0.000000
v -0.193127 0.265523 0.970916
v -0.378833 0.265523 0.914583
v -0.549980 0.265523 0.823103
v -0.699992 0.265523 0.699992
v -0.823103 0.265523 0.549980
v -0.914583 0.265523 0.378833
v -0.970916 0.265523 0.193127
v -0.989938 -0.020561 0.000000
v 0.000000 -0.020561 0.989938
v -0.970916 -0.020561 0.193127
v -0.914583 -0.020561 0.378833
v -0.823103 -0.020561 0.549980
v -0.699992 -0.020561 0.699992
v -0.549980 -0.020561 0.823103
v -0.378833 -0.020561 0.914583
v -0.193127 -0.020561 0.970916
v 0.989938 0.265523 0.000000
v 0.000000 0.265523 0.989938
v 0.970916 0.265523 0.193127
v 0.914583 0.265523 0.378833
v 0.823103 0.265523 0.549980
v 0.699992 0.265523 0.699992
v 0.549980 0.265523 0.823103
v 0.378833 0.265523 0.914583
v 0.193127 0.265523 0.970916
v 0.000000 -0.020561 0.989938
v 0.989938 -0.020561 0.000000
v 0.193127 -0.020561 0.970916
v 0.378833 -0.020561 0.914583
v 0.549980 -0.020561 0.823103
v 0.699992 -0.020561 0.699992
v 0.823103 -0.020561 0.549980
v 0.914583 -0.020561 0.378833
v 0.970916 -0.020561 0.193127
v 0.989938 5.917417 -0.019401
v 0.000000 5.917417 0.970537
v 0.970916 5.917417 0.173726
v 0.914583 5.917417 0.359432
v 0.823103 5.917417 0.530579
v 0.699992 5.917417 0.680591
v 0.549980 5.917417 0.803702
v 0.378833 5.917417 0.895182
v 0.193127 5.917417 0.951515
v 0.000000 5.917417 0.970537
v -0.989938 5.917417 -0.019401
v -0.193127 5.917417 0.951515
v -0.378833 5.917417 0.895182
v -0.549980 5.917417 0.803702
v -0.699992 5.917417 0.680591
v -0.823103 5.917417 0.530579
v -0.914583 5.917417 0.359432
v -0.970916 5.917417 0.173726
v 0.000000 4.974021 0.970537
v 0.989938 4.974021 -0.019401
v 0.342341 4.974022 0.221808
v 0.193127 4.974021 0.951515
v 0.378833 4.974021 0.895182
v 0.549980 4.974021 0.803702
v 0.699992 4.974021 0.680591
v 0.823103 4.974021 0.530579
v 0.914583 4.974021 0.359432
v 0.970916 4.974021 0.173726
v -0.989938 4.974021 -0.019401
v 0.000000 4.974021 0.970537
v -0.342341 4.974022 0.221808
v -0.970916 4.974021 0.173726
v -0.914583 4.974021 0.359432
v -0.823103 4.974021 0.530579
v -0.699992 4.974021 0.680591
v -0.549980 4.974021 0.803702
v -0.378833 4.974021 0.895182
v -0.193127 4.974021 0.951515
vn -1.0000 -0.0000 -0.0000
vn -0.0000 -0.0000 -1.0000
vn -0.0000 1.0000 -0.0000
vn -0.0000 -1.0000 -0.0000
vn 1.0000 -0.0000 -0.0000
vn -0.0000 0.0751 0.9972
vn -0.0000 0.0168 -0.9999
vn -0.9808 -0.0000 -0.1951
vn -0.9808 -0.0000 0.1951
vn 0.9808 -0.0000 0.1951
vn -0.8315 -0.0000 -0.5556
vn 0.9808 -0.0000 -0.1951
vn -0.1951 -0.0000 0.9808
vn 0.8315 -0.0000 0.5556
vn 0.1951 -0.0000 0.9808
vn -0.1951 -0.0000 -0.9808
vn -0.5556 -0.0000 0.8315
vn -0.8315 -0.0000 0.5556
vn 0.1951 -0.0000 -0.9808
vn -0.5556 -0.0000 -0.8315
vn 0.8315 -0.0000 -0.5556
vn 0.5556 -0.0000 0.8315
vn 0.5556 -0.0000 -0.8315
vn 0.8863 -0.0000 -0.4632
vn -0.1829 -0.0000 0.9831
vn 0.6558 -0.0000 0.7549
vn -0.5884 -0.0000 0.8086
vn 0.5529 -0.0000 -0.8333
vn 0.6499 -0.0000 -0.7600
vn 0.9437 -0.0000 -0.3309
vn -0.9514 -0.0000 0.3081
vn -0.9541 -0.0000 -0.2996
vn 0.9997 -0.0000 0.0224
vn -0.4643 -0.0000 -0.8857
vn -0.8168 -0.0000 -0.5769
vn 0.1750 -0.0000 -0.9846
vn 0.5819 -0.0000 -0.8133
vn -0.5224 -0.0000 0.8527
vn -0.5887 -0.0000 0.8084
vn -0.9747 -0.0000 0.2235
vn -0.9906 -0.0000 -0.1366
vn 0.7351 -0.0000 0.6779
vn -0.0980 -0.0000 0.9952
vn -0.2903 -0.0000 0.9569
vn -0.4714 -0.0000 0.8819
vn -0.6344 -0.0000 0.7730
vn -0.7730 -0.0000 0.6344
vn -0.8819 -0.0000 0.4714
vn -0.9569 -0.0000 0.2903
vn -0.9952 -0.0000 0.0980
vn 0.0980 -0.0000 0.9952
vn 0.2903 -0.0000 0.9569
vn 0.4714 -0.0000 0.8819
vn 0.6344 -0.0000 0.7730
vn 0.7730 -0.0000 0.6344
vn 0.8819 -0.0000 0.4714
vn 0.9569 -0.0000 0.2903
vn 0.9952 -0.0000 0.0980
vt 0.375000 0.250000
vt 0.625000 0.250000
vt 0.875000 0.500000
vt 0.375000 0.500000
vt 0.625000 0.500000
vt 0.125000 0.588862
vt 0.375000 0.161138
vt 0.875000 0.588862
vt 0.625000 0.161138
vt 0.375000 0.588862
vt 0.625000 0.588862
vt 0.375000 0.500000
vt 0.375000 0.250000
vt 0.284716 0.588862
vt 0.215284 0.588862
vt 0.375000 0.500000
vt 0.125000 0.500000
vt 0.375000 0.250000
vt 0.375000 0.588862
vt 0.375000 0.161138
vt 0.125000 0.588862
vt 0.284716 0.588862
vt 0.215284 0.588862
vt 0.375000 0.588862
vt 0.375000 0.161138
vt 0.125000 0.588862
vt 0.250000 0.588862
vt 0.250000 0.588862
vt 0.284716 0.588862
vt 0.215284 0.588862
vt 0.250000 0.588862
vt 0.232642 0.588862
vt 0.232642 0.588862
vt 0.284716 0.588862
vt 0.215284 0.588862
vt 0.267358 0.588862
vt 0.267358 0.588862
vt 0.284716 0.588862
vt 0.215284 0.588862
vt 0.267358 0.588862
vt 0.215284 0.588862
vt 0.284716 0.588862
vt 0.284716 0.588862
vt 0.215284 0.588862
vt 0.232642 0.588862
vt 0.215284 0.588862
vt 0.232642 0.588862
vt 0.232642 0.588862
vt 0.215284 0.588862
vt 0.232642 0.588862
vt 0.215284 0.588862
vt 0.284716 0.588862
vt 0.284716 0.588862
vt 0.215284 0.588862
vt 0.267358 0.588862
vt 0.250000 0.588862
vt 0.267358 0.588862
vt 0.250000 0.588862
vt 0.284716 0.588862
vt 0.284716 0.588862
vt 0.215284 0.588862
vt 0.215284 0.588862
vt 0.267358 0.588862
vt 0.284716 0.588862
vt 0.267358 0.588862
vt 0.267358 0.588862
vt 0.284716 0.588862
vt 0.284716 0.588862
vt 0.284716 0.588862
vt 0.284716 0.588862
vt 0.284716 0.588862
vt 0.284716 0.588862
vt 0.267358 0.588862
vt 0.250000 0.588862
vt 0.284716 0.588862
vt 0.284716 0.588862
vt 0.215284 0.588862
vt 0.215284 0.588862
vt 0.250000 0.588862
vt 0.250000 0.588862
vt 0.250000 0.588862
vt 0.267358 0.588862
vt 0.232642 0.588862
vt 0.284716 0.588862
vt 0.232642 0.588862
vt 0.267358 0.588862
vt 0.267358 0.588862
vt 0.232642 0.588862
vt 0.284716 0.588862
vt 0.284716 0.588862
vt 0.284716 0.588862
vt 0.284716 0.588862
vt 0.267358 0.588862
vt 0.284716 0.588862
vt 0.284716 0.588862
vt 0.284716 0.588862
vt 0.284716 0.588862
vt 0.284716 0.588862
vt 0.284716 0.588862
vt 0.284716 0.588862
vt 0.284716 0.588862
vt 0.284716 0.588862
vt 0.284716 0.588862
vt 0.215284 0.588862
vt 0.215284 0.588862
vt 0.232642 0.588862
vt 0.232642 0.588862
vt 0.215284 0.588862
vt 0.215284 0.588862
vt 0.215284 0.588862
vt 0.215284 0.588862
vt 0.215284 0.588862
vt 0.215284 0.588862
vt 0.215284 0.588862
vt 0.215284 0.588862
vt 0.215284 0.588862
vt 0.215284 0.588862
vt 0.232642 0.588862
vt 0.232642 0.588862
vt 0.215284 0.588862
vt 0.215284 0.588862
vt 0.215284 0.588862
vt 0.215284 0.588862
vt 0.215284 0.588862
vt 0.215284 0.588862
vt 0.215284 0.588862
vt 0.215284 0.588862
vt 0.375000 0.875000
vt 0.250000 0.750000
vt 0.375000 0.082982
vt 0.125000 0.667018
vt 0.225614 0.748406
vt 0.375000 0.899386
vt 0.202165 0.743683
vt 0.375000 0.922835
vt 0.180554 0.736015
vt 0.375000 0.944446
vt 0.375000 0.000000
vt 0.161612 0.725695
vt 0.375000 1.000000
vt 0.146066 0.713120
vt 0.375000 0.036880
vt 0.134515 0.698774
vt 0.375000 0.051226
vt 0.127402 0.683207
vt 0.375000 0.066793
vt 0.875000 0.667018
vt 0.625000 0.082982
vt 0.750000 0.750000
vt 0.625000 0.875000
vt 0.872598 0.683207
vt 0.625000 0.066793
vt 0.865485 0.698774
vt 0.625000 0.051226
vt 0.853934 0.713120
vt 0.625000 0.036880
vt 0.838388 0.725695
vt 0.625000 1.000000
vt 0.625000 0.000000
vt 0.819446 0.736015
vt 0.625000 0.944446
vt 0.797835 0.743683
vt 0.625000 0.922835
vt 0.774386 0.748406
vt 0.625000 0.899386
vt 0.375000 0.667018
vt 0.250000 0.750000
vt 0.375000 0.875000
vt 0.372598 0.683207
vt 0.375000 0.683207
vt 0.365485 0.698774
vt 0.375000 0.698774
vt 0.353934 0.713120
vt 0.375000 0.713120
vt 0.338388 0.725695
vt 0.375000 0.750000
vt 0.319446 0.736015
vt 0.375000 0.805554
vt 0.297835 0.743683
vt 0.375000 0.827165
vt 0.274386 0.748406
vt 0.375000 0.850614
vt 0.750000 0.750000
vt 0.625000 0.875000
vt 0.625000 0.667018
vt 0.725614 0.748406
vt 0.625000 0.850614
vt 0.702165 0.743683
vt 0.625000 0.827165
vt 0.680554 0.736015
vt 0.625000 0.805554
vt 0.661612 0.725695
vt 0.625000 0.750000
vt 0.646066 0.713120
vt 0.625000 0.713120
vt 0.634515 0.698774
vt 0.625000 0.698774
vt 0.627402 0.683207
vt 0.625000 0.683207
vt 0.375000 0.588862
vt 0.250000 0.588862
vt 0.374199 0.588862
vt 0.371828 0.588862
vt 0.367978 0.588862
vt 0.362796 0.588862
vt 0.319446 0.588862
vt 0.297835 0.588862
vt 0.274386 0.588862
vt 0.250000 0.588862
vt 0.375000 0.161138
vt 0.125000 0.588862
vt 0.225614 0.588862
vt 0.202165 0.588862
vt 0.180554 0.588862
vt 0.375000 0.161138
vt 0.125000 0.588862
vt 0.161612 0.588862
vt 0.375000 0.161138
vt 0.146066 0.588862
vt 0.375000 0.161138
vt 0.134515 0.588862
vt 0.375000 0.161138
vt 0.127402 0.588862
vt 0.250000 0.588862
vt 0.375000 0.588862
vt 0.309196 0.588862
vt 0.274386 0.588862
vt 0.297835 0.588862
vt 0.319446 0.588862
vt 0.338388 0.588862
vt 0.375000 0.588862
vt 0.353934 0.588862
vt 0.375000 0.588862
vt 0.365485 0.588862
vt 0.375000 0.588862
vt 0.372598 0.588862
vt 0.375000 0.588862
vt 0.125000 0.588862
vt 0.375000 0.161138
vt 0.168048 0.588862
vt 0.250000 0.588862
vt 0.190804 0.588862
vt 0.126939 0.588862
vt 0.375000 0.161138
vt 0.132673 0.588862
vt 0.375000 0.161138
vt 0.141970 0.588862
vt 0.375000 0.161138
vt 0.152186 0.588862
vt 0.125000 0.588862
vt 0.375000 0.161138
vt 0.152520 0.588862
vt 0.180554 0.588862
vt 0.155363 0.588862
vt 0.202165 0.588862
vt 0.160606 0.588862
vt 0.225614 0.588862
s 0
f 6/9/1 5/7/1 1/1/1
f 2/2/2 1/1/2 3/4/2
f 144/169/3 131/143/3 127/134/3
f 135/151/4 158/196/4 154/188/4
f 8/11/5 7/10/5 142/166/5
f 2/3/4 4/5/4 8/11/4
f 5/6/6 7/10/6 19/24/6
f 4/5/5 3/4/5 7/10/5
f 143/168/4 124/128/4 134/150/4
f 10/13/1 20/25/1 16/20/1
f 3/4/7 1/1/7 10/13/7
f 3/4/5 9/12/5 19/24/5
f 1/1/1 5/7/1 20/25/1
f 13/16/3 14/17/3 16/21/3
f 9/12/2 10/13/2 14/18/2
f 16/20/1 20/25/1 188/239/1
f 19/24/5 9/12/5 13/16/5
f 19/24/5 15/19/5 160/200/5
f 27/33/4 178/224/4 190/242/4
f 178/224/4 161/201/4 169/209/4
f 24/30/8 29/35/8 48/54/8
f 30/36/4 20/26/4 11/14/4
f 28/34/4 19/24/4 180/226/4
f 29/35/4 190/242/4 20/26/4
f 33/39/9 24/30/9 56/62/9
f 23/29/10 28/34/10 46/52/10
f 29/35/11 12/15/11 43/49/11
f 32/38/12 23/29/12 54/60/12
f 22/28/13 27/33/13 44/50/13
f 28/34/14 17/22/14 47/53/14
f 31/37/15 22/28/15 52/58/15
f 26/32/16 21/27/16 50/56/16
f 27/33/17 18/23/17 45/51/17
f 18/23/18 33/39/18 55/61/18
f 21/27/19 30/36/19 49/55/19
f 12/15/20 26/32/20 42/48/20
f 11/14/21 32/38/21 53/59/21
f 17/22/22 31/37/22 51/57/22
f 30/36/23 11/14/23 62/68/23
f 51/57/15 52/58/15 68/74/15
f 42/48/16 50/56/16 25/31/16
f 45/51/18 55/61/18 71/77/18
f 50/56/19 49/55/19 34/40/19
f 62/68/21 53/59/21 69/75/21
f 120/124/24 121/125/24 116/120/24
f 86/92/3 83/89/3 63/69/3
f 85/91/4 58/64/4 66/72/4
f 49/55/23 62/68/23 78/84/23
f 44/50/17 45/51/17 38/44/17
f 111/115/4 100/104/4 101/105/4
f 109/113/3 108/112/3 105/109/3
f 55/61/9 56/62/9 72/78/9
f 83/89/3 57/63/3 60/66/3
f 53/59/12 54/60/12 70/76/12
f 52/58/13 44/50/13 39/45/13
f 82/88/4 39/45/4 38/44/4
f 73/79/4 81/87/4 67/73/4
f 74/80/4 80/86/4 76/82/4
f 35/41/4 79/85/4 77/83/4
f 79/85/4 74/80/4 75/81/4
f 41/47/4 25/31/4 74/80/4
f 40/46/4 41/47/4 79/85/4
f 69/75/4 70/76/4 76/82/4
f 78/84/4 69/75/4 80/86/4
f 34/40/4 80/86/4 74/80/4
f 81/87/4 37/43/4 36/42/4
f 76/82/4 70/76/4 37/43/4
f 75/81/4 76/82/4 81/87/4
f 73/79/4 68/74/4 39/45/4
f 77/83/4 75/81/4 73/79/4
f 77/83/4 82/88/4 71/77/4
f 63/69/25 60/66/25 59/65/25
f 64/70/26 63/69/26 65/71/26
f 61/67/10 64/70/10 66/72/10
f 88/94/4 65/71/4 59/65/4
f 94/100/3 95/101/3 91/97/3
f 57/63/27 87/93/27 59/65/27
f 84/90/4 66/72/4 65/71/4
f 89/95/3 86/92/3 64/70/3
f 54/60/3 46/52/3 86/92/3
f 36/42/4 37/43/4 84/90/4
f 51/57/17 67/73/17 87/93/17
f 70/76/28 54/60/28 89/95/28
f 36/42/4 88/94/4 87/93/4
f 47/53/3 51/57/3 57/63/3
f 70/76/4 85/91/4 84/90/4
f 47/53/3 83/89/3 86/92/3
f 92/98/29 93/99/29 91/97/29
f 95/101/30 96/102/30 90/96/30
f 97/103/4 92/98/4 90/96/4
f 97/103/31 94/100/31 93/99/31
f 85/91/32 89/95/32 94/100/32
f 85/91/4 97/103/4 96/102/4
f 61/67/33 58/64/33 96/102/33
f 89/95/3 61/67/3 95/101/3
f 105/109/34 104/108/34 101/105/34
f 106/110/35 105/109/35 100/104/35
f 104/108/36 103/107/36 102/106/36
f 113/117/3 114/118/3 103/107/3
f 114/118/37 115/119/37 102/106/37
f 110/114/4 101/105/4 102/106/4
f 112/116/4 107/111/4 100/104/4
f 108/112/3 113/117/3 104/108/3
f 48/54/3 43/49/3 113/117/3
f 35/41/4 72/78/4 112/116/4
f 40/46/4 110/114/4 115/119/4
f 42/48/23 41/47/23 115/119/23
f 43/49/3 42/48/3 114/118/3
f 48/54/3 108/112/3 109/113/3
f 35/41/4 111/115/4 110/114/4
f 72/78/38 56/62/38 109/113/38
f 119/123/39 116/120/39 117/121/39
f 121/125/3 122/126/3 117/121/3
f 120/124/4 119/123/4 118/122/4
f 122/126/40 123/127/40 118/122/40
f 106/110/41 107/111/41 123/127/41
f 112/116/4 120/124/4 123/127/4
f 109/113/3 106/110/3 122/126/3
f 112/116/42 109/113/42 121/125/42
f 134/150/43 124/128/43 126/133/43
f 141/165/44 126/133/44 127/135/44
f 140/163/45 127/135/45 128/137/45
f 139/161/46 128/137/46 129/140/46
f 138/159/47 129/138/47 130/142/47
f 137/156/48 130/142/48 131/144/48
f 136/154/49 131/144/49 132/146/49
f 132/146/50 125/130/50 133/148/50
f 143/168/51 151/184/51 153/187/51
f 150/182/52 153/187/52 154/189/52
f 149/180/53 154/189/53 155/191/53
f 148/178/54 155/191/54 156/193/54
f 147/176/55 156/193/55 157/195/55
f 146/174/56 157/195/56 158/197/56
f 145/172/57 158/197/57 159/199/57
f 159/199/58 152/185/58 142/166/58
f 133/148/1 125/130/1 5/7/1
f 178/224/4 180/226/4 181/227/4
f 181/227/4 180/226/4 182/228/4
f 182/228/4 180/226/4 183/229/4
f 183/229/4 180/226/4 184/230/4
f 184/230/4 180/226/4 185/232/4
f 185/232/4 180/226/4 186/234/4
f 186/234/4 180/226/4 187/236/4
f 187/236/4 180/226/4 179/225/4
f 188/238/4 190/242/4 191/243/4
f 191/243/4 190/242/4 192/245/4
f 192/245/4 190/242/4 193/247/4
f 193/247/4 190/242/4 194/249/4
f 194/249/4 190/242/4 195/252/4
f 195/252/4 190/242/4 196/254/4
f 196/254/4 190/242/4 197/256/4
f 197/256/4 190/242/4 189/240/4
f 189/241/43 169/209/43 171/212/43
f 197/257/44 171/212/44 172/213/44
f 196/255/45 172/213/45 173/214/45
f 195/253/46 173/214/46 174/216/46
f 194/251/47 174/215/47 175/218/47
f 193/248/48 175/218/48 176/220/48
f 192/246/49 176/220/49 177/222/49
f 191/244/50 177/222/50 170/210/50
f 179/225/58 160/200/58 162/202/58
f 187/237/57 162/202/57 163/203/57
f 186/235/56 163/203/56 164/204/56
f 185/233/55 164/204/55 165/205/55
f 184/231/54 165/205/54 166/206/54
f 183/229/53 166/206/53 167/207/53
f 182/228/52 167/207/52 168/208/52
f 181/227/51 168/208/51 161/201/51
f 162/202/3 176/221/3 172/213/3
f 6/9/1 1/1/1 2/2/1
f 2/2/2 3/4/2 4/5/2
f 125/131/3 7/10/3 5/6/3
f 7/10/3 144/169/3 142/166/3
f 144/169/3 146/173/3 145/171/3
f 146/173/3 148/177/3 147/175/3
f 148/177/3 150/181/3 149/179/3
f 143/167/4 126/132/4 124/129/4
f 148/177/3 143/167/3 150/181/3
f 144/169/3 148/177/3 146/173/3
f 125/131/3 144/169/3 7/10/3
f 131/143/3 125/131/3 132/145/3
f 129/139/3 131/143/3 130/141/3
f 127/134/3 129/139/3 128/136/3
f 143/167/3 127/134/3 126/132/3
f 144/169/3 143/167/3 148/177/3
f 131/143/3 144/169/3 125/131/3
f 127/134/3 131/143/3 129/139/3
f 144/169/3 127/134/3 143/167/3
f 152/185/4 6/8/4 8/11/4
f 6/8/4 135/151/4 133/147/4
f 135/151/4 137/155/4 136/153/4
f 137/155/4 139/160/4 138/157/4
f 139/160/4 141/164/4 140/162/4
f 134/149/4 153/186/4 151/183/4
f 139/160/4 134/149/4 141/164/4
f 135/151/4 139/160/4 137/155/4
f 152/185/4 135/151/4 6/8/4
f 158/196/4 152/185/4 159/198/4
f 156/192/4 158/196/4 157/194/4
f 154/188/4 156/192/4 155/190/4
f 134/149/4 154/188/4 153/186/4
f 135/151/4 134/149/4 139/160/4
f 158/196/4 135/151/4 152/185/4
f 154/188/4 158/196/4 156/192/4
f 135/151/4 154/188/4 134/149/4
f 8/11/5 142/166/5 152/185/5
f 2/3/4 8/11/4 6/8/4
f 5/6/6 19/24/6 20/26/6
f 4/5/5 7/10/5 8/11/5
f 143/168/4 134/150/4 151/184/4
f 10/13/1 16/20/1 14/18/1
f 3/4/7 10/13/7 9/12/7
f 3/4/5 19/24/5 7/10/5
f 1/1/1 20/25/1 10/13/1
f 13/16/3 16/21/3 15/19/3
f 9/12/2 14/18/2 13/16/2
f 16/20/1 188/239/1 170/210/1
f 19/24/5 13/16/5 15/19/5
f 19/24/5 160/200/5 179/225/5
f 180/226/4 31/37/4 17/22/4
f 180/226/4 22/28/4 31/37/4
f 190/242/4 178/224/4 189/241/4
f 178/224/4 22/28/4 180/226/4
f 27/33/4 190/242/4 18/23/4
f 178/224/4 27/33/4 22/28/4
f 178/224/4 169/209/4 189/241/4
f 24/30/8 48/54/8 56/62/8
f 20/26/4 26/32/4 12/15/4
f 20/26/4 21/27/4 26/32/4
f 11/14/4 20/26/4 19/24/4
f 20/26/4 30/36/4 21/27/4
f 19/24/4 32/38/4 11/14/4
f 19/24/4 23/29/4 32/38/4
f 180/226/4 19/24/4 179/225/4
f 28/34/4 180/226/4 17/22/4
f 19/24/4 28/34/4 23/29/4
f 190/242/4 33/39/4 18/23/4
f 190/242/4 24/30/4 33/39/4
f 20/26/4 190/242/4 188/238/4
f 29/35/4 20/26/4 12/15/4
f 190/242/4 29/35/4 24/30/4
f 33/39/9 56/62/9 55/61/9
f 23/29/10 46/52/10 54/60/10
f 29/35/11 43/49/11 48/54/11
f 32/38/12 54/60/12 53/59/12
f 22/28/13 44/50/13 52/58/13
f 28/34/14 47/53/14 46/52/14
f 31/37/15 52/58/15 51/57/15
f 26/32/16 50/56/16 42/48/16
f 27/33/17 45/51/17 44/50/17
f 18/23/18 55/61/18 45/51/18
f 21/27/19 49/55/19 50/56/19
f 12/15/20 42/48/20 43/49/20
f 11/14/21 53/59/21 62/68/21
f 17/22/22 51/57/22 47/53/22
f 30/36/23 62/68/23 49/55/23
f 51/57/15 68/74/15 67/73/15
f 42/48/16 25/31/16 41/47/16
f 45/51/18 71/77/18 38/44/18
f 50/56/19 34/40/19 25/31/19
f 62/68/21 69/75/21 78/84/21
f 120/124/24 116/120/24 119/123/24
f 86/92/3 63/69/3 64/70/3
f 85/91/4 66/72/4 84/90/4
f 49/55/23 78/84/23 34/40/23
f 44/50/17 38/44/17 39/45/17
f 111/115/4 101/105/4 110/114/4
f 109/113/3 105/109/3 106/110/3
f 55/61/9 72/78/9 71/77/9
f 83/89/3 60/66/3 63/69/3
f 53/59/12 70/76/12 69/75/12
f 52/58/13 39/45/13 68/74/13
f 82/88/4 38/44/4 71/77/4
f 73/79/4 67/73/4 68/74/4
f 74/80/4 76/82/4 75/81/4
f 35/41/4 77/83/4 72/78/4
f 79/85/4 75/81/4 77/83/4
f 41/47/4 74/80/4 79/85/4
f 40/46/4 79/85/4 35/41/4
f 69/75/4 76/82/4 80/86/4
f 78/84/4 80/86/4 34/40/4
f 34/40/4 74/80/4 25/31/4
f 81/87/4 36/42/4 67/73/4
f 76/82/4 37/43/4 81/87/4
f 75/81/4 81/87/4 73/79/4
f 73/79/4 39/45/4 82/88/4
f 77/83/4 73/79/4 82/88/4
f 77/83/4 71/77/4 72/78/4
f 63/69/25 59/65/25 65/71/25
f 64/70/26 65/71/26 66/72/26
f 61/67/10 66/72/10 58/64/10
f 88/94/4 59/65/4 87/93/4
f 94/100/3 91/97/3 93/99/3
f 57/63/27 59/65/27 60/66/27
f 84/90/4 65/71/4 88/94/4
f 89/95/3 64/70/3 61/67/3
f 54/60/3 86/92/3 89/95/3
f 36/42/4 84/90/4 88/94/4
f 51/57/17 87/93/17 57/63/17
f 70/76/28 89/95/28 85/91/28
f 36/42/4 87/93/4 67/73/4
f 47/53/3 57/63/3 83/89/3
f 70/76/4 84/90/4 37/43/4
f 47/53/3 86/92/3 46/52/3
f 92/98/29 91/97/29 90/96/29
f 95/101/30 90/96/30 91/97/30
f 97/103/4 90/96/4 96/102/4
f 97/103/31 93/99/31 92/98/31
f 85/91/32 94/100/32 97/103/32
f 85/91/4 96/102/4 58/64/4
f 61/67/33 96/102/33 95/101/33
f 89/95/3 95/101/3 94/100/3
f 105/109/34 101/105/34 100/104/34
f 106/110/35 100/104/35 107/111/35
f 104/108/36 102/106/36 101/105/36
f 113/117/3 103/107/3 104/108/3
f 114/118/37 102/106/37 103/107/37
f 110/114/4 102/106/4 115/119/4
f 112/116/4 100/104/4 111/115/4
f 108/112/3 104/108/3 105/109/3
f 48/54/3 113/117/3 108/112/3
f 35/41/4 112/116/4 111/115/4
f 40/46/4 115/119/4 41/47/4
f 42/48/23 115/119/23 114/118/23
f 43/49/3 114/118/3 113/117/3
f 48/54/3 109/113/3 56/62/3
f 35/41/4 110/114/4 40/46/4
f 72/78/38 109/113/38 112/116/38
f 119/123/39 117/121/39 118/122/39
f 121/125/3 117/121/3 116/120/3
f 120/124/4 118/122/4 123/127/4
f 122/126/40 118/122/40 117/121/40
f 106/110/41 123/127/41 122/126/41
f 112/116/4 123/127/4 107/111/4
f 109/113/3 122/126/3 121/125/3
f 112/116/42 121/125/42 120/124/42
f 134/150/43 126/133/43 141/165/43
f 141/165/44 127/135/44 140/163/44
f 140/163/45 128/137/45 139/161/45
f 139/161/46 129/140/46 138/158/46
f 138/159/47 130/142/47 137/156/47
f 137/156/48 131/144/48 136/154/48
f 136/154/49 132/146/49 135/152/49
f 132/146/50 133/148/50 135/152/50
f 143/168/51 153/187/51 150/182/51
f 150/182/52 154/189/52 149/180/52
f 149/180/53 155/191/53 148/178/53
f 148/178/54 156/193/54 147/176/54
f 147/176/55 157/195/55 146/174/55
f 146/174/56 158/197/56 145/172/56
f 145/172/57 159/199/57 144/170/57
f 159/199/58 142/166/58 144/170/58
f 133/148/1 5/7/1 6/9/1
f 189/241/43 171/212/43 197/257/43
f 197/257/44 172/213/44 196/255/44
f 196/255/45 173/214/45 195/253/45
f 195/253/46 174/216/46 194/250/46
f 194/251/47 175/218/47 193/248/47
f 193/248/48 176/220/48 192/246/48
f 192/246/49 177/222/49 191/244/49
f 191/244/50 170/210/50 188/239/50
f 179/225/58 162/202/58 187/237/58
f 187/237/57 163/203/57 186/235/57
f 186/235/56 164/204/56 185/233/56
f 185/233/55 165/205/55 184/231/55
f 184/231/54 166/206/54 183/229/54
f 183/229/53 167/207/53 182/228/53
f 182/228/52 168/208/52 181/227/52
f 181/227/51 161/201/51 178/224/51
f 170/211/3 15/19/3 16/21/3
f 15/19/3 162/202/3 160/200/3
f 162/202/3 164/204/3 163/203/3
f 164/204/3 166/206/3 165/205/3
f 166/206/3 168/208/3 167/207/3
f 161/201/4 171/212/4 169/209/4
f 166/206/3 161/201/3 168/208/3
f 162/202/3 166/206/3 164/204/3
f 170/211/3 162/202/3 15/19/3
f 176/221/3 170/211/3 177/223/3
f 174/217/3 176/221/3 175/219/3
f 172/213/3 174/217/3 173/214/3
f 161/201/3 172/213/3 171/212/3
f 162/202/3 161/201/3 166/206/3
f 176/221/3 162/202/3 170/211/3
f 172/213/3 176/221/3 174/217/3
f 162/202/3 172/213/3 161/201/3
l 99 98
