# Blender 3.3.1
# www.blender.org
o ovo
v 0.651595 1.422551 -0.426928
v 0.681030 0.002575 -0.537769
v 0.651595 1.422551 0.426928
v 0.681030 0.002575 0.537769
v -0.635054 1.414934 -0.441505
v -0.681030 0.002575 -0.537769
v -0.635054 1.414934 0.441505
v -0.681030 0.002575 0.537769
v -0.681030 0.002575 0.000000
v 0.651595 1.960251 0.000000
v -0.635054 1.970994 0.000000
v 0.681030 0.002575 0.000000
v 0.681030 2.140379 0.000000
v -0.681030 2.140379 0.000000
v -0.635054 1.414934 0.000000
v 0.651595 1.422551 0.000000
v -0.585522 1.958651 -0.033405
v -0.585522 1.416048 -0.464226
v -0.618594 1.400676 0.492753
v -0.681030 1.364634 0.000000
v 0.585522 1.958651 -0.033405
v 0.618594 1.400676 0.492753
v 0.585522 1.416048 -0.464226
v 0.681030 1.364634 0.000000
v 0.715645 1.024119 -0.565103
v 0.725500 0.683605 -0.572885
v 0.783028 0.343090 -0.618311
v -0.783028 0.343090 0.618311
v -0.725500 0.683605 0.572885
v -0.715645 1.024119 0.565103
v 0.715645 1.024119 0.565103
v 0.725500 0.683605 0.572885
v 0.783028 0.343090 0.618311
v -0.715645 1.024119 -0.565103
v -0.725500 0.683605 -0.572885
v -0.783028 0.343090 -0.618311
v 0.715645 1.024119 0.000000
v 0.725500 0.683605 0.000000
v 0.783028 0.343090 0.000000
v -0.715645 1.024119 0.000000
v -0.725500 0.683605 0.000000
v -0.783028 0.343090 0.000000
v -0.618594 1.989920 0.024899
v -0.681030 1.364634 -0.537769
v 0.681030 1.364634 -0.537769
v 0.618594 1.989920 0.024899
v 0.681030 1.364634 0.537769
v -0.681030 1.364634 0.537769
v 0.681030 2.041934 0.000000
v -0.681030 2.041934 0.000000
vn -0.0000 0.6218 0.7832
vn -0.0000 0.0800 0.9968
vn -0.9949 0.1011 -0.0000
vn -0.0000 -1.0000 -0.0000
vn 0.9949 0.1011 -0.0000
vn -0.0000 0.0800 -0.9968
vn -0.0000 0.6218 -0.7832
vn -0.0000 -0.0000 -1.0000
vn -1.0000 -0.0000 -0.0000
vn 1.0000 -0.0000 -0.0000
vn -0.6923 -0.4487 0.5651
vn -0.6923 -0.4487 -0.5651
vn -0.7381 0.6747 -0.0000
vn 0.8652 -0.3118 -0.3927
vn 0.8652 -0.3118 0.3927
vn 0.8915 0.4531 -0.0000
vn -0.9579 -0.2869 -0.0000
vn -0.9860 0.1666 -0.0000
vn -0.9996 0.0289 -0.0000
vn 0.9579 -0.2869 -0.0000
vn 0.9860 0.1666 -0.0000
vn 0.9996 0.0289 -0.0000
vn -0.0000 -0.2302 -0.9731
vn -0.0000 0.1322 -0.9912
vn -0.0000 0.0228 -0.9997
vn -0.0000 -0.2302 0.9731
vn -0.0000 0.1322 0.9912
vn -0.0000 0.0228 0.9997
vn 0.2591 0.6006 -0.7564
vn -0.0000 0.8196 -0.5730
vn -0.2591 0.6006 -0.7564
vn -0.0000 0.3723 -0.9281
vn -0.0000 0.7806 0.6250
vn -0.2015 0.6091 0.7671
vn 0.2015 0.6091 0.7671
vn -0.0000 0.4318 0.9020
vt 0.614987 0.525764
vt 0.375000 0.500000
vt 0.614987 0.724236
vt 0.375000 0.750000
vt 0.616304 0.227624
vt 0.125000 0.500000
vt 0.375000 0.250000
vt 0.616304 0.022376
vt 0.375000 1.000000
vt 0.125000 0.750000
vt 0.375000 0.000000
vt 0.375000 0.125000
vt 0.125000 0.625000
vt 0.614987 0.625000
vt 0.616304 0.125000
vt 0.375000 0.625000
vt 0.625000 0.625000
vt 0.875000 0.625000
vt 0.548138 0.125000
vt 0.549071 0.625000
vt 0.857470 0.612570
vt 0.857470 0.512430
vt 0.863540 0.741874
vt 0.541972 0.125000
vt 0.642530 0.612570
vt 0.636460 0.741874
vt 0.642530 0.512430
vt 0.541972 0.625000
vt 0.562500 0.500000
vt 0.500000 0.500000
vt 0.437500 0.500000
vt 0.437500 0.000000
vt 0.437500 1.000000
vt 0.500000 0.000000
vt 0.500000 1.000000
vt 0.562500 0.000000
vt 0.562500 1.000000
vt 0.562500 0.750000
vt 0.500000 0.750000
vt 0.437500 0.750000
vt 0.562500 0.250000
vt 0.500000 0.250000
vt 0.437500 0.250000
vt 0.500229 0.625000
vt 0.458486 0.625000
vt 0.416743 0.625000
vt 0.500229 0.125000
vt 0.458486 0.125000
vt 0.416743 0.125000
vt 0.863540 0.633126
vt 0.625000 0.250000
vt 0.875000 0.500000
vt 0.625000 0.500000
vt 0.636460 0.633126
vt 0.625000 0.750000
vt 0.625000 1.000000
vt 0.625000 0.000000
vt 0.875000 0.750000
vt 0.625000 0.625000
vt 0.625000 0.125000
vt 0.875000 0.625000
s 0
f 43/50/1 22/26/1 46/54/1
f 47/55/2 30/37/2 31/38/2
f 40/47/3 44/51/3 34/41/3
f 12/16/4 8/10/4 9/13/4
f 37/44/5 47/55/5 31/38/5
f 44/51/6 25/29/6 34/41/6
f 45/53/5 37/44/5 25/29/5
f 2/2/4 9/13/4 6/6/4
f 48/57/3 40/47/3 30/36/3
f 18/22/7 21/25/7 23/27/7
f 50/61/8 13/17/8 49/59/8
f 15/19/9 7/8/9 11/15/9
f 5/5/9 15/19/9 11/15/9
f 16/20/10 1/1/10 10/14/10
f 3/3/10 16/20/10 10/14/10
f 5/5/11 50/60/11 44/51/11
f 7/8/12 50/60/12 11/15/12
f 7/8/13 20/24/13 48/57/13
f 5/5/13 20/24/13 15/19/13
f 3/3/14 49/59/14 47/55/14
f 1/1/15 49/59/15 10/14/15
f 1/1/16 24/28/16 45/53/16
f 3/3/16 24/28/16 16/20/16
f 8/11/17 42/49/17 9/12/17
f 29/34/18 42/49/18 28/32/18
f 30/36/19 41/48/19 29/34/19
f 2/2/20 39/46/20 12/16/20
f 26/30/21 39/46/21 27/31/21
f 25/29/22 38/45/22 26/30/22
f 6/7/23 27/31/23 2/2/23
f 35/42/24 27/31/24 36/43/24
f 34/41/25 26/30/25 35/42/25
f 39/46/20 4/4/20 12/16/20
f 39/46/21 32/39/21 33/40/21
f 38/45/22 31/38/22 32/39/22
f 42/49/17 6/7/17 9/12/17
f 42/49/18 35/42/18 36/43/18
f 41/48/19 34/41/19 35/42/19
f 4/4/26 28/33/26 8/9/26
f 32/39/27 28/33/27 33/40/27
f 31/38/28 29/35/28 32/39/28
f 18/22/29 50/61/29 17/21/29
f 23/27/30 44/52/30 18/22/30
f 23/27/31 49/59/31 45/53/31
f 17/21/32 49/59/32 21/25/32
f 19/23/33 47/55/33 22/26/33
f 22/26/34 49/59/34 46/54/34
f 19/23/35 50/61/35 48/58/35
f 46/54/36 50/61/36 43/50/36
f 43/50/1 19/23/1 22/26/1
f 47/55/2 48/56/2 30/37/2
f 40/47/3 20/24/3 44/51/3
f 12/16/4 4/4/4 8/10/4
f 37/44/5 24/28/5 47/55/5
f 44/51/6 45/53/6 25/29/6
f 45/53/5 24/28/5 37/44/5
f 2/2/4 12/16/4 9/13/4
f 48/57/3 20/24/3 40/47/3
f 18/22/7 17/21/7 21/25/7
f 50/61/8 14/18/8 13/17/8
f 5/5/11 11/15/11 50/60/11
f 7/8/12 48/57/12 50/60/12
f 7/8/13 15/19/13 20/24/13
f 5/5/13 44/51/13 20/24/13
f 3/3/14 10/14/14 49/59/14
f 1/1/15 45/53/15 49/59/15
f 1/1/16 16/20/16 24/28/16
f 3/3/16 47/55/16 24/28/16
f 8/11/17 28/32/17 42/49/17
f 29/34/18 41/48/18 42/49/18
f 30/36/19 40/47/19 41/48/19
f 2/2/20 27/31/20 39/46/20
f 26/30/21 38/45/21 39/46/21
f 25/29/22 37/44/22 38/45/22
f 6/7/23 36/43/23 27/31/23
f 35/42/24 26/30/24 27/31/24
f 34/41/25 25/29/25 26/30/25
f 39/46/20 33/40/20 4/4/20
f 39/46/21 38/45/21 32/39/21
f 38/45/22 37/44/22 31/38/22
f 42/49/17 36/43/17 6/7/17
f 42/49/18 41/48/18 35/42/18
f 41/48/19 40/47/19 34/41/19
f 4/4/26 33/40/26 28/33/26
f 32/39/27 29/35/27 28/33/27
f 31/38/28 30/37/28 29/35/28
f 18/22/29 44/52/29 50/61/29
f 23/27/30 45/53/30 44/52/30
f 23/27/31 21/25/31 49/59/31
f 17/21/32 50/61/32 49/59/32
f 19/23/33 48/58/33 47/55/33
f 22/26/34 47/55/34 49/59/34
f 19/23/35 43/50/35 50/61/35
f 46/54/36 49/59/36 50/61/36
