# Blender 3.3.1
# www.blender.org
o plate
v -0.000000 0.106348 -0.915848
v -0.000000 0.610825 -2.241350
v 0.178673 0.106348 -0.898251
v 0.437266 0.610825 -2.198283
v 0.350480 0.106348 -0.846134
v 0.857728 0.610825 -2.070737
v 0.508818 0.106348 -0.761500
v 1.245227 0.610825 -1.863614
v 0.647602 0.106348 -0.647603
v 1.584874 0.610825 -1.584874
v 0.761500 0.106348 -0.508818
v 1.863614 0.610825 -1.245227
v 0.846134 0.106348 -0.350480
v 2.070737 0.610825 -0.857727
v 0.898250 0.106348 -0.178673
v 2.198283 0.610825 -0.437266
v 0.915848 0.106348 0.000000
v 2.241350 0.610825 -0.000000
v 0.898250 0.106348 0.178673
v 2.198283 0.610825 0.437266
v 0.846134 0.106348 0.350480
v 2.070737 0.610825 0.857728
v 0.761500 0.106348 0.508818
v 1.863614 0.610825 1.245227
v 0.647602 0.106348 0.647603
v 1.584874 0.610825 1.584874
v 0.508818 0.106348 0.761500
v 1.245227 0.610825 1.863614
v 0.350480 0.106348 0.846134
v 0.857727 0.610825 2.070737
v 0.178673 0.106348 0.898251
v 0.437266 0.610825 2.198283
v -0.000000 0.106348 0.915848
v 0.000000 0.610825 2.241350
v -0.178673 0.106348 0.898251
v -0.437266 0.610825 2.198283
v -0.350480 0.106348 0.846134
v -0.857728 0.610825 2.070737
v -0.508818 0.106348 0.761500
v -1.245227 0.610825 1.863614
v -0.647603 0.106348 0.647602
v -1.584874 0.610825 1.584874
v -0.761500 0.106348 0.508818
v -1.863614 0.610825 1.245227
v -0.846134 0.106348 0.350480
v -2.070737 0.610825 0.857727
v -0.898251 0.106348 0.178673
v -2.198283 0.610825 0.437266
v -0.915849 0.106348 0.000000
v -2.241350 0.610825 0.000000
v -0.898251 0.106348 -0.178673
v -2.198283 0.610825 -0.437266
v -0.846134 0.106348 -0.350480
v -2.070737 0.610825 -0.857728
v -0.761500 0.106348 -0.508818
v -1.863614 0.610825 -1.245227
v -0.647603 0.106348 -0.647602
v -1.584874 0.610825 -1.584874
v -0.508818 0.106348 -0.761500
v -1.245227 0.610825 -1.863614
v -0.350480 0.106348 -0.846134
v -0.857728 0.610825 -2.070737
v -0.178673 0.106348 -0.898251
v -0.437266 0.610825 -2.198283
v 0.000000 0.636901 -3.445585
v 0.672200 0.636901 -3.379379
v 1.318568 0.636901 -3.183306
v 1.914265 0.636901 -2.864899
v 2.436397 0.636901 -2.436397
v 2.864899 0.636901 -1.914265
v 3.183306 0.636901 -1.318568
v 3.379379 0.636901 -0.672200
v 3.445585 0.636901 0.000000
v 3.379379 0.636901 0.672200
v 3.183306 0.636901 1.318568
v 2.864899 0.636901 1.914265
v 2.436397 0.636901 2.436397
v 1.914265 0.636901 2.864899
v 1.318568 0.636901 3.183306
v 0.672200 0.636901 3.379379
v 0.000000 0.636901 3.445585
v -0.672200 0.636901 3.379379
v -1.318568 0.636901 3.183306
v -1.914265 0.636901 2.864899
v -2.436397 0.636901 2.436397
v -2.864899 0.636901 1.914265
v -3.183306 0.636901 1.318568
v -3.379379 0.636901 0.672200
v -3.445585 0.636901 0.000000
v -3.379379 0.636901 -0.672200
v -3.183306 0.636901 -1.318568
v -2.864899 0.636901 -1.914265
v -2.436397 0.636901 -2.436397
v -1.914265 0.636901 -2.864899
v -1.318568 0.636901 -3.183306
v -0.672200 0.636901 -3.379379
v -0.000000 0.005542 -1.484205
v 0.289554 0.005542 -1.455686
v 0.567981 0.005542 -1.371227
v 0.824580 0.005542 -1.234071
v 1.049491 0.005542 -1.049491
v 1.234071 0.005542 -0.824580
v 1.371227 0.005542 -0.567981
v 1.455686 0.005542 -0.289554
v 1.484205 0.005542 0.000000
v 1.455686 0.005542 0.289554
v 1.371227 0.005542 0.567981
v 1.234071 0.005542 0.824580
v 1.049491 0.005542 1.049491
v 0.824580 0.005542 1.234071
v 0.567981 0.005542 1.371227
v 0.289554 0.005542 1.455686
v -0.000000 0.005542 1.484205
v -0.289554 0.005542 1.455686
v -0.567981 0.005542 1.371227
v -0.824580 0.005542 1.234071
v -1.049492 0.005542 1.049491
v -1.234071 0.005542 0.824580
v -1.371227 0.005542 0.567981
v -1.455686 0.005542 0.289554
v -1.484205 0.005542 0.000000
v -1.455686 0.005542 -0.289554
v -1.371227 0.005542 -0.567981
v -1.234071 0.005542 -0.824580
v -1.049492 0.005542 -1.049491
v -0.824580 0.005542 -1.234071
v -0.567981 0.005542 -1.371227
v -0.289554 0.005542 -1.455686
v -0.000000 0.005542 -1.169241
v 0.228108 0.005542 -1.146774
v 0.447449 0.005542 -1.080238
v 0.649595 0.005542 -0.972189
v 0.826778 0.005542 -0.826778
v 0.972188 0.005542 -0.649596
v 1.080238 0.005542 -0.447449
v 1.146774 0.005542 -0.228108
v 1.169241 0.005542 0.000000
v 1.146774 0.005542 0.228108
v 1.080238 0.005542 0.447449
v 0.972188 0.005542 0.649596
v 0.826778 0.005542 0.826778
v 0.649595 0.005542 0.972189
v 0.447449 0.005542 1.080238
v 0.228108 0.005542 1.146774
v -0.000000 0.005542 1.169241
v -0.228108 0.005542 1.146774
v -0.447449 0.005542 1.080238
v -0.649596 0.005542 0.972189
v -0.826778 0.005542 0.826778
v -0.972189 0.005542 0.649596
v -1.080238 0.005542 0.447449
v -1.146775 0.005542 0.228108
v -1.169241 0.005542 0.000000
v -1.146775 0.005542 -0.228108
v -1.080238 0.005542 -0.447449
v -0.972189 0.005542 -0.649596
v -0.826778 0.005542 -0.826778
v -0.649596 0.005542 -0.972189
v -0.447449 0.005542 -1.080238
v -0.228108 0.005542 -1.146774
v 0.440447 0.337772 -2.214275
v 0.863967 0.337772 -2.085801
v 1.254286 0.337772 -1.877171
v 1.596403 0.337772 -1.596403
v 1.877171 0.337772 -1.254286
v 2.085801 0.337772 -0.863967
v 2.214275 0.337772 -0.440447
v 2.257655 0.337772 0.000000
v 2.214275 0.337772 0.440447
v 2.085801 0.337772 0.863967
v 1.877171 0.337772 1.254286
v 1.596403 0.337772 1.596403
v 1.254286 0.337772 1.877171
v 0.863967 0.337772 2.085801
v 0.440447 0.337772 2.214275
v -0.000000 0.337772 2.257655
v -0.440447 0.337772 2.214275
v -0.863967 0.337772 2.085801
v -1.254286 0.337772 1.877171
v -1.596403 0.337772 1.596403
v -1.877171 0.337772 1.254286
v -2.085801 0.337772 0.863967
v -2.214275 0.337772 0.440447
v -2.257655 0.337772 0.000000
v -2.214275 0.337772 -0.440447
v -2.085801 0.337772 -0.863967
v -1.877171 0.337772 -1.254286
v -1.596403 0.337772 -1.596403
v -1.254286 0.337772 -1.877171
v -0.863967 0.337772 -2.085801
v -0.440447 0.337772 -2.214275
v -0.000000 0.337772 -2.257655
v 0.696436 0.876321 -3.501219
v 0.000000 0.876321 -3.569812
v 1.366108 0.876321 -3.298076
v 1.983281 0.876321 -2.968190
v 2.524238 0.876321 -2.524238
v 2.968190 0.876321 -1.983281
v 3.298076 0.876321 -1.366108
v 3.501219 0.876321 -0.696436
v 3.569812 0.876321 -0.000000
v 3.501219 0.876321 0.696436
v 3.298076 0.876321 1.366108
v 2.968190 0.876321 1.983281
v 2.524238 0.876321 2.524238
v 1.983281 0.876321 2.968190
v 1.366108 0.876321 3.298076
v 0.696436 0.876321 3.501219
v 0.000000 0.876321 3.569812
v -0.696436 0.876321 3.501219
v -1.366108 0.876321 3.298076
v -1.983281 0.876321 2.968190
v -2.524238 0.876321 2.524238
v -2.968190 0.876321 1.983281
v -3.298076 0.876321 1.366108
v -3.501219 0.876321 0.696436
v -3.569812 0.876321 -0.000000
v -3.501219 0.876321 -0.696436
v -3.298076 0.876321 -1.366108
v -2.968190 0.876321 -1.983281
v -2.524238 0.876321 -2.524238
v -1.983281 0.876321 -2.968190
v -1.366108 0.876321 -3.298076
v -0.696436 0.876321 -3.501219
v 0.666566 0.876321 -3.351052
v 0.000000 0.876321 -3.416703
v 1.307516 0.876321 -3.156622
v 1.898218 0.876321 -2.840885
v 2.415974 0.876321 -2.415974
v 2.840885 0.876321 -1.898218
v 3.156622 0.876321 -1.307516
v 3.351052 0.876321 -0.666566
v 3.416703 0.876321 -0.000000
v 3.351052 0.876321 0.666566
v 3.156622 0.876321 1.307516
v 2.840885 0.876321 1.898218
v 2.415974 0.876321 2.415974
v 1.898218 0.876321 2.840885
v 1.307516 0.876321 3.156622
v 0.666566 0.876321 3.351052
v 0.000000 0.876321 3.416703
v -0.666566 0.876321 3.351052
v -1.307516 0.876321 3.156622
v -1.898218 0.876321 2.840885
v -2.415974 0.876321 2.415974
v -2.840885 0.876321 1.898218
v -3.156622 0.876321 1.307516
v -3.351052 0.876321 0.666566
v -3.416703 0.876321 -0.000000
v -3.351052 0.876321 -0.666566
v -3.156622 0.876321 -1.307516
v -2.840885 0.876321 -1.898218
v -2.415974 0.876321 -2.415974
v -1.898218 0.876321 -2.840885
v -1.307516 0.876321 -3.156622
v -0.666566 0.876321 -3.351052
v 0.558947 0.680319 -2.810015
v 0.000000 0.680319 -2.865067
v 1.096414 0.680319 -2.646976
v 1.591746 0.680319 -2.382216
v 2.025908 0.680319 -2.025908
v 2.382216 0.680319 -1.591746
v 2.646976 0.680319 -1.096414
v 2.810015 0.680319 -0.558947
v 2.865067 0.680319 -0.000000
v 2.810015 0.680319 0.558947
v 2.646976 0.680319 1.096414
v 2.382216 0.680319 1.591746
v 2.025908 0.680319 2.025908
v 1.591746 0.680319 2.382216
v 1.096414 0.680319 2.646976
v 0.558947 0.680319 2.810015
v 0.000000 0.680319 2.865067
v -0.558947 0.680319 2.810015
v -1.096414 0.680319 2.646976
v -1.591746 0.680319 2.382216
v -2.025908 0.680319 2.025908
v -2.382216 0.680319 1.591746
v -2.646976 0.680319 1.096414
v -2.810015 0.680319 0.558947
v -2.865067 0.680319 -0.000000
v -2.810015 0.680319 -0.558947
v -2.646976 0.680319 -1.096414
v -2.382216 0.680319 -1.591746
v -2.025908 0.680319 -2.025908
v -1.591746 0.680319 -2.382216
v -1.096414 0.680319 -2.646976
v -0.558947 0.680319 -2.810015
vn 0.0871 -0.4588 -0.8843
vn 0.2579 -0.4588 -0.8503
vn 0.4189 -0.4588 -0.7836
vn 0.5637 -0.4588 -0.6868
vn 0.6868 -0.4588 -0.5637
vn 0.7836 -0.4588 -0.4189
vn 0.8503 -0.4588 -0.2579
vn 0.8843 -0.4588 -0.0871
vn 0.8843 -0.4588 0.0871
vn 0.8503 -0.4588 0.2579
vn 0.7836 -0.4588 0.4189
vn 0.6868 -0.4588 0.5637
vn 0.5637 -0.4588 0.6868
vn 0.4189 -0.4588 0.7836
vn 0.2579 -0.4588 0.8503
vn 0.0871 -0.4588 0.8843
vn -0.0871 -0.4588 0.8843
vn -0.2579 -0.4588 0.8503
vn -0.4189 -0.4588 0.7836
vn -0.5637 -0.4588 0.6868
vn -0.6868 -0.4588 0.5637
vn -0.7836 -0.4588 0.4189
vn -0.8503 -0.4588 0.2579
vn -0.8843 -0.4588 0.0871
vn -0.8843 -0.4588 -0.0871
vn -0.8503 -0.4588 -0.2579
vn -0.7836 -0.4588 -0.4189
vn -0.6868 -0.4588 -0.5637
vn -0.5637 -0.4588 -0.6868
vn -0.4189 -0.4588 -0.7836
vn -0.0000 1.0000 -0.0000
vn -0.2579 -0.4588 -0.8503
vn -0.0871 -0.4588 -0.8843
vn -0.0000 -1.0000 -0.0000
vn -0.0240 -0.9694 -0.2441
vn -0.0712 -0.9694 -0.2347
vn -0.1156 -0.9694 -0.2163
vn -0.1556 -0.9694 -0.1896
vn -0.1896 -0.9694 -0.1556
vn -0.2163 -0.9694 -0.1156
vn -0.2347 -0.9694 -0.0712
vn -0.2441 -0.9694 -0.0240
vn -0.2441 -0.9694 0.0240
vn -0.2347 -0.9694 0.0712
vn -0.2163 -0.9694 0.1156
vn -0.1896 -0.9694 0.1556
vn -0.1556 -0.9694 0.1896
vn -0.1156 -0.9694 0.2163
vn -0.0712 -0.9694 0.2347
vn -0.0240 -0.9694 0.2441
vn 0.0240 -0.9694 0.2441
vn 0.0712 -0.9694 0.2347
vn 0.1156 -0.9694 0.2163
vn 0.1556 -0.9694 0.1896
vn 0.1896 -0.9694 0.1556
vn 0.2163 -0.9694 0.1156
vn 0.2347 -0.9694 0.0712
vn 0.2441 -0.9694 0.0240
vn 0.2441 -0.9694 -0.0240
vn 0.2347 -0.9694 -0.0712
vn 0.2163 -0.9694 -0.1156
vn 0.1896 -0.9694 -0.1556
vn 0.1556 -0.9694 -0.1896
vn 0.1156 -0.9694 -0.2163
vn 0.0712 -0.9694 -0.2347
vn 0.0240 -0.9694 -0.2441
vn -0.0364 -0.9286 0.3694
vn -0.1078 -0.9286 0.3552
vn -0.1750 -0.9286 0.3274
vn -0.2355 -0.9286 0.2869
vn -0.2869 -0.9286 0.2355
vn -0.3274 -0.9286 0.1750
vn -0.3552 -0.9286 0.1078
vn -0.3694 -0.9286 0.0364
vn -0.3694 -0.9286 -0.0364
vn -0.3552 -0.9286 -0.1078
vn -0.3274 -0.9286 -0.1750
vn -0.2869 -0.9286 -0.2355
vn -0.2355 -0.9286 -0.2869
vn -0.1750 -0.9286 -0.3274
vn -0.1078 -0.9286 -0.3552
vn -0.0364 -0.9286 -0.3694
vn 0.0364 -0.9286 -0.3694
vn 0.1078 -0.9286 -0.3552
vn 0.1750 -0.9286 -0.3274
vn 0.2355 -0.9286 -0.2869
vn 0.2869 -0.9286 -0.2355
vn 0.3274 -0.9286 -0.1750
vn 0.3552 -0.9286 -0.1078
vn 0.3694 -0.9286 -0.0364
vn 0.3694 -0.9286 0.0364
vn 0.3552 -0.9286 0.1078
vn 0.3274 -0.9286 0.1750
vn 0.2869 -0.9286 0.2355
vn 0.2355 -0.9286 0.2869
vn 0.1750 -0.9286 0.3274
vn 0.1078 -0.9286 0.3552
vn 0.0364 -0.9286 0.3694
vn 0.0388 -0.9181 -0.3944
vn 0.1150 -0.9181 -0.3792
vn 0.1868 -0.9181 -0.3495
vn 0.2514 -0.9181 -0.3063
vn 0.3063 -0.9181 -0.2514
vn 0.3495 -0.9181 -0.1868
vn 0.3792 -0.9181 -0.1150
vn 0.3944 -0.9181 -0.0388
vn 0.3944 -0.9181 0.0388
vn 0.3792 -0.9181 0.1150
vn 0.3495 -0.9181 0.1868
vn 0.3063 -0.9181 0.2514
vn 0.2514 -0.9181 0.3063
vn 0.1868 -0.9181 0.3495
vn 0.1150 -0.9181 0.3792
vn 0.0388 -0.9181 0.3944
vn -0.0388 -0.9181 0.3944
vn -0.1150 -0.9181 0.3792
vn -0.1868 -0.9181 0.3495
vn -0.2514 -0.9181 0.3063
vn -0.3063 -0.9181 0.2514
vn -0.3495 -0.9181 0.1868
vn -0.3792 -0.9181 0.1150
vn -0.3944 -0.9181 0.0388
vn -0.3944 -0.9181 -0.0388
vn -0.3792 -0.9181 -0.1150
vn -0.3495 -0.9181 -0.1868
vn -0.3063 -0.9181 -0.2514
vn -0.2514 -0.9181 -0.3063
vn -0.1868 -0.9181 -0.3495
vn -0.1150 -0.9181 -0.3792
vn -0.0388 -0.9181 -0.3944
vn -0.0330 0.9418 0.3346
vn -0.0976 0.9418 0.3218
vn -0.1585 0.9418 0.2965
vn -0.2133 0.9418 0.2599
vn -0.2599 0.9418 0.2133
vn -0.2965 0.9418 0.1585
vn -0.3218 0.9418 0.0976
vn -0.3346 0.9418 0.0330
vn -0.3346 0.9418 -0.0330
vn -0.3218 0.9418 -0.0976
vn -0.2965 0.9418 -0.1585
vn -0.2599 0.9418 -0.2133
vn -0.2133 0.9418 -0.2599
vn -0.1585 0.9418 -0.2965
vn -0.0976 0.9418 -0.3218
vn -0.0330 0.9418 -0.3346
vn 0.0330 0.9418 -0.3346
vn 0.0976 0.9418 -0.3218
vn 0.1585 0.9418 -0.2965
vn 0.2133 0.9418 -0.2599
vn 0.2599 0.9418 -0.2133
vn 0.2965 0.9418 -0.1585
vn 0.3218 0.9418 -0.0976
vn 0.3346 0.9418 -0.0330
vn 0.3346 0.9418 0.0330
vn 0.3218 0.9418 0.0976
vn 0.2965 0.9418 0.1585
vn 0.2599 0.9418 0.2133
vn 0.2133 0.9418 0.2599
vn 0.1585 0.9418 0.2965
vn 0.0976 0.9418 0.3218
vn 0.0330 0.9418 0.3346
vn -0.0109 0.9938 0.1107
vn -0.0323 0.9938 0.1065
vn -0.0524 0.9938 0.0981
vn -0.0706 0.9938 0.0860
vn -0.0860 0.9938 0.0706
vn -0.0981 0.9938 0.0524
vn -0.1065 0.9938 0.0323
vn -0.1107 0.9938 0.0109
vn -0.1107 0.9938 -0.0109
vn -0.1065 0.9938 -0.0323
vn -0.0981 0.9938 -0.0524
vn -0.0860 0.9938 -0.0706
vn -0.0706 0.9938 -0.0860
vn -0.0524 0.9938 -0.0981
vn -0.0323 0.9938 -0.1065
vn -0.0109 0.9938 -0.1107
vn 0.0109 0.9938 -0.1107
vn 0.0323 0.9938 -0.1065
vn 0.0524 0.9938 -0.0981
vn 0.0706 0.9938 -0.0860
vn 0.0860 0.9938 -0.0706
vn 0.0981 0.9938 -0.0524
vn 0.1065 0.9938 -0.0323
vn 0.1107 0.9938 -0.0109
vn 0.1107 0.9938 0.0109
vn 0.1065 0.9938 0.0323
vn 0.0981 0.9938 0.0524
vn 0.0860 0.9938 0.0706
vn 0.0706 0.9938 0.0860
vn 0.0524 0.9938 0.0981
vn 0.0323 0.9938 0.1065
vn 0.0109 0.9938 0.1107
vt 0.750000 0.398095
vt 0.250000 0.400687
vt 0.778892 0.395250
vt 0.279398 0.397792
vt 0.806673 0.386822
vt 0.307665 0.389217
vt 0.832277 0.373137
vt 0.333717 0.375292
vt 0.854719 0.354719
vt 0.356552 0.356552
vt 0.873137 0.332277
vt 0.375292 0.333717
vt 0.886822 0.306674
vt 0.389217 0.307665
vt 0.895249 0.278892
vt 0.397792 0.279398
vt 0.898095 0.250000
vt 0.400687 0.250000
vt 0.895249 0.221108
vt 0.397792 0.220602
vt 0.886822 0.193326
vt 0.389217 0.192335
vt 0.873137 0.167723
vt 0.375292 0.166283
vt 0.854719 0.145281
vt 0.356552 0.143448
vt 0.832277 0.126863
vt 0.333717 0.124708
vt 0.806673 0.113178
vt 0.307665 0.110783
vt 0.778892 0.104750
vt 0.279398 0.102208
vt 0.750000 0.101905
vt 0.250000 0.099313
vt 0.721108 0.104750
vt 0.220602 0.102208
vt 0.693326 0.113178
vt 0.192335 0.110783
vt 0.667723 0.126863
vt 0.166283 0.124708
vt 0.645281 0.145281
vt 0.143448 0.143448
vt 0.626863 0.167723
vt 0.124708 0.166283
vt 0.613178 0.193326
vt 0.110783 0.192335
vt 0.604750 0.221108
vt 0.102208 0.220602
vt 0.601905 0.250000
vt 0.099313 0.250000
vt 0.604750 0.278892
vt 0.102208 0.279398
vt 0.613178 0.306674
vt 0.110783 0.307665
vt 0.626863 0.332277
vt 0.124708 0.333717
vt 0.645281 0.354719
vt 0.143448 0.356552
vt 0.667723 0.373137
vt 0.166283 0.375292
vt 0.693326 0.386822
vt 0.192335 0.389217
vt 0.721108 0.395249
vt 0.220602 0.397792
vt 0.000000 0.750000
vt 1.000000 0.750000
vt 0.968750 0.750000
vt 0.937500 0.750000
vt 0.906250 0.750000
vt 0.875000 0.750000
vt 0.843750 0.750000
vt 0.812500 0.750000
vt 0.781250 0.750000
vt 0.750000 0.750000
vt 0.718750 0.750000
vt 0.687500 0.750000
vt 0.656250 0.750000
vt 0.625000 0.750000
vt 0.593750 0.750000
vt 0.562500 0.750000
vt 0.531250 0.750000
vt 0.500000 0.750000
vt 0.468750 0.750000
vt 0.437500 0.750000
vt 0.406250 0.750000
vt 0.375000 0.750000
vt 0.343750 0.750000
vt 0.312500 0.750000
vt 0.281250 0.750000
vt 0.250000 0.750000
vt 0.218750 0.750000
vt 0.187500 0.750000
vt 0.156250 0.750000
vt 0.125000 0.750000
vt 0.093750 0.750000
vt 0.062500 0.750000
vt 0.031250 0.750000
vt 1.000000 0.500000
vt 0.750000 0.490000
vt 0.000000 0.500000
vt 0.796822 0.485388
vt 0.968750 0.500000
vt 0.841844 0.471731
vt 0.937500 0.500000
vt 0.883337 0.449553
vt 0.906250 0.500000
vt 0.875000 0.500000
vt 0.919706 0.419706
vt 0.949553 0.383337
vt 0.843750 0.500000
vt 0.971731 0.341844
vt 0.812500 0.500000
vt 0.985388 0.296822
vt 0.781250 0.500000
vt 0.990000 0.250000
vt 0.750000 0.500000
vt 0.985388 0.203178
vt 0.718750 0.500000
vt 0.971731 0.158156
vt 0.687500 0.500000
vt 0.949553 0.116663
vt 0.656250 0.500000
vt 0.919706 0.080294
vt 0.625000 0.500000
vt 0.883337 0.050447
vt 0.593750 0.500000
vt 0.562500 0.500000
vt 0.841844 0.028269
vt 0.796822 0.014612
vt 0.531250 0.500000
vt 0.750000 0.010000
vt 0.500000 0.500000
vt 0.703178 0.014612
vt 0.468750 0.500000
vt 0.658156 0.028269
vt 0.437500 0.500000
vt 0.616663 0.050447
vt 0.406250 0.500000
vt 0.580294 0.080294
vt 0.375000 0.500000
vt 0.550447 0.116663
vt 0.343750 0.500000
vt 0.528269 0.158156
vt 0.312500 0.500000
vt 0.281250 0.500000
vt 0.514612 0.203178
vt 0.510000 0.250000
vt 0.250000 0.500000
vt 0.514612 0.296822
vt 0.218750 0.500000
vt 0.528269 0.341844
vt 0.187500 0.500000
vt 0.550447 0.383337
vt 0.156250 0.500000
vt 0.580294 0.419706
vt 0.125000 0.500000
vt 0.616663 0.449553
vt 0.093750 0.500000
vt 0.062500 0.500000
vt 0.658156 0.471731
vt 0.703178 0.485388
vt 0.031250 0.500000
vt 0.750000 0.439069
vt 0.786885 0.435436
vt 0.822354 0.424677
vt 0.855041 0.407205
vt 0.883692 0.383692
vt 0.907205 0.355041
vt 0.924677 0.322354
vt 0.935437 0.286886
vt 0.939069 0.250000
vt 0.935437 0.213114
vt 0.924677 0.177646
vt 0.907205 0.144959
vt 0.883692 0.116308
vt 0.855041 0.092794
vt 0.822354 0.075323
vt 0.786886 0.064563
vt 0.750000 0.060931
vt 0.713114 0.064563
vt 0.677646 0.075323
vt 0.644959 0.092794
vt 0.616308 0.116308
vt 0.592794 0.144959
vt 0.575323 0.177646
vt 0.564563 0.213114
vt 0.560930 0.250000
vt 0.564563 0.286886
vt 0.575323 0.322354
vt 0.592795 0.355041
vt 0.616308 0.383692
vt 0.644959 0.407206
vt 0.677646 0.424677
vt 0.713114 0.435436
vt 0.968750 0.598585
vt 0.937500 0.598585
vt 0.906250 0.598585
vt 0.875000 0.598585
vt 0.843750 0.598585
vt 0.812500 0.598585
vt 0.781250 0.598585
vt 0.750000 0.598585
vt 0.718750 0.598585
vt 0.687500 0.598585
vt 0.656250 0.598585
vt 0.625000 0.598585
vt 0.593750 0.598585
vt 0.562500 0.598585
vt 0.531250 0.598585
vt 0.500000 0.598585
vt 0.468750 0.598585
vt 0.437500 0.598585
vt 0.406250 0.598585
vt 0.375000 0.598585
vt 0.343750 0.598585
vt 0.312500 0.598585
vt 0.281250 0.598585
vt 0.250000 0.598585
vt 0.218750 0.598585
vt 0.187500 0.598585
vt 0.156250 0.598585
vt 0.125000 0.598585
vt 0.093750 0.598585
vt 0.062500 0.598585
vt 0.031250 0.598585
vt 1.000000 0.598585
vt 0.000000 0.598585
vt 0.968750 1.000000
vt 0.296822 0.485388
vt 1.000000 1.000000
vt 0.000000 1.000000
vt 0.250000 0.490000
vt 0.937500 1.000000
vt 0.341844 0.471731
vt 0.906250 1.000000
vt 0.383337 0.449553
vt 0.875000 1.000000
vt 0.419706 0.419706
vt 0.843750 1.000000
vt 0.449553 0.383337
vt 0.812500 1.000000
vt 0.471731 0.341844
vt 0.781250 1.000000
vt 0.485388 0.296822
vt 0.750000 1.000000
vt 0.490000 0.250000
vt 0.718750 1.000000
vt 0.485388 0.203178
vt 0.687500 1.000000
vt 0.471731 0.158156
vt 0.656250 1.000000
vt 0.449553 0.116663
vt 0.625000 1.000000
vt 0.419706 0.080294
vt 0.593750 1.000000
vt 0.383337 0.050447
vt 0.562500 1.000000
vt 0.341844 0.028269
vt 0.531250 1.000000
vt 0.296822 0.014612
vt 0.500000 1.000000
vt 0.250000 0.010000
vt 0.468750 1.000000
vt 0.203178 0.014612
vt 0.437500 1.000000
vt 0.158156 0.028269
vt 0.406250 1.000000
vt 0.116663 0.050447
vt 0.375000 1.000000
vt 0.080294 0.080294
vt 0.343750 1.000000
vt 0.050447 0.116663
vt 0.312500 1.000000
vt 0.028269 0.158156
vt 0.281250 1.000000
vt 0.014612 0.203178
vt 0.250000 1.000000
vt 0.010000 0.250000
vt 0.218750 1.000000
vt 0.014612 0.296822
vt 0.187500 1.000000
vt 0.028269 0.341844
vt 0.156250 1.000000
vt 0.050447 0.383337
vt 0.125000 1.000000
vt 0.080294 0.419706
vt 0.093750 1.000000
vt 0.116663 0.449553
vt 0.062500 1.000000
vt 0.158156 0.471731
vt 0.031250 1.000000
vt 0.203178 0.485388
vt 0.294814 0.475293
vt 0.250000 0.479707
vt 0.337905 0.462221
vt 0.377618 0.440994
vt 0.412427 0.412427
vt 0.440994 0.377618
vt 0.462221 0.337905
vt 0.475293 0.294814
vt 0.479707 0.250000
vt 0.475293 0.205187
vt 0.462221 0.162095
vt 0.440994 0.122382
vt 0.412427 0.087573
vt 0.377618 0.059006
vt 0.337905 0.037779
vt 0.294813 0.024707
vt 0.250000 0.020294
vt 0.205187 0.024707
vt 0.162095 0.037779
vt 0.122382 0.059006
vt 0.087573 0.087573
vt 0.059006 0.122382
vt 0.037779 0.162095
vt 0.024707 0.205186
vt 0.020294 0.250000
vt 0.024707 0.294814
vt 0.037779 0.337905
vt 0.059006 0.377618
vt 0.087573 0.412427
vt 0.122382 0.440994
vt 0.162095 0.462221
vt 0.205187 0.475293
vt 0.287578 0.438919
vt 0.250000 0.442620
vt 0.323712 0.427958
vt 0.357014 0.410157
vt 0.386203 0.386203
vt 0.410158 0.357014
vt 0.427957 0.323712
vt 0.438919 0.287578
vt 0.442620 0.250000
vt 0.438919 0.212422
vt 0.427957 0.176288
vt 0.410157 0.142986
vt 0.386203 0.113797
vt 0.357014 0.089843
vt 0.323712 0.072043
vt 0.287578 0.061081
vt 0.250000 0.057380
vt 0.212422 0.061081
vt 0.176288 0.072043
vt 0.142986 0.089843
vt 0.113797 0.113797
vt 0.089843 0.142986
vt 0.072043 0.176288
vt 0.061081 0.212422
vt 0.057380 0.250000
vt 0.061081 0.287578
vt 0.072043 0.323712
vt 0.089843 0.357014
vt 0.113797 0.386203
vt 0.142986 0.410158
vt 0.176288 0.427958
vt 0.212422 0.438919
s 0
f 194/230/1 66/67/1 65/66/1
f 193/228/2 67/68/2 66/67/2
f 67/68/3 196/235/3 68/69/3
f 68/69/4 197/237/4 69/70/4
f 197/237/5 70/71/5 69/70/5
f 70/71/6 199/241/6 71/72/6
f 199/241/7 72/73/7 71/72/7
f 200/243/8 73/74/8 72/73/8
f 201/245/9 74/75/9 73/74/9
f 202/247/10 75/76/10 74/75/10
f 75/76/11 204/251/11 76/77/11
f 76/77/12 205/253/12 77/78/12
f 205/253/13 78/79/13 77/78/13
f 78/79/14 207/257/14 79/80/14
f 207/257/15 80/81/15 79/80/15
f 208/259/16 81/82/16 80/81/16
f 209/261/17 82/83/17 81/82/17
f 210/263/18 83/84/18 82/83/18
f 83/84/19 212/267/19 84/85/19
f 84/85/20 213/269/20 85/86/20
f 213/269/21 86/87/21 85/86/21
f 86/87/22 215/273/22 87/88/22
f 215/273/23 88/89/23 87/88/23
f 216/275/24 89/90/24 88/89/24
f 217/277/25 90/91/25 89/90/25
f 218/279/26 91/92/26 90/91/26
f 91/92/27 220/283/27 92/93/27
f 92/93/28 221/285/28 93/94/28
f 221/285/29 94/95/29 93/94/29
f 94/95/30 223/289/30 95/96/30
f 38/38/31 22/22/31 6/6/31
f 223/289/32 96/97/32 95/96/32
f 224/291/33 65/65/33 96/97/33
f 31/31/34 47/47/34 63/63/34
f 96/97/35 192/227/35 191/225/35
f 190/224/36 96/97/36 191/225/36
f 94/95/37 190/224/37 189/223/37
f 93/94/38 189/223/38 188/222/38
f 92/93/39 188/222/39 187/221/39
f 91/92/40 187/221/40 186/220/40
f 90/91/41 186/220/41 185/219/41
f 89/90/42 185/219/42 184/218/42
f 88/89/43 184/218/43 183/217/43
f 182/216/44 88/89/44 183/217/44
f 86/87/45 182/216/45 181/215/45
f 85/86/46 181/215/46 180/214/46
f 84/85/47 180/214/47 179/213/47
f 83/84/48 179/213/48 178/212/48
f 177/211/49 83/84/49 178/212/49
f 176/210/50 82/83/50 177/211/50
f 80/81/51 176/210/51 175/209/51
f 174/208/52 80/81/52 175/209/52
f 78/79/53 174/208/53 173/207/53
f 77/78/54 173/207/54 172/206/54
f 76/77/55 172/206/55 171/205/55
f 75/76/56 171/205/56 170/204/56
f 74/75/57 170/204/57 169/203/57
f 73/74/58 169/203/58 168/202/58
f 72/73/59 168/202/59 167/201/59
f 166/200/60 72/73/60 167/201/60
f 70/71/61 166/200/61 165/199/61
f 69/70/62 165/199/62 164/198/62
f 68/69/63 164/198/63 163/197/63
f 67/68/64 163/197/64 162/196/64
f 66/67/65 162/196/65 161/195/65
f 65/66/66 161/195/66 192/226/66
f 129/163/34 98/101/34 130/164/34
f 130/164/34 99/103/34 131/165/34
f 131/165/34 100/105/34 132/166/34
f 132/166/34 101/108/34 133/167/34
f 134/168/34 101/108/34 102/109/34
f 135/169/34 102/109/34 103/111/34
f 135/169/34 104/113/34 136/170/34
f 137/171/34 104/113/34 105/115/34
f 137/171/34 106/117/34 138/172/34
f 139/173/34 106/117/34 107/119/34
f 139/173/34 108/121/34 140/174/34
f 140/174/34 109/123/34 141/175/34
f 142/176/34 109/123/34 110/125/34
f 142/176/34 111/128/34 143/177/34
f 143/177/34 112/129/34 144/178/34
f 145/179/34 112/129/34 113/131/34
f 145/179/34 114/133/34 146/180/34
f 147/181/34 114/133/34 115/135/34
f 147/181/34 116/137/34 148/182/34
f 148/182/34 117/139/34 149/183/34
f 149/183/34 118/141/34 150/184/34
f 151/185/34 118/141/34 119/143/34
f 151/185/34 120/146/34 152/186/34
f 152/186/34 121/147/34 153/187/34
f 153/187/34 122/149/34 154/188/34
f 155/189/34 122/149/34 123/151/34
f 155/189/34 124/153/34 156/190/34
f 157/191/34 124/153/34 125/155/34
f 157/191/34 126/157/34 158/192/34
f 158/192/34 127/160/34 159/193/34
f 159/193/34 128/161/34 160/194/34
f 129/163/34 128/161/34 97/99/34
f 1/1/67 130/164/67 3/3/67
f 3/3/68 131/165/68 5/5/68
f 5/5/69 132/166/69 7/7/69
f 7/7/70 133/167/70 9/9/70
f 9/9/71 134/168/71 11/11/71
f 11/11/72 135/169/72 13/13/72
f 13/13/73 136/170/73 15/15/73
f 15/15/74 137/171/74 17/17/74
f 17/17/75 138/172/75 19/19/75
f 21/21/76 138/172/76 139/173/76
f 21/21/77 140/174/77 23/23/77
f 23/23/78 141/175/78 25/25/78
f 25/25/79 142/176/79 27/27/79
f 27/27/80 143/177/80 29/29/80
f 29/29/81 144/178/81 31/31/81
f 31/31/82 145/179/82 33/33/82
f 35/35/83 145/179/83 146/180/83
f 37/37/84 146/180/84 147/181/84
f 37/37/85 148/182/85 39/39/85
f 39/39/86 149/183/86 41/41/86
f 41/41/87 150/184/87 43/43/87
f 43/43/88 151/185/88 45/45/88
f 45/45/89 152/186/89 47/47/89
f 47/47/90 153/187/90 49/49/90
f 51/51/91 153/187/91 154/188/91
f 51/51/92 155/189/92 53/53/92
f 53/53/93 156/190/93 55/55/93
f 55/55/94 157/191/94 57/57/94
f 59/59/95 157/191/95 158/192/95
f 59/59/96 159/193/96 61/61/96
f 61/61/97 160/194/97 63/63/97
f 63/63/98 129/163/98 1/1/98
f 192/226/99 98/102/99 97/98/99
f 161/195/100 99/104/100 98/102/100
f 162/196/101 100/106/101 99/104/101
f 100/106/102 164/198/102 101/107/102
f 164/198/103 102/110/103 101/107/103
f 165/199/104 103/112/104 102/110/104
f 166/200/105 104/114/105 103/112/105
f 167/201/106 105/116/106 104/114/106
f 168/202/107 106/118/107 105/116/107
f 169/203/108 107/120/108 106/118/108
f 170/204/109 108/122/109 107/120/109
f 171/205/110 109/124/110 108/122/110
f 172/206/111 110/126/111 109/124/111
f 110/126/112 174/208/112 111/127/112
f 174/208/113 112/130/113 111/127/113
f 175/209/114 113/132/114 112/130/114
f 176/210/115 114/134/115 113/132/115
f 177/211/116 115/136/116 114/134/116
f 178/212/117 116/138/117 115/136/117
f 179/213/118 117/140/118 116/138/118
f 180/214/119 118/142/119 117/140/119
f 181/215/120 119/144/120 118/142/120
f 119/144/121 183/217/121 120/145/121
f 183/217/122 121/148/122 120/145/122
f 184/218/123 122/150/123 121/148/123
f 185/219/124 123/152/124 122/150/124
f 186/220/125 124/154/125 123/152/125
f 187/221/126 125/156/126 124/154/126
f 188/222/127 126/158/127 125/156/127
f 126/158/128 190/224/128 127/159/128
f 190/224/129 128/162/129 127/159/129
f 191/225/130 97/100/130 128/162/130
f 226/294/31 193/229/31 194/232/31
f 227/295/31 193/229/31 225/293/31
f 228/296/31 195/234/31 227/295/31
f 229/297/31 196/236/31 228/296/31
f 230/298/31 197/238/31 229/297/31
f 231/299/31 198/240/31 230/298/31
f 232/300/31 199/242/31 231/299/31
f 233/301/31 200/244/31 232/300/31
f 233/301/31 202/248/31 201/246/31
f 235/303/31 202/248/31 234/302/31
f 236/304/31 203/250/31 235/303/31
f 237/305/31 204/252/31 236/304/31
f 238/306/31 205/254/31 237/305/31
f 239/307/31 206/256/31 238/306/31
f 240/308/31 207/258/31 239/307/31
f 241/309/31 208/260/31 240/308/31
f 242/310/31 209/262/31 241/309/31
f 242/310/31 211/266/31 210/264/31
f 244/312/31 211/266/31 243/311/31
f 245/313/31 212/268/31 244/312/31
f 246/314/31 213/270/31 245/313/31
f 247/315/31 214/272/31 246/314/31
f 248/316/31 215/274/31 247/315/31
f 249/317/31 216/276/31 248/316/31
f 249/317/31 218/280/31 217/278/31
f 251/319/31 218/280/31 250/318/31
f 252/320/31 219/282/31 251/319/31
f 253/321/31 220/284/31 252/320/31
f 254/322/31 221/286/31 253/321/31
f 255/323/31 222/288/31 254/322/31
f 256/324/31 223/290/31 255/323/31
f 226/294/31 224/292/31 256/324/31
f 257/325/131 226/294/131 258/326/131
f 259/327/132 225/293/132 257/325/132
f 260/328/133 227/295/133 259/327/133
f 261/329/134 228/296/134 260/328/134
f 262/330/135 229/297/135 261/329/135
f 263/331/136 230/298/136 262/330/136
f 264/332/137 231/299/137 263/331/137
f 265/333/138 232/300/138 264/332/138
f 266/334/139 233/301/139 265/333/139
f 267/335/140 234/302/140 266/334/140
f 268/336/141 235/303/141 267/335/141
f 269/337/142 236/304/142 268/336/142
f 270/338/143 237/305/143 269/337/143
f 271/339/144 238/306/144 270/338/144
f 272/340/145 239/307/145 271/339/145
f 273/341/146 240/308/146 272/340/146
f 274/342/147 241/309/147 273/341/147
f 275/343/148 242/310/148 274/342/148
f 276/344/149 243/311/149 275/343/149
f 277/345/150 244/312/150 276/344/150
f 278/346/151 245/313/151 277/345/151
f 279/347/152 246/314/152 278/346/152
f 280/348/153 247/315/153 279/347/153
f 281/349/154 248/316/154 280/348/154
f 282/350/155 249/317/155 281/349/155
f 283/351/156 250/318/156 282/350/156
f 284/352/157 251/319/157 283/351/157
f 285/353/158 252/320/158 284/352/158
f 286/354/159 253/321/159 285/353/159
f 287/355/160 254/322/160 286/354/160
f 288/356/161 255/323/161 287/355/161
f 258/326/162 256/324/162 288/356/162
f 4/4/163 258/326/163 2/2/163
f 6/6/164 257/325/164 4/4/164
f 8/8/165 259/327/165 6/6/165
f 10/10/166 260/328/166 8/8/166
f 10/10/167 262/330/167 261/329/167
f 14/14/168 262/330/168 12/12/168
f 16/16/169 263/331/169 14/14/169
f 16/16/170 265/333/170 264/332/170
f 20/20/171 265/333/171 18/18/171
f 22/22/172 266/334/172 20/20/172
f 24/24/173 267/335/173 22/22/173
f 26/26/174 268/336/174 24/24/174
f 26/26/175 270/338/175 269/337/175
f 30/30/176 270/338/176 28/28/176
f 32/32/177 271/339/177 30/30/177
f 32/32/178 273/341/178 272/340/178
f 36/36/179 273/341/179 34/34/179
f 38/38/180 274/342/180 36/36/180
f 40/40/181 275/343/181 38/38/181
f 42/42/182 276/344/182 40/40/182
f 42/42/183 278/346/183 277/345/183
f 46/46/184 278/346/184 44/44/184
f 48/48/185 279/347/185 46/46/185
f 48/48/186 281/349/186 280/348/186
f 52/52/187 281/349/187 50/50/187
f 54/54/188 282/350/188 52/52/188
f 56/56/189 283/351/189 54/54/189
f 58/58/190 284/352/190 56/56/190
f 58/58/191 286/354/191 285/353/191
f 62/62/192 286/354/192 60/60/192
f 64/64/193 287/355/193 62/62/193
f 64/64/194 258/326/194 288/356/194
f 194/230/1 193/228/1 66/67/1
f 193/228/2 195/233/2 67/68/2
f 67/68/3 195/233/3 196/235/3
f 68/69/4 196/235/4 197/237/4
f 197/237/5 198/239/5 70/71/5
f 70/71/6 198/239/6 199/241/6
f 199/241/7 200/243/7 72/73/7
f 200/243/8 201/245/8 73/74/8
f 201/245/9 202/247/9 74/75/9
f 202/247/10 203/249/10 75/76/10
f 75/76/11 203/249/11 204/251/11
f 76/77/12 204/251/12 205/253/12
f 205/253/13 206/255/13 78/79/13
f 78/79/14 206/255/14 207/257/14
f 207/257/15 208/259/15 80/81/15
f 208/259/16 209/261/16 81/82/16
f 209/261/17 210/263/17 82/83/17
f 210/263/18 211/265/18 83/84/18
f 83/84/19 211/265/19 212/267/19
f 84/85/20 212/267/20 213/269/20
f 213/269/21 214/271/21 86/87/21
f 86/87/22 214/271/22 215/273/22
f 215/273/23 216/275/23 88/89/23
f 216/275/24 217/277/24 89/90/24
f 217/277/25 218/279/25 90/91/25
f 218/279/26 219/281/26 91/92/26
f 91/92/27 219/281/27 220/283/27
f 92/93/28 220/283/28 221/285/28
f 221/285/29 222/287/29 94/95/29
f 94/95/30 222/287/30 223/289/30
f 6/6/31 4/4/31 2/2/31
f 2/2/31 64/64/31 62/62/31
f 62/62/31 60/60/31 58/58/31
f 58/58/31 56/56/31 54/54/31
f 54/54/31 52/52/31 50/50/31
f 50/50/31 48/48/31 46/46/31
f 46/46/31 44/44/31 42/42/31
f 42/42/31 40/40/31 38/38/31
f 38/38/31 36/36/31 34/34/31
f 34/34/31 32/32/31 30/30/31
f 30/30/31 28/28/31 26/26/31
f 26/26/31 24/24/31 22/22/31
f 22/22/31 20/20/31 18/18/31
f 18/18/31 16/16/31 14/14/31
f 14/14/31 12/12/31 10/10/31
f 10/10/31 8/8/31 6/6/31
f 6/6/31 2/2/31 62/62/31
f 62/62/31 58/58/31 54/54/31
f 54/54/31 50/50/31 46/46/31
f 46/46/31 42/42/31 38/38/31
f 38/38/31 34/34/31 30/30/31
f 30/30/31 26/26/31 22/22/31
f 22/22/31 18/18/31 14/14/31
f 14/14/31 10/10/31 6/6/31
f 6/6/31 62/62/31 54/54/31
f 54/54/31 46/46/31 38/38/31
f 38/38/31 30/30/31 22/22/31
f 22/22/31 14/14/31 6/6/31
f 6/6/31 54/54/31 38/38/31
f 223/289/32 224/291/32 96/97/32
f 224/291/33 194/231/33 65/65/33
f 63/63/34 1/1/34 3/3/34
f 3/3/34 5/5/34 7/7/34
f 7/7/34 9/9/34 11/11/34
f 11/11/34 13/13/34 15/15/34
f 15/15/34 17/17/34 19/19/34
f 19/19/34 21/21/34 23/23/34
f 23/23/34 25/25/34 27/27/34
f 27/27/34 29/29/34 31/31/34
f 31/31/34 33/33/34 35/35/34
f 35/35/34 37/37/34 39/39/34
f 39/39/34 41/41/34 43/43/34
f 43/43/34 45/45/34 47/47/34
f 47/47/34 49/49/34 51/51/34
f 51/51/34 53/53/34 55/55/34
f 55/55/34 57/57/34 59/59/34
f 59/59/34 61/61/34 63/63/34
f 63/63/34 3/3/34 7/7/34
f 7/7/34 11/11/34 15/15/34
f 15/15/34 19/19/34 23/23/34
f 23/23/34 27/27/34 31/31/34
f 31/31/34 35/35/34 39/39/34
f 39/39/34 43/43/34 47/47/34
f 47/47/34 51/51/34 55/55/34
f 55/55/34 59/59/34 63/63/34
f 63/63/34 7/7/34 15/15/34
f 15/15/34 23/23/34 31/31/34
f 31/31/34 39/39/34 47/47/34
f 47/47/34 55/55/34 63/63/34
f 63/63/34 15/15/34 31/31/34
f 96/97/35 65/65/35 192/227/35
f 190/224/36 95/96/36 96/97/36
f 94/95/37 95/96/37 190/224/37
f 93/94/38 94/95/38 189/223/38
f 92/93/39 93/94/39 188/222/39
f 91/92/40 92/93/40 187/221/40
f 90/91/41 91/92/41 186/220/41
f 89/90/42 90/91/42 185/219/42
f 88/89/43 89/90/43 184/218/43
f 182/216/44 87/88/44 88/89/44
f 86/87/45 87/88/45 182/216/45
f 85/86/46 86/87/46 181/215/46
f 84/85/47 85/86/47 180/214/47
f 83/84/48 84/85/48 179/213/48
f 177/211/49 82/83/49 83/84/49
f 176/210/50 81/82/50 82/83/50
f 80/81/51 81/82/51 176/210/51
f 174/208/52 79/80/52 80/81/52
f 78/79/53 79/80/53 174/208/53
f 77/78/54 78/79/54 173/207/54
f 76/77/55 77/78/55 172/206/55
f 75/76/56 76/77/56 171/205/56
f 74/75/57 75/76/57 170/204/57
f 73/74/58 74/75/58 169/203/58
f 72/73/59 73/74/59 168/202/59
f 166/200/60 71/72/60 72/73/60
f 70/71/61 71/72/61 166/200/61
f 69/70/62 70/71/62 165/199/62
f 68/69/63 69/70/63 164/198/63
f 67/68/64 68/69/64 163/197/64
f 66/67/65 67/68/65 162/196/65
f 65/66/66 66/67/66 161/195/66
f 129/163/34 97/99/34 98/101/34
f 130/164/34 98/101/34 99/103/34
f 131/165/34 99/103/34 100/105/34
f 132/166/34 100/105/34 101/108/34
f 134/168/34 133/167/34 101/108/34
f 135/169/34 134/168/34 102/109/34
f 135/169/34 103/111/34 104/113/34
f 137/171/34 136/170/34 104/113/34
f 137/171/34 105/115/34 106/117/34
f 139/173/34 138/172/34 106/117/34
f 139/173/34 107/119/34 108/121/34
f 140/174/34 108/121/34 109/123/34
f 142/176/34 141/175/34 109/123/34
f 142/176/34 110/125/34 111/128/34
f 143/177/34 111/128/34 112/129/34
f 145/179/34 144/178/34 112/129/34
f 145/179/34 113/131/34 114/133/34
f 147/181/34 146/180/34 114/133/34
f 147/181/34 115/135/34 116/137/34
f 148/182/34 116/137/34 117/139/34
f 149/183/34 117/139/34 118/141/34
f 151/185/34 150/184/34 118/141/34
f 151/185/34 119/143/34 120/146/34
f 152/186/34 120/146/34 121/147/34
f 153/187/34 121/147/34 122/149/34
f 155/189/34 154/188/34 122/149/34
f 155/189/34 123/151/34 124/153/34
f 157/191/34 156/190/34 124/153/34
f 157/191/34 125/155/34 126/157/34
f 158/192/34 126/157/34 127/160/34
f 159/193/34 127/160/34 128/161/34
f 129/163/34 160/194/34 128/161/34
f 1/1/67 129/163/67 130/164/67
f 3/3/68 130/164/68 131/165/68
f 5/5/69 131/165/69 132/166/69
f 7/7/70 132/166/70 133/167/70
f 9/9/71 133/167/71 134/168/71
f 11/11/72 134/168/72 135/169/72
f 13/13/73 135/169/73 136/170/73
f 15/15/74 136/170/74 137/171/74
f 17/17/75 137/171/75 138/172/75
f 21/21/76 19/19/76 138/172/76
f 21/21/77 139/173/77 140/174/77
f 23/23/78 140/174/78 141/175/78
f 25/25/79 141/175/79 142/176/79
f 27/27/80 142/176/80 143/177/80
f 29/29/81 143/177/81 144/178/81
f 31/31/82 144/178/82 145/179/82
f 35/35/83 33/33/83 145/179/83
f 37/37/84 35/35/84 146/180/84
f 37/37/85 147/181/85 148/182/85
f 39/39/86 148/182/86 149/183/86
f 41/41/87 149/183/87 150/184/87
f 43/43/88 150/184/88 151/185/88
f 45/45/89 151/185/89 152/186/89
f 47/47/90 152/186/90 153/187/90
f 51/51/91 49/49/91 153/187/91
f 51/51/92 154/188/92 155/189/92
f 53/53/93 155/189/93 156/190/93
f 55/55/94 156/190/94 157/191/94
f 59/59/95 57/57/95 157/191/95
f 59/59/96 158/192/96 159/193/96
f 61/61/97 159/193/97 160/194/97
f 63/63/98 160/194/98 129/163/98
f 192/226/99 161/195/99 98/102/99
f 161/195/100 162/196/100 99/104/100
f 162/196/101 163/197/101 100/106/101
f 100/106/102 163/197/102 164/198/102
f 164/198/103 165/199/103 102/110/103
f 165/199/104 166/200/104 103/112/104
f 166/200/105 167/201/105 104/114/105
f 167/201/106 168/202/106 105/116/106
f 168/202/107 169/203/107 106/118/107
f 169/203/108 170/204/108 107/120/108
f 170/204/109 171/205/109 108/122/109
f 171/205/110 172/206/110 109/124/110
f 172/206/111 173/207/111 110/126/111
f 110/126/112 173/207/112 174/208/112
f 174/208/113 175/209/113 112/130/113
f 175/209/114 176/210/114 113/132/114
f 176/210/115 177/211/115 114/134/115
f 177/211/116 178/212/116 115/136/116
f 178/212/117 179/213/117 116/138/117
f 179/213/118 180/214/118 117/140/118
f 180/214/119 181/215/119 118/142/119
f 181/215/120 182/216/120 119/144/120
f 119/144/121 182/216/121 183/217/121
f 183/217/122 184/218/122 121/148/122
f 184/218/123 185/219/123 122/150/123
f 185/219/124 186/220/124 123/152/124
f 186/220/125 187/221/125 124/154/125
f 187/221/126 188/222/126 125/156/126
f 188/222/127 189/223/127 126/158/127
f 126/158/128 189/223/128 190/224/128
f 190/224/129 191/225/129 128/162/129
f 191/225/130 192/227/130 97/100/130
f 226/294/31 225/293/31 193/229/31
f 227/295/31 195/234/31 193/229/31
f 228/296/31 196/236/31 195/234/31
f 229/297/31 197/238/31 196/236/31
f 230/298/31 198/240/31 197/238/31
f 231/299/31 199/242/31 198/240/31
f 232/300/31 200/244/31 199/242/31
f 233/301/31 201/246/31 200/244/31
f 233/301/31 234/302/31 202/248/31
f 235/303/31 203/250/31 202/248/31
f 236/304/31 204/252/31 203/250/31
f 237/305/31 205/254/31 204/252/31
f 238/306/31 206/256/31 205/254/31
f 239/307/31 207/258/31 206/256/31
f 240/308/31 208/260/31 207/258/31
f 241/309/31 209/262/31 208/260/31
f 242/310/31 210/264/31 209/262/31
f 242/310/31 243/311/31 211/266/31
f 244/312/31 212/268/31 211/266/31
f 245/313/31 213/270/31 212/268/31
f 246/314/31 214/272/31 213/270/31
f 247/315/31 215/274/31 214/272/31
f 248/316/31 216/276/31 215/274/31
f 249/317/31 217/278/31 216/276/31
f 249/317/31 250/318/31 218/280/31
f 251/319/31 219/282/31 218/280/31
f 252/320/31 220/284/31 219/282/31
f 253/321/31 221/286/31 220/284/31
f 254/322/31 222/288/31 221/286/31
f 255/323/31 223/290/31 222/288/31
f 256/324/31 224/292/31 223/290/31
f 226/294/31 194/232/31 224/292/31
f 257/325/131 225/293/131 226/294/131
f 259/327/132 227/295/132 225/293/132
f 260/328/133 228/296/133 227/295/133
f 261/329/134 229/297/134 228/296/134
f 262/330/135 230/298/135 229/297/135
f 263/331/136 231/299/136 230/298/136
f 264/332/137 232/300/137 231/299/137
f 265/333/138 233/301/138 232/300/138
f 266/334/139 234/302/139 233/301/139
f 267/335/140 235/303/140 234/302/140
f 268/336/141 236/304/141 235/303/141
f 269/337/142 237/305/142 236/304/142
f 270/338/143 238/306/143 237/305/143
f 271/339/144 239/307/144 238/306/144
f 272/340/145 240/308/145 239/307/145
f 273/341/146 241/309/146 240/308/146
f 274/342/147 242/310/147 241/309/147
f 275/343/148 243/311/148 242/310/148
f 276/344/149 244/312/149 243/311/149
f 277/345/150 245/313/150 244/312/150
f 278/346/151 246/314/151 245/313/151
f 279/347/152 247/315/152 246/314/152
f 280/348/153 248/316/153 247/315/153
f 281/349/154 249/317/154 248/316/154
f 282/350/155 250/318/155 249/317/155
f 283/351/156 251/319/156 250/318/156
f 284/352/157 252/320/157 251/319/157
f 285/353/158 253/321/158 252/320/158
f 286/354/159 254/322/159 253/321/159
f 287/355/160 255/323/160 254/322/160
f 288/356/161 256/324/161 255/323/161
f 258/326/162 226/294/162 256/324/162
f 4/4/163 257/325/163 258/326/163
f 6/6/164 259/327/164 257/325/164
f 8/8/165 260/328/165 259/327/165
f 10/10/166 261/329/166 260/328/166
f 10/10/167 12/12/167 262/330/167
f 14/14/168 263/331/168 262/330/168
f 16/16/169 264/332/169 263/331/169
f 16/16/170 18/18/170 265/333/170
f 20/20/171 266/334/171 265/333/171
f 22/22/172 267/335/172 266/334/172
f 24/24/173 268/336/173 267/335/173
f 26/26/174 269/337/174 268/336/174
f 26/26/175 28/28/175 270/338/175
f 30/30/176 271/339/176 270/338/176
f 32/32/177 272/340/177 271/339/177
f 32/32/178 34/34/178 273/341/178
f 36/36/179 274/342/179 273/341/179
f 38/38/180 275/343/180 274/342/180
f 40/40/181 276/344/181 275/343/181
f 42/42/182 277/345/182 276/344/182
f 42/42/183 44/44/183 278/346/183
f 46/46/184 279/347/184 278/346/184
f 48/48/185 280/348/185 279/347/185
f 48/48/186 50/50/186 281/349/186
f 52/52/187 282/350/187 281/349/187
f 54/54/188 283/351/188 282/350/188
f 56/56/189 284/352/189 283/351/189
f 58/58/190 285/353/190 284/352/190
f 58/58/191 60/60/191 286/354/191
f 62/62/192 287/355/192 286/354/192
f 64/64/193 288/356/193 287/355/193
f 64/64/194 2/2/194 258/326/194
