# Blender 3.3.1
# www.blender.org
o Prosecco
v 0.000000 0.010374 -0.217715
v 0.000000 1.193992 -0.187546
v 0.042474 0.010374 -0.213531
v 0.036588 1.193992 -0.183942
v 0.083316 0.010374 -0.201142
v 0.071771 1.193992 -0.173270
v 0.120956 0.010374 -0.181023
v 0.104195 1.193992 -0.155939
v 0.153948 0.010374 -0.153948
v 0.132615 1.193992 -0.132615
v 0.181023 0.010374 -0.120956
v 0.155939 1.193992 -0.104195
v 0.201142 0.010374 -0.083316
v 0.173270 1.193992 -0.071771
v 0.213531 0.010374 -0.042474
v 0.183942 1.193992 -0.036588
v 0.217715 0.010374 -0.000000
v 0.187546 1.193992 -0.000000
v 0.213531 0.010374 0.042474
v 0.183942 1.193992 0.036588
v 0.201142 0.010374 0.083316
v 0.173270 1.193992 0.071771
v 0.181023 0.010374 0.120956
v 0.155939 1.193992 0.104195
v 0.153948 0.010374 0.153948
v 0.132615 1.193992 0.132615
v 0.120956 0.010374 0.181023
v 0.104195 1.193992 0.155939
v 0.083316 0.010374 0.201142
v 0.071771 1.193992 0.173270
v 0.042474 0.010374 0.213531
v 0.036588 1.193992 0.183942
v 0.000000 0.010374 0.217715
v 0.000000 1.193992 0.187546
v -0.042474 0.010374 0.213531
v -0.036588 1.193992 0.183942
v -0.083316 0.010374 0.201142
v -0.071771 1.193992 0.173270
v -0.120956 0.010374 0.181023
v -0.104195 1.193992 0.155939
v -0.153948 0.010374 0.153948
v -0.132615 1.193992 0.132615
v -0.181023 0.010374 0.120956
v -0.155939 1.193992 0.104195
v -0.201142 0.010374 0.083316
v -0.173270 1.193992 0.071771
v -0.213531 0.010374 0.042474
v -0.183942 1.193992 0.036588
v -0.217715 0.010374 -0.000000
v -0.187546 1.193992 -0.000000
v -0.213531 0.010374 -0.042474
v -0.183942 1.193992 -0.036588
v -0.201142 0.010374 -0.083316
v -0.173270 1.193992 -0.071771
v -0.181023 0.010374 -0.120956
v -0.155939 1.193992 -0.104195
v -0.153948 0.010374 -0.153948
v -0.132615 1.193992 -0.132615
v -0.120956 0.010374 -0.181023
v -0.104195 1.193992 -0.155939
v -0.083316 0.010374 -0.201142
v -0.071771 1.193992 -0.173270
v -0.042474 0.010374 -0.213531
v -0.036588 1.193992 -0.183942
v 0.000000 0.044313 -0.211314
v -0.000000 0.067382 -0.046518
v -0.000000 0.519727 -0.027459
v -0.000000 0.797961 -0.049919
v -0.000000 0.937209 -0.136765
v 0.000000 1.038477 -0.171992
v 0.033554 1.038477 -0.168688
v 0.026681 0.937209 -0.134137
v 0.009739 0.797961 -0.048960
v 0.005357 0.519727 -0.026931
v 0.009075 0.067382 -0.045624
v 0.041225 0.044313 -0.207254
v 0.065819 1.038477 -0.158900
v 0.052338 0.937209 -0.126354
v 0.019103 0.797961 -0.046119
v 0.010508 0.519727 -0.025369
v 0.017802 0.067382 -0.042977
v 0.080866 0.044313 -0.195229
v 0.095554 1.038477 -0.143006
v 0.075982 0.937209 -0.113716
v 0.027733 0.797961 -0.041506
v 0.015255 0.519727 -0.022831
v 0.025844 0.067382 -0.038678
v 0.117400 0.044313 -0.175701
v 0.121617 1.038477 -0.121617
v 0.096707 0.937209 -0.096707
v 0.035298 0.797961 -0.035298
v 0.019416 0.519727 -0.019416
v 0.032893 0.067382 -0.032893
v 0.149422 0.044313 -0.149422
v 0.143006 1.038477 -0.095554
v 0.113716 0.937209 -0.075982
v 0.041506 0.797961 -0.027733
v 0.022831 0.519727 -0.015255
v 0.038678 0.067382 -0.025844
v 0.175701 0.044313 -0.117400
v 0.158900 1.038477 -0.065819
v 0.126354 0.937209 -0.052338
v 0.046119 0.797961 -0.019103
v 0.025369 0.519727 -0.010508
v 0.042977 0.067382 -0.017802
v 0.195229 0.044313 -0.080866
v 0.168688 1.038477 -0.033554
v 0.134137 0.937209 -0.026681
v 0.048960 0.797961 -0.009739
v 0.026931 0.519727 -0.005357
v 0.045624 0.067382 -0.009075
v 0.207254 0.044313 -0.041225
v 0.171992 1.038477 -0.000000
v 0.136765 0.937209 -0.000000
v 0.049919 0.797961 -0.000000
v 0.027459 0.519727 -0.000000
v 0.046518 0.067382 -0.000000
v 0.211314 0.044313 -0.000000
v 0.168688 1.038477 0.033554
v 0.134137 0.937209 0.026681
v 0.048960 0.797961 0.009739
v 0.026931 0.519727 0.005357
v 0.045624 0.067382 0.009075
v 0.207254 0.044313 0.041225
v 0.158900 1.038477 0.065819
v 0.126354 0.937209 0.052338
v 0.046119 0.797961 0.019103
v 0.025369 0.519727 0.010508
v 0.042977 0.067382 0.017802
v 0.195229 0.044313 0.080866
v 0.143006 1.038477 0.095554
v 0.113716 0.937209 0.075982
v 0.041506 0.797961 0.027733
v 0.022831 0.519727 0.015255
v 0.038678 0.067382 0.025844
v 0.175701 0.044313 0.117400
v 0.121617 1.038477 0.121617
v 0.096707 0.937209 0.096707
v 0.035298 0.797961 0.035298
v 0.019416 0.519727 0.019416
v 0.032893 0.067382 0.032893
v 0.149422 0.044313 0.149422
v 0.095554 1.038477 0.143006
v 0.075982 0.937209 0.113716
v 0.027733 0.797961 0.041506
v 0.015255 0.519727 0.022831
v 0.025844 0.067382 0.038678
v 0.117400 0.044313 0.175701
v 0.065819 1.038477 0.158900
v 0.052338 0.937209 0.126354
v 0.019103 0.797961 0.046119
v 0.010508 0.519727 0.025369
v 0.017802 0.067382 0.042977
v 0.080866 0.044313 0.195229
v 0.033554 1.038477 0.168688
v 0.026681 0.937209 0.134137
v 0.009739 0.797961 0.048960
v 0.005357 0.519727 0.026931
v 0.009075 0.067382 0.045624
v 0.041225 0.044313 0.207254
v 0.000000 1.038477 0.171992
v -0.000000 0.937209 0.136765
v -0.000000 0.797961 0.049919
v -0.000000 0.519727 0.027459
v -0.000000 0.067382 0.046518
v 0.000000 0.044313 0.211314
v -0.033554 1.038477 0.168688
v -0.026681 0.937209 0.134137
v -0.009739 0.797961 0.048960
v -0.005357 0.519727 0.026931
v -0.009075 0.067382 0.045624
v -0.041225 0.044313 0.207254
v -0.065819 1.038477 0.158900
v -0.052338 0.937209 0.126354
v -0.019103 0.797961 0.046119
v -0.010508 0.519727 0.025369
v -0.017802 0.067382 0.042977
v -0.080866 0.044313 0.195229
v -0.095554 1.038477 0.143006
v -0.075982 0.937209 0.113716
v -0.027733 0.797961 0.041506
v -0.015255 0.519727 0.022831
v -0.025844 0.067382 0.038678
v -0.117400 0.044313 0.175701
v -0.121617 1.038477 0.121617
v -0.096707 0.937209 0.096707
v -0.035298 0.797961 0.035298
v -0.019416 0.519727 0.019416
v -0.032893 0.067382 0.032893
v -0.149422 0.044313 0.149422
v -0.143006 1.038477 0.095554
v -0.113716 0.937209 0.075982
v -0.041506 0.797961 0.027733
v -0.022831 0.519727 0.015255
v -0.038678 0.067382 0.025844
v -0.175701 0.044313 0.117400
v -0.158900 1.038477 0.065819
v -0.126354 0.937209 0.052338
v -0.046119 0.797961 0.019103
v -0.025369 0.519727 0.010508
v -0.042977 0.067382 0.017802
v -0.195229 0.044313 0.080866
v -0.168688 1.038477 0.033554
v -0.134137 0.937209 0.026681
v -0.048960 0.797961 0.009739
v -0.026931 0.519727 0.005357
v -0.045624 0.067382 0.009075
v -0.207254 0.044313 0.041225
v -0.171992 1.038477 -0.000000
v -0.136765 0.937209 -0.000000
v -0.049919 0.797961 -0.000000
v -0.027459 0.519727 -0.000000
v -0.046518 0.067382 -0.000000
v -0.211314 0.044313 -0.000000
v -0.168688 1.038477 -0.033554
v -0.134137 0.937209 -0.026681
v -0.048960 0.797961 -0.009739
v -0.026931 0.519727 -0.005357
v -0.045624 0.067382 -0.009075
v -0.207254 0.044313 -0.041225
v -0.158900 1.038477 -0.065819
v -0.126354 0.937209 -0.052338
v -0.046119 0.797961 -0.019103
v -0.025369 0.519727 -0.010508
v -0.042977 0.067382 -0.017802
v -0.195229 0.044313 -0.080866
v -0.143006 1.038477 -0.095554
v -0.113716 0.937209 -0.075982
v -0.041506 0.797961 -0.027733
v -0.022831 0.519727 -0.015255
v -0.038678 0.067382 -0.025844
v -0.175701 0.044313 -0.117400
v -0.121617 1.038477 -0.121617
v -0.096707 0.937209 -0.096707
v -0.035298 0.797961 -0.035298
v -0.019416 0.519727 -0.019416
v -0.032893 0.067382 -0.032893
v -0.149422 0.044313 -0.149422
v -0.095554 1.038477 -0.143006
v -0.075982 0.937209 -0.113716
v -0.027733 0.797961 -0.041506
v -0.015255 0.519727 -0.022831
v -0.025844 0.067382 -0.038678
v -0.117400 0.044313 -0.175701
v -0.065819 1.038477 -0.158900
v -0.052338 0.937209 -0.126354
v -0.019103 0.797961 -0.046119
v -0.010508 0.519727 -0.025369
v -0.017802 0.067382 -0.042977
v -0.080866 0.044313 -0.195229
v -0.033554 1.038477 -0.168688
v -0.026681 0.937209 -0.134137
v -0.009739 0.797961 -0.048960
v -0.005357 0.519727 -0.026931
v -0.009075 0.067382 -0.045624
v -0.041225 0.044313 -0.207254
v 0.026770 1.624559 -0.134582
v -0.000000 1.624559 -0.137219
v 0.052511 1.624559 -0.126774
v 0.076235 1.624559 -0.114093
v 0.097028 1.624559 -0.097028
v 0.114093 1.624559 -0.076235
v 0.126774 1.624559 -0.052511
v 0.134582 1.624559 -0.026770
v 0.137219 1.624559 -0.000000
v 0.134582 1.624559 0.026770
v 0.126774 1.624559 0.052511
v 0.114093 1.624559 0.076235
v 0.097028 1.624559 0.097028
v 0.076235 1.624559 0.114093
v 0.052511 1.624559 0.126774
v 0.026770 1.624559 0.134582
v -0.000000 1.624559 0.137219
v -0.026770 1.624559 0.134582
v -0.052511 1.624559 0.126774
v -0.076235 1.624559 0.114093
v -0.097028 1.624559 0.097028
v -0.114093 1.624559 0.076235
v -0.126774 1.624559 0.052511
v -0.134582 1.624559 0.026770
v -0.137219 1.624559 -0.000000
v -0.134582 1.624559 -0.026770
v -0.126774 1.624559 -0.052511
v -0.114093 1.624559 -0.076235
v -0.097028 1.624559 -0.097028
v -0.076235 1.624559 -0.114093
v -0.052511 1.624559 -0.126774
v -0.026770 1.624559 -0.134582
v 0.031208 1.624559 -0.156892
v -0.000000 1.624559 -0.159966
v 0.061216 1.624559 -0.147789
v 0.088872 1.624559 -0.133007
v 0.113113 1.624559 -0.113113
v 0.133007 1.624559 -0.088872
v 0.147789 1.624559 -0.061216
v 0.156892 1.624559 -0.031208
v 0.159966 1.624559 -0.000000
v 0.156892 1.624559 0.031208
v 0.147789 1.624559 0.061216
v 0.133007 1.624559 0.088872
v 0.113113 1.624559 0.113113
v 0.088872 1.624559 0.133007
v 0.061216 1.624559 0.147789
v 0.031208 1.624559 0.156892
v -0.000000 1.624559 0.159966
v -0.031208 1.624559 0.156892
v -0.061216 1.624559 0.147789
v -0.088872 1.624559 0.133007
v -0.113113 1.624559 0.113113
v -0.133007 1.624559 0.088872
v -0.147789 1.624559 0.061216
v -0.156892 1.624559 0.031208
v -0.159966 1.624559 -0.000000
v -0.156892 1.624559 -0.031208
v -0.147789 1.624559 -0.061216
v -0.133007 1.624559 -0.088872
v -0.113113 1.624559 -0.113113
v -0.088872 1.624559 -0.133007
v -0.061216 1.624559 -0.147789
v -0.031208 1.624559 -0.156892
v 0.026770 1.002332 -0.134582
v -0.000000 1.002332 -0.137219
v 0.052511 1.002332 -0.126774
v 0.076235 1.002332 -0.114093
v 0.097028 1.002332 -0.097028
v 0.114093 1.002332 -0.076235
v 0.126774 1.002332 -0.052511
v 0.134582 1.002332 -0.026770
v 0.137219 1.002332 -0.000000
v 0.134582 1.002332 0.026770
v 0.126774 1.002332 0.052511
v 0.114093 1.002332 0.076235
v 0.097028 1.002332 0.097028
v 0.076235 1.002332 0.114093
v 0.052511 1.002332 0.126774
v 0.026770 1.002332 0.134582
v -0.000000 1.002332 0.137219
v -0.026770 1.002332 0.134582
v -0.052511 1.002332 0.126774
v -0.076235 1.002332 0.114093
v -0.097028 1.002332 0.097028
v -0.114093 1.002332 0.076235
v -0.126774 1.002332 0.052511
v -0.134582 1.002332 0.026770
v -0.137219 1.002332 -0.000000
v -0.134582 1.002332 -0.026770
v -0.126774 1.002332 -0.052511
v -0.114093 1.002332 -0.076235
v -0.097028 1.002332 -0.097028
v -0.076235 1.002332 -0.114093
v -0.052511 1.002332 -0.126774
v -0.026770 1.002332 -0.134582
vn 0.0975 -0.0990 -0.9903
vn 0.2889 -0.0990 -0.9522
vn 0.4691 -0.0990 -0.8776
vn 0.6313 -0.0990 -0.7692
vn 0.7692 -0.0990 -0.6313
vn 0.8776 -0.0990 -0.4691
vn 0.9522 -0.0990 -0.2889
vn 0.9903 -0.0990 -0.0975
vn 0.9903 -0.0990 0.0975
vn 0.9522 -0.0990 0.2889
vn 0.8776 -0.0990 0.4691
vn 0.7692 -0.0990 0.6313
vn 0.6313 -0.0990 0.7692
vn 0.4691 -0.0990 0.8776
vn 0.2889 -0.0990 0.9522
vn 0.0975 -0.0990 0.9903
vn -0.0975 -0.0990 0.9903
vn -0.2889 -0.0990 0.9522
vn -0.4691 -0.0990 0.8776
vn -0.6313 -0.0990 0.7692
vn -0.7692 -0.0990 0.6313
vn -0.8776 -0.0990 0.4691
vn -0.9522 -0.0990 0.2889
vn -0.9903 -0.0990 0.0975
vn -0.9903 -0.0990 -0.0975
vn -0.9522 -0.0990 -0.2889
vn -0.8776 -0.0990 -0.4691
vn -0.7692 -0.0990 -0.6313
vn -0.6313 -0.0990 -0.7692
vn -0.4691 -0.0990 -0.8776
vn -0.7714 0.0636 -0.6331
vn -0.2889 -0.0990 -0.9522
vn -0.0975 -0.0990 -0.9903
vn -0.0000 -1.0000 -0.0000
vn -0.0963 0.1845 -0.9781
vn -0.0137 0.9903 -0.1386
vn -0.0979 0.0419 -0.9943
vn -0.0977 -0.0801 -0.9920
vn -0.0833 -0.5274 -0.8456
vn -0.0926 -0.3271 -0.9404
vn -0.2853 0.1845 -0.9405
vn -0.0404 0.9903 -0.1333
vn -0.2900 0.0419 -0.9561
vn -0.2894 -0.0801 -0.9539
vn -0.2466 -0.5274 -0.8131
vn -0.2743 -0.3271 -0.9043
vn -0.4633 0.1845 -0.8668
vn -0.0657 0.9903 -0.1228
vn -0.4710 0.0419 -0.8811
vn -0.4699 -0.0801 -0.8791
vn -0.4005 -0.5274 -0.7493
vn -0.4455 -0.3271 -0.8334
vn -0.6235 0.1845 -0.7597
vn -0.0884 0.9903 -0.1077
vn -0.6338 0.0419 -0.7723
vn -0.6324 -0.0801 -0.7705
vn -0.5390 -0.5274 -0.6568
vn -0.5995 -0.3271 -0.7305
vn -0.7597 0.1845 -0.6235
vn -0.1077 0.9903 -0.0884
vn -0.7723 0.0419 -0.6338
vn -0.7705 -0.0801 -0.6324
vn -0.6568 -0.5274 -0.5390
vn -0.7305 -0.3271 -0.5995
vn -0.8668 0.1845 -0.4633
vn -0.1228 0.9903 -0.0657
vn -0.8811 0.0419 -0.4710
vn -0.8791 -0.0801 -0.4699
vn -0.7493 -0.5274 -0.4005
vn -0.8334 -0.3271 -0.4455
vn -0.9405 0.1845 -0.2853
vn -0.1333 0.9903 -0.0404
vn -0.9561 0.0419 -0.2900
vn -0.9539 -0.0801 -0.2894
vn -0.8131 -0.5274 -0.2466
vn -0.9043 -0.3271 -0.2743
vn -0.9781 0.1845 -0.0963
vn -0.1386 0.9903 -0.0137
vn -0.9943 0.0419 -0.0979
vn -0.9920 -0.0801 -0.0977
vn -0.8456 -0.5274 -0.0833
vn -0.9404 -0.3271 -0.0926
vn -0.9781 0.1845 0.0963
vn -0.1386 0.9903 0.0137
vn -0.9943 0.0419 0.0979
vn -0.9920 -0.0801 0.0977
vn -0.8456 -0.5274 0.0833
vn -0.9404 -0.3271 0.0926
vn -0.9405 0.1845 0.2853
vn -0.1333 0.9903 0.0404
vn -0.9561 0.0419 0.2900
vn -0.9539 -0.0801 0.2894
vn -0.8131 -0.5274 0.2466
vn -0.9043 -0.3271 0.2743
vn -0.8668 0.1845 0.4633
vn -0.1228 0.9903 0.0657
vn -0.8811 0.0419 0.4710
vn -0.8791 -0.0801 0.4699
vn -0.7493 -0.5274 0.4005
vn -0.8334 -0.3271 0.4455
vn -0.7597 0.1845 0.6235
vn -0.1077 0.9903 0.0884
vn -0.7723 0.0419 0.6338
vn -0.7705 -0.0801 0.6324
vn -0.6568 -0.5274 0.5390
vn -0.7305 -0.3271 0.5995
vn -0.6235 0.1845 0.7597
vn -0.0884 0.9903 0.1077
vn -0.6338 0.0419 0.7723
vn -0.6324 -0.0801 0.7705
vn -0.5390 -0.5274 0.6568
vn -0.5995 -0.3271 0.7305
vn -0.4633 0.1845 0.8668
vn -0.0657 0.9903 0.1228
vn -0.4710 0.0419 0.8811
vn -0.4699 -0.0801 0.8791
vn -0.4005 -0.5274 0.7493
vn -0.4455 -0.3271 0.8334
vn -0.2853 0.1845 0.9405
vn -0.0404 0.9903 0.1333
vn -0.2900 0.0419 0.9561
vn -0.2894 -0.0801 0.9539
vn -0.2466 -0.5274 0.8131
vn -0.2743 -0.3271 0.9043
vn -0.0963 0.1845 0.9781
vn -0.0137 0.9903 0.1386
vn -0.0979 0.0419 0.9943
vn -0.0977 -0.0801 0.9920
vn -0.0833 -0.5274 0.8456
vn -0.0926 -0.3271 0.9404
vn 0.0963 0.1845 0.9781
vn 0.0137 0.9903 0.1386
vn 0.0979 0.0419 0.9943
vn 0.0977 -0.0801 0.9920
vn 0.0833 -0.5274 0.8456
vn 0.0926 -0.3271 0.9404
vn 0.2853 0.1845 0.9405
vn 0.0404 0.9903 0.1333
vn 0.2900 0.0419 0.9561
vn 0.2894 -0.0801 0.9539
vn 0.2466 -0.5274 0.8131
vn 0.2743 -0.3271 0.9043
vn 0.4633 0.1845 0.8668
vn 0.0657 0.9903 0.1228
vn 0.4710 0.0419 0.8811
vn 0.4699 -0.0801 0.8791
vn 0.4005 -0.5274 0.7493
vn 0.4455 -0.3271 0.8334
vn 0.6235 0.1845 0.7597
vn 0.0884 0.9903 0.1077
vn 0.6338 0.0419 0.7723
vn 0.6324 -0.0801 0.7705
vn 0.5390 -0.5274 0.6568
vn 0.5995 -0.3271 0.7305
vn 0.7597 0.1845 0.6235
vn 0.1077 0.9903 0.0884
vn 0.7723 0.0419 0.6338
vn 0.7705 -0.0801 0.6324
vn 0.6568 -0.5274 0.5390
vn 0.7305 -0.3271 0.5995
vn 0.8668 0.1845 0.4633
vn 0.1228 0.9903 0.0657
vn 0.8811 0.0419 0.4710
vn 0.8791 -0.0801 0.4699
vn 0.7493 -0.5274 0.4005
vn 0.8334 -0.3271 0.4455
vn 0.9405 0.1845 0.2853
vn 0.1333 0.9903 0.0404
vn 0.9561 0.0419 0.2900
vn 0.9539 -0.0801 0.2894
vn 0.8131 -0.5274 0.2466
vn 0.9043 -0.3271 0.2743
vn 0.9781 0.1845 0.0963
vn 0.1386 0.9903 0.0137
vn 0.9943 0.0419 0.0979
vn 0.9920 -0.0801 0.0977
vn 0.8456 -0.5274 0.0833
vn 0.9404 -0.3271 0.0926
vn 0.9781 0.1845 -0.0963
vn 0.1386 0.9903 -0.0137
vn 0.9943 0.0419 -0.0979
vn 0.9920 -0.0801 -0.0977
vn 0.8456 -0.5274 -0.0833
vn 0.9404 -0.3271 -0.0926
vn 0.9405 0.1845 -0.2853
vn 0.1333 0.9903 -0.0404
vn 0.9561 0.0419 -0.2900
vn 0.9539 -0.0801 -0.2894
vn 0.8131 -0.5274 -0.2466
vn 0.9043 -0.3271 -0.2743
vn 0.8668 0.1845 -0.4633
vn 0.1228 0.9903 -0.0657
vn 0.8811 0.0419 -0.4710
vn 0.8791 -0.0801 -0.4699
vn 0.7493 -0.5274 -0.4005
vn 0.8334 -0.3271 -0.4455
vn 0.7597 0.1845 -0.6235
vn 0.1077 0.9903 -0.0884
vn 0.7723 0.0419 -0.6338
vn 0.7705 -0.0801 -0.6324
vn 0.6568 -0.5274 -0.5390
vn 0.7305 -0.3271 -0.5995
vn 0.6235 0.1845 -0.7597
vn 0.0884 0.9903 -0.1077
vn 0.6338 0.0419 -0.7723
vn 0.6324 -0.0801 -0.7705
vn 0.5390 -0.5274 -0.6568
vn 0.5995 -0.3271 -0.7305
vn 0.4633 0.1845 -0.8668
vn 0.0657 0.9903 -0.1228
vn 0.4710 0.0419 -0.8811
vn 0.4699 -0.0801 -0.8791
vn 0.4005 -0.5274 -0.7493
vn 0.4455 -0.3271 -0.8334
vn 0.2853 0.1845 -0.9405
vn 0.0404 0.9903 -0.1333
vn 0.2900 0.0419 -0.9561
vn 0.2894 -0.0801 -0.9539
vn 0.2466 -0.5274 -0.8131
vn 0.2743 -0.3271 -0.9043
vn 0.0963 0.1845 -0.9781
vn 0.0137 0.9903 -0.1386
vn 0.0979 0.0419 -0.9943
vn 0.0977 -0.0801 -0.9920
vn 0.0833 -0.5274 -0.8456
vn 0.0926 -0.3271 -0.9404
vn -0.2903 -0.0000 -0.9569
vn 0.8801 0.0636 -0.4704
vn 0.2897 0.0636 0.9550
vn -0.9932 0.0636 0.0978
vn 0.2897 0.0636 -0.9550
vn 0.8801 0.0636 0.4704
vn -0.6331 0.0636 0.7714
vn -0.6331 0.0636 -0.7714
vn 0.9550 0.0636 -0.2897
vn 0.0978 0.0636 0.9932
vn -0.9932 0.0636 -0.0978
vn 0.4704 0.0636 -0.8801
vn 0.7714 0.0636 0.6331
vn -0.7714 0.0636 0.6331
vn -0.4704 0.0636 -0.8801
vn 0.9932 0.0636 -0.0978
vn -0.0978 0.0636 0.9932
vn -0.9550 0.0636 -0.2897
vn 0.6331 0.0636 -0.7714
vn 0.6331 0.0636 0.7714
vn -0.8801 0.0636 0.4704
vn -0.2897 0.0636 -0.9550
vn 0.9932 0.0636 0.0978
vn -0.2897 0.0636 0.9550
vn -0.8801 0.0636 -0.4704
vn 0.7714 0.0636 -0.6331
vn 0.4704 0.0636 0.8801
vn -0.9550 0.0636 0.2897
vn 0.0978 0.0636 -0.9932
vn -0.0978 0.0636 -0.9932
vn 0.9550 0.0636 0.2897
vn -0.4704 0.0636 0.8801
vn -0.0000 1.0000 -0.0000
vn -0.2903 -0.0000 0.9569
vn 0.6344 -0.0000 0.7730
vn -0.0980 -0.0000 -0.9952
vn -0.4714 -0.0000 0.8819
vn 0.4714 -0.0000 0.8819
vn 0.0980 -0.0000 -0.9952
vn -0.6344 -0.0000 0.7730
vn 0.2903 -0.0000 0.9569
vn 0.2903 -0.0000 -0.9569
vn -0.7730 -0.0000 0.6344
vn 0.0980 -0.0000 0.9952
vn 0.4714 -0.0000 -0.8819
vn -0.8819 -0.0000 0.4714
vn 0.6344 -0.0000 -0.7730
vn -0.9569 -0.0000 0.2903
vn 0.7730 -0.0000 -0.6344
vn -0.9952 -0.0000 0.0980
vn 0.8819 -0.0000 -0.4714
vn -0.9952 -0.0000 -0.0980
vn 0.9569 -0.0000 -0.2903
vn -0.9569 -0.0000 -0.2903
vn 0.9952 -0.0000 -0.0980
vn -0.8819 -0.0000 -0.4714
vn 0.9952 -0.0000 0.0980
vn -0.7730 -0.0000 -0.6344
vn 0.9569 -0.0000 0.2903
vn -0.6344 -0.0000 -0.7730
vn 0.8819 -0.0000 0.4714
vn -0.4714 -0.0000 -0.8819
vn -0.0980 -0.0000 0.9952
vn 0.7730 -0.0000 0.6344
vt 1.000000 0.500000
vt 0.750000 0.490000
vt 0.000000 0.500000
vt 0.000000 1.000000
vt 1.000000 1.000000
vt 0.796822 0.485388
vt 0.968750 0.500000
vt 0.968750 1.000000
vt 0.841844 0.471731
vt 0.937500 0.500000
vt 0.937500 1.000000
vt 0.883337 0.449553
vt 0.906250 0.500000
vt 0.906250 1.000000
vt 0.875000 0.500000
vt 0.919706 0.419706
vt 0.875000 1.000000
vt 0.949553 0.383337
vt 0.843750 0.500000
vt 0.843750 1.000000
vt 0.971731 0.341844
vt 0.812500 0.500000
vt 0.812500 1.000000
vt 0.985388 0.296822
vt 0.781250 0.500000
vt 0.781250 1.000000
vt 0.990000 0.250000
vt 0.750000 0.500000
vt 0.750000 1.000000
vt 0.985388 0.203178
vt 0.718750 0.500000
vt 0.718750 1.000000
vt 0.971731 0.158156
vt 0.687500 0.500000
vt 0.687500 1.000000
vt 0.949553 0.116663
vt 0.656250 0.500000
vt 0.656250 1.000000
vt 0.625000 0.500000
vt 0.919706 0.080294
vt 0.625000 1.000000
vt 0.883337 0.050447
vt 0.593750 0.500000
vt 0.593750 1.000000
vt 0.841844 0.028269
vt 0.562500 0.500000
vt 0.562500 1.000000
vt 0.796822 0.014612
vt 0.531250 0.500000
vt 0.531250 1.000000
vt 0.750000 0.010000
vt 0.500000 0.500000
vt 0.500000 1.000000
vt 0.703178 0.014612
vt 0.468750 0.500000
vt 0.468750 1.000000
vt 0.658156 0.028269
vt 0.437500 0.500000
vt 0.437500 1.000000
vt 0.616663 0.050447
vt 0.406250 0.500000
vt 0.406250 1.000000
vt 0.375000 0.500000
vt 0.580294 0.080294
vt 0.375000 1.000000
vt 0.550447 0.116663
vt 0.343750 0.500000
vt 0.343750 1.000000
vt 0.528269 0.158156
vt 0.312500 0.500000
vt 0.312500 1.000000
vt 0.514612 0.203178
vt 0.281250 0.500000
vt 0.281250 1.000000
vt 0.510000 0.250000
vt 0.250000 0.500000
vt 0.250000 1.000000
vt 0.514612 0.296822
vt 0.218750 0.500000
vt 0.218750 1.000000
vt 0.528269 0.341844
vt 0.187500 0.500000
vt 0.187500 1.000000
vt 0.550447 0.383337
vt 0.156250 0.500000
vt 0.156250 1.000000
vt 0.125000 0.500000
vt 0.580294 0.419706
vt 0.125000 1.000000
vt 0.616663 0.449553
vt 0.093750 0.500000
vt 0.093750 1.000000
vt 0.658156 0.471731
vt 0.062500 0.500000
vt 0.062500 1.000000
vt 0.703178 0.485388
vt 0.031250 0.500000
vt 0.031250 1.000000
vt 0.000000 0.571429
vt 1.000000 0.571429
vt 0.000000 0.642857
vt 1.000000 0.642857
vt 0.000000 0.714286
vt 1.000000 0.714286
vt 0.000000 0.785714
vt 1.000000 0.785714
vt 0.000000 0.857143
vt 1.000000 0.857143
vt 0.000000 0.928571
vt 1.000000 0.928571
vt 0.968750 0.928571
vt 0.968750 0.857143
vt 0.968750 0.785714
vt 0.968750 0.714286
vt 0.968750 0.642857
vt 0.968750 0.571429
vt 0.937500 0.928571
vt 0.937500 0.857143
vt 0.937500 0.785714
vt 0.937500 0.714286
vt 0.937500 0.642857
vt 0.937500 0.571429
vt 0.906250 0.928571
vt 0.906250 0.857143
vt 0.906250 0.785714
vt 0.906250 0.714286
vt 0.906250 0.642857
vt 0.906250 0.571429
vt 0.875000 0.928571
vt 0.875000 0.857143
vt 0.875000 0.785714
vt 0.875000 0.714286
vt 0.875000 0.642857
vt 0.875000 0.571429
vt 0.843750 0.928571
vt 0.843750 0.857143
vt 0.843750 0.785714
vt 0.843750 0.714286
vt 0.843750 0.642857
vt 0.843750 0.571429
vt 0.812500 0.928571
vt 0.812500 0.857143
vt 0.812500 0.785714
vt 0.812500 0.714286
vt 0.812500 0.642857
vt 0.812500 0.571429
vt 0.781250 0.928571
vt 0.781250 0.857143
vt 0.781250 0.785714
vt 0.781250 0.714286
vt 0.781250 0.642857
vt 0.781250 0.571429
vt 0.750000 0.928571
vt 0.750000 0.857143
vt 0.750000 0.785714
vt 0.750000 0.714286
vt 0.750000 0.642857
vt 0.750000 0.571429
vt 0.718750 0.928571
vt 0.718750 0.857143
vt 0.718750 0.785714
vt 0.718750 0.714286
vt 0.718750 0.642857
vt 0.718750 0.571429
vt 0.687500 0.928571
vt 0.687500 0.857143
vt 0.687500 0.785714
vt 0.687500 0.714286
vt 0.687500 0.642857
vt 0.687500 0.571429
vt 0.656250 0.928571
vt 0.656250 0.857143
vt 0.656250 0.785714
vt 0.656250 0.714286
vt 0.656250 0.642857
vt 0.656250 0.571429
vt 0.625000 0.928571
vt 0.625000 0.857143
vt 0.625000 0.785714
vt 0.625000 0.714286
vt 0.625000 0.642857
vt 0.625000 0.571429
vt 0.593750 0.928571
vt 0.593750 0.857143
vt 0.593750 0.785714
vt 0.593750 0.714286
vt 0.593750 0.642857
vt 0.593750 0.571429
vt 0.562500 0.928571
vt 0.562500 0.857143
vt 0.562500 0.785714
vt 0.562500 0.714286
vt 0.562500 0.642857
vt 0.562500 0.571429
vt 0.531250 0.928571
vt 0.531250 0.857143
vt 0.531250 0.785714
vt 0.531250 0.714286
vt 0.531250 0.642857
vt 0.531250 0.571429
vt 0.500000 0.928571
vt 0.500000 0.857143
vt 0.500000 0.785714
vt 0.500000 0.714286
vt 0.500000 0.642857
vt 0.500000 0.571429
vt 0.468750 0.928571
vt 0.468750 0.857143
vt 0.468750 0.785714
vt 0.468750 0.714286
vt 0.468750 0.642857
vt 0.468750 0.571429
vt 0.437500 0.928571
vt 0.437500 0.857143
vt 0.437500 0.785714
vt 0.437500 0.714286
vt 0.437500 0.642857
vt 0.437500 0.571429
vt 0.406250 0.928571
vt 0.406250 0.857143
vt 0.406250 0.785714
vt 0.406250 0.714286
vt 0.406250 0.642857
vt 0.406250 0.571429
vt 0.375000 0.928571
vt 0.375000 0.857143
vt 0.375000 0.785714
vt 0.375000 0.714286
vt 0.375000 0.642857
vt 0.375000 0.571429
vt 0.343750 0.928571
vt 0.343750 0.857143
vt 0.343750 0.785714
vt 0.343750 0.714286
vt 0.343750 0.642857
vt 0.343750 0.571429
vt 0.312500 0.928571
vt 0.312500 0.857143
vt 0.312500 0.785714
vt 0.312500 0.714286
vt 0.312500 0.642857
vt 0.312500 0.571429
vt 0.281250 0.928571
vt 0.281250 0.857143
vt 0.281250 0.785714
vt 0.281250 0.714286
vt 0.281250 0.642857
vt 0.281250 0.571429
vt 0.250000 0.928571
vt 0.250000 0.857143
vt 0.250000 0.785714
vt 0.250000 0.714286
vt 0.250000 0.642857
vt 0.250000 0.571429
vt 0.218750 0.928571
vt 0.218750 0.857143
vt 0.218750 0.785714
vt 0.218750 0.714286
vt 0.218750 0.642857
vt 0.218750 0.571429
vt 0.187500 0.928571
vt 0.187500 0.857143
vt 0.187500 0.785714
vt 0.187500 0.714286
vt 0.187500 0.642857
vt 0.187500 0.571429
vt 0.156250 0.928571
vt 0.156250 0.857143
vt 0.156250 0.785714
vt 0.156250 0.714286
vt 0.156250 0.642857
vt 0.156250 0.571429
vt 0.125000 0.928571
vt 0.125000 0.857143
vt 0.125000 0.785714
vt 0.125000 0.714286
vt 0.125000 0.642857
vt 0.125000 0.571429
vt 0.093750 0.928571
vt 0.093750 0.857143
vt 0.093750 0.785714
vt 0.093750 0.714286
vt 0.093750 0.642857
vt 0.093750 0.571429
vt 0.062500 0.928571
vt 0.062500 0.857143
vt 0.062500 0.785714
vt 0.062500 0.714286
vt 0.062500 0.642857
vt 0.062500 0.571429
vt 0.031250 0.928571
vt 0.031250 0.857143
vt 0.031250 0.785714
vt 0.031250 0.714286
vt 0.031250 0.642857
vt 0.031250 0.571429
vt 0.290164 0.451916
vt 0.250000 0.455872
vt 0.328784 0.440201
vt 0.364376 0.421176
vt 0.395573 0.395573
vt 0.421176 0.364376
vt 0.440201 0.328784
vt 0.451916 0.290164
vt 0.455872 0.250000
vt 0.451916 0.209836
vt 0.440201 0.171216
vt 0.421176 0.135624
vt 0.395573 0.104427
vt 0.364376 0.078824
vt 0.328784 0.059799
vt 0.290164 0.048084
vt 0.250000 0.044128
vt 0.209836 0.048084
vt 0.171216 0.059799
vt 0.135624 0.078824
vt 0.104427 0.104427
vt 0.078824 0.135624
vt 0.059799 0.171216
vt 0.048084 0.209836
vt 0.044128 0.250000
vt 0.048084 0.290164
vt 0.059799 0.328784
vt 0.078824 0.364376
vt 0.104427 0.395573
vt 0.135624 0.421176
vt 0.171216 0.440201
vt 0.209836 0.451916
vt 0.968750 1.000000
vt 0.296822 0.485388
vt 1.000000 1.000000
vt 0.000000 1.000000
vt 0.250000 0.490000
vt 0.937500 1.000000
vt 0.341844 0.471731
vt 0.906250 1.000000
vt 0.383337 0.449553
vt 0.875000 1.000000
vt 0.419706 0.419706
vt 0.843750 1.000000
vt 0.449553 0.383337
vt 0.812500 1.000000
vt 0.471731 0.341844
vt 0.781250 1.000000
vt 0.485388 0.296822
vt 0.750000 1.000000
vt 0.490000 0.250000
vt 0.718750 1.000000
vt 0.485388 0.203178
vt 0.687500 1.000000
vt 0.471731 0.158156
vt 0.656250 1.000000
vt 0.449553 0.116663
vt 0.625000 1.000000
vt 0.419706 0.080294
vt 0.593750 1.000000
vt 0.383337 0.050447
vt 0.562500 1.000000
vt 0.341844 0.028269
vt 0.531250 1.000000
vt 0.296822 0.014612
vt 0.500000 1.000000
vt 0.250000 0.010000
vt 0.468750 1.000000
vt 0.203178 0.014612
vt 0.437500 1.000000
vt 0.158156 0.028269
vt 0.406250 1.000000
vt 0.116663 0.050447
vt 0.375000 1.000000
vt 0.080294 0.080294
vt 0.343750 1.000000
vt 0.050447 0.116663
vt 0.312500 1.000000
vt 0.028269 0.158156
vt 0.281250 1.000000
vt 0.014612 0.203178
vt 0.250000 1.000000
vt 0.010000 0.250000
vt 0.218750 1.000000
vt 0.014612 0.296822
vt 0.187500 1.000000
vt 0.028269 0.341844
vt 0.156250 1.000000
vt 0.050447 0.383337
vt 0.125000 1.000000
vt 0.080294 0.419706
vt 0.093750 1.000000
vt 0.116663 0.449553
vt 0.062500 1.000000
vt 0.158156 0.471731
vt 0.031250 1.000000
vt 0.203178 0.485388
vt 0.290164 0.451916
vt 0.250000 0.455872
vt 0.328784 0.440201
vt 0.364376 0.421176
vt 0.395573 0.395573
vt 0.421176 0.364376
vt 0.440201 0.328784
vt 0.451916 0.290164
vt 0.455872 0.250000
vt 0.451916 0.209836
vt 0.440201 0.171216
vt 0.421176 0.135624
vt 0.395573 0.104427
vt 0.364376 0.078824
vt 0.328784 0.059799
vt 0.290164 0.048084
vt 0.250000 0.044128
vt 0.209836 0.048084
vt 0.171216 0.059799
vt 0.135624 0.078824
vt 0.104427 0.104427
vt 0.078824 0.135624
vt 0.059799 0.171216
vt 0.048084 0.209836
vt 0.044128 0.250000
vt 0.048084 0.290164
vt 0.059799 0.328784
vt 0.078824 0.364376
vt 0.104427 0.395573
vt 0.135624 0.421176
vt 0.171216 0.440201
vt 0.209836 0.451916
s 0
f 2/5/1 71/111/1 70/110/1
f 4/8/2 77/117/2 71/111/2
f 6/11/3 83/123/3 77/117/3
f 83/123/4 10/17/4 89/129/4
f 10/17/5 95/135/5 89/129/5
f 95/135/6 14/23/6 101/141/6
f 14/23/7 107/147/7 101/141/7
f 16/26/8 113/153/8 107/147/8
f 18/29/9 119/159/9 113/153/9
f 119/159/10 22/35/10 125/165/10
f 125/165/11 24/38/11 131/171/11
f 24/38/12 137/177/12 131/171/12
f 26/41/13 143/183/13 137/177/13
f 28/44/14 149/189/14 143/183/14
f 30/47/15 155/195/15 149/189/15
f 155/195/16 34/53/16 161/201/16
f 34/53/17 167/207/17 161/201/17
f 36/56/18 173/213/18 167/207/18
f 38/59/19 179/219/19 173/213/19
f 179/219/20 42/65/20 185/225/20
f 42/65/21 191/231/21 185/225/21
f 191/231/22 46/71/22 197/237/22
f 197/237/23 48/74/23 203/243/23
f 203/243/24 50/77/24 209/249/24
f 50/77/25 215/255/25 209/249/25
f 52/80/26 221/261/26 215/255/26
f 221/261/27 56/86/27 227/267/27
f 56/86/28 233/273/28 227/267/28
f 58/89/29 239/279/29 233/273/29
f 239/279/30 62/95/30 245/285/30
f 56/86/31 317/386/31 58/89/31
f 62/95/32 251/291/32 245/285/32
f 64/98/33 70/109/33 251/291/33
f 31/48/34 47/72/34 63/96/34
f 256/296/35 1/3/35 63/97/35
f 255/295/36 65/99/36 256/296/36
f 254/294/37 66/101/37 255/295/37
f 253/293/38 67/103/38 254/294/38
f 253/293/39 69/107/39 68/105/39
f 251/291/40 69/107/40 252/292/40
f 250/290/41 63/97/41 61/94/41
f 249/289/42 256/296/42 250/290/42
f 248/288/43 255/295/43 249/289/43
f 247/287/44 254/294/44 248/288/44
f 246/286/45 253/293/45 247/287/45
f 246/286/46 251/291/46 252/292/46
f 244/284/47 61/94/47 59/91/47
f 243/283/48 250/290/48 244/284/48
f 242/282/49 249/289/49 243/283/49
f 241/281/50 248/288/50 242/282/50
f 240/280/51 247/287/51 241/281/51
f 239/279/52 246/286/52 240/280/52
f 238/278/53 59/91/53 57/87/53
f 238/278/54 243/283/54 244/284/54
f 237/277/55 242/282/55 243/283/55
f 236/276/56 241/281/56 242/282/56
f 234/274/57 241/281/57 235/275/57
f 233/273/58 240/280/58 234/274/58
f 55/85/59 238/278/59 57/87/59
f 231/271/60 238/278/60 232/272/60
f 230/270/61 237/277/61 231/271/61
f 229/269/62 236/276/62 230/270/62
f 228/268/63 235/275/63 229/269/63
f 227/267/64 234/274/64 228/268/64
f 53/82/65 232/272/65 55/85/65
f 225/265/66 232/272/66 226/266/66
f 225/265/67 230/270/67 231/271/67
f 223/263/68 230/270/68 224/264/68
f 222/262/69 229/269/69 223/263/69
f 221/261/70 228/268/70 222/262/70
f 220/260/71 53/82/71 51/79/71
f 219/259/72 226/266/72 220/260/72
f 218/258/73 225/265/73 219/259/73
f 217/257/74 224/264/74 218/258/74
f 216/256/75 223/263/75 217/257/75
f 215/255/76 222/262/76 216/256/76
f 214/254/77 51/79/77 49/76/77
f 214/254/78 219/259/78 220/260/78
f 212/252/79 219/259/79 213/253/79
f 211/251/80 218/258/80 212/252/80
f 210/250/81 217/257/81 211/251/81
f 209/249/82 216/256/82 210/250/82
f 208/248/83 49/76/83 47/73/83
f 207/247/84 214/254/84 208/248/84
f 206/246/85 213/253/85 207/247/85
f 205/245/86 212/252/86 206/246/86
f 204/244/87 211/251/87 205/245/87
f 204/244/88 209/249/88 210/250/88
f 202/242/89 47/73/89 45/70/89
f 201/241/90 208/248/90 202/242/90
f 200/240/91 207/247/91 201/241/91
f 199/239/92 206/246/92 200/240/92
f 198/238/93 205/245/93 199/239/93
f 197/237/94 204/244/94 198/238/94
f 196/236/95 45/70/95 43/67/95
f 196/236/96 201/241/96 202/242/96
f 194/234/97 201/241/97 195/235/97
f 193/233/98 200/240/98 194/234/98
f 192/232/99 199/239/99 193/233/99
f 191/231/100 198/238/100 192/232/100
f 190/230/101 43/67/101 41/63/101
f 189/229/102 196/236/102 190/230/102
f 189/229/103 194/234/103 195/235/103
f 187/227/104 194/234/104 188/228/104
f 186/226/105 193/233/105 187/227/105
f 185/225/106 192/232/106 186/226/106
f 39/61/107 190/230/107 41/63/107
f 183/223/108 190/230/108 184/224/108
f 182/222/109 189/229/109 183/223/109
f 181/221/110 188/228/110 182/222/110
f 180/220/111 187/227/111 181/221/111
f 180/220/112 185/225/112 186/226/112
f 37/58/113 184/224/113 39/61/113
f 177/217/114 184/224/114 178/218/114
f 176/216/115 183/223/115 177/217/115
f 175/215/116 182/222/116 176/216/116
f 174/214/117 181/221/117 175/215/117
f 173/213/118 180/220/118 174/214/118
f 172/212/119 37/58/119 35/55/119
f 172/212/120 177/217/120 178/218/120
f 170/210/121 177/217/121 171/211/121
f 169/209/122 176/216/122 170/210/122
f 168/208/123 175/215/123 169/209/123
f 167/207/124 174/214/124 168/208/124
f 166/206/125 35/55/125 33/52/125
f 166/206/126 171/211/126 172/212/126
f 165/205/127 170/210/127 171/211/127
f 163/203/128 170/210/128 164/204/128
f 162/202/129 169/209/129 163/203/129
f 162/202/130 167/207/130 168/208/130
f 160/200/131 33/52/131 31/49/131
f 159/199/132 166/206/132 160/200/132
f 159/199/133 164/204/133 165/205/133
f 157/197/134 164/204/134 158/198/134
f 157/197/135 162/202/135 163/203/135
f 156/196/136 161/201/136 162/202/136
f 154/194/137 31/49/137 29/46/137
f 154/194/138 159/199/138 160/200/138
f 153/193/139 158/198/139 159/199/139
f 151/191/140 158/198/140 152/192/140
f 151/191/141 156/196/141 157/197/141
f 149/189/142 156/196/142 150/190/142
f 148/188/143 29/46/143 27/43/143
f 148/188/144 153/193/144 154/194/144
f 146/186/145 153/193/145 147/187/145
f 145/185/146 152/192/146 146/186/146
f 144/184/147 151/191/147 145/185/147
f 143/183/148 150/190/148 144/184/148
f 142/182/149 27/43/149 25/39/149
f 142/182/150 147/187/150 148/188/150
f 140/180/151 147/187/151 141/181/151
f 139/179/152 146/186/152 140/180/152
f 138/178/153 145/185/153 139/179/153
f 137/177/154 144/184/154 138/178/154
f 23/37/155 142/182/155 25/39/155
f 135/175/156 142/182/156 136/176/156
f 134/174/157 141/181/157 135/175/157
f 133/173/158 140/180/158 134/174/158
f 132/172/159 139/179/159 133/173/159
f 132/172/160 137/177/160 138/178/160
f 21/34/161 136/176/161 23/37/161
f 129/169/162 136/176/162 130/170/162
f 128/168/163 135/175/163 129/169/163
f 127/167/164 134/174/164 128/168/164
f 126/166/165 133/173/165 127/167/165
f 125/165/166 132/172/166 126/166/166
f 124/164/167 21/34/167 19/31/167
f 123/163/168 130/170/168 124/164/168
f 122/162/169 129/169/169 123/163/169
f 121/161/170 128/168/170 122/162/170
f 120/160/171 127/167/171 121/161/171
f 119/159/172 126/166/172 120/160/172
f 118/158/173 19/31/173 17/28/173
f 118/158/174 123/163/174 124/164/174
f 116/156/175 123/163/175 117/157/175
f 115/155/176 122/162/176 116/156/176
f 114/154/177 121/161/177 115/155/177
f 113/153/178 120/160/178 114/154/178
f 112/152/179 17/28/179 15/25/179
f 111/151/180 118/158/180 112/152/180
f 111/151/181 116/156/181 117/157/181
f 109/149/182 116/156/182 110/150/182
f 108/148/183 115/155/183 109/149/183
f 107/147/184 114/154/184 108/148/184
f 106/146/185 15/25/185 13/22/185
f 106/146/186 111/151/186 112/152/186
f 104/144/187 111/151/187 105/145/187
f 103/143/188 110/150/188 104/144/188
f 103/143/189 108/148/189 109/149/189
f 101/141/190 108/148/190 102/142/190
f 100/140/191 13/22/191 11/19/191
f 99/139/192 106/146/192 100/140/192
f 98/138/193 105/145/193 99/139/193
f 98/138/194 103/143/194 104/144/194
f 96/136/195 103/143/195 97/137/195
f 95/135/196 102/142/196 96/136/196
f 94/134/197 11/19/197 9/15/197
f 94/134/198 99/139/198 100/140/198
f 92/132/199 99/139/199 93/133/199
f 91/131/200 98/138/200 92/132/200
f 90/130/201 97/137/201 91/131/201
f 89/129/202 96/136/202 90/130/202
f 7/13/203 94/134/203 9/15/203
f 87/127/204 94/134/204 88/128/204
f 86/126/205 93/133/205 87/127/205
f 85/125/206 92/132/206 86/126/206
f 84/124/207 91/131/207 85/125/207
f 83/123/208 90/130/208 84/124/208
f 5/10/209 88/128/209 7/13/209
f 81/121/210 88/128/210 82/122/210
f 80/120/211 87/127/211 81/121/211
f 79/119/212 86/126/212 80/120/212
f 78/118/213 85/125/213 79/119/213
f 77/117/214 84/124/214 78/118/214
f 76/116/215 5/10/215 3/7/215
f 76/116/216 81/121/216 82/122/216
f 75/115/217 80/120/217 81/121/217
f 73/113/218 80/120/218 74/114/218
f 72/112/219 79/119/219 73/113/219
f 71/111/220 78/118/220 72/112/220
f 65/100/221 3/7/221 1/1/221
f 65/100/222 75/115/222 76/116/222
f 67/104/223 75/115/223 66/102/223
f 68/106/224 74/114/224 67/104/224
f 69/108/225 73/113/225 68/106/225
f 70/110/226 72/112/226 69/108/226
f 271/311/227 336/409/227 272/312/227
f 12/20/228 295/342/228 14/23/228
f 30/47/229 304/360/229 32/50/229
f 48/74/230 313/378/230 50/77/230
f 4/8/231 291/334/231 6/11/231
f 22/35/232 300/352/232 24/38/232
f 40/62/233 309/370/233 42/65/233
f 58/89/234 318/388/234 60/92/234
f 14/23/235 296/344/235 16/26/235
f 32/50/236 305/362/236 34/53/236
f 50/77/237 314/380/237 52/80/237
f 6/11/238 292/336/238 8/14/238
f 24/38/239 301/354/239 26/41/239
f 42/65/240 310/372/240 44/68/240
f 60/92/241 319/390/241 62/95/241
f 16/26/242 297/346/242 18/29/242
f 34/53/243 306/364/243 36/56/243
f 52/80/244 315/382/244 54/83/244
f 8/14/245 293/338/245 10/17/245
f 26/41/246 302/356/246 28/44/246
f 44/68/247 311/374/247 46/71/247
f 62/95/248 320/392/248 64/98/248
f 18/29/249 298/348/249 20/32/249
f 36/56/250 307/366/250 38/59/250
f 54/83/251 316/384/251 56/86/251
f 10/17/252 294/340/252 12/20/252
f 28/44/253 303/358/253 30/47/253
f 48/74/254 311/374/254 312/376/254
f 2/5/255 289/329/255 4/8/255
f 64/98/256 290/332/256 2/4/256
f 20/32/257 299/350/257 22/35/257
f 38/59/258 308/368/258 40/62/258
f 258/298/259 289/330/259 290/333/259
f 259/299/259 289/330/259 257/297/259
f 260/300/259 291/335/259 259/299/259
f 261/301/259 292/337/259 260/300/259
f 261/301/259 294/341/259 293/339/259
f 263/303/259 294/341/259 262/302/259
f 264/304/259 295/343/259 263/303/259
f 264/304/259 297/347/259 296/345/259
f 266/306/259 297/347/259 265/305/259
f 266/306/259 299/351/259 298/349/259
f 268/308/259 299/351/259 267/307/259
f 269/309/259 300/353/259 268/308/259
f 270/310/259 301/355/259 269/309/259
f 270/310/259 303/359/259 302/357/259
f 272/312/259 303/359/259 271/311/259
f 273/313/259 304/361/259 272/312/259
f 273/313/259 306/365/259 305/363/259
f 274/314/259 307/367/259 306/365/259
f 276/316/259 307/367/259 275/315/259
f 277/317/259 308/369/259 276/316/259
f 277/317/259 310/373/259 309/371/259
f 279/319/259 310/373/259 278/318/259
f 279/319/259 312/377/259 311/375/259
f 281/321/259 312/377/259 280/320/259
f 281/321/259 314/381/259 313/379/259
f 282/322/259 315/383/259 314/381/259
f 284/324/259 315/383/259 283/323/259
f 285/325/259 316/385/259 284/324/259
f 286/326/259 317/387/259 285/325/259
f 287/327/259 318/389/259 286/326/259
f 288/328/259 319/391/259 287/327/259
f 258/298/259 320/393/259 288/328/259
f 339/412/259 331/404/259 323/396/259
f 257/297/260 323/396/260 259/299/260
f 285/325/261 350/423/261 286/326/261
f 272/312/262 337/410/262 273/313/262
f 259/299/263 324/397/263 260/300/263
f 286/326/264 351/424/264 287/327/264
f 273/313/265 338/411/265 274/314/265
f 260/300/266 325/398/266 261/301/266
f 287/327/267 352/425/267 288/328/267
f 274/314/268 339/412/268 275/315/268
f 261/301/269 326/399/269 262/302/269
f 288/328/270 322/395/270 258/298/270
f 275/315/271 340/413/271 276/316/271
f 262/302/272 327/400/272 263/303/272
f 276/316/273 341/414/273 277/317/273
f 263/303/274 328/401/274 264/304/274
f 277/317/275 342/415/275 278/318/275
f 264/304/276 329/402/276 265/305/276
f 278/318/277 343/416/277 279/319/277
f 265/305/278 330/403/278 266/306/278
f 279/319/279 344/417/279 280/320/279
f 266/306/280 331/404/280 267/307/280
f 280/320/281 345/418/281 281/321/281
f 267/307/282 332/405/282 268/308/282
f 281/321/283 346/419/283 282/322/283
f 268/308/284 333/406/284 269/309/284
f 282/322/285 347/420/285 283/323/285
f 269/309/286 334/407/286 270/310/286
f 283/323/287 348/421/287 284/324/287
f 270/310/288 335/408/288 271/311/288
f 258/298/289 321/394/289 257/297/289
f 284/324/290 349/422/290 285/325/290
f 2/5/1 4/8/1 71/111/1
f 4/8/2 6/11/2 77/117/2
f 6/11/3 8/14/3 83/123/3
f 83/123/4 8/14/4 10/17/4
f 10/17/5 12/20/5 95/135/5
f 95/135/6 12/20/6 14/23/6
f 14/23/7 16/26/7 107/147/7
f 16/26/8 18/29/8 113/153/8
f 18/29/9 20/32/9 119/159/9
f 119/159/10 20/32/10 22/35/10
f 125/165/11 22/35/11 24/38/11
f 24/38/12 26/41/12 137/177/12
f 26/41/13 28/44/13 143/183/13
f 28/44/14 30/47/14 149/189/14
f 30/47/15 32/50/15 155/195/15
f 155/195/16 32/50/16 34/53/16
f 34/53/17 36/56/17 167/207/17
f 36/56/18 38/59/18 173/213/18
f 38/59/19 40/62/19 179/219/19
f 179/219/20 40/62/20 42/65/20
f 42/65/21 44/68/21 191/231/21
f 191/231/22 44/68/22 46/71/22
f 197/237/23 46/71/23 48/74/23
f 203/243/24 48/74/24 50/77/24
f 50/77/25 52/80/25 215/255/25
f 52/80/26 54/83/26 221/261/26
f 221/261/27 54/83/27 56/86/27
f 56/86/28 58/89/28 233/273/28
f 58/89/29 60/92/29 239/279/29
f 239/279/30 60/92/30 62/95/30
f 56/86/31 316/384/31 317/386/31
f 62/95/32 64/98/32 251/291/32
f 64/98/33 2/4/33 70/109/33
f 63/96/34 1/2/34 3/6/34
f 3/6/34 5/9/34 7/12/34
f 7/12/34 9/16/34 11/18/34
f 11/18/34 13/21/34 15/24/34
f 15/24/34 17/27/34 19/30/34
f 19/30/34 21/33/34 23/36/34
f 23/36/34 25/40/34 27/42/34
f 27/42/34 29/45/34 31/48/34
f 31/48/34 33/51/34 35/54/34
f 35/54/34 37/57/34 39/60/34
f 39/60/34 41/64/34 43/66/34
f 43/66/34 45/69/34 47/72/34
f 47/72/34 49/75/34 51/78/34
f 51/78/34 53/81/34 55/84/34
f 55/84/34 57/88/34 59/90/34
f 59/90/34 61/93/34 63/96/34
f 63/96/34 3/6/34 7/12/34
f 7/12/34 11/18/34 15/24/34
f 15/24/34 19/30/34 23/36/34
f 23/36/34 27/42/34 31/48/34
f 31/48/34 35/54/34 39/60/34
f 39/60/34 43/66/34 47/72/34
f 47/72/34 51/78/34 55/84/34
f 55/84/34 59/90/34 63/96/34
f 63/96/34 7/12/34 15/24/34
f 15/24/34 23/36/34 31/48/34
f 31/48/34 39/60/34 47/72/34
f 47/72/34 55/84/34 63/96/34
f 63/96/34 15/24/34 31/48/34
f 256/296/35 65/99/35 1/3/35
f 255/295/36 66/101/36 65/99/36
f 254/294/37 67/103/37 66/101/37
f 253/293/38 68/105/38 67/103/38
f 253/293/39 252/292/39 69/107/39
f 251/291/40 70/109/40 69/107/40
f 250/290/41 256/296/41 63/97/41
f 249/289/42 255/295/42 256/296/42
f 248/288/43 254/294/43 255/295/43
f 247/287/44 253/293/44 254/294/44
f 246/286/45 252/292/45 253/293/45
f 246/286/46 245/285/46 251/291/46
f 244/284/47 250/290/47 61/94/47
f 243/283/48 249/289/48 250/290/48
f 242/282/49 248/288/49 249/289/49
f 241/281/50 247/287/50 248/288/50
f 240/280/51 246/286/51 247/287/51
f 239/279/52 245/285/52 246/286/52
f 238/278/53 244/284/53 59/91/53
f 238/278/54 237/277/54 243/283/54
f 237/277/55 236/276/55 242/282/55
f 236/276/56 235/275/56 241/281/56
f 234/274/57 240/280/57 241/281/57
f 233/273/58 239/279/58 240/280/58
f 55/85/59 232/272/59 238/278/59
f 231/271/60 237/277/60 238/278/60
f 230/270/61 236/276/61 237/277/61
f 229/269/62 235/275/62 236/276/62
f 228/268/63 234/274/63 235/275/63
f 227/267/64 233/273/64 234/274/64
f 53/82/65 226/266/65 232/272/65
f 225/265/66 231/271/66 232/272/66
f 225/265/67 224/264/67 230/270/67
f 223/263/68 229/269/68 230/270/68
f 222/262/69 228/268/69 229/269/69
f 221/261/70 227/267/70 228/268/70
f 220/260/71 226/266/71 53/82/71
f 219/259/72 225/265/72 226/266/72
f 218/258/73 224/264/73 225/265/73
f 217/257/74 223/263/74 224/264/74
f 216/256/75 222/262/75 223/263/75
f 215/255/76 221/261/76 222/262/76
f 214/254/77 220/260/77 51/79/77
f 214/254/78 213/253/78 219/259/78
f 212/252/79 218/258/79 219/259/79
f 211/251/80 217/257/80 218/258/80
f 210/250/81 216/256/81 217/257/81
f 209/249/82 215/255/82 216/256/82
f 208/248/83 214/254/83 49/76/83
f 207/247/84 213/253/84 214/254/84
f 206/246/85 212/252/85 213/253/85
f 205/245/86 211/251/86 212/252/86
f 204/244/87 210/250/87 211/251/87
f 204/244/88 203/243/88 209/249/88
f 202/242/89 208/248/89 47/73/89
f 201/241/90 207/247/90 208/248/90
f 200/240/91 206/246/91 207/247/91
f 199/239/92 205/245/92 206/246/92
f 198/238/93 204/244/93 205/245/93
f 197/237/94 203/243/94 204/244/94
f 196/236/95 202/242/95 45/70/95
f 196/236/96 195/235/96 201/241/96
f 194/234/97 200/240/97 201/241/97
f 193/233/98 199/239/98 200/240/98
f 192/232/99 198/238/99 199/239/99
f 191/231/100 197/237/100 198/238/100
f 190/230/101 196/236/101 43/67/101
f 189/229/102 195/235/102 196/236/102
f 189/229/103 188/228/103 194/234/103
f 187/227/104 193/233/104 194/234/104
f 186/226/105 192/232/105 193/233/105
f 185/225/106 191/231/106 192/232/106
f 39/61/107 184/224/107 190/230/107
f 183/223/108 189/229/108 190/230/108
f 182/222/109 188/228/109 189/229/109
f 181/221/110 187/227/110 188/228/110
f 180/220/111 186/226/111 187/227/111
f 180/220/112 179/219/112 185/225/112
f 37/58/113 178/218/113 184/224/113
f 177/217/114 183/223/114 184/224/114
f 176/216/115 182/222/115 183/223/115
f 175/215/116 181/221/116 182/222/116
f 174/214/117 180/220/117 181/221/117
f 173/213/118 179/219/118 180/220/118
f 172/212/119 178/218/119 37/58/119
f 172/212/120 171/211/120 177/217/120
f 170/210/121 176/216/121 177/217/121
f 169/209/122 175/215/122 176/216/122
f 168/208/123 174/214/123 175/215/123
f 167/207/124 173/213/124 174/214/124
f 166/206/125 172/212/125 35/55/125
f 166/206/126 165/205/126 171/211/126
f 165/205/127 164/204/127 170/210/127
f 163/203/128 169/209/128 170/210/128
f 162/202/129 168/208/129 169/209/129
f 162/202/130 161/201/130 167/207/130
f 160/200/131 166/206/131 33/52/131
f 159/199/132 165/205/132 166/206/132
f 159/199/133 158/198/133 164/204/133
f 157/197/134 163/203/134 164/204/134
f 157/197/135 156/196/135 162/202/135
f 156/196/136 155/195/136 161/201/136
f 154/194/137 160/200/137 31/49/137
f 154/194/138 153/193/138 159/199/138
f 153/193/139 152/192/139 158/198/139
f 151/191/140 157/197/140 158/198/140
f 151/191/141 150/190/141 156/196/141
f 149/189/142 155/195/142 156/196/142
f 148/188/143 154/194/143 29/46/143
f 148/188/144 147/187/144 153/193/144
f 146/186/145 152/192/145 153/193/145
f 145/185/146 151/191/146 152/192/146
f 144/184/147 150/190/147 151/191/147
f 143/183/148 149/189/148 150/190/148
f 142/182/149 148/188/149 27/43/149
f 142/182/150 141/181/150 147/187/150
f 140/180/151 146/186/151 147/187/151
f 139/179/152 145/185/152 146/186/152
f 138/178/153 144/184/153 145/185/153
f 137/177/154 143/183/154 144/184/154
f 23/37/155 136/176/155 142/182/155
f 135/175/156 141/181/156 142/182/156
f 134/174/157 140/180/157 141/181/157
f 133/173/158 139/179/158 140/180/158
f 132/172/159 138/178/159 139/179/159
f 132/172/160 131/171/160 137/177/160
f 21/34/161 130/170/161 136/176/161
f 129/169/162 135/175/162 136/176/162
f 128/168/163 134/174/163 135/175/163
f 127/167/164 133/173/164 134/174/164
f 126/166/165 132/172/165 133/173/165
f 125/165/166 131/171/166 132/172/166
f 124/164/167 130/170/167 21/34/167
f 123/163/168 129/169/168 130/170/168
f 122/162/169 128/168/169 129/169/169
f 121/161/170 127/167/170 128/168/170
f 120/160/171 126/166/171 127/167/171
f 119/159/172 125/165/172 126/166/172
f 118/158/173 124/164/173 19/31/173
f 118/158/174 117/157/174 123/163/174
f 116/156/175 122/162/175 123/163/175
f 115/155/176 121/161/176 122/162/176
f 114/154/177 120/160/177 121/161/177
f 113/153/178 119/159/178 120/160/178
f 112/152/179 118/158/179 17/28/179
f 111/151/180 117/157/180 118/158/180
f 111/151/181 110/150/181 116/156/181
f 109/149/182 115/155/182 116/156/182
f 108/148/183 114/154/183 115/155/183
f 107/147/184 113/153/184 114/154/184
f 106/146/185 112/152/185 15/25/185
f 106/146/186 105/145/186 111/151/186
f 104/144/187 110/150/187 111/151/187
f 103/143/188 109/149/188 110/150/188
f 103/143/189 102/142/189 108/148/189
f 101/141/190 107/147/190 108/148/190
f 100/140/191 106/146/191 13/22/191
f 99/139/192 105/145/192 106/146/192
f 98/138/193 104/144/193 105/145/193
f 98/138/194 97/137/194 103/143/194
f 96/136/195 102/142/195 103/143/195
f 95/135/196 101/141/196 102/142/196
f 94/134/197 100/140/197 11/19/197
f 94/134/198 93/133/198 99/139/198
f 92/132/199 98/138/199 99/139/199
f 91/131/200 97/137/200 98/138/200
f 90/130/201 96/136/201 97/137/201
f 89/129/202 95/135/202 96/136/202
f 7/13/203 88/128/203 94/134/203
f 87/127/204 93/133/204 94/134/204
f 86/126/205 92/132/205 93/133/205
f 85/125/206 91/131/206 92/132/206
f 84/124/207 90/130/207 91/131/207
f 83/123/208 89/129/208 90/130/208
f 5/10/209 82/122/209 88/128/209
f 81/121/210 87/127/210 88/128/210
f 80/120/211 86/126/211 87/127/211
f 79/119/212 85/125/212 86/126/212
f 78/118/213 84/124/213 85/125/213
f 77/117/214 83/123/214 84/124/214
f 76/116/215 82/122/215 5/10/215
f 76/116/216 75/115/216 81/121/216
f 75/115/217 74/114/217 80/120/217
f 73/113/218 79/119/218 80/120/218
f 72/112/219 78/118/219 79/119/219
f 71/111/220 77/117/220 78/118/220
f 65/100/221 76/116/221 3/7/221
f 65/100/222 66/102/222 75/115/222
f 67/104/223 74/114/223 75/115/223
f 68/106/224 73/113/224 74/114/224
f 69/108/225 72/112/225 73/113/225
f 70/110/226 71/111/226 72/112/226
f 271/311/227 335/408/227 336/409/227
f 12/20/228 294/340/228 295/342/228
f 30/47/229 303/358/229 304/360/229
f 48/74/230 312/376/230 313/378/230
f 4/8/231 289/329/231 291/334/231
f 22/35/232 299/350/232 300/352/232
f 40/62/233 308/368/233 309/370/233
f 58/89/234 317/386/234 318/388/234
f 14/23/235 295/342/235 296/344/235
f 32/50/236 304/360/236 305/362/236
f 50/77/237 313/378/237 314/380/237
f 6/11/238 291/334/238 292/336/238
f 24/38/239 300/352/239 301/354/239
f 42/65/240 309/370/240 310/372/240
f 60/92/241 318/388/241 319/390/241
f 16/26/242 296/344/242 297/346/242
f 34/53/243 305/362/243 306/364/243
f 52/80/244 314/380/244 315/382/244
f 8/14/245 292/336/245 293/338/245
f 26/41/246 301/354/246 302/356/246
f 44/68/247 310/372/247 311/374/247
f 62/95/248 319/390/248 320/392/248
f 18/29/249 297/346/249 298/348/249
f 36/56/250 306/364/250 307/366/250
f 54/83/251 315/382/251 316/384/251
f 10/17/252 293/338/252 294/340/252
f 28/44/253 302/356/253 303/358/253
f 48/74/254 46/71/254 311/374/254
f 2/5/255 290/331/255 289/329/255
f 64/98/256 320/392/256 290/332/256
f 20/32/257 298/348/257 299/350/257
f 38/59/258 307/366/258 308/368/258
f 258/298/259 257/297/259 289/330/259
f 259/299/259 291/335/259 289/330/259
f 260/300/259 292/337/259 291/335/259
f 261/301/259 293/339/259 292/337/259
f 261/301/259 262/302/259 294/341/259
f 263/303/259 295/343/259 294/341/259
f 264/304/259 296/345/259 295/343/259
f 264/304/259 265/305/259 297/347/259
f 266/306/259 298/349/259 297/347/259
f 266/306/259 267/307/259 299/351/259
f 268/308/259 300/353/259 299/351/259
f 269/309/259 301/355/259 300/353/259
f 270/310/259 302/357/259 301/355/259
f 270/310/259 271/311/259 303/359/259
f 272/312/259 304/361/259 303/359/259
f 273/313/259 305/363/259 304/361/259
f 273/313/259 274/314/259 306/365/259
f 274/314/259 275/315/259 307/367/259
f 276/316/259 308/369/259 307/367/259
f 277/317/259 309/371/259 308/369/259
f 277/317/259 278/318/259 310/373/259
f 279/319/259 311/375/259 310/373/259
f 279/319/259 280/320/259 312/377/259
f 281/321/259 313/379/259 312/377/259
f 281/321/259 282/322/259 314/381/259
f 282/322/259 283/323/259 315/383/259
f 284/324/259 316/385/259 315/383/259
f 285/325/259 317/387/259 316/385/259
f 286/326/259 318/389/259 317/387/259
f 287/327/259 319/391/259 318/389/259
f 288/328/259 320/393/259 319/391/259
f 258/298/259 290/333/259 320/393/259
f 323/396/259 321/394/259 322/395/259
f 322/395/259 352/425/259 351/424/259
f 351/424/259 350/423/259 349/422/259
f 349/422/259 348/421/259 347/420/259
f 347/420/259 346/419/259 345/418/259
f 345/418/259 344/417/259 343/416/259
f 343/416/259 342/415/259 341/414/259
f 341/414/259 340/413/259 339/412/259
f 339/412/259 338/411/259 337/410/259
f 337/410/259 336/409/259 335/408/259
f 335/408/259 334/407/259 333/406/259
f 333/406/259 332/405/259 331/404/259
f 331/404/259 330/403/259 329/402/259
f 329/402/259 328/401/259 327/400/259
f 327/400/259 326/399/259 325/398/259
f 325/398/259 324/397/259 323/396/259
f 323/396/259 322/395/259 351/424/259
f 351/424/259 349/422/259 347/420/259
f 347/420/259 345/418/259 343/416/259
f 343/416/259 341/414/259 339/412/259
f 339/412/259 337/410/259 335/408/259
f 335/408/259 333/406/259 331/404/259
f 331/404/259 329/402/259 327/400/259
f 327/400/259 325/398/259 323/396/259
f 323/396/259 351/424/259 347/420/259
f 347/420/259 343/416/259 339/412/259
f 339/412/259 335/408/259 331/404/259
f 331/404/259 327/400/259 323/396/259
f 323/396/259 347/420/259 339/412/259
f 257/297/260 321/394/260 323/396/260
f 285/325/261 349/422/261 350/423/261
f 272/312/262 336/409/262 337/410/262
f 259/299/263 323/396/263 324/397/263
f 286/326/264 350/423/264 351/424/264
f 273/313/265 337/410/265 338/411/265
f 260/300/266 324/397/266 325/398/266
f 287/327/267 351/424/267 352/425/267
f 274/314/268 338/411/268 339/412/268
f 261/301/269 325/398/269 326/399/269
f 288/328/270 352/425/270 322/395/270
f 275/315/271 339/412/271 340/413/271
f 262/302/272 326/399/272 327/400/272
f 276/316/273 340/413/273 341/414/273
f 263/303/274 327/400/274 328/401/274
f 277/317/275 341/414/275 342/415/275
f 264/304/276 328/401/276 329/402/276
f 278/318/277 342/415/277 343/416/277
f 265/305/278 329/402/278 330/403/278
f 279/319/279 343/416/279 344/417/279
f 266/306/280 330/403/280 331/404/280
f 280/320/281 344/417/281 345/418/281
f 267/307/282 331/404/282 332/405/282
f 281/321/283 345/418/283 346/419/283
f 268/308/284 332/405/284 333/406/284
f 282/322/285 346/419/285 347/420/285
f 269/309/286 333/406/286 334/407/286
f 283/323/287 347/420/287 348/421/287
f 270/310/288 334/407/288 335/408/288
f 258/298/289 322/395/289 321/394/289
f 284/324/290 348/421/290 349/422/290
