# Blender 3.3.1
# www.blender.org
o prosecco
v 0.330264 0.235388 0.121456
v 0.330264 1.760969 0.169551
v 0.354577 0.235388 0.123851
v 0.345194 1.760969 0.171022
v 0.377956 0.235388 0.130942
v 0.359550 1.760969 0.175377
v 0.399501 0.235388 0.142459
v 0.372781 1.760969 0.182449
v 0.418386 0.235388 0.157957
v 0.384378 1.760969 0.191966
v 0.433885 0.235388 0.176842
v 0.393895 1.760969 0.203563
v 0.445401 0.235388 0.198388
v 0.400967 1.760969 0.216793
v 0.452493 0.235388 0.221767
v 0.405322 1.760969 0.231149
v 0.454888 0.235388 0.246079
v 0.406792 1.760969 0.246079
v 0.452493 0.235388 0.270392
v 0.405322 1.760969 0.261009
v 0.445401 0.235388 0.293771
v 0.400967 1.760969 0.275365
v 0.433885 0.235388 0.315316
v 0.393895 1.760969 0.288596
v 0.418386 0.235388 0.334201
v 0.384378 1.760969 0.300193
v 0.399501 0.235388 0.349700
v 0.372781 1.760969 0.309710
v 0.377956 0.235388 0.361216
v 0.359550 1.760969 0.316782
v 0.354577 0.235388 0.368308
v 0.345194 1.760969 0.321137
v 0.330264 0.235388 0.370703
v 0.330264 1.760969 0.322607
v 0.305952 0.235388 0.368308
v 0.315334 1.760969 0.321137
v 0.282573 0.235388 0.361216
v 0.300978 1.760969 0.316782
v 0.261027 0.235388 0.349700
v 0.287748 1.760969 0.309710
v 0.242142 0.235388 0.334201
v 0.276151 1.760969 0.300193
v 0.226644 0.235388 0.315316
v 0.266634 1.760969 0.288596
v 0.215128 0.235388 0.293771
v 0.259562 1.760969 0.275365
v 0.208036 0.235388 0.270392
v 0.255207 1.760969 0.261009
v 0.205641 0.235388 0.246079
v 0.253736 1.760969 0.246079
v 0.208036 0.235388 0.221767
v 0.255207 1.760969 0.231149
v 0.215128 0.235388 0.198388
v 0.259562 1.760969 0.216793
v 0.226644 0.235388 0.176842
v 0.266634 1.760969 0.203563
v 0.242142 0.235388 0.157957
v 0.276151 1.760969 0.191966
v 0.261027 0.235388 0.142459
v 0.287748 1.760969 0.182449
v 0.282573 0.235388 0.130942
v 0.300978 1.760969 0.175377
v 0.305952 0.235388 0.123851
v 0.315334 1.760969 0.171022
v 0.330264 0.451512 -0.011678
v 0.330264 0.684931 -0.021391
v 0.330264 0.918349 -0.013016
v 0.330264 1.151767 0.066858
v 0.330264 1.385185 0.142387
v 0.330264 1.618604 0.171224
v 0.344868 1.618604 0.172662
v 0.350494 1.385185 0.144380
v 0.365229 1.151767 0.070301
v 0.380811 0.918349 -0.008038
v 0.382445 0.684931 -0.016252
v 0.380550 0.451512 -0.006725
v 0.358910 1.618604 0.176922
v 0.369946 1.385185 0.150280
v 0.398849 1.151767 0.080500
v 0.429416 0.918349 0.006706
v 0.432621 0.684931 -0.001031
v 0.428904 0.451512 0.007943
v 0.371852 1.618604 0.183839
v 0.387873 1.385185 0.159863
v 0.429835 1.151767 0.097062
v 0.474210 0.918349 0.030649
v 0.478863 0.684931 0.023686
v 0.473466 0.451512 0.031762
v 0.383195 1.618604 0.193149
v 0.403586 1.385185 0.172758
v 0.456993 1.151767 0.119350
v 0.513472 0.918349 0.062871
v 0.519395 0.684931 0.056949
v 0.512526 0.451512 0.063818
v 0.392504 1.618604 0.204492
v 0.416481 1.385185 0.188471
v 0.479282 1.151767 0.146509
v 0.545694 0.918349 0.102134
v 0.552658 0.684931 0.097481
v 0.544581 0.451512 0.102877
v 0.399422 1.618604 0.217433
v 0.426063 1.385185 0.206398
v 0.495844 1.151767 0.177494
v 0.569637 0.918349 0.146928
v 0.577375 0.684931 0.143723
v 0.568401 0.451512 0.147440
v 0.403681 1.618604 0.231476
v 0.431964 1.385185 0.225850
v 0.506042 1.151767 0.211115
v 0.584381 0.918349 0.195532
v 0.592596 0.684931 0.193898
v 0.583069 0.451512 0.195793
v 0.405120 1.618604 0.246079
v 0.433956 1.385185 0.246079
v 0.509486 1.151767 0.246079
v 0.589360 0.918349 0.246079
v 0.597735 0.684931 0.246079
v 0.588021 0.451512 0.246079
v 0.403681 1.618604 0.260683
v 0.431964 1.385185 0.266309
v 0.506042 1.151767 0.281044
v 0.584381 0.918349 0.296626
v 0.592596 0.684931 0.298260
v 0.583069 0.451512 0.296365
v 0.399422 1.618604 0.274725
v 0.426063 1.385185 0.285761
v 0.495844 1.151767 0.314664
v 0.569637 0.918349 0.345231
v 0.577375 0.684931 0.348436
v 0.568401 0.451512 0.344719
v 0.392504 1.618604 0.287667
v 0.416481 1.385185 0.303687
v 0.479282 1.151767 0.345650
v 0.545694 0.918349 0.390025
v 0.552658 0.684931 0.394678
v 0.544581 0.451512 0.389281
v 0.383195 1.618604 0.299010
v 0.403586 1.385185 0.319401
v 0.456993 1.151767 0.372808
v 0.513472 0.918349 0.429287
v 0.519395 0.684931 0.435210
v 0.512526 0.451512 0.428341
v 0.371852 1.618604 0.308319
v 0.387873 1.385185 0.332296
v 0.429835 1.151767 0.395097
v 0.474210 0.918349 0.461509
v 0.478863 0.684931 0.468473
v 0.473466 0.451512 0.460396
v 0.358910 1.618604 0.315237
v 0.369946 1.385185 0.341878
v 0.398849 1.151767 0.411658
v 0.429416 0.918349 0.485452
v 0.432621 0.684931 0.493190
v 0.428904 0.451512 0.484216
v 0.344868 1.618604 0.319496
v 0.350494 1.385185 0.347779
v 0.365229 1.151767 0.421857
v 0.380811 0.918349 0.500196
v 0.382445 0.684931 0.508411
v 0.380550 0.451512 0.498884
v 0.330264 1.618604 0.320935
v 0.330264 1.385185 0.349771
v 0.330264 1.151767 0.425301
v 0.330264 0.918349 0.505175
v 0.330264 0.684931 0.513550
v 0.330264 0.451512 0.503836
v 0.315661 1.618604 0.319496
v 0.310035 1.385185 0.347779
v 0.295300 1.151767 0.421857
v 0.279717 0.918349 0.500196
v 0.278083 0.684931 0.508411
v 0.279978 0.451512 0.498884
v 0.301618 1.618604 0.315237
v 0.290583 1.385185 0.341878
v 0.261679 1.151767 0.411658
v 0.231113 0.918349 0.485452
v 0.227908 0.684931 0.493190
v 0.231625 0.451512 0.484216
v 0.288677 1.618604 0.308319
v 0.272656 1.385185 0.332296
v 0.230694 1.151767 0.395097
v 0.186319 0.918349 0.461509
v 0.181666 0.684931 0.468473
v 0.187062 0.451512 0.460396
v 0.277334 1.618604 0.299010
v 0.256943 1.385185 0.319401
v 0.203536 1.151767 0.372808
v 0.147056 0.918349 0.429287
v 0.141134 0.684931 0.435210
v 0.148003 0.451512 0.428341
v 0.268024 1.618604 0.287667
v 0.244048 1.385185 0.303687
v 0.181247 1.151767 0.345650
v 0.114834 0.918349 0.390025
v 0.107871 0.684931 0.394678
v 0.115947 0.451512 0.389281
v 0.261107 1.618604 0.274725
v 0.234465 1.385185 0.285761
v 0.164685 1.151767 0.314664
v 0.090891 0.918349 0.345231
v 0.083154 0.684931 0.348436
v 0.092128 0.451512 0.344719
v 0.256847 1.618604 0.260683
v 0.228565 1.385185 0.266309
v 0.154486 1.151767 0.281044
v 0.076147 0.918349 0.296626
v 0.067933 0.684931 0.298260
v 0.077460 0.451512 0.296365
v 0.255409 1.618604 0.246079
v 0.226572 1.385185 0.246079
v 0.151043 1.151767 0.246079
v 0.071169 0.918349 0.246079
v 0.062794 0.684931 0.246079
v 0.072507 0.451512 0.246079
v 0.256847 1.618604 0.231476
v 0.228565 1.385185 0.225850
v 0.154486 1.151767 0.211115
v 0.076147 0.918349 0.195532
v 0.067933 0.684931 0.193898
v 0.077460 0.451512 0.195793
v 0.261107 1.618604 0.217433
v 0.234465 1.385185 0.206398
v 0.164685 1.151767 0.177494
v 0.090891 0.918349 0.146928
v 0.083154 0.684931 0.143723
v 0.092128 0.451512 0.147440
v 0.268024 1.618604 0.204492
v 0.244048 1.385185 0.188471
v 0.181247 1.151767 0.146509
v 0.114834 0.918349 0.102134
v 0.107871 0.684931 0.097481
v 0.115947 0.451512 0.102877
v 0.277334 1.618604 0.193149
v 0.256943 1.385185 0.172758
v 0.203536 1.151767 0.119350
v 0.147056 0.918349 0.062871
v 0.141134 0.684931 0.056949
v 0.148003 0.451512 0.063818
v 0.288677 1.618604 0.183839
v 0.272656 1.385185 0.159863
v 0.230694 1.151767 0.097062
v 0.186319 0.918349 0.030649
v 0.181666 0.684931 0.023686
v 0.187062 0.451512 0.031762
v 0.301618 1.618604 0.176922
v 0.290583 1.385185 0.150280
v 0.261679 1.151767 0.080500
v 0.231113 0.918349 0.006706
v 0.227908 0.684931 -0.001031
v 0.231625 0.451512 0.007943
v 0.315661 1.618604 0.172662
v 0.310035 1.385185 0.144380
v 0.295300 1.151767 0.070301
v 0.279717 0.918349 -0.008038
v 0.278083 0.684931 -0.016252
v 0.279978 0.451512 -0.006725
v 0.330264 0.218094 0.015511
v 0.375246 0.218094 0.019942
v 0.418499 0.218094 0.033062
v 0.458361 0.218094 0.054369
v 0.493300 0.218094 0.083043
v 0.521975 0.218094 0.117983
v 0.543281 0.218094 0.157845
v 0.556402 0.218094 0.201098
v 0.560832 0.218094 0.246079
v 0.556402 0.218094 0.291061
v 0.543281 0.218094 0.334314
v 0.521975 0.218094 0.374176
v 0.493300 0.218094 0.409115
v 0.458361 0.218094 0.437790
v 0.418499 0.218094 0.459096
v 0.375246 0.218094 0.472217
v 0.330264 0.218094 0.476647
v 0.285283 0.218094 0.472217
v 0.242030 0.218094 0.459096
v 0.202168 0.218094 0.437790
v 0.167228 0.218094 0.409115
v 0.138554 0.218094 0.374176
v 0.117247 0.218094 0.334314
v 0.104127 0.218094 0.291061
v 0.099696 0.218094 0.246079
v 0.104127 0.218094 0.201098
v 0.117247 0.218094 0.157845
v 0.138554 0.218094 0.117983
v 0.167228 0.218094 0.083043
v 0.202168 0.218094 0.054369
v 0.242030 0.218094 0.033062
v 0.285283 0.218094 0.019942
v 0.330264 0.218094 0.077069
v 0.363237 0.218094 0.080317
v 0.394942 0.218094 0.089935
v 0.424161 0.218094 0.105553
v 0.449772 0.218094 0.126571
v 0.470791 0.218094 0.152182
v 0.486409 0.218094 0.181402
v 0.496027 0.218094 0.213107
v 0.499274 0.218094 0.246079
v 0.496027 0.218094 0.279052
v 0.486409 0.218094 0.310757
v 0.470791 0.218094 0.339976
v 0.449772 0.218094 0.365587
v 0.424161 0.218094 0.386606
v 0.394942 0.218094 0.402224
v 0.363237 0.218094 0.411842
v 0.330264 0.218094 0.415089
v 0.297292 0.218094 0.411842
v 0.265587 0.218094 0.402224
v 0.236367 0.218094 0.386606
v 0.210756 0.218094 0.365587
v 0.189738 0.218094 0.339976
v 0.174120 0.218094 0.310757
v 0.164502 0.218094 0.279052
v 0.161254 0.218094 0.246079
v 0.164502 0.218094 0.213107
v 0.174120 0.218094 0.181402
v 0.189738 0.218094 0.152182
v 0.210756 0.218094 0.126571
v 0.236367 0.218094 0.105553
v 0.265587 0.218094 0.089935
v 0.297292 0.218094 0.080317
vn 0.0980 -0.0117 -0.9951
vn 0.2903 -0.0117 -0.9569
vn 0.4714 -0.0117 -0.8819
vn 0.6343 -0.0117 -0.7730
vn 0.7730 -0.0117 -0.6343
vn 0.8819 -0.0117 -0.4714
vn 0.9569 -0.0117 -0.2903
vn 0.9951 -0.0117 -0.0980
vn 0.9951 -0.0117 0.0980
vn 0.9569 -0.0117 0.2903
vn 0.8819 -0.0117 0.4714
vn 0.7730 -0.0117 0.6343
vn 0.6343 -0.0117 0.7730
vn 0.4714 -0.0117 0.8819
vn 0.2903 -0.0117 0.9569
vn 0.0980 -0.0117 0.9951
vn -0.0980 -0.0117 0.9951
vn -0.2903 -0.0117 0.9569
vn -0.4714 -0.0117 0.8819
vn -0.6344 -0.0117 0.7730
vn -0.7730 -0.0117 0.6343
vn -0.8819 -0.0117 0.4714
vn -0.9569 -0.0117 0.2903
vn -0.9951 -0.0117 0.0980
vn -0.9951 -0.0117 -0.0980
vn -0.9569 -0.0117 -0.2903
vn -0.8819 -0.0117 -0.4714
vn -0.7730 -0.0117 -0.6344
vn -0.6344 -0.0117 -0.7730
vn -0.4714 -0.0117 -0.8819
vn -0.0000 1.0000 -0.0000
vn -0.2903 -0.0117 -0.9569
vn -0.0980 -0.0117 -0.9951
vn -0.0000 -1.0000 -0.0000
vn -0.0974 -0.1151 -0.9886
vn -0.0979 -0.0414 -0.9943
vn -0.0980 0.0357 -0.9946
vn -0.0928 0.3224 -0.9421
vn -0.0933 0.3065 -0.9473
vn -0.0973 0.1220 -0.9877
vn -0.2884 -0.1152 -0.9506
vn -0.2900 -0.0414 -0.9561
vn -0.2901 0.0357 -0.9563
vn -0.2748 0.3224 -0.9059
vn -0.2763 0.3065 -0.9109
vn -0.2881 0.1220 -0.9498
vn -0.4683 -0.1152 -0.8761
vn -0.4710 -0.0414 -0.8812
vn -0.4711 0.0357 -0.8814
vn -0.4462 0.3224 -0.8348
vn -0.4487 0.3065 -0.8395
vn -0.4679 0.1220 -0.8753
vn -0.6302 -0.1152 -0.7679
vn -0.6338 -0.0414 -0.7723
vn -0.6340 0.0357 -0.7725
vn -0.6005 0.3224 -0.7317
vn -0.6039 0.3065 -0.7358
vn -0.6297 0.1220 -0.7672
vn -0.7679 -0.1152 -0.6302
vn -0.7723 -0.0414 -0.6338
vn -0.7725 0.0357 -0.6340
vn -0.7317 0.3224 -0.6005
vn -0.7358 0.3065 -0.6039
vn -0.7672 0.1220 -0.6297
vn -0.8761 -0.1152 -0.4683
vn -0.8812 -0.0414 -0.4710
vn -0.8814 0.0357 -0.4711
vn -0.8348 0.3224 -0.4462
vn -0.8395 0.3065 -0.4487
vn -0.8753 0.1220 -0.4679
vn -0.9506 -0.1152 -0.2884
vn -0.9561 -0.0414 -0.2900
vn -0.9563 0.0357 -0.2901
vn -0.9059 0.3224 -0.2748
vn -0.9109 0.3065 -0.2763
vn -0.9498 0.1220 -0.2881
vn -0.9886 -0.1152 -0.0974
vn -0.9943 -0.0414 -0.0979
vn -0.9946 0.0357 -0.0980
vn -0.9421 0.3224 -0.0928
vn -0.9473 0.3065 -0.0933
vn -0.9877 0.1220 -0.0973
vn -0.9886 -0.1152 0.0974
vn -0.9943 -0.0414 0.0979
vn -0.9946 0.0357 0.0980
vn -0.9421 0.3224 0.0928
vn -0.9473 0.3065 0.0933
vn -0.9877 0.1220 0.0973
vn -0.9506 -0.1152 0.2884
vn -0.9561 -0.0414 0.2900
vn -0.9563 0.0357 0.2901
vn -0.9059 0.3224 0.2748
vn -0.9109 0.3065 0.2763
vn -0.9498 0.1220 0.2881
vn -0.8761 -0.1152 0.4683
vn -0.8812 -0.0414 0.4710
vn -0.8814 0.0357 0.4711
vn -0.8348 0.3224 0.4462
vn -0.8395 0.3065 0.4487
vn -0.8753 0.1220 0.4679
vn -0.7679 -0.1152 0.6302
vn -0.7723 -0.0414 0.6339
vn -0.7725 0.0357 0.6340
vn -0.7317 0.3224 0.6005
vn -0.7358 0.3065 0.6039
vn -0.7672 0.1220 0.6297
vn -0.6302 -0.1152 0.7679
vn -0.6338 -0.0414 0.7723
vn -0.6340 0.0357 0.7725
vn -0.6005 0.3224 0.7317
vn -0.6039 0.3065 0.7358
vn -0.6297 0.1220 0.7672
vn -0.4683 -0.1152 0.8761
vn -0.4710 -0.0414 0.8812
vn -0.4711 0.0357 0.8814
vn -0.4462 0.3224 0.8348
vn -0.4487 0.3065 0.8395
vn -0.4679 0.1220 0.8753
vn -0.2884 -0.1152 0.9506
vn -0.2900 -0.0414 0.9561
vn -0.2901 0.0357 0.9563
vn -0.2748 0.3224 0.9059
vn -0.2763 0.3065 0.9109
vn -0.2881 0.1220 0.9498
vn -0.0974 -0.1152 0.9886
vn -0.0979 -0.0414 0.9943
vn -0.0980 0.0357 0.9946
vn -0.0928 0.3224 0.9421
vn -0.0933 0.3065 0.9473
vn -0.0973 0.1220 0.9877
vn 0.0974 -0.1151 0.9886
vn 0.0979 -0.0414 0.9943
vn 0.0980 0.0357 0.9946
vn 0.0928 0.3224 0.9421
vn 0.0933 0.3065 0.9473
vn 0.0973 0.1220 0.9877
vn 0.2884 -0.1152 0.9506
vn 0.2900 -0.0414 0.9561
vn 0.2901 0.0357 0.9563
vn 0.2748 0.3224 0.9059
vn 0.2763 0.3065 0.9109
vn 0.2881 0.1220 0.9498
vn 0.4683 -0.1152 0.8761
vn 0.4710 -0.0414 0.8812
vn 0.4711 0.0357 0.8814
vn 0.4462 0.3224 0.8348
vn 0.4487 0.3065 0.8395
vn 0.4679 0.1220 0.8753
vn 0.6302 -0.1152 0.7679
vn 0.6338 -0.0414 0.7723
vn 0.6340 0.0357 0.7725
vn 0.6005 0.3224 0.7317
vn 0.6039 0.3065 0.7358
vn 0.6297 0.1220 0.7672
vn 0.7679 -0.1152 0.6302
vn 0.7723 -0.0414 0.6338
vn 0.7725 0.0357 0.6340
vn 0.7317 0.3224 0.6005
vn 0.7358 0.3065 0.6039
vn 0.7672 0.1220 0.6297
vn 0.8761 -0.1152 0.4683
vn 0.8812 -0.0414 0.4710
vn 0.8814 0.0357 0.4711
vn 0.8348 0.3224 0.4462
vn 0.8395 0.3065 0.4487
vn 0.8753 0.1220 0.4679
vn 0.9506 -0.1152 0.2884
vn 0.9561 -0.0414 0.2900
vn 0.9563 0.0357 0.2901
vn 0.9059 0.3224 0.2748
vn 0.9109 0.3065 0.2763
vn 0.9498 0.1220 0.2881
vn 0.9886 -0.1152 0.0974
vn 0.9943 -0.0414 0.0979
vn 0.9946 0.0357 0.0980
vn 0.9421 0.3224 0.0928
vn 0.9473 0.3065 0.0933
vn 0.9877 0.1220 0.0973
vn 0.9886 -0.1152 -0.0974
vn 0.9943 -0.0414 -0.0979
vn 0.9946 0.0357 -0.0980
vn 0.9421 0.3224 -0.0928
vn 0.9473 0.3065 -0.0933
vn 0.9877 0.1220 -0.0973
vn 0.9506 -0.1152 -0.2884
vn 0.9561 -0.0414 -0.2900
vn 0.9563 0.0357 -0.2901
vn 0.9059 0.3224 -0.2748
vn 0.9109 0.3065 -0.2763
vn 0.9498 0.1220 -0.2881
vn 0.8761 -0.1151 -0.4683
vn 0.8812 -0.0414 -0.4710
vn 0.8814 0.0357 -0.4711
vn 0.8348 0.3224 -0.4462
vn 0.8395 0.3065 -0.4487
vn 0.8753 0.1220 -0.4679
vn 0.7679 -0.1152 -0.6302
vn 0.7723 -0.0414 -0.6338
vn 0.7725 0.0357 -0.6340
vn 0.7317 0.3224 -0.6005
vn 0.7358 0.3065 -0.6039
vn 0.7672 0.1220 -0.6297
vn 0.6302 -0.1152 -0.7679
vn 0.6338 -0.0414 -0.7723
vn 0.6340 0.0357 -0.7725
vn 0.6005 0.3224 -0.7317
vn 0.6039 0.3065 -0.7358
vn 0.6297 0.1220 -0.7672
vn 0.4683 -0.1152 -0.8761
vn 0.4710 -0.0414 -0.8812
vn 0.4711 0.0357 -0.8814
vn 0.4462 0.3224 -0.8348
vn 0.4487 0.3065 -0.8395
vn 0.4679 0.1220 -0.8753
vn 0.2884 -0.1152 -0.9506
vn 0.2900 -0.0414 -0.9561
vn 0.2901 0.0357 -0.9563
vn 0.2748 0.3224 -0.9059
vn 0.2763 0.3065 -0.9109
vn 0.2881 0.1220 -0.9498
vn 0.0974 -0.1151 -0.9886
vn 0.0979 -0.0414 -0.9943
vn 0.0980 0.0357 -0.9946
vn 0.0928 0.3224 -0.9421
vn 0.0933 0.3065 -0.9473
vn 0.0973 0.1220 -0.9877
vn -0.0357 -0.9312 0.3628
vn -0.1058 -0.9312 0.3489
vn -0.1719 -0.9312 0.3215
vn -0.2313 -0.9312 0.2818
vn -0.2818 -0.9312 0.2313
vn -0.3215 -0.9312 0.1719
vn -0.3489 -0.9312 0.1058
vn -0.3628 -0.9312 0.0357
vn -0.3628 -0.9312 -0.0357
vn -0.3489 -0.9312 -0.1058
vn -0.3215 -0.9312 -0.1719
vn -0.2818 -0.9312 -0.2313
vn -0.2313 -0.9312 -0.2818
vn -0.1719 -0.9312 -0.3215
vn -0.1058 -0.9312 -0.3489
vn -0.0357 -0.9312 -0.3628
vn 0.0357 -0.9312 -0.3628
vn 0.1058 -0.9312 -0.3489
vn 0.1719 -0.9312 -0.3215
vn 0.2313 -0.9312 -0.2818
vn 0.2818 -0.9312 -0.2313
vn 0.3215 -0.9312 -0.1719
vn 0.3489 -0.9312 -0.1058
vn 0.3628 -0.9312 -0.0357
vn 0.3628 -0.9312 0.0357
vn 0.3489 -0.9312 0.1058
vn 0.3215 -0.9312 0.1719
vn 0.2818 -0.9312 0.2313
vn 0.2313 -0.9312 0.2818
vn 0.1719 -0.9312 0.3215
vn 0.1058 -0.9312 0.3489
vn 0.0357 -0.9312 0.3628
vn -0.6343 -0.0117 0.7730
vn -0.7730 -0.0117 0.6344
vn -0.7730 -0.0117 -0.6343
vn -0.6343 -0.0117 -0.7730
vn -0.0001 1.0000 -0.0000
vn 0.0001 1.0000 -0.0000
vn -0.0974 -0.1152 -0.9886
vn -0.6339 -0.0414 -0.7723
vn -0.7723 -0.0414 0.6338
vn -0.6339 -0.0414 0.7723
vn -0.2884 -0.1151 0.9506
vn -0.0974 -0.1151 0.9886
vn 0.0974 -0.1152 0.9886
vn 0.2884 -0.1151 0.9506
vn 0.4683 -0.1151 0.8761
vn 0.6339 -0.0414 0.7723
vn 0.8761 -0.1151 0.4683
vn 0.9886 -0.1151 0.0974
vn 0.8761 -0.1152 -0.4683
vn 0.6339 -0.0414 -0.7723
vn 0.4683 -0.1151 -0.8761
vn 0.2884 -0.1151 -0.9506
vn 0.0974 -0.1152 -0.9886
vt 0.750000 0.379721
vt 1.000000 1.000000
vt 0.250000 0.490000
vt 0.000000 1.000000
vt 0.775307 0.377229
vt 0.968750 1.000000
vt 0.296822 0.485388
vt 0.799642 0.369847
vt 0.937500 1.000000
vt 0.341844 0.471731
vt 0.822069 0.357859
vt 0.906250 1.000000
vt 0.383337 0.449553
vt 0.841727 0.341727
vt 0.875000 1.000000
vt 0.419706 0.419706
vt 0.857859 0.322069
vt 0.843750 1.000000
vt 0.449553 0.383337
vt 0.869847 0.299642
vt 0.812500 1.000000
vt 0.471731 0.341844
vt 0.877229 0.275307
vt 0.781250 1.000000
vt 0.485388 0.296822
vt 0.879721 0.250000
vt 0.750000 1.000000
vt 0.490000 0.250000
vt 0.877229 0.224693
vt 0.718750 1.000000
vt 0.485388 0.203178
vt 0.869847 0.200358
vt 0.687500 1.000000
vt 0.471731 0.158156
vt 0.857859 0.177931
vt 0.656250 1.000000
vt 0.449553 0.116663
vt 0.841727 0.158273
vt 0.625000 1.000000
vt 0.419706 0.080294
vt 0.822069 0.142141
vt 0.593750 1.000000
vt 0.383337 0.050447
vt 0.799642 0.130153
vt 0.562500 1.000000
vt 0.341844 0.028269
vt 0.775307 0.122771
vt 0.531250 1.000000
vt 0.296822 0.014612
vt 0.750000 0.120279
vt 0.500000 1.000000
vt 0.250000 0.010000
vt 0.724693 0.122771
vt 0.468750 1.000000
vt 0.203178 0.014612
vt 0.700358 0.130153
vt 0.437500 1.000000
vt 0.158156 0.028269
vt 0.677931 0.142141
vt 0.406250 1.000000
vt 0.116663 0.050447
vt 0.658273 0.158273
vt 0.375000 1.000000
vt 0.080294 0.080294
vt 0.642141 0.177931
vt 0.343750 1.000000
vt 0.050447 0.116663
vt 0.630153 0.200358
vt 0.312500 1.000000
vt 0.028269 0.158156
vt 0.622771 0.224693
vt 0.281250 1.000000
vt 0.014612 0.203178
vt 0.620279 0.250000
vt 0.250000 1.000000
vt 0.010000 0.250000
vt 0.622771 0.275307
vt 0.218750 1.000000
vt 0.014612 0.296822
vt 0.630153 0.299642
vt 0.187500 1.000000
vt 0.028269 0.341844
vt 0.642141 0.322069
vt 0.156250 1.000000
vt 0.050447 0.383337
vt 0.658273 0.341727
vt 0.125000 1.000000
vt 0.080294 0.419706
vt 0.677931 0.357859
vt 0.093750 1.000000
vt 0.116663 0.449553
vt 0.700358 0.369847
vt 0.158156 0.471731
vt 0.062500 1.000000
vt 0.724693 0.377229
vt 0.203178 0.485388
vt 0.031250 1.000000
vt 0.000000 0.571429
vt 1.000000 0.571429
vt 0.000000 0.642857
vt 1.000000 0.642857
vt 0.000000 0.714286
vt 1.000000 0.714286
vt 0.000000 0.785714
vt 1.000000 0.785714
vt 0.000000 0.857143
vt 1.000000 0.857143
vt 0.000000 0.928571
vt 1.000000 0.928571
vt 0.968750 0.928571
vt 0.968750 0.857143
vt 0.968750 0.785714
vt 0.968750 0.714286
vt 0.968750 0.642857
vt 0.968750 0.571429
vt 0.937500 0.928571
vt 0.937500 0.857143
vt 0.937500 0.785714
vt 0.937500 0.714286
vt 0.937500 0.642857
vt 0.937500 0.571429
vt 0.906250 0.928571
vt 0.906250 0.857143
vt 0.906250 0.785714
vt 0.906250 0.714286
vt 0.906250 0.642857
vt 0.906250 0.571429
vt 0.875000 0.928571
vt 0.875000 0.857143
vt 0.875000 0.785714
vt 0.875000 0.714286
vt 0.875000 0.642857
vt 0.875000 0.571429
vt 0.843750 0.928571
vt 0.843750 0.857143
vt 0.843750 0.785714
vt 0.843750 0.714286
vt 0.843750 0.642857
vt 0.843750 0.571429
vt 0.812500 0.928571
vt 0.812500 0.857143
vt 0.812500 0.785714
vt 0.812500 0.714286
vt 0.812500 0.642857
vt 0.812500 0.571429
vt 0.781250 0.928571
vt 0.781250 0.857143
vt 0.781250 0.785714
vt 0.781250 0.714286
vt 0.781250 0.642857
vt 0.781250 0.571429
vt 0.750000 0.928571
vt 0.750000 0.857143
vt 0.750000 0.785714
vt 0.750000 0.714286
vt 0.750000 0.642857
vt 0.750000 0.571429
vt 0.718750 0.928571
vt 0.718750 0.857143
vt 0.718750 0.785714
vt 0.718750 0.714286
vt 0.718750 0.642857
vt 0.718750 0.571429
vt 0.687500 0.928571
vt 0.687500 0.857143
vt 0.687500 0.785714
vt 0.687500 0.714286
vt 0.687500 0.642857
vt 0.687500 0.571429
vt 0.656250 0.928571
vt 0.656250 0.857143
vt 0.656250 0.785714
vt 0.656250 0.714286
vt 0.656250 0.642857
vt 0.656250 0.571429
vt 0.625000 0.928571
vt 0.625000 0.857143
vt 0.625000 0.785714
vt 0.625000 0.714286
vt 0.625000 0.642857
vt 0.625000 0.571429
vt 0.593750 0.928571
vt 0.593750 0.857143
vt 0.593750 0.785714
vt 0.593750 0.714286
vt 0.593750 0.642857
vt 0.593750 0.571429
vt 0.562500 0.928571
vt 0.562500 0.857143
vt 0.562500 0.785714
vt 0.562500 0.714286
vt 0.562500 0.642857
vt 0.562500 0.571429
vt 0.531250 0.928571
vt 0.531250 0.857143
vt 0.531250 0.785714
vt 0.531250 0.714286
vt 0.531250 0.642857
vt 0.531250 0.571429
vt 0.500000 0.928571
vt 0.500000 0.857143
vt 0.500000 0.785714
vt 0.500000 0.714286
vt 0.500000 0.642857
vt 0.500000 0.571429
vt 0.468750 0.928571
vt 0.468750 0.857143
vt 0.468750 0.785714
vt 0.468750 0.714286
vt 0.468750 0.642857
vt 0.468750 0.571429
vt 0.437500 0.928571
vt 0.437500 0.857143
vt 0.437500 0.785714
vt 0.437500 0.714286
vt 0.437500 0.642857
vt 0.437500 0.571429
vt 0.406250 0.928571
vt 0.406250 0.857143
vt 0.406250 0.785714
vt 0.406250 0.714286
vt 0.406250 0.642857
vt 0.406250 0.571429
vt 0.375000 0.928571
vt 0.375000 0.857143
vt 0.375000 0.785714
vt 0.375000 0.714286
vt 0.375000 0.642857
vt 0.375000 0.571429
vt 0.343750 0.928571
vt 0.343750 0.857143
vt 0.343750 0.785714
vt 0.343750 0.714286
vt 0.343750 0.642857
vt 0.343750 0.571429
vt 0.312500 0.928571
vt 0.312500 0.857143
vt 0.312500 0.785714
vt 0.312500 0.714286
vt 0.312500 0.642857
vt 0.312500 0.571429
vt 0.281250 0.928571
vt 0.281250 0.857143
vt 0.281250 0.785714
vt 0.281250 0.714286
vt 0.281250 0.642857
vt 0.281250 0.571429
vt 0.250000 0.928571
vt 0.250000 0.857143
vt 0.250000 0.785714
vt 0.250000 0.714286
vt 0.250000 0.642857
vt 0.250000 0.571429
vt 0.218750 0.928571
vt 0.218750 0.857143
vt 0.218750 0.785714
vt 0.218750 0.714286
vt 0.218750 0.642857
vt 0.218750 0.571429
vt 0.187500 0.928571
vt 0.187500 0.857143
vt 0.187500 0.785714
vt 0.187500 0.714286
vt 0.187500 0.642857
vt 0.187500 0.571429
vt 0.156250 0.928571
vt 0.156250 0.857143
vt 0.156250 0.785714
vt 0.156250 0.714286
vt 0.156250 0.642857
vt 0.156250 0.571429
vt 0.125000 0.928571
vt 0.125000 0.857143
vt 0.125000 0.785714
vt 0.125000 0.714286
vt 0.125000 0.642857
vt 0.125000 0.571429
vt 0.093750 0.928571
vt 0.093750 0.857143
vt 0.093750 0.785714
vt 0.093750 0.714286
vt 0.093750 0.642857
vt 0.093750 0.571429
vt 0.062500 0.928571
vt 0.062500 0.857143
vt 0.062500 0.785714
vt 0.062500 0.714286
vt 0.062500 0.642857
vt 0.062500 0.571429
vt 0.031250 0.928572
vt 0.031250 0.857143
vt 0.031250 0.785714
vt 0.031250 0.714286
vt 0.031250 0.642857
vt 0.031250 0.571429
vt 0.000000 0.500000
vt 1.000000 0.500000
vt 0.750000 0.490000
vt 0.968750 0.500000
vt 0.796822 0.485388
vt 0.937500 0.500000
vt 0.841844 0.471731
vt 0.906250 0.500000
vt 0.883337 0.449553
vt 0.875000 0.500000
vt 0.919706 0.419706
vt 0.843750 0.500000
vt 0.949553 0.383337
vt 0.812500 0.500000
vt 0.971731 0.341844
vt 0.781250 0.500000
vt 0.985388 0.296822
vt 0.750000 0.500000
vt 0.990000 0.250000
vt 0.718750 0.500000
vt 0.985388 0.203178
vt 0.687500 0.500000
vt 0.971731 0.158156
vt 0.656250 0.500000
vt 0.949553 0.116663
vt 0.625000 0.500000
vt 0.919706 0.080294
vt 0.593750 0.500000
vt 0.883337 0.050447
vt 0.562500 0.500000
vt 0.841844 0.028269
vt 0.531250 0.500000
vt 0.796822 0.014612
vt 0.500000 0.500000
vt 0.750000 0.010000
vt 0.468750 0.500000
vt 0.703178 0.014612
vt 0.437500 0.500000
vt 0.658156 0.028269
vt 0.406250 0.500000
vt 0.616663 0.050447
vt 0.375000 0.500000
vt 0.580294 0.080294
vt 0.343750 0.500000
vt 0.550447 0.116663
vt 0.312500 0.500000
vt 0.528269 0.158156
vt 0.281250 0.500000
vt 0.514612 0.203178
vt 0.250000 0.500000
vt 0.510000 0.250000
vt 0.218750 0.500000
vt 0.514612 0.296822
vt 0.187500 0.500000
vt 0.528269 0.341844
vt 0.156250 0.500000
vt 0.550447 0.383337
vt 0.125000 0.500000
vt 0.580294 0.419706
vt 0.093750 0.500000
vt 0.616663 0.449553
vt 0.062500 0.500000
vt 0.658156 0.471731
vt 0.031250 0.500000
vt 0.703178 0.485388
vt 0.750000 0.425924
vt 0.784321 0.422543
vt 0.817323 0.412532
vt 0.847738 0.396275
vt 0.874397 0.374397
vt 0.896275 0.347738
vt 0.912532 0.317323
vt 0.922544 0.284321
vt 0.925924 0.250000
vt 0.922544 0.215679
vt 0.912532 0.182677
vt 0.896275 0.152262
vt 0.874397 0.125603
vt 0.847738 0.103725
vt 0.817323 0.087468
vt 0.784321 0.077457
vt 0.750000 0.074076
vt 0.715679 0.077457
vt 0.682677 0.087468
vt 0.652262 0.103725
vt 0.625603 0.125603
vt 0.603725 0.152262
vt 0.587468 0.182677
vt 0.577457 0.215679
vt 0.574076 0.250000
vt 0.577457 0.284321
vt 0.587468 0.317323
vt 0.603725 0.347738
vt 0.625603 0.374397
vt 0.652262 0.396275
vt 0.682677 0.412532
vt 0.715679 0.422543
s 0
f 70/109/1 4/6/1 71/110/1
f 4/6/2 77/116/2 71/110/2
f 6/9/3 83/122/3 77/116/3
f 8/12/4 89/128/4 83/122/4
f 10/15/5 95/134/5 89/128/5
f 12/18/6 101/140/6 95/134/6
f 14/21/7 107/146/7 101/140/7
f 16/24/8 113/152/8 107/146/8
f 18/27/9 119/158/9 113/152/9
f 20/30/10 125/164/10 119/158/10
f 22/33/11 131/170/11 125/164/11
f 24/36/12 137/176/12 131/170/12
f 26/39/13 143/182/13 137/176/13
f 28/42/14 149/188/14 143/182/14
f 30/45/15 155/194/15 149/188/15
f 32/48/16 161/200/16 155/194/16
f 34/51/17 167/206/17 161/200/17
f 36/54/18 173/212/18 167/206/18
f 38/57/19 179/218/19 173/212/19
f 40/60/20 185/224/20 179/218/20
f 42/63/21 191/230/21 185/224/21
f 191/230/22 46/69/22 197/236/22
f 46/69/23 203/242/23 197/236/23
f 48/72/24 209/248/24 203/242/24
f 50/75/25 215/254/25 209/248/25
f 52/78/26 221/260/26 215/254/26
f 221/260/27 56/84/27 227/266/27
f 56/84/28 233/272/28 227/266/28
f 58/87/29 239/278/29 233/272/29
f 60/90/30 245/284/30 239/278/30
f 38/58/31 22/34/31 6/10/31
f 62/94/32 251/290/32 245/284/32
f 64/97/33 70/108/33 251/290/33
f 31/47/34 47/71/34 63/95/34
f 256/295/35 257/296/35 288/359/35
f 255/294/36 65/98/36 256/295/36
f 254/293/37 66/100/37 255/294/37
f 253/292/38 67/102/38 254/293/38
f 252/291/39 68/104/39 253/292/39
f 251/290/40 69/106/40 252/291/40
f 250/289/41 288/359/41 287/357/41
f 249/288/42 256/295/42 250/289/42
f 248/287/43 255/294/43 249/288/43
f 247/286/44 254/293/44 248/287/44
f 246/285/45 253/292/45 247/286/45
f 245/284/46 252/291/46 246/285/46
f 244/283/47 287/357/47 286/355/47
f 244/283/48 249/288/48 250/289/48
f 242/281/49 249/288/49 243/282/49
f 241/280/50 248/287/50 242/281/50
f 241/280/51 246/285/51 247/286/51
f 240/279/52 245/284/52 246/285/52
f 238/277/53 286/355/53 285/353/53
f 237/276/54 244/283/54 238/277/54
f 236/275/55 243/282/55 237/276/55
f 235/274/56 242/281/56 236/275/56
f 234/273/57 241/280/57 235/274/57
f 233/272/58 240/279/58 234/273/58
f 232/271/59 285/353/59 284/351/59
f 231/270/60 238/277/60 232/271/60
f 230/269/61 237/276/61 231/270/61
f 229/268/62 236/275/62 230/269/62
f 228/267/63 235/274/63 229/268/63
f 227/266/64 234/273/64 228/267/64
f 226/265/65 284/351/65 283/349/65
f 225/264/66 232/271/66 226/265/66
f 224/263/67 231/270/67 225/264/67
f 224/263/68 229/268/68 230/269/68
f 222/261/69 229/268/69 223/262/69
f 221/260/70 228/267/70 222/261/70
f 220/259/71 283/349/71 282/347/71
f 219/258/72 226/265/72 220/259/72
f 218/257/73 225/264/73 219/258/73
f 217/256/74 224/263/74 218/257/74
f 216/255/75 223/262/75 217/256/75
f 215/254/76 222/261/76 216/255/76
f 214/253/77 282/347/77 281/345/77
f 213/252/78 220/259/78 214/253/78
f 212/251/79 219/258/79 213/252/79
f 211/250/80 218/257/80 212/251/80
f 210/249/81 217/256/81 211/250/81
f 210/249/82 215/254/82 216/255/82
f 208/247/83 281/345/83 280/343/83
f 207/246/84 214/253/84 208/247/84
f 207/246/85 212/251/85 213/252/85
f 205/244/86 212/251/86 206/245/86
f 204/243/87 211/250/87 205/244/87
f 204/243/88 209/248/88 210/249/88
f 202/241/89 280/343/89 279/341/89
f 201/240/90 208/247/90 202/241/90
f 200/239/91 207/246/91 201/240/91
f 199/238/92 206/245/92 200/239/92
f 199/238/93 204/243/93 205/244/93
f 197/236/94 204/243/94 198/237/94
f 196/235/95 279/341/95 278/339/95
f 195/234/96 202/241/96 196/235/96
f 194/233/97 201/240/97 195/234/97
f 194/233/98 199/238/98 200/239/98
f 192/231/99 199/238/99 193/232/99
f 191/230/100 198/237/100 192/231/100
f 190/229/101 278/339/101 277/337/101
f 189/228/102 196/235/102 190/229/102
f 188/227/103 195/234/103 189/228/103
f 187/226/104 194/233/104 188/227/104
f 186/225/105 193/232/105 187/226/105
f 185/224/106 192/231/106 186/225/106
f 184/223/107 277/337/107 276/335/107
f 183/222/108 190/229/108 184/223/108
f 182/221/109 189/228/109 183/222/109
f 182/221/110 187/226/110 188/227/110
f 181/220/111 186/225/111 187/226/111
f 179/218/112 186/225/112 180/219/112
f 178/217/113 276/335/113 275/333/113
f 177/216/114 184/223/114 178/217/114
f 176/215/115 183/222/115 177/216/115
f 175/214/116 182/221/116 176/215/116
f 174/213/117 181/220/117 175/214/117
f 173/212/118 180/219/118 174/213/118
f 172/211/119 275/333/119 274/331/119
f 171/210/120 178/217/120 172/211/120
f 170/209/121 177/216/121 171/210/121
f 169/208/122 176/215/122 170/209/122
f 168/207/123 175/214/123 169/208/123
f 167/206/124 174/213/124 168/207/124
f 166/205/125 274/331/125 273/329/125
f 165/204/126 172/211/126 166/205/126
f 165/204/127 170/209/127 171/210/127
f 163/202/128 170/209/128 164/203/128
f 162/201/129 169/208/129 163/202/129
f 161/200/130 168/207/130 162/201/130
f 160/199/131 273/329/131 272/327/131
f 159/198/132 166/205/132 160/199/132
f 158/197/133 165/204/133 159/198/133
f 158/197/134 163/202/134 164/203/134
f 156/195/135 163/202/135 157/196/135
f 155/194/136 162/201/136 156/195/136
f 154/193/137 272/327/137 271/325/137
f 153/192/138 160/199/138 154/193/138
f 152/191/139 159/198/139 153/192/139
f 151/190/140 158/197/140 152/191/140
f 151/190/141 156/195/141 157/196/141
f 150/189/142 155/194/142 156/195/142
f 148/187/143 271/325/143 270/323/143
f 147/186/144 154/193/144 148/187/144
f 146/185/145 153/192/145 147/186/145
f 145/184/146 152/191/146 146/185/146
f 145/184/147 150/189/147 151/190/147
f 143/182/148 150/189/148 144/183/148
f 142/181/149 270/323/149 269/321/149
f 141/180/150 148/187/150 142/181/150
f 140/179/151 147/186/151 141/180/151
f 140/179/152 145/184/152 146/185/152
f 138/177/153 145/184/153 139/178/153
f 137/176/154 144/183/154 138/177/154
f 136/175/155 269/321/155 268/319/155
f 135/174/156 142/181/156 136/175/156
f 134/173/157 141/180/157 135/174/157
f 133/172/158 140/179/158 134/173/158
f 132/171/159 139/178/159 133/172/159
f 131/170/160 138/177/160 132/171/160
f 130/169/161 268/319/161 267/317/161
f 129/168/162 136/175/162 130/169/162
f 128/167/163 135/174/163 129/168/163
f 127/166/164 134/173/164 128/167/164
f 126/165/165 133/172/165 127/166/165
f 125/164/166 132/171/166 126/165/166
f 124/163/167 267/317/167 266/315/167
f 123/162/168 130/169/168 124/163/168
f 122/161/169 129/168/169 123/162/169
f 122/161/170 127/166/170 128/167/170
f 120/159/171 127/166/171 121/160/171
f 119/158/172 126/165/172 120/159/172
f 118/157/173 266/315/173 265/313/173
f 117/156/174 124/163/174 118/157/174
f 116/155/175 123/162/175 117/156/175
f 116/155/176 121/160/176 122/161/176
f 114/153/177 121/160/177 115/154/177
f 113/152/178 120/159/178 114/153/178
f 112/151/179 265/313/179 264/311/179
f 111/150/180 118/157/180 112/151/180
f 110/149/181 117/156/181 111/150/181
f 110/149/182 115/154/182 116/155/182
f 108/147/183 115/154/183 109/148/183
f 107/146/184 114/153/184 108/147/184
f 263/309/185 112/151/185 264/311/185
f 105/144/186 112/151/186 106/145/186
f 104/143/187 111/150/187 105/144/187
f 103/142/188 110/149/188 104/143/188
f 102/141/189 109/148/189 103/142/189
f 102/141/190 107/146/190 108/147/190
f 100/139/191 263/309/191 262/307/191
f 99/138/192 106/145/192 100/139/192
f 98/137/193 105/144/193 99/138/193
f 97/136/194 104/143/194 98/137/194
f 96/135/195 103/142/195 97/136/195
f 95/134/196 102/141/196 96/135/196
f 94/133/197 262/307/197 261/305/197
f 93/132/198 100/139/198 94/133/198
f 92/131/199 99/138/199 93/132/199
f 91/130/200 98/137/200 92/131/200
f 90/129/201 97/136/201 91/130/201
f 89/128/202 96/135/202 90/129/202
f 88/127/203 261/305/203 260/303/203
f 87/126/204 94/133/204 88/127/204
f 86/125/205 93/132/205 87/126/205
f 85/124/206 92/131/206 86/125/206
f 84/123/207 91/130/207 85/124/207
f 83/122/208 90/129/208 84/123/208
f 82/121/209 260/303/209 259/301/209
f 81/120/210 88/127/210 82/121/210
f 80/119/211 87/126/211 81/120/211
f 79/118/212 86/125/212 80/119/212
f 78/117/213 85/124/213 79/118/213
f 77/116/214 84/123/214 78/117/214
f 76/115/215 259/301/215 258/299/215
f 75/114/216 82/121/216 76/115/216
f 74/113/217 81/120/217 75/114/217
f 73/112/218 80/119/218 74/113/218
f 72/111/219 79/118/219 73/112/219
f 71/110/220 78/117/220 72/111/220
f 257/297/221 76/115/221 258/299/221
f 65/99/222 75/114/222 76/115/222
f 66/101/223 74/113/223 75/114/223
f 67/103/224 73/112/224 74/113/224
f 68/105/225 72/111/225 73/112/225
f 69/107/226 71/110/226 72/111/226
f 289/361/34 258/300/34 290/362/34
f 290/362/34 259/302/34 291/363/34
f 291/363/34 260/304/34 292/364/34
f 292/364/34 261/306/34 293/365/34
f 294/366/34 261/306/34 262/308/34
f 294/366/34 263/310/34 295/367/34
f 296/368/34 263/310/34 264/312/34
f 296/368/34 265/314/34 297/369/34
f 297/369/34 266/316/34 298/370/34
f 298/370/34 267/318/34 299/371/34
f 299/371/34 268/320/34 300/372/34
f 300/372/34 269/322/34 301/373/34
f 301/373/34 270/324/34 302/374/34
f 302/374/34 271/326/34 303/375/34
f 304/376/34 271/326/34 272/328/34
f 304/376/34 273/330/34 305/377/34
f 305/377/34 274/332/34 306/378/34
f 306/378/34 275/334/34 307/379/34
f 308/380/34 275/334/34 276/336/34
f 308/380/34 277/338/34 309/381/34
f 310/382/34 277/338/34 278/340/34
f 310/382/34 279/342/34 311/383/34
f 312/384/34 279/342/34 280/344/34
f 312/384/34 281/346/34 313/385/34
f 313/385/34 282/348/34 314/386/34
f 314/386/34 283/350/34 315/387/34
f 315/387/34 284/352/34 316/388/34
f 316/388/34 285/354/34 317/389/34
f 317/389/34 286/356/34 318/390/34
f 318/390/34 287/358/34 319/391/34
f 320/392/34 287/358/34 288/360/34
f 320/392/34 257/298/34 289/361/34
f 1/1/227 290/362/227 3/5/227
f 5/8/228 290/362/228 291/363/228
f 7/11/229 291/363/229 292/364/229
f 7/11/230 293/365/230 9/14/230
f 11/17/231 293/365/231 294/366/231
f 11/17/232 295/367/232 13/20/232
f 15/23/233 295/367/233 296/368/233
f 17/26/234 296/368/234 297/369/234
f 17/26/235 298/370/235 19/29/235
f 19/29/236 299/371/236 21/32/236
f 23/35/237 299/371/237 300/372/237
f 23/35/238 301/373/238 25/38/238
f 27/41/239 301/373/239 302/374/239
f 27/41/240 303/375/240 29/44/240
f 31/47/241 303/375/241 304/376/241
f 33/50/242 304/376/242 305/377/242
f 33/50/243 306/378/243 35/53/243
f 35/53/244 307/379/244 37/56/244
f 39/59/245 307/379/245 308/380/245
f 39/59/246 309/381/246 41/62/246
f 43/65/247 309/381/247 310/382/247
f 43/65/248 311/383/248 45/68/248
f 45/68/249 312/384/249 47/71/249
f 49/74/250 312/384/250 313/385/250
f 49/74/251 314/386/251 51/77/251
f 51/77/252 315/387/252 53/80/252
f 55/83/253 315/387/253 316/388/253
f 55/83/254 317/389/254 57/86/254
f 59/89/255 317/389/255 318/390/255
f 61/92/256 318/390/256 319/391/256
f 61/92/257 320/392/257 63/95/257
f 1/1/258 320/392/258 289/361/258
f 70/109/1 2/2/1 4/6/1
f 4/6/2 6/9/2 77/116/2
f 6/9/3 8/12/3 83/122/3
f 8/12/4 10/15/4 89/128/4
f 10/15/5 12/18/5 95/134/5
f 12/18/6 14/21/6 101/140/6
f 14/21/7 16/24/7 107/146/7
f 16/24/8 18/27/8 113/152/8
f 18/27/9 20/30/9 119/158/9
f 20/30/10 22/33/10 125/164/10
f 22/33/11 24/36/11 131/170/11
f 24/36/12 26/39/12 137/176/12
f 26/39/13 28/42/13 143/182/13
f 28/42/14 30/45/14 149/188/14
f 30/45/15 32/48/15 155/194/15
f 32/48/16 34/51/16 161/200/16
f 34/51/17 36/54/17 167/206/17
f 36/54/18 38/57/18 173/212/18
f 38/57/19 40/60/19 179/218/19
f 40/60/259 42/63/259 185/224/259
f 42/63/260 44/66/260 191/230/260
f 191/230/22 44/66/22 46/69/22
f 46/69/23 48/72/23 203/242/23
f 48/72/24 50/75/24 209/248/24
f 50/75/25 52/78/25 215/254/25
f 52/78/26 54/81/26 221/260/26
f 221/260/27 54/81/27 56/84/27
f 56/84/261 58/87/261 233/272/261
f 58/87/262 60/90/262 239/278/262
f 60/90/30 62/94/30 245/284/30
f 6/10/31 4/7/31 2/3/31
f 2/3/31 64/96/31 62/93/31
f 62/93/31 60/91/31 58/88/31
f 58/88/263 56/85/263 54/82/263
f 54/82/31 52/79/31 50/76/31
f 50/76/31 48/73/31 46/70/31
f 46/70/263 44/67/263 42/64/263
f 42/64/31 40/61/31 38/58/31
f 38/58/31 36/55/31 34/52/31
f 34/52/31 32/49/31 30/46/31
f 30/46/31 28/43/31 26/40/31
f 26/40/264 24/37/264 22/34/264
f 22/34/31 20/31/31 18/28/31
f 18/28/31 16/25/31 14/22/31
f 14/22/264 12/19/264 10/16/264
f 10/16/31 8/13/31 6/10/31
f 6/10/31 2/3/31 62/93/31
f 62/93/31 58/88/31 54/82/31
f 54/82/31 50/76/31 46/70/31
f 46/70/31 42/64/31 38/58/31
f 38/58/31 34/52/31 30/46/31
f 30/46/31 26/40/31 22/34/31
f 22/34/31 18/28/31 14/22/31
f 14/22/31 10/16/31 6/10/31
f 6/10/31 62/93/31 54/82/31
f 54/82/31 46/70/31 38/58/31
f 38/58/31 30/46/31 22/34/31
f 22/34/31 14/22/31 6/10/31
f 6/10/31 54/82/31 38/58/31
f 62/94/32 64/97/32 251/290/32
f 64/97/33 2/4/33 70/108/33
f 63/95/34 1/1/34 3/5/34
f 3/5/34 5/8/34 7/11/34
f 7/11/34 9/14/34 11/17/34
f 11/17/34 13/20/34 15/23/34
f 15/23/34 17/26/34 19/29/34
f 19/29/34 21/32/34 23/35/34
f 23/35/34 25/38/34 27/41/34
f 27/41/34 29/44/34 31/47/34
f 31/47/34 33/50/34 35/53/34
f 35/53/34 37/56/34 39/59/34
f 39/59/34 41/62/34 43/65/34
f 43/65/34 45/68/34 47/71/34
f 47/71/34 49/74/34 51/77/34
f 51/77/34 53/80/34 55/83/34
f 55/83/34 57/86/34 59/89/34
f 59/89/34 61/92/34 63/95/34
f 63/95/34 3/5/34 7/11/34
f 7/11/34 11/17/34 15/23/34
f 15/23/34 19/29/34 23/35/34
f 23/35/34 27/41/34 31/47/34
f 31/47/34 35/53/34 39/59/34
f 39/59/34 43/65/34 47/71/34
f 47/71/34 51/77/34 55/83/34
f 55/83/34 59/89/34 63/95/34
f 63/95/34 7/11/34 15/23/34
f 15/23/34 23/35/34 31/47/34
f 31/47/34 39/59/34 47/71/34
f 47/71/34 55/83/34 63/95/34
f 63/95/34 15/23/34 31/47/34
f 256/295/265 65/98/265 257/296/265
f 255/294/36 66/100/36 65/98/36
f 254/293/37 67/102/37 66/100/37
f 253/292/38 68/104/38 67/102/38
f 252/291/39 69/106/39 68/104/39
f 251/290/40 70/108/40 69/106/40
f 250/289/41 256/295/41 288/359/41
f 249/288/42 255/294/42 256/295/42
f 248/287/43 254/293/43 255/294/43
f 247/286/44 253/292/44 254/293/44
f 246/285/45 252/291/45 253/292/45
f 245/284/46 251/290/46 252/291/46
f 244/283/47 250/289/47 287/357/47
f 244/283/48 243/282/48 249/288/48
f 242/281/49 248/287/49 249/288/49
f 241/280/50 247/286/50 248/287/50
f 241/280/51 240/279/51 246/285/51
f 240/279/52 239/278/52 245/284/52
f 238/277/53 244/283/53 286/355/53
f 237/276/266 243/282/266 244/283/266
f 236/275/55 242/281/55 243/282/55
f 235/274/56 241/280/56 242/281/56
f 234/273/57 240/279/57 241/280/57
f 233/272/58 239/278/58 240/279/58
f 232/271/59 238/277/59 285/353/59
f 231/270/60 237/276/60 238/277/60
f 230/269/61 236/275/61 237/276/61
f 229/268/62 235/274/62 236/275/62
f 228/267/63 234/273/63 235/274/63
f 227/266/64 233/272/64 234/273/64
f 226/265/65 232/271/65 284/351/65
f 225/264/66 231/270/66 232/271/66
f 224/263/67 230/269/67 231/270/67
f 224/263/68 223/262/68 229/268/68
f 222/261/69 228/267/69 229/268/69
f 221/260/70 227/266/70 228/267/70
f 220/259/71 226/265/71 283/349/71
f 219/258/72 225/264/72 226/265/72
f 218/257/73 224/263/73 225/264/73
f 217/256/74 223/262/74 224/263/74
f 216/255/75 222/261/75 223/262/75
f 215/254/76 221/260/76 222/261/76
f 214/253/77 220/259/77 282/347/77
f 213/252/78 219/258/78 220/259/78
f 212/251/79 218/257/79 219/258/79
f 211/250/80 217/256/80 218/257/80
f 210/249/81 216/255/81 217/256/81
f 210/249/82 209/248/82 215/254/82
f 208/247/83 214/253/83 281/345/83
f 207/246/84 213/252/84 214/253/84
f 207/246/85 206/245/85 212/251/85
f 205/244/86 211/250/86 212/251/86
f 204/243/87 210/249/87 211/250/87
f 204/243/88 203/242/88 209/248/88
f 202/241/89 208/247/89 280/343/89
f 201/240/90 207/246/90 208/247/90
f 200/239/91 206/245/91 207/246/91
f 199/238/92 205/244/92 206/245/92
f 199/238/93 198/237/93 204/243/93
f 197/236/94 203/242/94 204/243/94
f 196/235/95 202/241/95 279/341/95
f 195/234/96 201/240/96 202/241/96
f 194/233/97 200/239/97 201/240/97
f 194/233/98 193/232/98 199/238/98
f 192/231/99 198/237/99 199/238/99
f 191/230/100 197/236/100 198/237/100
f 190/229/101 196/235/101 278/339/101
f 189/228/267 195/234/267 196/235/267
f 188/227/103 194/233/103 195/234/103
f 187/226/104 193/232/104 194/233/104
f 186/225/105 192/231/105 193/232/105
f 185/224/106 191/230/106 192/231/106
f 184/223/107 190/229/107 277/337/107
f 183/222/268 189/228/268 190/229/268
f 182/221/109 188/227/109 189/228/109
f 182/221/110 181/220/110 187/226/110
f 181/220/111 180/219/111 186/225/111
f 179/218/112 185/224/112 186/225/112
f 178/217/113 184/223/113 276/335/113
f 177/216/114 183/222/114 184/223/114
f 176/215/115 182/221/115 183/222/115
f 175/214/116 181/220/116 182/221/116
f 174/213/117 180/219/117 181/220/117
f 173/212/118 179/218/118 180/219/118
f 172/211/269 178/217/269 275/333/269
f 171/210/120 177/216/120 178/217/120
f 170/209/121 176/215/121 177/216/121
f 169/208/122 175/214/122 176/215/122
f 168/207/123 174/213/123 175/214/123
f 167/206/124 173/212/124 174/213/124
f 166/205/270 172/211/270 274/331/270
f 165/204/126 171/210/126 172/211/126
f 165/204/127 164/203/127 170/209/127
f 163/202/128 169/208/128 170/209/128
f 162/201/129 168/207/129 169/208/129
f 161/200/130 167/206/130 168/207/130
f 160/199/271 166/205/271 273/329/271
f 159/198/132 165/204/132 166/205/132
f 158/197/133 164/203/133 165/204/133
f 158/197/134 157/196/134 163/202/134
f 156/195/135 162/201/135 163/202/135
f 155/194/136 161/200/136 162/201/136
f 154/193/272 160/199/272 272/327/272
f 153/192/138 159/198/138 160/199/138
f 152/191/139 158/197/139 159/198/139
f 151/190/140 157/196/140 158/197/140
f 151/190/141 150/189/141 156/195/141
f 150/189/142 149/188/142 155/194/142
f 148/187/273 154/193/273 271/325/273
f 147/186/144 153/192/144 154/193/144
f 146/185/145 152/191/145 153/192/145
f 145/184/146 151/190/146 152/191/146
f 145/184/147 144/183/147 150/189/147
f 143/182/148 149/188/148 150/189/148
f 142/181/149 148/187/149 270/323/149
f 141/180/274 147/186/274 148/187/274
f 140/179/151 146/185/151 147/186/151
f 140/179/152 139/178/152 145/184/152
f 138/177/153 144/183/153 145/184/153
f 137/176/154 143/182/154 144/183/154
f 136/175/155 142/181/155 269/321/155
f 135/174/156 141/180/156 142/181/156
f 134/173/157 140/179/157 141/180/157
f 133/172/158 139/178/158 140/179/158
f 132/171/159 138/177/159 139/178/159
f 131/170/160 137/176/160 138/177/160
f 130/169/275 136/175/275 268/319/275
f 129/168/162 135/174/162 136/175/162
f 128/167/163 134/173/163 135/174/163
f 127/166/164 133/172/164 134/173/164
f 126/165/165 132/171/165 133/172/165
f 125/164/166 131/170/166 132/171/166
f 124/163/167 130/169/167 267/317/167
f 123/162/168 129/168/168 130/169/168
f 122/161/169 128/167/169 129/168/169
f 122/161/170 121/160/170 127/166/170
f 120/159/171 126/165/171 127/166/171
f 119/158/172 125/164/172 126/165/172
f 118/157/276 124/163/276 266/315/276
f 117/156/174 123/162/174 124/163/174
f 116/155/175 122/161/175 123/162/175
f 116/155/176 115/154/176 121/160/176
f 114/153/177 120/159/177 121/160/177
f 113/152/178 119/158/178 120/159/178
f 112/151/179 118/157/179 265/313/179
f 111/150/180 117/156/180 118/157/180
f 110/149/181 116/155/181 117/156/181
f 110/149/182 109/148/182 115/154/182
f 108/147/183 114/153/183 115/154/183
f 107/146/184 113/152/184 114/153/184
f 263/309/185 106/145/185 112/151/185
f 105/144/186 111/150/186 112/151/186
f 104/143/187 110/149/187 111/150/187
f 103/142/188 109/148/188 110/149/188
f 102/141/189 108/147/189 109/148/189
f 102/141/190 101/140/190 107/146/190
f 100/139/277 106/145/277 263/309/277
f 99/138/192 105/144/192 106/145/192
f 98/137/193 104/143/193 105/144/193
f 97/136/194 103/142/194 104/143/194
f 96/135/195 102/141/195 103/142/195
f 95/134/196 101/140/196 102/141/196
f 94/133/197 100/139/197 262/307/197
f 93/132/198 99/138/198 100/139/198
f 92/131/199 98/137/199 99/138/199
f 91/130/200 97/136/200 98/137/200
f 90/129/201 96/135/201 97/136/201
f 89/128/202 95/134/202 96/135/202
f 88/127/203 94/133/203 261/305/203
f 87/126/278 93/132/278 94/133/278
f 86/125/205 92/131/205 93/132/205
f 85/124/206 91/130/206 92/131/206
f 84/123/207 90/129/207 91/130/207
f 83/122/208 89/128/208 90/129/208
f 82/121/279 88/127/279 260/303/279
f 81/120/210 87/126/210 88/127/210
f 80/119/211 86/125/211 87/126/211
f 79/118/212 85/124/212 86/125/212
f 78/117/213 84/123/213 85/124/213
f 77/116/214 83/122/214 84/123/214
f 76/115/280 82/121/280 259/301/280
f 75/114/216 81/120/216 82/121/216
f 74/113/217 80/119/217 81/120/217
f 73/112/218 79/118/218 80/119/218
f 72/111/219 78/117/219 79/118/219
f 71/110/220 77/116/220 78/117/220
f 257/297/281 65/99/281 76/115/281
f 65/99/222 66/101/222 75/114/222
f 66/101/223 67/103/223 74/113/223
f 67/103/224 68/105/224 73/112/224
f 68/105/225 69/107/225 72/111/225
f 69/107/226 70/109/226 71/110/226
f 289/361/34 257/298/34 258/300/34
f 290/362/34 258/300/34 259/302/34
f 291/363/34 259/302/34 260/304/34
f 292/364/34 260/304/34 261/306/34
f 294/366/34 293/365/34 261/306/34
f 294/366/34 262/308/34 263/310/34
f 296/368/34 295/367/34 263/310/34
f 296/368/34 264/312/34 265/314/34
f 297/369/34 265/314/34 266/316/34
f 298/370/34 266/316/34 267/318/34
f 299/371/34 267/318/34 268/320/34
f 300/372/34 268/320/34 269/322/34
f 301/373/34 269/322/34 270/324/34
f 302/374/34 270/324/34 271/326/34
f 304/376/34 303/375/34 271/326/34
f 304/376/34 272/328/34 273/330/34
f 305/377/34 273/330/34 274/332/34
f 306/378/34 274/332/34 275/334/34
f 308/380/34 307/379/34 275/334/34
f 308/380/34 276/336/34 277/338/34
f 310/382/34 309/381/34 277/338/34
f 310/382/34 278/340/34 279/342/34
f 312/384/34 311/383/34 279/342/34
f 312/384/34 280/344/34 281/346/34
f 313/385/34 281/346/34 282/348/34
f 314/386/34 282/348/34 283/350/34
f 315/387/34 283/350/34 284/352/34
f 316/388/34 284/352/34 285/354/34
f 317/389/34 285/354/34 286/356/34
f 318/390/34 286/356/34 287/358/34
f 320/392/34 319/391/34 287/358/34
f 320/392/34 288/360/34 257/298/34
f 1/1/227 289/361/227 290/362/227
f 5/8/228 3/5/228 290/362/228
f 7/11/229 5/8/229 291/363/229
f 7/11/230 292/364/230 293/365/230
f 11/17/231 9/14/231 293/365/231
f 11/17/232 294/366/232 295/367/232
f 15/23/233 13/20/233 295/367/233
f 17/26/234 15/23/234 296/368/234
f 17/26/235 297/369/235 298/370/235
f 19/29/236 298/370/236 299/371/236
f 23/35/237 21/32/237 299/371/237
f 23/35/238 300/372/238 301/373/238
f 27/41/239 25/38/239 301/373/239
f 27/41/240 302/374/240 303/375/240
f 31/47/241 29/44/241 303/375/241
f 33/50/242 31/47/242 304/376/242
f 33/50/243 305/377/243 306/378/243
f 35/53/244 306/378/244 307/379/244
f 39/59/245 37/56/245 307/379/245
f 39/59/246 308/380/246 309/381/246
f 43/65/247 41/62/247 309/381/247
f 43/65/248 310/382/248 311/383/248
f 45/68/249 311/383/249 312/384/249
f 49/74/250 47/71/250 312/384/250
f 49/74/251 313/385/251 314/386/251
f 51/77/252 314/386/252 315/387/252
f 55/83/253 53/80/253 315/387/253
f 55/83/254 316/388/254 317/389/254
f 59/89/255 57/86/255 317/389/255
f 61/92/256 59/89/256 318/390/256
f 61/92/257 319/391/257 320/392/257
f 1/1/258 63/95/258 320/392/258
