# Blender 3.3.1
# www.blender.org
o Sphere
v -0.000000 1.401830 -2.552646
v -0.000000 1.188340 -3.820305
v -0.000000 0.909401 -4.506357
v -0.000000 0.708951 -4.594642
v -0.000000 0.201020 -4.506357
v -0.000000 0.113087 -3.820305
v 0.051895 1.517370 -0.879147
v 0.101796 1.473336 -1.724508
v 0.147785 1.401830 -2.503598
v 0.188094 1.305598 -3.186476
v 0.221176 1.188340 -3.746899
v 0.245757 1.054560 -4.163331
v 0.260895 0.909401 -4.419768
v 0.266006 0.708951 -4.506357
v 0.260895 0.201020 -4.419768
v 0.245757 0.155260 -4.163331
v 0.221176 0.113087 -3.746899
v 0.188094 0.076122 -3.186476
v 0.147785 0.045785 -2.503598
v 0.101796 0.023243 -1.724508
v 0.051895 0.009362 -0.879147
v 0.101796 1.517370 -0.828138
v 0.199680 1.473336 -1.624451
v 0.289890 1.401830 -2.358337
v 0.368961 1.305598 -3.001594
v 0.433852 1.188340 -3.529501
v 0.482070 1.054560 -3.921772
v 0.511763 0.909401 -4.163331
v 0.521789 0.708951 -4.244895
v 0.511763 0.201020 -4.163331
v 0.482070 0.155260 -3.921772
v 0.433852 0.113087 -3.529501
v 0.368961 0.076122 -3.001594
v 0.289890 0.045785 -2.358337
v 0.199680 0.023243 -1.624451
v 0.101796 0.009362 -0.828138
v 0.147785 1.517370 -0.745304
v 0.289890 1.473336 -1.461967
v 0.420856 1.401830 -2.122447
v 0.535648 1.305598 -2.701363
v 0.629855 1.188340 -3.176467
v 0.699857 1.054560 -3.529501
v 0.742965 0.909401 -3.746899
v 0.757520 0.708951 -3.820304
v 0.742965 0.201020 -3.746899
v 0.699857 0.155260 -3.529501
v 0.629855 0.113087 -3.176467
v 0.535648 0.076122 -2.701363
v 0.420856 0.045785 -2.122447
v 0.289890 0.023243 -1.461967
v 0.147785 0.009362 -0.745304
v 0.188094 1.517370 -0.633829
v 0.368961 1.473336 -1.243301
v 0.535648 1.401830 -1.804993
v 0.681750 1.305598 -2.297321
v 0.801653 1.188340 -2.701363
v 0.890750 1.054560 -3.001594
v 0.945615 0.909401 -3.186475
v 0.964140 0.708951 -3.248901
v 0.945615 0.201020 -3.186475
v 0.890750 0.155260 -3.001594
v 0.801653 0.113087 -2.701363
v 0.681750 0.076122 -2.297321
v 0.535648 0.045785 -1.804993
v 0.368961 0.023243 -1.243301
v 0.188094 0.009362 -0.633829
v 0.221176 1.517370 -0.497996
v 0.433852 1.473336 -0.976855
v 0.629855 1.401830 -1.418174
v 0.801654 1.305598 -1.804993
v 0.942645 1.188340 -2.122447
v 1.047411 1.054560 -2.358338
v 1.111925 0.909401 -2.503597
v 1.133709 0.708951 -2.552645
v 1.111925 0.201020 -2.503597
v 1.047411 0.155260 -2.358338
v 0.942645 0.113087 -2.122447
v 0.801654 0.076122 -1.804993
v 0.629855 0.045785 -1.418174
v 0.433852 0.023243 -0.976855
v 0.221176 0.009362 -0.497996
v -0.000000 1.532238 0.000000
v 0.245757 1.517370 -0.343026
v 0.482070 1.473336 -0.672870
v 0.699857 1.401830 -0.976855
v 0.890750 1.305598 -1.243301
v 1.047411 1.188340 -1.461967
v 1.163820 1.054560 -1.624451
v 1.235505 0.909401 -1.724508
v 1.259710 0.708951 -1.758292
v 1.235505 0.201020 -1.724508
v 1.163820 0.155260 -1.624451
v 1.047411 0.113087 -1.461967
v 0.890750 0.076122 -1.243301
v 0.699857 0.045785 -0.976855
v 0.482070 0.023243 -0.672870
v 0.245757 0.009362 -0.343026
v 0.260894 1.517370 -0.174873
v 0.511763 1.473336 -0.343026
v 0.742965 1.401830 -0.497996
v 0.945615 1.305598 -0.633829
v 1.111925 1.188340 -0.745304
v 1.235505 1.054560 -0.828138
v 1.311605 0.909401 -0.879146
v 1.337301 0.708951 -0.896369
v 1.311605 0.201020 -0.879146
v 1.235505 0.155260 -0.828138
v 1.111925 0.113087 -0.745304
v 0.945615 0.076122 -0.633829
v 0.742965 0.045785 -0.497996
v 0.511763 0.023243 -0.343026
v 0.260894 0.009362 -0.174873
v 0.266006 1.517370 0.000000
v 0.521789 1.473336 0.000000
v 0.757520 1.401830 0.000000
v 0.964140 1.305598 0.000000
v 1.133709 1.188340 0.000000
v 1.259710 1.054560 -0.000000
v 1.337301 0.909401 0.000000
v 1.363500 0.708951 0.000001
v 1.337301 0.201020 0.000000
v 1.259710 0.155260 -0.000000
v 1.133709 0.113087 0.000000
v 0.964140 0.076122 0.000000
v 0.757520 0.045785 0.000000
v 0.521789 0.023243 0.000000
v 0.266006 0.009362 0.000000
v 0.260894 1.517370 0.174873
v 0.511763 1.473336 0.343026
v 0.742965 1.401830 0.497997
v 0.945615 1.305598 0.633829
v 1.111925 1.188340 0.745305
v 1.235505 1.054560 0.828138
v 1.311605 0.909401 0.879147
v 1.337301 0.708951 0.896371
v 1.311605 0.201020 0.879147
v 1.235505 0.155260 0.828138
v 1.111925 0.113087 0.745305
v 0.945615 0.076122 0.633829
v 0.742965 0.045785 0.497997
v 0.511763 0.023243 0.343026
v 0.260894 0.009362 0.174873
v 0.245757 1.517370 0.343026
v 0.482070 1.473336 0.672870
v 0.699857 1.401830 0.976856
v 0.890750 1.305598 1.243301
v 1.047410 1.188340 1.461968
v 1.163820 1.054560 1.624451
v 1.235505 0.909401 1.724508
v 1.259710 0.708951 1.758294
v 1.235505 0.201020 1.724508
v 1.163820 0.155260 1.624451
v 1.047410 0.113087 1.461968
v 0.890750 0.076122 1.243301
v 0.699857 0.045785 0.976856
v 0.482070 0.023243 0.672870
v 0.245757 0.009362 0.343026
v 0.221176 1.517370 0.497996
v 0.433852 1.473336 0.976855
v 0.629855 1.401830 1.418174
v 0.801653 1.305598 1.804993
v 0.942644 1.188340 2.122447
v 1.047411 1.054560 2.358337
v 1.111925 0.909401 2.503597
v 1.133709 0.708951 2.552646
v 1.111925 0.201020 2.503597
v 1.047411 0.155260 2.358337
v 0.942644 0.113087 2.122447
v 0.801653 0.076122 1.804993
v 0.629855 0.045785 1.418174
v 0.433852 0.023243 0.976855
v 0.221176 0.009362 0.497996
v 0.188094 1.517370 0.633829
v 0.368960 1.473336 1.243301
v 0.535648 1.401830 1.804993
v 0.681750 1.305598 2.297321
v 0.801653 1.188340 2.701363
v 0.890750 1.054560 3.001594
v 0.945615 0.909401 3.186475
v 0.964140 0.708951 3.248902
v 0.945615 0.201020 3.186475
v 0.890750 0.155260 3.001594
v 0.801653 0.113087 2.701363
v 0.681750 0.076122 2.297321
v 0.535648 0.045785 1.804993
v 0.368960 0.023243 1.243301
v 0.188094 0.009362 0.633829
v 0.147785 1.517370 0.745304
v 0.289890 1.473336 1.461967
v 0.420855 1.401830 2.122447
v 0.535648 1.305598 2.701363
v 0.629855 1.188340 3.176466
v 0.699857 1.054560 3.529501
v 0.742964 0.909401 3.746898
v 0.757520 0.708951 3.820304
v 0.742964 0.201020 3.746898
v 0.699857 0.155260 3.529501
v 0.629855 0.113087 3.176466
v 0.535648 0.076122 2.701363
v 0.420855 0.045785 2.122447
v 0.289890 0.023243 1.461967
v 0.147785 0.009362 0.745304
v 0.101796 1.517370 0.828138
v 0.199680 1.473336 1.624451
v 0.289890 1.401830 2.358337
v 0.368961 1.305598 3.001594
v 0.433851 1.188340 3.529500
v 0.482070 1.054560 3.921771
v 0.511763 0.909401 4.163330
v 0.521788 0.708951 4.244894
v 0.511763 0.201020 4.163330
v 0.482070 0.155260 3.921771
v 0.433851 0.113087 3.529500
v 0.368961 0.076122 3.001594
v 0.289890 0.045785 2.358337
v 0.199680 0.023243 1.624451
v 0.101796 0.009362 0.828138
v 0.051895 1.517370 0.879146
v 0.101796 1.473336 1.724508
v 0.147785 1.401830 2.503597
v 0.188094 1.305598 3.186475
v 0.221175 1.188340 3.746897
v 0.245757 1.054560 4.163330
v 0.260894 0.909401 4.419767
v 0.266005 0.708951 4.506355
v 0.260894 0.201020 4.419767
v 0.245757 0.155260 4.163330
v 0.221175 0.113087 3.746897
v 0.188094 0.076122 3.186475
v 0.147785 0.045785 2.503597
v 0.101796 0.023243 1.724508
v 0.051895 0.009362 0.879146
v -0.000000 1.517370 0.896370
v -0.000000 1.473336 1.758293
v -0.000000 1.401830 2.552645
v -0.000000 1.305598 3.248902
v -0.000000 1.188340 3.820303
v 0.000000 1.054560 4.244894
v -0.000000 0.909401 4.506355
v -0.000000 0.708951 4.594639
v -0.000000 0.201020 4.506355
v 0.000000 0.155260 4.244894
v -0.000000 0.113087 3.820303
v -0.000000 0.076122 3.248902
v -0.000000 0.045785 2.552645
v -0.000000 0.023243 1.758293
v -0.000000 0.009362 0.896370
v -0.051895 1.517370 0.879146
v -0.101796 1.473336 1.724508
v -0.147785 1.401830 2.503597
v -0.188094 1.305598 3.186475
v -0.221176 1.188340 3.746897
v -0.245757 1.054560 4.163330
v -0.260895 0.909401 4.419767
v -0.266006 0.708951 4.506353
v -0.260895 0.201020 4.419767
v -0.245757 0.155260 4.163330
v -0.221176 0.113087 3.746897
v -0.188094 0.076122 3.186475
v -0.147785 0.045785 2.503597
v -0.101796 0.023243 1.724508
v -0.051895 0.009362 0.879146
v -0.101796 1.517370 0.828138
v -0.199680 1.473336 1.624451
v -0.289890 1.401830 2.358336
v -0.368961 1.305598 3.001594
v -0.433852 1.188340 3.529500
v -0.482070 1.054560 3.921771
v -0.511763 0.909401 4.163329
v -0.521789 0.708951 4.244892
v -0.511763 0.201020 4.163329
v -0.482070 0.155260 3.921771
v -0.433852 0.113087 3.529500
v -0.368961 0.076122 3.001594
v -0.289890 0.045785 2.358336
v -0.199680 0.023243 1.624451
v -0.101796 0.009362 0.828138
v -0.147785 1.517370 0.745304
v -0.289890 1.473336 1.461967
v -0.420856 1.401830 2.122446
v -0.535648 1.305598 2.701363
v -0.629855 1.188340 3.176466
v -0.699857 1.054560 3.529500
v -0.742965 0.909401 3.746897
v -0.757520 0.708951 3.820301
v -0.742965 0.201020 3.746897
v -0.699857 0.155260 3.529500
v -0.629855 0.113087 3.176466
v -0.535648 0.076122 2.701363
v -0.420856 0.045785 2.122446
v -0.289890 0.023243 1.461967
v -0.147785 0.009362 0.745304
v -0.188094 1.517370 0.633829
v -0.368961 1.473336 1.243301
v -0.535648 1.401830 1.804992
v -0.681750 1.305598 2.297320
v -0.801653 1.188340 2.701362
v -0.890749 1.054560 3.001593
v -0.945615 0.909401 3.186474
v -0.964140 0.708951 3.248899
v -0.945615 0.201020 3.186474
v -0.890749 0.155260 3.001593
v -0.801653 0.113087 2.701362
v -0.681750 0.076122 2.297320
v -0.535648 0.045785 1.804992
v -0.368961 0.023243 1.243301
v -0.188094 0.009362 0.633829
v -0.000000 0.004675 0.000000
v -0.221176 1.517370 0.497996
v -0.433852 1.473336 0.976855
v -0.629855 1.401830 1.418173
v -0.801653 1.305598 1.804993
v -0.942645 1.188340 2.122446
v -1.047410 1.054560 2.358337
v -1.111925 0.909401 2.503596
v -1.133709 0.708951 2.552642
v -1.111925 0.201020 2.503596
v -1.047410 0.155260 2.358337
v -0.942645 0.113087 2.122446
v -0.801653 0.076122 1.804993
v -0.629855 0.045785 1.418173
v -0.433852 0.023243 0.976855
v -0.221176 0.009362 0.497996
v -0.245757 1.517370 0.343026
v -0.482070 1.473336 0.672869
v -0.699857 1.401830 0.976854
v -0.890750 1.305598 1.243301
v -1.047410 1.188340 1.461966
v -1.163820 1.054560 1.624451
v -1.235505 0.909401 1.724506
v -1.259709 0.708951 1.758290
v -1.235505 0.201020 1.724506
v -1.163820 0.155260 1.624451
v -1.047410 0.113087 1.461966
v -0.890750 0.076122 1.243301
v -0.699857 0.045785 0.976854
v -0.482070 0.023243 0.672869
v -0.245757 0.009362 0.343026
v -0.260894 1.517370 0.174873
v -0.511763 1.473336 0.343026
v -0.742964 1.401830 0.497996
v -0.945615 1.305598 0.633829
v -1.111925 1.188340 0.745303
v -1.235505 1.054560 0.828138
v -1.311605 0.909401 0.879145
v -1.337300 0.708951 0.896367
v -1.311605 0.201020 0.879145
v -1.235505 0.155260 0.828138
v -1.111925 0.113087 0.745303
v -0.945615 0.076122 0.633829
v -0.742964 0.045785 0.497996
v -0.511763 0.023243 0.343026
v -0.260894 0.009362 0.174873
v -0.266006 1.517370 -0.000000
v -0.521789 1.473336 -0.000000
v -0.757520 1.401830 -0.000001
v -0.964140 1.305598 -0.000000
v -1.133709 1.188340 -0.000001
v -1.259710 1.054560 0.000000
v -1.337301 0.909401 -0.000001
v -1.363499 0.708951 -0.000002
v -1.337301 0.201020 -0.000001
v -1.259710 0.155260 0.000000
v -1.133709 0.113087 -0.000001
v -0.964140 0.076122 -0.000000
v -0.757520 0.045785 -0.000001
v -0.521789 0.023243 -0.000000
v -0.266006 0.009362 -0.000000
v -0.260894 1.517370 -0.174873
v -0.511763 1.473336 -0.343026
v -0.742964 1.401830 -0.497997
v -0.945615 1.305598 -0.633829
v -1.111925 1.188340 -0.745305
v -1.235505 1.054560 -0.828138
v -1.311605 0.909401 -0.879147
v -1.337300 0.708951 -0.896371
v -1.311605 0.201020 -0.879147
v -1.235505 0.155260 -0.828138
v -1.111925 0.113087 -0.745305
v -0.945615 0.076122 -0.633829
v -0.742964 0.045785 -0.497997
v -0.511763 0.023243 -0.343026
v -0.260894 0.009362 -0.174873
v -0.245757 1.517370 -0.343026
v -0.482070 1.473336 -0.672870
v -0.699857 1.401830 -0.976855
v -0.890749 1.305598 -1.243301
v -1.047410 1.188340 -1.461967
v -1.163820 1.054560 -1.624450
v -1.235505 0.909401 -1.724508
v -1.259709 0.708951 -1.758293
v -1.235505 0.201020 -1.724508
v -1.163820 0.155260 -1.624450
v -1.047410 0.113087 -1.461967
v -0.890749 0.076122 -1.243301
v -0.699857 0.045785 -0.976855
v -0.482070 0.023243 -0.672870
v -0.245757 0.009362 -0.343026
v -0.221176 1.517370 -0.497996
v -0.433852 1.473336 -0.976855
v -0.629854 1.401830 -1.418173
v -0.801653 1.305598 -1.804993
v -0.942644 1.188340 -2.122447
v -1.047410 1.054560 -2.358336
v -1.111925 0.909401 -2.503597
v -1.133708 0.708951 -2.552645
v -1.111925 0.201020 -2.503597
v -1.047410 0.155260 -2.358336
v -0.942644 0.113087 -2.122447
v -0.801653 0.076122 -1.804993
v -0.629854 0.045785 -1.418173
v -0.433852 0.023243 -0.976855
v -0.221176 0.009362 -0.497996
v -0.188094 1.517370 -0.633829
v -0.368960 1.473336 -1.243300
v -0.535647 1.401830 -1.804992
v -0.681750 1.305598 -2.297320
v -0.801653 1.188340 -2.701362
v -0.890749 1.054560 -3.001593
v -0.945614 0.909401 -3.186474
v -0.964139 0.708951 -3.248900
v -0.945614 0.201020 -3.186474
v -0.890749 0.155260 -3.001593
v -0.801653 0.113087 -2.701362
v -0.681750 0.076122 -2.297320
v -0.535647 0.045785 -1.804992
v -0.368960 0.023243 -1.243300
v -0.188094 0.009362 -0.633829
v -0.147785 1.517370 -0.745304
v -0.289890 1.473336 -1.461967
v -0.420855 1.401830 -2.122446
v -0.535648 1.305598 -2.701363
v -0.629854 1.188340 -3.176466
v -0.699857 1.054560 -3.529500
v -0.742964 0.909401 -3.746897
v -0.757519 0.708951 -3.820302
v -0.742964 0.201020 -3.746897
v -0.699857 0.155260 -3.529500
v -0.629854 0.113087 -3.176466
v -0.535648 0.076122 -2.701363
v -0.420855 0.045785 -2.122446
v -0.289890 0.023243 -1.461967
v -0.147785 0.009362 -0.745304
v -0.101796 1.517370 -0.828137
v -0.199680 1.473336 -1.624450
v -0.289890 1.401830 -2.358335
v -0.368960 1.305598 -3.001594
v -0.433851 1.188340 -3.529499
v -0.482070 1.054560 -3.921770
v -0.511762 0.909401 -4.163329
v -0.521788 0.708951 -4.244891
v -0.511762 0.201020 -4.163329
v -0.482070 0.155260 -3.921770
v -0.433851 0.113087 -3.529499
v -0.368960 0.076122 -3.001594
v -0.289890 0.045785 -2.358335
v -0.199680 0.023243 -1.624450
v -0.101796 0.009362 -0.828137
v -0.051895 1.517370 -0.879146
v -0.101796 1.473336 -1.724507
v -0.147784 1.401830 -2.503595
v -0.188094 1.305598 -3.186475
v -0.221175 1.188340 -3.746896
v -0.245757 1.054560 -4.163329
v -0.260894 0.909401 -4.419766
v -0.266005 0.708951 -4.506352
v -0.260894 0.201020 -4.419766
v -0.245757 0.155260 -4.163329
v -0.221175 0.113087 -3.746896
v -0.188094 0.076122 -3.186475
v -0.147784 0.045785 -2.503595
v -0.101796 0.023243 -1.724507
v -0.051895 0.009362 -0.879146
v 0.000000 1.517370 -0.896369
v 0.000000 1.473336 -1.758292
v 0.000000 1.305598 -3.248901
v 0.000000 1.054560 -4.244893
v 0.000000 0.155260 -4.244893
v 0.000000 0.076122 -3.248901
v 0.000000 0.045785 -2.552643
v 0.000000 0.023243 -1.758292
v 0.000000 0.009362 -0.896369
v -0.000000 0.462581 -4.550499
v 0.263450 0.462581 -4.463062
v 0.516776 0.462581 -4.204113
v 0.750243 0.462581 -3.783602
v 0.954878 0.462581 -3.217688
v 1.122817 0.462581 -2.528121
v 1.247607 0.462581 -1.741400
v 1.324453 0.462581 -0.887758
v 1.350401 0.462581 0.000001
v 1.324453 0.462581 0.887759
v 1.247607 0.462581 1.741401
v 1.122817 0.462581 2.528122
v 0.954877 0.462581 3.217688
v 0.750242 0.462581 3.783601
v 0.516776 0.462581 4.204112
v 0.263450 0.462581 4.463061
v -0.000000 0.462581 4.550497
v -0.263450 0.462581 4.463060
v -0.516776 0.462581 4.204110
v -0.750242 0.462581 3.783599
v -0.954877 0.462581 3.217686
v -1.122817 0.462581 2.528119
v -1.247607 0.462581 1.741398
v -1.324453 0.462581 0.887756
v -1.350400 0.462581 -0.000002
v -1.324452 0.462581 -0.887759
v -1.247607 0.462581 -1.741401
v -1.122816 0.462581 -2.528121
v -0.954877 0.462581 -3.217687
v -0.750242 0.462581 -3.783600
v -0.516775 0.462581 -4.204110
v -0.263449 0.462581 -4.463059
v -0.000000 0.701616 -4.265211
v 0.246933 0.701616 -4.183256
v 0.484377 0.701616 -3.940541
v 0.703207 0.701616 -3.546393
v 0.895013 0.701616 -3.015959
v 1.052423 0.701616 -2.369623
v 1.169390 0.701616 -1.632225
v 1.241418 0.701616 -0.832101
v 1.265739 0.701616 0.000001
v 1.241418 0.701616 0.832102
v 1.169390 0.701616 1.632226
v 1.052423 0.701616 2.369624
v 0.895012 0.701616 3.015959
v 0.703206 0.701616 3.546392
v 0.484377 0.701616 3.940540
v 0.246933 0.701616 4.183254
v -0.000000 0.701616 4.265209
v -0.246934 0.701616 4.183253
v -0.484377 0.701616 3.940538
v -0.703207 0.701616 3.546390
v -0.895012 0.701616 3.015956
v -1.052423 0.701616 2.369621
v -1.169390 0.701616 1.632223
v -1.241417 0.701616 0.832099
v -1.265738 0.701616 -0.000002
v -1.241417 0.701616 -0.832102
v -1.169389 0.701616 -1.632226
v -1.052422 0.701616 -2.369624
v -0.895011 0.701616 -3.015958
v -0.703206 0.701616 -3.546391
v -0.484376 0.701616 -3.940537
v -0.246933 0.701616 -4.183252
v -0.000000 0.469916 -4.224234
v 0.244561 0.469916 -4.143066
v 0.479724 0.469916 -3.902683
v 0.696451 0.469916 -3.512322
v 0.886414 0.469916 -2.986984
v 1.042313 0.469916 -2.346858
v 1.158155 0.469916 -1.616544
v 1.229491 0.469916 -0.824107
v 1.253578 0.469916 0.000001
v 1.229491 0.469916 0.824108
v 1.158155 0.469916 1.616544
v 1.042312 0.469916 2.346858
v 0.886414 0.469916 2.986984
v 0.696451 0.469916 3.512321
v 0.479723 0.469916 3.902682
v 0.244561 0.469916 4.143064
v -0.000000 0.469916 4.224232
v -0.244561 0.469916 4.143064
v -0.479724 0.469916 3.902680
v -0.696451 0.469916 3.512319
v -0.886414 0.469916 2.986982
v -1.042312 0.469916 2.346856
v -1.158155 0.469916 1.616542
v -1.229491 0.469916 0.824105
v -1.253578 0.469916 -0.000001
v -1.229491 0.469916 -0.824108
v -1.158155 0.469916 -1.616544
v -1.042312 0.469916 -2.346858
v -0.886413 0.469916 -2.986983
v -0.696450 0.469916 -3.512320
v -0.479723 0.469916 -3.902680
v -0.244560 0.469916 -4.143063
vn 0.0454 0.9896 -0.1368
vn 0.0214 -0.9977 -0.0645
vn 0.0666 0.9774 -0.2006
vn 0.0144 -0.9989 -0.0435
vn 0.0992 0.9491 -0.2990
vn 0.0094 -0.9996 -0.0284
vn 0.1590 0.8632 -0.4792
vn 0.0053 -0.9999 -0.0161
vn 0.2906 0.3857 -0.8757
vn 0.0055 0.9998 -0.0166
vn 0.0017 -1.0000 -0.0052
vn -0.0720 -0.9974 -0.0065
vn 0.0169 0.9986 -0.0510
vn 0.0571 -0.9834 -0.1721
vn 0.0297 0.9955 -0.0896
vn 0.0328 -0.9946 -0.0988
vn 0.0878 0.9924 -0.0859
vn 0.0967 -0.9908 -0.0946
vn 0.1335 0.9824 -0.1306
vn 0.0633 -0.9961 -0.0620
vn 0.1941 0.9624 -0.1899
vn 0.0427 -0.9982 -0.0418
vn 0.2842 0.9176 -0.2780
vn 0.0279 -0.9992 -0.0273
vn 0.4338 0.7949 -0.4243
vn 0.0158 -0.9998 -0.0155
vn 0.6808 0.3050 -0.6660
vn 0.0163 0.9997 -0.0159
vn 0.0051 -1.0000 -0.0050
vn -0.0587 0.9982 0.0143
vn 0.0501 0.9975 -0.0490
vn 0.1673 -0.9722 -0.1636
vn 0.6224 0.7023 -0.3455
vn 0.0257 -0.9996 -0.0143
vn 0.8499 0.2345 -0.4719
vn 0.0265 0.9995 -0.0147
vn 0.0083 -1.0000 -0.0046
vn -0.0478 -0.9987 0.0173
vn 0.0812 0.9957 -0.0451
vn 0.2661 -0.9526 -0.1477
vn 0.1418 0.9868 -0.0787
vn 0.1560 -0.9840 -0.0866
vn 0.2139 0.9696 -0.1188
vn 0.1025 -0.9931 -0.0569
vn 0.3067 0.9364 -0.1703
vn 0.0693 -0.9969 -0.0385
vn 0.4359 0.8668 -0.2420
vn 0.0452 -0.9987 -0.0251
vn 0.2081 -0.9752 -0.0752
vn 0.2831 0.9536 -0.1024
vn 0.1375 -0.9893 -0.0497
vn 0.3991 0.9055 -0.1443
vn 0.0931 -0.9951 -0.0337
vn 0.5493 0.8116 -0.1986
vn 0.0608 -0.9979 -0.0220
vn 0.7384 0.6192 -0.2670
vn 0.0346 -0.9993 -0.0125
vn 0.9234 0.1893 -0.3339
vn 0.0356 0.9993 -0.0129
vn 0.0112 -0.9999 -0.0041
vn -0.0670 0.9977 0.0106
vn 0.1090 0.9933 -0.0394
vn 0.3491 -0.9285 -0.1262
vn 0.1894 0.9795 -0.0685
vn 0.0421 -0.9991 -0.0103
vn 0.9589 0.1613 -0.2335
vn 0.0434 0.9990 -0.0106
vn 0.0137 -0.9999 -0.0033
vn -0.0074 -0.9997 0.0223
vn 0.1325 0.9907 -0.0323
vn 0.4144 -0.9045 -0.1009
vn 0.2290 0.9718 -0.0558
vn 0.2511 -0.9660 -0.0612
vn 0.3390 0.9371 -0.0826
vn 0.1668 -0.9852 -0.0406
vn 0.4701 0.8752 -0.1145
vn 0.1133 -0.9932 -0.0276
vn 0.6287 0.7624 -0.1531
vn 0.0741 -0.9971 -0.0180
vn 0.8077 0.5558 -0.1967
vn 0.3808 0.9227 -0.0604
vn 0.1896 -0.9814 -0.0301
vn 0.5207 0.8497 -0.0826
vn 0.1290 -0.9914 -0.0205
vn 0.6812 0.7240 -0.1081
vn 0.0844 -0.9963 -0.0134
vn 0.8485 0.5118 -0.1346
vn 0.0480 -0.9988 -0.0076
vn 0.9773 0.1441 -0.1550
vn 0.0495 0.9987 -0.0078
vn 0.0156 -0.9999 -0.0025
vn -0.0726 0.9973 0.0065
vn 0.1508 0.9883 -0.0239
vn 0.4620 -0.8839 -0.0733
vn 0.2594 0.9649 -0.0411
vn 0.2841 -0.9577 -0.0451
vn 0.9870 0.1342 -0.0888
vn 0.0537 0.9985 -0.0048
vn 0.0169 -0.9999 -0.0015
vn -0.0478 -0.9987 -0.0173
vn 0.1633 0.9865 -0.0147
vn 0.4928 -0.8690 -0.0444
vn 0.2799 0.9597 -0.0252
vn 0.3062 -0.9516 -0.0276
vn 0.4085 0.9120 -0.0368
vn 0.2051 -0.9786 -0.0185
vn 0.5530 0.8317 -0.0498
vn 0.1398 -0.9901 -0.0126
vn 0.7129 0.6983 -0.0642
vn 0.0916 -0.9958 -0.0082
vn 0.8713 0.4844 -0.0784
vn 0.0521 -0.9986 -0.0047
vn 0.2130 -0.9770 -0.0062
vn 0.5687 0.8224 -0.0166
vn 0.1453 -0.9894 -0.0042
vn 0.7278 0.6855 -0.0213
vn 0.0952 -0.9955 -0.0028
vn 0.8816 0.4712 -0.0258
vn 0.0542 -0.9985 -0.0016
vn 0.9912 0.1295 -0.0290
vn 0.0558 0.9984 -0.0016
vn 0.0176 -0.9998 -0.0005
vn 0.0748 -0.9972 -0.0022
vn 0.1697 0.9855 -0.0050
vn 0.5079 -0.8613 -0.0148
vn 0.2903 0.9569 -0.0085
vn 0.3174 -0.9483 -0.0093
vn 0.4222 0.9064 -0.0123
vn 0.0176 -0.9998 0.0005
vn -0.0755 0.9971 0.0022
vn 0.1697 0.9855 0.0050
vn 0.5079 -0.8613 0.0148
vn 0.2903 0.9569 0.0085
vn 0.3174 -0.9483 0.0093
vn 0.4222 0.9064 0.0123
vn 0.2130 -0.9770 0.0062
vn 0.5687 0.8224 0.0166
vn 0.1453 -0.9894 0.0042
vn 0.7278 0.6855 0.0213
vn 0.0952 -0.9955 0.0028
vn 0.8816 0.4712 0.0258
vn 0.0542 -0.9985 0.0016
vn 0.9912 0.1295 0.0290
vn 0.0558 0.9984 0.0016
vn 0.1398 -0.9901 0.0126
vn 0.7129 0.6983 0.0642
vn 0.0916 -0.9958 0.0082
vn 0.8713 0.4844 0.0784
vn 0.0521 -0.9986 0.0047
vn 0.9870 0.1342 0.0888
vn 0.0537 0.9985 0.0048
vn 0.0169 -0.9999 0.0015
vn -0.0755 0.9971 -0.0022
vn 0.1633 0.9865 0.0147
vn 0.4928 -0.8690 0.0444
vn 0.2799 0.9597 0.0252
vn 0.3062 -0.9516 0.0276
vn 0.4085 0.9120 0.0368
vn 0.2051 -0.9786 0.0185
vn 0.5530 0.8317 0.0498
vn 0.1508 0.9883 0.0239
vn 0.4620 -0.8839 0.0733
vn 0.2594 0.9649 0.0411
vn 0.2841 -0.9577 0.0451
vn 0.3808 0.9227 0.0604
vn 0.1896 -0.9814 0.0301
vn 0.5207 0.8497 0.0826
vn 0.1290 -0.9914 0.0205
vn 0.6812 0.7240 0.1081
vn 0.0844 -0.9963 0.0134
vn 0.8485 0.5118 0.1346
vn 0.0480 -0.9988 0.0076
vn 0.9773 0.1441 0.1550
vn 0.0495 0.9987 0.0078
vn 0.0156 -0.9999 0.0025
vn -0.0748 -0.9972 0.0022
vn 0.6287 0.7624 0.1531
vn 0.0741 -0.9971 0.0180
vn 0.8077 0.5558 0.1967
vn 0.0421 -0.9991 0.0103
vn 0.9589 0.1613 0.2335
vn 0.0434 0.9990 0.0106
vn 0.0137 -0.9999 0.0033
vn -0.0663 -0.9977 -0.0105
vn 0.1325 0.9907 0.0323
vn 0.4144 -0.9045 0.1009
vn 0.2290 0.9718 0.0558
vn 0.2511 -0.9660 0.0612
vn 0.3390 0.9371 0.0826
vn 0.1668 -0.9852 0.0406
vn 0.4701 0.8752 0.1145
vn 0.1133 -0.9932 0.0276
vn 0.3491 -0.9285 0.1262
vn 0.1894 0.9795 0.0685
vn 0.2081 -0.9752 0.0752
vn 0.2831 0.9536 0.1024
vn 0.1375 -0.9893 0.0497
vn 0.3991 0.9055 0.1443
vn 0.0931 -0.9951 0.0337
vn 0.5493 0.8116 0.1986
vn 0.0608 -0.9979 0.0220
vn 0.7384 0.6192 0.2670
vn 0.0346 -0.9993 0.0125
vn 0.9234 0.1893 0.3339
vn 0.0356 0.9993 0.0129
vn 0.0112 -0.9999 0.0041
vn -0.0726 0.9973 -0.0065
vn 0.1090 0.9933 0.0394
vn 0.0452 -0.9987 0.0251
vn 0.6224 0.7023 0.3455
vn 0.0257 -0.9996 0.0143
vn 0.8499 0.2345 0.4719
vn 0.0265 0.9995 0.0147
vn 0.0083 -1.0000 0.0046
vn -0.0670 0.9977 -0.0106
vn 0.0812 0.9957 0.0451
vn 0.2661 -0.9526 0.1477
vn 0.1418 0.9868 0.0787
vn 0.1560 -0.9840 0.0866
vn 0.2139 0.9696 0.1188
vn 0.1025 -0.9931 0.0569
vn 0.3067 0.9364 0.1703
vn 0.0693 -0.9969 0.0385
vn 0.4359 0.8668 0.2420
vn 0.0878 0.9924 0.0859
vn 0.0967 -0.9908 0.0946
vn 0.1335 0.9824 0.1306
vn 0.0633 -0.9961 0.0620
vn 0.1941 0.9624 0.1899
vn 0.0427 -0.9982 0.0418
vn 0.2842 0.9176 0.2780
vn 0.0279 -0.9992 0.0273
vn 0.4338 0.7949 0.4243
vn 0.0158 -0.9998 0.0155
vn 0.6808 0.3050 0.6660
vn 0.0163 0.9997 0.0159
vn 0.0051 -1.0000 0.0050
vn 0.0075 0.9997 -0.0225
vn 0.0501 0.9975 0.0490
vn 0.1673 -0.9722 0.1636
vn 0.1590 0.8632 0.4792
vn 0.0053 -0.9999 0.0161
vn 0.2906 0.3857 0.8757
vn 0.0055 0.9998 0.0166
vn 0.0017 -1.0000 0.0052
vn 0.0219 -0.9995 0.0214
vn 0.0169 0.9986 0.0510
vn 0.0571 -0.9834 0.1721
vn 0.0297 0.9955 0.0896
vn 0.0328 -0.9946 0.0988
vn 0.0454 0.9896 0.1368
vn 0.0214 -0.9977 0.0645
vn 0.0666 0.9774 0.2006
vn 0.0144 -0.9989 0.0435
vn 0.0992 0.9491 0.2990
vn 0.0094 -0.9996 0.0284
vn -0.0328 -0.9946 0.0988
vn -0.0454 0.9896 0.1368
vn -0.0214 -0.9977 0.0645
vn -0.0666 0.9774 0.2006
vn -0.0144 -0.9989 0.0435
vn -0.0992 0.9491 0.2990
vn -0.0094 -0.9996 0.0284
vn -0.1590 0.8632 0.4792
vn -0.0053 -0.9999 0.0161
vn -0.2906 0.3857 0.8757
vn -0.0055 0.9998 0.0166
vn -0.0017 -1.0000 0.0052
vn 0.0748 -0.9972 0.0022
vn -0.0169 0.9986 0.0510
vn -0.0571 -0.9834 0.1721
vn -0.0297 0.9955 0.0896
vn -0.0158 -0.9998 0.0155
vn -0.6808 0.3050 0.6660
vn -0.0163 0.9997 0.0159
vn -0.0051 -1.0000 0.0050
vn -0.0587 0.9982 -0.0143
vn -0.0501 0.9975 0.0490
vn -0.1673 -0.9722 0.1636
vn -0.0878 0.9924 0.0859
vn -0.0967 -0.9908 0.0946
vn -0.1335 0.9824 0.1306
vn -0.0633 -0.9961 0.0620
vn -0.1941 0.9624 0.1899
vn -0.0427 -0.9982 0.0418
vn -0.2842 0.9176 0.2780
vn -0.0279 -0.9992 0.0273
vn -0.4338 0.7949 0.4243
vn -0.1025 -0.9931 0.0569
vn -0.3067 0.9364 0.1703
vn -0.0693 -0.9969 0.0385
vn -0.4359 0.8668 0.2420
vn -0.0452 -0.9987 0.0251
vn -0.6224 0.7023 0.3455
vn -0.0257 -0.9996 0.0143
vn -0.8499 0.2345 0.4719
vn -0.0265 0.9995 0.0147
vn -0.0083 -1.0000 0.0046
vn 0.0221 0.9995 -0.0216
vn -0.0812 0.9957 0.0451
vn -0.2661 -0.9526 0.1477
vn -0.1418 0.9868 0.0787
vn -0.1560 -0.9840 0.0866
vn -0.2139 0.9696 0.1188
vn -0.0356 0.9993 0.0129
vn -0.0112 -0.9999 0.0041
vn 0.0663 -0.9977 -0.0105
vn -0.1090 0.9933 0.0394
vn -0.3491 -0.9285 0.1262
vn -0.1894 0.9795 0.0685
vn -0.2081 -0.9752 0.0752
vn -0.2831 0.9536 0.1024
vn -0.1375 -0.9893 0.0497
vn -0.3991 0.9055 0.1443
vn -0.0931 -0.9951 0.0337
vn -0.5493 0.8116 0.1986
vn -0.0608 -0.9979 0.0220
vn -0.7384 0.6192 0.2670
vn -0.0346 -0.9993 0.0125
vn -0.9234 0.1893 0.3339
vn -0.4701 0.8752 0.1145
vn -0.1133 -0.9932 0.0276
vn -0.6287 0.7624 0.1531
vn -0.0741 -0.9971 0.0180
vn -0.8077 0.5558 0.1967
vn -0.0421 -0.9991 0.0103
vn -0.9589 0.1613 0.2335
vn -0.0434 0.9990 0.0106
vn -0.0137 -0.9999 0.0033
vn -0.0219 -0.9995 0.0214
vn -0.1325 0.9907 0.0323
vn -0.4144 -0.9045 0.1009
vn -0.2290 0.9718 0.0558
vn -0.2511 -0.9660 0.0612
vn -0.3390 0.9371 0.0826
vn -0.1668 -0.9852 0.0406
vn -0.0482 0.9987 -0.0174
vn -0.1508 0.9883 0.0239
vn -0.4620 -0.8839 0.0733
vn -0.2594 0.9649 0.0411
vn -0.2841 -0.9577 0.0451
vn -0.3808 0.9227 0.0604
vn -0.1896 -0.9814 0.0301
vn -0.5207 0.8497 0.0826
vn -0.1290 -0.9914 0.0205
vn -0.6812 0.7240 0.1081
vn -0.0844 -0.9963 0.0134
vn -0.8485 0.5118 0.1346
vn -0.0480 -0.9988 0.0076
vn -0.9773 0.1441 0.1550
vn -0.0495 0.9987 0.0078
vn -0.0156 -0.9999 0.0025
vn -0.1398 -0.9901 0.0126
vn -0.7129 0.6983 0.0642
vn -0.0916 -0.9958 0.0082
vn -0.8713 0.4844 0.0784
vn -0.0521 -0.9986 0.0047
vn -0.9870 0.1342 0.0888
vn -0.0537 0.9985 0.0048
vn -0.0169 -0.9999 0.0015
vn 0.0359 0.9992 -0.0199
vn -0.1633 0.9865 0.0147
vn -0.4928 -0.8690 0.0444
vn -0.2799 0.9597 0.0252
vn -0.3062 -0.9516 0.0276
vn -0.4085 0.9120 0.0368
vn -0.2051 -0.9786 0.0185
vn -0.5530 0.8317 0.0498
vn -0.1697 0.9855 0.0050
vn -0.5079 -0.8613 0.0148
vn -0.2903 0.9569 0.0085
vn -0.3174 -0.9483 0.0093
vn -0.4222 0.9064 0.0123
vn -0.2130 -0.9770 0.0062
vn -0.5687 0.8224 0.0166
vn -0.1453 -0.9894 0.0042
vn -0.7278 0.6855 0.0213
vn -0.0952 -0.9955 0.0028
vn -0.8816 0.4712 0.0258
vn -0.0542 -0.9985 0.0016
vn -0.9912 0.1295 0.0290
vn -0.0558 0.9984 0.0016
vn -0.0176 -0.9998 0.0005
vn -0.0359 0.9992 -0.0199
vn -0.7278 0.6855 -0.0213
vn -0.0952 -0.9955 -0.0028
vn -0.8816 0.4712 -0.0258
vn -0.0542 -0.9985 -0.0016
vn -0.9912 0.1295 -0.0290
vn -0.0558 0.9984 -0.0016
vn -0.0176 -0.9998 -0.0005
vn 0.0482 0.9987 -0.0174
vn -0.1697 0.9855 -0.0050
vn -0.5079 -0.8613 -0.0148
vn -0.2903 0.9569 -0.0085
vn -0.3174 -0.9483 -0.0093
vn -0.4222 0.9064 -0.0123
vn -0.2130 -0.9770 -0.0062
vn -0.5687 0.8224 -0.0166
vn -0.1453 -0.9894 -0.0042
vn -0.4928 -0.8690 -0.0444
vn -0.2799 0.9597 -0.0252
vn -0.3062 -0.9516 -0.0276
vn -0.4085 0.9120 -0.0368
vn -0.2051 -0.9786 -0.0185
vn -0.5530 0.8317 -0.0498
vn -0.1398 -0.9901 -0.0126
vn -0.7129 0.6983 -0.0642
vn -0.0916 -0.9958 -0.0082
vn -0.8713 0.4844 -0.0784
vn -0.0521 -0.9986 -0.0047
vn -0.9870 0.1342 -0.0888
vn -0.0537 0.9985 -0.0048
vn -0.0169 -0.9999 -0.0015
vn -0.0748 -0.9972 -0.0022
vn -0.1633 0.9865 -0.0147
vn -0.0844 -0.9963 -0.0134
vn -0.8485 0.5118 -0.1346
vn -0.0480 -0.9988 -0.0076
vn -0.9773 0.1441 -0.1550
vn -0.0495 0.9987 -0.0078
vn -0.0156 -0.9999 -0.0025
vn -0.0221 0.9995 -0.0216
vn -0.1508 0.9883 -0.0239
vn -0.4620 -0.8839 -0.0733
vn -0.2594 0.9649 -0.0411
vn -0.2841 -0.9577 -0.0451
vn -0.3808 0.9227 -0.0604
vn -0.1896 -0.9814 -0.0301
vn -0.5207 0.8497 -0.0826
vn -0.1290 -0.9914 -0.0205
vn -0.6812 0.7240 -0.1081
vn -0.2511 -0.9660 -0.0612
vn -0.3390 0.9371 -0.0826
vn -0.1668 -0.9852 -0.0406
vn -0.4701 0.8752 -0.1145
vn -0.1133 -0.9932 -0.0276
vn -0.6287 0.7624 -0.1531
vn -0.0741 -0.9971 -0.0180
vn -0.8077 0.5558 -0.1967
vn -0.0421 -0.9991 -0.0103
vn -0.9589 0.1613 -0.2335
vn -0.0434 0.9990 -0.0106
vn -0.0137 -0.9999 -0.0033
vn 0.0587 0.9982 -0.0143
vn -0.1325 0.9907 -0.0323
vn -0.4144 -0.9045 -0.1009
vn -0.2290 0.9718 -0.0558
vn -0.0346 -0.9993 -0.0125
vn -0.9234 0.1893 -0.3339
vn -0.0356 0.9993 -0.0129
vn -0.0112 -0.9999 -0.0041
vn -0.0075 0.9997 -0.0225
vn -0.1090 0.9933 -0.0394
vn -0.3491 -0.9285 -0.1262
vn -0.1894 0.9795 -0.0685
vn -0.2081 -0.9752 -0.0752
vn -0.2831 0.9536 -0.1024
vn -0.1375 -0.9893 -0.0497
vn -0.3991 0.9055 -0.1443
vn -0.0931 -0.9951 -0.0337
vn -0.5493 0.8116 -0.1986
vn -0.0608 -0.9979 -0.0220
vn -0.7384 0.6192 -0.2670
vn -0.2139 0.9696 -0.1188
vn -0.1025 -0.9931 -0.0569
vn -0.3067 0.9364 -0.1703
vn -0.0693 -0.9969 -0.0385
vn -0.4359 0.8668 -0.2420
vn -0.0452 -0.9987 -0.0251
vn -0.6224 0.7023 -0.3455
vn -0.0257 -0.9996 -0.0143
vn -0.8499 0.2345 -0.4719
vn -0.0265 0.9995 -0.0147
vn -0.0083 -1.0000 -0.0046
vn 0.0478 -0.9987 0.0173
vn -0.0812 0.9957 -0.0451
vn -0.2661 -0.9526 -0.1477
vn -0.1418 0.9868 -0.0787
vn -0.1560 -0.9840 -0.0866
vn -0.6808 0.3050 -0.6660
vn -0.0163 0.9997 -0.0159
vn -0.0051 -1.0000 -0.0050
vn 0.0670 0.9977 -0.0106
vn -0.0501 0.9975 -0.0490
vn -0.1673 -0.9722 -0.1636
vn -0.0878 0.9924 -0.0859
vn -0.0967 -0.9908 -0.0946
vn -0.1335 0.9824 -0.1306
vn -0.0633 -0.9961 -0.0620
vn -0.1941 0.9624 -0.1899
vn -0.0427 -0.9982 -0.0418
vn -0.2842 0.9176 -0.2780
vn -0.0279 -0.9992 -0.0273
vn -0.4338 0.7949 -0.4243
vn -0.0158 -0.9998 -0.0155
vn -0.0214 -0.9977 -0.0645
vn -0.0666 0.9774 -0.2006
vn -0.0144 -0.9989 -0.0435
vn -0.0992 0.9491 -0.2990
vn -0.0094 -0.9996 -0.0284
vn -0.1591 0.8632 -0.4792
vn -0.0053 -0.9999 -0.0161
vn -0.2906 0.3857 -0.8757
vn -0.0055 0.9998 -0.0166
vn -0.0017 -1.0000 -0.0052
vn 0.0074 -0.9997 0.0223
vn -0.0169 0.9986 -0.0510
vn -0.0571 -0.9834 -0.1721
vn -0.0297 0.9955 -0.0896
vn -0.0328 -0.9946 -0.0988
vn -0.0454 0.9896 -0.1368
vn -0.3110 -0.1582 -0.9371
vn -0.7095 -0.1218 -0.6941
vn -0.8706 -0.0920 -0.4833
vn -0.9379 -0.0737 -0.3391
vn -0.9697 -0.0625 -0.2362
vn -0.9861 -0.0557 -0.1564
vn -0.9946 -0.0518 -0.0895
vn -0.9983 -0.0500 -0.0292
vn -0.9983 -0.0500 0.0292
vn -0.9946 -0.0518 0.0895
vn -0.9861 -0.0557 0.1564
vn -0.9697 -0.0625 0.2362
vn -0.9379 -0.0737 0.3391
vn -0.8706 -0.0920 0.4833
vn -0.7095 -0.1218 0.6941
vn -0.3110 -0.1582 0.9371
vn 0.3110 -0.1582 0.9371
vn 0.7095 -0.1218 0.6941
vn 0.8706 -0.0920 0.4833
vn 0.9379 -0.0737 0.3391
vn 0.9697 -0.0625 0.2362
vn 0.9861 -0.0557 0.1564
vn 0.9946 -0.0518 0.0895
vn 0.9983 -0.0500 0.0292
vn 0.9983 -0.0500 -0.0292
vn 0.9946 -0.0518 -0.0895
vn 0.9861 -0.0557 -0.1564
vn 0.9697 -0.0625 -0.2362
vn 0.9379 -0.0737 -0.3391
vn 0.8706 -0.0920 -0.4833
vn 0.7095 -0.1218 -0.6941
vn 0.3110 -0.1582 -0.9371
vn 0.3106 -0.1655 -0.9360
vn 0.7090 -0.1276 -0.6936
vn 0.8702 -0.0964 -0.4831
vn 0.9376 -0.0772 -0.3390
vn 0.9695 -0.0655 -0.2361
vn 0.9860 -0.0584 -0.1564
vn 0.9945 -0.0543 -0.0895
vn 0.9982 -0.0524 -0.0292
vn 0.9982 -0.0524 0.0292
vn 0.9945 -0.0543 0.0895
vn 0.9860 -0.0584 0.1564
vn 0.9695 -0.0655 0.2361
vn 0.9376 -0.0772 0.3390
vn 0.8702 -0.0964 0.4831
vn 0.7090 -0.1276 0.6936
vn 0.3106 -0.1655 0.9360
vn -0.3107 -0.1655 0.9360
vn -0.7090 -0.1276 0.6936
vn -0.8702 -0.0964 0.4831
vn -0.9376 -0.0772 0.3390
vn -0.9695 -0.0655 0.2361
vn -0.9860 -0.0584 0.1564
vn -0.9945 -0.0543 0.0895
vn -0.9982 -0.0524 0.0292
vn -0.9982 -0.0524 -0.0292
vn -0.9945 -0.0543 -0.0895
vn -0.9860 -0.0584 -0.1564
vn -0.9695 -0.0655 -0.2361
vn -0.9376 -0.0772 -0.3390
vn -0.8702 -0.0964 -0.4831
vn -0.7090 -0.1276 -0.6936
vn -0.3107 -0.1655 -0.9360
vn 0.0720 -0.9974 0.0065
vn -0.0482 0.9987 0.0174
vn -0.0219 -0.9995 -0.0214
vn -0.0355 -0.9992 0.0197
vn -0.0359 0.9992 0.0199
vn -0.0221 0.9995 0.0216
vn -0.0663 -0.9977 0.0105
vn 0.0355 -0.9992 -0.0197
vn -0.0582 -0.9982 -0.0142
vn -0.0075 0.9997 0.0225
vn 0.0075 0.9997 0.0225
vn 0.0582 -0.9982 0.0142
vn 0.0221 0.9995 0.0216
vn -0.0074 -0.9997 -0.0223
vn 0.0074 -0.9997 -0.0223
vn 0.0359 0.9992 0.0199
vn 0.0582 -0.9982 -0.0142
vn -0.0582 -0.9982 0.0142
vn 0.0482 0.9987 0.0174
vn -0.0355 -0.9992 -0.0197
vn 0.0219 -0.9995 -0.0214
vn 0.0587 0.9982 0.0143
vn 0.0670 0.9977 0.0106
vn 0.0355 -0.9992 0.0197
vn 0.0663 -0.9977 0.0105
vn 0.0726 0.9973 0.0065
vn 0.0720 -0.9974 -0.0065
vn 0.0755 0.9971 0.0022
vn -0.0720 -0.9974 0.0065
vn 0.0755 0.9971 -0.0022
vn 0.0478 -0.9987 -0.0173
vn 0.0726 0.9973 -0.0065
vn -0.1590 0.8632 -0.4792
vt 0.750000 0.812500
vt 0.750000 0.687500
vt 0.750000 0.562500
vt 0.750000 0.500000
vt 0.750000 0.437500
vt 0.750000 0.312500
vt 0.718750 0.937500
vt 0.718750 0.875000
vt 0.718750 0.812500
vt 0.718750 0.750000
vt 0.718750 0.687500
vt 0.718750 0.625000
vt 0.718750 0.562500
vt 0.718750 0.500000
vt 0.718750 0.437500
vt 0.718750 0.375000
vt 0.718750 0.312500
vt 0.718750 0.250000
vt 0.718750 0.187500
vt 0.718750 0.125000
vt 0.718750 0.062500
vt 0.687500 0.937500
vt 0.687500 0.875000
vt 0.687500 0.812500
vt 0.687500 0.750000
vt 0.687500 0.687500
vt 0.687500 0.625000
vt 0.687500 0.562500
vt 0.687500 0.500000
vt 0.687500 0.437500
vt 0.687500 0.375000
vt 0.687500 0.312500
vt 0.687500 0.250000
vt 0.687500 0.187500
vt 0.687500 0.125000
vt 0.687500 0.062500
vt 0.656250 0.937500
vt 0.656250 0.875000
vt 0.656250 0.812500
vt 0.656250 0.750000
vt 0.656250 0.687500
vt 0.656250 0.625000
vt 0.656250 0.562500
vt 0.656250 0.500000
vt 0.656250 0.437500
vt 0.656250 0.375000
vt 0.656250 0.312500
vt 0.656250 0.250000
vt 0.656250 0.187500
vt 0.656250 0.125000
vt 0.656250 0.062500
vt 0.625000 0.937500
vt 0.625000 0.875000
vt 0.625000 0.812500
vt 0.625000 0.750000
vt 0.625000 0.687500
vt 0.625000 0.625000
vt 0.625000 0.562500
vt 0.625000 0.500000
vt 0.625000 0.437500
vt 0.625000 0.375000
vt 0.625000 0.312500
vt 0.625000 0.250000
vt 0.625000 0.187500
vt 0.625000 0.125000
vt 0.625000 0.062500
vt 0.593750 0.937500
vt 0.593750 0.875000
vt 0.593750 0.812500
vt 0.593750 0.750000
vt 0.593750 0.687500
vt 0.593750 0.625000
vt 0.593750 0.562500
vt 0.593750 0.500000
vt 0.593750 0.437500
vt 0.593750 0.375000
vt 0.593750 0.312500
vt 0.593750 0.250000
vt 0.593750 0.187500
vt 0.593750 0.125000
vt 0.593750 0.062500
vt 0.734375 1.000000
vt 0.703125 1.000000
vt 0.671875 1.000000
vt 0.640625 1.000000
vt 0.609375 1.000000
vt 0.578125 1.000000
vt 0.546875 1.000000
vt 0.515625 1.000000
vt 0.484375 1.000000
vt 0.453125 1.000000
vt 0.421875 1.000000
vt 0.390625 1.000000
vt 0.359375 1.000000
vt 0.328125 1.000000
vt 0.296875 1.000000
vt 0.265625 1.000000
vt 0.234375 1.000000
vt 0.203125 1.000000
vt 0.171875 1.000000
vt 0.140625 1.000000
vt 0.109375 1.000000
vt 0.078125 1.000000
vt 0.046875 1.000000
vt 0.015625 1.000000
vt 0.984375 1.000000
vt 0.953125 1.000000
vt 0.921875 1.000000
vt 0.890625 1.000000
vt 0.859375 1.000000
vt 0.828125 1.000000
vt 0.796875 1.000000
vt 0.765625 1.000000
vt 0.562500 0.937500
vt 0.562500 0.875000
vt 0.562500 0.812500
vt 0.562500 0.750000
vt 0.562500 0.687500
vt 0.562500 0.625000
vt 0.562500 0.562500
vt 0.562500 0.500000
vt 0.562500 0.437500
vt 0.562500 0.375000
vt 0.562500 0.312500
vt 0.562500 0.250000
vt 0.562500 0.187500
vt 0.562500 0.125000
vt 0.562500 0.062500
vt 0.531250 0.937500
vt 0.531250 0.875000
vt 0.531250 0.812500
vt 0.531250 0.750000
vt 0.531250 0.687500
vt 0.531250 0.625000
vt 0.531250 0.562500
vt 0.531250 0.500000
vt 0.531250 0.437500
vt 0.531250 0.375000
vt 0.531250 0.312500
vt 0.531250 0.250000
vt 0.531250 0.187500
vt 0.531250 0.125000
vt 0.531250 0.062500
vt 0.500000 0.937500
vt 0.500000 0.875000
vt 0.500000 0.812500
vt 0.500000 0.750000
vt 0.500000 0.687500
vt 0.500000 0.625000
vt 0.500000 0.562500
vt 0.500000 0.500000
vt 0.500000 0.437500
vt 0.500000 0.375000
vt 0.500000 0.312500
vt 0.500000 0.250000
vt 0.500000 0.187500
vt 0.500000 0.125000
vt 0.500000 0.062500
vt 0.468750 0.937500
vt 0.468750 0.875000
vt 0.468750 0.812500
vt 0.468750 0.750000
vt 0.468750 0.687500
vt 0.468750 0.625000
vt 0.468750 0.562500
vt 0.468750 0.500000
vt 0.468750 0.437500
vt 0.468750 0.375000
vt 0.468750 0.312500
vt 0.468750 0.250000
vt 0.468750 0.187500
vt 0.468750 0.125000
vt 0.468750 0.062500
vt 0.437500 0.937500
vt 0.437500 0.875000
vt 0.437500 0.812500
vt 0.437500 0.750000
vt 0.437500 0.687500
vt 0.437500 0.625000
vt 0.437500 0.562500
vt 0.437500 0.500000
vt 0.437500 0.437500
vt 0.437500 0.375000
vt 0.437500 0.312500
vt 0.437500 0.250000
vt 0.437500 0.187500
vt 0.437500 0.125000
vt 0.437500 0.062500
vt 0.406250 0.937500
vt 0.406250 0.875000
vt 0.406250 0.812500
vt 0.406250 0.750000
vt 0.406250 0.687500
vt 0.406250 0.625000
vt 0.406250 0.562500
vt 0.406250 0.500000
vt 0.406250 0.437500
vt 0.406250 0.375000
vt 0.406250 0.312500
vt 0.406250 0.250000
vt 0.406250 0.187500
vt 0.406250 0.125000
vt 0.406250 0.062500
vt 0.375000 0.937500
vt 0.375000 0.875000
vt 0.375000 0.812500
vt 0.375000 0.750000
vt 0.375000 0.687500
vt 0.375000 0.625000
vt 0.375000 0.562500
vt 0.375000 0.500000
vt 0.375000 0.437500
vt 0.375000 0.375000
vt 0.375000 0.312500
vt 0.375000 0.250000
vt 0.375000 0.187500
vt 0.375000 0.125000
vt 0.375000 0.062500
vt 0.343750 0.937500
vt 0.343750 0.875000
vt 0.343750 0.812500
vt 0.343750 0.750000
vt 0.343750 0.687500
vt 0.343750 0.625000
vt 0.343750 0.562500
vt 0.343750 0.500000
vt 0.343750 0.437500
vt 0.343750 0.375000
vt 0.343750 0.312500
vt 0.343750 0.250000
vt 0.343750 0.187500
vt 0.343750 0.125000
vt 0.343750 0.062500
vt 0.312500 0.937500
vt 0.312500 0.875000
vt 0.312500 0.812500
vt 0.312500 0.750000
vt 0.312500 0.687500
vt 0.312500 0.625000
vt 0.312500 0.562500
vt 0.312500 0.500000
vt 0.312500 0.437500
vt 0.312500 0.375000
vt 0.312500 0.312500
vt 0.312500 0.250000
vt 0.312500 0.187500
vt 0.312500 0.125000
vt 0.312500 0.062500
vt 0.281250 0.937500
vt 0.281250 0.875000
vt 0.281250 0.812500
vt 0.281250 0.750000
vt 0.281250 0.687500
vt 0.281250 0.625000
vt 0.281250 0.562500
vt 0.281250 0.500000
vt 0.281250 0.437500
vt 0.281250 0.375000
vt 0.281250 0.312500
vt 0.281250 0.250000
vt 0.281250 0.187500
vt 0.281250 0.125000
vt 0.281250 0.062500
vt 0.250000 0.937500
vt 0.250000 0.875000
vt 0.250000 0.812500
vt 0.250000 0.750000
vt 0.250000 0.687500
vt 0.250000 0.625000
vt 0.250000 0.562500
vt 0.250000 0.500000
vt 0.250000 0.437500
vt 0.250000 0.375000
vt 0.250000 0.312500
vt 0.250000 0.250000
vt 0.250000 0.187500
vt 0.250000 0.125000
vt 0.250000 0.062500
vt 0.218750 0.937500
vt 0.218750 0.875000
vt 0.218750 0.812500
vt 0.218750 0.750000
vt 0.218750 0.687500
vt 0.218750 0.625000
vt 0.218750 0.562500
vt 0.218750 0.500000
vt 0.218750 0.437500
vt 0.218750 0.375000
vt 0.218750 0.312500
vt 0.218750 0.250000
vt 0.218750 0.187500
vt 0.218750 0.125000
vt 0.218750 0.062500
vt 0.187500 0.937500
vt 0.187500 0.875000
vt 0.187500 0.812500
vt 0.187500 0.750000
vt 0.187500 0.687500
vt 0.187500 0.625000
vt 0.187500 0.562500
vt 0.187500 0.500000
vt 0.187500 0.437500
vt 0.187500 0.375000
vt 0.187500 0.312500
vt 0.187500 0.250000
vt 0.187500 0.187500
vt 0.187500 0.125000
vt 0.187500 0.062500
vt 0.156250 0.937500
vt 0.156250 0.875000
vt 0.156250 0.812500
vt 0.156250 0.750000
vt 0.156250 0.687500
vt 0.156250 0.625000
vt 0.156250 0.562500
vt 0.156250 0.500000
vt 0.156250 0.437500
vt 0.156250 0.375000
vt 0.156250 0.312500
vt 0.156250 0.250000
vt 0.156250 0.187500
vt 0.156250 0.125000
vt 0.156250 0.062500
vt 0.125000 0.937500
vt 0.125000 0.875000
vt 0.125000 0.812500
vt 0.125000 0.750000
vt 0.125000 0.687500
vt 0.125000 0.625000
vt 0.125000 0.562500
vt 0.125000 0.500000
vt 0.125000 0.437500
vt 0.125000 0.375000
vt 0.125000 0.312500
vt 0.125000 0.250000
vt 0.125000 0.187500
vt 0.125000 0.125000
vt 0.125000 0.062500
vt 0.734375 0.000000
vt 0.703125 0.000000
vt 0.671875 0.000000
vt 0.640625 0.000000
vt 0.609375 0.000000
vt 0.578125 0.000000
vt 0.546875 0.000000
vt 0.515625 0.000000
vt 0.484375 0.000000
vt 0.453125 0.000000
vt 0.421875 0.000000
vt 0.390625 0.000000
vt 0.359375 0.000000
vt 0.328125 0.000000
vt 0.296875 0.000000
vt 0.265625 0.000000
vt 0.234375 0.000000
vt 0.203125 0.000000
vt 0.171875 0.000000
vt 0.140625 0.000000
vt 0.109375 0.000000
vt 0.078125 0.000000
vt 0.046875 0.000000
vt 0.015625 0.000000
vt 0.984375 0.000000
vt 0.953125 0.000000
vt 0.921875 0.000000
vt 0.890625 0.000000
vt 0.859375 0.000000
vt 0.828125 0.000000
vt 0.796875 0.000000
vt 0.765625 0.000000
vt 0.093750 0.937500
vt 0.093750 0.875000
vt 0.093750 0.812500
vt 0.093750 0.750000
vt 0.093750 0.687500
vt 0.093750 0.625000
vt 0.093750 0.562500
vt 0.093750 0.500000
vt 0.093750 0.437500
vt 0.093750 0.375000
vt 0.093750 0.312500
vt 0.093750 0.250000
vt 0.093750 0.187500
vt 0.093750 0.125000
vt 0.093750 0.062500
vt 0.062500 0.937500
vt 0.062500 0.875000
vt 0.062500 0.812500
vt 0.062500 0.750000
vt 0.062500 0.687500
vt 0.062500 0.625000
vt 0.062500 0.562500
vt 0.062500 0.500000
vt 0.062500 0.437500
vt 0.062500 0.375000
vt 0.062500 0.312500
vt 0.062500 0.250000
vt 0.062500 0.187500
vt 0.062500 0.125000
vt 0.062500 0.062500
vt 0.031250 0.937500
vt 0.031250 0.875000
vt 0.031250 0.812500
vt 0.031250 0.750000
vt 0.031250 0.687500
vt 0.031250 0.625000
vt 0.031250 0.562500
vt 0.031250 0.500000
vt 0.031250 0.437500
vt 0.031250 0.375000
vt 0.031250 0.312500
vt 0.031250 0.250000
vt 0.031250 0.187500
vt 0.031250 0.125000
vt 0.031250 0.062500
vt 0.000000 0.937500
vt 1.000000 0.937500
vt 0.000000 0.875000
vt 1.000000 0.875000
vt 0.000000 0.812500
vt 1.000000 0.812500
vt 0.000000 0.750000
vt 1.000000 0.750000
vt 0.000000 0.687500
vt 1.000000 0.687500
vt 0.000000 0.625000
vt 1.000000 0.625000
vt 0.000000 0.562500
vt 1.000000 0.562500
vt 0.000000 0.500000
vt 1.000000 0.500000
vt 0.000000 0.437500
vt 1.000000 0.437500
vt 0.000000 0.375000
vt 1.000000 0.375000
vt 0.000000 0.312500
vt 1.000000 0.312500
vt 0.000000 0.250000
vt 1.000000 0.250000
vt 0.000000 0.187500
vt 1.000000 0.187500
vt 0.000000 0.125000
vt 1.000000 0.125000
vt 0.000000 0.062500
vt 1.000000 0.062500
vt 0.968750 0.937500
vt 0.968750 0.875000
vt 0.968750 0.812500
vt 0.968750 0.750000
vt 0.968750 0.687500
vt 0.968750 0.625000
vt 0.968750 0.562500
vt 0.968750 0.500000
vt 0.968750 0.437500
vt 0.968750 0.375000
vt 0.968750 0.312500
vt 0.968750 0.250000
vt 0.968750 0.187500
vt 0.968750 0.125000
vt 0.968750 0.062500
vt 0.937500 0.937500
vt 0.937500 0.875000
vt 0.937500 0.812500
vt 0.937500 0.750000
vt 0.937500 0.687500
vt 0.937500 0.625000
vt 0.937500 0.562500
vt 0.937500 0.500000
vt 0.937500 0.437500
vt 0.937500 0.375000
vt 0.937500 0.312500
vt 0.937500 0.250000
vt 0.937500 0.187500
vt 0.937500 0.125000
vt 0.937500 0.062500
vt 0.906250 0.937500
vt 0.906250 0.875000
vt 0.906250 0.812500
vt 0.906250 0.750000
vt 0.906250 0.687500
vt 0.906250 0.625000
vt 0.906250 0.562500
vt 0.906250 0.500000
vt 0.906250 0.437500
vt 0.906250 0.375000
vt 0.906250 0.312500
vt 0.906250 0.250000
vt 0.906250 0.187500
vt 0.906250 0.125000
vt 0.906250 0.062500
vt 0.875000 0.937500
vt 0.875000 0.875000
vt 0.875000 0.812500
vt 0.875000 0.750000
vt 0.875000 0.687500
vt 0.875000 0.625000
vt 0.875000 0.562500
vt 0.875000 0.500000
vt 0.875000 0.437500
vt 0.875000 0.375000
vt 0.875000 0.312500
vt 0.875000 0.250000
vt 0.875000 0.187500
vt 0.875000 0.125000
vt 0.875000 0.062500
vt 0.843750 0.937500
vt 0.843750 0.875000
vt 0.843750 0.812500
vt 0.843750 0.750000
vt 0.843750 0.687500
vt 0.843750 0.625000
vt 0.843750 0.562500
vt 0.843750 0.500000
vt 0.843750 0.437500
vt 0.843750 0.375000
vt 0.843750 0.312500
vt 0.843750 0.250000
vt 0.843750 0.187500
vt 0.843750 0.125000
vt 0.843750 0.062500
vt 0.812500 0.937500
vt 0.812500 0.875000
vt 0.812500 0.812500
vt 0.812500 0.750000
vt 0.812500 0.687500
vt 0.812500 0.625000
vt 0.812500 0.562500
vt 0.812500 0.500000
vt 0.812500 0.437500
vt 0.812500 0.375000
vt 0.812500 0.312500
vt 0.812500 0.250000
vt 0.812500 0.187500
vt 0.812500 0.125000
vt 0.812500 0.062500
vt 0.781250 0.937500
vt 0.781250 0.875000
vt 0.781250 0.812500
vt 0.781250 0.750000
vt 0.781250 0.687500
vt 0.781250 0.625000
vt 0.781250 0.562500
vt 0.781250 0.500000
vt 0.781250 0.437500
vt 0.781250 0.375000
vt 0.781250 0.312500
vt 0.781250 0.250000
vt 0.781250 0.187500
vt 0.781250 0.125000
vt 0.781250 0.062500
vt 0.750000 0.937500
vt 0.750000 0.875000
vt 0.750000 0.750000
vt 0.750000 0.625000
vt 0.750000 0.375000
vt 0.750000 0.250000
vt 0.750000 0.187500
vt 0.750000 0.125000
vt 0.750000 0.062500
vt 0.750000 0.468750
vt 0.718750 0.468750
vt 0.687500 0.468750
vt 0.656250 0.468750
vt 0.625000 0.468750
vt 0.593750 0.468750
vt 0.562500 0.468750
vt 0.531250 0.468750
vt 0.500000 0.468750
vt 0.468750 0.468750
vt 0.437500 0.468750
vt 0.406250 0.468750
vt 0.375000 0.468750
vt 0.343750 0.468750
vt 0.312500 0.468750
vt 0.281250 0.468750
vt 0.250000 0.468750
vt 0.218750 0.468750
vt 0.187500 0.468750
vt 0.156250 0.468750
vt 0.125000 0.468750
vt 0.093750 0.468750
vt 0.062500 0.468750
vt 0.031250 0.468750
vt 1.000000 0.468750
vt 0.000000 0.468750
vt 0.968750 0.468750
vt 0.937500 0.468750
vt 0.906250 0.468750
vt 0.875000 0.468750
vt 0.843750 0.468750
vt 0.812500 0.468750
vt 0.781250 0.468750
vt 0.750000 0.500000
vt 0.718750 0.500000
vt 0.687500 0.500000
vt 0.656250 0.500000
vt 0.625000 0.500000
vt 0.593750 0.500000
vt 0.562500 0.500000
vt 0.531250 0.500000
vt 0.500000 0.500000
vt 0.468750 0.500000
vt 0.437500 0.500000
vt 0.406250 0.500000
vt 0.375000 0.500000
vt 0.343750 0.500000
vt 0.312500 0.500000
vt 0.281250 0.500000
vt 0.250000 0.500000
vt 0.218750 0.500000
vt 0.187500 0.500000
vt 0.156250 0.500000
vt 0.125000 0.500000
vt 0.093750 0.500000
vt 0.062500 0.500000
vt 0.031250 0.500000
vt 0.000000 0.500000
vt 1.000000 0.500000
vt 0.968750 0.500000
vt 0.937500 0.500000
vt 0.906250 0.500000
vt 0.875000 0.500000
vt 0.843750 0.500000
vt 0.812500 0.500000
vt 0.781250 0.500000
vt 0.750000 0.468750
vt 0.718750 0.468750
vt 0.687500 0.468750
vt 0.656250 0.468750
vt 0.625000 0.468750
vt 0.593750 0.468750
vt 0.562500 0.468750
vt 0.531250 0.468750
vt 0.500000 0.468750
vt 0.468750 0.468750
vt 0.437500 0.468750
vt 0.406250 0.468750
vt 0.375000 0.468750
vt 0.343750 0.468750
vt 0.312500 0.468750
vt 0.281250 0.468750
vt 0.250000 0.468750
vt 0.218750 0.468750
vt 0.187500 0.468750
vt 0.156250 0.468750
vt 0.125000 0.468750
vt 0.093750 0.468750
vt 0.062500 0.468750
vt 0.031250 0.468750
vt 0.000000 0.468750
vt 1.000000 0.468750
vt 0.968750 0.468750
vt 0.937500 0.468750
vt 0.906250 0.468750
vt 0.875000 0.468750
vt 0.843750 0.468750
vt 0.812500 0.468750
vt 0.781250 0.468750
s 0
f 1/1/1 10/10/1 476/553/1
f 479/556/2 17/17/2 18/18/2
f 476/553/3 11/11/3 2/2/3
f 480/557/4 18/18/4 19/19/4
f 2/2/5 12/12/5 477/554/5
f 481/558/6 19/19/6 20/20/6
f 477/554/7 13/13/7 3/3/7
f 482/559/8 20/20/8 21/21/8
f 3/3/9 14/14/9 4/4/9
f 474/551/10 82/82/10 7/7/10
f 308/339/11 482/559/11 21/21/11
f 376/453/12 541/620/12 540/619/12
f 474/551/13 8/8/13 475/552/13
f 478/555/14 15/15/14 16/16/14
f 475/552/15 9/9/15 1/1/15
f 6/6/16 16/16/16 17/17/16
f 8/8/17 24/24/17 9/9/17
f 17/17/18 31/31/18 32/32/18
f 9/9/19 25/25/19 10/10/19
f 18/18/20 32/32/20 33/33/20
f 10/10/21 26/26/21 11/11/21
f 19/19/22 33/33/22 34/34/22
f 11/11/23 27/27/23 12/12/23
f 20/20/24 34/34/24 35/35/24
f 12/12/25 28/28/25 13/13/25
f 21/21/26 35/35/26 36/36/26
f 13/13/27 29/29/27 14/14/27
f 7/7/28 82/83/28 22/22/28
f 308/340/29 21/21/29 36/36/29
f 504/581/30 567/646/30 568/647/30
f 7/7/31 23/23/31 8/8/31
f 16/16/32 30/30/32 31/31/32
f 27/27/33 43/43/33 28/28/33
f 36/36/34 50/50/34 51/51/34
f 28/28/35 44/44/35 29/29/35
f 22/22/36 82/84/36 37/37/36
f 308/341/37 36/36/37 51/51/37
f 300/331/38 534/612/38 285/316/38
f 22/22/39 38/38/39 23/23/39
f 31/31/40 45/45/40 46/46/40
f 23/23/41 39/39/41 24/24/41
f 32/32/42 46/46/42 47/47/42
f 24/24/43 40/40/43 25/25/43
f 33/33/44 47/47/44 48/48/44
f 25/25/45 41/41/45 26/26/45
f 34/34/46 48/48/46 49/49/46
f 26/26/47 42/42/47 27/27/47
f 35/35/48 49/49/48 50/50/48
f 47/47/49 61/61/49 62/62/49
f 39/39/50 55/55/50 40/40/50
f 48/48/51 62/62/51 63/63/51
f 40/40/52 56/56/52 41/41/52
f 49/49/53 63/63/53 64/64/53
f 41/41/54 57/57/54 42/42/54
f 50/50/55 64/64/55 65/65/55
f 42/42/56 58/58/56 43/43/56
f 51/51/57 65/65/57 66/66/57
f 43/43/58 59/59/58 44/44/58
f 37/37/59 82/85/59 52/52/59
f 308/342/60 51/51/60 66/66/60
f 505/582/61 568/647/61 569/648/61
f 37/37/62 53/53/62 38/38/62
f 46/46/63 60/60/63 61/61/63
f 38/38/64 54/54/64 39/39/64
f 66/66/65 80/80/65 81/81/65
f 58/58/66 74/74/66 59/59/66
f 52/52/67 82/86/67 67/67/67
f 308/343/68 66/66/68 81/81/68
f 255/286/69 531/609/69 240/271/69
f 52/52/70 68/68/70 53/53/70
f 61/61/71 75/75/71 76/76/71
f 53/53/72 69/69/72 54/54/72
f 62/62/73 76/76/73 77/77/73
f 54/54/74 70/70/74 55/55/74
f 63/63/75 77/77/75 78/78/75
f 55/55/76 71/71/76 56/56/76
f 64/64/77 78/78/77 79/79/77
f 56/56/78 72/72/78 57/57/78
f 65/65/79 79/79/79 80/80/79
f 57/57/80 73/73/80 58/58/80
f 69/69/81 86/117/81 70/70/81
f 78/78/82 93/124/82 94/125/82
f 70/70/83 87/118/83 71/71/83
f 79/79/84 94/125/84 95/126/84
f 71/71/85 88/119/85 72/72/85
f 80/80/86 95/126/86 96/127/86
f 72/72/87 89/120/87 73/73/87
f 81/81/88 96/127/88 97/128/88
f 73/73/89 90/121/89 74/74/89
f 67/67/90 82/87/90 83/114/90
f 308/344/91 81/81/91 97/128/91
f 506/583/92 569/648/92 570/649/92
f 67/67/93 84/115/93 68/68/93
f 76/76/94 91/122/94 92/123/94
f 68/68/95 85/116/95 69/69/95
f 77/77/96 92/123/96 93/124/96
f 89/120/97 105/136/97 90/121/97
f 83/114/98 82/88/98 98/129/98
f 308/345/99 97/128/99 112/143/99
f 421/498/100 544/623/100 543/622/100
f 83/114/101 99/130/101 84/115/101
f 92/123/102 106/137/102 107/138/102
f 84/115/103 100/131/103 85/116/103
f 93/124/104 107/138/104 108/139/104
f 85/116/105 101/132/105 86/117/105
f 94/125/106 108/139/106 109/140/106
f 86/117/107 102/133/107 87/118/107
f 95/126/108 109/140/108 110/141/108
f 87/118/109 103/134/109 88/119/109
f 96/127/110 110/141/110 111/142/110
f 88/119/111 104/135/111 89/120/111
f 97/128/112 111/142/112 112/143/112
f 109/140/113 123/154/113 124/155/113
f 101/132/114 117/148/114 102/133/114
f 110/141/115 124/155/115 125/156/115
f 102/133/116 118/149/116 103/134/116
f 111/142/117 125/156/117 126/157/117
f 103/134/118 119/150/118 104/135/118
f 112/143/119 126/157/119 127/158/119
f 104/135/120 120/151/120 105/136/120
f 98/129/121 82/89/121 113/144/121
f 308/346/122 112/143/122 127/158/122
f 120/151/123 522/600/123 105/136/123
f 98/129/124 114/145/124 99/130/124
f 107/138/125 121/152/125 122/153/125
f 99/130/126 115/146/126 100/131/126
f 108/139/127 122/153/127 123/154/127
f 100/131/128 116/147/128 101/132/128
f 308/347/129 127/158/129 142/173/129
f 507/585/130 570/649/130 571/650/130
f 114/145/131 128/159/131 129/160/131
f 121/152/132 137/168/132 122/153/132
f 115/146/133 129/160/133 130/161/133
f 122/153/134 138/169/134 123/154/134
f 116/147/135 130/161/135 131/162/135
f 123/154/136 139/170/136 124/155/136
f 117/148/137 131/162/137 132/163/137
f 124/155/138 140/171/138 125/156/138
f 118/149/139 132/163/139 133/164/139
f 125/156/140 141/172/140 126/157/140
f 119/150/141 133/164/141 134/165/141
f 126/157/142 142/173/142 127/158/142
f 120/151/143 134/165/143 135/166/143
f 113/144/144 82/90/144 128/159/144
f 139/170/145 155/186/145 140/171/145
f 133/164/146 147/178/146 148/179/146
f 140/171/147 156/187/147 141/172/147
f 134/165/148 148/179/148 149/180/148
f 141/172/149 157/188/149 142/173/149
f 135/166/150 149/180/150 150/181/150
f 128/159/151 82/91/151 143/174/151
f 308/348/152 142/173/152 157/188/152
f 507/584/153 572/652/153 508/586/153
f 129/160/154 143/174/154 144/175/154
f 136/167/155 152/183/155 137/168/155
f 130/161/156 144/175/156 145/176/156
f 137/168/157 153/184/157 138/169/157
f 131/162/158 145/176/158 146/177/158
f 138/169/159 154/185/159 139/170/159
f 132/163/160 146/177/160 147/178/160
f 144/175/161 158/189/161 159/190/161
f 151/182/162 167/198/162 152/183/162
f 145/176/163 159/190/163 160/191/163
f 152/183/164 168/199/164 153/184/164
f 146/177/165 160/191/165 161/192/165
f 153/184/166 169/200/166 154/185/166
f 147/178/167 161/192/167 162/193/167
f 154/185/168 170/201/168 155/186/168
f 148/179/169 162/193/169 163/194/169
f 155/186/170 171/202/170 156/187/170
f 149/180/171 163/194/171 164/195/171
f 156/187/172 172/203/172 157/188/172
f 150/181/173 164/195/173 165/196/173
f 143/174/174 82/92/174 158/189/174
f 308/349/175 157/188/175 172/203/175
f 361/430/176 538/616/176 346/408/176
f 163/194/177 177/208/177 178/209/177
f 170/201/178 186/217/178 171/202/178
f 164/195/179 178/209/179 179/210/179
f 171/202/180 187/218/180 172/203/180
f 165/196/181 179/210/181 180/211/181
f 158/189/182 82/93/182 173/204/182
f 308/350/183 172/203/183 187/218/183
f 391/468/184 542/621/184 541/620/184
f 159/190/185 173/204/185 174/205/185
f 166/197/186 182/213/186 167/198/186
f 160/191/187 174/205/187 175/206/187
f 167/198/188 183/214/188 168/199/188
f 161/192/189 175/206/189 176/207/189
f 168/199/190 184/215/190 169/200/190
f 162/193/191 176/207/191 177/208/191
f 169/200/192 185/216/192 170/201/192
f 181/212/193 197/228/193 182/213/193
f 175/206/194 189/220/194 190/221/194
f 182/213/195 198/229/195 183/214/195
f 176/207/196 190/221/196 191/222/196
f 183/214/197 199/230/197 184/215/197
f 177/208/198 191/222/198 192/223/198
f 184/215/199 200/231/199 185/216/199
f 178/209/200 192/223/200 193/224/200
f 185/216/201 201/232/201 186/217/201
f 179/210/202 193/224/202 194/225/202
f 186/217/203 202/233/203 187/218/203
f 180/211/204 194/225/204 195/226/204
f 173/204/205 82/94/205 188/219/205
f 308/351/206 187/218/206 202/233/206
f 508/586/207 573/653/207 509/587/207
f 174/205/208 188/219/208 189/220/208
f 200/231/209 216/247/209 201/232/209
f 194/225/210 208/239/210 209/240/210
f 201/232/211 217/248/211 202/233/211
f 195/226/212 209/240/212 210/241/212
f 188/219/213 82/95/213 203/234/213
f 308/352/214 202/233/214 217/248/214
f 509/587/215 574/654/215 510/588/215
f 189/220/216 203/234/216 204/235/216
f 196/227/217 212/243/217 197/228/217
f 190/221/218 204/235/218 205/236/218
f 197/228/219 213/244/219 198/229/219
f 191/222/220 205/236/220 206/237/220
f 198/229/221 214/245/221 199/230/221
f 192/223/222 206/237/222 207/238/222
f 199/230/223 215/246/223 200/231/223
f 193/224/224 207/238/224 208/239/224
f 205/236/225 219/250/225 220/251/225
f 212/243/226 228/259/226 213/244/226
f 206/237/227 220/251/227 221/252/227
f 213/244/228 229/260/228 214/245/228
f 207/238/229 221/252/229 222/253/229
f 214/245/230 230/261/230 215/246/230
f 208/239/231 222/253/231 223/254/231
f 215/246/232 231/262/232 216/247/232
f 209/240/233 223/254/233 224/255/233
f 216/247/234 232/263/234 217/248/234
f 210/241/235 224/255/235 225/256/235
f 203/234/236 82/96/236 218/249/236
f 308/353/237 217/248/237 232/263/237
f 484/561/238 547/626/238 548/627/238
f 204/235/239 218/249/239 219/250/239
f 211/242/240 227/258/240 212/243/240
f 224/255/241 238/269/241 239/270/241
f 231/262/242 247/278/242 232/263/242
f 225/256/243 239/270/243 240/271/243
f 218/249/244 82/97/244 233/264/244
f 308/354/245 232/263/245 247/278/245
f 210/241/246 530/608/246 529/607/246
f 219/250/247 233/264/247 234/265/247
f 226/257/248 242/273/248 227/258/248
f 220/251/249 234/265/249 235/266/249
f 227/258/250 243/274/250 228/259/250
f 221/252/251 235/266/251 236/267/251
f 228/259/252 244/275/252 229/260/252
f 222/253/253 236/267/253 237/268/253
f 229/260/254 245/276/254 230/261/254
f 223/254/255 237/268/255 238/269/255
f 230/261/256 246/277/256 231/262/256
f 243/274/257 257/288/257 258/289/257
f 235/266/258 251/282/258 236/267/258
f 244/275/259 258/289/259 259/290/259
f 236/267/260 252/283/260 237/268/260
f 245/276/261 259/290/261 260/291/261
f 237/268/262 253/284/262 238/269/262
f 246/277/263 260/291/263 261/292/263
f 238/269/264 254/285/264 239/270/264
f 247/278/265 261/292/265 262/293/265
f 239/270/266 255/286/266 240/271/266
f 233/264/267 82/98/267 248/279/267
f 308/355/268 247/278/268 262/293/268
f 120/151/269 524/602/269 523/601/269
f 233/264/270 249/280/270 234/265/270
f 242/273/271 256/287/271 257/288/271
f 234/265/272 250/281/272 235/266/272
f 262/293/273 276/307/273 277/308/273
f 254/285/274 270/301/274 255/286/274
f 248/279/275 82/99/275 263/294/275
f 308/356/276 262/293/276 277/308/276
f 510/588/277 575/655/277 511/589/277
f 248/279/278 264/295/278 249/280/278
f 257/288/279 271/302/279 272/303/279
f 249/280/280 265/296/280 250/281/280
f 258/289/281 272/303/281 273/304/281
f 250/281/282 266/297/282 251/282/282
f 259/290/283 273/304/283 274/305/283
f 251/282/284 267/298/284 252/283/284
f 260/291/285 274/305/285 275/306/285
f 252/283/286 268/299/286 253/284/286
f 261/292/287 275/306/287 276/307/287
f 253/284/288 269/300/288 254/285/288
f 274/305/289 288/319/289 289/320/289
f 266/297/290 282/313/290 267/298/290
f 275/306/291 289/320/291 290/321/291
f 267/298/292 283/314/292 268/299/292
f 276/307/293 290/321/293 291/322/293
f 268/299/294 284/315/294 269/300/294
f 277/308/295 291/322/295 292/323/295
f 269/300/296 285/316/296 270/301/296
f 263/294/297 82/100/297 278/309/297
f 308/357/298 277/308/298 292/323/298
f 485/562/299 548/627/299 549/628/299
f 263/294/300 279/310/300 264/295/300
f 272/303/301 286/317/301 287/318/301
f 264/295/302 280/311/302 265/296/302
f 273/304/303 287/318/303 288/319/303
f 265/296/304 281/312/304 266/297/304
f 278/309/305 82/101/305 293/324/305
f 308/358/306 292/323/306 307/338/306
f 90/121/307 520/598/307 74/74/307
f 278/309/308 294/325/308 279/310/308
f 287/318/309 301/332/309 302/333/309
f 279/310/310 295/326/310 280/311/310
f 288/319/311 302/333/311 303/334/311
f 280/311/312 296/327/312 281/312/312
f 289/320/313 303/334/313 304/335/313
f 281/312/314 297/328/314 282/313/314
f 290/321/315 304/335/315 305/336/315
f 282/313/316 298/329/316 283/314/316
f 291/322/317 305/336/317 306/337/317
f 283/314/318 299/330/318 284/315/318
f 292/323/319 306/337/319 307/338/319
f 284/315/320 300/331/320 285/316/320
f 296/327/321 313/375/321 297/328/321
f 305/336/322 320/382/322 321/383/322
f 297/328/323 314/376/323 298/329/323
f 306/337/324 321/383/324 322/384/324
f 298/329/325 315/377/325 299/330/325
f 307/338/326 322/384/326 323/385/326
f 299/330/327 316/378/327 300/331/327
f 293/324/328 82/102/328 309/371/328
f 308/359/329 307/338/329 323/385/329
f 270/301/330 532/610/330 255/286/330
f 293/324/331 310/372/331 294/325/331
f 302/333/332 317/379/332 318/380/332
f 294/325/333 311/373/333 295/326/333
f 303/334/334 318/380/334 319/381/334
f 295/326/335 312/374/335 296/327/335
f 304/335/336 319/381/336 320/382/336
f 511/589/337 576/656/337 512/590/337
f 309/371/338 325/387/338 310/372/338
f 318/380/339 332/394/339 333/395/339
f 310/372/340 326/388/340 311/373/340
f 319/381/341 333/395/341 334/396/341
f 311/373/342 327/389/342 312/374/342
f 320/382/343 334/396/343 335/397/343
f 312/374/344 328/390/344 313/375/344
f 321/383/345 335/397/345 336/398/345
f 313/375/346 329/391/346 314/376/346
f 322/384/347 336/398/347 337/399/347
f 314/376/348 330/392/348 315/377/348
f 323/385/349 337/399/349 338/400/349
f 315/377/350 331/393/350 316/378/350
f 309/371/351 82/103/351 324/386/351
f 308/360/352 323/385/352 338/400/352
f 336/398/353 350/412/353 351/413/353
f 328/390/354 344/406/354 329/391/354
f 337/399/355 351/413/355 352/414/355
f 329/391/356 345/407/356 330/392/356
f 338/400/357 352/414/357 353/415/357
f 330/392/358 346/408/358 331/393/358
f 324/386/359 82/104/359 339/401/359
f 308/361/360 338/400/360 353/415/360
f 486/563/361 549/628/361 550/629/361
f 324/386/362 340/402/362 325/387/362
f 333/395/363 347/409/363 348/410/363
f 325/387/364 341/403/364 326/388/364
f 334/396/365 348/410/365 349/411/365
f 326/388/366 342/404/366 327/389/366
f 335/397/367 349/411/367 350/412/367
f 327/389/368 343/405/368 328/390/368
f 339/401/369 355/418/369 340/402/369
f 348/410/370 362/432/370 363/434/370
f 340/402/371 356/420/371 341/403/371
f 349/411/372 363/434/372 364/436/372
f 341/403/373 357/422/373 342/404/373
f 350/412/374 364/436/374 365/438/374
f 342/404/375 358/424/375 343/405/375
f 351/413/376 365/438/376 366/440/376
f 343/405/377 359/426/377 344/406/377
f 352/414/378 366/440/378 367/442/378
f 344/406/379 360/428/379 345/407/379
f 353/415/380 367/442/380 368/444/380
f 345/407/381 361/430/381 346/408/381
f 339/401/382 82/105/382 354/416/382
f 308/362/383 353/415/383 368/444/383
f 512/590/384 577/657/384 513/591/384
f 359/427/385 373/450/385 374/451/385
f 366/441/386 382/459/386 367/443/386
f 360/429/387 374/451/387 375/452/387
f 367/443/388 383/460/388 368/445/388
f 361/431/389 375/452/389 376/453/389
f 354/417/390 82/106/390 369/446/390
f 308/363/391 368/445/391 383/460/391
f 487/564/392 550/629/392 551/630/392
f 355/419/393 369/446/393 370/447/393
f 362/433/394 378/455/394 363/435/394
f 356/421/395 370/447/395 371/448/395
f 363/435/396 379/456/396 364/437/396
f 357/423/397 371/448/397 372/449/397
f 364/437/398 380/457/398 365/439/398
f 358/425/399 372/449/399 373/450/399
f 365/439/400 381/458/400 366/441/400
f 377/454/401 393/470/401 378/455/401
f 371/448/402 385/462/402 386/463/402
f 378/455/403 394/471/403 379/456/403
f 372/449/404 386/463/404 387/464/404
f 379/456/405 395/472/405 380/457/405
f 373/450/406 387/464/406 388/465/406
f 380/457/407 396/473/407 381/458/407
f 374/451/408 388/465/408 389/466/408
f 381/458/409 397/474/409 382/459/409
f 375/452/410 389/466/410 390/467/410
f 382/459/411 398/475/411 383/460/411
f 376/453/412 390/467/412 391/468/412
f 369/446/413 82/107/413 384/461/413
f 308/364/414 383/460/414 398/475/414
f 361/431/415 540/619/415 539/618/415
f 370/447/416 384/461/416 385/462/416
f 396/473/417 412/489/417 397/474/417
f 390/467/418 404/481/418 405/482/418
f 397/474/419 413/490/419 398/475/419
f 391/468/420 405/482/420 406/483/420
f 384/461/421 82/108/421 399/476/421
f 308/365/422 398/475/422 413/490/422
f 513/591/423 578/658/423 514/592/423
f 385/462/424 399/476/424 400/477/424
f 392/469/425 408/485/425 393/470/425
f 386/463/426 400/477/426 401/478/426
f 393/470/427 409/486/427 394/471/427
f 387/464/428 401/478/428 402/479/428
f 394/471/429 410/487/429 395/472/429
f 388/465/430 402/479/430 403/480/430
f 395/472/431 411/488/431 396/473/431
f 389/466/432 403/480/432 404/481/432
f 408/485/433 424/501/433 409/486/433
f 402/479/434 416/493/434 417/494/434
f 409/486/435 425/502/435 410/487/435
f 403/480/436 417/494/436 418/495/436
f 410/487/437 426/503/437 411/488/437
f 404/481/438 418/495/438 419/496/438
f 411/488/439 427/504/439 412/489/439
f 405/482/440 419/496/440 420/497/440
f 412/489/441 428/505/441 413/490/441
f 406/483/442 420/497/442 421/498/442
f 399/476/443 82/109/443 414/491/443
f 308/366/444 413/490/444 428/505/444
f 488/565/445 551/630/445 552/631/445
f 400/477/446 414/491/446 415/492/446
f 407/484/447 423/500/447 408/485/447
f 401/478/448 415/492/448 416/493/448
f 427/504/449 443/520/449 428/505/449
f 421/498/450 435/512/450 436/513/450
f 414/491/451 82/110/451 429/506/451
f 308/367/452 428/505/452 443/520/452
f 514/592/453 547/626/453 483/560/453
f 415/492/454 429/506/454 430/507/454
f 422/499/455 438/515/455 423/500/455
f 416/493/456 430/507/456 431/508/456
f 423/500/457 439/516/457 424/501/457
f 417/494/458 431/508/458 432/509/458
f 424/501/459 440/517/459 425/502/459
f 418/495/460 432/509/460 433/510/460
f 425/502/461 441/518/461 426/503/461
f 419/496/462 433/510/462 434/511/462
f 426/503/463 442/519/463 427/504/463
f 420/497/464 434/511/464 435/512/464
f 432/509/465 446/523/465 447/524/465
f 439/516/466 455/532/466 440/517/466
f 433/510/467 447/524/467 448/525/467
f 440/517/468 456/533/468 441/518/468
f 434/511/469 448/525/469 449/526/469
f 441/518/470 457/534/470 442/519/470
f 435/512/471 449/526/471 450/527/471
f 442/519/472 458/535/472 443/520/472
f 436/513/473 450/527/473 451/528/473
f 429/506/474 82/111/474 444/521/474
f 308/368/475 443/520/475 458/535/475
f 180/211/476 528/606/476 527/605/476
f 430/507/477 444/521/477 445/522/477
f 437/514/478 453/530/478 438/515/478
f 431/508/479 445/522/479 446/523/479
f 438/515/480 454/531/480 439/516/480
f 451/528/481 465/542/481 466/543/481
f 444/521/482 82/112/482 459/536/482
f 308/369/483 458/535/483 473/550/483
f 489/566/484 552/631/484 553/632/484
f 445/522/485 459/536/485 460/537/485
f 452/529/486 468/545/486 453/530/486
f 446/523/487 460/537/487 461/538/487
f 453/530/488 469/546/488 454/531/488
f 447/524/489 461/538/489 462/539/489
f 454/531/490 470/547/490 455/532/490
f 448/525/491 462/539/491 463/540/491
f 455/532/492 471/548/492 456/533/492
f 449/526/493 463/540/493 464/541/493
f 456/533/494 472/549/494 457/534/494
f 450/527/495 464/541/495 465/542/495
f 457/534/496 473/550/496 458/535/496
f 469/546/497 479/556/497 470/547/497
f 463/540/498 476/553/498 2/2/498
f 470/547/499 480/557/499 471/548/499
f 464/541/500 2/2/500 477/554/500
f 471/548/501 481/558/501 472/549/501
f 465/542/502 477/554/502 3/3/502
f 472/549/503 482/559/503 473/550/503
f 466/543/504 3/3/504 4/4/504
f 459/536/505 82/113/505 474/551/505
f 308/370/506 473/550/506 482/559/506
f 225/256/507 531/609/507 530/608/507
f 460/537/508 474/551/508 475/552/508
f 467/544/509 478/555/509 468/545/509
f 461/538/510 475/552/510 1/1/510
f 468/545/511 6/6/511 469/546/511
f 462/539/512 1/1/512 476/553/512
f 514/592/513 5/5/513 467/544/513
f 513/591/514 467/544/514 452/529/514
f 512/590/515 452/529/515 437/514/515
f 511/589/516 437/514/516 422/499/516
f 510/588/517 422/499/517 407/484/517
f 509/587/518 407/484/518 392/469/518
f 508/586/519 392/469/519 377/454/519
f 507/584/520 377/454/520 362/433/520
f 347/409/521 507/585/521 362/432/521
f 332/394/522 506/583/522 347/409/522
f 317/379/523 505/582/523 332/394/523
f 301/332/524 504/581/524 317/379/524
f 286/317/525 503/580/525 301/332/525
f 271/302/526 502/579/526 286/317/526
f 256/287/527 501/578/527 271/302/527
f 241/272/528 500/577/528 256/287/528
f 498/575/529 241/272/529 226/257/529
f 497/574/530 226/257/530 211/242/530
f 496/573/531 211/242/531 196/227/531
f 495/572/532 196/227/532 181/212/532
f 494/571/533 181/212/533 166/197/533
f 493/570/534 166/197/534 151/182/534
f 492/569/535 151/182/535 136/167/535
f 491/568/536 136/167/536 121/152/536
f 106/137/537 491/568/537 121/152/537
f 91/122/538 490/567/538 106/137/538
f 75/75/539 489/566/539 91/122/539
f 60/60/540 488/565/540 75/75/540
f 45/45/541 487/564/541 60/60/541
f 30/30/542 486/563/542 45/45/542
f 15/15/543 485/562/543 30/30/543
f 5/5/544 484/561/544 15/15/544
f 547/626/545 516/594/545 548/627/545
f 548/627/546 517/595/546 549/628/546
f 549/628/547 518/596/547 550/629/547
f 550/629/548 519/597/548 551/630/548
f 551/630/549 520/598/549 552/631/549
f 552/631/550 521/599/550 553/632/550
f 553/632/551 522/600/551 554/633/551
f 554/633/552 523/601/552 555/634/552
f 523/601/553 556/635/553 555/634/553
f 524/602/554 557/636/554 556/635/554
f 525/603/555 558/637/555 557/636/555
f 526/604/556 559/638/556 558/637/556
f 527/605/557 560/639/557 559/638/557
f 528/606/558 561/640/558 560/639/558
f 529/607/559 562/641/559 561/640/559
f 530/608/560 563/642/560 562/641/560
f 563/642/561 532/610/561 564/643/561
f 564/643/562 533/611/562 565/644/562
f 565/644/563 534/612/563 566/645/563
f 566/645/564 535/613/564 567/646/564
f 567/646/565 536/614/565 568/647/565
f 568/647/566 537/615/566 569/648/566
f 569/648/567 538/616/567 570/649/567
f 570/649/568 539/617/568 571/650/568
f 539/618/569 572/652/569 571/651/569
f 540/619/570 573/653/570 572/652/570
f 541/620/571 574/654/571 573/653/571
f 542/621/572 575/655/572 574/654/572
f 543/622/573 576/656/573 575/655/573
f 544/623/574 577/657/574 576/656/574
f 545/624/575 578/658/575 577/657/575
f 546/625/576 547/626/576 578/658/576
f 135/166/577 525/603/577 524/602/577
f 503/580/578 566/645/578 567/646/578
f 451/528/579 546/625/579 545/624/579
f 285/316/580 533/611/580 270/301/580
f 502/579/581 565/644/581 566/645/581
f 501/578/582 564/643/582 565/644/582
f 331/393/583 536/614/583 316/378/583
f 44/44/584 517/595/584 29/29/584
f 406/483/585 543/622/585 542/621/585
f 500/577/586 563/642/586 564/643/586
f 498/575/587 563/642/587 499/576/587
f 165/196/588 527/605/588 526/604/588
f 497/574/589 562/641/589 498/575/589
f 466/543/590 515/593/590 546/625/590
f 14/14/591 515/593/591 4/4/591
f 496/573/592 561/640/592 497/574/592
f 74/74/593 519/597/593 59/59/593
f 316/378/594 535/613/594 300/331/594
f 495/572/595 560/639/595 496/573/595
f 436/513/596 545/624/596 544/623/596
f 29/29/597 516/594/597 14/14/597
f 494/571/598 559/638/598 495/572/598
f 493/570/599 558/637/599 494/571/599
f 195/226/600 529/607/600 528/606/600
f 150/181/601 526/604/601 525/603/601
f 492/569/602 557/636/602 493/570/602
f 105/136/603 521/599/603 90/121/603
f 491/568/604 556/635/604 492/569/604
f 346/408/605 537/615/605 331/393/605
f 491/568/606 554/633/606 555/634/606
f 59/59/607 518/596/607 44/44/607
f 490/567/608 553/632/608 554/633/608
f 1/1/1 9/9/1 10/10/1
f 479/556/2 6/6/2 17/17/2
f 476/553/3 10/10/3 11/11/3
f 480/557/4 479/556/4 18/18/4
f 2/2/5 11/11/5 12/12/5
f 481/558/6 480/557/6 19/19/6
f 477/554/7 12/12/7 13/13/7
f 482/559/8 481/558/8 20/20/8
f 3/3/9 13/13/9 14/14/9
f 376/453/12 391/468/12 541/620/12
f 474/551/13 7/7/13 8/8/13
f 478/555/14 5/5/14 15/15/14
f 475/552/15 8/8/15 9/9/15
f 6/6/16 478/555/16 16/16/16
f 8/8/17 23/23/17 24/24/17
f 17/17/18 16/16/18 31/31/18
f 9/9/19 24/24/19 25/25/19
f 18/18/20 17/17/20 32/32/20
f 10/10/21 25/25/21 26/26/21
f 19/19/22 18/18/22 33/33/22
f 11/11/23 26/26/23 27/27/23
f 20/20/24 19/19/24 34/34/24
f 12/12/25 27/27/25 28/28/25
f 21/21/26 20/20/26 35/35/26
f 13/13/27 28/28/27 29/29/27
f 504/581/30 503/580/30 567/646/30
f 7/7/31 22/22/31 23/23/31
f 16/16/32 15/15/32 30/30/32
f 27/27/33 42/42/33 43/43/33
f 36/36/34 35/35/34 50/50/34
f 28/28/35 43/43/35 44/44/35
f 300/331/38 535/613/38 534/612/38
f 22/22/39 37/37/39 38/38/39
f 31/31/40 30/30/40 45/45/40
f 23/23/41 38/38/41 39/39/41
f 32/32/42 31/31/42 46/46/42
f 24/24/43 39/39/43 40/40/43
f 33/33/44 32/32/44 47/47/44
f 25/25/45 40/40/45 41/41/45
f 34/34/46 33/33/46 48/48/46
f 26/26/47 41/41/47 42/42/47
f 35/35/48 34/34/48 49/49/48
f 47/47/49 46/46/49 61/61/49
f 39/39/50 54/54/50 55/55/50
f 48/48/51 47/47/51 62/62/51
f 40/40/52 55/55/52 56/56/52
f 49/49/53 48/48/53 63/63/53
f 41/41/54 56/56/54 57/57/54
f 50/50/55 49/49/55 64/64/55
f 42/42/56 57/57/56 58/58/56
f 51/51/57 50/50/57 65/65/57
f 43/43/58 58/58/58 59/59/58
f 505/582/61 504/581/61 568/647/61
f 37/37/62 52/52/62 53/53/62
f 46/46/63 45/45/63 60/60/63
f 38/38/64 53/53/64 54/54/64
f 66/66/65 65/65/65 80/80/65
f 58/58/66 73/73/66 74/74/66
f 255/286/69 532/610/69 531/609/69
f 52/52/70 67/67/70 68/68/70
f 61/61/71 60/60/71 75/75/71
f 53/53/72 68/68/72 69/69/72
f 62/62/73 61/61/73 76/76/73
f 54/54/74 69/69/74 70/70/74
f 63/63/75 62/62/75 77/77/75
f 55/55/76 70/70/76 71/71/76
f 64/64/77 63/63/77 78/78/77
f 56/56/78 71/71/78 72/72/78
f 65/65/79 64/64/79 79/79/79
f 57/57/80 72/72/80 73/73/80
f 69/69/81 85/116/81 86/117/81
f 78/78/82 77/77/82 93/124/82
f 70/70/83 86/117/83 87/118/83
f 79/79/84 78/78/84 94/125/84
f 71/71/85 87/118/85 88/119/85
f 80/80/86 79/79/86 95/126/86
f 72/72/87 88/119/87 89/120/87
f 81/81/88 80/80/88 96/127/88
f 73/73/89 89/120/89 90/121/89
f 506/583/92 505/582/92 569/648/92
f 67/67/93 83/114/93 84/115/93
f 76/76/94 75/75/94 91/122/94
f 68/68/95 84/115/95 85/116/95
f 77/77/96 76/76/96 92/123/96
f 89/120/97 104/135/97 105/136/97
f 421/498/100 436/513/100 544/623/100
f 83/114/101 98/129/101 99/130/101
f 92/123/102 91/122/102 106/137/102
f 84/115/103 99/130/103 100/131/103
f 93/124/104 92/123/104 107/138/104
f 85/116/105 100/131/105 101/132/105
f 94/125/106 93/124/106 108/139/106
f 86/117/107 101/132/107 102/133/107
f 95/126/108 94/125/108 109/140/108
f 87/118/109 102/133/109 103/134/109
f 96/127/110 95/126/110 110/141/110
f 88/119/111 103/134/111 104/135/111
f 97/128/112 96/127/112 111/142/112
f 109/140/113 108/139/113 123/154/113
f 101/132/114 116/147/114 117/148/114
f 110/141/115 109/140/115 124/155/115
f 102/133/116 117/148/116 118/149/116
f 111/142/117 110/141/117 125/156/117
f 103/134/118 118/149/118 119/150/118
f 112/143/119 111/142/119 126/157/119
f 104/135/120 119/150/120 120/151/120
f 120/151/123 523/601/123 522/600/123
f 98/129/124 113/144/124 114/145/124
f 107/138/125 106/137/125 121/152/125
f 99/130/126 114/145/126 115/146/126
f 108/139/127 107/138/127 122/153/127
f 100/131/128 115/146/128 116/147/128
f 507/585/130 506/583/130 570/649/130
f 114/145/131 113/144/131 128/159/131
f 121/152/132 136/167/132 137/168/132
f 115/146/133 114/145/133 129/160/133
f 122/153/134 137/168/134 138/169/134
f 116/147/135 115/146/135 130/161/135
f 123/154/136 138/169/136 139/170/136
f 117/148/137 116/147/137 131/162/137
f 124/155/138 139/170/138 140/171/138
f 118/149/139 117/148/139 132/163/139
f 125/156/140 140/171/140 141/172/140
f 119/150/141 118/149/141 133/164/141
f 126/157/142 141/172/142 142/173/142
f 120/151/143 119/150/143 134/165/143
f 139/170/145 154/185/145 155/186/145
f 133/164/146 132/163/146 147/178/146
f 140/171/147 155/186/147 156/187/147
f 134/165/148 133/164/148 148/179/148
f 141/172/149 156/187/149 157/188/149
f 135/166/150 134/165/150 149/180/150
f 507/584/153 571/651/153 572/652/153
f 129/160/154 128/159/154 143/174/154
f 136/167/155 151/182/155 152/183/155
f 130/161/156 129/160/156 144/175/156
f 137/168/157 152/183/157 153/184/157
f 131/162/158 130/161/158 145/176/158
f 138/169/159 153/184/159 154/185/159
f 132/163/160 131/162/160 146/177/160
f 144/175/161 143/174/161 158/189/161
f 151/182/162 166/197/162 167/198/162
f 145/176/163 144/175/163 159/190/163
f 152/183/164 167/198/164 168/199/164
f 146/177/165 145/176/165 160/191/165
f 153/184/166 168/199/166 169/200/166
f 147/178/167 146/177/167 161/192/167
f 154/185/168 169/200/168 170/201/168
f 148/179/169 147/178/169 162/193/169
f 155/186/170 170/201/170 171/202/170
f 149/180/171 148/179/171 163/194/171
f 156/187/172 171/202/172 172/203/172
f 150/181/173 149/180/173 164/195/173
f 361/430/176 539/617/176 538/616/176
f 163/194/177 162/193/177 177/208/177
f 170/201/178 185/216/178 186/217/178
f 164/195/179 163/194/179 178/209/179
f 171/202/180 186/217/180 187/218/180
f 165/196/181 164/195/181 179/210/181
f 391/468/184 406/483/184 542/621/184
f 159/190/185 158/189/185 173/204/185
f 166/197/186 181/212/186 182/213/186
f 160/191/187 159/190/187 174/205/187
f 167/198/188 182/213/188 183/214/188
f 161/192/189 160/191/189 175/206/189
f 168/199/190 183/214/190 184/215/190
f 162/193/191 161/192/191 176/207/191
f 169/200/192 184/215/192 185/216/192
f 181/212/193 196/227/193 197/228/193
f 175/206/194 174/205/194 189/220/194
f 182/213/195 197/228/195 198/229/195
f 176/207/196 175/206/196 190/221/196
f 183/214/197 198/229/197 199/230/197
f 177/208/198 176/207/198 191/222/198
f 184/215/199 199/230/199 200/231/199
f 178/209/200 177/208/200 192/223/200
f 185/216/201 200/231/201 201/232/201
f 179/210/202 178/209/202 193/224/202
f 186/217/203 201/232/203 202/233/203
f 180/211/204 179/210/204 194/225/204
f 508/586/207 572/652/207 573/653/207
f 174/205/208 173/204/208 188/219/208
f 200/231/209 215/246/209 216/247/209
f 194/225/210 193/224/210 208/239/210
f 201/232/211 216/247/211 217/248/211
f 195/226/212 194/225/212 209/240/212
f 509/587/215 573/653/215 574/654/215
f 189/220/216 188/219/216 203/234/216
f 196/227/217 211/242/217 212/243/217
f 190/221/218 189/220/218 204/235/218
f 197/228/219 212/243/219 213/244/219
f 191/222/220 190/221/220 205/236/220
f 198/229/221 213/244/221 214/245/221
f 192/223/222 191/222/222 206/237/222
f 199/230/223 214/245/223 215/246/223
f 193/224/224 192/223/224 207/238/224
f 205/236/225 204/235/225 219/250/225
f 212/243/226 227/258/226 228/259/226
f 206/237/227 205/236/227 220/251/227
f 213/244/228 228/259/228 229/260/228
f 207/238/229 206/237/229 221/252/229
f 214/245/230 229/260/230 230/261/230
f 208/239/231 207/238/231 222/253/231
f 215/246/232 230/261/232 231/262/232
f 209/240/233 208/239/233 223/254/233
f 216/247/234 231/262/234 232/263/234
f 210/241/235 209/240/235 224/255/235
f 484/561/238 483/560/238 547/626/238
f 204/235/239 203/234/239 218/249/239
f 211/242/240 226/257/240 227/258/240
f 224/255/241 223/254/241 238/269/241
f 231/262/242 246/277/242 247/278/242
f 225/256/243 224/255/243 239/270/243
f 210/241/246 225/256/246 530/608/246
f 219/250/247 218/249/247 233/264/247
f 226/257/248 241/272/248 242/273/248
f 220/251/249 219/250/249 234/265/249
f 227/258/250 242/273/250 243/274/250
f 221/252/251 220/251/251 235/266/251
f 228/259/252 243/274/252 244/275/252
f 222/253/253 221/252/253 236/267/253
f 229/260/254 244/275/254 245/276/254
f 223/254/255 222/253/255 237/268/255
f 230/261/256 245/276/256 246/277/256
f 243/274/257 242/273/257 257/288/257
f 235/266/258 250/281/258 251/282/258
f 244/275/259 243/274/259 258/289/259
f 236/267/260 251/282/260 252/283/260
f 245/276/261 244/275/261 259/290/261
f 237/268/262 252/283/262 253/284/262
f 246/277/263 245/276/263 260/291/263
f 238/269/264 253/284/264 254/285/264
f 247/278/265 246/277/265 261/292/265
f 239/270/266 254/285/266 255/286/266
f 120/151/269 135/166/269 524/602/269
f 233/264/270 248/279/270 249/280/270
f 242/273/271 241/272/271 256/287/271
f 234/265/272 249/280/272 250/281/272
f 262/293/273 261/292/273 276/307/273
f 254/285/274 269/300/274 270/301/274
f 510/588/277 574/654/277 575/655/277
f 248/279/278 263/294/278 264/295/278
f 257/288/279 256/287/279 271/302/279
f 249/280/280 264/295/280 265/296/280
f 258/289/281 257/288/281 272/303/281
f 250/281/282 265/296/282 266/297/282
f 259/290/283 258/289/283 273/304/283
f 251/282/284 266/297/284 267/298/284
f 260/291/285 259/290/285 274/305/285
f 252/283/286 267/298/286 268/299/286
f 261/292/287 260/291/287 275/306/287
f 253/284/288 268/299/288 269/300/288
f 274/305/289 273/304/289 288/319/289
f 266/297/290 281/312/290 282/313/290
f 275/306/291 274/305/291 289/320/291
f 267/298/292 282/313/292 283/314/292
f 276/307/293 275/306/293 290/321/293
f 268/299/294 283/314/294 284/315/294
f 277/308/295 276/307/295 291/322/295
f 269/300/296 284/315/296 285/316/296
f 485/562/299 484/561/299 548/627/299
f 263/294/300 278/309/300 279/310/300
f 272/303/301 271/302/301 286/317/301
f 264/295/302 279/310/302 280/311/302
f 273/304/303 272/303/303 287/318/303
f 265/296/304 280/311/304 281/312/304
f 90/121/307 521/599/307 520/598/307
f 278/309/308 293/324/308 294/325/308
f 287/318/309 286/317/309 301/332/309
f 279/310/310 294/325/310 295/326/310
f 288/319/311 287/318/311 302/333/311
f 280/311/312 295/326/312 296/327/312
f 289/320/313 288/319/313 303/334/313
f 281/312/314 296/327/314 297/328/314
f 290/321/315 289/320/315 304/335/315
f 282/313/316 297/328/316 298/329/316
f 291/322/317 290/321/317 305/336/317
f 283/314/318 298/329/318 299/330/318
f 292/323/319 291/322/319 306/337/319
f 284/315/320 299/330/320 300/331/320
f 296/327/321 312/374/321 313/375/321
f 305/336/322 304/335/322 320/382/322
f 297/328/323 313/375/323 314/376/323
f 306/337/324 305/336/324 321/383/324
f 298/329/325 314/376/325 315/377/325
f 307/338/326 306/337/326 322/384/326
f 299/330/327 315/377/327 316/378/327
f 270/301/330 533/611/330 532/610/330
f 293/324/331 309/371/331 310/372/331
f 302/333/332 301/332/332 317/379/332
f 294/325/333 310/372/333 311/373/333
f 303/334/334 302/333/334 318/380/334
f 295/326/335 311/373/335 312/374/335
f 304/335/336 303/334/336 319/381/336
f 511/589/337 575/655/337 576/656/337
f 309/371/338 324/386/338 325/387/338
f 318/380/339 317/379/339 332/394/339
f 310/372/340 325/387/340 326/388/340
f 319/381/341 318/380/341 333/395/341
f 311/373/342 326/388/342 327/389/342
f 320/382/343 319/381/343 334/396/343
f 312/374/344 327/389/344 328/390/344
f 321/383/345 320/382/345 335/397/345
f 313/375/346 328/390/346 329/391/346
f 322/384/347 321/383/347 336/398/347
f 314/376/348 329/391/348 330/392/348
f 323/385/349 322/384/349 337/399/349
f 315/377/350 330/392/350 331/393/350
f 336/398/353 335/397/353 350/412/353
f 328/390/354 343/405/354 344/406/354
f 337/399/355 336/398/355 351/413/355
f 329/391/356 344/406/356 345/407/356
f 338/400/357 337/399/357 352/414/357
f 330/392/358 345/407/358 346/408/358
f 486/563/361 485/562/361 549/628/361
f 324/386/362 339/401/362 340/402/362
f 333/395/363 332/394/363 347/409/363
f 325/387/364 340/402/364 341/403/364
f 334/396/365 333/395/365 348/410/365
f 326/388/366 341/403/366 342/404/366
f 335/397/367 334/396/367 349/411/367
f 327/389/368 342/404/368 343/405/368
f 339/401/369 354/416/369 355/418/369
f 348/410/370 347/409/370 362/432/370
f 340/402/371 355/418/371 356/420/371
f 349/411/372 348/410/372 363/434/372
f 341/403/373 356/420/373 357/422/373
f 350/412/374 349/411/374 364/436/374
f 342/404/375 357/422/375 358/424/375
f 351/413/376 350/412/376 365/438/376
f 343/405/377 358/424/377 359/426/377
f 352/414/378 351/413/378 366/440/378
f 344/406/379 359/426/379 360/428/379
f 353/415/380 352/414/380 367/442/380
f 345/407/381 360/428/381 361/430/381
f 512/590/384 576/656/384 577/657/384
f 359/427/385 358/425/385 373/450/385
f 366/441/386 381/458/386 382/459/386
f 360/429/387 359/427/387 374/451/387
f 367/443/388 382/459/388 383/460/388
f 361/431/389 360/429/389 375/452/389
f 487/564/392 486/563/392 550/629/392
f 355/419/393 354/417/393 369/446/393
f 362/433/394 377/454/394 378/455/394
f 356/421/395 355/419/395 370/447/395
f 363/435/396 378/455/396 379/456/396
f 357/423/397 356/421/397 371/448/397
f 364/437/398 379/456/398 380/457/398
f 358/425/399 357/423/399 372/449/399
f 365/439/400 380/457/400 381/458/400
f 377/454/401 392/469/401 393/470/401
f 371/448/402 370/447/402 385/462/402
f 378/455/403 393/470/403 394/471/403
f 372/449/404 371/448/404 386/463/404
f 379/456/405 394/471/405 395/472/405
f 373/450/406 372/449/406 387/464/406
f 380/457/407 395/472/407 396/473/407
f 374/451/408 373/450/408 388/465/408
f 381/458/409 396/473/409 397/474/409
f 375/452/410 374/451/410 389/466/410
f 382/459/411 397/474/411 398/475/411
f 376/453/412 375/452/412 390/467/412
f 361/431/415 376/453/415 540/619/415
f 370/447/416 369/446/416 384/461/416
f 396/473/417 411/488/417 412/489/417
f 390/467/418 389/466/418 404/481/418
f 397/474/419 412/489/419 413/490/419
f 391/468/420 390/467/420 405/482/420
f 513/591/423 577/657/423 578/658/423
f 385/462/424 384/461/424 399/476/424
f 392/469/425 407/484/425 408/485/425
f 386/463/426 385/462/426 400/477/426
f 393/470/427 408/485/427 409/486/427
f 387/464/428 386/463/428 401/478/428
f 394/471/429 409/486/429 410/487/429
f 388/465/430 387/464/430 402/479/430
f 395/472/431 410/487/431 411/488/431
f 389/466/432 388/465/432 403/480/432
f 408/485/433 423/500/433 424/501/433
f 402/479/434 401/478/434 416/493/434
f 409/486/435 424/501/435 425/502/435
f 403/480/436 402/479/436 417/494/436
f 410/487/437 425/502/437 426/503/437
f 404/481/438 403/480/438 418/495/438
f 411/488/439 426/503/439 427/504/439
f 405/482/440 404/481/440 419/496/440
f 412/489/441 427/504/441 428/505/441
f 406/483/442 405/482/442 420/497/442
f 488/565/445 487/564/445 551/630/445
f 400/477/446 399/476/446 414/491/446
f 407/484/447 422/499/447 423/500/447
f 401/478/448 400/477/448 415/492/448
f 427/504/449 442/519/449 443/520/449
f 421/498/450 420/497/450 435/512/450
f 514/592/453 578/658/453 547/626/453
f 415/492/454 414/491/454 429/506/454
f 422/499/455 437/514/455 438/515/455
f 416/493/456 415/492/456 430/507/456
f 423/500/457 438/515/457 439/516/457
f 417/494/458 416/493/458 431/508/458
f 424/501/459 439/516/459 440/517/459
f 418/495/460 417/494/460 432/509/460
f 425/502/461 440/517/461 441/518/461
f 419/496/462 418/495/462 433/510/462
f 426/503/463 441/518/463 442/519/463
f 420/497/464 419/496/464 434/511/464
f 432/509/465 431/508/465 446/523/465
f 439/516/466 454/531/466 455/532/466
f 433/510/467 432/509/467 447/524/467
f 440/517/468 455/532/468 456/533/468
f 434/511/469 433/510/469 448/525/469
f 441/518/470 456/533/470 457/534/470
f 435/512/471 434/511/471 449/526/471
f 442/519/472 457/534/472 458/535/472
f 436/513/473 435/512/473 450/527/473
f 180/211/476 195/226/476 528/606/476
f 430/507/477 429/506/477 444/521/477
f 437/514/478 452/529/478 453/530/478
f 431/508/479 430/507/479 445/522/479
f 438/515/480 453/530/480 454/531/480
f 451/528/481 450/527/481 465/542/481
f 489/566/484 488/565/484 552/631/484
f 445/522/485 444/521/485 459/536/485
f 452/529/486 467/544/486 468/545/486
f 446/523/487 445/522/487 460/537/487
f 453/530/488 468/545/488 469/546/488
f 447/524/489 446/523/489 461/538/489
f 454/531/490 469/546/490 470/547/490
f 448/525/491 447/524/491 462/539/491
f 455/532/492 470/547/492 471/548/492
f 449/526/493 448/525/493 463/540/493
f 456/533/494 471/548/494 472/549/494
f 450/527/495 449/526/495 464/541/495
f 457/534/496 472/549/496 473/550/496
f 469/546/497 6/6/497 479/556/497
f 463/540/498 462/539/498 476/553/498
f 470/547/499 479/556/499 480/557/499
f 464/541/500 463/540/500 2/2/500
f 471/548/501 480/557/501 481/558/501
f 465/542/609 464/541/609 477/554/609
f 472/549/503 481/558/503 482/559/503
f 466/543/504 465/542/504 3/3/504
f 225/256/507 240/271/507 531/609/507
f 460/537/508 459/536/508 474/551/508
f 467/544/509 5/5/509 478/555/509
f 461/538/510 460/537/510 475/552/510
f 468/545/511 478/555/511 6/6/511
f 462/539/512 461/538/512 1/1/512
f 514/592/513 483/560/513 5/5/513
f 513/591/514 514/592/514 467/544/514
f 512/590/515 513/591/515 452/529/515
f 511/589/516 512/590/516 437/514/516
f 510/588/517 511/589/517 422/499/517
f 509/587/518 510/588/518 407/484/518
f 508/586/519 509/587/519 392/469/519
f 507/584/520 508/586/520 377/454/520
f 347/409/521 506/583/521 507/585/521
f 332/394/522 505/582/522 506/583/522
f 317/379/523 504/581/523 505/582/523
f 301/332/524 503/580/524 504/581/524
f 286/317/525 502/579/525 503/580/525
f 271/302/526 501/578/526 502/579/526
f 256/287/527 500/577/527 501/578/527
f 241/272/528 499/576/528 500/577/528
f 498/575/529 499/576/529 241/272/529
f 497/574/530 498/575/530 226/257/530
f 496/573/531 497/574/531 211/242/531
f 495/572/532 496/573/532 196/227/532
f 494/571/533 495/572/533 181/212/533
f 493/570/534 494/571/534 166/197/534
f 492/569/535 493/570/535 151/182/535
f 491/568/536 492/569/536 136/167/536
f 106/137/537 490/567/537 491/568/537
f 91/122/538 489/566/538 490/567/538
f 75/75/539 488/565/539 489/566/539
f 60/60/540 487/564/540 488/565/540
f 45/45/541 486/563/541 487/564/541
f 30/30/542 485/562/542 486/563/542
f 15/15/543 484/561/543 485/562/543
f 5/5/544 483/560/544 484/561/544
f 547/626/545 515/593/545 516/594/545
f 548/627/546 516/594/546 517/595/546
f 549/628/547 517/595/547 518/596/547
f 550/629/548 518/596/548 519/597/548
f 551/630/549 519/597/549 520/598/549
f 552/631/550 520/598/550 521/599/550
f 553/632/551 521/599/551 522/600/551
f 554/633/552 522/600/552 523/601/552
f 523/601/553 524/602/553 556/635/553
f 524/602/554 525/603/554 557/636/554
f 525/603/555 526/604/555 558/637/555
f 526/604/556 527/605/556 559/638/556
f 527/605/557 528/606/557 560/639/557
f 528/606/558 529/607/558 561/640/558
f 529/607/559 530/608/559 562/641/559
f 530/608/560 531/609/560 563/642/560
f 563/642/561 531/609/561 532/610/561
f 564/643/562 532/610/562 533/611/562
f 565/644/563 533/611/563 534/612/563
f 566/645/564 534/612/564 535/613/564
f 567/646/565 535/613/565 536/614/565
f 568/647/566 536/614/566 537/615/566
f 569/648/567 537/615/567 538/616/567
f 570/649/568 538/616/568 539/617/568
f 539/618/569 540/619/569 572/652/569
f 540/619/570 541/620/570 573/653/570
f 541/620/571 542/621/571 574/654/571
f 542/621/572 543/622/572 575/655/572
f 543/622/573 544/623/573 576/656/573
f 544/623/574 545/624/574 577/657/574
f 545/624/575 546/625/575 578/658/575
f 546/625/576 515/593/576 547/626/576
f 135/166/577 150/181/577 525/603/577
f 503/580/578 502/579/578 566/645/578
f 451/528/579 466/543/579 546/625/579
f 285/316/580 534/612/580 533/611/580
f 502/579/581 501/578/581 565/644/581
f 501/578/582 500/577/582 564/643/582
f 331/393/583 537/615/583 536/614/583
f 44/44/584 518/596/584 517/595/584
f 406/483/585 421/498/585 543/622/585
f 500/577/586 499/576/586 563/642/586
f 498/575/587 562/641/587 563/642/587
f 165/196/588 180/211/588 527/605/588
f 497/574/589 561/640/589 562/641/589
f 466/543/590 4/4/590 515/593/590
f 14/14/591 516/594/591 515/593/591
f 496/573/592 560/639/592 561/640/592
f 74/74/593 520/598/593 519/597/593
f 316/378/594 536/614/594 535/613/594
f 495/572/595 559/638/595 560/639/595
f 436/513/596 451/528/596 545/624/596
f 29/29/597 517/595/597 516/594/597
f 494/571/598 558/637/598 559/638/598
f 493/570/599 557/636/599 558/637/599
f 195/226/600 210/241/600 529/607/600
f 150/181/601 165/196/601 526/604/601
f 492/569/602 556/635/602 557/636/602
f 105/136/603 522/600/603 521/599/603
f 491/568/604 555/634/604 556/635/604
f 346/408/605 538/616/605 537/615/605
f 491/568/606 490/567/606 554/633/606
f 59/59/607 519/597/607 518/596/607
f 490/567/608 489/566/608 553/632/608
