# Blender 3.3.1
# www.blender.org
o Torus.001
v 1.731265 0.442751 0.227228
v 1.691780 0.544208 0.203827
v 1.583905 0.618480 0.139892
v 1.436546 0.645666 0.052556
v 1.289186 0.618480 -0.034781
v 1.181311 0.544208 -0.098716
v 1.141827 0.442751 -0.122117
v 1.181311 0.341294 -0.098716
v 1.289186 0.267022 -0.034781
v 1.436546 0.239837 0.052556
v 1.583905 0.267022 0.139892
v 1.691780 0.341294 0.203827
v 2.001984 0.442751 -0.009696
v 1.945083 0.579537 -0.033050
v 1.789627 0.679671 -0.096855
v 1.577270 0.716322 -0.184013
v 1.364912 0.679671 -0.271171
v 1.209456 0.579537 -0.334976
v 1.152555 0.442751 -0.358330
v 1.209456 0.305966 -0.334976
v 1.364912 0.205832 -0.271171
v 1.577270 0.169180 -0.184013
v 1.789627 0.205832 -0.096855
v 1.945083 0.305966 -0.033050
v 2.201423 0.442751 -0.561952
v 2.137014 0.585124 -0.559574
v 1.961045 0.689348 -0.553075
v 1.720666 0.727497 -0.544197
v 1.480287 0.689348 -0.535320
v 1.304317 0.585124 -0.528821
v 1.239908 0.442751 -0.526443
v 1.304317 0.300379 -0.528821
v 1.480287 0.196154 -0.535320
v 1.720666 0.158006 -0.544197
v 1.961045 0.196154 -0.553075
v 2.137014 0.300379 -0.559574
v 2.285224 0.442751 -0.851815
v 2.218028 0.592116 -0.839592
v 2.034443 0.701458 -0.806200
v 1.783662 0.741480 -0.760584
v 1.532881 0.701458 -0.714969
v 1.349297 0.592116 -0.681576
v 1.282101 0.442751 -0.669353
v 1.349297 0.293387 -0.681576
v 1.532881 0.184044 -0.714969
v 1.783662 0.144022 -0.760584
v 2.034443 0.184044 -0.806200
v 2.218028 0.293387 -0.839592
v 2.355442 0.442751 -1.373533
v 2.292332 0.605115 -1.332648
v 2.119910 0.723974 -1.220950
v 1.738110 0.741480 -1.044758
v 1.493024 0.701458 -0.963621
v 1.313607 0.592116 -0.904224
v 1.247937 0.442751 -0.882484
v 1.313607 0.293387 -0.904224
v 1.493024 0.184044 -0.963621
v 1.738110 0.144022 -1.044758
v 2.119910 0.161529 -1.220950
v 2.292332 0.280387 -1.332648
v 2.300842 0.442751 -1.691422
v 2.239194 0.615879 -1.638344
v 2.070770 0.742617 -1.493333
v 1.840698 0.789007 -1.295244
v 1.501112 0.718610 -1.133943
v 1.317519 0.602018 -1.043965
v 1.250320 0.442751 -1.011030
v 1.317519 0.283484 -1.043965
v 1.501112 0.166893 -1.133943
v 1.840698 0.096496 -1.295244
v 2.070770 0.142885 -1.493333
v 2.239194 0.269623 -1.638344
v 2.050726 0.442751 -2.011434
v 1.995781 0.615879 -1.949782
v 1.845667 0.742617 -1.781344
v 1.640606 0.789007 -1.551254
v 1.435546 0.742617 -1.321164
v 1.285431 0.615879 -1.152726
v 1.230486 0.442751 -1.091074
v 1.285431 0.269623 -1.152726
v 1.435546 0.142885 -1.321164
v 1.640606 0.096496 -1.551254
v 1.845667 0.142885 -1.781344
v 1.995781 0.269623 -1.949782
v 1.946175 0.442751 -2.312112
v 1.894031 0.633595 -2.235862
v 1.751570 0.773302 -2.027542
v 1.556965 0.824438 -1.742971
v 1.362360 0.773302 -1.458400
v 1.219899 0.633595 -1.250080
v 1.167755 0.442751 -1.173830
v 1.219899 0.251908 -1.250080
v 1.362360 0.112201 -1.458400
v 1.556965 0.061064 -1.742971
v 1.751570 0.112201 -2.027542
v 1.894031 0.251908 -2.235862
v 1.598493 0.442751 -2.572784
v 1.555665 0.633595 -2.489548
v 1.438656 0.773302 -2.262145
v 1.278819 0.824438 -1.951508
v 1.118982 0.773302 -1.640870
v 1.001973 0.633595 -1.413467
v 0.959145 0.442751 -1.330232
v 1.001973 0.251908 -1.413467
v 1.118982 0.112201 -1.640870
v 1.278819 0.061064 -1.951508
v 1.438656 0.112201 -2.262145
v 1.555665 0.251908 -2.489548
v 1.431511 0.442751 -2.872427
v 1.393157 0.666051 -2.768531
v 1.288373 0.829517 -2.484680
v 1.145234 0.889350 -2.096932
v 1.002095 0.829517 -1.709184
v 0.897310 0.666051 -1.425334
v 0.858957 0.442751 -1.321437
v 0.897310 0.219452 -1.425334
v 1.002095 0.055985 -1.709184
v 1.145234 -0.003847 -2.096932
v 1.288373 0.055985 -2.484680
v 1.393157 0.219452 -2.768531
v 0.968209 0.442751 -3.048894
v 0.942269 0.666051 -2.940269
v 0.871401 0.829517 -2.643499
v 0.774592 0.889350 -2.238106
v 0.677784 0.829517 -1.832711
v 0.606915 0.666051 -1.535942
v 0.580975 0.442751 -1.427317
v 0.606915 0.219452 -1.535942
v 0.677784 0.055985 -1.832711
v 0.774592 -0.003847 -2.238106
v 0.871401 0.055985 -2.643499
v 0.942269 0.219452 -2.940269
v 0.576457 0.442751 -3.304467
v 0.561014 0.706352 -3.172849
v 0.518824 0.899321 -2.813263
v 0.461191 0.969953 -2.322059
v 0.403557 0.899321 -1.830856
v 0.361367 0.706352 -1.471270
v 0.345924 0.442751 -1.339652
v 0.361367 0.179151 -1.471270
v 0.403557 -0.013819 -1.830856
v 0.461191 -0.084450 -2.322059
v 0.518824 -0.013819 -2.813263
v 0.561014 0.179151 -3.172849
v 0.000124 0.442751 -3.443171
v 0.000124 0.731975 -3.297513
v 0.000124 0.943702 -2.899570
v 0.000124 1.021199 -2.355968
v 0.000124 0.943702 -1.812366
v 0.000124 0.731975 -1.414422
v 0.000124 0.442751 -1.268765
v 0.000124 0.153527 -1.414422
v 0.000124 -0.058199 -1.812366
v 0.000124 -0.135697 -2.355968
v 0.000124 -0.058199 -2.899570
v 0.000124 0.153527 -3.297513
v -0.576210 0.442751 -3.304466
v -0.560767 0.706352 -3.172849
v -0.518577 0.899321 -2.813263
v -0.460943 0.969953 -2.322059
v -0.403310 0.899321 -1.830856
v -0.361119 0.706352 -1.471270
v -0.345676 0.442751 -1.339652
v -0.361119 0.179151 -1.471270
v -0.403310 -0.013819 -1.830856
v -0.460943 -0.084450 -2.322059
v -0.518577 -0.013819 -2.813263
v -0.560767 0.179151 -3.172849
v -0.967960 0.442751 -3.048894
v -0.942021 0.666051 -2.940269
v -0.871152 0.829517 -2.643499
v -0.774343 0.889350 -2.238106
v -0.677535 0.829517 -1.832712
v -0.606666 0.666051 -1.535942
v -0.580727 0.442751 -1.427317
v -0.606666 0.219452 -1.535942
v -0.677535 0.055985 -1.832712
v -0.774343 -0.003847 -2.238106
v -0.871152 0.055985 -2.643499
v -0.942021 0.219452 -2.940269
v -1.431263 0.442751 -2.872428
v -1.392909 0.666051 -2.768532
v -1.288124 0.829517 -2.484680
v -1.144985 0.889350 -2.096933
v -1.001847 0.829517 -1.709185
v -0.897062 0.666051 -1.425334
v -0.858708 0.442751 -1.321437
v -0.897062 0.219452 -1.425334
v -1.001847 0.055985 -1.709185
v -1.144985 -0.003847 -2.096933
v -1.288124 0.055985 -2.484680
v -1.392909 0.219452 -2.768532
v -1.598244 0.442751 -2.572784
v -1.555416 0.633595 -2.489548
v -1.438407 0.773302 -2.262146
v -1.278571 0.824438 -1.951508
v -1.118734 0.773302 -1.640870
v -1.001725 0.633595 -1.413467
v -0.958897 0.442751 -1.330232
v -1.001725 0.251908 -1.413467
v -1.118734 0.112201 -1.640870
v -1.278571 0.061064 -1.951508
v -1.438407 0.112201 -2.262146
v -1.555416 0.251908 -2.489548
v -1.945927 0.442751 -2.312113
v -1.893782 0.633595 -2.235862
v -1.751322 0.773302 -2.027542
v -1.556716 0.824438 -1.742971
v -1.362111 0.773302 -1.458401
v -1.120014 0.633595 -1.271021
v -1.048994 0.442751 -1.211950
v -1.120014 0.251908 -1.271021
v -1.362111 0.112201 -1.458401
v -1.556716 0.061064 -1.742971
v -1.751322 0.112201 -2.027542
v -1.893782 0.251908 -2.235862
v -2.050479 0.442751 -2.011434
v -1.995534 0.615879 -1.949782
v -1.845419 0.742617 -1.781344
v -1.640359 0.789007 -1.551253
v -1.346882 0.742617 -1.280380
v -1.156405 0.615879 -1.159450
v -1.086685 0.442751 -1.115186
v -1.156405 0.269623 -1.159450
v -1.346882 0.142885 -1.280380
v -1.640359 0.096496 -1.551253
v -1.845419 0.142885 -1.781344
v -1.995534 0.269623 -1.949782
v -2.300593 0.442751 -1.691422
v -2.238945 0.615879 -1.638344
v -2.070521 0.742617 -1.493333
v -1.729476 0.789007 -1.144582
v -1.453980 0.742617 -1.017012
v -1.252302 0.615879 -0.923625
v -1.178483 0.442751 -0.889443
v -1.252302 0.269623 -0.923625
v -1.453980 0.142885 -1.017012
v -1.729476 0.096496 -1.144582
v -2.070521 0.142885 -1.493333
v -2.238945 0.269623 -1.638344
v -2.245996 0.442751 -1.079026
v -2.174106 0.605115 -1.056972
v -1.977700 0.723974 -0.996719
v -1.709406 0.767479 -0.914413
v -1.441110 0.723974 -0.832106
v -1.244704 0.605115 -0.771853
v -1.172815 0.442751 -0.749799
v -1.244704 0.280387 -0.771853
v -1.441110 0.161529 -0.832106
v -1.709406 0.118024 -0.914413
v -1.977700 0.161529 -0.996719
v -2.174106 0.280387 -1.056972
v -2.299367 0.442751 -0.691624
v -2.226048 0.605115 -0.679950
v -2.025735 0.723974 -0.648057
v -1.752102 0.767479 -0.604491
v -1.478470 0.723974 -0.560924
v -1.278157 0.605115 -0.529032
v -1.204838 0.442751 -0.517358
v -1.278157 0.280387 -0.529032
v -1.478470 0.161529 -0.560924
v -1.752102 0.118024 -0.604491
v -2.025735 0.161529 -0.648057
v -2.226048 0.280387 -0.679950
v -2.201353 0.442751 -0.378618
v -2.131299 0.597515 -0.377575
v -1.939905 0.710809 -0.374728
v -1.678457 0.752278 -0.370838
v -1.417009 0.710809 -0.366948
v -1.225616 0.597515 -0.364101
v -1.155561 0.442751 -0.363058
v -1.225616 0.287988 -0.364101
v -1.417009 0.174693 -0.366948
v -1.678457 0.133225 -0.370838
v -1.939905 0.174693 -0.374728
v -2.131299 0.287988 -0.377575
v -2.079619 0.442751 -0.077572
v -2.013304 0.591441 -0.086277
v -1.832129 0.700290 -0.110059
v -1.584639 0.740131 -0.142546
v -1.337149 0.700290 -0.175033
v -1.155974 0.591441 -0.198815
v -1.089659 0.442751 -0.207520
v -1.155974 0.294061 -0.198815
v -1.337149 0.185213 -0.175033
v -1.584639 0.145371 -0.142546
v -1.832129 0.185213 -0.110059
v -2.013304 0.294061 -0.086277
v -1.613463 0.442751 0.387601
v -1.574506 0.540693 0.366798
v -1.468075 0.612391 0.309962
v -1.322687 0.638634 0.232324
v -1.177299 0.612391 0.154685
v -1.070868 0.540693 0.097850
v -1.031912 0.442751 0.077047
v -1.070868 0.344810 0.097850
v -1.177299 0.273112 0.154685
v -1.322687 0.246868 0.232324
v -1.468075 0.273112 0.309962
v -1.574506 0.344810 0.366798
v -0.832904 0.442751 0.286722
v 0.988267 0.442751 0.296918
vn 0.5980 0.3937 0.6981
vn 0.2940 0.8320 0.4705
vn 0.0053 0.9573 0.2891
vn -0.2697 0.9497 0.1594
vn -0.5774 0.8160 0.0263
vn -0.9262 0.3730 -0.0546
vn -0.9262 -0.3730 -0.0546
vn -0.5774 -0.8160 0.0263
vn -0.2697 -0.9497 0.1594
vn 0.0053 -0.9573 0.2891
vn 0.2940 -0.8320 0.4705
vn 0.5980 -0.3937 0.6981
vn 0.8556 0.4099 0.3162
vn 0.4729 0.8590 0.1959
vn 0.1356 0.9871 0.0846
vn -0.1570 0.9871 -0.0324
vn -0.4692 0.8590 -0.2049
vn -0.8099 0.4087 -0.4208
vn -0.8099 -0.4087 -0.4208
vn -0.4692 -0.8590 -0.2049
vn -0.1570 -0.9871 -0.0324
vn 0.1356 -0.9871 0.0846
vn 0.4729 -0.8590 0.1959
vn 0.8556 -0.4099 0.3162
vn 0.8803 0.3938 0.2645
vn 0.5057 0.8422 0.1869
vn 0.1597 0.9810 0.1099
vn -0.1560 0.9875 0.0209
vn -0.5095 0.8533 -0.1110
vn -0.8813 0.3944 -0.2602
vn -0.8813 -0.3944 -0.2602
vn -0.5095 -0.8533 -0.1110
vn -0.1560 -0.9875 0.0209
vn 0.1597 -0.9810 0.1099
vn 0.5057 -0.8422 0.1869
vn 0.8803 -0.3938 0.2645
vn 0.9065 0.3958 0.1470
vn 0.5261 0.8364 0.1538
vn 0.1532 0.9879 -0.0246
vn -0.1532 0.9879 0.0246
vn -0.4993 0.8627 0.0800
vn -0.8980 0.4158 0.1439
vn -0.8980 -0.4158 0.1439
vn -0.4993 -0.8627 0.0800
vn -0.1532 -0.9879 0.0246
vn 0.1532 -0.9879 -0.0246
vn 0.5261 -0.8364 0.1538
vn 0.9065 -0.3958 0.1470
vn 0.9095 0.3899 -0.1444
vn 0.5486 0.8351 -0.0418
vn 0.1573 0.9564 0.2459
vn -0.1303 0.9871 0.0932
vn -0.5085 0.8598 0.0467
vn -0.9162 0.4004 -0.0170
vn -0.9162 -0.4004 -0.0170
vn -0.5085 -0.8598 0.0467
vn -0.1303 -0.9871 0.0932
vn 0.1573 -0.9564 0.2459
vn 0.5486 -0.8351 -0.0418
vn 0.9095 -0.3899 -0.1444
vn 0.7132 0.4249 -0.5575
vn 0.3906 0.8684 -0.3053
vn 0.1191 0.9885 -0.0931
vn -0.1228 0.9780 0.1684
vn -0.4345 0.8684 0.2389
vn -0.8821 0.4174 0.2186
vn -0.8821 -0.4174 0.2186
vn -0.4345 -0.8684 0.2389
vn -0.1228 -0.9780 0.1684
vn 0.1191 -0.9885 -0.0931
vn 0.3906 -0.8684 -0.3053
vn 0.7132 -0.4249 -0.5575
vn 0.8781 0.3815 -0.2887
vn 0.5636 0.8182 -0.1134
vn 0.2791 0.9587 0.0554
vn 0.0151 0.9775 0.2105
vn -0.3179 0.8718 0.3726
vn -0.7218 0.4239 0.5471
vn -0.7218 -0.4239 0.5471
vn -0.3179 -0.8718 0.3726
vn 0.0151 -0.9775 0.2105
vn 0.2791 -0.9587 0.0554
vn 0.5636 -0.8182 -0.1134
vn 0.8781 -0.3815 -0.2887
vn 0.5400 0.4353 -0.7203
vn 0.2907 0.8747 -0.3878
vn 0.0881 0.9892 -0.1175
vn -0.0881 0.9892 0.1175
vn -0.2907 0.8747 0.3878
vn -0.5400 0.4353 0.7203
vn -0.5400 -0.4353 0.7203
vn -0.2907 -0.8747 0.3878
vn -0.0881 -0.9892 0.1175
vn 0.0881 -0.9892 -0.1175
vn 0.2907 -0.8747 -0.3878
vn 0.5400 -0.4353 -0.7203
vn 0.8198 0.3733 -0.4341
vn 0.5782 0.7935 -0.1900
vn 0.3917 0.9187 0.0503
vn 0.2714 0.9175 0.2907
vn 0.1804 0.7940 0.5806
vn 0.0188 0.3962 0.9180
vn 0.0188 -0.3962 0.9180
vn 0.1804 -0.7940 0.5806
vn 0.2714 -0.9175 0.2907
vn 0.3917 -0.9187 0.0503
vn 0.5782 -0.7935 -0.1900
vn 0.8199 -0.3733 -0.4341
vn 0.3189 0.4443 -0.8372
vn 0.1692 0.8798 -0.4442
vn 0.0510 0.9897 -0.1339
vn -0.0510 0.9897 0.1339
vn -0.1692 0.8798 0.4442
vn -0.3189 0.4443 0.8372
vn -0.3189 -0.4443 0.8372
vn -0.1692 -0.8798 0.4442
vn -0.0510 -0.9897 0.1339
vn 0.0510 -0.9897 -0.1339
vn 0.1692 -0.8798 -0.4442
vn 0.3189 -0.4443 -0.8372
vn 0.5038 0.4245 -0.7523
vn 0.3541 0.8523 -0.3849
vn 0.2678 0.9603 -0.0778
vn 0.1968 0.9621 0.1890
vn 0.2154 0.8327 0.5101
vn 0.2939 0.3903 0.8725
vn 0.2939 -0.3903 0.8725
vn 0.2154 -0.8327 0.5101
vn 0.1968 -0.9621 0.1890
vn 0.2678 -0.9603 -0.0778
vn 0.3541 -0.8523 -0.3849
vn 0.5038 -0.4245 -0.7523
vn 0.2135 0.4464 -0.8690
vn 0.1506 0.8783 -0.4537
vn 0.1188 0.9847 -0.1276
vn 0.0981 0.9834 0.1529
vn 0.1176 0.8692 0.4803
vn 0.1700 0.4322 0.8856
vn 0.1700 -0.4322 0.8856
vn 0.1176 -0.8692 0.4803
vn 0.0981 -0.9834 0.1529
vn 0.1188 -0.9847 -0.1276
vn 0.1506 -0.8783 -0.4537
vn 0.2135 -0.4464 -0.8690
vn -0.2101 0.4398 -0.8732
vn -0.1432 0.8737 -0.4649
vn -0.1076 0.9842 -0.1403
vn -0.1146 0.9835 0.1402
vn -0.1353 0.8747 0.4654
vn -0.1801 0.4424 0.8785
vn -0.1801 -0.4424 0.8785
vn -0.1353 -0.8747 0.4654
vn -0.1146 -0.9835 0.1402
vn -0.1076 -0.9842 -0.1403
vn -0.1432 -0.8737 -0.4649
vn -0.2101 -0.4398 -0.8732
vn -0.4982 0.4105 -0.7637
vn -0.3412 0.8443 -0.4131
vn -0.2437 0.9636 -0.1100
vn -0.2443 0.9554 0.1660
vn -0.2637 0.8367 0.4800
vn -0.3190 0.4084 0.8553
vn -0.3190 -0.4084 0.8553
vn -0.2637 -0.8367 0.4800
vn -0.2443 -0.9554 0.1660
vn -0.2437 -0.9636 -0.1100
vn -0.3412 -0.8443 -0.4131
vn -0.4982 -0.4105 -0.7637
vn -0.3189 0.4443 -0.8372
vn -0.1692 0.8798 -0.4442
vn -0.0510 0.9897 -0.1339
vn 0.0510 0.9897 0.1339
vn 0.1692 0.8798 0.4442
vn 0.3189 0.4443 0.8372
vn 0.3189 -0.4443 0.8372
vn 0.1692 -0.8798 0.4442
vn 0.0510 -0.9897 0.1339
vn -0.0510 -0.9897 -0.1339
vn -0.1692 -0.8798 -0.4442
vn -0.3189 -0.4443 -0.8372
vn -0.8175 0.3524 -0.4556
vn -0.5709 0.7848 -0.2412
vn -0.3630 0.9317 -0.0098
vn -0.2154 0.9500 0.2261
vn -0.1004 0.8457 0.5241
vn -0.0798 0.4092 0.9089
vn -0.0798 -0.4092 0.9089
vn -0.1004 -0.8457 0.5241
vn -0.2154 -0.9500 0.2261
vn -0.3630 -0.9317 -0.0098
vn -0.5709 -0.7848 -0.2412
vn -0.8175 -0.3524 -0.4556
vn -0.5400 0.4353 -0.7203
vn -0.2907 0.8747 -0.3878
vn -0.0881 0.9892 -0.1175
vn 0.0881 0.9892 0.1175
vn 0.2907 0.8747 0.3878
vn 0.7012 0.4113 0.5823
vn 0.7012 -0.4113 0.5823
vn 0.2907 -0.8747 0.3878
vn 0.0881 -0.9892 0.1175
vn -0.0881 -0.9892 -0.1175
vn -0.2907 -0.8747 -0.3878
vn -0.5400 -0.4353 -0.7203
vn -0.8802 0.3628 -0.3061
vn -0.5693 0.8079 -0.1525
vn -0.2745 0.9615 0.0149
vn -0.0045 0.9837 0.1798
vn 0.4261 0.8969 0.1181
vn 0.8416 0.4188 0.3410
vn 0.8416 -0.4188 0.3410
vn 0.4261 -0.8969 0.1181
vn -0.0045 -0.9837 0.1798
vn -0.2745 -0.9615 0.0149
vn -0.5693 -0.8079 -0.1525
vn -0.8802 -0.3628 -0.3061
vn -0.7132 0.4249 -0.5575
vn -0.3906 0.8684 -0.3053
vn -0.1191 0.9885 -0.0931
vn 0.1303 0.9911 0.0286
vn 0.4593 0.8684 0.1868
vn 0.8386 0.4249 0.3410
vn 0.8386 -0.4249 0.3410
vn 0.4593 -0.8684 0.1868
vn 0.1303 -0.9911 0.0286
vn -0.1191 -0.9885 -0.0931
vn -0.3906 -0.8684 -0.3053
vn -0.7132 -0.4249 -0.5575
vn -0.9466 0.3112 0.0844
vn -0.6453 0.7591 0.0860
vn -0.2102 0.9747 0.0759
vn 0.1288 0.9883 0.0812
vn 0.5145 0.8560 0.0505
vn 0.9210 0.3891 -0.0185
vn 0.9210 -0.3891 -0.0185
vn 0.5145 -0.8560 0.0505
vn 0.1288 -0.9883 0.0812
vn -0.2102 -0.9747 0.0759
vn -0.6453 -0.7591 0.0860
vn -0.9466 -0.3112 0.0844
vn -0.9010 0.4158 -0.1241
vn -0.5009 0.8627 -0.0690
vn -0.1537 0.9879 -0.0212
vn 0.1537 0.9879 0.0212
vn 0.5009 0.8627 0.0690
vn 0.9010 0.4158 0.1241
vn 0.9010 -0.4158 0.1241
vn 0.5009 -0.8627 0.0690
vn 0.1537 -0.9879 0.0212
vn -0.1537 -0.9879 -0.0212
vn -0.5009 -0.8627 -0.0690
vn -0.9010 -0.4158 -0.1241
vn -0.8831 0.3789 0.2765
vn -0.5231 0.8320 0.1848
vn -0.1719 0.9799 0.1012
vn 0.1546 0.9879 0.0155
vn 0.5199 0.8475 -0.1072
vn 0.8859 0.3810 -0.2647
vn 0.8859 -0.3810 -0.2647
vn 0.5199 -0.8475 -0.1072
vn 0.1546 -0.9879 0.0155
vn -0.1719 -0.9799 0.1012
vn -0.5231 -0.8320 0.1848
vn -0.8831 -0.3789 0.2765
vn -0.8556 0.3850 0.3460
vn -0.4994 0.8381 0.2197
vn -0.1573 0.9822 0.1031
vn 0.1568 0.9876 -0.0119
vn 0.5043 0.8479 -0.1634
vn 0.8555 0.3849 -0.3463
vn 0.8555 -0.3849 -0.3463
vn 0.5043 -0.8479 -0.1634
vn 0.1568 -0.9876 -0.0119
vn -0.1573 -0.9822 0.1031
vn -0.4994 -0.8381 0.2197
vn -0.8556 -0.3850 0.3460
vn -0.6653 0.3358 0.6668
vn -0.4049 0.7787 0.4793
vn -0.1137 0.9481 0.2969
vn 0.1754 0.9743 0.1412
vn 0.5130 0.8582 -0.0199
vn 0.8932 0.4093 -0.1862
vn 0.8932 -0.4093 -0.1862
vn 0.5130 -0.8582 -0.0199
vn 0.1754 -0.9743 0.1412
vn -0.1137 -0.9481 0.2969
vn -0.4049 -0.7787 0.4793
vn -0.6654 -0.3358 0.6668
vn 0.1266 0.1577 0.9793
vn 0.1553 0.4618 0.8733
vn 0.2177 0.7255 0.6528
vn 0.3243 0.8955 0.3046
vn 0.4869 0.8569 -0.1691
vn 0.6652 0.3987 -0.6313
vn 0.6652 -0.3987 -0.6313
vn 0.4869 -0.8569 -0.1691
vn 0.3243 -0.8955 0.3046
vn 0.2177 -0.7255 0.6528
vn 0.1553 -0.4618 0.8733
vn 0.1266 -0.1577 0.9793
vn 0.0902 0.2571 0.9622
vn 0.0051 0.6566 0.7542
vn -0.1276 0.8654 0.4846
vn -0.3009 0.9282 0.2188
vn -0.5454 0.8366 -0.0516
vn -0.8579 0.4064 -0.3144
vn -0.8579 -0.4064 -0.3144
vn -0.5454 -0.8366 -0.0516
vn -0.3009 -0.9282 0.2188
vn -0.1276 -0.8654 0.4846
vn 0.0051 -0.6566 0.7542
vn 0.0902 -0.2571 0.9622
vn 0.6110 0.3733 0.6981
vn 0.3304 0.8156 0.4750
vn 0.0469 0.9565 0.2880
vn -0.2282 0.9618 0.1515
vn -0.5572 0.8284 0.0575
vn -0.9199 0.3898 -0.0418
vn -0.9199 -0.3898 -0.0418
vn -0.5572 -0.8284 0.0575
vn -0.2282 -0.9618 0.1515
vn 0.0469 -0.9565 0.2880
vn 0.3304 -0.8156 0.4750
vn 0.6110 -0.3733 0.6981
vn 0.8672 0.3871 0.3132
vn 0.5053 0.8411 0.1931
vn 0.1591 0.9840 0.0807
vn -0.1578 0.9869 -0.0322
vn -0.5055 0.8416 -0.1900
vn -0.8378 0.3724 -0.3993
vn -0.8378 -0.3724 -0.3993
vn -0.5055 -0.8416 -0.1900
vn -0.1578 -0.9869 -0.0322
vn 0.1591 -0.9840 0.0807
vn 0.5053 -0.8411 0.1931
vn 0.8672 -0.3871 0.3132
vn 0.8890 0.3789 0.2570
vn 0.5270 0.8320 0.1733
vn 0.1741 0.9799 0.0974
vn -0.1542 0.9879 0.0189
vn -0.5222 0.8475 -0.0957
vn -0.8915 0.3810 -0.2451
vn -0.8915 -0.3810 -0.2451
vn -0.5222 -0.8475 -0.0957
vn -0.1542 -0.9879 0.0189
vn 0.1741 -0.9799 0.0974
vn 0.5270 -0.8320 0.1733
vn 0.8890 -0.3789 0.2570
vn 0.9349 0.3317 0.1258
vn 0.6125 0.7824 0.1129
vn 0.0779 0.9945 0.0700
vn 0.0779 -0.9945 0.0700
vn 0.6125 -0.7824 0.1129
vn 0.9349 -0.3317 0.1258
vn 0.9142 0.3737 -0.1570
vn 0.5615 0.8246 -0.0686
vn 0.2199 0.9751 0.0271
vn -0.1428 0.9815 0.1277
vn -0.5133 0.8560 0.0618
vn -0.9212 0.3891 0.0018
vn -0.9212 -0.3891 0.0018
vn -0.5133 -0.8560 0.0618
vn -0.1428 -0.9815 0.1277
vn 0.2199 -0.9751 0.0271
vn 0.5615 -0.8246 -0.0686
vn 0.9142 -0.3737 -0.1570
vn -0.1191 0.9885 0.0931
vn -0.4335 0.8621 0.2624
vn -0.8706 0.3853 0.3060
vn -0.8706 -0.3853 0.3060
vn -0.4335 -0.8621 0.2624
vn -0.1191 -0.9885 0.0931
vn 0.8802 0.3628 -0.3061
vn 0.5693 0.8079 -0.1525
vn 0.2745 0.9615 0.0149
vn 0.0045 0.9837 0.1798
vn -0.3208 0.8734 0.3664
vn -0.7162 0.4188 0.5583
vn -0.7162 -0.4188 0.5583
vn -0.3208 -0.8734 0.3664
vn 0.0045 -0.9837 0.1798
vn 0.2745 -0.9615 0.0149
vn 0.5693 -0.8079 -0.1525
vn 0.8802 -0.3628 -0.3061
vn 0.8175 0.3524 -0.4556
vn 0.5709 0.7848 -0.2412
vn 0.3630 0.9317 -0.0098
vn 0.2154 0.9500 0.2261
vn 0.1004 0.8457 0.5241
vn 0.0798 0.4092 0.9089
vn 0.0798 -0.4092 0.9089
vn 0.1004 -0.8457 0.5241
vn 0.2154 -0.9500 0.2261
vn 0.3630 -0.9317 -0.0098
vn 0.5709 -0.7848 -0.2412
vn 0.8175 -0.3524 -0.4556
vn 0.4982 0.4105 -0.7637
vn 0.3412 0.8443 -0.4131
vn 0.2437 0.9636 -0.1100
vn 0.2443 0.9554 0.1660
vn 0.2637 0.8367 0.4800
vn 0.3190 0.4084 0.8553
vn 0.3190 -0.4084 0.8553
vn 0.2637 -0.8367 0.4800
vn 0.2443 -0.9554 0.1660
vn 0.2437 -0.9636 -0.1100
vn 0.3412 -0.8443 -0.4131
vn 0.4982 -0.4105 -0.7637
vn 0.2101 0.4398 -0.8732
vn 0.1432 0.8737 -0.4649
vn 0.1076 0.9842 -0.1403
vn 0.1146 0.9835 0.1402
vn 0.1353 0.8747 0.4654
vn 0.1801 0.4424 0.8785
vn 0.1801 -0.4424 0.8785
vn 0.1353 -0.8747 0.4654
vn 0.1146 -0.9835 0.1402
vn 0.1076 -0.9842 -0.1403
vn 0.1432 -0.8737 -0.4649
vn 0.2101 -0.4398 -0.8732
vn -0.2135 0.4464 -0.8690
vn -0.1506 0.8783 -0.4537
vn -0.1188 0.9847 -0.1276
vn -0.0981 0.9834 0.1529
vn -0.1176 0.8692 0.4803
vn -0.1700 0.4322 0.8856
vn -0.1700 -0.4322 0.8856
vn -0.1176 -0.8692 0.4803
vn -0.0981 -0.9834 0.1529
vn -0.1188 -0.9847 -0.1276
vn -0.1506 -0.8783 -0.4537
vn -0.2135 -0.4464 -0.8690
vn -0.5038 0.4245 -0.7523
vn -0.3541 0.8523 -0.3849
vn -0.2678 0.9603 -0.0778
vn -0.1968 0.9621 0.1890
vn -0.2154 0.8327 0.5101
vn -0.2939 0.3903 0.8725
vn -0.2939 -0.3903 0.8725
vn -0.2154 -0.8327 0.5101
vn -0.1968 -0.9621 0.1890
vn -0.2678 -0.9603 -0.0778
vn -0.3541 -0.8523 -0.3849
vn -0.5038 -0.4245 -0.7523
vn -0.8199 0.3733 -0.4341
vn -0.5782 0.7935 -0.1900
vn -0.3917 0.9187 0.0503
vn -0.2714 0.9175 0.2907
vn -0.1804 0.7940 0.5806
vn -0.0188 0.3962 0.9180
vn -0.0188 -0.3962 0.9180
vn -0.1804 -0.7940 0.5806
vn -0.2714 -0.9175 0.2907
vn -0.3917 -0.9187 0.0503
vn -0.5782 -0.7935 -0.1900
vn -0.8199 -0.3733 -0.4341
vn 0.3196 0.9097 0.2654
vn 0.7162 0.4354 0.5455
vn 0.7162 -0.4354 0.5455
vn 0.3196 -0.9097 0.2654
vn -0.8781 0.3815 -0.2887
vn -0.5636 0.8182 -0.1134
vn -0.2791 0.9587 0.0554
vn -0.0011 0.9855 0.1700
vn 0.4078 0.8718 0.2714
vn 0.8439 0.4239 0.3287
vn 0.8439 -0.4239 0.3287
vn 0.4078 -0.8718 0.2714
vn -0.0011 -0.9855 0.1700
vn -0.2791 -0.9587 0.0554
vn -0.5636 -0.8182 -0.1134
vn -0.8781 -0.3815 -0.2887
vn -0.1104 0.9936 -0.0242
vn 0.1401 0.9885 0.0570
vn 0.1401 -0.9885 0.0570
vn -0.1104 -0.9936 -0.0242
vn -0.9143 0.3900 0.1092
vn -0.5426 0.8295 0.1326
vn -0.1913 0.9756 0.1079
vn 0.1324 0.9871 0.0903
vn 0.5094 0.8598 0.0355
vn 0.9156 0.4004 -0.0372
vn 0.9156 -0.4004 -0.0372
vn 0.5094 -0.8598 0.0355
vn 0.1324 -0.9871 0.0903
vn -0.1913 -0.9756 0.1079
vn -0.5426 -0.8295 0.1326
vn -0.9143 -0.3900 0.1092
vn -0.8743 0.3938 0.2838
vn -0.5015 0.8422 0.1980
vn -0.1573 0.9810 0.1134
vn 0.1564 0.9875 0.0175
vn 0.5069 0.8533 -0.1222
vn 0.8754 0.3944 -0.2796
vn 0.8754 -0.3944 -0.2796
vn 0.5069 -0.8533 -0.1222
vn 0.1564 -0.9875 0.0175
vn -0.1573 -0.9810 0.1134
vn -0.5015 -0.8422 0.1980
vn -0.8743 -0.3938 0.2838
vn -0.8472 0.3984 0.3515
vn -0.4791 0.8474 0.2288
vn -0.1437 0.9833 0.1114
vn 0.1575 0.9875 -0.0114
vn 0.4900 0.8539 -0.1751
vn 0.8448 0.3977 -0.3579
vn 0.8448 -0.3977 -0.3579
vn 0.4900 -0.8539 -0.1751
vn 0.1575 -0.9875 -0.0114
vn -0.1437 -0.9833 0.1114
vn -0.4791 -0.8474 0.2288
vn -0.8472 -0.3984 0.3515
vn -0.6377 0.3942 0.6618
vn -0.3199 0.8329 0.4516
vn -0.0251 0.9604 0.2776
vn 0.2461 0.9596 0.1365
vn 0.5527 0.8332 -0.0160
vn 0.8996 0.3966 -0.1826
vn 0.8996 -0.3966 -0.1826
vn 0.5527 -0.8332 -0.0160
vn 0.2461 -0.9596 0.1365
vn -0.0251 -0.9604 0.2776
vn -0.3199 -0.8329 0.4516
vn -0.6377 -0.3942 0.6618
vt 0.500000 0.500000
vt 0.500000 0.583333
vt 0.500000 0.666667
vt 0.500000 0.750000
vt 0.500000 0.833333
vt 0.500000 0.916667
vt 0.500000 1.000000
vt 0.500000 0.000000
vt 0.500000 0.083333
vt 0.500000 0.166667
vt 0.500000 0.250000
vt 0.500000 0.333333
vt 0.500000 0.416667
vt 0.520833 0.500000
vt 0.520833 0.583333
vt 0.520833 0.666667
vt 0.520833 0.750000
vt 0.520833 0.833333
vt 0.520833 0.916667
vt 0.520833 1.000000
vt 0.520833 0.000000
vt 0.520833 0.083333
vt 0.520833 0.166667
vt 0.520833 0.250000
vt 0.520833 0.333333
vt 0.520833 0.416667
vt 0.541667 0.500000
vt 0.541667 0.583333
vt 0.541667 0.666667
vt 0.541667 0.750000
vt 0.541667 0.833333
vt 0.541667 0.916667
vt 0.541667 1.000000
vt 0.541667 0.000000
vt 0.541667 0.083333
vt 0.541667 0.166667
vt 0.541667 0.250000
vt 0.541667 0.333333
vt 0.541667 0.416667
vt 0.562500 0.500000
vt 0.562500 0.583333
vt 0.562500 0.666667
vt 0.562500 0.750000
vt 0.562500 0.833333
vt 0.562500 0.916667
vt 0.562500 1.000000
vt 0.562500 0.000000
vt 0.562500 0.083333
vt 0.562500 0.166667
vt 0.562500 0.250000
vt 0.562500 0.333333
vt 0.562500 0.416667
vt 0.583333 0.500000
vt 0.583333 0.583333
vt 0.583333 0.666667
vt 0.583333 0.750000
vt 0.583333 0.833333
vt 0.583333 0.916667
vt 0.583333 1.000000
vt 0.583333 0.000000
vt 0.583333 0.083333
vt 0.583333 0.166667
vt 0.583333 0.250000
vt 0.583333 0.333333
vt 0.583333 0.416667
vt 0.604167 0.500000
vt 0.604167 0.583333
vt 0.604167 0.666667
vt 0.604167 0.750000
vt 0.604167 0.833333
vt 0.604167 0.916667
vt 0.604167 1.000000
vt 0.604167 0.000000
vt 0.604167 0.083333
vt 0.604167 0.166667
vt 0.604167 0.250000
vt 0.604167 0.333333
vt 0.604167 0.416667
vt 0.625000 0.500000
vt 0.625000 0.583333
vt 0.625000 0.666667
vt 0.625000 0.750000
vt 0.625000 0.833333
vt 0.625000 0.916667
vt 0.625000 1.000000
vt 0.625000 0.000000
vt 0.625000 0.083333
vt 0.625000 0.166667
vt 0.625000 0.250000
vt 0.625000 0.333333
vt 0.625000 0.416667
vt 0.645833 0.500000
vt 0.645833 0.583333
vt 0.645833 0.666667
vt 0.645833 0.750000
vt 0.645833 0.833333
vt 0.645833 0.916667
vt 0.645833 1.000000
vt 0.645833 0.000000
vt 0.645833 0.083333
vt 0.645833 0.166667
vt 0.645833 0.250000
vt 0.645833 0.333333
vt 0.645833 0.416667
vt 0.666667 0.500000
vt 0.666667 0.583333
vt 0.666667 0.666667
vt 0.666667 0.750000
vt 0.666667 0.833333
vt 0.666667 0.916667
vt 0.666667 1.000000
vt 0.666667 0.000000
vt 0.666667 0.083333
vt 0.666667 0.166667
vt 0.666667 0.250000
vt 0.666667 0.333333
vt 0.666667 0.416667
vt 0.687500 0.500000
vt 0.687500 0.583333
vt 0.687500 0.666667
vt 0.687500 0.750000
vt 0.687500 0.833333
vt 0.687500 0.916667
vt 0.687500 1.000000
vt 0.687500 0.000000
vt 0.687500 0.083333
vt 0.687500 0.166667
vt 0.687500 0.250000
vt 0.687500 0.333333
vt 0.687500 0.416667
vt 0.708333 0.500000
vt 0.708333 0.583333
vt 0.708333 0.666667
vt 0.708333 0.750000
vt 0.708333 0.833333
vt 0.708333 0.916667
vt 0.708333 1.000000
vt 0.708333 0.000000
vt 0.708333 0.083333
vt 0.708333 0.166667
vt 0.708333 0.250000
vt 0.708333 0.333333
vt 0.708333 0.416667
vt 0.729167 0.500000
vt 0.729167 0.583333
vt 0.729167 0.666667
vt 0.729167 0.750000
vt 0.729167 0.833333
vt 0.729167 0.916667
vt 0.729167 1.000000
vt 0.729167 0.000000
vt 0.729167 0.083333
vt 0.729167 0.166667
vt 0.729167 0.250000
vt 0.729167 0.333333
vt 0.729167 0.416667
vt 0.750000 0.500000
vt 0.750000 0.583333
vt 0.750000 0.666667
vt 0.750000 0.750000
vt 0.750000 0.833333
vt 0.750000 0.916667
vt 0.750000 1.000000
vt 0.750000 0.000000
vt 0.750000 0.083333
vt 0.750000 0.166667
vt 0.750000 0.250000
vt 0.750000 0.333333
vt 0.750000 0.416667
vt 0.770833 0.500000
vt 0.770833 0.583333
vt 0.770833 0.666667
vt 0.770833 0.750000
vt 0.770833 0.833333
vt 0.770833 0.916667
vt 0.770833 1.000000
vt 0.770833 0.000000
vt 0.770833 0.083333
vt 0.770833 0.166667
vt 0.770833 0.250000
vt 0.770833 0.333333
vt 0.770833 0.416667
vt 0.791667 0.500000
vt 0.791667 0.583333
vt 0.791667 0.666667
vt 0.791667 0.750000
vt 0.791667 0.833333
vt 0.791667 0.916667
vt 0.791667 1.000000
vt 0.791667 0.000000
vt 0.791667 0.083333
vt 0.791667 0.166667
vt 0.791667 0.250000
vt 0.791667 0.333333
vt 0.791667 0.416667
vt 0.812500 0.500000
vt 0.812500 0.583333
vt 0.812500 0.666667
vt 0.812500 0.750000
vt 0.812500 0.833333
vt 0.812500 0.916667
vt 0.812500 1.000000
vt 0.812500 0.000000
vt 0.812500 0.083333
vt 0.812500 0.166667
vt 0.812500 0.250000
vt 0.812500 0.333333
vt 0.812500 0.416667
vt 0.833333 0.500000
vt 0.833333 0.583333
vt 0.833333 0.666667
vt 0.833333 0.750000
vt 0.833333 0.833333
vt 0.833333 0.916667
vt 0.833333 1.000000
vt 0.833333 0.000000
vt 0.833333 0.083333
vt 0.833333 0.166667
vt 0.833333 0.250000
vt 0.833333 0.333333
vt 0.833333 0.416667
vt 0.854167 0.500000
vt 0.854167 0.583333
vt 0.854167 0.666667
vt 0.854167 0.750000
vt 0.854167 0.833333
vt 0.854167 0.916667
vt 0.854167 1.000000
vt 0.854167 0.000000
vt 0.854167 0.083333
vt 0.854167 0.166667
vt 0.854167 0.250000
vt 0.854167 0.333333
vt 0.854167 0.416667
vt 0.875000 0.500000
vt 0.875000 0.583333
vt 0.875000 0.666667
vt 0.875000 0.750000
vt 0.875000 0.833333
vt 0.875000 0.916667
vt 0.875000 1.000000
vt 0.875000 0.000000
vt 0.875000 0.083333
vt 0.875000 0.166667
vt 0.875000 0.250000
vt 0.875000 0.333333
vt 0.875000 0.416667
vt 0.895833 0.500000
vt 0.895833 0.583333
vt 0.895833 0.666667
vt 0.895833 0.750000
vt 0.895833 0.833333
vt 0.895833 0.916667
vt 0.895833 1.000000
vt 0.895833 0.000000
vt 0.895833 0.083333
vt 0.895833 0.166667
vt 0.895833 0.250000
vt 0.895833 0.333333
vt 0.895833 0.416667
vt 0.916667 0.500000
vt 0.916667 0.583333
vt 0.916667 0.666667
vt 0.916667 0.750000
vt 0.916667 0.833333
vt 0.916667 0.916667
vt 0.916667 1.000000
vt 0.916667 0.000000
vt 0.916667 0.083333
vt 0.916667 0.166667
vt 0.916667 0.250000
vt 0.916667 0.333333
vt 0.916667 0.416667
vt 0.937500 0.500000
vt 0.937500 0.583333
vt 0.937500 0.666667
vt 0.937500 0.750000
vt 0.937500 0.833333
vt 0.937500 0.916667
vt 0.937500 1.000000
vt 0.937500 0.000000
vt 0.937500 0.083333
vt 0.937500 0.166667
vt 0.937500 0.250000
vt 0.937500 0.333333
vt 0.937500 0.416667
vt 0.958333 0.500000
vt 0.958333 0.583333
vt 0.958333 0.666667
vt 0.958333 0.750000
vt 0.958333 0.833333
vt 0.958333 0.916667
vt 0.958333 1.000000
vt 0.958333 0.000000
vt 0.958333 0.083333
vt 0.958333 0.166667
vt 0.958333 0.250000
vt 0.958333 0.333333
vt 0.958333 0.416667
vt 0.979167 0.500000
vt 0.979167 0.583333
vt 0.979167 0.666667
vt 0.979167 0.750000
vt 0.979167 0.833333
vt 0.979167 0.916667
vt 0.979167 1.000000
vt 0.979167 0.000000
vt 0.979167 0.083333
vt 0.979167 0.166667
vt 0.979167 0.250000
vt 0.979167 0.333333
vt 0.979167 0.416667
vt 0.000000 0.500000
vt 1.000000 0.500000
vt 0.000000 0.583333
vt 1.000000 0.583333
vt 0.000000 0.666667
vt 1.000000 0.666667
vt 0.000000 0.750000
vt 1.000000 0.750000
vt 0.000000 0.833333
vt 1.000000 0.833333
vt 0.000000 0.916667
vt 1.000000 0.916667
vt 0.000000 1.000000
vt 0.000000 0.000000
vt 1.000000 1.000000
vt 1.000000 0.000000
vt 0.000000 0.083333
vt 1.000000 0.083333
vt 0.000000 0.166667
vt 1.000000 0.166667
vt 0.000000 0.250000
vt 1.000000 0.250000
vt 0.000000 0.333333
vt 1.000000 0.333333
vt 0.000000 0.416667
vt 1.000000 0.416667
vt 0.020833 0.583333
vt 0.020833 0.666667
vt 0.020833 0.750000
vt 0.020833 0.833333
vt 0.020833 0.916667
vt 0.020833 1.000000
vt 0.020833 0.083333
vt 0.020833 0.166667
vt 0.020833 0.250000
vt 0.020833 0.333333
vt 0.020833 0.416667
vt 0.020833 0.500000
vt 0.479167 0.500000
vt 0.479167 0.583333
vt 0.479167 0.666667
vt 0.479167 0.750000
vt 0.479167 0.833333
vt 0.479167 0.916667
vt 0.479167 0.000000
vt 0.479167 0.083333
vt 0.479167 0.166667
vt 0.479167 0.250000
vt 0.479167 0.333333
vt 0.479167 0.416667
s 0
f 1/1/1 14/15/1 2/2/1
f 2/2/2 15/16/2 3/3/2
f 3/3/3 16/17/3 4/4/3
f 4/4/4 17/18/4 5/5/4
f 17/18/5 6/6/5 5/5/5
f 18/19/6 7/7/6 6/6/6
f 7/8/7 20/22/7 8/9/7
f 8/9/8 21/23/8 9/10/8
f 21/23/9 10/11/9 9/10/9
f 22/24/10 11/12/10 10/11/10
f 23/25/11 12/13/11 11/12/11
f 24/26/12 1/1/12 12/13/12
f 13/14/13 26/28/13 14/15/13
f 14/15/14 27/29/14 15/16/14
f 15/16/15 28/30/15 16/17/15
f 16/17/16 29/31/16 17/18/16
f 17/18/17 30/32/17 18/19/17
f 18/19/18 31/33/18 19/20/18
f 31/34/19 20/22/19 19/21/19
f 32/35/20 21/23/20 20/22/20
f 33/36/21 22/24/21 21/23/21
f 34/37/22 23/25/22 22/24/22
f 35/38/23 24/26/23 23/25/23
f 36/39/24 13/14/24 24/26/24
f 25/27/25 38/41/25 26/28/25
f 26/28/26 39/42/26 27/29/26
f 27/29/27 40/43/27 28/30/27
f 28/30/28 41/44/28 29/31/28
f 29/31/29 42/45/29 30/32/29
f 30/32/30 43/46/30 31/33/30
f 43/47/31 32/35/31 31/34/31
f 44/48/32 33/36/32 32/35/32
f 45/49/33 34/37/33 33/36/33
f 46/50/34 35/38/34 34/37/34
f 47/51/35 36/39/35 35/38/35
f 48/52/36 25/27/36 36/39/36
f 37/40/37 50/54/37 38/41/37
f 38/41/38 51/55/38 39/42/38
f 39/42/39 52/56/39 40/43/39
f 40/43/40 53/57/40 41/44/40
f 41/44/41 54/58/41 42/45/41
f 42/45/42 55/59/42 43/46/42
f 55/60/43 44/48/43 43/47/43
f 56/61/44 45/49/44 44/48/44
f 57/62/45 46/50/45 45/49/45
f 58/63/46 47/51/46 46/50/46
f 59/64/47 48/52/47 47/51/47
f 60/65/48 37/40/48 48/52/48
f 49/53/49 62/67/49 50/54/49
f 50/54/50 63/68/50 51/55/50
f 51/55/51 64/69/51 52/56/51
f 52/56/52 65/70/52 53/57/52
f 53/57/53 66/71/53 54/58/53
f 54/58/54 67/72/54 55/59/54
f 67/73/55 56/61/55 55/60/55
f 68/74/56 57/62/56 56/61/56
f 69/75/57 58/63/57 57/62/57
f 70/76/58 59/64/58 58/63/58
f 71/77/59 60/65/59 59/64/59
f 72/78/60 49/53/60 60/65/60
f 61/66/61 74/80/61 62/67/61
f 62/67/62 75/81/62 63/68/62
f 63/68/63 76/82/63 64/69/63
f 64/69/64 77/83/64 65/70/64
f 65/70/65 78/84/65 66/71/65
f 66/71/66 79/85/66 67/72/66
f 79/86/67 68/74/67 67/73/67
f 80/87/68 69/75/68 68/74/68
f 81/88/69 70/76/69 69/75/69
f 82/89/70 71/77/70 70/76/70
f 83/90/71 72/78/71 71/77/71
f 84/91/72 61/66/72 72/78/72
f 73/79/73 86/93/73 74/80/73
f 74/80/74 87/94/74 75/81/74
f 75/81/75 88/95/75 76/82/75
f 76/82/76 89/96/76 77/83/76
f 77/83/77 90/97/77 78/84/77
f 78/84/78 91/98/78 79/85/78
f 91/99/79 80/87/79 79/86/79
f 92/100/80 81/88/80 80/87/80
f 93/101/81 82/89/81 81/88/81
f 94/102/82 83/90/82 82/89/82
f 95/103/83 84/91/83 83/90/83
f 96/104/84 73/79/84 84/91/84
f 85/92/85 98/106/85 86/93/85
f 86/93/86 99/107/86 87/94/86
f 87/94/87 100/108/87 88/95/87
f 88/95/88 101/109/88 89/96/88
f 89/96/89 102/110/89 90/97/89
f 90/97/90 103/111/90 91/98/90
f 103/112/91 92/100/91 91/99/91
f 104/113/92 93/101/92 92/100/92
f 105/114/93 94/102/93 93/101/93
f 106/115/94 95/103/94 94/102/94
f 107/116/95 96/104/95 95/103/95
f 108/117/96 85/92/96 96/104/96
f 97/105/97 110/119/97 98/106/97
f 98/106/98 111/120/98 99/107/98
f 99/107/99 112/121/99 100/108/99
f 100/108/100 113/122/100 101/109/100
f 101/109/101 114/123/101 102/110/101
f 114/123/102 103/111/102 102/110/102
f 103/112/103 116/126/103 104/113/103
f 116/126/104 105/114/104 104/113/104
f 117/127/105 106/115/105 105/114/105
f 118/128/106 107/116/106 106/115/106
f 119/129/107 108/117/107 107/116/107
f 120/130/108 97/105/108 108/117/108
f 109/118/109 122/132/109 110/119/109
f 110/119/110 123/133/110 111/120/110
f 111/120/111 124/134/111 112/121/111
f 112/121/112 125/135/112 113/122/112
f 113/122/113 126/136/113 114/123/113
f 114/123/114 127/137/114 115/124/114
f 127/138/115 116/126/115 115/125/115
f 128/139/116 117/127/116 116/126/116
f 129/140/117 118/128/117 117/127/117
f 130/141/118 119/129/118 118/128/118
f 131/142/119 120/130/119 119/129/119
f 132/143/120 109/118/120 120/130/120
f 121/131/121 134/145/121 122/132/121
f 122/132/122 135/146/122 123/133/122
f 123/133/123 136/147/123 124/134/123
f 136/147/124 125/135/124 124/134/124
f 137/148/125 126/136/125 125/135/125
f 138/149/126 127/137/126 126/136/126
f 127/138/127 140/152/127 128/139/127
f 128/139/128 141/153/128 129/140/128
f 129/140/129 142/154/129 130/141/129
f 142/154/130 131/142/130 130/141/130
f 143/155/131 132/143/131 131/142/131
f 144/156/132 121/131/132 132/143/132
f 133/144/133 146/158/133 134/145/133
f 134/145/134 147/159/134 135/146/134
f 135/146/135 148/160/135 136/147/135
f 148/160/136 137/148/136 136/147/136
f 149/161/137 138/149/137 137/148/137
f 150/162/138 139/150/138 138/149/138
f 139/151/139 152/165/139 140/152/139
f 140/152/140 153/166/140 141/153/140
f 141/153/141 154/167/141 142/154/141
f 154/167/142 143/155/142 142/154/142
f 155/168/143 144/156/143 143/155/143
f 156/169/144 133/144/144 144/156/144
f 157/170/145 146/158/145 145/157/145
f 158/171/146 147/159/146 146/158/146
f 159/172/147 148/160/147 147/159/147
f 148/160/148 161/174/148 149/161/148
f 149/161/149 162/175/149 150/162/149
f 150/162/150 163/176/150 151/163/150
f 163/177/151 152/165/151 151/164/151
f 164/178/152 153/166/152 152/165/152
f 165/179/153 154/167/153 153/166/153
f 154/167/154 167/181/154 155/168/154
f 155/168/155 168/182/155 156/169/155
f 156/169/156 157/170/156 145/157/156
f 169/183/157 158/171/157 157/170/157
f 170/184/158 159/172/158 158/171/158
f 171/185/159 160/173/159 159/172/159
f 160/173/160 173/187/160 161/174/160
f 161/174/161 174/188/161 162/175/161
f 162/175/162 175/189/162 163/176/162
f 175/190/163 164/178/163 163/177/163
f 176/191/164 165/179/164 164/178/164
f 177/192/165 166/180/165 165/179/165
f 166/180/166 179/194/166 167/181/166
f 167/181/167 180/195/167 168/182/167
f 168/182/168 169/183/168 157/170/168
f 181/196/169 170/184/169 169/183/169
f 182/197/170 171/185/170 170/184/170
f 183/198/171 172/186/171 171/185/171
f 184/199/172 173/187/172 172/186/172
f 185/200/173 174/188/173 173/187/173
f 186/201/174 175/189/174 174/188/174
f 175/190/175 188/204/175 176/191/175
f 176/191/176 189/205/176 177/192/176
f 177/192/177 190/206/177 178/193/177
f 178/193/178 191/207/178 179/194/178
f 179/194/179 192/208/179 180/195/179
f 180/195/180 181/196/180 169/183/180
f 193/209/181 182/197/181 181/196/181
f 194/210/182 183/198/182 182/197/182
f 195/211/183 184/199/183 183/198/183
f 196/212/184 185/200/184 184/199/184
f 197/213/185 186/201/185 185/200/185
f 186/201/186 199/215/186 187/202/186
f 199/216/187 188/204/187 187/203/187
f 188/204/188 201/218/188 189/205/188
f 189/205/189 202/219/189 190/206/189
f 190/206/190 203/220/190 191/207/190
f 191/207/191 204/221/191 192/208/191
f 192/208/192 193/209/192 181/196/192
f 205/222/193 194/210/193 193/209/193
f 206/223/194 195/211/194 194/210/194
f 207/224/195 196/212/195 195/211/195
f 208/225/196 197/213/196 196/212/196
f 209/226/197 198/214/197 197/213/197
f 210/227/198 199/215/198 198/214/198
f 199/216/199 212/230/199 200/217/199
f 200/217/200 213/231/200 201/218/200
f 201/218/201 214/232/201 202/219/201
f 202/219/202 215/233/202 203/220/202
f 203/220/203 216/234/203 204/221/203
f 204/221/204 205/222/204 193/209/204
f 217/235/205 206/223/205 205/222/205
f 218/236/206 207/224/206 206/223/206
f 219/237/207 208/225/207 207/224/207
f 220/238/208 209/226/208 208/225/208
f 221/239/209 210/227/209 209/226/209
f 222/240/210 211/228/210 210/227/210
f 211/229/211 224/243/211 212/230/211
f 212/230/212 225/244/212 213/231/212
f 213/231/213 226/245/213 214/232/213
f 214/232/214 227/246/214 215/233/214
f 215/233/215 228/247/215 216/234/215
f 216/234/216 217/235/216 205/222/216
f 229/248/217 218/236/217 217/235/217
f 230/249/218 219/237/218 218/236/218
f 231/250/219 220/238/219 219/237/219
f 232/251/220 221/239/220 220/238/220
f 233/252/221 222/240/221 221/239/221
f 234/253/222 223/241/222 222/240/222
f 223/242/223 236/256/223 224/243/223
f 224/243/224 237/257/224 225/244/224
f 225/244/225 238/258/225 226/245/225
f 226/245/226 239/259/226 227/246/226
f 227/246/227 240/260/227 228/247/227
f 228/247/228 229/248/228 217/235/228
f 241/261/229 230/249/229 229/248/229
f 242/262/230 231/250/230 230/249/230
f 243/263/231 232/251/231 231/250/231
f 244/264/232 233/252/232 232/251/232
f 245/265/233 234/253/233 233/252/233
f 246/266/234 235/254/234 234/253/234
f 235/255/235 248/269/235 236/256/235
f 236/256/236 249/270/236 237/257/236
f 237/257/237 250/271/237 238/258/237
f 238/258/238 251/272/238 239/259/238
f 239/259/239 252/273/239 240/260/239
f 240/260/240 241/261/240 229/248/240
f 253/274/241 242/262/241 241/261/241
f 254/275/242 243/263/242 242/262/242
f 255/276/243 244/264/243 243/263/243
f 256/277/244 245/265/244 244/264/244
f 257/278/245 246/266/245 245/265/245
f 258/279/246 247/267/246 246/266/246
f 247/268/247 260/282/247 248/269/247
f 248/269/248 261/283/248 249/270/248
f 249/270/249 262/284/249 250/271/249
f 250/271/250 263/285/250 251/272/250
f 251/272/251 264/286/251 252/273/251
f 252/273/252 253/274/252 241/261/252
f 265/287/253 254/275/253 253/274/253
f 266/288/254 255/276/254 254/275/254
f 267/289/255 256/277/255 255/276/255
f 268/290/256 257/278/256 256/277/256
f 269/291/257 258/279/257 257/278/257
f 270/292/258 259/280/258 258/279/258
f 259/281/259 272/295/259 260/282/259
f 260/282/260 273/296/260 261/283/260
f 261/283/261 274/297/261 262/284/261
f 262/284/262 275/298/262 263/285/262
f 263/285/263 276/299/263 264/286/263
f 264/286/264 265/287/264 253/274/264
f 277/300/265 266/288/265 265/287/265
f 278/301/266 267/289/266 266/288/266
f 279/302/267 268/290/267 267/289/267
f 280/303/268 269/291/268 268/290/268
f 281/304/269 270/292/269 269/291/269
f 282/305/270 271/293/270 270/292/270
f 271/294/271 284/308/271 272/295/271
f 272/295/272 285/309/272 273/296/272
f 273/296/273 286/310/273 274/297/273
f 274/297/274 287/311/274 275/298/274
f 275/298/275 288/312/275 276/299/275
f 276/299/276 277/300/276 265/287/276
f 289/314/277 278/301/277 277/300/277
f 290/316/278 279/302/278 278/301/278
f 291/318/279 280/303/279 279/302/279
f 292/320/280 281/304/280 280/303/280
f 293/322/281 282/305/281 281/304/281
f 294/324/282 283/306/282 282/305/282
f 283/307/283 296/330/283 284/308/283
f 284/308/284 297/332/284 285/309/284
f 285/309/285 298/334/285 286/310/285
f 286/310/286 299/336/286 287/311/286
f 287/311/287 300/338/287 288/312/287
f 288/312/288 289/314/288 277/300/288
f 289/313/289 301/339/289 290/315/289
f 290/315/290 301/340/290 291/317/290
f 291/317/291 301/341/291 292/319/291
f 292/319/292 301/342/292 293/321/292
f 293/321/293 301/343/293 294/323/293
f 294/323/294 301/344/294 295/325/294
f 295/326/295 301/345/295 296/329/295
f 296/329/296 301/346/296 297/331/296
f 297/331/297 301/347/297 298/333/297
f 298/333/298 301/348/298 299/335/298
f 299/335/299 301/349/299 300/337/299
f 300/337/300 301/350/300 289/313/300
f 302/351/301 1/1/301 2/2/301
f 302/352/302 2/2/302 3/3/302
f 302/353/303 3/3/303 4/4/303
f 302/354/304 4/4/304 5/5/304
f 302/355/305 5/5/305 6/6/305
f 302/356/306 6/6/306 7/7/306
f 302/357/307 7/8/307 8/9/307
f 302/358/308 8/9/308 9/10/308
f 302/359/309 9/10/309 10/11/309
f 302/360/310 10/11/310 11/12/310
f 302/361/311 11/12/311 12/13/311
f 302/362/312 12/13/312 1/1/312
f 1/1/313 13/14/313 14/15/313
f 2/2/314 14/15/314 15/16/314
f 3/3/315 15/16/315 16/17/315
f 4/4/316 16/17/316 17/18/316
f 17/18/317 18/19/317 6/6/317
f 18/19/318 19/20/318 7/7/318
f 7/8/319 19/21/319 20/22/319
f 8/9/320 20/22/320 21/23/320
f 21/23/321 22/24/321 10/11/321
f 22/24/322 23/25/322 11/12/322
f 23/25/323 24/26/323 12/13/323
f 24/26/324 13/14/324 1/1/324
f 13/14/325 25/27/325 26/28/325
f 14/15/326 26/28/326 27/29/326
f 15/16/327 27/29/327 28/30/327
f 16/17/328 28/30/328 29/31/328
f 17/18/329 29/31/329 30/32/329
f 18/19/330 30/32/330 31/33/330
f 31/34/331 32/35/331 20/22/331
f 32/35/332 33/36/332 21/23/332
f 33/36/333 34/37/333 22/24/333
f 34/37/334 35/38/334 23/25/334
f 35/38/335 36/39/335 24/26/335
f 36/39/336 25/27/336 13/14/336
f 25/27/337 37/40/337 38/41/337
f 26/28/338 38/41/338 39/42/338
f 27/29/339 39/42/339 40/43/339
f 28/30/340 40/43/340 41/44/340
f 29/31/341 41/44/341 42/45/341
f 30/32/342 42/45/342 43/46/342
f 43/47/343 44/48/343 32/35/343
f 44/48/344 45/49/344 33/36/344
f 45/49/345 46/50/345 34/37/345
f 46/50/346 47/51/346 35/38/346
f 47/51/347 48/52/347 36/39/347
f 48/52/348 37/40/348 25/27/348
f 37/40/349 49/53/349 50/54/349
f 38/41/350 50/54/350 51/55/350
f 39/42/351 51/55/351 52/56/351
f 40/43/40 52/56/40 53/57/40
f 41/44/41 53/57/41 54/58/41
f 42/45/42 54/58/42 55/59/42
f 55/60/43 56/61/43 44/48/43
f 56/61/44 57/62/44 45/49/44
f 57/62/45 58/63/45 46/50/45
f 58/63/352 59/64/352 47/51/352
f 59/64/353 60/65/353 48/52/353
f 60/65/354 49/53/354 37/40/354
f 49/53/355 61/66/355 62/67/355
f 50/54/356 62/67/356 63/68/356
f 51/55/357 63/68/357 64/69/357
f 52/56/358 64/69/358 65/70/358
f 53/57/359 65/70/359 66/71/359
f 54/58/360 66/71/360 67/72/360
f 67/73/361 68/74/361 56/61/361
f 68/74/362 69/75/362 57/62/362
f 69/75/363 70/76/363 58/63/363
f 70/76/364 71/77/364 59/64/364
f 71/77/365 72/78/365 60/65/365
f 72/78/366 61/66/366 49/53/366
f 61/66/61 73/79/61 74/80/61
f 62/67/62 74/80/62 75/81/62
f 63/68/63 75/81/63 76/82/63
f 64/69/367 76/82/367 77/83/367
f 65/70/368 77/83/368 78/84/368
f 66/71/369 78/84/369 79/85/369
f 79/86/370 80/87/370 68/74/370
f 80/87/371 81/88/371 69/75/371
f 81/88/372 82/89/372 70/76/372
f 82/89/70 83/90/70 71/77/70
f 83/90/71 84/91/71 72/78/71
f 84/91/72 73/79/72 61/66/72
f 73/79/373 85/92/373 86/93/373
f 74/80/374 86/93/374 87/94/374
f 75/81/375 87/94/375 88/95/375
f 76/82/376 88/95/376 89/96/376
f 77/83/377 89/96/377 90/97/377
f 78/84/378 90/97/378 91/98/378
f 91/99/379 92/100/379 80/87/379
f 92/100/380 93/101/380 81/88/380
f 93/101/381 94/102/381 82/89/381
f 94/102/382 95/103/382 83/90/382
f 95/103/383 96/104/383 84/91/383
f 96/104/384 85/92/384 73/79/384
f 85/92/85 97/105/85 98/106/85
f 86/93/86 98/106/86 99/107/86
f 87/94/87 99/107/87 100/108/87
f 88/95/88 100/108/88 101/109/88
f 89/96/89 101/109/89 102/110/89
f 90/97/90 102/110/90 103/111/90
f 103/112/91 104/113/91 92/100/91
f 104/113/92 105/114/92 93/101/92
f 105/114/93 106/115/93 94/102/93
f 106/115/94 107/116/94 95/103/94
f 107/116/95 108/117/95 96/104/95
f 108/117/96 97/105/96 85/92/96
f 97/105/385 109/118/385 110/119/385
f 98/106/386 110/119/386 111/120/386
f 99/107/387 111/120/387 112/121/387
f 100/108/388 112/121/388 113/122/388
f 101/109/389 113/122/389 114/123/389
f 114/123/390 115/124/390 103/111/390
f 103/112/391 115/125/391 116/126/391
f 116/126/392 117/127/392 105/114/392
f 117/127/393 118/128/393 106/115/393
f 118/128/394 119/129/394 107/116/394
f 119/129/395 120/130/395 108/117/395
f 120/130/396 109/118/396 97/105/396
f 109/118/109 121/131/109 122/132/109
f 110/119/110 122/132/110 123/133/110
f 111/120/111 123/133/111 124/134/111
f 112/121/112 124/134/112 125/135/112
f 113/122/113 125/135/113 126/136/113
f 114/123/114 126/136/114 127/137/114
f 127/138/115 128/139/115 116/126/115
f 128/139/116 129/140/116 117/127/116
f 129/140/117 130/141/117 118/128/117
f 130/141/118 131/142/118 119/129/118
f 131/142/119 132/143/119 120/130/119
f 132/143/120 121/131/120 109/118/120
f 121/131/397 133/144/397 134/145/397
f 122/132/398 134/145/398 135/146/398
f 123/133/399 135/146/399 136/147/399
f 136/147/400 137/148/400 125/135/400
f 137/148/401 138/149/401 126/136/401
f 138/149/402 139/150/402 127/137/402
f 127/138/403 139/151/403 140/152/403
f 128/139/404 140/152/404 141/153/404
f 129/140/405 141/153/405 142/154/405
f 142/154/406 143/155/406 131/142/406
f 143/155/407 144/156/407 132/143/407
f 144/156/408 133/144/408 121/131/408
f 133/144/409 145/157/409 146/158/409
f 134/145/410 146/158/410 147/159/410
f 135/146/411 147/159/411 148/160/411
f 148/160/412 149/161/412 137/148/412
f 149/161/413 150/162/413 138/149/413
f 150/162/414 151/163/414 139/150/414
f 139/151/415 151/164/415 152/165/415
f 140/152/416 152/165/416 153/166/416
f 141/153/417 153/166/417 154/167/417
f 154/167/418 155/168/418 143/155/418
f 155/168/419 156/169/419 144/156/419
f 156/169/420 145/157/420 133/144/420
f 157/170/421 158/171/421 146/158/421
f 158/171/422 159/172/422 147/159/422
f 159/172/423 160/173/423 148/160/423
f 148/160/424 160/173/424 161/174/424
f 149/161/425 161/174/425 162/175/425
f 150/162/426 162/175/426 163/176/426
f 163/177/427 164/178/427 152/165/427
f 164/178/428 165/179/428 153/166/428
f 165/179/429 166/180/429 154/167/429
f 154/167/430 166/180/430 167/181/430
f 155/168/431 167/181/431 168/182/431
f 156/169/432 168/182/432 157/170/432
f 169/183/433 170/184/433 158/171/433
f 170/184/434 171/185/434 159/172/434
f 171/185/435 172/186/435 160/173/435
f 160/173/436 172/186/436 173/187/436
f 161/174/437 173/187/437 174/188/437
f 162/175/438 174/188/438 175/189/438
f 175/190/439 176/191/439 164/178/439
f 176/191/440 177/192/440 165/179/440
f 177/192/441 178/193/441 166/180/441
f 166/180/442 178/193/442 179/194/442
f 167/181/443 179/194/443 180/195/443
f 168/182/444 180/195/444 169/183/444
f 181/196/169 182/197/169 170/184/169
f 182/197/170 183/198/170 171/185/170
f 183/198/171 184/199/171 172/186/171
f 184/199/172 185/200/172 173/187/172
f 185/200/173 186/201/173 174/188/173
f 186/201/174 187/202/174 175/189/174
f 175/190/175 187/203/175 188/204/175
f 176/191/176 188/204/176 189/205/176
f 177/192/177 189/205/177 190/206/177
f 178/193/178 190/206/178 191/207/178
f 179/194/179 191/207/179 192/208/179
f 180/195/180 192/208/180 181/196/180
f 193/209/445 194/210/445 182/197/445
f 194/210/446 195/211/446 183/198/446
f 195/211/447 196/212/447 184/199/447
f 196/212/448 197/213/448 185/200/448
f 197/213/449 198/214/449 186/201/449
f 186/201/450 198/214/450 199/215/450
f 199/216/451 200/217/451 188/204/451
f 188/204/452 200/217/452 201/218/452
f 189/205/453 201/218/453 202/219/453
f 190/206/454 202/219/454 203/220/454
f 191/207/455 203/220/455 204/221/455
f 192/208/456 204/221/456 193/209/456
f 205/222/193 206/223/193 194/210/193
f 206/223/194 207/224/194 195/211/194
f 207/224/195 208/225/195 196/212/195
f 208/225/196 209/226/196 197/213/196
f 209/226/457 210/227/457 198/214/457
f 210/227/458 211/228/458 199/215/458
f 199/216/459 211/229/459 212/230/459
f 200/217/460 212/230/460 213/231/460
f 201/218/201 213/231/201 214/232/201
f 202/219/202 214/232/202 215/233/202
f 203/220/203 215/233/203 216/234/203
f 204/221/204 216/234/204 205/222/204
f 217/235/461 218/236/461 206/223/461
f 218/236/462 219/237/462 207/224/462
f 219/237/463 220/238/463 208/225/463
f 220/238/464 221/239/464 209/226/464
f 221/239/465 222/240/465 210/227/465
f 222/240/466 223/241/466 211/228/466
f 211/229/467 223/242/467 224/243/467
f 212/230/468 224/243/468 225/244/468
f 213/231/469 225/244/469 226/245/469
f 214/232/470 226/245/470 227/246/470
f 215/233/471 227/246/471 228/247/471
f 216/234/472 228/247/472 217/235/472
f 229/248/217 230/249/217 218/236/217
f 230/249/218 231/250/218 219/237/218
f 231/250/473 232/251/473 220/238/473
f 232/251/474 233/252/474 221/239/474
f 233/252/221 234/253/221 222/240/221
f 234/253/222 235/254/222 223/241/222
f 223/242/223 235/255/223 236/256/223
f 224/243/224 236/256/224 237/257/224
f 225/244/475 237/257/475 238/258/475
f 226/245/476 238/258/476 239/259/476
f 227/246/227 239/259/227 240/260/227
f 228/247/228 240/260/228 229/248/228
f 241/261/477 242/262/477 230/249/477
f 242/262/478 243/263/478 231/250/478
f 243/263/479 244/264/479 232/251/479
f 244/264/480 245/265/480 233/252/480
f 245/265/481 246/266/481 234/253/481
f 246/266/482 247/267/482 235/254/482
f 235/255/483 247/268/483 248/269/483
f 236/256/484 248/269/484 249/270/484
f 237/257/485 249/270/485 250/271/485
f 238/258/486 250/271/486 251/272/486
f 239/259/487 251/272/487 252/273/487
f 240/260/488 252/273/488 241/261/488
f 253/274/241 254/275/241 242/262/241
f 254/275/242 255/276/242 243/263/242
f 255/276/243 256/277/243 244/264/243
f 256/277/244 257/278/244 245/265/244
f 257/278/245 258/279/245 246/266/245
f 258/279/246 259/280/246 247/267/246
f 247/268/247 259/281/247 260/282/247
f 248/269/248 260/282/248 261/283/248
f 249/270/249 261/283/249 262/284/249
f 250/271/250 262/284/250 263/285/250
f 251/272/251 263/285/251 264/286/251
f 252/273/252 264/286/252 253/274/252
f 265/287/489 266/288/489 254/275/489
f 266/288/490 267/289/490 255/276/490
f 267/289/491 268/290/491 256/277/491
f 268/290/492 269/291/492 257/278/492
f 269/291/493 270/292/493 258/279/493
f 270/292/494 271/293/494 259/280/494
f 259/281/495 271/294/495 272/295/495
f 260/282/496 272/295/496 273/296/496
f 261/283/497 273/296/497 274/297/497
f 262/284/498 274/297/498 275/298/498
f 263/285/499 275/298/499 276/299/499
f 264/286/500 276/299/500 265/287/500
f 277/300/501 278/301/501 266/288/501
f 278/301/502 279/302/502 267/289/502
f 279/302/503 280/303/503 268/290/503
f 280/303/504 281/304/504 269/291/504
f 281/304/505 282/305/505 270/292/505
f 282/305/506 283/306/506 271/293/506
f 271/294/507 283/307/507 284/308/507
f 272/295/508 284/308/508 285/309/508
f 273/296/509 285/309/509 286/310/509
f 274/297/510 286/310/510 287/311/510
f 275/298/511 287/311/511 288/312/511
f 276/299/512 288/312/512 277/300/512
f 289/314/513 290/316/513 278/301/513
f 290/316/514 291/318/514 279/302/514
f 291/318/515 292/320/515 280/303/515
f 292/320/516 293/322/516 281/304/516
f 293/322/517 294/324/517 282/305/517
f 294/324/518 295/327/518 283/306/518
f 283/307/519 295/328/519 296/330/519
f 284/308/520 296/330/520 297/332/520
f 285/309/521 297/332/521 298/334/521
f 286/310/522 298/334/522 299/336/522
f 287/311/523 299/336/523 300/338/523
f 288/312/524 300/338/524 289/314/524
