# Blender 3.3.1
# www.blender.org
o counter
v 6.263256 4.173929 -4.825934
v 6.263256 -0.017332 -4.825934
v 6.263256 4.173929 3.739004
v 6.263256 -0.017332 3.739004
v -2.822598 4.173929 3.739004
v -2.822598 -0.017332 3.739004
v 1.720329 4.173929 3.739004
v 6.263256 4.173929 -0.543465
v -2.822598 4.173929 -0.543465
v 1.720329 4.173929 -4.825934
v 1.720329 4.173929 -0.543465
v -0.551134 4.173929 3.739004
v 6.263256 4.173929 1.597769
v -2.822598 4.173929 -2.684700
v 3.991793 4.173929 -4.825934
v 3.991793 4.173929 3.739004
v 6.263256 4.173929 -2.684700
v -2.822598 4.173929 1.597769
v -0.551134 4.173929 -4.825934
v 1.720329 4.173929 1.597769
v 1.720329 4.173929 -2.684700
v 3.991793 4.173929 -0.543465
v -0.551134 4.173929 -0.543465
v -0.551134 4.173929 -2.684700
v 3.991793 4.173929 -2.684700
v 3.991793 4.173929 1.597769
v -0.551134 4.173929 1.597769
v -2.822598 -0.017332 -0.543465
v 1.720329 -0.017332 -4.825934
v 1.720329 -0.017332 3.739004
v 6.263256 -0.017332 -0.543465
v 1.720329 -0.017332 -0.543465
v -2.822598 -0.017332 1.597769
v -0.551134 -0.017332 -4.825934
v 3.991793 -0.017332 3.739004
v 6.263256 -0.017332 -2.684700
v -2.822598 -0.017332 -2.684700
v 3.991793 -0.017332 -4.825934
v -0.551134 -0.017332 3.739004
v 6.263256 -0.017332 1.597769
v 1.720329 -0.017332 1.597769
v 1.720329 -0.017332 -2.684700
v -0.551134 -0.017332 -0.543465
v 3.991793 -0.017332 -0.543465
v 3.991793 -0.017332 -2.684700
v -0.551134 -0.017332 -2.684700
v -0.551134 -0.017332 1.597769
v 3.991793 -0.017332 1.597769
v -0.551134 4.173929 -4.825934
v -2.822598 4.173929 -2.684700
v -1.063214 4.173929 -4.782229
v -1.553928 4.173929 -4.637495
v -1.995199 4.173929 -4.388704
v -2.358775 4.173929 -4.045973
v -2.622698 4.173929 -3.630001
v -2.776235 4.173929 -3.167420
v -2.822598 -0.017332 -2.684700
v -0.551134 -0.017332 -4.825934
v 2.687030 -0.017332 3.739004
v 2.687030 4.173929 3.739004
v -2.677019 1.931225 3.739004
v 6.116154 2.076804 3.739004
v 2.834132 2.076804 3.739004
v 6.263256 2.076804 3.739004
v 2.834132 0.129770 3.739004
v 6.116154 0.129770 3.739004
v 2.834132 4.026827 3.739004
v 2.541451 1.931225 3.739004
v 6.116154 4.026827 3.739004
v 2.834132 0.129770 0.946435
v 6.116154 0.129770 0.946435
v 2.834132 4.026827 0.946435
v 6.116154 4.026827 0.946435
v 6.116154 2.076804 0.946435
v 2.834132 2.076804 0.946435
v 2.541451 0.128247 3.739004
v -2.677019 0.128247 3.739004
v -2.675019 2.224383 3.739004
v 2.539451 2.224383 3.739004
v -2.822598 2.076804 3.739004
v 2.539451 4.026350 3.739004
v -2.675019 4.026350 3.739004
v 2.687030 2.076804 3.739004
v -2.677019 0.128247 0.949157
v 2.541451 0.128247 0.949157
v -2.675019 4.026350 0.949157
v 2.539451 4.026350 0.949157
v -2.677019 1.931225 0.949157
v 2.541451 1.931225 0.949157
v -2.675019 2.224383 0.949157
v 2.539451 2.224383 0.949157
v -0.551134 3.928234 -4.825934
v -1.063214 3.928234 -4.782229
v -1.553928 3.928234 -4.637495
v -1.995199 3.928234 -4.388704
v -2.358775 3.928234 -4.045973
v -2.622698 3.928234 -3.630001
v -2.776235 3.928234 -3.167420
v -2.822598 3.928234 -2.684700
v 6.263256 3.347081 -4.825934
v -0.551134 3.347081 -4.825934
v 6.263256 3.190265 -4.825934
v -0.551134 3.190265 -4.825934
v 6.263256 3.347081 -5.331738
v -0.551134 3.347081 -5.331738
v 6.263256 3.190265 -5.331738
v -0.551134 3.190265 -5.331738
v -2.012510 4.370090 2.714736
v -2.467036 4.370090 2.260210
v -2.243807 4.370090 2.659635
v -2.411935 4.370090 2.491507
v -2.467036 4.166790 2.260210
v -2.012510 4.166790 2.714736
v -2.411935 4.166790 2.491507
v -2.243807 4.166790 2.659635
v -2.467036 4.370090 1.169261
v -2.012510 4.370090 0.714736
v -2.411935 4.370090 0.937965
v -2.243807 4.370090 0.769837
v -2.012510 4.166790 0.714736
v -2.467036 4.166790 1.169261
v -2.243807 4.166790 0.769837
v -2.411935 4.166790 0.937965
v 2.467036 4.370090 2.260210
v 2.012510 4.370090 2.714736
v 2.411935 4.370090 2.491507
v 2.243807 4.370090 2.659635
v 2.012510 4.166790 2.714736
v 2.467036 4.166790 2.260210
v 2.243807 4.166790 2.659635
v 2.411935 4.166790 2.491507
v 2.012510 4.370090 0.714736
v 2.467036 4.370090 1.169261
v 2.243807 4.370090 0.769837
v 2.411935 4.370090 0.937965
v 2.467036 4.166790 1.169261
v 2.012510 4.166790 0.714736
v 2.411935 4.166790 0.937965
v 2.243807 4.166790 0.769837
v -2.870607 4.172903 3.800249
v 6.314052 4.172903 3.800249
v 6.314052 4.172903 -4.873881
v -0.577260 4.172903 -4.873881
v -2.870607 4.172903 -2.580534
v -1.094273 4.172903 -4.827072
v -1.589715 4.172903 -4.672055
v -2.035238 4.172903 -4.405591
v -2.402316 4.172903 -4.038512
v -2.668781 4.172903 -3.592989
v -2.823798 4.172903 -3.097547
v -2.735079 4.337911 3.664721
v -2.870607 4.202383 3.800249
v -2.804046 4.321482 3.733688
v -2.854177 4.271350 3.783819
v 6.178524 4.337911 3.664721
v 6.314052 4.202383 3.800249
v 6.247490 4.321482 3.733687
v 6.297622 4.271350 3.783819
v 6.178524 4.337911 -4.738353
v 6.314052 4.202383 -4.873881
v 6.247490 4.321482 -4.807320
v 6.297621 4.271350 -4.857451
v -2.735079 4.337911 -2.574412
v -2.870607 4.202383 -2.580534
v -2.804046 4.321482 -2.577528
v -2.854178 4.271350 -2.579792
v -0.571133 4.337911 -4.738353
v -0.577260 4.202383 -4.873881
v -0.574251 4.321482 -4.807320
v -0.576517 4.271350 -4.857451
v -2.690128 4.337911 -3.070900
v -2.823798 4.202383 -3.097547
v -2.758149 4.321482 -3.084460
v -2.807593 4.271350 -3.094317
v -2.544229 4.337911 -3.537200
v -2.668781 4.202383 -3.592989
v -2.607611 4.321482 -3.565590
v -2.653682 4.271350 -3.586226
v -2.294618 4.337911 -3.954544
v -2.402316 4.202383 -4.038512
v -2.349422 4.321482 -3.997273
v -2.389260 4.271350 -4.028332
v -1.951270 4.337911 -4.297892
v -2.035238 4.202383 -4.405591
v -1.993999 4.321482 -4.352697
v -2.025059 4.271350 -4.392535
v -1.533926 4.337911 -4.547503
v -1.589715 4.202383 -4.672055
v -1.562316 4.321482 -4.610885
v -1.582952 4.271350 -4.656956
v -1.067627 4.337911 -4.693402
v -1.094273 4.202383 -4.827072
v -1.081186 4.321482 -4.761423
v -1.091043 4.271350 -4.810867
v -2.467036 4.337911 2.260210
v -2.411935 4.337911 2.491507
v -2.467036 4.337911 1.169261
v -2.243807 4.337911 2.659635
v -2.243807 4.337911 0.769837
v -2.012510 4.337911 2.714736
v -2.012510 4.337911 0.714736
v -2.411935 4.337911 0.937965
v 2.012510 4.337911 0.714736
v 2.243807 4.337911 0.769837
v 2.467036 4.337911 1.169261
v 2.467036 4.337911 2.260210
v 2.411935 4.337911 2.491507
v 2.411935 4.337911 0.937965
v 2.012510 4.337911 2.714736
v 2.243807 4.337911 2.659635
vn -0.0000 1.0000 -0.0000
vn -0.0000 -1.0000 -0.0000
vn 1.0000 -0.0000 -0.0000
vn -1.0000 -0.0000 -0.0000
vn -0.0000 -0.0000 -1.0000
vn -0.0000 -0.0000 1.0000
vn -0.9954 -0.0000 -0.0956
vn -0.9491 -0.0000 -0.3150
vn -0.8444 -0.0000 -0.5357
vn -0.6859 -0.0000 -0.7277
vn -0.4911 -0.0000 -0.8711
vn -0.2829 -0.0000 -0.9592
vn -0.0850 -0.0000 -0.9964
vn 0.2317 -0.0000 -0.9728
vn 0.7071 -0.0000 -0.7071
vn 0.9728 -0.0000 -0.2317
vn 0.2317 -0.0000 0.9728
vn 0.7071 -0.0000 0.7071
vn 0.9728 -0.0000 0.2317
vn -0.9728 -0.0000 0.2317
vn -0.7071 -0.0000 0.7071
vn -0.2317 -0.0000 0.9728
vn -0.2317 -0.0000 -0.9728
vn -0.7071 -0.0000 -0.7071
vn -0.9728 -0.0000 -0.2317
vn -0.9959 -0.0000 -0.0902
vn -0.9544 -0.0000 -0.2986
vn -0.2986 -0.0000 -0.9544
vn -0.5133 -0.0000 -0.8582
vn -0.8582 -0.0000 -0.5133
vn -0.0902 -0.0000 -0.9959
vn 0.2317 0.9728 -0.0000
vn 0.7071 0.7071 -0.0000
vn 0.9728 0.2318 -0.0000
vn -0.0000 0.9728 0.2317
vn -0.0000 0.7071 0.7071
vn -0.0000 0.2317 0.9728
vn -0.0209 0.9728 -0.2308
vn -0.0638 0.7071 -0.7042
vn -0.0877 0.2317 -0.9688
vn -0.0692 0.9728 -0.2212
vn -0.2111 0.7071 -0.6748
vn -0.2905 0.2317 -0.9284
vn -0.1189 0.9728 -0.1989
vn -0.3629 0.7071 -0.6069
vn -0.4993 0.2317 -0.8349
vn -0.1639 0.9728 -0.1639
vn -0.5000 0.7071 -0.5000
vn -0.6879 0.2317 -0.6879
vn -0.1989 0.9728 -0.1189
vn -0.6068 0.7071 -0.3630
vn -0.8348 0.2317 -0.4993
vn -0.2212 0.9728 -0.0692
vn -0.6748 0.7071 -0.2111
vn -0.9284 0.2317 -0.2905
vn -0.2308 0.9728 -0.0209
vn -0.7042 0.7071 -0.0638
vn -0.9688 0.2317 -0.0877
vn -0.9728 0.2317 -0.0000
vn -0.7071 0.7071 -0.0000
vn -0.2317 0.9728 -0.0000
vn -0.0000 0.2317 -0.9728
vn -0.0000 0.7071 -0.7071
vn -0.0000 0.9728 -0.2317
vn 0.1075 -0.9941 0.0103
vn 0.0847 -0.9899 0.1136
vn -0.2829 -0.0000 -0.9591
vn 0.9728 0.2317 -0.0000
vn -0.0877 0.2318 -0.9688
vn -0.1190 0.9728 -0.1989
vn -0.3630 0.7071 -0.6068
vn -0.4993 0.2317 -0.8348
vn -0.1989 0.9728 -0.1190
vn -0.6069 0.7071 -0.3630
vn -0.8349 0.2317 -0.4993
vn -0.0000 0.2318 -0.9728
vt 0.625000 0.500000
vt 0.375000 0.500000
vt 0.625000 0.750000
vt 0.375000 0.750000
vt 0.875000 0.750000
vt 0.625000 0.000000
vt 0.125000 0.750000
vt 0.375000 0.000000
vt 0.750000 0.750000
vt 0.625000 0.625000
vt 0.625000 0.125000
vt 0.875000 0.625000
vt 0.750000 0.500000
vt 0.750000 0.625000
vt 0.812500 0.750000
vt 0.625000 0.687500
vt 0.625000 0.187500
vt 0.875000 0.562500
vt 0.687500 0.500000
vt 0.687500 0.750000
vt 0.625000 0.562500
vt 0.625000 0.062500
vt 0.875000 0.687500
vt 0.812500 0.500000
vt 0.750000 0.687500
vt 0.750000 0.562500
vt 0.687500 0.625000
vt 0.812500 0.625000
vt 0.812500 0.562500
vt 0.000000 0.000000
vt 0.687500 0.562500
vt 0.687500 0.687500
vt 0.812500 0.687500
vt 0.375000 0.125000
vt 0.125000 0.625000
vt 0.250000 0.500000
vt 0.250000 0.750000
vt 0.375000 0.625000
vt 0.250000 0.625000
vt 0.375000 0.062500
vt 0.125000 0.687500
vt 0.187500 0.500000
vt 0.312500 0.750000
vt 0.375000 0.562500
vt 0.375000 0.187500
vt 0.125000 0.562500
vt 0.312500 0.500000
vt 0.187500 0.750000
vt 0.375000 0.687500
vt 0.250000 0.687500
vt 0.250000 0.562500
vt 0.187500 0.625000
vt 0.312500 0.625000
vt 0.312500 0.562500
vt 0.187500 0.562500
vt 0.000000 0.000000
vt 0.187500 0.687500
vt 0.312500 0.687500
vt 0.625000 0.312500
vt 0.812500 0.500000
vt 0.000000 0.000000
vt 0.875000 0.562500
vt 0.625000 0.187500
vt 0.826590 0.501276
vt 0.625000 0.298410
vt 0.840092 0.505500
vt 0.625000 0.284908
vt 0.852234 0.512762
vt 0.625000 0.272766
vt 0.862238 0.522766
vt 0.625000 0.227234
vt 0.869500 0.534908
vt 0.625000 0.215092
vt 0.873724 0.548410
vt 0.625000 0.201590
vt 0.375000 0.187500
vt 0.000000 0.000000
vt 0.375000 0.454797
vt 0.625000 0.454797
vt 0.491227 0.012017
vt 0.499911 0.737857
vt 0.499911 0.466940
vt 0.499911 0.750000
vt 0.383774 0.466940
vt 0.383774 0.737857
vt 0.616226 0.466940
vt 0.491227 0.442780
vt 0.616226 0.737857
vt 0.383774 0.466940
vt 0.383774 0.737857
vt 0.616226 0.466940
vt 0.616226 0.737857
vt 0.499911 0.737857
vt 0.499911 0.466940
vt 0.383684 0.442780
vt 0.383684 0.012017
vt 0.508714 0.012182
vt 0.508714 0.442615
vt 0.499911 0.000000
vt 0.616197 0.442615
vt 0.616197 0.012182
vt 0.499911 0.454797
vt 0.383684 0.012017
vt 0.383684 0.442780
vt 0.616197 0.012182
vt 0.616197 0.442615
vt 0.491227 0.012017
vt 0.491227 0.442780
vt 0.508714 0.012182
vt 0.508714 0.442615
vt 0.000000 0.000000
vt 0.610345 0.312500
vt 0.610345 0.298410
vt 0.610345 0.284908
vt 0.610345 0.272766
vt 0.610345 0.227234
vt 0.610345 0.215092
vt 0.610345 0.201590
vt 0.000000 0.000000
vt 0.610345 0.187500
vt 0.575680 0.500000
vt 0.000000 0.000000
vt 0.566326 0.500000
vt 0.000000 0.000000
vt 0.575680 0.500000
vt 0.000000 0.000000
vt 0.566326 0.500000
vt 0.000000 0.000000
vt 0.375000 0.976970
vt 0.148030 0.750000
vt 0.375000 0.056816
vt 0.125000 0.693184
vt 0.375000 0.000000
vt 0.375000 1.000000
vt 0.136311 0.743112
vt 0.375000 0.027904
vt 0.127792 0.722096
vt 0.875000 0.693184
vt 0.625000 0.056816
vt 0.851970 0.750000
vt 0.625000 0.976970
vt 0.872208 0.722096
vt 0.625000 0.027904
vt 0.863689 0.743112
vt 0.625000 1.000000
vt 0.625000 0.000000
vt 0.375000 0.193184
vt 0.125000 0.556816
vt 0.375000 0.273030
vt 0.148030 0.500000
vt 0.375000 0.222096
vt 0.127792 0.527904
vt 0.375000 0.261311
vt 0.136311 0.506888
vt 0.851970 0.500000
vt 0.625000 0.273030
vt 0.875000 0.556816
vt 0.625000 0.193184
vt 0.863689 0.506888
vt 0.625000 0.261311
vt 0.872208 0.527904
vt 0.625000 0.222096
vt 0.375000 0.693184
vt 0.375000 0.773030
vt 0.351970 0.750000
vt 0.375000 0.722096
vt 0.372208 0.722096
vt 0.375000 0.761311
vt 0.363689 0.743112
vt 0.625000 0.773030
vt 0.648030 0.750000
vt 0.625000 0.693184
vt 0.636311 0.743112
vt 0.625000 0.761311
vt 0.627792 0.722096
vt 0.625000 0.722096
vt 0.375000 0.476970
vt 0.351970 0.500000
vt 0.375000 0.556816
vt 0.375000 0.488689
vt 0.363689 0.506888
vt 0.375000 0.527904
vt 0.372208 0.527904
vt 0.625000 0.556816
vt 0.648030 0.500000
vt 0.625000 0.476970
vt 0.627792 0.527904
vt 0.625000 0.527904
vt 0.636311 0.506888
vt 0.625000 0.488689
vt 0.875000 0.750000
vt 0.625000 1.000000
vt 0.625000 0.000000
vt 0.625000 0.750000
vt 0.625000 0.500000
vt 0.812577 0.500000
vt 0.625000 0.312423
vt 0.875000 0.566097
vt 0.625000 0.183903
vt 0.826649 0.501349
vt 0.625000 0.298351
vt 0.840135 0.505817
vt 0.625000 0.284865
vt 0.852262 0.513497
vt 0.625000 0.272738
vt 0.862253 0.524076
vt 0.625000 0.225924
vt 0.869506 0.536917
vt 0.625000 0.213083
vt 0.873726 0.551196
vt 0.625000 0.198804
vt 0.128689 0.746094
vt 0.580335 0.000000
vt 0.580335 1.000000
vt 0.126812 0.748082
vt 0.375000 0.999553
vt 0.125000 0.749527
vt 0.125447 0.750000
vt 0.375000 0.000474
vt 0.371311 0.746094
vt 0.580335 0.750000
vt 0.373188 0.748082
vt 0.475844 0.749527
vt 0.374553 0.750000
vt 0.375000 0.750447
vt 0.371311 0.503906
vt 0.580335 0.500000
vt 0.373188 0.501918
vt 0.374553 0.500000
vt 0.475844 0.500474
vt 0.375000 0.499553
vt 0.128689 0.566274
vt 0.580335 0.183903
vt 0.126812 0.566184
vt 0.375000 0.183881
vt 0.125000 0.566119
vt 0.187590 0.503906
vt 0.580335 0.312423
vt 0.187505 0.501918
vt 0.375000 0.312444
vt 0.187444 0.500000
vt 0.129912 0.551964
vt 0.580335 0.198804
vt 0.128061 0.551574
vt 0.126270 0.551247
vt 0.375000 0.198753
vt 0.133884 0.538525
vt 0.580335 0.213083
vt 0.132159 0.537707
vt 0.375000 0.213131
vt 0.130521 0.536869
vt 0.130478 0.536971
vt 0.375000 0.213029
vt 0.140678 0.526497
vt 0.580335 0.225924
vt 0.139186 0.525265
vt 0.375000 0.226107
vt 0.137718 0.524127
vt 0.375000 0.225873
vt 0.150024 0.516601
vt 0.580335 0.272738
vt 0.148861 0.515021
vt 0.375000 0.272786
vt 0.147699 0.513538
vt 0.375000 0.272555
vt 0.161384 0.509407
vt 0.580335 0.284865
vt 0.160611 0.507580
vt 0.375000 0.284916
vt 0.159820 0.505846
vt 0.174076 0.505202
vt 0.580335 0.298351
vt 0.173707 0.503241
vt 0.375000 0.298398
vt 0.173305 0.501364
vt 0.135985 0.705614
vt 0.137485 0.712280
vt 0.135985 0.674171
vt 0.142061 0.717126
vt 0.142061 0.662659
vt 0.148357 0.718714
vt 0.148357 0.661071
vt 0.137485 0.667505
vt 0.257915 0.661071
vt 0.264211 0.662659
vt 0.270287 0.674171
vt 0.270287 0.705614
vt 0.268787 0.712280
vt 0.268787 0.667505
vt 0.257915 0.718714
vt 0.264211 0.717126
s 0
f 18/23/1 12/15/1 27/33/1
f 67/86/2 73/92/2 69/88/2
f 49/60/1 54/70/1 50/62/1
f 40/49/2 35/43/2 48/58/2
f 100/121/3 13/16/3 4/4/3
f 80/99/4 50/63/4 99/120/4
f 20/25/1 16/20/1 26/32/1
f 21/26/1 22/27/1 25/31/1
f 14/18/1 23/28/1 24/29/1
f 24/29/1 11/14/1 21/26/1
f 19/24/1 21/26/1 10/13/1
f 25/31/1 8/10/1 17/21/1
f 15/19/1 17/21/1 1/1/1
f 10/13/1 25/31/1 15/19/1
f 26/32/1 3/3/1 13/16/1
f 22/27/1 13/16/1 8/10/1
f 11/14/1 26/32/1 22/27/1
f 27/33/1 7/9/1 20/25/1
f 23/28/1 20/25/1 11/14/1
f 9/12/1 27/33/1 23/28/1
f 41/50/2 39/48/2 47/57/2
f 42/51/2 43/52/2 46/55/2
f 36/44/2 44/53/2 45/54/2
f 45/54/2 32/39/2 42/51/2
f 38/47/2 42/51/2 29/36/2
f 2/2/2 45/54/2 38/47/2
f 46/55/2 28/35/2 37/46/2
f 29/36/2 46/55/2 34/42/2
f 47/57/2 6/7/2 33/41/2
f 43/52/2 33/41/2 28/35/2
f 32/39/2 47/57/2 43/52/2
f 48/58/2 30/37/2 41/50/2
f 44/53/2 41/50/2 32/39/2
f 31/38/2 48/58/2 44/53/2
f 98/118/2 94/114/2 92/112/2
f 46/56/5 99/119/5 14/18/5
f 24/30/4 92/111/4 34/42/4
f 2/2/5 103/124/5 102/123/5
f 77/96/3 88/107/3 61/80/3
f 76/95/1 84/103/1 77/96/1
f 69/88/4 74/93/4 62/81/4
f 66/85/6 64/83/6 62/81/6
f 66/85/6 59/78/6 4/4/6
f 69/88/6 60/79/6 67/86/6
f 67/86/6 83/102/6 63/82/6
f 69/88/6 64/83/6 3/3/6
f 65/84/6 83/102/6 59/78/6
f 74/93/6 72/91/6 75/94/6
f 71/90/6 75/94/6 70/89/6
f 62/81/4 71/90/4 66/85/4
f 65/84/3 75/94/3 63/82/3
f 63/82/3 72/91/3 67/86/3
f 66/85/1 70/89/1 65/84/1
f 77/96/6 59/78/6 76/95/6
f 61/80/6 6/8/6 77/96/6
f 76/95/6 83/102/6 68/87/6
f 68/87/6 80/99/6 61/80/6
f 82/101/6 80/99/6 78/97/6
f 81/100/6 5/6/6 82/101/6
f 79/98/6 60/79/6 81/100/6
f 78/97/6 83/102/6 79/98/6
f 91/110/6 86/105/6 90/109/6
f 85/104/6 88/107/6 84/103/6
f 81/100/4 91/110/4 79/98/4
f 78/97/3 86/105/3 82/101/3
f 82/101/2 87/106/2 81/100/2
f 68/87/4 85/104/4 76/95/4
f 79/98/1 90/109/1 78/97/1
f 61/80/2 89/108/2 68/87/2
f 98/118/7 50/63/7 56/75/7
f 97/117/8 56/75/8 55/73/8
f 96/116/9 55/73/9 54/71/9
f 95/115/10 54/71/10 53/69/10
f 94/114/11 53/69/11 52/67/11
f 93/113/12 52/67/12 51/65/12
f 92/112/13 51/65/13 49/59/13
f 100/121/1 105/126/1 101/122/1
f 106/127/5 105/126/5 104/125/5
f 103/124/2 106/127/2 102/123/2
f 102/123/3 104/125/3 100/121/3
f 101/122/4 107/128/4 103/124/4
f 100/121/5 49/61/5 10/13/5
f 128/170/5 108/129/5 125/164/5
f 136/184/4 124/163/4 133/179/4
f 121/157/1 113/140/1 129/172/1
f 112/139/3 116/147/3 109/131/3
f 120/156/6 132/177/6 117/149/6
f 113/141/14 110/134/14 108/129/14
f 115/146/15 111/136/15 110/133/15
f 114/143/16 109/131/16 111/136/16
f 117/149/17 122/160/17 120/156/17
f 119/153/18 123/162/18 122/160/18
f 118/151/19 121/158/19 123/162/19
f 133/179/20 138/188/20 136/184/20
f 135/182/21 139/190/21 138/188/21
f 134/180/22 137/186/22 139/190/22
f 125/164/23 130/174/23 128/170/23
f 127/168/24 131/176/24 130/174/24
f 126/166/25 129/172/25 131/176/25
f 133/179/2 125/165/2 109/132/2
f 144/199/26 172/243/26 150/211/26
f 145/200/2 140/191/2 148/206/2
f 160/227/5 143/197/5 168/238/5
f 205/286/1 206/287/1 155/220/1
f 171/242/1 151/212/1 197/278/1
f 195/276/1 209/290/1 205/286/1
f 152/214/6 141/194/6 156/221/6
f 150/211/27 176/248/27 149/209/27
f 146/203/28 192/272/28 145/201/28
f 147/205/29 188/267/29 146/203/29
f 148/207/24 184/261/24 147/205/24
f 149/209/30 180/255/30 148/207/30
f 145/201/31 168/238/31 143/197/31
f 156/221/3 142/195/3 160/227/3
f 157/222/32 159/226/32 155/220/32
f 158/223/33 161/228/33 157/222/33
f 158/223/34 160/227/34 162/230/34
f 153/215/35 155/220/35 151/212/35
f 153/215/36 158/224/36 157/222/36
f 152/214/37 158/225/37 154/216/37
f 169/239/38 191/271/38 167/237/38
f 170/241/39 193/273/39 169/239/39
f 168/238/40 194/274/40 170/240/40
f 193/273/41 187/266/41 191/271/41
f 194/275/42 189/268/42 193/273/42
f 192/272/43 190/269/43 194/274/43
f 189/268/44 183/260/44 187/266/44
f 190/270/45 185/262/45 189/268/45
f 188/267/46 186/263/46 190/269/46
f 183/260/47 181/256/47 179/254/47
f 186/264/48 181/256/48 185/262/48
f 186/265/49 180/255/49 182/257/49
f 179/254/50 177/249/50 175/247/50
f 181/256/51 178/251/51 177/249/51
f 182/259/52 176/248/52 178/250/52
f 175/247/53 173/244/53 171/242/53
f 177/249/54 174/245/54 173/244/54
f 178/253/55 172/243/55 174/246/55
f 171/242/56 165/234/56 163/232/56
f 173/244/57 166/236/57 165/234/57
f 174/246/58 164/233/58 166/235/58
f 154/219/59 164/233/59 152/213/59
f 153/215/60 166/236/60 154/217/60
f 151/212/61 165/234/61 153/215/61
f 168/238/62 162/231/62 160/227/62
f 170/241/63 161/228/63 162/229/63
f 169/239/64 159/226/64 161/228/64
f 164/233/4 140/193/4 152/213/4
f 18/23/1 5/5/1 12/15/1
f 67/86/2 72/91/2 73/92/2
f 24/29/1 19/24/1 49/60/1
f 49/60/1 51/64/1 52/66/1
f 52/66/1 53/68/1 54/70/1
f 54/70/1 55/72/1 56/74/1
f 50/62/1 14/18/1 24/29/1
f 54/70/1 56/74/1 50/62/1
f 49/60/1 52/66/1 54/70/1
f 50/62/1 24/29/1 49/60/1
f 40/49/2 4/4/2 35/43/2
f 36/44/3 2/2/3 102/123/3
f 100/121/3 1/1/3 17/21/3
f 36/44/3 102/123/3 100/121/3
f 4/4/1 40/49/1 31/38/1
f 31/38/3 36/44/3 100/121/3
f 100/121/3 17/21/3 8/10/3
f 13/16/3 3/3/3 64/83/3
f 100/121/3 8/10/3 13/16/3
f 4/4/3 31/38/3 100/121/3
f 13/16/3 64/83/3 4/4/3
f 33/40/4 6/8/4 80/99/4
f 80/99/4 5/6/4 18/22/4
f 9/11/1 14/17/1 50/63/1
f 80/99/4 18/22/4 9/11/4
f 28/34/4 33/40/4 80/99/4
f 99/120/1 57/76/1 37/45/1
f 37/45/4 28/34/4 80/99/4
f 80/99/4 9/11/4 50/63/4
f 99/120/4 37/45/4 80/99/4
f 20/25/1 7/9/1 16/20/1
f 21/26/1 11/14/1 22/27/1
f 14/18/1 9/12/1 23/28/1
f 24/29/1 23/28/1 11/14/1
f 19/24/1 24/29/1 21/26/1
f 25/31/1 22/27/1 8/10/1
f 15/19/1 25/31/1 17/21/1
f 10/13/1 21/26/1 25/31/1
f 26/32/1 16/20/1 3/3/1
f 22/27/1 26/32/1 13/16/1
f 11/14/1 20/25/1 26/32/1
f 27/33/1 12/15/1 7/9/1
f 23/28/1 27/33/1 20/25/1
f 9/12/1 18/23/1 27/33/1
f 41/50/2 30/37/2 39/48/2
f 42/51/2 32/39/2 43/52/2
f 36/44/2 31/38/2 44/53/2
f 45/54/2 44/53/2 32/39/2
f 38/47/2 45/54/2 42/51/2
f 2/2/2 36/44/2 45/54/2
f 46/55/2 43/52/2 28/35/2
f 29/36/2 42/51/2 46/55/2
f 47/57/2 39/48/2 6/7/2
f 43/52/2 47/57/2 33/41/2
f 32/39/2 41/50/2 47/57/2
f 48/58/2 35/43/2 30/37/2
f 44/53/2 48/58/2 41/50/2
f 31/38/2 40/49/2 48/58/2
f 24/30/65 99/120/65 98/118/65
f 98/118/2 97/117/2 96/116/2
f 96/116/2 95/115/2 94/114/2
f 94/114/2 93/113/2 92/112/2
f 92/112/66 24/30/66 98/118/66
f 98/118/2 96/116/2 94/114/2
f 14/18/5 24/30/5 46/56/5
f 46/56/5 37/46/5 99/119/5
f 34/42/4 46/56/4 24/30/4
f 24/30/4 19/24/4 92/111/4
f 2/2/5 58/77/5 103/124/5
f 77/96/3 84/103/3 88/107/3
f 76/95/1 85/104/1 84/103/1
f 69/88/4 73/92/4 74/93/4
f 66/85/6 4/4/6 64/83/6
f 66/85/6 65/84/6 59/78/6
f 69/88/6 3/3/6 60/79/6
f 67/86/6 60/79/6 83/102/6
f 69/88/6 62/81/6 64/83/6
f 65/84/6 63/82/6 83/102/6
f 74/93/6 73/92/6 72/91/6
f 71/90/6 74/93/6 75/94/6
f 62/81/4 74/93/4 71/90/4
f 65/84/3 70/89/3 75/94/3
f 63/82/3 75/94/3 72/91/3
f 66/85/1 71/90/1 70/89/1
f 77/96/6 6/8/6 59/78/6
f 61/80/6 80/99/6 6/8/6
f 76/95/6 59/78/6 83/102/6
f 68/87/6 83/102/6 80/99/6
f 82/101/6 5/6/6 80/99/6
f 81/100/6 60/79/6 5/6/6
f 79/98/6 83/102/6 60/79/6
f 78/97/6 80/99/6 83/102/6
f 91/110/6 87/106/6 86/105/6
f 85/104/6 89/108/6 88/107/6
f 81/100/4 87/106/4 91/110/4
f 78/97/3 90/109/3 86/105/3
f 82/101/2 86/105/2 87/106/2
f 68/87/4 89/108/4 85/104/4
f 79/98/1 91/110/1 90/109/1
f 61/80/2 88/107/2 89/108/2
f 98/118/7 99/120/7 50/63/7
f 97/117/8 98/118/8 56/75/8
f 96/116/9 97/117/9 55/73/9
f 95/115/10 96/116/10 54/71/10
f 94/114/11 95/115/11 53/69/11
f 93/113/67 94/114/67 52/67/67
f 92/112/13 93/113/13 51/65/13
f 100/121/1 104/125/1 105/126/1
f 106/127/5 107/128/5 105/126/5
f 103/124/2 107/128/2 106/127/2
f 102/123/3 106/127/3 104/125/3
f 101/122/4 105/126/4 107/128/4
f 15/19/5 1/1/5 100/121/5
f 100/121/5 101/122/5 49/61/5
f 10/13/5 15/19/5 100/121/5
f 128/170/5 113/141/5 108/129/5
f 136/184/4 129/172/4 124/163/4
f 129/172/1 136/184/1 138/187/1
f 138/187/1 139/189/1 137/185/1
f 137/185/1 120/155/1 122/159/1
f 122/159/1 123/161/1 121/157/1
f 121/157/1 112/138/1 114/142/1
f 114/142/1 115/144/1 113/140/1
f 113/140/1 128/171/1 130/173/1
f 130/173/1 131/175/1 129/172/1
f 129/172/1 138/187/1 137/185/1
f 137/185/1 122/159/1 121/157/1
f 121/157/1 114/142/1 113/140/1
f 113/140/1 130/173/1 129/172/1
f 129/172/1 137/185/1 121/157/1
f 112/139/3 121/158/3 116/147/3
f 120/156/6 137/186/6 132/177/6
f 113/141/14 115/145/14 110/134/14
f 115/146/15 114/143/15 111/136/15
f 114/143/16 112/139/16 109/131/16
f 117/149/17 119/153/17 122/160/17
f 119/153/18 118/151/18 123/162/18
f 118/151/19 116/147/19 121/158/19
f 133/179/20 135/182/20 138/188/20
f 135/182/21 134/180/21 139/190/21
f 134/180/22 132/177/22 137/186/22
f 125/164/23 127/168/23 130/174/23
f 127/168/24 126/166/24 131/176/24
f 126/166/25 124/163/25 129/172/25
f 109/132/2 116/148/2 118/152/2
f 118/152/2 119/154/2 117/150/2
f 117/150/2 132/178/2 134/181/2
f 134/181/2 135/183/2 133/179/2
f 133/179/2 124/163/2 126/167/2
f 126/167/2 127/169/2 125/165/2
f 125/165/2 108/130/2 110/135/2
f 110/135/2 111/137/2 109/132/2
f 109/132/2 118/152/2 117/150/2
f 117/150/2 134/181/2 133/179/2
f 133/179/2 126/167/2 125/165/2
f 125/165/2 110/135/2 109/132/2
f 109/132/2 117/150/2 133/179/2
f 144/199/26 164/233/26 172/243/26
f 147/204/2 146/202/2 145/200/2
f 145/200/2 143/196/2 142/195/2
f 142/195/2 141/194/2 140/191/2
f 140/191/2 144/198/2 150/210/2
f 150/210/2 149/208/2 148/206/2
f 148/206/2 147/204/2 145/200/2
f 145/200/2 142/195/2 140/191/2
f 140/191/2 150/210/2 148/206/2
f 160/227/5 142/195/5 143/197/5
f 183/260/1 179/254/1 175/247/1
f 175/247/1 171/242/1 201/282/1
f 175/247/1 201/282/1 203/284/1
f 187/266/1 183/260/1 175/247/1
f 167/237/1 191/271/1 187/266/1
f 155/220/1 159/226/1 167/237/1
f 200/281/1 198/279/1 151/212/1
f 209/290/1 200/281/1 151/212/1
f 155/220/1 167/237/1 187/266/1
f 187/266/1 175/247/1 203/284/1
f 187/266/1 203/284/1 204/285/1
f 209/290/1 151/212/1 155/220/1
f 210/291/1 209/290/1 155/220/1
f 155/220/1 187/266/1 204/285/1
f 155/220/1 204/285/1 208/289/1
f 207/288/1 210/291/1 155/220/1
f 206/287/1 207/288/1 155/220/1
f 155/220/1 208/289/1 205/286/1
f 199/280/1 201/282/1 171/242/1
f 171/242/1 163/232/1 151/212/1
f 151/212/1 198/279/1 196/277/1
f 151/212/1 196/277/1 195/276/1
f 202/283/1 199/280/1 171/242/1
f 151/212/1 195/276/1 197/278/1
f 197/278/1 202/283/1 171/242/1
f 205/286/1 208/289/1 204/285/1
f 204/285/1 203/284/1 201/282/1
f 201/282/1 199/280/1 202/283/1
f 202/283/1 197/278/1 195/276/1
f 195/276/1 196/277/1 198/279/1
f 198/279/1 200/281/1 209/290/1
f 209/290/1 210/291/1 207/288/1
f 207/288/1 206/287/1 205/286/1
f 205/286/1 204/285/1 201/282/1
f 201/282/1 202/283/1 195/276/1
f 195/276/1 198/279/1 209/290/1
f 209/290/1 207/288/1 205/286/1
f 205/286/1 201/282/1 195/276/1
f 152/214/6 140/192/6 141/194/6
f 150/211/27 172/243/27 176/248/27
f 146/203/28 188/267/28 192/272/28
f 147/205/29 184/261/29 188/267/29
f 148/207/24 180/255/24 184/261/24
f 149/209/30 176/248/30 180/255/30
f 145/201/31 192/272/31 168/238/31
f 156/221/3 141/194/3 142/195/3
f 157/222/32 161/228/32 159/226/32
f 158/223/33 162/230/33 161/228/33
f 158/223/68 156/221/68 160/227/68
f 153/215/35 157/222/35 155/220/35
f 153/215/36 154/218/36 158/224/36
f 152/214/37 156/221/37 158/225/37
f 169/239/38 193/273/38 191/271/38
f 170/241/39 194/275/39 193/273/39
f 168/238/69 192/272/69 194/274/69
f 193/273/41 189/268/41 187/266/41
f 194/275/42 190/270/42 189/268/42
f 192/272/43 188/267/43 190/269/43
f 189/268/70 185/262/70 183/260/70
f 190/270/71 186/264/71 185/262/71
f 188/267/72 184/261/72 186/263/72
f 183/260/47 185/262/47 181/256/47
f 186/264/48 182/258/48 181/256/48
f 186/265/49 184/261/49 180/255/49
f 179/254/73 181/256/73 177/249/73
f 181/256/74 182/258/74 178/251/74
f 182/259/75 180/255/75 176/248/75
f 175/247/53 177/249/53 173/244/53
f 177/249/54 178/252/54 174/245/54
f 178/253/55 176/248/55 172/243/55
f 171/242/56 173/244/56 165/234/56
f 173/244/57 174/245/57 166/236/57
f 174/246/58 172/243/58 164/233/58
f 154/219/59 166/235/59 164/233/59
f 153/215/60 165/234/60 166/236/60
f 151/212/61 163/232/61 165/234/61
f 168/238/76 170/240/76 162/231/76
f 170/241/63 169/239/63 161/228/63
f 169/239/64 167/237/64 159/226/64
f 164/233/4 144/199/4 140/193/4
