# Blender 3.3.1
# www.blender.org
o small_glass
v -0.000000 0.010747 -0.106083
v 0.000000 0.562589 -0.279597
v 0.020696 0.010747 -0.104044
v 0.054547 0.562589 -0.274225
v 0.040596 0.010747 -0.098008
v 0.106997 0.562589 -0.258314
v 0.058936 0.010747 -0.088205
v 0.155336 0.562589 -0.232477
v 0.075012 0.010747 -0.075012
v 0.197705 0.562589 -0.197705
v 0.088205 0.010747 -0.058936
v 0.232477 0.562589 -0.155336
v 0.098008 0.010747 -0.040596
v 0.258314 0.562589 -0.106997
v 0.104044 0.010747 -0.020696
v 0.274225 0.562589 -0.054547
v 0.106083 0.010747 0.000000
v 0.279597 0.562589 0.000000
v 0.104044 0.010747 0.020696
v 0.274225 0.562589 0.054547
v 0.098008 0.010747 0.040596
v 0.258314 0.562589 0.106997
v 0.088205 0.010747 0.058936
v 0.232477 0.562589 0.155336
v 0.075012 0.010747 0.075012
v 0.197705 0.562589 0.197705
v 0.058936 0.010747 0.088205
v 0.155336 0.562589 0.232477
v 0.040596 0.010747 0.098008
v 0.106997 0.562589 0.258314
v 0.020696 0.010747 0.104044
v 0.054547 0.562589 0.274225
v -0.000000 0.010747 0.106083
v 0.000000 0.562589 0.279597
v -0.020696 0.010747 0.104044
v -0.054547 0.562589 0.274225
v -0.040596 0.010747 0.098008
v -0.106997 0.562589 0.258314
v -0.058936 0.010747 0.088205
v -0.155336 0.562589 0.232477
v -0.075012 0.010747 0.075012
v -0.197705 0.562589 0.197705
v -0.088205 0.010747 0.058936
v -0.232477 0.562589 0.155336
v -0.098008 0.010747 0.040596
v -0.258314 0.562589 0.106997
v -0.104044 0.010747 0.020696
v -0.274225 0.562589 0.054547
v -0.106083 0.010747 0.000000
v -0.279597 0.562589 0.000000
v -0.104044 0.010747 -0.020696
v -0.274225 0.562589 -0.054547
v -0.098008 0.010747 -0.040596
v -0.258314 0.562588 -0.106997
v -0.088205 0.010747 -0.058936
v -0.232477 0.562588 -0.155336
v -0.075012 0.010747 -0.075012
v -0.197705 0.562588 -0.197705
v -0.058936 0.010747 -0.088205
v -0.155336 0.562588 -0.232477
v -0.040596 0.010747 -0.098008
v -0.106997 0.562588 -0.258314
v -0.020696 0.010747 -0.104044
v -0.054547 0.562588 -0.274225
v 0.061838 0.562589 -0.310878
v 0.000000 0.562588 -0.316969
v 0.121299 0.562589 -0.292841
v 0.176098 0.562589 -0.263550
v 0.224131 0.562589 -0.224131
v 0.263550 0.562589 -0.176098
v 0.292841 0.562589 -0.121299
v 0.310878 0.562589 -0.061838
v 0.316969 0.562589 0.000000
v 0.310878 0.562589 0.061838
v 0.292841 0.562589 0.121299
v 0.263550 0.562589 0.176098
v 0.224131 0.562589 0.224131
v 0.176098 0.562589 0.263550
v 0.121299 0.562589 0.292841
v 0.061838 0.562589 0.310878
v 0.000000 0.562589 0.316969
v -0.061838 0.562589 0.310878
v -0.121299 0.562589 0.292841
v -0.176098 0.562589 0.263550
v -0.224131 0.562589 0.224131
v -0.263550 0.562589 0.176098
v -0.292841 0.562589 0.121299
v -0.310878 0.562589 0.061838
v -0.316969 0.562589 0.000000
v -0.310878 0.562588 -0.061838
v -0.292841 0.562588 -0.121299
v -0.263550 0.562588 -0.176098
v -0.224131 0.562588 -0.224131
v -0.176098 0.562588 -0.263550
v -0.121299 0.562588 -0.292841
v -0.061838 0.562588 -0.310878
v 0.048053 0.024369 -0.241577
v -0.000000 0.024369 -0.246310
v 0.094259 0.024369 -0.227561
v 0.136842 0.024369 -0.204799
v 0.174167 0.024369 -0.174167
v 0.204799 0.024369 -0.136843
v 0.227561 0.024369 -0.094259
v 0.241577 0.024369 -0.048053
v 0.246310 0.024369 0.000000
v 0.241577 0.024369 0.048053
v 0.227561 0.024369 0.094259
v 0.204799 0.024369 0.136843
v 0.174167 0.024369 0.174168
v 0.136842 0.024369 0.204799
v 0.094259 0.024369 0.227561
v 0.048053 0.024369 0.241577
v -0.000000 0.024369 0.246310
v -0.048053 0.024369 0.241577
v -0.094259 0.024369 0.227561
v -0.136843 0.024369 0.204799
v -0.174168 0.024369 0.174168
v -0.204799 0.024369 0.136843
v -0.227561 0.024369 0.094259
v -0.241577 0.024369 0.048053
v -0.246310 0.024369 0.000000
v -0.241577 0.024369 -0.048053
v -0.227561 0.024369 -0.094259
v -0.204799 0.024369 -0.136843
v -0.174168 0.024369 -0.174167
v -0.136843 0.024369 -0.204799
v -0.094259 0.024369 -0.227561
v -0.048053 0.024369 -0.241577
v 0.054475 -0.002697 -0.273867
v 0.106858 -0.002697 -0.257977
v 0.155133 -0.002697 -0.232173
v 0.232173 -0.002697 -0.155133
v 0.257977 -0.002697 -0.106858
v 0.273867 -0.002697 -0.054475
v 0.273867 -0.002697 0.054476
v 0.257977 -0.002697 0.106858
v 0.232173 -0.002697 0.155133
v 0.155133 -0.002697 0.232173
v 0.106858 -0.002697 0.257977
v 0.054475 -0.002697 0.273867
v -0.054476 -0.002697 0.273867
v -0.106858 -0.002697 0.257977
v -0.155133 -0.002697 0.232173
v -0.232173 -0.002697 0.155133
v -0.257977 -0.002697 0.106858
v -0.273867 -0.002697 0.054476
v -0.273867 -0.002697 -0.054475
v -0.257977 -0.002697 -0.106858
v -0.232173 -0.002697 -0.155133
v -0.155133 -0.002697 -0.232173
v -0.106858 -0.002697 -0.257977
v -0.054476 -0.002697 -0.273867
v -0.000000 -0.002697 -0.232423
v 0.045343 -0.002697 -0.227957
v 0.088944 -0.002697 -0.214730
v 0.129127 -0.002697 -0.193252
v 0.164348 -0.002697 -0.164348
v 0.193252 -0.002697 -0.129127
v 0.214730 -0.002697 -0.088944
v 0.227957 -0.002697 -0.045343
v 0.232423 -0.002697 0.000000
v 0.227957 -0.002697 0.045343
v 0.214730 -0.002697 0.088944
v 0.193252 -0.002697 0.129127
v 0.164348 -0.002697 0.164348
v 0.129127 -0.002697 0.193252
v 0.088944 -0.002697 0.214731
v 0.045343 -0.002697 0.227957
v -0.000000 -0.002697 0.232423
v -0.045343 -0.002697 0.227957
v -0.088944 -0.002697 0.214731
v -0.129127 -0.002697 0.193252
v -0.164348 -0.002697 0.164348
v -0.193252 -0.002697 0.129127
v -0.214731 -0.002697 0.088944
v -0.227957 -0.002697 0.045343
v -0.232423 -0.002697 0.000000
v -0.227957 -0.002697 -0.045343
v -0.214731 -0.002697 -0.088944
v -0.193252 -0.002697 -0.129127
v -0.164348 -0.002697 -0.164348
v -0.129127 -0.002697 -0.193252
v -0.088944 -0.002697 -0.214730
v -0.045343 -0.002697 -0.227957
v 0.060365 0.449531 -0.303476
v 0.058893 0.336474 -0.296074
v 0.057420 0.223417 -0.288671
v 0.055948 0.110360 -0.281269
v 0.118411 0.449531 -0.285868
v 0.115522 0.336474 -0.278895
v 0.112634 0.223417 -0.271923
v 0.109746 0.110360 -0.264950
v 0.171905 0.449531 -0.257275
v 0.167712 0.336474 -0.250999
v 0.163519 0.223417 -0.244724
v 0.159326 0.110360 -0.238448
v 0.257275 0.449531 -0.171905
v 0.250999 0.336474 -0.167712
v 0.244724 0.223417 -0.163519
v 0.238448 0.110360 -0.159326
v 0.285868 0.449531 -0.118410
v 0.278895 0.336474 -0.115522
v 0.271923 0.223417 -0.112634
v 0.264950 0.110360 -0.109746
v 0.303476 0.449531 -0.060365
v 0.296074 0.336474 -0.058893
v 0.288671 0.223417 -0.057420
v 0.281269 0.110360 -0.055948
v 0.303476 0.449531 0.060365
v 0.296074 0.336474 0.058893
v 0.288671 0.223417 0.057420
v 0.281269 0.110360 0.055948
v 0.285868 0.449531 0.118411
v 0.278895 0.336474 0.115522
v 0.271923 0.223417 0.112634
v 0.264950 0.110360 0.109746
v 0.257275 0.449531 0.171905
v 0.250999 0.336474 0.167712
v 0.244724 0.223417 0.163519
v 0.238448 0.110360 0.159326
v 0.171905 0.449531 0.257275
v 0.167712 0.336474 0.250999
v 0.163519 0.223417 0.244724
v 0.159326 0.110360 0.238449
v 0.118411 0.449531 0.285868
v 0.115522 0.336474 0.278895
v 0.112634 0.223417 0.271923
v 0.109746 0.110360 0.264950
v 0.060365 0.449531 0.303476
v 0.058893 0.336474 0.296074
v 0.057420 0.223417 0.288672
v 0.055948 0.110360 0.281269
v -0.060365 0.449531 0.303476
v -0.058893 0.336474 0.296074
v -0.057420 0.223417 0.288672
v -0.055948 0.110360 0.281269
v -0.118410 0.449531 0.285868
v -0.115522 0.336474 0.278895
v -0.112634 0.223417 0.271923
v -0.109746 0.110360 0.264950
v -0.171905 0.449531 0.257275
v -0.167712 0.336474 0.250999
v -0.163519 0.223417 0.244724
v -0.159326 0.110360 0.238449
v -0.257275 0.449531 0.171905
v -0.250999 0.336474 0.167712
v -0.244724 0.223417 0.163519
v -0.238449 0.110360 0.159326
v -0.285868 0.449531 0.118411
v -0.278895 0.336474 0.115522
v -0.271923 0.223417 0.112634
v -0.264950 0.110360 0.109746
v -0.303476 0.449531 0.060365
v -0.296074 0.336474 0.058893
v -0.288672 0.223417 0.057420
v -0.281269 0.110360 0.055948
v -0.303476 0.449531 -0.060365
v -0.296074 0.336474 -0.058893
v -0.288672 0.223417 -0.057420
v -0.281269 0.110360 -0.055948
v -0.285868 0.449531 -0.118410
v -0.278895 0.336474 -0.115522
v -0.271923 0.223417 -0.112634
v -0.264950 0.110360 -0.109746
v -0.257275 0.449531 -0.171905
v -0.250999 0.336474 -0.167712
v -0.244724 0.223417 -0.163519
v -0.238449 0.110360 -0.159326
v -0.171905 0.449531 -0.257275
v -0.167712 0.336474 -0.250999
v -0.163519 0.223417 -0.244724
v -0.159326 0.110360 -0.238448
v -0.118410 0.449531 -0.285868
v -0.115522 0.336474 -0.278895
v -0.112634 0.223417 -0.271923
v -0.109746 0.110360 -0.264950
v -0.060365 0.449531 -0.303476
v -0.058893 0.336474 -0.296074
v -0.057420 0.223417 -0.288671
v -0.055948 0.110360 -0.281269
v 0.000000 0.531632 -0.314902
v 0.061434 0.531632 -0.308852
v 0.120508 0.531632 -0.290932
v 0.174950 0.531632 -0.261832
v 0.222670 0.531632 -0.222670
v 0.261832 0.531632 -0.174950
v 0.290932 0.531632 -0.120508
v 0.308852 0.531632 -0.061434
v 0.314902 0.531632 0.000000
v 0.308852 0.531632 0.061434
v 0.290932 0.531632 0.120508
v 0.261832 0.531632 0.174950
v 0.222670 0.531632 0.222670
v 0.174950 0.531632 0.261832
v 0.120508 0.531632 0.290932
v 0.061434 0.531632 0.308852
v 0.000000 0.531632 0.314902
v -0.061434 0.531632 0.308852
v -0.120508 0.531632 0.290932
v -0.174950 0.531632 0.261832
v -0.222670 0.531632 0.222670
v -0.261832 0.531632 0.174950
v -0.290932 0.531632 0.120508
v -0.308852 0.531632 0.061434
v -0.314902 0.531632 0.000000
v -0.308852 0.531632 -0.061434
v -0.290932 0.531632 -0.120508
v -0.261832 0.531632 -0.174950
v -0.222670 0.531632 -0.222670
v -0.174950 0.531632 -0.261832
v -0.120508 0.531632 -0.290932
v -0.061434 0.531632 -0.308852
v -0.000000 0.008750 -0.265793
v 0.051854 0.008750 -0.260686
v 0.053255 0.116366 -0.267732
v 0.151658 0.116366 -0.226972
v 0.147667 0.008750 -0.220999
v 0.187944 0.008750 -0.187944
v 0.193024 0.116366 -0.193024
v 0.220999 0.008750 -0.147667
v 0.226972 0.116366 -0.151658
v 0.267732 0.116366 -0.053255
v 0.260686 0.008750 -0.051854
v 0.265793 0.008750 0.000000
v 0.272977 0.116366 0.000000
v 0.260686 0.008750 0.051854
v 0.267732 0.116366 0.053255
v 0.226972 0.116366 0.151658
v 0.220999 0.008750 0.147667
v 0.187944 0.008750 0.187944
v 0.193024 0.116366 0.193024
v 0.147667 0.008750 0.220999
v 0.151658 0.116366 0.226972
v 0.053255 0.116366 0.267732
v 0.051854 0.008750 0.260686
v -0.000000 0.008750 0.265793
v -0.000000 0.116366 0.272977
v -0.051854 0.008750 0.260686
v -0.053255 0.116366 0.267732
v -0.151658 0.116366 0.226972
v -0.147667 0.008750 0.220999
v -0.187944 0.008750 0.187944
v -0.193024 0.116366 0.193024
v -0.220999 0.008750 0.147667
v -0.226972 0.116366 0.151658
v -0.267732 0.116366 0.053255
v -0.260686 0.008750 0.051854
v -0.265793 0.008750 0.000000
v -0.272977 0.116366 0.000000
v -0.260686 0.008750 -0.051854
v -0.267732 0.116366 -0.053255
v -0.226972 0.116366 -0.151658
v -0.220999 0.008750 -0.147667
v -0.187944 0.008750 -0.187944
v -0.193024 0.116366 -0.193024
v -0.147667 0.008750 -0.220999
v -0.151658 0.116366 -0.226972
v -0.053255 0.116366 -0.267732
v -0.051854 0.008750 -0.260686
v -0.000000 0.008750 -0.221236
v 0.043161 0.008750 -0.216985
v 0.122912 0.008750 -0.183951
v 0.156438 0.008750 -0.156438
v 0.183951 0.008750 -0.122912
v 0.216985 0.008750 -0.043161
v 0.221236 0.008750 0.000000
v 0.216985 0.008750 0.043161
v 0.183951 0.008750 0.122912
v 0.156438 0.008750 0.156438
v 0.122912 0.008750 0.183951
v 0.043161 0.008750 0.216986
v -0.000000 0.008750 0.221236
v -0.043161 0.008750 0.216986
v -0.122912 0.008750 0.183951
v -0.156438 0.008750 0.156438
v -0.183951 0.008750 0.122912
v -0.216985 0.008750 0.043161
v -0.221236 0.008750 0.000000
v -0.216985 0.008750 -0.043161
v -0.183951 0.008750 -0.122912
v -0.156438 0.008750 -0.156438
v -0.122912 0.008750 -0.183951
v -0.043161 0.008750 -0.216985
v -0.000000 0.116366 -0.272977
v -0.000000 0.223981 -0.280161
v -0.000000 0.331597 -0.287345
v 0.000000 0.439213 -0.294529
v 0.058478 0.517363 -0.293987
v 0.057460 0.439213 -0.288870
v 0.056058 0.331597 -0.281824
v 0.054657 0.223981 -0.274778
v 0.166530 0.517363 -0.249230
v 0.163632 0.439213 -0.244892
v 0.159641 0.331597 -0.238919
v 0.155649 0.223981 -0.232946
v 0.211953 0.517363 -0.211953
v 0.208264 0.439213 -0.208264
v 0.203184 0.331597 -0.203184
v 0.198104 0.223981 -0.198104
v 0.249230 0.517363 -0.166530
v 0.244892 0.439213 -0.163632
v 0.238919 0.331597 -0.159641
v 0.232946 0.223981 -0.155649
v 0.293987 0.517363 -0.058478
v 0.288870 0.439213 -0.057460
v 0.281824 0.331597 -0.056058
v 0.274778 0.223981 -0.054657
v 0.299747 0.517363 0.000000
v 0.294529 0.439213 0.000000
v 0.287345 0.331597 0.000000
v 0.280161 0.223982 0.000000
v 0.293987 0.517363 0.058478
v 0.288870 0.439213 0.057460
v 0.281824 0.331597 0.056058
v 0.274778 0.223982 0.054657
v 0.249230 0.517363 0.166530
v 0.244892 0.439213 0.163632
v 0.238919 0.331597 0.159641
v 0.232946 0.223982 0.155649
v 0.211953 0.517363 0.211953
v 0.208264 0.439213 0.208264
v 0.203184 0.331597 0.203184
v 0.198104 0.223982 0.198104
v 0.166530 0.517363 0.249230
v 0.163632 0.439213 0.244892
v 0.159641 0.331597 0.238919
v 0.155649 0.223982 0.232946
v 0.058478 0.517363 0.293987
v 0.057460 0.439213 0.288870
v 0.056058 0.331597 0.281824
v 0.054657 0.223982 0.274778
v 0.000000 0.517363 0.299747
v 0.000000 0.439213 0.294530
v -0.000000 0.331597 0.287345
v -0.000000 0.223982 0.280161
v -0.058478 0.517363 0.293987
v -0.057460 0.439213 0.288870
v -0.056058 0.331597 0.281824
v -0.054657 0.223982 0.274778
v -0.166530 0.517363 0.249230
v -0.163632 0.439213 0.244892
v -0.159641 0.331597 0.238919
v -0.155649 0.223981 0.232946
v -0.211953 0.517363 0.211953
v -0.208264 0.439213 0.208264
v -0.203184 0.331597 0.203184
v -0.198104 0.223981 0.198104
v -0.249230 0.517363 0.166530
v -0.244892 0.439213 0.163632
v -0.238919 0.331597 0.159641
v -0.232946 0.223981 0.155649
v -0.293987 0.517363 0.058478
v -0.288870 0.439213 0.057460
v -0.281824 0.331597 0.056058
v -0.274778 0.223981 0.054657
v -0.299746 0.517363 0.000000
v -0.294529 0.439213 0.000000
v -0.287345 0.331597 0.000000
v -0.280161 0.223981 0.000000
v -0.293987 0.517363 -0.058478
v -0.288870 0.439213 -0.057460
v -0.281824 0.331597 -0.056058
v -0.274778 0.223981 -0.054657
v -0.249230 0.517363 -0.166530
v -0.244892 0.439213 -0.163632
v -0.238919 0.331597 -0.159641
v -0.232946 0.223981 -0.155649
v -0.211953 0.517363 -0.211953
v -0.208264 0.439213 -0.208264
v -0.203184 0.331597 -0.203184
v -0.198104 0.223981 -0.198104
v -0.166530 0.517363 -0.249230
v -0.163632 0.439213 -0.244892
v -0.159641 0.331597 -0.238919
v -0.155649 0.223981 -0.232946
v -0.058478 0.517363 -0.293987
v -0.057460 0.439213 -0.288870
v -0.056058 0.331597 -0.281824
v -0.054657 0.223981 -0.274778
v 0.000000 0.517363 -0.299746
vn 0.0978 -0.0663 -0.9930
vn 0.2896 -0.0663 -0.9548
vn 0.4704 -0.0663 -0.8800
vn 0.6330 -0.0663 -0.7713
vn 0.7713 -0.0663 -0.6330
vn 0.8800 -0.0663 -0.4704
vn 0.9548 -0.0663 -0.2896
vn 0.9930 -0.0663 -0.0978
vn 0.9930 -0.0663 0.0978
vn 0.9548 -0.0663 0.2896
vn 0.8800 -0.0663 0.4704
vn 0.7713 -0.0663 0.6330
vn 0.6330 -0.0663 0.7713
vn 0.4704 -0.0663 0.8800
vn 0.2896 -0.0663 0.9548
vn 0.0978 -0.0663 0.9930
vn -0.0978 -0.0663 0.9930
vn -0.2896 -0.0663 0.9548
vn -0.4704 -0.0663 0.8800
vn -0.6330 -0.0663 0.7713
vn -0.7713 -0.0663 0.6330
vn -0.8800 -0.0663 0.4704
vn -0.9548 -0.0663 0.2896
vn -0.9930 -0.0663 0.0978
vn -0.9930 -0.0663 -0.0978
vn -0.9548 -0.0663 -0.2896
vn -0.8800 -0.0663 -0.4704
vn -0.7713 -0.0663 -0.6330
vn -0.6330 -0.0663 -0.7713
vn -0.4704 -0.0663 -0.8800
vn -0.2897 0.0614 -0.9551
vn -0.2896 -0.0663 -0.9548
vn -0.0978 -0.0663 -0.9930
vn -0.0000 -1.0000 -0.0000
vn -0.0000 1.0000 -0.0000
vn -0.2897 0.0614 0.9551
vn 0.6332 0.0614 0.7716
vn -0.0978 0.0614 -0.9933
vn -0.4705 0.0614 0.8803
vn 0.4705 0.0614 0.8803
vn 0.0978 0.0614 -0.9933
vn -0.6332 0.0614 0.7716
vn 0.2897 0.0614 0.9551
vn 0.2897 0.0614 -0.9551
vn -0.7716 0.0614 0.6332
vn 0.0978 0.0614 0.9933
vn 0.4705 0.0614 -0.8803
vn -0.8803 0.0614 0.4705
vn 0.6332 0.0614 -0.7716
vn -0.9551 0.0614 0.2897
vn 0.7716 0.0614 -0.6332
vn -0.9933 0.0614 0.0978
vn 0.8803 0.0614 -0.4705
vn -0.9933 0.0614 -0.0978
vn 0.9551 0.0614 -0.2897
vn -0.9551 0.0614 -0.2897
vn 0.9933 0.0614 -0.0978
vn -0.8803 0.0614 -0.4705
vn 0.9933 0.0614 0.0978
vn -0.7716 0.0614 -0.6332
vn 0.9551 0.0614 0.2897
vn -0.6332 0.0614 -0.7716
vn 0.8803 0.0614 0.4705
vn -0.4705 0.0614 -0.8803
vn -0.0978 0.0614 0.9933
vn 0.7716 0.0614 0.6332
vn 0.9808 -0.0000 0.1951
vn -0.5556 -0.0000 0.8315
vn 0.8315 -0.0000 0.5556
vn -0.8315 -0.0000 0.5556
vn 0.1951 -0.0000 -0.9808
vn 0.1951 -0.0000 0.9808
vn -0.8315 -0.0000 -0.5556
vn -0.0104 -0.9943 0.1058
vn -0.0309 -0.9943 0.1017
vn -0.0501 -0.9943 0.0938
vn -0.0675 -0.9943 0.0822
vn -0.0822 -0.9943 0.0675
vn -0.0938 -0.9943 0.0501
vn -0.1017 -0.9943 0.0309
vn -0.1058 -0.9943 0.0104
vn -0.1058 -0.9943 -0.0104
vn -0.1017 -0.9943 -0.0309
vn -0.0938 -0.9943 -0.0501
vn -0.0822 -0.9943 -0.0675
vn -0.0675 -0.9943 -0.0822
vn -0.0501 -0.9943 -0.0938
vn -0.0309 -0.9943 -0.1017
vn -0.0104 -0.9943 -0.1058
vn 0.0104 -0.9943 -0.1058
vn 0.0309 -0.9943 -0.1017
vn 0.0501 -0.9943 -0.0938
vn 0.0675 -0.9943 -0.0822
vn 0.0822 -0.9943 -0.0675
vn 0.0938 -0.9943 -0.0501
vn 0.1017 -0.9943 -0.0309
vn 0.1058 -0.9943 -0.0104
vn 0.1058 -0.9943 0.0104
vn 0.1017 -0.9943 0.0309
vn 0.0938 -0.9943 0.0501
vn 0.0822 -0.9943 0.0675
vn 0.0675 -0.9943 0.0822
vn 0.0501 -0.9943 0.0938
vn 0.0309 -0.9943 0.1017
vn 0.0104 -0.9943 0.1058
vn -0.5556 -0.0000 -0.8315
vn -0.9808 -0.0000 0.1951
vn -0.9808 -0.0000 -0.1951
vn 0.0674 -0.7264 -0.6839
vn 0.5556 -0.0000 -0.8315
vn 0.4360 -0.7264 -0.5312
vn 0.5313 -0.7264 -0.4360
vn -0.0703 0.6972 -0.7134
vn 0.8315 -0.0000 -0.5556
vn 0.6839 -0.7264 -0.0674
vn -0.4548 0.6972 -0.5542
vn 0.6839 -0.7264 0.0674
vn -0.5542 0.6972 -0.4548
vn -0.1951 -0.0000 0.9808
vn 0.5313 -0.7264 0.4360
vn -0.7134 0.6972 -0.0703
vn 0.4360 -0.7264 0.5313
vn 0.9808 -0.0000 -0.1951
vn -0.7134 0.6972 0.0703
vn 0.0674 -0.7264 0.6839
vn -0.5542 0.6972 0.4548
vn -0.0674 -0.7264 0.6839
vn -0.4548 0.6972 0.5542
vn -0.1951 -0.0000 -0.9808
vn -0.4360 -0.7264 0.5313
vn -0.0703 0.6972 0.7134
vn -0.5313 -0.7264 0.4360
vn 0.0703 0.6972 0.7134
vn -0.6839 -0.7264 0.0674
vn 0.4548 0.6972 0.5542
vn -0.6839 -0.7264 -0.0674
vn 0.5542 0.6972 0.4548
vn 0.5556 -0.0000 0.8315
vn -0.5313 -0.7264 -0.4360
vn 0.7134 0.6972 0.0703
vn -0.4360 -0.7264 -0.5313
vn 0.7134 0.6972 -0.0703
vn 0.0703 0.6972 -0.7134
vn 0.4548 0.6972 -0.5542
vn 0.5542 0.6972 -0.4548
vn -0.0674 -0.7264 -0.6839
vn 0.4360 -0.7264 -0.5313
vn 0.5312 -0.7264 -0.4360
vn 0.5312 -0.7264 0.4360
vn -0.5312 -0.7264 0.4360
vn -0.5312 -0.7264 -0.4360
vn -0.4360 -0.7264 -0.5312
vt 0.750000 0.341178
vt 0.250000 0.461703
vt 0.767788 0.339426
vt 0.291301 0.457636
vt 0.784892 0.334238
vt 0.331015 0.445588
vt 0.800656 0.325812
vt 0.367616 0.426025
vt 0.814473 0.314473
vt 0.399697 0.399697
vt 0.825812 0.300656
vt 0.426025 0.367616
vt 0.834238 0.284892
vt 0.445588 0.331015
vt 0.839426 0.267788
vt 0.457636 0.291301
vt 0.841178 0.250000
vt 0.461703 0.250000
vt 0.839426 0.232212
vt 0.457635 0.208699
vt 0.834237 0.215108
vt 0.445588 0.168985
vt 0.825812 0.199344
vt 0.426025 0.132384
vt 0.814473 0.185527
vt 0.399697 0.100303
vt 0.800656 0.174188
vt 0.367616 0.073975
vt 0.784892 0.165762
vt 0.331015 0.054412
vt 0.767788 0.160574
vt 0.291301 0.042364
vt 0.750000 0.158822
vt 0.250000 0.038297
vt 0.732212 0.160574
vt 0.208699 0.042364
vt 0.715108 0.165762
vt 0.168985 0.054412
vt 0.699344 0.174188
vt 0.132384 0.073975
vt 0.685527 0.185527
vt 0.100303 0.100303
vt 0.674188 0.199344
vt 0.073975 0.132384
vt 0.665762 0.215108
vt 0.054412 0.168985
vt 0.660574 0.232212
vt 0.042364 0.208699
vt 0.658822 0.250000
vt 0.038297 0.250000
vt 0.660574 0.267788
vt 0.042364 0.291301
vt 0.665762 0.284892
vt 0.054412 0.331015
vt 0.674188 0.300656
vt 0.073975 0.367616
vt 0.685527 0.314473
vt 0.100303 0.399697
vt 0.699344 0.325812
vt 0.132384 0.426025
vt 0.715108 0.334238
vt 0.168985 0.445588
vt 0.732212 0.339426
vt 0.208699 0.457635
vt 0.968750 1.000000
vt 0.296822 0.485388
vt 1.000000 1.000000
vt 0.000000 1.000000
vt 0.250000 0.490000
vt 0.937500 1.000000
vt 0.341844 0.471731
vt 0.906250 1.000000
vt 0.383337 0.449553
vt 0.875000 1.000000
vt 0.419706 0.419706
vt 0.843750 1.000000
vt 0.449553 0.383337
vt 0.812500 1.000000
vt 0.471731 0.341844
vt 0.781250 1.000000
vt 0.485388 0.296822
vt 0.750000 1.000000
vt 0.490000 0.250000
vt 0.718750 1.000000
vt 0.485388 0.203178
vt 0.687500 1.000000
vt 0.471731 0.158156
vt 0.656250 1.000000
vt 0.449553 0.116663
vt 0.625000 1.000000
vt 0.419706 0.080294
vt 0.593750 1.000000
vt 0.383337 0.050447
vt 0.562500 1.000000
vt 0.341844 0.028269
vt 0.531250 1.000000
vt 0.296822 0.014612
vt 0.500000 1.000000
vt 0.250000 0.010000
vt 0.468750 1.000000
vt 0.203178 0.014612
vt 0.437500 1.000000
vt 0.158156 0.028269
vt 0.406250 1.000000
vt 0.116663 0.050447
vt 0.375000 1.000000
vt 0.080294 0.080294
vt 0.343750 1.000000
vt 0.050447 0.116663
vt 0.312500 1.000000
vt 0.028269 0.158156
vt 0.281250 1.000000
vt 0.014612 0.203178
vt 0.250000 1.000000
vt 0.010000 0.250000
vt 0.218750 1.000000
vt 0.014612 0.296822
vt 0.187500 1.000000
vt 0.028269 0.341844
vt 0.156250 1.000000
vt 0.050447 0.383337
vt 0.125000 1.000000
vt 0.080294 0.419706
vt 0.093750 1.000000
vt 0.116663 0.449553
vt 0.062500 1.000000
vt 0.158156 0.471731
vt 0.031250 1.000000
vt 0.203178 0.485388
vt 0.291301 0.457636
vt 0.250000 0.461703
vt 0.331015 0.445588
vt 0.367616 0.426025
vt 0.399697 0.399697
vt 0.426025 0.367616
vt 0.445588 0.331015
vt 0.457636 0.291301
vt 0.461703 0.250000
vt 0.457635 0.208699
vt 0.445588 0.168985
vt 0.426025 0.132384
vt 0.399697 0.100303
vt 0.367616 0.073975
vt 0.331015 0.054412
vt 0.291301 0.042364
vt 0.250000 0.038297
vt 0.208699 0.042364
vt 0.168985 0.054412
vt 0.132384 0.073975
vt 0.100303 0.100303
vt 0.073975 0.132384
vt 0.054412 0.168985
vt 0.042364 0.208699
vt 0.038297 0.250000
vt 0.042364 0.291301
vt 0.054412 0.331015
vt 0.073975 0.367616
vt 0.100303 0.399697
vt 0.132384 0.426025
vt 0.168985 0.445588
vt 0.208699 0.457635
vt 0.796822 0.485388
vt 0.968750 0.500000
vt 0.841844 0.471731
vt 0.937500 0.500000
vt 0.883337 0.449553
vt 0.906250 0.500000
vt 0.949553 0.383337
vt 0.843750 0.500000
vt 0.812500 0.500000
vt 0.971731 0.341844
vt 0.985388 0.296822
vt 0.781250 0.500000
vt 0.985388 0.203178
vt 0.718750 0.500000
vt 0.971731 0.158156
vt 0.687500 0.500000
vt 0.949553 0.116663
vt 0.656250 0.500000
vt 0.883337 0.050447
vt 0.593750 0.500000
vt 0.562500 0.500000
vt 0.841844 0.028269
vt 0.531250 0.500000
vt 0.796822 0.014612
vt 0.703178 0.014612
vt 0.468750 0.500000
vt 0.658156 0.028269
vt 0.437500 0.500000
vt 0.406250 0.500000
vt 0.616663 0.050447
vt 0.550447 0.116663
vt 0.343750 0.500000
vt 0.528269 0.158156
vt 0.312500 0.500000
vt 0.281250 0.500000
vt 0.514612 0.203178
vt 0.514612 0.296822
vt 0.218750 0.500000
vt 0.187500 0.500000
vt 0.528269 0.341844
vt 0.156250 0.500000
vt 0.550447 0.383337
vt 0.616663 0.449553
vt 0.093750 0.500000
vt 0.658156 0.471731
vt 0.062500 0.500000
vt 0.031250 0.500000
vt 0.703178 0.485388
vt 0.750000 0.449767
vt 0.788973 0.445929
vt 0.826447 0.434561
vt 0.860985 0.416100
vt 0.891257 0.391257
vt 0.916100 0.360985
vt 0.934561 0.326448
vt 0.945929 0.288973
vt 0.949767 0.250000
vt 0.945929 0.211027
vt 0.934561 0.173552
vt 0.916100 0.139015
vt 0.891257 0.108743
vt 0.860985 0.083900
vt 0.826448 0.065439
vt 0.788973 0.054071
vt 0.750000 0.050233
vt 0.711028 0.054071
vt 0.673553 0.065439
vt 0.639016 0.083900
vt 0.608743 0.108743
vt 0.583900 0.139015
vt 0.565439 0.173552
vt 0.554071 0.211027
vt 0.550233 0.250000
vt 0.554071 0.288973
vt 0.565439 0.326448
vt 0.583900 0.360985
vt 0.608743 0.391257
vt 0.639015 0.416100
vt 0.673552 0.434561
vt 0.711027 0.445929
vt 0.968750 0.900000
vt 0.968750 0.800000
vt 0.968750 0.700000
vt 0.968750 0.600000
vt 0.937500 0.900000
vt 0.937500 0.800000
vt 0.937500 0.700000
vt 0.937500 0.600000
vt 0.906250 0.900000
vt 0.906250 0.800000
vt 0.906250 0.700000
vt 0.906250 0.600000
vt 0.843750 0.900000
vt 0.843750 0.800000
vt 0.843750 0.700000
vt 0.843750 0.600000
vt 0.812500 0.900000
vt 0.812500 0.800000
vt 0.812500 0.700000
vt 0.812500 0.600000
vt 0.781250 0.900000
vt 0.781250 0.800000
vt 0.781250 0.700000
vt 0.781250 0.600000
vt 0.718750 0.900000
vt 0.718750 0.800000
vt 0.718750 0.700000
vt 0.718750 0.600000
vt 0.687500 0.900000
vt 0.687500 0.800000
vt 0.687500 0.700000
vt 0.687500 0.600000
vt 0.656250 0.900000
vt 0.656250 0.800000
vt 0.656250 0.700000
vt 0.656250 0.600000
vt 0.593750 0.900000
vt 0.593750 0.800000
vt 0.593750 0.700000
vt 0.593750 0.600000
vt 0.562500 0.900000
vt 0.562500 0.800000
vt 0.562500 0.700000
vt 0.562500 0.600000
vt 0.531250 0.900000
vt 0.531250 0.800000
vt 0.531250 0.700000
vt 0.531250 0.600000
vt 0.468750 0.900000
vt 0.468750 0.800000
vt 0.468750 0.700000
vt 0.468750 0.600000
vt 0.437500 0.900000
vt 0.437500 0.800000
vt 0.437500 0.700000
vt 0.437500 0.600000
vt 0.406250 0.900000
vt 0.406250 0.800000
vt 0.406250 0.700000
vt 0.406250 0.600000
vt 0.343750 0.900000
vt 0.343750 0.800000
vt 0.343750 0.700000
vt 0.343750 0.600000
vt 0.312500 0.900000
vt 0.312500 0.800000
vt 0.312500 0.700000
vt 0.312500 0.600000
vt 0.281250 0.900000
vt 0.281250 0.800000
vt 0.281250 0.700000
vt 0.281250 0.600000
vt 0.218750 0.900000
vt 0.218750 0.800000
vt 0.218750 0.700000
vt 0.218750 0.600000
vt 0.187500 0.900000
vt 0.187500 0.800000
vt 0.187500 0.700000
vt 0.187500 0.600000
vt 0.156250 0.900000
vt 0.156250 0.800000
vt 0.156250 0.700000
vt 0.156250 0.600000
vt 0.093750 0.900000
vt 0.093750 0.800000
vt 0.093750 0.700000
vt 0.093750 0.600000
vt 0.062500 0.900000
vt 0.062500 0.800000
vt 0.062500 0.700000
vt 0.062500 0.600000
vt 0.031250 0.900000
vt 0.031250 0.800000
vt 0.031250 0.700000
vt 0.031250 0.600000
vt 1.000000 0.972619
vt 0.000000 0.972619
vt 0.968750 0.972619
vt 0.937500 0.972619
vt 0.906250 0.972619
vt 0.875000 0.972619
vt 0.843750 0.972619
vt 0.812500 0.972619
vt 0.781250 0.972619
vt 0.750000 0.972619
vt 0.718750 0.972619
vt 0.687500 0.972619
vt 0.656250 0.972619
vt 0.625000 0.972619
vt 0.593750 0.972619
vt 0.562500 0.972619
vt 0.531250 0.972619
vt 0.500000 0.972619
vt 0.468750 0.972619
vt 0.437500 0.972619
vt 0.406250 0.972619
vt 0.375000 0.972619
vt 0.343750 0.972619
vt 0.312500 0.972619
vt 0.281250 0.972619
vt 0.250000 0.972619
vt 0.218750 0.972619
vt 0.187500 0.972619
vt 0.156250 0.972619
vt 0.125000 0.972619
vt 0.093750 0.972619
vt 0.062500 0.972619
vt 0.031250 0.972619
vt 1.000000 0.500000
vt 0.750000 0.490000
vt 0.000000 0.500000
vt 0.796822 0.485388
vt 0.968750 0.500000
vt 0.968750 0.600000
vt 0.906250 0.600000
vt 0.883337 0.449553
vt 0.906250 0.500000
vt 0.875000 0.500000
vt 0.919706 0.419706
vt 0.875000 0.600000
vt 0.949553 0.383337
vt 0.843750 0.500000
vt 0.843750 0.600000
vt 0.781250 0.600000
vt 0.985388 0.296822
vt 0.781250 0.500000
vt 0.750000 0.500000
vt 0.990000 0.250000
vt 0.750000 0.600000
vt 0.985388 0.203178
vt 0.718750 0.500000
vt 0.718750 0.600000
vt 0.656250 0.600000
vt 0.656250 0.500000
vt 0.949553 0.116663
vt 0.919706 0.080294
vt 0.625000 0.500000
vt 0.625000 0.600000
vt 0.593750 0.500000
vt 0.883337 0.050447
vt 0.593750 0.600000
vt 0.531250 0.600000
vt 0.531250 0.500000
vt 0.796822 0.014612
vt 0.750000 0.010000
vt 0.500000 0.500000
vt 0.500000 0.600000
vt 0.468750 0.500000
vt 0.703178 0.014612
vt 0.468750 0.600000
vt 0.406250 0.600000
vt 0.406250 0.500000
vt 0.616663 0.050447
vt 0.580294 0.080294
vt 0.375000 0.500000
vt 0.375000 0.600000
vt 0.343750 0.500000
vt 0.550447 0.116663
vt 0.343750 0.600000
vt 0.281250 0.600000
vt 0.281250 0.500000
vt 0.514612 0.203178
vt 0.510000 0.250000
vt 0.250000 0.500000
vt 0.250000 0.600000
vt 0.514612 0.296822
vt 0.218750 0.500000
vt 0.218750 0.600000
vt 0.156250 0.600000
vt 0.156250 0.500000
vt 0.550447 0.383337
vt 0.580294 0.419706
vt 0.125000 0.500000
vt 0.125000 0.600000
vt 0.616663 0.449553
vt 0.093750 0.500000
vt 0.093750 0.600000
vt 0.031250 0.600000
vt 0.031250 0.500000
vt 0.703178 0.485388
vt 0.750000 0.449767
vt 0.788973 0.445929
vt 0.860985 0.416100
vt 0.891257 0.391257
vt 0.916100 0.360985
vt 0.945929 0.288973
vt 0.949767 0.250000
vt 0.945929 0.211027
vt 0.916100 0.139015
vt 0.891257 0.108743
vt 0.860985 0.083900
vt 0.788973 0.054071
vt 0.750000 0.050233
vt 0.711028 0.054071
vt 0.639016 0.083900
vt 0.608743 0.108743
vt 0.583900 0.139015
vt 0.554071 0.211027
vt 0.550233 0.250000
vt 0.554071 0.288973
vt 0.583900 0.360985
vt 0.608743 0.391257
vt 0.639015 0.416100
vt 0.711027 0.445929
vt 0.000000 0.600000
vt 1.000000 0.600000
vt 0.000000 0.700000
vt 1.000000 0.700000
vt 0.000000 0.800000
vt 1.000000 0.800000
vt 0.000000 0.900000
vt 1.000000 0.900000
vt 0.968750 0.972619
vt 0.968750 0.900000
vt 0.968750 0.800000
vt 0.968750 0.700000
vt 0.906250 0.972619
vt 0.906250 0.900000
vt 0.906250 0.800000
vt 0.906250 0.700000
vt 0.875000 0.972619
vt 0.875000 0.900000
vt 0.875000 0.800000
vt 0.875000 0.700000
vt 0.843750 0.972619
vt 0.843750 0.900000
vt 0.843750 0.800000
vt 0.843750 0.700000
vt 0.781250 0.972619
vt 0.781250 0.900000
vt 0.781250 0.800000
vt 0.781250 0.700000
vt 0.750000 0.972619
vt 0.750000 0.900000
vt 0.750000 0.800000
vt 0.750000 0.700000
vt 0.718750 0.972619
vt 0.718750 0.900000
vt 0.718750 0.800000
vt 0.718750 0.700000
vt 0.656250 0.972619
vt 0.656250 0.900000
vt 0.656250 0.800000
vt 0.656250 0.700000
vt 0.625000 0.972619
vt 0.625000 0.900000
vt 0.625000 0.800000
vt 0.625000 0.700000
vt 0.593750 0.972619
vt 0.593750 0.900000
vt 0.593750 0.800000
vt 0.593750 0.700000
vt 0.531250 0.972619
vt 0.531250 0.900000
vt 0.531250 0.800000
vt 0.531250 0.700000
vt 0.500000 0.972619
vt 0.500000 0.900000
vt 0.500000 0.800000
vt 0.500000 0.700000
vt 0.468750 0.972619
vt 0.468750 0.900000
vt 0.468750 0.800000
vt 0.468750 0.700000
vt 0.406250 0.972619
vt 0.406250 0.900000
vt 0.406250 0.800000
vt 0.406250 0.700000
vt 0.375000 0.972619
vt 0.375000 0.900000
vt 0.375000 0.800000
vt 0.375000 0.700000
vt 0.343750 0.972619
vt 0.343750 0.900000
vt 0.343750 0.800000
vt 0.343750 0.700000
vt 0.281250 0.972619
vt 0.281250 0.900000
vt 0.281250 0.800000
vt 0.281250 0.700000
vt 0.250000 0.972619
vt 0.250000 0.900000
vt 0.250000 0.800000
vt 0.250000 0.700000
vt 0.218750 0.972619
vt 0.218750 0.900000
vt 0.218750 0.800000
vt 0.218750 0.700000
vt 0.156250 0.972619
vt 0.156250 0.900000
vt 0.156250 0.800000
vt 0.156250 0.700000
vt 0.125000 0.972619
vt 0.125000 0.900000
vt 0.125000 0.800000
vt 0.125000 0.700000
vt 0.093750 0.972619
vt 0.093750 0.900000
vt 0.093750 0.800000
vt 0.093750 0.700000
vt 0.031250 0.972619
vt 0.031250 0.900000
vt 0.031250 0.800000
vt 0.031250 0.700000
vt 1.000000 0.972619
vt 0.000000 0.972619
s 0
f 66/67/1 282/340/1 281/338/1
f 282/340/2 67/70/2 283/341/2
f 67/70/3 284/342/3 283/341/3
f 68/72/4 285/343/4 284/342/4
f 285/343/5 70/76/5 286/344/5
f 70/76/6 287/345/6 286/344/6
f 71/78/7 288/346/7 287/345/7
f 288/346/8 73/82/8 289/347/8
f 73/82/9 290/348/9 289/347/9
f 290/348/10 75/86/10 291/349/10
f 75/86/11 292/350/11 291/349/11
f 292/350/12 77/90/12 293/351/12
f 77/90/13 294/352/13 293/351/13
f 78/92/14 295/353/14 294/352/14
f 79/94/15 296/354/15 295/353/15
f 296/354/16 81/98/16 297/355/16
f 81/98/17 298/356/17 297/355/17
f 298/356/18 83/102/18 299/357/18
f 83/102/19 300/358/19 299/357/19
f 84/104/20 301/359/20 300/358/20
f 301/359/21 86/108/21 302/360/21
f 302/360/22 87/110/22 303/361/22
f 87/110/23 304/362/23 303/361/23
f 88/112/24 305/363/24 304/362/24
f 305/363/25 90/116/25 306/364/25
f 90/116/26 307/365/26 306/364/26
f 91/118/27 308/366/27 307/365/27
f 92/120/28 309/367/28 308/366/28
f 93/122/29 310/368/29 309/367/29
f 94/124/30 311/369/30 310/368/30
f 30/30/31 112/145/31 32/32/31
f 95/126/32 312/370/32 311/369/32
f 96/128/33 281/339/33 312/370/33
f 31/31/34 47/47/34 63/63/34
f 4/4/35 66/69/35 2/2/35
f 4/4/35 67/71/35 65/66/35
f 8/8/35 67/71/35 6/6/35
f 8/8/35 69/75/35 68/73/35
f 12/12/35 69/75/35 10/10/35
f 12/12/35 71/79/35 70/77/35
f 16/16/35 71/79/35 14/14/35
f 16/16/35 73/83/35 72/81/35
f 20/20/35 73/83/35 18/18/35
f 22/22/35 74/85/35 20/20/35
f 24/24/35 75/87/35 22/22/35
f 24/24/35 77/91/35 76/89/35
f 28/28/35 77/91/35 26/26/35
f 30/30/35 78/93/35 28/28/35
f 32/32/35 79/95/35 30/30/35
f 34/34/35 80/97/35 32/32/35
f 34/34/35 82/101/35 81/99/35
f 38/38/35 82/101/35 36/36/35
f 40/40/35 83/103/35 38/38/35
f 42/42/35 84/105/35 40/40/35
f 42/42/35 86/109/35 85/107/35
f 44/44/35 87/111/35 86/109/35
f 48/48/35 87/111/35 46/46/35
f 50/50/35 88/113/35 48/48/35
f 50/50/35 90/117/35 89/115/35
f 52/52/35 91/119/35 90/117/35
f 56/56/35 91/119/35 54/54/35
f 58/58/35 92/121/35 56/56/35
f 58/58/35 94/125/35 93/123/35
f 60/60/35 95/127/35 94/125/35
f 62/62/35 96/129/35 95/127/35
f 64/64/35 66/69/35 96/129/35
f 115/148/35 107/140/35 99/132/35
f 4/4/36 99/132/36 6/6/36
f 58/58/37 126/159/37 60/60/37
f 32/32/38 113/146/38 34/34/38
f 6/6/39 100/133/39 8/8/39
f 60/60/40 127/160/40 62/62/40
f 34/34/41 114/147/41 36/36/41
f 8/8/42 101/134/42 10/10/42
f 62/62/43 128/161/43 64/64/43
f 36/36/44 115/148/44 38/38/44
f 10/10/45 102/135/45 12/12/45
f 64/64/46 98/131/46 2/2/46
f 38/38/47 116/149/47 40/40/47
f 12/12/48 103/136/48 14/14/48
f 40/40/49 117/150/49 42/42/49
f 14/14/50 104/137/50 16/16/50
f 42/42/51 118/151/51 44/44/51
f 16/16/52 105/138/52 18/18/52
f 44/44/53 119/152/53 46/46/53
f 18/18/54 106/139/54 20/20/54
f 46/46/55 120/153/55 48/48/55
f 20/20/56 107/140/56 22/22/56
f 48/48/57 121/154/57 50/50/57
f 22/22/58 108/141/58 24/24/58
f 50/50/59 122/155/59 52/52/59
f 24/24/60 109/142/60 26/26/60
f 54/54/61 122/155/61 123/156/61
f 26/26/62 110/143/62 28/28/62
f 54/54/63 124/157/63 56/56/63
f 30/30/64 110/143/64 111/144/64
f 2/2/65 97/130/65 4/4/65
f 56/56/66 125/158/66 58/58/66
f 235/292/67 438/525/67 234/291/67
f 154/211/34 130/164/34 155/212/34
f 156/213/34 130/164/34 131/166/34
f 164/221/68 329/397/68 368/451/68
f 234/291/67 437/524/67 233/290/67
f 158/215/34 133/171/34 159/216/34
f 160/217/34 133/171/34 134/172/34
f 196/253/69 317/379/69 131/167/69
f 233/290/67 436/523/67 298/356/67
f 162/219/34 136/176/34 163/220/34
f 163/220/34 137/178/34 164/221/34
f 271/328/70 357/439/70 475/562/70
f 162/219/71 326/392/71 135/174/71
f 166/223/34 139/183/34 167/224/34
f 168/225/34 139/183/34 140/185/34
f 271/328/70 474/561/70 270/327/70
f 195/252/69 316/377/69 196/253/69
f 171/228/34 141/186/34 142/188/34
f 171/228/34 143/191/34 172/229/34
f 270/327/70 473/560/70 269/326/70
f 195/252/69 394/481/69 395/482/69
f 175/232/34 144/192/34 145/194/34
f 175/232/34 146/197/34 176/233/34
f 160/217/72 323/387/72 365/448/72
f 244/301/73 341/414/73 143/190/73
f 179/236/34 147/198/34 148/201/34
f 179/236/34 149/203/34 180/237/34
f 269/326/70 472/559/70 310/368/70
f 194/251/69 393/480/69 394/481/69
f 183/240/34 150/204/34 151/206/34
f 183/240/34 152/209/34 184/241/34
f 193/250/69 392/479/69 393/480/69
f 1/1/74 154/211/74 3/3/74
f 3/3/75 155/212/75 5/5/75
f 5/5/76 156/213/76 7/7/76
f 9/9/77 156/213/77 157/214/77
f 9/9/78 158/215/78 11/11/78
f 11/11/79 159/216/79 13/13/79
f 15/15/80 159/216/80 160/217/80
f 15/15/81 161/218/81 17/17/81
f 17/17/82 162/219/82 19/19/82
f 19/19/83 163/220/83 21/21/83
f 21/21/84 164/221/84 23/23/84
f 23/23/85 165/222/85 25/25/85
f 27/27/86 165/222/86 166/223/86
f 27/27/87 167/224/87 29/29/87
f 29/29/88 168/225/88 31/31/88
f 31/31/89 169/226/89 33/33/89
f 35/35/90 169/226/90 170/227/90
f 35/35/91 171/228/91 37/37/91
f 37/37/92 172/229/92 39/39/92
f 39/39/93 173/230/93 41/41/93
f 43/43/94 173/230/94 174/231/94
f 45/45/95 174/231/95 175/232/95
f 45/45/96 176/233/96 47/47/96
f 49/49/97 176/233/97 177/234/97
f 49/49/98 178/235/98 51/51/98
f 51/51/99 179/236/99 53/53/99
f 53/53/100 180/237/100 55/55/100
f 57/57/101 180/237/101 181/238/101
f 59/59/102 181/238/102 182/239/102
f 59/59/103 183/240/103 61/61/103
f 63/63/104 183/240/104 184/241/104
f 63/63/105 153/210/105 1/1/105
f 158/215/106 320/383/106 132/168/106
f 231/288/107 334/404/107 232/289/107
f 188/245/108 314/375/108 315/376/108
f 231/288/107 430/517/107 431/518/107
f 276/333/32 152/208/32 151/207/32
f 276/333/32 279/336/32 280/337/32
f 274/331/32 279/336/32 275/332/32
f 273/330/32 278/335/32 274/331/32
f 272/329/30 151/207/30 150/205/30
f 271/328/30 276/333/30 272/329/30
f 270/327/30 275/332/30 271/328/30
f 269/326/30 274/331/30 270/327/30
f 281/338/109 388/475/109 480/567/109
f 156/213/69 317/378/69 362/445/69
f 230/287/107 429/516/107 430/517/107
f 229/286/107 428/515/107 429/516/107
f 267/324/110 352/431/110 268/325/110
f 285/343/111 392/479/111 284/342/111
f 236/293/67 338/410/67 339/412/67
f 267/324/110 466/553/110 467/554/110
f 264/321/27 149/202/27 148/200/27
f 263/320/27 268/325/27 264/321/27
f 263/320/27 266/323/27 267/324/27
f 261/318/27 266/323/27 262/319/27
f 147/199/26 264/321/26 148/200/26
f 259/316/26 264/321/26 260/317/26
f 259/316/26 262/319/26 263/320/26
f 257/314/26 262/319/26 258/315/26
f 187/244/108 315/376/108 391/478/108
f 154/211/108 314/374/108 129/162/108
f 286/344/112 396/483/112 285/343/112
f 266/323/110 465/552/110 466/553/110
f 187/244/108 390/477/108 186/243/108
f 184/241/113 360/443/113 153/210/113
f 265/322/110 464/551/110 465/552/110
f 186/243/108 389/476/108 185/242/108
f 145/195/23 256/313/23 146/196/23
f 252/309/23 255/312/23 256/313/23
f 250/307/23 255/312/23 251/308/23
f 250/307/23 253/310/23 254/311/23
f 248/305/22 145/195/22 144/193/22
f 248/305/22 251/308/22 252/309/22
f 246/303/22 251/308/22 247/304/22
f 245/302/22 250/307/22 246/303/22
f 185/242/108 388/475/108 282/340/108
f 223/280/114 333/403/114 427/514/114
f 289/347/115 404/491/115 288/346/115
f 181/238/116 382/465/116 182/239/116
f 223/280/114 426/513/114 222/279/114
f 290/348/117 408/495/117 289/347/117
f 180/237/118 381/464/118 181/238/118
f 222/279/114 425/512/114 221/278/114
f 142/189/19 244/301/19 143/190/19
f 240/297/19 243/300/19 244/301/19
f 239/296/19 242/299/19 243/300/19
f 238/295/19 241/298/19 242/299/19
f 236/293/18 142/189/18 141/187/18
f 236/293/18 239/296/18 240/297/18
f 234/291/18 239/296/18 235/292/18
f 233/290/18 238/295/18 234/291/18
f 232/289/107 335/405/107 140/184/107
f 221/278/114 424/511/114 294/352/114
f 259/316/119 351/430/119 463/550/119
f 293/351/120 416/503/120 292/350/120
f 259/316/119 462/549/119 258/315/119
f 177/234/121 379/462/121 178/235/121
f 294/352/122 420/507/122 293/351/122
f 258/315/119 461/548/119 257/314/119
f 228/285/15 140/184/15 139/182/15
f 227/284/15 232/289/15 228/285/15
f 227/284/15 230/287/15 231/288/15
f 226/283/15 229/286/15 230/287/15
f 138/181/14 228/285/14 139/182/14
f 224/281/14 227/284/14 228/285/14
f 222/279/14 227/284/14 223/280/14
f 222/279/14 225/282/14 226/283/14
f 280/337/123 359/441/123 152/208/123
f 176/233/124 378/461/124 177/234/124
f 257/314/119 460/547/119 306/364/119
f 219/276/68 328/395/68 220/277/68
f 297/355/125 428/515/125 296/354/125
f 224/281/114 332/401/114 333/403/114
f 173/230/126 376/459/126 174/231/126
f 219/276/68 418/505/68 419/506/68
f 216/273/11 137/179/11 136/177/11
f 215/272/11 220/277/11 216/273/11
f 215/272/11 218/275/11 219/276/11
f 214/271/11 217/274/11 218/275/11
f 212/269/10 136/177/10 135/175/10
f 211/268/10 216/273/10 212/269/10
f 210/267/10 215/272/10 211/268/10
f 209/266/10 214/271/10 210/267/10
f 298/356/127 432/519/127 297/355/127
f 172/229/128 375/458/128 173/230/128
f 218/275/68 417/504/68 418/505/68
f 217/274/68 416/503/68 417/504/68
f 255/312/129 346/422/129 256/313/129
f 272/329/70 356/438/70 357/439/70
f 300/358/130 444/531/130 440/527/130
f 255/312/129 454/541/129 455/542/129
f 204/261/7 134/173/7 133/170/7
f 203/260/7 208/265/7 204/261/7
f 203/260/7 206/263/7 207/264/7
f 201/258/7 206/263/7 202/259/7
f 132/169/6 204/261/6 133/170/6
f 199/256/6 204/261/6 200/257/6
f 198/255/6 203/260/6 199/256/6
f 197/254/6 202/259/6 198/255/6
f 169/226/131 373/456/131 170/227/131
f 302/360/132 444/531/132 301/359/132
f 254/311/129 453/540/129 454/541/129
f 168/225/133 372/455/133 169/226/133
f 220/277/68 329/396/68 137/179/68
f 253/310/129 452/539/129 453/540/129
f 211/268/71 327/394/71 415/502/71
f 304/362/134 456/543/134 452/539/134
f 192/249/3 131/167/3 130/165/3
f 191/248/3 196/253/3 192/249/3
f 190/247/3 195/252/3 191/248/3
f 189/246/3 194/251/3 190/247/3
f 188/245/2 130/165/2 129/163/2
f 187/244/2 192/249/2 188/245/2
f 186/243/2 191/248/2 187/244/2
f 185/242/2 190/247/2 186/243/2
f 165/222/135 370/453/135 166/223/135
f 211/268/71 414/501/71 210/267/71
f 305/363/136 460/547/136 456/543/136
f 184/241/123 359/442/123 383/466/123
f 268/325/110 353/432/110 149/202/110
f 311/369/32 277/334/32 273/330/32
f 310/368/30 273/330/30 269/326/30
f 165/222/137 368/451/137 369/452/137
f 210/267/71 413/500/71 209/266/71
f 307/365/27 265/322/27 261/318/27
f 306/364/26 261/318/26 257/314/26
f 209/266/71 412/499/71 290/348/71
f 182/239/70 356/437/70 150/204/70
f 249/306/23 304/362/23 253/310/23
f 245/302/22 303/361/22 249/306/22
f 247/304/138 345/421/138 451/538/138
f 308/366/139 468/555/139 464/551/139
f 237/294/19 300/358/19 241/298/19
f 298/356/18 237/294/18 233/290/18
f 212/269/71 326/393/71 327/394/71
f 247/304/138 450/537/138 246/303/138
f 225/282/15 296/354/15 229/286/15
f 221/278/14 295/353/14 225/282/14
f 162/219/140 366/449/140 367/450/140
f 309/367/141 472/559/141 468/555/141
f 213/270/11 292/350/11 217/274/11
f 290/348/10 213/270/10 209/266/10
f 180/237/110 353/433/110 380/463/110
f 246/303/138 449/536/138 245/302/138
f 287/345/7 205/262/7 201/258/7
f 286/344/6 201/258/6 197/254/6
f 161/218/142 365/448/142 366/449/142
f 245/302/138 448/535/138 302/360/138
f 283/341/3 193/250/3 189/246/3
f 282/340/2 189/246/2 185/242/2
f 178/235/119 350/428/119 147/198/119
f 361/444/34 313/372/34 314/374/34
f 362/445/34 318/381/34 363/446/34
f 363/446/34 320/383/34 364/447/34
f 365/448/34 324/390/34 366/449/34
f 367/450/34 324/390/34 326/392/34
f 368/451/34 330/398/34 369/452/34
f 370/453/34 330/398/34 332/402/34
f 371/454/34 336/407/34 372/455/34
f 372/455/34 338/411/34 373/456/34
f 374/457/34 342/416/34 375/458/34
f 376/459/34 342/416/34 344/420/34
f 377/460/34 348/425/34 378/461/34
f 378/461/34 350/428/34 379/462/34
f 381/464/34 353/433/34 354/434/34
f 382/465/34 354/434/34 356/437/34
f 383/466/34 313/372/34 360/443/34
f 358/440/33 313/373/33 359/441/33
f 358/440/33 385/469/33 384/467/33
f 478/565/33 385/469/33 479/566/33
f 477/564/33 386/471/33 478/565/33
f 355/436/29 356/438/29 354/435/29
f 471/558/29 357/439/29 355/436/29
f 470/557/29 475/562/29 471/558/29
f 469/556/29 474/561/29 470/557/29
f 352/431/28 354/435/28 353/432/28
f 467/554/28 355/436/28 352/431/28
f 466/553/28 471/558/28 467/554/28
f 465/552/28 470/557/28 466/553/28
f 348/426/25 351/430/25 350/429/25
f 349/427/25 463/550/25 351/430/25
f 458/545/25 463/550/25 459/546/25
f 457/544/25 462/549/25 458/545/25
f 346/422/24 348/426/24 347/423/24
f 455/542/24 349/427/24 346/422/24
f 454/541/24 459/546/24 455/542/24
f 453/540/24 458/545/24 454/541/24
f 343/418/21 344/419/21 342/417/21
f 447/534/21 345/421/21 343/418/21
f 447/534/21 450/537/21 451/538/21
f 445/532/21 450/537/21 446/533/21
f 340/413/20 342/417/20 341/414/20
f 443/530/20 343/418/20 340/413/20
f 442/529/20 447/534/20 443/530/20
f 441/528/20 446/533/20 442/529/20
f 336/408/17 339/412/17 338/410/17
f 337/409/17 439/526/17 339/412/17
f 434/521/17 439/526/17 435/522/17
f 434/521/17 437/524/17 438/525/17
f 335/405/16 337/409/16 336/408/16
f 431/518/16 337/409/16 334/404/16
f 430/517/16 435/522/16 431/518/16
f 430/517/16 433/520/16 434/521/16
f 331/400/13 332/401/13 330/399/13
f 331/400/13 427/514/13 333/403/13
f 422/509/13 427/514/13 423/510/13
f 422/509/13 425/512/13 426/513/13
f 328/395/12 330/399/12 329/396/12
f 419/506/12 331/400/12 328/395/12
f 418/505/12 423/510/12 419/506/12
f 418/505/12 421/508/12 422/509/12
f 325/391/9 326/393/9 324/389/9
f 411/498/9 327/394/9 325/391/9
f 410/497/9 415/502/9 411/498/9
f 409/496/9 414/501/9 410/497/9
f 323/388/8 325/391/8 324/389/8
f 407/494/8 325/391/8 322/386/8
f 406/493/8 411/498/8 407/494/8
f 405/492/8 410/497/8 406/493/8
f 319/382/5 320/384/5 318/380/5
f 399/486/5 321/385/5 319/382/5
f 398/485/5 403/490/5 399/486/5
f 397/484/5 402/489/5 398/485/5
f 317/379/4 319/382/4 318/380/4
f 395/482/4 319/382/4 316/377/4
f 394/481/4 399/486/4 395/482/4
f 393/480/4 398/485/4 394/481/4
f 384/468/1 314/375/1 313/371/1
f 385/470/1 315/376/1 384/468/1
f 386/472/1 391/478/1 385/470/1
f 387/474/1 390/477/1 386/472/1
f 476/563/33 387/473/33 477/564/33
f 468/555/29 473/560/29 469/556/29
f 464/551/28 469/556/28 465/552/28
f 456/543/25 461/548/25 457/544/25
f 452/539/24 457/544/24 453/540/24
f 444/531/21 449/536/21 445/532/21
f 440/527/20 445/532/20 441/528/20
f 433/520/17 436/523/17 437/524/17
f 429/516/16 432/519/16 433/520/16
f 420/507/13 425/512/13 421/508/13
f 416/503/12 421/508/12 417/504/12
f 408/495/9 413/500/9 409/496/9
f 404/491/8 409/496/8 405/492/8
f 396/483/5 401/488/5 397/484/5
f 392/479/4 397/484/4 393/480/4
f 387/474/1 388/475/1 389/476/1
f 248/305/138 344/419/138 345/421/138
f 235/292/67 339/412/67 439/526/67
f 166/223/114 332/402/114 138/180/114
f 197/254/106 400/487/106 286/344/106
f 198/255/106 401/488/106 197/254/106
f 277/334/123 476/563/123 477/564/123
f 168/225/107 335/406/107 371/454/107
f 199/256/106 402/489/106 198/255/106
f 278/335/123 477/564/123 478/565/123
f 200/257/106 320/384/106 321/385/106
f 199/256/106 321/385/106 403/490/106
f 279/336/123 478/565/123 479/566/123
f 170/227/67 338/411/67 141/186/67
f 279/336/123 358/440/123 280/337/123
f 241/298/73 440/527/73 441/528/73
f 256/313/129 347/423/129 146/196/129
f 242/299/73 441/528/73 442/529/73
f 172/229/73 341/415/73 374/457/73
f 154/211/143 360/443/143 361/444/143
f 243/300/73 442/529/73 443/530/73
f 243/300/73 340/413/73 244/301/73
f 174/231/138 344/420/138 144/192/138
f 205/262/72 404/491/72 405/492/72
f 208/265/72 323/388/72 134/173/72
f 206/263/72 405/492/72 406/493/72
f 157/214/144 362/445/144 363/446/144
f 176/233/129 347/424/129 377/460/129
f 207/264/72 406/493/72 407/494/72
f 158/215/145 363/446/145 364/447/145
f 312/370/146 480/568/146 476/563/146
f 207/264/72 322/386/72 208/265/72
f 260/317/119 350/429/119 351/430/119
f 66/67/1 65/65/1 282/340/1
f 282/340/2 65/65/2 67/70/2
f 67/70/3 68/72/3 284/342/3
f 68/72/4 69/74/4 285/343/4
f 285/343/5 69/74/5 70/76/5
f 70/76/6 71/78/6 287/345/6
f 71/78/7 72/80/7 288/346/7
f 288/346/8 72/80/8 73/82/8
f 73/82/9 74/84/9 290/348/9
f 290/348/10 74/84/10 75/86/10
f 75/86/11 76/88/11 292/350/11
f 292/350/12 76/88/12 77/90/12
f 77/90/13 78/92/13 294/352/13
f 78/92/14 79/94/14 295/353/14
f 79/94/15 80/96/15 296/354/15
f 296/354/16 80/96/16 81/98/16
f 81/98/17 82/100/17 298/356/17
f 298/356/18 82/100/18 83/102/18
f 83/102/19 84/104/19 300/358/19
f 84/104/20 85/106/20 301/359/20
f 301/359/21 85/106/21 86/108/21
f 302/360/22 86/108/22 87/110/22
f 87/110/23 88/112/23 304/362/23
f 88/112/24 89/114/24 305/363/24
f 305/363/25 89/114/25 90/116/25
f 90/116/26 91/118/26 307/365/26
f 91/118/27 92/120/27 308/366/27
f 92/120/28 93/122/28 309/367/28
f 93/122/29 94/124/29 310/368/29
f 94/124/30 95/126/30 311/369/30
f 30/30/31 111/144/31 112/145/31
f 95/126/32 96/128/32 312/370/32
f 96/128/33 66/68/33 281/339/33
f 63/63/34 1/1/34 3/3/34
f 3/3/34 5/5/34 7/7/34
f 7/7/34 9/9/34 11/11/34
f 11/11/34 13/13/34 15/15/34
f 15/15/34 17/17/34 19/19/34
f 19/19/34 21/21/34 23/23/34
f 23/23/34 25/25/34 27/27/34
f 27/27/34 29/29/34 31/31/34
f 31/31/34 33/33/34 35/35/34
f 35/35/34 37/37/34 39/39/34
f 39/39/34 41/41/34 43/43/34
f 43/43/34 45/45/34 47/47/34
f 47/47/34 49/49/34 51/51/34
f 51/51/34 53/53/34 55/55/34
f 55/55/34 57/57/34 59/59/34
f 59/59/34 61/61/34 63/63/34
f 63/63/34 3/3/34 7/7/34
f 7/7/34 11/11/34 15/15/34
f 15/15/34 19/19/34 23/23/34
f 23/23/34 27/27/34 31/31/34
f 31/31/34 35/35/34 39/39/34
f 39/39/34 43/43/34 47/47/34
f 47/47/34 51/51/34 55/55/34
f 55/55/34 59/59/34 63/63/34
f 63/63/34 7/7/34 15/15/34
f 15/15/34 23/23/34 31/31/34
f 31/31/34 39/39/34 47/47/34
f 47/47/34 55/55/34 63/63/34
f 63/63/34 15/15/34 31/31/34
f 4/4/35 65/66/35 66/69/35
f 4/4/35 6/6/35 67/71/35
f 8/8/35 68/73/35 67/71/35
f 8/8/35 10/10/35 69/75/35
f 12/12/35 70/77/35 69/75/35
f 12/12/35 14/14/35 71/79/35
f 16/16/35 72/81/35 71/79/35
f 16/16/35 18/18/35 73/83/35
f 20/20/35 74/85/35 73/83/35
f 22/22/35 75/87/35 74/85/35
f 24/24/35 76/89/35 75/87/35
f 24/24/35 26/26/35 77/91/35
f 28/28/35 78/93/35 77/91/35
f 30/30/35 79/95/35 78/93/35
f 32/32/35 80/97/35 79/95/35
f 34/34/35 81/99/35 80/97/35
f 34/34/35 36/36/35 82/101/35
f 38/38/35 83/103/35 82/101/35
f 40/40/35 84/105/35 83/103/35
f 42/42/35 85/107/35 84/105/35
f 42/42/35 44/44/35 86/109/35
f 44/44/35 46/46/35 87/111/35
f 48/48/35 88/113/35 87/111/35
f 50/50/35 89/115/35 88/113/35
f 50/50/35 52/52/35 90/117/35
f 52/52/35 54/54/35 91/119/35
f 56/56/35 92/121/35 91/119/35
f 58/58/35 93/123/35 92/121/35
f 58/58/35 60/60/35 94/125/35
f 60/60/35 62/62/35 95/127/35
f 62/62/35 64/64/35 96/129/35
f 64/64/35 2/2/35 66/69/35
f 99/132/35 97/130/35 98/131/35
f 98/131/35 128/161/35 127/160/35
f 127/160/35 126/159/35 125/158/35
f 125/158/35 124/157/35 123/156/35
f 123/156/35 122/155/35 121/154/35
f 121/154/35 120/153/35 119/152/35
f 119/152/35 118/151/35 117/150/35
f 117/150/35 116/149/35 115/148/35
f 115/148/35 114/147/35 113/146/35
f 113/146/35 112/145/35 111/144/35
f 111/144/35 110/143/35 109/142/35
f 109/142/35 108/141/35 107/140/35
f 107/140/35 106/139/35 105/138/35
f 105/138/35 104/137/35 103/136/35
f 103/136/35 102/135/35 101/134/35
f 101/134/35 100/133/35 99/132/35
f 99/132/35 98/131/35 127/160/35
f 127/160/35 125/158/35 123/156/35
f 123/156/35 121/154/35 119/152/35
f 119/152/35 117/150/35 115/148/35
f 115/148/35 113/146/35 111/144/35
f 111/144/35 109/142/35 107/140/35
f 107/140/35 105/138/35 103/136/35
f 103/136/35 101/134/35 99/132/35
f 99/132/35 127/160/35 123/156/35
f 123/156/35 119/152/35 115/148/35
f 115/148/35 111/144/35 107/140/35
f 107/140/35 103/136/35 99/132/35
f 99/132/35 123/156/35 115/148/35
f 4/4/36 97/130/36 99/132/36
f 58/58/37 125/158/37 126/159/37
f 32/32/38 112/145/38 113/146/38
f 6/6/39 99/132/39 100/133/39
f 60/60/40 126/159/40 127/160/40
f 34/34/41 113/146/41 114/147/41
f 8/8/42 100/133/42 101/134/42
f 62/62/43 127/160/43 128/161/43
f 36/36/44 114/147/44 115/148/44
f 10/10/45 101/134/45 102/135/45
f 64/64/46 128/161/46 98/131/46
f 38/38/47 115/148/47 116/149/47
f 12/12/48 102/135/48 103/136/48
f 40/40/49 116/149/49 117/150/49
f 14/14/50 103/136/50 104/137/50
f 42/42/51 117/150/51 118/151/51
f 16/16/52 104/137/52 105/138/52
f 44/44/53 118/151/53 119/152/53
f 18/18/54 105/138/54 106/139/54
f 46/46/55 119/152/55 120/153/55
f 20/20/56 106/139/56 107/140/56
f 48/48/57 120/153/57 121/154/57
f 22/22/58 107/140/58 108/141/58
f 50/50/59 121/154/59 122/155/59
f 24/24/60 108/141/60 109/142/60
f 54/54/61 52/52/61 122/155/61
f 26/26/62 109/142/62 110/143/62
f 54/54/63 123/156/63 124/157/63
f 30/30/64 28/28/64 110/143/64
f 2/2/65 98/131/65 97/130/65
f 56/56/66 124/157/66 125/158/66
f 235/292/67 439/526/67 438/525/67
f 154/211/34 129/162/34 130/164/34
f 156/213/34 155/212/34 130/164/34
f 164/221/68 137/178/68 329/397/68
f 234/291/67 438/525/67 437/524/67
f 158/215/34 132/168/34 133/171/34
f 160/217/34 159/216/34 133/171/34
f 196/253/69 316/377/69 317/379/69
f 233/290/67 437/524/67 436/523/67
f 162/219/34 135/174/34 136/176/34
f 163/220/34 136/176/34 137/178/34
f 271/328/70 272/329/70 357/439/70
f 162/219/71 367/450/71 326/392/71
f 166/223/34 138/180/34 139/183/34
f 168/225/34 167/224/34 139/183/34
f 271/328/70 475/562/70 474/561/70
f 195/252/69 395/482/69 316/377/69
f 171/228/34 170/227/34 141/186/34
f 171/228/34 142/188/34 143/191/34
f 270/327/70 474/561/70 473/560/70
f 195/252/69 194/251/69 394/481/69
f 175/232/34 174/231/34 144/192/34
f 175/232/34 145/194/34 146/197/34
f 160/217/72 134/172/72 323/387/72
f 244/301/73 340/413/73 341/414/73
f 179/236/34 178/235/34 147/198/34
f 179/236/34 148/201/34 149/203/34
f 269/326/70 473/560/70 472/559/70
f 194/251/69 193/250/69 393/480/69
f 183/240/34 182/239/34 150/204/34
f 183/240/34 151/206/34 152/209/34
f 193/250/69 284/342/69 392/479/69
f 1/1/74 153/210/74 154/211/74
f 3/3/75 154/211/75 155/212/75
f 5/5/76 155/212/76 156/213/76
f 9/9/77 7/7/77 156/213/77
f 9/9/78 157/214/78 158/215/78
f 11/11/79 158/215/79 159/216/79
f 15/15/80 13/13/80 159/216/80
f 15/15/81 160/217/81 161/218/81
f 17/17/82 161/218/82 162/219/82
f 19/19/83 162/219/83 163/220/83
f 21/21/84 163/220/84 164/221/84
f 23/23/85 164/221/85 165/222/85
f 27/27/86 25/25/86 165/222/86
f 27/27/87 166/223/87 167/224/87
f 29/29/88 167/224/88 168/225/88
f 31/31/89 168/225/89 169/226/89
f 35/35/90 33/33/90 169/226/90
f 35/35/91 170/227/91 171/228/91
f 37/37/92 171/228/92 172/229/92
f 39/39/93 172/229/93 173/230/93
f 43/43/94 41/41/94 173/230/94
f 45/45/95 43/43/95 174/231/95
f 45/45/96 175/232/96 176/233/96
f 49/49/97 47/47/97 176/233/97
f 49/49/98 177/234/98 178/235/98
f 51/51/99 178/235/99 179/236/99
f 53/53/100 179/236/100 180/237/100
f 57/57/101 55/55/101 180/237/101
f 59/59/102 57/57/102 181/238/102
f 59/59/103 182/239/103 183/240/103
f 63/63/104 61/61/104 183/240/104
f 63/63/105 184/241/105 153/210/105
f 158/215/106 364/447/106 320/383/106
f 231/288/107 431/518/107 334/404/107
f 188/245/108 129/163/108 314/375/108
f 231/288/107 230/287/107 430/517/107
f 276/333/32 280/337/32 152/208/32
f 276/333/32 275/332/32 279/336/32
f 274/331/32 278/335/32 279/336/32
f 273/330/32 277/334/32 278/335/32
f 272/329/30 276/333/30 151/207/30
f 271/328/30 275/332/30 276/333/30
f 270/327/30 274/331/30 275/332/30
f 269/326/30 273/330/30 274/331/30
f 281/338/109 282/340/109 388/475/109
f 156/213/69 131/166/69 317/378/69
f 230/287/107 229/286/107 429/516/107
f 229/286/107 296/354/107 428/515/107
f 267/324/110 467/554/110 352/431/110
f 285/343/147 396/483/147 392/479/147
f 236/293/67 141/187/67 338/410/67
f 267/324/110 266/323/110 466/553/110
f 264/321/27 268/325/27 149/202/27
f 263/320/27 267/324/27 268/325/27
f 263/320/27 262/319/27 266/323/27
f 261/318/27 265/322/27 266/323/27
f 147/199/26 260/317/26 264/321/26
f 259/316/26 263/320/26 264/321/26
f 259/316/26 258/315/26 262/319/26
f 257/314/26 261/318/26 262/319/26
f 187/244/108 188/245/108 315/376/108
f 154/211/108 361/444/108 314/374/108
f 286/344/148 400/487/148 396/483/148
f 266/323/110 265/322/110 465/552/110
f 187/244/108 391/478/108 390/477/108
f 184/241/113 383/466/113 360/443/113
f 265/322/110 308/366/110 464/551/110
f 186/243/108 390/477/108 389/476/108
f 145/195/23 252/309/23 256/313/23
f 252/309/23 251/308/23 255/312/23
f 250/307/23 254/311/23 255/312/23
f 250/307/23 249/306/23 253/310/23
f 248/305/22 252/309/22 145/195/22
f 248/305/22 247/304/22 251/308/22
f 246/303/22 250/307/22 251/308/22
f 245/302/22 249/306/22 250/307/22
f 185/242/108 389/476/108 388/475/108
f 223/280/114 224/281/114 333/403/114
f 289/347/115 408/495/115 404/491/115
f 181/238/116 381/464/116 382/465/116
f 223/280/114 427/514/114 426/513/114
f 290/348/117 412/499/117 408/495/117
f 180/237/118 380/463/118 381/464/118
f 222/279/114 426/513/114 425/512/114
f 142/189/19 240/297/19 244/301/19
f 240/297/19 239/296/19 243/300/19
f 239/296/19 238/295/19 242/299/19
f 238/295/19 237/294/19 241/298/19
f 236/293/18 240/297/18 142/189/18
f 236/293/18 235/292/18 239/296/18
f 234/291/18 238/295/18 239/296/18
f 233/290/18 237/294/18 238/295/18
f 232/289/107 334/404/107 335/405/107
f 221/278/114 425/512/114 424/511/114
f 259/316/119 260/317/119 351/430/119
f 293/351/149 420/507/149 416/503/149
f 259/316/119 463/550/119 462/549/119
f 177/234/121 378/461/121 379/462/121
f 294/352/122 424/511/122 420/507/122
f 258/315/119 462/549/119 461/548/119
f 228/285/15 232/289/15 140/184/15
f 227/284/15 231/288/15 232/289/15
f 227/284/15 226/283/15 230/287/15
f 226/283/15 225/282/15 229/286/15
f 138/181/14 224/281/14 228/285/14
f 224/281/14 223/280/14 227/284/14
f 222/279/14 226/283/14 227/284/14
f 222/279/14 221/278/14 225/282/14
f 280/337/123 358/440/123 359/441/123
f 176/233/124 377/460/124 378/461/124
f 257/314/119 461/548/119 460/547/119
f 219/276/68 419/506/68 328/395/68
f 297/355/125 432/519/125 428/515/125
f 224/281/114 138/181/114 332/401/114
f 173/230/126 375/458/126 376/459/126
f 219/276/68 218/275/68 418/505/68
f 216/273/11 220/277/11 137/179/11
f 215/272/11 219/276/11 220/277/11
f 215/272/11 214/271/11 218/275/11
f 214/271/11 213/270/11 217/274/11
f 212/269/10 216/273/10 136/177/10
f 211/268/10 215/272/10 216/273/10
f 210/267/10 214/271/10 215/272/10
f 209/266/10 213/270/10 214/271/10
f 298/356/127 436/523/127 432/519/127
f 172/229/128 374/457/128 375/458/128
f 218/275/68 217/274/68 417/504/68
f 217/274/68 292/350/68 416/503/68
f 255/312/129 455/542/129 346/422/129
f 272/329/70 150/205/70 356/438/70
f 300/358/130 301/359/130 444/531/130
f 255/312/129 254/311/129 454/541/129
f 204/261/7 208/265/7 134/173/7
f 203/260/7 207/264/7 208/265/7
f 203/260/7 202/259/7 206/263/7
f 201/258/7 205/262/7 206/263/7
f 132/169/6 200/257/6 204/261/6
f 199/256/6 203/260/6 204/261/6
f 198/255/6 202/259/6 203/260/6
f 197/254/6 201/258/6 202/259/6
f 169/226/131 372/455/131 373/456/131
f 302/360/150 448/535/150 444/531/150
f 254/311/129 253/310/129 453/540/129
f 168/225/133 371/454/133 372/455/133
f 220/277/68 328/395/68 329/396/68
f 253/310/129 304/362/129 452/539/129
f 211/268/71 212/269/71 327/394/71
f 304/362/134 305/363/134 456/543/134
f 192/249/3 196/253/3 131/167/3
f 191/248/3 195/252/3 196/253/3
f 190/247/3 194/251/3 195/252/3
f 189/246/3 193/250/3 194/251/3
f 188/245/2 192/249/2 130/165/2
f 187/244/2 191/248/2 192/249/2
f 186/243/2 190/247/2 191/248/2
f 185/242/2 189/246/2 190/247/2
f 165/222/135 369/452/135 370/453/135
f 211/268/71 415/502/71 414/501/71
f 305/363/136 306/364/136 460/547/136
f 184/241/123 152/209/123 359/442/123
f 268/325/110 352/431/110 353/432/110
f 311/369/32 312/370/32 277/334/32
f 310/368/30 311/369/30 273/330/30
f 165/222/137 164/221/137 368/451/137
f 210/267/71 414/501/71 413/500/71
f 307/365/27 308/366/27 265/322/27
f 306/364/26 307/365/26 261/318/26
f 209/266/71 413/500/71 412/499/71
f 182/239/70 382/465/70 356/437/70
f 249/306/23 303/361/23 304/362/23
f 245/302/22 302/360/22 303/361/22
f 247/304/138 248/305/138 345/421/138
f 308/366/151 309/367/151 468/555/151
f 237/294/19 299/357/19 300/358/19
f 298/356/18 299/357/18 237/294/18
f 212/269/71 135/175/71 326/393/71
f 247/304/138 451/538/138 450/537/138
f 225/282/15 295/353/15 296/354/15
f 221/278/14 294/352/14 295/353/14
f 162/219/140 161/218/140 366/449/140
f 309/367/152 310/368/152 472/559/152
f 213/270/11 291/349/11 292/350/11
f 290/348/10 291/349/10 213/270/10
f 180/237/110 149/203/110 353/433/110
f 246/303/138 450/537/138 449/536/138
f 287/345/7 288/346/7 205/262/7
f 286/344/6 287/345/6 201/258/6
f 161/218/142 160/217/142 365/448/142
f 245/302/138 449/536/138 448/535/138
f 283/341/3 284/342/3 193/250/3
f 282/340/2 283/341/2 189/246/2
f 178/235/119 379/462/119 350/428/119
f 361/444/34 360/443/34 313/372/34
f 362/445/34 317/378/34 318/381/34
f 363/446/34 318/381/34 320/383/34
f 365/448/34 323/387/34 324/390/34
f 367/450/34 366/449/34 324/390/34
f 368/451/34 329/397/34 330/398/34
f 370/453/34 369/452/34 330/398/34
f 371/454/34 335/406/34 336/407/34
f 372/455/34 336/407/34 338/411/34
f 374/457/34 341/415/34 342/416/34
f 376/459/34 375/458/34 342/416/34
f 377/460/34 347/424/34 348/425/34
f 378/461/34 348/425/34 350/428/34
f 381/464/34 380/463/34 353/433/34
f 382/465/34 381/464/34 354/434/34
f 383/466/34 359/442/34 313/372/34
f 358/440/33 384/467/33 313/373/33
f 358/440/33 479/566/33 385/469/33
f 478/565/33 386/471/33 385/469/33
f 477/564/33 387/473/33 386/471/33
f 355/436/29 357/439/29 356/438/29
f 471/558/29 475/562/29 357/439/29
f 470/557/29 474/561/29 475/562/29
f 469/556/29 473/560/29 474/561/29
f 352/431/28 355/436/28 354/435/28
f 467/554/28 471/558/28 355/436/28
f 466/553/28 470/557/28 471/558/28
f 465/552/28 469/556/28 470/557/28
f 348/426/25 349/427/25 351/430/25
f 349/427/25 459/546/25 463/550/25
f 458/545/25 462/549/25 463/550/25
f 457/544/25 461/548/25 462/549/25
f 346/422/24 349/427/24 348/426/24
f 455/542/24 459/546/24 349/427/24
f 454/541/24 458/545/24 459/546/24
f 453/540/24 457/544/24 458/545/24
f 343/418/21 345/421/21 344/419/21
f 447/534/21 451/538/21 345/421/21
f 447/534/21 446/533/21 450/537/21
f 445/532/21 449/536/21 450/537/21
f 340/413/20 343/418/20 342/417/20
f 443/530/20 447/534/20 343/418/20
f 442/529/20 446/533/20 447/534/20
f 441/528/20 445/532/20 446/533/20
f 336/408/17 337/409/17 339/412/17
f 337/409/17 435/522/17 439/526/17
f 434/521/17 438/525/17 439/526/17
f 434/521/17 433/520/17 437/524/17
f 335/405/16 334/404/16 337/409/16
f 431/518/16 435/522/16 337/409/16
f 430/517/16 434/521/16 435/522/16
f 430/517/16 429/516/16 433/520/16
f 331/400/13 333/403/13 332/401/13
f 331/400/13 423/510/13 427/514/13
f 422/509/13 426/513/13 427/514/13
f 422/509/13 421/508/13 425/512/13
f 328/395/12 331/400/12 330/399/12
f 419/506/12 423/510/12 331/400/12
f 418/505/12 422/509/12 423/510/12
f 418/505/12 417/504/12 421/508/12
f 325/391/9 327/394/9 326/393/9
f 411/498/9 415/502/9 327/394/9
f 410/497/9 414/501/9 415/502/9
f 409/496/9 413/500/9 414/501/9
f 323/388/8 322/386/8 325/391/8
f 407/494/8 411/498/8 325/391/8
f 406/493/8 410/497/8 411/498/8
f 405/492/8 409/496/8 410/497/8
f 319/382/5 321/385/5 320/384/5
f 399/486/5 403/490/5 321/385/5
f 398/485/5 402/489/5 403/490/5
f 397/484/5 401/488/5 402/489/5
f 317/379/4 316/377/4 319/382/4
f 395/482/4 399/486/4 319/382/4
f 394/481/4 398/485/4 399/486/4
f 393/480/4 397/484/4 398/485/4
f 384/468/1 315/376/1 314/375/1
f 385/470/1 391/478/1 315/376/1
f 386/472/1 390/477/1 391/478/1
f 387/474/1 389/476/1 390/477/1
f 476/563/33 480/568/33 387/473/33
f 468/555/29 472/559/29 473/560/29
f 464/551/28 468/555/28 469/556/28
f 456/543/25 460/547/25 461/548/25
f 452/539/24 456/543/24 457/544/24
f 444/531/21 448/535/21 449/536/21
f 440/527/20 444/531/20 445/532/20
f 433/520/17 432/519/17 436/523/17
f 429/516/16 428/515/16 432/519/16
f 420/507/13 424/511/13 425/512/13
f 416/503/12 420/507/12 421/508/12
f 408/495/9 412/499/9 413/500/9
f 404/491/8 408/495/8 409/496/8
f 396/483/5 400/487/5 401/488/5
f 392/479/4 396/483/4 397/484/4
f 387/474/1 480/567/1 388/475/1
f 248/305/138 144/193/138 344/419/138
f 235/292/67 236/293/67 339/412/67
f 166/223/114 370/453/114 332/402/114
f 197/254/106 401/488/106 400/487/106
f 198/255/106 402/489/106 401/488/106
f 277/334/123 312/370/123 476/563/123
f 168/225/107 140/185/107 335/406/107
f 199/256/106 403/490/106 402/489/106
f 278/335/123 277/334/123 477/564/123
f 200/257/106 132/169/106 320/384/106
f 199/256/106 200/257/106 321/385/106
f 279/336/123 278/335/123 478/565/123
f 170/227/67 373/456/67 338/411/67
f 279/336/123 479/566/123 358/440/123
f 241/298/73 300/358/73 440/527/73
f 256/313/129 346/422/129 347/423/129
f 242/299/73 241/298/73 441/528/73
f 172/229/73 143/191/73 341/415/73
f 154/211/143 153/210/143 360/443/143
f 243/300/73 242/299/73 442/529/73
f 243/300/73 443/530/73 340/413/73
f 174/231/138 376/459/138 344/420/138
f 205/262/72 288/346/72 404/491/72
f 208/265/72 322/386/72 323/388/72
f 206/263/72 205/262/72 405/492/72
f 157/214/144 156/213/144 362/445/144
f 176/233/129 146/197/129 347/424/129
f 207/264/72 206/263/72 406/493/72
f 158/215/145 157/214/145 363/446/145
f 312/370/146 281/339/146 480/568/146
f 207/264/72 407/494/72 322/386/72
f 260/317/119 147/199/119 350/429/119
