# Blender 3.3.1
# www.blender.org
o small_coffee_cup
v -0.000000 0.016561 -0.134341
v -0.000000 0.398591 -0.280907
v 0.026208 0.016561 -0.131759
v 0.054802 0.398591 -0.275510
v 0.051410 0.016561 -0.124114
v 0.107499 0.398591 -0.259525
v 0.074635 0.016561 -0.111700
v 0.156064 0.398591 -0.233566
v 0.094993 0.016561 -0.094993
v 0.198632 0.398591 -0.198631
v 0.111700 0.016561 -0.074636
v 0.233566 0.398591 -0.156064
v 0.124114 0.016561 -0.051410
v 0.259525 0.398591 -0.107499
v 0.131759 0.016561 -0.026209
v 0.275510 0.398591 -0.054802
v 0.134340 0.016561 -0.000000
v 0.280907 0.398591 0.000000
v 0.131759 0.016561 0.026208
v 0.275510 0.398591 0.054802
v 0.124114 0.016561 0.051410
v 0.259525 0.398591 0.107499
v 0.111700 0.016561 0.074635
v 0.233566 0.398591 0.156064
v 0.094993 0.016561 0.094993
v 0.198632 0.398591 0.198632
v 0.074635 0.016561 0.111700
v 0.156064 0.398591 0.233566
v 0.051410 0.016561 0.124114
v 0.107499 0.398591 0.259525
v 0.026208 0.016561 0.131759
v 0.054802 0.398591 0.275510
v -0.000000 0.016561 0.134340
v -0.000000 0.398591 0.280908
v -0.026209 0.016561 0.131759
v -0.054802 0.398591 0.275510
v -0.051410 0.016561 0.124114
v -0.107499 0.398591 0.259525
v -0.074636 0.016561 0.111700
v -0.156064 0.398591 0.233566
v -0.094993 0.016561 0.094993
v -0.198632 0.398591 0.198632
v -0.111700 0.016561 0.074635
v -0.233566 0.398591 0.156064
v -0.124114 0.016561 0.051410
v -0.259525 0.398591 0.107499
v -0.131759 0.016561 0.026208
v -0.275510 0.398591 0.054802
v -0.134340 0.016561 -0.000000
v -0.280908 0.398591 0.000000
v -0.131759 0.016561 -0.026209
v -0.275510 0.398591 -0.054802
v -0.124114 0.016561 -0.051410
v -0.259525 0.398591 -0.107499
v -0.111700 0.016561 -0.074636
v -0.233566 0.398591 -0.156064
v -0.094993 0.016561 -0.094993
v -0.198632 0.398591 -0.198631
v -0.074636 0.016561 -0.111700
v -0.156064 0.398591 -0.233566
v -0.051410 0.016561 -0.124114
v -0.107499 0.398591 -0.259525
v -0.026209 0.016561 -0.131759
v -0.054802 0.398591 -0.275510
v 0.062947 0.398591 -0.316456
v -0.000000 0.398591 -0.322656
v 0.123475 0.398591 -0.298095
v 0.179258 0.398591 -0.268279
v 0.228152 0.398591 -0.228152
v 0.268279 0.398591 -0.179258
v 0.298095 0.398591 -0.123475
v 0.316456 0.398591 -0.062947
v 0.322656 0.398591 0.000000
v 0.316456 0.398591 0.062947
v 0.298095 0.398591 0.123475
v 0.268279 0.398591 0.179258
v 0.228152 0.398591 0.228153
v 0.179258 0.398591 0.268279
v 0.123475 0.398591 0.298096
v 0.062947 0.398591 0.316457
v -0.000000 0.398591 0.322656
v -0.062947 0.398591 0.316457
v -0.123475 0.398591 0.298096
v -0.179258 0.398591 0.268279
v -0.228152 0.398591 0.228153
v -0.268279 0.398591 0.179258
v -0.298096 0.398591 0.123475
v -0.316457 0.398591 0.062947
v -0.322656 0.398591 0.000000
v -0.316457 0.398591 -0.062947
v -0.298096 0.398591 -0.123475
v -0.268279 0.398591 -0.179258
v -0.228152 0.398591 -0.228152
v -0.179258 0.398591 -0.268279
v -0.123475 0.398591 -0.298095
v -0.062947 0.398591 -0.316456
v 0.038063 0.041680 -0.191355
v -0.000000 0.041680 -0.195104
v 0.074663 0.041680 -0.180252
v 0.108394 0.041680 -0.162223
v 0.137959 0.041680 -0.137959
v 0.162223 0.041680 -0.108394
v 0.180252 0.041680 -0.074663
v 0.191355 0.041680 -0.038063
v 0.195104 0.041680 0.000000
v 0.191355 0.041680 0.038063
v 0.180252 0.041680 0.074663
v 0.162223 0.041680 0.108394
v 0.137959 0.041680 0.137959
v 0.108394 0.041680 0.162223
v 0.074663 0.041680 0.180252
v 0.038063 0.041680 0.191355
v -0.000000 0.041680 0.195104
v -0.038063 0.041680 0.191355
v -0.074663 0.041680 0.180252
v -0.108394 0.041680 0.162223
v -0.137959 0.041680 0.137959
v -0.162223 0.041680 0.108394
v -0.180252 0.041680 0.074663
v -0.191355 0.041680 0.038063
v -0.195104 0.041680 0.000000
v -0.191355 0.041680 -0.038063
v -0.180252 0.041680 -0.074663
v -0.162223 0.041680 -0.108394
v -0.137959 0.041680 -0.137959
v -0.108394 0.041680 -0.162223
v -0.074663 0.041680 -0.180252
v -0.038063 0.041680 -0.191355
v -0.000000 0.000541 -0.163532
v 0.031903 0.000541 -0.160390
v 0.062581 0.000541 -0.151084
v 0.090854 0.000541 -0.135972
v 0.115635 0.000541 -0.115635
v 0.135972 0.000541 -0.090854
v 0.151084 0.000541 -0.062581
v 0.160390 0.000541 -0.031904
v 0.163532 0.000541 -0.000000
v 0.160390 0.000541 0.031903
v 0.151084 0.000541 0.062581
v 0.135972 0.000541 0.090853
v 0.115635 0.000541 0.115635
v 0.090854 0.000541 0.135972
v 0.062581 0.000541 0.151084
v 0.031903 0.000541 0.160390
v -0.000000 0.000541 0.163532
v -0.031904 0.000541 0.160390
v -0.062581 0.000541 0.151084
v -0.090854 0.000541 0.135972
v -0.115635 0.000541 0.115635
v -0.135972 0.000541 0.090853
v -0.151084 0.000541 0.062581
v -0.160390 0.000541 0.031903
v -0.163532 0.000541 -0.000000
v -0.160390 0.000541 -0.031904
v -0.151084 0.000541 -0.062581
v -0.135972 0.000541 -0.090854
v -0.115635 0.000541 -0.115635
v -0.090854 0.000541 -0.135972
v -0.062581 0.000541 -0.151084
v -0.031904 0.000541 -0.160390
v -0.000000 0.000541 -0.140905
v 0.027489 0.000541 -0.138198
v 0.053922 0.000541 -0.130180
v 0.078283 0.000541 -0.117158
v 0.099635 0.000541 -0.099635
v 0.117158 0.000541 -0.078283
v 0.130179 0.000541 -0.053922
v 0.138198 0.000541 -0.027489
v 0.140905 0.000541 -0.000000
v 0.138198 0.000541 0.027489
v 0.130179 0.000541 0.053922
v 0.117158 0.000541 0.078283
v 0.099635 0.000541 0.099635
v 0.078283 0.000541 0.117158
v 0.053922 0.000541 0.130179
v 0.027489 0.000541 0.138197
v -0.000000 0.000541 0.140905
v -0.027489 0.000541 0.138197
v -0.053922 0.000541 0.130179
v -0.078283 0.000541 0.117158
v -0.099635 0.000541 0.099635
v -0.117158 0.000541 0.078283
v -0.130179 0.000541 0.053922
v -0.138198 0.000541 0.027489
v -0.140905 0.000541 -0.000000
v -0.138198 0.000541 -0.027489
v -0.130179 0.000541 -0.053922
v -0.117158 0.000541 -0.078283
v -0.099635 0.000541 -0.099635
v -0.078283 0.000541 -0.117158
v -0.053922 0.000541 -0.130180
v -0.027489 0.000541 -0.138198
v -0.000000 0.092003 -0.250965
v -0.000000 0.184426 -0.286041
v -0.000000 0.300429 -0.311409
v 0.060753 0.300429 -0.305425
v 0.055804 0.184426 -0.280545
v 0.048961 0.092003 -0.246143
v 0.119171 0.300429 -0.287704
v 0.109463 0.184426 -0.264268
v 0.096040 0.092003 -0.231862
v 0.173010 0.300429 -0.258927
v 0.158916 0.184426 -0.237835
v 0.139429 0.092003 -0.208670
v 0.220199 0.300429 -0.220199
v 0.202262 0.184426 -0.202262
v 0.177459 0.092003 -0.177459
v 0.258927 0.300429 -0.173009
v 0.237835 0.184426 -0.158916
v 0.208670 0.092003 -0.139429
v 0.287704 0.300429 -0.119171
v 0.264268 0.184426 -0.109463
v 0.231862 0.092003 -0.096040
v 0.305425 0.300429 -0.060753
v 0.280545 0.184426 -0.055804
v 0.246143 0.092003 -0.048961
v 0.311409 0.300429 0.000000
v 0.286041 0.184426 0.000000
v 0.250966 0.092003 0.000000
v 0.305425 0.300429 0.060753
v 0.280545 0.184426 0.055804
v 0.246143 0.092003 0.048961
v 0.287704 0.300429 0.119171
v 0.264268 0.184426 0.109463
v 0.231862 0.092003 0.096040
v 0.258927 0.300429 0.173010
v 0.237835 0.184426 0.158916
v 0.208670 0.092003 0.139429
v 0.220199 0.300429 0.220200
v 0.202262 0.184426 0.202262
v 0.177459 0.092003 0.177460
v 0.173010 0.300429 0.258927
v 0.158916 0.184426 0.237835
v 0.139429 0.092003 0.208670
v 0.119171 0.300429 0.287704
v 0.109463 0.184426 0.264268
v 0.096040 0.092003 0.231862
v 0.060753 0.300429 0.305425
v 0.055804 0.184426 0.280545
v 0.048961 0.092003 0.246143
v -0.000000 0.300429 0.311409
v -0.000000 0.184426 0.286041
v -0.000000 0.092003 0.250966
v -0.060753 0.300429 0.305425
v -0.055804 0.184426 0.280545
v -0.048961 0.092003 0.246143
v -0.119171 0.300429 0.287704
v -0.109463 0.184426 0.264268
v -0.096040 0.092003 0.231862
v -0.173010 0.300429 0.258927
v -0.158916 0.184426 0.237835
v -0.139429 0.092003 0.208670
v -0.220199 0.300429 0.220200
v -0.202262 0.184426 0.202262
v -0.177459 0.092003 0.177460
v -0.258927 0.300429 0.173010
v -0.237835 0.184426 0.158916
v -0.208670 0.092003 0.139429
v -0.287704 0.300429 0.119171
v -0.264268 0.184426 0.109463
v -0.231862 0.092003 0.096040
v -0.305425 0.300429 0.060753
v -0.280545 0.184426 0.055804
v -0.246143 0.092003 0.048961
v -0.311409 0.300429 0.000000
v -0.286041 0.184426 0.000000
v -0.250966 0.092003 0.000000
v -0.305425 0.300429 -0.060753
v -0.280545 0.184426 -0.055804
v -0.246143 0.092003 -0.048961
v -0.287704 0.300429 -0.119171
v -0.264268 0.184426 -0.109463
v -0.231862 0.092003 -0.096040
v -0.258927 0.300429 -0.173009
v -0.237835 0.184426 -0.158916
v -0.208670 0.092003 -0.139429
v -0.220199 0.300429 -0.220199
v -0.202262 0.184426 -0.202262
v -0.177459 0.092003 -0.177459
v -0.173010 0.300429 -0.258927
v -0.158916 0.184426 -0.237835
v -0.139429 0.092003 -0.208670
v -0.119171 0.300429 -0.287704
v -0.109463 0.184426 -0.264268
v -0.096040 0.092003 -0.231862
v -0.060753 0.300429 -0.305425
v -0.055804 0.184426 -0.280545
v -0.048961 0.092003 -0.246143
v -0.292985 0.242427 0.058279
v -0.263344 0.138214 0.052383
v -0.298725 0.242427 0.000000
v -0.268503 0.138214 0.000000
v -0.248554 0.092003 0.024481
v -0.283293 0.184426 0.027902
v -0.308417 0.300429 0.030377
v -0.295855 0.242427 0.029139
v -0.265924 0.138214 0.026191
v -0.451536 0.275629 0.044472
v -0.454528 0.275629 0.014096
v -0.448544 0.275629 0.074849
v -0.466008 0.235849 0.075320
v -0.471748 0.235849 0.017041
v -0.468878 0.235849 0.046181
v -0.456826 0.153473 0.044994
v -0.459574 0.153473 0.017092
v -0.454078 0.153473 0.072896
v -0.408043 0.107262 0.066634
v -0.413202 0.107262 0.014252
v -0.410623 0.107262 0.040443
v -0.362523 0.098498 0.062151
v -0.365103 0.098498 0.035960
v -0.382472 0.144710 0.037670
v -0.379724 0.144710 0.065572
v -0.367682 0.098498 0.009768
v -0.385220 0.144710 0.009768
v -0.416728 0.251026 0.010375
v -0.416743 0.301357 0.010375
v -0.410759 0.301357 0.071127
v -0.410989 0.251026 0.068653
v -0.413859 0.251026 0.039514
v -0.413751 0.301357 0.040751
v -0.315494 0.101370 0.031074
v -0.330115 0.147582 0.060686
v -0.335611 0.147582 0.004882
v -0.312914 0.101370 0.057265
v -0.332863 0.147582 0.032784
v -0.318074 0.101370 0.004882
v -0.422734 0.195739 0.041636
v -0.425545 0.195739 0.013094
v -0.472956 0.196086 0.017763
v -0.470145 0.196086 0.046305
v -0.467333 0.196086 0.074847
v -0.419923 0.195739 0.070178
v -0.364076 0.308262 0.005187
v -0.355848 0.269694 0.064470
v -0.361084 0.308262 0.035564
v -0.361587 0.269694 0.006191
v -0.358092 0.308262 0.065940
v -0.358718 0.269694 0.035331
vn 0.0974 -0.1133 -0.9888
vn 0.2884 -0.1133 -0.9508
vn 0.4684 -0.1133 -0.8762
vn 0.6303 -0.1133 -0.7680
vn 0.7680 -0.1133 -0.6303
vn 0.8762 -0.1133 -0.4684
vn 0.9508 -0.1133 -0.2884
vn 0.9888 -0.1133 -0.0974
vn 0.9888 -0.1133 0.0974
vn 0.9508 -0.1133 0.2884
vn 0.8762 -0.1133 0.4684
vn 0.7680 -0.1133 0.6303
vn 0.6303 -0.1133 0.7680
vn 0.4684 -0.1133 0.8762
vn 0.2884 -0.1133 0.9508
vn 0.0974 -0.1133 0.9888
vn -0.0974 -0.1133 0.9888
vn -0.2884 -0.1133 0.9508
vn -0.4684 -0.1133 0.8762
vn -0.6303 -0.1133 0.7680
vn -0.7680 -0.1133 0.6303
vn -0.8762 -0.1133 0.4684
vn -0.9508 -0.1133 0.2884
vn -0.9888 -0.1133 0.0974
vn -0.9888 -0.1133 -0.0974
vn -0.9508 -0.1133 -0.2884
vn -0.8762 -0.1133 -0.4684
vn -0.7680 -0.1133 -0.6303
vn -0.6303 -0.1133 -0.7680
vn -0.4684 -0.1133 -0.8762
vn 0.9307 0.2327 0.2823
vn -0.2884 -0.1133 -0.9508
vn -0.0974 -0.1133 -0.9888
vn -0.0000 -1.0000 -0.0000
vn -0.0000 1.0000 -0.0000
vn -0.6170 0.2327 -0.7518
vn 0.8577 0.2327 0.4585
vn -0.4585 0.2327 -0.8577
vn -0.0953 0.2327 0.9679
vn 0.7518 0.2327 0.6170
vn -0.2823 0.2327 -0.9307
vn -0.2823 0.2327 0.9307
vn 0.6170 0.2327 0.7518
vn -0.0953 0.2327 -0.9679
vn -0.4585 0.2327 0.8577
vn 0.4585 0.2327 0.8577
vn 0.0953 0.2327 -0.9679
vn -0.6170 0.2327 0.7518
vn 0.2823 0.2327 0.9307
vn 0.2823 0.2327 -0.9307
vn -0.7518 0.2327 0.6170
vn 0.0953 0.2327 0.9679
vn 0.4585 0.2327 -0.8577
vn -0.8577 0.2327 0.4585
vn 0.6170 0.2327 -0.7518
vn -0.9307 0.2327 0.2823
vn 0.7518 0.2327 -0.6170
vn -0.9679 0.2327 0.0953
vn 0.8577 0.2327 -0.4585
vn -0.9679 0.2327 -0.0953
vn 0.9307 0.2327 -0.2823
vn -0.9307 0.2327 -0.2823
vn 0.9679 0.2327 -0.0953
vn -0.8577 0.2327 -0.4585
vn 0.9679 0.2327 0.0953
vn -0.7518 0.2327 -0.6170
vn -0.0908 -0.3776 0.9215
vn -0.2688 -0.3776 0.8861
vn -0.4365 -0.3776 0.8166
vn -0.5874 -0.3776 0.7158
vn -0.7158 -0.3776 0.5874
vn -0.8166 -0.3776 0.4365
vn -0.8861 -0.3776 0.2688
vn -0.9215 -0.3776 0.0908
vn -0.9215 -0.3776 -0.0908
vn -0.8861 -0.3776 -0.2688
vn -0.8166 -0.3776 -0.4365
vn -0.7158 -0.3776 -0.5874
vn -0.5874 -0.3776 -0.7158
vn -0.4365 -0.3776 -0.8166
vn -0.2688 -0.3776 -0.8861
vn -0.0908 -0.3776 -0.9215
vn 0.0908 -0.3776 -0.9215
vn 0.2688 -0.3776 -0.8861
vn 0.4365 -0.3776 -0.8166
vn 0.5874 -0.3776 -0.7158
vn 0.7158 -0.3776 -0.5874
vn 0.8166 -0.3776 -0.4365
vn 0.8861 -0.3776 -0.2688
vn 0.9215 -0.3776 -0.0908
vn 0.9215 -0.3776 0.0908
vn 0.8861 -0.3776 0.2688
vn 0.8166 -0.3776 0.4365
vn 0.7158 -0.3776 0.5874
vn 0.5874 -0.3776 0.7158
vn 0.4365 -0.3776 0.8166
vn 0.2688 -0.3776 0.8861
vn 0.0908 -0.3776 0.9215
vn -0.0710 -0.6893 -0.7210
vn -0.0917 -0.3533 -0.9310
vn -0.0958 -0.2127 -0.9724
vn -0.2103 -0.6893 -0.6933
vn -0.2716 -0.3533 -0.8952
vn -0.2836 -0.2127 -0.9351
vn -0.3415 -0.6893 -0.6390
vn -0.4410 -0.3533 -0.8250
vn -0.4606 -0.2127 -0.8618
vn -0.4596 -0.6893 -0.5601
vn -0.5935 -0.3533 -0.7232
vn -0.6199 -0.2127 -0.7553
vn -0.5601 -0.6893 -0.4596
vn -0.7232 -0.3533 -0.5935
vn -0.7553 -0.2127 -0.6199
vn -0.6390 -0.6893 -0.3415
vn -0.8250 -0.3533 -0.4410
vn -0.8618 -0.2127 -0.4606
vn -0.6933 -0.6893 -0.2103
vn -0.8952 -0.3533 -0.2716
vn -0.9351 -0.2127 -0.2836
vn -0.7210 -0.6893 -0.0710
vn -0.9310 -0.3533 -0.0917
vn -0.9724 -0.2127 -0.0958
vn -0.7210 -0.6893 0.0710
vn -0.9495 -0.2996 0.0935
vn -0.6933 -0.6893 0.2103
vn -0.8952 -0.3533 0.2716
vn -0.9351 -0.2127 0.2836
vn -0.6390 -0.6893 0.3415
vn -0.8250 -0.3533 0.4410
vn -0.8618 -0.2127 0.4606
vn -0.5601 -0.6893 0.4596
vn -0.7232 -0.3533 0.5935
vn -0.7553 -0.2127 0.6199
vn -0.4596 -0.6893 0.5601
vn -0.5935 -0.3533 0.7232
vn -0.6199 -0.2127 0.7553
vn -0.3415 -0.6893 0.6390
vn -0.4410 -0.3533 0.8250
vn -0.4606 -0.2127 0.8618
vn -0.2103 -0.6893 0.6933
vn -0.2716 -0.3533 0.8952
vn -0.2836 -0.2127 0.9351
vn -0.0710 -0.6893 0.7210
vn -0.0917 -0.3533 0.9310
vn -0.0958 -0.2127 0.9724
vn 0.0710 -0.6893 0.7210
vn 0.0917 -0.3533 0.9310
vn 0.0958 -0.2127 0.9724
vn 0.2103 -0.6893 0.6933
vn 0.2716 -0.3533 0.8952
vn 0.2836 -0.2127 0.9351
vn 0.3415 -0.6893 0.6390
vn 0.4410 -0.3533 0.8250
vn 0.4606 -0.2127 0.8618
vn 0.4596 -0.6893 0.5601
vn 0.5935 -0.3533 0.7232
vn 0.6199 -0.2127 0.7553
vn 0.5601 -0.6893 0.4596
vn 0.7232 -0.3533 0.5935
vn 0.7553 -0.2127 0.6199
vn 0.6390 -0.6893 0.3415
vn 0.8250 -0.3533 0.4410
vn 0.8618 -0.2127 0.4606
vn 0.6933 -0.6893 0.2103
vn 0.8952 -0.3533 0.2716
vn 0.9351 -0.2127 0.2836
vn 0.7210 -0.6893 0.0710
vn 0.9310 -0.3533 0.0917
vn 0.9724 -0.2127 0.0958
vn 0.7210 -0.6893 -0.0710
vn 0.9310 -0.3533 -0.0917
vn 0.9724 -0.2127 -0.0958
vn 0.6933 -0.6893 -0.2103
vn 0.8952 -0.3533 -0.2716
vn 0.9351 -0.2127 -0.2836
vn 0.6390 -0.6893 -0.3415
vn 0.8250 -0.3533 -0.4410
vn 0.8618 -0.2127 -0.4606
vn 0.5601 -0.6893 -0.4596
vn 0.7232 -0.3533 -0.5935
vn 0.7553 -0.2127 -0.6199
vn 0.4596 -0.6893 -0.5601
vn 0.5935 -0.3533 -0.7232
vn 0.6199 -0.2127 -0.7553
vn 0.3415 -0.6893 -0.6390
vn 0.4410 -0.3533 -0.8250
vn 0.4606 -0.2127 -0.8618
vn 0.2103 -0.6893 -0.6933
vn 0.2716 -0.3533 -0.8952
vn 0.2836 -0.2127 -0.9351
vn 0.0710 -0.6893 -0.7210
vn 0.0917 -0.3533 -0.9310
vn 0.0958 -0.2127 -0.9724
vn -0.9724 -0.2127 0.0958
vn -0.1873 -0.9821 0.0184
vn 0.1328 -0.0466 0.9900
vn -0.0980 -0.0000 -0.9952
vn -0.9310 -0.3533 0.0917
vn -0.9116 0.4012 0.0898
vn -0.5583 0.8278 0.0550
vn -0.0981 -0.0151 -0.9951
vn -0.7021 -0.7087 0.0691
vn -0.1028 -0.0421 -0.9938
vn 0.0903 -0.0401 0.9951
vn 0.7798 0.6213 -0.0768
vn -0.0572 0.9983 0.0056
vn 0.0572 -0.9983 -0.0056
vn 0.1000 -0.0364 0.9943
vn -0.0959 -0.0364 -0.9947
vn -0.1288 0.9916 0.0127
vn 0.3184 -0.9474 -0.0314
vn -0.0938 -0.0320 -0.9951
vn 0.0921 -0.0493 0.9945
vn 0.0979 -0.0151 0.9951
vn -0.5918 0.8040 0.0583
vn 0.5918 -0.8040 -0.0583
vn -0.0766 -0.0291 -0.9966
vn 0.1193 -0.0291 0.9924
vn 0.9821 -0.1614 -0.0967
vn 0.0964 -0.0139 0.9952
vn -0.1118 -0.0310 -0.9932
vn -0.9947 0.0320 0.0980
vn 0.0878 -0.0236 0.9959
vn -0.1028 -0.0325 -0.9942
vn -0.3944 -0.9181 0.0388
vn 0.1457 0.9892 -0.0144
vn -0.8617 -0.2127 0.4606
vn 0.8617 -0.2127 -0.4606
vn 0.1311 -0.0493 0.9901
vn -0.1136 -0.0243 -0.9932
vn -0.0996 -0.0139 -0.9949
vn -0.1056 -0.0401 -0.9936
vn 0.0930 -0.0421 0.9948
vn -0.0756 -0.0000 -0.9971
vn 0.1021 -0.0320 0.9943
vn 0.1180 0.0083 0.9930
vn 0.0932 -0.0325 0.9951
vn -0.1081 -0.0236 -0.9939
vt 0.864976 0.923817
vt 0.845306 0.120717
vt 0.219420 0.316962
vt 0.984720 0.367269
vt 0.851523 0.921141
vt 0.845678 0.107268
vt 0.245919 0.305986
vt 0.985881 0.339160
vt 0.838851 0.915892
vt 0.846406 0.094604
vt 0.269768 0.290051
vt 0.987767 0.312703
vt 0.847464 0.083211
vt 0.827446 0.908271
vt 0.344142 0.786351
vt 0.290050 0.269769
vt 0.990304 0.288913
vt 0.787083 0.515119
vt 0.817747 0.898571
vt 0.342960 0.776635
vt 0.305985 0.245920
vt 0.784343 0.494837
vt 0.810127 0.887166
vt 0.342083 0.765217
vt 0.316962 0.219420
vt 0.782190 0.470989
vt 0.804878 0.874493
vt 0.341542 0.752536
vt 0.322557 0.191289
vt 0.780707 0.444489
vt 0.802202 0.861039
vt 0.341360 0.739078
vt 0.322557 0.162606
vt 0.779951 0.416358
vt 0.802202 0.847322
vt 0.341542 0.725362
vt 0.316962 0.134474
vt 0.779951 0.387675
vt 0.804878 0.833869
vt 0.342083 0.711915
vt 0.305985 0.107975
vt 0.780707 0.359543
vt 0.810127 0.821196
vt 0.342960 0.699252
vt 0.290050 0.084126
vt 0.782190 0.333044
vt 0.817747 0.809790
vt 0.344142 0.687862
vt 0.344198 0.663659
vt 0.269768 0.063844
vt 0.784343 0.309195
vt 0.827446 0.800091
vt 0.342995 0.653944
vt 0.787083 0.288913
vt 0.245919 0.047909
vt 0.193560 0.839698
vt 0.838851 0.792470
vt 0.342101 0.642527
vt 0.219420 0.036932
vt 0.191045 0.815884
vt 0.851523 0.787221
vt 0.341551 0.629847
vt 0.191288 0.031337
vt 0.189177 0.789410
vt 0.864976 0.784544
vt 0.341365 0.616390
vt 0.162606 0.031337
vt 0.188026 0.761293
vt 0.878693 0.784544
vt 0.341551 0.602674
vt 0.134474 0.036932
vt 0.187637 0.732612
vt 0.892146 0.787221
vt 0.342101 0.589226
vt 0.107975 0.047909
vt 0.188026 0.704472
vt 0.904818 0.792470
vt 0.342995 0.576563
vt 0.084126 0.063844
vt 0.189177 0.677952
vt 0.344198 0.565171
vt 0.916223 0.800091
vt 0.250930 0.475411
vt 0.063844 0.084126
vt 0.191045 0.654072
vt 0.925922 0.809790
vt 0.252622 0.485110
vt 0.193560 0.633750
vt 0.047909 0.107975
vt 0.782810 0.970187
vt 0.933542 0.821196
vt 0.253952 0.496516
vt 0.036932 0.134474
vt 0.780030 0.946338
vt 0.938791 0.833869
vt 0.254868 0.509189
vt 0.031337 0.162606
vt 0.778115 0.919839
vt 0.941467 0.847322
vt 0.255335 0.522642
vt 0.031337 0.191288
vt 0.777139 0.891707
vt 0.941467 0.861039
vt 0.255335 0.536359
vt 0.036932 0.219420
vt 0.777139 0.863024
vt 0.938791 0.874493
vt 0.254868 0.549813
vt 0.778115 0.834893
vt 0.047909 0.245920
vt 0.933542 0.887166
vt 0.253952 0.562486
vt 0.063844 0.269768
vt 0.780030 0.808393
vt 0.925922 0.898571
vt 0.252622 0.573891
vt 0.782810 0.784544
vt 0.084126 0.290050
vt 0.990304 0.494890
vt 0.250930 0.583591
vt 0.916223 0.908271
vt 0.847464 0.171992
vt 0.107975 0.305986
vt 0.987767 0.474538
vt 0.904818 0.915892
vt 0.846406 0.160574
vt 0.134474 0.316962
vt 0.985881 0.450634
vt 0.892146 0.921141
vt 0.845678 0.147892
vt 0.162606 0.322558
vt 0.984720 0.424098
vt 0.878693 0.923817
vt 0.845306 0.134434
vt 0.191288 0.322558
vt 0.984328 0.395949
vt 0.364036 0.370145
vt 0.256170 0.325164
vt 0.363590 0.402468
vt 0.225732 0.337771
vt 0.365358 0.339684
vt 0.283563 0.306860
vt 0.367504 0.312255
vt 0.306859 0.283564
vt 0.370393 0.288913
vt 0.225025 0.382358
vt 0.325163 0.256171
vt 0.228218 0.409751
vt 0.337771 0.225733
vt 0.230417 0.440189
vt 0.344198 0.193420
vt 0.231539 0.472502
vt 0.344198 0.160475
vt 0.231539 0.505448
vt 0.337771 0.128162
vt 0.230417 0.537760
vt 0.325163 0.097724
vt 0.228218 0.568198
vt 0.306859 0.070331
vt 0.225024 0.595591
vt 0.370454 0.799476
vt 0.283563 0.047035
vt 0.367540 0.776099
vt 0.256170 0.028731
vt 0.365374 0.748642
vt 0.225732 0.016123
vt 0.364040 0.718162
vt 0.193420 0.009696
vt 0.363590 0.685830
vt 0.160474 0.009696
vt 0.364040 0.652887
vt 0.128162 0.016123
vt 0.365374 0.620601
vt 0.097724 0.028731
vt 0.367540 0.590211
vt 0.070331 0.047035
vt 0.370454 0.562886
vt 0.573275 0.009696
vt 0.047035 0.070331
vt 0.576422 0.032992
vt 0.028731 0.097724
vt 0.578895 0.060385
vt 0.016123 0.128162
vt 0.580598 0.090823
vt 0.009696 0.160474
vt 0.581466 0.123136
vt 0.009696 0.193420
vt 0.581466 0.156081
vt 0.016123 0.225733
vt 0.580598 0.188394
vt 0.028731 0.256170
vt 0.578895 0.218832
vt 0.047035 0.283564
vt 0.576422 0.246225
vt 0.070331 0.306860
vt 0.573275 0.269521
vt 0.370393 0.525469
vt 0.097724 0.325163
vt 0.367504 0.498116
vt 0.128162 0.337771
vt 0.365358 0.467707
vt 0.160474 0.344199
vt 0.364036 0.435411
vt 0.193420 0.344199
vt 0.732479 0.761266
vt 0.807553 0.349813
vt 0.712941 0.765153
vt 0.806747 0.369336
vt 0.750884 0.753642
vt 0.808863 0.331437
vt 0.810625 0.314913
vt 0.767449 0.742575
vt 0.606715 0.480572
vt 0.781535 0.728488
vt 0.604812 0.466485
vt 0.792603 0.711924
vt 0.603317 0.449921
vt 0.800227 0.693519
vt 0.602287 0.431516
vt 0.804113 0.673980
vt 0.601762 0.411977
vt 0.804113 0.654058
vt 0.601762 0.392055
vt 0.800227 0.634520
vt 0.602287 0.372517
vt 0.792603 0.616114
vt 0.603317 0.354112
vt 0.781535 0.599550
vt 0.604812 0.337547
vt 0.767449 0.585464
vt 0.013810 0.813766
vt 0.606715 0.323461
vt 0.750884 0.574396
vt 0.012063 0.797226
vt 0.732479 0.566772
vt 0.010765 0.778838
vt 0.712941 0.562886
vt 0.009966 0.759309
vt 0.693019 0.562886
vt 0.009696 0.739390
vt 0.673480 0.566772
vt 0.009966 0.719844
vt 0.655075 0.574396
vt 0.010765 0.701425
vt 0.638511 0.585464
vt 0.012063 0.684840
vt 0.624425 0.599550
vt 0.013810 0.670725
vt 0.605785 0.941835
vt 0.613357 0.616114
vt 0.603855 0.925270
vt 0.605733 0.634520
vt 0.602525 0.906865
vt 0.601847 0.654058
vt 0.601847 0.887326
vt 0.601847 0.673980
vt 0.601847 0.867405
vt 0.605733 0.693519
vt 0.602525 0.847866
vt 0.613357 0.711924
vt 0.603855 0.829461
vt 0.624425 0.728488
vt 0.605785 0.812897
vt 0.810625 0.457975
vt 0.638511 0.742575
vt 0.808863 0.443839
vt 0.655075 0.753642
vt 0.807553 0.427237
vt 0.673480 0.761266
vt 0.806747 0.408806
vt 0.693019 0.765153
vt 0.806474 0.389255
vt 0.724970 0.040212
vt 0.580386 0.407644
vt 0.741346 0.043469
vt 0.580612 0.391262
vt 0.756772 0.049859
vt 0.581282 0.375823
vt 0.770655 0.059136
vt 0.582370 0.361922
vt 0.009696 0.434938
vt 0.782462 0.070943
vt 0.791738 0.084827
vt 0.011314 0.448821
vt 0.798128 0.100254
vt 0.012429 0.464248
vt 0.801385 0.116631
vt 0.012997 0.480625
vt 0.801385 0.133329
vt 0.012997 0.497323
vt 0.798128 0.149706
vt 0.012429 0.513700
vt 0.791738 0.165133
vt 0.011314 0.529127
vt 0.782462 0.179017
vt 0.009696 0.543011
vt 0.582455 0.726511
vt 0.770655 0.190824
vt 0.756772 0.200101
vt 0.581357 0.712595
vt 0.741346 0.206491
vt 0.580681 0.697147
vt 0.724970 0.209748
vt 0.580453 0.680760
vt 0.708273 0.209748
vt 0.580681 0.664063
vt 0.691896 0.206491
vt 0.581357 0.647699
vt 0.582455 0.632297
vt 0.676470 0.200101
vt 0.662587 0.190824
vt 0.650781 0.179017
vt 0.641505 0.165133
vt 0.363590 0.099456
vt 0.635115 0.149706
vt 0.364453 0.114883
vt 0.631857 0.133329
vt 0.364893 0.131260
vt 0.631857 0.116631
vt 0.364893 0.147958
vt 0.635115 0.100254
vt 0.364453 0.164335
vt 0.363590 0.179761
vt 0.641505 0.084827
vt 0.650781 0.070943
vt 0.662587 0.059136
vt 0.676470 0.049859
vt 0.582370 0.456122
vt 0.691896 0.043469
vt 0.581282 0.440709
vt 0.580612 0.424341
vt 0.708273 0.040212
vt 0.723815 0.051941
vt 0.836570 0.120378
vt 0.737925 0.054748
vt 0.836960 0.106272
vt 0.751216 0.060253
vt 0.837724 0.092989
vt 0.763179 0.068247
vt 0.838834 0.081039
vt 0.335546 0.788880
vt 0.773352 0.078420
vt 0.334308 0.778689
vt 0.781344 0.090383
vt 0.333387 0.766713
vt 0.786850 0.103675
vt 0.332820 0.753412
vt 0.789657 0.117786
vt 0.332629 0.739297
vt 0.789657 0.132174
vt 0.332820 0.724911
vt 0.786850 0.146285
vt 0.333387 0.710806
vt 0.781344 0.159577
vt 0.334308 0.697525
vt 0.335546 0.685578
vt 0.773352 0.171540
vt 0.335600 0.666186
vt 0.763179 0.181713
vt 0.334338 0.655997
vt 0.751216 0.189707
vt 0.333401 0.644022
vt 0.737925 0.195212
vt 0.332823 0.630722
vt 0.723815 0.198019
vt 0.332629 0.616607
vt 0.709428 0.198019
vt 0.332823 0.602221
vt 0.695318 0.195212
vt 0.333401 0.588116
vt 0.682026 0.189707
vt 0.334338 0.574834
vt 0.670064 0.181713
vt 0.335600 0.562886
vt 0.259525 0.472768
vt 0.659891 0.171540
vt 0.261300 0.482941
vt 0.651898 0.159577
vt 0.262694 0.494904
vt 0.646392 0.146285
vt 0.263655 0.508196
vt 0.643586 0.132174
vt 0.264145 0.522307
vt 0.643586 0.117786
vt 0.264145 0.536695
vt 0.646392 0.103675
vt 0.263655 0.550806
vt 0.651898 0.090383
vt 0.262694 0.564098
vt 0.659891 0.078420
vt 0.261300 0.576061
vt 0.670064 0.068247
vt 0.259525 0.586234
vt 0.838834 0.174159
vt 0.682026 0.060253
vt 0.837724 0.162183
vt 0.695318 0.054748
vt 0.836960 0.148881
vt 0.709428 0.051941
vt 0.836570 0.134765
vt 0.526909 0.403913
vt 0.476706 0.402804
vt 0.415038 0.402346
vt 0.415469 0.371149
vt 0.477102 0.374149
vt 0.527256 0.378772
vt 0.416744 0.341750
vt 0.478274 0.347145
vt 0.528285 0.355078
vt 0.169967 0.363590
vt 0.418816 0.315277
vt 0.109009 0.373804
vt 0.480176 0.322829
vt 0.799060 0.023933
vt 0.059585 0.387927
vt 0.529954 0.333744
vt 0.421604 0.292749
vt 0.173889 0.386075
vt 0.112612 0.394457
vt 0.062746 0.406047
vt 0.817179 0.042053
vt 0.176971 0.412513
vt 0.115443 0.418741
vt 0.065230 0.427354
vt 0.179094 0.441890
vt 0.117393 0.445725
vt 0.066941 0.451029
vt 0.180176 0.473076
vt 0.118387 0.474371
vt 0.067813 0.476162
vt 0.180176 0.504873
vt 0.118387 0.503578
vt 0.067813 0.501787
vt 0.179094 0.536059
vt 0.117393 0.532224
vt 0.066941 0.526920
vt 0.176971 0.565436
vt 0.115443 0.559208
vt 0.065230 0.550595
vt 0.421662 0.795641
vt 0.173889 0.591875
vt 0.112612 0.583492
vt 0.817179 0.207908
vt 0.062746 0.571902
vt 0.418848 0.773079
vt 0.169967 0.614359
vt 0.480212 0.765537
vt 0.109009 0.604145
vt 0.530000 0.754639
vt 0.799060 0.226028
vt 0.059585 0.590022
vt 0.416758 0.746580
vt 0.478292 0.741197
vt 0.528316 0.733283
vt 0.415471 0.717162
vt 0.477110 0.714176
vt 0.527278 0.709576
vt 0.415036 0.685957
vt 0.476710 0.685512
vt 0.526928 0.684427
vt 0.415471 0.654162
vt 0.477110 0.656308
vt 0.527278 0.658804
vt 0.416758 0.623001
vt 0.478292 0.627685
vt 0.528316 0.633691
vt 0.418849 0.593671
vt 0.480212 0.600744
vt 0.654519 0.240264
vt 0.530000 0.610054
vt 0.522112 0.014224
vt 0.421662 0.567298
vt 0.461112 0.024438
vt 0.482796 0.576520
vt 0.411847 0.038561
vt 0.633213 0.226028
vt 0.532267 0.588800
vt 0.525150 0.036708
vt 0.463902 0.045091
vt 0.615094 0.207908
vt 0.414295 0.056681
vt 0.527536 0.063147
vt 0.466094 0.069376
vt 0.600858 0.186601
vt 0.416219 0.077988
vt 0.529180 0.092524
vt 0.467604 0.096359
vt 0.417543 0.101663
vt 0.530018 0.123710
vt 0.308595 0.864937
vt 0.302119 0.363590
vt 0.468374 0.125005
vt 0.836570 0.009696
vt 0.305941 0.803557
vt 0.418219 0.126796
vt 0.530018 0.155507
vt 0.308592 0.648324
vt 0.333916 0.363590
vt 0.305938 0.709715
vt 0.468374 0.154212
vt 0.865777 0.009696
vt 0.418219 0.152421
vt 0.529180 0.186693
vt 0.467604 0.182858
vt 0.417543 0.177554
vt 0.527536 0.216070
vt 0.466094 0.209842
vt 0.600858 0.063359
vt 0.416219 0.201229
vt 0.425001 0.543494
vt 0.525150 0.242509
vt 0.485858 0.532455
vt 0.463902 0.234126
vt 0.414295 0.222536
vt 0.534939 0.517665
vt 0.615094 0.042053
vt 0.522112 0.264993
vt 0.421604 0.521059
vt 0.482737 0.511847
vt 0.532201 0.499584
vt 0.633213 0.023933
vt 0.418816 0.494659
vt 0.480176 0.487598
vt 0.529954 0.478309
vt 0.654519 0.009696
vt 0.416744 0.465310
vt 0.478274 0.460640
vt 0.528285 0.454656
vt 0.415469 0.434140
vt 0.477102 0.432009
vt 0.527256 0.429536
vt 0.307268 0.834247
vt 0.499196 0.124357
vt 0.823851 0.624949
vt 0.443296 0.125900
vt 0.302119 0.533481
vt 0.308595 0.778068
vt 0.854352 0.624629
vt 0.499196 0.154860
vt 0.307265 0.679020
vt 0.329535 0.533481
vt 0.443296 0.153317
vt 0.308592 0.735208
vt 0.418219 0.139609
vt 0.468374 0.139609
vt 0.851174 0.009696
vt 0.530018 0.139609
vt 0.318018 0.363590
vt 0.499196 0.139609
vt 0.839101 0.624789
vt 0.443296 0.139609
vt 0.315827 0.533481
vt 0.266829 0.363590
vt 0.318018 0.438524
vt 0.282727 0.363590
vt 0.232906 0.641520
vt 0.333916 0.438524
vt 0.302119 0.438524
vt 0.232906 0.871735
vt 0.250930 0.363590
vt 0.251578 0.382894
vt 0.218856 0.854135
vt 0.282080 0.382894
vt 0.218855 0.659122
vt 0.266829 0.382894
vt 0.266829 0.426260
vt 0.214051 0.701905
vt 0.281432 0.426260
vt 0.252225 0.426260
vt 0.214051 0.811359
vt 0.302119 0.457915
vt 0.253121 0.453376
vt 0.231294 0.782010
vt 0.280537 0.453376
vt 0.231294 0.731261
vt 0.329535 0.457915
vt 0.266829 0.453376
vt 0.315827 0.457915
vt 0.253168 0.771545
vt 0.302119 0.481785
vt 0.315827 0.481785
vt 0.838810 0.696192
vt 0.851174 0.061648
vt 0.836570 0.061648
vt 0.250514 0.797033
vt 0.853412 0.696359
vt 0.329535 0.481785
vt 0.253167 0.741729
vt 0.250513 0.716237
vt 0.824207 0.696024
vt 0.865777 0.061648
vt 0.854352 0.562886
vt 0.823505 0.644340
vt 0.248781 0.658853
vt 0.333916 0.418720
vt 0.255421 0.633750
vt 0.302119 0.418720
vt 0.255422 0.879504
vt 0.823851 0.563205
vt 0.248738 0.854232
vt 0.854005 0.644690
vt 0.839101 0.563045
vt 0.838755 0.644515
vt 0.318018 0.418720
vt 0.315827 0.507733
vt 0.836570 0.035680
vt 0.275994 0.791823
vt 0.275992 0.721450
vt 0.865777 0.035680
vt 0.278648 0.766334
vt 0.302119 0.507733
vt 0.851174 0.035680
vt 0.278646 0.746943
vt 0.329535 0.507733
vt 0.839068 0.673698
vt 0.824130 0.673527
vt 0.236894 0.685349
vt 0.212952 0.678825
vt 0.281767 0.403326
vt 0.266829 0.403326
vt 0.212952 0.834435
vt 0.251890 0.403326
vt 0.854005 0.673869
vt 0.236894 0.827914
vt 0.282980 0.637362
vt 0.333916 0.391147
vt 0.279064 0.856260
vt 0.823505 0.591906
vt 0.318018 0.391147
vt 0.279061 0.657000
vt 0.854005 0.591587
vt 0.302119 0.391147
vt 0.282982 0.875895
vt 0.838755 0.591746
s 0
f 66/139/1 196/404/1 195/403/1
f 65/137/2 199/407/2 196/404/2
f 67/141/3 202/411/3 199/407/3
f 68/143/4 205/417/4 202/411/4
f 69/146/5 208/422/5 205/418/5
f 70/148/6 211/425/6 208/422/6
f 71/150/7 214/428/7 211/425/7
f 72/152/8 217/431/8 214/428/8
f 73/154/9 220/434/9 217/431/9
f 74/156/10 223/437/10 220/434/10
f 75/158/11 226/441/11 223/437/11
f 76/161/12 229/445/12 226/440/12
f 77/163/13 232/452/13 229/445/13
f 232/452/14 79/167/14 235/455/14
f 235/455/15 80/169/15 238/458/15
f 80/169/16 241/461/16 238/458/16
f 241/461/17 82/173/17 244/464/17
f 244/464/18 83/175/18 247/467/18
f 247/467/19 84/177/19 250/472/19
f 84/178/20 253/478/20 250/471/20
f 253/478/21 86/182/21 256/482/21
f 256/482/22 87/184/22 259/486/22
f 87/184/23 262/489/23 259/486/23
f 88/186/24 265/496/24 295/547/24
f 265/496/25 90/190/25 268/503/25
f 90/190/26 271/506/26 268/503/26
f 271/506/27 92/194/27 274/511/27
f 92/194/28 277/517/28 274/511/28
f 93/197/29 280/522/29 277/518/29
f 94/199/30 283/526/30 280/522/30
f 54/114/31 122/259/31 123/261/31
f 95/201/32 286/529/32 283/526/32
f 96/203/33 195/403/33 286/529/33
f 31/65/34 47/99/34 63/133/34
f 2/3/35 65/138/35 66/140/35
f 6/11/35 65/138/35 4/7/35
f 6/11/35 68/144/35 67/142/35
f 8/16/35 69/147/35 68/144/35
f 12/25/35 69/147/35 10/21/35
f 12/25/35 71/151/35 70/149/35
f 14/29/35 72/153/35 71/151/35
f 18/37/35 72/153/35 16/33/35
f 18/37/35 74/157/35 73/155/35
f 22/45/35 74/157/35 20/41/35
f 24/50/35 75/159/35 22/45/35
f 26/55/35 76/162/35 24/50/35
f 26/55/35 78/166/35 77/164/35
f 30/63/35 78/166/35 28/59/35
f 30/63/35 80/170/35 79/168/35
f 34/71/35 80/170/35 32/67/35
f 34/71/35 82/174/35 81/172/35
f 38/79/35 82/174/35 36/75/35
f 40/84/35 83/176/35 38/79/35
f 42/89/35 84/179/35 40/84/35
f 44/93/35 85/181/35 42/89/35
f 44/93/35 87/185/35 86/183/35
f 48/101/35 87/185/35 46/97/35
f 50/105/35 88/187/35 48/101/35
f 52/110/35 89/189/35 50/105/35
f 52/110/35 91/193/35 90/191/35
f 56/118/35 91/193/35 54/113/35
f 56/118/35 93/198/35 92/195/35
f 60/127/35 93/198/35 58/123/35
f 62/131/35 94/200/35 60/127/35
f 64/135/35 95/202/35 62/131/35
f 2/3/35 96/204/35 64/135/35
f 115/243/35 107/226/35 99/209/35
f 26/56/36 110/234/36 28/60/36
f 54/114/37 124/263/37 56/117/37
f 30/64/38 110/234/38 111/236/38
f 2/4/39 97/206/39 4/8/39
f 58/124/40 124/264/40 125/266/40
f 30/64/41 112/238/41 32/68/41
f 4/8/42 99/210/42 6/12/42
f 58/124/43 126/268/43 60/128/43
f 34/72/44 112/238/44 113/240/44
f 8/17/45 99/210/45 100/211/45
f 60/128/46 127/270/46 62/132/46
f 34/72/47 114/242/47 36/76/47
f 8/18/48 101/215/48 10/22/48
f 64/136/49 127/270/49 128/272/49
f 36/76/50 115/244/50 38/80/50
f 10/22/51 102/217/51 12/26/51
f 64/136/52 98/208/52 2/4/52
f 38/80/53 116/246/53 40/85/53
f 12/26/54 103/219/54 14/30/54
f 40/85/55 117/248/55 42/88/55
f 16/34/56 103/219/56 104/221/56
f 42/90/57 118/251/57 44/94/57
f 16/34/58 105/223/58 18/38/58
f 44/94/59 119/253/59 46/98/59
f 18/38/60 106/225/60 20/42/60
f 46/98/61 120/255/61 48/102/61
f 20/42/62 107/227/62 22/46/62
f 50/106/63 120/255/63 121/257/63
f 22/46/64 108/229/64 24/51/64
f 50/106/65 122/259/65 52/109/65
f 24/51/66 109/232/66 26/54/66
f 161/333/34 130/275/34 162/335/34
f 162/335/34 131/277/34 163/337/34
f 163/337/34 132/279/34 164/339/34
f 164/339/34 133/282/34 165/342/34
f 165/342/34 134/283/34 166/344/34
f 166/344/34 135/285/34 167/346/34
f 167/346/34 136/287/34 168/348/34
f 169/350/34 136/287/34 137/289/34
f 169/350/34 138/291/34 170/352/34
f 170/352/34 139/293/34 171/354/34
f 171/354/34 140/295/34 172/357/34
f 172/357/34 141/298/34 173/359/34
f 174/361/34 141/298/34 142/299/34
f 174/361/34 143/301/34 175/363/34
f 175/363/34 144/303/34 176/365/34
f 177/367/34 144/303/34 145/305/34
f 177/367/34 146/307/34 178/369/34
f 178/369/34 147/310/34 179/371/34
f 180/373/34 147/310/34 148/311/34
f 180/373/34 149/312/34 181/376/34
f 181/376/34 150/313/34 182/378/34
f 182/378/34 151/315/34 183/380/34
f 183/380/34 152/317/34 184/382/34
f 184/382/34 153/319/34 185/384/34
f 185/384/34 154/321/34 186/386/34
f 186/386/34 155/324/34 187/388/34
f 187/388/34 156/325/34 188/390/34
f 188/390/34 157/326/34 189/392/34
f 190/395/34 157/326/34 158/327/34
f 190/395/34 159/329/34 191/397/34
f 191/397/34 160/332/34 192/399/34
f 192/399/34 129/273/34 161/333/34
f 3/6/67 161/334/67 162/336/67
f 5/10/68 162/336/68 163/338/68
f 5/10/69 164/340/69 7/13/69
f 7/15/70 165/343/70 9/20/70
f 9/20/71 166/345/71 11/24/71
f 13/28/72 166/345/72 167/347/72
f 13/28/73 168/349/73 15/32/73
f 15/32/74 169/351/74 17/36/74
f 17/36/75 170/353/75 19/40/75
f 19/40/76 171/355/76 21/44/76
f 23/48/77 171/355/77 172/356/77
f 23/49/78 173/360/78 25/53/78
f 27/58/79 173/360/79 174/362/79
f 27/58/80 175/364/80 29/62/80
f 29/62/81 176/366/81 31/66/81
f 31/66/82 177/368/82 33/70/82
f 33/70/83 178/370/83 35/74/83
f 35/74/84 179/372/84 37/78/84
f 37/78/85 180/374/85 39/81/85
f 39/83/86 181/377/86 41/87/86
f 41/87/87 182/379/87 43/92/87
f 43/92/88 183/381/88 45/96/88
f 47/100/89 183/381/89 184/383/89
f 47/100/90 185/385/90 49/104/90
f 49/104/91 186/387/91 51/108/91
f 51/108/92 187/389/92 53/112/92
f 55/116/93 187/389/93 188/391/93
f 55/116/94 189/393/94 57/120/94
f 57/122/95 190/396/95 59/126/95
f 59/126/96 191/398/96 61/130/96
f 61/130/97 192/400/97 63/134/97
f 63/134/98 161/334/98 1/2/98
f 288/531/99 129/274/99 160/331/99
f 288/531/100 194/402/100 193/401/100
f 286/529/101 194/402/101 287/530/101
f 159/330/102 288/531/102 160/331/102
f 285/528/103 287/530/103 288/531/103
f 283/526/104 287/530/104 284/527/104
f 158/328/105 285/528/105 159/330/105
f 282/524/106 284/527/106 285/528/106
f 280/522/107 284/527/107 281/523/107
f 157/326/108 282/525/108 158/327/108
f 279/520/109 281/523/109 282/524/109
f 277/518/110 281/523/110 278/519/110
f 156/325/111 279/521/111 157/326/111
f 276/515/112 278/519/112 279/520/112
f 274/510/113 278/519/113 275/512/113
f 155/324/114 276/516/114 156/325/114
f 273/509/115 275/513/115 276/514/115
f 271/506/116 275/513/116 272/507/116
f 154/322/117 273/509/117 155/323/117
f 270/505/118 272/507/118 273/509/118
f 268/503/119 272/507/119 269/504/119
f 153/320/120 270/505/120 154/322/120
f 292/542/121 269/504/121 270/505/121
f 291/539/122 268/503/122 269/504/122
f 264/495/123 267/502/123 153/320/123
f 331/620/124 306/569/124 332/622/124
f 151/316/125 264/495/125 152/318/125
f 260/487/126 290/535/126 264/495/126
f 259/486/127 289/533/127 263/492/127
f 150/314/128 261/488/128 151/316/128
f 258/485/129 260/487/129 261/488/129
f 256/482/130 260/487/130 257/483/130
f 149/312/131 258/484/131 150/313/131
f 254/479/132 258/485/132 255/481/132
f 253/478/133 257/483/133 254/479/133
f 148/311/134 255/480/134 149/312/134
f 251/473/135 255/481/135 252/475/135
f 250/471/136 254/479/136 251/473/136
f 147/310/137 252/476/137 148/311/137
f 248/468/138 252/477/138 249/470/138
f 247/467/139 251/474/139 248/468/139
f 146/308/140 249/470/140 147/309/140
f 245/465/141 249/470/141 246/466/141
f 244/464/142 248/468/142 245/465/142
f 145/306/143 246/466/143 146/308/143
f 242/462/144 246/466/144 243/463/144
f 241/461/145 245/465/145 242/462/145
f 144/304/146 243/463/146 145/306/146
f 239/459/147 243/463/147 240/460/147
f 238/458/148 242/462/148 239/459/148
f 237/457/149 144/304/149 143/302/149
f 236/456/150 240/460/150 237/457/150
f 235/455/151 239/459/151 236/456/151
f 234/454/152 143/302/152 142/300/152
f 233/453/153 237/457/153 234/454/153
f 232/452/154 236/456/154 233/453/154
f 231/449/155 142/300/155 141/297/155
f 230/447/156 234/454/156 231/449/156
f 229/445/157 233/453/157 230/447/157
f 228/443/158 141/298/158 140/295/158
f 227/442/159 231/451/159 228/444/159
f 226/441/160 230/448/160 227/442/160
f 225/439/161 140/296/161 139/294/161
f 224/438/162 228/444/162 225/439/162
f 223/437/163 227/442/163 224/438/163
f 222/436/164 139/294/164 138/292/164
f 221/435/165 225/439/165 222/436/165
f 220/434/166 224/438/166 221/435/166
f 219/433/167 138/292/167 137/290/167
f 218/432/168 222/436/168 219/433/168
f 218/432/169 220/434/169 221/435/169
f 216/430/170 137/290/170 136/288/170
f 215/429/171 219/433/171 216/430/171
f 214/428/172 218/432/172 215/429/172
f 213/427/173 136/288/173 135/286/173
f 212/426/174 216/430/174 213/427/174
f 211/425/175 215/429/175 212/426/175
f 210/424/176 135/286/176 134/284/176
f 209/423/177 213/427/177 210/424/177
f 208/422/178 212/426/178 209/423/178
f 207/420/179 134/284/179 133/281/179
f 206/419/180 210/424/180 207/420/180
f 205/418/181 209/423/181 206/419/181
f 204/414/182 133/282/182 132/279/182
f 204/415/183 206/419/183 207/420/183
f 203/412/184 205/418/184 206/419/184
f 201/409/185 132/280/185 131/278/185
f 201/409/186 203/413/186 204/416/186
f 199/407/187 203/413/187 200/408/187
f 198/406/188 131/278/188 130/276/188
f 197/405/189 201/409/189 198/406/189
f 197/405/190 199/407/190 200/408/190
f 193/401/191 130/276/191 129/274/191
f 193/401/192 197/405/192 198/406/192
f 194/402/193 196/404/193 197/405/193
f 296/549/194 266/500/194 294/545/194
f 263/492/194 296/549/194 294/545/194
f 310/580/195 309/578/195 311/581/195
f 319/600/196 300/559/196 301/562/196
f 316/594/197 299/556/197 317/596/197
f 297/551/198 293/544/198 290/535/198
f 302/563/199 298/553/199 299/555/199
f 301/561/199 298/553/199 303/565/199
f 305/568/124 331/620/124 330/619/124
f 317/595/200 298/554/200 321/604/200
f 329/617/201 305/567/201 330/618/201
f 318/597/200 298/554/200 300/558/200
f 304/566/202 308/574/202 309/577/202
f 307/572/202 304/566/202 309/577/202
f 315/589/203 308/575/203 305/567/203
f 313/585/204 307/573/204 310/579/204
f 311/581/195 308/576/195 314/587/195
f 328/615/205 315/590/205 329/616/205
f 324/609/206 312/583/206 326/612/206
f 322/605/207 314/587/207 327/614/207
f 323/607/208 310/579/208 325/610/208
f 324/608/209 314/588/209 315/589/209
f 322/605/207 310/580/207 311/581/207
f 323/606/206 312/583/206 313/584/206
f 338/632/210 321/604/210 318/597/210
f 339/634/211 319/599/211 320/602/211
f 334/626/210 321/604/210 336/629/210
f 337/631/211 320/602/211 316/592/211
f 337/630/212 317/596/212 334/625/212
f 335/627/213 318/598/213 319/600/213
f 333/624/214 301/562/214 332/621/214
f 328/615/205 313/586/205 312/582/205
f 263/493/215 326/612/215 323/606/215
f 290/536/216 322/605/216 297/552/216
f 292/543/217 324/608/217 266/499/217
f 290/537/218 323/607/218 325/610/218
f 297/552/216 327/614/216 292/541/216
f 294/546/215 324/609/215 326/612/215
f 319/601/219 328/615/219 320/603/219
f 333/624/220 306/570/220 313/585/220
f 320/603/219 329/616/219 316/593/219
f 329/617/221 302/564/221 316/594/221
f 330/619/222 303/565/222 302/563/222
f 303/565/222 332/622/222 301/561/222
f 262/490/223 335/627/223 289/532/223
f 265/497/224 337/630/224 334/625/224
f 296/550/225 337/631/225 291/538/225
f 295/548/226 334/626/226 336/629/226
f 296/550/225 335/628/225 339/634/225
f 262/491/226 336/629/226 338/632/226
f 66/139/1 65/137/1 196/404/1
f 65/137/2 67/141/2 199/407/2
f 67/141/3 68/143/3 202/411/3
f 68/143/4 69/145/4 205/417/4
f 69/146/5 70/148/5 208/422/5
f 70/148/6 71/150/6 211/425/6
f 71/150/7 72/152/7 214/428/7
f 72/152/8 73/154/8 217/431/8
f 73/154/9 74/156/9 220/434/9
f 74/156/10 75/158/10 223/437/10
f 75/158/11 76/160/11 226/441/11
f 76/161/12 77/163/12 229/445/12
f 77/163/13 78/165/13 232/452/13
f 232/452/14 78/165/14 79/167/14
f 235/455/15 79/167/15 80/169/15
f 80/169/16 81/171/16 241/461/16
f 241/461/17 81/171/17 82/173/17
f 244/464/18 82/173/18 83/175/18
f 247/467/19 83/175/19 84/177/19
f 84/178/20 85/180/20 253/478/20
f 253/478/21 85/180/21 86/182/21
f 256/482/22 86/182/22 87/184/22
f 87/184/23 88/186/23 262/489/23
f 295/547/24 262/489/24 88/186/24
f 88/186/24 89/188/24 265/496/24
f 265/496/25 89/188/25 90/190/25
f 90/190/26 91/192/26 271/506/26
f 271/506/27 91/192/27 92/194/27
f 92/194/28 93/196/28 277/517/28
f 93/197/29 94/199/29 280/522/29
f 94/199/30 95/201/30 283/526/30
f 54/114/31 52/109/31 122/259/31
f 95/201/32 96/203/32 286/529/32
f 96/203/33 66/139/33 195/403/33
f 63/133/34 1/1/34 3/5/34
f 3/5/34 5/9/34 7/14/34
f 7/14/34 9/19/34 11/23/34
f 11/23/34 13/27/34 15/31/34
f 15/31/34 17/35/34 19/39/34
f 19/39/34 21/43/34 23/47/34
f 23/47/34 25/52/34 27/57/34
f 27/57/34 29/61/34 31/65/34
f 31/65/34 33/69/34 35/73/34
f 35/73/34 37/77/34 39/82/34
f 39/82/34 41/86/34 43/91/34
f 43/91/34 45/95/34 47/99/34
f 47/99/34 49/103/34 51/107/34
f 51/107/34 53/111/34 55/115/34
f 55/115/34 57/121/34 59/125/34
f 59/125/34 61/129/34 63/133/34
f 63/133/34 3/5/34 7/14/34
f 7/14/34 11/23/34 15/31/34
f 15/31/34 19/39/34 23/47/34
f 23/47/34 27/57/34 31/65/34
f 31/65/34 35/73/34 39/82/34
f 39/82/34 43/91/34 47/99/34
f 47/99/34 51/107/34 55/115/34
f 55/115/34 59/125/34 63/133/34
f 63/133/34 7/14/34 15/31/34
f 15/31/34 23/47/34 31/65/34
f 31/65/34 39/82/34 47/99/34
f 47/99/34 55/115/34 63/133/34
f 63/133/34 15/31/34 31/65/34
f 2/3/35 4/7/35 65/138/35
f 6/11/35 67/142/35 65/138/35
f 6/11/35 8/16/35 68/144/35
f 8/16/35 10/21/35 69/147/35
f 12/25/35 70/149/35 69/147/35
f 12/25/35 14/29/35 71/151/35
f 14/29/35 16/33/35 72/153/35
f 18/37/35 73/155/35 72/153/35
f 18/37/35 20/41/35 74/157/35
f 22/45/35 75/159/35 74/157/35
f 24/50/35 76/162/35 75/159/35
f 26/55/35 77/164/35 76/162/35
f 26/55/35 28/59/35 78/166/35
f 30/63/35 79/168/35 78/166/35
f 30/63/35 32/67/35 80/170/35
f 34/71/35 81/172/35 80/170/35
f 34/71/35 36/75/35 82/174/35
f 38/79/35 83/176/35 82/174/35
f 40/84/35 84/179/35 83/176/35
f 42/89/35 85/181/35 84/179/35
f 44/93/35 86/183/35 85/181/35
f 44/93/35 46/97/35 87/185/35
f 48/101/35 88/187/35 87/185/35
f 50/105/35 89/189/35 88/187/35
f 52/110/35 90/191/35 89/189/35
f 52/110/35 54/113/35 91/193/35
f 56/118/35 92/195/35 91/193/35
f 56/118/35 58/123/35 93/198/35
f 60/127/35 94/200/35 93/198/35
f 62/131/35 95/202/35 94/200/35
f 64/135/35 96/204/35 95/202/35
f 2/3/35 66/140/35 96/204/35
f 99/209/35 97/205/35 98/207/35
f 98/207/35 128/271/35 127/269/35
f 127/269/35 126/267/35 125/265/35
f 125/265/35 124/262/35 123/260/35
f 123/260/35 122/258/35 121/256/35
f 121/256/35 120/254/35 119/252/35
f 119/252/35 118/250/35 117/247/35
f 117/247/35 116/245/35 115/243/35
f 115/243/35 114/241/35 113/239/35
f 113/239/35 112/237/35 111/235/35
f 111/235/35 110/233/35 109/230/35
f 109/230/35 108/228/35 107/226/35
f 107/226/35 106/224/35 105/222/35
f 105/222/35 104/220/35 103/218/35
f 103/218/35 102/216/35 101/214/35
f 101/214/35 100/212/35 99/209/35
f 99/209/35 98/207/35 127/269/35
f 127/269/35 125/265/35 123/260/35
f 123/260/35 121/256/35 119/252/35
f 119/252/35 117/247/35 115/243/35
f 115/243/35 113/239/35 111/235/35
f 111/235/35 109/230/35 107/226/35
f 107/226/35 105/222/35 103/218/35
f 103/218/35 101/214/35 99/209/35
f 99/209/35 127/269/35 123/260/35
f 123/260/35 119/252/35 115/243/35
f 115/243/35 111/235/35 107/226/35
f 107/226/35 103/218/35 99/209/35
f 99/209/35 123/260/35 115/243/35
f 26/56/36 109/231/36 110/234/36
f 54/114/37 123/261/37 124/263/37
f 30/64/38 28/60/38 110/234/38
f 2/4/39 98/208/39 97/206/39
f 58/124/40 56/119/40 124/264/40
f 30/64/41 111/236/41 112/238/41
f 4/8/42 97/206/42 99/210/42
f 58/124/43 125/266/43 126/268/43
f 34/72/44 32/68/44 112/238/44
f 8/17/45 6/12/45 99/210/45
f 60/128/46 126/268/46 127/270/46
f 34/72/47 113/240/47 114/242/47
f 8/18/48 100/213/48 101/215/48
f 64/136/49 62/132/49 127/270/49
f 36/76/50 114/242/50 115/244/50
f 10/22/51 101/215/51 102/217/51
f 64/136/52 128/272/52 98/208/52
f 38/80/53 115/244/53 116/246/53
f 12/26/54 102/217/54 103/219/54
f 40/85/55 116/246/55 117/248/55
f 16/34/56 14/30/56 103/219/56
f 42/90/57 117/249/57 118/251/57
f 16/34/58 104/221/58 105/223/58
f 44/94/59 118/251/59 119/253/59
f 18/38/60 105/223/60 106/225/60
f 46/98/61 119/253/61 120/255/61
f 20/42/62 106/225/62 107/227/62
f 50/106/63 48/102/63 120/255/63
f 22/46/64 107/227/64 108/229/64
f 50/106/65 121/257/65 122/259/65
f 24/51/66 108/229/66 109/232/66
f 161/333/34 129/273/34 130/275/34
f 162/335/34 130/275/34 131/277/34
f 163/337/34 131/277/34 132/279/34
f 164/339/34 132/279/34 133/282/34
f 165/342/34 133/282/34 134/283/34
f 166/344/34 134/283/34 135/285/34
f 167/346/34 135/285/34 136/287/34
f 169/350/34 168/348/34 136/287/34
f 169/350/34 137/289/34 138/291/34
f 170/352/34 138/291/34 139/293/34
f 171/354/34 139/293/34 140/295/34
f 172/357/34 140/295/34 141/298/34
f 174/361/34 173/359/34 141/298/34
f 174/361/34 142/299/34 143/301/34
f 175/363/34 143/301/34 144/303/34
f 177/367/34 176/365/34 144/303/34
f 177/367/34 145/305/34 146/307/34
f 178/369/34 146/307/34 147/310/34
f 180/373/34 179/371/34 147/310/34
f 180/373/34 148/311/34 149/312/34
f 181/376/34 149/312/34 150/313/34
f 182/378/34 150/313/34 151/315/34
f 183/380/34 151/315/34 152/317/34
f 184/382/34 152/317/34 153/319/34
f 185/384/34 153/319/34 154/321/34
f 186/386/34 154/321/34 155/324/34
f 187/388/34 155/324/34 156/325/34
f 188/390/34 156/325/34 157/326/34
f 190/395/34 189/392/34 157/326/34
f 190/395/34 158/327/34 159/329/34
f 191/397/34 159/329/34 160/332/34
f 192/399/34 160/332/34 129/273/34
f 3/6/67 1/2/67 161/334/67
f 5/10/68 3/6/68 162/336/68
f 5/10/69 163/338/69 164/340/69
f 7/15/70 164/341/70 165/343/70
f 9/20/71 165/343/71 166/345/71
f 13/28/72 11/24/72 166/345/72
f 13/28/73 167/347/73 168/349/73
f 15/32/74 168/349/74 169/351/74
f 17/36/75 169/351/75 170/353/75
f 19/40/76 170/353/76 171/355/76
f 23/48/77 21/44/77 171/355/77
f 23/49/78 172/358/78 173/360/78
f 27/58/79 25/53/79 173/360/79
f 27/58/80 174/362/80 175/364/80
f 29/62/81 175/364/81 176/366/81
f 31/66/82 176/366/82 177/368/82
f 33/70/83 177/368/83 178/370/83
f 35/74/84 178/370/84 179/372/84
f 37/78/85 179/372/85 180/374/85
f 39/83/86 180/375/86 181/377/86
f 41/87/87 181/377/87 182/379/87
f 43/92/88 182/379/88 183/381/88
f 47/100/89 45/96/89 183/381/89
f 47/100/90 184/383/90 185/385/90
f 49/104/91 185/385/91 186/387/91
f 51/108/92 186/387/92 187/389/92
f 55/116/93 53/112/93 187/389/93
f 55/116/94 188/391/94 189/393/94
f 57/122/95 189/394/95 190/396/95
f 59/126/96 190/396/96 191/398/96
f 61/130/97 191/398/97 192/400/97
f 63/134/98 192/400/98 161/334/98
f 288/531/99 193/401/99 129/274/99
f 288/531/100 287/530/100 194/402/100
f 286/529/101 195/403/101 194/402/101
f 159/330/102 285/528/102 288/531/102
f 285/528/103 284/527/103 287/530/103
f 283/526/104 286/529/104 287/530/104
f 158/328/105 282/524/105 285/528/105
f 282/524/106 281/523/106 284/527/106
f 280/522/107 283/526/107 284/527/107
f 157/326/108 279/521/108 282/525/108
f 279/520/109 278/519/109 281/523/109
f 277/518/110 280/522/110 281/523/110
f 156/325/111 276/516/111 279/521/111
f 276/515/112 275/512/112 278/519/112
f 274/510/113 277/518/113 278/519/113
f 155/324/114 273/508/114 276/516/114
f 273/509/115 272/507/115 275/513/115
f 271/506/116 274/511/116 275/513/116
f 154/322/117 270/505/117 273/509/117
f 270/505/118 269/504/118 272/507/118
f 268/503/119 271/506/119 272/507/119
f 153/320/120 267/502/120 270/505/120
f 270/505/121 267/502/121 292/542/121
f 292/542/121 266/500/121 269/504/121
f 269/504/122 266/500/122 291/539/122
f 291/539/122 265/496/122 268/503/122
f 153/320/123 152/318/123 264/495/123
f 264/495/35 293/544/35 267/502/35
f 331/620/124 304/566/124 306/569/124
f 151/316/125 261/488/125 264/495/125
f 264/495/126 261/488/126 260/487/126
f 260/487/126 263/492/126 290/535/126
f 263/492/127 260/487/127 259/486/127
f 259/486/127 262/489/127 289/533/127
f 150/314/128 258/485/128 261/488/128
f 258/485/129 257/483/129 260/487/129
f 256/482/227 259/486/227 260/487/227
f 149/312/131 255/480/131 258/484/131
f 254/479/132 257/483/132 258/485/132
f 253/478/133 256/482/133 257/483/133
f 148/311/134 252/476/134 255/480/134
f 251/473/135 254/479/135 255/481/135
f 250/471/136 253/478/136 254/479/136
f 147/310/137 249/469/137 252/476/137
f 248/468/138 251/474/138 252/477/138
f 247/467/139 250/472/139 251/474/139
f 146/308/140 246/466/140 249/470/140
f 245/465/141 248/468/141 249/470/141
f 244/464/142 247/467/142 248/468/142
f 145/306/143 243/463/143 246/466/143
f 242/462/144 245/465/144 246/466/144
f 241/461/145 244/464/145 245/465/145
f 144/304/146 240/460/146 243/463/146
f 239/459/147 242/462/147 243/463/147
f 238/458/148 241/461/148 242/462/148
f 237/457/149 240/460/149 144/304/149
f 236/456/150 239/459/150 240/460/150
f 235/455/151 238/458/151 239/459/151
f 234/454/152 237/457/152 143/302/152
f 233/453/153 236/456/153 237/457/153
f 232/452/154 235/455/154 236/456/154
f 231/449/155 234/454/155 142/300/155
f 230/447/156 233/453/156 234/454/156
f 229/445/157 232/452/157 233/453/157
f 228/443/158 231/450/158 141/298/158
f 227/442/159 230/448/159 231/451/159
f 226/441/160 229/446/160 230/448/160
f 225/439/161 228/444/161 140/296/161
f 224/438/162 227/442/162 228/444/162
f 223/437/163 226/441/163 227/442/163
f 222/436/164 225/439/164 139/294/164
f 221/435/165 224/438/165 225/439/165
f 220/434/166 223/437/166 224/438/166
f 219/433/167 222/436/167 138/292/167
f 218/432/168 221/435/168 222/436/168
f 218/432/169 217/431/169 220/434/169
f 216/430/170 219/433/170 137/290/170
f 215/429/171 218/432/171 219/433/171
f 214/428/172 217/431/172 218/432/172
f 213/427/173 216/430/173 136/288/173
f 212/426/174 215/429/174 216/430/174
f 211/425/175 214/428/175 215/429/175
f 210/424/176 213/427/176 135/286/176
f 209/423/177 212/426/177 213/427/177
f 208/422/228 211/425/228 212/426/228
f 207/420/179 210/424/179 134/284/179
f 206/419/180 209/423/180 210/424/180
f 205/418/181 208/422/181 209/423/181
f 204/414/182 207/421/182 133/282/182
f 204/415/183 203/412/183 206/419/183
f 203/412/184 202/410/184 205/418/184
f 201/409/185 204/416/185 132/280/185
f 201/409/186 200/408/186 203/413/186
f 199/407/187 202/411/187 203/413/187
f 198/406/188 201/409/188 131/278/188
f 197/405/189 200/408/189 201/409/189
f 197/405/190 196/404/190 199/407/190
f 193/401/191 198/406/191 130/276/191
f 193/401/192 194/402/192 197/405/192
f 194/402/193 195/403/193 196/404/193
f 296/549/194 291/539/194 266/500/194
f 263/492/194 289/533/194 296/549/194
f 310/580/195 307/571/195 309/578/195
f 319/600/229 318/598/229 300/559/229
f 316/594/230 302/564/230 299/556/230
f 297/551/198 292/542/198 267/502/198
f 293/544/198 264/495/198 290/535/198
f 297/551/198 267/502/198 293/544/198
f 302/563/199 303/565/199 298/553/199
f 301/561/199 300/560/199 298/553/199
f 305/568/124 304/566/124 331/620/124
f 317/595/200 299/557/200 298/554/200
f 329/617/231 315/589/231 305/567/231
f 318/597/200 321/604/200 298/554/200
f 304/566/202 305/568/202 308/574/202
f 307/572/202 306/569/202 304/566/202
f 315/589/232 314/588/232 308/575/232
f 313/585/233 306/570/233 307/573/233
f 311/581/195 309/578/195 308/576/195
f 328/615/205 312/582/205 315/590/205
f 324/609/206 315/591/206 312/583/206
f 322/605/207 311/581/207 314/587/207
f 323/607/208 313/585/208 310/579/208
f 324/608/209 327/613/209 314/588/209
f 322/605/207 325/611/207 310/580/207
f 323/606/206 326/612/206 312/583/206
f 338/632/210 336/629/210 321/604/210
f 339/634/211 335/628/211 319/599/211
f 334/626/210 317/595/210 321/604/210
f 337/631/211 339/634/211 320/602/211
f 337/630/234 316/594/234 317/596/234
f 335/627/235 338/633/235 318/598/235
f 333/624/236 319/600/236 301/562/236
f 328/615/205 333/623/205 313/586/205
f 263/493/215 294/546/215 326/612/215
f 290/536/216 325/611/216 322/605/216
f 292/543/217 327/613/217 324/608/217
f 290/537/218 263/494/218 323/607/218
f 297/552/216 322/605/216 327/614/216
f 294/546/215 266/501/215 324/609/215
f 319/601/219 333/623/219 328/615/219
f 333/624/214 332/621/214 306/570/214
f 320/603/219 328/615/219 329/616/219
f 329/617/201 330/618/201 302/564/201
f 330/619/222 331/620/222 303/565/222
f 303/565/222 331/620/222 332/622/222
f 262/490/237 338/633/237 335/627/237
f 265/497/238 291/540/238 337/630/238
f 296/550/225 339/634/225 337/631/225
f 295/548/226 265/498/226 334/626/226
f 296/550/225 289/534/225 335/628/225
f 262/491/226 295/548/226 336/629/226
