# Blender 3.3.1
# www.blender.org
o Cylinder.001
v 0.000000 0.005022 -1.000000
v 0.000000 0.108504 -0.936830
v 0.195090 0.005022 -0.980785
v 0.182766 0.108504 -0.918829
v 0.382683 0.005022 -0.923880
v 0.358509 0.108504 -0.865518
v 0.555570 0.005022 -0.831470
v 0.520475 0.108504 -0.778946
v 0.707107 0.005022 -0.707107
v 0.662439 0.108504 -0.662439
v 0.831470 0.005022 -0.555570
v 0.778946 0.108504 -0.520475
v 0.923880 0.005022 -0.382683
v 0.865518 0.108504 -0.358509
v 0.980785 0.005022 -0.195090
v 0.918829 0.108504 -0.182766
v 1.000000 0.005022 0.000000
v 0.936830 0.108504 0.000000
v 0.980785 0.005022 0.195090
v 0.918829 0.108504 0.182766
v 0.923880 0.005022 0.382683
v 0.865518 0.108504 0.358509
v 0.831470 0.005022 0.555570
v 0.778946 0.108504 0.520475
v 0.707107 0.005022 0.707107
v 0.660848 0.107008 0.663100
v 0.555570 0.005022 0.831470
v 0.521154 0.108242 0.778195
v 0.382683 0.005022 0.923880
v 0.358509 0.108504 0.865518
v 0.195090 0.005022 0.980785
v 0.182766 0.108504 0.918829
v 0.000000 0.005022 1.000000
v 0.000000 0.108504 0.936830
v -0.195090 0.005022 0.980785
v -0.182766 0.108504 0.918829
v -0.382683 0.005022 0.923880
v -0.358509 0.108504 0.865518
v -0.555570 0.005022 0.831470
v -0.520475 0.108504 0.778946
v -0.707107 0.005022 0.707107
v -0.662439 0.108504 0.662439
v -0.831470 0.005022 0.555570
v -0.778946 0.108504 0.520475
v -0.923880 0.005022 0.382683
v -0.865518 0.108504 0.358509
v -0.980785 0.005022 0.195090
v -0.918829 0.108504 0.182766
v -1.000000 0.005022 0.000000
v -0.936830 0.108504 0.000000
v -0.980785 0.005022 -0.195090
v -0.918829 0.108504 -0.182766
v -0.923880 0.005022 -0.382683
v -0.865518 0.108504 -0.358509
v -0.831470 0.005022 -0.555570
v -0.778946 0.108504 -0.520475
v -0.707107 0.005022 -0.707107
v -0.662439 0.108504 -0.662439
v -0.555570 0.005022 -0.831470
v -0.520475 0.108504 -0.778946
v -0.382683 0.005022 -0.923880
v -0.358509 0.108504 -0.865518
v -0.195090 0.005022 -0.980785
v -0.182766 0.108504 -0.918829
v 0.195090 0.108504 -0.980785
v 0.000000 0.108504 -1.000000
v 0.382683 0.108504 -0.923880
v 0.555570 0.108504 -0.831470
v 0.707107 0.108504 -0.707107
v 0.831470 0.108504 -0.555570
v 0.923880 0.108504 -0.382683
v 0.980785 0.108504 -0.195090
v 1.000000 0.108504 0.000000
v 0.980785 0.108504 0.195090
v 0.923880 0.108504 0.382683
v 0.831470 0.108504 0.555570
v 0.704438 0.106974 0.706848
v 0.556132 0.108264 0.830546
v 0.382683 0.108504 0.923880
v 0.195090 0.108504 0.980785
v 0.000000 0.108504 1.000000
v -0.195090 0.108504 0.980785
v -0.382683 0.108504 0.923880
v -0.555570 0.108504 0.831470
v -0.707107 0.108504 0.707107
v -0.831470 0.108504 0.555570
v -0.923880 0.108504 0.382683
v -0.980785 0.108504 0.195090
v -1.000000 0.108504 0.000000
v -0.980785 0.108504 -0.195090
v -0.923880 0.108504 -0.382683
v -0.831470 0.108504 -0.555570
v -0.707107 0.108504 -0.707107
v -0.555570 0.108504 -0.831470
v -0.382683 0.108504 -0.923880
v -0.195090 0.108504 -0.980785
v 0.182766 0.157895 -0.918829
v 0.000000 0.157895 -0.936830
v 0.358509 0.157895 -0.865518
v 0.520475 0.157895 -0.778946
v 0.662439 0.157895 -0.662439
v 0.778946 0.157895 -0.520475
v 0.865518 0.157895 -0.358509
v 0.918829 0.157895 -0.182766
v 0.936830 0.157895 0.000000
v 0.918829 0.157895 0.182766
v 0.865518 0.157895 0.358509
v 0.778946 0.157895 0.520475
v 0.662439 0.157895 0.662439
v 0.520475 0.157895 0.778946
v 0.358509 0.157895 0.865518
v 0.182766 0.157895 0.918829
v 0.000000 0.157895 0.936830
v -0.182766 0.157895 0.918829
v -0.358509 0.157895 0.865518
v -0.520475 0.157895 0.778946
v -0.662439 0.157895 0.662439
v -0.778946 0.157895 0.520475
v -0.865518 0.157895 0.358509
v -0.918829 0.157895 0.182766
v -0.936830 0.157895 0.000000
v -0.918829 0.157895 -0.182766
v -0.865518 0.157895 -0.358509
v -0.778946 0.157895 -0.520475
v -0.662439 0.157895 -0.662439
v -0.520475 0.157895 -0.778946
v -0.358509 0.157895 -0.865518
v -0.182766 0.157895 -0.918829
v 0.195976 0.157895 -0.985239
v -0.000000 0.157895 -1.004541
v 0.384421 0.157895 -0.928075
v 0.558093 0.157895 -0.835245
v 0.710318 0.157895 -0.710318
v 0.835245 0.157895 -0.558093
v 0.928075 0.157895 -0.384421
v 0.985239 0.157895 -0.195976
v 1.004541 0.157895 -0.000000
v 0.985239 0.157895 0.195976
v 0.928075 0.157895 0.384421
v 0.835245 0.157895 0.558093
v 0.710318 0.157895 0.710318
v 0.558093 0.157895 0.835245
v 0.384421 0.157895 0.928075
v 0.195976 0.157895 0.985239
v -0.000000 0.157895 1.004541
v -0.195976 0.157895 0.985239
v -0.384421 0.157895 0.928075
v -0.558093 0.157895 0.835245
v -0.710318 0.157895 0.710318
v -0.835245 0.157895 0.558093
v -0.928075 0.157895 0.384421
v -0.985239 0.157895 0.195976
v -1.004541 0.157895 -0.000000
v -0.985239 0.157895 -0.195976
v -0.928075 0.157895 -0.384421
v -0.835245 0.157895 -0.558093
v -0.710318 0.157895 -0.710318
v -0.558093 0.157895 -0.835245
v -0.384421 0.157895 -0.928075
v -0.195976 0.157895 -0.985239
v 0.195976 0.221005 -0.985239
v -0.000000 0.221005 -1.004541
v 0.384421 0.221005 -0.928075
v 0.558093 0.221005 -0.835245
v 0.710318 0.221005 -0.710318
v 0.835245 0.221005 -0.558093
v 0.928075 0.221005 -0.384421
v 0.985239 0.221005 -0.195976
v 1.004541 0.221005 -0.000000
v 0.985239 0.221005 0.195976
v 0.928075 0.221005 0.384421
v 0.835245 0.221005 0.558093
v 0.705844 0.219859 0.710527
v 0.558796 0.220634 0.832993
v 0.384421 0.221005 0.928075
v 0.195976 0.221005 0.985239
v -0.000000 0.221005 1.004541
v -0.195976 0.221005 0.985239
v -0.384421 0.221005 0.928075
v -0.558093 0.221005 0.835245
v -0.710318 0.221005 0.710318
v -0.835245 0.221005 0.558093
v -0.928075 0.221005 0.384421
v -0.985239 0.221005 0.195976
v -1.004255 0.220953 -0.000374
v -0.977279 0.217528 -0.196801
v -0.927610 0.220049 -0.380481
v -0.835245 0.221005 -0.558093
v -0.710318 0.221005 -0.710318
v -0.558093 0.221005 -0.835245
v -0.384421 0.221005 -0.928075
v -0.195976 0.221005 -0.985239
vn 0.0980 -0.0000 -0.9952
vn 0.2903 -0.0000 -0.9569
vn 0.4714 -0.0000 -0.8819
vn 0.6344 -0.0000 -0.7730
vn 0.7730 -0.0000 -0.6344
vn 0.8819 -0.0000 -0.4714
vn 0.9569 -0.0000 -0.2903
vn 0.9952 -0.0000 -0.0980
vn 0.9952 -0.0000 0.0980
vn 0.9569 -0.0000 0.2903
vn 0.8819 -0.0000 0.4714
vn 0.7728 0.0218 0.6342
vn 0.6343 0.0186 0.7729
vn 0.4714 0.0053 0.8819
vn 0.2903 -0.0000 0.9569
vn 0.0980 -0.0000 0.9952
vn -0.0980 -0.0000 0.9952
vn -0.2903 -0.0000 0.9569
vn -0.4714 -0.0000 0.8819
vn -0.6344 -0.0000 0.7730
vn -0.7730 -0.0000 0.6344
vn -0.8819 -0.0000 0.4714
vn -0.9569 -0.0000 0.2903
vn -0.9952 -0.0000 0.0980
vn -0.9952 -0.0000 -0.0980
vn -0.9569 -0.0000 -0.2903
vn -0.8819 -0.0000 -0.4714
vn -0.7730 -0.0000 -0.6344
vn -0.6344 -0.0000 -0.7730
vn -0.4714 -0.0000 -0.8819
vn -0.2903 -0.0000 -0.9569
vn -0.0980 -0.0000 -0.9952
vn -0.0000 -1.0000 -0.0000
vn -0.0000 1.0000 -0.0000
vn -0.0043 1.0000 0.0065
vn 0.0052 1.0000 -0.0044
vn 0.0010 1.0000 -0.0011
vn 0.7702 -0.0158 0.6376
vn 0.6344 -0.0030 0.7730
vn 0.4714 -0.0000 0.8819
vn -0.9952 0.0051 0.0980
vn -0.9867 0.1304 -0.0972
vn 0.7719 0.0536 0.6335
vn -0.9651 0.0238 -0.2607
vn 0.6399 0.0204 0.7682
vn -0.8872 -0.0000 -0.4614
vn 0.4787 -0.0000 0.8780
vn 0.7658 -0.0000 0.6431
vn 0.6405 0.0034 0.7679
vn 0.4739 -0.0000 0.8806
vn -0.0053 1.0000 0.0061
vn 0.0054 1.0000 -0.0040
vn 0.0011 1.0000 -0.0005
vn 0.7730 -0.0000 0.6344
vn 0.6358 -0.0098 0.7718
vn 0.4730 -0.0069 0.8810
vn 0.0179 0.9997 0.0147
vn -0.2277 0.9725 -0.0482
vn 0.0013 1.0000 -0.0004
vn -0.0038 0.9999 -0.0110
vn -0.0239 0.9996 -0.0128
vn 0.0035 1.0000 0.0052
vn 0.0056 1.0000 -0.0012
vn 0.0110 0.9999 0.0110
vn -0.0000 1.0000 0.0017
vn 0.0012 1.0000 -0.0012
vn -0.0009 1.0000 -0.0004
vn -0.9953 -0.0000 0.0964
vn -0.9907 0.0037 -0.1361
vn 0.7624 -0.0000 0.6472
vn -0.9497 0.1228 -0.2881
vn 0.6338 0.0432 0.7723
vn -0.8813 0.0365 -0.4711
vn 0.4712 0.0264 0.8816
vt 1.000000 0.500000
vt 0.000000 0.500000
vt 0.750000 0.490000
vt 0.250000 0.474839
vt 0.968750 0.500000
vt 0.796822 0.485388
vt 0.293864 0.470519
vt 0.937500 0.500000
vt 0.841844 0.471731
vt 0.336042 0.457724
vt 0.906250 0.500000
vt 0.883337 0.449553
vt 0.374914 0.436947
vt 0.875000 0.500000
vt 0.919706 0.419706
vt 0.408985 0.408985
vt 0.843750 0.500000
vt 0.949553 0.383337
vt 0.436947 0.374914
vt 0.812500 0.500000
vt 0.971731 0.341844
vt 0.457724 0.336042
vt 0.781250 0.500000
vt 0.985388 0.296822
vt 0.470519 0.293864
vt 0.750000 0.500000
vt 0.990000 0.250000
vt 0.474839 0.250000
vt 0.718750 0.500000
vt 0.985388 0.203178
vt 0.470519 0.206136
vt 0.687500 0.500000
vt 0.971731 0.158156
vt 0.457724 0.163958
vt 0.656250 0.500000
vt 0.949553 0.116663
vt 0.436947 0.125086
vt 0.625000 0.500000
vt 0.919706 0.080294
vt 0.408985 0.091015
vt 0.593750 0.500000
vt 0.883337 0.050447
vt 0.374914 0.063053
vt 0.562500 0.500000
vt 0.841844 0.028269
vt 0.336042 0.042276
vt 0.531250 0.500000
vt 0.796822 0.014612
vt 0.293864 0.029481
vt 0.500000 0.500000
vt 0.750000 0.010000
vt 0.250000 0.025161
vt 0.468750 0.500000
vt 0.703178 0.014612
vt 0.206136 0.029481
vt 0.437500 0.500000
vt 0.658156 0.028269
vt 0.163958 0.042276
vt 0.406250 0.500000
vt 0.616663 0.050447
vt 0.125086 0.063053
vt 0.375000 0.500000
vt 0.580294 0.080294
vt 0.091015 0.091015
vt 0.343750 0.500000
vt 0.550447 0.116663
vt 0.063053 0.125086
vt 0.312500 0.500000
vt 0.528269 0.158156
vt 0.042276 0.163958
vt 0.281250 0.500000
vt 0.514612 0.203178
vt 0.029481 0.206136
vt 0.250000 0.500000
vt 0.510000 0.250000
vt 0.025161 0.250000
vt 0.218750 0.500000
vt 0.514612 0.296822
vt 0.029481 0.293864
vt 0.187500 0.500000
vt 0.528269 0.341844
vt 0.042276 0.336042
vt 0.156250 0.500000
vt 0.550447 0.383337
vt 0.063053 0.374914
vt 0.125000 0.500000
vt 0.580294 0.419706
vt 0.091015 0.408985
vt 0.093750 0.500000
vt 0.616663 0.449553
vt 0.125086 0.436947
vt 0.062500 0.500000
vt 0.658156 0.471731
vt 0.163958 0.457724
vt 0.031250 0.500000
vt 0.703178 0.485388
vt 0.206136 0.470519
vt 0.968750 1.000000
vt 0.296822 0.485388
vt 1.000000 1.000000
vt 0.000000 1.000000
vt 0.250000 0.490000
vt 0.937500 1.000000
vt 0.341844 0.471731
vt 0.906250 1.000000
vt 0.383337 0.449553
vt 0.875000 1.000000
vt 0.419706 0.419706
vt 0.843750 1.000000
vt 0.449553 0.383337
vt 0.812500 1.000000
vt 0.471731 0.341844
vt 0.781250 1.000000
vt 0.485388 0.296822
vt 0.750000 1.000000
vt 0.490000 0.250000
vt 0.718750 1.000000
vt 0.485388 0.203178
vt 0.687500 1.000000
vt 0.471731 0.158156
vt 0.656250 1.000000
vt 0.449553 0.116663
vt 0.625000 1.000000
vt 0.419706 0.080294
vt 0.593750 1.000000
vt 0.383337 0.050447
vt 0.562500 1.000000
vt 0.341844 0.028269
vt 0.531250 1.000000
vt 0.296822 0.014612
vt 0.500000 1.000000
vt 0.250000 0.010000
vt 0.468750 1.000000
vt 0.203178 0.014612
vt 0.437500 1.000000
vt 0.158156 0.028269
vt 0.406250 1.000000
vt 0.116663 0.050447
vt 0.375000 1.000000
vt 0.080294 0.080294
vt 0.343750 1.000000
vt 0.050447 0.116663
vt 0.312500 1.000000
vt 0.028269 0.158156
vt 0.281250 1.000000
vt 0.014612 0.203178
vt 0.250000 1.000000
vt 0.010000 0.250000
vt 0.218750 1.000000
vt 0.014612 0.296822
vt 0.187500 1.000000
vt 0.028269 0.341844
vt 0.156250 1.000000
vt 0.050447 0.383337
vt 0.125000 1.000000
vt 0.080294 0.419706
vt 0.093750 1.000000
vt 0.116663 0.449553
vt 0.062500 1.000000
vt 0.158156 0.471731
vt 0.031250 1.000000
vt 0.203178 0.485388
vt 0.293864 0.470519
vt 0.250000 0.474839
vt 0.336042 0.457724
vt 0.374914 0.436947
vt 0.408985 0.408985
vt 0.436947 0.374914
vt 0.457724 0.336042
vt 0.470519 0.293864
vt 0.474839 0.250000
vt 0.470519 0.206136
vt 0.457724 0.163958
vt 0.436947 0.125086
vt 0.408985 0.091015
vt 0.374914 0.063053
vt 0.336042 0.042276
vt 0.293864 0.029481
vt 0.250000 0.025161
vt 0.206136 0.029481
vt 0.163958 0.042276
vt 0.125086 0.063053
vt 0.091015 0.091015
vt 0.063053 0.125086
vt 0.042276 0.163958
vt 0.029481 0.206136
vt 0.025161 0.250000
vt 0.029481 0.293864
vt 0.042276 0.336042
vt 0.063053 0.374914
vt 0.091015 0.408985
vt 0.125086 0.436947
vt 0.163958 0.457724
vt 0.206136 0.470519
vt 0.293864 0.470519
vt 0.250000 0.474839
vt 0.336042 0.457724
vt 0.374914 0.436947
vt 0.408985 0.408985
vt 0.436947 0.374914
vt 0.457724 0.336042
vt 0.470519 0.293864
vt 0.474839 0.250000
vt 0.470519 0.206136
vt 0.457724 0.163958
vt 0.436947 0.125086
vt 0.408985 0.091015
vt 0.374914 0.063053
vt 0.336042 0.042276
vt 0.293864 0.029481
vt 0.250000 0.025161
vt 0.206136 0.029481
vt 0.163958 0.042276
vt 0.125086 0.063053
vt 0.091015 0.091015
vt 0.063053 0.125086
vt 0.042276 0.163958
vt 0.029481 0.206136
vt 0.025161 0.250000
vt 0.029481 0.293864
vt 0.042276 0.336042
vt 0.063053 0.374914
vt 0.091015 0.408985
vt 0.125086 0.436947
vt 0.163958 0.457724
vt 0.206136 0.470519
vt 0.293864 0.470519
vt 0.250000 0.474839
vt 0.336042 0.457724
vt 0.374914 0.436947
vt 0.408985 0.408985
vt 0.436947 0.374914
vt 0.457724 0.336042
vt 0.470519 0.293864
vt 0.474839 0.250000
vt 0.470519 0.206136
vt 0.457724 0.163958
vt 0.436947 0.125086
vt 0.408985 0.091015
vt 0.374914 0.063053
vt 0.336042 0.042276
vt 0.293864 0.029481
vt 0.250000 0.025161
vt 0.206136 0.029481
vt 0.163958 0.042276
vt 0.125086 0.063053
vt 0.091015 0.091015
vt 0.063053 0.125086
vt 0.042276 0.163958
vt 0.029481 0.206136
vt 0.025161 0.250000
vt 0.029481 0.293864
vt 0.042276 0.336042
vt 0.063053 0.374914
vt 0.091015 0.408985
vt 0.125086 0.436947
vt 0.163958 0.457724
vt 0.206136 0.470519
s 0
f 66/100/1 3/5/1 1/1/1
f 65/98/2 5/8/2 3/5/2
f 67/103/3 7/11/3 5/8/3
f 68/105/4 9/14/4 7/11/4
f 69/107/5 11/17/5 9/14/5
f 70/109/6 13/20/6 11/17/6
f 71/111/7 15/23/7 13/20/7
f 72/113/8 17/26/8 15/23/8
f 73/115/9 19/29/9 17/26/9
f 74/117/10 21/32/10 19/29/10
f 75/119/11 23/35/11 21/32/11
f 23/35/12 77/123/12 25/38/12
f 77/123/13 27/41/13 25/38/13
f 78/125/14 29/44/14 27/41/14
f 79/127/15 31/47/15 29/44/15
f 80/129/16 33/50/16 31/47/16
f 81/131/17 35/53/17 33/50/17
f 82/133/18 37/56/18 35/53/18
f 83/135/19 39/59/19 37/56/19
f 84/137/20 41/62/20 39/59/20
f 85/139/21 43/65/21 41/62/21
f 86/141/22 45/68/22 43/65/22
f 87/143/23 47/71/23 45/68/23
f 88/145/24 49/74/24 47/71/24
f 89/147/25 51/77/25 49/74/25
f 90/149/26 53/80/26 51/77/26
f 91/151/27 55/83/27 53/80/27
f 92/153/28 57/86/28 55/83/28
f 93/155/29 59/89/29 57/86/29
f 94/157/30 61/92/30 59/89/30
f 48/73/24 121/187/24 50/76/24
f 95/159/31 63/95/31 61/92/31
f 96/161/32 1/2/32 63/95/32
f 31/48/33 47/72/33 63/96/33
f 2/4/34 65/99/34 66/102/34
f 6/10/34 65/99/34 4/7/34
f 8/13/34 67/104/34 6/10/34
f 10/16/34 68/106/34 8/13/34
f 12/19/34 69/108/34 10/16/34
f 12/19/34 71/112/34 70/110/34
f 16/25/34 71/112/34 14/22/34
f 18/28/34 72/114/34 16/25/34
f 18/28/34 74/118/34 73/116/34
f 22/34/34 74/118/34 20/31/34
f 24/37/34 75/120/34 22/34/34
f 24/37/35 77/124/35 76/122/35
f 28/43/36 77/124/36 26/40/36
f 30/46/37 78/126/37 28/43/37
f 32/49/34 79/128/34 30/46/34
f 34/52/34 80/130/34 32/49/34
f 34/52/34 82/134/34 81/132/34
f 38/58/34 82/134/34 36/55/34
f 40/61/34 83/136/34 38/58/34
f 42/64/34 84/138/34 40/61/34
f 44/67/34 85/140/34 42/64/34
f 44/67/34 87/144/34 86/142/34
f 48/73/34 87/144/34 46/70/34
f 50/76/34 88/146/34 48/73/34
f 50/76/34 90/150/34 89/148/34
f 54/82/34 90/150/34 52/79/34
f 56/85/34 91/152/34 54/82/34
f 58/88/34 92/154/34 56/85/34
f 60/91/34 93/156/34 58/88/34
f 60/91/34 95/160/34 94/158/34
f 64/97/34 95/160/34 62/94/34
f 2/4/34 96/162/34 64/97/34
f 124/190/33 155/221/33 156/222/33
f 22/34/11 108/174/11 24/37/11
f 50/76/25 122/188/25 52/79/25
f 24/37/38 109/175/38 26/40/38
f 52/79/26 123/189/26 54/82/26
f 28/43/39 109/175/39 110/176/39
f 54/82/27 124/190/27 56/85/27
f 30/46/40 110/176/40 111/177/40
f 2/4/1 97/163/1 4/7/1
f 56/85/28 125/191/28 58/88/28
f 30/46/15 112/178/15 32/49/15
f 4/7/2 99/165/2 6/10/2
f 58/88/29 126/192/29 60/91/29
f 32/49/16 113/179/16 34/52/16
f 6/10/3 100/166/3 8/13/3
f 60/91/30 127/193/30 62/94/30
f 34/52/17 114/180/17 36/55/17
f 8/13/4 101/167/4 10/16/4
f 62/94/31 128/194/31 64/97/31
f 36/55/18 115/181/18 38/58/18
f 10/16/5 102/168/5 12/19/5
f 64/97/32 98/164/32 2/4/32
f 38/58/19 116/182/19 40/61/19
f 12/19/6 103/169/6 14/22/6
f 40/61/20 117/183/20 42/64/20
f 14/22/7 104/170/7 16/25/7
f 42/64/21 118/184/21 44/67/21
f 16/25/8 105/171/8 18/28/8
f 44/67/22 119/185/22 46/70/22
f 18/28/9 106/172/9 20/31/9
f 46/70/23 120/186/23 48/73/23
f 20/31/10 107/173/10 22/34/10
f 131/197/3 164/230/3 132/198/3
f 110/176/33 143/209/33 111/177/33
f 98/164/33 129/195/33 97/163/33
f 124/190/33 157/223/33 125/191/33
f 111/177/33 144/210/33 112/178/33
f 97/163/33 131/197/33 99/165/33
f 125/191/33 158/224/33 126/192/33
f 113/179/33 144/210/33 145/211/33
f 100/166/33 131/197/33 132/198/33
f 126/192/33 159/225/33 127/193/33
f 113/179/33 146/212/33 114/180/33
f 100/166/33 133/199/33 101/167/33
f 127/193/33 160/226/33 128/194/33
f 114/180/33 147/213/33 115/181/33
f 101/167/33 134/200/33 102/168/33
f 98/164/33 160/226/33 130/196/33
f 116/182/33 147/213/33 148/214/33
f 102/168/33 135/201/33 103/169/33
f 116/182/33 149/215/33 117/183/33
f 103/169/33 136/202/33 104/170/33
f 117/183/33 150/216/33 118/184/33
f 105/171/33 136/202/33 137/203/33
f 118/184/33 151/217/33 119/185/33
f 105/171/33 138/204/33 106/172/33
f 119/185/33 152/218/33 120/186/33
f 106/172/33 139/205/33 107/173/33
f 121/187/33 152/218/33 153/219/33
f 108/174/33 139/205/33 140/206/33
f 121/187/33 154/220/33 122/188/33
f 108/174/33 141/207/33 109/175/33
f 122/188/33 155/221/33 123/189/33
f 109/175/33 142/208/33 110/176/33
f 179/245/34 171/237/34 163/229/34
f 158/224/30 191/257/30 159/225/30
f 145/211/17 178/244/17 146/212/17
f 132/198/4 165/231/4 133/199/4
f 159/225/31 192/258/31 160/226/31
f 146/212/18 179/245/18 147/213/18
f 133/199/5 166/232/5 134/200/5
f 160/226/32 162/228/32 130/196/32
f 147/213/19 180/246/19 148/214/19
f 134/200/6 167/233/6 135/201/6
f 148/214/20 181/247/20 149/215/20
f 135/201/7 168/234/7 136/202/7
f 149/215/21 182/248/21 150/216/21
f 136/202/8 169/235/8 137/203/8
f 150/216/22 183/249/22 151/217/22
f 137/203/9 170/236/9 138/204/9
f 151/217/23 184/250/23 152/218/23
f 138/204/10 171/237/10 139/205/10
f 152/218/41 185/251/41 153/219/41
f 139/205/11 172/238/11 140/206/11
f 153/219/42 186/252/42 154/220/42
f 140/206/43 173/239/43 141/207/43
f 155/221/44 186/252/44 187/253/44
f 142/208/45 173/239/45 174/240/45
f 156/222/46 187/253/46 188/254/46
f 143/209/47 174/240/47 175/241/47
f 130/196/1 161/227/1 129/195/1
f 156/222/28 189/255/28 157/223/28
f 143/209/15 176/242/15 144/210/15
f 129/195/2 163/229/2 131/197/2
f 157/223/29 190/256/29 158/224/29
f 144/210/16 177/243/16 145/211/16
f 66/100/1 65/98/1 3/5/1
f 65/98/2 67/103/2 5/8/2
f 67/103/3 68/105/3 7/11/3
f 68/105/4 69/107/4 9/14/4
f 69/107/5 70/109/5 11/17/5
f 70/109/6 71/111/6 13/20/6
f 71/111/7 72/113/7 15/23/7
f 72/113/8 73/115/8 17/26/8
f 73/115/9 74/117/9 19/29/9
f 74/117/10 75/119/10 21/32/10
f 75/119/11 76/121/11 23/35/11
f 23/35/48 76/121/48 77/123/48
f 77/123/49 78/125/49 27/41/49
f 78/125/50 79/127/50 29/44/50
f 79/127/15 80/129/15 31/47/15
f 80/129/16 81/131/16 33/50/16
f 81/131/17 82/133/17 35/53/17
f 82/133/18 83/135/18 37/56/18
f 83/135/19 84/137/19 39/59/19
f 84/137/20 85/139/20 41/62/20
f 85/139/21 86/141/21 43/65/21
f 86/141/22 87/143/22 45/68/22
f 87/143/23 88/145/23 47/71/23
f 88/145/24 89/147/24 49/74/24
f 89/147/25 90/149/25 51/77/25
f 90/149/26 91/151/26 53/80/26
f 91/151/27 92/153/27 55/83/27
f 92/153/28 93/155/28 57/86/28
f 93/155/29 94/157/29 59/89/29
f 94/157/30 95/159/30 61/92/30
f 48/73/24 120/186/24 121/187/24
f 95/159/31 96/161/31 63/95/31
f 96/161/32 66/101/32 1/2/32
f 63/96/33 1/3/33 3/6/33
f 3/6/33 5/9/33 7/12/33
f 7/12/33 9/15/33 11/18/33
f 11/18/33 13/21/33 15/24/33
f 15/24/33 17/27/33 19/30/33
f 19/30/33 21/33/33 23/36/33
f 23/36/33 25/39/33 27/42/33
f 27/42/33 29/45/33 31/48/33
f 31/48/33 33/51/33 35/54/33
f 35/54/33 37/57/33 39/60/33
f 39/60/33 41/63/33 43/66/33
f 43/66/33 45/69/33 47/72/33
f 47/72/33 49/75/33 51/78/33
f 51/78/33 53/81/33 55/84/33
f 55/84/33 57/87/33 59/90/33
f 59/90/33 61/93/33 63/96/33
f 63/96/33 3/6/33 7/12/33
f 7/12/33 11/18/33 15/24/33
f 15/24/33 19/30/33 23/36/33
f 23/36/33 27/42/33 31/48/33
f 31/48/33 35/54/33 39/60/33
f 39/60/33 43/66/33 47/72/33
f 47/72/33 51/78/33 55/84/33
f 55/84/33 59/90/33 63/96/33
f 63/96/33 7/12/33 15/24/33
f 15/24/33 23/36/33 31/48/33
f 31/48/33 39/60/33 47/72/33
f 47/72/33 55/84/33 63/96/33
f 63/96/33 15/24/33 31/48/33
f 2/4/34 4/7/34 65/99/34
f 6/10/34 67/104/34 65/99/34
f 8/13/34 68/106/34 67/104/34
f 10/16/34 69/108/34 68/106/34
f 12/19/34 70/110/34 69/108/34
f 12/19/34 14/22/34 71/112/34
f 16/25/34 72/114/34 71/112/34
f 18/28/34 73/116/34 72/114/34
f 18/28/34 20/31/34 74/118/34
f 22/34/34 75/120/34 74/118/34
f 24/37/34 76/122/34 75/120/34
f 24/37/51 26/40/51 77/124/51
f 28/43/52 78/126/52 77/124/52
f 30/46/53 79/128/53 78/126/53
f 32/49/34 80/130/34 79/128/34
f 34/52/34 81/132/34 80/130/34
f 34/52/34 36/55/34 82/134/34
f 38/58/34 83/136/34 82/134/34
f 40/61/34 84/138/34 83/136/34
f 42/64/34 85/140/34 84/138/34
f 44/67/34 86/142/34 85/140/34
f 44/67/34 46/70/34 87/144/34
f 48/73/34 88/146/34 87/144/34
f 50/76/34 89/148/34 88/146/34
f 50/76/34 52/79/34 90/150/34
f 54/82/34 91/152/34 90/150/34
f 56/85/34 92/154/34 91/152/34
f 58/88/34 93/156/34 92/154/34
f 60/91/34 94/158/34 93/156/34
f 60/91/34 62/94/34 95/160/34
f 64/97/34 96/162/34 95/160/34
f 2/4/34 66/102/34 96/162/34
f 124/190/33 123/189/33 155/221/33
f 22/34/11 107/173/11 108/174/11
f 50/76/25 121/187/25 122/188/25
f 24/37/54 108/174/54 109/175/54
f 52/79/26 122/188/26 123/189/26
f 28/43/55 26/40/55 109/175/55
f 54/82/27 123/189/27 124/190/27
f 30/46/56 28/43/56 110/176/56
f 2/4/1 98/164/1 97/163/1
f 56/85/28 124/190/28 125/191/28
f 30/46/15 111/177/15 112/178/15
f 4/7/2 97/163/2 99/165/2
f 58/88/29 125/191/29 126/192/29
f 32/49/16 112/178/16 113/179/16
f 6/10/3 99/165/3 100/166/3
f 60/91/30 126/192/30 127/193/30
f 34/52/17 113/179/17 114/180/17
f 8/13/4 100/166/4 101/167/4
f 62/94/31 127/193/31 128/194/31
f 36/55/18 114/180/18 115/181/18
f 10/16/5 101/167/5 102/168/5
f 64/97/32 128/194/32 98/164/32
f 38/58/19 115/181/19 116/182/19
f 12/19/6 102/168/6 103/169/6
f 40/61/20 116/182/20 117/183/20
f 14/22/7 103/169/7 104/170/7
f 42/64/21 117/183/21 118/184/21
f 16/25/8 104/170/8 105/171/8
f 44/67/22 118/184/22 119/185/22
f 18/28/9 105/171/9 106/172/9
f 46/70/23 119/185/23 120/186/23
f 20/31/10 106/172/10 107/173/10
f 131/197/3 163/229/3 164/230/3
f 110/176/33 142/208/33 143/209/33
f 98/164/33 130/196/33 129/195/33
f 124/190/33 156/222/33 157/223/33
f 111/177/33 143/209/33 144/210/33
f 97/163/33 129/195/33 131/197/33
f 125/191/33 157/223/33 158/224/33
f 113/179/33 112/178/33 144/210/33
f 100/166/33 99/165/33 131/197/33
f 126/192/33 158/224/33 159/225/33
f 113/179/33 145/211/33 146/212/33
f 100/166/33 132/198/33 133/199/33
f 127/193/33 159/225/33 160/226/33
f 114/180/33 146/212/33 147/213/33
f 101/167/33 133/199/33 134/200/33
f 98/164/33 128/194/33 160/226/33
f 116/182/33 115/181/33 147/213/33
f 102/168/33 134/200/33 135/201/33
f 116/182/33 148/214/33 149/215/33
f 103/169/33 135/201/33 136/202/33
f 117/183/33 149/215/33 150/216/33
f 105/171/33 104/170/33 136/202/33
f 118/184/33 150/216/33 151/217/33
f 105/171/33 137/203/33 138/204/33
f 119/185/33 151/217/33 152/218/33
f 106/172/33 138/204/33 139/205/33
f 121/187/33 120/186/33 152/218/33
f 108/174/33 107/173/33 139/205/33
f 121/187/33 153/219/33 154/220/33
f 108/174/33 140/206/33 141/207/33
f 122/188/33 154/220/33 155/221/33
f 109/175/33 141/207/33 142/208/33
f 163/229/34 161/227/34 162/228/34
f 162/228/34 192/258/34 191/257/34
f 191/257/34 190/256/34 189/255/34
f 189/255/57 188/254/57 187/253/57
f 187/253/58 186/252/58 185/251/58
f 185/251/59 184/250/59 183/249/59
f 183/249/34 182/248/34 181/247/34
f 181/247/34 180/246/34 179/245/34
f 179/245/34 178/244/34 177/243/34
f 177/243/34 176/242/34 175/241/34
f 175/241/60 174/240/60 173/239/60
f 173/239/61 172/238/61 171/237/61
f 171/237/34 170/236/34 169/235/34
f 169/235/34 168/234/34 167/233/34
f 167/233/34 166/232/34 165/231/34
f 165/231/34 164/230/34 163/229/34
f 163/229/34 162/228/34 191/257/34
f 191/257/62 189/255/62 187/253/62
f 187/253/63 185/251/63 183/249/63
f 183/249/34 181/247/34 179/245/34
f 179/245/34 177/243/34 175/241/34
f 175/241/64 173/239/64 171/237/64
f 171/237/34 169/235/34 167/233/34
f 167/233/34 165/231/34 163/229/34
f 163/229/65 191/257/65 187/253/65
f 187/253/66 183/249/66 179/245/66
f 179/245/34 175/241/34 171/237/34
f 171/237/34 167/233/34 163/229/34
f 163/229/67 187/253/67 179/245/67
f 158/224/30 190/256/30 191/257/30
f 145/211/17 177/243/17 178/244/17
f 132/198/4 164/230/4 165/231/4
f 159/225/31 191/257/31 192/258/31
f 146/212/18 178/244/18 179/245/18
f 133/199/5 165/231/5 166/232/5
f 160/226/32 192/258/32 162/228/32
f 147/213/19 179/245/19 180/246/19
f 134/200/6 166/232/6 167/233/6
f 148/214/20 180/246/20 181/247/20
f 135/201/7 167/233/7 168/234/7
f 149/215/21 181/247/21 182/248/21
f 136/202/8 168/234/8 169/235/8
f 150/216/22 182/248/22 183/249/22
f 137/203/9 169/235/9 170/236/9
f 151/217/23 183/249/23 184/250/23
f 138/204/10 170/236/10 171/237/10
f 152/218/68 184/250/68 185/251/68
f 139/205/11 171/237/11 172/238/11
f 153/219/69 185/251/69 186/252/69
f 140/206/70 172/238/70 173/239/70
f 155/221/71 154/220/71 186/252/71
f 142/208/72 141/207/72 173/239/72
f 156/222/73 155/221/73 187/253/73
f 143/209/74 142/208/74 174/240/74
f 130/196/1 162/228/1 161/227/1
f 156/222/28 188/254/28 189/255/28
f 143/209/15 175/241/15 176/242/15
f 129/195/2 161/227/2 163/229/2
f 157/223/29 189/255/29 190/256/29
f 144/210/16 176/242/16 177/243/16
