# Blender 3.3.1
# www.blender.org
o sign
v -0.161866 3.994455 0.038334
v -0.161866 4.391253 0.038334
v -0.161866 3.994455 -0.038334
v -0.161866 4.391253 -0.038334
v 0.161866 3.994455 0.038334
v 0.161866 4.391253 0.038334
v 0.161866 3.994455 -0.038334
v 0.161866 4.391253 -0.038334
v 0.038266 3.994454 -0.038266
v -0.038266 3.994454 -0.038266
v -0.053955 4.391253 -0.038334
v 0.053955 4.391253 -0.038334
v -0.038266 3.994454 0.038266
v 0.038266 3.994454 0.038266
v 0.053955 4.391253 0.038334
v -0.053955 4.391253 0.038334
v -0.000000 3.994454 -0.054116
v 0.000000 3.994454 0.054116
v -0.054116 3.994454 0.000000
v 0.054116 3.994454 -0.000000
v -0.000000 3.803868 -0.029210
v -0.020709 3.994454 -0.049997
v 0.020709 3.994454 0.049997
v -0.049997 3.994454 0.020709
v 0.049997 3.994454 0.020709
v 0.020709 3.994454 -0.049997
v -0.020709 3.994454 0.049997
v -0.049997 3.994454 -0.020709
v 0.049997 3.994454 -0.020709
v 0.011178 3.803868 -0.026987
v 0.026987 3.803868 0.011178
v -0.020655 3.803868 0.020655
v -0.026987 3.803868 0.011178
v 0.020655 3.803868 0.020655
v 0.011178 3.803868 0.026987
v -0.020655 3.803868 -0.020655
v -0.011178 3.803868 -0.026987
v -0.011178 3.994454 -0.026987
v -0.020655 3.994454 -0.020655
v 0.011178 3.994454 0.026987
v 0.020655 3.994454 0.020655
v -0.026987 3.994454 0.011178
v -0.020655 3.994454 0.020655
v 0.026987 3.994454 0.011178
v 0.011178 3.994454 -0.026987
v -0.000000 3.994454 -0.029210
v -0.011178 3.994454 0.026987
v 0.000000 3.994454 0.029210
v -0.026987 3.994454 -0.011178
v -0.029210 3.994454 0.000000
v 0.026987 3.994454 -0.011178
v 0.029210 3.994454 -0.000000
v 0.020655 3.994454 -0.020655
v -0.011178 3.803868 0.026987
v 0.000000 3.803868 0.029210
v -0.026987 3.803868 -0.011178
v -0.029210 3.803868 0.000000
v 0.026987 3.803868 -0.011178
v 0.029210 3.803868 -0.000000
v -0.000000 3.803868 0.010346
v -0.000000 3.803868 -0.010346
v -0.000000 3.803868 -0.000000
v -0.014562 3.803868 -0.000000
v 0.014562 3.803868 -0.000000
v 0.020655 3.803868 -0.020655
v 0.014562 3.803868 -0.010346
v -0.014562 3.803868 -0.010346
v -0.014562 3.803868 0.010346
v 0.014562 3.803868 0.010346
vn -1.0000 -0.0000 -0.0000
vn -0.0006 -0.0001 -1.0000
vn 1.0000 -0.0000 -0.0000
vn 0.0006 -0.0001 1.0000
vn -0.0000 -1.0000 -0.0000
vn -0.0000 1.0000 -0.0000
vn -0.0006 -0.0001 1.0000
vn -0.3812 0.0884 0.9203
vn 0.0006 -0.0001 -1.0000
vn 0.3812 0.0884 -0.9203
vn 0.1951 -0.0000 0.9808
vn -0.1951 -0.0000 0.9808
vn -0.1951 -0.0000 -0.9808
vn 0.8315 -0.0000 -0.5556
vn 0.1951 -0.0000 -0.9808
vn -0.8315 -0.0000 -0.5556
vn 0.8315 -0.0000 0.5556
vn -0.5556 -0.0000 0.8315
vn -0.8315 -0.0000 0.5556
vn 0.5556 -0.0000 -0.8315
vn 0.5556 -0.0000 0.8315
vn 0.9808 -0.0000 0.1951
vn -0.5556 -0.0000 -0.8315
vn 0.9808 -0.0000 -0.1951
vn -0.9808 -0.0000 0.1951
vn -0.9808 -0.0000 -0.1951
vn 0.0001 -1.0000 -0.0000
vn -0.0000 -0.0000 -1.0000
vn -0.0000 -0.0000 1.0000
vn 0.5554 -0.0221 0.8313
vn -0.0000 -0.0002 1.0000
vn 0.1951 0.0125 0.9807
vn -0.5554 -0.0221 -0.8313
vn -0.0000 -0.0002 -1.0000
vn -0.1951 0.0125 -0.9807
vn -0.0001 -1.0000 -0.0000
vt 0.375000 0.000000
vt 0.375000 1.000000
vt 0.125000 0.750000
vt 0.625000 0.000000
vt 0.625000 1.000000
vt 0.875000 0.750000
vt 0.125000 0.500000
vt 0.375000 0.250000
vt 0.875000 0.500000
vt 0.625000 0.250000
vt 0.375000 0.750000
vt 0.625000 0.750000
vt 0.375000 0.500000
vt 0.625000 0.500000
vt 0.291667 0.500000
vt 0.375000 0.416667
vt 0.375000 0.333333
vt 0.208333 0.500000
vt 0.791667 0.500000
vt 0.625000 0.333333
vt 0.708333 0.500000
vt 0.625000 0.416667
vt 0.208333 0.750000
vt 0.375000 0.916667
vt 0.375000 0.833333
vt 0.291667 0.750000
vt 0.708333 0.750000
vt 0.625000 0.833333
vt 0.791667 0.750000
vt 0.625000 0.916667
vt 0.375000 0.375000
vt 0.375000 0.875000
vt 0.208333 0.625000
vt 0.291667 0.625000
vt 0.375000 0.375000
vt 0.250000 0.500000
vt 0.375000 0.354167
vt 0.375000 0.854167
vt 0.208333 0.687500
vt 0.291667 0.687500
vt 0.375000 0.395833
vt 0.375000 0.895833
vt 0.208333 0.562500
vt 0.291667 0.562500
vt 0.375000 0.395833
vt 0.270833 0.500000
vt 0.291667 0.687500
vt 0.375000 0.916667
vt 0.208333 0.750000
vt 0.208333 0.687500
vt 0.375000 0.833333
vt 0.291667 0.750000
vt 0.375000 0.854167
vt 0.270833 0.750000
vt 0.375000 0.333333
vt 0.208333 0.500000
vt 0.375000 0.354167
vt 0.229167 0.500000
vt 0.375000 0.354167
vt 0.375000 0.333333
vt 0.208333 0.500000
vt 0.375000 0.854167
vt 0.375000 0.833333
vt 0.291667 0.750000
vt 0.208333 0.687500
vt 0.208333 0.750000
vt 0.375000 0.916667
vt 0.291667 0.687500
vt 0.375000 0.395833
vt 0.375000 0.375000
vt 0.375000 0.895833
vt 0.375000 0.875000
vt 0.208333 0.562500
vt 0.208333 0.625000
vt 0.291667 0.562500
vt 0.291667 0.625000
vt 0.291667 0.500000
vt 0.375000 0.416667
vt 0.375000 0.895833
vt 0.229167 0.750000
vt 0.375000 0.875000
vt 0.250000 0.750000
vt 0.208333 0.562500
vt 0.208333 0.625000
vt 0.291667 0.562500
vt 0.291667 0.625000
vt 0.250000 0.687500
vt 0.250000 0.562500
vt 0.250000 0.625000
vt 0.229167 0.625000
vt 0.270833 0.625000
vt 0.375000 0.416667
vt 0.291667 0.500000
vt 0.270833 0.562500
vt 0.229167 0.562500
vt 0.229167 0.687500
vt 0.270833 0.687500
s 0
f 2/4/1 3/8/1 1/1/1
f 12/22/2 7/13/2 9/16/2
f 8/14/3 5/11/3 7/13/3
f 16/30/4 1/2/4 13/24/4
f 7/13/5 25/40/5 20/34/5
f 4/9/6 16/29/6 11/19/6
f 12/21/6 6/12/6 8/14/6
f 11/19/6 15/27/6 12/21/6
f 19/33/5 24/39/5 1/3/5
f 9/16/5 45/69/5 26/41/5
f 5/11/7 15/28/7 14/25/7
f 15/28/8 13/24/8 18/32/8
f 3/8/9 11/20/9 10/17/9
f 11/20/10 9/16/10 17/31/10
f 23/38/5 41/63/5 14/25/5
f 20/34/5 44/68/5 52/76/5
f 20/34/5 51/75/5 29/44/5
f 19/33/5 42/65/5 24/39/5
f 14/26/5 44/68/5 25/40/5
f 19/33/5 49/73/5 50/74/5
f 18/32/5 40/62/5 23/38/5
f 24/39/5 43/66/5 13/23/5
f 18/32/5 47/71/5 48/72/5
f 17/31/5 38/59/5 22/37/5
f 29/44/5 53/77/5 9/15/5
f 17/31/5 45/69/5 46/70/5
f 22/37/5 39/60/5 10/17/5
f 10/18/5 49/73/5 28/43/5
f 13/24/5 47/71/5 27/42/5
f 48/72/11 35/53/11 40/62/11
f 47/71/12 55/81/12 48/72/12
f 46/70/13 37/57/13 38/59/13
f 51/75/14 65/93/14 53/77/14
f 45/69/15 21/35/15 46/70/15
f 39/61/16 56/83/16 49/73/16
f 41/64/17 31/47/17 44/68/17
f 43/67/18 54/79/18 47/71/18
f 42/65/19 32/49/19 43/66/19
f 53/78/20 30/45/20 45/69/20
f 40/62/21 34/51/21 41/63/21
f 44/68/22 59/86/22 52/76/22
f 38/59/23 36/55/23 39/60/23
f 52/76/24 58/85/24 51/75/24
f 50/74/25 33/50/25 42/65/25
f 49/73/26 57/84/26 50/74/26
f 69/97/27 34/52/27 35/54/27
f 60/87/5 54/80/5 68/96/5
f 61/88/5 63/90/5 67/95/5
f 58/85/27 64/91/27 66/94/27
f 66/94/5 62/89/5 61/88/5
f 30/46/27 61/88/27 21/36/27
f 65/93/5 66/94/5 30/46/5
f 56/83/27 63/90/27 57/84/27
f 36/56/5 67/95/5 56/83/5
f 37/58/5 61/88/5 67/95/5
f 68/96/27 32/49/27 33/50/27
f 63/90/5 33/50/5 57/84/5
f 62/89/5 68/96/5 63/90/5
f 60/87/5 35/54/5 55/82/5
f 64/91/5 60/87/5 62/89/5
f 64/91/5 31/47/5 69/97/5
f 2/4/1 4/10/1 3/8/1
f 12/22/28 8/14/28 7/13/28
f 8/14/3 6/12/3 5/11/3
f 16/30/29 2/5/29 1/2/29
f 29/44/5 9/15/5 7/13/5
f 7/13/5 5/11/5 14/26/5
f 7/13/5 14/26/5 25/40/5
f 20/34/5 29/44/5 7/13/5
f 4/9/6 2/6/6 16/29/6
f 12/21/6 15/27/6 6/12/6
f 11/19/6 16/29/6 15/27/6
f 1/3/5 3/7/5 10/18/5
f 1/3/5 10/18/5 28/43/5
f 24/39/5 13/23/5 1/3/5
f 1/3/5 28/43/5 19/33/5
f 9/16/5 53/78/5 45/69/5
f 5/11/29 6/12/29 15/28/29
f 23/38/30 14/25/30 15/28/30
f 15/28/31 16/30/31 13/24/31
f 13/24/6 27/42/6 18/32/6
f 18/32/32 23/38/32 15/28/32
f 3/8/28 4/10/28 11/20/28
f 22/37/33 10/17/33 11/20/33
f 11/20/34 12/22/34 9/16/34
f 9/16/6 26/41/6 17/31/6
f 17/31/35 22/37/35 11/20/35
f 23/38/5 40/62/5 41/63/5
f 20/34/5 25/40/5 44/68/5
f 20/34/5 52/76/5 51/75/5
f 19/33/5 50/74/5 42/65/5
f 14/26/5 41/64/5 44/68/5
f 19/33/5 28/43/5 49/73/5
f 18/32/5 48/72/5 40/62/5
f 24/39/5 42/65/5 43/66/5
f 18/32/5 27/42/5 47/71/5
f 17/31/5 46/70/5 38/59/5
f 29/44/5 51/75/5 53/77/5
f 17/31/5 26/41/5 45/69/5
f 22/37/5 38/59/5 39/60/5
f 10/18/5 39/61/5 49/73/5
f 13/24/5 43/67/5 47/71/5
f 48/72/11 55/81/11 35/53/11
f 47/71/12 54/79/12 55/81/12
f 46/70/13 21/35/13 37/57/13
f 51/75/14 58/85/14 65/93/14
f 45/69/15 30/45/15 21/35/15
f 39/61/16 36/56/16 56/83/16
f 41/64/17 34/52/17 31/47/17
f 43/67/18 32/48/18 54/79/18
f 42/65/19 33/50/19 32/49/19
f 53/78/20 65/92/20 30/45/20
f 40/62/21 35/53/21 34/51/21
f 44/68/22 31/47/22 59/86/22
f 38/59/23 37/57/23 36/55/23
f 52/76/24 59/86/24 58/85/24
f 50/74/25 57/84/25 33/50/25
f 49/73/26 56/83/26 57/84/26
f 69/97/36 31/47/36 34/52/36
f 60/87/36 55/82/36 54/80/36
f 61/88/5 62/89/5 63/90/5
f 58/85/5 59/86/5 64/91/5
f 66/94/5 64/91/5 62/89/5
f 30/46/5 66/94/5 61/88/5
f 65/93/5 58/85/5 66/94/5
f 56/83/36 67/95/36 63/90/36
f 36/56/5 37/58/5 67/95/5
f 37/58/5 21/36/5 61/88/5
f 68/96/27 54/80/27 32/49/27
f 63/90/5 68/96/5 33/50/5
f 62/89/5 60/87/5 68/96/5
f 60/87/5 69/97/5 35/54/5
f 64/91/5 69/97/5 60/87/5
f 64/91/5 59/86/5 31/47/5
