# Blender 3.3.1
# www.blender.org
o tee_pot
v 0.000000 0.024534 -0.156829
v 0.000000 1.136347 -0.228625
v 0.030596 0.024534 -0.153816
v 0.044602 1.136347 -0.224232
v 0.060016 0.024534 -0.144891
v 0.087491 1.136347 -0.211222
v 0.087130 0.024534 -0.130399
v 0.127017 1.136347 -0.190094
v 0.110895 0.024534 -0.110895
v 0.161662 1.136347 -0.161662
v 0.130399 0.024534 -0.087130
v 0.190094 1.136347 -0.127017
v 0.144891 0.024534 -0.060016
v 0.211222 1.136347 -0.087491
v 0.153816 0.024534 -0.030596
v 0.224232 1.136347 -0.044602
v 0.156829 0.024534 0.000000
v 0.228625 1.136347 0.000000
v 0.153816 0.024534 0.030596
v 0.224232 1.136347 0.044602
v 0.144891 0.024534 0.060016
v 0.211222 1.136347 0.087491
v 0.130399 0.024534 0.087130
v 0.190094 1.136347 0.127017
v 0.110895 0.024534 0.110895
v 0.161662 1.136347 0.161662
v 0.087130 0.024534 0.130399
v 0.127017 1.136347 0.190094
v 0.060016 0.024534 0.144891
v 0.087491 1.136347 0.211222
v 0.030596 0.024534 0.153816
v 0.044602 1.136347 0.224232
v 0.000000 0.024534 0.156829
v 0.000000 1.136347 0.228625
v -0.030596 0.024534 0.153816
v -0.044602 1.136347 0.224232
v -0.060016 0.024534 0.144891
v -0.087491 1.136347 0.211222
v -0.087130 0.024534 0.130399
v -0.127017 1.136347 0.190094
v -0.110895 0.024534 0.110895
v -0.161662 1.136347 0.161662
v -0.130399 0.024534 0.087130
v -0.190094 1.136347 0.127017
v -0.144891 0.024534 0.060016
v -0.211222 1.136347 0.087491
v -0.153816 0.024534 0.030596
v -0.224232 1.136347 0.044602
v -0.156829 0.024534 0.000000
v -0.228625 1.136347 0.000000
v -0.153816 0.024534 -0.030596
v -0.224232 1.136347 -0.044602
v -0.144891 0.024534 -0.060016
v -0.211222 1.136347 -0.087491
v -0.130399 0.024534 -0.087130
v -0.190094 1.136347 -0.127017
v -0.110895 0.024534 -0.110895
v -0.161662 1.136347 -0.161662
v -0.087130 0.024534 -0.130399
v -0.127017 1.136347 -0.190094
v -0.060016 0.024534 -0.144891
v -0.087491 1.136347 -0.211222
v -0.030596 0.024534 -0.153816
v -0.044602 1.136347 -0.224232
v 0.000000 0.295409 -0.573841
v 0.000000 0.512037 -0.638384
v 0.000000 0.767391 -0.638384
v 0.000000 0.984018 -0.573841
v 0.111951 0.984018 -0.562815
v 0.124543 0.767391 -0.626118
v 0.124543 0.512037 -0.626118
v 0.111951 0.295409 -0.562815
v 0.219599 0.984018 -0.530160
v 0.244299 0.767391 -0.589790
v 0.244299 0.512037 -0.589790
v 0.219599 0.295409 -0.530160
v 0.318809 0.984018 -0.477131
v 0.354667 0.767391 -0.530797
v 0.354667 0.512037 -0.530797
v 0.318809 0.295409 -0.477131
v 0.405767 0.984018 -0.405767
v 0.451406 0.767391 -0.451406
v 0.451406 0.512037 -0.451406
v 0.405767 0.295409 -0.405767
v 0.477131 0.984018 -0.318809
v 0.530797 0.767391 -0.354667
v 0.530797 0.512037 -0.354667
v 0.477131 0.295409 -0.318809
v 0.530160 0.984018 -0.219599
v 0.589790 0.767391 -0.244299
v 0.589790 0.512037 -0.244299
v 0.530160 0.295409 -0.219599
v 0.562815 0.984018 -0.111951
v 0.626118 0.767391 -0.124543
v 0.626118 0.512037 -0.124543
v 0.562815 0.295409 -0.111951
v 0.573841 0.984018 -0.000000
v 0.638384 0.767391 0.000000
v 0.638384 0.512037 0.000000
v 0.573841 0.295409 -0.000000
v 0.562815 0.984018 0.111951
v 0.626118 0.767391 0.124543
v 0.626118 0.512037 0.124543
v 0.562815 0.295409 0.111951
v 0.530160 0.984018 0.219599
v 0.589790 0.767391 0.244299
v 0.589790 0.512037 0.244299
v 0.530160 0.295409 0.219599
v 0.477131 0.984018 0.318809
v 0.530797 0.767391 0.354667
v 0.530797 0.512037 0.354667
v 0.477131 0.295409 0.318809
v 0.405767 0.984018 0.405767
v 0.451406 0.767391 0.451406
v 0.451406 0.512037 0.451406
v 0.405767 0.295409 0.405767
v 0.318809 0.984018 0.477131
v 0.354667 0.767391 0.530797
v 0.354667 0.512037 0.530797
v 0.318809 0.295409 0.477131
v 0.219599 0.984018 0.530160
v 0.244299 0.767391 0.589790
v 0.244299 0.512037 0.589790
v 0.219599 0.295409 0.530160
v 0.111951 0.984018 0.562815
v 0.124543 0.767391 0.626118
v 0.124543 0.512037 0.626118
v 0.111951 0.295409 0.562815
v 0.000000 0.984018 0.573841
v 0.000000 0.767391 0.638384
v 0.000000 0.512037 0.638384
v 0.000000 0.295409 0.573841
v -0.111951 0.984018 0.562815
v -0.124543 0.767391 0.626118
v -0.124543 0.512037 0.626118
v -0.111951 0.295409 0.562815
v -0.219599 0.984018 0.530160
v -0.244299 0.767391 0.589790
v -0.244299 0.512037 0.589790
v -0.219599 0.295409 0.530160
v -0.318809 0.984018 0.477131
v -0.354667 0.767391 0.530797
v -0.354667 0.512037 0.530797
v -0.318809 0.295409 0.477131
v -0.405767 0.984018 0.405767
v -0.451406 0.767391 0.451406
v -0.451406 0.512037 0.451406
v -0.405767 0.295409 0.405767
v -0.477131 0.984018 0.318809
v -0.530797 0.767391 0.354667
v -0.530797 0.512037 0.354667
v -0.477131 0.295409 0.318809
v -0.530160 0.984018 0.219599
v -0.589790 0.767391 0.244299
v -0.589790 0.512037 0.244299
v -0.530160 0.295409 0.219599
v -0.562815 0.984018 0.111951
v -0.626118 0.767391 0.124543
v -0.626118 0.512037 0.124543
v -0.562815 0.295409 0.111951
v -0.573841 0.984018 -0.000000
v -0.638384 0.767391 0.000000
v -0.638384 0.512037 0.000000
v -0.573841 0.295409 -0.000000
v -0.562815 0.984018 -0.111951
v -0.626118 0.767391 -0.124543
v -0.626118 0.512037 -0.124543
v -0.562815 0.295409 -0.111951
v -0.530160 0.984018 -0.219599
v -0.589790 0.767391 -0.244299
v -0.589790 0.512037 -0.244299
v -0.530160 0.295409 -0.219599
v -0.477131 0.984018 -0.318809
v -0.530797 0.767391 -0.354667
v -0.530797 0.512037 -0.354667
v -0.477131 0.295409 -0.318809
v -0.405767 0.984018 -0.405767
v -0.451406 0.767391 -0.451406
v -0.451406 0.512037 -0.451406
v -0.405767 0.295409 -0.405767
v -0.318809 0.984018 -0.477131
v -0.354667 0.767391 -0.530797
v -0.354667 0.512037 -0.530797
v -0.318809 0.295409 -0.477131
v -0.219599 0.984018 -0.530160
v -0.244299 0.767391 -0.589790
v -0.244299 0.512037 -0.589790
v -0.219599 0.295409 -0.530160
v -0.111951 0.984018 -0.562815
v -0.124543 0.767391 -0.626118
v -0.124543 0.512037 -0.626118
v -0.111951 0.295409 -0.562815
v 0.000000 0.001330 -0.315357
v 0.061523 0.001330 -0.309297
v 0.120682 0.001330 -0.291351
v 0.175203 0.001330 -0.262209
v 0.222991 0.001330 -0.222991
v 0.262209 0.001330 -0.175203
v 0.291351 0.001330 -0.120682
v 0.309297 0.001330 -0.061523
v 0.315357 0.001330 0.000000
v 0.309297 0.001330 0.061523
v 0.291351 0.001330 0.120682
v 0.262209 0.001330 0.175203
v 0.222991 0.001330 0.222991
v 0.175203 0.001330 0.262209
v 0.120682 0.001330 0.291351
v 0.061523 0.001330 0.309297
v 0.000000 0.001330 0.315357
v -0.061523 0.001330 0.309297
v -0.120682 0.001330 0.291351
v -0.175203 0.001330 0.262209
v -0.222991 0.001330 0.222991
v -0.262209 0.001330 0.175203
v -0.291351 0.001330 0.120682
v -0.309297 0.001330 0.061523
v -0.315357 0.001330 0.000000
v -0.309297 0.001330 -0.061523
v -0.291351 0.001330 -0.120682
v -0.262209 0.001330 -0.175203
v -0.222991 0.001330 -0.222991
v -0.175203 0.001330 -0.262209
v -0.120682 0.001330 -0.291351
v -0.061523 0.001330 -0.309297
v 0.000000 0.001330 -0.245807
v 0.047955 0.001330 -0.241084
v 0.094066 0.001330 -0.227096
v 0.136563 0.001330 -0.204381
v 0.173812 0.001330 -0.173812
v 0.204381 0.001330 -0.136563
v 0.227096 0.001330 -0.094066
v 0.241084 0.001330 -0.047955
v 0.245807 0.001330 0.000000
v 0.241084 0.001330 0.047955
v 0.227096 0.001330 0.094066
v 0.204381 0.001330 0.136563
v 0.173812 0.001330 0.173812
v 0.136563 0.001330 0.204381
v 0.094066 0.001330 0.227096
v 0.047955 0.001330 0.241084
v 0.000000 0.001330 0.245807
v -0.047955 0.001330 0.241084
v -0.094066 0.001330 0.227096
v -0.136563 0.001330 0.204381
v -0.173812 0.001330 0.173812
v -0.204381 0.001330 0.136563
v -0.227096 0.001330 0.094066
v -0.241084 0.001330 0.047955
v -0.245807 0.001330 0.000000
v -0.241084 0.001330 -0.047955
v -0.227096 0.001330 -0.094066
v -0.204381 0.001330 -0.136563
v -0.173812 0.001330 -0.173812
v -0.136563 0.001330 -0.204381
v -0.094066 0.001330 -0.227096
v -0.047955 0.001330 -0.241084
v 0.051133 1.136347 -0.257062
v 0.000000 1.136347 -0.262098
v 0.100301 1.136347 -0.242147
v 0.145614 1.136347 -0.217927
v 0.185331 1.136347 -0.185331
v 0.217927 1.136347 -0.145614
v 0.242147 1.136347 -0.100301
v 0.257062 1.136347 -0.051133
v 0.262098 1.136347 0.000000
v 0.257062 1.136347 0.051133
v 0.242147 1.136347 0.100301
v 0.217927 1.136347 0.145614
v 0.185331 1.136347 0.185331
v 0.145614 1.136347 0.217927
v 0.100301 1.136347 0.242147
v 0.051133 1.136347 0.257062
v 0.000000 1.136347 0.262098
v -0.051133 1.136347 0.257062
v -0.100301 1.136347 0.242147
v -0.145614 1.136347 0.217927
v -0.185331 1.136347 0.185331
v -0.217927 1.136347 0.145614
v -0.242147 1.136347 0.100301
v -0.257062 1.136347 0.051133
v -0.262098 1.136347 0.000000
v -0.257062 1.136347 -0.051133
v -0.242147 1.136347 -0.100301
v -0.217927 1.136347 -0.145614
v -0.185331 1.136347 -0.185331
v -0.145614 1.136347 -0.217927
v -0.100301 1.136347 -0.242147
v -0.051133 1.136347 -0.257062
v 0.110324 0.528260 -0.554636
v -0.000000 0.528260 -0.565502
v 0.216408 0.528260 -0.522456
v 0.314176 0.528260 -0.470198
v 0.399871 0.528260 -0.399870
v 0.470198 0.528260 -0.314176
v 0.522456 0.528260 -0.216408
v 0.554637 0.528260 -0.110324
v 0.565503 0.528260 0.000000
v 0.554637 0.528260 0.110325
v 0.522456 0.528260 0.216409
v 0.470198 0.528260 0.314177
v 0.399871 0.528260 0.399871
v 0.314176 0.528260 0.470199
v 0.216408 0.528260 0.522457
v 0.110324 0.528260 0.554637
v -0.000000 0.528260 0.565503
v -0.110324 0.528260 0.554637
v -0.216409 0.528260 0.522457
v -0.314177 0.528260 0.470199
v -0.399871 0.528260 0.399871
v -0.470199 0.528260 0.314177
v -0.522457 0.528260 0.216409
v -0.554637 0.528260 0.110325
v -0.565503 0.528260 0.000000
v -0.554637 0.528260 -0.110324
v -0.522457 0.528260 -0.216408
v -0.470199 0.528260 -0.314176
v -0.399871 0.528260 -0.399870
v -0.314177 0.528260 -0.470198
v -0.216409 0.528260 -0.522456
v -0.110324 0.528260 -0.554636
v 0.829873 0.916058 -0.113385
v 0.796977 0.853128 -0.117750
v 0.836048 0.916058 -0.050694
v 0.804635 0.853128 -0.039995
v 0.806872 0.578817 -0.121467
v 0.893676 0.516393 -0.121881
v 0.815065 0.578817 -0.038280
v 0.900282 0.516393 -0.054809
v 0.872660 0.650689 -0.127947
v 0.969748 0.676302 -0.129373
v 0.880853 0.650689 -0.044759
v 0.976354 0.676302 -0.062301
v 0.953967 0.829140 -0.125608
v 0.864904 0.822023 -0.124440
v 0.960142 0.829140 -0.062916
v 0.872562 0.822023 -0.046685
v 0.312327 0.001330 -0.030762
v 0.259580 1.136347 -0.025566
v 0.568328 0.295409 -0.055975
v 0.568328 0.984018 -0.055975
v 0.243445 0.001330 -0.023977
v 0.155323 0.024534 -0.015298
v 0.226428 1.136347 -0.022301
v 0.560070 0.528260 -0.055162
v 0.823535 0.936917 -0.081111
v 0.894907 0.491341 -0.088141
v 0.979719 0.669620 -0.096494
v 0.961884 0.840015 -0.094737
v 0.632251 0.512037 -0.062271
v 0.632251 0.767391 -0.062271
v 0.764003 0.809163 -0.075248
v 0.766397 0.569459 -0.075484
v 0.832185 0.641331 -0.081963
v 0.824161 0.812665 -0.081173
vn 0.0432 0.8976 -0.4386
vn 0.1279 0.8976 -0.4218
vn 0.2078 0.8976 -0.3887
vn 0.2796 0.8976 -0.3407
vn 0.3407 0.8976 -0.2796
vn 0.3887 0.8976 -0.2078
vn 0.4218 0.8976 -0.1279
vn 0.4386 0.8976 -0.0432
vn 0.4386 0.8976 0.0432
vn 0.4218 0.8976 0.1279
vn 0.3887 0.8976 0.2078
vn 0.3407 0.8976 0.2796
vn 0.2796 0.8976 0.3407
vn 0.2078 0.8976 0.3887
vn 0.1279 0.8976 0.4218
vn 0.0432 0.8976 0.4386
vn -0.0432 0.8976 0.4386
vn -0.1279 0.8976 0.4218
vn -0.2078 0.8976 0.3887
vn -0.2796 0.8976 0.3407
vn -0.3407 0.8976 0.2796
vn -0.3887 0.8976 0.2078
vn -0.4218 0.8976 0.1279
vn -0.4386 0.8976 0.0432
vn -0.4386 0.8976 -0.0432
vn -0.4218 0.8976 -0.1279
vn -0.3887 0.8976 -0.2078
vn -0.3407 0.8976 -0.2796
vn -0.2796 0.8976 -0.3407
vn -0.2078 0.8976 -0.3887
vn -0.4128 -0.4828 0.7723
vn -0.1279 0.8976 -0.4218
vn -0.0432 0.8976 -0.4386
vn -0.0000 -1.0000 -0.0000
vn -0.0738 -0.6584 -0.7491
vn -0.0940 -0.2843 -0.9541
vn -0.0980 -0.0000 -0.9952
vn -0.0940 0.2843 -0.9541
vn -0.2185 -0.6584 -0.7203
vn -0.2783 -0.2843 -0.9175
vn -0.2903 -0.0000 -0.9569
vn -0.2783 0.2843 -0.9175
vn -0.3548 -0.6584 -0.6638
vn -0.4519 -0.2843 -0.8455
vn -0.4714 -0.0000 -0.8819
vn -0.4519 0.2843 -0.8455
vn -0.4775 -0.6584 -0.5818
vn -0.6082 -0.2843 -0.7411
vn -0.6344 -0.0000 -0.7730
vn -0.6082 0.2843 -0.7411
vn -0.5818 -0.6584 -0.4775
vn -0.7411 -0.2843 -0.6082
vn -0.7730 -0.0000 -0.6344
vn -0.7411 0.2843 -0.6082
vn -0.6638 -0.6584 -0.3548
vn -0.8455 -0.2843 -0.4519
vn -0.8819 -0.0000 -0.4714
vn -0.8455 0.2843 -0.4519
vn -0.7203 -0.6584 -0.2185
vn -0.9175 -0.2843 -0.2783
vn -0.9569 -0.0000 -0.2903
vn -0.9175 0.2843 -0.2783
vn -0.7491 -0.6584 -0.0738
vn -0.9541 -0.2843 -0.0940
vn -0.9952 -0.0000 -0.0980
vn -0.9541 0.2843 -0.0940
vn -0.7491 -0.6584 0.0738
vn -0.9541 -0.2843 0.0940
vn -0.9952 -0.0000 0.0980
vn -0.9541 0.2843 0.0940
vn -0.7203 -0.6584 0.2185
vn -0.9175 -0.2843 0.2783
vn -0.9569 -0.0000 0.2903
vn -0.9175 0.2843 0.2783
vn -0.6638 -0.6584 0.3548
vn -0.8455 -0.2843 0.4519
vn -0.8819 -0.0000 0.4714
vn -0.8455 0.2843 0.4519
vn -0.5818 -0.6584 0.4775
vn -0.7411 -0.2843 0.6082
vn -0.7730 -0.0000 0.6344
vn -0.7411 0.2843 0.6082
vn -0.4775 -0.6584 0.5818
vn -0.6082 -0.2843 0.7411
vn -0.6344 -0.0000 0.7730
vn -0.6082 0.2843 0.7411
vn -0.3548 -0.6584 0.6638
vn -0.4519 -0.2843 0.8455
vn -0.4714 -0.0000 0.8819
vn -0.4519 0.2843 0.8455
vn -0.2185 -0.6584 0.7203
vn -0.2783 -0.2843 0.9175
vn -0.2903 -0.0000 0.9569
vn -0.2783 0.2843 0.9175
vn -0.0738 -0.6584 0.7491
vn -0.0940 -0.2843 0.9541
vn -0.0980 -0.0000 0.9952
vn -0.0940 0.2843 0.9541
vn 0.0738 -0.6584 0.7491
vn 0.0940 -0.2843 0.9541
vn 0.0980 -0.0000 0.9952
vn 0.0940 0.2843 0.9541
vn 0.2185 -0.6584 0.7203
vn 0.2783 -0.2843 0.9175
vn 0.2903 -0.0000 0.9569
vn 0.2783 0.2843 0.9175
vn 0.3548 -0.6584 0.6638
vn 0.4519 -0.2843 0.8455
vn 0.4714 -0.0000 0.8819
vn 0.4519 0.2843 0.8455
vn 0.4775 -0.6584 0.5818
vn 0.6082 -0.2843 0.7411
vn 0.6344 -0.0000 0.7730
vn 0.6082 0.2843 0.7411
vn 0.5818 -0.6584 0.4775
vn 0.7411 -0.2843 0.6082
vn 0.7730 -0.0000 0.6344
vn 0.7411 0.2843 0.6082
vn 0.6638 -0.6584 0.3548
vn 0.8455 -0.2843 0.4519
vn 0.8819 -0.0000 0.4714
vn 0.8455 0.2843 0.4519
vn 0.7203 -0.6584 0.2185
vn 0.9175 -0.2843 0.2783
vn 0.9569 -0.0000 0.2903
vn 0.9175 0.2843 0.2783
vn 0.7491 -0.6584 0.0738
vn 0.9541 -0.2843 0.0940
vn 0.9952 -0.0000 0.0980
vn 0.9541 0.2843 0.0940
vn 0.7491 -0.6584 -0.0738
vn 0.5102 -0.8586 -0.0502
vn 0.9952 -0.0000 -0.0980
vn 0.2995 -0.9537 -0.0295
vn 0.7203 -0.6584 -0.2185
vn 0.9175 -0.2843 -0.2783
vn 0.9569 -0.0000 -0.2903
vn 0.9175 0.2843 -0.2783
vn 0.6638 -0.6584 -0.3548
vn 0.8455 -0.2843 -0.4519
vn 0.8819 -0.0000 -0.4714
vn 0.8455 0.2843 -0.4519
vn 0.5818 -0.6584 -0.4775
vn 0.7411 -0.2843 -0.6082
vn 0.7730 -0.0000 -0.6344
vn 0.7411 0.2843 -0.6082
vn 0.4775 -0.6584 -0.5818
vn 0.6082 -0.2843 -0.7411
vn 0.6344 -0.0000 -0.7730
vn 0.6082 0.2843 -0.7411
vn 0.3548 -0.6584 -0.6638
vn 0.4519 -0.2843 -0.8455
vn 0.4714 -0.0000 -0.8819
vn 0.4519 0.2843 -0.8455
vn 0.2185 -0.6584 -0.7203
vn 0.2783 -0.2843 -0.9175
vn 0.2903 -0.0000 -0.9569
vn 0.2783 0.2843 -0.9175
vn 0.0738 -0.6584 -0.7491
vn 0.0940 -0.2843 -0.9541
vn 0.0980 -0.0000 -0.9952
vn 0.0940 0.2843 -0.9541
vn -0.0248 -0.9673 0.2523
vn -0.0736 -0.9673 0.2426
vn -0.1195 -0.9673 0.2236
vn -0.1608 -0.9673 0.1960
vn -0.1960 -0.9673 0.1608
vn -0.2236 -0.9673 0.1195
vn -0.2426 -0.9673 0.0736
vn -0.2523 -0.9673 0.0248
vn -0.2523 -0.9673 -0.0248
vn -0.2426 -0.9673 -0.0736
vn -0.2236 -0.9673 -0.1195
vn -0.1960 -0.9673 -0.1608
vn -0.1608 -0.9673 -0.1960
vn -0.1195 -0.9673 -0.2236
vn -0.0736 -0.9673 -0.2426
vn -0.0248 -0.9673 -0.2523
vn 0.0248 -0.9673 -0.2523
vn 0.0736 -0.9673 -0.2426
vn 0.1195 -0.9673 -0.2236
vn 0.1608 -0.9673 -0.1960
vn 0.1960 -0.9673 -0.1608
vn 0.2236 -0.9673 -0.1195
vn 0.2426 -0.9673 -0.0736
vn 0.2523 -0.9673 -0.0248
vn 0.2523 -0.9673 0.0248
vn 0.2426 -0.9673 0.0736
vn 0.2236 -0.9673 0.1195
vn 0.1960 -0.9673 0.1608
vn 0.1608 -0.9673 0.1960
vn 0.1195 -0.9673 0.2236
vn 0.0736 -0.9673 0.2426
vn 0.0248 -0.9673 0.2523
vn -0.0000 1.0000 -0.0000
vn 0.4128 -0.4828 0.7723
vn 0.0858 -0.4828 -0.8715
vn -0.5556 -0.4828 0.6769
vn 0.2542 -0.4828 0.8380
vn 0.2542 -0.4828 -0.8380
vn -0.6769 -0.4828 0.5556
vn 0.0858 -0.4828 0.8715
vn 0.4128 -0.4828 -0.7723
vn -0.7723 -0.4828 0.4128
vn 0.5556 -0.4828 -0.6769
vn -0.8380 -0.4828 0.2542
vn 0.6769 -0.4828 -0.5556
vn -0.8715 -0.4828 0.0858
vn 0.7723 -0.4828 -0.4128
vn -0.8715 -0.4828 -0.0858
vn 0.8380 -0.4828 -0.2542
vn -0.8380 -0.4828 -0.2542
vn 0.8715 -0.4828 -0.0858
vn -0.7723 -0.4828 -0.4128
vn 0.8715 -0.4828 0.0858
vn -0.6769 -0.4828 -0.5556
vn 0.8380 -0.4828 0.2542
vn -0.5556 -0.4828 -0.6769
vn 0.7723 -0.4828 0.4128
vn -0.4128 -0.4828 -0.7723
vn -0.0858 -0.4828 0.8715
vn 0.6769 -0.4828 0.5556
vn -0.2542 -0.4828 -0.8380
vn -0.2542 -0.4828 0.8380
vn 0.5556 -0.4828 0.6769
vn -0.0858 -0.4828 -0.8715
vn 0.5676 0.7691 0.2939
vn 0.2053 0.0636 0.9766
vn 0.0092 0.0607 -0.9981
vn 0.1798 0.9835 -0.0177
vn 0.1536 -0.0516 0.9868
vn 0.2045 0.0200 0.9787
vn 0.0109 -0.0612 -0.9981
vn -0.3900 0.9200 0.0384
vn 0.8428 -0.4169 -0.3403
vn -0.0027 -0.0455 -0.9990
vn -0.5651 0.5709 0.5956
vn 0.1726 0.1087 0.9790
vn -0.0323 -0.6821 -0.7306
vn -0.0535 0.0969 -0.9939
vn 0.9907 0.1028 0.0894
vn 0.1804 0.0231 0.9833
vn -0.7470 -0.0319 -0.6640
vn -0.0198 0.0196 -0.9996
vn 0.9574 0.1055 -0.2689
vn 0.8930 -0.4169 0.1693
vn 0.2109 0.8393 -0.5011
vn 0.4994 0.7691 -0.3990
vn 0.5526 -0.7066 0.4420
vn -0.5778 -0.0188 0.8160
vn -0.2833 -0.7478 0.6005
vn -0.6704 0.5709 -0.4739
vn -0.3427 0.9328 -0.1118
vn 0.4943 -0.7740 0.3956
vn 0.4557 -0.7066 -0.5413
vn 0.4077 -0.7740 -0.4844
vn 0.2038 0.0607 0.9771
vn 0.0108 0.0636 -0.9979
vn 0.3046 0.8393 0.4503
vn 0.1923 -0.0455 0.9803
vn 0.2054 -0.0612 0.9768
vn 0.0096 0.0200 -0.9998
vn -0.3143 0.9328 0.1765
vn -0.0419 -0.0516 -0.9978
vn 0.1414 0.0969 0.9852
vn -0.3950 -0.7478 -0.5337
vn -0.0217 0.1087 -0.9938
vn 0.9914 0.1055 0.0769
vn 0.1755 0.0196 0.9843
vn -0.7259 -0.0188 -0.6876
vn -0.0149 0.0231 -0.9996
vn 0.9542 0.1028 -0.2809
vn -0.6031 -0.0319 0.7970
vn 0.1109 -0.6821 0.7228
vt 0.750000 0.369354
vt 0.250000 0.459349
vt 0.773285 0.367061
vt 0.290842 0.455326
vt 0.795675 0.360269
vt 0.330114 0.443413
vt 0.816309 0.349239
vt 0.366308 0.424067
vt 0.834396 0.334396
vt 0.398032 0.398032
vt 0.849239 0.316309
vt 0.424067 0.366308
vt 0.860269 0.295675
vt 0.443413 0.330114
vt 0.867061 0.273285
vt 0.455326 0.290842
vt 0.869354 0.250000
vt 0.459349 0.250000
vt 0.867061 0.226715
vt 0.455326 0.209158
vt 0.860269 0.204325
vt 0.443413 0.169886
vt 0.849239 0.183691
vt 0.424067 0.133692
vt 0.834396 0.165604
vt 0.398032 0.101968
vt 0.816309 0.150761
vt 0.366308 0.075933
vt 0.795675 0.139731
vt 0.330114 0.056587
vt 0.773285 0.132939
vt 0.290842 0.044674
vt 0.750000 0.130646
vt 0.250000 0.040652
vt 0.726715 0.132940
vt 0.209158 0.044674
vt 0.704325 0.139731
vt 0.169886 0.056587
vt 0.683691 0.150761
vt 0.133692 0.075933
vt 0.665604 0.165604
vt 0.101968 0.101968
vt 0.650761 0.183691
vt 0.075933 0.133692
vt 0.639731 0.204325
vt 0.056587 0.169886
vt 0.632940 0.226715
vt 0.044674 0.209158
vt 0.630646 0.250000
vt 0.040652 0.250000
vt 0.632940 0.273285
vt 0.044674 0.290842
vt 0.639731 0.295675
vt 0.056587 0.330114
vt 0.650761 0.316309
vt 0.075933 0.366308
vt 0.665604 0.334396
vt 0.101968 0.398032
vt 0.683690 0.349239
vt 0.133692 0.424067
vt 0.704325 0.360269
vt 0.169886 0.443413
vt 0.726715 0.367060
vt 0.209158 0.455326
vt 0.000000 0.600000
vt 1.000000 0.600000
vt 0.000000 0.700000
vt 1.000000 0.700000
vt 0.000000 0.800000
vt 1.000000 0.800000
vt 0.000000 0.900000
vt 1.000000 0.900000
vt 0.968750 0.900000
vt 0.968750 0.800000
vt 0.968750 0.700000
vt 0.968750 0.600000
vt 0.937500 0.900000
vt 0.937500 0.800000
vt 0.937500 0.700000
vt 0.937500 0.600000
vt 0.906250 0.900000
vt 0.906250 0.800000
vt 0.906250 0.700000
vt 0.906250 0.600000
vt 0.875000 0.900000
vt 0.875000 0.800000
vt 0.875000 0.700000
vt 0.875000 0.600000
vt 0.843750 0.900000
vt 0.843750 0.800000
vt 0.843750 0.700000
vt 0.843750 0.600000
vt 0.812500 0.900000
vt 0.812500 0.800000
vt 0.812500 0.700000
vt 0.812500 0.600000
vt 0.781250 0.900000
vt 0.781250 0.800000
vt 0.781250 0.700000
vt 0.781250 0.600000
vt 0.750000 0.900000
vt 0.750000 0.800000
vt 0.750000 0.700000
vt 0.750000 0.600000
vt 0.718750 0.900000
vt 0.718750 0.800000
vt 0.718750 0.700000
vt 0.718750 0.600000
vt 0.687500 0.900000
vt 0.687500 0.800000
vt 0.687500 0.700000
vt 0.687500 0.600000
vt 0.656250 0.900000
vt 0.656250 0.800000
vt 0.656250 0.700000
vt 0.656250 0.600000
vt 0.625000 0.900000
vt 0.625000 0.800000
vt 0.625000 0.700000
vt 0.625000 0.600000
vt 0.593750 0.900000
vt 0.593750 0.800000
vt 0.593750 0.700000
vt 0.593750 0.600000
vt 0.562500 0.900000
vt 0.562500 0.800000
vt 0.562500 0.700000
vt 0.562500 0.600000
vt 0.531250 0.900000
vt 0.531250 0.800000
vt 0.531250 0.700000
vt 0.531250 0.600000
vt 0.500000 0.900000
vt 0.500000 0.800000
vt 0.500000 0.700000
vt 0.500000 0.600000
vt 0.468750 0.900000
vt 0.468750 0.800000
vt 0.468750 0.700000
vt 0.468750 0.600000
vt 0.437500 0.900000
vt 0.437500 0.800000
vt 0.437500 0.700000
vt 0.437500 0.600000
vt 0.406250 0.900000
vt 0.406250 0.800000
vt 0.406250 0.700000
vt 0.406250 0.600000
vt 0.375000 0.900000
vt 0.375000 0.800000
vt 0.375000 0.700000
vt 0.375000 0.600000
vt 0.343750 0.900000
vt 0.343750 0.800000
vt 0.343750 0.700000
vt 0.343750 0.600000
vt 0.312500 0.900000
vt 0.312500 0.800000
vt 0.312500 0.700000
vt 0.312500 0.600000
vt 0.281250 0.900000
vt 0.281250 0.800000
vt 0.281250 0.700000
vt 0.281250 0.600000
vt 0.250000 0.900000
vt 0.250000 0.800000
vt 0.250000 0.700000
vt 0.250000 0.600000
vt 0.218750 0.900000
vt 0.218750 0.800000
vt 0.218750 0.700000
vt 0.218750 0.600000
vt 0.187500 0.900000
vt 0.187500 0.800000
vt 0.187500 0.700000
vt 0.187500 0.600000
vt 0.156250 0.900000
vt 0.156250 0.800000
vt 0.156250 0.700000
vt 0.156250 0.600000
vt 0.125000 0.900000
vt 0.125000 0.800000
vt 0.125000 0.700000
vt 0.125000 0.600000
vt 0.093750 0.900000
vt 0.093750 0.800000
vt 0.093750 0.700000
vt 0.093750 0.600000
vt 0.062500 0.900000
vt 0.062500 0.800000
vt 0.062500 0.700000
vt 0.062500 0.600000
vt 0.031250 0.900000
vt 0.031250 0.800000
vt 0.031250 0.700000
vt 0.031250 0.600000
vt 0.000000 0.500000
vt 1.000000 0.500000
vt 0.750000 0.490000
vt 0.968750 0.500000
vt 0.796822 0.485388
vt 0.937500 0.500000
vt 0.841844 0.471731
vt 0.906250 0.500000
vt 0.883337 0.449553
vt 0.875000 0.500000
vt 0.919706 0.419706
vt 0.843750 0.500000
vt 0.949553 0.383337
vt 0.812500 0.500000
vt 0.971731 0.341844
vt 0.985388 0.296822
vt 0.781250 0.500000
vt 0.750000 0.500000
vt 0.990000 0.250000
vt 0.718750 0.500000
vt 0.985388 0.203178
vt 0.687500 0.500000
vt 0.971731 0.158156
vt 0.656250 0.500000
vt 0.949553 0.116663
vt 0.625000 0.500000
vt 0.919706 0.080294
vt 0.593750 0.500000
vt 0.883337 0.050447
vt 0.562500 0.500000
vt 0.841844 0.028269
vt 0.531250 0.500000
vt 0.796822 0.014612
vt 0.500000 0.500000
vt 0.750000 0.010000
vt 0.468750 0.500000
vt 0.703178 0.014612
vt 0.437500 0.500000
vt 0.658156 0.028269
vt 0.406250 0.500000
vt 0.616663 0.050447
vt 0.375000 0.500000
vt 0.580294 0.080294
vt 0.343750 0.500000
vt 0.550447 0.116663
vt 0.312500 0.500000
vt 0.528269 0.158156
vt 0.281250 0.500000
vt 0.514612 0.203178
vt 0.250000 0.500000
vt 0.510000 0.250000
vt 0.218750 0.500000
vt 0.514612 0.296822
vt 0.187500 0.500000
vt 0.528269 0.341844
vt 0.156250 0.500000
vt 0.550447 0.383337
vt 0.125000 0.500000
vt 0.580294 0.419706
vt 0.093750 0.500000
vt 0.616663 0.449553
vt 0.062500 0.500000
vt 0.658156 0.471731
vt 0.031250 0.500000
vt 0.703178 0.485388
vt 0.750000 0.437070
vt 0.786495 0.433475
vt 0.821588 0.422830
vt 0.853930 0.405543
vt 0.882278 0.382278
vt 0.905543 0.353930
vt 0.922830 0.321588
vt 0.933475 0.286496
vt 0.937069 0.250000
vt 0.933475 0.213505
vt 0.922830 0.178412
vt 0.905543 0.146070
vt 0.882278 0.117722
vt 0.853930 0.094457
vt 0.821588 0.077170
vt 0.786496 0.066525
vt 0.750000 0.062930
vt 0.713505 0.066525
vt 0.678412 0.077170
vt 0.646070 0.094457
vt 0.617722 0.117722
vt 0.594457 0.146070
vt 0.577170 0.178412
vt 0.566525 0.213505
vt 0.562930 0.250000
vt 0.566525 0.286496
vt 0.577170 0.321588
vt 0.594457 0.353930
vt 0.617722 0.382278
vt 0.646070 0.405543
vt 0.678412 0.422830
vt 0.713504 0.433475
vt 0.968750 1.000000
vt 0.296822 0.485388
vt 1.000000 1.000000
vt 0.000000 1.000000
vt 0.250000 0.490000
vt 0.937500 1.000000
vt 0.341844 0.471731
vt 0.906250 1.000000
vt 0.383337 0.449553
vt 0.875000 1.000000
vt 0.419706 0.419706
vt 0.843750 1.000000
vt 0.449553 0.383337
vt 0.812500 1.000000
vt 0.471731 0.341844
vt 0.485388 0.296822
vt 0.781250 1.000000
vt 0.750000 1.000000
vt 0.490000 0.250000
vt 0.718750 1.000000
vt 0.485388 0.203178
vt 0.687500 1.000000
vt 0.471731 0.158156
vt 0.656250 1.000000
vt 0.449553 0.116663
vt 0.625000 1.000000
vt 0.419706 0.080294
vt 0.593750 1.000000
vt 0.383337 0.050447
vt 0.562500 1.000000
vt 0.341844 0.028269
vt 0.531250 1.000000
vt 0.296822 0.014612
vt 0.500000 1.000000
vt 0.250000 0.010000
vt 0.468750 1.000000
vt 0.203178 0.014612
vt 0.437500 1.000000
vt 0.158156 0.028269
vt 0.406250 1.000000
vt 0.116663 0.050447
vt 0.375000 1.000000
vt 0.080294 0.080294
vt 0.343750 1.000000
vt 0.050447 0.116663
vt 0.312500 1.000000
vt 0.028269 0.158156
vt 0.281250 1.000000
vt 0.014612 0.203178
vt 0.250000 1.000000
vt 0.010000 0.250000
vt 0.218750 1.000000
vt 0.014612 0.296822
vt 0.187500 1.000000
vt 0.028269 0.341844
vt 0.156250 1.000000
vt 0.050447 0.383337
vt 0.125000 1.000000
vt 0.080294 0.419706
vt 0.093750 1.000000
vt 0.116663 0.449553
vt 0.062500 1.000000
vt 0.158156 0.471731
vt 0.031250 1.000000
vt 0.203178 0.485388
vt 0.290842 0.455326
vt 0.250000 0.459349
vt 0.330114 0.443413
vt 0.366308 0.424067
vt 0.398032 0.398032
vt 0.424067 0.366308
vt 0.443413 0.330114
vt 0.455326 0.290842
vt 0.459349 0.250000
vt 0.455326 0.209158
vt 0.443413 0.169886
vt 0.424067 0.133692
vt 0.398032 0.101968
vt 0.366308 0.075933
vt 0.330114 0.056587
vt 0.290842 0.044674
vt 0.250000 0.040652
vt 0.209158 0.044674
vt 0.169886 0.056587
vt 0.133692 0.075933
vt 0.101968 0.101968
vt 0.075933 0.133692
vt 0.056587 0.169886
vt 0.044674 0.209158
vt 0.040652 0.250000
vt 0.044674 0.290842
vt 0.056587 0.330114
vt 0.075933 0.366308
vt 0.101968 0.398032
vt 0.133692 0.424067
vt 0.169886 0.443413
vt 0.209158 0.455326
vt 0.781250 0.900000
vt 0.781250 0.800000
vt 0.750000 0.900000
vt 0.750000 0.800000
vt 0.781250 0.700000
vt 0.781250 0.600000
vt 0.750000 0.700000
vt 0.750000 0.600000
vt 0.781250 0.700000
vt 0.781250 0.600000
vt 0.750000 0.700000
vt 0.750000 0.600000
vt 0.781250 0.900000
vt 0.781250 0.800000
vt 0.750000 0.900000
vt 0.750000 0.800000
vt 0.765625 0.500000
vt 0.987694 0.273411
vt 0.487694 0.273411
vt 0.765625 1.000000
vt 0.765625 0.600000
vt 0.765625 0.900000
vt 0.935272 0.268248
vt 0.868207 0.261642
vt 0.457337 0.270421
vt 0.457337 0.270421
vt 0.765625 0.900000
vt 0.765625 0.600000
vt 0.765625 0.600000
vt 0.765625 0.900000
vt 0.765625 0.700000
vt 0.765625 0.800000
vt 0.765625 0.800000
vt 0.765625 0.700000
vt 0.765625 0.700000
vt 0.765625 0.800000
s 0
f 258/296/1 69/73/1 68/72/1
f 257/294/2 73/77/2 69/73/2
f 259/299/3 77/81/3 73/77/3
f 77/81/4 261/303/4 81/85/4
f 261/303/5 85/89/5 81/85/5
f 85/89/6 263/307/6 89/93/6
f 263/307/7 93/97/7 89/93/7
f 340/412/8 265/311/8 97/101/8
f 265/311/9 101/105/9 97/101/9
f 266/313/10 105/109/10 101/105/10
f 267/315/11 109/113/11 105/109/11
f 268/317/12 113/117/12 109/113/12
f 269/319/13 117/121/13 113/117/13
f 270/321/14 121/125/14 117/121/14
f 271/323/15 125/129/15 121/125/15
f 272/325/16 129/133/16 125/129/16
f 273/327/17 133/137/17 129/133/17
f 274/329/18 137/141/18 133/137/18
f 275/331/19 141/145/19 137/141/19
f 141/145/20 277/335/20 145/149/20
f 145/149/21 278/337/21 149/153/21
f 278/337/22 153/157/22 149/153/22
f 153/157/23 280/341/23 157/161/23
f 157/161/24 281/343/24 161/165/24
f 161/165/25 282/345/25 165/169/25
f 282/345/26 169/173/26 165/169/26
f 169/173/27 284/349/27 173/177/27
f 173/177/28 285/351/28 177/181/28
f 177/181/29 286/353/29 181/185/29
f 286/353/30 185/189/30 181/185/30
f 8/8/31 291/361/31 292/362/31
f 185/189/32 288/357/32 189/193/32
f 189/193/33 258/297/33 68/71/33
f 25/25/34 41/41/34 57/57/34
f 192/196/35 193/197/35 224/260/35
f 191/195/36 65/65/36 192/196/36
f 190/194/37 66/67/37 191/195/37
f 189/193/38 67/69/38 190/194/38
f 188/192/39 224/260/39 223/258/39
f 188/192/40 191/195/40 192/196/40
f 186/190/41 191/195/41 187/191/41
f 186/190/42 189/193/42 190/194/42
f 184/188/43 223/258/43 222/256/43
f 183/187/44 188/192/44 184/188/44
f 182/186/45 187/191/45 183/187/45
f 181/185/46 186/190/46 182/186/46
f 180/184/47 222/256/47 221/254/47
f 180/184/48 183/187/48 184/188/48
f 178/182/49 183/187/49 179/183/49
f 177/181/50 182/186/50 178/182/50
f 176/180/51 221/254/51 220/252/51
f 175/179/52 180/184/52 176/180/52
f 174/178/53 179/183/53 175/179/53
f 173/177/54 178/182/54 174/178/54
f 172/176/55 220/252/55 219/250/55
f 171/175/56 176/180/56 172/176/56
f 170/174/57 175/179/57 171/175/57
f 169/173/58 174/178/58 170/174/58
f 168/172/59 219/250/59 218/248/59
f 167/171/60 172/176/60 168/172/60
f 166/170/61 171/175/61 167/171/61
f 165/169/62 170/174/62 166/170/62
f 164/168/63 218/248/63 217/246/63
f 164/168/64 167/171/64 168/172/64
f 162/166/65 167/171/65 163/167/65
f 161/165/66 166/170/66 162/166/66
f 160/164/67 217/246/67 216/244/67
f 160/164/68 163/167/68 164/168/68
f 158/162/69 163/167/69 159/163/69
f 157/161/70 162/166/70 158/162/70
f 156/160/71 216/244/71 215/242/71
f 156/160/72 159/163/72 160/164/72
f 154/158/73 159/163/73 155/159/73
f 153/157/74 158/162/74 154/158/74
f 152/156/75 215/242/75 214/240/75
f 152/156/76 155/159/76 156/160/76
f 150/154/77 155/159/77 151/155/77
f 149/153/78 154/158/78 150/154/78
f 148/152/79 214/240/79 213/238/79
f 148/152/80 151/155/80 152/156/80
f 146/150/81 151/155/81 147/151/81
f 145/149/82 150/154/82 146/150/82
f 144/148/83 213/238/83 212/236/83
f 143/147/84 148/152/84 144/148/84
f 142/146/85 147/151/85 143/147/85
f 141/145/86 146/150/86 142/146/86
f 140/144/87 212/236/87 211/234/87
f 139/143/88 144/148/88 140/144/88
f 138/142/89 143/147/89 139/143/89
f 137/141/90 142/146/90 138/142/90
f 136/140/91 211/234/91 210/232/91
f 135/139/92 140/144/92 136/140/92
f 134/138/93 139/143/93 135/139/93
f 133/137/94 138/142/94 134/138/94
f 132/136/95 210/232/95 209/230/95
f 131/135/96 136/140/96 132/136/96
f 130/134/97 135/139/97 131/135/97
f 129/133/98 134/138/98 130/134/98
f 208/228/99 132/136/99 209/230/99
f 127/131/100 132/136/100 128/132/100
f 126/130/101 131/135/101 127/131/101
f 126/130/102 129/133/102 130/134/102
f 207/226/103 128/132/103 208/228/103
f 123/127/104 128/132/104 124/128/104
f 122/126/105 127/131/105 123/127/105
f 121/125/106 126/130/106 122/126/106
f 120/124/107 207/226/107 206/224/107
f 119/123/108 124/128/108 120/124/108
f 118/122/109 123/127/109 119/123/109
f 117/121/110 122/126/110 118/122/110
f 116/120/111 206/224/111 205/222/111
f 115/119/112 120/124/112 116/120/112
f 114/118/113 119/123/113 115/119/113
f 113/117/114 118/122/114 114/118/114
f 204/220/115 116/120/115 205/222/115
f 111/115/116 116/120/116 112/116/116
f 110/114/117 115/119/117 111/115/117
f 110/114/118 113/117/118 114/118/118
f 108/112/119 204/220/119 203/218/119
f 107/111/120 112/116/120 108/112/120
f 106/110/121 111/115/121 107/111/121
f 106/110/122 109/113/122 110/114/122
f 202/216/123 108/112/123 203/218/123
f 103/107/124 108/112/124 104/108/124
f 102/106/125 107/111/125 103/107/125
f 102/106/126 105/109/126 106/110/126
f 201/214/127 104/108/127 202/216/127
f 99/103/128 104/108/128 100/104/128
f 98/102/129 103/107/129 99/103/129
f 98/102/130 101/105/130 102/106/130
f 339/411/131 201/214/131 337/407/131
f 96/100/132 346/418/132 339/411/132
f 350/422/133 99/103/133 349/421/133
f 94/98/134 351/423/134 350/422/134
f 199/210/135 96/100/135 200/213/135
f 91/95/136 96/100/136 92/96/136
f 90/94/137 95/99/137 91/95/137
f 90/94/138 93/97/138 94/98/138
f 198/208/139 92/96/139 199/210/139
f 87/91/140 92/96/140 88/92/140
f 86/90/141 91/95/141 87/91/141
f 86/90/142 89/93/142 90/94/142
f 84/88/143 198/208/143 197/206/143
f 83/87/144 88/92/144 84/88/144
f 82/86/145 87/91/145 83/87/145
f 81/85/146 86/90/146 82/86/146
f 196/204/147 84/88/147 197/206/147
f 79/83/148 84/88/148 80/84/148
f 78/82/149 83/87/149 79/83/149
f 77/81/150 82/86/150 78/82/150
f 76/80/151 196/204/151 195/202/151
f 75/79/152 80/84/152 76/80/152
f 74/78/153 79/83/153 75/79/153
f 74/78/154 77/81/154 78/82/154
f 194/200/155 76/80/155 195/202/155
f 71/75/156 76/80/156 72/76/156
f 70/74/157 75/79/157 71/75/157
f 69/73/158 74/78/158 70/74/158
f 193/198/159 72/76/159 194/200/159
f 66/68/160 72/76/160 65/66/160
f 67/70/161 71/75/161 66/68/161
f 68/72/162 70/74/162 67/70/162
f 226/263/34 193/199/34 194/201/34
f 226/263/34 195/203/34 227/264/34
f 227/264/34 196/205/34 228/265/34
f 228/265/34 197/207/34 229/266/34
f 230/267/34 197/207/34 198/209/34
f 230/267/34 199/211/34 231/268/34
f 232/269/34 199/211/34 200/212/34
f 232/269/34 337/408/34 341/413/34
f 234/271/34 201/215/34 202/217/34
f 234/271/34 203/219/34 235/272/34
f 235/272/34 204/221/34 236/273/34
f 236/273/34 205/223/34 237/274/34
f 238/275/34 205/223/34 206/225/34
f 238/275/34 207/227/34 239/276/34
f 240/277/34 207/227/34 208/229/34
f 240/277/34 209/231/34 241/278/34
f 242/279/34 209/231/34 210/233/34
f 242/279/34 211/235/34 243/280/34
f 243/280/34 212/237/34 244/281/34
f 244/281/34 213/239/34 245/282/34
f 246/283/34 213/239/34 214/241/34
f 246/283/34 215/243/34 247/284/34
f 248/285/34 215/243/34 216/245/34
f 248/285/34 217/247/34 249/286/34
f 250/287/34 217/247/34 218/249/34
f 250/287/34 219/251/34 251/288/34
f 251/288/34 220/253/34 252/289/34
f 252/289/34 221/255/34 253/290/34
f 254/291/34 221/255/34 222/257/34
f 254/291/34 223/259/34 255/292/34
f 256/293/34 223/259/34 224/261/34
f 256/293/34 193/199/34 225/262/34
f 3/3/163 225/262/163 226/263/163
f 3/3/164 227/264/164 5/5/164
f 5/5/165 228/265/165 7/7/165
f 7/7/166 229/266/166 9/9/166
f 11/11/167 229/266/167 230/267/167
f 11/11/168 231/268/168 13/13/168
f 15/15/169 231/268/169 232/269/169
f 15/15/170 341/413/170 342/414/170
f 19/19/171 233/270/171 234/271/171
f 19/19/172 235/272/172 21/21/172
f 21/21/173 236/273/173 23/23/173
f 23/23/174 237/274/174 25/25/174
f 27/27/175 237/274/175 238/275/175
f 27/27/176 239/276/176 29/29/176
f 31/31/177 239/276/177 240/277/177
f 31/31/178 241/278/178 33/33/178
f 35/35/179 241/278/179 242/279/179
f 35/35/180 243/280/180 37/37/180
f 37/37/181 244/281/181 39/39/181
f 39/39/182 245/282/182 41/41/182
f 43/43/183 245/282/183 246/283/183
f 43/43/184 247/284/184 45/45/184
f 47/47/185 247/284/185 248/285/185
f 47/47/186 249/286/186 49/49/186
f 51/51/187 249/286/187 250/287/187
f 51/51/188 251/288/188 53/53/188
f 53/53/189 252/289/189 55/55/189
f 55/55/190 253/290/190 57/57/190
f 59/59/191 253/290/191 254/291/191
f 59/59/192 255/292/192 61/61/192
f 63/63/193 255/292/193 256/293/193
f 63/63/194 225/262/194 1/1/194
f 4/4/195 258/298/195 2/2/195
f 4/4/195 259/300/195 257/295/195
f 6/6/195 260/302/195 259/300/195
f 10/10/195 260/302/195 8/8/195
f 10/10/195 262/306/195 261/304/195
f 14/14/195 262/306/195 12/12/195
f 16/16/195 263/308/195 14/14/195
f 18/18/195 338/409/195 343/415/195
f 20/20/195 265/312/195 18/18/195
f 20/20/195 267/316/195 266/314/195
f 22/22/195 268/318/195 267/316/195
f 26/26/195 268/318/195 24/24/195
f 26/26/195 270/322/195 269/320/195
f 30/30/195 270/322/195 28/28/195
f 32/32/195 271/324/195 30/30/195
f 34/34/195 272/326/195 32/32/195
f 36/36/195 273/328/195 34/34/195
f 36/36/195 275/332/195 274/330/195
f 38/38/195 276/334/195 275/332/195
f 42/42/195 276/334/195 40/40/195
f 42/42/195 278/338/195 277/336/195
f 46/46/195 278/338/195 44/44/195
f 48/48/195 279/340/195 46/46/195
f 50/50/195 280/342/195 48/48/195
f 52/52/195 281/344/195 50/50/195
f 52/52/195 283/348/195 282/346/195
f 54/54/195 284/350/195 283/348/195
f 58/58/195 284/350/195 56/56/195
f 58/58/195 286/354/195 285/352/195
f 62/62/195 286/354/195 60/60/195
f 64/64/195 287/356/195 62/62/195
f 2/2/195 288/358/195 64/64/195
f 307/377/195 295/365/195 291/361/195
f 60/60/196 319/389/196 62/62/196
f 36/36/197 305/375/197 306/376/197
f 10/10/198 292/362/198 293/363/198
f 62/62/199 320/390/199 64/64/199
f 36/36/200 307/377/200 38/38/200
f 12/12/201 293/363/201 294/364/201
f 64/64/202 290/360/202 2/2/202
f 38/38/203 308/378/203 40/40/203
f 12/12/204 295/365/204 14/14/204
f 40/40/205 309/379/205 42/42/205
f 14/14/206 296/366/206 16/16/206
f 42/42/207 310/380/207 44/44/207
f 16/16/208 344/416/208 343/415/208
f 44/44/209 311/381/209 46/46/209
f 18/18/210 298/368/210 20/20/210
f 46/46/211 312/382/211 48/48/211
f 20/20/212 299/369/212 22/22/212
f 48/48/213 313/383/213 50/50/213
f 22/22/214 300/370/214 24/24/214
f 50/50/215 314/384/215 52/52/215
f 24/24/216 301/371/216 26/26/216
f 52/52/217 315/385/217 54/54/217
f 26/26/218 302/372/218 28/28/218
f 54/54/219 316/386/219 56/56/219
f 28/28/220 303/373/220 30/30/220
f 2/2/221 289/359/221 4/4/221
f 56/56/222 317/387/222 58/58/222
f 30/30/223 304/374/223 32/32/223
f 4/4/224 291/361/224 6/6/224
f 60/60/225 317/387/225 318/388/225
f 34/34/226 304/374/226 305/375/226
f 323/393/227 348/420/227 345/417/227
f 97/101/228 324/394/228 323/393/228
f 93/97/229 322/392/229 94/98/229
f 97/101/230 345/417/230 340/412/230
f 328/398/231 331/401/231 327/397/231
f 99/103/232 328/398/232 327/397/232
f 95/99/233 326/396/233 96/100/233
f 99/103/234 352/424/234 349/421/234
f 326/396/235 347/419/235 346/418/235
f 326/396/236 329/399/236 330/400/236
f 327/397/237 353/425/237 352/424/237
f 323/393/238 336/406/238 335/405/238
f 322/392/239 354/426/239 351/423/239
f 321/391/240 334/404/240 322/392/240
f 335/405/241 347/419/241 348/420/241
f 336/406/242 332/402/242 335/405/242
f 354/426/243 329/399/243 353/425/243
f 334/404/244 330/400/244 329/399/244
f 333/403/245 347/419/245 330/400/245
f 328/398/246 347/419/246 332/402/246
f 93/97/247 345/417/247 321/391/247
f 321/391/248 348/420/248 333/403/248
f 18/18/208 344/416/208 297/367/208
f 16/16/195 338/409/195 264/309/195
f 17/17/170 341/413/170 233/270/170
f 233/270/34 337/408/34 201/215/34
f 100/104/249 346/418/249 328/398/249
f 200/213/131 339/411/131 337/407/131
f 264/310/8 340/412/8 93/97/8
f 354/426/250 331/401/250 336/406/250
f 324/394/251 354/426/251 336/406/251
f 325/395/252 353/425/252 329/399/252
f 95/99/253 352/424/253 325/395/253
f 98/102/254 351/423/254 324/394/254
f 94/98/133 349/421/133 95/99/133
f 258/296/1 257/294/1 69/73/1
f 257/294/2 259/299/2 73/77/2
f 259/299/3 260/301/3 77/81/3
f 77/81/4 260/301/4 261/303/4
f 261/303/5 262/305/5 85/89/5
f 85/89/6 262/305/6 263/307/6
f 263/307/7 264/310/7 93/97/7
f 340/412/8 338/410/8 265/311/8
f 265/311/9 266/313/9 101/105/9
f 266/313/10 267/315/10 105/109/10
f 267/315/11 268/317/11 109/113/11
f 268/317/12 269/319/12 113/117/12
f 269/319/13 270/321/13 117/121/13
f 270/321/14 271/323/14 121/125/14
f 271/323/15 272/325/15 125/129/15
f 272/325/16 273/327/16 129/133/16
f 273/327/17 274/329/17 133/137/17
f 274/329/18 275/331/18 137/141/18
f 275/331/19 276/333/19 141/145/19
f 141/145/20 276/333/20 277/335/20
f 145/149/21 277/335/21 278/337/21
f 278/337/22 279/339/22 153/157/22
f 153/157/23 279/339/23 280/341/23
f 157/161/24 280/341/24 281/343/24
f 161/165/25 281/343/25 282/345/25
f 282/345/26 283/347/26 169/173/26
f 169/173/27 283/347/27 284/349/27
f 173/177/28 284/349/28 285/351/28
f 177/181/29 285/351/29 286/353/29
f 286/353/30 287/355/30 185/189/30
f 8/8/31 6/6/31 291/361/31
f 185/189/32 287/355/32 288/357/32
f 189/193/33 288/357/33 258/297/33
f 63/63/34 1/1/34 3/3/34
f 3/3/34 5/5/34 7/7/34
f 7/7/34 9/9/34 11/11/34
f 11/11/34 13/13/34 15/15/34
f 342/414/34 17/17/34 19/19/34
f 11/11/34 15/15/34 342/414/34
f 3/3/34 7/7/34 11/11/34
f 61/61/34 63/63/34 3/3/34
f 57/57/34 59/59/34 61/61/34
f 53/53/34 55/55/34 57/57/34
f 49/49/34 51/51/34 53/53/34
f 45/45/34 47/47/34 49/49/34
f 41/41/34 43/43/34 45/45/34
f 37/37/34 39/39/34 41/41/34
f 33/33/34 35/35/34 37/37/34
f 29/29/34 31/31/34 33/33/34
f 25/25/34 27/27/34 29/29/34
f 21/21/34 23/23/34 25/25/34
f 342/414/34 19/19/34 21/21/34
f 3/3/34 11/11/34 342/414/34
f 57/57/34 61/61/34 3/3/34
f 49/49/34 53/53/34 57/57/34
f 41/41/34 45/45/34 49/49/34
f 33/33/34 37/37/34 41/41/34
f 25/25/34 29/29/34 33/33/34
f 342/414/34 21/21/34 25/25/34
f 57/57/34 3/3/34 342/414/34
f 41/41/34 49/49/34 57/57/34
f 25/25/34 33/33/34 41/41/34
f 57/57/34 342/414/34 25/25/34
f 192/196/35 65/65/35 193/197/35
f 191/195/36 66/67/36 65/65/36
f 190/194/37 67/69/37 66/67/37
f 189/193/38 68/71/38 67/69/38
f 188/192/39 192/196/39 224/260/39
f 188/192/40 187/191/40 191/195/40
f 186/190/41 190/194/41 191/195/41
f 186/190/42 185/189/42 189/193/42
f 184/188/43 188/192/43 223/258/43
f 183/187/44 187/191/44 188/192/44
f 182/186/45 186/190/45 187/191/45
f 181/185/46 185/189/46 186/190/46
f 180/184/47 184/188/47 222/256/47
f 180/184/48 179/183/48 183/187/48
f 178/182/49 182/186/49 183/187/49
f 177/181/50 181/185/50 182/186/50
f 176/180/51 180/184/51 221/254/51
f 175/179/52 179/183/52 180/184/52
f 174/178/53 178/182/53 179/183/53
f 173/177/54 177/181/54 178/182/54
f 172/176/55 176/180/55 220/252/55
f 171/175/56 175/179/56 176/180/56
f 170/174/57 174/178/57 175/179/57
f 169/173/58 173/177/58 174/178/58
f 168/172/59 172/176/59 219/250/59
f 167/171/60 171/175/60 172/176/60
f 166/170/61 170/174/61 171/175/61
f 165/169/62 169/173/62 170/174/62
f 164/168/63 168/172/63 218/248/63
f 164/168/64 163/167/64 167/171/64
f 162/166/65 166/170/65 167/171/65
f 161/165/66 165/169/66 166/170/66
f 160/164/67 164/168/67 217/246/67
f 160/164/68 159/163/68 163/167/68
f 158/162/69 162/166/69 163/167/69
f 157/161/70 161/165/70 162/166/70
f 156/160/71 160/164/71 216/244/71
f 156/160/72 155/159/72 159/163/72
f 154/158/73 158/162/73 159/163/73
f 153/157/74 157/161/74 158/162/74
f 152/156/75 156/160/75 215/242/75
f 152/156/76 151/155/76 155/159/76
f 150/154/77 154/158/77 155/159/77
f 149/153/78 153/157/78 154/158/78
f 148/152/79 152/156/79 214/240/79
f 148/152/80 147/151/80 151/155/80
f 146/150/81 150/154/81 151/155/81
f 145/149/82 149/153/82 150/154/82
f 144/148/83 148/152/83 213/238/83
f 143/147/84 147/151/84 148/152/84
f 142/146/85 146/150/85 147/151/85
f 141/145/86 145/149/86 146/150/86
f 140/144/87 144/148/87 212/236/87
f 139/143/88 143/147/88 144/148/88
f 138/142/89 142/146/89 143/147/89
f 137/141/90 141/145/90 142/146/90
f 136/140/91 140/144/91 211/234/91
f 135/139/92 139/143/92 140/144/92
f 134/138/93 138/142/93 139/143/93
f 133/137/94 137/141/94 138/142/94
f 132/136/95 136/140/95 210/232/95
f 131/135/96 135/139/96 136/140/96
f 130/134/97 134/138/97 135/139/97
f 129/133/98 133/137/98 134/138/98
f 208/228/99 128/132/99 132/136/99
f 127/131/100 131/135/100 132/136/100
f 126/130/101 130/134/101 131/135/101
f 126/130/102 125/129/102 129/133/102
f 207/226/103 124/128/103 128/132/103
f 123/127/104 127/131/104 128/132/104
f 122/126/105 126/130/105 127/131/105
f 121/125/106 125/129/106 126/130/106
f 120/124/107 124/128/107 207/226/107
f 119/123/108 123/127/108 124/128/108
f 118/122/109 122/126/109 123/127/109
f 117/121/110 121/125/110 122/126/110
f 116/120/111 120/124/111 206/224/111
f 115/119/112 119/123/112 120/124/112
f 114/118/113 118/122/113 119/123/113
f 113/117/114 117/121/114 118/122/114
f 204/220/115 112/116/115 116/120/115
f 111/115/116 115/119/116 116/120/116
f 110/114/117 114/118/117 115/119/117
f 110/114/118 109/113/118 113/117/118
f 108/112/119 112/116/119 204/220/119
f 107/111/120 111/115/120 112/116/120
f 106/110/121 110/114/121 111/115/121
f 106/110/122 105/109/122 109/113/122
f 202/216/123 104/108/123 108/112/123
f 103/107/124 107/111/124 108/112/124
f 102/106/125 106/110/125 107/111/125
f 102/106/126 101/105/126 105/109/126
f 201/214/127 100/104/127 104/108/127
f 99/103/128 103/107/128 104/108/128
f 98/102/129 102/106/129 103/107/129
f 98/102/130 97/101/130 101/105/130
f 339/411/131 100/104/131 201/214/131
f 96/100/255 326/396/255 346/418/255
f 350/422/133 98/102/133 99/103/133
f 94/98/256 322/392/256 351/423/256
f 199/210/135 92/96/135 96/100/135
f 91/95/136 95/99/136 96/100/136
f 90/94/137 94/98/137 95/99/137
f 90/94/138 89/93/138 93/97/138
f 198/208/139 88/92/139 92/96/139
f 87/91/140 91/95/140 92/96/140
f 86/90/141 90/94/141 91/95/141
f 86/90/142 85/89/142 89/93/142
f 84/88/143 88/92/143 198/208/143
f 83/87/144 87/91/144 88/92/144
f 82/86/145 86/90/145 87/91/145
f 81/85/146 85/89/146 86/90/146
f 196/204/147 80/84/147 84/88/147
f 79/83/148 83/87/148 84/88/148
f 78/82/149 82/86/149 83/87/149
f 77/81/150 81/85/150 82/86/150
f 76/80/151 80/84/151 196/204/151
f 75/79/152 79/83/152 80/84/152
f 74/78/153 78/82/153 79/83/153
f 74/78/154 73/77/154 77/81/154
f 194/200/155 72/76/155 76/80/155
f 71/75/156 75/79/156 76/80/156
f 70/74/157 74/78/157 75/79/157
f 69/73/158 73/77/158 74/78/158
f 193/198/159 65/66/159 72/76/159
f 66/68/160 71/75/160 72/76/160
f 67/70/161 70/74/161 71/75/161
f 68/72/162 69/73/162 70/74/162
f 226/263/34 225/262/34 193/199/34
f 226/263/34 194/201/34 195/203/34
f 227/264/34 195/203/34 196/205/34
f 228/265/34 196/205/34 197/207/34
f 230/267/34 229/266/34 197/207/34
f 230/267/34 198/209/34 199/211/34
f 232/269/34 231/268/34 199/211/34
f 232/269/34 200/212/34 337/408/34
f 234/271/34 233/270/34 201/215/34
f 234/271/34 202/217/34 203/219/34
f 235/272/34 203/219/34 204/221/34
f 236/273/34 204/221/34 205/223/34
f 238/275/34 237/274/34 205/223/34
f 238/275/34 206/225/34 207/227/34
f 240/277/34 239/276/34 207/227/34
f 240/277/34 208/229/34 209/231/34
f 242/279/34 241/278/34 209/231/34
f 242/279/34 210/233/34 211/235/34
f 243/280/34 211/235/34 212/237/34
f 244/281/34 212/237/34 213/239/34
f 246/283/34 245/282/34 213/239/34
f 246/283/34 214/241/34 215/243/34
f 248/285/34 247/284/34 215/243/34
f 248/285/34 216/245/34 217/247/34
f 250/287/34 249/286/34 217/247/34
f 250/287/34 218/249/34 219/251/34
f 251/288/34 219/251/34 220/253/34
f 252/289/34 220/253/34 221/255/34
f 254/291/34 253/290/34 221/255/34
f 254/291/34 222/257/34 223/259/34
f 256/293/34 255/292/34 223/259/34
f 256/293/34 224/261/34 193/199/34
f 3/3/163 1/1/163 225/262/163
f 3/3/164 226/263/164 227/264/164
f 5/5/165 227/264/165 228/265/165
f 7/7/166 228/265/166 229/266/166
f 11/11/167 9/9/167 229/266/167
f 11/11/168 230/267/168 231/268/168
f 15/15/169 13/13/169 231/268/169
f 15/15/170 232/269/170 341/413/170
f 19/19/171 17/17/171 233/270/171
f 19/19/172 234/271/172 235/272/172
f 21/21/173 235/272/173 236/273/173
f 23/23/174 236/273/174 237/274/174
f 27/27/175 25/25/175 237/274/175
f 27/27/176 238/275/176 239/276/176
f 31/31/177 29/29/177 239/276/177
f 31/31/178 240/277/178 241/278/178
f 35/35/179 33/33/179 241/278/179
f 35/35/180 242/279/180 243/280/180
f 37/37/181 243/280/181 244/281/181
f 39/39/182 244/281/182 245/282/182
f 43/43/183 41/41/183 245/282/183
f 43/43/184 246/283/184 247/284/184
f 47/47/185 45/45/185 247/284/185
f 47/47/186 248/285/186 249/286/186
f 51/51/187 49/49/187 249/286/187
f 51/51/188 250/287/188 251/288/188
f 53/53/189 251/288/189 252/289/189
f 55/55/190 252/289/190 253/290/190
f 59/59/191 57/57/191 253/290/191
f 59/59/192 254/291/192 255/292/192
f 63/63/193 61/61/193 255/292/193
f 63/63/194 256/293/194 225/262/194
f 4/4/195 257/295/195 258/298/195
f 4/4/195 6/6/195 259/300/195
f 6/6/195 8/8/195 260/302/195
f 10/10/195 261/304/195 260/302/195
f 10/10/195 12/12/195 262/306/195
f 14/14/195 263/308/195 262/306/195
f 16/16/195 264/309/195 263/308/195
f 18/18/195 265/312/195 338/409/195
f 20/20/195 266/314/195 265/312/195
f 20/20/195 22/22/195 267/316/195
f 22/22/195 24/24/195 268/318/195
f 26/26/195 269/320/195 268/318/195
f 26/26/195 28/28/195 270/322/195
f 30/30/195 271/324/195 270/322/195
f 32/32/195 272/326/195 271/324/195
f 34/34/195 273/328/195 272/326/195
f 36/36/195 274/330/195 273/328/195
f 36/36/195 38/38/195 275/332/195
f 38/38/195 40/40/195 276/334/195
f 42/42/195 277/336/195 276/334/195
f 42/42/195 44/44/195 278/338/195
f 46/46/195 279/340/195 278/338/195
f 48/48/195 280/342/195 279/340/195
f 50/50/195 281/344/195 280/342/195
f 52/52/195 282/346/195 281/344/195
f 52/52/195 54/54/195 283/348/195
f 54/54/195 56/56/195 284/350/195
f 58/58/195 285/352/195 284/350/195
f 58/58/195 60/60/195 286/354/195
f 62/62/195 287/356/195 286/354/195
f 64/64/195 288/358/195 287/356/195
f 2/2/195 258/298/195 288/358/195
f 291/361/195 289/359/195 290/360/195
f 290/360/195 320/390/195 319/389/195
f 319/389/195 318/388/195 317/387/195
f 317/387/195 316/386/195 315/385/195
f 315/385/195 314/384/195 313/383/195
f 313/383/195 312/382/195 311/381/195
f 311/381/195 310/380/195 309/379/195
f 309/379/195 308/378/195 307/377/195
f 307/377/195 306/376/195 305/375/195
f 305/375/195 304/374/195 303/373/195
f 303/373/195 302/372/195 301/371/195
f 301/371/195 300/370/195 299/369/195
f 299/369/195 298/368/195 297/367/195
f 344/416/195 296/366/195 295/365/195
f 299/369/195 297/367/195 344/416/195
f 303/373/195 301/371/195 299/369/195
f 307/377/195 305/375/195 303/373/195
f 311/381/195 309/379/195 307/377/195
f 315/385/195 313/383/195 311/381/195
f 319/389/195 317/387/195 315/385/195
f 291/361/195 290/360/195 319/389/195
f 293/363/195 292/362/195 291/361/195
f 295/365/195 294/364/195 293/363/195
f 299/369/195 344/416/195 295/365/195
f 307/377/195 303/373/195 299/369/195
f 315/385/195 311/381/195 307/377/195
f 291/361/195 319/389/195 315/385/195
f 295/365/195 293/363/195 291/361/195
f 307/377/195 299/369/195 295/365/195
f 291/361/195 315/385/195 307/377/195
f 60/60/196 318/388/196 319/389/196
f 36/36/197 34/34/197 305/375/197
f 10/10/198 8/8/198 292/362/198
f 62/62/199 319/389/199 320/390/199
f 36/36/200 306/376/200 307/377/200
f 12/12/201 10/10/201 293/363/201
f 64/64/202 320/390/202 290/360/202
f 38/38/203 307/377/203 308/378/203
f 12/12/204 294/364/204 295/365/204
f 40/40/205 308/378/205 309/379/205
f 14/14/206 295/365/206 296/366/206
f 42/42/207 309/379/207 310/380/207
f 16/16/208 296/366/208 344/416/208
f 44/44/209 310/380/209 311/381/209
f 18/18/210 297/367/210 298/368/210
f 46/46/211 311/381/211 312/382/211
f 20/20/212 298/368/212 299/369/212
f 48/48/213 312/382/213 313/383/213
f 22/22/214 299/369/214 300/370/214
f 50/50/215 313/383/215 314/384/215
f 24/24/216 300/370/216 301/371/216
f 52/52/217 314/384/217 315/385/217
f 26/26/218 301/371/218 302/372/218
f 54/54/219 315/385/219 316/386/219
f 28/28/220 302/372/220 303/373/220
f 2/2/221 290/360/221 289/359/221
f 56/56/222 316/386/222 317/387/222
f 30/30/223 303/373/223 304/374/223
f 4/4/224 289/359/224 291/361/224
f 60/60/225 58/58/225 317/387/225
f 34/34/226 32/32/226 304/374/226
f 323/393/227 335/405/227 348/420/227
f 97/101/257 98/102/257 324/394/257
f 93/97/258 321/391/258 322/392/258
f 97/101/259 323/393/259 345/417/259
f 328/398/260 332/402/260 331/401/260
f 99/103/261 100/104/261 328/398/261
f 95/99/262 325/395/262 326/396/262
f 99/103/263 327/397/263 352/424/263
f 326/396/235 330/400/235 347/419/235
f 326/396/264 325/395/264 329/399/264
f 327/397/237 331/401/237 353/425/237
f 323/393/265 324/394/265 336/406/265
f 322/392/266 334/404/266 354/426/266
f 321/391/267 333/403/267 334/404/267
f 335/405/268 332/402/268 347/419/268
f 336/406/269 331/401/269 332/402/269
f 354/426/270 334/404/270 329/399/270
f 334/404/271 333/403/271 330/400/271
f 333/403/272 348/420/272 347/419/272
f 328/398/246 346/418/246 347/419/246
f 93/97/230 340/412/230 345/417/230
f 321/391/248 345/417/248 348/420/248
f 18/18/208 343/415/208 344/416/208
f 16/16/195 343/415/195 338/409/195
f 17/17/170 342/414/170 341/413/170
f 233/270/34 341/413/34 337/408/34
f 100/104/132 339/411/132 346/418/132
f 200/213/131 96/100/131 339/411/131
f 264/310/8 338/410/8 340/412/8
f 354/426/273 353/425/273 331/401/273
f 324/394/274 351/423/274 354/426/274
f 325/395/252 352/424/252 353/425/252
f 95/99/234 349/421/234 352/424/234
f 98/102/134 350/422/134 351/423/134
f 94/98/133 350/422/133 349/421/133
