# Blender 3.3.1
# www.blender.org
o tee_pot_lid
v 0.000000 1.159194 -0.276893
v -0.000000 1.280474 -0.065092
v 0.054019 1.159194 -0.271573
v 0.012699 1.280474 -0.063841
v 0.105962 1.159194 -0.255816
v 0.024909 1.280474 -0.060137
v 0.153834 1.159194 -0.230228
v 0.036163 1.280474 -0.054122
v 0.195793 1.159194 -0.195793
v 0.046027 1.280474 -0.046027
v 0.230228 1.159194 -0.153834
v 0.054122 1.280474 -0.036163
v 0.255816 1.159194 -0.105962
v 0.060137 1.280474 -0.024910
v 0.271573 1.159194 -0.054019
v 0.063841 1.280474 -0.012699
v 0.276893 1.159194 0.000000
v 0.065092 1.280474 -0.000000
v 0.271573 1.159194 0.054019
v 0.063841 1.280474 0.012699
v 0.255816 1.159194 0.105962
v 0.060137 1.280474 0.024909
v 0.230228 1.159194 0.153834
v 0.054122 1.280474 0.036163
v 0.195793 1.159194 0.195793
v 0.046027 1.280474 0.046027
v 0.153834 1.159194 0.230228
v 0.036163 1.280474 0.054122
v 0.105962 1.159194 0.255816
v 0.024909 1.280474 0.060137
v 0.054019 1.159194 0.271573
v 0.012699 1.280474 0.063841
v 0.000000 1.159194 0.276893
v -0.000000 1.280474 0.065092
v -0.054019 1.159194 0.271573
v -0.012699 1.280474 0.063841
v -0.105962 1.159194 0.255816
v -0.024910 1.280474 0.060137
v -0.153834 1.159194 0.230228
v -0.036163 1.280474 0.054122
v -0.195793 1.159194 0.195793
v -0.046027 1.280474 0.046027
v -0.230228 1.159194 0.153834
v -0.054122 1.280474 0.036163
v -0.255816 1.159194 0.105962
v -0.060137 1.280474 0.024909
v -0.271573 1.159194 0.054019
v -0.063841 1.280474 0.012699
v -0.276893 1.159194 0.000000
v -0.065092 1.280474 -0.000000
v -0.271573 1.159194 -0.054019
v -0.063841 1.280474 -0.012699
v -0.255816 1.159194 -0.105962
v -0.060137 1.280474 -0.024910
v -0.230228 1.159194 -0.153834
v -0.054122 1.280474 -0.036163
v -0.195793 1.159194 -0.195793
v -0.046027 1.280474 -0.046027
v -0.153834 1.159194 -0.230228
v -0.036163 1.280474 -0.054122
v -0.105962 1.159194 -0.255816
v -0.024910 1.280474 -0.060137
v -0.054019 1.159194 -0.271573
v -0.012699 1.280474 -0.063841
v -0.000000 1.195779 -0.122950
v -0.000000 1.230531 -0.154224
v 0.030088 1.230531 -0.151261
v 0.023986 1.195779 -0.120588
v 0.059019 1.230531 -0.142485
v 0.047051 1.195779 -0.113591
v 0.085682 1.230531 -0.128233
v 0.068307 1.195779 -0.102229
v 0.109053 1.230531 -0.109053
v 0.086939 1.195779 -0.086939
v 0.128233 1.230531 -0.085682
v 0.102229 1.195779 -0.068307
v 0.142485 1.230531 -0.059019
v 0.113591 1.195779 -0.047051
v 0.151261 1.230531 -0.030088
v 0.120587 1.195779 -0.023986
v 0.154224 1.230531 0.000000
v 0.122950 1.195779 -0.000000
v 0.151261 1.230531 0.030088
v 0.120587 1.195779 0.023986
v 0.142485 1.230531 0.059019
v 0.113591 1.195779 0.047051
v 0.128233 1.230531 0.085683
v 0.102229 1.195779 0.068307
v 0.109053 1.230531 0.109053
v 0.086939 1.195779 0.086939
v 0.085682 1.230531 0.128233
v 0.068307 1.195779 0.102229
v 0.059019 1.230531 0.142485
v 0.047051 1.195779 0.113591
v 0.030088 1.230531 0.151261
v 0.023986 1.195779 0.120587
v -0.000000 1.230531 0.154224
v -0.000000 1.195779 0.122950
v -0.030088 1.230531 0.151261
v -0.023986 1.195779 0.120587
v -0.059019 1.230531 0.142485
v -0.047051 1.195779 0.113591
v -0.085683 1.230531 0.128233
v -0.068307 1.195779 0.102229
v -0.109053 1.230531 0.109053
v -0.086939 1.195779 0.086939
v -0.128233 1.230531 0.085683
v -0.102229 1.195779 0.068307
v -0.142485 1.230531 0.059019
v -0.113591 1.195779 0.047051
v -0.151261 1.230531 0.030088
v -0.120588 1.195779 0.023986
v -0.154225 1.230531 0.000000
v -0.122950 1.195779 -0.000000
v -0.151261 1.230531 -0.030088
v -0.120588 1.195779 -0.023986
v -0.142485 1.230531 -0.059019
v -0.113591 1.195779 -0.047051
v -0.128233 1.230531 -0.085682
v -0.102229 1.195779 -0.068307
v -0.109053 1.230531 -0.109053
v -0.086939 1.195779 -0.086939
v -0.085683 1.230531 -0.128233
v -0.068307 1.195779 -0.102229
v -0.059019 1.230531 -0.142485
v -0.047051 1.195779 -0.113591
v -0.030088 1.230531 -0.151261
v -0.023986 1.195779 -0.120588
v -0.054019 1.131317 0.271573
v -0.000000 1.131317 0.276893
v 0.054019 1.131317 0.271573
v 0.105962 1.131317 0.255816
v 0.153834 1.131317 0.230228
v 0.195793 1.131317 0.195793
v 0.230228 1.131317 0.153834
v 0.255816 1.131317 0.105962
v 0.271573 1.131317 0.054019
v 0.276893 1.131317 0.000000
v 0.271573 1.131317 -0.054019
v 0.255816 1.131317 -0.105962
v 0.230228 1.131317 -0.153834
v 0.195793 1.131317 -0.195793
v 0.153834 1.131317 -0.230228
v 0.105962 1.131317 -0.255816
v 0.054019 1.131317 -0.271573
v -0.000000 1.131317 -0.276893
v -0.105962 1.131317 0.255816
v -0.153834 1.131317 0.230228
v -0.195793 1.131317 0.195793
v -0.230228 1.131317 0.153834
v -0.255816 1.131317 0.105962
v -0.271573 1.131317 0.054019
v -0.276893 1.131317 0.000000
v -0.271573 1.131317 -0.054019
v -0.255816 1.131317 -0.105962
v -0.230228 1.131317 -0.153834
v -0.195793 1.131317 -0.195793
v -0.153834 1.131317 -0.230228
v -0.105962 1.131317 -0.255816
v -0.054019 1.131317 -0.271573
vn 0.0481 0.8714 -0.4883
vn 0.1424 0.8714 -0.4695
vn 0.2313 0.8714 -0.4327
vn 0.3112 0.8714 -0.3793
vn 0.3793 0.8714 -0.3112
vn 0.4327 0.8714 -0.2313
vn 0.4695 0.8714 -0.1424
vn 0.4883 0.8714 -0.0481
vn 0.4883 0.8714 0.0481
vn 0.4695 0.8714 0.1424
vn 0.4327 0.8714 0.2313
vn 0.3792 0.8714 0.3112
vn 0.3112 0.8714 0.3793
vn 0.2313 0.8714 0.4327
vn 0.1424 0.8714 0.4695
vn 0.0481 0.8714 0.4883
vn -0.0481 0.8714 0.4883
vn -0.1424 0.8714 0.4695
vn -0.2313 0.8714 0.4327
vn -0.3112 0.8714 0.3793
vn -0.3792 0.8714 0.3112
vn -0.4327 0.8714 0.2313
vn -0.4695 0.8714 0.1424
vn -0.4883 0.8714 0.0481
vn -0.4883 0.8714 -0.0481
vn -0.4695 0.8714 -0.1424
vn -0.4327 0.8714 -0.2313
vn -0.3793 0.8714 -0.3112
vn -0.3112 0.8714 -0.3793
vn -0.2313 0.8714 -0.4327
vn -0.0000 1.0000 -0.0000
vn -0.1424 0.8714 -0.4695
vn -0.0481 0.8714 -0.4883
vn 0.9952 -0.0000 -0.0980
vn -0.0228 0.9727 -0.2312
vn -0.0730 -0.6672 -0.7413
vn -0.0674 0.9727 -0.2223
vn -0.2162 -0.6672 -0.7128
vn -0.1095 0.9727 -0.2048
vn -0.3512 -0.6672 -0.6570
vn -0.1474 0.9727 -0.1795
vn -0.4726 -0.6672 -0.5758
vn -0.1795 0.9727 -0.1474
vn -0.5758 -0.6672 -0.4726
vn -0.2048 0.9727 -0.1095
vn -0.6570 -0.6672 -0.3512
vn -0.2223 0.9727 -0.0674
vn -0.7128 -0.6672 -0.2162
vn -0.2312 0.9727 -0.0228
vn -0.7413 -0.6672 -0.0730
vn -0.2312 0.9727 0.0228
vn -0.7413 -0.6672 0.0730
vn -0.2223 0.9727 0.0674
vn -0.7128 -0.6672 0.2162
vn -0.2048 0.9727 0.1095
vn -0.6570 -0.6672 0.3512
vn -0.1796 0.9727 0.1474
vn -0.5758 -0.6672 0.4726
vn -0.1474 0.9727 0.1795
vn -0.4726 -0.6672 0.5758
vn -0.1095 0.9727 0.2048
vn -0.3511 -0.6672 0.6570
vn -0.0674 0.9727 0.2223
vn -0.2162 -0.6672 0.7128
vn -0.0228 0.9727 0.2312
vn -0.0730 -0.6672 0.7413
vn 0.0228 0.9727 0.2312
vn 0.0730 -0.6672 0.7413
vn 0.0674 0.9727 0.2223
vn 0.2162 -0.6672 0.7128
vn 0.1095 0.9727 0.2048
vn 0.3511 -0.6672 0.6570
vn 0.1474 0.9727 0.1795
vn 0.4726 -0.6672 0.5758
vn 0.1795 0.9727 0.1474
vn 0.5758 -0.6672 0.4726
vn 0.2048 0.9727 0.1095
vn 0.6570 -0.6672 0.3511
vn 0.2223 0.9727 0.0674
vn 0.7128 -0.6672 0.2162
vn 0.2312 0.9727 0.0228
vn 0.7413 -0.6672 0.0730
vn 0.2312 0.9727 -0.0228
vn 0.7413 -0.6672 -0.0730
vn 0.2223 0.9727 -0.0674
vn 0.7128 -0.6672 -0.2162
vn 0.2048 0.9727 -0.1095
vn 0.6570 -0.6672 -0.3512
vn 0.1795 0.9727 -0.1474
vn 0.5758 -0.6672 -0.4726
vn 0.1474 0.9727 -0.1795
vn 0.4726 -0.6672 -0.5758
vn 0.1095 0.9727 -0.2048
vn 0.3512 -0.6672 -0.6570
vn 0.0674 0.9727 -0.2223
vn 0.2162 -0.6672 -0.7128
vn 0.0228 0.9727 -0.2312
vn 0.0730 -0.6672 -0.7413
vn -0.4714 -0.0000 0.8819
vn 0.9569 -0.0000 0.2903
vn -0.0980 -0.0000 -0.9952
vn 0.0980 -0.0000 -0.9952
vn -0.9569 -0.0000 0.2903
vn 0.4714 -0.0000 0.8819
vn 0.7730 -0.0000 -0.6344
vn -0.8819 -0.0000 -0.4714
vn -0.2903 -0.0000 0.9569
vn 0.9952 -0.0000 0.0980
vn -0.2903 -0.0000 -0.9569
vn -0.8819 -0.0000 0.4714
vn 0.6344 -0.0000 0.7730
vn 0.6344 -0.0000 -0.7730
vn -0.9569 -0.0000 -0.2903
vn -0.0980 -0.0000 0.9952
vn -0.0000 -1.0000 -0.0000
vn -0.7730 -0.0000 -0.6344
vn 0.8819 -0.0000 -0.4714
vn 0.2903 -0.0000 0.9569
vn -0.9952 -0.0000 0.0980
vn 0.2903 -0.0000 -0.9569
vn 0.8819 -0.0000 0.4714
vn -0.6344 -0.0000 0.7730
vn -0.6344 -0.0000 -0.7730
vn 0.9569 -0.0000 -0.2903
vn 0.0980 -0.0000 0.9952
vn -0.9952 -0.0000 -0.0980
vn 0.4714 -0.0000 -0.8819
vn 0.7730 -0.0000 0.6344
vn -0.7730 -0.0000 0.6344
vn -0.4714 -0.0000 -0.8819
vn 0.3113 0.8714 -0.3793
vn 0.3792 0.8714 -0.3112
vn 0.3793 0.8714 0.3112
vn -0.3793 0.8714 0.3112
vn -0.3792 0.8714 -0.3112
vn -0.3113 0.8714 -0.3793
vn -0.0001 1.0000 -0.0000
vn 0.0001 1.0000 -0.0000
vn -0.3511 -0.6672 -0.6570
vn -0.1796 0.9726 -0.1474
vn -0.1795 0.9727 0.1474
vn -0.1473 0.9727 0.1795
vn 0.0674 0.9726 0.2223
vn 0.1473 0.9727 0.1795
vn 0.6570 -0.6672 0.3512
vn 0.1796 0.9726 -0.1474
vt 1.000000 0.500000
vt 0.000000 0.500000
vt 1.000000 1.000000
vt 0.250000 0.490000
vt 0.000000 1.000000
vt 0.968750 0.500000
vt 0.968750 1.000000
vt 0.296822 0.485388
vt 0.937500 0.500000
vt 0.937500 1.000000
vt 0.341844 0.471731
vt 0.906250 0.500000
vt 0.906250 1.000000
vt 0.383337 0.449553
vt 0.875000 0.500000
vt 0.875000 1.000000
vt 0.419706 0.419706
vt 0.843750 0.500000
vt 0.843750 1.000000
vt 0.449553 0.383337
vt 0.812500 0.500000
vt 0.812500 1.000000
vt 0.471731 0.341844
vt 0.781250 0.500000
vt 0.781250 1.000000
vt 0.485388 0.296822
vt 0.750000 0.500000
vt 0.750000 1.000000
vt 0.490000 0.250000
vt 0.718750 0.500000
vt 0.718750 1.000000
vt 0.485388 0.203178
vt 0.687500 0.500000
vt 0.687500 1.000000
vt 0.471731 0.158156
vt 0.656250 0.500000
vt 0.656250 1.000000
vt 0.449553 0.116663
vt 0.625000 0.500000
vt 0.625000 1.000000
vt 0.419706 0.080294
vt 0.593750 0.500000
vt 0.593750 1.000000
vt 0.383337 0.050447
vt 0.562500 0.500000
vt 0.562500 1.000000
vt 0.341844 0.028269
vt 0.531250 0.500000
vt 0.531250 1.000000
vt 0.296822 0.014612
vt 0.500000 0.500000
vt 0.500000 1.000000
vt 0.250000 0.010000
vt 0.468750 0.500000
vt 0.468750 1.000000
vt 0.203178 0.014612
vt 0.437500 0.500000
vt 0.437500 1.000000
vt 0.158156 0.028269
vt 0.406250 0.500000
vt 0.406250 1.000000
vt 0.116663 0.050447
vt 0.375000 0.500000
vt 0.375000 1.000000
vt 0.080294 0.080294
vt 0.343750 0.500000
vt 0.343750 1.000000
vt 0.050447 0.116663
vt 0.312500 0.500000
vt 0.312500 1.000000
vt 0.028269 0.158156
vt 0.281250 0.500000
vt 0.281250 1.000000
vt 0.014612 0.203178
vt 0.250000 0.500000
vt 0.250000 1.000000
vt 0.010000 0.250000
vt 0.218750 0.500000
vt 0.218750 1.000000
vt 0.014612 0.296822
vt 0.187500 0.500000
vt 0.187500 1.000000
vt 0.028269 0.341844
vt 0.156250 0.500000
vt 0.156250 1.000000
vt 0.050447 0.383337
vt 0.125000 0.500000
vt 0.125000 1.000000
vt 0.080294 0.419706
vt 0.093750 0.500000
vt 0.093750 1.000000
vt 0.116663 0.449553
vt 0.062500 0.500000
vt 0.158156 0.471731
vt 0.062500 1.000000
vt 0.031250 0.500000
vt 0.203178 0.485388
vt 0.031250 1.000000
vt 0.000000 0.666667
vt 1.000000 0.666667
vt 0.000000 0.833333
vt 1.000000 0.833333
vt 0.968750 0.833333
vt 0.968750 0.666667
vt 0.937500 0.833333
vt 0.937500 0.666667
vt 0.906250 0.833333
vt 0.906250 0.666667
vt 0.875000 0.833333
vt 0.875000 0.666667
vt 0.843750 0.833333
vt 0.843750 0.666667
vt 0.812500 0.833333
vt 0.812500 0.666667
vt 0.781250 0.833333
vt 0.781250 0.666667
vt 0.750000 0.833333
vt 0.750000 0.666667
vt 0.718750 0.833333
vt 0.718750 0.666667
vt 0.687500 0.833333
vt 0.687500 0.666667
vt 0.656250 0.833333
vt 0.656250 0.666667
vt 0.625000 0.833333
vt 0.625000 0.666667
vt 0.593750 0.833333
vt 0.593750 0.666667
vt 0.562500 0.833333
vt 0.562500 0.666667
vt 0.531250 0.833333
vt 0.531250 0.666667
vt 0.500000 0.833333
vt 0.500000 0.666667
vt 0.468750 0.833333
vt 0.468750 0.666667
vt 0.437500 0.833333
vt 0.437500 0.666667
vt 0.406250 0.833333
vt 0.406250 0.666667
vt 0.375000 0.833333
vt 0.375000 0.666667
vt 0.343750 0.833333
vt 0.343750 0.666667
vt 0.312500 0.833333
vt 0.312500 0.666667
vt 0.281250 0.833333
vt 0.281250 0.666667
vt 0.250000 0.833333
vt 0.250000 0.666667
vt 0.218750 0.833333
vt 0.218750 0.666667
vt 0.187500 0.833333
vt 0.187500 0.666667
vt 0.156250 0.833333
vt 0.156250 0.666667
vt 0.125000 0.833333
vt 0.125000 0.666667
vt 0.093750 0.833333
vt 0.093750 0.666667
vt 0.062500 0.833333
vt 0.062500 0.666667
vt 0.031250 0.833333
vt 0.031250 0.666667
vt 0.468750 0.500000
vt 0.703178 0.014612
vt 0.750000 0.010000
vt 0.500000 0.500000
vt 0.796822 0.014612
vt 0.531250 0.500000
vt 0.841844 0.028269
vt 0.562500 0.500000
vt 0.593750 0.500000
vt 0.883337 0.050447
vt 0.919706 0.080294
vt 0.625000 0.500000
vt 0.949553 0.116663
vt 0.656250 0.500000
vt 0.971731 0.158156
vt 0.687500 0.500000
vt 0.718750 0.500000
vt 0.985388 0.203178
vt 0.750000 0.500000
vt 0.990000 0.250000
vt 0.985388 0.296822
vt 0.781250 0.500000
vt 0.971731 0.341844
vt 0.812500 0.500000
vt 0.949553 0.383337
vt 0.843750 0.500000
vt 0.875000 0.500000
vt 0.919706 0.419706
vt 0.883337 0.449553
vt 0.906250 0.500000
vt 0.841844 0.471731
vt 0.937500 0.500000
vt 0.796822 0.485388
vt 0.968750 0.500000
vt 0.000000 0.500000
vt 1.000000 0.500000
vt 0.750000 0.490000
vt 0.437500 0.500000
vt 0.658156 0.028269
vt 0.616663 0.050447
vt 0.406250 0.500000
vt 0.580294 0.080294
vt 0.375000 0.500000
vt 0.550447 0.116663
vt 0.343750 0.500000
vt 0.312500 0.500000
vt 0.528269 0.158156
vt 0.514612 0.203178
vt 0.281250 0.500000
vt 0.510000 0.250000
vt 0.250000 0.500000
vt 0.514612 0.296822
vt 0.218750 0.500000
vt 0.187500 0.500000
vt 0.528269 0.341844
vt 0.550447 0.383337
vt 0.156250 0.500000
vt 0.580294 0.419706
vt 0.125000 0.500000
vt 0.616663 0.449553
vt 0.093750 0.500000
vt 0.658156 0.471731
vt 0.062500 0.500000
vt 0.031250 0.500000
vt 0.703178 0.485388
s 0
f 2/3/1 67/103/1 66/102/1
f 4/7/2 69/105/2 67/103/2
f 69/105/3 8/13/3 71/107/3
f 71/107/4 10/16/4 73/109/4
f 73/109/5 12/19/5 75/111/5
f 75/111/6 14/22/6 77/113/6
f 77/113/7 16/25/7 79/115/7
f 79/115/8 18/28/8 81/117/8
f 81/117/9 20/31/9 83/119/9
f 83/119/10 22/34/10 85/121/10
f 85/121/11 24/37/11 87/123/11
f 87/123/12 26/40/12 89/125/12
f 89/125/13 28/43/13 91/127/13
f 91/127/14 30/46/14 93/129/14
f 30/46/15 95/131/15 93/129/15
f 95/131/16 34/52/16 97/133/16
f 34/52/17 99/135/17 97/133/17
f 99/135/18 38/58/18 101/137/18
f 38/58/19 103/139/19 101/137/19
f 40/61/20 105/141/20 103/139/20
f 42/64/21 107/143/21 105/141/21
f 44/67/22 109/145/22 107/143/22
f 46/70/23 111/147/23 109/145/23
f 48/73/24 113/149/24 111/147/24
f 50/76/25 115/151/25 113/149/25
f 52/79/26 117/153/26 115/151/26
f 54/82/27 119/155/27 117/153/27
f 56/85/28 121/157/28 119/155/28
f 58/88/29 123/159/29 121/157/29
f 60/91/30 125/161/30 123/159/30
f 38/59/31 22/35/31 6/11/31
f 62/95/32 127/163/32 125/161/32
f 64/98/33 66/101/33 127/163/33
f 17/27/34 139/186/34 15/24/34
f 63/96/35 65/99/35 1/2/35
f 128/164/36 66/101/36 65/99/36
f 61/93/37 128/164/37 63/96/37
f 126/162/38 127/163/38 128/164/38
f 124/160/39 61/93/39 59/90/39
f 124/160/40 125/161/40 126/162/40
f 122/158/41 59/90/41 57/87/41
f 122/158/42 123/159/42 124/160/42
f 120/156/43 57/87/43 55/84/43
f 120/156/44 121/157/44 122/158/44
f 118/154/45 55/84/45 53/81/45
f 118/154/46 119/155/46 120/156/46
f 116/152/47 53/81/47 51/78/47
f 116/152/48 117/153/48 118/154/48
f 114/150/49 51/78/49 49/75/49
f 114/150/50 115/151/50 116/152/50
f 112/148/51 49/75/51 47/72/51
f 112/148/52 113/149/52 114/150/52
f 110/146/53 47/72/53 45/69/53
f 110/146/54 111/147/54 112/148/54
f 108/144/55 45/69/55 43/66/55
f 108/144/56 109/145/56 110/146/56
f 106/142/57 43/66/57 41/63/57
f 106/142/58 107/143/58 108/144/58
f 104/140/59 41/63/59 39/60/59
f 104/140/60 105/141/60 106/142/60
f 102/138/61 39/60/61 37/57/61
f 102/138/62 103/139/62 104/140/62
f 100/136/63 37/57/63 35/54/63
f 99/135/64 102/138/64 100/136/64
f 98/134/65 35/54/65 33/51/65
f 97/133/66 100/136/66 98/134/66
f 96/132/67 33/51/67 31/48/67
f 95/131/68 98/134/68 96/132/68
f 94/130/69 31/48/69 29/45/69
f 93/129/70 96/132/70 94/130/70
f 92/128/71 29/45/71 27/42/71
f 91/127/72 94/130/72 92/128/72
f 90/126/73 27/42/73 25/39/73
f 89/125/74 92/128/74 90/126/74
f 23/36/75 90/126/75 25/39/75
f 87/123/76 90/126/76 88/124/76
f 21/33/77 88/124/77 23/36/77
f 85/121/78 88/124/78 86/122/78
f 19/30/79 86/122/79 21/33/79
f 83/119/80 86/122/80 84/120/80
f 82/118/81 19/30/81 17/27/81
f 81/117/82 84/120/82 82/118/82
f 15/24/83 82/118/83 17/27/83
f 79/115/84 82/118/84 80/116/84
f 13/21/85 80/116/85 15/24/85
f 77/113/86 80/116/86 78/114/86
f 11/18/87 78/114/87 13/21/87
f 75/111/88 78/114/88 76/112/88
f 9/15/89 76/112/89 11/18/89
f 73/109/90 76/112/90 74/110/90
f 7/12/91 74/110/91 9/15/91
f 71/107/92 74/110/92 72/108/92
f 5/9/93 72/108/93 7/12/93
f 69/105/94 72/108/94 70/106/94
f 3/6/95 70/106/95 5/9/95
f 67/103/96 70/106/96 68/104/96
f 65/100/97 3/6/97 1/1/97
f 65/100/98 67/103/98 68/104/98
f 39/60/99 147/202/99 37/57/99
f 21/33/100 137/181/100 19/30/100
f 1/2/101 160/228/101 63/96/101
f 3/6/102 146/200/102 1/1/102
f 47/72/103 151/210/103 45/69/103
f 29/45/104 133/173/104 27/42/104
f 11/18/105 142/191/105 9/15/105
f 55/84/106 155/218/106 53/81/106
f 37/57/107 129/165/107 35/54/107
f 19/30/108 138/183/108 17/27/108
f 63/96/109 159/227/109 61/93/109
f 45/69/110 150/209/110 43/66/110
f 27/42/111 134/176/111 25/39/111
f 9/15/112 143/194/112 7/12/112
f 53/81/113 154/217/113 51/78/113
f 35/54/114 130/168/114 33/51/114
f 131/169/115 152/212/115 160/229/115
f 57/87/116 156/221/116 55/84/116
f 13/21/117 141/190/117 11/18/117
f 31/48/118 132/172/118 29/45/118
f 49/75/119 152/213/119 47/72/119
f 5/9/120 145/198/120 3/6/120
f 23/36/121 136/180/121 21/33/121
f 41/63/122 148/205/122 39/60/122
f 59/90/123 157/223/123 57/87/123
f 15/24/124 140/188/124 13/21/124
f 33/51/125 131/170/125 31/48/125
f 51/78/126 153/215/126 49/75/126
f 7/12/127 144/196/127 5/9/127
f 25/39/128 135/178/128 23/36/128
f 43/66/129 149/207/129 41/63/129
f 61/93/130 158/225/130 59/90/130
f 2/3/1 4/7/1 67/103/1
f 4/7/2 6/10/2 69/105/2
f 69/105/3 6/10/3 8/13/3
f 71/107/131 8/13/131 10/16/131
f 73/109/132 10/16/132 12/19/132
f 75/111/6 12/19/6 14/22/6
f 77/113/7 14/22/7 16/25/7
f 79/115/8 16/25/8 18/28/8
f 81/117/9 18/28/9 20/31/9
f 83/119/10 20/31/10 22/34/10
f 85/121/11 22/34/11 24/37/11
f 87/123/133 24/37/133 26/40/133
f 89/125/13 26/40/13 28/43/13
f 91/127/14 28/43/14 30/46/14
f 30/46/15 32/49/15 95/131/15
f 95/131/16 32/49/16 34/52/16
f 34/52/17 36/55/17 99/135/17
f 99/135/18 36/55/18 38/58/18
f 38/58/19 40/61/19 103/139/19
f 40/61/20 42/64/20 105/141/20
f 42/64/134 44/67/134 107/143/134
f 44/67/22 46/70/22 109/145/22
f 46/70/23 48/73/23 111/147/23
f 48/73/24 50/76/24 113/149/24
f 50/76/25 52/79/25 115/151/25
f 52/79/26 54/82/26 117/153/26
f 54/82/27 56/85/27 119/155/27
f 56/85/135 58/88/135 121/157/135
f 58/88/136 60/91/136 123/159/136
f 60/91/30 62/95/30 125/161/30
f 6/11/31 4/8/31 2/4/31
f 2/4/31 64/97/31 62/94/31
f 62/94/31 60/92/31 58/89/31
f 58/89/137 56/86/137 54/83/137
f 54/83/137 52/80/137 50/77/137
f 50/77/31 48/74/31 46/71/31
f 46/71/31 44/68/31 42/65/31
f 42/65/31 40/62/31 38/59/31
f 38/59/31 36/56/31 34/53/31
f 34/53/31 32/50/31 30/47/31
f 30/47/31 28/44/31 26/41/31
f 26/41/31 24/38/31 22/35/31
f 22/35/31 20/32/31 18/29/31
f 18/29/138 16/26/138 14/23/138
f 14/23/138 12/20/138 10/17/138
f 10/17/31 8/14/31 6/11/31
f 6/11/31 2/4/31 62/94/31
f 62/94/31 58/89/31 54/83/31
f 54/83/31 50/77/31 46/71/31
f 46/71/31 42/65/31 38/59/31
f 38/59/31 34/53/31 30/47/31
f 30/47/31 26/41/31 22/35/31
f 22/35/31 18/29/31 14/23/31
f 14/23/31 10/17/31 6/11/31
f 6/11/31 62/94/31 54/83/31
f 54/83/31 46/71/31 38/59/31
f 38/59/31 30/47/31 22/35/31
f 22/35/31 14/23/31 6/11/31
f 6/11/31 54/83/31 38/59/31
f 62/95/32 64/98/32 127/163/32
f 64/98/33 2/5/33 66/101/33
f 17/27/34 138/183/34 139/186/34
f 63/96/35 128/164/35 65/99/35
f 128/164/36 127/163/36 66/101/36
f 61/93/37 126/162/37 128/164/37
f 126/162/38 125/161/38 127/163/38
f 124/160/39 126/162/39 61/93/39
f 124/160/139 123/159/139 125/161/139
f 122/158/41 124/160/41 59/90/41
f 122/158/42 121/157/42 123/159/42
f 120/156/140 122/158/140 57/87/140
f 120/156/44 119/155/44 121/157/44
f 118/154/45 120/156/45 55/84/45
f 118/154/46 117/153/46 119/155/46
f 116/152/47 118/154/47 53/81/47
f 116/152/48 115/151/48 117/153/48
f 114/150/49 116/152/49 51/78/49
f 114/150/50 113/149/50 115/151/50
f 112/148/51 114/150/51 49/75/51
f 112/148/52 111/147/52 113/149/52
f 110/146/53 112/148/53 47/72/53
f 110/146/54 109/145/54 111/147/54
f 108/144/55 110/146/55 45/69/55
f 108/144/56 107/143/56 109/145/56
f 106/142/141 108/144/141 43/66/141
f 106/142/58 105/141/58 107/143/58
f 104/140/142 106/142/142 41/63/142
f 104/140/60 103/139/60 105/141/60
f 102/138/61 104/140/61 39/60/61
f 102/138/62 101/137/62 103/139/62
f 100/136/63 102/138/63 37/57/63
f 99/135/64 101/137/64 102/138/64
f 98/134/65 100/136/65 35/54/65
f 97/133/66 99/135/66 100/136/66
f 96/132/67 98/134/67 33/51/67
f 95/131/68 97/133/68 98/134/68
f 94/130/143 96/132/143 31/48/143
f 93/129/70 95/131/70 96/132/70
f 92/128/71 94/130/71 29/45/71
f 91/127/72 93/129/72 94/130/72
f 90/126/144 92/128/144 27/42/144
f 89/125/74 91/127/74 92/128/74
f 23/36/75 88/124/75 90/126/75
f 87/123/76 89/125/76 90/126/76
f 21/33/77 86/122/77 88/124/77
f 85/121/145 87/123/145 88/124/145
f 19/30/79 84/120/79 86/122/79
f 83/119/80 85/121/80 86/122/80
f 82/118/81 84/120/81 19/30/81
f 81/117/82 83/119/82 84/120/82
f 15/24/83 80/116/83 82/118/83
f 79/115/84 81/117/84 82/118/84
f 13/21/85 78/114/85 80/116/85
f 77/113/86 79/115/86 80/116/86
f 11/18/87 76/112/87 78/114/87
f 75/111/88 77/113/88 78/114/88
f 9/15/146 74/110/146 76/112/146
f 73/109/90 75/111/90 76/112/90
f 7/12/91 72/108/91 74/110/91
f 71/107/92 73/109/92 74/110/92
f 5/9/93 70/106/93 72/108/93
f 69/105/94 71/107/94 72/108/94
f 3/6/95 68/104/95 70/106/95
f 67/103/96 69/105/96 70/106/96
f 65/100/97 68/104/97 3/6/97
f 65/100/98 66/102/98 67/103/98
f 39/60/99 148/205/99 147/202/99
f 21/33/100 136/180/100 137/181/100
f 1/2/101 146/199/101 160/228/101
f 3/6/102 145/198/102 146/200/102
f 47/72/103 152/213/103 151/210/103
f 29/45/104 132/172/104 133/173/104
f 11/18/105 141/190/105 142/191/105
f 55/84/106 156/221/106 155/218/106
f 37/57/107 147/202/107 129/165/107
f 19/30/108 137/181/108 138/183/108
f 63/96/109 160/228/109 159/227/109
f 45/69/110 151/210/110 150/209/110
f 27/42/111 133/173/111 134/176/111
f 9/15/112 142/191/112 143/194/112
f 53/81/113 155/218/113 154/217/113
f 35/54/114 129/165/114 130/168/114
f 160/229/115 146/201/115 145/197/115
f 145/197/115 144/195/115 143/193/115
f 143/193/115 142/192/115 141/189/115
f 141/189/115 140/187/115 139/185/115
f 139/185/115 138/184/115 137/182/115
f 137/182/115 136/179/115 135/177/115
f 135/177/115 134/175/115 133/174/115
f 133/174/115 132/171/115 131/169/115
f 131/169/115 130/167/115 129/166/115
f 129/166/115 147/203/115 148/204/115
f 148/204/115 149/206/115 150/208/115
f 150/208/115 151/211/115 152/212/115
f 152/212/115 153/214/115 154/216/115
f 154/216/115 155/219/115 156/220/115
f 156/220/115 157/222/115 158/224/115
f 158/224/115 159/226/115 160/229/115
f 160/229/115 145/197/115 143/193/115
f 143/193/115 141/189/115 139/185/115
f 139/185/115 137/182/115 135/177/115
f 135/177/115 133/174/115 131/169/115
f 131/169/115 129/166/115 148/204/115
f 148/204/115 150/208/115 152/212/115
f 152/212/115 154/216/115 156/220/115
f 156/220/115 158/224/115 160/229/115
f 160/229/115 143/193/115 139/185/115
f 139/185/115 135/177/115 131/169/115
f 131/169/115 148/204/115 152/212/115
f 152/212/115 156/220/115 160/229/115
f 160/229/115 139/185/115 131/169/115
f 57/87/116 157/223/116 156/221/116
f 13/21/117 140/188/117 141/190/117
f 31/48/118 131/170/118 132/172/118
f 49/75/119 153/215/119 152/213/119
f 5/9/120 144/196/120 145/198/120
f 23/36/121 135/178/121 136/180/121
f 41/63/122 149/207/122 148/205/122
f 59/90/123 158/225/123 157/223/123
f 15/24/124 139/186/124 140/188/124
f 33/51/125 130/168/125 131/170/125
f 51/78/126 154/217/126 153/215/126
f 7/12/127 143/194/127 144/196/127
f 25/39/128 134/176/128 135/178/128
f 43/66/129 150/209/129 149/207/129
f 61/93/130 159/227/130 158/225/130
