# Blender 3.3.1
# www.blender.org
o ice_cubes
v -0.115747 -0.003213 0.048127
v -0.098758 0.001422 0.077258
v -0.107440 0.028234 0.058167
v 0.009232 0.059645 0.109915
v 0.033191 0.077086 0.093167
v 0.000550 0.086456 0.090824
v -0.097366 0.030560 -0.072868
v -0.089060 0.062007 -0.062828
v -0.073408 0.048002 -0.089616
v 0.051572 0.110860 -0.027828
v 0.034583 0.106224 -0.056959
v 0.018931 0.120230 -0.030171
v -0.051572 -0.110860 0.027828
v -0.018931 -0.120230 0.030171
v -0.034583 -0.106224 0.056959
v 0.097366 -0.030560 0.072868
v 0.073408 -0.048002 0.089616
v 0.089060 -0.062007 0.062828
v -0.033191 -0.077086 -0.093167
v -0.009232 -0.059645 -0.109915
v -0.000550 -0.086456 -0.090824
v 0.115747 0.003213 -0.048127
v 0.107440 -0.028234 -0.058167
v 0.098758 -0.001422 -0.077258
v -0.065876 -0.063087 0.163179
v -0.066214 -0.026868 0.171872
v -0.089066 -0.039907 0.145504
v -0.051399 0.091423 0.100536
v -0.045444 0.100057 0.064794
v -0.074252 0.078384 0.074169
v -0.049278 -0.135836 0.045990
v -0.072468 -0.112656 0.028316
v -0.043322 -0.127202 0.010248
v -0.028846 0.027308 -0.052394
v -0.028508 -0.008911 -0.061087
v -0.057654 0.005635 -0.043020
v 0.071259 -0.067061 0.185069
v 0.100067 -0.045388 0.175694
v 0.070921 -0.030842 0.193762
v 0.091691 0.096083 0.086684
v 0.085736 0.087449 0.122426
v 0.114882 0.072903 0.104359
v 0.087857 -0.139810 0.067880
v 0.093813 -0.131176 0.032138
v 0.116665 -0.118137 0.058506
v 0.108289 0.023334 -0.030504
v 0.131480 0.000154 -0.012829
v 0.108627 -0.012885 -0.039197
v -0.194782 -0.033781 0.100960
v -0.174968 -0.009512 0.106154
v -0.202742 -0.004499 0.091592
v -0.124419 0.073343 0.038264
v -0.125065 0.080491 0.007328
v -0.152192 0.078356 0.023703
v -0.248743 -0.078932 0.005677
v -0.256702 -0.049650 -0.003691
v -0.249389 -0.071784 -0.025258
v -0.179026 0.035340 -0.087954
v -0.198840 0.011071 -0.093148
v -0.206153 0.033205 -0.071580
v -0.102250 -0.105374 0.082483
v -0.075123 -0.103239 0.066109
v -0.082436 -0.081105 0.087677
v -0.032533 0.008898 -0.011149
v -0.031886 0.001750 0.019787
v -0.024573 -0.020384 -0.001780
v -0.156210 -0.150525 -0.012800
v -0.156857 -0.143377 -0.043735
v -0.129084 -0.148390 -0.029174
v -0.086493 -0.036254 -0.106432
v -0.078534 -0.065535 -0.097063
v -0.106307 -0.060522 -0.111625
vn -0.1448 -0.2660 0.9530
vn 0.5055 -0.8479 -0.1599
vn 0.8506 0.4586 0.2572
vn -0.5055 0.8479 0.1599
vn 0.1448 0.2660 -0.9530
vn -0.8665 0.0712 0.4940
vn 0.1157 0.6007 0.7911
vn -0.6993 0.3783 -0.6064
vn 0.2828 0.9079 -0.3094
vn -0.2828 -0.9079 0.3094
vn 0.6993 -0.3783 0.6064
vn -0.1157 -0.6007 -0.7911
vn 0.8665 -0.0712 -0.4940
vn -0.9589 0.2753 -0.0688
vn -0.4598 0.4114 0.7870
vn 0.2440 0.9238 0.2949
vn -0.2551 0.7877 -0.5608
vn -0.4991 -0.1362 -0.8558
vn 0.7038 0.5124 -0.4920
vn 0.4598 -0.4114 -0.7870
vn -0.2440 -0.9238 -0.2949
vn 0.9589 -0.2753 0.0688
vn 0.2551 -0.7877 0.5608
vn -0.7038 -0.5124 0.4920
vn 0.4991 0.1362 0.8558
vn -0.8506 -0.4586 -0.2572
vn -0.1195 0.5236 0.8435
vn 0.9871 -0.0286 0.1576
vn 0.1066 0.8515 -0.5135
vn -0.9871 0.0286 -0.1576
vn 0.1195 -0.5236 -0.8435
vn -0.7004 -0.1727 0.6925
vn -0.5773 0.8104 0.0996
vn -0.5625 -0.7774 -0.2815
vn -0.4394 0.2058 -0.8744
vn 0.4394 -0.2058 0.8744
vn 0.5625 0.7774 0.2815
vn 0.5773 -0.8104 -0.0996
vn 0.7004 0.1727 -0.6925
vn -0.7734 -0.5818 0.2517
vn -0.7825 0.3905 0.4850
vn -0.6226 0.6223 -0.4745
vn -0.6135 -0.3500 -0.7079
vn 0.0091 -0.9723 -0.2334
vn 0.1599 0.2318 -0.9595
vn 0.7825 -0.3905 -0.4850
vn 0.6226 -0.6223 0.4745
vn 0.7734 0.5818 -0.2517
vn 0.6135 0.3500 0.7079
vn -0.1599 -0.2318 0.9595
vn -0.0091 0.9723 0.2334
vn -0.1066 -0.8515 0.5135
vn 0.4556 0.3812 0.8044
vn 0.7812 -0.6044 -0.1560
vn 0.4268 0.6995 -0.5732
vn -0.7812 0.6044 0.1560
vn -0.4556 -0.3812 -0.8044
vn -0.4344 0.1652 0.8854
vn 0.0584 0.9729 0.2236
vn -0.9605 -0.2750 -0.0435
vn -0.4677 0.5328 -0.7053
vn 0.4677 -0.5328 0.7053
vn 0.9605 0.2750 0.0435
vn -0.0584 -0.9729 -0.2236
vn 0.4344 -0.1652 -0.8854
vn -0.8542 -0.0672 0.5156
vn -0.2303 0.6970 0.6791
vn -0.2506 0.9220 -0.2950
vn -0.8745 0.1579 -0.4585
vn -0.6239 -0.7642 -0.1635
vn -0.0204 0.2251 -0.9741
vn 0.2303 -0.6970 -0.6791
vn 0.2506 -0.9220 0.2950
vn 0.8542 0.0672 -0.5156
vn 0.8745 -0.1579 0.4585
vn 0.0204 -0.2251 0.9741
vn 0.6239 0.7642 0.1635
vn -0.4268 -0.6995 0.5732
vt 0.952151 0.766869
vt 0.631709 0.462641
vt 0.597210 0.734457
vt 0.606181 0.426522
vt 0.973337 0.729511
vt 0.649984 0.423563
vt 0.973337 0.573558
vt 0.606181 0.275328
vt 0.007425 0.727172
vt 0.050550 0.725139
vt 0.649984 0.272370
vt 0.034268 0.761114
vt 0.766357 0.501959
vt 0.455622 0.750985
vt 0.439341 0.776627
vt 0.784632 0.462882
vt 0.799482 0.502589
vt 0.843837 0.503256
vt 0.412497 0.748952
vt 0.822651 0.309946
vt 0.192138 0.741667
vt 0.843837 0.347303
vt 0.784632 0.311689
vt 0.175857 0.777642
vt 0.799482 0.346636
vt 0.829943 0.729293
vt 0.597210 0.571957
vt 0.385438 0.727269
vt 0.580929 0.535983
vt 0.806773 0.692602
vt 0.851128 0.691935
vt 0.050550 0.562640
vt 0.367163 0.536998
vt 0.851128 0.535983
vt 0.007425 0.564673
vt 0.034268 0.536998
vt 0.385438 0.576075
vt 0.806773 0.536650
vt 0.455622 0.588485
vt 0.966045 0.465680
vt 0.412497 0.586452
vt 0.206988 0.763630
vt 0.250791 0.766588
vt 0.439341 0.552510
vt 0.192138 0.579167
vt 0.232515 0.576317
vt 0.944860 0.272370
vt 0.250791 0.615394
vt 0.966045 0.309728
vt 0.206988 0.612436
vt 0.690428 0.007425
vt 0.488913 0.224065
vt 0.715123 0.043916
vt 0.521439 0.222792
vt 0.007425 0.309706
vt 0.487130 0.257188
vt 0.666544 0.043993
vt 0.007425 0.490813
vt 0.715123 0.224286
vt 0.007425 0.222792
vt 0.690428 0.256188
vt 0.043517 0.221644
vt 0.041734 0.257188
vt 0.666544 0.224364
vt 0.371237 0.272370
vt 0.307949 0.224397
vt 0.536289 0.031891
vt 0.306166 0.257520
vt 0.397647 0.307442
vt 0.349265 0.307591
vt 0.271857 0.223249
vt 0.371237 0.522148
vt 0.224481 0.221976
vt 0.349265 0.488698
vt 0.257007 0.223249
vt 0.536289 0.212262
vt 0.222698 0.257520
vt 0.397647 0.488549
vt 0.168701 0.272370
vt 0.488913 0.042969
vt 0.591332 0.477207
vt 0.487130 0.007425
vt 0.195111 0.305969
vt 0.146729 0.305820
vt 0.521439 0.041696
vt 0.168701 0.522148
vt 0.043517 0.040548
vt 0.146729 0.486927
vt 0.007425 0.041696
vt 0.195111 0.487076
vt 0.591332 0.296836
vt 0.041734 0.007425
vt 0.437192 0.521133
vt 0.307949 0.043301
vt 0.209961 0.303705
vt 0.271857 0.042153
vt 0.412497 0.489231
vt 0.461076 0.489309
vt 0.306166 0.007757
vt 0.437192 0.272370
vt 0.224481 0.040880
vt 0.222698 0.007757
vt 0.461076 0.308938
vt 0.412497 0.308860
vt 0.209961 0.484812
vt 0.257007 0.042153
vt 0.791924 0.565725
vt 0.385213 0.936009
vt 0.358839 0.967032
vt 0.597210 0.792421
vt 0.780042 0.535983
vt 0.346098 0.933702
vt 0.756745 0.007425
vt 0.219728 0.978404
vt 0.443509 0.791476
vt 0.768626 0.036254
vt 0.411408 0.793059
vt 0.729973 0.036508
vt 0.206988 0.945073
vt 0.385213 0.783744
vt 0.806773 0.812079
vt 0.791924 0.720195
vt 0.346098 0.781437
vt 0.835913 0.782663
vt 0.838875 0.813662
vt 0.768626 0.190724
vt 0.992575 0.812717
vt 0.756745 0.220466
vt 0.206988 0.792809
vt 0.729973 0.190978
vt 0.989614 0.781719
vt 0.650713 0.566794
vt 0.612060 0.950537
vt 0.612060 0.566540
vt 0.594249 0.977629
vt 0.597210 0.946630
vt 0.638832 0.537051
vt 0.909837 0.037323
vt 0.790285 0.959602
vt 0.411408 0.947269
vt 0.443510 0.945686
vt 0.751170 0.961909
vt 0.440548 0.976684
vt 0.806773 0.966288
vt 0.650713 0.721264
vt 0.638832 0.750093
vt 0.838875 0.967871
vt 0.624800 0.764942
vt 0.612060 0.798273
vt 0.612060 0.721010
vt 0.790285 0.807338
vt 0.909837 0.191793
vt 0.751170 0.809645
vt 0.992575 0.966927
vt 0.897956 0.221535
vt 0.763911 0.776314
s 0
f 17/34/1 2/5/1 15/31/1
f 23/48/2 14/28/2 21/43/2
f 10/21/3 16/32/3 22/45/3
f 6/11/4 8/16/4 3/6/4
f 11/22/5 20/40/5 9/18/5
f 1/2/6 2/4/6 3/6/6
f 4/9/7 5/10/7 6/12/7
f 7/14/8 8/15/8 9/19/8
f 10/20/9 11/22/9 12/25/9
f 13/26/10 14/30/10 15/31/10
f 16/32/11 17/35/11 18/36/11
f 19/39/12 20/41/12 21/44/12
f 22/46/13 23/48/13 24/50/13
f 1/2/14 8/16/14 7/13/14
f 4/8/15 3/6/15 2/4/15
f 10/21/16 6/12/16 5/10/16
f 9/18/17 12/25/17 11/22/17
f 7/14/18 20/41/18 19/39/18
f 22/47/19 11/22/19 10/20/19
f 21/43/20 24/50/20 23/48/20
f 19/39/21 14/29/21 13/27/21
f 16/33/22 23/48/22 22/46/22
f 15/31/23 18/38/23 17/34/23
f 13/26/24 2/5/24 1/1/24
f 5/10/25 17/35/25 16/32/25
f 19/39/26 1/3/26 7/14/26
f 41/88/27 26/55/27 39/84/27
f 47/103/28 38/81/28 45/98/28
f 46/101/29 29/62/29 40/87/29
f 27/57/30 36/76/30 32/67/30
f 33/70/31 48/105/31 44/95/31
f 25/51/32 26/53/32 27/57/32
f 28/59/33 29/61/33 30/64/33
f 31/65/34 32/69/34 33/70/34
f 34/72/35 35/74/35 36/78/35
f 37/79/36 38/83/36 39/84/36
f 40/86/37 41/88/37 42/90/37
f 43/93/38 44/97/38 45/98/38
f 46/100/39 47/103/39 48/104/39
f 25/52/40 32/68/40 31/66/40
f 28/59/41 27/57/41 26/53/41
f 29/62/42 36/77/42 30/63/42
f 33/70/43 36/78/43 35/74/43
f 43/94/44 33/71/44 44/96/44
f 46/101/45 35/75/45 34/73/45
f 47/103/46 44/97/46 48/104/46
f 43/94/47 38/82/47 37/80/47
f 46/101/48 42/92/48 47/102/48
f 41/88/49 38/83/49 42/90/49
f 25/52/50 39/85/50 26/54/50
f 29/62/51 41/89/51 40/87/51
f 31/66/52 37/80/52 25/52/52
f 65/141/53 50/110/53 63/136/53
f 71/153/54 62/133/54 69/149/54
f 58/126/55 64/138/55 70/152/55
f 54/119/56 56/123/56 51/112/56
f 59/127/57 68/147/57 57/125/57
f 49/108/58 50/109/58 51/112/58
f 52/113/59 53/116/59 54/118/59
f 55/121/60 56/124/60 57/125/60
f 58/126/61 59/128/61 60/130/61
f 61/132/62 62/134/62 63/137/62
f 64/140/63 65/141/63 66/143/63
f 67/145/64 68/146/64 69/150/64
f 70/151/65 71/153/65 72/156/65
f 49/108/66 56/123/66 55/120/66
f 52/114/67 51/112/67 50/109/67
f 53/116/68 60/130/68 54/118/68
f 57/125/69 60/131/69 59/127/69
f 55/121/70 68/147/70 67/144/70
f 70/152/71 59/128/71 58/126/71
f 69/149/72 72/156/72 71/153/72
f 67/145/73 62/134/73 61/132/73
f 64/139/74 71/153/74 70/151/74
f 63/136/75 66/143/75 65/141/75
f 61/132/76 50/111/76 49/107/76
f 64/140/77 52/115/77 65/141/77
f 55/122/78 61/132/78 49/107/78
f 17/34/1 4/7/1 2/5/1
f 23/48/2 18/37/2 14/28/2
f 10/21/3 5/10/3 16/32/3
f 6/11/4 12/23/4 8/16/4
f 11/22/5 24/49/5 20/40/5
f 1/2/14 3/6/14 8/16/14
f 4/8/15 6/11/15 3/6/15
f 10/21/16 12/24/16 6/12/16
f 9/18/17 8/17/17 12/25/17
f 7/14/18 9/19/18 20/41/18
f 22/47/19 24/49/19 11/22/19
f 21/43/20 20/42/20 24/50/20
f 19/39/21 21/44/21 14/29/21
f 16/33/22 18/37/22 23/48/22
f 15/31/23 14/30/23 18/38/23
f 13/26/24 15/31/24 2/5/24
f 5/10/25 4/9/25 17/35/25
f 19/39/26 13/27/26 1/3/26
f 41/88/27 28/58/27 26/55/27
f 47/103/28 42/91/28 38/81/28
f 46/101/29 34/73/29 29/62/29
f 27/57/30 30/64/30 36/76/30
f 33/70/31 35/74/31 48/105/31
f 25/52/40 27/56/40 32/68/40
f 28/59/41 30/64/41 27/57/41
f 29/62/42 34/73/42 36/77/42
f 33/70/43 32/69/43 36/78/43
f 43/94/44 31/66/44 33/71/44
f 46/101/45 48/106/45 35/75/45
f 47/103/46 45/98/46 44/97/46
f 43/94/47 45/99/47 38/82/47
f 46/101/48 40/87/48 42/92/48
f 41/88/49 39/84/49 38/83/49
f 25/52/50 37/80/50 39/85/50
f 29/62/51 28/60/51 41/89/51
f 31/66/52 43/94/52 37/80/52
f 65/141/53 52/115/53 50/110/53
f 71/153/54 66/142/54 62/133/54
f 58/126/55 53/116/55 64/138/55
f 54/119/56 60/129/56 56/123/56
f 59/127/57 72/154/57 68/147/57
f 49/108/66 51/112/66 56/123/66
f 52/114/67 54/119/67 51/112/67
f 53/116/68 58/126/68 60/130/68
f 57/125/69 56/124/69 60/131/69
f 55/121/70 57/125/70 68/147/70
f 70/152/71 72/155/71 59/128/71
f 69/149/72 68/148/72 72/156/72
f 67/145/73 69/150/73 62/134/73
f 64/139/74 66/142/74 71/153/74
f 63/136/75 62/135/75 66/143/75
f 61/132/76 63/137/76 50/111/76
f 64/140/77 53/117/77 52/115/77
f 55/122/78 67/145/78 61/132/78
