# Blender 3.3.1
# www.blender.org
o juice
v -0.327330 -0.003386 0.329540
v -0.327330 1.736364 0.329540
v -0.327330 -0.003386 -0.316377
v -0.327330 1.736364 -0.316377
v 0.962268 -0.003386 0.329540
v 0.962268 1.736364 0.329540
v 0.962268 -0.003386 -0.316377
v 0.962268 1.736364 -0.316377
v -0.327330 1.736364 0.006581
v 0.317469 1.736364 -0.316377
v 0.962268 1.736364 0.006581
v 0.317469 1.736364 0.329540
v 0.317469 1.736364 0.006581
v -0.327330 1.736364 -0.154898
v -0.004930 1.736364 0.329540
v -0.327330 1.736364 0.168061
v -0.004930 1.736364 -0.316377
v 0.317469 1.736364 0.168061
v 0.317469 1.736364 -0.154898
v -0.004930 1.736364 -0.154898
v -0.004930 1.736364 0.168061
v -0.327330 1.736364 0.087321
v 0.317469 1.736364 -0.074158
v -0.025386 1.736364 0.006581
v -0.327330 1.736364 -0.074158
v 0.317469 1.736364 0.087321
v -0.260336 1.736364 0.006581
v -0.142861 1.736364 -0.108301
v 0.156269 1.736364 -0.154898
v -0.166130 1.736364 -0.154898
v -0.142861 1.736364 0.121464
v 0.156269 1.736364 0.168061
v -0.166130 1.736364 0.168061
v -0.225929 1.736364 0.087816
v -0.059793 1.736364 0.087816
v -0.059793 1.736364 -0.074653
v -0.225929 1.736364 -0.074653
v -0.251394 1.736364 0.050545
v -0.187817 1.736364 0.112719
v -0.034328 1.736364 0.050545
v -0.097905 1.736364 0.112719
v -0.034328 1.736364 -0.037382
v -0.097905 1.736364 -0.099556
v -0.251394 1.736364 -0.037382
v -0.187817 1.736364 -0.099556
v -0.186624 1.803820 0.006581
v -0.142861 1.803820 0.006581
v -0.142861 1.803820 -0.048936
v -0.099098 1.803820 0.006581
v -0.025386 1.803820 0.006581
v -0.142861 1.803820 0.062099
v -0.142861 1.803820 0.121464
v -0.251394 1.803820 0.050545
v -0.225929 1.803820 0.087816
v -0.187817 1.803820 0.112719
v -0.034328 1.803820 0.050545
v -0.059793 1.803820 0.087816
v -0.097905 1.803820 0.112719
v -0.034328 1.803820 -0.037382
v -0.097905 1.803820 -0.099556
v -0.059793 1.803820 -0.074653
v -0.251394 1.803820 -0.037382
v -0.260336 1.803820 0.006581
v -0.187817 1.803820 -0.099556
v -0.142861 1.803820 -0.108301
v -0.225929 1.803820 -0.074653
v -0.186624 1.803820 -0.048936
v -0.099098 1.803820 0.062099
v -0.186624 1.803820 0.062099
v -0.099098 1.803820 -0.048936
vn -1.0000 -0.0000 -0.0000
vn -0.0000 -0.0000 -1.0000
vn 1.0000 -0.0000 -0.0000
vn -0.0000 -0.0000 1.0000
vn -0.0000 -1.0000 -0.0000
vn -0.0000 1.0000 -0.0000
vn -0.5470 -0.0000 -0.8371
vn -0.9799 -0.0000 -0.1993
vn -0.8257 -0.0000 -0.5641
vn 0.5470 -0.0000 -0.8371
vn 0.1909 -0.0000 -0.9816
vn -0.1909 -0.0000 0.9816
vn 0.8257 -0.0000 -0.5641
vn -0.8257 -0.0000 0.5641
vn 0.1909 -0.0000 0.9816
vn 0.9799 -0.0000 -0.1993
vn 0.9799 -0.0000 0.1993
vn 0.5470 -0.0000 0.8371
vn -0.1909 -0.0000 -0.9816
vn -0.5470 -0.0000 0.8371
vn -0.9799 -0.0000 0.1993
vn 0.8257 -0.0000 0.5641
vt 0.716056 0.004312
vt 0.004312 0.378544
vt 0.563577 0.730104
vt 0.716056 0.369920
vt 0.004312 0.744152
vt 0.995688 0.355872
vt 0.563577 0.378544
vt 0.364496 0.004312
vt 0.554954 0.378544
vt 0.364496 0.369920
vt 0.554954 0.744152
vt 0.995688 0.004312
vt 0.004312 0.004312
vt 0.275321 0.378544
vt 0.834586 0.730104
vt 0.004312 0.369920
vt 0.275321 0.744152
vt 0.724679 0.355872
vt 0.283945 0.378544
vt 0.355872 0.004312
vt 0.834586 0.378544
vt 0.283945 0.744152
vt 0.355872 0.369920
vt 0.724679 0.004312
vt 0.540276 0.369920
vt 0.995688 0.180092
vt 0.419449 0.744152
vt 0.860184 0.004312
vt 0.180092 0.369920
vt 0.724679 0.180092
vt 0.139816 0.744152
vt 0.860184 0.355872
vt 0.860184 0.180092
vt 0.452386 0.369920
vt 0.995688 0.092202
vt 0.072064 0.744152
vt 0.927936 0.355872
vt 0.628165 0.369920
vt 0.995688 0.267982
vt 0.487201 0.744152
vt 0.927936 0.004312
vt 0.860184 0.267982
vt 0.860184 0.092202
vt 0.927936 0.092202
vt 0.927936 0.267982
vt 0.584221 0.369920
vt 0.995688 0.224037
vt 0.860184 0.136147
vt 0.932235 0.180092
vt 0.635600 0.796496
vt 0.496331 0.369920
vt 0.995688 0.136147
vt 0.860184 0.224037
vt 0.658400 0.796496
vt 0.981610 0.180092
vt 0.956922 0.117563
vt 0.681199 0.748175
vt 0.894060 0.092202
vt 0.961812 0.092202
vt 0.956922 0.242620
vt 0.703999 0.748175
vt 0.894060 0.267982
vt 0.961812 0.267982
vt 0.974379 0.224306
vt 0.658400 0.840711
vt 0.939465 0.224306
vt 0.635600 0.752282
vt 0.939465 0.135878
vt 0.635600 0.840711
vt 0.658400 0.752282
vt 0.974379 0.135878
vt 0.979730 0.204020
vt 0.658400 0.820425
vt 0.703999 0.738728
vt 0.966370 0.237861
vt 0.658400 0.854265
vt 0.934114 0.204020
vt 0.635600 0.772568
vt 0.635600 0.738728
vt 0.947475 0.237861
vt 0.703999 0.757622
vt 0.934114 0.156163
vt 0.635600 0.820425
vt 0.681199 0.738728
vt 0.947475 0.122323
vt 0.635600 0.854265
vt 0.979730 0.156163
vt 0.658400 0.772568
vt 0.658400 0.738728
vt 0.966370 0.122323
vt 0.681199 0.757622
vt 0.579020 0.800344
vt 0.588189 0.801064
vt 0.585823 0.831188
vt 0.597358 0.801784
vt 0.612801 0.802997
vt 0.621424 0.796496
vt 0.590555 0.770940
vt 0.689823 0.748175
vt 0.593085 0.738728
vt 0.644224 0.820425
vt 0.567324 0.775423
vt 0.644224 0.840711
vt 0.574248 0.755619
vt 0.689823 0.738728
vt 0.644224 0.854265
vt 0.583293 0.742733
vt 0.621424 0.772568
vt 0.612801 0.778995
vt 0.621424 0.752282
vt 0.609054 0.758352
vt 0.689823 0.757622
vt 0.621424 0.738728
vt 0.602130 0.744212
vt 0.621424 0.820425
vt 0.609054 0.826705
vt 0.621424 0.854265
vt 0.667023 0.738728
vt 0.593085 0.859395
vt 0.621424 0.840711
vt 0.602130 0.846509
vt 0.644224 0.772568
vt 0.563577 0.823133
vt 0.644224 0.796496
vt 0.563577 0.799131
vt 0.644224 0.738728
vt 0.667023 0.757622
vt 0.574248 0.857916
vt 0.667023 0.748175
vt 0.583293 0.863401
vt 0.644224 0.752282
vt 0.567324 0.843776
vt 0.576655 0.830468
vt 0.599723 0.771660
vt 0.581386 0.770220
vt 0.594992 0.831908
s 0
f 16/38/1 25/51/1 3/8/1
f 17/40/2 8/22/2 7/19/2
f 8/23/3 11/29/3 5/13/3
f 12/31/4 2/5/4 1/2/4
f 7/21/5 1/3/5 3/7/5
f 33/63/6 2/6/6 15/37/6
f 13/33/6 18/42/6 6/18/6
f 10/28/6 23/48/6 11/30/6
f 25/52/6 27/55/6 44/87/6
f 37/70/7 64/126/7 45/89/7
f 17/41/6 29/58/6 19/43/6
f 4/12/6 30/59/6 20/44/6
f 32/62/6 15/37/6 12/32/6
f 41/80/6 21/45/6 32/62/6
f 34/64/6 16/39/6 33/63/6
f 39/75/6 33/63/6 21/45/6
f 27/54/8 62/122/8 44/88/8
f 9/26/6 34/64/6 38/72/6
f 26/53/6 32/62/6 18/42/6
f 24/49/6 40/77/6 26/53/6
f 44/88/9 66/131/9 37/70/9
f 36/68/6 42/82/6 13/33/6
f 29/58/6 23/48/6 19/43/6
f 20/44/6 43/85/6 36/68/6
f 43/86/10 61/120/10 36/69/10
f 30/59/6 45/90/6 28/56/6
f 14/35/6 37/71/6 30/59/6
f 28/57/11 60/118/11 43/84/11
f 31/61/12 55/105/12 39/74/12
f 36/69/13 59/115/13 42/83/13
f 34/65/14 53/101/14 38/73/14
f 41/81/15 52/99/15 31/61/15
f 42/83/16 50/97/16 24/50/16
f 24/50/17 56/108/17 40/78/17
f 35/67/18 58/113/18 41/79/18
f 45/91/19 65/129/19 28/57/19
f 39/76/20 54/103/20 34/65/20
f 38/73/21 63/124/21 27/54/21
f 40/78/22 57/110/22 35/67/22
f 48/94/6 49/95/6 70/136/6
f 69/135/6 54/104/6 55/107/6
f 51/98/6 58/114/6 68/134/6
f 62/123/6 46/92/6 67/133/6
f 67/133/6 47/93/6 48/94/6
f 64/128/6 48/94/6 65/130/6
f 66/132/6 67/133/6 64/128/6
f 68/134/6 57/111/6 56/109/6
f 49/95/6 56/109/6 50/96/6
f 47/93/6 68/134/6 49/95/6
f 51/98/6 55/107/6 52/100/6
f 46/92/6 51/98/6 47/93/6
f 46/92/6 53/102/6 69/135/6
f 59/116/6 49/95/6 50/96/6
f 61/121/6 70/136/6 59/116/6
f 60/119/6 48/94/6 70/136/6
f 3/8/1 1/1/1 2/4/1
f 16/38/6 22/46/6 9/25/6
f 3/8/1 2/4/1 16/38/1
f 14/34/1 4/10/1 3/8/1
f 16/38/3 9/25/3 25/51/3
f 25/51/1 14/34/1 3/8/1
f 7/19/2 3/9/2 4/11/2
f 17/40/6 10/27/6 8/22/6
f 7/19/2 4/11/2 17/40/2
f 5/13/3 7/20/3 8/23/3
f 11/29/3 6/16/3 5/13/3
f 1/2/4 5/14/4 6/17/4
f 12/31/6 15/36/6 2/5/6
f 1/2/4 6/17/4 12/31/4
f 7/21/5 5/15/5 1/3/5
f 15/37/6 21/45/6 33/63/6
f 33/63/6 16/39/6 2/6/6
f 6/18/6 11/30/6 13/33/6
f 13/33/6 26/53/6 18/42/6
f 18/42/6 12/32/6 6/18/6
f 11/30/6 8/24/6 10/28/6
f 10/28/1 19/43/1 23/48/1
f 23/48/6 13/33/6 11/30/6
f 44/87/6 37/71/6 25/52/6
f 25/52/6 9/26/6 27/55/6
f 37/70/7 66/131/7 64/126/7
f 19/43/6 10/28/6 17/41/6
f 17/41/6 20/44/6 29/58/6
f 20/44/6 17/41/6 4/12/6
f 4/12/6 14/35/6 30/59/6
f 12/32/6 18/42/6 32/62/6
f 32/62/6 21/45/6 15/37/6
f 32/62/6 35/66/6 41/80/6
f 41/80/6 31/60/6 21/45/6
f 34/64/6 22/47/6 16/39/6
f 21/45/6 31/60/6 39/75/6
f 39/75/6 34/64/6 33/63/6
f 27/54/8 63/124/8 62/122/8
f 38/72/6 27/55/6 9/26/6
f 9/26/6 22/47/6 34/64/6
f 26/53/6 35/66/6 32/62/6
f 26/53/6 13/33/6 24/49/6
f 40/77/6 35/66/6 26/53/6
f 44/88/9 62/122/9 66/131/9
f 13/33/6 23/48/6 36/68/6
f 42/82/6 24/49/6 13/33/6
f 29/58/6 36/68/6 23/48/6
f 36/68/6 29/58/6 20/44/6
f 20/44/6 28/56/6 43/85/6
f 43/86/10 60/117/10 61/120/10
f 28/56/6 20/44/6 30/59/6
f 30/59/6 37/71/6 45/90/6
f 14/35/6 25/52/6 37/71/6
f 28/57/11 65/129/11 60/118/11
f 31/61/12 52/99/12 55/105/12
f 36/69/13 61/120/13 59/115/13
f 34/65/14 54/103/14 53/101/14
f 41/81/15 58/112/15 52/99/15
f 42/83/16 59/115/16 50/97/16
f 24/50/17 50/97/17 56/108/17
f 35/67/18 57/110/18 58/113/18
f 45/91/19 64/127/19 65/129/19
f 39/76/20 55/106/20 54/103/20
f 38/73/21 53/101/21 63/124/21
f 40/78/22 56/108/22 57/110/22
f 48/94/6 47/93/6 49/95/6
f 69/135/6 53/102/6 54/104/6
f 51/98/6 52/100/6 58/114/6
f 62/123/6 63/125/6 46/92/6
f 67/133/6 46/92/6 47/93/6
f 64/128/6 67/133/6 48/94/6
f 66/132/6 62/123/6 67/133/6
f 68/134/6 58/114/6 57/111/6
f 49/95/6 68/134/6 56/109/6
f 47/93/6 51/98/6 68/134/6
f 51/98/6 69/135/6 55/107/6
f 46/92/6 69/135/6 51/98/6
f 46/92/6 63/125/6 53/102/6
f 59/116/6 70/136/6 49/95/6
f 61/121/6 60/119/6 70/136/6
f 60/119/6 65/130/6 48/94/6
