# Blender 3.3.1
# www.blender.org
o lemon
v 0.000000 -0.019581 -0.227420
v 0.000000 0.019581 -0.227420
v 0.044367 -0.019581 -0.223050
v 0.044367 0.019581 -0.223050
v 0.087030 -0.019581 -0.210108
v 0.087030 0.019581 -0.210108
v 0.126348 -0.019581 -0.189093
v 0.126348 0.019581 -0.189093
v 0.160810 -0.019581 -0.160810
v 0.160810 0.019581 -0.160810
v 0.189093 -0.019581 -0.126348
v 0.189093 0.019581 -0.126348
v 0.210108 -0.019581 -0.087030
v 0.210108 0.019581 -0.087030
v 0.223050 -0.019581 -0.044367
v 0.223050 0.019581 -0.044367
v 0.227420 -0.019581 -0.000000
v 0.227420 0.019581 -0.000000
v 0.223050 -0.019581 0.044367
v 0.223050 0.019581 0.044367
v 0.210108 -0.019581 0.087030
v 0.210108 0.019581 0.087030
v 0.189093 -0.019581 0.126348
v 0.189093 0.019581 0.126348
v 0.160810 -0.019581 0.160810
v 0.160810 0.019581 0.160810
v 0.126348 -0.019581 0.189093
v 0.126348 0.019581 0.189093
v 0.087030 -0.019581 0.210108
v 0.087030 0.019581 0.210108
v 0.044367 -0.019581 0.223050
v 0.044367 0.019581 0.223050
v 0.000000 -0.019581 0.227420
v 0.000000 0.019581 0.227420
vn 0.0980 -0.0000 -0.9952
vn 0.2903 -0.0000 -0.9569
vn 0.4714 -0.0000 -0.8819
vn 0.6344 -0.0000 -0.7730
vn 0.7730 -0.0000 -0.6344
vn 0.8819 -0.0000 -0.4714
vn 0.9569 -0.0000 -0.2903
vn 0.9952 -0.0000 -0.0980
vn 0.9952 -0.0000 0.0980
vn 0.9569 -0.0000 0.2903
vn 0.8819 -0.0000 0.4714
vn 0.7730 -0.0000 0.6344
vn 0.6344 -0.0000 0.7730
vn 0.4714 -0.0000 0.8819
vn 0.2903 -0.0000 0.9569
vn 0.0980 -0.0000 0.9952
vn -0.0000 1.0000 -0.0000
vn -0.0000 -1.0000 -0.0000
vn -1.0000 -0.0000 -0.0000
vt 0.857340 0.496899
vt 0.850222 0.003559
vt 0.777112 0.769994
vt 0.923331 0.496899
vt 0.386777 0.003559
vt 0.784231 0.003559
vt 0.857340 0.570579
vt 0.702350 0.762630
vt 0.923331 0.570579
vt 0.312015 0.010923
vt 0.857340 0.645703
vt 0.630461 0.740823
vt 0.923331 0.645703
vt 0.240126 0.032730
vt 0.857340 0.719383
vt 0.564208 0.705410
vt 0.923331 0.719383
vt 0.173872 0.068143
vt 0.857340 0.788788
vt 0.506137 0.657752
vt 0.923331 0.788788
vt 0.115801 0.115801
vt 0.857340 0.003559
vt 0.857340 0.851251
vt 0.458479 0.599681
vt 0.923331 0.851251
vt 0.923331 0.003559
vt 0.068143 0.173872
vt 0.857340 0.066022
vt 0.423066 0.533427
vt 0.923331 0.066022
vt 0.032730 0.240126
vt 0.857340 0.135428
vt 0.401258 0.461538
vt 0.923331 0.135428
vt 0.010923 0.312014
vt 0.857340 0.209108
vt 0.393895 0.386777
vt 0.923331 0.209108
vt 0.003559 0.386776
vt 0.857340 0.284232
vt 0.401258 0.312015
vt 0.923331 0.284232
vt 0.010923 0.461538
vt 0.857340 0.357912
vt 0.423066 0.240126
vt 0.923331 0.357912
vt 0.032730 0.533427
vt 0.857340 0.427317
vt 0.458479 0.173872
vt 0.923331 0.427317
vt 0.068143 0.599681
vt 0.996441 0.295449
vt 0.857340 0.489780
vt 0.506137 0.115801
vt 0.923331 0.489780
vt 0.930450 0.295449
vt 0.115801 0.657752
vt 0.996441 0.226043
vt 0.564208 0.068143
vt 0.930450 0.226043
vt 0.173872 0.705410
vt 0.996441 0.152363
vt 0.630461 0.032730
vt 0.930450 0.152363
vt 0.240126 0.740823
vt 0.996441 0.077239
vt 0.702350 0.010923
vt 0.930450 0.077239
vt 0.312014 0.762630
vt 0.996441 0.003559
vt 0.777112 0.003559
vt 0.850222 0.769994
vt 0.930450 0.003559
vt 0.386776 0.769994
vt 0.784231 0.769994
s 0
f 2/4/1 3/7/1 1/1/1
f 4/9/2 5/11/2 3/7/2
f 6/13/3 7/15/3 5/11/3
f 8/17/4 9/19/4 7/15/4
f 10/21/5 11/24/5 9/19/5
f 12/27/6 13/29/6 11/23/6
f 14/31/7 15/33/7 13/29/7
f 16/35/8 17/37/8 15/33/8
f 18/39/9 19/41/9 17/37/9
f 20/43/10 21/45/10 19/41/10
f 22/47/11 23/49/11 21/45/11
f 24/51/12 25/54/12 23/49/12
f 26/57/13 27/59/13 25/53/13
f 28/61/14 29/63/14 27/59/14
f 30/65/15 31/67/15 29/63/15
f 32/69/16 33/71/16 31/67/16
f 2/5/17 20/44/17 12/28/17
f 1/3/18 17/38/18 25/55/18
f 33/73/19 2/6/19 1/2/19
f 2/4/1 4/9/1 3/7/1
f 4/9/2 6/13/2 5/11/2
f 6/13/3 8/17/3 7/15/3
f 8/17/4 10/21/4 9/19/4
f 10/21/5 12/26/5 11/24/5
f 12/27/6 14/31/6 13/29/6
f 14/31/7 16/35/7 15/33/7
f 16/35/8 18/39/8 17/37/8
f 18/39/9 20/43/9 19/41/9
f 20/43/10 22/47/10 21/45/10
f 22/47/11 24/51/11 23/49/11
f 24/51/12 26/56/12 25/54/12
f 26/57/13 28/61/13 27/59/13
f 28/61/14 30/65/14 29/63/14
f 30/65/15 32/69/15 31/67/15
f 32/69/16 34/74/16 33/71/16
f 6/14/17 4/10/17 2/5/17
f 2/5/17 34/75/17 32/70/17
f 32/70/17 30/66/17 28/62/17
f 28/62/17 26/58/17 24/52/17
f 24/52/17 22/48/17 20/44/17
f 20/44/17 18/40/17 16/36/17
f 16/36/17 14/32/17 12/28/17
f 12/28/17 10/22/17 8/18/17
f 8/18/17 6/14/17 2/5/17
f 2/5/17 32/70/17 28/62/17
f 28/62/17 24/52/17 20/44/17
f 20/44/17 16/36/17 12/28/17
f 12/28/17 8/18/17 2/5/17
f 2/5/17 28/62/17 20/44/17
f 31/68/18 33/72/18 1/3/18
f 1/3/18 3/8/18 5/12/18
f 5/12/18 7/16/18 9/20/18
f 9/20/18 11/25/18 13/30/18
f 13/30/18 15/34/18 17/38/18
f 17/38/18 19/42/18 21/46/18
f 21/46/18 23/50/18 25/55/18
f 25/55/18 27/60/18 29/64/18
f 29/64/18 31/68/18 1/3/18
f 1/3/18 5/12/18 9/20/18
f 9/20/18 13/30/18 17/38/18
f 17/38/18 21/46/18 25/55/18
f 25/55/18 29/64/18 1/3/18
f 1/3/18 9/20/18 17/38/18
f 33/73/19 34/76/19 2/6/19
