# Blender 3.3.1
# www.blender.org
o milk
v -0.317688 0.001377 0.317688
v -0.262516 1.568849 0.245386
v -0.317688 0.001377 -0.317688
v -0.262516 1.568849 -0.245386
v 0.317688 0.001377 0.317688
v 0.262516 1.568849 0.245386
v 0.317688 0.001377 -0.317688
v 0.262516 1.568849 -0.245386
v -0.317688 0.001377 0.000000
v -0.262516 1.765460 0.000000
v 0.317688 0.001377 0.000000
v 0.262516 1.765460 0.000000
v -0.317688 1.904619 0.000000
v 0.317688 1.904619 0.000000
v 0.262516 1.568849 0.000000
v -0.262516 1.568849 0.000000
v -0.317688 1.797998 0.000000
v -0.317688 1.543456 -0.317688
v 0.317688 1.797998 0.000000
v 0.317688 1.543456 0.317688
v -0.317688 1.543456 0.317688
v 0.317688 1.543456 -0.317688
v 0.317688 1.543456 0.000000
v -0.317688 1.543456 0.000000
v 0.317688 1.670727 0.158844
v 0.000000 1.543456 0.317688
v -0.317688 1.670727 0.158844
v 0.000000 1.797998 0.000000
v 0.317688 1.607092 0.238266
v -0.158844 1.543456 0.317688
v -0.317688 1.734363 0.079422
v 0.158844 1.797998 0.000000
v 0.317688 1.734363 0.079422
v 0.158844 1.543456 0.317688
v -0.317688 1.607092 0.238266
v -0.158844 1.797998 0.000000
v 0.000000 1.586761 0.263641
v -0.000000 1.754694 0.054047
v 0.134286 1.670727 0.158844
v -0.134286 1.670727 0.158844
v -0.094955 1.730101 0.084741
v 0.094955 1.730101 0.084741
v 0.094955 1.611354 0.232946
v -0.094955 1.611354 0.232946
v -0.124064 1.702860 0.118740
v -0.051389 1.748302 0.062024
v 0.124064 1.702860 0.118740
v 0.051389 1.748302 0.062024
v 0.124064 1.638595 0.198948
v 0.051389 1.593152 0.255664
v -0.124064 1.638595 0.198948
v -0.051389 1.593152 0.255664
v 0.000000 1.763732 0.176398
v 0.000000 1.735936 0.211091
v -0.069385 1.735936 0.211091
v 0.000000 1.708139 0.245783
v 0.000000 1.651969 0.315888
v 0.069385 1.735936 0.211091
v 0.134286 1.735936 0.211091
v -0.124064 1.768068 0.170987
v -0.134286 1.735936 0.211091
v -0.051389 1.813511 0.114271
v 0.000000 1.819902 0.106294
v 0.124064 1.768068 0.170987
v 0.051389 1.813511 0.114271
v 0.094955 1.795309 0.136988
v 0.124064 1.703803 0.251195
v 0.094955 1.676562 0.285193
v 0.051389 1.658361 0.307911
v -0.124064 1.703803 0.251195
v -0.094955 1.676562 0.285193
v -0.051389 1.658361 0.307911
v -0.094955 1.795309 0.136988
v -0.069385 1.708139 0.245783
v 0.069385 1.708139 0.245783
v -0.069385 1.763732 0.176398
v 0.069385 1.763732 0.176398
vn -1.0000 -0.0000 -0.0000
vn -0.0000 -0.0000 -1.0000
vn 1.0000 -0.0000 -0.0000
vn -0.0000 -0.0000 1.0000
vn -0.0000 -1.0000 -0.0000
vn -0.0000 0.7804 0.6253
vn -0.0000 0.7804 -0.6253
vn -0.4181 -0.7089 0.5680
vn 0.4181 -0.7089 -0.5680
vn -0.4181 -0.7089 -0.5680
vn 0.4181 -0.7089 0.5680
vn 0.4181 0.9084 -0.0000
vn -0.4181 0.9084 -0.0000
vn -0.8315 -0.3474 0.4336
vn -0.8315 0.3474 -0.4336
vn -0.5556 -0.5199 0.6489
vn 0.9808 0.1220 -0.1522
vn -0.9808 -0.1220 0.1522
vn 0.5556 -0.5199 0.6489
vn 0.1951 -0.6133 0.7654
vn -0.1951 0.6133 -0.7654
vn 0.9808 -0.1220 0.1522
vn 0.8315 -0.3474 0.4336
vn 0.1951 0.6133 -0.7654
vn -0.9808 0.1220 -0.1522
vn 0.8315 0.3474 -0.4336
vn 0.5556 0.5199 -0.6489
vn -0.1951 -0.6133 0.7654
vn -0.5556 0.5199 -0.6489
vn -0.0000 1.0000 -0.0000
vt 0.744829 0.005535
vt 0.255656 0.005535
vt 0.255656 0.835844
vt 0.579750 0.781439
vt 0.810576 0.808664
vt 0.741811 0.623995
vt 0.244587 0.005535
vt 0.255656 0.596792
vt 0.505777 0.005535
vt 0.579750 0.596792
vt 0.810576 0.624017
vt 0.741811 0.808642
vt 0.994465 0.584969
vt 0.494708 0.005535
vt 0.494708 0.835844
vt 0.664695 0.596792
vt 0.842404 0.624017
vt 0.778749 0.808664
vt 0.755899 0.585745
vt 0.005535 0.005535
vt 0.494708 0.596792
vt 0.664695 0.781065
vt 0.842404 0.808664
vt 0.778749 0.624017
vt 0.255656 0.716318
vt 0.625303 0.005535
vt 0.505777 0.689116
vt 0.810576 0.716340
vt 0.494708 0.716318
vt 0.875182 0.585357
vt 0.590819 0.688688
vt 0.842404 0.716340
vt 0.675765 0.835844
vt 0.675765 0.596792
vt 0.664695 0.688929
vt 0.778749 0.716340
vt 0.579750 0.689116
vt 0.741811 0.716318
vt 0.715879 0.835844
vt 0.789819 0.716340
vt 0.125061 0.596792
vt 0.789819 0.596814
vt 0.505777 0.585723
vt 0.244587 0.585723
vt 0.005535 0.636832
vt 0.726949 0.835844
vt 0.125061 0.813949
vt 0.715879 0.596792
vt 0.821646 0.716340
vt 0.244587 0.853988
vt 0.994465 0.005535
vt 0.494708 0.585723
vt 0.821646 0.596814
vt 0.755899 0.835866
vt 0.726949 0.596792
vt 0.255656 0.585723
vt 0.244587 0.636832
vt 0.744829 0.585723
vt 0.789819 0.835866
vt 0.755899 0.596814
vt 0.005535 0.585723
vt 0.005535 0.853988
vt 0.755899 0.006311
vt 0.821646 0.835866
vt 0.875182 0.005923
vt 0.755899 0.716340
vt 0.625303 0.585723
vt 0.726949 0.716318
vt 0.821646 0.656577
vt 0.184824 0.833969
vt 0.375182 0.585723
vt 0.244587 0.745410
vt 0.789819 0.776103
vt 0.184824 0.616812
vt 0.715879 0.716318
vt 0.125061 0.705370
vt 0.821646 0.626696
vt 0.214705 0.843978
vt 0.315419 0.585723
vt 0.244587 0.691121
vt 0.789819 0.746222
vt 0.154942 0.606802
vt 0.715879 0.656555
vt 0.125061 0.759660
vt 0.821646 0.686459
vt 0.154942 0.823959
vt 0.434945 0.585723
vt 0.244587 0.799699
vt 0.789819 0.805985
vt 0.214705 0.626822
vt 0.715879 0.776081
vt 0.125061 0.651081
vt 0.224252 0.738598
vt 0.624606 0.827860
vt 0.145395 0.712182
vt 0.877819 0.618732
vt 0.184824 0.771286
vt 0.579721 0.829322
vt 0.184824 0.679494
vt 0.505777 0.828234
vt 0.505777 0.863960
vt 0.156943 0.683597
vt 0.882592 0.655327
vt 0.579721 0.863722
vt 0.156943 0.748504
vt 0.579721 0.792509
vt 0.212704 0.767183
vt 0.615353 0.863586
vt 0.505777 0.792509
vt 0.615353 0.792135
vt 0.212704 0.702276
vt 0.169735 0.677933
vt 0.505777 0.847569
vt 0.148396 0.695624
vt 0.877819 0.638216
vt 0.169735 0.762738
vt 0.579721 0.848278
vt 0.882592 0.599842
vt 0.148396 0.730751
vt 0.199912 0.772847
vt 0.579721 0.809738
vt 0.221251 0.755157
vt 0.622201 0.847195
vt 0.199912 0.688042
vt 0.505777 0.808900
vt 0.221251 0.720029
vt 0.622201 0.808526
vt 0.191428 0.710761
vt 0.204481 0.715133
vt 0.204481 0.691419
vt 0.217534 0.719505
vt 0.600072 0.827860
vt 0.243910 0.728341
vt 0.204481 0.738847
vt 0.204481 0.761029
vt 0.548284 0.829322
vt 0.537215 0.847569
vt 0.189392 0.667676
vt 0.537215 0.828234
vt 0.204481 0.669237
vt 0.853473 0.635188
vt 0.168054 0.685367
vt 0.853473 0.615704
vt 0.165052 0.701925
vt 0.548284 0.848278
vt 0.189392 0.752481
vt 0.858245 0.596814
vt 0.168054 0.720494
vt 0.548284 0.863722
vt 0.176601 0.738247
vt 0.548284 0.809738
vt 0.219570 0.762590
vt 0.590819 0.863586
vt 0.548284 0.792509
vt 0.232361 0.756926
vt 0.597668 0.847195
vt 0.240908 0.744899
vt 0.537215 0.808900
vt 0.219570 0.677785
vt 0.590819 0.792135
vt 0.537215 0.792509
vt 0.232361 0.692019
vt 0.597668 0.808526
vt 0.240908 0.709772
vt 0.537215 0.863960
vt 0.858245 0.652299
vt 0.176601 0.673340
vt 0.217534 0.695791
vt 0.217534 0.743220
vt 0.191428 0.687046
vt 0.191428 0.734475
s 0
f 24/67/1 3/9/1 9/26/1
f 18/44/2 7/20/2 3/7/2
f 23/65/3 5/13/3 11/30/3
f 34/87/4 30/79/4 1/2/4
f 11/29/5 1/3/5 9/25/5
f 35/90/6 30/80/6 44/111/6
f 18/45/7 28/76/7 19/47/7
f 7/21/5 9/25/5 3/8/5
f 22/63/3 11/30/3 7/19/3
f 21/58/1 9/26/1 1/1/1
f 28/75/2 17/39/2 14/34/2
f 15/35/3 8/22/3 12/31/3
f 6/16/3 15/35/3 12/31/3
f 4/10/1 16/37/1 10/27/1
f 16/37/1 2/4/1 10/27/1
f 4/11/8 17/40/8 18/42/8
f 12/32/9 25/69/9 20/53/9
f 2/5/10 27/73/10 31/81/10
f 8/23/11 19/49/11 12/32/11
f 8/24/12 23/66/12 22/60/12
f 6/18/12 23/66/12 15/36/12
f 4/12/13 24/68/13 16/38/13
f 2/6/13 24/68/13 21/55/13
f 50/122/6 26/72/6 34/88/6
f 51/125/14 71/161/14 70/158/14
f 31/82/6 40/99/6 45/112/6
f 45/113/15 73/165/15 41/101/15
f 36/92/6 46/114/6 38/95/6
f 36/92/6 31/82/6 41/102/6
f 42/105/6 47/116/6 25/70/6
f 32/84/6 33/86/6 19/47/6
f 28/76/6 48/119/6 42/105/6
f 29/78/6 34/88/6 20/50/6
f 39/97/6 49/120/6 29/78/6
f 44/110/16 72/163/16 71/160/16
f 52/126/6 30/80/6 26/72/6
f 47/117/17 59/136/17 39/98/17
f 27/74/6 44/111/6 51/124/6
f 51/125/18 61/139/18 40/100/18
f 43/108/19 69/156/19 50/123/19
f 50/123/20 57/132/20 37/94/20
f 38/96/21 62/141/21 63/143/21
f 49/121/22 59/136/22 67/151/22
f 49/121/23 68/154/23 43/106/23
f 38/96/24 65/147/24 48/118/24
f 40/100/25 60/137/25 45/113/25
f 47/117/26 66/149/26 64/145/26
f 42/105/27 65/148/27 66/150/27
f 52/127/28 57/132/28 72/163/28
f 41/103/29 62/141/29 46/115/29
f 53/128/6 58/134/6 77/171/6
f 60/138/6 55/130/6 76/170/6
f 56/131/6 69/157/6 75/169/6
f 74/168/6 71/162/6 72/164/6
f 56/131/6 72/164/6 57/133/6
f 55/130/6 56/131/6 54/129/6
f 55/130/6 70/159/6 74/168/6
f 75/169/6 68/155/6 67/152/6
f 58/134/6 67/152/6 59/135/6
f 54/129/6 75/169/6 58/134/6
f 76/170/6 54/129/6 53/128/6
f 62/142/6 53/128/6 63/144/6
f 73/167/6 76/170/6 62/142/6
f 64/146/6 58/134/6 59/135/6
f 66/150/6 77/171/6 64/146/6
f 65/148/6 53/128/6 77/171/6
f 24/67/1 18/43/1 3/9/1
f 18/44/2 22/61/2 7/20/2
f 23/65/3 20/51/3 5/13/3
f 1/2/4 5/14/4 20/52/4
f 34/87/30 26/71/30 30/79/30
f 1/2/4 20/52/4 34/87/4
f 30/79/4 21/56/4 1/2/4
f 11/29/5 5/15/5 1/3/5
f 35/90/6 21/57/6 30/80/6
f 19/47/7 22/62/7 18/45/7
f 18/45/7 17/41/7 36/92/7
f 28/76/30 32/84/30 19/47/30
f 18/45/7 36/92/7 28/76/7
f 7/21/5 11/29/5 9/25/5
f 22/63/3 23/65/3 11/30/3
f 21/58/1 24/67/1 9/26/1
f 14/34/2 19/48/2 32/83/2
f 28/75/30 36/91/30 17/39/30
f 14/34/2 32/83/2 28/75/2
f 17/39/2 13/33/2 14/34/2
f 4/11/8 10/28/8 17/40/8
f 20/53/9 6/17/9 12/32/9
f 12/32/9 19/49/9 33/85/9
f 25/69/30 29/77/30 20/53/30
f 12/32/9 33/85/9 25/69/9
f 17/40/10 10/28/10 2/5/10
f 2/5/10 21/59/10 35/89/10
f 2/5/10 35/89/10 27/73/10
f 31/81/10 17/40/10 2/5/10
f 8/23/11 22/64/11 19/49/11
f 8/24/12 15/36/12 23/66/12
f 6/18/12 20/54/12 23/66/12
f 4/12/13 18/46/13 24/68/13
f 2/6/13 16/38/13 24/68/13
f 34/88/6 43/107/6 50/122/6
f 50/122/6 37/93/6 26/72/6
f 51/125/14 44/109/14 71/161/14
f 45/112/6 41/102/6 31/82/6
f 31/82/6 27/74/6 40/99/6
f 45/113/15 60/137/15 73/165/15
f 38/95/6 28/76/6 36/92/6
f 36/92/6 41/102/6 46/114/6
f 36/92/6 17/41/6 31/82/6
f 25/70/6 33/86/6 42/105/6
f 47/116/6 39/97/6 25/70/6
f 32/84/6 42/105/6 33/86/6
f 42/105/6 32/84/6 28/76/6
f 28/76/6 38/95/6 48/119/6
f 29/78/6 43/107/6 34/88/6
f 29/78/6 25/70/6 39/97/6
f 49/120/6 43/107/6 29/78/6
f 44/110/16 52/127/16 72/163/16
f 26/72/6 37/93/6 52/126/6
f 52/126/6 44/111/6 30/80/6
f 47/117/17 64/145/17 59/136/17
f 51/124/6 40/99/6 27/74/6
f 27/74/6 35/90/6 44/111/6
f 51/125/18 70/158/18 61/139/18
f 43/108/19 68/153/19 69/156/19
f 50/123/20 69/156/20 57/132/20
f 38/96/21 46/115/21 62/141/21
f 49/121/22 39/98/22 59/136/22
f 49/121/23 67/151/23 68/154/23
f 38/96/24 63/143/24 65/147/24
f 40/100/25 61/139/25 60/137/25
f 47/117/26 42/104/26 66/149/26
f 42/105/27 48/119/27 65/148/27
f 52/127/28 37/94/28 57/132/28
f 41/103/29 73/166/29 62/141/29
f 53/128/6 54/129/6 58/134/6
f 60/138/6 61/140/6 55/130/6
f 56/131/6 57/133/6 69/157/6
f 74/168/6 70/159/6 71/162/6
f 56/131/6 74/168/6 72/164/6
f 55/130/6 74/168/6 56/131/6
f 55/130/6 61/140/6 70/159/6
f 75/169/6 69/157/6 68/155/6
f 58/134/6 75/169/6 67/152/6
f 54/129/6 56/131/6 75/169/6
f 76/170/6 55/130/6 54/129/6
f 62/142/6 76/170/6 53/128/6
f 73/167/6 60/138/6 76/170/6
f 64/146/6 77/171/6 58/134/6
f 66/150/6 65/148/6 77/171/6
f 65/148/6 63/144/6 53/128/6
