# Blender 3.3.1
# www.blender.org
o ovo
v 0.651595 1.422551 -0.426928
v 0.681030 0.002575 -0.537769
v 0.651595 1.422551 0.426928
v 0.681030 0.002575 0.537769
v -0.635054 1.414934 -0.441505
v -0.681030 0.002575 -0.537769
v -0.635054 1.414934 0.441505
v -0.681030 0.002575 0.537769
v -0.681030 0.002575 0.000000
v 0.651595 1.960251 0.000000
v -0.635054 1.970994 0.000000
v 0.681030 0.002575 0.000000
v 0.681030 2.140379 0.000000
v -0.681030 2.140379 0.000000
v -0.635054 1.414934 0.000000
v 0.651595 1.422551 0.000000
v -0.585522 1.958651 -0.033405
v -0.585522 1.416048 -0.464226
v -0.618594 1.400676 0.492753
v -0.681030 1.364634 0.000000
v 0.585522 1.958651 -0.033405
v 0.618594 1.400676 0.492753
v 0.585522 1.416048 -0.464226
v 0.681030 1.364634 0.000000
v 0.715645 1.024119 -0.565103
v 0.725500 0.683605 -0.572885
v 0.783028 0.343090 -0.618311
v -0.783028 0.343090 0.618311
v -0.725500 0.683605 0.572885
v -0.715645 1.024119 0.565103
v 0.715645 1.024119 0.565103
v 0.725500 0.683605 0.572885
v 0.783028 0.343090 0.618311
v -0.715645 1.024119 -0.565103
v -0.725500 0.683605 -0.572885
v -0.783028 0.343090 -0.618311
v 0.715645 1.024119 0.000000
v 0.725500 0.683605 0.000000
v 0.783028 0.343090 0.000000
v -0.715645 1.024119 0.000000
v -0.725500 0.683605 0.000000
v -0.783028 0.343090 0.000000
v -0.618594 1.989920 0.024899
v -0.681030 1.364634 -0.537769
v 0.681030 1.364634 -0.537769
v 0.618594 1.989920 0.024899
v 0.681030 1.364634 0.537769
v -0.681030 1.364634 0.537769
v 0.681030 2.041934 0.000000
v -0.681030 2.041934 0.000000
vn -0.0000 0.6218 0.7832
vn -0.0000 0.0800 0.9968
vn -0.9949 0.1011 -0.0000
vn -0.0000 -1.0000 -0.0000
vn 0.9949 0.1011 -0.0000
vn -0.0000 0.0800 -0.9968
vn -0.0000 0.6218 -0.7832
vn -0.0000 -0.0000 -1.0000
vn -1.0000 -0.0000 -0.0000
vn 1.0000 -0.0000 -0.0000
vn -0.6923 -0.4487 0.5651
vn -0.6923 -0.4487 -0.5651
vn -0.7381 0.6747 -0.0000
vn 0.8652 -0.3118 -0.3927
vn 0.8652 -0.3118 0.3927
vn 0.8915 0.4531 -0.0000
vn -0.9579 -0.2869 -0.0000
vn -0.9860 0.1666 -0.0000
vn -0.9996 0.0289 -0.0000
vn 0.9579 -0.2869 -0.0000
vn 0.9860 0.1666 -0.0000
vn 0.9996 0.0289 -0.0000
vn -0.0000 -0.2302 -0.9731
vn -0.0000 0.1322 -0.9912
vn -0.0000 0.0228 -0.9997
vn -0.0000 -0.2302 0.9731
vn -0.0000 0.1322 0.9912
vn -0.0000 0.0228 0.9997
vn 0.2591 0.6006 -0.7564
vn -0.0000 0.8196 -0.5730
vn -0.2591 0.6006 -0.7564
vn -0.0000 0.3723 -0.9281
vn -0.0000 0.7806 0.6250
vn -0.2015 0.6091 0.7671
vn 0.2015 0.6091 0.7671
vn -0.0000 0.4318 0.9020
vt 0.639824 0.763815
vt 0.025892 0.003700
vt 0.996300 0.003700
vt 0.670364 0.454804
vt 0.404560 0.763815
vt 0.996300 0.300044
vt 0.374020 0.454804
vt 0.322236 0.476514
vt 0.643840 0.140097
vt 0.699956 0.003700
vt 0.322236 0.003700
vt 0.670364 0.447404
vt 0.400543 0.140097
vt 0.025892 0.476514
vt 0.699956 0.300044
vt 0.374020 0.447404
vt 0.522192 0.447404
vt 0.699956 0.151872
vt 0.522192 0.880777
vt 0.522192 0.019115
vt 0.522192 0.454804
vt 0.996300 0.151872
vt 0.025892 0.469114
vt 0.322236 0.469114
vt 0.522192 0.140097
vt 0.522192 0.763815
vt 0.301456 0.429557
vt 0.301456 0.311270
vt 0.039476 0.700805
vt 0.522192 0.151060
vt 0.046672 0.429557
vt 0.308652 0.700805
vt 0.046672 0.311270
vt 0.522192 0.751082
vt 0.677895 0.676854
vt 0.018360 0.225943
vt 0.680040 0.602739
vt 0.016216 0.151853
vt 0.692556 0.528406
vt 0.003700 0.077742
vt 0.351828 0.373362
vt 0.003700 0.513350
vt 0.364344 0.299251
vt 0.016216 0.574678
vt 0.366488 0.225161
vt 0.018360 0.628686
vt 0.366488 0.676854
vt 0.329767 0.628686
vt 0.364344 0.602739
vt 0.331912 0.574678
vt 0.351828 0.528406
vt 0.344428 0.513350
vt 0.329767 0.225943
vt 0.677895 0.225161
vt 0.331912 0.151853
vt 0.680040 0.299251
vt 0.344428 0.077742
vt 0.692556 0.373362
vt 0.522192 0.676854
vt 0.522192 0.602739
vt 0.522192 0.528406
vt 0.522192 0.225161
vt 0.522192 0.299251
vt 0.522192 0.373362
vt 0.039476 0.882608
vt 0.670364 0.151060
vt 0.322236 0.300044
vt 0.670364 0.751082
vt 0.025892 0.300044
vt 0.308652 0.882608
vt 0.374020 0.751082
vt 0.322236 0.686496
vt 0.374020 0.151060
vt 0.025892 0.686496
vt 0.522192 0.898410
vt 0.025892 0.447695
vt 0.322236 0.895468
vt 0.522192 0.003700
vt 0.322236 0.447695
vt 0.025892 0.895468
s 0
f 43/65/1 22/32/1 46/70/1
f 47/72/2 30/46/2 31/48/2
f 40/62/3 44/66/3 34/54/3
f 12/22/4 8/15/4 9/18/4
f 37/59/5 47/71/5 31/47/5
f 44/67/6 25/36/6 34/53/6
f 45/68/5 37/59/5 25/35/5
f 2/3/4 9/18/4 6/10/4
f 48/73/3 40/62/3 30/45/3
f 18/28/7 21/31/7 23/33/7
f 50/79/8 13/23/8 49/76/8
f 15/25/9 7/13/9 11/20/9
f 5/9/9 15/25/9 11/20/9
f 16/26/10 1/1/10 10/19/10
f 3/5/10 16/26/10 10/19/10
f 5/9/11 50/78/11 44/66/11
f 7/13/12 50/78/12 11/20/12
f 7/13/13 20/30/13 48/73/13
f 5/9/13 20/30/13 15/25/13
f 3/5/14 49/75/14 47/71/14
f 1/1/15 49/75/15 10/19/15
f 1/1/16 24/34/16 45/68/16
f 3/5/16 24/34/16 16/26/16
f 8/16/17 42/64/17 9/17/17
f 29/43/18 42/64/18 28/41/18
f 30/45/19 41/63/19 29/43/19
f 2/4/20 39/61/20 12/21/20
f 26/37/21 39/61/21 27/39/21
f 25/35/22 38/60/22 26/37/22
f 6/11/23 27/40/23 2/2/23
f 35/55/24 27/40/24 36/57/24
f 34/53/25 26/38/25 35/55/25
f 39/61/20 4/7/20 12/21/20
f 39/61/21 32/49/21 33/51/21
f 38/60/22 31/47/22 32/49/22
f 42/64/17 6/12/17 9/17/17
f 42/64/18 35/56/18 36/58/18
f 41/63/19 34/54/19 35/56/19
f 4/8/26 28/42/26 8/14/26
f 32/50/27 28/42/27 33/52/27
f 31/48/28 29/44/28 32/50/28
f 18/28/29 50/79/29 17/27/29
f 23/33/30 44/67/30 18/28/30
f 23/33/31 49/76/31 45/69/31
f 17/27/32 49/76/32 21/31/32
f 19/29/33 47/72/33 22/32/33
f 22/32/34 49/77/34 46/70/34
f 19/29/35 50/80/35 48/74/35
f 46/70/36 50/80/36 43/65/36
f 43/65/1 19/29/1 22/32/1
f 47/72/2 48/74/2 30/46/2
f 40/62/3 20/30/3 44/66/3
f 12/22/4 4/6/4 8/15/4
f 37/59/5 24/34/5 47/71/5
f 44/67/6 45/69/6 25/36/6
f 45/68/5 24/34/5 37/59/5
f 2/3/4 12/22/4 9/18/4
f 48/73/3 20/30/3 40/62/3
f 18/28/7 17/27/7 21/31/7
f 50/79/8 14/24/8 13/23/8
f 5/9/11 11/20/11 50/78/11
f 7/13/12 48/73/12 50/78/12
f 7/13/13 15/25/13 20/30/13
f 5/9/13 44/66/13 20/30/13
f 3/5/14 10/19/14 49/75/14
f 1/1/15 45/68/15 49/75/15
f 1/1/16 16/26/16 24/34/16
f 3/5/16 47/71/16 24/34/16
f 8/16/17 28/41/17 42/64/17
f 29/43/18 41/63/18 42/64/18
f 30/45/19 40/62/19 41/63/19
f 2/4/20 27/39/20 39/61/20
f 26/37/21 38/60/21 39/61/21
f 25/35/22 37/59/22 38/60/22
f 6/11/23 36/57/23 27/40/23
f 35/55/24 26/38/24 27/40/24
f 34/53/25 25/36/25 26/38/25
f 39/61/20 33/51/20 4/7/20
f 39/61/21 38/60/21 32/49/21
f 38/60/22 37/59/22 31/47/22
f 42/64/17 36/58/17 6/12/17
f 42/64/18 41/63/18 35/56/18
f 41/63/19 40/62/19 34/54/19
f 4/8/26 33/52/26 28/42/26
f 32/50/27 29/44/27 28/42/27
f 31/48/28 30/46/28 29/44/28
f 18/28/29 44/67/29 50/79/29
f 23/33/30 45/69/30 44/67/30
f 23/33/31 21/31/31 49/76/31
f 17/27/32 50/79/32 49/76/32
f 19/29/33 48/74/33 47/72/33
f 22/32/34 47/72/34 49/77/34
f 19/29/35 43/65/35 50/80/35
f 46/70/36 49/77/36 50/80/36
