# Blender 3.3.1
# www.blender.org
o prosecco
v 0.000000 0.021688 -0.124623
v 0.000000 1.547268 -0.076528
v 0.024313 0.021688 -0.122229
v 0.014930 1.547268 -0.075058
v 0.047691 0.021688 -0.115137
v 0.029286 1.547268 -0.070703
v 0.069237 0.021688 -0.103620
v 0.042517 1.547268 -0.063631
v 0.088122 0.021688 -0.088122
v 0.054114 1.547268 -0.054114
v 0.103620 0.021688 -0.069237
v 0.063631 1.547268 -0.042517
v 0.115137 0.021688 -0.047691
v 0.070703 1.547268 -0.029286
v 0.122229 0.021688 -0.024313
v 0.075058 1.547268 -0.014930
v 0.124623 0.021688 0.000000
v 0.076528 1.547268 0.000000
v 0.122229 0.021688 0.024313
v 0.075058 1.547268 0.014930
v 0.115137 0.021688 0.047691
v 0.070703 1.547268 0.029286
v 0.103620 0.021688 0.069237
v 0.063631 1.547268 0.042517
v 0.088122 0.021688 0.088122
v 0.054114 1.547268 0.054114
v 0.069237 0.021688 0.103620
v 0.042517 1.547268 0.063631
v 0.047691 0.021688 0.115137
v 0.029286 1.547268 0.070703
v 0.024313 0.021688 0.122229
v 0.014930 1.547268 0.075058
v 0.000000 0.021688 0.124623
v 0.000000 1.547268 0.076528
v -0.024313 0.021688 0.122229
v -0.014930 1.547268 0.075058
v -0.047691 0.021688 0.115137
v -0.029286 1.547268 0.070703
v -0.069237 0.021688 0.103620
v -0.042517 1.547268 0.063631
v -0.088122 0.021688 0.088122
v -0.054113 1.547268 0.054114
v -0.103620 0.021688 0.069237
v -0.063631 1.547268 0.042517
v -0.115137 0.021688 0.047691
v -0.070703 1.547268 0.029286
v -0.122229 0.021688 0.024313
v -0.075058 1.547268 0.014930
v -0.124623 0.021688 0.000000
v -0.076528 1.547268 0.000000
v -0.122229 0.021688 -0.024313
v -0.075058 1.547268 -0.014930
v -0.115137 0.021688 -0.047691
v -0.070703 1.547268 -0.029286
v -0.103620 0.021688 -0.069237
v -0.063631 1.547268 -0.042517
v -0.088122 0.021688 -0.088122
v -0.054113 1.547268 -0.054114
v -0.069237 0.021688 -0.103620
v -0.042517 1.547268 -0.063631
v -0.047691 0.021688 -0.115137
v -0.029286 1.547268 -0.070703
v -0.024313 0.021688 -0.122229
v -0.014930 1.547268 -0.075058
v 0.000000 0.237812 -0.257757
v 0.000000 0.471230 -0.267471
v 0.000000 0.704648 -0.259095
v 0.000000 0.938067 -0.179222
v 0.000000 1.171485 -0.103692
v 0.000000 1.404903 -0.074855
v 0.014604 1.404903 -0.073417
v 0.020229 1.171485 -0.101700
v 0.034964 0.938067 -0.175778
v 0.050547 0.704648 -0.254117
v 0.052181 0.471230 -0.262331
v 0.050286 0.237812 -0.252804
v 0.028646 1.404903 -0.069157
v 0.039681 1.171485 -0.095799
v 0.068585 0.938067 -0.165579
v 0.099152 0.704648 -0.239373
v 0.102357 0.471230 -0.247111
v 0.098639 0.237812 -0.238136
v 0.041587 1.404903 -0.062240
v 0.057608 1.171485 -0.086217
v 0.099570 0.938067 -0.149017
v 0.143946 0.704648 -0.215430
v 0.148599 0.471230 -0.222394
v 0.143202 0.237812 -0.214317
v 0.052931 1.404903 -0.052931
v 0.073321 1.171485 -0.073321
v 0.126729 0.938067 -0.126729
v 0.183208 0.704648 -0.183208
v 0.189130 0.471230 -0.189130
v 0.182262 0.237812 -0.182262
v 0.062240 1.404903 -0.041587
v 0.086217 1.171485 -0.057608
v 0.149017 0.938067 -0.099570
v 0.215430 0.704648 -0.143946
v 0.222394 0.471230 -0.148599
v 0.214317 0.237812 -0.143202
v 0.069157 1.404903 -0.028646
v 0.095799 1.171485 -0.039681
v 0.165579 0.938067 -0.068585
v 0.239373 0.704648 -0.099152
v 0.247111 0.471230 -0.102357
v 0.238136 0.237812 -0.098639
v 0.073417 1.404903 -0.014604
v 0.101700 1.171485 -0.020229
v 0.175778 0.938067 -0.034964
v 0.254117 0.704648 -0.050547
v 0.262331 0.471230 -0.052181
v 0.252804 0.237812 -0.050286
v 0.074855 1.404903 0.000000
v 0.103692 1.171485 0.000000
v 0.179222 0.938067 0.000000
v 0.259095 0.704648 0.000000
v 0.267471 0.471230 0.000000
v 0.257757 0.237812 0.000000
v 0.073417 1.404903 0.014604
v 0.101700 1.171485 0.020229
v 0.175778 0.938067 0.034964
v 0.254117 0.704648 0.050547
v 0.262331 0.471230 0.052181
v 0.252804 0.237812 0.050286
v 0.069157 1.404903 0.028646
v 0.095799 1.171485 0.039681
v 0.165579 0.938067 0.068585
v 0.239373 0.704648 0.099152
v 0.247111 0.471230 0.102357
v 0.238136 0.237812 0.098639
v 0.062240 1.404903 0.041587
v 0.086217 1.171485 0.057608
v 0.149017 0.938067 0.099570
v 0.215430 0.704648 0.143946
v 0.222394 0.471230 0.148599
v 0.214317 0.237812 0.143202
v 0.052931 1.404903 0.052931
v 0.073321 1.171485 0.073321
v 0.126729 0.938067 0.126729
v 0.183208 0.704648 0.183208
v 0.189130 0.471230 0.189130
v 0.182262 0.237812 0.182262
v 0.041587 1.404903 0.062240
v 0.057608 1.171485 0.086217
v 0.099570 0.938067 0.149017
v 0.143946 0.704648 0.215430
v 0.148599 0.471230 0.222394
v 0.143202 0.237812 0.214317
v 0.028646 1.404903 0.069157
v 0.039681 1.171485 0.095799
v 0.068585 0.938067 0.165579
v 0.099152 0.704648 0.239373
v 0.102357 0.471230 0.247111
v 0.098639 0.237812 0.238136
v 0.014604 1.404903 0.073417
v 0.020229 1.171485 0.101700
v 0.034964 0.938067 0.175778
v 0.050547 0.704648 0.254117
v 0.052181 0.471230 0.262331
v 0.050286 0.237812 0.252804
v 0.000000 1.404903 0.074855
v 0.000000 1.171485 0.103692
v 0.000000 0.938067 0.179222
v 0.000000 0.704648 0.259095
v 0.000000 0.471230 0.267471
v 0.000000 0.237812 0.257757
v -0.014604 1.404903 0.073417
v -0.020229 1.171485 0.101700
v -0.034964 0.938067 0.175778
v -0.050547 0.704648 0.254117
v -0.052181 0.471230 0.262331
v -0.050286 0.237812 0.252804
v -0.028646 1.404903 0.069157
v -0.039681 1.171485 0.095799
v -0.068585 0.938067 0.165579
v -0.099152 0.704648 0.239373
v -0.102357 0.471230 0.247111
v -0.098639 0.237812 0.238136
v -0.041587 1.404903 0.062240
v -0.057608 1.171485 0.086217
v -0.099570 0.938067 0.149017
v -0.143946 0.704648 0.215430
v -0.148599 0.471230 0.222394
v -0.143202 0.237812 0.214317
v -0.052931 1.404903 0.052931
v -0.073321 1.171485 0.073321
v -0.126729 0.938067 0.126729
v -0.183208 0.704648 0.183208
v -0.189130 0.471230 0.189130
v -0.182262 0.237812 0.182262
v -0.062240 1.404903 0.041587
v -0.086217 1.171485 0.057608
v -0.149017 0.938067 0.099570
v -0.215430 0.704648 0.143946
v -0.222394 0.471230 0.148599
v -0.214317 0.237812 0.143202
v -0.069157 1.404903 0.028646
v -0.095799 1.171485 0.039681
v -0.165579 0.938067 0.068585
v -0.239373 0.704648 0.099152
v -0.247111 0.471230 0.102357
v -0.238136 0.237812 0.098639
v -0.073417 1.404903 0.014604
v -0.101700 1.171485 0.020229
v -0.175778 0.938067 0.034964
v -0.254117 0.704648 0.050547
v -0.262331 0.471230 0.052181
v -0.252804 0.237812 0.050286
v -0.074855 1.404903 0.000000
v -0.103692 1.171485 0.000000
v -0.179222 0.938067 0.000000
v -0.259095 0.704648 0.000000
v -0.267471 0.471230 0.000000
v -0.257757 0.237812 0.000000
v -0.073417 1.404903 -0.014604
v -0.101700 1.171485 -0.020229
v -0.175778 0.938067 -0.034964
v -0.254117 0.704648 -0.050547
v -0.262331 0.471230 -0.052181
v -0.252804 0.237812 -0.050286
v -0.069157 1.404903 -0.028646
v -0.095799 1.171485 -0.039681
v -0.165579 0.938067 -0.068585
v -0.239373 0.704648 -0.099152
v -0.247111 0.471230 -0.102357
v -0.238136 0.237812 -0.098639
v -0.062240 1.404903 -0.041587
v -0.086217 1.171485 -0.057608
v -0.149017 0.938067 -0.099570
v -0.215430 0.704648 -0.143946
v -0.222394 0.471230 -0.148599
v -0.214317 0.237812 -0.143202
v -0.052931 1.404903 -0.052931
v -0.073321 1.171485 -0.073321
v -0.126729 0.938067 -0.126729
v -0.183208 0.704648 -0.183208
v -0.189130 0.471230 -0.189130
v -0.182262 0.237812 -0.182262
v -0.041587 1.404903 -0.062240
v -0.057608 1.171485 -0.086217
v -0.099570 0.938067 -0.149017
v -0.143946 0.704648 -0.215430
v -0.148599 0.471230 -0.222394
v -0.143202 0.237812 -0.214317
v -0.028646 1.404903 -0.069157
v -0.039681 1.171485 -0.095799
v -0.068585 0.938067 -0.165579
v -0.099152 0.704648 -0.239373
v -0.102357 0.471230 -0.247111
v -0.098639 0.237812 -0.238136
v -0.014604 1.404903 -0.073417
v -0.020229 1.171485 -0.101700
v -0.034964 0.938067 -0.175778
v -0.050547 0.704648 -0.254117
v -0.052181 0.471230 -0.262331
v -0.050286 0.237812 -0.252804
v 0.000000 0.004393 -0.230568
v 0.044982 0.004393 -0.226138
v 0.088235 0.004393 -0.213017
v 0.128097 0.004393 -0.191710
v 0.163036 0.004393 -0.163036
v 0.191710 0.004393 -0.128097
v 0.213017 0.004393 -0.088235
v 0.226138 0.004393 -0.044982
v 0.230568 0.004393 0.000000
v 0.226138 0.004393 0.044982
v 0.213017 0.004393 0.088235
v 0.191710 0.004393 0.128097
v 0.163036 0.004393 0.163036
v 0.128097 0.004393 0.191710
v 0.088235 0.004393 0.213017
v 0.044982 0.004393 0.226138
v 0.000000 0.004393 0.230568
v -0.044982 0.004393 0.226138
v -0.088235 0.004393 0.213017
v -0.128097 0.004393 0.191710
v -0.163036 0.004393 0.163036
v -0.191710 0.004393 0.128097
v -0.213017 0.004393 0.088235
v -0.226138 0.004393 0.044982
v -0.230568 0.004393 0.000000
v -0.226138 0.004393 -0.044982
v -0.213017 0.004393 -0.088235
v -0.191710 0.004393 -0.128097
v -0.163036 0.004393 -0.163036
v -0.128097 0.004393 -0.191710
v -0.088235 0.004393 -0.213017
v -0.044982 0.004393 -0.226138
v 0.000000 0.004393 -0.169010
v 0.032972 0.004393 -0.165762
v 0.064677 0.004393 -0.156145
v 0.093897 0.004393 -0.140527
v 0.119508 0.004393 -0.119508
v 0.140527 0.004393 -0.093897
v 0.156145 0.004393 -0.064677
v 0.165762 0.004393 -0.032972
v 0.169010 0.004393 0.000000
v 0.165762 0.004393 0.032972
v 0.156145 0.004393 0.064677
v 0.140527 0.004393 0.093897
v 0.119508 0.004393 0.119508
v 0.093897 0.004393 0.140527
v 0.064677 0.004393 0.156145
v 0.032972 0.004393 0.165762
v 0.000000 0.004393 0.169010
v -0.032972 0.004393 0.165762
v -0.064677 0.004393 0.156145
v -0.093897 0.004393 0.140527
v -0.119508 0.004393 0.119508
v -0.140527 0.004393 0.093897
v -0.156145 0.004393 0.064677
v -0.165762 0.004393 0.032972
v -0.169010 0.004393 0.000000
v -0.165762 0.004393 -0.032972
v -0.156145 0.004393 -0.064677
v -0.140527 0.004393 -0.093897
v -0.119508 0.004393 -0.119508
v -0.093897 0.004393 -0.140527
v -0.064677 0.004393 -0.156145
v -0.032972 0.004393 -0.165762
vn 0.0980 -0.0117 -0.9951
vn 0.2903 -0.0117 -0.9569
vn 0.4714 -0.0117 -0.8819
vn 0.6343 -0.0117 -0.7730
vn 0.7730 -0.0117 -0.6343
vn 0.8819 -0.0117 -0.4714
vn 0.9569 -0.0117 -0.2903
vn 0.9951 -0.0117 -0.0980
vn 0.9951 -0.0117 0.0980
vn 0.9569 -0.0117 0.2903
vn 0.8819 -0.0117 0.4714
vn 0.7730 -0.0117 0.6343
vn 0.6343 -0.0117 0.7730
vn 0.4714 -0.0117 0.8819
vn 0.2903 -0.0117 0.9569
vn 0.0980 -0.0117 0.9951
vn -0.0980 -0.0117 0.9951
vn -0.2903 -0.0117 0.9569
vn -0.4714 -0.0117 0.8819
vn -0.6344 -0.0117 0.7730
vn -0.7730 -0.0117 0.6343
vn -0.8819 -0.0117 0.4714
vn -0.9569 -0.0117 0.2903
vn -0.9951 -0.0117 0.0980
vn -0.9951 -0.0117 -0.0980
vn -0.9569 -0.0117 -0.2903
vn -0.8819 -0.0117 -0.4714
vn -0.7730 -0.0117 -0.6344
vn -0.6344 -0.0117 -0.7730
vn -0.4714 -0.0117 -0.8819
vn -0.0000 1.0000 -0.0000
vn -0.2903 -0.0117 -0.9569
vn -0.0980 -0.0117 -0.9951
vn -0.0000 -1.0000 -0.0000
vn -0.0974 -0.1151 -0.9886
vn -0.0979 -0.0414 -0.9943
vn -0.0980 0.0357 -0.9946
vn -0.0928 0.3224 -0.9421
vn -0.0933 0.3065 -0.9473
vn -0.0973 0.1220 -0.9877
vn -0.2884 -0.1152 -0.9506
vn -0.2900 -0.0414 -0.9561
vn -0.2901 0.0357 -0.9563
vn -0.2748 0.3224 -0.9059
vn -0.2763 0.3065 -0.9109
vn -0.2881 0.1220 -0.9498
vn -0.4683 -0.1152 -0.8761
vn -0.4710 -0.0414 -0.8812
vn -0.4711 0.0357 -0.8814
vn -0.4462 0.3224 -0.8348
vn -0.4487 0.3065 -0.8395
vn -0.4679 0.1220 -0.8753
vn -0.6302 -0.1152 -0.7679
vn -0.6338 -0.0414 -0.7723
vn -0.6340 0.0357 -0.7725
vn -0.6005 0.3224 -0.7317
vn -0.6039 0.3065 -0.7358
vn -0.6297 0.1220 -0.7672
vn -0.7679 -0.1152 -0.6302
vn -0.7723 -0.0414 -0.6338
vn -0.7725 0.0357 -0.6340
vn -0.7317 0.3224 -0.6005
vn -0.7358 0.3065 -0.6039
vn -0.7672 0.1220 -0.6297
vn -0.8761 -0.1152 -0.4683
vn -0.8812 -0.0414 -0.4710
vn -0.8814 0.0357 -0.4711
vn -0.8348 0.3224 -0.4462
vn -0.8395 0.3065 -0.4487
vn -0.8753 0.1220 -0.4679
vn -0.9506 -0.1152 -0.2884
vn -0.9561 -0.0414 -0.2900
vn -0.9563 0.0357 -0.2901
vn -0.9059 0.3224 -0.2748
vn -0.9109 0.3065 -0.2763
vn -0.9498 0.1220 -0.2881
vn -0.9886 -0.1152 -0.0974
vn -0.9943 -0.0414 -0.0979
vn -0.9946 0.0357 -0.0980
vn -0.9421 0.3224 -0.0928
vn -0.9473 0.3065 -0.0933
vn -0.9877 0.1220 -0.0973
vn -0.9886 -0.1152 0.0974
vn -0.9943 -0.0414 0.0979
vn -0.9946 0.0357 0.0980
vn -0.9421 0.3224 0.0928
vn -0.9473 0.3065 0.0933
vn -0.9877 0.1220 0.0973
vn -0.9506 -0.1152 0.2884
vn -0.9561 -0.0414 0.2900
vn -0.9563 0.0357 0.2901
vn -0.9059 0.3224 0.2748
vn -0.9109 0.3065 0.2763
vn -0.9498 0.1220 0.2881
vn -0.8761 -0.1152 0.4683
vn -0.8812 -0.0414 0.4710
vn -0.8814 0.0357 0.4711
vn -0.8348 0.3224 0.4462
vn -0.8395 0.3065 0.4487
vn -0.8753 0.1220 0.4679
vn -0.7679 -0.1152 0.6302
vn -0.7723 -0.0414 0.6339
vn -0.7725 0.0357 0.6340
vn -0.7317 0.3224 0.6005
vn -0.7358 0.3065 0.6039
vn -0.7672 0.1220 0.6297
vn -0.6302 -0.1152 0.7679
vn -0.6338 -0.0414 0.7723
vn -0.6340 0.0357 0.7725
vn -0.6005 0.3224 0.7317
vn -0.6039 0.3065 0.7358
vn -0.6297 0.1220 0.7672
vn -0.4683 -0.1152 0.8761
vn -0.4710 -0.0414 0.8812
vn -0.4711 0.0357 0.8814
vn -0.4462 0.3224 0.8348
vn -0.4487 0.3065 0.8395
vn -0.4679 0.1220 0.8753
vn -0.2884 -0.1152 0.9506
vn -0.2900 -0.0414 0.9561
vn -0.2901 0.0357 0.9563
vn -0.2748 0.3224 0.9059
vn -0.2763 0.3065 0.9109
vn -0.2881 0.1220 0.9498
vn -0.0974 -0.1152 0.9886
vn -0.0979 -0.0414 0.9943
vn -0.0980 0.0357 0.9946
vn -0.0928 0.3224 0.9421
vn -0.0933 0.3065 0.9473
vn -0.0973 0.1220 0.9877
vn 0.0974 -0.1151 0.9886
vn 0.0979 -0.0414 0.9943
vn 0.0980 0.0357 0.9946
vn 0.0928 0.3224 0.9421
vn 0.0933 0.3065 0.9473
vn 0.0973 0.1220 0.9877
vn 0.2884 -0.1152 0.9506
vn 0.2900 -0.0414 0.9561
vn 0.2901 0.0357 0.9563
vn 0.2748 0.3224 0.9059
vn 0.2763 0.3065 0.9109
vn 0.2881 0.1220 0.9498
vn 0.4683 -0.1152 0.8761
vn 0.4710 -0.0414 0.8812
vn 0.4711 0.0357 0.8814
vn 0.4462 0.3224 0.8348
vn 0.4487 0.3065 0.8395
vn 0.4679 0.1220 0.8753
vn 0.6302 -0.1152 0.7679
vn 0.6338 -0.0414 0.7723
vn 0.6340 0.0357 0.7725
vn 0.6005 0.3224 0.7317
vn 0.6039 0.3065 0.7358
vn 0.6297 0.1220 0.7672
vn 0.7679 -0.1152 0.6302
vn 0.7723 -0.0414 0.6338
vn 0.7725 0.0357 0.6340
vn 0.7317 0.3224 0.6005
vn 0.7358 0.3065 0.6039
vn 0.7672 0.1220 0.6297
vn 0.8761 -0.1152 0.4683
vn 0.8812 -0.0414 0.4710
vn 0.8814 0.0357 0.4711
vn 0.8348 0.3224 0.4462
vn 0.8395 0.3065 0.4487
vn 0.8753 0.1220 0.4679
vn 0.9506 -0.1152 0.2884
vn 0.9561 -0.0414 0.2900
vn 0.9563 0.0357 0.2901
vn 0.9059 0.3224 0.2748
vn 0.9109 0.3065 0.2763
vn 0.9498 0.1220 0.2881
vn 0.9886 -0.1152 0.0974
vn 0.9943 -0.0414 0.0979
vn 0.9946 0.0357 0.0980
vn 0.9421 0.3224 0.0928
vn 0.9473 0.3065 0.0933
vn 0.9877 0.1220 0.0973
vn 0.9886 -0.1152 -0.0974
vn 0.9943 -0.0414 -0.0979
vn 0.9946 0.0357 -0.0980
vn 0.9421 0.3224 -0.0928
vn 0.9473 0.3065 -0.0933
vn 0.9877 0.1220 -0.0973
vn 0.9506 -0.1152 -0.2884
vn 0.9561 -0.0414 -0.2900
vn 0.9563 0.0357 -0.2901
vn 0.9059 0.3224 -0.2748
vn 0.9109 0.3065 -0.2763
vn 0.9498 0.1220 -0.2881
vn 0.8761 -0.1151 -0.4683
vn 0.8812 -0.0414 -0.4710
vn 0.8814 0.0357 -0.4711
vn 0.8348 0.3224 -0.4462
vn 0.8395 0.3065 -0.4487
vn 0.8753 0.1220 -0.4679
vn 0.7679 -0.1152 -0.6302
vn 0.7723 -0.0414 -0.6338
vn 0.7725 0.0357 -0.6340
vn 0.7317 0.3224 -0.6005
vn 0.7358 0.3065 -0.6039
vn 0.7672 0.1220 -0.6297
vn 0.6302 -0.1152 -0.7679
vn 0.6338 -0.0414 -0.7723
vn 0.6340 0.0357 -0.7725
vn 0.6005 0.3224 -0.7317
vn 0.6039 0.3065 -0.7358
vn 0.6297 0.1220 -0.7672
vn 0.4683 -0.1152 -0.8761
vn 0.4710 -0.0414 -0.8812
vn 0.4711 0.0357 -0.8814
vn 0.4462 0.3224 -0.8348
vn 0.4487 0.3065 -0.8395
vn 0.4679 0.1220 -0.8753
vn 0.2884 -0.1152 -0.9506
vn 0.2900 -0.0414 -0.9561
vn 0.2901 0.0357 -0.9563
vn 0.2748 0.3224 -0.9059
vn 0.2763 0.3065 -0.9109
vn 0.2881 0.1220 -0.9498
vn 0.0974 -0.1151 -0.9886
vn 0.0979 -0.0414 -0.9943
vn 0.0980 0.0357 -0.9946
vn 0.0928 0.3224 -0.9421
vn 0.0933 0.3065 -0.9473
vn 0.0973 0.1220 -0.9877
vn -0.0357 -0.9312 0.3628
vn -0.1058 -0.9312 0.3489
vn -0.1719 -0.9312 0.3215
vn -0.2313 -0.9312 0.2818
vn -0.2818 -0.9312 0.2313
vn -0.3215 -0.9312 0.1719
vn -0.3489 -0.9312 0.1058
vn -0.3628 -0.9312 0.0357
vn -0.3628 -0.9312 -0.0357
vn -0.3489 -0.9312 -0.1058
vn -0.3215 -0.9312 -0.1719
vn -0.2818 -0.9312 -0.2313
vn -0.2313 -0.9312 -0.2818
vn -0.1719 -0.9312 -0.3215
vn -0.1058 -0.9312 -0.3489
vn -0.0357 -0.9312 -0.3628
vn 0.0357 -0.9312 -0.3628
vn 0.1058 -0.9312 -0.3489
vn 0.1719 -0.9312 -0.3215
vn 0.2313 -0.9312 -0.2818
vn 0.2818 -0.9312 -0.2313
vn 0.3215 -0.9312 -0.1719
vn 0.3489 -0.9312 -0.1058
vn 0.3628 -0.9312 -0.0357
vn 0.3628 -0.9312 0.0357
vn 0.3489 -0.9312 0.1058
vn 0.3215 -0.9312 0.1719
vn 0.2818 -0.9312 0.2313
vn 0.2313 -0.9312 0.2818
vn 0.1719 -0.9312 0.3215
vn 0.1058 -0.9312 0.3489
vn 0.0357 -0.9312 0.3628
vn -0.6343 -0.0117 0.7730
vn -0.7730 -0.0117 0.6344
vn -0.7730 -0.0117 -0.6343
vn -0.6343 -0.0117 -0.7730
vn -0.0001 1.0000 -0.0000
vn 0.0001 1.0000 -0.0000
vn -0.0974 -0.1152 -0.9886
vn -0.6339 -0.0414 -0.7723
vn -0.7723 -0.0414 0.6338
vn -0.6339 -0.0414 0.7723
vn -0.2884 -0.1151 0.9506
vn -0.0974 -0.1151 0.9886
vn 0.0974 -0.1152 0.9886
vn 0.2884 -0.1151 0.9506
vn 0.4683 -0.1151 0.8761
vn 0.6339 -0.0414 0.7723
vn 0.8761 -0.1151 0.4683
vn 0.9886 -0.1151 0.0974
vn 0.8761 -0.1152 -0.4683
vn 0.6339 -0.0414 -0.7723
vn 0.4683 -0.1151 -0.8761
vn 0.2884 -0.1151 -0.9506
vn 0.0974 -0.1152 -0.9886
vt 0.653265 0.889839
vt 0.423241 0.838443
vt 0.314478 0.764128
vt 0.653265 0.877856
vt 0.307260 0.764224
vt 0.429359 0.842531
vt 0.655603 0.866103
vt 0.299905 0.764457
vt 0.436158 0.845347
vt 0.660188 0.855032
vt 0.292696 0.764819
vt 0.443375 0.846782
vt 0.666846 0.845069
vt 0.285910 0.765297
vt 0.708590 0.764089
vt 0.450733 0.846782
vt 0.675319 0.836596
vt 0.702472 0.763836
vt 0.457950 0.845347
vt 0.685282 0.829939
vt 0.695674 0.763662
vt 0.464748 0.842531
vt 0.696353 0.825353
vt 0.688457 0.763573
vt 0.470867 0.838443
vt 0.708105 0.823015
vt 0.681098 0.763573
vt 0.476070 0.833240
vt 0.720088 0.823015
vt 0.673881 0.763662
vt 0.480158 0.827121
vt 0.731841 0.825353
vt 0.667083 0.763836
vt 0.482974 0.820323
vt 0.742912 0.829939
vt 0.660965 0.764089
vt 0.534924 0.764859
vt 0.484409 0.813106
vt 0.752875 0.836596
vt 0.528805 0.764479
vt 0.484409 0.805748
vt 0.761348 0.845069
vt 0.522007 0.764217
vt 0.482974 0.798531
vt 0.768006 0.855032
vt 0.514790 0.764084
vt 0.480158 0.791732
vt 0.772591 0.866103
vt 0.507432 0.764084
vt 0.476070 0.785614
vt 0.774929 0.877856
vt 0.500215 0.764217
vt 0.470867 0.780411
vt 0.774929 0.889839
vt 0.493417 0.764479
vt 0.464748 0.776323
vt 0.772591 0.901591
vt 0.487298 0.764859
vt 0.143471 0.765679
vt 0.457950 0.773507
vt 0.768006 0.912662
vt 0.138273 0.765147
vt 0.450733 0.772071
vt 0.761348 0.922625
vt 0.132158 0.764711
vt 0.443375 0.772071
vt 0.752875 0.931099
vt 0.125363 0.764387
vt 0.436158 0.773507
vt 0.742912 0.937756
vt 0.118147 0.764187
vt 0.429359 0.776323
vt 0.731841 0.942342
vt 0.110789 0.764120
vt 0.423241 0.780411
vt 0.720088 0.944679
vt 0.103571 0.764187
vt 0.418038 0.785614
vt 0.708105 0.944679
vt 0.096771 0.764387
vt 0.413950 0.791732
vt 0.696353 0.942342
vt 0.090649 0.764711
vt 0.411134 0.798531
vt 0.685282 0.937756
vt 0.085442 0.765147
vt 0.409698 0.805748
vt 0.675319 0.931099
vt 0.081349 0.765679
vt 0.336728 0.765118
vt 0.409698 0.813106
vt 0.666846 0.922625
vt 0.332624 0.764679
vt 0.411134 0.820323
vt 0.660188 0.912662
vt 0.413950 0.827121
vt 0.327408 0.764360
vt 0.655603 0.901591
vt 0.418038 0.833240
vt 0.321281 0.764174
vt 0.319735 0.116233
vt 0.324720 0.229701
vt 0.327155 0.344040
vt 0.319514 0.461822
vt 0.312485 0.579394
vt 0.312037 0.694718
vt 0.304977 0.694811
vt 0.302706 0.579523
vt 0.302611 0.462045
vt 0.302719 0.344363
vt 0.299494 0.230035
vt 0.295426 0.116554
vt 0.297783 0.695039
vt 0.292741 0.579839
vt 0.285387 0.462592
vt 0.277818 0.345153
vt 0.273789 0.230850
vt 0.270654 0.117340
vt 0.290732 0.695394
vt 0.282972 0.580330
vt 0.268504 0.463440
vt 0.253411 0.346380
vt 0.248592 0.232117
vt 0.246373 0.118561
vt 0.708070 0.694433
vt 0.284093 0.695861
vt 0.273777 0.580977
vt 0.252610 0.464558
vt 0.765398 0.347302
vt 0.230434 0.347996
vt 0.768005 0.232835
vt 0.224873 0.233785
vt 0.764982 0.118793
vt 0.223515 0.120169
vt 0.702085 0.694186
vt 0.278124 0.696422
vt 0.708753 0.579144
vt 0.265508 0.581755
vt 0.726216 0.462853
vt 0.238317 0.465903
vt 0.744684 0.346445
vt 0.209771 0.349940
vt 0.746621 0.231951
vt 0.744375 0.117941
vt 0.695435 0.694015
vt 0.699541 0.578908
vt 0.710295 0.462445
vt 0.721668 0.345856
vt 0.722860 0.231342
vt 0.721477 0.117354
vt 0.688376 0.693928
vt 0.689762 0.578788
vt 0.693394 0.462237
vt 0.697234 0.345555
vt 0.697636 0.231032
vt 0.697169 0.117055
vt 0.681179 0.693928
vt 0.679792 0.578788
vt 0.676161 0.462237
vt 0.672321 0.345555
vt 0.671918 0.231032
vt 0.672385 0.117055
vt 0.674119 0.694015
vt 0.670013 0.578908
vt 0.659259 0.462445
vt 0.647887 0.345856
vt 0.646694 0.231342
vt 0.648077 0.117354
vt 0.667470 0.694186
vt 0.660802 0.579144
vt 0.643339 0.462853
vt 0.624871 0.346445
vt 0.622934 0.231951
vt 0.625180 0.117941
vt 0.534403 0.695392
vt 0.661485 0.694433
vt 0.543376 0.580382
vt 0.652512 0.579487
vt 0.566878 0.463726
vt 0.629010 0.463445
vt 0.591732 0.346916
vt 0.604156 0.347302
vt 0.594338 0.232628
vt 0.601550 0.232835
vt 0.591316 0.118977
vt 0.604573 0.118793
vt 0.528419 0.695020
vt 0.535086 0.579867
vt 0.552550 0.462836
vt 0.571018 0.345629
vt 0.572954 0.231299
vt 0.570708 0.117697
vt 0.521769 0.694764
vt 0.525875 0.579512
vt 0.536629 0.462222
vt 0.548002 0.344743
vt 0.549194 0.230384
vt 0.547811 0.116815
vt 0.514710 0.694634
vt 0.516096 0.579332
vt 0.519727 0.461910
vt 0.523567 0.344291
vt 0.523970 0.229917
vt 0.523503 0.116365
vt 0.507512 0.694634
vt 0.506126 0.579332
vt 0.502495 0.461910
vt 0.498655 0.344291
vt 0.498252 0.229917
vt 0.498719 0.116365
vt 0.500453 0.694764
vt 0.496347 0.579512
vt 0.485593 0.462222
vt 0.474221 0.344743
vt 0.473028 0.230384
vt 0.474411 0.116815
vt 0.493803 0.695020
vt 0.487136 0.579867
vt 0.469672 0.462836
vt 0.451204 0.345629
vt 0.449268 0.231299
vt 0.451514 0.117697
vt 0.143473 0.696198
vt 0.487819 0.695392
vt 0.155458 0.581475
vt 0.478846 0.580382
vt 0.185158 0.465564
vt 0.455344 0.463726
vt 0.430490 0.346916
vt 0.427884 0.232628
vt 0.430906 0.118977
vt 0.138388 0.695678
vt 0.148414 0.580755
vt 0.443158 0.464859
vt 0.172984 0.464319
vt 0.198907 0.347742
vt 0.412874 0.348555
vt 0.202559 0.233482
vt 0.409698 0.234319
vt 0.200578 0.119809
vt 0.413382 0.120607
vt 0.132408 0.695251
vt 0.140129 0.580164
vt 0.158664 0.463298
vt 0.178205 0.346265
vt 0.181189 0.231957
vt 0.179983 0.118339
vt 0.125761 0.694934
vt 0.130922 0.579725
vt 0.142750 0.462538
vt 0.155198 0.345168
vt 0.157438 0.230825
vt 0.157095 0.117248
vt 0.118703 0.694739
vt 0.121145 0.579455
vt 0.125852 0.462071
vt 0.130769 0.344492
vt 0.132219 0.230127
vt 0.132792 0.116575
vt 0.111506 0.694673
vt 0.111175 0.579363
vt 0.108620 0.461913
vt 0.105857 0.344264
vt 0.106502 0.229891
vt 0.108009 0.116348
vt 0.104445 0.694739
vt 0.101395 0.579455
vt 0.091716 0.462071
vt 0.081420 0.344492
vt 0.081275 0.230127
vt 0.083698 0.116575
vt 0.097794 0.694934
vt 0.092181 0.579725
vt 0.075790 0.462538
vt 0.058396 0.345168
vt 0.057507 0.230825
vt 0.060793 0.117248
vt 0.091806 0.695252
vt 0.083887 0.580164
vt 0.061454 0.463298
vt 0.037671 0.346265
vt 0.036112 0.231957
vt 0.040175 0.118339
vt 0.086712 0.695678
vt 0.076831 0.580755
vt 0.049259 0.464319
vt 0.020041 0.347742
vt 0.017912 0.233482
vt 0.022636 0.119809
vt 0.333801 0.695686
vt 0.082709 0.696198
vt 0.342634 0.580735
vt 0.071285 0.581476
vt 0.371622 0.464140
vt 0.039673 0.465564
vt 0.402486 0.347391
vt 0.006183 0.349542
vt 0.402486 0.233160
vt 0.003606 0.235340
vt 0.394678 0.119567
vt 0.008850 0.121599
vt 0.329787 0.695257
vt 0.337073 0.580140
vt 0.362011 0.463111
vt 0.388591 0.345905
vt 0.388142 0.231626
vt 0.380855 0.118088
vt 0.324685 0.694945
vt 0.330005 0.579708
vt 0.349796 0.462365
vt 0.370932 0.344826
vt 0.369912 0.230512
vt 0.363287 0.117015
vt 0.318691 0.694763
vt 0.321703 0.579456
vt 0.335446 0.461930
vt 0.350188 0.344196
vt 0.348497 0.229862
vt 0.342649 0.116388
vt 0.312288 0.003606
vt 0.601550 0.894932
vt 0.290543 0.003894
vt 0.601550 0.872762
vt 0.268384 0.004597
vt 0.605875 0.851019
vt 0.246664 0.005688
vt 0.614359 0.830536
vt 0.756522 0.005160
vt 0.226217 0.007127
vt 0.626676 0.812103
vt 0.738088 0.004398
vt 0.642353 0.796427
vt 0.717606 0.003874
vt 0.660786 0.784110
vt 0.695862 0.003606
vt 0.681268 0.775626
vt 0.673693 0.003606
vt 0.703012 0.771301
vt 0.651949 0.003874
vt 0.725182 0.771301
vt 0.631467 0.004398
vt 0.746926 0.775626
vt 0.582855 0.005943
vt 0.613033 0.005160
vt 0.767408 0.784110
vt 0.564422 0.004797
vt 0.785841 0.796427
vt 0.543940 0.004008
vt 0.801518 0.812103
vt 0.522196 0.003606
vt 0.813834 0.830536
vt 0.500026 0.003606
vt 0.822318 0.851019
vt 0.478282 0.004008
vt 0.826644 0.872762
vt 0.457800 0.004797
vt 0.826644 0.894932
vt 0.439367 0.005943
vt 0.822318 0.916676
vt 0.193153 0.006701
vt 0.423690 0.007401
vt 0.813834 0.937158
vt 0.174731 0.005387
vt 0.801518 0.955592
vt 0.154257 0.004410
vt 0.785841 0.971268
vt 0.132518 0.003809
vt 0.767408 0.983585
vt 0.110349 0.003606
vt 0.746926 0.992069
vt 0.088602 0.003809
vt 0.725182 0.996394
vt 0.068114 0.004410
vt 0.703012 0.996394
vt 0.049671 0.005387
vt 0.681268 0.992069
vt 0.033981 0.006701
vt 0.660786 0.983585
vt 0.379326 0.006588
vt 0.021649 0.008303
vt 0.642353 0.971268
vt 0.366961 0.005265
vt 0.626676 0.955592
vt 0.351246 0.004305
vt 0.614359 0.937158
vt 0.332785 0.003745
vt 0.605875 0.916676
vt 0.631598 0.891973
vt 0.631598 0.875722
vt 0.634769 0.859783
vt 0.640988 0.844770
vt 0.650016 0.831258
vt 0.661507 0.819767
vt 0.675019 0.810738
vt 0.690033 0.804519
vt 0.705971 0.801349
vt 0.722222 0.801349
vt 0.738161 0.804519
vt 0.753175 0.810738
vt 0.766687 0.819767
vt 0.778178 0.831258
vt 0.787206 0.844770
vt 0.793425 0.859783
vt 0.796595 0.875722
vt 0.796595 0.891973
vt 0.793425 0.907911
vt 0.787206 0.922925
vt 0.778178 0.936437
vt 0.766687 0.947928
vt 0.753175 0.956956
vt 0.738161 0.963175
vt 0.722222 0.966346
vt 0.705971 0.966346
vt 0.690033 0.963175
vt 0.675019 0.956957
vt 0.661507 0.947928
vt 0.650016 0.936437
vt 0.640988 0.922925
vt 0.634769 0.907911
s 0
f 70/106/1 4/5/1 71/107/1
f 4/5/2 77/113/2 71/107/2
f 6/8/3 83/119/3 77/113/3
f 8/11/4 89/126/4 83/119/4
f 10/15/5 95/135/5 89/125/5
f 12/18/6 101/145/6 95/135/6
f 14/21/7 107/151/7 101/145/7
f 16/24/8 113/157/8 107/151/8
f 18/27/9 119/163/9 113/157/9
f 20/30/10 125/169/10 119/163/10
f 22/33/11 131/176/11 125/169/11
f 24/37/12 137/187/12 131/175/12
f 26/40/13 143/193/13 137/187/13
f 28/43/14 149/199/14 143/193/14
f 30/46/15 155/205/15 149/199/15
f 32/49/16 161/211/16 155/205/16
f 34/52/17 167/217/17 161/211/17
f 36/55/18 173/224/18 167/217/18
f 38/59/19 179/232/19 173/223/19
f 40/62/20 185/242/20 179/232/20
f 42/65/21 191/248/21 185/242/21
f 191/248/22 46/71/22 197/254/22
f 46/71/23 203/260/23 197/254/23
f 48/74/24 209/266/24 203/260/24
f 50/77/25 215/272/25 209/266/25
f 52/80/26 221/278/26 215/272/26
f 221/278/27 56/86/27 227/284/27
f 56/86/28 233/291/28 227/284/28
f 58/90/29 239/302/29 233/290/29
f 60/93/30 245/308/30 239/302/30
f 38/60/31 22/34/31 6/9/31
f 62/97/32 251/314/32 245/308/32
f 64/100/33 70/106/33 251/314/33
f 31/48/34 47/73/34 63/98/34
f 256/319/35 257/320/35 288/386/35
f 255/318/36 65/101/36 256/319/36
f 254/317/37 66/102/37 255/318/37
f 253/316/38 67/103/38 254/317/38
f 252/315/39 68/104/39 253/316/39
f 251/314/40 69/105/40 252/315/40
f 250/313/41 288/386/41 287/384/41
f 249/312/42 256/319/42 250/313/42
f 248/311/43 255/318/43 249/312/43
f 247/310/44 254/317/44 248/311/44
f 246/309/45 253/316/45 247/310/45
f 245/308/46 252/315/46 246/309/46
f 244/307/47 287/384/47 286/382/47
f 244/307/48 249/312/48 250/313/48
f 242/305/49 249/312/49 243/306/49
f 241/304/50 248/311/50 242/305/50
f 241/304/51 246/309/51 247/310/51
f 240/303/52 245/308/52 246/309/52
f 238/300/53 286/382/53 285/379/53
f 237/298/54 244/307/54 238/300/54
f 236/296/55 243/306/55 237/298/55
f 235/294/56 242/305/56 236/296/56
f 234/292/57 241/304/57 235/294/57
f 233/290/58 240/303/58 234/292/58
f 232/289/59 285/380/59 284/377/59
f 231/288/60 238/301/60 232/289/60
f 230/287/61 237/299/61 231/288/61
f 229/286/62 236/297/62 230/287/62
f 228/285/63 235/295/63 229/286/63
f 227/284/64 234/293/64 228/285/64
f 226/283/65 284/377/65 283/375/65
f 225/282/66 232/289/66 226/283/66
f 224/281/67 231/288/67 225/282/67
f 224/281/68 229/286/68 230/287/68
f 222/279/69 229/286/69 223/280/69
f 221/278/70 228/285/70 222/279/70
f 220/277/71 283/375/71 282/373/71
f 219/276/72 226/283/72 220/277/72
f 218/275/73 225/282/73 219/276/73
f 217/274/74 224/281/74 218/275/74
f 216/273/75 223/280/75 217/274/75
f 215/272/76 222/279/76 216/273/76
f 214/271/77 282/373/77 281/371/77
f 213/270/78 220/277/78 214/271/78
f 212/269/79 219/276/79 213/270/79
f 211/268/80 218/275/80 212/269/80
f 210/267/81 217/274/81 211/268/81
f 210/267/82 215/272/82 216/273/82
f 208/265/83 281/371/83 280/369/83
f 207/264/84 214/271/84 208/265/84
f 207/264/85 212/269/85 213/270/85
f 205/262/86 212/269/86 206/263/86
f 204/261/87 211/268/87 205/262/87
f 204/261/88 209/266/88 210/267/88
f 202/259/89 280/369/89 279/367/89
f 201/258/90 208/265/90 202/259/90
f 200/257/91 207/264/91 201/258/91
f 199/256/92 206/263/92 200/257/92
f 199/256/93 204/261/93 205/262/93
f 197/254/94 204/261/94 198/255/94
f 196/253/95 279/367/95 278/365/95
f 195/252/96 202/259/96 196/253/96
f 194/251/97 201/258/97 195/252/97
f 194/251/98 199/256/98 200/257/98
f 192/249/99 199/256/99 193/250/99
f 191/248/100 198/255/100 192/249/100
f 190/247/101 278/365/101 277/363/101
f 189/246/102 196/253/102 190/247/102
f 188/245/103 195/252/103 189/246/103
f 187/244/104 194/251/104 188/245/104
f 186/243/105 193/250/105 187/244/105
f 185/242/106 192/249/106 186/243/106
f 184/240/107 277/363/107 276/360/107
f 183/238/108 190/247/108 184/240/108
f 182/236/109 189/246/109 183/238/109
f 182/236/110 187/244/110 188/245/110
f 181/235/111 186/243/111 187/244/111
f 179/232/112 186/243/112 180/233/112
f 178/231/113 276/361/113 275/358/113
f 177/230/114 184/241/114 178/231/114
f 176/229/115 183/239/115 177/230/115
f 175/228/116 182/237/116 176/229/116
f 174/225/117 181/235/117 175/227/117
f 173/223/118 180/233/118 174/225/118
f 172/222/119 275/358/119 274/356/119
f 171/221/120 178/231/120 172/222/120
f 170/220/121 177/230/121 171/221/121
f 169/219/122 176/229/122 170/220/122
f 168/218/123 175/228/123 169/219/123
f 167/217/124 174/226/124 168/218/124
f 166/216/125 274/356/125 273/354/125
f 165/215/126 172/222/126 166/216/126
f 165/215/127 170/220/127 171/221/127
f 163/213/128 170/220/128 164/214/128
f 162/212/129 169/219/129 163/213/129
f 161/211/130 168/218/130 162/212/130
f 160/210/131 273/354/131 272/352/131
f 159/209/132 166/216/132 160/210/132
f 158/208/133 165/215/133 159/209/133
f 158/208/134 163/213/134 164/214/134
f 156/206/135 163/213/135 157/207/135
f 155/205/136 162/212/136 156/206/136
f 154/204/137 272/352/137 271/350/137
f 153/203/138 160/210/138 154/204/138
f 152/202/139 159/209/139 153/203/139
f 151/201/140 158/208/140 152/202/140
f 151/201/141 156/206/141 157/207/141
f 150/200/142 155/205/142 156/206/142
f 148/198/143 271/350/143 270/348/143
f 147/197/144 154/204/144 148/198/144
f 146/196/145 153/203/145 147/197/145
f 145/195/146 152/202/146 146/196/146
f 145/195/147 150/200/147 151/201/147
f 143/193/148 150/200/148 144/194/148
f 142/192/149 270/348/149 269/346/149
f 141/191/150 148/198/150 142/192/150
f 140/190/151 147/197/151 141/191/151
f 140/190/152 145/195/152 146/196/152
f 138/188/153 145/195/153 139/189/153
f 137/187/154 144/194/154 138/188/154
f 136/185/155 269/346/155 268/343/155
f 135/183/156 142/192/156 136/185/156
f 134/181/157 141/191/157 135/183/157
f 133/179/158 140/190/158 134/181/158
f 132/177/159 139/189/159 133/179/159
f 131/175/160 138/188/160 132/177/160
f 130/174/161 268/344/161 267/341/161
f 129/173/162 136/186/162 130/174/162
f 128/172/163 135/184/163 129/173/163
f 127/171/164 134/182/164 128/172/164
f 126/170/165 133/180/165 127/171/165
f 125/169/166 132/178/166 126/170/166
f 124/168/167 267/341/167 266/339/167
f 123/167/168 130/174/168 124/168/168
f 122/166/169 129/173/169 123/167/169
f 122/166/170 127/171/170 128/172/170
f 120/164/171 127/171/171 121/165/171
f 119/163/172 126/170/172 120/164/172
f 118/162/173 266/339/173 265/337/173
f 117/161/174 124/168/174 118/162/174
f 116/160/175 123/167/175 117/161/175
f 116/160/176 121/165/176 122/166/176
f 114/158/177 121/165/177 115/159/177
f 113/157/178 120/164/178 114/158/178
f 112/156/179 265/337/179 264/335/179
f 111/155/180 118/162/180 112/156/180
f 110/154/181 117/161/181 111/155/181
f 110/154/182 115/159/182 116/160/182
f 108/152/183 115/159/183 109/153/183
f 107/151/184 114/158/184 108/152/184
f 263/333/185 112/156/185 264/335/185
f 105/149/186 112/156/186 106/150/186
f 104/148/187 111/155/187 105/149/187
f 103/147/188 110/154/188 104/148/188
f 102/146/189 109/153/189 103/147/189
f 102/146/190 107/151/190 108/152/190
f 100/144/191 263/333/191 262/331/191
f 99/143/192 106/150/192 100/144/192
f 98/141/193 105/149/193 99/143/193
f 97/139/194 104/148/194 98/141/194
f 96/137/195 103/147/195 97/139/195
f 95/135/196 102/146/196 96/137/196
f 94/133/197 262/331/197 261/328/197
f 93/131/198 100/144/198 94/133/198
f 92/129/199 99/143/199 93/131/199
f 91/128/200 98/142/200 92/130/200
f 90/127/201 97/140/201 91/128/201
f 89/126/202 96/138/202 90/127/202
f 88/124/203 261/329/203 260/326/203
f 87/123/204 94/134/204 88/124/204
f 86/122/205 93/132/205 87/123/205
f 85/121/206 92/130/206 86/122/206
f 84/120/207 91/128/207 85/121/207
f 83/119/208 90/127/208 84/120/208
f 82/118/209 260/326/209 259/324/209
f 81/117/210 88/124/210 82/118/210
f 80/116/211 87/123/211 81/117/211
f 79/115/212 86/122/212 80/116/212
f 78/114/213 85/121/213 79/115/213
f 77/113/214 84/120/214 78/114/214
f 76/112/215 259/324/215 258/322/215
f 75/111/216 82/118/216 76/112/216
f 74/110/217 81/117/217 75/111/217
f 73/109/218 80/116/218 74/110/218
f 72/108/219 79/115/219 73/109/219
f 71/107/220 78/114/220 72/108/220
f 257/320/221 76/112/221 258/322/221
f 65/101/222 75/111/222 76/112/222
f 66/102/223 74/110/223 75/111/223
f 67/103/224 73/109/224 74/110/224
f 68/104/225 72/108/225 73/109/225
f 69/105/226 71/107/226 72/108/226
f 289/388/34 258/323/34 290/389/34
f 290/389/34 259/325/34 291/390/34
f 291/390/34 260/327/34 292/391/34
f 292/391/34 261/330/34 293/392/34
f 294/393/34 261/330/34 262/332/34
f 294/393/34 263/334/34 295/394/34
f 296/395/34 263/334/34 264/336/34
f 296/395/34 265/338/34 297/396/34
f 297/396/34 266/340/34 298/397/34
f 298/397/34 267/342/34 299/398/34
f 299/398/34 268/345/34 300/399/34
f 300/399/34 269/347/34 301/400/34
f 301/400/34 270/349/34 302/401/34
f 302/401/34 271/351/34 303/402/34
f 304/403/34 271/351/34 272/353/34
f 304/403/34 273/355/34 305/404/34
f 305/404/34 274/357/34 306/405/34
f 306/405/34 275/359/34 307/406/34
f 308/407/34 275/359/34 276/362/34
f 308/407/34 277/364/34 309/408/34
f 310/409/34 277/364/34 278/366/34
f 310/409/34 279/368/34 311/410/34
f 312/411/34 279/368/34 280/370/34
f 312/411/34 281/372/34 313/412/34
f 313/412/34 282/374/34 314/413/34
f 314/413/34 283/376/34 315/414/34
f 315/414/34 284/378/34 316/415/34
f 316/415/34 285/381/34 317/416/34
f 317/416/34 286/383/34 318/417/34
f 318/417/34 287/385/34 319/418/34
f 320/419/34 287/385/34 288/387/34
f 320/419/34 257/321/34 289/388/34
f 1/1/227 290/389/227 3/4/227
f 5/7/228 290/389/228 291/390/228
f 7/10/229 291/390/229 292/391/229
f 7/10/230 293/392/230 9/13/230
f 11/17/231 293/392/231 294/393/231
f 11/17/232 295/394/232 13/20/232
f 15/23/233 295/394/233 296/395/233
f 17/26/234 296/395/234 297/396/234
f 17/26/235 298/397/235 19/29/235
f 19/29/236 299/398/236 21/32/236
f 23/35/237 299/398/237 300/399/237
f 23/35/238 301/400/238 25/39/238
f 27/42/239 301/400/239 302/401/239
f 27/42/240 303/402/240 29/45/240
f 31/48/241 303/402/241 304/403/241
f 33/51/242 304/403/242 305/404/242
f 33/51/243 306/405/243 35/54/243
f 35/54/244 307/406/244 37/57/244
f 39/61/245 307/406/245 308/407/245
f 39/61/246 309/408/246 41/64/246
f 43/67/247 309/408/247 310/409/247
f 43/67/248 311/410/248 45/70/248
f 45/70/249 312/411/249 47/73/249
f 49/76/250 312/411/250 313/412/250
f 49/76/251 314/413/251 51/79/251
f 51/79/252 315/414/252 53/82/252
f 55/85/253 315/414/253 316/415/253
f 55/85/254 317/416/254 57/88/254
f 59/92/255 317/416/255 318/417/255
f 61/95/256 318/417/256 319/418/256
f 61/95/257 320/419/257 63/98/257
f 1/1/258 320/419/258 289/388/258
f 70/106/1 2/3/1 4/5/1
f 4/5/2 6/8/2 77/113/2
f 6/8/3 8/11/3 83/119/3
f 8/11/4 10/14/4 89/126/4
f 10/15/5 12/18/5 95/135/5
f 12/18/6 14/21/6 101/145/6
f 14/21/7 16/24/7 107/151/7
f 16/24/8 18/27/8 113/157/8
f 18/27/9 20/30/9 119/163/9
f 20/30/10 22/33/10 125/169/10
f 22/33/11 24/36/11 131/176/11
f 24/37/12 26/40/12 137/187/12
f 26/40/13 28/43/13 143/193/13
f 28/43/14 30/46/14 149/199/14
f 30/46/15 32/49/15 155/205/15
f 32/49/16 34/52/16 161/211/16
f 34/52/17 36/55/17 167/217/17
f 36/55/18 38/58/18 173/224/18
f 38/59/19 40/62/19 179/232/19
f 40/62/259 42/65/259 185/242/259
f 42/65/260 44/68/260 191/248/260
f 191/248/22 44/68/22 46/71/22
f 46/71/23 48/74/23 203/260/23
f 48/74/24 50/77/24 209/266/24
f 50/77/25 52/80/25 215/272/25
f 52/80/26 54/83/26 221/278/26
f 221/278/27 54/83/27 56/86/27
f 56/86/261 58/89/261 233/291/261
f 58/90/262 60/93/262 239/302/262
f 60/93/30 62/97/30 245/308/30
f 6/9/31 4/6/31 2/2/31
f 2/2/31 64/99/31 62/96/31
f 62/96/31 60/94/31 58/91/31
f 58/91/263 56/87/263 54/84/263
f 54/84/31 52/81/31 50/78/31
f 50/78/31 48/75/31 46/72/31
f 46/72/263 44/69/263 42/66/263
f 42/66/31 40/63/31 38/60/31
f 38/60/31 36/56/31 34/53/31
f 34/53/31 32/50/31 30/47/31
f 30/47/31 28/44/31 26/41/31
f 26/41/264 24/38/264 22/34/264
f 22/34/31 20/31/31 18/28/31
f 18/28/31 16/25/31 14/22/31
f 14/22/264 12/19/264 10/16/264
f 10/16/31 8/12/31 6/9/31
f 6/9/31 2/2/31 62/96/31
f 62/96/31 58/91/31 54/84/31
f 54/84/31 50/78/31 46/72/31
f 46/72/31 42/66/31 38/60/31
f 38/60/31 34/53/31 30/47/31
f 30/47/31 26/41/31 22/34/31
f 22/34/31 18/28/31 14/22/31
f 14/22/31 10/16/31 6/9/31
f 6/9/31 62/96/31 54/84/31
f 54/84/31 46/72/31 38/60/31
f 38/60/31 30/47/31 22/34/31
f 22/34/31 14/22/31 6/9/31
f 6/9/31 54/84/31 38/60/31
f 62/97/32 64/100/32 251/314/32
f 64/100/33 2/3/33 70/106/33
f 63/98/34 1/1/34 3/4/34
f 3/4/34 5/7/34 7/10/34
f 7/10/34 9/13/34 11/17/34
f 11/17/34 13/20/34 15/23/34
f 15/23/34 17/26/34 19/29/34
f 19/29/34 21/32/34 23/35/34
f 23/35/34 25/39/34 27/42/34
f 27/42/34 29/45/34 31/48/34
f 31/48/34 33/51/34 35/54/34
f 35/54/34 37/57/34 39/61/34
f 39/61/34 41/64/34 43/67/34
f 43/67/34 45/70/34 47/73/34
f 47/73/34 49/76/34 51/79/34
f 51/79/34 53/82/34 55/85/34
f 55/85/34 57/88/34 59/92/34
f 59/92/34 61/95/34 63/98/34
f 63/98/34 3/4/34 7/10/34
f 7/10/34 11/17/34 15/23/34
f 15/23/34 19/29/34 23/35/34
f 23/35/34 27/42/34 31/48/34
f 31/48/34 35/54/34 39/61/34
f 39/61/34 43/67/34 47/73/34
f 47/73/34 51/79/34 55/85/34
f 55/85/34 59/92/34 63/98/34
f 63/98/34 7/10/34 15/23/34
f 15/23/34 23/35/34 31/48/34
f 31/48/34 39/61/34 47/73/34
f 47/73/34 55/85/34 63/98/34
f 63/98/34 15/23/34 31/48/34
f 256/319/265 65/101/265 257/320/265
f 255/318/36 66/102/36 65/101/36
f 254/317/37 67/103/37 66/102/37
f 253/316/38 68/104/38 67/103/38
f 252/315/39 69/105/39 68/104/39
f 251/314/40 70/106/40 69/105/40
f 250/313/41 256/319/41 288/386/41
f 249/312/42 255/318/42 256/319/42
f 248/311/43 254/317/43 255/318/43
f 247/310/44 253/316/44 254/317/44
f 246/309/45 252/315/45 253/316/45
f 245/308/46 251/314/46 252/315/46
f 244/307/47 250/313/47 287/384/47
f 244/307/48 243/306/48 249/312/48
f 242/305/49 248/311/49 249/312/49
f 241/304/50 247/310/50 248/311/50
f 241/304/51 240/303/51 246/309/51
f 240/303/52 239/302/52 245/308/52
f 238/300/53 244/307/53 286/382/53
f 237/298/266 243/306/266 244/307/266
f 236/296/55 242/305/55 243/306/55
f 235/294/56 241/304/56 242/305/56
f 234/292/57 240/303/57 241/304/57
f 233/290/58 239/302/58 240/303/58
f 232/289/59 238/301/59 285/380/59
f 231/288/60 237/299/60 238/301/60
f 230/287/61 236/297/61 237/299/61
f 229/286/62 235/295/62 236/297/62
f 228/285/63 234/293/63 235/295/63
f 227/284/64 233/291/64 234/293/64
f 226/283/65 232/289/65 284/377/65
f 225/282/66 231/288/66 232/289/66
f 224/281/67 230/287/67 231/288/67
f 224/281/68 223/280/68 229/286/68
f 222/279/69 228/285/69 229/286/69
f 221/278/70 227/284/70 228/285/70
f 220/277/71 226/283/71 283/375/71
f 219/276/72 225/282/72 226/283/72
f 218/275/73 224/281/73 225/282/73
f 217/274/74 223/280/74 224/281/74
f 216/273/75 222/279/75 223/280/75
f 215/272/76 221/278/76 222/279/76
f 214/271/77 220/277/77 282/373/77
f 213/270/78 219/276/78 220/277/78
f 212/269/79 218/275/79 219/276/79
f 211/268/80 217/274/80 218/275/80
f 210/267/81 216/273/81 217/274/81
f 210/267/82 209/266/82 215/272/82
f 208/265/83 214/271/83 281/371/83
f 207/264/84 213/270/84 214/271/84
f 207/264/85 206/263/85 212/269/85
f 205/262/86 211/268/86 212/269/86
f 204/261/87 210/267/87 211/268/87
f 204/261/88 203/260/88 209/266/88
f 202/259/89 208/265/89 280/369/89
f 201/258/90 207/264/90 208/265/90
f 200/257/91 206/263/91 207/264/91
f 199/256/92 205/262/92 206/263/92
f 199/256/93 198/255/93 204/261/93
f 197/254/94 203/260/94 204/261/94
f 196/253/95 202/259/95 279/367/95
f 195/252/96 201/258/96 202/259/96
f 194/251/97 200/257/97 201/258/97
f 194/251/98 193/250/98 199/256/98
f 192/249/99 198/255/99 199/256/99
f 191/248/100 197/254/100 198/255/100
f 190/247/101 196/253/101 278/365/101
f 189/246/267 195/252/267 196/253/267
f 188/245/103 194/251/103 195/252/103
f 187/244/104 193/250/104 194/251/104
f 186/243/105 192/249/105 193/250/105
f 185/242/106 191/248/106 192/249/106
f 184/240/107 190/247/107 277/363/107
f 183/238/268 189/246/268 190/247/268
f 182/236/109 188/245/109 189/246/109
f 182/236/110 181/235/110 187/244/110
f 181/235/111 180/233/111 186/243/111
f 179/232/112 185/242/112 186/243/112
f 178/231/113 184/241/113 276/361/113
f 177/230/114 183/239/114 184/241/114
f 176/229/115 182/237/115 183/239/115
f 175/228/116 181/234/116 182/237/116
f 174/225/117 180/233/117 181/235/117
f 173/223/118 179/232/118 180/233/118
f 172/222/269 178/231/269 275/358/269
f 171/221/120 177/230/120 178/231/120
f 170/220/121 176/229/121 177/230/121
f 169/219/122 175/228/122 176/229/122
f 168/218/123 174/226/123 175/228/123
f 167/217/124 173/224/124 174/226/124
f 166/216/270 172/222/270 274/356/270
f 165/215/126 171/221/126 172/222/126
f 165/215/127 164/214/127 170/220/127
f 163/213/128 169/219/128 170/220/128
f 162/212/129 168/218/129 169/219/129
f 161/211/130 167/217/130 168/218/130
f 160/210/271 166/216/271 273/354/271
f 159/209/132 165/215/132 166/216/132
f 158/208/133 164/214/133 165/215/133
f 158/208/134 157/207/134 163/213/134
f 156/206/135 162/212/135 163/213/135
f 155/205/136 161/211/136 162/212/136
f 154/204/272 160/210/272 272/352/272
f 153/203/138 159/209/138 160/210/138
f 152/202/139 158/208/139 159/209/139
f 151/201/140 157/207/140 158/208/140
f 151/201/141 150/200/141 156/206/141
f 150/200/142 149/199/142 155/205/142
f 148/198/273 154/204/273 271/350/273
f 147/197/144 153/203/144 154/204/144
f 146/196/145 152/202/145 153/203/145
f 145/195/146 151/201/146 152/202/146
f 145/195/147 144/194/147 150/200/147
f 143/193/148 149/199/148 150/200/148
f 142/192/149 148/198/149 270/348/149
f 141/191/274 147/197/274 148/198/274
f 140/190/151 146/196/151 147/197/151
f 140/190/152 139/189/152 145/195/152
f 138/188/153 144/194/153 145/195/153
f 137/187/154 143/193/154 144/194/154
f 136/185/155 142/192/155 269/346/155
f 135/183/156 141/191/156 142/192/156
f 134/181/157 140/190/157 141/191/157
f 133/179/158 139/189/158 140/190/158
f 132/177/159 138/188/159 139/189/159
f 131/175/160 137/187/160 138/188/160
f 130/174/275 136/186/275 268/344/275
f 129/173/162 135/184/162 136/186/162
f 128/172/163 134/182/163 135/184/163
f 127/171/164 133/180/164 134/182/164
f 126/170/165 132/178/165 133/180/165
f 125/169/166 131/176/166 132/178/166
f 124/168/167 130/174/167 267/341/167
f 123/167/168 129/173/168 130/174/168
f 122/166/169 128/172/169 129/173/169
f 122/166/170 121/165/170 127/171/170
f 120/164/171 126/170/171 127/171/171
f 119/163/172 125/169/172 126/170/172
f 118/162/276 124/168/276 266/339/276
f 117/161/174 123/167/174 124/168/174
f 116/160/175 122/166/175 123/167/175
f 116/160/176 115/159/176 121/165/176
f 114/158/177 120/164/177 121/165/177
f 113/157/178 119/163/178 120/164/178
f 112/156/179 118/162/179 265/337/179
f 111/155/180 117/161/180 118/162/180
f 110/154/181 116/160/181 117/161/181
f 110/154/182 109/153/182 115/159/182
f 108/152/183 114/158/183 115/159/183
f 107/151/184 113/157/184 114/158/184
f 263/333/185 106/150/185 112/156/185
f 105/149/186 111/155/186 112/156/186
f 104/148/187 110/154/187 111/155/187
f 103/147/188 109/153/188 110/154/188
f 102/146/189 108/152/189 109/153/189
f 102/146/190 101/145/190 107/151/190
f 100/144/277 106/150/277 263/333/277
f 99/143/192 105/149/192 106/150/192
f 98/141/193 104/148/193 105/149/193
f 97/139/194 103/147/194 104/148/194
f 96/137/195 102/146/195 103/147/195
f 95/135/196 101/145/196 102/146/196
f 94/133/197 100/144/197 262/331/197
f 93/131/198 99/143/198 100/144/198
f 92/129/199 98/141/199 99/143/199
f 91/128/200 97/140/200 98/142/200
f 90/127/201 96/138/201 97/140/201
f 89/126/202 95/136/202 96/138/202
f 88/124/203 94/134/203 261/329/203
f 87/123/278 93/132/278 94/134/278
f 86/122/205 92/130/205 93/132/205
f 85/121/206 91/128/206 92/130/206
f 84/120/207 90/127/207 91/128/207
f 83/119/208 89/126/208 90/127/208
f 82/118/279 88/124/279 260/326/279
f 81/117/210 87/123/210 88/124/210
f 80/116/211 86/122/211 87/123/211
f 79/115/212 85/121/212 86/122/212
f 78/114/213 84/120/213 85/121/213
f 77/113/214 83/119/214 84/120/214
f 76/112/280 82/118/280 259/324/280
f 75/111/216 81/117/216 82/118/216
f 74/110/217 80/116/217 81/117/217
f 73/109/218 79/115/218 80/116/218
f 72/108/219 78/114/219 79/115/219
f 71/107/220 77/113/220 78/114/220
f 257/320/281 65/101/281 76/112/281
f 65/101/222 66/102/222 75/111/222
f 66/102/223 67/103/223 74/110/223
f 67/103/224 68/104/224 73/109/224
f 68/104/225 69/105/225 72/108/225
f 69/105/226 70/106/226 71/107/226
f 289/388/34 257/321/34 258/323/34
f 290/389/34 258/323/34 259/325/34
f 291/390/34 259/325/34 260/327/34
f 292/391/34 260/327/34 261/330/34
f 294/393/34 293/392/34 261/330/34
f 294/393/34 262/332/34 263/334/34
f 296/395/34 295/394/34 263/334/34
f 296/395/34 264/336/34 265/338/34
f 297/396/34 265/338/34 266/340/34
f 298/397/34 266/340/34 267/342/34
f 299/398/34 267/342/34 268/345/34
f 300/399/34 268/345/34 269/347/34
f 301/400/34 269/347/34 270/349/34
f 302/401/34 270/349/34 271/351/34
f 304/403/34 303/402/34 271/351/34
f 304/403/34 272/353/34 273/355/34
f 305/404/34 273/355/34 274/357/34
f 306/405/34 274/357/34 275/359/34
f 308/407/34 307/406/34 275/359/34
f 308/407/34 276/362/34 277/364/34
f 310/409/34 309/408/34 277/364/34
f 310/409/34 278/366/34 279/368/34
f 312/411/34 311/410/34 279/368/34
f 312/411/34 280/370/34 281/372/34
f 313/412/34 281/372/34 282/374/34
f 314/413/34 282/374/34 283/376/34
f 315/414/34 283/376/34 284/378/34
f 316/415/34 284/378/34 285/381/34
f 317/416/34 285/381/34 286/383/34
f 318/417/34 286/383/34 287/385/34
f 320/419/34 319/418/34 287/385/34
f 320/419/34 288/387/34 257/321/34
f 1/1/227 289/388/227 290/389/227
f 5/7/228 3/4/228 290/389/228
f 7/10/229 5/7/229 291/390/229
f 7/10/230 292/391/230 293/392/230
f 11/17/231 9/13/231 293/392/231
f 11/17/232 294/393/232 295/394/232
f 15/23/233 13/20/233 295/394/233
f 17/26/234 15/23/234 296/395/234
f 17/26/235 297/396/235 298/397/235
f 19/29/236 298/397/236 299/398/236
f 23/35/237 21/32/237 299/398/237
f 23/35/238 300/399/238 301/400/238
f 27/42/239 25/39/239 301/400/239
f 27/42/240 302/401/240 303/402/240
f 31/48/241 29/45/241 303/402/241
f 33/51/242 31/48/242 304/403/242
f 33/51/243 305/404/243 306/405/243
f 35/54/244 306/405/244 307/406/244
f 39/61/245 37/57/245 307/406/245
f 39/61/246 308/407/246 309/408/246
f 43/67/247 41/64/247 309/408/247
f 43/67/248 310/409/248 311/410/248
f 45/70/249 311/410/249 312/411/249
f 49/76/250 47/73/250 312/411/250
f 49/76/251 313/412/251 314/413/251
f 51/79/252 314/413/252 315/414/252
f 55/85/253 53/82/253 315/414/253
f 55/85/254 316/415/254 317/416/254
f 59/92/255 57/88/255 317/416/255
f 61/95/256 59/92/256 318/417/256
f 61/95/257 319/418/257 320/419/257
f 1/1/258 63/98/258 320/419/258
