# Blender 3.3.1
# www.blender.org
o beutel
v -0.336587 0.012573 0.336587
v -0.336587 0.119895 0.336587
v -0.336587 0.012573 -0.336587
v -0.336587 0.119895 -0.336587
v 0.336587 0.012573 0.336587
v 0.336587 0.119895 0.336587
v 0.336587 0.012573 -0.336587
v 0.336587 0.119895 -0.336587
v -0.390242 0.066234 0.390242
v -0.390242 0.066234 -0.390242
v 0.390242 0.066234 -0.390242
v 0.390242 0.066234 0.390242
vn -0.7071 0.7071 -0.0000
vn -0.0000 0.7071 -0.7071
vn 0.7071 0.7071 -0.0000
vn -0.0000 0.7071 0.7071
vn -0.0000 -1.0000 -0.0000
vn -0.0000 1.0000 -0.0000
vn -0.0000 -0.7071 0.7071
vn 0.7071 -0.7071 -0.0000
vn -0.0000 -0.7071 -0.7071
vn -0.7071 -0.7071 -0.0000
vt 0.036084 0.463916
vt 0.463916 0.963916
vt 0.036084 0.036084
vt 0.463916 0.536084
vt 0.463916 0.463916
vt 0.036084 0.963916
vt 0.463916 0.036084
vt 0.036084 0.536084
vt 0.498016 0.998016
vt 0.001984 0.498016
vt 0.498016 0.501984
vt 0.001984 0.001984
vt 0.001984 0.501984
vt 0.498016 0.001984
vt 0.001984 0.998016
vt 0.498016 0.498016
s 0
f 2/2/1 10/11/1 9/9/1
f 4/4/2 11/13/2 10/11/2
f 8/8/3 12/15/3 11/13/3
f 6/6/4 9/9/4 12/15/4
f 7/7/5 1/1/5 3/3/5
f 4/4/6 6/6/6 8/8/6
f 12/16/7 1/1/7 5/5/7
f 11/14/8 5/5/8 7/7/8
f 10/12/9 7/7/9 3/3/9
f 9/10/10 3/3/10 1/1/10
f 2/2/1 4/4/1 10/11/1
f 4/4/2 8/8/2 11/13/2
f 8/8/3 6/6/3 12/15/3
f 6/6/4 2/2/4 9/9/4
f 7/7/5 5/5/5 1/1/5
f 4/4/6 2/2/6 6/6/6
f 12/16/7 9/10/7 1/1/7
f 11/14/8 12/16/8 5/5/8
f 10/12/9 11/14/9 7/7/9
f 9/10/10 10/12/10 3/3/10
