# Blender 3.3.1
# www.blender.org
o Grass_Block
v 1.000000 0.000003 -1.000000
v 1.000000 0.000003 1.000000
v -1.000000 0.000003 1.000000
v -1.000000 0.000003 -1.000000
v 1.000000 2.000003 -0.999999
v 0.999999 2.000003 1.000001
v -1.000000 2.000003 1.000000
v -1.000000 2.000003 -1.000000
v 1.000000 0.000003 -1.000000
v 1.000000 0.000003 -1.000000
v 1.000000 0.000003 -1.000000
v 1.000000 0.000003 1.000000
v 1.000000 0.000003 1.000000
v 1.000000 0.000003 1.000000
v 1.000000 0.000003 1.000000
v -1.000000 0.000003 -1.000000
v -1.000000 0.000003 -1.000000
v -1.000000 0.000003 -1.000000
v 1.000000 2.000003 -0.999999
v 1.000000 2.000003 -0.999999
v 1.000000 2.000003 -0.999999
v -1.000000 0.000003 1.000000
v -1.000000 0.000003 1.000000
v -1.000000 0.000003 1.000000
v -1.000000 0.000003 1.000000
v 0.999999 2.000003 1.000001
v 0.999999 2.000003 1.000001
v 0.999999 2.000003 1.000001
v 0.999999 2.000003 1.000001
v -1.000000 2.000003 1.000000
v -1.000000 2.000003 1.000000
v -1.000000 2.000003 -1.000000
v -1.000000 2.000003 -1.000000
v -1.000000 2.000003 -1.000000
v -1.000000 2.000003 -1.000000
v -1.000000 2.000003 -1.000000
vn -0.0000 -1.0000 -0.0000
vn -0.0000 1.0000 -0.0000
vn 1.0000 -0.0000 -0.0000
vn -0.0000 -0.0000 1.0000
vn -1.0000 -0.0000 -0.0000
vn -0.0000 -0.0000 -1.0000
vt 0.999239 0.500213
vt 0.333587 0.250594
vt 0.333587 0.999452
vt 0.666413 0.000975
vt 0.666413 0.500213
vt 0.333587 0.500214
vt 0.333587 0.749833
vt 0.666413 0.749833
vt 0.666413 0.250594
vt 0.666413 0.250594
vt 0.999239 0.500213
vt 0.333587 0.250594
vt 0.000761 0.500214
vt 0.333587 0.250594
vt 0.333587 0.250594
vt 0.666413 0.000975
vt 0.666413 0.999452
vt 0.999239 0.749833
vt 0.666413 0.500213
vt 0.666413 0.500213
vt 0.666413 0.500213
vt 0.000761 0.749833
vt 0.333587 0.999452
vt 0.000761 0.749833
vt 0.333587 0.000975
vt 0.333587 0.500214
vt 0.333587 0.500214
vt 0.333587 0.500214
vt 0.333587 0.500214
vt 0.333587 0.749833
vt 0.333587 0.749833
vt 0.666413 0.749833
vt 0.666413 0.749833
vt 0.666413 0.749833
vt 0.666413 0.749833
vt 0.666413 0.749833
s 1
f 12/12/1 16/16/1 9/9/1
f 33/33/2 27/27/2 20/20/2
f 19/19/3 14/14/3 10/10/3
f 26/26/4 22/22/4 13/13/4
f 23/23/5 32/32/5 17/17/5
f 11/11/6 35/35/6 21/21/6
f 15/15/1 25/25/1 4/4/1
f 34/34/2 31/31/2 28/28/2
f 5/5/3 29/29/3 2/2/3
f 6/6/4 30/30/4 24/24/4
f 3/3/5 7/7/5 8/8/5
f 1/1/6 18/18/6 36/36/6
