# Blender 3.3.1
# www.blender.org
o back_counter
v 0.066794 0.006669 -2.382678
v 0.410418 3.543324 -1.874778
v 14.094641 0.006669 12.128071
v 13.705655 3.543324 11.734398
v 0.330331 0.006669 -2.361582
v 14.094641 0.006669 11.402728
v 3.393179 0.006669 -2.016482
v 6.302441 0.006669 -0.998487
v 8.912238 0.006669 0.641357
v 11.091702 0.006669 2.820821
v 12.731545 0.006669 5.430618
v 13.749542 0.006669 8.339881
v 13.705655 3.543324 11.424574
v 0.517191 3.543324 -1.904195
v 13.367908 3.543324 8.426987
v 12.378863 3.543324 5.600461
v 10.785655 3.543324 3.064884
v 8.668174 3.543324 0.947404
v 6.132599 3.543324 -0.645804
v 3.306073 3.543324 -1.634848
v 0.410418 3.543324 2.209418
v 0.021431 0.006669 2.542394
v 0.550328 3.543324 2.218446
v 9.557182 3.543324 11.545834
v 9.557182 3.543324 11.684719
v 4.241399 3.543324 3.103740
v 2.255801 3.543324 2.408949
v 6.022608 3.543324 4.222947
v 9.324110 3.543324 9.477260
v 8.629319 3.543324 7.491660
v 7.510111 3.543324 5.710452
v 9.168196 0.006669 12.069077
v 0.165381 0.006669 2.564864
v 2.168696 0.006669 2.790584
v 5.778543 0.006669 4.528994
v 4.071555 0.006669 3.456423
v 8.276635 0.006669 7.661504
v 9.168196 0.006669 11.567679
v 8.942476 0.006669 9.564363
v 7.204064 0.006669 5.954516
v 0.066794 3.543324 -2.382678
v 0.330331 3.543324 -2.361582
v 14.094641 3.543324 11.402728
v 13.749542 3.543324 8.339881
v 12.731545 3.543324 5.430618
v 11.091702 3.543324 2.820821
v 14.094641 3.543324 12.128071
v 9.168196 3.543324 12.069077
v 8.912238 3.543324 0.641357
v 6.302441 3.543324 -0.998487
v 3.393179 3.543324 -2.016482
v 0.021431 3.543324 2.542394
v 0.165381 3.543324 2.564864
v 9.168196 3.543324 11.567679
v 2.168696 3.543324 2.790584
v 4.071555 3.543324 3.456423
v 5.778543 3.543324 4.528994
v 8.942476 3.543324 9.564363
v 8.276635 3.543324 7.661504
v 7.204064 3.543324 5.954516
v 0.410418 3.044762 -1.874778
v 0.517191 3.044762 -1.904195
v 13.705655 3.044762 11.424574
v 13.367908 3.044762 8.426987
v 12.378863 3.044762 5.600461
v 10.785655 3.044762 3.064884
v 13.705655 3.044762 11.734398
v 9.557182 3.044762 11.684719
v 8.668174 3.044762 0.947404
v 6.132599 3.044762 -0.645804
v 3.306073 3.044762 -1.634848
v 0.410418 3.044762 2.209418
v 0.550328 3.044762 2.218446
v 9.557182 3.044762 11.545834
v 2.255801 3.044762 2.408949
v 4.241399 3.044762 3.103740
v 6.022608 3.044762 4.222947
v 9.324110 3.044762 9.477260
v 8.629319 3.044762 7.491660
v 7.510111 3.044762 5.710452
v 0.021431 5.655097 2.542394
v 0.165381 5.655097 2.564864
v 9.168196 5.655097 11.567679
v 9.168196 5.655097 12.069077
v 2.168696 5.655097 2.790584
v 4.071555 5.655097 3.456423
v 5.778543 5.655097 4.528994
v 8.942476 5.655097 9.564363
v 8.276635 5.655097 7.661504
v 7.204064 5.655097 5.954516
v 0.410418 5.655097 2.209418
v 0.550328 5.655097 2.218446
v 9.557182 5.655097 11.545834
v 9.557182 5.655097 11.684719
v 2.255801 5.655097 2.408949
v 4.241399 5.655097 3.103740
v 6.022608 5.655097 4.222947
v 9.324110 5.655097 9.477260
v 8.629319 5.655097 7.491660
v 7.510111 5.655097 5.710452
v 0.021431 7.762125 2.542394
v 0.165381 7.762125 2.564864
v 9.168196 7.762125 11.567679
v 9.168196 7.762125 12.069077
v 2.168696 7.762125 2.790584
v 4.071555 7.762125 3.456423
v 5.778543 7.762125 4.528994
v 8.942476 7.762125 9.564363
v 8.276635 7.762125 7.661504
v 7.204064 7.762125 5.954516
v 0.410418 7.762125 2.209418
v 0.550328 7.762125 2.218446
v 9.557182 7.762125 11.545834
v 9.557182 7.762125 11.684719
v 2.255801 7.762125 2.408949
v 4.241399 7.762125 3.103740
v 6.022608 7.762125 4.222947
v 9.324110 7.762125 9.477260
v 8.629319 7.762125 7.491660
v 7.510111 7.762125 5.710452
v 0.021431 10.616561 2.542394
v 0.165381 14.781971 2.564864
v 9.168196 14.781971 11.567679
v 9.168196 14.781971 12.069077
v 2.168696 14.781971 2.790584
v 4.071555 14.781971 3.456423
v 5.778543 14.781971 4.528994
v 8.942476 14.781971 9.564363
v 8.276635 14.781971 7.661504
v 7.204064 14.781971 5.954516
v 0.410418 10.616561 2.209418
v 0.550328 14.781971 2.218446
v 9.557182 14.781971 11.545834
v 9.557182 14.781971 11.684719
v 2.255801 14.781971 2.408949
v 4.241399 14.781971 3.103740
v 6.022608 14.781971 4.222947
v 9.324110 14.781971 9.477260
v 8.629319 14.781971 7.491660
v 7.510111 14.781971 5.710452
v 7.510111 5.437942 5.710452
v 8.276635 5.437942 7.661504
v 6.022608 5.437942 4.222947
v 4.241399 5.437942 3.103740
v 8.942476 5.437942 9.564363
v 9.168196 5.437942 11.567679
v 2.255801 5.437942 2.408949
v 0.550328 5.437942 2.218446
v 8.629319 5.437942 7.491660
v 0.165381 5.437942 2.564864
v 0.021431 5.437942 2.542394
v 9.324110 5.437942 9.477260
v 9.557182 5.437942 11.545834
v 9.557182 5.437942 11.684719
v 9.168196 5.437942 12.069077
v 7.204064 5.437942 5.954516
v 5.778543 5.437942 4.528994
v 4.071555 5.437942 3.456423
v 2.168696 5.437942 2.790584
v 0.410418 5.437942 2.209418
v 0.550328 7.573043 2.218446
v 0.410418 7.573043 2.209418
v 4.241399 7.573043 3.103740
v 2.255801 7.573043 2.408949
v 9.168196 7.573043 11.567679
v 9.168196 7.573043 12.069077
v 7.204064 7.573043 5.954516
v 8.276635 7.573043 7.661504
v 2.168696 7.573043 2.790584
v 0.165381 7.573043 2.564864
v 7.510111 7.573043 5.710452
v 8.629319 7.573043 7.491660
v 9.557182 7.573043 11.545834
v 9.557182 7.573043 11.684719
v 5.778543 7.573043 4.528994
v 4.071555 7.573043 3.456423
v 8.942476 7.573043 9.564363
v 0.021431 7.573043 2.542394
v 6.022608 7.573043 4.222947
v 9.324110 7.573043 9.477260
v 10.309779 5.437942 2.943908
v 10.309779 5.655097 2.943908
v 7.041066 5.437942 0.337197
v 7.041066 5.655097 0.337197
v 3.349994 5.437942 -0.548097
v 3.349994 5.655097 -0.548097
v 3.210085 5.655097 -0.557125
v 12.356848 5.655097 8.779290
v 12.356848 5.655097 8.918177
v 5.055468 5.655097 -0.357594
v 8.822275 5.655097 1.456405
v 12.123777 5.655097 6.710716
v 11.428987 5.655097 4.725117
v 12.123777 5.437942 6.710716
v 12.356848 5.437942 8.918177
v 3.210085 5.437942 -0.557125
v 8.822275 5.437942 1.456405
v 5.055468 5.437942 -0.357594
v 11.428987 5.437942 4.725117
v 12.356848 5.437942 8.779290
v 4.045995 7.573043 0.618329
v 4.045995 7.762125 0.618329
v 2.340522 7.762125 0.427826
v 6.031593 7.762125 1.313120
v 7.812803 7.762125 2.432328
v 11.347376 7.762125 9.755213
v 11.114305 7.762125 7.686638
v 10.419514 7.762125 5.701041
v 9.300307 7.762125 3.919832
v 9.300307 7.573043 3.919832
v 11.347376 7.573043 9.755213
v 11.114305 7.573043 7.686638
v 2.340522 7.573043 0.427826
v 6.031593 7.573043 1.313120
v 10.419514 7.573043 5.701041
v 7.812803 7.573043 2.432328
vn -1.0000 -0.0000 -0.0092
vn 1.0000 -0.0000 -0.0000
vn -1.0000 -0.0000 -0.0000
vn -0.0120 -0.0000 0.9999
vn 0.0798 -0.0000 -0.9968
vn 0.9937 -0.0000 -0.1120
vn 0.9439 -0.0000 -0.3303
vn 0.8467 -0.0000 -0.5320
vn 0.7071 -0.0000 -0.7071
vn 0.5320 -0.0000 -0.8467
vn 0.3303 -0.0000 -0.9439
vn 0.1120 -0.0000 -0.9937
vn -0.0000 -1.0000 -0.0000
vn -0.1542 -0.0000 0.9880
vn -0.9937 -0.0000 0.1120
vn -0.9439 -0.0000 0.3303
vn -0.8467 -0.0000 0.5320
vn -0.7071 -0.0000 0.7071
vn -0.5320 -0.0000 0.8467
vn -0.3303 -0.0000 0.9439
vn -0.1120 -0.0000 0.9937
vn -0.0000 1.0000 -0.0000
vn 0.7029 -0.0000 0.7113
vn -0.7029 -0.0000 -0.7113
vn 0.1110 -0.0000 -0.9938
vn 0.0120 -0.0000 -0.9999
vn 0.2656 -0.0000 0.9641
vn -0.0961 -0.0000 0.9954
vn 0.0644 -0.0000 -0.9979
vn -0.7072 -0.0000 -0.7070
vn -0.6503 -0.0000 -0.7597
vn -0.6687 0.0241 -0.7431
vn 0.7072 -0.0000 0.7070
vn -0.6501 0.0266 -0.7594
vt 0.502133 0.005455
vt 0.605875 0.005455
vt 0.533576 0.465290
vt 0.487857 0.667409
vt 0.559854 0.011808
vt 0.641724 0.611723
vt 0.374380 0.253116
vt 0.630814 0.464034
vt 0.532850 0.253116
vt 0.686009 0.707570
vt 0.558119 0.211812
vt 0.532142 0.625736
vt 0.499462 0.005455
vt 0.531731 0.463212
vt 0.381781 0.253116
vt 0.527569 0.258617
vt 0.468058 0.005455
vt 0.511017 0.438295
vt 0.435665 0.005455
vt 0.496367 0.409393
vt 0.403908 0.005455
vt 0.488516 0.377956
vt 0.476947 0.253116
vt 0.374380 0.005455
vt 0.487857 0.345560
vt 0.446167 0.253116
vt 0.494423 0.313830
vt 0.413906 0.253116
vt 0.507885 0.284356
vt 0.686009 0.704409
vt 0.555863 0.209462
vt 0.558830 0.012363
vt 0.641724 0.612724
vt 0.536599 0.184272
vt 0.686009 0.672967
vt 0.523520 0.155636
vt 0.686009 0.641624
vt 0.641724 0.730620
vt 0.517141 0.124808
vt 0.686009 0.611723
vt 0.517781 0.093334
vt 0.641724 0.703283
vt 0.525409 0.062791
vt 0.641724 0.673157
vt 0.539642 0.034711
vt 0.641724 0.641754
vt 0.589590 0.042780
vt 0.487857 0.625736
vt 0.280643 0.757794
vt 0.656017 0.005455
vt 0.569779 0.428272
vt 0.087745 0.994545
vt 0.282053 0.757794
vt 0.103010 0.038830
vt 0.532142 0.666721
vt 0.589216 0.181230
vt 0.101593 0.038830
vt 0.321642 0.757794
vt 0.299534 0.757794
vt 0.343316 0.757794
vt 0.124706 0.038830
vt 0.146725 0.038830
vt 0.363470 0.757794
vt 0.167732 0.038830
vt 0.580689 0.464034
vt 0.569779 0.289433
vt 0.267144 0.005455
vt 0.568851 0.427054
vt 0.086223 0.994545
vt 0.555303 0.410756
vt 0.065282 0.994545
vt 0.540585 0.371291
vt 0.023859 0.994545
vt 0.545721 0.391853
vt 0.044140 0.994545
vt 0.544449 0.329348
vt 0.219914 0.005455
vt 0.566128 0.293235
vt 0.262027 0.005455
vt 0.553254 0.310070
vt 0.241014 0.005455
vt 0.005455 0.994545
vt 0.540154 0.350102
vt 0.199784 0.005455
vt 0.605875 0.242206
vt 0.502133 0.242206
vt 0.558762 0.005455
vt 0.499462 0.242206
vt 0.556917 0.007534
vt 0.381781 0.489867
vt 0.552754 0.212129
vt 0.413906 0.489867
vt 0.533071 0.186390
vt 0.446167 0.489867
vt 0.519609 0.156916
vt 0.374380 0.242206
vt 0.476947 0.489867
vt 0.513043 0.125186
vt 0.374380 0.489867
vt 0.630814 0.700785
vt 0.558035 0.217629
vt 0.098656 0.038830
vt 0.580689 0.700785
vt 0.594965 0.181313
vt 0.267144 0.242206
vt 0.403908 0.242206
vt 0.513702 0.092790
vt 0.435665 0.242206
vt 0.521553 0.061353
vt 0.468058 0.242206
vt 0.536203 0.032451
vt 0.656017 0.242206
vt 0.087745 0.757794
vt 0.594965 0.042473
vt 0.278054 0.757794
vt 0.086223 0.757794
vt 0.262027 0.242206
vt 0.065282 0.757794
vt 0.044140 0.757794
vt 0.023859 0.757794
vt 0.241014 0.242206
vt 0.219914 0.242206
vt 0.199784 0.242206
vt 0.005455 0.757794
vt 0.623097 0.253116
vt 0.521232 0.667409
vt 0.675099 0.611723
vt 0.622074 0.253673
vt 0.675099 0.612724
vt 0.619640 0.450780
vt 0.719384 0.704409
vt 0.600308 0.425642
vt 0.719384 0.672967
vt 0.587152 0.397041
vt 0.719384 0.641624
vt 0.580689 0.366231
vt 0.719384 0.611723
vt 0.675099 0.730620
vt 0.719384 0.707570
vt 0.621902 0.453123
vt 0.565517 0.625736
vt 0.652917 0.422458
vt 0.565517 0.666721
vt 0.101593 0.005455
vt 0.581244 0.334755
vt 0.675099 0.703283
vt 0.588790 0.304191
vt 0.675099 0.673157
vt 0.602947 0.276073
vt 0.675099 0.641754
vt 0.652917 0.284007
vt 0.521232 0.625736
vt 0.280643 0.791169
vt 0.651925 0.285097
vt 0.282053 0.791169
vt 0.651903 0.421408
vt 0.103010 0.005455
vt 0.640416 0.298990
vt 0.299534 0.791169
vt 0.630471 0.318743
vt 0.321642 0.791169
vt 0.625170 0.340213
vt 0.343316 0.791169
vt 0.638562 0.404060
vt 0.124706 0.005455
vt 0.629320 0.383969
vt 0.146725 0.005455
vt 0.624780 0.362325
vt 0.167732 0.005455
vt 0.363470 0.791169
vt 0.087745 0.616427
vt 0.278054 0.616427
vt 0.086223 0.616427
vt 0.262027 0.383573
vt 0.098656 0.180196
vt 0.267144 0.383573
vt 0.065282 0.616427
vt 0.044140 0.616427
vt 0.023859 0.616427
vt 0.241014 0.383573
vt 0.219914 0.383573
vt 0.199784 0.383573
vt 0.005455 0.616427
vt 0.556793 0.476379
vt 0.374380 0.671775
vt 0.280643 0.616427
vt 0.555808 0.477476
vt 0.282053 0.616427
vt 0.103010 0.180196
vt 0.556793 0.613783
vt 0.557814 0.614826
vt 0.101593 0.180196
vt 0.299534 0.616427
vt 0.544403 0.491454
vt 0.534603 0.511279
vt 0.321642 0.616427
vt 0.343316 0.616427
vt 0.529461 0.532788
vt 0.124706 0.180196
vt 0.543324 0.596534
vt 0.146725 0.180196
vt 0.533934 0.576512
vt 0.363470 0.616427
vt 0.167732 0.180196
vt 0.529234 0.554902
vt 0.087745 0.475379
vt 0.278054 0.475379
vt 0.086223 0.475379
vt 0.262027 0.524621
vt 0.098656 0.321245
vt 0.267144 0.524621
vt 0.065282 0.475379
vt 0.044140 0.475379
vt 0.023859 0.475379
vt 0.241014 0.524621
vt 0.219914 0.524621
vt 0.199784 0.524621
vt 0.005455 0.475379
vt 0.280643 0.475379
vt 0.695471 0.464502
vt 0.399827 0.664368
vt 0.282053 0.475379
vt 0.103010 0.321245
vt 0.695471 0.600813
vt 0.101593 0.321245
vt 0.299534 0.475379
vt 0.683965 0.478397
vt 0.674022 0.498151
vt 0.321642 0.475379
vt 0.343316 0.475379
vt 0.668725 0.519622
vt 0.124706 0.321245
vt 0.682128 0.583467
vt 0.146725 0.321245
vt 0.672882 0.563377
vt 0.363470 0.475379
vt 0.167732 0.321245
vt 0.668339 0.541734
vt 0.087745 0.284297
vt 0.278054 0.284297
vt 0.279553 0.005455
vt 0.700242 0.005455
vt 0.086223 0.005455
vt 0.696617 0.139253
vt 0.262027 0.994545
vt 0.700242 0.143080
vt 0.267144 0.994545
vt 0.098655 0.791169
vt 0.686584 0.021661
vt 0.065282 0.005455
vt 0.676875 0.040500
vt 0.044140 0.005455
vt 0.671601 0.061026
vt 0.023859 0.005455
vt 0.683857 0.122331
vt 0.241014 0.994545
vt 0.219914 0.994545
vt 0.675182 0.102995
vt 0.199784 0.994545
vt 0.005455 0.005455
vt 0.671027 0.082212
vt 0.280643 0.284297
vt 0.694799 0.005594
vt 0.282053 0.005455
vt 0.693490 0.141898
vt 0.103010 0.791169
vt 0.694494 0.142958
vt 0.101593 0.791169
vt 0.683160 0.019378
vt 0.299534 0.005455
vt 0.673029 0.039036
vt 0.321642 0.005455
vt 0.667526 0.060455
vt 0.343316 0.005455
vt 0.124706 0.791169
vt 0.680314 0.124426
vt 0.671262 0.104248
vt 0.146725 0.791169
vt 0.363470 0.005455
vt 0.666927 0.082562
vt 0.167732 0.791169
vt 0.363470 0.630964
vt 0.167732 0.165660
vt 0.415755 0.560911
vt 0.219914 0.369036
vt 0.343316 0.630964
vt 0.416145 0.583022
vt 0.321642 0.630964
vt 0.421445 0.604493
vt 0.241014 0.369036
vt 0.262027 0.369036
vt 0.299534 0.630964
vt 0.431391 0.624245
vt 0.282053 0.630964
vt 0.442899 0.638138
vt 0.420295 0.539267
vt 0.146725 0.165660
vt 0.086223 0.630964
vt 0.278054 0.630964
vt 0.087745 0.630964
vt 0.429537 0.519175
vt 0.124706 0.165660
vt 0.442878 0.501828
vt 0.103010 0.165660
vt 0.443892 0.500777
vt 0.101593 0.165660
vt 0.267144 0.369036
vt 0.098656 0.165660
vt 0.199784 0.369036
vt 0.005455 0.630964
vt 0.023859 0.630964
vt 0.044140 0.630964
vt 0.065282 0.630964
vt 0.388916 0.671775
vt 0.280643 0.630964
vt 0.443892 0.639228
vt 0.412484 0.664368
vt 0.282053 0.488036
vt 0.717574 0.389427
vt 0.280643 0.488036
vt 0.321642 0.488036
vt 0.696125 0.355778
vt 0.299534 0.488036
vt 0.706067 0.375532
vt 0.262027 0.511964
vt 0.267144 0.511964
vt 0.098656 0.308588
vt 0.005455 0.488036
vt 0.199784 0.511964
vt 0.219914 0.511964
vt 0.065282 0.488036
vt 0.086223 0.488036
vt 0.690441 0.312195
vt 0.363470 0.488036
vt 0.167732 0.308588
vt 0.146725 0.308588
vt 0.694985 0.290551
vt 0.717574 0.253116
vt 0.103010 0.308588
vt 0.101593 0.308588
vt 0.023859 0.488036
vt 0.044140 0.488036
vt 0.241014 0.511964
vt 0.087745 0.488036
vt 0.278054 0.488036
vt 0.690828 0.334306
vt 0.343316 0.488036
vt 0.124706 0.308588
vt 0.704230 0.270462
vt 0.469338 0.500777
vt 0.188874 0.165660
vt 0.374380 0.561394
vt 0.188874 0.180196
vt 0.454802 0.500777
vt 0.487857 0.554724
vt 0.469338 0.542605
vt 0.380070 0.604976
vt 0.454802 0.542605
vt 0.493226 0.511101
vt 0.469338 0.582194
vt 0.401524 0.638622
vt 0.454802 0.582194
vt 0.514431 0.477298
vt 0.374380 0.650622
vt 0.515415 0.476201
vt 0.454802 0.583604
vt 0.124151 0.180196
vt 0.515415 0.613605
vt 0.516437 0.614648
vt 0.122734 0.180196
vt 0.454802 0.564713
vt 0.503025 0.491275
vt 0.454802 0.520931
vt 0.488084 0.532610
vt 0.145848 0.180196
vt 0.501947 0.596356
vt 0.492557 0.576334
vt 0.167866 0.180196
vt 0.388162 0.519659
vt 0.145848 0.165660
vt 0.402517 0.501261
vt 0.122734 0.165660
vt 0.388916 0.650622
vt 0.469338 0.583604
vt 0.402517 0.639712
vt 0.469338 0.520931
vt 0.374770 0.583506
vt 0.390016 0.624729
vt 0.469338 0.564713
vt 0.167866 0.165660
vt 0.378920 0.539750
vt 0.401503 0.502312
vt 0.124151 0.165660
vt 0.467459 0.658450
vt 0.679453 0.376000
vt 0.454802 0.658450
vt 0.657350 0.477928
vt 0.399827 0.650622
vt 0.454802 0.675931
vt 0.668857 0.464034
vt 0.454802 0.636341
vt 0.647408 0.497683
vt 0.454802 0.614667
vt 0.642111 0.519154
vt 0.116749 0.321245
vt 0.668857 0.600344
vt 0.655513 0.582999
vt 0.138445 0.321245
vt 0.160464 0.321245
vt 0.646268 0.562909
vt 0.641724 0.541266
vt 0.181471 0.321245
vt 0.454802 0.594514
vt 0.467459 0.594514
vt 0.663827 0.312663
vt 0.181471 0.308588
vt 0.116749 0.308588
vt 0.690959 0.253585
vt 0.138445 0.308588
vt 0.677616 0.270930
vt 0.412484 0.650622
vt 0.467459 0.675931
vt 0.690959 0.389895
vt 0.669511 0.356246
vt 0.467459 0.636341
vt 0.160464 0.308588
vt 0.668370 0.291020
vt 0.664214 0.334775
vt 0.467459 0.614667
s 0
f 41/85/1 22/50/1 52/112/1
f 43/90/2 3/7/2 6/15/2
f 13/30/3 67/139/3 4/10/3
f 3/8/4 48/103/4 32/65/4
f 41/86/5 5/13/5 1/1/5
f 6/15/6 44/92/6 43/90/6
f 12/28/7 45/94/7 44/92/7
f 11/26/8 46/97/8 45/94/8
f 10/24/9 49/106/9 46/96/9
f 9/21/10 50/108/10 49/106/10
f 8/19/11 51/110/11 50/108/11
f 7/17/12 42/88/12 51/110/12
f 5/14/13 3/9/13 35/72/13
f 54/117/3 32/67/3 48/105/3
f 22/52/14 53/116/14 52/113/14
f 58/121/15 38/79/15 54/117/15
f 59/122/16 39/81/16 58/121/16
f 60/123/17 37/77/17 59/122/17
f 60/124/18 35/73/18 40/82/18
f 57/120/19 36/75/19 35/73/19
f 56/119/20 34/71/20 36/75/20
f 55/118/21 33/69/21 34/71/21
f 2/5/22 42/89/22 41/87/22
f 15/34/22 43/91/22 44/93/22
f 15/34/22 45/95/22 16/36/22
f 16/36/22 46/98/22 17/39/22
f 4/11/22 48/104/22 47/101/22
f 18/41/22 50/109/22 19/43/22
f 20/45/22 50/109/22 51/111/22
f 2/5/22 52/114/22 21/47/22
f 156/310/18 87/179/18 157/311/18
f 154/306/23 84/175/23 155/308/23
f 93/190/22 189/369/22 188/368/22
f 150/298/14 81/171/14 151/300/14
f 144/289/13 198/388/13 183/357/13
f 145/290/16 89/181/16 142/285/16
f 100/205/22 193/377/22 182/355/22
f 14/32/22 51/111/22 42/89/22
f 146/291/15 88/180/15 145/290/15
f 4/11/22 43/91/22 13/31/22
f 17/39/22 49/107/22 18/41/22
f 91/185/24 196/383/24 160/314/24
f 67/140/22 62/128/22 77/162/22
f 27/59/25 73/155/25 23/53/25
f 17/40/17 65/135/17 16/37/17
f 18/42/18 66/138/18 17/38/18
f 28/60/10 76/161/10 26/58/10
f 4/12/26 68/143/26 25/55/26
f 30/62/8 80/169/8 31/64/8
f 24/54/6 78/165/6 29/61/6
f 19/44/19 69/146/19 18/42/19
f 29/61/7 79/167/7 30/62/7
f 20/46/20 70/148/20 19/44/20
f 31/63/9 77/163/9 28/60/9
f 21/48/2 61/126/2 2/4/2
f 2/6/27 62/129/27 14/33/27
f 14/33/28 71/150/28 20/46/28
f 23/53/29 72/153/29 21/49/29
f 15/35/15 63/131/15 13/30/15
f 26/58/11 75/159/11 27/59/11
f 25/57/2 74/157/2 24/54/2
f 16/37/16 64/133/16 15/35/16
f 174/340/23 104/210/23 166/327/23
f 175/341/19 106/213/19 176/342/19
f 173/339/2 114/225/2 174/340/2
f 112/221/30 213/421/30 161/317/30
f 169/331/21 102/208/21 170/332/21
f 162/320/29 112/222/29 161/318/29
f 116/228/22 202/397/22 115/227/22
f 166/326/3 103/209/3 165/325/3
f 168/330/17 110/217/17 167/329/17
f 149/296/13 194/379/13 152/301/13
f 155/307/3 83/174/3 146/291/3
f 142/285/17 90/182/17 156/309/17
f 92/187/22 187/365/22 91/184/22
f 158/312/20 85/177/20 159/313/20
f 152/301/13 200/392/13 153/303/13
f 159/313/21 82/173/21 150/298/21
f 96/195/22 190/372/22 95/194/22
f 151/299/31 91/186/31 160/315/31
f 153/303/13 195/381/13 154/305/13
f 157/311/19 86/178/19 158/312/19
f 104/211/3 123/245/3 103/209/3
f 109/216/17 130/259/17 110/217/17
f 117/230/9 140/279/9 120/236/9
f 102/208/14 121/239/14 101/206/14
f 106/213/20 125/250/20 105/212/20
f 119/234/7 138/275/7 118/232/7
f 110/218/18 127/254/18 107/214/18
f 118/232/6 133/266/6 113/223/6
f 108/215/16 129/257/16 109/216/16
f 171/333/13 215/427/13 172/337/13
f 165/325/15 108/215/15 177/343/15
f 178/345/31 111/219/31 162/320/31
f 117/231/22 209/411/22 205/404/22
f 177/343/16 109/216/16 168/330/16
f 179/346/13 210/415/13 171/333/13
f 167/328/18 107/214/18 175/341/18
f 119/235/22 207/407/22 208/410/22
f 176/342/20 105/212/20 169/331/20
f 170/332/14 101/206/14 178/344/14
f 179/346/13 214/424/13 216/428/13
f 131/262/32 122/241/32 132/264/32
f 134/267/22 123/244/22 124/246/22
f 132/263/22 125/249/22 135/269/22
f 136/271/22 127/253/22 137/273/22
f 133/265/22 128/255/22 123/244/22
f 139/277/22 128/255/22 138/276/22
f 140/280/22 127/253/22 130/261/22
f 135/269/22 126/251/22 136/271/22
f 139/277/22 130/261/22 129/258/22
f 115/226/11 136/272/11 116/229/11
f 112/222/29 131/262/29 132/264/29
f 105/212/21 122/243/21 102/208/21
f 120/237/8 139/278/8 119/234/8
f 113/223/2 134/268/2 114/225/2
f 107/214/19 126/252/19 106/213/19
f 114/225/23 124/248/23 104/210/23
f 112/222/25 135/270/25 115/226/25
f 103/209/15 128/256/15 108/215/15
f 101/207/31 131/262/31 111/219/31
f 116/229/10 137/274/10 117/230/10
f 57/120/19 158/312/19 56/119/19
f 24/54/2 154/306/2 25/57/2
f 52/115/31 160/315/31 21/49/31
f 27/59/11 144/288/11 26/58/11
f 55/118/21 150/298/21 53/116/21
f 21/49/29 148/294/29 23/53/29
f 56/119/20 159/313/20 55/118/20
f 28/60/9 141/282/9 31/63/9
f 59/122/17 156/309/17 60/123/17
f 48/105/3 146/291/3 54/117/3
f 30/62/7 152/302/7 29/61/7
f 23/53/25 147/292/25 27/59/25
f 54/117/15 145/290/15 58/121/15
f 26/58/10 143/286/10 28/60/10
f 58/121/16 142/285/16 59/122/16
f 31/64/8 149/297/8 30/62/8
f 53/116/14 151/300/14 52/113/14
f 29/61/6 153/304/6 24/54/6
f 25/57/23 155/308/23 48/102/23
f 60/124/18 157/311/18 57/120/18
f 97/197/9 171/334/9 100/203/9
f 82/173/14 178/344/14 81/171/14
f 86/178/20 169/331/20 85/177/20
f 99/201/7 180/348/7 98/199/7
f 90/183/18 175/341/18 87/179/18
f 98/199/6 173/339/6 93/189/6
f 88/180/16 168/330/16 89/181/16
f 96/196/10 179/347/10 97/197/10
f 81/172/31 162/320/31 91/186/31
f 83/174/15 177/343/15 88/180/15
f 92/188/25 164/323/25 95/193/25
f 89/181/17 167/329/17 90/182/17
f 84/176/3 165/325/3 83/174/3
f 95/193/11 163/321/11 96/196/11
f 91/186/29 161/318/29 92/188/29
f 85/177/21 170/332/21 82/173/21
f 100/204/8 172/336/8 99/201/8
f 93/189/2 174/340/2 94/192/2
f 87/179/19 176/342/19 86/178/19
f 94/192/23 166/327/23 84/175/23
f 194/380/6 188/367/6 200/393/6
f 181/351/8 193/378/8 199/390/8
f 183/356/10 191/373/10 197/386/10
f 185/360/25 190/371/25 198/389/25
f 199/390/7 192/375/7 194/380/7
f 197/386/9 182/354/9 181/350/9
f 196/384/29 186/362/29 185/360/29
f 198/389/11 184/358/11 183/356/11
f 200/393/2 189/370/2 195/382/2
f 147/293/13 185/361/13 198/388/13
f 154/306/23 189/370/23 94/192/23
f 95/194/22 186/363/22 92/187/22
f 148/295/13 196/385/13 185/361/13
f 97/198/22 184/359/22 96/195/22
f 143/287/13 183/357/13 197/387/13
f 98/200/22 188/368/22 192/376/22
f 141/284/13 197/387/13 181/352/13
f 99/202/22 192/376/22 193/377/22
f 141/284/13 199/391/13 149/296/13
f 100/205/22 191/374/22 97/198/22
f 210/416/8 208/409/8 215/426/8
f 201/394/11 204/401/11 214/425/11
f 213/422/25 202/396/25 201/394/25
f 214/425/10 205/403/10 216/429/10
f 212/419/6 206/405/6 211/417/6
f 215/426/7 207/408/7 212/419/7
f 216/429/9 209/413/9 210/414/9
f 164/324/13 213/423/13 201/395/13
f 120/238/22 208/410/22 209/411/22
f 173/339/33 206/405/33 113/223/33
f 172/337/13 212/420/13 180/349/13
f 115/227/22 203/400/22 112/220/22
f 180/349/13 211/418/13 173/338/13
f 117/231/22 204/402/22 116/228/22
f 163/322/13 201/395/13 214/424/13
f 118/233/22 206/406/22 207/407/22
f 41/85/1 1/2/1 22/50/1
f 43/90/2 47/99/2 3/7/2
f 13/30/3 63/131/3 67/139/3
f 3/8/4 47/100/4 48/103/4
f 41/86/5 42/88/5 5/13/5
f 6/15/6 12/28/6 44/92/6
f 12/28/7 11/26/7 45/94/7
f 11/26/8 10/23/8 46/97/8
f 10/24/9 9/21/9 49/106/9
f 9/21/10 8/19/10 50/108/10
f 8/19/11 7/17/11 51/110/11
f 7/17/12 5/13/12 42/88/12
f 34/70/13 33/68/13 22/51/13
f 22/51/13 1/3/13 5/14/13
f 5/14/13 7/18/13 8/20/13
f 8/20/13 9/22/13 10/25/13
f 10/25/13 11/27/13 12/29/13
f 12/29/13 6/16/13 3/9/13
f 3/9/13 32/66/13 38/78/13
f 3/9/13 38/78/13 39/80/13
f 10/25/13 12/29/13 3/9/13
f 5/14/13 8/20/13 10/25/13
f 34/70/13 22/51/13 5/14/13
f 36/74/13 34/70/13 5/14/13
f 5/14/13 10/25/13 3/9/13
f 3/9/13 39/80/13 37/76/13
f 3/9/13 37/76/13 40/83/13
f 35/72/13 36/74/13 5/14/13
f 3/9/13 40/83/13 35/72/13
f 54/117/3 38/79/3 32/67/3
f 22/52/14 33/69/14 53/116/14
f 58/121/15 39/81/15 38/79/15
f 59/122/16 37/77/16 39/81/16
f 60/123/17 40/84/17 37/77/17
f 60/124/18 57/120/18 35/73/18
f 57/120/19 56/119/19 36/75/19
f 56/119/20 55/118/20 34/71/20
f 55/118/21 53/116/21 33/69/21
f 2/5/22 14/32/22 42/89/22
f 15/34/22 13/31/22 43/91/22
f 15/34/22 44/93/22 45/95/22
f 16/36/22 45/95/22 46/98/22
f 4/11/22 25/56/22 48/104/22
f 18/41/22 49/107/22 50/109/22
f 20/45/22 19/43/22 50/109/22
f 2/5/22 41/87/22 52/114/22
f 156/310/18 90/183/18 87/179/18
f 154/306/23 94/192/23 84/175/23
f 93/190/22 94/191/22 189/369/22
f 150/298/14 82/173/14 81/171/14
f 144/289/13 147/293/13 198/388/13
f 145/290/16 88/180/16 89/181/16
f 100/205/22 99/202/22 193/377/22
f 14/32/22 20/45/22 51/111/22
f 146/291/15 83/174/15 88/180/15
f 4/11/22 47/101/22 43/91/22
f 17/39/22 46/98/22 49/107/22
f 91/185/24 187/364/24 196/383/24
f 74/156/22 68/142/22 67/140/22
f 67/140/22 63/130/22 64/132/22
f 64/132/22 65/134/22 66/136/22
f 66/136/22 69/145/22 70/147/22
f 70/147/22 71/149/22 62/128/22
f 62/128/22 61/125/22 72/151/22
f 62/128/22 72/151/22 73/154/22
f 66/136/22 70/147/22 62/128/22
f 67/140/22 64/132/22 66/136/22
f 78/164/22 74/156/22 67/140/22
f 79/166/22 78/164/22 67/140/22
f 67/140/22 66/136/22 62/128/22
f 62/128/22 73/154/22 75/158/22
f 62/128/22 75/158/22 76/160/22
f 80/168/22 79/166/22 67/140/22
f 62/128/22 76/160/22 77/162/22
f 77/162/22 80/168/22 67/140/22
f 27/59/25 75/159/25 73/155/25
f 17/40/17 66/137/17 65/135/17
f 18/42/18 69/146/18 66/138/18
f 28/60/10 77/163/10 76/161/10
f 4/12/26 67/141/26 68/143/26
f 30/62/8 79/167/8 80/169/8
f 24/54/6 74/157/6 78/165/6
f 19/44/19 70/148/19 69/146/19
f 29/61/7 78/165/7 79/167/7
f 20/46/20 71/150/20 70/148/20
f 31/63/9 80/170/9 77/163/9
f 21/48/2 72/152/2 61/126/2
f 2/6/27 61/127/27 62/129/27
f 14/33/28 62/129/28 71/150/28
f 23/53/29 73/155/29 72/153/29
f 15/35/15 64/133/15 63/131/15
f 26/58/11 76/161/11 75/159/11
f 25/57/2 68/144/2 74/157/2
f 16/37/16 65/135/16 64/133/16
f 174/340/23 114/225/23 104/210/23
f 175/341/19 107/214/19 106/213/19
f 173/339/2 113/223/2 114/225/2
f 112/221/30 203/398/30 213/421/30
f 169/331/21 105/212/21 102/208/21
f 162/320/29 111/219/29 112/222/29
f 116/228/22 204/402/22 202/397/22
f 166/326/3 104/211/3 103/209/3
f 168/330/17 109/216/17 110/217/17
f 149/296/13 199/391/13 194/379/13
f 155/307/3 84/176/3 83/174/3
f 142/285/17 89/181/17 90/182/17
f 92/187/22 186/363/22 187/365/22
f 158/312/20 86/178/20 85/177/20
f 152/301/13 194/379/13 200/392/13
f 159/313/21 85/177/21 82/173/21
f 96/195/22 184/359/22 190/372/22
f 151/299/31 81/172/31 91/186/31
f 153/303/13 200/392/13 195/381/13
f 157/311/19 87/179/19 86/178/19
f 104/211/3 124/247/3 123/245/3
f 109/216/17 129/257/17 130/259/17
f 117/230/9 137/274/9 140/279/9
f 102/208/14 122/243/14 121/239/14
f 106/213/20 126/252/20 125/250/20
f 119/234/7 139/278/7 138/275/7
f 110/218/18 130/260/18 127/254/18
f 118/232/6 138/275/6 133/266/6
f 108/215/16 128/256/16 129/257/16
f 171/333/13 210/415/13 215/427/13
f 165/325/15 103/209/15 108/215/15
f 178/345/31 101/207/31 111/219/31
f 117/231/22 120/238/22 209/411/22
f 177/343/16 108/215/16 109/216/16
f 179/346/13 216/428/13 210/415/13
f 167/328/18 110/218/18 107/214/18
f 119/235/22 118/233/22 207/407/22
f 176/342/20 106/213/20 105/212/20
f 170/332/14 102/208/14 101/206/14
f 179/346/13 163/322/13 214/424/13
f 131/262/34 121/240/34 122/241/34
f 134/267/22 133/265/22 123/244/22
f 132/263/22 122/242/22 125/249/22
f 136/271/22 126/251/22 127/253/22
f 133/265/22 138/276/22 128/255/22
f 139/277/22 129/258/22 128/255/22
f 140/280/22 137/273/22 127/253/22
f 135/269/22 125/249/22 126/251/22
f 139/277/22 140/280/22 130/261/22
f 115/226/11 135/270/11 136/272/11
f 112/222/29 111/219/29 131/262/29
f 105/212/21 125/250/21 122/243/21
f 120/237/8 140/281/8 139/278/8
f 113/223/2 133/266/2 134/268/2
f 107/214/19 127/254/19 126/252/19
f 114/225/23 134/268/23 124/248/23
f 112/222/25 132/264/25 135/270/25
f 103/209/15 123/245/15 128/256/15
f 101/207/31 121/240/31 131/262/31
f 116/229/10 136/272/10 137/274/10
f 57/120/19 157/311/19 158/312/19
f 24/54/2 153/304/2 154/306/2
f 52/115/31 151/299/31 160/315/31
f 27/59/11 147/292/11 144/288/11
f 55/118/21 159/313/21 150/298/21
f 21/49/29 160/315/29 148/294/29
f 56/119/20 158/312/20 159/313/20
f 28/60/9 143/286/9 141/282/9
f 59/122/17 142/285/17 156/309/17
f 48/105/3 155/307/3 146/291/3
f 30/62/7 149/297/7 152/302/7
f 23/53/25 148/294/25 147/292/25
f 54/117/15 146/291/15 145/290/15
f 26/58/10 144/288/10 143/286/10
f 58/121/16 145/290/16 142/285/16
f 31/64/8 141/283/8 149/297/8
f 53/116/14 150/298/14 151/300/14
f 29/61/6 152/302/6 153/304/6
f 25/57/23 154/306/23 155/308/23
f 60/124/18 156/310/18 157/311/18
f 97/197/9 179/347/9 171/334/9
f 82/173/14 170/332/14 178/344/14
f 86/178/20 176/342/20 169/331/20
f 99/201/7 172/336/7 180/348/7
f 90/183/18 167/328/18 175/341/18
f 98/199/6 180/348/6 173/339/6
f 88/180/16 177/343/16 168/330/16
f 96/196/10 163/321/10 179/347/10
f 81/172/31 178/345/31 162/320/31
f 83/174/15 165/325/15 177/343/15
f 92/188/25 161/318/25 164/323/25
f 89/181/17 168/330/17 167/329/17
f 84/176/3 166/326/3 165/325/3
f 95/193/11 164/323/11 163/321/11
f 91/186/29 162/320/29 161/318/29
f 85/177/21 169/331/21 170/332/21
f 100/204/8 171/335/8 172/336/8
f 93/189/2 173/339/2 174/340/2
f 87/179/19 175/341/19 176/342/19
f 94/192/23 174/340/23 166/327/23
f 194/380/6 192/375/6 188/367/6
f 181/351/8 182/353/8 193/378/8
f 183/356/10 184/358/10 191/373/10
f 185/360/25 186/362/25 190/371/25
f 199/390/7 193/378/7 192/375/7
f 197/386/9 191/373/9 182/354/9
f 196/384/29 187/366/29 186/362/29
f 198/389/11 190/371/11 184/358/11
f 200/393/2 188/367/2 189/370/2
f 147/293/13 148/295/13 185/361/13
f 154/306/23 195/382/23 189/370/23
f 95/194/22 190/372/22 186/363/22
f 148/295/13 160/316/13 196/385/13
f 97/198/22 191/374/22 184/359/22
f 143/287/13 144/289/13 183/357/13
f 98/200/22 93/190/22 188/368/22
f 141/284/13 143/287/13 197/387/13
f 99/202/22 98/200/22 192/376/22
f 141/284/13 181/352/13 199/391/13
f 100/205/22 182/355/22 191/374/22
f 210/416/8 209/412/8 208/409/8
f 201/394/11 202/396/11 204/401/11
f 213/422/25 203/399/25 202/396/25
f 214/425/10 204/401/10 205/403/10
f 212/419/6 207/408/6 206/405/6
f 215/426/7 208/409/7 207/408/7
f 216/429/9 205/403/9 209/413/9
f 164/324/13 161/319/13 213/423/13
f 120/238/22 119/235/22 208/410/22
f 173/339/33 211/417/33 206/405/33
f 172/337/13 215/427/13 212/420/13
f 115/227/22 202/397/22 203/400/22
f 180/349/13 212/420/13 211/418/13
f 117/231/22 205/404/22 204/402/22
f 163/322/13 164/324/13 201/395/13
f 118/233/22 113/224/22 206/406/22
