# Blender 3.3.1
# www.blender.org
o back_counter_collider
v 0.295070 -0.121150 12.150737
v 0.295070 3.419374 12.150737
v 0.295070 -0.121150 -2.567030
v 0.295070 3.419374 -2.567030
v 14.049355 -0.121150 12.150737
v 14.049355 3.419374 12.150737
v 5.133472 -0.121150 -2.567030
v 14.049355 -0.121150 6.348853
v 14.049355 3.419374 6.348853
v 5.133471 3.419374 -2.567030
v 1.213792 5.360659 11.149920
v 1.213792 5.652031 11.149920
v 1.213792 5.360659 -0.497034
v 1.213792 5.652031 -0.497034
v 12.301019 5.360659 11.149920
v 12.301019 5.652031 11.149920
v 5.365091 5.360659 -0.497034
v 12.301019 5.360659 6.171965
v 12.301019 5.652031 6.171965
v 5.365090 5.652031 -0.497034
v 5.802918 5.652031 -0.952386
v 12.738847 5.652031 5.716613
v 12.738847 5.360659 5.716613
v 5.802919 5.360659 -0.952386
v 2.207903 7.509563 10.222179
v 2.207903 7.743826 10.222179
v 2.207903 7.509563 0.858043
v 2.207903 7.743826 0.858043
v 11.122020 7.509563 10.222179
v 11.122020 7.743826 10.222179
v 5.545542 7.509563 0.858043
v 11.122020 7.509563 6.219911
v 11.122020 7.743826 6.219911
v 5.545541 7.743826 0.858043
v 5.897554 7.743827 0.491941
v 11.474032 7.743827 5.853807
v 11.474032 7.509564 5.853807
v 5.897555 7.509564 0.491941
vn -1.0000 -0.0000 -0.0000
vn 1.0000 -0.0000 -0.0000
vn -0.0000 1.0000 -0.0000
vn -0.0000 -0.0000 1.0000
vn -0.0000 -0.0000 -1.0000
vn 0.7071 -0.0000 -0.7071
vn -0.0000 -1.0000 -0.0000
vn 0.6931 -0.0000 -0.7208
vn -0.7208 -0.0000 -0.6931
vn 0.7208 -0.0000 0.6931
vt 0.375000 0.000000
vt 0.375000 1.000000
vt 0.125000 0.750000
vt 0.625000 0.000000
vt 0.875000 0.750000
vt 0.625000 1.000000
vt 0.375000 0.250000
vt 0.125000 0.500000
vt 0.875000 0.500000
vt 0.625000 0.250000
vt 0.375000 0.750000
vt 0.625000 0.750000
vt 0.375000 0.420674
vt 0.295674 0.500000
vt 0.375000 0.579326
vt 0.625000 0.579326
vt 0.704326 0.500000
vt 0.625000 0.420674
vt 0.375000 0.000000
vt 0.375000 1.000000
vt 0.125000 0.750000
vt 0.625000 0.000000
vt 0.875000 0.750000
vt 0.625000 1.000000
vt 0.375000 0.250000
vt 0.125000 0.500000
vt 0.875000 0.500000
vt 0.625000 0.250000
vt 0.375000 0.750000
vt 0.625000 0.750000
vt 0.295674 0.500000
vt 0.375000 0.420674
vt 0.375000 0.579326
vt 0.625000 0.579326
vt 0.704326 0.500000
vt 0.625000 0.420674
vt 0.704326 0.500000
vt 0.625000 0.420674
vt 0.625000 0.579326
vt 0.375000 0.579326
vt 0.295674 0.500000
vt 0.375000 0.420674
vt 0.375000 0.000000
vt 0.375000 1.000000
vt 0.125000 0.750000
vt 0.625000 0.000000
vt 0.875000 0.750000
vt 0.625000 1.000000
vt 0.375000 0.250000
vt 0.125000 0.500000
vt 0.875000 0.500000
vt 0.625000 0.250000
vt 0.375000 0.750000
vt 0.625000 0.750000
vt 0.375000 0.420674
vt 0.295674 0.500000
vt 0.375000 0.579326
vt 0.625000 0.579326
vt 0.704326 0.500000
vt 0.625000 0.420674
vt 0.704326 0.500000
vt 0.625000 0.420674
vt 0.625000 0.579326
vt 0.375000 0.579326
vt 0.295674 0.500000
vt 0.375000 0.420674
s 0
f 2/4/1 3/7/1 1/1/1
f 9/16/2 5/11/2 8/15/2
f 10/17/3 2/5/3 6/12/3
f 6/12/4 1/2/4 5/11/4
f 4/10/5 7/13/5 3/7/5
f 9/16/6 7/13/6 10/18/6
f 7/14/7 5/11/7 1/3/7
f 12/22/1 13/25/1 11/19/1
f 19/34/2 15/29/2 18/33/2
f 20/35/3 12/23/3 16/30/3
f 16/30/4 11/20/4 15/29/4
f 14/28/5 17/32/5 13/25/5
f 18/33/7 24/41/7 23/40/7
f 17/31/7 15/29/7 11/21/7
f 23/40/8 21/38/8 22/39/8
f 20/35/3 22/39/3 21/37/3
f 17/32/9 21/38/9 24/42/9
f 19/34/10 23/40/10 22/39/10
f 26/46/1 27/49/1 25/43/1
f 33/58/2 29/53/2 32/57/2
f 34/59/3 26/47/3 30/54/3
f 30/54/4 25/44/4 29/53/4
f 27/49/5 34/60/5 31/55/5
f 31/56/7 37/64/7 32/57/7
f 31/56/7 29/53/7 25/45/7
f 36/63/8 38/66/8 35/62/8
f 33/58/3 35/61/3 34/59/3
f 34/60/9 38/66/9 31/55/9
f 33/58/10 37/64/10 36/63/10
f 2/4/1 4/10/1 3/7/1
f 9/16/2 6/12/2 5/11/2
f 6/12/3 9/16/3 10/17/3
f 10/17/3 4/9/3 2/5/3
f 6/12/4 2/6/4 1/2/4
f 4/10/5 10/18/5 7/13/5
f 9/16/6 8/15/6 7/13/6
f 1/3/7 3/8/7 7/14/7
f 7/14/7 8/15/7 5/11/7
f 12/22/1 14/28/1 13/25/1
f 19/34/2 16/30/2 15/29/2
f 16/30/3 19/34/3 20/35/3
f 20/35/3 14/27/3 12/23/3
f 16/30/4 12/24/4 11/20/4
f 14/28/5 20/36/5 17/32/5
f 18/33/7 17/31/7 24/41/7
f 11/21/7 13/26/7 17/31/7
f 17/31/7 18/33/7 15/29/7
f 23/40/8 24/42/8 21/38/8
f 20/35/3 19/34/3 22/39/3
f 17/32/9 20/36/9 21/38/9
f 19/34/10 18/33/10 23/40/10
f 26/46/1 28/52/1 27/49/1
f 33/58/2 30/54/2 29/53/2
f 30/54/3 33/58/3 34/59/3
f 34/59/3 28/51/3 26/47/3
f 30/54/4 26/48/4 25/44/4
f 27/49/5 28/52/5 34/60/5
f 31/56/7 38/65/7 37/64/7
f 25/45/7 27/50/7 31/56/7
f 31/56/7 32/57/7 29/53/7
f 36/63/8 37/64/8 38/66/8
f 33/58/3 36/63/3 35/61/3
f 34/60/9 35/62/9 38/66/9
f 33/58/10 32/57/10 37/64/10
