# Blender 3.3.1
# www.blender.org
o ceiling
v 61.293056 14.525592 70.925941
v 15.108725 14.525592 70.925941
v 15.108728 14.525592 -28.983027
v -31.546871 14.525592 -28.983027
v -80.558815 14.525592 -22.385263
v 61.293056 14.525592 -22.385263
v 15.108728 14.525592 -22.385263
v -31.546871 14.525592 -22.385263
v -80.558815 14.525592 45.948700
v 61.293056 14.525592 45.948696
v 15.108726 14.525592 45.948696
v -31.546873 14.525592 45.948696
v -80.558815 14.525592 47.952480
v -31.546873 14.525592 47.952480
vn -0.0000 -1.0000 -0.0000
vt 0.001673 0.998327
vt 0.001673 0.673835
vt 0.703635 0.673835
vt 0.703635 0.346032
vt 0.657279 0.001673
vt 0.657279 0.998327
vt 0.657279 0.673835
vt 0.657279 0.346032
vt 0.177163 0.001673
vt 0.177163 0.998327
vt 0.177163 0.673835
vt 0.177163 0.346032
vt 0.163085 0.001673
vt 0.163085 0.346032
s 0
f 4/4/1 7/7/1 8/8/1
f 5/5/1 12/12/1 9/9/1
f 8/8/1 11/11/1 12/12/1
f 7/7/1 10/10/1 11/11/1
f 11/11/1 1/1/1 2/2/1
f 9/9/1 14/14/1 13/13/1
f 4/4/1 3/3/1 7/7/1
f 5/5/1 8/8/1 12/12/1
f 8/8/1 7/7/1 11/11/1
f 7/7/1 6/6/1 10/10/1
f 11/11/1 10/10/1 1/1/1
f 9/9/1 12/12/1 14/14/1
