# Blender 3.3.1
# www.blender.org
o stuhl.001
v -1.389568 2.595415 2.955199
v -1.320407 2.595415 3.024360
v -1.320407 2.733737 3.024360
v -1.389568 2.733737 2.955199
v -1.389568 2.897343 2.955199
v -1.320407 2.897343 3.024360
v -1.320407 2.966503 2.955199
v -1.389568 2.733737 0.314384
v -1.320407 2.733737 0.245224
v -1.320407 2.595860 0.237399
v -1.389568 2.595415 0.306956
v -1.217166 3.035348 0.306354
v -1.156582 3.035136 0.236692
v -1.320407 2.897343 0.245224
v -1.389568 2.897343 0.314384
v 1.389568 2.733737 2.955199
v 1.320408 2.733737 3.024360
v 1.320408 2.595415 3.024360
v 1.389568 2.595415 2.955199
v 1.320407 2.966503 2.955199
v 1.320408 2.897343 3.024360
v 1.389568 2.897343 2.955199
v 1.320408 2.733737 0.245224
v 1.389568 2.733737 0.314384
v 1.389568 2.595415 0.306956
v 1.320408 2.595860 0.237399
v 1.156584 3.035136 0.236692
v 1.217167 3.035348 0.306354
v 1.389568 2.897343 0.314384
v 1.320408 2.897343 0.245224
v 1.207287 2.595860 0.237399
v 1.138126 2.595415 0.306956
v 1.068965 2.664576 0.314384
v 1.068965 2.733737 0.245224
v 1.207287 2.733737 0.245224
v -1.207271 2.595860 0.237399
v -1.207271 2.733737 0.245224
v -1.068950 2.733737 0.245224
v -1.068950 2.664576 0.314384
v -1.138110 2.595415 0.306956
v -1.057368 3.035136 0.236692
v -0.936415 3.035136 0.236692
v -1.068949 2.897343 0.245224
v -1.207271 2.897343 0.245224
v 1.057384 3.035136 0.236692
v 1.207287 2.897343 0.245224
v 1.068966 2.897343 0.245224
v 0.936431 3.035136 0.236692
v -1.207271 2.595415 3.024359
v -1.138110 2.595415 2.955199
v -1.068949 2.664576 2.955199
v -1.068949 2.733737 3.024359
v -1.207271 2.733737 3.024359
v 1.207287 2.595415 3.024359
v 1.207287 2.733737 3.024359
v 1.068966 2.733737 3.024359
v 1.068966 2.664576 2.955199
v 1.138126 2.595415 2.955199
v 1.207287 2.897343 3.024359
v 1.207287 2.966503 2.955199
v 1.068965 2.966503 2.955199
v 1.068965 2.897343 3.024359
v -1.207271 2.897343 3.024359
v -1.068950 2.897343 3.024359
v -1.068950 2.966503 2.955199
v -1.207271 2.966503 2.955199
v -1.389567 2.595415 0.418597
v -1.320407 2.595860 0.488256
v -1.320407 2.664576 0.565241
v -1.389567 2.733737 0.565241
v -1.389567 2.733737 0.426920
v -1.389567 2.595415 2.842656
v -1.389567 2.733737 2.842656
v -1.389567 2.733737 2.704335
v -1.320407 2.664576 2.704335
v -1.320407 2.595415 2.773496
v -1.389567 2.897343 2.842656
v -1.320407 2.966503 2.842656
v -1.320407 2.966503 2.704335
v -1.389567 2.897343 2.704335
v -1.389567 2.897343 0.426920
v -1.389567 2.897343 0.565241
v -1.320407 2.966503 0.565241
v -1.156592 3.035272 0.488724
v -1.217166 3.035348 0.419164
v 1.389568 2.595415 2.842656
v 1.320407 2.595415 2.773495
v 1.320407 2.664576 2.704335
v 1.389568 2.733737 2.704335
v 1.389568 2.733737 2.842656
v 1.389568 2.595415 0.418597
v 1.389568 2.733737 0.426920
v 1.389568 2.733737 0.565241
v 1.320407 2.664576 0.565241
v 1.320407 2.595860 0.488255
v 1.217167 3.035348 0.419164
v 1.156594 3.035272 0.488724
v 1.320407 2.966503 0.565241
v 1.389568 2.897343 0.565241
v 1.389568 2.897343 0.426920
v 1.389568 2.897343 2.842656
v 1.389568 2.897343 2.704335
v 1.320407 2.966503 2.704335
v 1.320407 2.966503 2.842656
v 1.207287 2.966503 0.565241
v 1.057394 3.035272 0.488724
v 0.936439 3.035272 0.488724
v 1.068965 2.966503 0.565241
v 1.207287 2.966503 2.842656
v 1.207287 2.966503 2.704335
v 1.068965 2.966503 2.704335
v 1.068965 2.966503 2.842656
v -1.207271 2.966503 0.565241
v -1.068949 2.966503 0.565241
v -0.936424 3.035272 0.488724
v -1.057378 3.035272 0.488724
v -1.207271 2.966503 2.842656
v -1.068950 2.966503 2.842656
v -1.068949 2.966503 2.704335
v -1.207271 2.966503 2.704335
v -1.138110 2.595415 0.418597
v -1.068950 2.664576 0.426920
v -1.068949 2.664576 0.565241
v -1.207271 2.664576 0.565241
v -1.207271 2.595860 0.488255
v -1.138110 2.595415 2.842656
v -1.207271 2.595415 2.773496
v -1.207271 2.664576 2.704335
v -1.068949 2.664576 2.704335
v -1.068949 2.664576 2.842656
v 1.138126 2.595415 0.418597
v 1.207287 2.595860 0.488255
v 1.207287 2.664576 0.565241
v 1.068965 2.664576 0.565241
v 1.068965 2.664576 0.426920
v 1.138126 2.595415 2.842656
v 1.068966 2.664576 2.842656
v 1.068965 2.664576 2.704335
v 1.207287 2.664576 2.704335
v 1.207287 2.595415 2.773495
v -1.389567 0.070793 2.842656
v -1.320407 0.070793 2.773496
v -1.320407 0.001633 2.842656
v -1.389568 0.070793 2.955199
v -1.320407 0.001633 2.955199
v -1.320407 0.070793 3.024360
v -1.207271 0.070349 -0.050192
v -1.138110 0.070793 0.019466
v -1.207271 0.001633 0.011143
v -1.320407 0.070349 -0.050192
v -1.320407 0.001633 0.011143
v -1.389568 0.070793 0.019466
v 1.389568 0.070793 0.131107
v 1.320407 0.070349 0.200664
v 1.320407 0.001633 0.123679
v 1.389568 0.070793 0.019466
v 1.320407 0.001633 0.011143
v 1.320408 0.070349 -0.050192
v 1.207287 0.070793 3.024359
v 1.138126 0.070793 2.955199
v 1.207287 0.001633 2.955199
v 1.320408 0.070793 3.024360
v 1.320407 0.001633 2.955199
v 1.389568 0.070793 2.955199
v 1.207287 0.070349 -0.050192
v 1.207287 0.001633 0.011143
v 1.138126 0.070793 0.019466
v -1.207271 0.070793 3.024359
v -1.207271 0.001633 2.955199
v -1.138110 0.070793 2.955199
v -1.138110 0.070793 2.842656
v -1.207271 0.001633 2.842656
v -1.207271 0.070793 2.773496
v 1.138126 0.070793 2.842656
v 1.207287 0.070793 2.773495
v 1.207287 0.001633 2.842656
v -1.389567 0.070793 0.131108
v -1.320407 0.001633 0.123679
v -1.320407 0.070349 0.200665
v 1.389568 0.070793 2.842656
v 1.320407 0.001633 2.842656
v 1.320407 0.070793 2.773495
v -1.138110 0.070793 0.131107
v -1.207271 0.070349 0.200665
v -1.207271 0.001633 0.123679
v 1.138126 0.070793 0.131107
v 1.207287 0.001633 0.123679
v 1.207287 0.070349 0.200664
v -1.317022 4.952264 0.283653
v -1.313944 5.090119 0.273088
v -1.374909 5.089513 0.203882
v -1.377583 4.952188 0.214109
v -1.317034 4.952400 -0.001634
v -1.377583 4.952188 0.068080
v -1.374910 5.089513 0.057576
v -1.313936 5.090178 -0.011613
v 1.186751 5.090178 -0.011613
v 1.188803 4.952400 -0.001634
v 1.067850 4.952400 -0.001634
v 1.065360 5.090178 -0.011613
v 1.313939 5.090178 -0.011613
v 1.374913 5.089513 0.057576
v 1.377586 4.952188 0.068080
v 1.317037 4.952400 -0.001634
v -1.186733 5.090178 -0.011613
v -1.065342 5.090178 -0.011613
v -1.067832 4.952400 -0.001634
v -1.188785 4.952400 -0.001634
v 1.374912 5.089513 0.203883
v 1.313947 5.090119 0.273088
v 1.317025 4.952264 0.283653
v 1.377586 4.952188 0.214110
v 1.065367 5.090119 0.273088
v 1.067840 4.952264 0.283653
v 1.188795 4.952264 0.283653
v 1.186756 5.090119 0.273088
v -1.065349 5.090119 0.273088
v -1.186738 5.090119 0.273088
v -1.188776 4.952264 0.283653
v -1.067822 4.952264 0.283653
v -1.131220 6.573646 0.204196
v -1.123308 6.642732 0.131827
v -1.192036 6.574251 0.134934
v -1.131226 6.573586 -0.042664
v -1.192036 6.574251 0.026498
v -1.123308 6.642732 0.025049
v 1.037102 6.573587 -0.042664
v 0.915711 6.573587 -0.042664
v 0.909137 6.642732 0.025049
v 1.029724 6.642732 0.025049
v 1.131228 6.573587 -0.042664
v 1.123310 6.642732 0.025049
v 1.192038 6.574252 0.026498
v -1.037086 6.573586 -0.042664
v -1.029709 6.642732 0.025049
v -0.909122 6.642732 0.025049
v -0.915695 6.573587 -0.042664
v 1.192038 6.574252 0.134935
v 1.123310 6.642732 0.131828
v 1.131222 6.573646 0.204196
v 1.029724 6.642732 0.131827
v 0.909137 6.642732 0.131827
v 0.915705 6.573646 0.204196
v 1.037095 6.573646 0.204196
v -1.029709 6.642732 0.131827
v -1.037080 6.573646 0.204196
v -0.915690 6.573646 0.204196
v -0.909122 6.642732 0.131827
v 1.068965 2.966503 0.565241
v -1.068949 2.966503 0.565241
v -1.068949 2.966503 2.704335
v 1.068965 2.966503 2.704335
v -1.068949 3.049625 0.565241
v -0.970442 3.148132 0.663748
v 0.970458 3.148132 0.663748
v 1.068965 3.049625 0.565241
v 0.970458 3.148132 2.605827
v 1.068965 3.049625 2.704335
v -1.068949 3.049625 2.704335
v -0.970442 3.148132 2.605827
v 1.067840 4.950500 0.260639
v 0.945217 4.831092 0.404215
v -0.945199 4.831092 0.404215
v -1.067822 4.950500 0.260639
v -0.831534 3.172802 0.581611
v -0.936424 3.033508 0.465710
v 0.831549 3.172802 0.581611
v 0.936439 3.033508 0.465710
v 0.938092 5.228248 0.373778
v 1.065367 5.088355 0.250075
v -1.065349 5.088355 0.250075
v -0.938074 5.228248 0.373778
v -0.814634 6.451875 0.316956
v -0.915690 6.571882 0.181183
v 0.915705 6.571882 0.181183
v 0.814650 6.451875 0.316955
vn -1.0000 -0.0000 -0.0000
vn -0.0000 0.1131 -0.9936
vn 1.0000 -0.0000 -0.0000
vn -0.0000 -0.0000 1.0000
vn -0.0000 1.0000 -0.0000
vn -0.0000 -0.0000 -1.0000
vn -0.0000 -1.0000 -0.0000
vn -0.0000 -0.1131 0.9936
vn -0.9950 -0.1000 0.0077
vn 0.9965 -0.0834 -0.0000
vn -0.0000 0.1064 0.9943
vn -0.0000 -0.1234 -0.9924
vn -0.9925 0.1222 -0.0000
vn -0.9965 -0.0834 -0.0000
vn -0.0000 -0.0209 -0.9998
vn -0.0000 0.0464 0.9989
vn 0.9925 0.1222 -0.0000
vn 0.9977 0.0678 -0.0052
vn -0.7071 -0.0000 0.7071
vn -0.5774 0.5774 0.5773
vn -0.7066 0.0379 -0.7066
vn -0.5409 0.6442 -0.5408
vn 0.7071 -0.0000 0.7071
vn 0.5774 0.5774 0.5773
vn 0.7087 0.0400 -0.7044
vn 0.5726 0.6498 -0.4999
vn -0.0000 -0.4075 -0.9132
vn 0.3363 -0.2384 -0.9111
vn -0.0000 -0.0618 -0.9981
vn -0.0000 -0.4472 0.8944
vn -0.3015 -0.3015 0.9045
vn -0.0000 0.7071 0.7071
vn -0.8939 -0.4484 -0.0000
vn -0.9045 -0.3015 -0.3015
vn -0.7071 0.7071 -0.0000
vn -0.3926 0.8534 0.3429
vn 0.8944 -0.4472 -0.0000
vn 0.9011 -0.3235 0.2888
vn 0.5094 0.8605 -0.0000
vn 0.7071 0.7071 -0.0000
vn -0.0000 0.7438 0.6684
vn 0.5543 -0.6210 0.5543
vn 0.4472 -0.8944 -0.0000
vn -0.4449 -0.8956 -0.0000
vn -0.5774 -0.5774 -0.5773
vn -0.5774 -0.5773 -0.5774
vn -0.5774 -0.5774 0.5773
vn 0.6029 -0.5313 -0.5952
vn -0.6029 -0.5313 -0.5952
vn 0.5592 -0.6185 0.5521
vn -0.5773 -0.5773 0.5774
vn 0.5774 -0.5774 0.5773
vn 0.5773 -0.5773 0.5774
vn 0.5773 -0.5773 -0.5774
vn -0.5592 -0.6185 0.5521
vn 0.5774 -0.5773 -0.5774
vn -0.7525 0.0670 0.6552
vn -0.7497 -0.0310 -0.6610
vn -0.0000 -0.0722 -0.9974
vn 0.7497 -0.0310 -0.6610
vn 0.7491 0.0637 0.6594
vn -0.0000 0.0764 0.9971
vn -0.5896 0.6154 0.5231
vn -0.6020 0.5928 -0.5350
vn -0.0000 0.6997 -0.7145
vn 0.6020 0.5928 -0.5350
vn 0.5896 0.6154 0.5231
vn -0.0000 0.7233 0.6905
vn -0.6249 0.7807 -0.0000
vn -0.7071 -0.0000 -0.7071
vn -0.0000 0.0567 -0.9984
vn 0.7071 -0.0000 -0.7071
vn -0.0000 -0.7071 -0.7071
vn -0.0000 -0.7071 0.7071
vn 0.7071 -0.7071 -0.0000
vn -0.7071 -0.7071 -0.0000
vn 0.6249 0.7807 -0.0000
vn -0.7470 -0.1432 -0.6492
vn -0.7541 0.0071 0.6567
vn -0.0000 -0.7460 0.6659
vn -0.0000 -0.6659 -0.7460
vn -0.7071 -0.0800 0.7026
vn 0.7071 -0.0800 0.7026
vn 0.7071 0.0800 -0.7026
vn -0.7071 0.0800 -0.7026
vn -0.9998 0.0195 -0.0000
vn 0.9998 0.0195 -0.0000
vn -0.7483 0.0784 -0.6587
vn -0.7453 0.1222 0.6555
vn 0.7470 -0.1432 -0.6492
vn 0.7541 0.0071 0.6567
vn -0.7058 0.7084 -0.0000
vn 0.7058 0.7084 -0.0000
vn 0.7483 0.0784 -0.6587
vn 0.7453 0.1222 0.6555
vn -0.0000 -0.9971 0.0764
vn -0.0000 0.7071 -0.7071
vn -0.0000 0.9971 -0.0764
vn 0.9950 -0.1000 0.0077
vn 0.7505 0.1060 0.6523
vn 0.7525 0.0188 0.6583
vn -0.7505 0.1060 0.6523
vn -0.0000 -0.6624 0.7491
vn -0.0000 -0.6396 0.7687
vn -0.0000 0.7493 0.6623
vn -0.7525 0.0188 0.6583
vn -0.0000 0.7688 0.6394
vn -0.9977 0.0678 -0.0052
vn -0.7087 0.0400 -0.7044
vn -0.5726 0.6498 -0.4999
vn 0.7066 0.0379 -0.7066
vn 0.5409 0.6442 -0.5408
vn -0.6165 -0.5567 -0.5567
vn 0.5774 -0.5773 0.5774
vn -0.7089 -0.0424 0.7041
vn -0.5980 -0.5980 0.5337
vn -0.5313 0.5313 -0.6599
vn 0.7089 -0.0424 0.7041
vn 0.5387 0.6993 0.4699
vn 0.5313 0.5313 -0.6599
vn -0.5543 -0.6210 0.5543
vn -0.7491 0.0637 0.6594
vn -0.7545 -0.0354 -0.6554
vn 0.7545 -0.0354 -0.6554
vn 0.7525 0.0670 0.6552
vt 0.520550 0.267900
vt 0.517124 0.547975
vt 0.523118 0.547936
vt 0.523118 0.559922
vt 0.508573 0.267900
vt 0.517124 0.559961
vt 0.494406 0.267900
vt 0.517124 0.574139
vt 0.517166 0.835885
vt 0.523118 0.574099
vt 0.517124 0.829892
vt 0.523118 0.580132
vt 0.508573 0.039052
vt 0.508806 0.033056
vt 0.236308 0.242883
vt 0.236308 0.230984
vt 0.520745 0.032378
vt 0.520550 0.038408
vt 0.746622 0.820945
vt 0.830038 0.272594
vt 0.752658 0.815695
vt 0.222111 0.269005
vt 0.824001 0.272857
vt 0.494638 0.033056
vt 0.236308 0.257042
vt 0.752002 0.829892
vt 0.746009 0.835885
vt 0.494406 0.039051
vt 0.757960 0.559961
vt 0.265393 0.335155
vt 0.751966 0.559922
vt 0.751966 0.547936
vt 0.277370 0.335155
vt 0.757960 0.547975
vt 0.517124 0.601043
vt 0.751966 0.580132
vt 0.751966 0.574099
vt 0.251225 0.335155
vt 0.517166 0.595050
vt 0.757960 0.574139
vt 0.007459 0.242883
vt 0.265626 0.569999
vt 0.265393 0.564004
vt 0.277370 0.564647
vt 0.007459 0.230984
vt 0.277565 0.570677
vt 0.752658 0.615240
vt 0.021656 0.269005
vt 0.780095 0.578391
vt 0.746622 0.609990
vt 0.786132 0.578654
vt 0.251225 0.564004
vt 0.746009 0.595050
vt 0.752002 0.601043
vt 0.007459 0.257042
vt 0.251458 0.569999
vt 0.017262 0.230984
vt 0.882289 0.279351
vt 0.023255 0.230640
vt 0.876320 0.278475
vt 0.214518 0.591393
vt 0.029249 0.236593
vt 0.876383 0.272220
vt 0.029249 0.242883
vt 0.017262 0.242883
vt 0.226503 0.230984
vt 0.451412 0.618749
vt 0.226503 0.242883
vt 0.214517 0.242883
vt 0.029250 0.591393
vt 0.214517 0.236593
vt 0.457318 0.611618
vt 0.220510 0.230640
vt 0.457381 0.617873
vt 0.213513 0.269005
vt 0.203031 0.269005
vt 0.214517 0.257042
vt 0.226503 0.257042
vt 0.030252 0.269005
vt 0.017262 0.257042
vt 0.029248 0.257042
vt 0.040734 0.269005
vt 0.532922 0.547936
vt 0.939907 0.495952
vt 0.538915 0.547975
vt 0.544909 0.553968
vt 0.029250 0.820237
vt 0.939905 0.502174
vt 0.029250 0.826271
vt 0.544909 0.559922
vt 0.532922 0.559922
vt 0.742163 0.547936
vt 0.742163 0.559922
vt 0.214518 0.826271
vt 0.730177 0.559922
vt 0.730177 0.553968
vt 0.214518 0.820237
vt 0.937019 0.007459
vt 0.736170 0.547975
vt 0.937021 0.013681
vt 0.742163 0.574099
vt 0.742163 0.580132
vt 0.517124 0.610846
vt 0.730177 0.580132
vt 0.517124 0.622833
vt 0.730177 0.574099
vt 0.532922 0.574099
vt 0.544909 0.574099
vt 0.544909 0.580132
vt 0.517124 0.808101
vt 0.532922 0.580132
vt 0.517124 0.820088
vt 0.520550 0.048083
vt 0.487929 0.829204
vt 0.520745 0.054117
vt 0.007459 0.606420
vt 0.514794 0.060789
vt 0.007459 0.613132
vt 0.508573 0.060790
vt 0.508573 0.048804
vt 0.520550 0.258148
vt 0.508573 0.258147
vt 0.508573 0.246161
vt 0.007459 0.798498
vt 0.514794 0.246159
vt 0.913005 0.502194
vt 0.913005 0.495904
vt 0.520783 0.252152
vt 0.526918 0.835885
vt 0.494406 0.258147
vt 0.526877 0.829892
vt 0.538863 0.829892
vt 0.494406 0.246161
vt 0.538905 0.835885
vt 0.494406 0.048804
vt 0.736257 0.835885
vt 0.724271 0.835885
vt 0.494406 0.060790
vt 0.724229 0.829892
vt 0.845772 0.271116
vt 0.265128 0.007459
vt 0.730818 0.815696
vt 0.736846 0.820945
vt 0.839782 0.271810
vt 0.277370 0.344908
vt 0.906608 0.819837
vt 0.277603 0.350903
vt 0.236308 0.798498
vt 0.271614 0.356897
vt 0.906608 0.826127
vt 0.265393 0.356894
vt 0.265393 0.344908
vt 0.277370 0.554973
vt 0.265393 0.554252
vt 0.265393 0.542265
vt 0.236308 0.613132
vt 0.271614 0.542267
vt 0.977490 0.226149
vt 0.236308 0.606420
vt 0.277565 0.548938
vt 0.736846 0.609990
vt 0.795876 0.579439
vt 0.465585 0.007459
vt 0.730818 0.615239
vt 0.801866 0.580132
vt 0.724229 0.601043
vt 0.251225 0.542265
vt 0.724271 0.595050
vt 0.736257 0.595050
vt 0.251225 0.554252
vt 0.526918 0.595050
vt 0.251225 0.344908
vt 0.538905 0.595050
vt 0.251225 0.356895
vt 0.538863 0.601043
vt 0.526877 0.601043
vt 0.724229 0.610846
vt 0.730818 0.623836
vt 0.456988 0.007459
vt 0.349088 0.810798
vt 0.446507 0.007459
vt 0.730818 0.634317
vt 0.724229 0.622833
vt 0.610805 0.288813
vt 0.526877 0.610846
vt 0.538863 0.610846
vt 0.538863 0.622833
vt 0.610805 0.288813
vt 0.526877 0.622833
vt 0.724229 0.820088
vt 0.724229 0.808101
vt 0.610805 0.288813
vt 0.284208 0.007459
vt 0.330172 0.810798
vt 0.730818 0.796616
vt 0.730818 0.807098
vt 0.273726 0.007459
vt 0.526877 0.820088
vt 0.526877 0.808101
vt 0.538863 0.808101
vt 0.610805 0.288813
vt 0.538863 0.820088
vt 0.023257 0.600383
vt 0.466993 0.616778
vt 0.467007 0.610514
vt 0.029250 0.601145
vt 0.029250 0.613132
vt 0.017263 0.613132
vt 0.497733 0.829204
vt 0.017263 0.606420
vt 0.473011 0.616288
vt 0.023257 0.810443
vt 0.949660 0.495952
vt 0.903200 0.495904
vt 0.017263 0.804450
vt 0.955656 0.495720
vt 0.017263 0.798498
vt 0.903200 0.502194
vt 0.029250 0.798498
vt 0.949658 0.502174
vt 0.029250 0.810484
vt 0.220511 0.600383
vt 0.866708 0.277380
vt 0.860690 0.276890
vt 0.967687 0.226149
vt 0.226505 0.606420
vt 0.226505 0.613132
vt 0.214518 0.613132
vt 0.866694 0.271116
vt 0.214518 0.601145
vt 0.220511 0.810443
vt 0.946774 0.013681
vt 0.946771 0.007459
vt 0.214518 0.810484
vt 0.214518 0.798498
vt 0.226505 0.798498
vt 0.916411 0.826127
vt 0.226505 0.804450
vt 0.916411 0.819837
vt 0.952769 0.013914
vt 0.918998 0.277102
vt 0.739165 0.258150
vt 0.913005 0.277406
vt 0.739398 0.252155
vt 0.571167 0.304599
vt 0.745386 0.258148
vt 0.913005 0.271116
vt 0.517124 0.329200
vt 0.739165 0.267903
vt 0.745386 0.267901
vt 0.571167 0.294847
vt 0.739398 0.273895
vt 0.571167 0.288812
vt 0.523118 0.329161
vt 0.451412 0.838855
vt 0.226503 0.013676
vt 0.457381 0.837902
vt 0.226503 0.007459
vt 0.457367 0.844166
vt 0.494406 0.300487
vt 0.739436 0.007459
vt 0.236308 0.013676
vt 0.501358 0.307400
vt 0.745386 0.012774
vt 0.236308 0.007459
vt 0.739165 0.013497
vt 0.530993 0.288861
vt 0.495985 0.579883
vt 0.977490 0.007459
vt 0.539493 0.288813
vt 0.496256 0.573858
vt 0.534761 0.293572
vt 0.502206 0.580529
vt 0.495985 0.589558
vt 0.527884 0.300487
vt 0.502206 0.590281
vt 0.007459 0.007459
vt 0.007459 0.013676
vt 0.496256 0.595596
vt 0.931029 0.232528
vt 0.586084 0.304599
vt 0.742164 0.329161
vt 0.937021 0.232295
vt 0.736170 0.329200
vt 0.586084 0.298565
vt 0.937023 0.238517
vt 0.496217 0.329161
vt 0.595887 0.304599
vt 0.751966 0.329161
vt 0.502206 0.335154
vt 0.595887 0.298565
vt 0.495985 0.335152
vt 0.757960 0.329200
vt 0.882289 0.499457
vt 0.017262 0.013676
vt 0.876334 0.504768
vt 0.534836 0.307399
vt 0.017262 0.007459
vt 0.876320 0.498504
vt 0.933916 0.277105
vt 0.561362 0.288812
vt 0.532922 0.329161
vt 0.561362 0.294847
vt 0.939909 0.271116
vt 0.939908 0.277338
vt 0.538915 0.329200
vt 0.897207 0.277102
vt 0.949660 0.277338
vt 0.561362 0.304599
vt 0.949662 0.271116
vt 0.903201 0.271116
vt 0.903201 0.277406
vt 0.955656 0.277105
vt 0.922404 0.601035
vt 0.946774 0.232295
vt 0.916411 0.601340
vt 0.952769 0.232528
vt 0.586084 0.288812
vt 0.946775 0.238517
vt 0.916411 0.595050
vt 0.512966 0.304225
vt 0.739165 0.023172
vt 0.745386 0.022526
vt 0.508234 0.300485
vt 0.487929 0.610514
vt 0.512966 0.295725
vt 0.739436 0.029198
vt 0.900615 0.601035
vt 0.495985 0.344905
vt 0.906608 0.595050
vt 0.595887 0.288812
vt 0.502206 0.344907
vt 0.496217 0.350900
vt 0.906608 0.601340
vt 0.497514 0.288861
vt 0.466993 0.836807
vt 0.497733 0.610514
vt 0.506014 0.288813
vt 0.473011 0.836394
vt 0.501282 0.293572
vt 0.467056 0.843062
vt 0.546444 0.304224
vt 0.866708 0.497409
vt 0.866645 0.503664
vt 0.541712 0.300484
vt 0.967687 0.007459
vt 0.546444 0.295725
vt 0.860690 0.496996
vt 0.251225 0.173695
vt 0.841426 0.438543
vt 0.841470 0.450505
vt 0.251492 0.185647
vt 0.835506 0.451139
vt 0.835436 0.439224
vt 0.236015 0.435987
vt 0.816784 0.440539
vt 0.822822 0.440239
vt 0.822868 0.452156
vt 0.235747 0.447955
vt 0.816878 0.452490
vt 0.019041 0.447955
vt 0.018864 0.435987
vt 0.029345 0.435987
vt 0.029561 0.447955
vt 0.008020 0.447955
vt 0.772972 0.398758
vt 0.778962 0.399092
vt 0.778916 0.411009
vt 0.772878 0.410709
vt 0.007751 0.435987
vt 0.224724 0.447955
vt 0.214204 0.447955
vt 0.214420 0.435987
vt 0.224901 0.435987
vt 0.791600 0.400110
vt 0.479221 0.185647
vt 0.797564 0.400743
vt 0.479488 0.173695
vt 0.797520 0.412705
vt 0.791530 0.412025
vt 0.382919 0.810858
vt 0.457679 0.185647
vt 0.990546 0.795236
vt 0.975628 0.795236
vt 0.457894 0.173695
vt 0.349088 0.977305
vt 0.468375 0.173695
vt 0.468199 0.185647
vt 0.990546 0.979880
vt 0.273035 0.185647
vt 0.399836 0.939903
vt 0.262516 0.185647
vt 0.262339 0.173695
vt 0.330172 0.977305
vt 0.272821 0.173695
vt 0.975628 0.980309
vt 0.937322 0.796379
vt 0.267327 0.314243
vt 0.845772 0.578420
vt 0.943552 0.795694
vt 0.943324 0.801650
vt 0.839812 0.579158
vt 0.824448 0.580132
vt 0.958714 0.796380
vt 0.219913 0.576475
vt 0.830445 0.579912
vt 0.952721 0.801650
vt 0.952805 0.795694
vt 0.958714 0.608476
vt 0.032010 0.576475
vt 0.042529 0.576475
vt 0.958714 0.618996
vt 0.952805 0.619565
vt 0.952805 0.609116
vt 0.780542 0.271117
vt 0.023853 0.576475
vt 0.958714 0.600320
vt 0.952805 0.601006
vt 0.952721 0.595050
vt 0.786539 0.271336
vt 0.958714 0.788222
vt 0.211756 0.576475
vt 0.952805 0.787583
vt 0.952805 0.777133
vt 0.958714 0.777702
vt 0.201236 0.576475
vt 0.943324 0.595050
vt 0.795906 0.272090
vt 0.943552 0.601006
vt 0.463386 0.314243
vt 0.937322 0.600320
vt 0.801866 0.272829
vt 0.943552 0.609116
vt 0.943552 0.619565
vt 0.366002 0.810798
vt 0.382919 0.939963
vt 0.937322 0.618996
vt 0.444710 0.314243
vt 0.937322 0.608477
vt 0.455229 0.314243
vt 0.943552 0.787583
vt 0.937322 0.788221
vt 0.275485 0.314243
vt 0.399836 0.810798
vt 0.937322 0.777702
vt 0.286004 0.314243
vt 0.366002 0.969504
vt 0.943552 0.777133
vt 0.980826 0.595050
vt 0.970573 0.271116
vt 0.610805 0.288813
vt 0.877867 0.979982
vt 0.610805 0.288813
vt 0.980826 0.780318
vt 0.767576 0.979880
vt 0.610805 0.288813
vt 0.877867 0.794612
vt 0.970573 0.456487
vt 0.610805 0.288813
vt 0.767576 0.794612
vt 0.885065 0.979982
vt 0.436494 0.610514
vt 0.973632 0.780318
vt 0.427957 0.619110
vt 0.259762 0.619110
vt 0.977771 0.271116
vt 0.251226 0.610514
vt 0.973632 0.595050
vt 0.783371 0.803149
vt 0.259762 0.787403
vt 0.977771 0.456487
vt 0.251226 0.795880
vt 0.774780 0.794612
vt 0.885065 0.794612
vt 0.436494 0.795880
vt 0.774780 0.979880
vt 0.427957 0.787403
vt 0.783371 0.971344
vt 0.836804 0.961998
vt 0.973632 0.795236
vt 0.798289 0.979685
vt 0.347089 0.977366
vt 0.760304 0.171279
vt 0.825577 0.949986
vt 0.810659 0.969059
vt 0.810659 0.805238
vt 0.760304 0.007459
vt 0.851722 0.806625
vt 0.332171 0.977366
vt 0.973632 0.980309
vt 0.862949 0.794612
vt 0.798289 0.794612
vt 0.851722 0.951422
vt 0.904106 0.017309
vt 0.332171 0.810859
vt 0.732814 0.796616
vt 0.916111 0.008219
vt 0.862949 0.961998
vt 0.904106 0.161429
vt 0.825577 0.805189
vt 0.732814 0.634317
vt 0.836804 0.794612
vt 0.916111 0.170519
vt 0.347089 0.810859
vt 0.779629 0.606079
vt 0.277837 0.821970
vt 0.380920 0.810798
vt 0.992541 0.795236
vt 0.289086 0.810798
vt 0.767576 0.595050
vt 0.315254 0.938896
vt 0.992541 0.979880
vt 0.397837 0.939963
vt 0.767576 0.779694
vt 0.304004 0.927724
vt 0.779629 0.768665
vt 0.885697 0.757968
vt 0.304004 0.822067
vt 0.251226 0.960746
vt 0.262919 0.969504
vt 0.364006 0.969504
vt 0.397837 0.810858
vt 0.315254 0.810798
vt 0.380920 0.939903
vt 0.364006 0.810798
vt 0.289086 0.938896
vt 0.262919 0.810798
vt 0.277837 0.927627
vt 0.885697 0.616777
vt 0.251226 0.819555
s 0
f 11/18/1 177/322/1 67/113/1
f 26/45/2 165/295/2 31/57/2
f 19/33/3 180/329/3 86/145/3
f 2/3/4 168/302/4 49/83/4
f 83/139/5 120/202/5 113/190/5
f 14/25/6 37/68/6 9/15/6
f 29/52/3 92/154/3 24/43/3
f 80/133/1 70/119/1 74/123/1
f 109/185/5 20/35/5 104/176/5
f 50/84/3 171/308/3 126/213/3
f 54/92/4 162/289/4 18/32/4
f 137/234/7 51/87/7 130/221/7
f 36/66/2 150/262/2 10/16/2
f 40/74/3 183/336/3 148/257/3
f 32/60/1 186/343/1 131/223/1
f 172/309/7 145/251/7 143/245/7
f 105/177/5 103/175/5 98/166/5
f 68/114/8 184/337/8 125/209/8
f 21/37/4 55/93/4 17/31/4
f 213/381/9 275/524/9 270/507/9
f 28/51/10 212/380/10 96/162/10
f 97/163/11 215/387/11 106/179/11
f 13/22/12 208/374/12 41/75/12
f 84/141/11 219/393/11 189/349/11
f 127/214/6 142/243/6 76/127/6
f 87/146/6 175/316/6 140/239/6
f 25/44/3 153/268/3 156/274/3
f 94/156/7 139/236/7 133/227/7
f 63/107/4 3/4/4 53/91/4
f 124/208/7 75/124/7 69/118/7
f 195/358/13 223/402/13 225/406/13
f 149/260/7 178/324/7 151/263/7
f 166/297/7 155/272/7 187/345/7
f 181/331/7 161/285/7 176/318/7
f 101/172/3 16/30/3 90/152/3
f 48/82/12 207/373/12 199/363/12
f 132/225/8 154/269/8 95/158/8
f 81/135/1 8/13/1 71/120/1
f 27/48/12 198/362/12 204/370/12
f 43/77/6 34/64/6 38/69/6
f 12/20/14 192/354/14 194/357/14
f 46/80/6 23/41/6 35/65/6
f 136/232/1 160/283/1 58/100/1
f 5/7/1 73/122/1 4/5/1
f 118/199/5 61/105/5 112/189/5
f 78/131/5 66/112/5 117/198/5
f 235/423/5 222/400/5 245/441/5
f 205/371/15 224/405/15 234/422/15
f 218/392/16 221/398/16 190/352/16
f 33/61/7 122/206/7 39/70/7
f 99/167/3 89/151/3 93/155/3
f 249/450/3 258/471/3 252/458/3
f 134/228/7 129/219/7 123/207/7
f 62/106/4 52/90/4 56/95/4
f 236/424/5 242/434/5 229/413/5
f 232/418/5 241/433/5 239/429/5
f 202/367/17 238/428/17 209/375/17
f 206/372/15 228/411/15 200/364/15
f 220/394/18 266/495/18 264/489/18
f 216/388/16 240/430/16 244/440/16
f 197/361/15 231/416/15 201/365/15
f 2/3/19 4/6/19 1/2/19
f 5/8/20 6/10/20 7/12/20
f 9/14/21 11/18/21 8/13/21
f 12/19/22 14/26/22 15/27/22
f 17/31/23 19/34/23 16/29/23
f 20/36/24 21/37/24 22/40/24
f 23/42/25 25/44/25 26/46/25
f 28/50/26 30/54/26 27/47/26
f 32/59/27 34/64/27 35/65/27
f 37/68/28 39/71/28 40/73/28
f 41/75/29 43/77/29 44/78/29
f 45/79/29 47/81/29 48/82/29
f 50/85/30 52/90/30 53/91/30
f 55/93/31 57/96/31 58/99/31
f 60/102/32 62/106/32 59/101/32
f 64/108/32 66/111/32 63/107/32
f 68/115/33 70/119/33 71/120/33
f 73/122/34 75/125/34 76/128/34
f 78/131/35 80/134/35 77/129/35
f 82/137/36 84/142/36 85/143/36
f 87/147/37 89/151/37 90/152/37
f 92/154/38 94/157/38 95/160/38
f 97/164/39 99/168/39 100/169/39
f 102/173/40 104/176/40 101/171/40
f 106/178/41 108/183/41 105/177/41
f 110/186/5 112/189/5 109/185/5
f 114/191/41 116/196/41 113/190/41
f 118/199/5 120/202/5 117/198/5
f 122/206/42 124/208/42 125/210/42
f 127/215/43 129/219/43 130/221/43
f 132/226/44 134/228/44 135/230/44
f 137/234/45 139/236/45 140/238/45
f 141/241/46 142/243/46 143/247/46
f 144/249/47 145/250/47 146/252/47
f 147/255/48 148/257/48 149/259/48
f 150/261/49 151/264/49 152/266/49
f 153/267/50 154/270/50 155/272/50
f 156/274/48 157/276/48 158/279/48
f 159/280/51 160/283/51 161/286/51
f 162/287/52 163/290/52 164/292/52
f 165/294/49 166/296/49 167/299/49
f 168/300/53 169/304/53 170/305/53
f 171/307/54 172/311/54 173/312/54
f 174/314/46 175/316/46 176/320/46
f 177/321/55 178/324/55 179/326/55
f 180/328/56 181/330/56 182/334/56
f 183/335/50 184/338/50 185/340/50
f 186/342/55 187/345/55 188/347/55
f 190/351/57 192/354/57 189/350/57
f 193/356/58 195/358/58 196/360/58
f 197/361/59 199/363/59 200/364/59
f 202/367/60 204/369/60 201/366/60
f 205/371/59 207/373/59 208/374/59
f 210/377/61 212/380/61 209/375/61
f 214/385/62 216/388/62 213/382/62
f 218/392/62 220/395/62 217/390/62
f 221/397/63 222/400/63 223/401/63
f 224/404/64 225/407/64 226/408/64
f 228/412/65 230/414/65 227/409/65
f 231/417/66 232/418/66 233/419/66
f 235/423/65 237/425/65 234/421/65
f 238/427/67 239/429/67 240/431/67
f 241/433/68 243/437/68 244/439/68
f 245/441/68 247/445/68 248/448/68
f 72/121/1 4/5/1 73/122/1
f 6/10/19 4/6/19 3/4/19
f 85/143/69 15/27/69 81/136/69
f 9/14/70 15/28/70 14/24/70
f 36/66/71 9/15/71 37/68/71
f 27/48/29 46/80/29 45/79/29
f 24/43/72 30/56/72 29/52/72
f 91/153/3 24/43/3 92/154/3
f 104/176/40 22/39/40 101/171/40
f 17/31/23 22/40/23 21/37/23
f 54/92/4 17/31/4 55/93/4
f 7/12/32 63/107/32 66/111/32
f 26/45/71 35/65/71 23/41/71
f 39/71/73 34/64/73 33/62/73
f 13/22/29 44/78/29 14/25/29
f 48/82/29 43/77/29 42/76/29
f 2/3/4 53/91/4 3/4/4
f 51/87/74 56/94/74 52/89/74
f 20/36/32 59/101/32 21/37/32
f 61/104/32 64/108/32 62/106/32
f 112/189/5 60/103/5 109/185/5
f 117/198/5 65/110/5 118/199/5
f 51/88/75 126/213/75 130/220/75
f 58/100/76 137/233/76 136/232/76
f 56/95/4 59/101/4 62/106/4
f 53/91/4 64/108/4 63/107/4
f 38/69/6 44/78/6 43/77/6
f 35/65/6 47/81/6 46/80/6
f 67/113/1 8/13/1 11/18/1
f 75/125/76 70/119/76 69/117/76
f 78/131/35 5/9/35 7/11/35
f 83/139/35 80/134/35 79/132/35
f 86/145/3 16/30/3 19/33/3
f 94/157/75 89/151/75 88/149/75
f 96/161/77 29/53/77 28/50/77
f 103/175/40 99/168/40 98/166/40
f 13/23/78 194/357/78 193/356/78
f 111/187/5 105/177/5 108/183/5
f 189/350/79 85/144/79 84/140/79
f 120/202/5 114/191/5 113/190/5
f 39/72/75 121/204/75 40/74/75
f 129/219/7 124/208/7 123/207/7
f 131/223/76 33/63/76 32/60/76
f 139/236/7 134/228/7 133/227/7
f 123/207/7 135/230/7 134/228/7
f 137/234/7 129/219/7 138/235/7
f 124/208/80 68/116/80 125/210/80
f 76/127/73 128/218/73 127/214/73
f 114/191/41 107/182/41 115/195/41
f 118/199/5 111/187/5 119/200/5
f 105/177/41 97/164/41 106/178/41
f 109/185/5 103/175/5 110/186/5
f 113/190/41 84/142/41 83/139/41
f 117/198/5 79/132/5 78/131/5
f 133/227/80 95/159/80 94/156/80
f 140/239/73 88/150/73 87/146/73
f 93/155/3 100/170/3 99/167/3
f 90/152/3 102/174/3 101/172/3
f 74/123/1 77/130/1 80/133/1
f 71/120/1 82/138/1 81/135/1
f 145/250/76 141/242/76 143/246/76
f 151/265/81 147/256/81 149/258/81
f 155/273/75 156/274/75 153/268/75
f 163/291/74 159/281/74 161/285/74
f 157/277/81 165/295/81 158/278/81
f 145/251/74 168/301/74 146/253/74
f 170/305/75 172/310/75 171/308/75
f 161/286/76 174/315/76 176/319/76
f 178/323/76 152/266/76 151/264/76
f 181/332/75 164/292/75 163/290/75
f 148/257/75 185/341/75 149/259/75
f 187/344/76 167/299/76 166/296/76
f 184/338/80 178/324/80 185/340/80
f 172/311/73 142/243/73 173/312/73
f 154/270/80 187/345/80 155/272/80
f 176/320/73 182/334/73 181/330/73
f 67/113/82 179/327/82 68/115/82
f 121/204/83 184/339/83 183/336/83
f 131/223/82 188/348/82 132/224/82
f 91/153/83 154/271/83 153/268/83
f 162/289/23 19/34/23 18/32/23
f 87/147/72 180/329/72 182/333/72
f 171/308/72 127/216/72 126/213/72
f 72/121/70 142/244/70 141/242/70
f 160/284/19 54/92/19 58/99/19
f 36/67/84 148/257/84 147/255/84
f 136/232/70 175/317/70 174/315/70
f 152/266/85 10/17/85 150/261/85
f 156/274/84 26/46/84 25/44/84
f 167/299/85 31/58/85 165/294/85
f 168/302/23 50/85/23 49/83/23
f 2/3/19 144/248/19 146/254/19
f 191/353/86 194/357/86 192/354/86
f 201/365/59 198/362/59 197/361/59
f 196/359/59 208/374/59 193/355/59
f 200/364/59 207/373/59 206/372/59
f 209/375/87 203/368/87 202/367/87
f 196/360/88 225/406/88 224/403/88
f 190/351/89 223/402/89 191/353/89
f 214/385/62 217/390/62 220/395/62
f 215/387/62 210/376/62 216/388/62
f 219/393/62 190/352/62 189/349/62
f 199/363/12 45/79/12 48/82/12
f 203/368/90 27/49/90 204/369/90
f 207/373/12 41/75/12 208/374/12
f 211/379/91 96/162/91 212/380/91
f 220/395/11 116/197/11 115/193/11
f 214/385/11 106/179/11 215/387/11
f 222/400/92 225/407/92 223/401/92
f 232/418/65 227/409/65 230/414/65
f 226/408/65 234/421/65 224/404/65
f 229/413/65 237/425/65 236/424/65
f 239/429/93 233/419/93 232/418/93
f 229/413/5 241/433/5 230/414/5
f 235/423/5 248/448/5 236/424/5
f 243/437/68 248/448/68 247/445/68
f 244/439/68 239/429/68 241/433/68
f 246/442/68 222/400/68 221/397/68
f 217/390/16 246/443/16 218/392/16
f 244/440/16 213/382/16 216/388/16
f 234/422/15 206/372/15 205/371/15
f 227/410/15 200/364/15 228/411/15
f 233/420/94 201/366/94 231/415/94
f 238/428/95 210/377/95 209/375/95
f 72/121/1 144/249/1 1/1/1
f 108/184/5 250/453/5 249/451/5
f 114/192/5 251/456/5 250/453/5
f 119/201/5 252/459/5 251/456/5
f 111/188/5 249/451/5 252/459/5
f 251/457/1 253/461/1 250/452/1
f 254/464/5 257/470/5 255/465/5
f 220/396/96 261/480/96 214/384/96
f 252/460/4 259/476/4 251/455/4
f 255/465/97 253/462/97 254/464/97
f 257/470/40 256/467/40 255/465/40
f 254/464/35 259/475/35 260/477/35
f 260/478/32 258/473/32 257/469/32
f 250/454/6 256/468/6 249/449/6
f 213/383/98 271/512/98 217/389/98
f 247/447/96 275/525/96 243/435/96
f 267/499/11 263/487/11 265/494/11
f 107/182/98 266/496/98 115/195/98
f 217/391/99 274/522/99 247/444/99
f 272/516/16 276/529/16 273/517/16
f 269/506/100 275/526/100 276/528/100
f 262/484/101 268/502/101 261/479/101
f 272/515/102 274/523/102 271/511/102
f 272/516/103 270/510/103 269/505/103
f 265/494/104 268/503/104 267/499/104
f 273/519/105 275/527/105 274/520/105
f 263/488/106 266/498/106 265/493/106
f 262/485/107 264/492/107 263/486/107
f 214/386/108 268/504/108 107/180/108
f 11/18/1 152/266/1 177/322/1
f 26/45/2 158/278/2 165/295/2
f 19/33/3 164/292/3 180/329/3
f 2/3/4 146/254/4 168/302/4
f 83/139/5 79/132/5 120/202/5
f 14/25/6 44/78/6 37/68/6
f 29/52/3 100/170/3 92/154/3
f 80/133/1 82/138/1 70/119/1
f 109/185/5 60/103/5 20/35/5
f 50/84/3 170/305/3 171/308/3
f 54/92/4 159/282/4 162/289/4
f 137/234/7 57/97/7 51/87/7
f 36/66/2 147/256/2 150/262/2
f 40/74/3 121/204/3 183/336/3
f 32/60/1 167/299/1 186/343/1
f 172/309/7 169/303/7 145/251/7
f 105/177/5 110/186/5 103/175/5
f 68/114/8 179/325/8 184/337/8
f 21/37/4 59/101/4 55/93/4
f 213/381/9 243/436/9 275/524/9
f 28/51/10 203/368/10 212/380/10
f 97/163/11 211/378/11 215/387/11
f 13/22/12 193/355/12 208/374/12
f 84/141/11 116/197/11 219/393/11
f 127/214/6 173/312/6 142/243/6
f 87/146/6 182/334/6 175/316/6
f 25/44/3 91/153/3 153/268/3
f 94/156/7 88/148/7 139/236/7
f 63/107/4 6/10/4 3/4/4
f 124/208/7 128/217/7 75/124/7
f 195/358/13 191/353/13 223/402/13
f 149/260/7 185/340/7 178/324/7
f 166/297/7 157/275/7 155/272/7
f 181/331/7 163/291/7 161/285/7
f 101/172/3 22/38/3 16/30/3
f 48/82/12 42/76/12 207/373/12
f 132/225/8 188/346/8 154/269/8
f 81/135/1 15/28/1 8/13/1
f 27/48/12 45/79/12 198/362/12
f 43/77/6 47/81/6 34/64/6
f 12/20/14 85/144/14 192/354/14
f 46/80/6 30/55/6 23/41/6
f 136/232/1 174/315/1 160/283/1
f 5/7/1 77/130/1 73/122/1
f 118/199/5 65/110/5 61/105/5
f 78/131/5 7/11/5 66/112/5
f 235/423/5 226/408/5 222/400/5
f 205/371/15 196/359/15 224/405/15
f 218/392/16 246/443/16 221/398/16
f 33/61/7 135/230/7 122/206/7
f 99/167/3 102/174/3 89/151/3
f 249/450/3 256/466/3 258/471/3
f 134/228/7 138/235/7 129/219/7
f 62/106/4 64/108/4 52/90/4
f 236/424/5 248/448/5 242/434/5
f 232/418/5 230/414/5 241/433/5
f 202/367/17 233/420/17 238/428/17
f 206/372/15 237/426/15 228/411/15
f 220/394/18 115/194/18 266/495/18
f 216/388/16 210/376/16 240/430/16
f 197/361/15 227/410/15 231/416/15
f 2/3/19 3/4/19 4/6/19
f 9/14/109 10/17/109 11/18/109
f 12/19/110 13/21/110 14/26/110
f 17/31/23 18/32/23 19/34/23
f 23/42/111 24/43/111 25/44/111
f 28/50/112 29/53/112 30/54/112
f 35/65/109 31/57/109 32/59/109
f 32/59/113 33/62/113 34/64/113
f 40/73/25 36/66/25 37/68/25
f 37/68/73 38/69/73 39/71/73
f 41/75/29 42/76/29 43/77/29
f 45/79/29 46/80/29 47/81/29
f 53/91/23 49/83/23 50/85/23
f 50/85/114 51/86/114 52/90/114
f 58/99/19 54/92/19 55/93/19
f 55/93/74 56/95/74 57/96/74
f 60/102/32 61/104/32 62/106/32
f 64/108/32 65/109/32 66/111/32
f 71/120/115 67/113/115 68/115/115
f 68/115/116 69/117/116 70/119/116
f 76/128/70 72/121/70 73/122/70
f 73/122/76 74/123/76 75/125/76
f 78/131/35 79/132/35 80/134/35
f 85/143/69 81/136/69 82/137/69
f 82/137/117 83/139/117 84/142/117
f 90/152/72 86/145/72 87/147/72
f 87/147/56 88/149/56 89/151/56
f 95/160/118 91/153/118 92/154/118
f 92/154/75 93/155/75 94/157/75
f 100/169/119 96/161/119 97/164/119
f 97/164/120 98/166/120 99/168/120
f 102/173/40 103/175/40 104/176/40
f 106/178/41 107/182/41 108/183/41
f 110/186/5 111/187/5 112/189/5
f 114/191/41 115/195/41 116/196/41
f 118/199/5 119/200/5 120/202/5
f 125/210/42 121/203/42 122/206/42
f 122/206/7 123/207/7 124/208/7
f 130/221/54 126/212/54 127/215/54
f 127/215/73 128/217/73 129/219/73
f 135/230/121 131/222/121 132/226/121
f 132/226/80 133/227/80 134/228/80
f 140/238/45 136/231/45 137/234/45
f 137/234/7 138/235/7 139/236/7
f 190/351/122 191/353/122 192/354/122
f 193/356/123 194/357/123 195/358/123
f 197/361/59 198/362/59 199/363/59
f 202/367/124 203/368/124 204/369/124
f 205/371/59 206/372/59 207/373/59
f 210/377/125 211/379/125 212/380/125
f 214/385/62 215/387/62 216/388/62
f 218/392/62 219/393/62 220/395/62
f 228/412/65 229/413/65 230/414/65
f 235/423/65 236/424/65 237/425/65
f 241/433/68 242/434/68 243/437/68
f 245/441/68 246/442/68 247/445/68
f 72/121/1 1/1/1 4/5/1
f 6/10/19 5/8/19 4/6/19
f 85/143/69 12/19/69 15/27/69
f 9/14/70 8/13/70 15/28/70
f 36/66/71 10/16/71 9/15/71
f 27/48/29 30/55/29 46/80/29
f 24/43/72 23/42/72 30/56/72
f 91/153/3 25/44/3 24/43/3
f 104/176/40 20/35/40 22/39/40
f 17/31/23 16/29/23 22/40/23
f 54/92/4 18/32/4 17/31/4
f 7/12/32 6/10/32 63/107/32
f 26/45/71 31/57/71 35/65/71
f 39/71/73 38/69/73 34/64/73
f 13/22/29 41/75/29 44/78/29
f 48/82/29 47/81/29 43/77/29
f 2/3/4 49/83/4 53/91/4
f 51/87/74 57/97/74 56/94/74
f 20/36/32 60/102/32 59/101/32
f 61/104/32 65/109/32 64/108/32
f 112/189/5 61/105/5 60/103/5
f 117/198/5 66/112/5 65/110/5
f 51/88/75 50/84/75 126/213/75
f 58/100/76 57/98/76 137/233/76
f 56/95/4 55/93/4 59/101/4
f 53/91/4 52/90/4 64/108/4
f 38/69/6 37/68/6 44/78/6
f 35/65/6 34/64/6 47/81/6
f 67/113/1 71/120/1 8/13/1
f 75/125/76 74/123/76 70/119/76
f 78/131/35 77/129/35 5/9/35
f 83/139/35 82/137/35 80/134/35
f 86/145/3 90/152/3 16/30/3
f 94/157/75 93/155/75 89/151/75
f 96/161/77 100/169/77 29/53/77
f 103/175/40 102/173/40 99/168/40
f 13/23/78 12/20/78 194/357/78
f 111/187/5 110/186/5 105/177/5
f 189/350/79 192/354/79 85/144/79
f 120/202/5 119/200/5 114/191/5
f 39/72/75 122/205/75 121/204/75
f 129/219/7 128/217/7 124/208/7
f 131/223/76 135/229/76 33/63/76
f 139/236/7 138/235/7 134/228/7
f 123/207/7 122/206/7 135/230/7
f 137/234/7 130/221/7 129/219/7
f 124/208/80 69/118/80 68/116/80
f 76/127/73 75/126/73 128/218/73
f 114/191/41 108/183/41 107/182/41
f 118/199/5 112/189/5 111/187/5
f 105/177/41 98/166/41 97/164/41
f 109/185/5 104/176/5 103/175/5
f 113/190/41 116/196/41 84/142/41
f 117/198/5 120/202/5 79/132/5
f 133/227/80 132/226/80 95/159/80
f 140/239/73 139/237/73 88/150/73
f 93/155/3 92/154/3 100/170/3
f 90/152/3 89/151/3 102/174/3
f 74/123/1 73/122/1 77/130/1
f 71/120/1 70/119/1 82/138/1
f 145/250/76 144/249/76 141/242/76
f 151/265/81 150/262/81 147/256/81
f 155/273/75 157/276/75 156/274/75
f 163/291/74 162/288/74 159/281/74
f 157/277/81 166/298/81 165/295/81
f 145/251/74 169/303/74 168/301/74
f 170/305/75 169/304/75 172/310/75
f 161/286/76 160/283/76 174/315/76
f 178/323/76 177/322/76 152/266/76
f 181/332/75 180/329/75 164/292/75
f 148/257/75 183/336/75 185/341/75
f 187/344/76 186/343/76 167/299/76
f 184/338/80 179/326/80 178/324/80
f 172/311/73 143/247/73 142/243/73
f 154/270/80 188/347/80 187/345/80
f 176/320/73 175/316/73 182/334/73
f 67/113/82 177/322/82 179/327/82
f 121/204/83 125/211/83 184/339/83
f 131/223/82 186/343/82 188/348/82
f 91/153/83 95/160/83 154/271/83
f 162/289/23 164/293/23 19/34/23
f 87/147/72 86/145/72 180/329/72
f 171/308/72 173/313/72 127/216/72
f 72/121/70 76/128/70 142/244/70
f 160/284/19 159/282/19 54/92/19
f 36/67/84 40/74/84 148/257/84
f 136/232/70 140/240/70 175/317/70
f 152/266/85 11/18/85 10/17/85
f 156/274/84 158/279/84 26/46/84
f 167/299/85 32/60/85 31/58/85
f 168/302/23 170/306/23 50/85/23
f 2/3/19 1/2/19 144/248/19
f 191/353/86 195/358/86 194/357/86
f 201/365/59 204/370/59 198/362/59
f 196/359/59 205/371/59 208/374/59
f 200/364/59 199/363/59 207/373/59
f 209/375/87 212/380/87 203/368/87
f 196/360/88 195/358/88 225/406/88
f 190/351/89 221/399/89 223/402/89
f 214/385/62 213/382/62 217/390/62
f 215/387/62 211/378/62 210/376/62
f 219/393/62 218/392/62 190/352/62
f 199/363/12 198/362/12 45/79/12
f 203/368/90 28/51/90 27/49/90
f 207/373/12 42/76/12 41/75/12
f 211/379/91 97/165/91 96/162/91
f 220/395/11 219/393/11 116/197/11
f 214/385/11 107/181/11 106/179/11
f 222/400/92 226/408/92 225/407/92
f 232/418/65 231/417/65 227/409/65
f 226/408/65 235/423/65 234/421/65
f 229/413/65 228/412/65 237/425/65
f 239/429/93 238/427/93 233/419/93
f 229/413/5 242/434/5 241/433/5
f 235/423/5 245/441/5 248/448/5
f 243/437/68 242/434/68 248/448/68
f 244/439/68 240/431/68 239/429/68
f 246/442/68 245/441/68 222/400/68
f 217/390/16 247/446/16 246/443/16
f 244/440/16 243/438/16 213/382/16
f 234/422/15 237/426/15 206/372/15
f 227/410/15 197/361/15 200/364/15
f 233/420/94 202/367/94 201/366/94
f 238/428/95 240/432/95 210/377/95
f 72/121/1 141/242/1 144/249/1
f 108/184/5 114/192/5 250/453/5
f 114/192/5 119/201/5 251/456/5
f 119/201/5 111/188/5 252/459/5
f 111/188/5 108/184/5 249/451/5
f 251/457/1 259/474/1 253/461/1
f 254/464/5 260/477/5 257/470/5
f 220/396/96 264/490/96 261/480/96
f 252/460/4 258/473/4 259/476/4
f 255/465/97 256/467/97 253/462/97
f 257/470/40 258/472/40 256/467/40
f 254/464/35 253/462/35 259/475/35
f 260/478/32 259/476/32 258/473/32
f 250/454/6 253/463/6 256/468/6
f 213/383/98 270/508/98 271/512/98
f 247/447/96 274/521/96 275/525/96
f 267/499/11 262/483/11 263/487/11
f 107/182/98 268/501/98 266/496/98
f 217/391/99 271/513/99 274/522/99
f 272/516/16 269/505/16 276/529/16
f 269/506/100 270/509/100 275/526/100
f 262/484/101 267/500/101 268/502/101
f 272/515/102 273/518/102 274/523/102
f 272/516/103 271/514/103 270/510/103
f 265/494/104 266/497/104 268/503/104
f 273/519/105 276/530/105 275/527/105
f 263/488/106 264/491/106 266/498/106
f 262/485/107 261/481/107 264/492/107
f 214/386/108 261/482/108 268/504/108
