# Blender 3.3.1
# www.blender.org
o column
v -1.718461 -0.024352 2.747577
v -1.718461 15.004642 2.747577
v -1.718461 -0.024352 -2.747577
v -1.718461 15.004642 -2.747577
v 1.718461 -0.024352 2.747577
v 1.718461 15.004642 2.747577
v 1.718461 -0.024352 -2.747577
v 1.718461 15.004642 -2.747577
v -0.046882 -0.027956 -4.276424
v -0.046882 14.929010 -4.276424
v 0.221893 -0.027956 -4.219295
v 0.221893 14.929010 -4.219295
v 0.444195 -0.027956 -4.057783
v 0.444195 14.929010 -4.057783
v 0.581584 -0.027956 -3.819816
v 0.581584 14.929010 -3.819816
v 0.610307 -0.027956 -3.546542
v 0.610307 14.929010 -3.546542
v 0.525395 -0.027956 -3.285211
v 0.525395 14.929010 -3.285211
v 0.341531 -0.027956 -3.081010
v 0.341531 14.929010 -3.081010
v 0.090508 -0.027956 -2.969247
v 0.090508 14.929010 -2.969247
v -0.184272 -0.027956 -2.969247
v -0.184272 14.929010 -2.969247
v -0.435296 -0.027956 -3.081010
v -0.435296 14.929010 -3.081010
v -0.619160 -0.027956 -3.285211
v -0.619160 14.929010 -3.285211
v -0.704071 -0.027956 -3.546542
v -0.704071 14.929010 -3.546542
v -0.675349 -0.027956 -3.819816
v -0.675349 14.929010 -3.819816
v -0.537959 -0.027956 -4.057783
v -0.537959 14.929010 -4.057783
v -0.315658 -0.027956 -4.219295
v -0.315658 14.929010 -4.219295
vn -1.0000 -0.0000 -0.0000
vn -0.0000 -0.0000 -1.0000
vn 1.0000 -0.0000 -0.0000
vn -0.0000 -0.0000 1.0000
vn -0.0000 -1.0000 -0.0000
vn -0.0000 1.0000 -0.0000
vn 0.2079 -0.0000 -0.9781
vn 0.5878 -0.0000 -0.8090
vn 0.8660 -0.0000 -0.5000
vn 0.9945 -0.0000 -0.1045
vn 0.9511 -0.0000 0.3090
vn 0.7431 -0.0000 0.6691
vn 0.4067 -0.0000 0.9135
vn -0.4067 -0.0000 0.9135
vn -0.7431 -0.0000 0.6691
vn -0.9511 -0.0000 0.3090
vn -0.9945 -0.0000 -0.1045
vn -0.8660 -0.0000 -0.5000
vn -0.5878 -0.0000 -0.8090
vn -0.2079 -0.0000 -0.9781
vt 0.559867 0.004876
vt 0.004876 0.004876
vt 0.726655 0.136655
vt 0.559867 0.995124
vt 0.004876 0.995124
vt 0.858433 0.278185
vt 0.278186 0.004876
vt 0.726655 0.004876
vt 0.428779 0.004876
vt 0.428779 0.995124
vt 0.278186 0.995124
vt 0.858433 0.146407
vt 0.136655 0.004876
vt 0.287938 0.004876
vt 0.858433 0.136655
vt 0.287938 0.995124
vt 0.136655 0.995124
vt 0.726655 0.278185
vt 0.419026 0.004876
vt 0.146407 0.004876
vt 0.858433 0.004876
vt 0.726655 0.146407
vt 0.146407 0.995124
vt 0.419026 0.995124
vt 0.593716 0.004876
vt 0.726655 0.313136
vt 0.726655 0.373284
vt 0.593716 0.990378
vt 0.583411 0.004876
vt 0.728025 0.302831
vt 0.583411 0.990378
vt 0.728025 0.383590
vt 0.574888 0.004876
vt 0.731898 0.294307
vt 0.574887 0.990378
vt 0.731898 0.392113
vt 0.694176 0.004876
vt 0.569620 0.004876
vt 0.737604 0.289039
vt 0.569620 0.990378
vt 0.694176 0.990378
vt 0.737604 0.397381
vt 0.687770 0.004876
vt 0.744158 0.287938
vt 0.687769 0.990378
vt 0.744158 0.398482
vt 0.671450 0.004876
vt 0.681203 0.004876
vt 0.750425 0.291194
vt 0.681203 0.990378
vt 0.671450 0.990378
vt 0.750425 0.395227
vt 0.664400 0.004876
vt 0.755322 0.298243
vt 0.664400 0.990378
vt 0.755322 0.388177
vt 0.654776 0.004876
vt 0.758002 0.307868
vt 0.654776 0.990378
vt 0.758002 0.378552
vt 0.644240 0.004876
vt 0.758002 0.318404
vt 0.644240 0.990378
vt 0.758002 0.368017
vt 0.634615 0.004876
vt 0.755322 0.328029
vt 0.634615 0.990378
vt 0.755322 0.358392
vt 0.716902 0.004876
vt 0.627566 0.004876
vt 0.750425 0.335078
vt 0.627566 0.990378
vt 0.716902 0.990378
vt 0.750425 0.351342
vt 0.710335 0.004876
vt 0.744158 0.338334
vt 0.710335 0.990378
vt 0.744158 0.348086
vt 0.617813 0.004876
vt 0.703929 0.004876
vt 0.737604 0.337233
vt 0.703929 0.990378
vt 0.617813 0.990378
vt 0.737604 0.349188
vt 0.612545 0.004876
vt 0.731898 0.331965
vt 0.731898 0.354456
vt 0.612545 0.990378
vt 0.604022 0.004876
vt 0.728025 0.323441
vt 0.728025 0.362979
vt 0.604022 0.990378
s 0
f 2/4/1 3/9/1 1/1/1
f 4/11/2 7/20/2 3/7/2
f 8/24/3 5/14/3 7/19/3
f 6/17/4 1/2/4 5/13/4
f 7/21/5 1/3/5 3/8/5
f 4/12/6 6/18/6 8/22/6
f 10/28/7 11/29/7 9/25/7
f 12/31/8 13/33/8 11/29/8
f 14/35/9 15/38/9 13/33/9
f 16/41/10 17/43/10 15/37/10
f 18/45/11 19/48/11 17/43/11
f 20/51/12 21/53/12 19/47/12
f 22/55/13 23/57/13 21/53/13
f 24/59/4 25/61/4 23/57/4
f 26/63/14 27/65/14 25/61/14
f 28/67/15 29/70/15 27/65/15
f 30/73/16 31/75/16 29/69/16
f 32/77/17 33/80/17 31/75/17
f 34/83/18 35/85/18 33/79/18
f 32/78/6 24/60/6 16/42/6
f 36/88/19 37/89/19 35/85/19
f 38/92/20 9/25/20 37/89/20
f 19/49/5 27/66/5 35/86/5
f 2/4/1 4/10/1 3/9/1
f 4/11/2 8/23/2 7/20/2
f 8/24/3 6/16/3 5/14/3
f 6/17/4 2/5/4 1/2/4
f 7/21/5 5/15/5 1/3/5
f 4/12/6 2/6/6 6/18/6
f 10/28/7 12/31/7 11/29/7
f 12/31/8 14/35/8 13/33/8
f 14/35/9 16/40/9 15/38/9
f 16/41/10 18/45/10 17/43/10
f 18/45/11 20/50/11 19/48/11
f 20/51/12 22/55/12 21/53/12
f 22/55/13 24/59/13 23/57/13
f 24/59/4 26/63/4 25/61/4
f 26/63/14 28/67/14 27/65/14
f 28/67/15 30/72/15 29/70/15
f 30/73/16 32/77/16 31/75/16
f 32/77/17 34/82/17 33/80/17
f 34/83/18 36/88/18 35/85/18
f 14/36/6 12/32/6 10/27/6
f 10/27/6 38/91/6 36/87/6
f 36/87/6 34/84/6 32/78/6
f 32/78/6 30/74/6 28/68/6
f 28/68/6 26/64/6 24/60/6
f 24/60/6 22/56/6 20/52/6
f 20/52/6 18/46/6 16/42/6
f 16/42/6 14/36/6 10/27/6
f 10/27/6 36/87/6 32/78/6
f 32/78/6 28/68/6 24/60/6
f 24/60/6 20/52/6 16/42/6
f 16/42/6 10/27/6 32/78/6
f 36/88/19 38/92/19 37/89/19
f 38/92/20 10/28/20 9/25/20
f 37/90/5 9/26/5 11/30/5
f 11/30/5 13/34/5 15/39/5
f 15/39/5 17/44/5 19/49/5
f 19/49/5 21/54/5 23/58/5
f 23/58/5 25/62/5 27/66/5
f 27/66/5 29/71/5 31/76/5
f 31/76/5 33/81/5 35/86/5
f 35/86/5 37/90/5 11/30/5
f 11/30/5 15/39/5 19/49/5
f 19/49/5 23/58/5 27/66/5
f 27/66/5 31/76/5 35/86/5
f 35/86/5 11/30/5 19/49/5
