# Blender 3.3.1
# www.blender.org
o east_wall_1
v 1.937121 -0.011170 1.000000
v 1.937121 1.988830 1.000000
v 3.937121 -0.011170 1.000000
v 3.937121 1.988830 1.000000
v -0.794231 -0.011170 -1.000000
v -0.794231 -0.011170 1.000000
v -0.794231 1.988830 1.000000
v -0.794231 1.988830 -1.000000
v 0.754364 1.988830 1.000000
v 0.754364 -0.011170 1.000000
v -2.182758 -0.011170 -1.000000
v -4.010012 -0.011170 -8.009117
v -2.475466 5.970190 -6.187997
v -0.794231 -0.011170 -6.187997
v -2.182758 -0.011170 -6.187997
v -20.887608 -0.011170 -8.009117
v -20.887608 -0.011170 -6.187997
v -19.199848 -0.011170 -8.009117
v -19.199848 -0.011170 -6.187997
v -17.479187 5.970190 -6.187997
v -20.887608 1.988830 -2.928218
v -20.887608 -0.011170 -2.928218
v -19.199848 -0.011170 -2.928218
v -19.199848 1.988830 -2.928218
v -19.199848 -0.011170 -4.428840
v -20.887608 -0.011170 -4.428840
v -19.199848 1.988830 -4.428840
v -34.934025 1.988830 -2.928218
v -34.934025 -0.011170 -2.928218
v -34.934025 1.988830 -4.428840
v -34.934025 -0.011170 -4.428840
v -33.165791 -0.011170 -2.928218
v -33.165791 -0.011170 -4.428840
v -33.165791 1.988830 -2.928218
v -34.934025 -0.011170 -14.406412
v -34.934025 1.988830 -14.406412
v -33.165791 1.988830 -14.406412
v -33.165791 -0.011170 -14.406412
v 1.937121 14.856805 1.000000
v 1.937121 14.856805 -1.000000
v 3.937121 14.856805 -1.000000
v 3.937121 14.856805 1.000000
v -0.794231 14.856805 1.000000
v -0.794231 14.856805 -1.000000
v 0.754364 14.856805 -1.000000
v 0.754364 14.856805 1.000000
v 0.754364 14.856805 -8.009117
v -1.072890 14.856805 -8.009117
v -2.475466 12.989633 -6.187997
v 0.754364 14.856805 -6.187997
v -20.887608 14.856805 -6.187997
v -20.887608 14.856805 -8.009117
v -19.199848 14.856805 -8.009117
v -17.479187 12.989633 -6.187997
v -20.887608 14.856805 -2.928218
v -19.199848 14.856805 -2.928218
v -20.887608 14.856805 -4.428840
v -19.199848 14.856805 -4.428840
v -34.934025 14.856805 -4.428840
v -34.934025 14.856805 -2.928218
v -33.165791 14.856805 -4.428840
v -33.165791 14.856805 -2.928218
v -33.165791 14.856805 -14.406412
v -34.934025 14.856805 -14.406412
v -19.199848 14.856805 -6.187997
v -19.199848 1.988830 -6.187997
v -0.794231 14.856805 -6.187997
v -0.794231 1.988830 -6.187997
v -17.479187 12.989633 -7.044077
v -17.479187 5.970190 -7.044077
v -2.475466 12.989633 -7.044077
v -2.475466 5.970190 -7.044077
v -17.479187 12.989633 -8.035520
v -17.479187 5.970190 -8.035520
v -2.475466 12.989633 -8.035520
v -2.475466 5.970190 -8.035520
v 7.732821 -0.011170 1.000000
v 7.732821 1.988830 1.000000
v 7.732821 14.856805 -1.000000
v 7.732821 14.856805 1.000000
vn -0.0000 -0.0000 1.0000
vn -1.0000 -0.0000 -0.0000
vn -0.0000 1.0000 -0.0000
vn 1.0000 -0.0000 -0.0000
vn -0.0000 -1.0000 -0.0000
vn -0.0000 -0.0000 -1.0000
vt 0.842334 0.006046
vt 0.842334 0.045376
vt 0.881664 0.006046
vt 0.881664 0.045376
vt 0.746042 0.832409
vt 0.890644 0.310513
vt 0.721964 0.803600
vt 0.929973 0.310513
vt 0.721964 0.863506
vt 0.788623 0.006046
vt 0.788623 0.045376
vt 0.929973 0.349842
vt 0.890644 0.349842
vt 0.819076 0.045376
vt 0.746042 0.882150
vt 0.819076 0.006046
vt 0.749269 0.803600
vt 0.724453 0.815692
vt 0.346263 0.614159
vt 0.407298 0.689487
vt 0.601778 0.039107
vt 0.358875 0.984531
vt 0.484156 0.006046
vt 0.721964 0.701580
vt 0.788623 0.310513
vt 0.310452 0.677395
vt 0.749269 0.701580
vt 0.346263 0.282265
vt 0.310452 0.282265
vt 0.346263 0.315453
vt 0.310452 0.689487
vt 0.484156 0.367987
vt 0.310452 0.315453
vt 0.358875 0.689487
vt 0.419391 0.689487
vt 0.601778 0.334151
vt 0.737202 0.656300
vt 0.776531 0.656300
vt 0.246349 0.282265
vt 0.776531 0.689487
vt 0.246349 0.315453
vt 0.246349 0.689487
vt 0.246349 0.728817
vt 0.737202 0.689487
vt 0.275858 0.689487
vt 0.275858 0.315453
vt 0.275858 0.282265
vt 0.275858 0.728817
vt 0.737202 0.380081
vt 0.709871 0.740909
vt 0.246349 0.006046
vt 0.709871 0.701580
vt 0.776531 0.380081
vt 0.680363 0.740909
vt 0.680363 0.701580
vt 0.275858 0.006046
vt 0.776531 0.414852
vt 0.246349 0.040817
vt 0.275858 0.040817
vt 0.737202 0.414852
vt 0.976837 0.310513
vt 0.472064 0.006046
vt 0.484157 0.701580
vt 0.484157 0.740909
vt 0.976837 0.349842
vt 0.942066 0.349842
vt 0.942066 0.310513
vt 0.472064 0.040817
vt 0.228117 0.760986
vt 0.842334 0.298420
vt 0.189045 0.756489
vt 0.184549 0.795559
vt 0.881664 0.298420
vt 0.223621 0.800056
vt 0.929973 0.602887
vt 0.788623 0.298420
vt 0.234257 0.707626
vt 0.890644 0.602887
vt 0.195185 0.703129
vt 0.191704 0.733383
vt 0.230776 0.737877
vt 0.819076 0.298420
vt 0.054775 0.717628
vt 0.058883 0.681931
vt 0.975082 0.614979
vt 0.739813 0.039107
vt 0.407298 0.827523
vt 0.090352 0.721722
vt 0.139000 0.298927
vt 0.103423 0.294834
vt 0.099629 0.327805
vt 0.419391 0.827523
vt 0.739813 0.334151
vt 0.975082 0.910023
vt 0.202682 0.306255
vt 0.484157 0.656300
vt 0.198889 0.339226
vt 0.484157 0.689487
vt 0.246349 0.981862
vt 0.173367 0.302883
vt 0.169573 0.335854
vt 0.275858 0.981862
vt 0.204941 0.028473
vt 0.680363 0.993954
vt 0.484157 0.380081
vt 0.234257 0.031849
vt 0.709871 0.993954
vt 0.200966 0.063019
vt 0.230282 0.066391
vt 0.484157 0.414852
vt 0.006046 0.040588
vt 0.942066 0.602887
vt 0.010021 0.006046
vt 0.484157 0.993954
vt 0.976837 0.602887
vt 0.310452 0.981862
vt 0.135206 0.331902
vt 0.776531 0.367987
vt 0.310452 0.728817
vt 0.523486 0.367987
vt 0.788623 0.602887
vt 0.093833 0.691467
vt 0.776531 0.006046
vt 0.788623 0.349842
vt 0.523486 0.006046
vt 0.788623 0.614979
vt 0.436225 0.827523
vt 0.958247 0.910023
vt 0.342040 0.689487
vt 0.926658 0.614979
vt 0.436225 0.689487
vt 0.958247 0.614979
vt 0.788623 0.910023
vt 0.390463 0.827523
vt 0.390463 0.689487
vt 0.926658 0.910023
vt 0.342040 0.984531
vt 0.938751 0.910023
vt 0.455721 0.827523
vt 0.322544 0.689487
vt 0.455721 0.689487
vt 0.938751 0.614979
vt 0.370967 0.827523
vt 0.370967 0.689487
vt 0.322544 0.984531
vt 0.956305 0.006046
vt 0.956305 0.045376
vt 0.176018 0.869713
vt 0.956305 0.298420
vt 0.215089 0.874210
s 0
f 4/4/1 1/1/1 3/3/1
f 7/12/2 5/6/2 6/8/2
f 11/18/3 6/9/3 5/5/3
f 9/14/1 6/10/1 10/16/1
f 2/2/1 10/16/1 1/1/1
f 66/119/4 58/102/4 27/48/4
f 5/7/3 15/27/3 11/17/3
f 8/13/2 14/25/2 5/6/2
f 19/33/5 16/28/5 18/30/5
f 7/12/2 44/78/2 8/13/2
f 25/46/5 22/39/5 26/47/5
f 68/125/1 19/32/1 14/23/1
f 20/35/4 69/127/4 54/92/4
f 12/19/5 19/33/5 18/30/5
f 24/44/1 22/38/1 23/40/1
f 8/13/2 67/121/2 68/124/2
f 32/58/5 31/56/5 33/59/5
f 27/48/4 23/42/4 25/45/4
f 66/119/4 25/45/4 19/31/4
f 9/14/1 43/76/1 7/11/1
f 19/33/5 26/47/5 17/29/5
f 31/55/2 28/50/2 30/54/2
f 34/60/1 60/105/1 28/49/1
f 34/60/1 29/53/1 32/57/1
f 21/37/1 32/57/1 22/38/1
f 22/39/5 33/59/5 26/47/5
f 38/67/6 36/65/6 37/66/6
f 31/56/5 38/68/5 33/59/5
f 30/54/2 35/63/2 31/55/2
f 45/80/3 43/77/3 46/81/3
f 40/71/3 42/74/3 41/72/3
f 40/71/3 46/81/3 39/69/3
f 67/122/3 47/83/3 48/84/3
f 45/80/3 67/122/3 44/79/3
f 53/91/3 51/89/3 65/117/3
f 48/84/3 65/117/3 67/122/3
f 57/100/3 56/97/3 58/101/3
f 51/89/3 58/101/3 65/117/3
f 61/108/3 60/106/3 62/109/3
f 57/100/3 62/109/3 55/95/3
f 61/108/3 64/113/3 59/103/3
f 21/37/1 62/110/1 34/60/1
f 2/2/1 46/82/1 9/14/1
f 30/54/2 64/114/2 36/64/2
f 24/44/1 55/96/1 21/37/1
f 28/50/2 59/104/2 30/54/2
f 36/65/6 63/112/6 37/66/6
f 27/48/4 56/99/4 24/43/4
f 20/36/1 65/118/1 66/120/1
f 13/21/1 67/123/1 49/86/1
f 20/36/1 68/125/1 13/21/1
f 54/93/1 67/123/1 65/118/1
f 69/128/5 75/142/5 71/132/5
f 54/94/5 71/132/5 49/85/5
f 49/87/2 72/135/2 13/20/2
f 13/22/3 70/129/3 20/34/3
f 70/130/1 71/133/1 69/126/1
f 71/134/2 76/144/2 72/135/2
f 72/137/3 74/140/3 70/129/3
f 70/131/4 73/139/4 69/127/4
f 4/4/1 39/70/1 2/2/1
f 4/4/1 80/149/1 42/73/1
f 42/74/3 79/148/3 41/72/3
f 3/3/1 78/147/1 4/4/1
f 4/4/1 2/2/1 1/1/1
f 7/12/2 8/13/2 5/6/2
f 11/18/5 10/15/5 6/9/5
f 9/14/1 7/11/1 6/10/1
f 2/2/1 9/14/1 10/16/1
f 66/119/4 65/116/4 58/102/4
f 5/7/3 14/24/3 15/27/3
f 8/13/2 68/124/2 14/25/2
f 19/33/5 17/29/5 16/28/5
f 7/12/2 43/75/2 44/78/2
f 25/46/5 23/41/5 22/39/5
f 68/125/1 66/120/1 19/32/1
f 20/35/4 70/131/4 69/127/4
f 12/19/5 14/26/5 19/33/5
f 24/44/1 21/37/1 22/38/1
f 8/13/2 44/78/2 67/121/2
f 32/58/5 29/51/5 31/56/5
f 27/48/4 24/43/4 23/42/4
f 66/119/4 27/48/4 25/45/4
f 9/14/1 46/82/1 43/76/1
f 19/33/5 25/46/5 26/47/5
f 31/55/2 29/52/2 28/50/2
f 34/60/1 62/110/1 60/105/1
f 34/60/1 28/49/1 29/53/1
f 21/37/1 34/60/1 32/57/1
f 22/39/5 32/58/5 33/59/5
f 38/67/6 35/61/6 36/65/6
f 31/56/5 35/62/5 38/68/5
f 30/54/2 36/64/2 35/63/2
f 45/80/3 44/79/3 43/77/3
f 40/71/3 39/69/3 42/74/3
f 40/71/3 45/80/3 46/81/3
f 67/122/3 50/88/3 47/83/3
f 45/80/3 50/88/3 67/122/3
f 53/91/3 52/90/3 51/89/3
f 48/84/3 53/91/3 65/117/3
f 57/100/3 55/95/3 56/97/3
f 51/89/3 57/100/3 58/101/3
f 61/108/3 59/103/3 60/106/3
f 57/100/3 61/108/3 62/109/3
f 61/108/3 63/111/3 64/113/3
f 21/37/1 55/96/1 62/110/1
f 2/2/1 39/70/1 46/82/1
f 30/54/2 59/104/2 64/114/2
f 24/44/1 56/98/1 55/96/1
f 28/50/2 60/107/2 59/104/2
f 36/65/6 64/115/6 63/112/6
f 27/48/4 58/102/4 56/99/4
f 20/36/1 54/93/1 65/118/1
f 13/21/1 68/125/1 67/123/1
f 20/36/1 66/120/1 68/125/1
f 54/93/1 49/86/1 67/123/1
f 69/128/5 73/138/5 75/142/5
f 54/94/5 69/128/5 71/132/5
f 49/87/2 71/134/2 72/135/2
f 13/22/3 72/137/3 70/129/3
f 70/130/1 72/136/1 71/133/1
f 71/134/2 75/143/2 76/144/2
f 72/137/3 76/145/3 74/140/3
f 70/131/4 74/141/4 73/139/4
f 4/4/1 42/73/1 39/70/1
f 4/4/1 78/147/1 80/149/1
f 42/74/3 80/150/3 79/148/3
f 3/3/1 77/146/1 78/147/1
