# Blender 3.3.1
# www.blender.org
o east_wall_2_collider
v 3.284246 -0.019079 1.000000
v 3.284246 -0.019079 -1.000000
v -39.882015 -0.019079 -1.000000
v -16.372143 3.105715 1.000000
v -23.208344 3.105715 1.000000
v -17.722820 -0.019079 3.935402
v -22.211018 -0.019079 3.935402
v -37.081165 3.105716 1.000000
v -38.205959 -0.019079 4.499061
v -43.642189 -0.019079 3.204544
v -41.653534 -0.019079 4.499061
v -39.882015 -0.019079 3.204544
v -43.642189 -0.019079 9.006075
v -2.124794 13.690370 1.000000
v 3.284246 14.815166 1.000000
v -39.882015 14.815166 3.204544
v -39.882015 14.815165 -1.000000
v -16.372143 13.690370 1.000000
v -22.709681 14.627700 1.000000
v 3.284246 14.815166 -1.000000
v -17.722818 14.815165 3.935402
v -22.211016 14.815165 3.935402
v -43.642189 14.815166 3.204544
v -41.653534 14.815166 4.499061
v -43.642189 14.815165 9.006074
v -41.653534 14.815166 9.006075
v -38.205959 -0.019079 1.000000
v -2.124794 3.105716 1.000000
v -17.722820 -0.019079 1.000000
v -22.211018 -0.019079 1.000000
v -17.722818 14.815165 1.000000
v -37.081165 3.105716 0.193323
v -37.081165 13.690370 0.193323
v -2.124794 3.105715 0.193323
v -16.372143 3.105715 0.193323
v -23.208344 3.105715 0.193323
v -16.372143 13.690370 0.193323
v -2.124794 13.690370 0.193323
v -23.208344 13.690371 0.193323
v -35.342434 3.105716 -0.573826
v -35.342434 13.690370 -0.573826
v -2.124794 3.105715 -0.573826
v -16.943771 3.105715 -0.573826
v -22.636715 3.105715 -0.573826
v -16.943771 13.690370 -0.573826
v -2.124794 13.690370 -0.573826
v -22.636715 13.690371 -0.573826
v -62.508652 -0.019079 9.006074
v -62.508652 14.815165 9.006075
v -63.945377 -0.018949 6.702899
v -78.994888 -0.018949 6.702899
v -80.431618 -0.019079 8.484100
v -80.431625 14.815165 8.484100
v -62.508652 1.980921 6.773056
v -80.431618 1.980921 6.773056
v -65.480148 -0.008931 6.701038
v -77.458862 -0.018833 6.540159
v -71.470131 10.902218 6.279501
v -65.480186 -0.008966 6.279501
v -72.408440 9.924847 6.339937
v -76.464806 2.637777 6.380225
v -38.205959 14.815166 1.000000
v -38.205959 14.815166 4.499061
v -41.653534 -0.019079 9.006075
v -37.081169 13.690371 1.000000
v -62.508652 14.815165 6.773056
v -80.431625 14.815165 6.773056
v -65.482407 10.900194 6.533467
v -77.457298 10.899688 6.491118
v -66.418495 9.924847 6.355044
v -72.507187 6.318449 6.430587
v -66.517242 6.318448 6.430587
v -66.457558 2.655682 6.370153
v -72.447502 2.655682 6.355044
v -72.590736 9.781607 6.096089
v -72.590736 6.615538 6.096089
v -76.339470 6.615538 6.096089
v -76.339470 9.781607 6.096089
v -66.600800 6.615538 6.096089
v -66.600800 9.781607 6.096089
v -70.349518 6.615538 6.096089
v -70.349518 9.781607 6.096089
v -66.600800 2.781017 6.096089
v -66.600800 5.947085 6.096089
v -70.349518 2.781017 6.096089
v -70.349518 5.947086 6.096089
v -72.590736 5.947086 6.096089
v -72.590736 2.781017 6.096089
v -76.339470 2.781017 6.096089
v -76.339470 5.947086 6.096089
v -76.540001 9.906941 6.361912
v -76.423027 6.244176 6.430587
v -70.474854 2.637777 6.318915
v -70.550056 9.906941 6.344254
v -70.433075 6.244176 6.430587
v -71.149498 5.375451 6.563920
v -71.109917 6.117046 6.483649
v -70.604645 5.565011 6.391313
v -71.958603 5.348545 6.327470
v -71.921600 6.098536 6.344666
v -71.463806 5.786880 6.407618
v -72.590736 9.781607 5.899244
v -72.302063 5.646992 6.564755
v -72.590736 6.615538 5.899244
v -76.339470 6.615538 5.899244
v -76.339470 9.781607 5.899244
v -66.600800 6.615538 5.899244
v -66.600800 9.781607 5.899244
v -70.349518 6.615538 5.899244
v -70.349518 9.781607 5.899244
v -66.600800 2.781017 5.899244
v -66.600800 5.947085 5.899244
v -70.349518 2.781017 5.899244
v -70.349518 5.947086 5.899244
v -72.590736 5.947086 5.899244
v -72.590736 2.781017 5.899244
v -76.339470 2.781017 5.899244
v -76.339470 5.947086 5.899244
v -94.755959 -0.019079 8.484100
v -94.755959 14.815165 8.484100
vn -0.0000 -0.0000 1.0000
vn -0.0000 -1.0000 -0.0000
vn -0.0000 1.0000 -0.0000
vn -0.0349 0.9296 -0.3670
vn 0.0117 0.9699 0.2434
vn -0.0014 -0.0340 0.9994
vn -0.0062 -0.8568 0.5157
vn 0.0001 -1.0000 -0.0098
vn 0.0217 0.0261 0.9994
vn -0.0433 0.0250 0.9988
vn -1.0000 -0.0002 0.0001
vn 1.0000 -0.0000 -0.0000
vn -0.6009 -0.0042 0.7993
vn -0.7816 -0.0103 0.6237
vn 0.0127 -0.0242 0.9996
vn -0.1064 -0.0614 0.9924
vn -0.3132 0.1187 0.9422
vn -0.5405 0.0459 -0.8401
vn -0.1298 -0.4372 -0.8899
vn -1.0000 -0.0000 -0.0000
vn -0.9859 -0.0000 0.1675
vn 0.4037 -0.0000 0.9149
vn -0.8019 -0.0000 -0.5975
vn 0.8019 -0.0000 -0.5975
vn -0.0345 0.0153 0.9993
vn -0.0000 -0.0611 0.9981
vn 0.1053 0.0408 0.9936
vn -0.8862 -0.0000 0.4632
vn -0.0000 0.6693 0.7430
vn 0.0058 -0.1238 0.9923
vn -0.0008 1.0000 -0.0001
vn 0.0382 0.0251 0.9990
vn 0.1473 0.0044 0.9891
vn 0.0186 0.0343 0.9992
vn -0.0029 0.0623 0.9981
vn -0.1903 0.0031 0.9817
vn -0.0126 -0.0386 0.9992
vn -0.8177 -0.0000 0.5757
vn -0.8009 -0.0000 0.5988
vn 0.0944 -0.0000 0.9955
vn 0.6510 -0.0019 0.7591
vn -0.8750 -0.0000 0.4840
vn -0.0000 -0.8622 0.5065
vn -0.0000 0.8412 0.5407
vn -0.0000 -0.8751 0.4840
vn -0.0000 0.8930 0.4502
vn 0.7983 -0.0000 0.6022
vn -0.0000 -0.6693 0.7430
vn 0.7778 -0.0000 0.6285
vn 0.8716 -0.0000 0.4903
vn 0.9149 -0.0000 0.4036
vn 0.0463 0.0018 0.9989
vn 0.7234 -0.0025 0.6904
vn 0.5300 0.0025 0.8480
vn 0.1885 0.0083 0.9820
vn -0.2768 0.0761 0.9579
vn -0.1480 -0.0176 0.9888
vn 0.0184 0.0069 0.9998
vn 0.1145 0.3556 0.9276
vn 0.2348 -0.4249 0.8743
vn 0.2725 0.0892 0.9580
vn -0.0375 0.9976 -0.0573
vn -0.8690 0.0376 0.4935
vn -0.9994 -0.0340 -0.0000
vn 0.0434 -0.6648 0.7457
vn -0.7304 0.5088 0.4557
vn 0.6857 0.4732 0.5531
vn -0.0803 -0.0000 0.9968
vn -0.0035 -0.0745 0.9972
vn -0.9645 -0.0201 0.2632
vn -0.0141 0.7458 0.6660
vn 0.0353 0.0279 0.9990
vn 0.1437 0.0040 0.9896
vn 0.0060 0.0579 0.9983
vn -0.0420 -0.1406 0.9892
vn 0.0293 -0.0233 0.9993
vn -0.9626 0.0320 0.2689
vn -0.9623 0.0331 0.2698
vn 0.0811 0.0045 0.9967
vn -0.9642 -0.0212 0.2643
vn 0.0062 -0.9027 0.4303
vn -0.0094 0.9075 0.4199
vn 0.0027 -0.8917 0.4525
vn -0.0013 0.8998 0.4362
vn 0.9595 0.0359 0.2795
vn 0.0141 -0.7458 0.6660
vn 0.9590 0.0373 0.2809
vn 0.9659 -0.0192 0.2583
vn 0.9669 -0.0148 0.2547
vn -0.1356 -0.0160 0.9906
vt 0.375000 0.750000
vt 0.375000 0.500000
vt 0.125000 0.500000
vt 0.625000 1.000000
vt 0.625000 1.000000
vt 0.125000 0.750000
vt 0.375000 1.000000
vt 0.125000 0.750000
vt 0.375000 1.000000
vt 0.625000 1.000000
vt 0.125000 0.750000
vt 0.375000 1.000000
vt 0.125000 0.750000
vt 0.125000 0.750000
vt 0.375000 1.000000
vt 0.125000 0.750000
vt 0.375000 1.000000
vt 0.125000 0.750000
vt 0.625000 1.000000
vt 0.625000 0.750000
vt 0.875000 0.750000
vt 0.875000 0.500000
vt 0.625000 1.000000
vt 0.875000 0.750000
vt 0.625000 1.000000
vt 0.625000 0.500000
vt 0.875000 0.750000
vt 0.625000 1.000000
vt 0.875000 0.750000
vt 0.625000 1.000000
vt 0.875000 0.750000
vt 0.875000 0.750000
vt 0.625000 1.000000
vt 0.625000 1.000000
vt 0.875000 0.750000
vt 0.875000 0.750000
vt 0.625000 1.000000
vt 0.125000 0.750000
vt 0.375000 1.000000
vt 0.625000 1.000000
vt 0.375000 1.000000
vt 0.125000 0.750000
vt 0.125000 0.750000
vt 0.375000 1.000000
vt 0.875000 0.750000
vt 0.625000 1.000000
vt 0.625000 1.000000
vt 0.000000 0.000000
vt 0.625000 1.000000
vt 0.000000 0.000000
vt 0.000000 0.000000
vt 0.625000 1.000000
vt 0.000000 0.000000
vt 0.625000 1.000000
vt 0.000000 0.000000
vt 0.625000 1.000000
vt 0.000000 0.000000
vt 0.625000 1.000000
vt 0.000000 0.000000
vt 0.625000 1.000000
vt 0.000000 0.000000
vt 0.625000 1.000000
vt 0.625000 1.000000
vt 0.625000 1.000000
vt 0.625000 1.000000
vt 0.625000 1.000000
vt 0.625000 1.000000
vt 0.625000 1.000000
vt 0.625000 1.000000
vt 0.625000 1.000000
vt 0.375000 1.000000
vt 0.625000 1.000000
vt 0.375000 1.000000
vt 0.375000 1.000000
vt 0.375000 1.000000
vt 0.625000 1.000000
vt 0.625000 1.000000
vt 0.625000 1.000000
vt 0.603483 1.000000
vt 0.603484 1.000000
vt 0.625000 1.000000
vt 0.603482 1.000000
vt 0.625000 1.000000
vt 0.625000 1.000000
vt 0.875000 0.750000
vt 0.625000 1.000000
vt 0.875000 0.750000
vt 0.625000 1.000000
vt 0.125000 0.750000
vt 0.375000 1.000000
vt 0.625000 1.000000
vt 0.625000 1.000000
vt 0.625000 1.000000
vt 0.625000 1.000000
vt 0.625000 1.000000
vt 0.625000 1.000000
vt 0.625000 1.000000
vt 0.625000 1.000000
vt 0.625000 1.000000
vt 0.625000 1.000000
vt 0.000000 0.000000
vt 0.625000 1.000000
vt 0.000000 0.000000
vt 0.625000 1.000000
vt 0.000000 0.000000
vt 0.625000 1.000000
vt 0.000000 0.000000
vt 0.625000 1.000000
vt 0.000000 0.000000
vt 0.625000 1.000000
vt 0.000000 0.000000
vt 0.625000 1.000000
vt 0.000000 0.000000
vt 0.625000 1.000000
vt 0.000000 0.000000
vt 0.625000 1.000000
vt 0.000000 0.000000
vt 0.625000 1.000000
vt 0.000000 0.000000
vt 0.625000 1.000000
vt 0.000000 0.000000
vt 0.625000 1.000000
vt 0.000000 0.000000
vt 0.625000 1.000000
vt 0.000000 0.000000
vt 0.625000 1.000000
vt 0.000000 0.000000
vt 0.625000 1.000000
vt 0.000000 0.000000
vt 0.625000 1.000000
vt 0.625000 1.000000
vt 0.000000 0.000000
vt 0.625000 1.000000
vt 0.625000 1.000000
vt 0.625000 1.000000
vt 0.625000 1.000000
vt 0.625000 1.000000
vt 0.625000 1.000000
vt 0.625000 1.000000
vt 0.625000 1.000000
vt 0.625000 1.000000
vt 0.625000 1.000000
vt 0.625000 1.000000
vt 0.625000 1.000000
vt 0.625000 1.000000
vt 0.625000 1.000000
vt 0.625000 1.000000
vt 0.625000 1.000000
vt 0.625000 1.000000
vt 0.625000 1.000000
vt 0.625000 1.000000
vt 0.625000 1.000000
vt 0.625000 1.000000
vt 0.625000 1.000000
vt 0.625000 1.000000
vt 0.625000 1.000000
vt 0.625000 1.000000
vt 0.625000 1.000000
vt 0.625000 1.000000
vt 0.625000 1.000000
vt 0.375000 1.000000
vt 0.625000 1.000000
s 0
f 28/40/1 29/41/1 1/1/1
f 11/14/2 10/13/2 12/16/2
f 1/1/1 15/20/1 28/40/1
f 16/21/3 63/87/3 62/85/3
f 62/85/3 17/22/3 16/21/3
f 20/26/3 31/45/3 15/20/3
f 31/45/4 20/26/4 19/24/4
f 19/24/5 20/26/5 62/85/5
f 16/21/3 23/31/3 24/32/3
f 16/21/3 24/32/3 63/87/3
f 26/37/1 25/34/1 64/90/1
f 14/19/1 28/40/1 15/20/1
f 65/91/1 19/25/1 62/86/1
f 25/34/1 49/72/1 64/90/1
f 53/76/1 119/161/1 52/75/1
f 56/79/6 50/73/6 54/77/6
f 56/79/7 57/80/7 50/73/7
f 69/95/8 58/81/8 68/94/8
f 93/135/9 57/80/9 59/82/9
f 101/143/10 94/136/10 58/81/10
f 68/94/11 59/82/11 56/79/11
f 67/93/12 53/76/12 55/78/12
f 64/90/1 49/72/1 13/17/1
f 61/84/13 92/134/13 91/133/13
f 93/135/14 95/137/14 94/136/14
f 93/135/15 98/140/15 101/143/15
f 101/143/16 99/141/16 93/135/16
f 101/143/17 96/138/17 97/139/17
f 99/141/18 103/145/18 100/142/18
f 98/140/19 96/138/19 101/143/19
f 27/38/2 12/16/2 3/3/2
f 30/43/2 6/6/2 7/8/2
f 29/42/2 30/43/2 3/3/2
f 6/7/12 31/46/12 21/28/12
f 30/43/2 27/38/2 3/3/2
f 12/16/2 27/38/2 9/11/2
f 13/18/2 11/14/2 64/89/2
f 9/11/2 11/14/2 12/16/2
f 31/45/3 22/29/3 21/27/3
f 62/85/3 20/26/3 17/22/3
f 24/32/3 25/35/3 26/36/3
f 14/19/2 37/58/2 38/60/2
f 1/1/12 20/26/12 15/20/12
f 5/5/20 39/62/20 36/56/20
f 22/30/1 6/7/1 21/28/1
f 19/25/21 7/9/21 22/30/21
f 30/44/1 8/10/1 27/39/1
f 4/4/1 29/41/1 28/40/1
f 4/4/1 31/46/1 29/41/1
f 31/46/1 14/19/1 15/20/1
f 33/49/22 40/63/22 41/64/22
f 29/42/2 2/2/2 1/1/2
f 5/5/1 30/44/1 19/25/1
f 40/63/3 36/56/3 44/67/3
f 18/23/12 35/54/12 37/58/12
f 4/4/3 34/52/3 35/54/3
f 39/62/2 65/91/2 33/49/2
f 28/40/20 38/60/20 34/52/20
f 8/10/3 36/56/3 32/47/3
f 33/49/12 8/10/12 32/47/12
f 38/59/1 35/53/1 34/51/1
f 33/50/1 36/55/1 39/61/1
f 36/56/23 47/70/23 44/67/23
f 46/69/2 37/58/2 45/68/2
f 37/58/24 43/66/24 45/68/24
f 42/65/3 35/54/3 34/52/3
f 41/64/2 39/62/2 33/49/2
f 34/52/20 46/69/20 42/65/20
f 54/77/20 48/71/20 49/72/20
f 13/17/1 49/72/1 48/71/1
f 52/75/12 55/78/12 53/76/12
f 54/77/25 68/94/25 56/79/25
f 67/93/26 68/94/26 66/92/26
f 57/80/27 55/78/27 51/74/27
f 73/99/28 84/120/28 83/118/28
f 92/134/29 76/104/29 77/106/29
f 60/83/30 69/95/30 91/133/30
f 56/79/31 59/82/31 57/80/31
f 101/143/32 58/81/32 60/83/32
f 61/84/33 69/95/33 57/80/33
f 74/100/34 57/80/34 93/135/34
f 70/96/35 58/81/35 94/136/35
f 73/99/36 68/94/36 70/96/36
f 93/135/37 59/82/37 73/99/37
f 79/110/38 70/96/38 80/112/38
f 76/104/39 60/83/39 75/102/39
f 55/78/40 69/95/40 67/93/40
f 62/86/1 8/10/1 65/91/1
f 49/72/20 66/92/20 54/77/20
f 9/12/12 62/86/12 63/88/12
f 11/15/1 63/88/1 24/33/1
f 64/90/12 24/33/12 26/37/12
f 90/131/12 117/159/12 118/160/12
f 70/96/41 72/98/41 73/99/41
f 76/104/20 102/144/20 104/146/20
f 82/116/12 109/151/12 110/152/12
f 87/126/2 118/160/2 115/157/2
f 95/137/29 79/110/29 81/114/29
f 74/100/42 87/126/42 88/128/42
f 60/83/43 78/108/43 75/102/43
f 93/135/44 83/118/44 85/122/44
f 70/96/45 82/116/45 80/112/45
f 61/84/46 88/128/46 89/130/46
f 91/133/47 77/106/47 78/108/47
f 72/98/48 86/124/48 84/120/48
f 94/136/49 81/114/49 82/116/49
f 71/97/48 90/131/48 87/126/48
f 86/124/50 93/135/50 85/122/50
f 90/131/51 61/84/51 89/130/51
f 99/141/52 60/83/52 74/100/52
f 60/83/53 71/97/53 74/100/53
f 98/140/54 93/135/54 94/136/54
f 94/136/55 97/139/55 98/140/55
f 97/139/56 94/136/56 101/143/56
f 101/143/57 60/83/57 100/142/57
f 85/121/1 84/119/1 86/123/1
f 74/100/58 93/135/58 99/141/58
f 100/142/59 103/145/59 101/143/59
f 99/141/60 101/143/60 103/145/60
f 96/138/61 98/140/61 97/139/61
f 81/113/1 80/111/1 82/115/1
f 90/132/1 88/127/1 87/125/1
f 78/107/1 76/103/1 75/101/1
f 83/118/20 112/154/20 111/153/20
f 77/106/3 104/146/3 105/147/3
f 85/122/3 111/153/3 113/155/3
f 75/102/2 106/148/2 102/144/2
f 84/120/2 114/156/2 112/154/2
f 78/108/12 105/147/12 106/148/12
f 86/124/12 113/155/12 114/156/12
f 79/110/20 108/150/20 107/149/20
f 88/128/20 115/157/20 116/158/20
f 81/114/3 107/149/3 109/151/3
f 89/130/3 116/158/3 117/159/3
f 80/112/2 110/152/2 108/150/2
f 53/76/1 120/162/1 119/161/1
f 30/43/2 29/42/2 6/6/2
f 6/7/12 29/41/12 31/46/12
f 13/18/2 10/13/2 11/14/2
f 31/45/62 19/24/62 22/29/62
f 24/32/3 23/31/3 25/35/3
f 14/19/2 18/23/2 37/58/2
f 1/1/12 2/2/12 20/26/12
f 5/5/63 19/25/63 39/62/63
f 22/30/1 7/9/1 6/7/1
f 19/25/64 30/44/64 7/9/64
f 30/44/1 5/5/1 8/10/1
f 4/4/1 18/23/1 31/46/1
f 31/46/1 18/23/1 14/19/1
f 33/49/22 32/47/22 40/63/22
f 29/42/2 3/3/2 2/2/2
f 40/63/3 32/47/3 36/56/3
f 18/23/12 4/4/12 35/54/12
f 4/4/3 28/40/3 34/52/3
f 39/62/65 19/25/65 65/91/65
f 28/40/20 14/19/20 38/60/20
f 8/10/3 5/5/3 36/56/3
f 33/49/12 65/91/12 8/10/12
f 38/59/1 37/57/1 35/53/1
f 33/50/1 32/48/1 36/55/1
f 36/56/23 39/62/23 47/70/23
f 46/69/2 38/60/2 37/58/2
f 37/58/24 35/54/24 43/66/24
f 42/65/3 43/66/3 35/54/3
f 41/64/2 47/70/2 39/62/2
f 34/52/20 38/60/20 46/69/20
f 54/77/66 50/73/66 48/71/66
f 52/75/67 51/74/67 55/78/67
f 54/77/68 66/92/68 68/94/68
f 67/93/69 69/95/69 68/94/69
f 73/99/70 72/98/70 84/120/70
f 92/134/71 71/97/71 76/104/71
f 60/83/72 58/81/72 69/95/72
f 61/84/73 91/133/73 69/95/73
f 74/100/74 61/84/74 57/80/74
f 70/96/75 68/94/75 58/81/75
f 73/99/76 59/82/76 68/94/76
f 79/110/77 72/98/77 70/96/77
f 76/104/78 71/97/78 60/83/78
f 55/78/79 57/80/79 69/95/79
f 62/86/1 27/39/1 8/10/1
f 9/12/12 27/39/12 62/86/12
f 11/15/1 9/12/1 63/88/1
f 64/90/12 11/15/12 24/33/12
f 90/131/12 89/130/12 117/159/12
f 76/104/20 75/102/20 102/144/20
f 82/116/12 81/114/12 109/151/12
f 87/126/2 90/131/2 118/160/2
f 95/137/71 72/98/71 79/110/71
f 74/100/80 71/97/80 87/126/80
f 60/83/81 91/133/81 78/108/81
f 93/135/82 73/99/82 83/118/82
f 70/96/83 94/136/83 82/116/83
f 61/84/84 74/100/84 88/128/84
f 91/133/85 92/134/85 77/106/85
f 72/98/86 95/137/86 86/124/86
f 94/136/87 95/137/87 81/114/87
f 71/97/86 92/134/86 90/131/86
f 86/124/88 95/137/88 93/135/88
f 90/131/89 92/134/89 61/84/89
f 99/141/90 100/142/90 60/83/90
f 85/121/1 83/117/1 84/119/1
f 81/113/1 79/109/1 80/111/1
f 90/132/1 89/129/1 88/127/1
f 78/107/1 77/105/1 76/103/1
f 83/118/20 84/120/20 112/154/20
f 77/106/3 76/104/3 104/146/3
f 85/122/3 83/118/3 111/153/3
f 75/102/2 78/108/2 106/148/2
f 84/120/2 86/124/2 114/156/2
f 78/108/12 77/106/12 105/147/12
f 86/124/12 85/122/12 113/155/12
f 79/110/20 80/112/20 108/150/20
f 88/128/20 87/126/20 115/157/20
f 81/114/3 79/110/3 107/149/3
f 89/130/3 88/128/3 116/158/3
f 80/112/2 82/116/2 110/152/2
