# Blender 3.3.1
# www.blender.org
o east_wall_2
v -1.000000 -0.019079 1.000000
v -2.124794 3.105715 1.000000
v -1.000000 -0.019079 -1.000000
v 3.284246 -0.019079 1.000000
v 3.284246 1.980921 1.000000
v 3.284246 -0.019079 -1.000000
v 3.284246 1.980921 -1.000000
v -39.882015 -0.019079 -1.000000
v -39.882015 -0.019079 3.204544
v -18.068565 -0.019079 -1.000000
v -16.372143 3.105715 1.000000
v -17.722818 -0.019079 1.000000
v -21.511921 -0.019079 -1.000000
v -23.208344 3.105715 1.000000
v -22.211016 -0.019079 1.000000
v -22.211016 -0.019079 3.935402
v -17.722818 -0.019079 3.935402
v -17.722818 1.980921 3.935402
v -22.211016 1.980921 3.935402
v -38.205959 -0.019079 -1.000000
v -37.081165 3.105716 1.000000
v -38.205959 -0.019079 1.000000
v -39.882015 -0.019079 4.499061
v -39.882015 1.980921 4.499061
v -38.205959 1.980921 4.499061
v -38.205959 -0.019079 4.499061
v -43.642189 -0.019079 3.204544
v -43.642189 -0.019079 4.499061
v -41.653534 1.980921 4.499061
v -41.653534 -0.019079 4.499061
v -41.653534 -0.019079 3.204544
v -43.642189 -0.019079 9.006074
v -43.642189 1.980921 9.006074
v -41.653534 1.980921 9.006074
v -41.653534 -0.019079 9.006074
v -2.124794 13.690370 1.000000
v -1.000000 14.815165 -1.000000
v 3.284246 14.815165 -1.000000
v 3.284246 14.815165 1.000000
v -39.882015 14.815165 3.204544
v -39.882015 14.815165 -1.000000
v -18.068565 14.815165 -1.000000
v -37.081165 13.690370 1.000000
v -21.511921 14.815165 -1.000000
v -16.372143 13.690370 1.000000
v -23.208344 13.690371 1.000000
v -38.205959 14.815165 -1.000000
v -17.722818 14.815165 3.935402
v -22.211016 14.815165 3.935402
v -38.205959 14.815165 4.499061
v -39.882015 14.815165 4.499061
v -43.642189 14.815165 3.204544
v -43.642189 14.815165 4.499061
v -41.653534 14.815165 3.204544
v -41.653534 14.815165 4.499061
v -43.642189 14.815165 9.006074
v -41.653534 14.815165 9.006074
v -38.205959 1.980921 1.000000
v -38.205959 14.815165 1.000000
v -1.000000 1.980921 1.000000
v -17.722818 1.980921 1.000000
v -22.211016 1.980921 1.000000
v -17.722818 14.815165 1.000000
v -1.000000 14.815165 1.000000
v -22.211016 14.815165 1.000000
v -37.081165 3.105716 0.193323
v -37.081165 13.690370 0.193323
v -2.124794 3.105715 0.193323
v -16.372143 3.105715 0.193323
v -23.208344 3.105715 0.193323
v -16.372143 13.690370 0.193323
v -2.124794 13.690370 0.193323
v -23.208344 13.690371 0.193323
v -37.081165 3.105716 -0.573826
v -37.081165 13.690370 -0.573826
v -2.124794 3.105715 -0.573826
v -16.369884 3.105715 -0.573826
v -23.218693 3.105715 -0.573826
v -16.369884 13.690370 -0.573826
v -2.124794 13.690370 -0.573826
v -23.218693 13.690371 -0.573826
v -62.508652 -0.019079 9.006074
v -62.508652 1.980921 9.006074
v -62.508652 14.815165 9.006074
v -62.526737 -0.018949 6.702899
v -65.480186 1.660406 6.702899
v -62.508652 14.815165 6.773056
v -80.413528 -0.018949 6.702899
v -77.460075 1.660406 6.702899
v -80.431618 14.815165 6.773056
v -80.431618 -0.019079 8.484100
v -80.431618 1.980921 8.484100
v -80.431618 14.815165 8.484100
v -90.871262 -0.019079 8.484100
v -90.871262 1.980921 8.484100
v -90.871262 14.815165 8.484100
v -62.508652 1.980921 6.773056
v -65.480186 -0.008966 6.702899
v -80.431618 1.980921 6.773056
v -65.480186 10.902218 6.702899
v -77.460075 -0.008966 6.702899
v -77.460075 10.902218 6.702899
v -71.470131 10.902218 6.702899
v -71.470131 -0.008966 6.702899
v -71.470131 14.815165 6.773056
v -71.470131 -0.018949 6.702899
v -71.470131 1.660406 6.279501
v -65.480186 1.660406 6.279501
v -71.470131 10.902218 6.279501
v -77.460075 10.902218 6.279501
v -71.470131 -0.008966 6.279501
v -65.480186 -0.008966 6.279501
v -65.480186 10.902218 6.279501
v -77.460075 -0.008966 6.279501
v -77.460075 1.660406 6.279501
v -72.256516 2.446790 6.279501
v -72.256516 10.115833 6.279501
v -76.673691 10.115833 6.279501
v -76.673691 2.446791 6.279501
v -66.266571 2.446790 6.279501
v -66.266571 10.115833 6.279501
v -70.683746 10.115833 6.279501
v -70.683746 2.446791 6.279501
v -38.205959 8.398043 1.000000
v -38.205959 8.398043 4.499061
v -39.882015 8.398043 4.499061
v -41.653534 8.398043 4.499061
v -43.642189 8.398043 9.006074
v -41.653534 8.398043 9.006074
v -37.081165 8.398043 1.000000
v -62.508652 8.398043 9.006074
v -62.508652 8.398043 6.773056
v -80.431618 8.398043 6.773056
v -80.431618 8.398043 8.484100
v -90.871262 8.398043 8.484100
v -65.480186 6.281312 6.702899
v -77.460075 6.281312 6.702899
v -65.480186 6.281312 6.279501
v -77.460075 6.281312 6.279501
v -71.470131 6.281312 6.279501
v -72.256516 6.281312 6.279501
v -76.673691 6.281312 6.279501
v -66.266571 6.281312 6.279501
v -70.683746 6.281312 6.279501
v -72.590736 6.615538 6.279501
v -72.590736 9.781607 6.279501
v -76.339470 9.781607 6.279501
v -76.339470 6.615538 6.279501
v -66.600800 6.615538 6.279501
v -66.600800 9.781607 6.279501
v -70.349518 9.781607 6.279501
v -70.349518 6.615538 6.279501
v -66.600800 2.781017 6.279501
v -66.600800 5.947085 6.279501
v -70.349518 5.947086 6.279501
v -70.349518 2.781017 6.279501
v -72.590736 2.781017 6.279501
v -72.590736 5.947086 6.279501
v -76.339470 5.947086 6.279501
v -76.339470 2.781017 6.279501
v -72.590736 9.781607 6.096089
v -72.590736 6.615538 6.096089
v -76.339470 6.615538 6.096089
v -76.339470 9.781607 6.096089
v -66.600800 6.615538 6.096089
v -66.600800 9.781607 6.096089
v -70.349518 6.615538 6.096089
v -70.349518 9.781607 6.096089
v -66.600800 2.781017 6.096089
v -66.600800 5.947085 6.096089
v -70.349518 2.781017 6.096089
v -70.349518 5.947086 6.096089
v -72.590736 5.947086 6.096089
v -72.590736 2.781017 6.096089
v -76.339470 2.781017 6.096089
v -76.339470 5.947086 6.096089
v -72.256516 6.281312 6.430587
v -72.256516 2.446790 6.430587
v -76.673691 2.446791 6.430587
v -72.256516 10.115833 6.430587
v -76.673691 10.115833 6.430587
v -76.673691 6.281312 6.430587
v -66.266571 6.281312 6.430587
v -66.266571 10.115833 6.430587
v -70.683746 2.446791 6.430587
v -66.266571 2.446790 6.430587
v -70.683746 10.115833 6.430587
v -70.683746 6.281312 6.430587
v -72.590736 9.781607 6.430587
v -72.590736 6.615538 6.430587
v -76.339470 6.615538 6.430587
v -76.339470 9.781607 6.430587
v -66.600800 6.615538 6.430587
v -66.600800 9.781607 6.430587
v -70.349518 6.615538 6.430587
v -70.349518 9.781607 6.430587
v -66.600800 2.781017 6.430587
v -66.600800 5.947085 6.430587
v -70.349518 2.781017 6.430587
v -70.349518 5.947086 6.430587
v -72.590736 5.947086 6.430587
v -72.590736 2.781017 6.430587
v -76.339470 2.781017 6.430587
v -76.339470 5.947086 6.430587
v -71.274544 5.773676 6.279500
v -71.063179 5.452143 6.279500
v -70.741638 5.663525 6.279500
v -70.953018 5.985058 6.279500
v -71.877083 5.452143 6.279500
v -71.665710 5.773676 6.279500
v -71.987244 5.985058 6.279500
v -72.198624 5.663525 6.279500
v -71.235458 5.569131 6.279500
v -71.157570 5.945959 6.279500
v -70.858627 5.491242 6.279500
v -70.780739 5.868070 6.279500
v -71.704803 5.569131 6.279500
v -72.081627 5.491242 6.279500
v -71.782692 5.945959 6.279500
v -72.159515 5.868070 6.279500
v -71.885193 5.491409 6.585649
v -71.738304 5.591158 6.585649
v -71.339806 5.500528 6.450871
v -71.088463 5.329845 6.450871
v -71.226173 6.050312 6.450871
v -70.927734 6.107357 6.450871
v -70.790024 5.386890 6.450871
v -70.619339 5.638246 6.450871
v -70.676392 5.936673 6.450871
v -71.604836 5.503409 6.457821
v -71.852859 5.334982 6.457821
v -72.147354 5.391273 6.457821
v -71.716965 6.045928 6.457821
v -72.011459 6.102220 6.457821
v -72.259483 5.933792 6.457821
v -72.315781 5.639308 6.457821
v -71.396843 5.798955 6.450871
v -71.548553 5.797894 6.457821
v -72.590736 9.781607 5.899244
v -72.059608 5.524747 6.585649
v -71.804718 5.912455 6.585649
v -71.979134 5.945792 6.585649
v -72.126015 5.846044 6.585649
v -72.159355 5.671641 6.585649
v -71.704979 5.765561 6.585649
v -71.932159 5.718600 6.585649
v -71.214973 5.582592 6.596908
v -71.058212 5.476140 6.596908
v -71.144112 5.925483 6.596908
v -70.957985 5.961061 6.596908
v -70.872086 5.511718 6.596908
v -70.765633 5.668485 6.596908
v -70.801224 5.854609 6.596908
v -71.250549 5.768716 6.596908
v -71.008102 5.718600 6.590319
v -72.590736 6.615538 5.899244
v -76.339470 6.615538 5.899244
v -76.339470 9.781607 5.899244
v -66.600800 6.615538 5.899244
v -66.600800 9.781607 5.899244
v -70.349518 6.615538 5.899244
v -70.349518 9.781607 5.899244
v -66.600800 2.781017 5.899244
v -66.600800 5.947085 5.899244
v -70.349518 2.781017 5.899244
v -70.349518 5.947086 5.899244
v -72.590736 5.947086 5.899244
v -72.590736 2.781017 5.899244
v -76.339470 2.781017 5.899244
v -76.339470 5.947086 5.899244
v -94.755959 -0.019079 8.484100
v -94.755959 1.980921 8.484100
v -94.755959 14.815165 8.484100
v -94.755959 8.398043 8.484100
vn 1.0000 -0.0000 -0.0000
vn -0.0000 -0.0000 1.0000
vn -0.0000 -1.0000 -0.0000
vn -1.0000 -0.0000 -0.0000
vn -0.0000 1.0000 -0.0000
vn -0.9999 -0.0000 0.0135
vn 1.0000 -0.0000 0.0029
vn -0.9999 0.0088 0.0078
vn 0.9999 0.0087 0.0102
vn -0.0198 -0.0349 0.9992
vn -0.0236 -0.0000 0.9997
vn 0.0236 -0.0000 0.9997
vn -0.0000 -0.0179 0.9998
vn -0.0000 -0.0001 1.0000
vn 0.1596 0.8348 -0.5268
vn -0.6863 0.4660 -0.5585
vn 0.6863 -0.4660 -0.5585
vn -0.1596 -0.8348 -0.5269
vn -0.8148 -0.1557 -0.5584
vn -0.1557 0.8148 -0.5585
vn -0.4775 0.7032 -0.5268
vn 0.4775 -0.7032 -0.5268
vn 0.6013 -0.4083 0.6869
vn 0.1229 0.6431 0.7559
vn 0.6431 -0.1229 0.7559
vn 0.5417 0.3678 0.7559
vn -0.1229 -0.6431 0.7559
vn -0.7138 -0.1364 0.6869
vn 0.1365 -0.7139 0.6869
vn -0.1364 0.7138 0.6869
vn 0.8148 0.1558 -0.5585
vn 0.1557 -0.8148 -0.5585
vn -0.8349 0.1596 -0.5268
vn 0.4660 0.6862 -0.5585
vn 0.8348 -0.1596 -0.5269
vn -0.7032 -0.4775 -0.5268
vn 0.7032 0.4775 -0.5268
vn -0.4660 -0.6863 -0.5584
vn -0.3678 0.5417 0.7558
vn 0.3678 -0.5417 0.7558
vn -0.5417 -0.3678 0.7559
vn -0.6431 0.1230 0.7558
vn -0.0283 -0.0054 0.9996
vn 0.0054 -0.0283 0.9996
vn 0.0238 -0.0162 0.9996
vn 0.0162 0.0238 0.9996
vn 0.4083 0.6012 0.6869
vn -0.4083 -0.6012 0.6869
vn -0.6013 0.4083 0.6869
vn 0.7139 0.1365 0.6868
vn 0.0198 -0.0349 0.9992
vn 0.1596 0.8349 -0.5268
vn 0.6862 -0.4660 -0.5585
vn -0.1596 -0.8349 -0.5268
vn -0.8148 -0.1557 -0.5585
vn -0.4775 0.7031 -0.5269
vn 0.6431 -0.1229 0.7558
vn 0.5416 0.3678 0.7559
vn -0.7139 -0.1364 0.6869
vn -0.1365 0.7139 0.6869
vn 0.8349 -0.1596 -0.5268
vn -0.7031 -0.4775 -0.5269
vn -0.4660 -0.6862 -0.5585
vn -0.3678 0.5416 0.7559
vn 0.3678 -0.5416 0.7559
vn -0.5417 -0.3678 0.7558
vn -0.6430 0.1229 0.7559
vn -0.0238 0.0162 0.9996
vn -0.0162 -0.0238 0.9996
vn 0.0283 0.0054 0.9996
vn -0.0054 0.0283 0.9996
vn 0.4083 0.6013 0.6869
vn -0.6013 0.4082 0.6869
vn 0.7138 0.1365 0.6869
vt 0.320024 0.070295
vt 0.130817 0.074116
vt 0.948482 0.154966
vt 0.362009 0.085407
vt 0.923018 0.211840
vt 0.104362 0.069403
vt 0.320024 0.012733
vt 0.265231 0.682503
vt 0.140914 0.017445
vt 0.265231 0.709177
vt 0.346896 0.012733
vt 0.287097 0.684392
vt 0.114459 0.012732
vt 0.287097 0.711066
vt 0.012732 0.583720
vt 0.068348 0.593628
vt 0.064138 0.295179
vt 0.923018 0.020412
vt 0.362009 0.276832
vt 0.202089 0.952941
vt 0.876409 0.015505
vt 0.320024 0.294980
vt 0.091408 0.295319
vt 0.056024 0.340727
vt 0.848491 0.886414
vt 0.586784 0.292406
vt 0.905950 0.746595
vt 0.544800 0.279007
vt 0.880487 0.718688
vt 0.080832 0.354688
vt 0.762722 0.519376
vt 0.119659 0.361605
vt 0.848490 0.718725
vt 0.823025 0.519376
vt 0.130237 0.302237
vt 0.844315 0.012732
vt 0.844315 0.039407
vt 0.823025 0.546248
vt 0.762722 0.546248
vt 0.848490 0.691854
vt 0.016682 0.561550
vt 0.905950 0.932989
vt 0.227554 0.811008
vt 0.586784 0.478798
vt 0.879616 0.282311
vt 0.544800 0.493912
vt 0.043138 0.566263
vt 0.793377 0.279006
vt 0.085471 0.596679
vt 0.793377 0.305878
vt 0.841360 0.305681
vt 0.815895 0.305878
vt 0.815895 0.279006
vt 0.089421 0.574509
vt 0.841360 0.279006
vt 0.059487 0.643367
vt 0.076611 0.646417
vt 0.769577 0.305878
vt 0.818851 0.043664
vt 0.818851 0.016989
vt 0.769577 0.279006
vt 0.081297 0.620112
vt 0.064174 0.617061
vt 0.320024 0.347164
vt 0.136228 0.657039
vt 0.346896 0.347164
vt 0.769575 0.039407
vt 0.346896 0.320446
vt 0.320024 0.320446
vt 0.769575 0.012732
vt 0.140914 0.630733
vt 0.905081 0.478113
vt 0.504223 0.085407
vt 0.948482 0.012752
vt 0.258009 0.600368
vt 0.268106 0.657040
vt 0.287097 0.882241
vt 0.519336 0.012732
vt 0.294560 0.652325
vt 0.265231 0.880351
vt 0.221994 0.076141
vt 0.166378 0.086052
vt 0.217785 0.374592
vt 0.728999 0.478798
vt 0.927096 0.713449
vt 0.227554 0.952178
vt 0.209670 0.329044
vt 0.202089 0.811769
vt 0.905081 0.286686
vt 0.504223 0.276831
vt 0.927096 0.527056
vt 0.848491 0.744199
vt 0.728999 0.292406
vt 0.170328 0.108219
vt 0.844315 0.210581
vt 0.283883 0.367535
vt 0.823025 0.718688
vt 0.273306 0.308167
vt 0.762722 0.718688
vt 0.848490 0.519413
vt 0.841360 0.476855
vt 0.243068 0.095261
vt 0.815895 0.478318
vt 0.239118 0.073093
vt 0.793377 0.478318
vt 0.213134 0.026405
vt 0.230257 0.023354
vt 0.217820 0.052708
vt 0.818851 0.214838
vt 0.769577 0.478318
vt 0.234943 0.049660
vt 0.289874 0.012733
vt 0.519336 0.347164
vt 0.769575 0.210581
vt 0.294560 0.039036
vt 0.519336 0.320446
vt 0.571672 0.493912
vt 0.879616 0.308986
vt 0.879616 0.480160
vt 0.196784 0.103508
vt 0.744112 0.493910
vt 0.346896 0.070295
vt 0.876409 0.042179
vt 0.346896 0.294980
vt 0.880487 0.691816
vt 0.571672 0.279007
vt 0.876409 0.213353
vt 0.245054 0.374451
vt 0.519336 0.294979
vt 0.284464 0.595654
vt 0.519336 0.070294
vt 0.234478 0.315083
vt 0.880487 0.519377
vt 0.744112 0.279005
vt 0.012740 0.868896
vt 0.916788 0.932989
vt 0.236374 0.811770
vt 0.236374 0.952940
vt 0.154955 0.868896
vt 0.916257 0.713449
vt 0.957275 0.154956
vt 0.462238 0.817539
vt 0.912180 0.211840
vt 0.912180 0.020412
vt 0.462238 0.626114
vt 0.193270 0.952179
vt 0.857284 0.886403
vt 0.916788 0.746595
vt 0.012740 0.682505
vt 0.193270 0.811008
vt 0.320024 0.626114
vt 0.915919 0.286686
vt 0.320024 0.817539
vt 0.915919 0.478113
vt 0.957275 0.012742
vt 0.916257 0.527056
vt 0.154955 0.682503
vt 0.857284 0.744189
vt 0.927096 0.909628
vt 0.012732 0.845491
vt 0.154947 0.845490
vt 0.905950 0.690088
vt 0.901872 0.211840
vt 0.965637 0.154946
vt 0.180419 0.952210
vt 0.901872 0.012732
vt 0.927096 0.738914
vt 0.870135 0.886404
vt 0.926227 0.279005
vt 0.180419 0.811039
vt 0.926227 0.478113
vt 0.965637 0.012733
vt 0.870135 0.744189
vt 0.905950 0.519375
vt 0.320024 0.600651
vt 0.512665 0.626114
vt 0.512634 0.652985
vt 0.346896 0.600651
vt 0.519336 0.600651
vt 0.512436 0.825425
vt 0.487705 0.626116
vt 0.544800 0.012970
vt 0.567364 0.052654
vt 0.952560 0.829978
vt 0.488094 0.825425
vt 0.744111 0.012733
vt 0.821014 0.745799
vt 0.544800 0.253296
vt 0.567364 0.213612
vt 0.982639 0.728065
vt 0.821014 0.943558
vt 0.744111 0.253540
vt 0.737259 0.519376
vt 0.801678 0.744153
vt 0.737259 0.546248
vt 0.801762 0.770827
vt 0.802303 0.942000
vt 0.737259 0.718688
vt 0.596992 0.519376
vt 0.596992 0.546248
vt 0.596992 0.718688
vt 0.571671 0.012733
vt 0.488297 0.652985
vt 0.952560 0.852407
vt 0.544934 0.052654
vt 0.951691 0.279007
vt 0.820473 0.772384
vt 0.571671 0.253544
vt 0.952559 0.680336
vt 0.952560 0.705806
vt 0.691536 0.052654
vt 0.951691 0.439964
vt 0.982639 0.705801
vt 0.544934 0.213612
vt 0.982639 0.851326
vt 0.691536 0.213612
vt 0.952559 0.519379
vt 0.952559 0.599861
vt 0.691536 0.133133
vt 0.544934 0.133133
vt 0.951691 0.359489
vt 0.744111 0.133137
vt 0.544800 0.133133
vt 0.567229 0.824627
vt 0.567229 0.744152
vt 0.957172 0.829972
vt 0.958248 0.599861
vt 0.691402 0.824627
vt 0.958248 0.519379
vt 0.691402 0.905109
vt 0.987267 0.851727
vt 0.544800 0.824635
vt 0.957379 0.359489
vt 0.544800 0.744152
vt 0.957379 0.279007
vt 0.957172 0.852403
vt 0.958248 0.680336
vt 0.957172 0.705801
vt 0.691402 0.744152
vt 0.987267 0.706201
vt 0.544800 0.905109
vt 0.957379 0.439964
vt 0.987267 0.728465
vt 0.567229 0.905109
vt 0.985367 0.519518
vt 0.404536 0.978188
vt 0.577795 0.835194
vt 0.349548 0.918839
vt 0.680836 0.835194
vt 0.985367 0.621803
vt 0.954205 0.877872
vt 0.680836 0.894543
vt 0.349548 0.978188
vt 0.404536 0.918839
vt 0.577795 0.894543
vt 0.954205 0.980912
vt 0.984497 0.279149
vt 0.577795 0.754719
vt 0.322054 0.978188
vt 0.377042 0.918839
vt 0.680836 0.754719
vt 0.984497 0.381433
vt 0.981316 0.877872
vt 0.680836 0.814068
vt 0.377042 0.978188
vt 0.322054 0.918839
vt 0.981316 0.980912
vt 0.577795 0.814068
vt 0.657892 0.493910
vt 0.879616 0.394573
vt 0.815895 0.392098
vt 0.841360 0.391268
vt 0.793377 0.392098
vt 0.769577 0.392098
vt 0.818851 0.129251
vt 0.433116 0.347164
vt 0.433116 0.320446
vt 0.769575 0.124994
vt 0.227554 0.881593
vt 0.657892 0.478798
vt 0.512535 0.739205
vt 0.433116 0.600651
vt 0.657891 0.012733
vt 0.488194 0.739205
vt 0.657891 0.253540
vt 0.820744 0.857970
vt 0.737259 0.632468
vt 0.802032 0.856414
vt 0.596992 0.632468
vt 0.952560 0.767892
vt 0.629450 0.052654
vt 0.982639 0.789696
vt 0.629450 0.213612
vt 0.629316 0.744152
vt 0.957172 0.767886
vt 0.629316 0.905109
vt 0.987267 0.790095
vt 0.629316 0.824627
vt 0.985367 0.570661
vt 0.629316 0.835194
vt 0.629316 0.894543
vt 0.954205 0.929392
vt 0.629316 0.754719
vt 0.984497 0.330291
vt 0.981316 0.929392
vt 0.629316 0.814068
vt 0.047365 0.894363
vt 0.640232 0.973120
vt 0.640232 0.930581
vt 0.014762 0.944733
vt 0.471779 0.969090
vt 0.014762 0.894363
vt 0.047365 0.944733
vt 0.471779 0.926863
vt 0.145175 0.894363
vt 0.577721 0.973120
vt 0.577721 0.930581
vt 0.267261 0.958076
vt 0.267261 0.907707
vt 0.546452 0.972946
vt 0.546452 0.930719
vt 0.145175 0.944733
vt 0.671486 0.973120
vt 0.850519 0.911880
vt 0.671486 0.930581
vt 0.950512 0.230804
vt 0.503052 0.969090
vt 0.950512 0.180435
vt 0.850519 0.962250
vt 0.503052 0.926863
vt 0.112571 0.894363
vt 0.611473 0.930578
vt 0.079968 0.944733
vt 0.611473 0.973117
vt 0.431652 0.961204
vt 0.079968 0.894363
vt 0.431652 0.918977
vt 0.112571 0.944733
vt 0.642231 0.930578
vt 0.017226 0.944733
vt 0.430566 0.843002
vt 0.642231 0.973118
vt 0.388027 0.843002
vt 0.049829 0.894363
vt 0.049829 0.944733
vt 0.388027 0.893372
vt 0.473782 0.927036
vt 0.430566 0.893372
vt 0.473782 0.969263
vt 0.017226 0.894363
vt 0.716866 0.872658
vt 0.579720 0.973118
vt 0.147639 0.894363
vt 0.269725 0.958076
vt 0.759405 0.872658
vt 0.579720 0.930578
vt 0.147639 0.944733
vt 0.548454 0.930892
vt 0.716866 0.923027
vt 0.548454 0.973119
vt 0.759405 0.923027
vt 0.269725 0.907707
vt 0.470127 0.850891
vt 0.673485 0.973118
vt 0.852983 0.911880
vt 0.952976 0.230804
vt 0.512666 0.850891
vt 0.673485 0.930579
vt 0.852983 0.962250
vt 0.470127 0.901260
vt 0.505054 0.927036
vt 0.505054 0.969263
vt 0.512666 0.901260
vt 0.952976 0.180435
vt 0.082433 0.944733
vt 0.362563 0.843002
vt 0.609474 0.973119
vt 0.609474 0.930580
vt 0.320024 0.843002
vt 0.115036 0.894363
vt 0.115036 0.944733
vt 0.433655 0.919150
vt 0.320024 0.893372
vt 0.362563 0.893372
vt 0.082433 0.894363
vt 0.433655 0.961377
vt 0.776215 0.795673
vt 0.983715 0.570518
vt 0.776215 0.744152
vt 0.983715 0.519376
vt 0.402506 0.978188
vt 0.952560 0.980914
vt 0.716866 0.744152
vt 0.402506 0.918839
vt 0.983715 0.621660
vt 0.776215 0.847193
vt 0.347518 0.918839
vt 0.952560 0.877874
vt 0.716866 0.847193
vt 0.347518 0.978188
vt 0.952560 0.929394
vt 0.716866 0.795673
vt 0.982845 0.330148
vt 0.239769 0.734023
vt 0.982845 0.381290
vt 0.239769 0.785544
vt 0.375012 0.918839
vt 0.320024 0.918839
vt 0.180420 0.682503
vt 0.979671 0.980914
vt 0.320024 0.978188
vt 0.982845 0.279006
vt 0.239769 0.682503
vt 0.180420 0.785543
vt 0.979671 0.877874
vt 0.375012 0.978188
vt 0.180420 0.734023
vt 0.979671 0.929394
vt 0.012732 0.944733
vt 0.638588 0.930583
vt 0.771721 0.842702
vt 0.045335 0.894363
vt 0.638588 0.973122
vt 0.771721 0.800163
vt 0.470127 0.926720
vt 0.045335 0.944733
vt 0.721352 0.800163
vt 0.470127 0.968947
vt 0.012732 0.894363
vt 0.721352 0.842702
vt 0.235275 0.738514
vt 0.576077 0.973122
vt 0.143145 0.894363
vt 0.235275 0.781053
vt 0.576077 0.930583
vt 0.265231 0.958076
vt 0.184906 0.738514
vt 0.143145 0.944733
vt 0.544800 0.930576
vt 0.184906 0.781053
vt 0.265231 0.907707
vt 0.544800 0.972803
vt 0.848489 0.911880
vt 0.669842 0.973122
vt 0.235275 0.686994
vt 0.948482 0.230804
vt 0.669842 0.930583
vt 0.235275 0.729533
vt 0.501400 0.926720
vt 0.848489 0.962250
vt 0.184906 0.686993
vt 0.501400 0.968947
vt 0.948482 0.180435
vt 0.184906 0.729532
vt 0.077939 0.944733
vt 0.771721 0.791182
vt 0.613121 0.973115
vt 0.771721 0.748643
vt 0.613121 0.930576
vt 0.110541 0.894363
vt 0.430000 0.918834
vt 0.721352 0.748643
vt 0.110541 0.944733
vt 0.430000 0.961061
vt 0.077939 0.894363
vt 0.721352 0.791182
vt 0.842857 0.244158
vt 0.622495 0.822002
vt 0.618175 0.819164
vt 0.906288 0.958453
vt 0.844025 0.248639
vt 0.621015 0.814846
vt 0.954536 0.469143
vt 0.625335 0.817684
vt 0.898911 0.243973
vt 0.618175 0.830097
vt 0.773707 0.948807
vt 0.873447 0.241757
vt 0.622495 0.827259
vt 0.872303 0.246478
vt 0.625335 0.831577
vt 0.745847 0.952141
vt 0.621015 0.834415
vt 0.719746 0.952383
vt 0.619747 0.821476
vt 0.842857 0.246923
vt 0.844025 0.241961
vt 0.624810 0.820431
vt 0.898911 0.241226
vt 0.955158 0.466600
vt 0.618700 0.816418
vt 0.909042 0.958453
vt 0.898911 0.246284
vt 0.623763 0.815365
vt 0.955158 0.471765
vt 0.619747 0.827785
vt 0.872303 0.243681
vt 0.618700 0.832844
vt 0.773707 0.951561
vt 0.720383 0.954793
vt 0.745847 0.954887
vt 0.624810 0.828831
vt 0.873447 0.248508
vt 0.720383 0.949692
vt 0.623763 0.833897
vt 0.745847 0.949829
vt 0.810944 0.242285
vt 0.812630 0.243971
vt 0.772463 0.250160
vt 0.840084 0.247541
vt 0.905952 0.960756
vt 0.841789 0.250045
vt 0.769575 0.247269
vt 0.841789 0.240302
vt 0.779430 0.247269
vt 0.901213 0.240303
vt 0.901213 0.244308
vt 0.779430 0.243187
vt 0.769575 0.243187
vt 0.952591 0.465431
vt 0.909958 0.960756
vt 0.951691 0.469141
vt 0.772463 0.240303
vt 0.952591 0.472967
vt 0.901213 0.247688
vt 0.776545 0.240303
vt 0.869492 0.243072
vt 0.814613 0.243150
vt 0.871136 0.240302
vt 0.776103 0.948486
vt 0.811768 0.240302
vt 0.776103 0.952438
vt 0.717777 0.955832
vt 0.807739 0.240302
vt 0.748243 0.955772
vt 0.811768 0.250027
vt 0.871136 0.250021
vt 0.748243 0.951820
vt 0.807739 0.250027
vt 0.748243 0.948486
vt 0.717777 0.948489
vt 0.804893 0.247178
vt 0.716866 0.952363
vt 0.804893 0.243150
vt 0.840084 0.243506
vt 0.776545 0.250160
vt 0.814613 0.247178
vt 0.869492 0.247098
vt 0.644379 0.930576
vt 0.019871 0.944733
vt 0.808556 0.242285
vt 0.810944 0.248044
vt 0.808556 0.248044
vt 0.806870 0.246357
vt 0.806870 0.243971
vt 0.812630 0.246357
vt 0.809746 0.245164
vt 0.773233 0.248314
vt 0.906357 0.962718
vt 0.771433 0.246513
vt 0.903175 0.241402
vt 0.777580 0.246513
vt 0.903175 0.243904
vt 0.777580 0.243965
vt 0.908859 0.962718
vt 0.771433 0.243965
vt 0.773233 0.242165
vt 0.775780 0.242165
vt 0.775780 0.248314
vt 0.774506 0.245239
vt 0.644379 0.973115
vt 0.052474 0.894363
vt 0.052474 0.944733
vt 0.475933 0.927222
vt 0.019871 0.894363
vt 0.475933 0.969449
vt 0.581867 0.973115
vt 0.150284 0.894363
vt 0.581867 0.930576
vt 0.272370 0.958076
vt 0.550606 0.931078
vt 0.150284 0.944733
vt 0.550606 0.973305
vt 0.272370 0.907707
vt 0.675632 0.973115
vt 0.855628 0.911880
vt 0.675632 0.930576
vt 0.955621 0.230804
vt 0.855628 0.962250
vt 0.507206 0.927222
vt 0.955621 0.180435
vt 0.507206 0.969449
vt 0.085078 0.944733
vt 0.607330 0.973122
vt 0.607330 0.930583
vt 0.117681 0.894363
vt 0.435806 0.919336
vt 0.117681 0.944733
vt 0.435806 0.961563
vt 0.085078 0.894363
vt 0.544800 0.519376
vt 0.544800 0.546248
vt 0.544800 0.718688
vt 0.544800 0.632468
s 0
f 7/14/1 4/8/1 6/12/1
f 5/11/2 1/1/2 4/7/2
f 6/13/3 1/2/3 3/6/3
f 127/275/1 57/114/1 129/278/1
f 22/47/3 8/15/3 20/41/3
f 3/6/3 12/23/3 10/17/3
f 60/122/2 12/22/2 1/1/2
f 12/23/3 13/24/3 10/17/3
f 126/273/2 55/110/2 127/274/2
f 124/270/1 50/101/1 125/272/1
f 18/38/2 16/31/2 17/34/2
f 12/23/3 16/32/3 15/30/3
f 15/29/4 19/40/4 62/125/4
f 61/123/1 17/36/1 12/21/1
f 15/30/3 20/41/3 13/24/3
f 62/126/2 22/46/2 15/28/2
f 25/52/2 23/48/2 26/53/2
f 9/16/3 26/54/3 23/49/3
f 58/118/1 26/55/1 22/45/1
f 61/123/1 48/95/1 18/37/1
f 30/62/3 27/56/3 31/63/3
f 23/49/3 31/63/3 9/16/3
f 24/50/2 30/61/2 23/48/2
f 5/11/2 64/131/2 60/122/2
f 34/68/2 32/64/2 35/69/2
f 29/59/1 35/70/1 30/60/1
f 30/62/3 32/65/3 28/57/3
f 37/75/5 39/79/5 38/76/5
f 40/81/5 50/102/5 59/120/5
f 59/120/5 41/82/5 40/81/5
f 37/75/5 63/128/5 64/130/5
f 63/128/5 44/87/5 65/132/5
f 65/132/5 48/96/5 63/128/5
f 65/132/5 47/94/5 59/120/5
f 54/108/5 53/107/5 55/111/5
f 53/107/5 57/115/5 55/111/5
f 40/81/5 55/111/5 51/104/5
f 45/89/3 72/154/3 36/72/3
f 7/14/1 39/80/1 5/10/1
f 46/92/4 70/147/4 14/25/4
f 18/38/2 49/99/2 19/39/2
f 125/271/2 51/105/2 126/273/2
f 129/277/2 56/113/2 128/276/2
f 19/40/4 65/133/4 62/125/4
f 43/84/2 124/269/2 130/280/2
f 11/19/2 60/122/2 2/4/2
f 21/44/2 62/126/2 14/26/2
f 45/90/2 61/124/2 11/19/2
f 36/73/2 60/122/2 64/131/2
f 45/90/2 64/131/2 63/129/2
f 43/84/2 65/134/2 59/121/2
f 14/26/2 65/134/2 46/93/2
f 66/135/1 75/161/1 67/139/1
f 66/136/5 78/167/5 74/159/5
f 11/20/1 71/150/1 45/88/1
f 2/5/5 69/144/5 11/18/5
f 43/85/3 73/156/3 46/91/3
f 36/74/4 68/141/4 2/3/4
f 14/27/5 66/136/5 21/42/5
f 130/279/1 66/137/1 67/138/1
f 71/151/2 68/142/2 72/153/2
f 70/149/2 67/139/2 66/135/2
f 73/158/6 78/168/6 70/147/6
f 72/154/3 79/169/3 80/171/3
f 69/146/7 79/170/7 71/150/7
f 68/143/5 77/166/5 69/144/5
f 67/140/3 81/174/3 73/156/3
f 72/155/4 76/164/4 68/141/4
f 56/113/2 131/282/2 128/276/2
f 33/66/2 82/175/2 32/64/2
f 84/180/4 132/284/4 131/281/4
f 82/176/8 97/203/8 85/181/8
f 101/213/1 115/243/1 89/190/1
f 103/218/3 113/237/3 100/209/3
f 90/191/1 134/288/1 133/286/1
f 99/207/9 91/194/9 88/187/9
f 93/198/2 135/289/2 134/287/2
f 92/195/2 94/199/2 91/193/2
f 86/183/10 85/182/10 97/202/10
f 136/291/11 97/202/11 132/283/11
f 89/189/2 88/188/2 101/214/2
f 102/216/12 133/285/12 137/293/12
f 100/211/13 105/222/13 103/219/13
f 101/214/2 106/223/2 104/220/2
f 98/205/14 106/223/14 85/182/14
f 102/216/13 105/222/13 90/192/13
f 102/217/3 109/227/3 103/218/3
f 100/210/4 138/295/4 136/290/4
f 154/325/4 169/364/4 153/323/4
f 107/224/2 114/241/2 111/232/2
f 108/225/2 111/232/2 112/234/2
f 145/307/5 163/345/5 148/313/5
f 98/206/5 111/233/5 104/221/5
f 86/184/4 112/236/4 98/204/4
f 104/221/5 114/242/5 101/212/5
f 89/190/1 139/297/1 137/292/1
f 140/298/2 117/249/2 141/300/2
f 110/230/2 117/249/2 109/228/2
f 139/296/2 119/255/2 142/301/2
f 115/244/2 116/247/2 119/255/2
f 138/294/2 121/261/2 143/303/2
f 109/228/2 121/261/2 113/239/2
f 219/501/15 234/538/15 233/535/15
f 107/224/2 120/258/2 123/268/2
f 140/298/2 122/264/2 109/228/2
f 138/294/2 120/258/2 108/225/2
f 139/296/2 118/252/2 110/230/2
f 214/487/16 237/545/16 225/514/16
f 137/292/1 110/231/1 102/215/1
f 150/317/4 165/352/4 149/316/4
f 146/309/4 162/342/4 145/308/4
f 136/290/4 108/226/4 86/184/4
f 137/293/12 99/208/12 89/189/12
f 100/211/11 132/283/11 87/186/11
f 134/287/2 95/200/2 92/195/2
f 133/286/1 92/196/1 99/207/1
f 131/281/4 97/203/4 83/177/4
f 128/276/2 83/178/2 33/66/2
f 21/44/2 124/269/2 58/117/2
f 34/68/2 128/276/2 33/66/2
f 25/52/2 126/273/2 24/50/2
f 58/118/1 125/272/1 25/51/1
f 24/50/2 127/274/2 29/58/2
f 29/59/1 129/278/1 34/67/1
f 120/259/3 185/408/3 123/266/3
f 155/327/1 199/449/1 156/330/1
f 143/304/1 186/412/1 120/257/1
f 121/262/1 183/403/1 143/304/1
f 154/326/3 200/453/3 155/328/3
f 119/256/4 182/401/4 142/302/4
f 156/329/5 197/443/5 153/324/5
f 147/311/1 191/425/1 148/314/1
f 117/250/1 177/388/1 141/299/1
f 153/323/4 198/447/4 154/325/4
f 146/310/3 192/429/3 147/312/3
f 148/313/5 190/422/5 145/307/5
f 159/335/1 203/461/1 160/337/1
f 145/308/4 189/420/4 146/309/4
f 142/302/4 181/398/4 118/251/4
f 158/333/3 204/465/3 159/336/3
f 175/382/1 270/599/1 176/386/1
f 161/339/4 256/571/4 162/342/4
f 167/358/1 262/583/1 168/360/1
f 176/385/3 267/593/3 173/375/3
f 149/315/5 167/357/5 152/322/5
f 158/334/4 174/378/4 157/332/4
f 147/312/3 161/340/3 146/310/3
f 153/324/5 171/369/5 156/329/5
f 151/319/3 166/354/3 150/318/3
f 157/331/5 175/381/5 160/338/5
f 148/314/1 164/349/1 147/311/1
f 155/328/3 170/366/3 154/326/3
f 152/321/1 168/360/1 151/320/1
f 159/336/3 173/375/3 158/333/3
f 156/330/1 172/372/1 155/327/1
f 160/337/1 176/386/1 159/335/1
f 177/387/2 189/421/2 190/424/2
f 181/399/2 189/421/2 180/396/2
f 182/402/2 192/430/2 181/399/2
f 177/387/2 191/427/2 182/402/2
f 183/404/2 194/434/2 193/431/2
f 187/414/2 194/434/2 184/406/2
f 188/417/2 196/440/2 187/414/2
f 183/404/2 195/437/2 188/417/2
f 183/404/2 197/445/2 186/413/2
f 188/417/2 198/448/2 183/404/2
f 185/409/2 200/454/2 188/417/2
f 186/413/2 199/451/2 185/409/2
f 177/387/2 202/458/2 178/389/2
f 182/402/2 201/456/2 177/387/2
f 179/393/2 204/466/2 182/402/2
f 178/389/2 203/462/2 179/393/2
f 144/305/4 187/415/4 122/263/4
f 122/265/5 184/407/5 121/260/5
f 123/267/4 188/418/4 144/305/4
f 149/316/4 194/435/4 150/317/4
f 152/322/5 193/433/5 149/315/5
f 150/318/3 196/441/3 151/319/3
f 141/299/1 178/390/1 116/245/1
f 157/332/4 201/457/4 158/334/4
f 151/320/1 195/439/1 152/321/1
f 116/246/3 179/394/3 119/254/3
f 160/338/5 202/460/5 157/331/5
f 118/253/5 180/397/5 117/248/5
f 107/224/2 213/485/2 205/468/2
f 123/268/2 215/491/2 206/469/2
f 144/306/2 216/494/2 207/472/2
f 140/298/2 214/488/2 208/474/2
f 107/224/2 210/479/2 217/496/2
f 140/298/2 211/481/2 219/502/2
f 141/300/2 212/483/2 220/505/2
f 107/224/2 218/498/2 212/483/2
f 207/473/17 227/520/17 215/490/17
f 218/499/18 231/530/18 232/532/18
f 213/486/19 237/545/19 205/467/19
f 208/475/20 225/516/20 226/517/20
f 211/482/21 235/540/21 234/538/21
f 209/478/22 230/527/22 231/529/22
f 228/523/23 251/566/23 227/519/23
f 234/539/24 241/552/24 233/536/24
f 238/547/25 222/508/25 230/528/25
f 238/547/26 241/552/26 245/556/26
f 232/534/27 221/507/27 240/551/27
f 237/546/28 247/558/28 254/569/28
f 227/521/29 248/559/29 224/511/29
f 225/516/30 250/563/30 226/517/30
f 207/473/31 229/524/31 228/522/31
f 206/470/32 227/521/32 224/511/32
f 212/484/33 235/541/33 220/504/33
f 208/475/34 229/525/34 216/493/34
f 217/497/35 238/548/35 230/527/35
f 212/484/36 232/533/36 236/543/36
f 219/503/37 238/548/37 210/480/37
f 206/471/38 223/510/38 213/486/38
f 246/557/2 242/553/2 243/554/2
f 246/557/2 244/555/2 240/551/2
f 221/507/2 246/557/2 240/551/2
f 245/556/2 246/557/2 222/508/2
f 235/542/39 242/553/39 234/539/39
f 230/528/40 221/507/40 231/531/40
f 236/544/41 240/551/41 244/555/41
f 236/544/42 243/554/42 235/542/42
f 255/570/43 252/567/43 253/568/43
f 255/570/44 250/564/44 249/562/44
f 254/569/45 255/570/45 249/562/45
f 248/560/46 255/570/46 247/558/46
f 226/518/47 253/568/47 229/526/47
f 224/513/48 247/558/48 223/509/48
f 237/546/49 249/562/49 225/515/49
f 229/526/50 252/567/50 228/523/50
f 170/367/2 171/370/2 169/363/2
f 166/355/2 167/359/2 165/351/2
f 175/383/2 173/376/2 176/384/2
f 163/346/2 161/341/2 164/348/2
f 170/368/4 263/585/4 169/364/4
f 162/344/5 257/573/5 163/345/5
f 169/365/5 265/589/5 171/369/5
f 164/350/3 239/550/3 161/340/3
f 172/374/3 264/588/3 170/366/3
f 163/347/1 258/576/1 164/349/1
f 171/371/1 266/592/1 172/372/1
f 166/356/4 259/577/4 165/352/4
f 173/377/4 268/595/4 174/378/4
f 165/353/5 261/582/5 167/357/5
f 174/380/5 269/598/5 175/381/5
f 168/362/3 260/580/3 166/354/3
f 135/289/2 272/602/2 95/200/2
f 96/201/2 274/604/2 135/289/2
f 95/200/2 271/601/2 94/199/2
f 7/14/1 5/10/1 4/8/1
f 5/11/2 60/122/2 1/1/2
f 6/13/3 4/9/3 1/2/3
f 127/275/1 55/109/1 57/114/1
f 22/47/3 9/16/3 8/15/3
f 3/6/3 1/2/3 12/23/3
f 60/122/2 61/124/2 12/22/2
f 12/23/3 15/30/3 13/24/3
f 126/273/2 51/105/2 55/110/2
f 124/270/1 59/119/1 50/101/1
f 18/38/2 19/39/2 16/31/2
f 12/23/3 17/35/3 16/32/3
f 15/29/4 16/33/4 19/40/4
f 61/123/1 18/37/1 17/36/1
f 15/30/3 22/47/3 20/41/3
f 62/126/2 58/117/2 22/46/2
f 25/52/2 24/50/2 23/48/2
f 9/16/3 22/47/3 26/54/3
f 58/118/1 25/51/1 26/55/1
f 61/123/1 63/127/1 48/95/1
f 30/62/3 28/57/3 27/56/3
f 23/49/3 30/62/3 31/63/3
f 24/50/2 29/58/2 30/61/2
f 5/11/2 39/78/2 64/131/2
f 34/68/2 33/66/2 32/64/2
f 29/59/1 34/67/1 35/70/1
f 30/62/3 35/71/3 32/65/3
f 37/75/5 64/130/5 39/79/5
f 40/81/5 51/104/5 50/102/5
f 59/120/5 47/94/5 41/82/5
f 37/75/5 42/83/5 63/128/5
f 63/128/5 42/83/5 44/87/5
f 65/132/5 49/98/5 48/96/5
f 65/132/5 44/87/5 47/94/5
f 54/108/5 52/106/5 53/107/5
f 53/107/5 56/112/5 57/115/5
f 40/81/5 54/108/5 55/111/5
f 45/89/3 71/152/3 72/154/3
f 7/14/1 38/77/1 39/80/1
f 46/92/4 73/158/4 70/147/4
f 18/38/2 48/97/2 49/99/2
f 125/271/2 50/103/2 51/105/2
f 129/277/2 57/116/2 56/113/2
f 19/40/4 49/100/4 65/133/4
f 43/84/2 59/121/2 124/269/2
f 11/19/2 61/124/2 60/122/2
f 21/44/2 58/117/2 62/126/2
f 45/90/2 63/129/2 61/124/2
f 36/73/2 2/4/2 60/122/2
f 45/90/2 36/73/2 64/131/2
f 43/84/2 46/93/2 65/134/2
f 14/26/2 62/126/2 65/134/2
f 66/135/1 74/160/1 75/161/1
f 66/136/5 70/148/5 78/167/5
f 11/20/1 69/146/1 71/150/1
f 2/5/5 68/143/5 69/144/5
f 43/85/3 67/140/3 73/156/3
f 36/74/4 72/155/4 68/141/4
f 14/27/5 70/148/5 66/136/5
f 67/138/1 43/86/1 130/279/1
f 130/279/1 21/43/1 66/137/1
f 71/151/2 69/145/2 68/142/2
f 70/149/2 73/157/2 67/139/2
f 73/158/6 81/173/6 78/168/6
f 72/154/3 71/152/3 79/169/3
f 69/146/7 77/165/7 79/170/7
f 68/143/5 76/163/5 77/166/5
f 67/140/3 75/162/3 81/174/3
f 72/155/4 80/172/4 76/164/4
f 56/113/2 84/179/2 131/282/2
f 33/66/2 83/178/2 82/175/2
f 84/180/4 87/185/4 132/284/4
f 82/176/4 83/177/4 97/203/4
f 101/213/1 114/240/1 115/243/1
f 103/218/3 109/227/3 113/237/3
f 90/191/1 93/197/1 134/288/1
f 99/207/1 92/196/1 91/194/1
f 93/198/2 96/201/2 135/289/2
f 92/195/2 95/200/2 94/199/2
f 86/183/2 98/205/2 85/182/2
f 136/291/11 86/183/11 97/202/11
f 89/189/51 99/208/51 88/188/51
f 102/216/12 90/192/12 133/285/12
f 100/211/13 87/186/13 105/222/13
f 101/214/14 88/188/14 106/223/14
f 98/205/2 104/220/2 106/223/2
f 102/216/13 103/219/13 105/222/13
f 102/217/3 110/229/3 109/227/3
f 100/210/4 113/238/4 138/295/4
f 154/325/4 170/368/4 169/364/4
f 107/224/2 115/244/2 114/241/2
f 108/225/2 107/224/2 111/232/2
f 145/307/5 162/344/5 163/345/5
f 98/206/5 112/235/5 111/233/5
f 86/184/4 108/226/4 112/236/4
f 104/221/5 111/233/5 114/242/5
f 89/190/1 115/243/1 139/297/1
f 140/298/2 109/228/2 117/249/2
f 110/230/2 118/252/2 117/249/2
f 139/296/2 115/244/2 119/255/2
f 115/244/2 107/224/2 116/247/2
f 138/294/2 113/239/2 121/261/2
f 109/228/2 122/264/2 121/261/2
f 219/501/52 211/482/52 234/538/52
f 107/224/2 108/225/2 120/258/2
f 140/298/2 144/306/2 122/264/2
f 138/294/2 143/303/2 120/258/2
f 139/296/2 142/301/2 118/252/2
f 214/487/16 205/467/16 237/545/16
f 137/292/1 139/297/1 110/231/1
f 150/317/4 166/356/4 165/352/4
f 146/309/4 161/339/4 162/342/4
f 136/290/4 138/295/4 108/226/4
f 137/293/12 133/285/12 99/208/12
f 100/211/11 136/291/11 132/283/11
f 134/287/2 135/289/2 95/200/2
f 133/286/1 134/288/1 92/196/1
f 131/281/4 132/284/4 97/203/4
f 128/276/2 131/282/2 83/178/2
f 21/44/2 130/280/2 124/269/2
f 34/68/2 129/277/2 128/276/2
f 25/52/2 125/271/2 126/273/2
f 58/118/1 124/270/1 125/272/1
f 24/50/2 126/273/2 127/274/2
f 29/59/1 127/275/1 129/278/1
f 120/259/3 186/411/3 185/408/3
f 155/327/1 200/452/1 199/449/1
f 143/304/1 183/403/1 186/412/1
f 121/262/1 184/405/1 183/403/1
f 154/326/3 198/446/3 200/453/3
f 119/256/4 179/392/4 182/401/4
f 156/329/5 199/450/5 197/443/5
f 147/311/1 192/428/1 191/425/1
f 117/250/1 180/395/1 177/388/1
f 153/323/4 197/444/4 198/447/4
f 146/310/3 189/419/3 192/429/3
f 148/313/5 191/426/5 190/422/5
f 159/335/1 204/464/1 203/461/1
f 145/308/4 190/423/4 189/420/4
f 142/302/4 182/401/4 181/398/4
f 158/333/3 201/455/3 204/465/3
f 175/382/1 269/597/1 270/599/1
f 161/339/4 239/549/4 256/571/4
f 167/358/1 261/581/1 262/583/1
f 176/385/3 270/600/3 267/593/3
f 149/315/5 165/353/5 167/357/5
f 158/334/4 173/377/4 174/378/4
f 147/312/3 164/350/3 161/340/3
f 153/324/5 169/365/5 171/369/5
f 151/319/3 168/362/3 166/354/3
f 157/331/5 174/380/5 175/381/5
f 148/314/1 163/347/1 164/349/1
f 155/328/3 172/374/3 170/366/3
f 152/321/1 167/358/1 168/360/1
f 159/336/3 176/385/3 173/375/3
f 156/330/1 171/371/1 172/372/1
f 160/337/1 175/382/1 176/386/1
f 177/387/2 180/396/2 189/421/2
f 181/399/2 192/430/2 189/421/2
f 182/402/2 191/427/2 192/430/2
f 177/387/2 190/424/2 191/427/2
f 183/404/2 184/406/2 194/434/2
f 187/414/2 196/440/2 194/434/2
f 188/417/2 195/437/2 196/440/2
f 183/404/2 193/431/2 195/437/2
f 183/404/2 198/448/2 197/445/2
f 188/417/2 200/454/2 198/448/2
f 185/409/2 199/451/2 200/454/2
f 186/413/2 197/445/2 199/451/2
f 177/387/2 201/456/2 202/458/2
f 182/402/2 204/466/2 201/456/2
f 179/393/2 203/462/2 204/466/2
f 178/389/2 202/458/2 203/462/2
f 144/305/4 188/418/4 187/415/4
f 122/265/5 187/416/5 184/407/5
f 123/267/4 185/410/4 188/418/4
f 149/316/4 193/432/4 194/435/4
f 152/322/5 195/438/5 193/433/5
f 150/318/3 194/436/3 196/441/3
f 141/299/1 177/388/1 178/390/1
f 157/332/4 202/459/4 201/457/4
f 151/320/1 196/442/1 195/439/1
f 116/246/3 178/391/3 179/394/3
f 160/338/5 203/463/5 202/460/5
f 118/253/5 181/400/5 180/397/5
f 205/468/2 140/298/2 107/224/2
f 107/224/2 206/469/2 213/485/2
f 206/469/2 107/224/2 123/268/2
f 123/268/2 207/472/2 215/491/2
f 207/472/2 123/268/2 144/306/2
f 144/306/2 208/474/2 216/494/2
f 208/474/2 144/306/2 140/298/2
f 140/298/2 205/468/2 214/488/2
f 107/224/2 140/298/2 210/479/2
f 217/496/2 209/476/2 107/224/2
f 140/298/2 141/300/2 211/481/2
f 219/502/2 210/479/2 140/298/2
f 141/300/2 116/247/2 212/483/2
f 220/505/2 211/481/2 141/300/2
f 212/483/2 116/247/2 107/224/2
f 107/224/2 209/476/2 218/498/2
f 207/473/53 228/522/53 227/520/53
f 218/499/54 209/477/54 231/530/54
f 213/486/55 223/510/55 237/545/55
f 208/475/20 214/489/20 225/516/20
f 211/482/56 220/506/56 235/540/56
f 209/478/22 217/497/22 230/527/22
f 228/523/23 252/567/23 251/566/23
f 234/539/24 242/553/24 241/552/24
f 238/547/57 245/556/57 222/508/57
f 238/547/58 233/536/58 241/552/58
f 232/534/27 231/531/27 221/507/27
f 237/546/59 223/509/59 247/558/59
f 227/521/29 251/565/29 248/559/29
f 225/516/60 249/561/60 250/563/60
f 207/473/31 216/495/31 229/524/31
f 206/470/32 215/492/32 227/521/32
f 212/484/33 236/543/33 235/541/33
f 208/475/34 226/517/34 229/525/34
f 217/497/61 210/480/61 238/548/61
f 212/484/62 218/500/62 232/533/62
f 219/503/37 233/537/37 238/548/37
f 206/471/63 224/512/63 223/510/63
f 246/557/2 241/552/2 242/553/2
f 246/557/2 243/554/2 244/555/2
f 221/507/2 222/508/2 246/557/2
f 245/556/2 241/552/2 246/557/2
f 235/542/64 243/554/64 242/553/64
f 230/528/65 222/508/65 221/507/65
f 236/544/66 232/534/66 240/551/66
f 236/544/67 244/555/67 243/554/67
f 255/570/68 251/566/68 252/567/68
f 255/570/69 253/568/69 250/564/69
f 254/569/70 247/558/70 255/570/70
f 248/560/71 251/566/71 255/570/71
f 226/518/72 250/564/72 253/568/72
f 224/513/48 248/560/48 247/558/48
f 237/546/73 254/569/73 249/562/73
f 229/526/74 253/568/74 252/567/74
f 170/367/2 172/373/2 171/370/2
f 166/355/2 168/361/2 167/359/2
f 175/383/2 174/379/2 173/376/2
f 163/346/2 162/343/2 161/341/2
f 170/368/4 264/587/4 263/585/4
f 162/344/5 256/572/5 257/573/5
f 169/365/5 263/586/5 265/589/5
f 164/350/3 258/575/3 239/550/3
f 172/374/3 266/591/3 264/588/3
f 163/347/1 257/574/1 258/576/1
f 171/371/1 265/590/1 266/592/1
f 166/356/4 260/579/4 259/577/4
f 173/377/4 267/594/4 268/595/4
f 165/353/5 259/578/5 261/582/5
f 174/380/5 268/596/5 269/598/5
f 168/362/3 262/584/3 260/580/3
f 135/289/2 274/604/2 272/602/2
f 96/201/2 273/603/2 274/604/2
f 95/200/2 272/602/2 271/601/2
