# Blender 3.3.1
# www.blender.org
o front_counter
v 4.484905 4.174713 -4.836587
v 4.484905 0.003105 -4.836587
v 40.017574 4.184248 27.096216
v 40.027821 0.012651 27.093969
v 10.094045 4.174713 -4.612923
v 14.077732 4.174713 -4.098591
v 17.944376 4.174713 -2.940603
v 21.637594 4.174713 -1.343134
v 25.103531 4.174713 0.670527
v 28.291645 4.174713 3.071013
v 31.155449 4.174713 5.823322
v 33.653179 4.174713 8.887317
v 35.748405 4.174713 12.218318
v 37.455143 4.174713 15.682121
v 39.862907 4.174713 21.710299
v 40.147438 4.174713 25.196369
v 40.147438 0.003105 25.196369
v 39.862907 0.003105 21.710299
v 37.455143 0.003105 15.682121
v 35.748405 0.003105 12.218318
v 33.653179 0.003105 8.887317
v 31.155449 0.003105 5.823322
v 28.291645 0.003105 3.071013
v 25.103531 0.003105 0.670527
v 21.637594 0.003105 -1.343134
v 17.944376 0.003105 -2.940603
v 14.077732 0.003105 -4.098591
v 10.094045 0.003105 -4.612923
v 5.239314 0.146505 3.666704
v 4.484905 4.174713 3.609312
v 8.504795 0.146506 3.745049
v 17.534870 0.146506 7.011798
v 14.372292 0.146506 5.371815
v 11.482281 0.146506 4.506311
v 31.168377 0.146506 26.894833
v 31.113190 0.142355 27.621651
v 31.025158 0.146506 24.444384
v 30.169144 0.146506 21.581255
v 28.342690 0.146506 17.270401
v 26.954872 0.146506 14.902056
v 25.032238 0.146506 12.675547
v 22.853001 0.146506 10.405792
v 20.125381 0.146506 8.516849
v 31.028069 4.165169 28.549173
v 8.504795 4.174713 3.745049
v 17.132677 4.174713 6.565796
v 14.372292 4.174713 5.371815
v 11.482281 4.174713 4.506311
v 31.169849 4.174713 26.877790
v 31.025158 4.174713 24.444384
v 30.169144 4.174713 21.581255
v 28.342690 4.174713 17.270401
v 26.954872 4.174713 14.902056
v 25.032238 4.174713 12.675547
v 22.853001 4.174713 10.405792
v 19.723188 4.174713 8.070847
v 4.484905 3.349872 -4.836587
v 31.169849 3.349872 26.877790
v 40.019600 3.359410 27.095772
v 37.455143 3.349872 15.682121
v 31.030098 3.340331 28.548731
v 17.132677 3.349872 6.565796
v 31.025158 3.349872 24.444384
v 26.954872 3.349872 14.902056
v 25.032238 3.349872 12.675547
v 22.853001 3.349872 10.405792
v 19.723188 3.349872 8.070847
v 4.484905 3.349872 3.609312
v 10.094045 3.349872 -4.612923
v 14.077732 3.349872 -4.098591
v 17.944376 3.349872 -2.940603
v 21.637594 3.349872 -1.343134
v 25.103531 3.349872 0.670527
v 28.291645 3.349872 3.071013
v 31.155449 3.349872 5.823322
v 33.653179 3.349872 8.887317
v 30.169144 3.349872 21.581255
v 35.748405 3.349872 12.218318
v 39.862907 3.349872 21.710299
v 8.504795 3.349872 3.745049
v 14.372292 3.349872 5.371815
v 40.147438 3.349872 25.196369
v 11.482281 3.349872 4.506311
v 28.342690 3.349872 17.270401
v 4.484905 3.190285 -4.836587
v 40.019993 3.199823 27.095686
v 37.455143 3.190285 15.682121
v 10.094045 3.190285 -4.612923
v 14.077732 3.190285 -4.098591
v 17.944376 3.190285 -2.940603
v 21.637594 3.190285 -1.343134
v 25.103531 3.190285 0.670527
v 28.291645 3.190285 3.071013
v 31.155449 3.190285 5.823322
v 33.653179 3.190285 8.887317
v 35.748405 3.190285 12.218318
v 39.862907 3.190285 21.710299
v 40.147438 3.190285 25.196369
v 31.171318 3.046884 26.860758
v 31.105721 3.042530 27.623188
v 17.534870 3.046884 7.011798
v 31.025158 3.046884 24.444384
v 26.954872 3.046884 14.902056
v 25.032238 3.046884 12.675547
v 22.853001 3.046884 10.405792
v 20.125381 3.046884 8.516849
v 5.239314 3.046884 3.666704
v 30.169144 3.046884 21.581255
v 8.504795 3.046884 3.745049
v 14.372292 3.046884 5.371815
v 11.482281 3.046884 4.506311
v 28.342690 3.046884 17.270401
v 10.653847 3.349940 -5.110926
v 4.485210 3.349940 -5.334589
v 14.637533 3.349940 -4.621866
v 18.504181 3.349940 -3.463878
v 22.197399 3.349940 -1.866408
v 25.663334 3.349940 0.147253
v 28.851448 3.349940 2.547738
v 31.715248 3.349940 5.300047
v 34.212978 3.349940 8.364041
v 36.308208 3.349940 11.695044
v 38.014942 3.349940 15.158846
v 40.422710 3.349940 21.187025
v 40.707237 3.349940 24.673094
v 40.579399 3.359478 27.006111
v 4.485210 3.190353 -5.334589
v 40.579792 3.199891 27.006023
v 38.014942 3.190353 15.158846
v 10.653847 3.190353 -5.110926
v 14.637533 3.190353 -4.621866
v 18.504181 3.190353 -3.463878
v 22.197399 3.190353 -1.866408
v 25.663334 3.190353 0.147253
v 28.851448 3.190353 2.547738
v 31.715248 3.190353 5.300047
v 34.212978 3.190353 8.364041
v 36.308208 3.190353 11.695044
v 40.422710 3.190353 21.187025
v 40.707237 3.190353 24.673094
v 4.484905 0.003105 3.609312
v 8.504795 0.003105 3.745049
v 17.132677 0.003105 6.565796
v 14.372292 0.003105 5.371815
v 11.482281 0.003105 4.506311
v 31.169849 0.003105 26.877790
v 31.038319 -0.006428 28.546925
v 31.025158 0.003105 24.444384
v 30.169144 0.003105 21.581255
v 28.342690 0.003105 17.270401
v 26.954872 0.003105 14.902056
v 25.032238 0.003105 12.675547
v 22.853001 0.003105 10.405792
v 19.723188 0.003105 8.070847
v 31.030487 3.180745 28.548643
v 4.484905 3.190285 3.609312
v 31.025158 3.190285 24.444384
v 31.169849 3.190285 26.877790
v 30.169144 3.190285 21.581255
v 28.342690 3.190285 17.270401
v 26.954872 3.190285 14.902056
v 25.032238 3.190285 12.675547
v 8.504795 3.190285 3.745049
v 11.482281 3.190285 4.506311
v 14.372292 3.190285 5.371815
v 17.132677 3.190285 6.565796
v 19.723188 3.190285 8.070847
v 22.853001 3.190285 10.405792
v 32.322144 0.146549 25.823360
v 32.325081 3.046928 25.789286
v 18.688635 0.146549 5.940326
v 18.688635 3.046928 5.940326
v 32.178921 0.146549 23.372911
v 32.178921 3.046928 23.372911
v 28.108639 0.146549 13.830585
v 28.108639 3.046928 13.830585
v 26.272442 0.146549 11.697329
v 26.272442 3.046928 11.697329
v 24.093208 0.146549 9.427574
v 24.093208 3.046928 9.427574
v 21.279146 0.146549 7.445376
v 21.279146 3.046928 7.445376
v 31.322910 0.146549 20.509783
v 31.322910 3.046928 20.509783
v 9.658560 0.146549 2.725325
v 9.658560 3.046928 2.725325
v 15.526057 0.146549 4.300343
v 15.526057 3.046928 4.300343
v 12.636045 0.146549 3.434839
v 12.636045 3.046928 3.434839
v 29.496456 0.146549 16.198929
v 29.496456 3.046928 16.198929
v 6.393079 0.146549 2.646980
v 32.266953 0.142399 26.550180
v 32.259483 3.042573 26.551718
v 6.393079 3.046928 2.646980
v 4.547857 4.174713 -4.881673
v 10.157684 4.174713 -4.709198
v 14.237657 4.174713 -4.182796
v 18.290571 4.174713 -2.937352
v 22.073057 4.174713 -1.301271
v 25.622765 4.174713 0.761060
v 28.547619 4.174713 3.041165
v 31.480637 4.174713 5.859997
v 33.945919 4.174713 9.087248
v 36.091789 4.174713 12.498758
v 37.529324 4.174713 15.542883
v 39.966213 4.174713 21.660883
v 40.156631 4.184478 27.174904
v 40.289631 4.174713 25.229136
v 4.547857 4.174713 3.768361
v 8.622836 4.174713 3.907378
v 17.861446 4.174713 7.244819
v 14.632150 4.174713 5.575977
v 11.672288 4.174713 4.689554
v 30.862194 4.164938 28.687756
v 31.007401 4.174713 26.975975
v 30.962341 4.174713 24.979309
v 30.084560 4.174713 22.049051
v 28.460110 4.174713 17.921850
v 27.034447 4.174713 15.493335
v 25.117313 4.174713 12.996141
v 22.890701 4.174713 10.672806
v 20.514568 4.174713 8.786245
v 5.425354 4.335960 -4.038938
v 4.547819 4.255846 -4.881676
v 4.771478 4.313374 -4.666868
v 4.607738 4.289060 -4.824119
v 10.157646 4.255846 -4.709200
v 10.056722 4.335946 -4.061694
v 10.150741 4.289060 -4.654622
v 10.131903 4.313373 -4.505509
v 14.237619 4.255846 -4.182798
v 14.023983 4.335941 -3.362972
v 14.223017 4.289059 -4.126806
v 14.183146 4.313371 -3.973832
v 18.290535 4.255846 -2.937355
v 17.975777 4.335938 -2.148603
v 18.269024 4.289059 -2.883485
v 18.210289 4.313371 -2.736308
v 22.073019 4.255845 -1.301273
v 21.664417 4.335934 -0.553114
v 22.045097 4.289058 -1.250177
v 21.968849 4.313369 -1.110574
v 25.622726 4.255845 0.761058
v 25.116882 4.335930 1.452720
v 25.588161 4.289057 0.808297
v 25.493767 4.313368 0.937358
v 28.547581 4.255845 3.041163
v 27.959282 4.335927 3.668546
v 28.507385 4.289058 3.084011
v 28.397606 4.313367 3.201077
v 31.480598 4.255844 5.859994
v 30.812748 4.335924 6.410921
v 31.434971 4.289057 5.897620
v 31.310349 4.313366 6.000420
v 33.945881 4.255844 9.087245
v 33.215191 4.335922 9.555909
v 33.895962 4.289056 9.119253
v 33.759613 4.313365 9.206704
v 36.091755 4.255843 12.498756
v 35.308987 4.335920 12.884632
v 36.038280 4.289055 12.525109
v 35.892212 4.313364 12.597110
v 37.529285 4.255842 15.542881
v 36.704762 4.335918 15.834948
v 37.472958 4.289055 15.562827
v 37.319099 4.313364 15.617326
v 39.966175 4.255840 21.660877
v 39.102005 4.335936 21.830658
v 39.907135 4.289057 21.672470
v 39.745880 4.313373 21.704151
v 40.156593 4.265603 27.174900
v 39.326401 4.342534 26.454903
v 40.099888 4.298397 27.125742
v 39.944992 4.321556 26.991446
v 39.409164 4.336088 25.242907
v 40.289593 4.255838 25.229134
v 40.065182 4.313449 25.232311
v 40.229454 4.289076 25.229982
v 5.425354 4.335954 3.016249
v 4.547819 4.255846 3.768359
v 4.771478 4.313374 3.576649
v 4.607738 4.289060 3.716990
v 8.730734 4.335945 3.109436
v 8.622798 4.255846 3.907377
v 8.650291 4.313374 3.703985
v 8.630157 4.289060 3.852878
v 18.269947 4.335956 6.496652
v 17.861408 4.255845 7.244817
v 17.965521 4.313377 7.054113
v 17.889297 4.289060 7.193717
v 14.632112 4.255846 5.575974
v 14.943839 4.335952 4.785936
v 14.653390 4.289060 5.522015
v 14.711551 4.313375 5.374597
v 11.672250 4.255846 4.689552
v 11.882617 4.335948 3.869157
v 11.686605 4.289060 4.633519
v 11.725853 4.313375 4.480437
v 31.828613 4.329660 27.675285
v 30.862156 4.246062 28.687756
v 31.108440 4.305337 28.429750
v 30.928139 4.279747 28.618622
v 31.007362 4.255837 26.975971
v 31.885735 4.335977 27.003721
v 31.067345 4.289058 26.978029
v 31.231251 4.313383 26.983648
v 30.962303 4.255840 24.979307
v 31.836948 4.335957 24.842020
v 31.022026 4.289057 24.969927
v 31.185226 4.313373 24.944313
v 30.084522 4.255841 22.049047
v 30.911526 4.335973 21.764832
v 30.140995 4.289060 22.029634
v 30.295300 4.313382 21.976603
v 28.460075 4.255843 17.921848
v 29.247215 4.335971 17.543024
v 28.513821 4.289060 17.895977
v 28.660694 4.313382 17.825289
v 27.034409 4.255844 15.493333
v 27.772243 4.335969 15.036117
v 27.084785 4.289061 15.462105
v 27.222458 4.313381 15.376789
v 25.117275 4.255844 12.996137
v 25.838337 4.335953 12.509208
v 25.166508 4.289059 12.962879
v 25.301048 4.313373 12.872018
v 22.890663 4.255845 10.672800
v 23.545322 4.335964 10.110780
v 22.935364 4.289060 10.634414
v 23.057514 4.313380 10.529542
v 20.514530 4.255845 8.786242
v 21.040936 4.335950 8.106556
v 20.550468 4.289059 8.739820
v 20.648689 4.313374 8.612992
v 10.106183 4.335944 -4.301819
v 4.995161 4.335946 -4.452059
v 14.128695 4.335941 -3.764863
v 18.130062 4.335939 -2.535260
v 21.864702 4.335937 -0.919873
v 25.364838 4.335935 1.113656
v 28.247658 4.335933 3.360994
v 31.140121 4.335931 6.140848
v 33.573372 4.335930 9.326165
v 35.692696 4.335928 12.695468
v 37.108940 4.335927 15.691774
v 39.525616 4.335946 21.747423
v 39.733418 4.342547 26.807989
v 39.840794 4.336099 25.235493
v 4.995161 4.335946 3.384942
v 8.677809 4.335946 3.500595
v 14.791011 4.335950 5.173222
v 18.069658 4.335953 6.863410
v 11.779475 4.335948 4.271324
v 31.455154 4.335966 26.991327
v 31.354748 4.329652 28.171749
v 31.408169 4.335946 24.909319
v 30.506104 4.335964 21.904158
v 28.861336 4.335962 17.728729
v 27.410530 4.335962 15.260248
v 25.484844 4.335946 12.747904
v 23.224384 4.335958 10.386287
v 20.782869 4.335946 8.439746
v 10.056744 3.401743 -4.061687
v 5.425375 3.401757 -4.038930
v 14.024006 3.401739 -3.362966
v 17.975798 3.401736 -2.148597
v 21.664436 3.401732 -0.553108
v 25.116901 3.401728 1.452727
v 27.959301 3.401725 3.668553
v 30.812767 3.401722 6.410927
v 33.215210 3.401720 9.555917
v 35.309006 3.401717 12.884640
v 36.704784 3.401716 15.834955
v 39.102028 3.401734 21.830666
v 39.326424 3.408332 26.454908
v 39.409187 3.401886 25.242912
v 5.425375 3.401752 3.016255
v 8.730756 3.401742 3.109442
v 14.943861 3.401749 4.785943
v 18.269966 3.401753 6.496659
v 11.882637 3.401746 3.869164
v 31.885754 3.401774 27.003727
v 31.828632 3.395458 27.675293
v 31.836967 3.401754 24.842028
v 30.911549 3.401771 21.764841
v 29.247238 3.401768 17.543032
v 27.772263 3.401767 15.036124
v 25.838352 3.401750 12.509215
v 23.545345 3.401762 10.110788
v 21.040956 3.401748 8.106565
v 10.106279 4.945440 -4.302042
v 4.995257 4.945442 -4.452282
v 14.128792 4.945437 -3.765097
v 18.130157 4.945436 -2.535494
v 21.864799 4.945433 -0.920107
v 25.364933 4.945431 1.113422
v 28.247753 4.945429 3.360759
v 31.140217 4.945427 6.140614
v 33.573467 4.945426 9.325931
v 35.692787 4.945425 12.695232
v 37.109035 4.945424 15.691539
v 39.525711 4.945442 21.747187
v 39.733509 4.952043 26.807753
v 39.840889 4.945595 25.235258
v 10.056810 4.890370 -3.910280
v 5.795902 4.890382 -4.022627
v 14.024074 4.890366 -3.363186
v 17.975864 4.890362 -2.148818
v 21.664501 4.890358 -0.553329
v 25.116962 4.890355 1.452503
v 27.959362 4.890352 3.668326
v 30.812824 4.890349 6.410698
v 33.215286 4.945418 9.555675
v 35.309067 4.890344 12.884405
v 36.704849 4.890342 15.834723
v 39.102097 4.890360 21.830484
v 39.350777 4.895034 26.098997
v 39.408840 4.890513 25.248831
v 39.102055 4.695756 21.830481
v 36.704826 4.695738 15.834820
v 35.692741 4.640676 12.695351
v 37.108990 4.640676 15.691656
v 31.140167 4.640679 6.140731
v 33.573418 4.640678 9.326048
v 35.309048 4.695740 12.884509
v 33.215240 4.640670 9.555792
v 25.364887 4.640683 1.113540
v 28.247707 4.640681 3.360876
v 39.525661 4.640694 21.747307
v 39.840839 4.640847 25.235376
v 39.409214 4.640836 25.242790
v 39.350750 4.700495 26.099072
v 10.106231 4.640692 -4.301930
v 4.995208 4.640694 -4.452171
v 39.733463 4.647295 26.807871
v 5.795869 4.695778 -4.022555
v 10.056780 4.695765 -3.910209
v 18.130108 4.640687 -2.535378
v 14.128742 4.640689 -3.764981
v 21.864754 4.640685 -0.919989
v 14.024040 4.695761 -3.363111
v 17.975836 4.695758 -2.148741
v 21.664478 4.695754 -0.553251
v 25.116943 4.695750 1.452586
v 27.959343 4.695747 3.668414
v 30.812809 4.695745 6.410791
v 10.056820 4.945442 -3.910300
v 5.425452 4.945456 -4.039160
v 14.024082 4.945437 -3.363208
v 17.975874 4.945434 -2.148838
v 21.664513 4.945430 -0.553348
v 25.116978 4.945426 1.452486
v 27.959377 4.945424 3.668312
v 30.812843 4.945421 6.410686
v 33.215271 4.890347 9.555684
v 35.309082 4.945416 12.884398
v 36.704861 4.945415 15.834712
v 39.102100 4.945432 21.830423
v 39.326496 4.952030 26.454668
v 39.409267 4.945584 25.242672
v 5.425403 4.640707 -4.039049
v 39.326454 4.647282 26.454782
v 30.812794 4.640673 6.410803
v 33.215256 4.695742 9.555783
v 27.959328 4.640676 3.668429
v 25.116928 4.640678 1.452603
v 21.664465 4.640682 -0.553232
v 17.975826 4.640687 -2.148721
v 14.024032 4.640689 -3.363090
v 10.056770 4.640693 -4.061810
v 35.309036 4.640668 12.884515
v 36.704811 4.640666 15.834831
v 39.102051 4.640684 21.830544
v 39.409637 4.695908 25.236631
v 31.393078 4.695581 11.242840
v 31.393089 4.890185 11.242741
v 37.587456 4.695747 25.258617
v 37.586658 4.890352 25.270817
v 37.279915 4.890199 23.517540
v 37.279877 4.695595 23.517536
v 34.882668 4.890181 17.521780
v 34.882645 4.695577 17.521877
v 33.486889 4.890183 14.571463
v 33.486870 4.695579 14.571566
v 8.234632 4.890209 -2.304702
v 8.234602 4.695604 -2.304631
v 12.201895 4.890204 -1.676129
v 12.201860 4.695600 -1.676054
v 16.153687 4.890201 -0.461761
v 16.153658 4.695597 -0.461684
v 19.842319 4.890197 1.133728
v 19.842299 4.695593 1.133806
v 23.294785 4.890193 3.139561
v 23.294765 4.695589 3.139643
v 26.137180 4.890191 5.355383
v 26.137165 4.695586 5.355472
v 28.990646 4.890187 8.097755
v 28.990631 4.695583 8.097850
v 5.752651 4.890221 -2.322723
v 37.559536 4.894873 26.150715
v 5.752618 4.695617 -2.322652
v 37.559505 4.700334 26.150791
vn -1.0000 -0.0000 -0.0000
vn -0.0000 -1.0000 -0.0000
vn 0.1596 -0.0001 0.9872
vn 0.9977 -0.0000 0.0672
vn 0.9967 -0.0000 -0.0814
vn 0.9287 -0.0000 -0.3709
vn 0.8970 -0.0000 -0.4420
vn 0.8465 -0.0000 -0.5324
vn 0.7751 -0.0000 -0.6318
vn 0.6929 -0.0000 -0.7210
vn 0.6015 -0.0000 -0.7989
vn 0.5024 -0.0000 -0.8647
vn 0.3970 -0.0000 -0.9178
vn 0.2869 -0.0000 -0.9580
vn 0.1280 -0.0000 -0.9918
vn 0.0398 -0.0000 -0.9992
vn -0.0000 1.0000 -0.0000
vn -0.9982 -0.0000 0.0594
vn -0.9581 -0.0000 0.2865
vn -0.9208 -0.0000 0.3901
vn -0.8628 -0.0000 0.5056
vn -0.7569 -0.0000 0.6536
vn 0.6622 -0.0000 0.7493
vn -0.0057 -1.0000 -0.0062
vn -0.6805 -0.0014 -0.7328
vn -0.0337 -0.0000 0.9994
vn -0.2477 -0.0000 0.9688
vn -0.2869 -0.0000 0.9580
vn -0.3970 -0.0000 0.9178
vn -0.5024 -0.0000 0.8647
vn -0.5980 -0.0000 0.8015
vn -0.7213 -0.0000 0.6926
vn -0.9581 -0.0000 0.2864
vn -0.9964 -0.0000 -0.0845
vn 0.1582 -0.0002 0.9874
vn -0.0000 -1.0000 -0.0001
vn -0.0000 1.0000 0.0001
vn -1.0000 -0.0000 -0.0006
vn -0.0009 1.0000 -0.0051
vn -0.0001 1.0000 -0.0000
vn 0.0001 -1.0000 -0.0001
vn 0.9980 -0.0000 0.0629
vn -0.9965 -0.0000 -0.0833
vn 0.1596 -0.0002 0.9872
vn 0.0362 -0.0000 -0.9993
vn 0.1219 -0.0000 -0.9925
vn 0.9967 -0.0000 -0.0813
vn 0.9985 -0.0000 0.0545
vn 0.0042 -1.0000 0.0043
vn 0.0001 -1.0000 -0.0000
vn -0.0001 1.0000 0.0001
vn -0.0329 -0.2171 0.9756
vn -0.9971 -0.0012 -0.0757
vn -0.3092 -0.7881 0.5322
vn -0.4633 -0.6321 0.6211
vn -0.9967 -0.0024 -0.0810
vn -0.0759 -0.0000 0.9971
vn -0.9981 -0.0173 0.0593
vn -0.0240 -0.0000 0.9997
vn -0.2589 0.8268 0.4993
vn -0.3092 0.7881 0.5322
vn -0.5693 -0.0000 0.8221
vn -0.9965 0.0136 -0.0830
vn -0.9963 -0.0000 -0.0857
vn -0.5759 -0.0000 0.8175
vn -0.4603 -0.0000 0.8877
vn -0.2318 -0.0000 0.9728
vn -0.9983 0.0017 0.0583
vn -0.7579 -0.0000 0.6524
vn 0.0057 1.0000 0.0061
vn -0.4591 -0.0002 0.8884
vn -0.0036 -1.0000 -0.0060
vn 0.0020 -1.0000 -0.0006
vn -0.0011 -1.0000 0.0049
vn -1.0000 -0.0005 -0.0000
vn 0.1607 0.0001 0.9870
vn -0.2869 -0.0001 0.9580
vn 0.9977 0.0005 0.0682
vn -0.2485 -0.0001 0.9686
vn 0.7941 -0.0000 -0.6078
vn -0.0341 -0.0000 0.9994
vn -0.5024 -0.0002 0.8647
vn 0.2937 0.0001 -0.9559
vn -0.9964 -0.0005 -0.0845
vn 0.3970 0.0002 -0.9178
vn -0.9997 -0.0005 0.0226
vn 0.5024 0.0002 -0.8647
vn -0.9579 -0.0004 0.2870
vn 0.6148 0.0003 -0.7887
vn -0.9305 -0.0004 0.3662
vn 0.6929 0.0003 -0.7210
vn -0.8624 -0.0004 0.5063
vn 0.7947 0.0003 -0.6070
vn -0.7932 -0.0004 0.6090
vn 0.8465 0.0004 -0.5324
vn -0.7220 -0.0003 0.6919
vn 0.9042 0.0004 -0.4270
vn -0.6218 -0.0002 0.7832
vn 0.9290 0.0004 -0.3700
vn 0.9959 0.0004 -0.0903
vn 0.0157 0.8588 -0.5120
vn 0.0048 0.9875 -0.1577
vn 0.0032 0.9942 -0.1078
vn 0.0664 0.8561 -0.5126
vn 0.0208 0.9872 -0.1583
vn 0.0145 0.9940 -0.1083
vn 0.1463 0.8671 -0.4762
vn 0.0447 0.9884 -0.1454
vn 0.0306 0.9946 -0.0995
vn 0.1973 0.8677 -0.4562
vn 0.0602 0.9884 -0.1392
vn 0.0412 0.9946 -0.0952
vn 0.2490 0.8686 -0.4285
vn 0.0759 0.9885 -0.1307
vn 0.0519 0.9946 -0.0894
vn 0.3035 0.8697 -0.3893
vn 0.0925 0.9886 -0.1186
vn 0.0632 0.9947 -0.0811
vn 0.3410 0.8705 -0.3548
vn 0.1038 0.9887 -0.1080
vn 0.0710 0.9947 -0.0738
vn 0.3893 0.8718 -0.2974
vn 0.1183 0.9889 -0.0904
vn 0.0809 0.9948 -0.0618
vn 0.4136 0.8725 -0.2602
vn 0.1256 0.9889 -0.0790
vn 0.0859 0.9948 -0.0540
vn 0.4401 0.8735 -0.2079
vn 0.1335 0.9890 -0.0631
vn 0.0913 0.9949 -0.0431
vn 0.4516 0.8739 -0.1799
vn 0.1369 0.9891 -0.0546
vn 0.0936 0.9949 -0.0374
vn 0.0970 0.9953 0.0020
vn 0.1437 0.9896 0.0050
vn 0.4818 0.8758 0.0285
vn -0.1004 0.9949 -0.0000
vn -0.1469 0.9892 -0.0000
vn -0.4848 0.8746 -0.0000
vn -0.0037 0.9936 0.1127
vn -0.0056 0.9864 0.1644
vn -0.0180 0.8491 0.5280
vn -0.2276 0.8685 0.4403
vn -0.0694 0.9885 0.1343
vn -0.0474 0.9946 0.0919
vn -0.1430 0.8670 0.4773
vn -0.0437 0.9884 0.1458
vn -0.0299 0.9946 0.0997
vn -0.4841 0.8743 -0.0361
vn -0.1476 0.9890 -0.0069
vn -0.1014 0.9948 -0.0031
vn -0.4848 0.8746 0.0109
vn -0.1469 0.9891 0.0033
vn -0.1004 0.9949 0.0023
vn -0.4645 0.8746 0.1392
vn -0.1408 0.9891 0.0422
vn -0.0962 0.9949 0.0289
vn -0.4527 0.8737 0.1782
vn -0.1373 0.9891 0.0541
vn -0.0939 0.9949 0.0370
vn -0.4206 0.8730 0.2470
vn -0.1277 0.9890 0.0750
vn -0.0873 0.9949 0.0513
vn -0.3893 0.8713 0.2988
vn -0.1184 0.9888 0.0908
vn -0.0810 0.9948 0.0621
vn -0.3562 0.8698 0.3413
vn -0.1085 0.9887 0.1039
vn -0.0742 0.9947 0.0710
vn -0.3097 0.8673 0.3898
vn -0.0946 0.9884 0.1190
vn -0.0648 0.9946 0.0813
vn -0.0265 0.9939 0.1067
vn -0.0393 0.9870 0.1559
vn -0.1286 0.8544 0.5034
vn -0.0519 0.9946 0.0894
vn -0.0759 0.9885 0.1307
vn -0.2490 0.8685 0.4286
vn 0.4833 0.8743 -0.0438
vn 0.1465 0.9891 -0.0133
vn 0.1002 0.9949 -0.0091
vn 0.0779 0.8685 0.4895
vn 0.0218 0.9891 0.1454
vn 0.0143 0.9951 0.0974
vn 0.0307 -0.0000 -0.9995
vn 0.2937 -0.0004 -0.9559
vn -0.6553 0.0004 0.7554
vn 0.0294 -0.0004 -0.9996
vn -0.9997 0.0002 -0.0254
vn 0.0001 -1.0000 0.0001
vn 0.0002 -1.0000 0.0051
vn 0.9041 -0.0003 -0.4273
vn 0.7947 -0.0004 -0.6070
vn -0.0002 1.0000 -0.0053
vn 0.6148 -0.0004 -0.7887
vn -0.0003 1.0000 0.0094
vn 0.9959 -0.0002 -0.0900
vn -0.0018 1.0000 -0.0017
vn -0.8465 -0.0000 0.5324
vn 0.7228 -0.0000 -0.6910
vn -0.9039 -0.0000 0.4276
vn 0.6248 -0.0000 -0.7808
vn -0.9285 -0.0000 0.3713
vn 0.2343 -0.0000 -0.9722
vn -0.9977 -0.0000 -0.0681
vn 1.0000 -0.0000 -0.0000
vn -0.9960 -0.0000 0.0897
vn 0.0282 -0.0000 -0.9996
vn 0.0049 -0.0000 1.0000
vn -0.1607 -0.0000 -0.9870
vn 0.4574 -0.0000 -0.8893
vn -0.1735 -0.0000 0.9848
vn -0.2937 -0.0000 0.9559
vn 0.9964 -0.0000 0.0847
vn 0.9997 -0.0000 -0.0226
vn 0.9576 -0.0000 -0.2880
vn -0.6148 -0.0000 0.7887
vn 0.9303 -0.0000 -0.3667
vn -0.6929 -0.0000 0.7210
vn 0.8619 -0.0000 -0.5071
vn -0.7947 -0.0000 0.6070
vn 0.0033 1.0000 -0.0039
vn 0.5024 -0.0004 -0.8647
vn 0.6929 -0.0004 -0.7210
vn 0.8465 -0.0003 -0.5324
vn -0.6926 0.0004 0.7213
vn 0.9288 -0.0003 -0.3707
vn 0.9977 -0.0001 0.0681
vn 0.1323 -0.0004 -0.9912
vn 0.3970 -0.0004 -0.9178
vn -0.7947 0.0004 0.6070
vn -0.6929 0.0004 0.7210
vn -0.6148 0.0004 0.7887
vn -0.5024 0.0004 0.8647
vn -0.3970 0.0004 0.9178
vn -0.6927 0.0004 0.7213
vn -0.2937 0.0004 0.9559
vn -0.1735 0.0004 0.9848
vn -0.8465 0.0003 0.5324
vn -0.9039 0.0003 0.4277
vn -0.9285 0.0003 0.3713
vn -0.9977 0.0001 -0.0681
vn -0.9960 0.0002 0.0897
vn 0.0049 0.0004 1.0000
vn -0.0264 0.0004 0.9997
vn -0.1366 0.0004 0.9906
vn -0.7947 0.0003 0.6070
vn -0.9285 0.0004 0.3712
vn -0.9977 0.0002 -0.0681
vn -0.9958 0.0177 0.0894
vn -0.0445 0.0004 0.9990
vn -0.0600 -0.9382 0.3408
vn -0.9039 0.0003 0.4276
vn -0.9959 0.0002 0.0899
vn 0.0047 -0.3156 0.9489
vn -0.0073 0.0004 1.0000
vn -0.9849 -0.0148 0.1723
vn -0.9995 0.0002 -0.0308
vn -0.9285 0.0002 0.3713
vn -0.8465 0.0004 0.5324
vn -0.1565 0.0004 0.9877
vn 0.0289 0.0004 0.9996
vn 0.0012 -1.0000 -0.0056
vn -0.0348 -0.9994 0.0028
vn -0.0044 -1.0000 0.0019
vn 0.0011 -1.0000 -0.0001
vn 0.0012 -1.0000 -0.0003
vn -0.0010 -1.0000 0.0009
vn 0.0011 -1.0000 -0.0003
vn 0.9977 0.0024 0.0682
vn -0.9965 -0.0024 -0.0834
vn 0.1582 -0.0001 0.9874
vn -0.0042 1.0000 -0.0043
vn 0.9978 0.0024 0.0669
vn -0.9965 -0.0024 -0.0831
vn 0.9985 0.0024 0.0547
vn 0.0009 -1.0000 0.0051
vn -0.2589 -0.8268 0.4993
vn -0.9968 0.0136 -0.0785
vn -0.9981 -0.0172 0.0583
vn -0.9967 -0.0025 -0.0807
vn -0.9982 -0.0000 0.0604
vn -0.0329 0.2171 0.9756
vn -0.4633 0.6321 0.6211
vn -0.9971 -0.0025 -0.0757
vn 0.0023 -1.0000 0.0011
vn 0.1607 -0.0000 0.9870
vn -0.9579 -0.0005 0.2870
vn 0.7947 0.0004 -0.6070
vn -0.6218 -0.0003 0.7832
vn 0.9959 0.0005 -0.0903
vn 0.0158 0.8550 -0.5183
vn 0.0048 0.9871 -0.1603
vn 0.0032 0.9940 -0.1097
vn 0.0641 0.8655 -0.4967
vn 0.0197 0.9882 -0.1519
vn 0.0136 0.9945 -0.1039
vn 0.3035 0.8696 -0.3894
vn 0.4137 0.8725 -0.2602
vn 0.4410 0.8730 -0.2083
vn 0.1339 0.9890 -0.0632
vn 0.0915 0.9949 -0.0432
vn 0.4550 0.8719 -0.1812
vn 0.1383 0.9889 -0.0551
vn 0.0945 0.9948 -0.0377
vn 0.1005 0.9949 0.0028
vn 0.1468 0.9891 0.0055
vn 0.4839 0.8747 0.0288
vn -0.0034 0.9939 0.1098
vn -0.0053 0.9870 0.1605
vn -0.0175 0.8548 0.5186
vn -0.2290 0.8667 0.4432
vn -0.0699 0.9883 0.1354
vn -0.0478 0.9946 0.0926
vn -0.1429 0.8670 0.4773
vn -0.4832 0.8747 -0.0360
vn -0.1466 0.9892 -0.0069
vn -0.1002 0.9950 -0.0032
vn -0.4847 0.8746 0.0109
vn -0.1469 0.9892 0.0033
vn -0.4660 0.8737 0.1396
vn -0.1413 0.9891 0.0424
vn -0.0966 0.9949 0.0290
vn -0.4536 0.8731 0.1786
vn -0.1377 0.9890 0.0542
vn -0.0941 0.9949 0.0371
vn -0.4217 0.8723 0.2476
vn -0.1281 0.9889 0.0752
vn -0.0876 0.9948 0.0514
vn -0.3876 0.8725 0.2976
vn -0.1177 0.9889 0.0903
vn -0.0805 0.9948 0.0617
vn -0.3550 0.8708 0.3402
vn -0.1080 0.9887 0.1035
vn -0.0739 0.9948 0.0707
vn -0.3062 0.8704 0.3857
vn -0.0932 0.9887 0.1174
vn -0.0638 0.9947 0.0802
vn -0.0255 0.9946 0.1008
vn -0.0376 0.9884 0.1473
vn -0.1237 0.8672 0.4823
vn 0.4828 0.8746 -0.0437
vn 0.1466 0.9891 -0.0133
vn 0.1003 0.9949 -0.0091
vn 0.0790 0.8644 0.4966
vn 0.0234 0.9875 0.1561
vn 0.0159 0.9939 0.1088
vn -0.0001 1.0000 -0.0001
vn 0.0002 -1.0000 0.0053
vn -0.0002 1.0000 -0.0051
vn 0.0061 1.0000 0.0059
vn -0.0015 1.0000 0.0016
vn 0.0333 0.9994 -0.0030
vn -0.0002 1.0000 0.0094
vn -0.0009 1.0000 -0.0000
vn 0.0038 1.0000 -0.0016
vn -0.0008 1.0000 -0.0002
vn -0.9039 -0.0000 0.4277
vn 0.9964 -0.0000 0.0848
vn -0.0001 1.0000 -0.0053
vn -0.0276 0.1123 0.9933
vn -0.9285 0.0005 0.3713
vn -0.9958 0.0177 0.0896
vn -0.0090 -0.9399 0.3414
vn -0.9848 0.0002 0.1740
vn -0.9995 -0.0021 -0.0313
vt 0.099911 0.008101
vt 0.376877 0.909209
vt 0.866146 0.324692
vt 0.417467 0.008101
vt 0.376877 0.691872
vt 0.612279 0.411569
vt 0.012688 0.954525
vt 0.089343 0.413123
vt 0.408507 0.413214
vt 0.012688 0.737205
vt 0.010163 0.430640
vt 0.410444 0.909201
vt 0.068579 0.043945
vt 0.432232 0.909195
vt 0.048515 0.071476
vt 0.612279 0.698278
vt 0.449578 0.909189
vt 0.033098 0.102039
vt 0.611581 0.678802
vt 0.021398 0.134097
vt 0.611018 0.656247
vt 0.013586 0.167183
vt 0.610599 0.630944
vt 0.009777 0.200814
vt 0.610330 0.603260
vt 0.010025 0.234499
vt 0.610213 0.573600
vt 0.014328 0.267747
vt 0.610252 0.542396
vt 0.022622 0.300074
vt 0.610419 0.510739
vt 0.033999 0.330783
vt 0.610858 0.456591
vt 0.057079 0.380763
vt 0.611407 0.427136
vt 0.076886 0.402844
vt 0.009294 0.446205
vt 0.396081 0.402936
vt 0.376182 0.380938
vt 0.008745 0.475660
vt 0.352894 0.331054
vt 0.008306 0.529809
vt 0.341390 0.300392
vt 0.008140 0.561465
vt 0.332962 0.268100
vt 0.008101 0.592669
vt 0.328522 0.234870
vt 0.008217 0.622330
vt 0.328134 0.201186
vt 0.008486 0.650013
vt 0.331803 0.167540
vt 0.008905 0.675317
vt 0.339478 0.134422
vt 0.009468 0.697871
vt 0.449578 0.691852
vt 0.351044 0.102316
vt 0.010165 0.717347
vt 0.366335 0.071689
vt 0.432232 0.691859
vt 0.386284 0.044075
vt 0.410444 0.691865
vt 0.545056 0.991899
vt 0.336757 0.436084
vt 0.328134 0.909197
vt 0.546593 0.429415
vt 0.151920 0.057353
vt 0.866146 0.396320
vt 0.526729 0.971126
vt 0.336832 0.463582
vt 0.495031 0.896108
vt 0.336737 0.543370
vt 0.503046 0.925239
vt 0.336820 0.514817
vt 0.514311 0.948211
vt 0.336832 0.489503
vt 0.140404 0.945824
vt 0.540213 0.696703
vt 0.545056 0.692859
vt 0.144942 0.946039
vt 0.127152 0.945825
vt 0.525789 0.711713
vt 0.115948 0.945824
vt 0.335604 0.667285
vt 0.512904 0.733537
vt 0.335988 0.646664
vt 0.496600 0.769742
vt 0.336189 0.632109
vt 0.489858 0.792024
vt 0.336363 0.613241
vt 0.487080 0.816818
vt 0.336534 0.592166
vt 0.485511 0.843457
vt 0.489471 0.871315
vt 0.336653 0.566957
vt 0.150750 0.736454
vt 0.086340 0.953278
vt 0.150712 0.366240
vt 0.546682 0.463315
vt 0.129314 0.082898
vt 0.546621 0.539180
vt 0.096371 0.152477
vt 0.546670 0.514550
vt 0.105116 0.128516
vt 0.546682 0.489235
vt 0.116639 0.105673
vt 0.140223 0.735959
vt 0.139593 0.357366
vt 0.127078 0.735960
vt 0.125452 0.342285
vt 0.115874 0.735959
vt 0.545454 0.667018
vt 0.112813 0.320317
vt 0.545838 0.646397
vt 0.096918 0.283931
vt 0.546039 0.631842
vt 0.090427 0.261574
vt 0.546212 0.612974
vt 0.087928 0.236751
vt 0.546383 0.591899
vt 0.086659 0.210095
vt 0.546537 0.562767
vt 0.090532 0.177206
vt 0.827764 0.416295
vt 0.376877 0.866235
vt 0.140238 0.778932
vt 0.827764 0.011124
vt 0.569336 0.410945
vt 0.012688 0.911555
vt 0.567476 0.510116
vt 0.770306 0.092001
vt 0.150750 0.779427
vt 0.086340 0.910308
vt 0.503651 0.539235
vt 0.127093 0.778933
vt 0.503069 0.631897
vt 0.503242 0.613028
vt 0.503413 0.591954
vt 0.503567 0.562822
vt 0.503623 0.429470
vt 0.328134 0.866224
vt 0.410444 0.866228
vt 0.797379 0.379644
vt 0.432232 0.866222
vt 0.778043 0.351599
vt 0.449578 0.866215
vt 0.569336 0.697654
vt 0.763429 0.320643
vt 0.568639 0.678178
vt 0.752571 0.288291
vt 0.568076 0.655624
vt 0.745627 0.255012
vt 0.567657 0.630320
vt 0.742698 0.221294
vt 0.567387 0.602637
vt 0.743826 0.187627
vt 0.567271 0.572976
vt 0.748996 0.154502
vt 0.502484 0.667073
vt 0.115889 0.778932
vt 0.567310 0.541772
vt 0.758131 0.122403
vt 0.567915 0.455967
vt 0.794684 0.042641
vt 0.503712 0.463370
vt 0.503700 0.514605
vt 0.568464 0.426512
vt 0.815061 0.021085
vt 0.503712 0.489290
vt 0.502868 0.646451
vt 0.720022 0.010922
vt 0.376877 0.857921
vt 0.176095 0.433049
vt 0.012688 0.903241
vt 0.720023 0.416095
vt 0.174235 0.532219
vt 0.662563 0.335216
vt 0.689637 0.047573
vt 0.410444 0.857913
vt 0.670300 0.075618
vt 0.432232 0.857908
vt 0.655686 0.106574
vt 0.176095 0.719757
vt 0.449578 0.857901
vt 0.644828 0.138927
vt 0.175397 0.700281
vt 0.637883 0.172205
vt 0.174835 0.677727
vt 0.634954 0.205924
vt 0.174416 0.652424
vt 0.174146 0.624740
vt 0.636082 0.239591
vt 0.174030 0.595080
vt 0.641252 0.272716
vt 0.174069 0.563875
vt 0.650387 0.304815
vt 0.174675 0.478070
vt 0.686941 0.384576
vt 0.175224 0.448615
vt 0.707319 0.406132
vt 0.911649 0.303118
vt 0.140136 0.794717
vt 0.916771 0.307104
vt 0.144944 0.794943
vt 0.487832 0.543178
vt 0.866728 0.103884
vt 0.127099 0.794718
vt 0.897456 0.288284
vt 0.487285 0.631917
vt 0.861537 0.207967
vt 0.858763 0.183173
vt 0.487458 0.613048
vt 0.857199 0.156533
vt 0.487629 0.591974
vt 0.861164 0.128676
vt 0.487748 0.566765
vt 0.916771 0.008101
vt 0.487852 0.435891
vt 0.486700 0.667093
vt 0.115895 0.794717
vt 0.884574 0.266458
vt 0.487928 0.463390
vt 0.898440 0.028871
vt 0.487915 0.514625
vt 0.874749 0.074754
vt 0.487928 0.489310
vt 0.886018 0.051784
vt 0.487084 0.646472
vt 0.868276 0.230251
vt 0.791065 0.378936
vt 0.416796 0.866231
vt 0.824621 0.419116
vt 0.379753 0.866239
vt 0.771568 0.351034
vt 0.438730 0.866225
vt 0.456077 0.866219
vt 0.943378 0.298532
vt 0.756955 0.320078
vt 0.942675 0.279056
vt 0.746097 0.287725
vt 0.942107 0.256502
vt 0.739153 0.254447
vt 0.941681 0.231199
vt 0.736224 0.220729
vt 0.941404 0.203515
vt 0.737352 0.187062
vt 0.941280 0.173855
vt 0.742521 0.153937
vt 0.941311 0.142650
vt 0.751657 0.121838
vt 0.941468 0.110994
vt 0.763832 0.091436
vt 0.941893 0.056845
vt 0.788210 0.042076
vt 0.808587 0.020520
vt 0.942435 0.027390
vt 0.008101 0.911574
vt 0.824025 0.008101
vt 0.943378 0.008219
vt 0.716879 0.008101
vt 0.379753 0.857925
vt 0.008101 0.903260
vt 0.935070 0.008101
vt 0.716284 0.419118
vt 0.933160 0.110876
vt 0.656089 0.335781
vt 0.683323 0.048281
vt 0.416796 0.857917
vt 0.663826 0.076183
vt 0.438730 0.857911
vt 0.456077 0.857905
vt 0.649212 0.107139
vt 0.935070 0.298414
vt 0.638354 0.139492
vt 0.934367 0.278938
vt 0.631409 0.172770
vt 0.933799 0.256384
vt 0.933373 0.231080
vt 0.628480 0.206489
vt 0.933096 0.203397
vt 0.629608 0.240156
vt 0.932972 0.173736
vt 0.634778 0.273281
vt 0.933002 0.142532
vt 0.643913 0.305380
vt 0.933585 0.056727
vt 0.680467 0.385141
vt 0.934126 0.027272
vt 0.700845 0.406697
vt 0.328134 0.691861
vt 0.469680 0.057136
vt 0.329273 0.429692
vt 0.447181 0.082776
vt 0.329362 0.463592
vt 0.414526 0.152491
vt 0.329301 0.539457
vt 0.423171 0.128494
vt 0.329349 0.514827
vt 0.434600 0.105603
vt 0.329362 0.489512
vt 0.458598 0.357198
vt 0.140299 0.953295
vt 0.086340 0.735959
vt 0.469680 0.366076
vt 0.150750 0.953790
vt 0.444395 0.342176
vt 0.127155 0.953296
vt 0.431665 0.320261
vt 0.115951 0.953295
vt 0.328134 0.667295
vt 0.415619 0.283941
vt 0.328518 0.646674
vt 0.409035 0.261612
vt 0.328719 0.632119
vt 0.406433 0.236799
vt 0.328892 0.613250
vt 0.405054 0.210149
vt 0.329063 0.592176
vt 0.408790 0.177244
vt 0.329216 0.563044
vt 0.086340 0.901994
vt 0.150750 0.787742
vt 0.328134 0.857909
vt 0.495309 0.429480
vt 0.127096 0.787247
vt 0.140241 0.787246
vt 0.115892 0.787246
vt 0.494170 0.667083
vt 0.494554 0.646462
vt 0.494755 0.631907
vt 0.494929 0.613039
vt 0.495398 0.463380
vt 0.495398 0.489301
vt 0.495386 0.514615
vt 0.495337 0.539246
vt 0.495253 0.562832
vt 0.495100 0.591964
vt 0.127050 0.945826
vt 0.526898 0.695696
vt 0.898333 0.304123
vt 0.126782 0.794720
vt 0.481715 0.895102
vt 0.336876 0.551736
vt 0.487971 0.551544
vt 0.853412 0.104888
vt 0.113798 0.945827
vt 0.512474 0.710707
vt 0.113745 0.794721
vt 0.884140 0.289288
vt 0.336328 0.640475
vt 0.476543 0.791018
vt 0.487423 0.640283
vt 0.848221 0.208971
vt 0.336494 0.622447
vt 0.473847 0.814736
vt 0.487590 0.622254
vt 0.845529 0.185253
vt 0.336665 0.601372
vt 0.472278 0.841376
vt 0.843965 0.158613
vt 0.487761 0.601179
vt 0.476156 0.870309
vt 0.336791 0.575323
vt 0.847848 0.129680
vt 0.487887 0.575131
vt 0.335743 0.675651
vt 0.102594 0.945826
vt 0.499588 0.732531
vt 0.102541 0.794720
vt 0.486838 0.675459
vt 0.871258 0.267462
vt 0.513736 0.969822
vt 0.336966 0.472012
vt 0.488062 0.471819
vt 0.885446 0.030173
vt 0.489731 0.924232
vt 0.336959 0.523183
vt 0.488054 0.522991
vt 0.861433 0.075759
vt 0.500996 0.947204
vt 0.336971 0.497869
vt 0.488067 0.497676
vt 0.872702 0.052789
vt 0.336127 0.655030
vt 0.483285 0.768735
vt 0.487222 0.654837
vt 0.854960 0.231255
vt 0.336891 0.444513
vt 0.532063 0.990595
vt 0.131588 0.946042
vt 0.531741 0.691852
vt 0.903455 0.308108
vt 0.131590 0.794946
vt 0.487986 0.444320
vt 0.903777 0.009403
vt 0.099266 0.008225
vt 0.866680 0.324309
vt 0.906001 0.820477
vt 0.067615 0.043776
vt 0.906006 0.854343
vt 0.047064 0.071970
vt 0.906011 0.876660
vt 0.031099 0.104190
vt 0.906016 0.894659
vt 0.961617 0.295089
vt 0.019116 0.137023
vt 0.960899 0.275142
vt 0.011116 0.170908
vt 0.960319 0.252043
vt 0.008101 0.202216
vt 0.959944 0.228182
vt 0.008355 0.236715
vt 0.959663 0.199829
vt 0.013852 0.270716
vt 0.959579 0.168866
vt 0.022346 0.303824
vt 0.959614 0.136908
vt 0.032709 0.330428
vt 0.959772 0.109192
vt 0.056172 0.381111
vt 0.960210 0.054247
vt 0.089017 0.414438
vt 0.849945 0.324382
vt 0.961648 0.008101
vt 0.076259 0.403911
vt 0.960758 0.024044
vt 0.866680 0.397669
vt 0.906016 0.770556
vt 0.152533 0.058668
vt 0.940223 0.969315
vt 0.129626 0.084572
vt 0.939963 0.934950
vt 0.096303 0.160925
vt 0.939655 0.853325
vt 0.104858 0.131307
vt 0.939716 0.882474
vt 0.116659 0.107911
vt 0.939831 0.908400
vt 0.182511 0.828530
vt 0.152533 0.366026
vt 0.849945 0.400530
vt 0.141145 0.356938
vt 0.182167 0.839318
vt 0.129113 0.345017
vt 0.182339 0.850560
vt 0.940223 0.732568
vt 0.116187 0.322524
vt 0.182511 0.862015
vt 0.100245 0.288453
vt 0.939945 0.751270
vt 0.093604 0.265512
vt 0.939813 0.766217
vt 0.089406 0.239144
vt 0.939708 0.785373
vt 0.088084 0.211885
vt 0.939639 0.806912
vt 0.090323 0.186251
vt 0.939622 0.829168
vt 0.259370 0.403362
vt 0.835203 0.770897
vt 0.867851 0.750022
vt 0.901774 0.820476
vt 0.259321 0.411052
vt 0.259315 0.412978
vt 0.900044 0.820516
vt 0.901779 0.854343
vt 0.867518 0.711187
vt 0.900049 0.853985
vt 0.228052 0.377842
vt 0.229072 0.377088
vt 0.901784 0.876660
vt 0.867299 0.677038
vt 0.900054 0.876246
vt 0.207568 0.349679
vt 0.208734 0.349031
vt 0.901790 0.894659
vt 0.965841 0.295150
vt 0.867129 0.642386
vt 0.967585 0.294763
vt 0.900059 0.894214
vt 0.191646 0.317506
vt 0.192886 0.317008
vt 0.965123 0.275203
vt 0.867014 0.609473
vt 0.966868 0.274850
vt 0.179699 0.284723
vt 0.180994 0.284378
vt 0.964543 0.252104
vt 0.866954 0.578038
vt 0.966289 0.251794
vt 0.171729 0.250898
vt 0.173065 0.250726
vt 0.964168 0.228243
vt 0.866957 0.551464
vt 0.965916 0.227979
vt 0.168734 0.219649
vt 0.170086 0.219642
vt 0.963887 0.199890
vt 0.867008 0.524150
vt 0.965635 0.199678
vt 0.169003 0.185214
vt 0.170354 0.185381
vt 0.963803 0.168927
vt 0.867130 0.500126
vt 0.965551 0.168770
vt 0.174506 0.151275
vt 0.175831 0.151604
vt 0.963838 0.136968
vt 0.867290 0.478467
vt 0.965586 0.136864
vt 0.183001 0.118226
vt 0.184287 0.118704
vt 0.963995 0.109252
vt 0.867465 0.463129
vt 0.965743 0.109206
vt 0.193353 0.091681
vt 0.194577 0.092310
vt 0.964433 0.054308
vt 0.867851 0.435646
vt 0.224176 0.859889
vt 0.216803 0.041074
vt 0.966181 0.054336
vt 0.217930 0.041881
vt 0.965872 0.008161
vt 0.845719 0.324309
vt 0.249631 0.016773
vt 0.249468 0.859552
vt 0.198712 0.860282
vt 0.843998 0.324816
vt 0.967585 0.008690
vt 0.249271 0.008101
vt 0.249338 0.009836
vt 0.241959 0.859886
vt 0.964982 0.024105
vt 0.237804 0.019350
vt 0.966728 0.024224
vt 0.236841 0.018353
vt 0.302833 0.362239
vt 0.835203 0.829556
vt 0.677154 0.882888
vt 0.935997 0.969342
vt 0.901790 0.770555
vt 0.310105 0.363003
vt 0.932967 0.967719
vt 0.311932 0.363195
vt 0.900059 0.771224
vt 0.934258 0.968913
vt 0.284142 0.341333
vt 0.677154 0.862885
vt 0.935736 0.934977
vt 0.932718 0.935014
vt 0.288281 0.338365
vt 0.934000 0.934993
vt 0.289325 0.337622
vt 0.249409 0.262823
vt 0.611748 0.914107
vt 0.935429 0.853352
vt 0.254626 0.261451
vt 0.255939 0.261108
vt 0.933692 0.853192
vt 0.935489 0.882501
vt 0.677151 0.833949
vt 0.258256 0.293285
vt 0.612279 0.933910
vt 0.933752 0.882399
vt 0.264501 0.290787
vt 0.263245 0.291286
vt 0.935605 0.908427
vt 0.270451 0.317487
vt 0.677152 0.847682
vt 0.276319 0.314243
vt 0.933868 0.908386
vt 0.275139 0.314892
vt 0.300854 0.055851
vt 0.303106 0.860215
vt 0.612099 0.715306
vt 0.178285 0.828595
vt 0.845719 0.400457
vt 0.309709 0.055892
vt 0.176543 0.829431
vt 0.843965 0.399958
vt 0.311932 0.055903
vt 0.177941 0.839383
vt 0.296382 0.059413
vt 0.612279 0.720798
vt 0.301011 0.064608
vt 0.176216 0.839771
vt 0.300081 0.063563
vt 0.178113 0.850625
vt 0.283349 0.072314
vt 0.611858 0.738847
vt 0.176389 0.851077
vt 0.288904 0.076591
vt 0.287786 0.075734
vt 0.935997 0.732595
vt 0.178285 0.862080
vt 0.269786 0.095951
vt 0.611486 0.765978
vt 0.176562 0.862570
vt 0.275926 0.099157
vt 0.934261 0.732156
vt 0.274691 0.098514
vt 0.935719 0.751297
vt 0.253479 0.130811
vt 0.611079 0.803863
vt 0.933982 0.750889
vt 0.259945 0.133275
vt 0.258644 0.132781
vt 0.935587 0.766244
vt 0.246632 0.154510
vt 0.610964 0.827176
vt 0.933850 0.765870
vt 0.253280 0.156265
vt 0.251943 0.155913
vt 0.935481 0.785400
vt 0.242337 0.181152
vt 0.610965 0.851426
vt 0.933744 0.785038
vt 0.249064 0.182650
vt 0.247712 0.182349
vt 0.935413 0.806938
vt 0.240926 0.209258
vt 0.611088 0.875211
vt 0.933676 0.806621
vt 0.247724 0.209967
vt 0.246357 0.209824
vt 0.935395 0.829195
vt 0.243176 0.236369
vt 0.611343 0.896074
vt 0.249953 0.235702
vt 0.933658 0.828961
vt 0.248590 0.235835
vt 0.230468 0.376057
vt 0.207971 0.772660
vt 0.207973 0.741765
vt 0.259332 0.408420
vt 0.867844 0.754140
vt 0.210331 0.348147
vt 0.207971 0.794559
vt 0.194584 0.316329
vt 0.934640 0.715475
vt 0.207973 0.812329
vt 0.182768 0.283906
vt 0.933945 0.695780
vt 0.174895 0.250491
vt 0.933389 0.673003
vt 0.171937 0.219632
vt 0.933036 0.649484
vt 0.172203 0.185610
vt 0.932779 0.621523
vt 0.177644 0.152053
vt 0.932718 0.590963
vt 0.186048 0.119359
vt 0.932774 0.559400
vt 0.196252 0.093169
vt 0.932949 0.532117
vt 0.219472 0.042984
vt 0.933421 0.477725
vt 0.249434 0.012208
vt 0.934640 0.435317
vt 0.202561 0.860311
vt 0.239123 0.020712
vt 0.933986 0.448203
vt 0.307612 0.362740
vt 0.286860 0.339379
vt 0.261533 0.291969
vt 0.252836 0.261919
vt 0.273530 0.315779
vt 0.298815 0.062138
vt 0.306675 0.055876
vt 0.286263 0.074563
vt 0.273008 0.097636
vt 0.256872 0.132106
vt 0.250121 0.155432
vt 0.245867 0.181939
vt 0.244494 0.209630
vt 0.246733 0.236017
vt 0.541601 0.366170
vt 0.916184 0.710858
vt 0.568551 0.394744
vt 0.883843 0.770555
vt 0.916517 0.749693
vt 0.522966 0.337536
vt 0.915965 0.676709
vt 0.507618 0.306013
vt 0.915796 0.642056
vt 0.496154 0.273915
vt 0.915680 0.609144
vt 0.488602 0.240905
vt 0.915620 0.577709
vt 0.485882 0.210461
vt 0.915623 0.551135
vt 0.486361 0.176900
vt 0.915675 0.523821
vt 0.491947 0.143803
vt 0.915796 0.499797
vt 0.500458 0.111557
vt 0.915956 0.478137
vt 0.510664 0.085827
vt 0.916131 0.462800
vt 0.224176 0.908560
vt 0.533949 0.036261
vt 0.916517 0.435317
vt 0.561308 0.008101
vt 0.249468 0.908223
vt 0.553320 0.014604
vt 0.241959 0.908557
vt 0.883843 0.829214
vt 0.612279 0.353903
vt 0.628483 0.882876
vt 0.593723 0.332877
vt 0.628483 0.862873
vt 0.568148 0.284663
vt 0.563644 0.933082
vt 0.628480 0.833937
vt 0.559498 0.254144
vt 0.563114 0.913280
vt 0.580186 0.308943
vt 0.628481 0.847670
vt 0.607783 0.051042
vt 0.563644 0.719970
vt 0.563465 0.714479
vt 0.612279 0.047508
vt 0.303106 0.908886
vt 0.594668 0.063858
vt 0.563224 0.738020
vt 0.580952 0.087407
vt 0.562852 0.765151
vt 0.564420 0.122161
vt 0.562445 0.803036
vt 0.557420 0.145815
vt 0.562330 0.826349
vt 0.562331 0.850599
vt 0.552953 0.172430
vt 0.551361 0.200526
vt 0.562454 0.874384
vt 0.553436 0.227650
vt 0.562709 0.895247
vt 0.790797 0.798574
vt 0.176217 0.772653
vt 0.176218 0.741758
vt 0.818837 0.831653
vt 0.836093 0.754354
vt 0.771369 0.770165
vt 0.176216 0.794552
vt 0.966371 0.715955
vt 0.176218 0.812322
vt 0.756428 0.737961
vt 0.745432 0.705251
vt 0.965676 0.696260
vt 0.738403 0.671648
vt 0.965120 0.673483
vt 0.964767 0.649964
vt 0.736224 0.640724
vt 0.737347 0.606719
vt 0.964510 0.622003
vt 0.964449 0.591443
vt 0.743631 0.573311
vt 0.752856 0.540838
vt 0.964505 0.559880
vt 0.964680 0.532597
vt 0.763716 0.514914
vt 0.788192 0.465330
vt 0.965152 0.478205
vt 0.202561 0.828559
vt 0.818920 0.435317
vt 0.966371 0.435797
vt 0.808398 0.443559
vt 0.965717 0.448683
vt 0.838650 0.711196
vt 0.681858 0.790176
vt 0.705250 0.817736
vt 0.746303 0.858004
vt 0.838944 0.747088
vt 0.838417 0.677233
vt 0.662874 0.762013
vt 0.838247 0.642581
vt 0.648194 0.730173
vt 0.838132 0.609668
vt 0.637411 0.697840
vt 0.838072 0.578233
vt 0.630557 0.664678
vt 0.838075 0.551659
vt 0.628480 0.634183
vt 0.838126 0.524345
vt 0.629668 0.600640
vt 0.747111 0.574266
vt 0.835378 0.500341
vt 0.645140 0.535609
vt 0.838408 0.478662
vt 0.655888 0.510100
vt 0.838583 0.463324
vt 0.838969 0.435841
vt 0.680213 0.461036
vt 0.224174 0.831004
vt 0.703489 0.848932
vt 0.705777 0.435319
vt 0.247263 0.830767
vt 0.700078 0.439761
vt 0.241996 0.831001
vt 0.224174 0.841143
vt 0.275907 0.785879
vt 0.849106 0.435773
vt 0.251582 0.736816
vt 0.848720 0.463256
vt 0.948640 0.559640
vt 0.948815 0.532357
vt 0.948644 0.621763
vt 0.948584 0.591203
vt 0.240834 0.711307
vt 0.848545 0.478593
vt 0.851254 0.500233
vt 0.949254 0.673243
vt 0.948902 0.649724
vt 0.949287 0.477965
vt 0.949852 0.448443
vt 0.241958 0.844009
vt 0.301473 0.811597
vt 0.247264 0.840902
vt 0.693355 0.848905
vt 0.192094 0.772657
vt 0.851968 0.754247
vt 0.192096 0.741761
vt 0.202561 0.844435
vt 0.950505 0.435557
vt 0.746303 0.847865
vt 0.849082 0.747020
vt 0.300946 0.429179
vt 0.277554 0.456739
vt 0.848788 0.711128
vt 0.950505 0.715715
vt 0.192095 0.812325
vt 0.192093 0.794555
vt 0.949810 0.696020
vt 0.848555 0.677165
vt 0.258569 0.484903
vt 0.848385 0.642512
vt 0.243889 0.516743
vt 0.848270 0.609600
vt 0.233105 0.549076
vt 0.848210 0.578164
vt 0.226250 0.582238
vt 0.848213 0.551590
vt 0.224174 0.612733
vt 0.848264 0.524277
vt 0.225361 0.646277
vt 0.793548 0.796664
vt 0.835781 0.711215
vt 0.819002 0.826597
vt 0.836100 0.750237
vt 0.774497 0.768546
vt 0.835548 0.677253
vt 0.759741 0.736741
vt 0.835378 0.642600
vt 0.748881 0.704433
vt 0.835263 0.609687
vt 0.741948 0.671288
vt 0.835203 0.578252
vt 0.739798 0.640798
vt 0.835206 0.551678
vt 0.740906 0.607252
vt 0.835257 0.524364
vt 0.838247 0.500321
vt 0.635951 0.567669
vt 0.756225 0.542184
vt 0.835539 0.478681
vt 0.766911 0.516650
vt 0.835714 0.463343
vt 0.791120 0.467529
vt 0.836100 0.435861
vt 0.224174 0.828135
vt 0.198712 0.828530
vt 0.819002 0.439886
vt 0.249466 0.827798
vt 0.810893 0.446239
vt 0.241957 0.828132
vt 0.851975 0.750129
vt 0.198712 0.844406
vt 0.249467 0.843675
vt 0.851133 0.524257
vt 0.848385 0.500253
vt 0.231644 0.679248
vt 0.851082 0.551571
vt 0.851079 0.578145
vt 0.851139 0.609580
vt 0.851254 0.642493
vt 0.851424 0.677145
vt 0.851642 0.711294
vt 0.851414 0.478574
vt 0.851589 0.463236
vt 0.851975 0.435754
vt 0.224175 0.844012
vt 0.295690 0.807090
vt 0.241920 0.841140
vt 0.252612 0.677276
vt 0.207284 0.493660
vt 0.197146 0.493733
vt 0.656918 0.569640
vt 0.306137 0.795701
vt 0.845573 0.851086
vt 0.710524 0.451151
vt 0.835434 0.851004
vt 0.701181 0.463007
vt 0.835434 0.859216
vt 0.197835 0.429253
vt 0.207972 0.429179
vt 0.296875 0.783908
vt 0.845573 0.859222
vt 0.676855 0.512071
vt 0.197463 0.456736
vt 0.272549 0.734845
vt 0.207600 0.456662
vt 0.666108 0.537580
vt 0.197296 0.472074
vt 0.261802 0.709336
vt 0.207433 0.472000
vt 0.702310 0.792608
vt 0.197649 0.704708
vt 0.207786 0.704634
vt 0.298007 0.454307
vt 0.197406 0.670645
vt 0.683841 0.763984
vt 0.207544 0.670572
vt 0.279537 0.482932
vt 0.197219 0.635993
vt 0.669161 0.732144
vt 0.207356 0.635919
vt 0.264857 0.514772
vt 0.197087 0.603080
vt 0.658378 0.699811
vt 0.207224 0.603007
vt 0.254073 0.547105
vt 0.197011 0.571645
vt 0.651524 0.666649
vt 0.207148 0.571571
vt 0.247218 0.580267
vt 0.197000 0.545071
vt 0.649447 0.636154
vt 0.207138 0.544997
vt 0.245141 0.610762
vt 0.197037 0.517757
vt 0.650635 0.602611
vt 0.207175 0.517684
vt 0.246329 0.644306
vt 0.716236 0.808393
vt 0.736224 0.857993
vt 0.197835 0.725557
vt 0.835203 0.845757
vt 0.716236 0.446345
vt 0.703489 0.833964
vt 0.736224 0.847854
vt 0.207972 0.725483
vt 0.311933 0.438522
vt 0.311933 0.800571
vt 0.845338 0.845763
vt 0.693355 0.833937
s 0
f 57/124/1 68/140/1 30/64/1
f 24/51/2 153/316/2 154/318/2
f 155/320/3 147/302/3 4/10/3
f 59/127/4 82/166/4 16/35/4
f 16/35/5 82/166/5 79/162/5
f 15/33/6 79/162/6 60/129/6
f 14/31/7 60/129/7 78/160/7
f 13/29/8 78/160/8 76/156/8
f 12/27/9 76/156/9 75/154/9
f 11/25/10 75/154/10 74/152/10
f 10/23/11 74/152/11 73/150/11
f 9/21/12 73/150/12 72/148/12
f 8/19/13 72/148/13 71/146/13
f 7/17/14 71/145/14 70/143/14
f 6/14/15 70/143/15 69/141/15
f 5/12/16 69/141/16 57/124/16
f 46/101/2 213/432/2 214/434/2
f 34/74/17 189/379/17 185/371/17
f 63/134/18 58/125/18 49/106/18
f 77/159/19 63/134/19 50/108/19
f 84/169/20 77/158/20 51/111/20
f 64/135/21 84/169/21 52/113/21
f 65/136/22 64/135/22 53/115/22
f 102/207/2 174/348/2 170/339/2
f 32/70/17 171/341/17 187/375/17
f 107/217/23 29/63/23 193/387/23
f 99/200/24 170/339/24 195/391/24
f 31/68/17 185/371/17 193/388/17
f 36/79/25 100/203/25 195/392/25
f 30/65/26 68/139/26 80/164/26
f 68/139/26 156/323/26 163/331/26
f 83/168/27 48/104/27 45/98/27
f 81/165/28 47/102/28 48/104/28
f 62/133/29 46/100/29 47/102/29
f 67/138/30 56/121/30 46/100/30
f 66/137/31 55/119/31 56/121/31
f 65/136/32 54/117/32 55/119/32
f 162/330/22 161/329/22 64/135/22
f 161/329/21 160/328/21 84/169/21
f 160/328/20 159/327/20 77/158/20
f 159/326/33 157/324/33 63/134/33
f 157/324/18 158/325/18 58/125/18
f 44/95/34 49/106/34 58/125/34
f 59/128/35 86/173/35 128/261/35
f 88/177/36 85/170/36 127/259/36
f 71/147/37 116/237/37 115/233/37
f 57/124/38 114/232/38 127/260/38
f 89/179/36 88/177/36 130/266/36
f 70/144/37 115/233/37 113/229/37
f 90/181/36 89/179/36 131/268/36
f 69/142/37 113/229/37 114/231/37
f 91/184/36 90/181/36 132/271/36
f 82/167/39 59/126/39 126/257/39
f 92/186/36 91/184/36 133/273/36
f 79/163/40 82/167/40 125/254/40
f 93/188/41 92/186/41 134/275/41
f 44/96/3 61/132/3 59/128/3
f 85/171/1 156/322/1 68/140/1
f 2/5/1 141/289/1 156/322/1
f 4/11/42 17/37/42 98/198/42
f 98/198/5 17/37/5 18/40/5
f 97/196/6 18/40/6 19/42/6
f 87/175/7 19/42/7 20/44/7
f 96/194/8 20/44/8 21/46/8
f 95/192/9 21/46/9 22/48/9
f 94/190/10 22/48/10 23/50/10
f 93/189/11 23/50/11 24/52/11
f 92/187/12 24/52/12 25/54/12
f 91/185/13 25/54/13 26/57/13
f 90/183/14 26/55/14 27/59/14
f 89/180/15 27/59/15 28/61/15
f 88/178/16 28/61/16 2/5/16
f 104/210/2 105/212/2 180/359/2
f 33/72/17 187/375/17 189/379/17
f 105/212/2 106/214/2 182/363/2
f 42/92/17 179/358/17 181/361/17
f 106/214/2 101/205/2 172/344/2
f 43/93/17 181/361/17 171/341/17
f 164/332/27 83/168/27 80/164/27
f 165/333/28 81/165/28 83/168/28
f 166/334/29 62/133/29 81/165/29
f 167/335/30 67/138/30 62/133/30
f 168/336/31 66/137/31 67/138/31
f 162/330/32 65/136/32 66/137/32
f 61/131/43 58/125/43 158/325/43
f 61/132/44 155/320/44 86/173/44
f 113/230/45 130/267/45 127/260/45
f 115/234/46 131/269/46 130/267/46
f 116/235/14 132/270/14 131/269/14
f 117/238/13 133/274/13 132/272/13
f 118/240/12 134/276/12 133/274/12
f 119/242/11 135/277/11 134/276/11
f 120/244/10 136/279/10 135/277/10
f 121/246/9 137/281/9 136/279/9
f 122/248/8 138/283/8 137/281/8
f 123/250/7 129/264/7 138/283/7
f 124/252/6 139/285/6 129/264/6
f 125/255/47 140/287/47 139/285/47
f 128/262/48 140/287/48 125/255/48
f 72/149/37 117/239/37 116/237/37
f 98/199/49 140/288/49 128/263/49
f 73/151/37 118/241/37 117/239/37
f 97/197/50 139/286/50 140/288/50
f 74/153/51 119/243/51 118/241/51
f 87/176/50 129/265/50 139/286/50
f 75/155/51 120/245/51 119/243/51
f 96/195/50 138/284/50 129/265/50
f 75/155/51 76/157/51 121/247/51
f 95/193/50 137/282/50 138/284/50
f 76/157/40 78/161/40 122/249/40
f 94/191/41 136/280/41 137/282/41
f 78/161/40 60/130/40 123/251/40
f 94/191/41 93/188/41 135/278/41
f 60/130/40 79/163/40 124/253/40
f 29/63/52 141/291/52 142/293/52
f 33/73/29 144/297/29 143/295/29
f 34/75/27 31/69/27 142/293/27
f 36/79/53 35/76/53 146/301/53
f 37/80/18 148/306/18 146/301/18
f 37/80/19 38/82/19 149/308/19
f 38/83/20 39/85/20 150/311/20
f 39/85/21 40/87/21 151/313/21
f 40/87/22 41/89/22 152/315/22
f 41/89/32 42/91/32 153/317/32
f 32/71/54 143/295/54 154/319/54
f 43/94/55 154/319/55 153/317/55
f 33/73/28 34/75/28 145/299/28
f 36/79/56 147/304/56 155/321/56
f 29/63/57 107/217/57 156/323/57
f 99/201/58 158/325/58 157/324/58
f 108/219/33 102/206/33 157/324/33
f 112/227/20 108/218/20 159/327/20
f 103/208/21 112/227/21 160/328/21
f 104/211/22 103/208/22 161/329/22
f 107/217/59 109/221/59 163/331/59
f 109/221/27 111/225/27 164/332/27
f 111/225/28 110/223/28 165/333/28
f 110/223/60 101/204/60 166/334/60
f 101/204/61 106/215/61 167/335/61
f 106/215/62 105/213/62 168/336/62
f 105/213/32 104/211/32 162/330/32
f 100/203/63 155/321/63 158/325/63
f 195/392/64 170/340/64 169/337/64
f 177/353/32 178/355/32 180/360/32
f 179/357/65 180/360/65 182/364/65
f 181/362/30 182/364/30 172/343/30
f 171/342/66 172/343/66 188/377/66
f 187/376/28 188/377/28 190/381/28
f 189/380/67 190/381/67 186/373/67
f 173/345/68 169/337/68 170/340/68
f 183/366/33 173/345/33 174/347/33
f 191/383/20 183/365/20 184/369/20
f 175/349/21 191/383/21 192/385/21
f 177/353/69 175/349/69 176/351/69
f 196/393/59 193/387/59 185/372/59
f 108/220/2 184/370/2 174/348/2
f 35/77/70 36/78/70 194/390/70
f 112/228/2 192/386/2 184/370/2
f 37/81/17 35/77/17 169/338/17
f 103/209/2 176/352/2 192/386/2
f 38/84/17 37/81/17 173/346/17
f 103/209/2 104/210/2 178/356/2
f 39/86/17 38/84/17 183/367/17
f 109/222/2 107/216/2 196/394/2
f 40/88/17 39/86/17 191/384/17
f 111/226/2 109/222/2 186/374/2
f 40/88/17 175/350/17 177/354/17
f 110/224/2 111/226/2 190/382/2
f 41/90/17 177/354/17 179/358/17
f 101/205/2 110/224/2 188/378/2
f 214/435/71 213/433/71 290/556/71
f 5/13/2 1/1/2 197/395/2
f 47/103/2 214/434/2 215/436/2
f 15/34/2 208/419/2 210/424/2
f 6/15/2 5/13/2 198/398/2
f 44/97/72 216/439/72 217/441/72
f 7/18/2 6/15/2 199/400/2
f 49/107/2 217/441/2 218/443/2
f 8/20/2 7/18/2 200/402/2
f 56/122/2 224/456/2 213/432/2
f 50/109/2 218/443/2 219/446/2
f 9/22/2 8/20/2 201/405/2
f 51/112/2 219/446/2 220/448/2
f 10/24/2 9/22/2 202/407/2
f 52/114/2 220/448/2 221/450/2
f 11/26/2 10/24/2 203/409/2
f 53/116/2 221/450/2 222/452/2
f 12/28/2 11/26/2 204/411/2
f 54/118/2 222/452/2 223/454/2
f 13/30/2 12/28/2 205/413/2
f 55/120/2 223/454/2 224/456/2
f 14/32/2 13/30/2 206/415/2
f 44/97/73 3/8/73 209/421/73
f 14/32/2 207/417/2 208/419/2
f 3/8/74 16/36/74 210/424/74
f 45/99/2 212/430/2 211/428/2
f 30/67/17 211/426/17 197/396/17
f 48/105/2 215/436/2 212/430/2
f 197/397/75 211/427/75 282/541/75
f 209/422/76 273/524/76 302/577/76
f 215/437/77 214/435/77 293/560/77
f 198/399/15 229/465/15 233/470/15
f 209/423/78 210/425/78 278/533/78
f 212/431/79 215/437/79 297/567/79
f 326/616/80 322/610/80 389/731/80
f 211/429/81 212/431/81 286/549/81
f 213/433/82 224/457/82 333/626/82
f 199/401/83 233/470/83 237/475/83
f 217/442/84 216/438/84 302/576/84
f 200/404/85 237/476/85 241/482/85
f 218/444/86 217/442/86 305/582/86
f 201/406/87 241/482/87 245/487/87
f 219/447/88 218/444/88 309/588/88
f 202/408/89 245/487/89 249/492/89
f 220/449/90 219/445/90 313/594/90
f 203/410/91 249/492/91 253/497/91
f 221/451/92 220/449/92 317/602/92
f 204/412/93 253/497/93 257/502/93
f 222/453/94 221/451/94 321/608/94
f 205/414/95 257/502/95 261/507/95
f 223/455/96 222/453/96 325/614/96
f 206/416/97 261/507/97 265/512/97
f 224/457/98 223/455/98 329/620/98
f 207/418/99 265/512/99 269/517/99
f 208/420/100 269/517/100 278/533/100
f 229/465/101 226/461/101 228/464/101
f 231/468/102 228/463/102 227/462/102
f 232/469/103 227/462/103 338/635/103
f 229/465/104 231/467/104 235/472/104
f 231/468/105 232/469/105 236/474/105
f 232/469/106 337/632/106 339/637/106
f 233/470/107 235/472/107 239/479/107
f 235/473/108 236/474/108 240/481/108
f 236/474/109 339/637/109 340/639/109
f 237/476/110 239/478/110 243/484/110
f 239/480/111 240/481/111 244/486/111
f 240/481/112 340/639/112 341/642/112
f 241/482/113 243/484/113 247/489/113
f 243/485/114 244/486/114 248/491/114
f 244/486/115 341/642/115 342/644/115
f 245/487/116 247/489/116 251/494/116
f 247/490/117 248/491/117 252/496/117
f 248/491/118 342/644/118 343/646/118
f 249/492/119 251/494/119 255/499/119
f 251/495/120 252/496/120 256/501/120
f 252/496/121 343/646/121 344/648/121
f 253/497/122 255/499/122 259/504/122
f 255/500/123 256/501/123 260/506/123
f 256/501/124 344/648/124 345/650/124
f 257/502/125 259/504/125 263/509/125
f 259/505/126 260/506/126 264/511/126
f 260/506/127 345/650/127 346/652/127
f 261/507/128 263/509/128 267/514/128
f 263/510/129 264/511/129 268/516/129
f 264/511/130 346/652/130 347/654/130
f 265/512/131 267/514/131 271/521/131
f 267/515/132 268/516/132 272/522/132
f 268/516/133 347/654/133 348/656/133
f 349/658/134 276/531/134 279/534/134
f 276/531/135 275/530/135 280/536/135
f 275/529/136 273/523/136 278/533/136
f 338/635/137 227/462/137 283/542/137
f 227/462/138 228/463/138 284/544/138
f 228/464/139 226/461/139 282/541/139
f 351/663/140 283/542/140 287/551/140
f 283/543/141 284/546/141 288/552/141
f 284/546/142 282/540/142 286/549/142
f 293/560/143 290/556/143 292/559/143
f 295/565/144 292/558/144 291/557/144
f 296/566/145 291/557/145 354/666/145
f 293/560/146 295/564/146 299/571/146
f 295/565/147 296/566/147 300/572/147
f 296/566/148 353/665/148 355/667/148
f 305/582/149 302/576/149 304/579/149
f 307/585/150 304/581/150 303/578/150
f 308/587/151 303/578/151 357/669/151
f 309/588/152 305/582/152 307/586/152
f 311/592/153 307/585/153 308/587/153
f 312/593/154 308/587/154 356/668/154
f 309/588/155 311/591/155 315/598/155
f 311/592/156 312/593/156 316/601/156
f 312/593/157 358/670/157 359/671/157
f 317/602/158 313/594/158 315/600/158
f 319/606/159 315/599/159 316/601/159
f 320/607/160 316/601/160 359/671/160
f 317/602/161 319/605/161 323/611/161
f 319/606/162 320/607/162 324/613/162
f 320/607/163 360/672/163 361/673/163
f 321/608/164 323/611/164 327/617/164
f 323/612/165 324/613/165 328/619/165
f 324/613/166 361/673/166 362/674/166
f 325/614/167 327/617/167 331/623/167
f 327/618/168 328/619/168 332/625/168
f 328/619/169 362/674/169 363/675/169
f 329/620/170 331/623/170 335/630/170
f 331/624/171 332/625/171 336/631/171
f 332/625/172 363/675/172 364/676/172
f 355/667/173 352/664/173 287/551/173
f 300/572/174 287/551/174 288/553/174
f 299/571/175 288/552/175 286/549/175
f 354/666/176 291/557/176 336/631/176
f 291/557/177 292/558/177 335/629/177
f 292/559/178 290/556/178 333/626/178
f 278/533/179 269/517/179 271/521/179
f 280/536/180 271/520/180 272/522/180
f 279/534/181 272/522/181 348/656/181
f 273/524/182 275/528/182 304/580/182
f 275/530/183 276/531/183 303/578/183
f 276/531/184 349/658/184 357/669/184
f 197/397/185 226/461/185 229/465/185
f 440/831/186 441/832/186 395/744/186
f 408/771/37 501/944/37 487/916/37
f 437/823/187 405/764/187 461/871/187
f 435/820/188 436/822/188 394/740/188
f 438/825/189 503/950/189 501/945/189
f 476/892/190 479/898/190 482/906/190
f 420/798/40 418/793/40 481/902/40
f 434/817/191 504/953/191 479/898/191
f 423/805/192 402/759/192 403/760/192
f 425/807/193 400/755/193 401/756/193
f 419/796/194 420/798/194 480/900/194
f 429/812/195 398/751/195 399/752/195
f 225/458/17 338/635/17 351/663/17
f 281/537/17 351/663/17 352/664/17
f 289/554/17 294/562/17 353/665/17
f 298/568/17 355/667/17 353/665/17
f 301/573/196 306/583/196 356/668/196
f 306/583/17 310/589/17 358/670/17
f 314/596/17 359/671/17 358/670/17
f 314/596/17 318/603/17 360/672/17
f 322/609/17 361/673/17 360/672/17
f 326/615/17 362/674/17 361/673/17
f 330/621/17 363/675/17 362/674/17
f 334/627/17 364/676/17 363/675/17
f 298/568/17 285/547/17 352/664/17
f 289/554/17 354/666/17 364/676/17
f 432/815/197 431/814/197 404/763/197
f 301/573/198 357/669/198 349/658/198
f 374/696/17 391/734/17 390/733/17
f 262/508/199 258/503/199 373/695/199
f 326/616/200 390/732/200 391/735/200
f 266/513/201 262/508/201 374/697/201
f 334/628/202 330/622/202 391/735/202
f 266/513/203 375/699/203 376/702/203
f 285/548/204 298/569/204 383/718/204
f 277/532/205 378/706/205 377/704/205
f 334/628/12 392/737/12 382/716/12
f 281/538/206 379/707/206 366/680/206
f 270/519/207 376/700/207 378/706/207
f 285/548/208 380/711/208 379/709/208
f 230/466/209 225/460/209 366/681/209
f 301/574/210 274/526/210 377/704/210
f 294/563/211 289/555/211 382/716/211
f 234/471/212 230/466/212 365/678/212
f 298/569/14 294/561/14 381/714/14
f 238/477/213 234/471/213 367/683/213
f 301/575/214 385/721/214 384/720/214
f 242/483/29 238/477/29 368/685/29
f 310/590/215 306/584/215 384/720/215
f 246/488/30 242/483/30 369/687/30
f 310/590/216 386/725/216 387/727/216
f 250/493/217 246/488/217 370/689/217
f 318/604/218 314/597/218 387/727/218
f 254/498/219 250/493/219 371/691/219
f 322/610/220 318/604/220 388/729/220
f 258/503/221 254/498/221 372/693/221
f 450/848/17 449/846/17 393/738/17
f 451/850/17 395/743/17 393/738/17
f 452/852/17 396/747/17 395/743/17
f 453/854/17 397/748/17 396/747/17
f 454/856/17 398/750/17 397/748/17
f 455/858/17 399/753/17 398/750/17
f 456/860/17 400/754/17 399/753/17
f 415/786/17 401/757/17 400/754/17
f 458/864/17 402/758/17 401/757/17
f 459/866/17 403/761/17 402/758/17
f 460/868/17 404/762/17 403/761/17
f 461/872/222 405/765/222 406/767/222
f 460/868/17 462/874/17 406/767/17
f 442/833/223 397/749/223 398/751/223
f 421/801/50 482/906/50 484/910/50
f 430/813/224 399/752/224 400/755/224
f 426/808/225 401/756/225 402/759/225
f 418/793/40 417/790/40 483/908/40
f 463/876/226 450/849/226 394/742/226
f 424/806/227 403/760/227 404/763/227
f 422/803/50 484/910/50 486/914/50
f 417/790/40 416/788/40 485/912/40
f 437/824/228 432/815/228 406/768/228
f 427/809/50 486/914/50 477/894/50
f 416/788/40 457/863/40 478/897/40
f 441/832/229 435/820/229 393/739/229
f 439/828/36 443/835/36 490/923/36
f 440/830/230 396/745/230 397/749/230
f 340/640/230 440/830/230 442/833/230
f 254/498/231 258/503/231 428/811/231
f 339/638/229 337/633/229 435/820/229
f 250/493/232 254/498/232 465/879/232
f 246/488/233 250/493/233 467/882/233
f 349/659/228 350/662/228 432/815/228
f 242/483/234 246/488/234 468/883/234
f 238/477/235 242/483/235 469/884/235
f 347/655/227 424/806/227 431/814/227
f 225/460/236 463/876/236 436/821/236
f 238/477/237 470/885/237 471/886/237
f 345/651/225 426/808/225 423/805/225
f 343/647/224 430/813/224 425/807/224
f 234/471/238 471/886/238 472/887/238
f 341/643/223 442/833/223 429/812/223
f 350/662/197 348/657/197 431/814/197
f 342/645/195 429/812/195 430/813/195
f 258/503/239 262/508/239 473/888/239
f 344/649/193 425/807/193 426/808/193
f 346/653/192 423/805/192 424/806/192
f 262/508/240 266/513/240 474/889/240
f 266/513/241 270/518/241 475/890/241
f 274/526/242 464/878/242 433/816/242
f 277/532/243 433/816/243 475/891/243
f 337/633/188 338/634/188 436/822/188
f 349/660/187 437/823/187 464/877/187
f 230/466/244 472/887/244 463/876/244
f 340/641/186 339/638/186 441/832/186
f 408/773/245 407/769/245 449/847/245
f 409/774/246 451/851/246 449/847/246
f 410/776/237 452/853/237 451/851/237
f 410/776/235 411/778/235 453/855/235
f 411/778/234 412/780/234 454/857/234
f 413/782/233 455/859/233 454/857/233
f 414/784/232 456/861/232 455/859/232
f 457/862/247 415/787/247 456/861/247
f 457/862/239 416/789/239 458/865/239
f 416/789/240 417/791/240 459/867/240
f 417/791/248 418/792/248 460/869/248
f 419/797/249 461/873/249 462/875/249
f 418/794/250 420/799/250 462/875/250
f 408/773/251 450/849/251 463/876/251
f 419/797/242 434/818/242 464/878/242
f 448/844/231 465/879/231 428/811/231
f 447/842/232 467/882/232 465/879/232
f 446/840/233 468/883/233 467/882/233
f 445/838/234 469/884/234 468/883/234
f 444/836/235 470/885/235 469/884/235
f 443/834/237 471/886/237 470/885/237
f 439/829/252 472/887/252 471/886/252
f 466/880/239 428/811/239 473/888/239
f 422/804/253 427/810/253 473/888/253
f 421/802/241 422/804/241 474/889/241
f 434/818/205 476/893/205 433/816/205
f 476/893/254 421/800/254 475/891/254
f 438/826/255 463/876/255 472/887/255
f 503/951/256 488/918/256 487/917/256
f 479/899/257 480/901/257 481/903/257
f 504/954/258 502/947/258 480/901/258
f 484/911/259 482/905/259 481/904/259
f 486/915/253 484/911/253 483/909/253
f 477/895/260 486/915/260 485/913/260
f 490/922/261 489/920/261 487/917/261
f 492/926/237 491/924/237 489/920/237
f 492/926/235 494/930/235 493/928/235
f 494/930/234 496/934/234 495/932/234
f 496/934/233 498/938/233 497/936/233
f 498/938/232 500/942/232 499/940/232
f 500/942/231 477/895/231 478/896/231
f 438/827/36 439/828/36 488/919/36
f 434/819/262 419/795/262 502/949/262
f 407/770/37 487/916/37 489/921/37
f 466/881/50 477/894/50 500/943/50
f 409/775/37 489/921/37 491/925/37
f 447/843/2 448/845/2 500/943/2
f 410/777/37 491/925/37 493/929/37
f 446/841/36 447/843/36 498/939/36
f 411/779/37 493/929/37 495/933/37
f 445/839/36 446/841/36 496/935/36
f 412/781/37 495/933/37 497/937/37
f 444/837/36 445/839/36 494/931/36
f 413/783/17 497/937/17 499/941/17
f 443/835/36 444/837/36 492/927/36
f 457/863/40 414/785/40 499/941/40
f 57/124/1 30/64/1 1/2/1
f 146/300/263 4/9/263 147/303/263
f 4/9/264 18/39/264 17/38/264
f 18/39/2 20/43/2 19/41/2
f 20/43/2 22/47/2 21/45/2
f 22/47/2 24/51/2 23/49/2
f 24/51/2 26/56/2 25/53/2
f 26/56/2 28/60/2 27/58/2
f 28/60/2 141/290/2 2/4/2
f 28/60/2 142/292/2 141/290/2
f 24/51/2 28/60/2 26/56/2
f 20/43/2 24/51/2 22/47/2
f 4/9/265 20/43/265 18/39/265
f 148/305/266 4/9/266 146/300/266
f 149/307/267 4/9/267 148/305/267
f 4/9/268 24/51/268 20/43/268
f 24/51/2 142/292/2 28/60/2
f 24/51/2 145/298/2 142/292/2
f 149/307/269 24/51/269 4/9/269
f 150/310/2 24/51/2 149/307/2
f 24/51/2 144/296/2 145/298/2
f 24/51/2 143/294/2 144/296/2
f 151/312/2 24/51/2 150/310/2
f 152/314/2 24/51/2 151/312/2
f 24/51/2 154/318/2 143/294/2
f 153/316/2 24/51/2 152/314/2
f 155/320/3 4/10/3 86/173/3
f 59/127/270 16/35/270 3/6/270
f 16/35/47 79/162/47 15/33/47
f 15/33/6 60/129/6 14/31/6
f 14/31/7 78/160/7 13/29/7
f 13/29/8 76/156/8 12/27/8
f 12/27/9 75/154/9 11/25/9
f 11/25/10 74/152/10 10/23/10
f 10/23/11 73/150/11 9/21/11
f 9/21/12 72/148/12 8/19/12
f 8/19/13 71/146/13 7/16/13
f 7/17/14 70/143/14 6/14/14
f 6/14/15 69/141/15 5/12/15
f 5/12/16 57/124/16 1/2/16
f 46/101/2 214/434/2 47/103/2
f 34/74/17 185/371/17 31/68/17
f 63/134/18 49/106/18 50/108/18
f 77/159/19 50/108/19 51/110/19
f 84/169/20 51/111/20 52/113/20
f 64/135/21 52/113/21 53/115/21
f 65/136/22 53/115/22 54/117/22
f 102/207/2 170/339/2 99/200/2
f 32/70/17 187/375/17 33/72/17
f 107/217/23 193/387/23 196/393/23
f 99/200/24 195/391/24 100/202/24
f 31/68/17 193/388/17 29/62/17
f 36/79/25 195/392/25 194/389/25
f 30/65/26 80/164/26 45/98/26
f 68/139/26 163/331/26 80/164/26
f 83/168/27 45/98/27 80/164/27
f 81/165/28 48/104/28 83/168/28
f 62/133/29 47/102/29 81/165/29
f 67/138/30 46/100/30 62/133/30
f 66/137/31 56/121/31 67/138/31
f 65/136/32 55/119/32 66/137/32
f 162/330/22 64/135/22 65/136/22
f 161/329/21 84/169/21 64/135/21
f 160/328/20 77/158/20 84/169/20
f 159/326/19 63/134/19 77/159/19
f 157/324/18 58/125/18 63/134/18
f 44/95/271 58/125/271 61/131/271
f 59/128/272 128/261/272 126/256/272
f 88/177/36 127/259/36 130/266/36
f 71/147/37 115/233/37 70/144/37
f 57/124/38 127/260/38 85/171/38
f 89/179/36 130/266/36 131/268/36
f 70/144/37 113/229/37 69/142/37
f 90/181/36 131/268/36 132/271/36
f 69/142/37 114/231/37 57/123/37
f 91/184/36 132/271/36 133/273/36
f 82/167/273 126/257/273 125/254/273
f 92/186/36 133/273/36 134/275/36
f 79/163/40 125/254/40 124/253/40
f 93/188/41 134/275/41 135/278/41
f 44/96/3 59/128/3 3/7/3
f 85/171/1 68/140/1 57/124/1
f 2/5/1 156/322/1 85/171/1
f 4/11/274 98/198/274 86/172/274
f 98/198/47 18/40/47 97/196/47
f 97/196/6 19/42/6 87/175/6
f 87/175/7 20/44/7 96/194/7
f 96/194/8 21/46/8 95/192/8
f 95/192/9 22/48/9 94/190/9
f 94/190/10 23/50/10 93/189/10
f 93/189/11 24/52/11 92/187/11
f 92/187/12 25/54/12 91/185/12
f 91/185/13 26/57/13 90/182/13
f 90/183/14 27/59/14 89/180/14
f 89/180/15 28/61/15 88/178/15
f 88/178/16 2/5/16 85/171/16
f 104/210/2 180/359/2 178/356/2
f 33/72/17 189/379/17 34/74/17
f 105/212/2 182/363/2 180/359/2
f 42/92/17 181/361/17 43/93/17
f 106/214/2 172/344/2 182/363/2
f 43/93/17 171/341/17 32/70/17
f 164/332/27 80/164/27 163/331/27
f 165/333/28 83/168/28 164/332/28
f 166/334/29 81/165/29 165/333/29
f 167/335/30 62/133/30 166/334/30
f 168/336/31 67/138/31 167/335/31
f 162/330/32 66/137/32 168/336/32
f 61/131/275 158/325/275 155/321/275
f 61/132/44 86/173/44 59/128/44
f 113/230/45 127/260/45 114/232/45
f 115/234/46 130/267/46 113/230/46
f 116/235/14 131/269/14 115/234/14
f 117/238/13 132/272/13 116/236/13
f 118/240/12 133/274/12 117/238/12
f 119/242/11 134/276/11 118/240/11
f 120/244/10 135/277/10 119/242/10
f 121/246/9 136/279/9 120/244/9
f 122/248/8 137/281/8 121/246/8
f 123/250/7 138/283/7 122/248/7
f 124/252/6 129/264/6 123/250/6
f 125/255/47 139/285/47 124/252/47
f 128/262/276 125/255/276 126/258/276
f 72/149/37 116/237/37 71/147/37
f 98/199/277 128/263/277 86/174/277
f 73/151/37 117/239/37 72/149/37
f 97/197/50 140/288/50 98/199/50
f 74/153/51 118/241/51 73/151/51
f 87/176/50 139/286/50 97/197/50
f 75/155/51 119/243/51 74/153/51
f 96/195/50 129/265/50 87/176/50
f 75/155/51 121/247/51 120/245/51
f 95/193/50 138/284/50 96/195/50
f 76/157/40 122/249/40 121/247/40
f 94/191/41 137/282/41 95/193/41
f 78/161/40 123/251/40 122/249/40
f 94/191/41 135/278/41 136/280/41
f 60/130/40 124/253/40 123/251/40
f 29/63/59 142/293/59 31/69/59
f 33/73/278 143/295/278 32/71/278
f 34/75/27 142/293/27 145/299/27
f 36/79/279 146/301/279 147/304/279
f 37/80/280 146/301/280 35/76/280
f 37/80/33 149/308/33 148/306/33
f 38/83/20 150/311/20 149/309/20
f 39/85/21 151/313/21 150/311/21
f 40/87/22 152/315/22 151/313/22
f 41/89/32 153/317/32 152/315/32
f 32/71/54 154/319/54 43/94/54
f 43/94/62 153/317/62 42/91/62
f 33/73/28 145/299/28 144/297/28
f 36/79/281 155/321/281 100/203/281
f 29/63/57 156/323/57 141/291/57
f 99/201/282 157/324/282 102/206/282
f 108/219/19 157/324/19 159/326/19
f 112/227/20 159/327/20 160/328/20
f 103/208/21 160/328/21 161/329/21
f 104/211/22 161/329/22 162/330/22
f 107/217/283 163/331/283 156/323/283
f 109/221/27 164/332/27 163/331/27
f 111/225/28 165/333/28 164/332/28
f 110/223/29 166/334/29 165/333/29
f 101/204/61 167/335/61 166/334/61
f 106/215/284 168/336/284 167/335/284
f 105/213/32 162/330/32 168/336/32
f 100/203/64 158/325/64 99/201/64
f 195/392/285 169/337/285 194/389/285
f 177/353/32 180/360/32 179/357/32
f 179/357/65 182/364/65 181/362/65
f 181/362/30 172/343/30 171/342/30
f 171/342/66 188/377/66 187/376/66
f 187/376/28 190/381/28 189/380/28
f 189/380/67 186/373/67 185/372/67
f 173/345/282 170/340/282 174/347/282
f 183/366/19 174/347/19 184/368/19
f 191/383/20 184/369/20 192/385/20
f 175/349/21 192/385/21 176/351/21
f 177/353/69 176/351/69 178/355/69
f 196/393/59 185/372/59 186/373/59
f 108/220/2 174/348/2 102/207/2
f 35/77/70 194/390/70 169/338/70
f 112/228/2 184/370/2 108/220/2
f 37/81/17 169/338/17 173/346/17
f 103/209/2 192/386/2 112/228/2
f 38/84/17 173/346/17 183/367/17
f 103/209/2 178/356/2 176/352/2
f 39/86/17 183/367/17 191/384/17
f 109/222/2 196/394/2 186/374/2
f 40/88/17 191/384/17 175/350/17
f 111/226/2 186/374/2 190/382/2
f 40/88/17 177/354/17 41/90/17
f 110/224/2 190/382/2 188/378/2
f 41/90/17 179/358/17 42/92/17
f 101/205/2 188/378/2 172/344/2
f 214/435/71 290/556/71 293/560/71
f 5/13/2 197/395/2 198/398/2
f 47/103/2 215/436/2 48/105/2
f 15/34/2 210/424/2 16/36/2
f 6/15/2 198/398/2 199/400/2
f 44/97/72 217/441/72 49/107/72
f 7/18/2 199/400/2 200/402/2
f 49/107/2 218/443/2 50/109/2
f 8/20/2 200/402/2 201/405/2
f 56/122/2 213/432/2 46/101/2
f 50/109/2 219/446/2 51/112/2
f 9/22/2 201/405/2 202/407/2
f 51/112/2 220/448/2 52/114/2
f 10/24/2 202/407/2 203/409/2
f 52/114/2 221/450/2 53/116/2
f 11/26/2 203/409/2 204/411/2
f 53/116/2 222/452/2 54/118/2
f 12/28/2 204/411/2 205/413/2
f 54/118/2 223/454/2 55/120/2
f 13/30/2 205/413/2 206/415/2
f 55/120/2 224/456/2 56/122/2
f 14/32/2 206/415/2 207/417/2
f 44/97/286 209/421/286 216/439/286
f 14/32/2 208/419/2 15/34/2
f 3/8/74 210/424/74 209/421/74
f 45/99/2 211/428/2 30/66/2
f 30/67/17 197/396/17 1/3/17
f 48/105/2 212/430/2 45/99/2
f 197/397/75 282/541/75 226/461/75
f 209/422/287 302/577/287 216/440/287
f 215/437/77 293/560/77 297/567/77
f 198/399/15 233/470/15 199/401/15
f 209/423/78 278/533/78 273/523/78
f 212/431/79 297/567/79 286/549/79
f 326/616/80 389/731/80 390/732/80
f 211/429/81 286/549/81 282/540/81
f 213/433/82 333/626/82 290/556/82
f 199/401/83 237/475/83 200/403/83
f 217/442/84 302/576/84 305/582/84
f 200/404/85 241/482/85 201/406/85
f 218/444/86 305/582/86 309/588/86
f 201/406/87 245/487/87 202/408/87
f 219/447/288 309/588/288 313/595/288
f 202/408/89 249/492/89 203/410/89
f 220/449/90 313/594/90 317/602/90
f 203/410/91 253/497/91 204/412/91
f 221/451/92 317/602/92 321/608/92
f 204/412/289 257/502/289 205/414/289
f 222/453/94 321/608/94 325/614/94
f 205/414/95 261/507/95 206/416/95
f 223/455/96 325/614/96 329/620/96
f 206/416/97 265/512/97 207/418/97
f 224/457/290 329/620/290 333/626/290
f 207/418/99 269/517/99 208/420/99
f 208/420/291 278/533/291 210/425/291
f 229/465/292 228/464/292 231/467/292
f 231/468/293 227/462/293 232/469/293
f 232/469/294 338/635/294 337/632/294
f 229/465/295 235/472/295 233/470/295
f 231/468/296 236/474/296 235/473/296
f 232/469/297 339/637/297 236/474/297
f 233/470/107 239/479/107 237/475/107
f 235/473/108 240/481/108 239/480/108
f 236/474/109 340/639/109 240/481/109
f 237/476/110 243/484/110 241/482/110
f 239/480/111 244/486/111 243/485/111
f 240/481/112 341/642/112 244/486/112
f 241/482/113 247/489/113 245/487/113
f 243/485/114 248/491/114 247/490/114
f 244/486/115 342/644/115 248/491/115
f 245/487/298 251/494/298 249/492/298
f 247/490/117 252/496/117 251/495/117
f 248/491/118 343/646/118 252/496/118
f 249/492/119 255/499/119 253/497/119
f 251/495/120 256/501/120 255/500/120
f 252/496/121 344/648/121 256/501/121
f 253/497/122 259/504/122 257/502/122
f 255/500/123 260/506/123 259/505/123
f 256/501/124 345/650/124 260/506/124
f 257/502/299 263/509/299 261/507/299
f 259/505/126 264/511/126 263/510/126
f 260/506/127 346/652/127 264/511/127
f 261/507/300 267/514/300 265/512/300
f 263/510/301 268/516/301 267/515/301
f 264/511/302 347/654/302 268/516/302
f 265/512/303 271/521/303 269/517/303
f 267/515/304 272/522/304 271/520/304
f 268/516/305 348/656/305 272/522/305
f 349/658/306 279/534/306 350/661/306
f 276/531/307 280/536/307 279/534/307
f 275/529/308 278/533/308 280/535/308
f 338/635/137 283/542/137 351/663/137
f 227/462/138 284/544/138 283/542/138
f 228/464/139 282/541/139 284/545/139
f 351/663/309 287/551/309 352/664/309
f 283/543/310 288/552/310 287/550/310
f 284/546/311 286/549/311 288/552/311
f 293/560/312 292/559/312 295/564/312
f 295/565/313 291/557/313 296/566/313
f 296/566/314 354/666/314 353/665/314
f 293/560/315 299/571/315 297/567/315
f 295/565/147 300/572/147 299/570/147
f 296/566/148 355/667/148 300/572/148
f 305/582/316 304/579/316 307/586/316
f 307/585/317 303/578/317 308/587/317
f 308/587/318 357/669/318 356/668/318
f 309/588/319 307/586/319 311/591/319
f 311/592/320 308/587/320 312/593/320
f 312/593/154 356/668/154 358/670/154
f 309/588/321 315/598/321 313/595/321
f 311/592/322 316/601/322 315/599/322
f 312/593/323 359/671/323 316/601/323
f 317/602/324 315/600/324 319/605/324
f 319/606/325 316/601/325 320/607/325
f 320/607/326 359/671/326 360/672/326
f 317/602/327 323/611/327 321/608/327
f 319/606/328 324/613/328 323/612/328
f 320/607/329 361/673/329 324/613/329
f 321/608/330 327/617/330 325/614/330
f 323/612/331 328/619/331 327/618/331
f 324/613/332 362/674/332 328/619/332
f 325/614/333 331/623/333 329/620/333
f 327/618/334 332/625/334 331/624/334
f 328/619/335 363/675/335 332/625/335
f 329/620/336 335/630/336 333/626/336
f 331/624/337 336/631/337 335/629/337
f 332/625/338 364/676/338 336/631/338
f 355/667/339 287/551/339 300/572/339
f 300/572/340 288/553/340 299/570/340
f 299/571/341 286/549/341 297/567/341
f 354/666/176 336/631/176 364/676/176
f 291/557/177 335/629/177 336/631/177
f 292/559/178 333/626/178 335/630/178
f 278/533/342 271/521/342 280/535/342
f 280/536/343 272/522/343 279/534/343
f 279/534/344 348/656/344 350/661/344
f 273/524/345 304/580/345 302/577/345
f 275/530/346 303/578/346 304/581/346
f 276/531/347 357/669/347 303/578/347
f 197/397/185 229/465/185 198/399/185
f 440/831/186 395/744/186 396/746/186
f 408/771/37 487/916/37 407/770/37
f 437/823/187 461/871/187 464/877/187
f 435/820/188 394/740/188 393/739/188
f 438/825/189 501/945/189 408/772/189
f 476/892/50 482/906/50 421/801/50
f 420/798/348 481/902/348 480/900/348
f 434/817/349 479/898/349 476/892/349
f 423/805/192 403/760/192 424/806/192
f 425/807/193 401/756/193 426/808/193
f 419/796/350 480/900/350 502/948/350
f 429/812/195 399/752/195 430/813/195
f 225/458/17 351/663/17 281/537/17
f 281/537/17 352/664/17 285/547/17
f 289/554/17 353/665/17 354/666/17
f 298/568/17 353/665/17 294/562/17
f 301/573/351 356/668/351 357/669/351
f 306/583/17 358/670/17 356/668/17
f 314/596/17 358/670/17 310/589/17
f 314/596/17 360/672/17 359/671/17
f 322/609/17 360/672/17 318/603/17
f 326/615/17 361/673/17 322/609/17
f 330/621/17 362/674/17 326/615/17
f 334/627/17 363/675/17 330/621/17
f 298/568/17 352/664/17 355/667/17
f 289/554/17 364/676/17 334/627/17
f 432/815/197 404/763/197 406/768/197
f 301/573/352 349/658/352 274/525/352
f 379/708/17 365/677/17 366/679/17
f 365/677/17 368/684/17 367/682/17
f 368/684/17 370/688/17 369/686/17
f 370/688/17 372/692/17 371/690/17
f 372/692/17 374/696/17 373/694/17
f 374/696/17 376/701/17 375/698/17
f 376/701/353 377/703/353 378/705/353
f 377/703/354 384/719/354 385/722/354
f 377/703/355 386/724/355 384/719/355
f 374/696/356 377/703/356 376/701/356
f 370/688/17 374/696/17 372/692/17
f 365/677/17 370/688/17 368/684/17
f 380/710/17 365/677/17 379/708/17
f 383/717/17 365/677/17 380/710/17
f 365/677/17 374/696/17 370/688/17
f 374/696/357 386/724/357 377/703/357
f 374/696/17 387/726/17 386/724/17
f 381/712/17 365/677/17 383/717/17
f 382/715/17 365/677/17 381/712/17
f 374/696/17 388/728/17 387/726/17
f 374/696/17 389/730/17 388/728/17
f 382/715/17 374/696/17 365/677/17
f 392/736/17 374/696/17 382/715/17
f 374/696/17 390/733/17 389/730/17
f 391/734/17 374/696/17 392/736/17
f 262/508/199 373/695/199 374/697/199
f 326/616/200 391/735/200 330/622/200
f 266/513/358 374/697/358 375/699/358
f 334/628/202 391/735/202 392/737/202
f 266/513/203 376/702/203 270/518/203
f 285/548/204 383/718/204 380/711/204
f 277/532/205 377/704/205 274/526/205
f 334/628/12 382/716/12 289/555/12
f 281/538/206 366/680/206 225/459/206
f 270/519/207 378/706/207 277/532/207
f 285/548/208 379/709/208 281/539/208
f 230/466/209 366/681/209 365/678/209
f 301/574/210 377/704/210 385/723/210
f 294/563/211 382/716/211 381/713/211
f 234/471/212 365/678/212 367/683/212
f 298/569/14 381/714/14 383/718/14
f 238/477/213 367/683/213 368/685/213
f 301/575/359 384/720/359 306/584/359
f 242/483/29 368/685/29 369/687/29
f 310/590/215 384/720/215 386/725/215
f 246/488/30 369/687/30 370/689/30
f 310/590/216 387/727/216 314/597/216
f 250/493/217 370/689/217 371/691/217
f 318/604/218 387/727/218 388/729/218
f 254/498/219 371/691/219 372/693/219
f 322/610/220 388/729/220 389/731/220
f 258/503/221 372/693/221 373/695/221
f 450/848/17 393/738/17 394/741/17
f 451/850/17 393/738/17 449/846/17
f 452/852/17 395/743/17 451/850/17
f 453/854/17 396/747/17 452/852/17
f 454/856/17 397/748/17 453/854/17
f 455/858/17 398/750/17 454/856/17
f 456/860/17 399/753/17 455/858/17
f 415/786/17 400/754/17 456/860/17
f 458/864/17 401/757/17 415/786/17
f 459/866/17 402/758/17 458/864/17
f 460/868/17 403/761/17 459/866/17
f 461/872/360 406/767/360 462/874/360
f 460/868/17 406/767/17 404/762/17
f 442/833/223 398/751/223 429/812/223
f 421/801/50 484/910/50 422/803/50
f 430/813/224 400/755/224 425/807/224
f 426/808/225 402/759/225 423/805/225
f 418/793/40 483/908/40 481/902/40
f 463/876/226 394/742/226 436/821/226
f 424/806/227 404/763/227 431/814/227
f 422/803/50 486/914/50 427/809/50
f 417/790/40 485/912/40 483/908/40
f 437/824/228 406/768/228 405/766/228
f 427/809/50 477/894/50 466/881/50
f 416/788/40 478/897/40 485/912/40
f 441/832/229 393/739/229 395/744/229
f 439/828/36 490/923/36 488/919/36
f 440/830/230 397/749/230 442/833/230
f 340/640/230 442/833/230 341/643/230
f 254/498/231 428/811/231 465/879/231
f 339/638/229 435/820/229 441/832/229
f 250/493/232 465/879/232 467/882/232
f 246/488/233 467/882/233 468/883/233
f 349/659/228 432/815/228 437/824/228
f 242/483/234 468/883/234 469/884/234
f 238/477/235 469/884/235 470/885/235
f 347/655/227 431/814/227 348/657/227
f 225/460/236 436/821/236 338/636/236
f 238/477/237 471/886/237 234/471/237
f 345/651/225 423/805/225 346/653/225
f 343/647/224 425/807/224 344/649/224
f 234/471/238 472/887/238 230/466/238
f 341/643/223 429/812/223 342/645/223
f 350/662/197 431/814/197 432/815/197
f 342/645/195 430/813/195 343/647/195
f 258/503/239 473/888/239 428/811/239
f 344/649/193 426/808/193 345/651/193
f 346/653/192 424/806/192 347/655/192
f 262/508/253 474/889/253 473/888/253
f 266/513/241 475/890/241 474/889/241
f 274/526/242 433/816/242 277/532/242
f 277/532/243 475/891/243 270/519/243
f 337/633/188 436/822/188 435/820/188
f 349/660/187 464/877/187 274/527/187
f 230/466/244 463/876/244 225/460/244
f 340/641/186 441/832/186 440/831/186
f 408/773/361 449/847/361 450/849/361
f 409/774/246 449/847/246 407/769/246
f 410/776/237 451/851/237 409/774/237
f 410/776/235 453/855/235 452/853/235
f 411/778/234 454/857/234 453/855/234
f 413/782/233 454/857/233 412/780/233
f 414/784/232 455/859/232 413/782/232
f 457/862/231 456/861/231 414/784/231
f 457/862/239 458/865/239 415/787/239
f 416/789/240 459/867/240 458/865/240
f 417/791/241 460/869/241 459/867/241
f 419/797/242 462/875/242 420/799/242
f 418/794/243 462/875/243 460/870/243
f 408/773/251 463/876/251 438/826/251
f 419/797/242 464/878/242 461/873/242
f 448/844/247 428/811/247 466/880/247
f 447/842/232 465/879/232 448/844/232
f 446/840/233 467/882/233 447/842/233
f 445/838/234 468/883/234 446/840/234
f 444/836/235 469/884/235 445/838/235
f 443/834/237 470/885/237 444/836/237
f 439/829/246 471/886/246 443/834/246
f 466/880/239 473/888/239 427/810/239
f 422/804/253 473/888/253 474/889/253
f 421/802/362 474/889/362 475/890/362
f 434/818/242 433/816/242 464/878/242
f 476/893/363 475/891/363 433/816/363
f 438/826/364 472/887/364 439/829/364
f 503/951/256 487/917/256 501/946/256
f 479/899/365 481/903/365 482/907/365
f 504/954/366 480/901/366 479/899/366
f 484/911/241 481/904/241 483/909/241
f 486/915/240 483/909/240 485/913/240
f 477/895/239 485/913/239 478/896/239
f 490/922/261 487/917/261 488/918/261
f 492/926/237 489/920/237 490/922/237
f 492/926/235 493/928/235 491/924/235
f 494/930/234 495/932/234 493/928/234
f 496/934/233 497/936/233 495/932/233
f 498/938/232 499/940/232 497/936/232
f 500/942/231 478/896/231 499/940/231
f 438/827/36 488/919/36 503/952/36
f 434/819/262 502/949/262 504/955/262
f 407/770/37 489/921/37 409/775/37
f 466/881/50 500/943/50 448/845/50
f 409/775/37 491/925/37 410/777/37
f 447/843/2 500/943/2 498/939/2
f 410/777/37 493/929/37 411/779/37
f 446/841/36 498/939/36 496/935/36
f 411/779/37 495/933/37 412/781/37
f 445/839/36 496/935/36 494/931/36
f 412/781/37 497/937/37 413/783/37
f 444/837/36 494/931/36 492/927/36
f 413/783/17 499/941/17 414/785/17
f 443/835/36 492/927/36 490/923/36
f 457/863/40 499/941/40 478/897/40
