# Blender 3.3.1
# www.blender.org
o front_counter_collider2
v 4.505851 0.133796 -5.374201
v 4.505851 3.405633 -5.374201
v 40.814491 0.133796 26.832655
v 8.607638 0.133796 -5.374201
v 36.499588 0.133796 10.729227
v 24.711063 0.133796 -1.059299
v 8.607638 3.405633 -5.374201
v 40.814491 3.405633 26.832655
v 24.711063 3.405633 -1.059299
v 36.499588 3.405633 10.729227
v 5.372198 3.405633 2.485264
v 4.505851 3.405633 2.844117
v 31.740200 3.405633 28.480244
v 24.203705 3.405633 10.285528
v 4.505851 0.133796 2.844117
v 31.740200 0.133796 28.480244
v 5.372198 0.133796 2.485264
v 24.203705 0.133796 10.285528
v 5.417145 4.442700 -4.235083
v 5.417145 4.883130 -4.235083
v 40.814491 4.442700 26.832655
v 13.072979 4.442700 -3.733871
v 35.406033 4.442700 11.549392
v 24.000256 4.442700 0.088932
v 13.072979 4.883130 -3.733871
v 40.814491 4.883130 26.832655
v 24.000256 4.883130 0.088932
v 35.406033 4.883130 11.549392
v 11.843251 4.883130 -1.089055
v 5.736962 4.883130 -2.279402
v 38.211254 4.883130 28.480244
v 30.674759 4.883130 10.285528
v 5.736962 4.442700 -2.279402
v 38.211254 4.442700 28.480244
v 11.843251 4.442700 -1.089055
v 30.674759 4.442700 10.285528
v 23.017410 4.883130 2.800489
v 23.017410 4.442700 2.800489
vn -0.0000 -0.0000 -1.0000
vn -0.0000 1.0000 -0.0000
vn -1.0000 -0.0000 -0.0000
vn 0.2588 -0.0000 -0.9659
vn 0.7071 -0.0000 -0.7071
vn 0.9659 -0.0000 -0.2588
vn 0.1786 -0.0000 0.9839
vn -0.0000 -1.0000 -0.0000
vn -0.3827 -0.0000 0.9239
vn -0.9239 -0.0000 0.3827
vn 0.3827 -0.0000 0.9239
vn 0.0653 -0.0000 -0.9979
vn -0.9869 -0.0000 0.1614
vn 0.3302 -0.0000 -0.9439
vn 0.7088 -0.0000 -0.7054
vn 0.9427 -0.0000 -0.3336
vn 0.5348 -0.0000 0.8450
vn -0.3287 -0.0000 0.9444
vn -0.1913 -0.0000 0.9815
vn -0.6990 -0.0000 0.7151
vt 0.375000 0.500000
vt 0.625000 0.500000
vt 0.375000 0.114681
vt 0.125000 0.635319
vt 0.375000 0.366492
vt 0.241492 0.500000
vt 0.375000 0.182340
vt 0.140607 0.567660
vt 0.375000 0.308246
vt 0.183246 0.518129
vt 0.625000 0.366492
vt 0.758508 0.500000
vt 0.625000 0.114681
vt 0.875000 0.635319
vt 0.816754 0.518129
vt 0.625000 0.308246
vt 0.625000 0.182340
vt 0.859393 0.567660
vt 0.635801 0.549835
vt 1.000000 0.781970
vt 0.000000 0.781970
vt 0.625000 0.552954
vt 0.005751 0.781970
vt 0.812520 0.663981
vt 0.754227 0.781970
vt 0.785828 0.578685
vt 0.875000 0.781970
vt 0.375000 0.552954
vt 0.005751 0.751256
vt 0.375000 0.273460
vt 0.187480 0.663981
vt 0.754227 0.751256
vt 0.000000 0.751256
vt 0.364198 0.549835
vt 1.000000 0.751256
vt 0.214172 0.578685
vt 0.875000 0.751256
vt 0.375000 0.500000
vt 0.625000 0.500000
vt 0.375000 0.114681
vt 0.125000 0.635319
vt 0.375000 0.366492
vt 0.241492 0.500000
vt 0.375000 0.182340
vt 0.140607 0.567660
vt 0.375000 0.308246
vt 0.183246 0.518129
vt 0.625000 0.366492
vt 0.758508 0.500000
vt 0.625000 0.114681
vt 0.875000 0.635319
vt 0.816754 0.518129
vt 0.625000 0.308246
vt 0.625000 0.182340
vt 0.859393 0.567660
vt 0.635801 0.549835
vt 1.000000 0.781970
vt 0.000000 0.781970
vt 0.625000 0.552954
vt 0.005751 0.781970
vt 0.812520 0.663981
vt 0.754227 0.781970
vt 0.785828 0.578685
vt 0.875000 0.781970
vt 0.375000 0.552954
vt 0.005751 0.751256
vt 0.375000 0.273460
vt 0.187480 0.663981
vt 0.754227 0.751256
vt 0.000000 0.751256
vt 0.364198 0.549835
vt 1.000000 0.751256
vt 0.214172 0.578685
vt 0.875000 0.751256
vt 0.709940 0.564092
vt 0.938228 0.781970
vt 0.290060 0.564092
vt 0.938228 0.751256
s 0
f 1/1/1 7/11/1 4/5/1
f 9/15/2 2/2/2 14/26/2
f 1/1/3 12/22/3 2/2/3
f 9/16/4 4/5/4 7/11/4
f 5/7/5 9/16/5 10/17/5
f 8/13/6 5/7/6 10/17/6
f 8/14/7 16/30/7 3/3/7
f 1/1/8 6/10/8 18/36/8
f 14/27/9 17/35/9 18/37/9
f 18/37/10 13/25/10 14/27/10
f 11/21/11 15/29/11 17/33/11
f 19/38/12 25/48/12 22/42/12
f 28/55/2 27/52/2 37/75/2
f 19/38/13 30/59/13 20/39/13
f 27/53/14 22/42/14 25/48/14
f 23/44/15 27/53/15 28/54/15
f 26/50/16 23/44/16 28/54/16
f 26/51/17 34/67/17 21/40/17
f 24/47/8 23/45/8 38/77/8
f 37/76/18 35/72/18 38/78/18
f 36/74/10 31/62/10 32/64/10
f 29/58/19 33/66/19 35/70/19
f 32/64/20 38/78/20 36/74/20
f 1/1/1 2/2/1 7/11/1
f 14/26/2 13/24/2 8/14/2
f 8/14/2 10/18/2 9/15/2
f 9/15/2 7/12/2 2/2/2
f 2/2/2 12/22/2 11/19/2
f 14/26/2 8/14/2 9/15/2
f 2/2/2 11/19/2 14/26/2
f 1/1/3 15/28/3 12/22/3
f 9/16/4 6/9/4 4/5/4
f 5/7/5 6/9/5 9/16/5
f 8/13/6 3/3/6 5/7/6
f 8/14/7 13/24/7 16/30/7
f 17/34/8 15/28/8 1/1/8
f 1/1/8 4/6/8 6/10/8
f 6/10/8 5/8/8 3/4/8
f 3/4/8 16/31/8 18/36/8
f 18/36/8 17/34/8 1/1/8
f 6/10/8 3/4/8 18/36/8
f 14/27/9 11/20/9 17/35/9
f 18/37/10 16/32/10 13/25/10
f 11/21/11 12/23/11 15/29/11
f 19/38/12 20/39/12 25/48/12
f 32/63/2 31/61/2 26/51/2
f 27/52/2 25/49/2 20/39/2
f 20/39/2 30/59/2 29/56/2
f 20/39/2 29/56/2 37/75/2
f 32/63/2 26/51/2 28/55/2
f 27/52/2 20/39/2 37/75/2
f 37/75/2 32/63/2 28/55/2
f 19/38/13 33/65/13 30/59/13
f 27/53/14 24/46/14 22/42/14
f 23/44/15 24/46/15 27/53/15
f 26/50/16 21/40/16 23/44/16
f 26/51/17 31/61/17 34/67/17
f 35/71/8 33/65/8 19/38/8
f 19/38/8 22/43/8 24/47/8
f 23/45/8 21/41/8 34/68/8
f 23/45/8 34/68/8 36/73/8
f 35/71/8 19/38/8 24/47/8
f 23/45/8 36/73/8 38/77/8
f 38/77/8 35/71/8 24/47/8
f 37/76/18 29/57/18 35/72/18
f 36/74/10 34/69/10 31/62/10
f 29/58/19 30/60/19 33/66/19
f 32/64/20 37/76/20 38/78/20
