# Blender 3.3.1
# www.blender.org
o kitchen_collider
v -0.116999 0.007130 -2.827007
v -0.116999 4.172343 -2.827007
v -0.116999 0.007130 2.891969
v -0.116999 4.172343 2.891969
v -20.556404 0.007130 -2.827008
v -20.556404 4.172343 -2.827008
v -20.556404 0.007130 2.891968
v -20.556404 4.172343 2.891968
v -14.963240 0.007130 2.891968
v -14.963240 4.172343 2.891968
v -14.963240 0.007130 -2.827007
v -14.963240 4.172343 -2.827007
v -20.556404 4.172343 -23.389824
v -20.556404 0.007130 -23.389824
v -14.963240 0.007130 -23.389824
v -14.963240 4.172343 -23.389824
v -14.963239 4.172343 -17.739971
v -20.556402 4.172343 -17.739971
v -20.556402 0.007130 -17.739971
v -14.963239 0.007130 -17.739971
v 6.785013 4.172343 -23.389826
v 6.785013 0.007130 -23.389826
v 6.785013 4.172343 -17.739973
v 6.785013 0.007130 -17.739973
v 1.140050 4.172343 -17.739971
v 1.140049 4.172343 -23.389824
v 1.140050 0.007130 -17.739971
v 1.140050 0.007130 -23.389824
v 6.785014 0.007130 -13.153467
v 6.785014 4.172343 -13.153467
v 1.140051 4.172343 -13.153466
v 1.140051 0.007130 -13.153466
v -14.963240 4.172343 -22.628046
v -14.963240 0.007130 -22.628046
v -20.556404 4.172343 -22.628046
v -20.556404 0.007130 -22.628046
v 6.785013 4.172343 -22.628048
v 6.785013 0.007130 -22.628048
v 1.140050 0.007130 -22.628046
v 1.140049 4.172343 -22.628046
v 6.182461 4.172343 -17.739973
v 6.182461 0.007130 -17.739973
v 6.182461 0.007130 -23.389826
v 6.182460 4.172343 -23.389826
v 6.182462 4.172343 -13.153467
v 6.182462 0.007130 -13.153467
v 6.182461 0.007130 -22.628048
v 6.182460 4.172343 -22.628048
v -20.556404 6.161911 -23.389824
v -14.963240 6.161911 -23.389824
v -14.963240 6.161911 -22.628046
v 6.785013 6.161911 -22.628048
v 6.785013 6.161911 -23.389826
v 6.182461 6.161911 -17.739973
v 6.785013 6.161911 -17.739973
v 1.140049 6.161911 -23.389824
v 6.182460 6.161911 -23.389826
v 1.140049 6.161911 -22.628046
v 6.182462 6.161911 -13.153467
v 6.785014 6.161911 -13.153467
v -20.556404 6.161911 -22.628046
v 6.182460 6.161911 -22.628048
v -20.575415 8.038031 2.904314
v -20.575415 12.098069 2.904314
v -20.575415 8.038031 -23.196493
v -20.575415 12.098069 -23.196493
v -17.189341 8.038031 2.904314
v -17.189341 12.098069 2.904314
v -17.189341 8.038031 -23.196493
v -17.189341 12.098069 -23.196493
v -20.575415 8.038031 -2.922152
v -20.575415 12.098069 -2.922152
v -17.189341 8.038031 -2.922151
v -17.189341 12.098069 -2.922151
v -14.651081 12.098069 -2.922151
v -14.651081 12.098069 2.904315
v -14.651081 8.038031 2.904315
v -14.651081 8.038031 -2.922151
v -17.189341 13.393753 -2.922151
v -17.189341 13.393753 2.904314
v -20.575415 13.393753 2.904314
v -20.575415 13.393753 -2.922152
v -14.651081 13.393753 -2.922151
v -14.651081 13.393753 2.904315
vn 1.0000 -0.0000 -0.0000
vn -0.0000 -0.0000 1.0000
vn -1.0000 -0.0000 -0.0000
vn -0.0000 -0.0000 -1.0000
vn -0.0000 -1.0000 -0.0000
vn -0.0000 1.0000 -0.0000
vt 0.375000 0.000000
vt 0.375000 1.000000
vt 0.125000 0.750000
vt 0.625000 0.000000
vt 0.625000 1.000000
vt 0.875000 0.750000
vt 0.125000 0.500000
vt 0.375000 0.250000
vt 0.875000 0.500000
vt 0.625000 0.250000
vt 0.375000 0.750000
vt 0.625000 0.750000
vt 0.375000 0.500000
vt 0.625000 0.500000
vt 0.306588 0.500000
vt 0.375000 0.431588
vt 0.693412 0.500000
vt 0.625000 0.431588
vt 0.306588 0.750000
vt 0.375000 0.818412
vt 0.625000 0.818412
vt 0.693412 0.750000
vt 0.625000 0.750000
vt 0.375000 0.750000
vt 0.375000 0.818412
vt 0.306588 0.750000
vt 0.625000 0.818412
vt 0.625000 0.818411
vt 0.693412 0.750000
vt 0.625000 0.750000
vt 0.375000 0.750000
vt 0.375000 0.818412
vt 0.306588 0.750000
vt 0.625000 0.818412
vt 0.306588 0.750000
vt 0.375000 0.818412
vt 0.625000 0.818411
vt 0.306588 0.750000
vt 0.375000 0.818412
vt 0.625000 0.818411
vt 0.693412 0.750000
vt 0.625000 0.818412
vt 0.306588 0.750000
vt 0.375000 0.818412
vt 0.375000 0.818412
vt 0.306588 0.750000
vt 0.306588 0.750000
vt 0.375000 0.818412
vt 0.625000 0.818411
vt 0.693412 0.750000
vt 0.625000 0.818411
vt 0.375000 0.818412
vt 0.306588 0.750000
vt 0.693412 0.750000
vt 0.306588 0.750000
vt 0.625000 0.750000
vt 0.375000 0.750000
vt 0.625000 0.818411
vt 0.306588 0.750000
vt 0.375000 0.818412
vt 0.306588 0.750000
vt 0.693412 0.750000
vt 0.693412 0.750000
vt 0.306588 0.750000
vt 0.375000 0.818412
vt 0.306588 0.750000
vt 0.625000 0.818412
vt 0.625000 0.818411
vt 0.693412 0.750000
vt 0.375000 0.818412
vt 0.306588 0.750000
vt 0.306588 0.750000
vt 0.693412 0.750000
vt 0.625000 0.750000
vt 0.693412 0.750000
vt 0.625000 0.818412
vt 0.693412 0.750000
vt 0.693412 0.750000
vt 0.625000 0.818411
vt 0.693412 0.750000
vt 0.625000 0.818412
vt 0.693412 0.750000
vt 0.693412 0.750000
vt 0.625000 0.818411
vt 0.693412 0.750000
vt 0.625000 0.818412
vt 0.693412 0.750000
vt 0.625000 0.818412
vt 0.693412 0.750000
vt 0.625000 0.818411
vt 0.693412 0.750000
vt 0.625000 0.818411
vt 0.693412 0.750000
vt 0.625000 0.750000
vt 0.693412 0.750000
vt 0.375000 0.000000
vt 0.375000 1.000000
vt 0.125000 0.750000
vt 0.625000 1.000000
vt 0.625000 0.000000
vt 0.125000 0.500000
vt 0.375000 0.250000
vt 0.625000 0.250000
vt 0.875000 0.500000
vt 0.375000 0.750000
vt 0.625000 0.750000
vt 0.375000 0.500000
vt 0.625000 0.500000
vt 0.125000 0.694193
vt 0.375000 0.055807
vt 0.875000 0.694193
vt 0.625000 0.055807
vt 0.375000 0.694193
vt 0.625000 0.694193
vt 0.625000 0.694193
vt 0.625000 0.750000
vt 0.375000 0.750000
vt 0.375000 0.694193
vt 0.625000 0.694193
vt 0.625000 0.750000
vt 0.875000 0.750000
vt 0.625000 0.000000
vt 0.625000 1.000000
vt 0.875000 0.694193
vt 0.625000 0.055807
vt 0.625000 0.694193
vt 0.625000 0.750000
s 0
f 2/4/1 3/8/1 1/1/1
f 10/18/2 7/13/2 9/16/2
f 8/14/3 5/11/3 7/13/3
f 12/21/4 1/2/4 11/20/4
f 7/13/5 11/19/5 9/15/5
f 4/9/6 12/22/6 10/17/6
f 10/17/6 6/12/6 8/14/6
f 9/15/5 1/3/5 3/7/5
f 30/49/2 59/90/2 45/68/2
f 4/10/2 9/16/2 3/8/2
f 13/23/4 15/25/4 14/24/4
f 35/56/3 14/24/3 36/57/3
f 33/54/2 61/94/2 35/56/2
f 36/57/5 15/26/5 34/55/5
f 5/11/5 20/33/5 11/19/5
f 11/20/1 17/28/1 12/21/1
f 6/12/3 19/31/3 5/11/3
f 6/12/6 17/29/6 18/30/6
f 38/60/1 21/34/1 37/58/1
f 24/38/5 46/71/5 42/64/5
f 43/66/5 38/59/5 47/72/5
f 44/67/4 22/36/4 43/65/4
f 16/27/4 28/45/4 15/25/4
f 15/26/5 39/61/5 34/55/5
f 20/32/2 25/40/2 17/28/2
f 17/29/6 40/62/6 33/54/6
f 46/70/2 30/49/2 45/68/2
f 25/41/6 45/69/6 41/63/6
f 23/37/1 29/48/1 24/39/1
f 27/44/3 31/51/3 25/40/3
f 26/42/4 57/88/4 44/67/4
f 20/33/5 39/61/5 27/43/5
f 42/64/5 38/59/5 24/38/5
f 24/39/1 37/58/1 23/37/1
f 19/31/5 34/55/5 20/33/5
f 21/34/1 52/79/1 37/58/1
f 18/30/3 36/57/3 19/31/3
f 18/30/6 33/54/6 35/56/6
f 23/37/1 60/92/1 30/49/1
f 39/61/5 42/64/5 27/43/5
f 13/23/4 50/76/4 16/27/4
f 32/52/2 45/68/2 31/51/2
f 26/42/4 43/65/4 28/45/4
f 39/61/5 43/66/5 47/72/5
f 42/64/5 32/53/5 27/43/5
f 40/62/6 41/63/6 48/73/6
f 51/77/6 49/74/6 61/94/6
f 62/95/6 55/83/6 52/78/6
f 50/75/6 58/89/6 56/85/6
f 62/95/6 53/80/6 57/87/6
f 58/89/6 57/87/6 56/85/6
f 54/82/6 60/93/6 55/83/6
f 40/62/2 51/77/2 33/54/2
f 48/73/2 58/89/2 40/62/2
f 41/63/3 62/95/3 48/73/3
f 35/56/3 49/74/3 13/23/3
f 16/27/4 56/86/4 26/42/4
f 45/69/3 54/82/3 41/63/3
f 37/58/1 55/84/1 23/37/1
f 44/67/4 53/81/4 21/34/4
f 72/112/3 65/102/3 71/110/3
f 66/103/4 69/107/4 65/102/4
f 67/105/2 76/116/2 68/106/2
f 68/106/2 63/97/2 67/105/2
f 73/113/5 63/98/5 71/109/5
f 72/111/4 79/119/4 74/114/4
f 70/108/6 72/111/6 74/114/6
f 69/107/5 71/109/5 65/101/5
f 70/108/1 73/113/1 69/107/1
f 64/100/3 71/110/3 63/96/3
f 75/115/1 77/117/1 78/118/1
f 74/114/4 78/118/4 73/113/4
f 73/113/5 77/117/5 67/105/5
f 75/115/1 84/127/1 76/116/1
f 82/124/6 80/120/6 79/119/6
f 80/120/6 83/126/6 79/119/6
f 76/116/2 80/120/2 68/106/2
f 74/114/4 83/126/4 75/115/4
f 64/100/3 82/125/3 72/112/3
f 68/106/2 81/123/2 64/99/2
f 2/4/1 4/10/1 3/8/1
f 10/18/2 8/14/2 7/13/2
f 8/14/3 6/12/3 5/11/3
f 12/21/4 2/5/4 1/2/4
f 7/13/5 5/11/5 11/19/5
f 4/9/6 2/6/6 12/22/6
f 10/17/6 12/22/6 6/12/6
f 9/15/5 11/19/5 1/3/5
f 30/49/2 60/92/2 59/90/2
f 4/10/2 10/18/2 9/16/2
f 13/23/4 16/27/4 15/25/4
f 35/56/3 13/23/3 14/24/3
f 33/54/2 51/77/2 61/94/2
f 36/57/5 14/24/5 15/26/5
f 5/11/5 19/31/5 20/33/5
f 11/20/1 20/32/1 17/28/1
f 6/12/3 18/30/3 19/31/3
f 6/12/6 12/22/6 17/29/6
f 38/60/1 22/36/1 21/34/1
f 24/38/5 29/47/5 46/71/5
f 43/66/5 22/35/5 38/59/5
f 44/67/4 21/34/4 22/36/4
f 16/27/4 26/42/4 28/45/4
f 15/26/5 28/46/5 39/61/5
f 20/32/2 27/44/2 25/40/2
f 17/29/6 25/41/6 40/62/6
f 46/70/2 29/48/2 30/49/2
f 25/41/6 31/50/6 45/69/6
f 23/37/1 30/49/1 29/48/1
f 27/44/3 32/52/3 31/51/3
f 26/42/4 56/86/4 57/88/4
f 20/33/5 34/55/5 39/61/5
f 42/64/5 47/72/5 38/59/5
f 24/39/1 38/60/1 37/58/1
f 19/31/5 36/57/5 34/55/5
f 21/34/1 53/81/1 52/79/1
f 18/30/3 35/56/3 36/57/3
f 18/30/6 17/29/6 33/54/6
f 23/37/1 55/84/1 60/92/1
f 39/61/5 47/72/5 42/64/5
f 13/23/4 49/74/4 50/76/4
f 32/52/2 46/70/2 45/68/2
f 26/42/4 44/67/4 43/65/4
f 39/61/5 28/46/5 43/66/5
f 42/64/5 46/71/5 32/53/5
f 40/62/6 25/41/6 41/63/6
f 51/77/6 50/75/6 49/74/6
f 62/95/6 54/82/6 55/83/6
f 50/75/6 51/77/6 58/89/6
f 62/95/6 52/78/6 53/80/6
f 58/89/6 62/95/6 57/87/6
f 54/82/6 59/91/6 60/93/6
f 40/62/2 58/89/2 51/77/2
f 48/73/2 62/95/2 58/89/2
f 41/63/3 54/82/3 62/95/3
f 35/56/3 61/94/3 49/74/3
f 16/27/4 50/76/4 56/86/4
f 45/69/3 59/91/3 54/82/3
f 37/58/1 52/79/1 55/84/1
f 44/67/4 57/88/4 53/81/4
f 72/112/3 66/103/3 65/102/3
f 66/103/4 70/108/4 69/107/4
f 67/105/2 77/117/2 76/116/2
f 68/106/2 64/99/2 63/97/2
f 73/113/5 67/105/5 63/98/5
f 72/111/4 82/124/4 79/119/4
f 70/108/6 66/104/6 72/111/6
f 69/107/5 73/113/5 71/109/5
f 70/108/1 74/114/1 73/113/1
f 64/100/3 72/112/3 71/110/3
f 75/115/1 76/116/1 77/117/1
f 74/114/4 75/115/4 78/118/4
f 73/113/5 78/118/5 77/117/5
f 75/115/1 83/126/1 84/127/1
f 82/124/6 81/121/6 80/120/6
f 80/120/6 84/127/6 83/126/6
f 76/116/2 84/127/2 80/120/2
f 74/114/4 79/119/4 83/126/4
f 64/100/3 81/122/3 82/125/3
f 68/106/2 80/120/2 81/123/2
