# Blender 3.3.1
# www.blender.org
o kleine_theke_1
v 3.048437 4.174713 0.001314
v 3.048437 0.003105 0.001314
v 2.991313 4.174713 4.952437
v 2.991313 0.003105 4.952437
v -2.377716 0.146505 0.667221
v -2.340499 4.174713 0.001314
v -2.386321 0.146506 3.549625
v -2.367753 4.174713 3.549625
v 3.048437 3.349872 0.001314
v -2.340499 3.349872 0.001314
v 2.991313 3.349872 4.952437
v -2.367753 3.349872 3.549625
v 3.048437 3.190285 0.001314
v 2.991313 3.190285 4.952437
v -2.377716 3.046884 0.667221
v -2.367753 3.046884 3.549625
v 3.314249 3.349940 5.446569
v 3.332689 3.349940 0.001583
v 3.332689 3.190353 0.001583
v 3.314249 3.190353 5.446569
v -2.340499 0.003105 0.001314
v -2.386321 0.003105 3.549625
v -2.340499 3.190285 0.001314
v -2.367753 3.190285 3.549625
v -1.706500 0.146549 4.568040
v -1.706500 3.046928 4.568040
v -1.716463 0.146549 1.685637
v -1.716463 3.046928 1.685637
v 3.077673 4.174713 0.056881
v 3.053743 4.174713 5.008612
v -2.443637 4.174713 0.056880
v -2.473017 4.174713 3.653819
v 2.619105 4.335960 1.153803
v 3.077675 4.255846 0.056847
v 2.938380 4.313374 0.254268
v 3.040351 4.289060 0.109737
v 3.053745 4.255846 5.008578
v 2.633861 4.335946 4.919493
v 3.018353 4.289060 5.002482
v 2.921659 4.313373 4.985854
v -1.955920 4.335954 0.831437
v -2.443636 4.255846 0.056847
v -2.319319 4.313374 0.254268
v -2.410325 4.289060 0.109737
v -1.955581 4.335945 3.749058
v -2.473016 4.255846 3.653785
v -2.341125 4.313374 3.678053
v -2.437676 4.289060 3.660281
v 2.789573 4.335944 4.963152
v 2.799084 4.335946 1.148157
v -2.195004 4.335946 0.451710
v -2.209234 4.335946 3.702342
v 2.789718 4.945440 4.963236
v 2.799229 4.945442 1.148242
v 2.535675 4.890370 4.919571
v 2.608528 4.890382 1.158516
v 2.789646 4.640692 4.963194
v 2.799157 4.640694 1.148199
v 2.608481 4.695778 1.158487
v 2.535629 4.695765 4.919545
v 2.535688 4.945442 4.919580
v 2.619250 4.945456 1.153890
v 2.619177 4.640707 1.153847
v 2.633937 4.640693 4.919536
v 1.494518 4.890209 3.311155
v 1.494472 4.695604 3.311129
v 1.506204 4.890221 1.120338
v 1.506158 4.695617 1.120309
v 3.136350 0.003105 20.522612
v -2.427948 0.146549 24.068060
v -2.427948 3.046928 24.068060
v 2.789573 4.335944 23.214697
v 2.789717 4.945440 23.214781
v 2.535675 4.890370 23.171116
v 2.789645 4.640692 23.214739
v 2.535629 4.695765 23.171089
v 2.535688 4.945442 23.171124
v 2.619249 4.945456 21.352821
v 1.494517 4.890209 23.171421
v 1.494471 4.695604 23.171396
v 2.523914 4.335944 23.262335
v -2.531744 4.174713 23.485750
v -2.531743 4.255846 23.485718
v -2.426479 3.190285 23.381557
v -2.426479 3.349872 23.381557
v -2.427103 0.146506 23.381557
v -2.425907 0.146549 23.413000
v -2.399851 4.313374 23.509987
v -2.267961 4.335946 23.534273
v -2.425907 3.046928 23.413000
v -2.426479 3.046884 23.381557
v -2.014308 4.335945 23.580992
v -2.496402 4.289060 23.492214
v -2.427103 0.003105 23.381557
v -2.426479 4.174713 23.381557
v -2.527436 4.174713 22.030910
v -2.422171 3.190285 21.926716
v -2.424111 0.146506 21.926716
v -2.395543 4.313374 22.055147
v -1.760918 3.046928 22.391861
v -2.492094 4.289060 22.037374
v -2.424111 0.003105 21.926716
v -2.527435 4.255846 22.030878
v -2.422171 3.349872 21.926716
v -1.760918 0.146549 22.391861
v -2.263652 4.335946 22.079433
v -2.422171 3.046884 21.926716
v -2.010000 4.335945 22.126152
v -2.422171 4.174713 21.926716
v 2.995099 0.003105 24.069284
v 2.991312 0.003105 24.069284
v -2.359025 0.144725 24.069284
v -2.428460 0.003117 24.069284
v -2.428193 0.085188 24.069284
v 2.896220 4.317637 24.069284
v -0.506892 4.335945 24.069284
v -2.533471 4.255846 24.069284
v -2.533472 4.174713 24.069284
v 2.991312 3.349872 24.069284
v 2.991312 4.174713 24.069284
v -2.428516 3.349872 24.069284
v -2.428516 3.190285 24.069284
v 3.053744 4.255846 24.069284
v 3.018946 4.289060 24.069284
v 3.314249 3.190353 24.069284
v 3.314249 3.349940 24.069284
v -2.428193 0.146531 24.069284
v -2.428517 0.146506 24.069284
v -2.269545 4.335946 24.069284
v -2.401507 4.313374 24.069284
v 2.921063 4.313373 24.069284
v -2.428514 3.046884 24.069284
v -2.428516 3.046884 24.069284
v -2.428193 3.046909 24.069284
v -2.015754 4.335945 24.069284
v 2.991312 3.190285 24.069284
v -2.498111 4.289060 24.069284
v 3.053743 4.174713 24.069284
v -2.428517 0.003105 24.069284
v -2.428516 4.174713 24.069284
v -2.428193 3.176518 24.069284
v -2.359025 3.050781 24.069284
vn -0.0000 -0.0000 -1.0000
vn 0.9999 -0.0000 0.0115
vn -0.8387 -0.0000 0.5446
vn -0.0001 1.0000 -0.0000
vn -1.0000 -0.0000 -0.0077
vn 0.0002 -1.0000 -0.0000
vn 0.0009 -0.0000 -1.0000
vn -0.0002 1.0000 -0.0000
vn 1.0000 -0.0000 0.0034
vn -0.9806 -0.1957 -0.0127
vn -0.9984 -0.0000 -0.0558
vn -1.0000 -0.0000 0.0035
vn 0.0001 -1.0000 -0.0000
vn -0.0000 -1.0000 -0.0000
vn -0.0000 1.0000 -0.0000
vn -0.0000 -0.0004 -1.0000
vn -1.0000 -0.0000 -0.0082
vn 0.6673 0.7448 0.0032
vn 0.2333 0.9724 0.0010
vn 0.1636 0.9865 0.0006
vn 0.0034 0.9997 -0.0247
vn -0.0000 0.9861 -0.1659
vn -0.0000 0.8469 -0.5318
vn -0.1769 0.9842 -0.0011
vn -0.2552 0.9669 -0.0020
vn -0.7015 0.7127 -0.0057
vn 1.0000 -0.0000 0.0048
vn 1.0000 -0.0002 0.0025
vn 0.0346 0.0001 -0.9994
vn 0.0001 1.0000 -0.0005
vn 0.0309 0.9995 -0.0001
vn -0.9993 0.0033 -0.0370
vn 0.0054 0.9998 0.0202
vn -0.0314 0.0002 -0.9995
vn -0.0314 0.0001 -0.9995
vn -1.0000 0.0002 0.0039
vn -0.9998 0.0002 -0.0194
vn -0.3971 0.0002 -0.9178
vn -0.9816 -0.1910 0.0038
vn -1.0000 0.0002 -0.0053
vn -1.0000 -0.0000 -0.0030
vn 1.0000 -0.0000 -0.0000
vn 0.6843 0.7292 -0.0000
vn -0.0768 0.9970 -0.0002
vn -0.1686 0.9857 -0.0005
vn 1.0000 -0.0002 -0.0000
vn 0.2439 0.9698 -0.0000
vn -1.0000 0.0002 -0.0000
vn 0.0770 -0.9970 0.0002
vn -0.2441 0.9698 -0.0007
vn -0.0000 -0.9964 0.0849
vn 0.1691 0.9856 -0.0000
vn -0.6846 0.7289 -0.0020
vn -1.0000 -0.0000 -0.0021
vn -1.0000 -0.0000 -0.0031
vn -0.1694 -0.0001 0.9856
vn -0.9647 -0.2634 -0.0000
vn 0.4136 0.0094 -0.9104
vn -0.9807 -0.0000 -0.1954
vn 0.0261 0.9994 0.0204
vn -0.8380 -0.0000 -0.5457
vn 0.0021 -1.0000 0.0014
vn -0.0000 -0.0000 1.0000
vn -0.9758 0.2184 -0.0075
vn 0.6840 0.7295 0.0031
vn 0.2437 0.9698 0.0009
vn 0.1684 0.9857 0.0004
vn -0.0000 0.9935 -0.1136
vn -0.1686 0.9857 -0.0007
vn -0.2439 0.9698 -0.0016
vn -0.6843 0.7292 -0.0053
vn 0.0302 0.9995 0.0003
vn 0.0264 0.9996 0.0010
vn -0.2260 0.9741 0.0008
vn 0.0305 0.9995 -0.0000
vn 0.0038 0.9998 0.0209
vn 0.0001 1.0000 -0.0000
vn -0.9817 0.1893 -0.0218
vn -0.3970 0.0002 -0.9178
vn -0.4887 -0.8724 -0.0095
vn 0.6904 0.7234 -0.0000
vn -0.0346 0.9994 -0.0001
vn -0.0773 0.9970 -0.0002
vn 0.2411 0.9705 -0.0000
vn 0.0775 -0.9970 0.0002
vn 0.0654 -0.9979 0.0002
vn 0.1692 0.9856 -0.0000
vn 0.1684 0.9857 -0.0000
vn 0.1765 -0.0002 0.9843
vn 0.0003 -0.0001 1.0000
vn -0.1117 0.2477 0.9624
vn -0.9995 0.0310 -0.0060
vn -0.0000 0.0001 -1.0000
vn 0.0177 -0.0000 -0.9998
vn -0.0001 -0.0000 -1.0000
vn -0.9806 -0.0000 -0.1960
vn -0.0020 1.0000 -0.0013
vn -0.0001 -0.0000 1.0000
vn 0.0003 -0.0000 1.0000
vt 0.967350 0.884089
vt 0.579988 0.452311
vt 0.749923 0.006782
vt 0.982627 0.734875
vt 0.858001 0.861590
vt 0.579988 0.858147
vt 0.736318 0.006791
vt 0.165496 0.884609
vt 0.749881 0.095646
vt 0.966075 0.795263
vt 0.166642 0.795746
vt 0.736276 0.095655
vt 0.298051 0.872288
vt 0.398820 0.426755
vt 0.711586 0.452408
vt 0.006878 0.438718
vt 0.952512 0.884107
vt 0.982627 0.603225
vt 0.298117 0.820556
vt 0.398807 0.375026
vt 0.952163 0.820447
vt 0.006871 0.375033
vt 0.830138 0.006784
vt 0.726452 0.452314
vt 0.579988 0.532556
vt 0.087131 0.438718
vt 0.711586 0.532652
vt 0.725150 0.541174
vt 0.830097 0.095648
vt 0.087124 0.375033
vt 0.929094 0.884089
vt 0.579988 0.548081
vt 0.426365 0.006782
vt 0.426323 0.095646
vt 0.927791 0.795263
vt 0.860304 0.006782
vt 0.116626 0.426755
vt 0.116604 0.375033
vt 0.859908 0.058492
vt 0.871565 0.550029
vt 0.733048 0.550034
vt 0.573046 0.532544
vt 0.733397 0.452311
vt 0.871578 0.452305
vt 0.936037 0.884094
vt 0.573046 0.548070
vt 0.887098 0.452307
vt 0.887085 0.550030
vt 0.935688 0.786410
vt 0.711586 0.858243
vt 0.858001 0.993218
vt 0.412757 0.438719
vt 0.297146 0.884240
vt 0.412760 0.375026
vt 0.711586 0.548178
vt 0.102658 0.438719
vt 0.102651 0.375033
vt 0.398443 0.357006
vt 0.914998 0.357295
vt 0.281458 0.802325
vt 0.843702 0.076706
vt 0.116249 0.357006
vt 0.827390 0.977733
vt 0.398465 0.408728
vt 0.281846 0.854055
vt 0.116271 0.408728
vt 0.844099 0.024996
vt 0.968066 0.883093
vt 0.981630 0.735590
vt 0.992779 0.587135
vt 0.887491 0.006783
vt 0.967602 0.794258
vt 0.887473 0.095655
vt 0.981630 0.600705
vt 0.992779 0.452305
vt 0.949997 0.883097
vt 0.900671 0.452305
vt 0.900662 0.516863
vt 0.949601 0.818564
vt 0.384055 0.861885
vt 0.784896 0.849082
vt 0.436624 0.863582
vt 0.879600 0.006782
vt 0.984886 0.587141
vt 0.873879 0.010338
vt 0.428820 0.879726
vt 0.426324 0.882320
vt 0.876336 0.007735
vt 0.981630 0.586205
vt 0.879583 0.095654
vt 0.436264 0.795998
vt 0.784881 0.781511
vt 0.876321 0.095547
vt 0.873868 0.095258
vt 0.429228 0.794807
vt 0.548391 0.869368
vt 0.908565 0.452306
vt 0.984885 0.452311
vt 0.557264 0.879726
vt 0.914227 0.455803
vt 0.559483 0.882320
vt 0.981630 0.453100
vt 0.911814 0.453243
vt 0.548383 0.817004
vt 0.908556 0.516865
vt 0.557797 0.818278
vt 0.914222 0.517252
vt 0.911806 0.516969
vt 0.370954 0.520758
vt 0.432460 0.795215
vt 0.370961 0.452289
vt 0.432227 0.863683
vt 0.388453 0.861885
vt 0.554232 0.876183
vt 0.554580 0.817843
vt 0.934768 0.075251
vt 0.311681 0.520752
vt 0.311688 0.452282
vt 0.934960 0.006782
vt 0.388453 0.921180
vt 0.948524 0.074388
vt 0.410090 0.520354
vt 0.411566 0.452846
vt 0.948556 0.006868
vt 0.383792 0.915824
vt 0.341317 0.520755
vt 0.388453 0.891532
vt 0.341324 0.452285
vt 0.383792 0.896892
vt 0.749893 0.848987
vt 0.825497 0.847351
vt 0.824021 0.779869
vt 0.749924 0.781466
vt 0.928562 0.074471
vt 0.953883 0.074389
vt 0.384055 0.921180
vt 0.953920 0.006782
vt 0.930563 0.006886
vt 0.755246 0.849075
vt 0.384055 0.891532
vt 0.755231 0.781505
vt 0.384525 0.491603
vt 0.857995 0.491630
vt 0.839061 0.491624
vt 0.798460 0.808596
vt 0.384633 0.452282
vt 0.356892 0.915769
vt 0.858001 0.452311
vt 0.356892 0.896837
vt 0.839067 0.452305
vt 0.798569 0.847901
vt 0.162317 0.516315
vt 0.901055 0.007370
vt 0.298103 0.452304
vt 0.398704 0.006804
vt 0.967490 0.006958
vt 0.860290 0.426598
vt 0.116510 0.006804
vt 0.967490 0.289122
vt 0.432460 0.467649
vt 0.370961 0.848321
vt 0.311681 0.861888
vt 0.311688 0.848315
vt 0.934960 0.402816
vt 0.311681 0.921202
vt 0.411566 0.847917
vt 0.948561 0.401915
vt 0.317894 0.915845
vt 0.341324 0.848318
vt 0.311681 0.891545
vt 0.825497 0.452438
vt 0.317894 0.896906
vt 0.749881 0.453940
vt 0.928754 0.402036
vt 0.953920 0.401916
vt 0.317894 0.921204
vt 0.930776 0.369402
vt 0.386131 0.848037
vt 0.858001 0.848026
vt 0.343328 0.915827
vt 0.839067 0.848019
vt 0.800066 0.452305
vt 0.343328 0.896888
vt 0.318162 0.861885
vt 0.438950 0.466794
vt 0.784896 0.452305
vt 0.900667 0.872773
vt 0.949938 0.462774
vt 0.908561 0.872774
vt 0.102565 0.019124
vt 0.087038 0.019124
vt 0.398712 0.019124
vt 0.298117 0.464625
vt 0.398707 0.018560
vt 0.298086 0.464061
vt 0.914227 0.873161
vt 0.559232 0.462349
vt 0.556014 0.461913
vt 0.860275 0.414846
vt 0.116513 0.018560
vt 0.116518 0.019124
vt 0.860291 0.414282
vt 0.549818 0.461075
vt 0.911811 0.872878
vt 0.412664 0.019124
vt 0.952500 0.464657
vt 0.006785 0.019124
vt 0.900667 0.846664
vt 0.949913 0.488874
vt 0.102572 0.045233
vt 0.298117 0.490736
vt 0.398719 0.045232
vt 0.559126 0.488460
vt 0.914227 0.847052
vt 0.844087 0.396470
vt 0.116173 0.037135
vt 0.911811 0.846769
vt 0.412671 0.045232
vt 0.908561 0.846665
vt 0.087045 0.045233
vt 0.281892 0.482433
vt 0.398366 0.037135
vt 0.555909 0.488024
vt 0.860263 0.388182
vt 0.116524 0.045233
vt 0.549712 0.487185
vt 0.006791 0.045233
vt 0.952475 0.490757
vt 0.165589 0.452652
vt 0.165682 0.452652
vt 0.736318 0.438747
vt 0.018209 0.452282
vt 0.296419 0.452287
vt 0.969173 0.006782
vt 0.148753 0.467480
vt 0.914998 0.006782
vt 0.907019 0.007106
vt 0.429851 0.452311
vt 0.015970 0.872161
vt 0.512992 0.452312
vt 0.099079 0.874843
vt 0.908561 0.883247
vt 0.148667 0.867585
vt 0.900667 0.883245
vt 0.949948 0.452305
vt 0.148753 0.859690
vt 0.830138 0.438741
vt 0.725507 0.884269
vt 0.014670 0.777961
vt 0.749923 0.438739
vt 0.966541 0.452305
vt 0.013798 0.858228
vt 0.087035 0.006782
vt 0.147061 0.779396
vt 0.102562 0.006782
vt 0.147230 0.763866
vt 0.879600 0.437739
vt 0.012187 0.866106
vt 0.876339 0.437742
vt 0.013002 0.869348
vt 0.936037 0.452317
vt 0.887098 0.884255
vt 0.006951 0.762353
vt 0.871578 0.884253
vt 0.733397 0.884261
vt 0.006782 0.777882
vt 0.901056 0.007348
vt 0.298109 0.452282
vt 0.298117 0.452282
vt 0.398708 0.006782
vt 0.556053 0.452312
vt 0.142135 0.875310
vt 0.559272 0.452311
vt 0.914227 0.883198
vt 0.145383 0.873148
vt 0.873885 0.437751
vt 0.429243 0.452311
vt 0.015368 0.871740
vt 0.860304 0.426620
vt 0.860304 0.426620
vt 0.116515 0.006782
vt 0.147382 0.749912
vt 0.860296 0.426620
vt 0.967484 0.289120
vt 0.147374 0.749914
vt 0.549853 0.452312
vt 0.135936 0.875243
vt 0.928149 0.452305
vt 0.426365 0.438739
vt 0.014839 0.762432
vt 0.911811 0.883234
vt 0.147768 0.870808
vt 0.968066 0.452308
vt 0.887491 0.437740
vt 0.012273 0.858211
vt 0.412661 0.006782
vt 0.006782 0.006782
vt 0.952512 0.452319
vt 0.146189 0.859662
vt 0.967484 0.301729
vt 0.147237 0.762526
vt 0.969173 0.289498
vt 0.145680 0.750272
s 0
f 9/25/1 10/27/1 6/15/1
f 3/9/2 11/29/2 9/23/2
f 15/37/3 5/14/3 27/64/3
f 7/19/4 25/60/4 27/65/4
f 6/16/5 10/26/5 12/30/5
f 10/26/5 23/56/5 24/57/5
f 14/35/6 13/31/6 19/45/6
f 9/25/7 18/42/7 19/46/7
f 11/28/8 17/41/8 18/43/8
f 13/32/1 23/55/1 10/27/1
f 2/6/1 21/50/1 23/55/1
f 14/34/2 4/12/2 2/7/2
f 17/40/9 20/48/9 19/47/9
f 5/14/10 21/52/10 22/54/10
f 5/14/11 15/37/11 23/56/11
f 15/37/12 16/38/12 24/57/12
f 28/66/12 27/64/12 25/58/12
f 16/39/13 15/36/13 28/67/13
f 3/10/14 1/1/14 29/68/14
f 8/21/14 32/79/14 31/76/14
f 6/18/15 31/74/15 29/69/15
f 29/70/16 31/75/16 42/98/16
f 31/77/17 32/78/17 46/105/17
f 37/90/18 34/83/18 36/88/18
f 39/93/19 36/88/19 35/85/19
f 40/95/20 35/86/20 50/112/20
f 51/114/21 50/112/21 35/86/21
f 35/86/22 36/87/22 44/101/22
f 36/89/23 34/84/23 42/98/23
f 51/114/24 43/99/24 47/106/24
f 43/100/25 44/103/25 48/108/25
f 44/103/26 42/97/26 46/105/26
f 29/71/27 34/83/27 37/90/27
f 56/123/4 67/146/4 65/142/4
f 57/126/28 58/128/28 54/118/28
f 59/129/29 68/149/29 67/147/29
f 33/82/30 50/112/30 51/114/30
f 41/96/15 51/114/15 52/115/15
f 27/65/31 25/60/31 110/229/31
f 114/237/32 70/153/32 25/59/32
f 81/185/33 116/240/33 115/238/33
f 61/134/15 53/116/15 54/119/15
f 63/140/34 62/136/34 54/120/34
f 33/80/35 63/140/35 58/127/35
f 49/109/28 50/111/28 58/128/28
f 38/92/36 64/141/36 63/139/36
f 56/124/37 55/121/37 61/135/37
f 56/125/38 62/136/38 63/140/38
f 59/130/39 63/139/39 64/141/39
f 68/150/40 66/144/40 65/143/40
f 59/131/6 60/132/6 66/145/6
f 82/187/41 118/244/41 117/242/41
f 11/29/42 3/9/42 120/250/42
f 85/191/41 84/190/41 122/255/41
f 61/134/8 77/174/8 78/177/8
f 55/122/8 65/142/8 79/178/8
f 37/90/43 39/93/43 124/259/43
f 53/116/15 61/134/15 77/174/15
f 20/48/42 17/40/42 126/264/42
f 87/195/44 128/269/44 127/268/44
f 89/198/45 88/197/45 130/273/45
f 53/117/46 73/163/46 75/169/46
f 39/93/47 40/94/47 131/276/47
f 61/135/48 55/121/48 74/167/48
f 134/283/49 133/280/49 90/199/49
f 92/203/15 89/198/15 129/271/15
f 20/49/6 125/261/6 136/288/6
f 88/196/50 93/204/50 137/291/50
f 17/41/8 11/28/8 119/248/8
f 2/5/51 27/63/51 21/51/51
f 72/160/52 131/277/52 40/95/52
f 93/204/53 83/189/53 117/242/53
f 110/229/15 2/8/15 4/11/15
f 57/126/46 75/169/46 72/161/46
f 65/143/48 66/144/48 80/181/48
f 30/72/14 138/293/14 120/251/14
f 4/12/42 14/34/42 136/289/42
f 86/192/54 94/205/54 139/296/54
f 95/207/41 85/191/41 121/253/41
f 30/73/42 37/90/42 123/257/42
f 60/132/6 76/171/6 80/182/6
f 84/190/41 91/201/41 133/281/41
f 82/188/14 95/206/14 140/298/14
f 90/200/55 87/194/55 70/155/55
f 74/168/56 76/172/56 75/170/56
f 92/203/15 116/240/15 38/91/15
f 38/92/57 76/173/57 60/133/57
f 71/159/58 141/300/58 112/234/58
f 70/153/59 114/237/59 127/267/59
f 70/154/60 127/268/60 112/233/60
f 100/216/61 105/222/61 87/194/61
f 96/209/14 109/228/14 95/206/14
f 97/210/41 107/225/41 91/201/41
f 109/227/41 104/220/41 85/191/41
f 98/212/54 102/218/54 94/205/54
f 101/217/53 103/219/53 83/189/53
f 99/214/50 101/217/50 93/204/50
f 108/226/15 106/223/15 89/198/15
f 100/215/62 90/199/62 91/202/62
f 106/223/45 99/213/45 88/197/45
f 105/221/4 98/211/4 86/193/4
f 104/220/41 97/210/41 84/190/41
f 96/208/41 82/187/41 83/189/41
f 32/78/41 96/208/41 103/219/41
f 12/30/41 24/57/41 97/210/41
f 25/60/4 7/19/4 98/211/4
f 52/115/45 47/106/45 99/213/45
f 26/61/13 100/215/13 107/224/13
f 45/104/15 52/115/15 106/223/15
f 47/107/50 48/108/50 101/217/50
f 48/108/53 46/105/53 103/219/53
f 7/20/54 22/54/54 102/218/54
f 8/22/41 12/30/41 104/220/41
f 24/57/41 16/38/41 107/225/41
f 32/79/14 8/21/14 109/228/14
f 26/62/55 25/58/55 105/222/55
f 140/299/63 136/290/63 131/278/63
f 9/25/1 6/15/1 1/2/1
f 3/9/2 9/23/2 1/3/2
f 15/37/3 27/64/3 28/66/3
f 7/19/4 27/65/4 5/13/4
f 6/16/5 12/30/5 8/22/5
f 10/26/5 24/57/5 12/30/5
f 14/35/6 19/45/6 20/49/6
f 9/25/7 19/46/7 13/32/7
f 11/28/8 18/43/8 9/24/8
f 13/32/1 10/27/1 9/25/1
f 2/6/1 23/55/1 13/32/1
f 14/34/2 2/7/2 13/33/2
f 17/40/9 19/47/9 18/44/9
f 5/14/41 22/54/41 7/20/41
f 5/14/11 23/56/11 21/52/11
f 15/37/64 24/57/64 23/56/64
f 28/66/12 25/58/12 26/62/12
f 16/39/13 28/67/13 26/61/13
f 3/10/14 29/68/14 30/72/14
f 8/21/14 31/76/14 6/17/14
f 6/18/15 29/69/15 1/4/15
f 29/70/16 42/98/16 34/84/16
f 31/77/17 46/105/17 42/97/17
f 37/90/65 36/88/65 39/93/65
f 39/93/66 35/85/66 40/94/66
f 40/95/67 50/112/67 49/110/67
f 51/114/68 35/86/68 43/99/68
f 35/86/22 44/101/22 43/99/22
f 36/89/23 42/98/23 44/102/23
f 51/114/69 47/106/69 52/115/69
f 43/100/70 48/108/70 47/107/70
f 44/103/71 46/105/71 48/108/71
f 29/71/27 37/90/27 30/73/27
f 56/123/8 65/142/8 55/122/8
f 57/126/28 54/118/28 53/117/28
f 59/129/29 67/147/29 56/125/29
f 33/82/15 51/114/15 41/96/15
f 41/96/15 52/115/15 45/104/15
f 27/65/72 4/11/72 2/8/72
f 4/11/15 110/229/15 69/152/15
f 110/229/63 112/233/63 111/230/63
f 112/233/73 25/60/73 70/154/73
f 25/60/74 27/65/74 21/53/74
f 27/65/75 110/229/75 4/11/75
f 110/229/73 25/60/73 112/233/73
f 114/237/32 25/59/32 113/236/32
f 81/185/76 115/238/76 72/160/76
f 61/134/77 54/119/77 62/138/77
f 63/140/35 54/120/35 58/127/35
f 33/80/35 58/127/35 50/113/35
f 49/109/28 58/128/28 57/126/28
f 38/92/36 63/139/36 33/81/36
f 56/124/78 61/135/78 62/137/78
f 56/125/79 63/140/79 59/129/79
f 59/130/80 64/141/80 60/133/80
f 68/150/40 65/143/40 67/148/40
f 59/131/13 66/145/13 68/151/13
f 82/187/41 117/242/41 83/189/41
f 11/29/42 120/250/42 119/247/42
f 85/191/41 122/255/41 121/253/41
f 61/134/8 78/177/8 62/138/8
f 55/122/8 79/178/8 74/166/8
f 37/90/81 124/259/81 123/257/81
f 53/116/15 77/174/15 73/164/15
f 20/48/42 126/264/42 125/262/42
f 128/269/82 87/195/82 86/193/82
f 87/195/83 127/268/83 70/154/83
f 89/198/45 130/273/45 129/271/45
f 53/117/46 75/169/46 57/126/46
f 39/93/84 131/276/84 124/259/84
f 61/135/48 74/167/48 77/175/48
f 133/280/14 134/283/14 132/279/14
f 134/283/85 90/199/85 71/157/85
f 90/199/86 133/280/86 91/202/86
f 92/203/15 129/271/15 135/286/15
f 20/49/6 136/288/6 14/35/6
f 88/196/50 137/291/50 130/274/50
f 17/41/8 119/248/8 126/265/8
f 131/277/87 72/160/87 115/238/87
f 72/160/88 40/95/88 49/110/88
f 93/204/53 117/242/53 137/291/53
f 2/8/15 110/229/15 69/152/15
f 110/229/15 4/11/15 111/230/15
f 57/126/46 72/161/46 49/109/46
f 65/143/48 80/181/48 79/179/48
f 30/72/14 120/251/14 3/10/14
f 4/12/42 136/289/42 111/231/42
f 86/192/54 139/296/54 128/270/54
f 95/207/41 121/253/41 140/297/41
f 30/73/42 123/257/42 138/294/42
f 60/132/6 80/182/6 66/145/6
f 84/190/41 133/281/41 122/255/41
f 82/188/14 140/298/14 118/245/14
f 90/200/55 70/155/55 71/158/55
f 74/168/56 73/165/56 77/176/56
f 75/170/89 81/184/89 72/162/89
f 74/168/56 75/170/56 73/165/56
f 80/183/90 74/168/90 79/180/90
f 75/170/91 76/172/91 81/184/91
f 76/172/90 74/168/90 80/183/90
f 92/203/15 45/104/15 108/226/15
f 45/104/15 33/82/15 41/96/15
f 38/91/15 81/185/15 49/110/15
f 45/104/15 38/91/15 33/82/15
f 116/240/15 92/203/15 135/286/15
f 92/203/15 38/91/15 45/104/15
f 38/91/15 116/240/15 81/185/15
f 76/173/92 38/92/92 81/186/92
f 38/92/93 60/133/93 64/141/93
f 71/159/94 112/234/94 70/156/94
f 112/234/95 141/300/95 142/302/95
f 141/300/96 71/159/96 134/284/96
f 100/216/61 87/194/61 90/200/61
f 96/209/14 95/206/14 82/188/14
f 97/210/41 91/201/41 84/190/41
f 109/227/41 85/191/41 95/207/41
f 98/212/54 94/205/54 86/192/54
f 101/217/53 83/189/53 93/204/53
f 99/214/50 93/204/50 88/196/50
f 108/226/15 89/198/15 92/203/15
f 100/215/13 91/202/13 107/224/13
f 106/223/45 88/197/45 89/198/45
f 105/221/97 86/193/97 87/195/97
f 104/220/41 84/190/41 85/191/41
f 96/208/41 83/189/41 103/219/41
f 32/78/41 103/219/41 46/105/41
f 12/30/41 97/210/41 104/220/41
f 25/60/4 98/211/4 105/221/4
f 52/115/45 99/213/45 106/223/45
f 26/61/13 107/224/13 16/39/13
f 45/104/15 106/223/15 108/226/15
f 47/107/50 101/217/50 99/214/50
f 48/108/53 103/219/53 101/217/53
f 7/20/54 102/218/54 98/212/54
f 8/22/41 104/220/41 109/227/41
f 24/57/41 107/225/41 97/210/41
f 32/79/14 109/228/14 96/209/14
f 26/62/55 105/222/55 100/216/55
f 122/256/14 140/299/14 121/254/14
f 134/285/63 122/256/63 133/282/63
f 141/301/63 122/256/63 134/285/63
f 140/299/63 117/243/63 118/246/63
f 141/301/63 140/299/63 122/256/63
f 111/232/63 142/303/63 112/235/63
f 142/303/98 140/299/98 141/301/98
f 140/299/63 137/292/63 117/243/63
f 137/292/98 129/272/98 130/275/98
f 135/287/63 115/239/63 116/241/63
f 137/292/63 135/287/63 129/272/63
f 111/232/63 140/299/63 142/303/63
f 140/299/63 135/287/63 137/292/63
f 135/287/63 131/278/63 115/239/63
f 131/278/63 123/258/63 124/260/63
f 123/258/63 120/252/63 138/295/63
f 119/249/63 125/263/63 126/266/63
f 131/278/63 120/252/63 123/258/63
f 119/249/63 136/290/63 125/263/63
f 131/278/63 119/249/63 120/252/63
f 140/299/63 131/278/63 135/287/63
f 136/290/63 140/299/63 111/232/63
f 131/278/99 136/290/99 119/249/99
