# Blender 3.3.1
# www.blender.org
o kleine_theke_2
v 0.001022 4.174713 -3.594460
v 0.001022 0.003105 -3.594460
v 3.853021 4.174713 -3.527104
v 3.853021 0.003105 -3.527104
v 0.519102 0.146505 2.803602
v 0.001022 4.174713 2.759720
v 2.761626 0.146506 2.813748
v 2.761626 4.174713 2.791854
v 0.001022 3.349872 -3.594460
v 0.001022 3.349872 2.759720
v 3.853021 3.349872 -3.527104
v 2.761626 3.349872 2.791854
v 0.001022 3.190285 -3.594460
v 3.853021 3.190285 -3.527104
v 0.519102 3.046884 2.803602
v 2.761626 3.046884 2.791854
v 4.237458 3.349940 -3.907884
v 0.001231 3.349940 -3.929626
v 0.001231 3.190353 -3.929626
v 4.237458 3.190353 -3.907884
v 0.001022 0.003105 2.759720
v 2.761626 0.003105 2.813748
v 0.001022 3.190285 2.759720
v 2.761626 3.190285 2.791854
v 3.553958 0.146549 2.012161
v 3.553958 3.046928 2.012161
v 1.311434 0.146549 2.023908
v 1.311434 3.046928 2.023908
v 0.044253 4.174713 -3.628933
v 3.896725 4.174713 -3.600717
v 0.044253 4.174713 2.881331
v 2.842689 4.174713 2.915973
v 0.897664 4.335960 -3.088228
v 0.044227 4.255846 -3.628935
v 0.197822 4.313374 -3.464690
v 0.085376 4.289060 -3.584926
v 3.896699 4.255846 -3.600719
v 3.827390 4.335946 -3.105628
v 3.891956 4.289060 -3.558988
v 3.879019 4.313373 -3.444975
v 0.646862 4.335954 2.306256
v 0.044227 4.255846 2.881330
v 0.197822 4.313374 2.734746
v 0.085376 4.289060 2.842052
v 2.916786 4.335945 2.305856
v 2.842663 4.255846 2.915972
v 2.861543 4.313374 2.760457
v 2.847717 4.289060 2.874301
v 3.861357 4.335944 -3.289230
v 0.893272 4.335946 -3.300445
v 0.351433 4.335946 2.588164
v 2.880440 4.335946 2.604942
v 3.861423 4.945440 -3.289401
v 0.893338 4.945442 -3.300615
v 3.827451 4.890370 -2.989855
v 0.901331 4.890382 -3.075757
v 3.861389 4.640692 -3.289315
v 0.893304 4.640694 -3.300530
v 0.901308 4.695778 -3.075701
v 3.827430 4.695765 -2.989801
v 3.827458 4.945442 -2.989870
v 0.897732 4.945456 -3.088398
v 0.897698 4.640707 -3.088313
v 3.827423 4.640693 -3.105717
v 2.576095 4.890209 -1.762210
v 2.576075 4.695604 -1.762156
v 0.871629 4.890221 -1.775989
v 0.871606 4.695617 -1.775934
v 15.966694 0.003105 -3.698121
v 18.725069 0.146549 2.862831
v 18.725069 3.046928 2.862831
v 18.061150 4.335944 -3.289230
v 18.061214 4.945440 -3.289401
v 18.027243 4.890370 -2.989855
v 18.061182 4.640692 -3.289315
v 18.027222 4.695765 -2.989801
v 18.027250 4.945442 -2.989870
v 16.612602 4.945456 -3.088398
v 18.027481 4.890209 -1.762210
v 18.027460 4.695604 -1.762156
v 18.098211 4.335944 -2.975987
v 18.272030 4.174713 2.985218
v 18.272005 4.255846 2.985217
v 18.190968 3.190285 2.861099
v 18.190968 3.349872 2.861099
v 18.190968 0.146506 2.861834
v 18.215431 0.146549 2.860424
v 18.290886 4.313374 2.829701
v 18.309782 4.335946 2.674187
v 18.215431 3.046928 2.860424
v 18.190968 3.046884 2.861099
v 18.346128 4.335945 2.375101
v 18.277060 4.289060 2.943546
v 18.190968 0.003105 2.861834
v 18.190968 4.174713 2.861099
v 17.140158 4.174713 2.980138
v 17.059093 3.190285 2.856019
v 17.059093 0.146506 2.858307
v 17.159014 4.313374 2.824622
v 17.420979 3.046928 2.076326
v 17.145185 4.289060 2.938466
v 17.059093 0.003105 2.858307
v 17.140133 4.255846 2.980137
v 17.059093 3.349872 2.856019
v 17.420979 0.146549 2.076326
v 17.177910 4.335946 2.669107
v 17.059093 3.046884 2.856019
v 17.214256 4.335945 2.370022
v 17.059093 4.174713 2.856019
v 18.726023 0.003105 -3.531569
v 18.726023 0.003105 -3.527104
v 18.726023 0.144725 2.781563
v 18.726023 0.003117 2.863434
v 18.726023 0.085188 2.863120
v 18.726023 4.317637 -3.414979
v 18.726023 4.335945 0.597683
v 18.726023 4.255846 2.987254
v 18.726023 4.174713 2.987256
v 18.726023 3.349872 -3.527104
v 18.726023 4.174713 -3.527104
v 18.726023 3.349872 2.863500
v 18.726023 3.190285 2.863500
v 18.726023 4.255846 -3.600719
v 18.726023 4.289060 -3.559688
v 18.726023 3.190353 -3.907884
v 18.726023 3.349940 -3.907884
v 18.726023 0.146531 2.863120
v 18.726023 0.146506 2.863502
v 18.726023 4.335946 2.676055
v 18.726023 4.313374 2.831654
v 18.726023 4.313373 -3.444273
v 18.726023 3.046884 2.863498
v 18.726023 3.046884 2.863500
v 18.726023 3.046909 2.863120
v 18.726023 4.335945 2.376806
v 18.726023 3.190285 -3.527104
v 18.726023 4.289060 2.945561
v 18.726023 4.174713 -3.600717
v 18.726023 0.003105 2.863502
v 18.726023 4.174713 2.863500
v 18.726023 3.176518 2.863120
v 18.726023 3.050781 2.781563
vn -1.0000 -0.0000 -0.0000
vn 0.0175 -0.0000 -0.9998
vn 0.7014 -0.0000 0.7128
vn -0.0000 1.0000 0.0001
vn -0.0116 -0.0000 0.9999
vn -0.0000 -1.0000 -0.0002
vn -1.0000 -0.0000 -0.0006
vn -0.0000 1.0000 0.0002
vn 0.0051 -0.0000 -1.0000
vn -0.0190 -0.2290 0.9732
vn -0.0844 -0.0000 0.9964
vn 0.0052 -0.0000 1.0000
vn -0.0000 -1.0000 -0.0001
vn -0.0000 -1.0000 -0.0000
vn -0.0000 1.0000 -0.0000
vn -1.0000 -0.0003 -0.0000
vn -0.0124 -0.0000 0.9999
vn 0.0044 0.7962 -0.6050
vn 0.0014 0.9799 -0.1994
vn 0.0007 0.9903 -0.1392
vn -0.0318 0.9995 -0.0029
vn -0.2113 0.9774 -0.0000
vn -0.6281 0.7781 -0.0000
vn -0.0015 0.9886 0.1507
vn -0.0026 0.9758 0.2184
vn -0.0079 0.7676 0.6408
vn 0.0073 -0.0000 -1.0000
vn 0.0038 -0.0003 -1.0000
vn -0.9997 0.0001 -0.0228
vn -0.0006 1.0000 -0.0001
vn -0.0001 0.9997 -0.0262
vn -0.0560 0.0038 0.9984
vn 0.0260 0.9997 -0.0046
vn -0.9998 0.0001 0.0207
vn 0.0059 0.0003 1.0000
vn -0.0293 0.0003 0.9996
vn -0.9616 0.0002 0.2746
vn 0.0058 -0.2236 0.9747
vn -0.0081 0.0003 1.0000
vn -0.0045 -0.0000 1.0000
vn -0.0000 -0.0000 -1.0000
vn -0.0000 0.7824 -0.6227
vn -0.0003 0.9979 0.0652
vn -0.0006 0.9896 0.1436
vn -0.0000 -0.0003 -1.0000
vn -0.0000 0.9780 -0.2086
vn -0.0000 0.0003 1.0000
vn 0.0003 -0.9979 -0.0654
vn -0.0009 0.9780 0.2088
vn 0.1088 -0.9941 -0.0000
vn -0.0000 0.9896 -0.1440
vn -0.0028 0.7822 0.6231
vn -0.0031 -0.0000 1.0000
vn -0.0047 -0.0000 1.0000
vn 0.9936 -0.0001 0.1127
vn -0.0000 -0.3064 0.9519
vn -0.9579 0.0077 -0.2871
vn -0.2891 -0.0000 0.9573
vn 0.0263 0.9994 -0.0222
vn -0.7025 -0.0000 0.7117
vn 0.0017 -1.0000 -0.0018
vn -0.0028 0.7821 0.6231
vn -0.0046 -0.0000 1.0000
vn 1.0000 -0.0000 -0.0000
vn -0.0113 0.2552 0.9668
vn 0.0042 0.7827 -0.6224
vn 0.0011 0.9780 -0.2084
vn 0.0005 0.9897 -0.1434
vn -0.1454 0.9894 -0.0000
vn -0.0010 0.9896 0.1435
vn -0.0020 0.9780 0.2086
vn -0.0073 0.7824 0.6227
vn 0.0004 0.9997 -0.0256
vn 0.0013 0.9997 -0.0224
vn 0.0010 0.9812 0.1931
vn -0.0000 0.9997 -0.0258
vn 0.0269 0.9996 -0.0032
vn -0.0000 1.0000 -0.0001
vn -0.0328 0.2216 0.9746
vn -0.9616 0.0002 0.2745
vn -0.0126 -0.9032 0.4291
vn -0.0000 0.7773 -0.6292
vn -0.0001 0.9996 0.0293
vn -0.0003 0.9978 0.0656
vn -0.0000 0.9785 -0.2061
vn 0.0003 -0.9978 -0.0658
vn 0.0002 -0.9985 -0.0555
vn -0.0000 0.9896 -0.1441
vn -0.0000 0.9897 -0.1434
vn 0.9931 -0.0001 -0.1175
vn 1.0000 -0.0001 -0.0002
vn 0.9778 0.1958 0.0749
vn -0.0091 0.0366 0.9993
vn -1.0000 0.0001 -0.0000
vn -0.9999 -0.0000 -0.0117
vn -0.2899 -0.0000 0.9571
vn -0.0017 1.0000 0.0017
vn 1.0000 -0.0000 0.0001
vn 1.0000 -0.0000 -0.0002
vt 0.967350 0.884089
vt 0.579988 0.452311
vt 0.749923 0.006782
vt 0.982627 0.734875
vt 0.858001 0.861590
vt 0.579988 0.858147
vt 0.736318 0.006791
vt 0.165496 0.884609
vt 0.749881 0.095646
vt 0.966075 0.795263
vt 0.166642 0.795746
vt 0.736276 0.095655
vt 0.298051 0.872288
vt 0.398820 0.426755
vt 0.711586 0.452408
vt 0.006878 0.438718
vt 0.952512 0.884107
vt 0.982627 0.603225
vt 0.298117 0.820556
vt 0.398807 0.375026
vt 0.952163 0.820447
vt 0.006871 0.375033
vt 0.830138 0.006784
vt 0.726452 0.452314
vt 0.579988 0.532556
vt 0.087131 0.438718
vt 0.711586 0.532652
vt 0.725150 0.541174
vt 0.830097 0.095648
vt 0.087124 0.375033
vt 0.929094 0.884089
vt 0.579988 0.548081
vt 0.426365 0.006782
vt 0.426323 0.095646
vt 0.927791 0.795263
vt 0.860304 0.006782
vt 0.116626 0.426755
vt 0.116604 0.375033
vt 0.859908 0.058492
vt 0.871565 0.550029
vt 0.733048 0.550034
vt 0.573046 0.532544
vt 0.733397 0.452311
vt 0.871578 0.452305
vt 0.936037 0.884094
vt 0.573046 0.548070
vt 0.887098 0.452307
vt 0.887085 0.550030
vt 0.935688 0.786410
vt 0.711586 0.858243
vt 0.858001 0.993218
vt 0.412757 0.438719
vt 0.297146 0.884240
vt 0.412760 0.375026
vt 0.711586 0.548178
vt 0.102658 0.438719
vt 0.102651 0.375033
vt 0.398443 0.357006
vt 0.914998 0.357295
vt 0.281458 0.802325
vt 0.843702 0.076706
vt 0.116249 0.357006
vt 0.827390 0.977733
vt 0.398465 0.408728
vt 0.281846 0.854055
vt 0.116271 0.408728
vt 0.844099 0.024996
vt 0.968066 0.883093
vt 0.981630 0.735590
vt 0.992779 0.587135
vt 0.887491 0.006783
vt 0.967602 0.794258
vt 0.887473 0.095655
vt 0.981630 0.600705
vt 0.992779 0.452305
vt 0.949997 0.883097
vt 0.900671 0.452305
vt 0.900662 0.516863
vt 0.949601 0.818564
vt 0.384055 0.861885
vt 0.784896 0.849082
vt 0.436624 0.863582
vt 0.879600 0.006782
vt 0.984886 0.587141
vt 0.873879 0.010338
vt 0.428820 0.879726
vt 0.426324 0.882320
vt 0.876336 0.007735
vt 0.981630 0.586205
vt 0.879583 0.095654
vt 0.436264 0.795998
vt 0.784881 0.781511
vt 0.876321 0.095547
vt 0.873868 0.095258
vt 0.429228 0.794807
vt 0.548391 0.869368
vt 0.908565 0.452306
vt 0.984885 0.452311
vt 0.557264 0.879726
vt 0.914227 0.455803
vt 0.559483 0.882320
vt 0.981630 0.453100
vt 0.911814 0.453243
vt 0.548383 0.817004
vt 0.908556 0.516865
vt 0.557797 0.818278
vt 0.914222 0.517252
vt 0.911806 0.516969
vt 0.370954 0.520758
vt 0.432460 0.795215
vt 0.370961 0.452289
vt 0.432227 0.863683
vt 0.388453 0.861885
vt 0.554232 0.876183
vt 0.554580 0.817843
vt 0.934768 0.075251
vt 0.311681 0.520752
vt 0.311688 0.452282
vt 0.934960 0.006782
vt 0.388453 0.921180
vt 0.948524 0.074388
vt 0.410090 0.520354
vt 0.411566 0.452846
vt 0.948556 0.006868
vt 0.383792 0.915824
vt 0.341317 0.520755
vt 0.388453 0.891532
vt 0.341324 0.452285
vt 0.383792 0.896892
vt 0.749893 0.848987
vt 0.825497 0.847351
vt 0.824021 0.779869
vt 0.749924 0.781466
vt 0.928562 0.074471
vt 0.953883 0.074389
vt 0.384055 0.921180
vt 0.953920 0.006782
vt 0.930563 0.006886
vt 0.755246 0.849075
vt 0.384055 0.891532
vt 0.755231 0.781505
vt 0.384525 0.491603
vt 0.857995 0.491630
vt 0.839061 0.491624
vt 0.798460 0.808596
vt 0.384633 0.452282
vt 0.356892 0.915769
vt 0.858001 0.452311
vt 0.356892 0.896837
vt 0.839067 0.452305
vt 0.798569 0.847901
vt 0.162317 0.516315
vt 0.901055 0.007370
vt 0.298103 0.452304
vt 0.398704 0.006804
vt 0.967490 0.006958
vt 0.860290 0.426598
vt 0.116510 0.006804
vt 0.967490 0.289122
vt 0.432460 0.467649
vt 0.370961 0.848321
vt 0.311681 0.861888
vt 0.311688 0.848315
vt 0.934960 0.402816
vt 0.311681 0.921202
vt 0.411566 0.847917
vt 0.948561 0.401915
vt 0.317894 0.915845
vt 0.341324 0.848318
vt 0.311681 0.891545
vt 0.825497 0.452438
vt 0.317894 0.896906
vt 0.749881 0.453940
vt 0.928754 0.402036
vt 0.953920 0.401916
vt 0.317894 0.921204
vt 0.930776 0.369402
vt 0.386131 0.848037
vt 0.858001 0.848026
vt 0.343328 0.915827
vt 0.839067 0.848019
vt 0.800066 0.452305
vt 0.343328 0.896888
vt 0.318162 0.861885
vt 0.438950 0.466794
vt 0.784896 0.452305
vt 0.900667 0.872773
vt 0.949938 0.462774
vt 0.908561 0.872774
vt 0.102565 0.019124
vt 0.087038 0.019124
vt 0.398712 0.019124
vt 0.298117 0.464625
vt 0.398707 0.018560
vt 0.298086 0.464061
vt 0.914227 0.873161
vt 0.559232 0.462349
vt 0.556014 0.461913
vt 0.860275 0.414846
vt 0.116513 0.018560
vt 0.116518 0.019124
vt 0.860291 0.414282
vt 0.549818 0.461075
vt 0.911811 0.872878
vt 0.412664 0.019124
vt 0.952500 0.464657
vt 0.006785 0.019124
vt 0.900667 0.846664
vt 0.949913 0.488874
vt 0.102572 0.045233
vt 0.298117 0.490736
vt 0.398719 0.045232
vt 0.559126 0.488460
vt 0.914227 0.847052
vt 0.844087 0.396470
vt 0.116173 0.037135
vt 0.911811 0.846769
vt 0.412671 0.045232
vt 0.908561 0.846665
vt 0.087045 0.045233
vt 0.281892 0.482433
vt 0.398366 0.037135
vt 0.555909 0.488024
vt 0.860263 0.388182
vt 0.116524 0.045233
vt 0.549712 0.487185
vt 0.006791 0.045233
vt 0.952475 0.490757
vt 0.165589 0.452652
vt 0.165682 0.452652
vt 0.736318 0.438747
vt 0.018209 0.452282
vt 0.296419 0.452287
vt 0.969173 0.006782
vt 0.148753 0.467480
vt 0.914998 0.006782
vt 0.907019 0.007106
vt 0.429851 0.452311
vt 0.015970 0.872161
vt 0.512992 0.452312
vt 0.099079 0.874843
vt 0.908561 0.883247
vt 0.148667 0.867585
vt 0.900667 0.883245
vt 0.949948 0.452305
vt 0.148753 0.859690
vt 0.830138 0.438741
vt 0.725507 0.884269
vt 0.014670 0.777961
vt 0.749923 0.438739
vt 0.966541 0.452305
vt 0.013798 0.858228
vt 0.087035 0.006782
vt 0.147061 0.779396
vt 0.102562 0.006782
vt 0.147230 0.763866
vt 0.879600 0.437739
vt 0.012187 0.866106
vt 0.876339 0.437742
vt 0.013002 0.869348
vt 0.936037 0.452317
vt 0.887098 0.884255
vt 0.006951 0.762353
vt 0.871578 0.884253
vt 0.733397 0.884261
vt 0.006782 0.777882
vt 0.901056 0.007348
vt 0.298109 0.452282
vt 0.298117 0.452282
vt 0.398708 0.006782
vt 0.556053 0.452312
vt 0.142135 0.875310
vt 0.559272 0.452311
vt 0.914227 0.883198
vt 0.145383 0.873148
vt 0.873885 0.437751
vt 0.429243 0.452311
vt 0.015368 0.871740
vt 0.860304 0.426620
vt 0.860304 0.426620
vt 0.116515 0.006782
vt 0.147382 0.749912
vt 0.860296 0.426620
vt 0.967484 0.289120
vt 0.147374 0.749914
vt 0.549853 0.452312
vt 0.135936 0.875243
vt 0.928149 0.452305
vt 0.426365 0.438739
vt 0.014839 0.762432
vt 0.911811 0.883234
vt 0.147768 0.870808
vt 0.968066 0.452308
vt 0.887491 0.437740
vt 0.012273 0.858211
vt 0.412661 0.006782
vt 0.006782 0.006782
vt 0.952512 0.452319
vt 0.146189 0.859662
vt 0.967484 0.301729
vt 0.147237 0.762526
vt 0.969173 0.289498
vt 0.145680 0.750272
s 0
f 9/25/1 10/27/1 6/15/1
f 3/9/2 11/29/2 9/23/2
f 15/37/3 5/14/3 27/64/3
f 7/19/4 25/60/4 27/65/4
f 6/16/5 10/26/5 12/30/5
f 10/26/5 23/56/5 24/57/5
f 14/35/6 13/31/6 19/45/6
f 9/25/7 18/42/7 19/46/7
f 11/28/8 17/41/8 18/43/8
f 13/32/1 23/55/1 10/27/1
f 2/6/1 21/50/1 23/55/1
f 14/34/2 4/12/2 2/7/2
f 17/40/9 20/48/9 19/47/9
f 5/14/10 21/52/10 22/54/10
f 5/14/11 15/37/11 23/56/11
f 15/37/12 16/38/12 24/57/12
f 28/66/12 27/64/12 25/58/12
f 16/39/13 15/36/13 28/67/13
f 3/10/14 1/1/14 29/68/14
f 8/21/14 32/79/14 31/76/14
f 6/18/15 31/74/15 29/69/15
f 29/70/16 31/75/16 42/98/16
f 31/77/17 32/78/17 46/105/17
f 37/90/18 34/83/18 36/88/18
f 39/93/19 36/88/19 35/85/19
f 40/95/20 35/86/20 50/112/20
f 51/114/21 50/112/21 35/86/21
f 35/86/22 36/87/22 44/101/22
f 36/89/23 34/84/23 42/98/23
f 51/114/24 43/99/24 47/106/24
f 43/100/25 44/103/25 48/108/25
f 44/103/26 42/97/26 46/105/26
f 29/71/27 34/83/27 37/90/27
f 56/123/4 67/146/4 65/142/4
f 57/126/28 58/128/28 54/118/28
f 59/129/29 68/149/29 67/147/29
f 33/82/30 50/112/30 51/114/30
f 41/96/15 51/114/15 52/115/15
f 27/65/31 25/60/31 110/229/31
f 114/237/32 70/153/32 25/59/32
f 81/185/33 116/240/33 115/238/33
f 61/134/15 53/116/15 54/119/15
f 63/140/34 62/136/34 54/120/34
f 33/80/34 63/140/34 58/127/34
f 49/109/28 50/111/28 58/128/28
f 38/92/35 64/141/35 63/139/35
f 56/124/36 55/121/36 61/135/36
f 56/125/37 62/136/37 63/140/37
f 59/130/38 63/139/38 64/141/38
f 68/150/39 66/144/39 65/143/39
f 59/131/13 60/132/13 66/145/13
f 82/187/40 118/244/40 117/242/40
f 11/29/41 3/9/41 120/250/41
f 85/191/40 84/190/40 122/255/40
f 61/134/4 77/174/4 78/177/4
f 55/122/4 65/142/4 79/178/4
f 37/90/42 39/93/42 124/259/42
f 53/116/15 61/134/15 77/174/15
f 20/48/41 17/40/41 126/264/41
f 87/195/43 128/269/43 127/268/43
f 89/198/44 88/197/44 130/273/44
f 53/117/45 73/163/45 75/169/45
f 39/93/46 40/94/46 131/276/46
f 61/135/47 55/121/47 74/167/47
f 134/283/48 133/280/48 90/199/48
f 92/203/15 89/198/15 129/271/15
f 20/49/6 125/261/6 136/288/6
f 88/196/49 93/204/49 137/291/49
f 17/41/8 11/28/8 119/248/8
f 2/5/50 27/63/50 21/51/50
f 72/160/51 131/277/51 40/95/51
f 93/204/52 83/189/52 117/242/52
f 110/229/15 2/8/15 4/11/15
f 57/126/45 75/169/45 72/161/45
f 65/143/47 66/144/47 80/181/47
f 30/72/14 138/293/14 120/251/14
f 4/12/41 14/34/41 136/289/41
f 86/192/53 94/205/53 139/296/53
f 95/207/40 85/191/40 121/253/40
f 30/73/41 37/90/41 123/257/41
f 60/132/13 76/171/13 80/182/13
f 84/190/40 91/201/40 133/281/40
f 82/188/14 95/206/14 140/298/14
f 90/200/54 87/194/54 70/155/54
f 74/168/55 76/172/55 75/170/55
f 92/203/15 116/240/15 38/91/15
f 38/92/56 76/173/56 60/133/56
f 71/159/57 141/300/57 112/234/57
f 70/153/58 114/237/58 127/267/58
f 70/154/59 127/268/59 112/233/59
f 100/216/60 105/222/60 87/194/60
f 96/209/14 109/228/14 95/206/14
f 97/210/40 107/225/40 91/201/40
f 109/227/40 104/220/40 85/191/40
f 98/212/53 102/218/53 94/205/53
f 101/217/52 103/219/52 83/189/52
f 99/214/49 101/217/49 93/204/49
f 108/226/15 106/223/15 89/198/15
f 100/215/61 90/199/61 91/202/61
f 106/223/44 99/213/44 88/197/44
f 105/221/4 98/211/4 86/193/4
f 104/220/40 97/210/40 84/190/40
f 96/208/40 82/187/40 83/189/40
f 32/78/40 96/208/40 103/219/40
f 12/30/40 24/57/40 97/210/40
f 25/60/4 7/19/4 98/211/4
f 52/115/44 47/106/44 99/213/44
f 26/61/13 100/215/13 107/224/13
f 45/104/15 52/115/15 106/223/15
f 47/107/49 48/108/49 101/217/49
f 48/108/62 46/105/62 103/219/62
f 7/20/53 22/54/53 102/218/53
f 8/22/40 12/30/40 104/220/40
f 24/57/40 16/38/40 107/225/40
f 32/79/14 8/21/14 109/228/14
f 26/62/63 25/58/63 105/222/63
f 140/299/64 136/290/64 131/278/64
f 9/25/1 6/15/1 1/2/1
f 3/9/2 9/23/2 1/3/2
f 15/37/3 27/64/3 28/66/3
f 7/19/4 27/65/4 5/13/4
f 6/16/5 12/30/5 8/22/5
f 10/26/5 24/57/5 12/30/5
f 14/35/6 19/45/6 20/49/6
f 9/25/7 19/46/7 13/32/7
f 11/28/8 18/43/8 9/24/8
f 13/32/1 10/27/1 9/25/1
f 2/6/1 23/55/1 13/32/1
f 14/34/2 2/7/2 13/33/2
f 17/40/9 19/47/9 18/44/9
f 5/14/40 22/54/40 7/20/40
f 5/14/11 23/56/11 21/52/11
f 15/37/65 24/57/65 23/56/65
f 28/66/12 25/58/12 26/62/12
f 16/39/13 28/67/13 26/61/13
f 3/10/14 29/68/14 30/72/14
f 8/21/14 31/76/14 6/17/14
f 6/18/15 29/69/15 1/4/15
f 29/70/16 42/98/16 34/84/16
f 31/77/17 46/105/17 42/97/17
f 37/90/66 36/88/66 39/93/66
f 39/93/67 35/85/67 40/94/67
f 40/95/68 50/112/68 49/110/68
f 51/114/69 35/86/69 43/99/69
f 35/86/22 44/101/22 43/99/22
f 36/89/23 42/98/23 44/102/23
f 51/114/70 47/106/70 52/115/70
f 43/100/71 48/108/71 47/107/71
f 44/103/72 46/105/72 48/108/72
f 29/71/27 37/90/27 30/73/27
f 56/123/4 65/142/4 55/122/4
f 57/126/28 54/118/28 53/117/28
f 59/129/29 67/147/29 56/125/29
f 33/82/15 51/114/15 41/96/15
f 41/96/15 52/115/15 45/104/15
f 27/65/73 4/11/73 2/8/73
f 4/11/15 110/229/15 69/152/15
f 110/229/64 112/233/64 111/230/64
f 112/233/74 25/60/74 70/154/74
f 25/60/75 27/65/75 21/53/75
f 27/65/76 110/229/76 4/11/76
f 110/229/74 25/60/74 112/233/74
f 114/237/32 25/59/32 113/236/32
f 81/185/77 115/238/77 72/160/77
f 61/134/78 54/119/78 62/138/78
f 63/140/34 54/120/34 58/127/34
f 33/80/34 58/127/34 50/113/34
f 49/109/28 58/128/28 57/126/28
f 38/92/35 63/139/35 33/81/35
f 56/124/79 61/135/79 62/137/79
f 56/125/80 63/140/80 59/129/80
f 59/130/81 64/141/81 60/133/81
f 68/150/39 65/143/39 67/148/39
f 59/131/13 66/145/13 68/151/13
f 82/187/40 117/242/40 83/189/40
f 11/29/41 120/250/41 119/247/41
f 85/191/40 122/255/40 121/253/40
f 61/134/4 78/177/4 62/138/4
f 55/122/4 79/178/4 74/166/4
f 37/90/82 124/259/82 123/257/82
f 53/116/15 77/174/15 73/164/15
f 20/48/41 126/264/41 125/262/41
f 128/269/83 87/195/83 86/193/83
f 87/195/84 127/268/84 70/154/84
f 89/198/44 130/273/44 129/271/44
f 53/117/45 75/169/45 57/126/45
f 39/93/85 131/276/85 124/259/85
f 61/135/47 74/167/47 77/175/47
f 133/280/14 134/283/14 132/279/14
f 134/283/86 90/199/86 71/157/86
f 90/199/87 133/280/87 91/202/87
f 92/203/15 129/271/15 135/286/15
f 20/49/6 136/288/6 14/35/6
f 88/196/49 137/291/49 130/274/49
f 17/41/8 119/248/8 126/265/8
f 131/277/88 72/160/88 115/238/88
f 72/160/89 40/95/89 49/110/89
f 93/204/52 117/242/52 137/291/52
f 2/8/15 110/229/15 69/152/15
f 110/229/15 4/11/15 111/230/15
f 57/126/45 72/161/45 49/109/45
f 65/143/47 80/181/47 79/179/47
f 30/72/14 120/251/14 3/10/14
f 4/12/41 136/289/41 111/231/41
f 86/192/53 139/296/53 128/270/53
f 95/207/40 121/253/40 140/297/40
f 30/73/41 123/257/41 138/294/41
f 60/132/13 80/182/13 66/145/13
f 84/190/40 133/281/40 122/255/40
f 82/188/14 140/298/14 118/245/14
f 90/200/54 70/155/54 71/158/54
f 74/168/55 73/165/55 77/176/55
f 75/170/90 81/184/90 72/162/90
f 74/168/55 75/170/55 73/165/55
f 80/183/91 74/168/91 79/180/91
f 75/170/92 76/172/92 81/184/92
f 76/172/91 74/168/91 80/183/91
f 92/203/15 45/104/15 108/226/15
f 45/104/15 33/82/15 41/96/15
f 38/91/15 81/185/15 49/110/15
f 45/104/15 38/91/15 33/82/15
f 116/240/15 92/203/15 135/286/15
f 92/203/15 38/91/15 45/104/15
f 38/91/15 116/240/15 81/185/15
f 76/173/93 38/92/93 81/186/93
f 38/92/94 60/133/94 64/141/94
f 71/159/95 112/234/95 70/156/95
f 112/234/1 141/300/1 142/302/1
f 141/300/96 71/159/96 134/284/96
f 100/216/60 87/194/60 90/200/60
f 96/209/14 95/206/14 82/188/14
f 97/210/40 91/201/40 84/190/40
f 109/227/40 85/191/40 95/207/40
f 98/212/53 94/205/53 86/192/53
f 101/217/52 83/189/52 93/204/52
f 99/214/49 93/204/49 88/196/49
f 108/226/15 89/198/15 92/203/15
f 100/215/13 91/202/13 107/224/13
f 106/223/44 88/197/44 89/198/44
f 105/221/97 86/193/97 87/195/97
f 104/220/40 84/190/40 85/191/40
f 96/208/40 83/189/40 103/219/40
f 32/78/40 103/219/40 46/105/40
f 12/30/40 97/210/40 104/220/40
f 25/60/4 98/211/4 105/221/4
f 52/115/44 99/213/44 106/223/44
f 26/61/13 107/224/13 16/39/13
f 45/104/15 106/223/15 108/226/15
f 47/107/49 101/217/49 99/214/49
f 48/108/62 103/219/62 101/217/62
f 7/20/53 102/218/53 98/212/53
f 8/22/40 104/220/40 109/227/40
f 24/57/40 107/225/40 97/210/40
f 32/79/14 109/228/14 96/209/14
f 26/62/63 105/222/63 100/216/63
f 122/256/14 140/299/14 121/254/14
f 134/285/64 122/256/64 133/282/64
f 141/301/64 122/256/64 134/285/64
f 140/299/64 117/243/64 118/246/64
f 141/301/64 140/299/64 122/256/64
f 111/232/64 142/303/64 112/235/64
f 142/303/64 140/299/64 141/301/64
f 140/299/64 137/292/64 117/243/64
f 137/292/98 129/272/98 130/275/98
f 135/287/64 115/239/64 116/241/64
f 137/292/64 135/287/64 129/272/64
f 111/232/64 140/299/64 142/303/64
f 140/299/64 135/287/64 137/292/64
f 135/287/64 131/278/64 115/239/64
f 131/278/64 123/258/64 124/260/64
f 123/258/64 120/252/64 138/295/64
f 119/249/64 125/263/64 126/266/64
f 131/278/64 120/252/64 123/258/64
f 119/249/64 136/290/64 125/263/64
f 131/278/64 119/249/64 120/252/64
f 140/299/64 131/278/64 135/287/64
f 136/290/64 140/299/64 111/232/64
f 131/278/99 136/290/99 119/249/99
