# Blender 3.3.1
# www.blender.org
o kommode_collider
v -10.406251 0.010798 3.019437
v -10.406251 4.097859 3.019437
v -10.406251 0.010798 -2.835708
v -10.406251 4.097859 -2.835708
v -0.007135 0.010798 3.019437
v -0.007135 4.097859 3.019437
v -0.007135 0.010798 -2.835708
v -0.007135 4.097859 -2.835708
v -10.406251 0.010798 1.001119
v -10.406251 4.097859 1.001119
v -0.007135 0.010798 1.001119
v -0.007135 4.097859 1.001119
v -10.406251 15.598343 1.001119
v -10.406251 15.598343 -2.835708
v -0.007135 15.598343 -2.835708
v -0.007135 15.598343 1.001119
vn -1.0000 -0.0000 -0.0000
vn -0.0000 -0.0000 -1.0000
vn 1.0000 -0.0000 -0.0000
vn -0.0000 -0.0000 1.0000
vn -0.0000 -1.0000 -0.0000
vn -0.0000 1.0000 -0.0000
vt 0.375000 0.000000
vt 0.375000 1.000000
vt 0.125000 0.750000
vt 0.625000 1.000000
vt 0.875000 0.750000
vt 0.625000 0.000000
vt 0.125000 0.500000
vt 0.375000 0.250000
vt 0.625000 0.250000
vt 0.375000 0.750000
vt 0.625000 0.750000
vt 0.375000 0.500000
vt 0.625000 0.500000
vt 0.125000 0.663823
vt 0.375000 0.086177
vt 0.875000 0.663823
vt 0.625000 0.086177
vt 0.375000 0.663823
vt 0.625000 0.663823
vt 0.625000 0.086177
vt 0.875000 0.663823
vt 0.875000 0.500000
vt 0.625000 0.250000
vt 0.625000 0.500000
vt 0.625000 0.663823
s 0
f 10/17/1 3/8/1 9/15/1
f 4/9/2 7/12/2 3/8/2
f 12/19/3 5/10/3 11/18/3
f 6/11/4 1/2/4 5/10/4
f 11/18/5 1/3/5 9/14/5
f 10/16/6 6/11/6 12/19/6
f 8/13/3 16/25/3 12/19/3
f 7/12/5 9/14/5 3/7/5
f 8/13/3 11/18/3 7/12/3
f 2/6/1 9/15/1 1/1/1
f 14/22/6 16/25/6 15/24/6
f 10/17/1 14/23/1 4/9/1
f 4/9/2 15/24/2 8/13/2
f 12/19/4 13/21/4 10/16/4
f 10/17/1 4/9/1 3/8/1
f 4/9/2 8/13/2 7/12/2
f 12/19/3 6/11/3 5/10/3
f 6/11/4 2/4/4 1/2/4
f 11/18/5 5/10/5 1/3/5
f 10/16/6 2/5/6 6/11/6
f 8/13/3 15/24/3 16/25/3
f 7/12/5 11/18/5 9/14/5
f 8/13/3 12/19/3 11/18/3
f 2/6/1 10/17/1 9/15/1
f 14/22/6 13/21/6 16/25/6
f 10/17/1 13/20/1 14/23/1
f 4/9/2 14/23/2 15/24/2
f 12/19/4 16/25/4 13/21/4
