# Blender 3.3.1
# www.blender.org
o kommode
v 0.107256 5.512789 -2.780849
v 0.107256 15.663267 -2.780849
v 0.107257 5.512789 0.609751
v 0.107257 15.663267 0.609751
v -10.466303 5.512789 -2.780846
v -10.466303 15.663267 -2.780846
v -10.466302 5.512789 0.609755
v -10.466302 15.663267 0.609755
v -5.179522 5.512789 0.609753
v -5.179522 15.663267 0.609753
v -5.179523 5.512789 -2.780848
v -5.179523 15.663267 -2.780848
v -6.505839 8.233454 0.911469
v -5.255867 5.575932 0.668477
v -5.752447 5.986639 0.878914
v -5.473572 5.755990 0.789973
v -5.255867 15.600124 0.668477
v -6.505839 9.255329 0.911469
v -5.473572 15.420065 0.789973
v -5.752447 15.189415 0.878914
v -10.389957 15.600124 0.668479
v -6.698690 9.255329 0.911469
v -10.172252 15.420065 0.789975
v -9.893376 15.189415 0.878916
v -6.698690 8.233454 0.911469
v -10.389957 5.575932 0.668479
v -9.893376 5.986640 0.878916
v -10.172252 5.755990 0.789975
v -3.660356 8.233454 0.911468
v 0.030912 5.575932 0.668475
v -0.465668 5.986639 0.878912
v -0.186793 5.755990 0.789971
v 0.030912 15.600124 0.668475
v -3.660356 9.255329 0.911468
v -0.186793 15.420065 0.789971
v -0.465668 15.189415 0.878913
v -5.103178 15.600124 0.668477
v -3.853207 9.255329 0.911468
v -4.885472 15.420065 0.789973
v -4.606597 15.189415 0.878914
v -3.853207 8.233454 0.911468
v -5.103178 5.575932 0.668477
v -4.606597 5.986639 0.878914
v -4.885472 5.755989 0.789973
v -6.017767 14.969976 0.911469
v -6.017767 6.206079 0.911469
v -9.628057 6.206079 0.911470
v -9.628057 14.969976 0.911470
v -0.730989 14.969976 0.911467
v -0.730989 6.206079 0.911467
v -4.341276 6.206079 0.911468
v -4.341276 14.969976 0.911468
v -6.505839 9.255329 1.115023
v -6.505839 8.233454 1.115023
v -6.698690 8.233454 1.115023
v -6.698690 9.255329 1.115023
v -3.660356 9.255329 1.115022
v -3.660356 8.233454 1.115022
v -3.853206 8.233454 1.115022
v -3.853206 9.255329 1.115022
v -10.466304 0.001557 -2.780847
v -10.466304 4.090359 -2.780847
v -10.466302 0.001557 2.846527
v -10.466302 4.090359 2.846527
v -5.177090 0.001557 2.846525
v 0.112122 0.001557 2.846523
v 0.112122 4.090359 2.846523
v -5.177090 4.090359 2.846525
v 0.112120 0.001557 -2.780850
v -5.177092 0.001557 -2.780849
v -5.177092 4.090359 -2.780849
v 0.112120 4.090359 -2.780850
v -6.313084 1.707462 3.236889
v -5.240470 0.056043 2.968583
v -5.540785 0.314215 3.227747
v -5.472934 0.255887 3.200943
v -5.404483 0.197040 3.158304
v -5.340092 0.141685 3.102736
v -5.284150 0.093593 3.038025
v -5.240470 4.035872 2.968583
v -6.058578 1.707462 3.236890
v -5.284150 3.998322 3.038025
v -5.340092 3.950231 3.102736
v -5.404483 3.894876 3.158304
v -5.472934 3.836029 3.200943
v -5.540785 3.777700 3.227747
v -10.402923 4.035872 2.968584
v -6.058577 2.384451 3.236889
v -10.359244 3.998323 3.038027
v -10.303303 3.950233 3.102737
v -10.238912 3.894878 3.158305
v -10.170461 3.836031 3.200944
v -10.102610 3.777702 3.227749
v -6.313084 2.384451 3.236889
v -10.402923 0.056043 2.968584
v -10.102610 0.314214 3.227749
v -10.170461 0.255885 3.200944
v -10.238912 0.197038 3.158305
v -10.303303 0.141683 3.102737
v -10.359244 0.093591 3.038027
v -4.295609 1.707462 3.236889
v 0.048741 0.056043 2.968581
v -0.251574 0.314215 3.227745
v -0.183723 0.255887 3.200941
v -0.115272 0.197040 3.158302
v -0.050881 0.141685 3.102734
v 0.005061 0.093593 3.038024
v 0.048741 4.035872 2.968581
v -4.041103 1.707462 3.236889
v 0.005061 3.998322 3.038024
v -0.050881 3.950231 3.102734
v -0.115272 3.894876 3.158302
v -0.183723 3.836029 3.200941
v -0.251574 3.777700 3.227745
v -5.113708 4.035872 2.968583
v -4.041101 2.384449 3.236889
v -5.070028 3.998322 3.038025
v -5.014087 3.950231 3.102736
v -4.949696 3.894876 3.158304
v -4.881245 3.836029 3.200943
v -4.813394 3.777700 3.227747
v -4.295609 2.384449 3.236889
v -5.113708 0.056043 2.968583
v -4.813394 0.314215 3.227747
v -4.881245 0.255887 3.200943
v -4.949696 0.197040 3.158304
v -5.014087 0.141685 3.102736
v -5.070028 0.093593 3.038025
v -5.603406 3.723866 3.236889
v -5.603406 0.368049 3.236889
v -10.039987 0.368049 3.236891
v -10.039987 3.723866 3.236891
v -0.314195 3.723866 3.236887
v -0.314195 0.368049 3.236887
v -4.750773 0.368049 3.236889
v -4.750773 3.723866 3.236889
v -6.058578 1.707462 3.574755
v -6.313084 1.707462 3.574755
v -6.313084 2.384451 3.574755
v -6.058577 2.384451 3.574755
v -4.041103 1.707462 3.574755
v -4.295609 1.707462 3.574754
v -4.295609 2.384449 3.574754
v -4.041101 2.384449 3.574754
v -10.466303 0.001557 1.003247
v -10.466303 4.090359 1.003247
v -5.177090 4.090359 1.003245
v 0.112121 4.090359 1.003243
v 0.112121 0.001557 1.003243
v -5.177090 0.001557 1.003245
v -10.466303 5.512789 1.003247
v -10.466304 5.512789 -2.780847
v -5.177092 5.512789 -2.780849
v 0.112120 5.512789 -2.780850
v -5.177090 5.512789 1.003245
v 0.112121 5.512789 1.003243
v -10.282444 4.242424 1.003247
v -5.360950 4.242424 1.003245
v -5.360950 5.360723 1.003245
v -10.282444 5.360723 1.003247
v -4.993230 4.242424 1.003245
v -0.071739 4.242424 1.003243
v -0.071739 5.360723 1.003243
v -4.993230 5.360723 1.003245
v -5.360951 4.242424 -2.182739
v -10.282445 4.242424 -2.182738
v -10.282445 5.360723 -2.182738
v -5.360951 5.360723 -2.182739
v -0.071740 4.242424 -2.182741
v -4.993231 4.242424 -2.182739
v -4.993231 5.360723 -2.182739
v -0.071740 5.360723 -2.182741
vn 1.0000 -0.0000 -0.0000
vn -0.0000 -0.6810 0.7323
vn -1.0000 -0.0000 -0.0000
vn -0.0000 -0.0000 -1.0000
vn -0.0000 -1.0000 -0.0000
vn -0.0000 1.0000 -0.0000
vn -0.6097 -0.0000 0.7926
vn 0.6097 -0.0000 0.7926
vn -0.0000 0.6810 0.7323
vn 0.1218 -0.0000 0.9926
vn 0.3039 -0.0000 0.9527
vn 0.4873 -0.0000 0.8732
vn -0.0000 -0.5593 0.8289
vn -0.0000 -0.3598 0.9330
vn -0.0000 -0.1467 0.9892
vn -0.0000 0.5593 0.8289
vn -0.0000 0.3598 0.9330
vn -0.0000 0.1467 0.9892
vn -0.4873 -0.0000 0.8732
vn -0.3038 -0.0000 0.9527
vn -0.1218 -0.0000 0.9926
vn -0.0000 -0.0000 1.0000
vn -0.0000 -0.9131 0.4076
vn -0.8875 -0.0000 0.4608
vn -0.0000 0.9131 0.4076
vn 0.8875 -0.0000 0.4608
vn 0.1445 -0.0000 0.9895
vn 0.3674 -0.0000 0.9301
vn 0.5287 -0.0000 0.8488
vn 0.6533 -0.0000 0.7571
vn 0.7565 -0.0000 0.6540
vn 0.8465 -0.0000 0.5324
vn -0.0000 -0.8796 0.4756
vn -0.0000 -0.8026 0.5965
vn -0.0000 -0.7085 0.7057
vn -0.0000 -0.5867 0.8098
vn -0.0000 -0.4176 0.9086
vn -0.0000 -0.1674 0.9859
vn -0.0000 0.8796 0.4757
vn -0.0000 0.8026 0.5965
vn -0.0000 0.7085 0.7058
vn -0.0000 0.5867 0.8098
vn -0.0000 0.4176 0.9086
vn -0.0000 0.1674 0.9859
vn -0.8465 -0.0000 0.5324
vn -0.7565 -0.0000 0.6540
vn -0.6533 -0.0000 0.7571
vn -0.5287 -0.0000 0.8488
vn -0.3674 -0.0000 0.9301
vn -0.1445 -0.0000 0.9895
vn -0.0000 -0.8796 0.4757
vn -0.0000 0.7085 0.7057
vn 0.3038 -0.0000 0.9527
vn -0.0000 -0.7085 0.7058
vn -0.0000 0.8796 0.4756
vn -0.1444 -0.0000 0.9895
vt 0.287147 0.360479
vt 0.008709 0.008709
vt 0.808998 0.314319
vt 0.287147 0.694831
vt 0.008709 0.343060
vt 0.930281 0.619796
vt 0.168300 0.360479
vt 0.927999 0.314319
vt 0.168300 0.694831
vt 0.811280 0.619796
vt 0.296768 0.008709
vt 0.670430 0.314319
vt 0.808998 0.602378
vt 0.670430 0.648670
vt 0.930281 0.907855
vt 0.296768 0.343060
vt 0.927999 0.602378
vt 0.789277 0.314319
vt 0.789277 0.648670
vt 0.811280 0.907855
vt 0.950002 0.443412
vt 0.927999 0.458349
vt 0.969723 0.777764
vt 0.969723 0.443413
vt 0.811280 0.763826
vt 0.950002 0.777763
vt 0.808998 0.458349
vt 0.152739 0.008709
vt 0.930281 0.763826
vt 0.152739 0.343060
vt 0.722654 0.235034
vt 0.618958 0.401856
vt 0.764236 0.286113
vt 0.930281 0.460428
vt 0.653011 0.314319
vt 0.947699 0.445492
vt 0.639483 0.327847
vt 0.647080 0.320250
vt 0.808998 0.765906
vt 0.653011 0.644511
vt 0.947699 0.775684
vt 0.741564 0.293257
vt 0.618958 0.435516
vt 0.722654 0.268694
vt 0.647080 0.638579
vt 0.639483 0.630982
vt 0.791580 0.646591
vt 0.808998 0.905775
vt 0.513142 0.644511
vt 0.740072 0.268694
vt 0.613705 0.435516
vt 0.736310 0.293257
vt 0.519073 0.638579
vt 0.526670 0.630982
vt 0.758982 0.286113
vt 0.613705 0.401856
vt 0.740072 0.235034
vt 0.930281 0.600298
vt 0.791580 0.316399
vt 0.513142 0.314319
vt 0.526670 0.327847
vt 0.519073 0.320250
vt 0.698101 0.235034
vt 0.696220 0.286113
vt 0.048017 0.448017
vt 0.930281 0.316399
vt 0.165997 0.362559
vt 0.148579 0.360479
vt 0.135050 0.374008
vt 0.142648 0.366410
vt 0.808998 0.621876
vt 0.148579 0.690671
vt 0.165997 0.692751
vt 0.718892 0.293257
vt 0.048017 0.481677
vt 0.698101 0.268694
vt 0.142648 0.684740
vt 0.135050 0.677142
vt 0.967420 0.445493
vt 0.808998 0.761746
vt 0.008709 0.690671
vt 0.764625 0.268694
vt 0.042762 0.481677
vt 0.713638 0.293257
vt 0.014640 0.684740
vt 0.022238 0.677142
vt 0.690966 0.286113
vt 0.764625 0.235034
vt 0.042762 0.448017
vt 0.930281 0.456269
vt 0.967420 0.775684
vt 0.008709 0.360479
vt 0.022238 0.374008
vt 0.014640 0.366410
vt 0.632255 0.623754
vt 0.632255 0.335075
vt 0.533898 0.335075
vt 0.533898 0.623754
vt 0.127822 0.669914
vt 0.127822 0.381236
vt 0.029466 0.381236
vt 0.029466 0.669914
vt 0.143201 0.890873
vt 0.741564 0.286113
vt 0.715519 0.268694
vt 0.143201 0.857213
vt 0.764236 0.293257
vt 0.715519 0.235034
vt 0.137947 0.857213
vt 0.747207 0.235034
vt 0.758982 0.293257
vt 0.137947 0.890873
vt 0.747207 0.268694
vt 0.736310 0.286113
vt 0.279760 0.934751
vt 0.718892 0.286113
vt 0.690966 0.268694
vt 0.279760 0.901091
vt 0.696220 0.293257
vt 0.690966 0.235034
vt 0.690966 0.293257
vt 0.771760 0.235034
vt 0.274506 0.901091
vt 0.771760 0.268694
vt 0.274506 0.934751
vt 0.713638 0.286113
vt 0.314186 0.314319
vt 0.314186 0.828836
vt 0.314187 0.296901
vt 0.448869 0.828836
vt 0.448869 0.314319
vt 0.314186 0.631586
vt 0.511692 0.296901
vt 0.524768 0.950121
vt 0.448869 0.631586
vt 0.959356 0.795182
vt 0.965851 0.143392
vt 0.511692 0.152805
vt 0.511692 0.008709
vt 0.872503 0.020366
vt 0.737820 0.020366
vt 0.524768 0.661929
vt 0.965851 0.008709
vt 0.959356 0.929865
vt 0.524768 0.806025
vt 0.314187 0.008709
vt 0.314186 0.602510
vt 0.872503 0.217617
vt 0.314187 0.152805
vt 0.314186 0.458415
vt 0.448869 0.458415
vt 0.448869 0.602510
vt 0.737820 0.217617
vt 0.862234 0.274753
vt 0.080761 0.815042
vt 0.801021 0.257334
vt 0.516166 0.154532
vt 0.954875 0.796977
vt 0.126654 0.836082
vt 0.128576 0.837930
vt 0.947699 0.801621
vt 0.523318 0.159000
vt 0.130514 0.839795
vt 0.949853 0.799798
vt 0.521174 0.157246
vt 0.952301 0.798214
vt 0.518735 0.155722
vt 0.520294 0.807752
vt 0.954875 0.928070
vt 0.080761 0.821976
vt 0.869167 0.274753
vt 0.818440 0.257334
vt 0.952301 0.926833
vt 0.517725 0.808941
vt 0.949853 0.925249
vt 0.515286 0.810466
vt 0.947699 0.923426
vt 0.513142 0.812220
vt 0.008709 0.839795
vt 0.010648 0.837930
vt 0.012569 0.836082
vt 0.447075 0.627105
vt 0.520294 0.948394
vt 0.058462 0.821976
vt 0.818440 0.235035
vt 0.820464 0.286611
vt 0.517725 0.947204
vt 0.445838 0.624531
vt 0.444254 0.622083
vt 0.515286 0.945680
vt 0.513142 0.943926
vt 0.008709 0.708089
vt 0.442430 0.619929
vt 0.010647 0.709954
vt 0.012569 0.711802
vt 0.801021 0.235035
vt 0.058462 0.815042
vt 0.813530 0.286611
vt 0.516166 0.295174
vt 0.315981 0.627105
vt 0.126654 0.711802
vt 0.128576 0.709954
vt 0.523318 0.290706
vt 0.320625 0.619929
vt 0.130514 0.708089
vt 0.521174 0.292460
vt 0.318802 0.622083
vt 0.518735 0.293984
vt 0.317218 0.624531
vt 0.837882 0.274753
vt 0.238050 0.730069
vt 0.847701 0.235035
vt 0.870708 0.015885
vt 0.516166 0.010436
vt 0.283942 0.840241
vt 0.285863 0.842090
vt 0.866064 0.008709
vt 0.523318 0.014904
vt 0.287802 0.843955
vt 0.867887 0.010863
vt 0.521174 0.013150
vt 0.869472 0.013311
vt 0.518735 0.011626
vt 0.520294 0.663656
vt 0.739614 0.015885
vt 0.844816 0.274753
vt 0.238050 0.737002
vt 0.274506 0.883672
vt 0.740851 0.013311
vt 0.517725 0.664846
vt 0.742435 0.010863
vt 0.515286 0.666370
vt 0.744259 0.008709
vt 0.165997 0.843955
vt 0.513142 0.668124
vt 0.167935 0.842090
vt 0.169857 0.840241
vt 0.961370 0.010504
vt 0.520294 0.804298
vt 0.215750 0.737002
vt 0.274506 0.861373
vt 0.796112 0.286611
vt 0.517725 0.803108
vt 0.958795 0.011741
vt 0.956348 0.013325
vt 0.515286 0.801584
vt 0.513142 0.799830
vt 0.165997 0.712249
vt 0.954194 0.015148
vt 0.167935 0.714114
vt 0.169857 0.715962
vt 0.847701 0.257334
vt 0.215750 0.730069
vt 0.789179 0.286611
vt 0.516166 0.151078
vt 0.961370 0.141597
vt 0.283942 0.715962
vt 0.285863 0.714114
vt 0.523318 0.146610
vt 0.954194 0.136953
vt 0.287802 0.712249
vt 0.521174 0.148364
vt 0.956348 0.138776
vt 0.518735 0.149888
vt 0.958795 0.140360
vt 0.014342 0.834375
vt 0.124881 0.834375
vt 0.124881 0.713509
vt 0.014342 0.713509
vt 0.171630 0.838535
vt 0.282169 0.838535
vt 0.282169 0.717668
vt 0.171630 0.717668
vt 0.830282 0.257334
vt 0.808998 0.947573
vt 0.869167 0.286611
vt 0.815932 0.947573
vt 0.862234 0.286611
vt 0.789179 0.257334
vt 0.815932 0.925274
vt 0.789179 0.235035
vt 0.813530 0.274753
vt 0.820464 0.274753
vt 0.808998 0.925274
vt 0.830282 0.235035
vt 0.286349 0.883672
vt 0.844816 0.286611
vt 0.144880 0.908291
vt 0.137947 0.908291
vt 0.837882 0.286611
vt 0.859543 0.235035
vt 0.137947 0.930591
vt 0.859543 0.257334
vt 0.789179 0.274753
vt 0.796112 0.274753
vt 0.144880 0.930591
vt 0.286349 0.861373
vt 0.446998 0.296901
vt 0.314186 0.696197
vt 0.589463 0.950121
vt 0.448869 0.696197
vt 0.889921 0.296901
vt 0.589463 0.806025
vt 0.889921 0.152805
vt 0.737820 0.084977
vt 0.589463 0.661929
vt 0.889921 0.008709
vt 0.872503 0.084977
vt 0.446998 0.008709
vt 0.446998 0.152805
vt 0.673548 0.008709
vt 0.495724 0.696197
vt 0.936775 0.296901
vt 0.495724 0.314319
vt 0.495724 0.828836
vt 0.540736 0.008709
vt 0.540736 0.152805
vt 0.495724 0.458415
vt 0.540736 0.296901
vt 0.690966 0.217617
vt 0.495724 0.602510
vt 0.673548 0.152805
vt 0.936775 0.152805
vt 0.673548 0.296901
vt 0.690966 0.084977
vt 0.936775 0.008709
vt 0.426006 0.846254
vt 0.220252 0.973048
vt 0.894930 0.291892
vt 0.202833 0.973048
vt 0.894930 0.157814
vt 0.426006 0.980332
vt 0.670430 0.800167
vt 0.931767 0.157814
vt 0.165997 0.973048
vt 0.257087 0.973048
vt 0.670430 0.666089
vt 0.931767 0.291892
vt 0.008709 0.991291
vt 0.894930 0.147796
vt 0.984535 0.314319
vt 0.480260 0.957929
vt 0.894930 0.013718
vt 0.008709 0.857213
vt 0.670430 0.951663
vt 0.931767 0.013718
vt 0.443424 0.957929
vt 0.947699 0.314319
vt 0.931767 0.147796
vt 0.670430 0.817585
vt 0.643717 0.796007
vt 0.202833 0.861373
vt 0.314187 0.980332
vt 0.643717 0.661929
vt 0.220252 0.861373
vt 0.314187 0.846254
vt 0.257087 0.861373
vt 0.782249 0.666089
vt 0.606881 0.661929
vt 0.782249 0.800167
vt 0.606881 0.796007
vt 0.165997 0.861373
vt 0.643717 0.947503
vt 0.480260 0.846255
vt 0.120528 0.857213
vt 0.643717 0.813425
vt 0.120528 0.991291
vt 0.984535 0.425994
vt 0.606881 0.813425
vt 0.782249 0.817585
vt 0.947699 0.425994
vt 0.606881 0.947503
vt 0.443424 0.846255
vt 0.782249 0.951663
s 0
f 2/4/1 3/7/1 1/1/1
f 9/22/2 26/58/2 7/17/2
f 8/19/3 5/12/3 7/18/3
f 12/30/4 1/2/4 11/28/4
f 7/17/5 11/27/5 9/22/5
f 4/10/6 12/29/6 10/25/6
f 10/25/6 6/15/6 8/20/6
f 9/22/5 1/3/5 3/8/5
f 6/16/4 11/28/4 5/11/4
f 3/8/2 42/90/2 9/22/2
f 29/64/5 59/121/5 41/87/5
f 7/18/7 21/47/7 8/19/7
f 4/9/8 30/67/8 3/7/8
f 8/20/9 17/39/9 10/25/9
f 41/88/3 60/124/3 38/82/3
f 9/23/7 37/79/7 10/24/7
f 4/10/9 37/80/9 33/71/9
f 46/96/10 20/46/10 45/95/10
f 15/37/11 19/45/11 20/46/11
f 19/45/12 14/35/12 17/40/12
f 14/35/13 28/62/13 26/60/13
f 28/62/14 15/37/14 27/61/14
f 15/37/15 47/97/15 27/61/15
f 17/40/16 23/53/16 19/45/16
f 23/53/17 20/46/17 19/45/17
f 24/54/18 45/95/18 20/46/18
f 26/60/19 23/53/19 21/49/19
f 23/53/20 27/61/20 24/54/20
f 27/61/21 48/98/21 24/54/21
f 50/100/10 36/78/10 49/99/10
f 31/69/11 35/77/11 36/78/11
f 35/77/12 30/68/12 33/72/12
f 30/68/13 44/94/13 42/92/13
f 44/94/14 31/69/14 43/93/14
f 31/69/15 51/101/15 43/93/15
f 37/81/16 35/77/16 33/72/16
f 39/85/17 36/78/17 35/77/17
f 40/86/18 49/99/18 36/78/18
f 42/92/19 39/85/19 37/81/19
f 44/94/20 40/86/20 39/85/20
f 43/93/21 52/102/21 40/86/21
f 10/26/8 14/36/8 9/21/8
f 18/43/22 46/96/22 45/95/22
f 25/56/22 46/96/22 13/32/22
f 22/51/22 45/95/22 48/98/22
f 22/51/22 47/97/22 25/56/22
f 34/75/22 50/100/22 49/99/22
f 29/65/22 51/101/22 50/100/22
f 34/75/22 52/102/22 38/83/22
f 38/83/22 51/101/22 41/89/22
f 53/103/22 55/109/22 54/106/22
f 57/115/22 59/123/22 58/118/22
f 25/57/3 56/113/3 22/50/3
f 13/33/5 55/111/5 25/55/5
f 38/84/6 57/116/6 34/74/6
f 34/76/1 58/120/1 29/63/1
f 22/52/6 53/104/6 18/42/6
f 18/44/1 54/108/1 13/31/1
f 63/133/23 74/157/23 95/199/23
f 146/301/3 61/128/3 145/299/3
f 145/298/5 70/149/5 150/310/5
f 62/131/4 153/318/4 71/151/4
f 146/301/3 152/315/3 62/130/3
f 150/310/5 69/146/5 149/309/5
f 62/131/4 70/150/4 61/127/4
f 71/151/4 69/147/4 70/150/4
f 66/139/23 123/255/23 65/138/23
f 63/132/24 87/182/24 64/135/24
f 64/134/25 80/168/25 68/145/25
f 109/226/5 142/290/5 101/210/5
f 67/141/26 102/213/26 66/140/26
f 65/137/24 115/238/24 68/143/24
f 68/145/25 108/224/25 67/142/25
f 130/267/27 86/181/27 129/266/27
f 75/159/28 85/180/28 86/181/28
f 85/180/29 77/163/29 84/179/29
f 77/161/30 83/175/30 84/177/30
f 78/164/31 82/173/31 83/175/31
f 82/173/32 74/158/32 80/169/32
f 95/199/33 79/167/33 100/208/33
f 79/167/34 99/206/34 100/208/34
f 78/165/35 98/203/35 99/206/35
f 77/163/36 97/202/36 98/205/36
f 76/160/37 96/201/37 97/202/37
f 75/159/38 131/268/38 96/201/38
f 87/183/39 82/174/39 80/168/39
f 89/187/40 83/176/40 82/174/40
f 83/176/41 91/191/41 84/178/41
f 84/179/42 92/194/42 85/180/42
f 92/194/43 86/181/43 85/180/43
f 93/195/44 129/266/44 86/181/44
f 95/200/45 89/188/45 87/182/45
f 89/188/46 99/207/46 90/189/46
f 99/207/47 91/193/47 90/189/47
f 98/205/48 92/194/48 91/192/48
f 97/202/49 93/195/49 92/194/49
f 96/201/50 132/269/50 93/195/50
f 134/271/27 114/237/27 133/270/27
f 103/215/28 113/236/28 114/237/28
f 104/216/29 112/234/29 113/236/29
f 105/217/30 111/231/30 112/233/30
f 106/220/31 110/229/31 111/231/31
f 107/222/32 108/225/32 110/229/32
f 102/214/51 128/264/51 123/255/51
f 128/264/34 106/221/34 127/262/34
f 106/221/35 126/259/35 127/262/35
f 126/261/36 104/216/36 125/258/36
f 104/216/37 124/257/37 125/258/37
f 103/215/38 135/272/38 124/257/38
f 115/239/39 110/230/39 108/224/39
f 117/243/40 111/232/40 110/230/40
f 118/246/52 112/235/52 111/232/52
f 119/248/42 113/236/42 112/234/42
f 120/250/43 114/237/43 113/236/43
f 121/251/44 133/270/44 114/237/44
f 123/256/45 117/244/45 115/238/45
f 117/244/46 127/263/46 118/245/46
f 127/263/47 119/249/47 118/245/47
f 126/261/48 120/250/48 119/248/48
f 125/258/49 121/251/49 120/250/49
f 124/257/50 136/273/50 121/251/50
f 68/144/26 74/158/26 65/136/26
f 81/170/22 130/267/22 129/266/22
f 73/155/22 131/268/22 130/267/22
f 88/184/22 129/266/22 132/269/22
f 94/197/22 132/269/22 131/268/22
f 109/227/22 134/271/22 133/270/22
f 101/211/22 135/272/22 134/271/22
f 116/240/22 133/270/22 136/273/22
f 122/253/22 136/273/22 135/272/22
f 137/275/22 139/280/22 138/277/22
f 141/288/22 143/292/22 142/289/22
f 101/212/3 143/293/3 122/252/3
f 109/228/1 144/297/1 141/286/1
f 81/171/5 138/278/5 73/154/5
f 116/242/6 143/294/6 144/295/6
f 73/156/3 139/281/3 94/196/3
f 81/172/1 140/285/1 137/274/1
f 88/186/6 139/282/6 140/283/6
f 67/141/1 149/308/1 148/305/1
f 148/305/1 69/148/1 72/153/1
f 65/138/5 149/309/5 66/139/5
f 67/142/6 147/303/6 68/145/6
f 68/145/6 146/300/6 64/134/6
f 63/133/5 150/310/5 65/138/5
f 64/135/3 145/299/3 63/132/3
f 155/322/6 152/316/6 151/311/6
f 156/324/6 153/317/6 155/322/6
f 157/328/1 167/357/1 160/336/1
f 72/153/1 156/325/1 148/305/1
f 71/151/4 154/321/4 72/152/4
f 160/337/5 168/360/5 159/333/5
f 146/302/22 158/331/22 157/329/22
f 155/323/22 158/331/22 147/304/22
f 151/313/22 159/334/22 155/323/22
f 146/302/22 160/338/22 151/313/22
f 147/304/22 162/343/22 161/340/22
f 148/307/22 163/346/22 162/343/22
f 155/323/22 163/346/22 156/326/22
f 147/304/22 164/349/22 155/323/22
f 165/351/22 167/359/22 166/354/22
f 169/363/22 171/369/22 170/366/22
f 163/347/3 169/364/3 162/342/3
f 162/344/6 170/367/6 161/339/6
f 159/335/3 165/352/3 158/330/3
f 164/350/5 172/374/5 163/345/5
f 158/332/6 166/356/6 157/327/6
f 161/341/1 171/371/1 164/348/1
f 2/4/1 4/9/1 3/7/1
f 9/22/2 14/34/2 26/58/2
f 8/19/3 6/14/3 5/12/3
f 12/30/4 2/5/4 1/2/4
f 7/17/5 5/13/5 11/27/5
f 4/10/6 2/6/6 12/29/6
f 10/25/6 12/29/6 6/15/6
f 9/22/5 11/27/5 1/3/5
f 6/16/4 12/30/4 11/28/4
f 3/8/2 30/66/2 42/90/2
f 29/64/5 58/119/5 59/121/5
f 7/18/7 26/59/7 21/47/7
f 4/9/8 33/73/8 30/67/8
f 8/20/9 21/48/9 17/39/9
f 41/88/3 59/122/3 60/124/3
f 9/23/7 42/91/7 37/79/7
f 4/10/9 10/25/9 37/80/9
f 46/96/10 15/37/10 20/46/10
f 15/37/11 16/38/11 19/45/11
f 19/45/12 16/38/12 14/35/12
f 14/35/13 16/38/13 28/62/13
f 28/62/14 16/38/14 15/37/14
f 15/37/15 46/96/15 47/97/15
f 17/40/16 21/49/16 23/53/16
f 23/53/17 24/54/17 20/46/17
f 24/54/18 48/98/18 45/95/18
f 26/60/19 28/62/19 23/53/19
f 23/53/20 28/62/20 27/61/20
f 27/61/21 47/97/21 48/98/21
f 50/100/10 31/69/10 36/78/10
f 31/69/53 32/70/53 35/77/53
f 35/77/12 32/70/12 30/68/12
f 30/68/13 32/70/13 44/94/13
f 44/94/14 32/70/14 31/69/14
f 31/69/15 50/100/15 51/101/15
f 37/81/16 39/85/16 35/77/16
f 39/85/17 40/86/17 36/78/17
f 40/86/18 52/102/18 49/99/18
f 42/92/19 44/94/19 39/85/19
f 44/94/20 43/93/20 40/86/20
f 43/93/21 51/101/21 52/102/21
f 10/26/8 17/41/8 14/36/8
f 18/43/22 13/32/22 46/96/22
f 25/56/22 47/97/22 46/96/22
f 22/51/22 18/43/22 45/95/22
f 22/51/22 48/98/22 47/97/22
f 34/75/22 29/65/22 50/100/22
f 29/65/22 41/89/22 51/101/22
f 34/75/22 49/99/22 52/102/22
f 38/83/22 52/102/22 51/101/22
f 53/103/22 56/112/22 55/109/22
f 57/115/22 60/125/22 59/123/22
f 25/57/3 55/110/3 56/113/3
f 13/33/5 54/107/5 55/111/5
f 38/84/6 60/126/6 57/116/6
f 34/76/1 57/117/1 58/120/1
f 22/52/6 56/114/6 53/104/6
f 18/44/1 53/105/1 54/108/1
f 63/133/23 65/138/23 74/157/23
f 146/301/3 62/130/3 61/128/3
f 145/298/5 61/129/5 70/149/5
f 62/131/4 152/314/4 153/318/4
f 146/301/3 151/312/3 152/315/3
f 150/310/5 70/149/5 69/146/5
f 62/131/4 71/151/4 70/150/4
f 71/151/4 72/152/4 69/147/4
f 66/139/23 102/214/23 123/255/23
f 63/132/24 95/200/24 87/182/24
f 64/134/25 87/183/25 80/168/25
f 109/226/5 141/287/5 142/290/5
f 67/141/26 108/225/26 102/213/26
f 65/137/24 123/256/24 115/238/24
f 68/145/25 115/239/25 108/224/25
f 130/267/27 75/159/27 86/181/27
f 75/159/28 76/160/28 85/180/28
f 85/180/29 76/160/29 77/163/29
f 77/161/30 78/164/30 83/175/30
f 78/164/31 79/166/31 82/173/31
f 82/173/32 79/166/32 74/158/32
f 95/199/33 74/157/33 79/167/33
f 79/167/34 78/165/34 99/206/34
f 78/165/54 77/162/54 98/203/54
f 77/163/36 76/160/36 97/202/36
f 76/160/37 75/159/37 96/201/37
f 75/159/38 130/267/38 131/268/38
f 87/183/55 89/187/55 82/174/55
f 89/187/40 90/190/40 83/176/40
f 83/176/52 90/190/52 91/191/52
f 84/179/42 91/192/42 92/194/42
f 92/194/43 93/195/43 86/181/43
f 93/195/44 132/269/44 129/266/44
f 95/200/45 100/209/45 89/188/45
f 89/188/46 100/209/46 99/207/46
f 99/207/47 98/204/47 91/193/47
f 98/205/48 97/202/48 92/194/48
f 97/202/49 96/201/49 93/195/49
f 96/201/56 131/268/56 132/269/56
f 134/271/27 103/215/27 114/237/27
f 103/215/28 104/216/28 113/236/28
f 104/216/29 105/219/29 112/234/29
f 105/217/30 106/220/30 111/231/30
f 106/220/31 107/222/31 110/229/31
f 107/222/32 102/213/32 108/225/32
f 102/214/33 107/223/33 128/264/33
f 128/264/34 107/223/34 106/221/34
f 106/221/35 105/218/35 126/259/35
f 126/261/36 105/219/36 104/216/36
f 104/216/37 103/215/37 124/257/37
f 103/215/38 134/271/38 135/272/38
f 115/239/39 117/243/39 110/230/39
f 117/243/40 118/246/40 111/232/40
f 118/246/52 119/247/52 112/235/52
f 119/248/42 120/250/42 113/236/42
f 120/250/43 121/251/43 114/237/43
f 121/251/44 136/273/44 133/270/44
f 123/256/45 128/265/45 117/244/45
f 117/244/46 128/265/46 127/263/46
f 127/263/47 126/260/47 119/249/47
f 126/261/48 125/258/48 120/250/48
f 125/258/49 124/257/49 121/251/49
f 124/257/50 135/272/50 136/273/50
f 68/144/26 80/169/26 74/158/26
f 81/170/22 73/155/22 130/267/22
f 73/155/22 94/197/22 131/268/22
f 88/184/22 81/170/22 129/266/22
f 94/197/22 88/184/22 132/269/22
f 109/227/22 101/211/22 134/271/22
f 101/211/22 122/253/22 135/272/22
f 116/240/22 109/227/22 133/270/22
f 122/253/22 116/240/22 136/273/22
f 137/275/22 140/284/22 139/280/22
f 141/288/22 144/296/22 143/292/22
f 101/212/3 142/291/3 143/293/3
f 109/228/1 116/241/1 144/297/1
f 81/171/5 137/276/5 138/278/5
f 116/242/6 122/254/6 143/294/6
f 73/156/3 138/279/3 139/281/3
f 81/172/1 88/185/1 140/285/1
f 88/186/6 94/198/6 139/282/6
f 67/141/1 66/140/1 149/308/1
f 148/305/1 149/308/1 69/148/1
f 65/138/5 150/310/5 149/309/5
f 67/142/6 148/306/6 147/303/6
f 68/145/6 147/303/6 146/300/6
f 63/133/5 145/298/5 150/310/5
f 64/135/3 146/301/3 145/299/3
f 155/322/6 153/317/6 152/316/6
f 156/324/6 154/319/6 153/317/6
f 157/328/1 166/355/1 167/357/1
f 72/153/1 154/320/1 156/325/1
f 71/151/4 153/318/4 154/321/4
f 160/337/5 167/358/5 168/360/5
f 146/302/22 147/304/22 158/331/22
f 155/323/22 159/334/22 158/331/22
f 151/313/22 160/338/22 159/334/22
f 146/302/22 157/329/22 160/338/22
f 147/304/22 148/307/22 162/343/22
f 148/307/22 156/326/22 163/346/22
f 155/323/22 164/349/22 163/346/22
f 147/304/22 161/340/22 164/349/22
f 165/351/22 168/361/22 167/359/22
f 169/363/22 172/372/22 171/369/22
f 163/347/3 172/373/3 169/364/3
f 162/344/6 169/365/6 170/367/6
f 159/335/3 168/362/3 165/352/3
f 164/350/5 171/370/5 172/374/5
f 158/332/6 165/353/6 166/356/6
f 161/341/1 170/368/1 171/371/1
