# Blender 3.3.1
# www.blender.org
o north_wall_traiteur_collider
v -4.695920 14.722431 0.960784
v -4.695920 0.002017 0.980198
v 3.861790 14.722496 -0.999107
v 3.846371 0.002017 -1.000000
v 2.085190 0.002017 1.000000
v 2.102627 0.002017 30.093006
v 2.085190 14.722431 30.093004
v 3.992323 14.722863 30.082949
v 3.546622 0.044446 7.622561
v 2.085190 14.722431 1.000000
v 3.403055 11.804020 1.944350
v 3.501118 0.049963 1.945971
v 3.528876 11.803288 7.625091
v 3.202322 5.798559 3.559326
v 3.587512 5.798559 2.755984
vn 0.9932 -0.0010 0.1164
vn -0.0000 1.0000 -0.0000
vn 0.9899 -0.1270 0.0634
vn 0.0291 -0.9996 -0.0000
vn -0.0001 1.0000 -0.0000
vn 0.9998 0.0015 -0.0208
vn 0.9865 0.0082 -0.1635
vn -0.2232 0.0003 -0.9748
vn 0.0213 -0.9996 0.0188
vn -0.0000 -1.0000 -0.0000
vn 0.9921 -0.1254 -0.0042
vn 0.0053 -0.0000 1.0000
vn -0.0002 1.0000 -0.0000
vn 0.0347 -0.9994 -0.0012
vn 0.9868 0.0083 0.1620
vn 0.8984 0.0858 0.4308
vn 0.9985 0.0541 -0.0080
vn 0.9966 0.0015 -0.0823
vn -0.2258 -0.0013 -0.9742
vn 0.9840 -0.1767 -0.0218
vn 0.9990 -0.0393 -0.0221
vn 0.8992 -0.0743 0.4312
vt 0.875000 0.745098
vt 0.625000 0.250000
vt 0.125000 0.747525
vt 0.375000 0.250000
vt 0.625000 0.500112
vt 0.375000 0.500000
vt 0.284149 0.750000
vt 0.285049 0.750000
vt 0.375000 0.839951
vt 0.625000 0.840850
vt 0.715850 0.750000
vt 0.625000 0.750000
vt 0.387608 0.750000
vt 0.715850 0.750000
vt 0.612385 0.750000
vt 0.387591 0.750000
vt 0.612385 0.750000
vt 0.504768 0.750000
vt 0.502204 0.750000
s 0
f 3/5/1 12/16/1 4/6/1
f 1/1/2 10/14/2 3/5/2
f 8/12/3 6/8/3 9/13/3
f 9/13/4 6/8/4 5/7/4
f 10/14/5 8/12/5 3/5/5
f 9/13/6 13/17/6 8/12/6
f 12/16/7 11/15/7 15/19/7
f 4/6/8 1/2/8 3/5/8
f 4/6/9 12/16/9 5/7/9
f 4/6/10 5/7/10 2/3/10
f 13/17/11 3/5/11 8/12/11
f 8/12/12 7/10/12 6/9/12
f 10/14/13 7/11/13 8/12/13
f 12/16/14 9/13/14 5/7/14
f 12/16/15 3/5/15 11/15/15
f 11/15/16 14/18/16 15/19/16
f 12/16/17 14/18/17 9/13/17
f 13/17/18 9/13/18 14/18/18
f 4/6/19 2/4/19 1/2/19
f 13/17/20 11/15/20 3/5/20
f 11/15/21 13/17/21 14/18/21
f 12/16/22 15/19/22 14/18/22
