# Blender 3.3.1
# www.blender.org
o north_wall_kitchen
v -1.000000 -0.019079 1.000000
v -1.000000 14.749451 1.000000
v -1.000000 -0.019079 -52.636276
v -1.000000 14.749451 -52.636276
v 3.853036 -0.019079 1.000000
v 3.853036 14.749451 1.000000
v 3.853036 -0.019079 -52.636276
v 3.853036 14.749451 -52.636276
vn -1.0000 -0.0000 -0.0000
vn -0.0000 -0.0000 -1.0000
vn 1.0000 -0.0000 -0.0000
vn -0.0000 -0.0000 1.0000
vn -0.0000 -1.0000 -0.0000
vn -0.0000 1.0000 -0.0000
vt 0.558102 0.996098
vt 0.761067 0.003903
vt 0.565907 0.996098
vt 0.284904 0.996098
vt 0.761067 0.277099
vt 0.753262 0.996098
vt 0.850842 0.284905
vt 0.565907 0.003902
vt 0.558102 0.003902
vt 0.284904 0.003902
vt 0.850842 0.558102
vt 0.753262 0.003902
vt 0.850841 0.003903
vt 0.277100 0.003903
vt 0.655682 0.996098
vt 0.003902 0.003903
vt 0.850841 0.277099
vt 0.663487 0.996098
vt 0.277100 0.996097
vt 0.761067 0.284905
vt 0.655682 0.003902
vt 0.663487 0.003902
vt 0.761067 0.558102
vt 0.003902 0.996097
s 0
f 2/4/1 3/9/1 1/1/1
f 4/11/2 7/20/2 3/7/2
f 8/24/3 5/14/3 7/19/3
f 6/17/4 1/2/4 5/13/4
f 7/21/5 1/3/5 3/8/5
f 4/12/6 6/18/6 8/22/6
f 2/4/1 4/10/1 3/9/1
f 4/11/2 8/23/2 7/20/2
f 8/24/3 6/16/3 5/14/3
f 6/17/4 2/5/4 1/2/4
f 7/21/5 5/15/5 1/3/5
f 4/12/6 2/6/6 6/18/6
