# Blender 3.3.1
# www.blender.org
o north_wall_essbereich
v -1.000000 0.025221 1.000000
v -1.000000 0.025221 -2.537580
v -1.000000 2.025221 -2.537580
v 1.000000 0.025221 1.000000
v 1.000000 2.025221 1.000000
v 1.000000 0.025221 -2.537580
v 1.000000 2.025221 -2.537580
v -1.000000 0.025221 36.950775
v 1.000000 2.025221 36.950775
v 1.000000 0.025221 36.950775
v -1.000000 0.025221 38.349052
v 1.000000 0.025221 38.349052
v 4.667398 2.025221 36.950775
v 4.667398 0.025221 36.950775
v 4.667398 0.025221 38.349052
v 6.107185 2.025221 36.950775
v 6.107185 0.025221 36.950775
v 6.107185 2.025221 38.349052
v 6.107185 0.025221 38.349052
v 4.667398 0.025221 52.957394
v 6.107185 2.025221 47.922970
v 6.107185 0.025221 47.922970
v 4.667398 2.025221 54.196880
v 4.667398 0.025221 54.196880
v 6.107185 2.025221 54.196880
v 6.107185 0.025221 54.196880
v 3.334361 0.025221 52.957394
v 3.334361 0.025221 54.196880
v 4.667398 2.025221 61.665833
v 4.667398 0.025221 61.665833
v 3.334361 0.025221 61.665833
v 4.667398 2.025221 67.996864
v 4.667398 0.025221 67.996864
v 3.334361 2.025221 67.996864
v 3.334361 0.025221 67.996864
v -1.000000 14.723980 1.000000
v -1.000000 14.723980 -2.537580
v 1.000000 14.723980 -2.537580
v 1.000000 14.723980 1.000000
v 1.000000 14.723980 36.950775
v -1.000000 14.723980 36.950775
v 1.000000 14.723980 38.349052
v -1.000000 14.723980 38.349052
v 4.667398 14.723980 38.349052
v 4.667398 14.723980 36.950775
v 6.107185 14.723980 38.349052
v 6.107185 14.723980 36.950775
v 6.107185 14.723980 47.922970
v 4.667398 14.723980 52.957394
v 6.107185 14.723980 54.196880
v 4.667398 14.723980 54.196880
v 3.334361 14.723980 54.196880
v 3.334361 14.723980 52.957394
v 3.334361 14.723980 61.665833
v 4.667398 14.723980 61.665833
v 3.334361 14.723980 67.996864
v 4.667398 14.723980 67.996864
vn -0.0000 -0.0000 -1.0000
vn 1.0000 -0.0000 -0.0000
vn -0.0000 -1.0000 -0.0000
vn -0.0000 -0.0000 1.0000
vn -0.0000 1.0000 -0.0000
vt 0.324225 0.053249
vt 0.660515 0.253143
vt 0.324225 0.003440
vt 0.660515 0.281303
vt 0.210398 0.509624
vt 0.352385 0.053249
vt 0.182238 0.509624
vt 0.210398 0.559433
vt 0.632355 0.253143
vt 0.352385 0.003440
vt 0.632355 0.281303
vt 0.182238 0.559433
vt 0.324225 0.559433
vt 0.182238 0.003441
vt 0.503082 0.495140
vt 0.503082 0.466980
vt 0.210398 0.003441
vt 0.352385 0.559433
vt 0.324225 0.579121
vt 0.352385 0.579121
vt 0.451445 0.495140
vt 0.451445 0.466980
vt 0.404022 0.559433
vt 0.404022 0.579121
vt 0.431173 0.495140
vt 0.609971 0.246265
vt 0.638131 0.246265
vt 0.431173 0.466980
vt 0.424294 0.559433
vt 0.609971 0.226578
vt 0.638131 0.226578
vt 0.424294 0.579121
vt 0.404021 0.784805
vt 0.609971 0.091778
vt 0.638131 0.091778
vt 0.424294 0.713921
vt 0.645010 0.031600
vt 0.625481 0.281303
vt 0.625481 0.253143
vt 0.645010 0.003440
vt 0.404021 0.802257
vt 0.609971 0.003441
vt 0.665282 0.031600
vt 0.424294 0.802257
vt 0.665282 0.003440
vt 0.638131 0.003441
vt 0.385252 0.784805
vt 0.385252 0.802257
vt 0.520317 0.281303
vt 0.404021 0.907420
vt 0.520317 0.253143
vt 0.385252 0.907420
vt 0.431175 0.281303
vt 0.528730 0.495140
vt 0.528730 0.466980
vt 0.404021 0.996560
vt 0.431175 0.253143
vt 0.509961 0.495140
vt 0.385252 0.996560
vt 0.509961 0.466980
vt 0.317346 0.053249
vt 0.317346 0.003440
vt 0.660515 0.460101
vt 0.289186 0.003440
vt 0.003440 0.559433
vt 0.632355 0.460101
vt 0.289186 0.053249
vt 0.003440 0.509624
vt 0.289186 0.559433
vt 0.003440 0.003441
vt 0.503082 0.673938
vt 0.317346 0.559433
vt 0.289186 0.579121
vt 0.317346 0.579121
vt 0.237549 0.579121
vt 0.237549 0.559433
vt 0.451445 0.673938
vt 0.217277 0.579121
vt 0.431173 0.226578
vt 0.431173 0.246265
vt 0.217277 0.559433
vt 0.431173 0.673938
vt 0.217277 0.713921
vt 0.431173 0.091778
vt 0.237549 0.784805
vt 0.431173 0.003441
vt 0.217277 0.802257
vt 0.665282 0.210397
vt 0.625481 0.460101
vt 0.237549 0.802257
vt 0.645010 0.210397
vt 0.256318 0.802257
vt 0.256318 0.784805
vt 0.256318 0.907420
vt 0.520317 0.460101
vt 0.237549 0.907420
vt 0.256318 0.996560
vt 0.509961 0.673938
vt 0.431175 0.460101
vt 0.237549 0.996560
vt 0.528730 0.673938
s 0
f 3/4/1 6/9/1 2/2/1
f 7/12/2 4/5/2 6/8/2
f 6/10/3 1/1/3 2/3/3
f 5/7/2 10/17/2 4/5/2
f 4/6/3 8/13/3 1/1/3
f 10/18/3 15/24/3 12/20/3
f 10/18/3 11/19/3 8/13/3
f 13/21/1 17/28/1 14/22/1
f 9/15/1 14/22/1 10/16/1
f 16/26/2 19/31/2 17/27/2
f 14/23/3 19/32/3 15/24/3
f 18/30/2 22/35/2 19/31/2
f 16/26/2 46/79/2 18/30/2
f 20/33/3 26/44/3 24/41/3
f 15/24/3 22/36/3 20/33/3
f 23/38/2 55/95/2 29/49/2
f 24/40/4 25/43/4 23/37/4
f 24/41/3 27/47/3 20/33/3
f 21/34/2 26/46/2 22/35/2
f 7/12/2 39/68/2 5/7/2
f 30/50/3 35/59/3 31/52/3
f 24/41/3 31/52/3 28/48/3
f 29/49/2 57/99/2 32/53/2
f 23/38/2 30/51/2 24/39/2
f 32/54/4 35/60/4 33/55/4
f 29/49/2 33/57/2 30/51/2
f 21/34/2 50/86/2 25/42/2
f 36/61/5 40/69/5 39/67/5
f 37/62/5 39/67/5 38/64/5
f 41/72/5 42/73/5 40/69/5
f 42/73/5 45/76/5 40/69/5
f 44/75/5 47/81/5 45/76/5
f 44/75/5 48/83/5 46/78/5
f 49/85/5 50/87/5 48/83/5
f 49/85/5 52/92/5 51/90/5
f 52/92/5 55/96/5 51/90/5
f 54/94/5 57/100/5 55/96/5
f 5/7/2 40/70/2 9/14/2
f 13/21/1 47/82/1 16/25/1
f 25/43/4 51/91/4 23/37/4
f 18/30/2 48/84/2 21/34/2
f 9/15/1 45/77/1 13/21/1
f 32/54/4 56/98/4 34/58/4
f 3/4/1 38/66/1 7/11/1
f 3/4/1 7/11/1 6/9/1
f 7/12/2 5/7/2 4/5/2
f 6/10/3 4/6/3 1/1/3
f 5/7/2 9/14/2 10/17/2
f 4/6/3 10/18/3 8/13/3
f 10/18/3 14/23/3 15/24/3
f 10/18/3 12/20/3 11/19/3
f 13/21/1 16/25/1 17/28/1
f 9/15/1 13/21/1 14/22/1
f 16/26/2 18/30/2 19/31/2
f 14/23/3 17/29/3 19/32/3
f 18/30/2 21/34/2 22/35/2
f 16/26/2 47/80/2 46/79/2
f 20/33/3 22/36/3 26/44/3
f 15/24/3 19/32/3 22/36/3
f 23/38/2 51/89/2 55/95/2
f 24/40/4 26/45/4 25/43/4
f 24/41/3 28/48/3 27/47/3
f 21/34/2 25/42/2 26/46/2
f 7/12/2 38/65/2 39/68/2
f 30/50/3 33/56/3 35/59/3
f 24/41/3 30/50/3 31/52/3
f 29/49/2 55/95/2 57/99/2
f 23/38/2 29/49/2 30/51/2
f 32/54/4 34/58/4 35/60/4
f 29/49/2 32/53/2 33/57/2
f 21/34/2 48/84/2 50/86/2
f 36/61/5 41/72/5 40/69/5
f 37/62/5 36/61/5 39/67/5
f 41/72/5 43/74/5 42/73/5
f 42/73/5 44/75/5 45/76/5
f 44/75/5 46/78/5 47/81/5
f 44/75/5 49/85/5 48/83/5
f 49/85/5 51/90/5 50/87/5
f 49/85/5 53/93/5 52/92/5
f 52/92/5 54/94/5 55/96/5
f 54/94/5 56/97/5 57/100/5
f 5/7/2 39/68/2 40/70/2
f 13/21/1 45/77/1 47/82/1
f 25/43/4 50/88/4 51/91/4
f 18/30/2 46/79/2 48/84/2
f 9/15/1 40/71/1 45/77/1
f 32/54/4 57/101/4 56/98/4
f 3/4/1 37/63/1 38/66/1
