# Blender 3.3.1
# www.blender.org
o north_wall_traiteur
v -4.695920 0.002017 1.000000
v -4.695920 14.722431 1.000000
v -4.695920 0.002017 -1.000000
v -4.695920 14.722431 -1.000000
v 3.846371 0.002017 1.000000
v 3.846371 14.722431 1.000000
v 3.846371 0.002017 -1.000000
v 3.846371 14.722431 -1.000000
v 2.085190 0.002017 -1.000000
v 2.085190 14.722431 -1.000000
v 2.085190 0.002017 1.000000
v 2.085190 14.722431 1.000000
v 3.846371 14.722431 30.093004
v 3.846371 0.002017 30.093004
v 2.085190 0.002017 30.093004
v 2.085190 14.722431 30.093004
v 3.846371 14.722431 8.885237
v 3.846371 0.002017 8.885237
v 2.085190 0.002017 8.885237
v 2.085190 14.722431 8.885237
v 3.803167 0.019433 1.932030
v 3.803167 11.805995 1.932030
v 3.803167 11.805995 7.631380
v 3.803167 0.019432 7.631380
v 3.163583 11.805995 1.932030
v 3.163583 0.019433 1.932030
v 3.163583 0.019432 7.631380
v 3.163583 11.805995 7.631380
v 3.163582 5.514473 2.768983
v 3.163582 6.082644 2.768982
v 3.163582 6.082645 3.337154
v 3.163582 5.514473 3.337155
v 3.163582 5.798558 2.651310
v 3.163582 5.396801 3.053069
v 3.163582 6.200317 3.053068
v 3.163582 5.798559 3.454827
v 3.771299 5.798558 2.750156
v 3.348005 5.798558 2.588431
v 3.348005 5.470011 2.724521
v 3.348005 5.333922 3.053068
v 3.348005 6.263196 3.053068
v 3.348005 6.127107 3.381616
v 3.348005 5.798559 3.517705
v 3.348005 5.470011 3.381617
v 3.348005 6.127107 2.724520
v 3.771299 5.584367 2.838877
v 3.771299 5.495646 3.053069
v 3.771299 6.101472 3.053068
v 3.771299 6.012751 3.267260
v 3.771299 5.798559 3.355982
v 3.771299 5.584367 3.267261
v 3.771299 6.012751 2.838877
v 3.771299 5.798559 3.053069
vn -0.0000 -0.0000 -1.0000
vn 1.0000 -0.0000 -0.0000
vn -0.0000 -1.0000 -0.0000
vn -0.0000 1.0000 -0.0000
vn -0.0000 -0.0000 1.0000
vn 0.9989 -0.0000 0.0463
vn 0.9999 -0.0148 -0.0000
vn 0.9994 -0.0000 -0.0344
vn 0.3739 0.9275 -0.0000
vn -0.3004 -0.3650 -0.8812
vn -0.3004 0.3650 0.8812
vn -0.3004 0.8812 0.3650
vn -0.3004 0.3650 -0.8812
vn 0.3329 0.3609 -0.8712
vn 0.3329 0.8712 -0.3609
vn 0.3329 -0.8712 -0.3609
vn 0.3328 -0.3609 0.8712
vn -0.3004 -0.8812 0.3650
vn -0.3004 -0.3650 0.8812
vn -0.3004 -0.8812 -0.3650
vn -0.3004 0.8812 -0.3650
vn 0.3328 0.8712 0.3609
vn 0.3329 -0.3609 -0.8712
vn 0.3329 0.3609 0.8712
vn 0.3329 -0.8712 0.3609
vn 0.3328 0.8712 -0.3609
vn 0.3329 -0.3609 0.8712
vt 0.569566 0.698786
vt 0.578301 0.698786
vt 0.569566 0.746557
vt 0.995633 0.004367
vt 0.578301 0.746557
vt 0.995633 0.356661
vt 0.365396 0.699430
vt 0.004367 0.052232
vt 0.839287 0.656210
vt 0.782472 0.699430
vt 0.356661 0.052232
vt 0.004367 0.004367
vt 0.791206 0.004367
vt 0.365396 0.747204
vt 0.782472 0.747204
vt 0.791206 0.356661
vt 0.356661 0.004368
vt 0.407490 0.747070
vt 0.833353 0.004367
vt 0.740377 0.747070
vt 0.833353 0.356661
vt 0.407490 0.699297
vt 0.740377 0.699297
vt 0.356661 0.748496
vt 0.978485 0.717690
vt 0.782472 0.004499
vt 0.978485 0.365396
vt 0.004367 0.748495
vt 0.365396 0.004499
vt 0.936339 0.365396
vt 0.407490 0.004368
vt 0.936339 0.717690
vt 0.740377 0.004368
vt 0.782472 0.511080
vt 0.356661 0.240944
vt 0.839287 0.844561
vt 0.365396 0.511080
vt 0.004367 0.240944
vt 0.407490 0.510946
vt 0.740377 0.510946
vt 0.830552 0.656210
vt 0.004783 0.074538
vt 0.840298 0.678502
vt 0.864319 0.792396
vt 0.830552 0.938290
vt 0.286863 0.074539
vt 0.791206 0.938290
vt 0.286863 0.210937
vt 0.864319 0.656258
vt 0.004783 0.210937
vt 0.840298 0.814639
vt 0.791206 0.656210
vt 0.815247 0.938290
vt 0.879606 0.792347
vt 0.791206 0.365396
vt 0.815247 0.656210
vt 0.855585 0.678550
vt 0.791206 0.647476
vt 0.806512 0.656210
vt 0.855585 0.814688
vt 0.927605 0.647476
vt 0.806512 0.938290
vt 0.879606 0.656210
vt 0.927605 0.365396
vt 0.388754 0.770600
vt 0.811236 0.515966
vt 0.426596 0.770623
vt 0.449879 0.756948
vt 0.811236 0.502369
vt 0.388754 0.757002
vt 0.824834 0.502369
vt 0.365429 0.770600
vt 0.449879 0.770519
vt 0.426596 0.757051
vt 0.824834 0.515966
vt 0.365429 0.757002
vt 0.808420 0.509168
vt 0.388726 0.763801
vt 0.818035 0.518783
vt 0.426453 0.763663
vt 0.818035 0.499553
vt 0.449735 0.763908
vt 0.827650 0.509168
vt 0.365396 0.763801
vt 0.458614 0.765410
vt 0.403293 0.763801
vt 0.393124 0.763801
vt 0.422134 0.771633
vt 0.393157 0.771664
vt 0.421968 0.763584
vt 0.445251 0.763987
vt 0.369829 0.771664
vt 0.445416 0.771633
vt 0.369791 0.763801
vt 0.369829 0.755938
vt 0.422134 0.755938
vt 0.393157 0.755938
vt 0.445416 0.755938
vt 0.403314 0.768927
vt 0.412157 0.769103
vt 0.462537 0.769333
vt 0.468085 0.769333
vt 0.412048 0.763855
vt 0.462537 0.755938
vt 0.435331 0.763716
vt 0.468085 0.755938
vt 0.435439 0.768701
vt 0.379991 0.768927
vt 0.472009 0.759861
vt 0.379966 0.763801
vt 0.412157 0.758870
vt 0.379991 0.758675
vt 0.472009 0.765410
vt 0.403314 0.758675
vt 0.435439 0.758468
vt 0.458614 0.759861
vt 0.465311 0.762636
s 0
f 10/21/1 7/13/1 9/19/1
f 8/17/2 5/8/2 7/12/2
f 7/14/3 11/22/3 9/18/3
f 4/5/4 12/23/4 10/20/4
f 10/20/4 6/10/4 8/15/4
f 9/18/3 1/1/3 3/3/3
f 17/35/2 14/28/2 18/38/2
f 4/6/1 9/19/1 3/4/1
f 13/25/5 15/30/5 14/27/5
f 18/37/3 15/31/3 19/39/3
f 20/40/4 13/26/4 17/34/4
f 12/23/4 17/34/4 6/10/4
f 5/7/3 19/39/3 11/22/3
f 22/45/5 26/56/5 21/41/5
f 5/8/6 22/46/6 21/42/6
f 6/11/7 23/48/7 22/46/7
f 18/38/8 23/48/8 17/35/8
f 5/9/9 24/51/9 18/36/9
f 33/78/10 39/89/10 29/65/10
f 24/52/1 28/62/1 23/47/1
f 21/43/4 27/60/4 24/51/4
f 23/49/3 25/54/3 22/44/3
f 26/58/2 25/55/2 33/77/2
f 28/64/2 35/81/2 30/69/2
f 27/61/2 36/83/2 31/71/2
f 26/58/2 34/79/2 32/75/2
f 31/72/11 43/94/11 42/92/11
f 31/73/12 41/91/12 35/82/12
f 33/78/13 45/97/13 38/87/13
f 45/97/14 37/86/14 38/87/14
f 41/91/15 52/115/15 45/98/15
f 40/90/16 46/100/16 47/103/16
f 43/94/17 51/112/17 50/110/17
f 34/80/18 44/96/18 32/74/18
f 32/76/19 43/94/19 36/84/19
f 29/67/20 40/90/20 34/80/20
f 35/82/21 45/98/21 30/68/21
f 53/117/2 49/106/2 50/109/2
f 53/117/2 51/113/2 47/102/2
f 46/101/2 53/117/2 47/102/2
f 52/116/2 53/117/2 37/85/2
f 42/93/22 48/105/22 41/91/22
f 39/89/23 37/86/23 46/99/23
f 43/94/24 49/108/24 42/92/24
f 44/96/25 47/103/25 51/111/25
f 10/21/1 8/16/1 7/13/1
f 8/17/2 6/11/2 5/8/2
f 7/14/3 5/7/3 11/22/3
f 4/5/4 2/2/4 12/23/4
f 10/20/4 12/23/4 6/10/4
f 9/18/3 11/22/3 1/1/3
f 17/35/2 13/24/2 14/28/2
f 4/6/1 10/21/1 9/19/1
f 13/25/5 16/32/5 15/30/5
f 18/37/3 14/29/3 15/31/3
f 20/40/4 16/33/4 13/26/4
f 12/23/4 20/40/4 17/34/4
f 5/7/3 18/37/3 19/39/3
f 22/45/5 25/53/5 26/56/5
f 5/8/6 6/11/6 22/46/6
f 6/11/7 17/35/7 23/48/7
f 18/38/8 24/50/8 23/48/8
f 5/9/9 21/43/9 24/51/9
f 33/78/10 38/87/10 39/89/10
f 24/52/1 27/59/1 28/62/1
f 21/43/4 26/57/4 27/60/4
f 23/49/3 28/63/3 25/54/3
f 25/55/2 30/69/2 33/77/2
f 33/77/2 29/66/2 26/58/2
f 30/69/2 25/55/2 28/64/2
f 28/64/2 31/71/2 35/81/2
f 31/71/2 28/64/2 27/61/2
f 27/61/2 32/75/2 36/83/2
f 32/75/2 27/61/2 26/58/2
f 26/58/2 29/66/2 34/79/2
f 31/72/11 36/84/11 43/94/11
f 31/73/12 42/93/12 41/91/12
f 33/78/13 30/70/13 45/97/13
f 45/97/14 52/114/14 37/86/14
f 41/91/26 48/105/26 52/115/26
f 40/90/16 39/88/16 46/100/16
f 43/94/27 44/95/27 51/112/27
f 34/80/18 40/90/18 44/96/18
f 32/76/19 44/95/19 43/94/19
f 29/67/20 39/88/20 40/90/20
f 35/82/21 41/91/21 45/98/21
f 53/117/2 48/104/2 49/106/2
f 53/117/2 50/109/2 51/113/2
f 46/101/2 37/85/2 53/117/2
f 52/116/2 48/104/2 53/117/2
f 42/93/22 49/107/22 48/105/22
f 39/89/23 38/87/23 37/86/23
f 43/94/24 50/110/24 49/108/24
f 44/96/25 40/90/25 47/103/25
