# Blender 3.3.1
# www.blender.org
o outside_essbereich
v 23.488478 67.215637 -8.285557
v 23.488478 -0.018507 -8.285557
v 23.488478 67.215637 60.965622
v 23.488478 0.164660 39.225719
v -23.488478 67.215637 -8.285557
v -23.488478 -0.018507 -8.285557
v -23.488478 67.215637 60.965622
v -23.488478 -0.018507 60.965622
v 23.488478 20.302446 39.225719
v 23.488478 20.302446 20.993061
v 23.488478 0.164660 20.993061
v 23.488478 -0.018507 60.965622
v 49.550224 20.302446 39.225719
v 49.550224 20.302446 20.993061
v 49.550224 0.164660 20.993061
v 49.550224 0.164660 39.225719
vn -0.0000 -0.0000 -1.0000
vn 1.0000 -0.0000 -0.0000
vn -0.0000 1.0000 -0.0000
vn -1.0000 -0.0000 -0.0000
vn -0.0000 -0.0000 1.0000
vn -0.0000 -1.0000 -0.0000
vt 0.375000 0.000000
vt 0.875000 0.750000
vt 0.625000 0.000000
vt 0.375000 0.250000
vt 0.562281 0.207454
vt 0.375000 0.750000
vt 0.625000 0.750000
vt 0.375000 0.500000
vt 0.625000 0.500000
vt 0.437719 0.207454
vt 0.437719 0.042546
vt 0.562281 0.042546
vt 0.875000 0.500000
vt 0.625000 0.250000
vt 0.437719 0.207454
vt 0.437719 0.042546
vt 0.562281 0.042546
vt 0.562281 0.207454
s 0
f 16/18/1 4/5/1 9/10/1
f 7/8/1 3/4/1 12/14/1
f 5/6/2 7/8/2 8/9/2
f 6/7/3 8/9/3 12/13/3
f 10/11/4 9/10/4 3/4/4
f 2/3/4 11/12/4 10/11/4
f 12/14/4 4/5/4 11/12/4
f 9/10/4 4/5/4 12/14/4
f 13/15/4 14/16/4 15/17/4
f 14/16/5 10/11/5 11/12/5
f 15/17/3 11/12/3 4/5/3
f 13/15/6 9/10/6 10/11/6
f 16/18/1 9/10/1 13/15/1
f 7/8/1 12/14/1 8/9/1
f 5/6/2 8/9/2 6/7/2
f 6/7/3 12/13/3 2/2/3
f 10/11/4 3/4/4 1/1/4
f 2/3/4 10/11/4 1/1/4
f 12/14/4 11/12/4 2/3/4
f 9/10/4 12/14/4 3/4/4
f 13/15/4 15/17/4 16/18/4
f 14/16/5 11/12/5 15/17/5
f 15/17/3 4/5/3 16/18/3
f 13/15/6 10/11/6 14/16/6
