# Blender 3.3.1
# www.blender.org
o outside_strreets
v -128.983994 0.000000 -104.499237
v 18.468163 0.000000 -104.499237
v -128.983994 0.000000 -16.726944
v 18.468163 0.000000 -16.726944
v -128.983994 0.000000 -42.696182
v 18.468163 0.000000 -42.696182
v -128.983994 0.000000 -73.597717
v 18.468163 0.000000 -73.597717
v 18.468163 -1.338682 -73.597717
v 18.468163 -1.338682 -42.696182
v -128.983994 -1.338682 -42.696182
v -128.983994 -1.338682 -73.597717
v -181.400742 -0.879994 -84.053787
v -181.400742 58.515602 -84.053787
v -181.400742 -0.879994 -130.466568
v -181.400742 58.515602 -130.466568
v 18.394028 -0.879994 -84.053787
v 18.394028 58.515602 -84.053787
v 18.394028 -0.879994 -130.466568
v 18.394028 58.515602 -130.466568
v 106.166321 0.000000 -317.238159
v 106.166321 0.000000 236.776718
v 18.394028 0.000000 -317.238159
v 18.394020 0.000000 236.776718
v 44.363266 0.000000 -317.238159
v 44.363258 0.000000 236.776718
v 75.264801 0.000000 -317.238159
v 75.264786 0.000000 236.776718
v 75.264786 -1.338682 236.776718
v 44.363258 -1.338682 236.776718
v 44.363266 -1.338682 -317.238159
v 75.264801 -1.338682 -317.238159
v 106.166321 0.000000 -42.768417
v 18.394028 0.000000 -42.768417
v 44.363266 0.000000 -42.768417
v 75.264801 0.000000 -42.768417
v 44.363266 -1.338682 -42.768417
v 75.264801 -1.338682 -42.768417
v 18.394028 0.000000 -73.597702
v 44.363266 0.000000 -73.597702
v 75.264801 0.000000 -73.597702
v 44.363266 -1.338682 -73.597702
v 75.264801 -1.338682 -73.597702
v 106.166321 0.000000 -73.597702
v 18.468163 -1.338682 -42.696182
v 18.468163 -1.338682 -73.525467
v 3.237606 0.000000 -104.499237
v 3.237606 0.000000 -16.726944
v 3.237606 0.000000 -42.696182
v 3.237606 0.000000 -73.597717
v 3.237606 -1.338682 -42.696182
v 3.237606 -1.338682 -73.597717
v 18.468163 0.000000 3.684664
v 3.237606 0.000000 3.684664
vn -0.0000 1.0000 -0.0000
vn -0.0000 -0.0000 1.0000
vn -0.0000 -0.0000 -1.0000
vn -1.0000 -0.0000 -0.0000
vn 1.0000 -0.0000 -0.0000
vn -0.0516 0.9987 -0.0000
vn -0.0000 0.0539 0.9985
vn -0.0000 -0.0539 -0.9985
vt 0.000000 0.000000
vt 1.000000 0.000000
vt 0.000000 1.000000
vt 1.000000 1.000000
vt 0.000000 0.704129
vt 1.000000 0.704129
vt 0.000000 0.352065
vt 1.000000 0.352065
vt 1.000000 0.352065
vt 1.000000 0.704129
vt 0.000000 0.704129
vt 0.000000 0.352065
vt 0.375000 0.000000
vt 0.375000 1.000000
vt 0.625000 0.000000
vt 0.625000 1.000000
vt 0.875000 0.750000
vt 0.375000 0.250000
vt 0.625000 0.250000
vt 0.875000 0.500000
vt 0.375000 0.750000
vt 0.625000 0.750000
vt 0.375000 0.500000
vt 0.625000 0.500000
vt 0.000000 0.000000
vt 1.000000 0.000000
vt 0.000000 1.000000
vt 1.000000 1.000000
vt 0.000000 0.704129
vt 1.000000 0.704129
vt 0.000000 0.352065
vt 1.000000 0.352065
vt 1.000000 0.352065
vt 1.000000 0.704129
vt 0.000000 0.704129
vt 0.000000 0.352065
vt 0.279992 0.000000
vt 0.279992 1.000000
vt 0.279992 0.704129
vt 0.279992 0.352065
vt 0.279992 0.704129
vt 0.279992 0.352065
vt 0.070912 1.000000
vt 0.070912 0.704129
vt 0.070912 0.352065
vt 0.070912 0.704129
vt 0.070912 0.352065
vt 0.070912 0.000000
vt 0.279992 0.704129
vt 0.070912 0.704129
vt 0.896708 0.000000
vt 0.896708 1.000000
vt 0.896708 0.704129
vt 0.896708 0.352065
vt 0.896708 0.704129
vt 0.896708 0.352065
vt 1.000000 1.000000
vt 0.896708 1.000000
s 0
f 48/52/1 6/6/1 49/53/1
f 52/56/2 8/8/2 50/54/2
f 50/54/1 2/2/1 47/51/1
f 51/55/1 9/9/1 52/56/1
f 51/55/3 5/5/3 49/53/3
f 14/15/4 15/18/4 13/13/4
f 20/24/5 17/21/5 19/23/5
f 18/22/2 13/14/2 17/21/2
f 16/20/1 18/22/1 20/24/1
f 34/38/1 26/30/1 35/39/1
f 38/42/4 28/32/4 36/40/4
f 36/40/1 22/26/1 33/37/1
f 38/42/1 30/34/1 29/33/1
f 42/46/5 25/29/5 40/44/5
f 30/34/5 35/39/5 26/30/5
f 42/46/1 38/42/1 43/47/1
f 41/45/1 33/37/1 44/48/1
f 43/47/4 36/40/4 41/45/4
f 46/50/6 35/39/6 40/44/6
f 23/27/1 40/44/1 25/29/1
f 32/36/4 41/45/4 27/31/4
f 27/31/1 44/48/1 21/25/1
f 31/35/1 43/47/1 32/36/1
f 37/41/5 40/44/5 35/39/5
f 40/44/7 39/43/7 46/50/7
f 34/38/8 35/39/8 45/49/8
f 10/10/3 49/53/3 6/6/3
f 11/11/1 52/56/1 12/12/1
f 7/7/1 47/51/1 1/1/1
f 12/12/2 50/54/2 7/7/2
f 3/3/1 49/53/1 5/5/1
f 54/58/1 4/4/1 48/52/1
f 48/52/1 4/4/1 6/6/1
f 52/56/2 9/9/2 8/8/2
f 50/54/1 8/8/1 2/2/1
f 51/55/1 10/10/1 9/9/1
f 51/55/3 11/11/3 5/5/3
f 14/15/4 16/19/4 15/18/4
f 20/24/5 18/22/5 17/21/5
f 18/22/2 14/16/2 13/14/2
f 16/20/1 14/17/1 18/22/1
f 34/38/1 24/28/1 26/30/1
f 38/42/4 29/33/4 28/32/4
f 36/40/1 28/32/1 22/26/1
f 38/42/1 37/41/1 30/34/1
f 42/46/5 31/35/5 25/29/5
f 30/34/5 37/41/5 35/39/5
f 42/46/1 37/41/1 38/42/1
f 41/45/1 36/40/1 33/37/1
f 43/47/4 38/42/4 36/40/4
f 46/50/6 45/49/6 35/39/6
f 23/27/1 39/43/1 40/44/1
f 32/36/4 43/47/4 41/45/4
f 27/31/1 41/45/1 44/48/1
f 31/35/1 42/46/1 43/47/1
f 37/41/5 42/46/5 40/44/5
f 10/10/3 51/55/3 49/53/3
f 11/11/1 51/55/1 52/56/1
f 7/7/1 50/54/1 47/51/1
f 12/12/2 52/56/2 50/54/2
f 3/3/1 48/52/1 49/53/1
f 54/58/1 53/57/1 4/4/1
