# Blender 3.3.1
# www.blender.org
o regal
v -0.021897 0.006042 1.930765
v -0.021897 0.006042 -1.722925
v 15.304816 0.006042 1.930765
v 15.304816 0.006042 -1.722925
v -0.021897 0.437406 1.930765
v -0.021897 2.594224 1.930765
v -0.021897 3.025588 1.930765
v -0.021897 5.182406 1.930765
v -0.021897 5.613770 1.930765
v -0.021897 7.770588 1.930765
v -0.021897 8.201952 1.930765
v -0.021897 10.358771 1.930765
v -0.021897 10.790134 1.930765
v -0.021897 12.652862 -1.722925
v -0.021897 11.221498 -1.722925
v -0.021897 10.790133 -1.722925
v -0.021897 10.358769 -1.722925
v -0.021897 9.927405 -1.722925
v -0.021897 9.496041 -1.722925
v -0.021897 9.064678 -1.722925
v -0.021897 8.633314 -1.722925
v -0.021897 8.201950 -1.722925
v -0.021897 7.770586 -1.722925
v -0.021897 7.339223 -1.722925
v -0.021897 6.907859 -1.722925
v -0.021897 6.476496 -1.722925
v -0.021897 6.045132 -1.722925
v -0.021897 5.613769 -1.722925
v -0.021897 5.182405 -1.722925
v -0.021897 4.751041 -1.722925
v -0.021897 4.319678 -1.722925
v -0.021897 3.888314 -1.722925
v -0.021897 3.456951 -1.722925
v -0.021897 3.025587 -1.722925
v -0.021897 2.594223 -1.722925
v -0.021897 2.162860 -1.722925
v -0.021897 1.731496 -1.722925
v -0.021897 1.300133 -1.722925
v -0.021897 0.868769 -1.722925
v -0.021897 0.437406 -1.722925
v 15.304816 12.652862 -1.722925
v 15.304816 11.221498 -1.722925
v 15.304816 10.790133 -1.722925
v 15.304816 10.358769 -1.722925
v 15.304816 9.927405 -1.722925
v 15.304816 9.496041 -1.722925
v 15.304816 9.064678 -1.722925
v 15.304816 8.633314 -1.722925
v 15.304816 8.201950 -1.722925
v 15.304816 7.770586 -1.722925
v 15.304816 7.339223 -1.722925
v 15.304816 6.907859 -1.722925
v 15.304816 6.476496 -1.722925
v 15.304816 6.045132 -1.722925
v 15.304816 5.613769 -1.722925
v 15.304816 5.182405 -1.722925
v 15.304816 4.751041 -1.722925
v 15.304816 4.319678 -1.722925
v 15.304816 3.888314 -1.722925
v 15.304816 3.456951 -1.722925
v 15.304816 3.025587 -1.722925
v 15.304816 2.594223 -1.722925
v 15.304816 2.162860 -1.722925
v 15.304816 1.731496 -1.722925
v 15.304816 1.300133 -1.722925
v 15.304816 0.868769 -1.722925
v 15.304816 0.437406 -1.722925
v 15.304816 10.790133 1.930765
v 15.304816 10.358769 1.930765
v 15.304816 8.201950 1.930765
v 15.304816 7.770586 1.930765
v 15.304816 5.613769 1.930765
v 15.304816 5.182405 1.930765
v 15.304816 3.025587 1.930765
v 15.304816 2.594223 1.930765
v 15.304816 0.437406 1.930765
v -0.021897 0.437406 -1.336356
v -0.021897 1.300133 -1.336356
v -0.021897 1.731497 -1.336356
v -0.021897 2.594224 -1.336356
v -0.021897 3.025588 -1.336356
v -0.021897 3.888316 -1.336356
v -0.021897 4.319679 -1.336356
v -0.021897 5.182406 -1.336356
v -0.021897 5.613770 -1.336356
v -0.021897 6.476497 -1.336356
v -0.021897 6.907861 -1.336356
v -0.021897 7.770588 -1.336356
v -0.021897 8.201952 -1.336356
v -0.021897 9.064680 -1.336356
v -0.021897 9.496044 -1.336356
v -0.021897 10.358771 -1.336356
v -0.021897 10.790134 -1.336356
v -0.021897 12.652863 -1.336356
v 15.304816 12.652862 -1.336356
v 15.304816 10.790133 -1.336356
v 15.304816 10.358769 -1.336356
v 15.304816 9.496041 -1.336356
v 15.304816 9.064678 -1.336356
v 15.304816 8.201950 -1.336356
v 15.304816 7.770586 -1.336356
v 15.304816 6.907859 -1.336356
v 15.304816 6.476496 -1.336356
v 15.304816 5.613769 -1.336356
v 15.304816 5.182405 -1.336356
v 15.304816 4.319678 -1.336356
v 15.304816 3.888314 -1.336356
v 15.304816 3.025587 -1.336356
v 15.304816 2.594223 -1.336356
v 15.304816 1.731496 -1.336356
v 15.304816 1.300133 -1.336356
v 15.304816 0.437406 -1.336356
vn -0.0000 1.0000 -0.0000
vn -0.0000 -1.0000 -0.0000
vn -0.0000 -0.0000 1.0000
vn 1.0000 -0.0000 -0.0000
vn -0.0000 -0.0000 -1.0000
vn -1.0000 -0.0000 -0.0000
vt 0.177144 0.982042
vt 0.721625 0.007222
vt 0.941337 0.429817
vt 0.822366 0.007222
vt 0.355926 0.429817
vt 0.177144 0.881301
vt 0.941337 0.007222
vt 0.721625 0.429817
vt 0.256158 0.881301
vt 0.256158 0.982042
vt 0.822366 0.429817
vt 0.355926 0.007222
vt 0.111749 0.866857
vt 0.953231 0.429817
vt 0.165250 0.982042
vt 0.355368 0.866857
vt 0.112574 0.881301
vt 0.408044 0.444262
vt 0.512571 0.866857
vt 0.367262 0.866857
vt 0.124468 0.881301
vt 0.033560 0.881301
vt 0.381706 0.866857
vt 0.826152 0.444262
vt 0.007222 0.866857
vt 0.393600 0.866857
vt 0.045454 0.881301
vt 0.320803 0.866858
vt 0.019115 0.982042
vt 0.216276 0.444262
vt 0.836810 0.429817
vt 0.332696 0.866858
vt 0.007222 0.982042
vt 0.617098 0.444262
vt 0.930678 0.866857
vt 0.086236 0.881301
vt 0.721625 0.866857
vt 0.942572 0.866857
vt 0.098129 0.881301
vt 0.967675 0.866857
vt 0.007222 0.429817
vt 0.967675 0.344032
vt 0.046688 0.429817
vt 0.058582 0.429817
vt 0.098129 0.982042
vt 0.086236 0.982042
vt 0.070476 0.429817
vt 0.082370 0.429817
vt 0.094263 0.429817
vt 0.106157 0.429817
vt 0.118051 0.429817
vt 0.129945 0.429817
vt 0.007222 0.881301
vt 0.019115 0.881301
vt 0.141838 0.429817
vt 0.153732 0.429817
vt 0.165626 0.429817
vt 0.177520 0.429817
vt 0.189413 0.429817
vt 0.201307 0.429817
vt 0.045454 0.982042
vt 0.213201 0.429817
vt 0.033560 0.982042
vt 0.225095 0.429817
vt 0.236988 0.429817
vt 0.248882 0.429817
vt 0.260776 0.429817
vt 0.272670 0.429817
vt 0.124468 0.982042
vt 0.112574 0.982042
vt 0.284563 0.429817
vt 0.296457 0.429817
vt 0.308351 0.429817
vt 0.320245 0.429817
vt 0.332138 0.429817
vt 0.344032 0.429817
vt 0.165250 0.881301
vt 0.967675 0.007222
vt 0.967675 0.444262
vt 0.007222 0.007222
vt 0.992778 0.781072
vt 0.046688 0.007222
vt 0.059898 0.982042
vt 0.058582 0.007222
vt 0.071792 0.982042
vt 0.070476 0.007222
vt 0.082370 0.007222
vt 0.094263 0.007222
vt 0.106157 0.007222
vt 0.118051 0.007222
vt 0.191588 0.982042
vt 0.129945 0.007222
vt 0.203482 0.982042
vt 0.141838 0.007222
vt 0.153732 0.007222
vt 0.165626 0.007222
vt 0.177520 0.007222
vt 0.189413 0.007222
vt 0.217926 0.982042
vt 0.201307 0.007222
vt 0.229820 0.982042
vt 0.213201 0.007222
vt 0.225095 0.007222
vt 0.236988 0.007222
vt 0.248882 0.007222
vt 0.260776 0.007222
vt 0.138912 0.982042
vt 0.272670 0.007222
vt 0.150806 0.982042
vt 0.284563 0.007222
vt 0.296457 0.007222
vt 0.308351 0.007222
vt 0.320245 0.007222
vt 0.332138 0.007222
vt 0.992778 0.444262
vt 0.244264 0.982042
vt 0.344032 0.007222
vt 0.721625 0.444262
vt 0.942572 0.444262
vt 0.059898 0.881301
vt 0.617098 0.866857
vt 0.930678 0.444262
vt 0.071792 0.881301
vt 0.332696 0.444263
vt 0.191588 0.881301
vt 0.836810 0.007222
vt 0.320803 0.444263
vt 0.216276 0.866857
vt 0.203482 0.881301
vt 0.393600 0.444262
vt 0.217926 0.881301
vt 0.007222 0.444262
vt 0.381706 0.444262
vt 0.826152 0.866857
vt 0.229820 0.881301
vt 0.367262 0.444262
vt 0.138912 0.881301
vt 0.512571 0.444262
vt 0.355368 0.444262
vt 0.408044 0.866857
vt 0.150806 0.881301
vt 0.953231 0.007222
vt 0.111749 0.444262
vt 0.244264 0.881301
vt 0.978334 0.007222
vt 0.201831 0.866857
vt 0.707180 0.007222
vt 0.498127 0.444262
vt 0.602654 0.866857
vt 0.916234 0.444262
vt 0.097305 0.866857
vt 0.306358 0.444262
vt 0.926893 0.429817
vt 0.707180 0.444262
vt 0.811707 0.866857
vt 0.370370 0.007222
vt 0.957016 0.866857
vt 0.978334 0.344032
vt 0.957016 0.444262
vt 0.982119 0.781072
vt 0.370370 0.429817
vt 0.811707 0.444262
vt 0.707180 0.866857
vt 0.926893 0.007222
vt 0.306358 0.866857
vt 0.097305 0.444262
vt 0.916234 0.866857
vt 0.602654 0.444262
vt 0.498127 0.866857
vt 0.201831 0.444262
vt 0.982119 0.444262
vt 0.707180 0.429817
s 0
f 94/157/1 41/79/1 14/40/1
f 4/11/2 1/2/2 2/4/2
f 76/142/3 1/3/3 3/7/3
f 76/143/1 77/146/1 5/13/1
f 74/136/3 6/16/3 75/139/3
f 72/130/3 8/23/3 73/133/3
f 68/118/1 93/155/1 13/37/1
f 12/34/2 97/163/2 69/121/2
f 70/124/3 10/28/3 71/127/3
f 68/119/3 12/35/3 69/122/3
f 67/116/4 3/9/4 4/10/4
f 61/107/4 75/141/4 62/109/4
f 55/99/4 73/135/4 56/101/4
f 49/91/4 71/129/4 50/93/4
f 43/83/4 69/123/4 44/85/4
f 40/76/5 4/12/5 2/5/5
f 39/75/5 67/117/5 40/76/5
f 38/74/5 66/114/5 39/75/5
f 37/73/5 65/113/5 38/74/5
f 36/72/5 64/112/5 37/73/5
f 35/71/5 63/111/5 36/72/5
f 34/68/5 62/110/5 35/71/5
f 33/67/5 61/108/5 34/68/5
f 32/66/5 60/106/5 33/67/5
f 31/65/5 59/105/5 32/66/5
f 30/64/5 58/104/5 31/65/5
f 29/62/5 57/103/5 30/64/5
f 28/60/5 56/102/5 29/62/5
f 27/59/5 55/100/5 28/60/5
f 26/58/5 54/98/5 27/59/5
f 25/57/5 53/97/5 26/58/5
f 24/56/5 52/96/5 25/57/5
f 23/55/5 51/95/5 24/56/5
f 22/52/5 50/94/5 23/55/5
f 21/51/5 49/92/5 22/52/5
f 20/50/5 48/90/5 21/51/5
f 19/49/5 47/89/5 20/50/5
f 18/48/5 46/88/5 19/49/5
f 17/47/5 45/87/5 18/48/5
f 16/44/5 44/86/5 17/47/5
f 15/43/5 43/84/5 16/44/5
f 14/41/5 42/82/5 15/43/5
f 5/15/6 2/6/6 1/1/6
f 6/17/6 34/69/6 35/70/6
f 9/27/6 29/63/6 8/22/6
f 10/29/6 22/53/6 23/54/6
f 12/36/6 16/45/6 17/46/6
f 41/81/4 112/171/4 67/115/4
f 94/158/6 40/78/6 77/145/6
f 77/147/3 95/161/3 94/156/3
f 6/18/2 109/169/2 75/140/2
f 74/138/1 81/149/1 7/19/1
f 8/24/2 105/167/2 73/134/2
f 72/132/1 85/151/1 9/25/1
f 10/30/2 101/165/2 71/128/2
f 70/126/1 89/153/1 11/31/1
f 94/157/1 95/159/1 41/79/1
f 4/11/2 3/8/2 1/2/2
f 76/142/3 5/14/3 1/3/3
f 76/143/1 112/170/1 77/146/1
f 74/136/3 7/20/3 6/16/3
f 72/130/3 9/26/3 8/23/3
f 68/118/1 96/162/1 93/155/1
f 12/34/2 92/154/2 97/163/2
f 70/124/3 11/32/3 10/28/3
f 68/119/3 13/38/3 12/35/3
f 67/116/4 76/144/4 3/9/4
f 61/107/4 74/137/4 75/141/4
f 55/99/4 72/131/4 73/135/4
f 49/91/4 70/125/4 71/129/4
f 43/83/4 68/120/4 69/123/4
f 40/76/5 67/117/5 4/12/5
f 39/75/5 66/114/5 67/117/5
f 38/74/5 65/113/5 66/114/5
f 37/73/5 64/112/5 65/113/5
f 36/72/5 63/111/5 64/112/5
f 35/71/5 62/110/5 63/111/5
f 34/68/5 61/108/5 62/110/5
f 33/67/5 60/106/5 61/108/5
f 32/66/5 59/105/5 60/106/5
f 31/65/5 58/104/5 59/105/5
f 30/64/5 57/103/5 58/104/5
f 29/62/5 56/102/5 57/103/5
f 28/60/5 55/100/5 56/102/5
f 27/59/5 54/98/5 55/100/5
f 26/58/5 53/97/5 54/98/5
f 25/57/5 52/96/5 53/97/5
f 24/56/5 51/95/5 52/96/5
f 23/55/5 50/94/5 51/95/5
f 22/52/5 49/92/5 50/94/5
f 21/51/5 48/90/5 49/92/5
f 20/50/5 47/89/5 48/90/5
f 19/49/5 46/88/5 47/89/5
f 18/48/5 45/87/5 46/88/5
f 17/47/5 44/86/5 45/87/5
f 16/44/5 43/84/5 44/86/5
f 15/43/5 42/82/5 43/84/5
f 14/41/5 41/80/5 42/82/5
f 5/15/6 40/77/6 2/6/6
f 6/17/6 7/21/6 34/69/6
f 9/27/6 28/61/6 29/63/6
f 10/29/6 11/33/6 22/53/6
f 12/36/6 13/39/6 16/45/6
f 41/81/4 95/160/4 112/171/4
f 94/158/6 14/42/6 40/78/6
f 77/147/3 112/172/3 95/161/3
f 6/18/2 80/148/2 109/169/2
f 74/138/1 108/168/1 81/149/1
f 8/24/2 84/150/2 105/167/2
f 72/132/1 104/166/1 85/151/1
f 10/30/2 88/152/2 101/165/2
f 70/126/1 100/164/1 89/153/1
l 98 91
l 102 87
l 106 83
l 110 79
l 99 90
l 103 86
l 107 82
l 111 78
