# Blender 3.3.1
# www.blender.org
o counter
v 6.263256 4.173929 -4.825934
v 6.263256 -0.017332 -4.825934
v 6.263256 4.173929 3.739004
v 6.263256 -0.017332 3.739004
v -2.822598 4.173929 3.739004
v -2.822598 -0.017332 3.739004
v 1.720329 4.173929 3.739004
v 6.263256 4.173929 -0.543465
v -2.822598 4.173929 -0.543465
v 1.720329 4.173929 -4.825934
v 1.720329 4.173929 -0.543465
v -0.551134 4.173929 3.739004
v 6.263256 4.173929 1.597769
v -2.822598 4.173929 -2.684700
v 3.991793 4.173929 -4.825934
v 3.991793 4.173929 3.739004
v 6.263256 4.173929 -2.684700
v -2.822598 4.173929 1.597769
v -0.551134 4.173929 -4.825934
v 1.720329 4.173929 1.597769
v 1.720329 4.173929 -2.684700
v 3.991793 4.173929 -0.543465
v -0.551134 4.173929 -0.543465
v -0.551134 4.173929 -2.684700
v 3.991793 4.173929 -2.684700
v 3.991793 4.173929 1.597769
v -0.551134 4.173929 1.597769
v -2.822598 -0.017332 -0.543465
v 1.720329 -0.017332 -4.825934
v 1.720329 -0.017332 3.739004
v 6.263256 -0.017332 -0.543465
v 1.720329 -0.017332 -0.543465
v -2.822598 -0.017332 1.597769
v -0.551134 -0.017332 -4.825934
v 3.991793 -0.017332 3.739004
v 6.263256 -0.017332 -2.684700
v -2.822598 -0.017332 -2.684700
v 3.991793 -0.017332 -4.825934
v -0.551134 -0.017332 3.739004
v 6.263256 -0.017332 1.597769
v 1.720329 -0.017332 1.597769
v 1.720329 -0.017332 -2.684700
v -0.551134 -0.017332 -0.543465
v 3.991793 -0.017332 -0.543465
v 3.991793 -0.017332 -2.684700
v -0.551134 -0.017332 -2.684700
v -0.551134 -0.017332 1.597769
v 3.991793 -0.017332 1.597769
v -0.551134 4.173929 -4.825934
v -2.822598 4.173929 -2.684700
v -1.063214 4.173929 -4.782229
v -1.553928 4.173929 -4.637495
v -1.995199 4.173929 -4.388704
v -2.358775 4.173929 -4.045973
v -2.622698 4.173929 -3.630001
v -2.776235 4.173929 -3.167420
v -2.822598 -0.017332 -2.684700
v -0.551134 -0.017332 -4.825934
v 2.687030 -0.017332 3.739004
v 2.687030 4.173929 3.739004
v -2.677019 1.931225 3.739004
v 6.116154 2.076804 3.739004
v 2.834132 2.076804 3.739004
v 6.263256 2.076804 3.739004
v 2.834132 0.129770 3.739004
v 6.116154 0.129770 3.739004
v 2.834132 4.026827 3.739004
v 2.541451 1.931225 3.739004
v 6.116154 4.026827 3.739004
v 2.834132 0.129770 0.946435
v 6.116154 0.129770 0.946435
v 2.834132 4.026827 0.946435
v 6.116154 4.026827 0.946435
v 6.116154 2.076804 0.946435
v 2.834132 2.076804 0.946435
v 2.541451 0.128247 3.739004
v -2.677019 0.128247 3.739004
v -2.675019 2.224383 3.739004
v 2.539451 2.224383 3.739004
v -2.822598 2.076804 3.739004
v 2.539451 4.026350 3.739004
v -2.675019 4.026350 3.739004
v 2.687030 2.076804 3.739004
v -2.677019 0.128247 0.949157
v 2.541451 0.128247 0.949157
v -2.675019 4.026350 0.949157
v 2.539451 4.026350 0.949157
v -2.677019 1.931225 0.949157
v 2.541451 1.931225 0.949157
v -2.675019 2.224383 0.949157
v 2.539451 2.224383 0.949157
v -0.551134 3.928234 -4.825934
v -1.063214 3.928234 -4.782229
v -1.553928 3.928234 -4.637495
v -1.995199 3.928234 -4.388704
v -2.358775 3.928234 -4.045973
v -2.622698 3.928234 -3.630001
v -2.776235 3.928234 -3.167420
v -2.822598 3.928234 -2.684700
v 6.263256 3.347081 -4.825934
v -0.551134 3.347081 -4.825934
v 6.263256 3.190265 -4.825934
v -0.551134 3.190265 -4.825934
v 6.263256 3.347081 -5.331738
v -0.551134 3.347081 -5.331738
v 6.263256 3.190265 -5.331738
v -0.551134 3.190265 -5.331738
v -2.012510 4.370090 2.714736
v -2.467036 4.370090 2.260210
v -2.243807 4.370090 2.659635
v -2.411935 4.370090 2.491507
v -2.467036 4.166790 2.260210
v -2.012510 4.166790 2.714736
v -2.411935 4.166790 2.491507
v -2.243807 4.166790 2.659635
v -2.467036 4.370090 1.169261
v -2.012510 4.370090 0.714736
v -2.411935 4.370090 0.937965
v -2.243807 4.370090 0.769837
v -2.012510 4.166790 0.714736
v -2.467036 4.166790 1.169261
v -2.243807 4.166790 0.769837
v -2.411935 4.166790 0.937965
v 2.467036 4.370090 2.260210
v 2.012510 4.370090 2.714736
v 2.411935 4.370090 2.491507
v 2.243807 4.370090 2.659635
v 2.012510 4.166790 2.714736
v 2.467036 4.166790 2.260210
v 2.243807 4.166790 2.659635
v 2.411935 4.166790 2.491507
v 2.012510 4.370090 0.714736
v 2.467036 4.370090 1.169261
v 2.243807 4.370090 0.769837
v 2.411935 4.370090 0.937965
v 2.467036 4.166790 1.169261
v 2.012510 4.166790 0.714736
v 2.411935 4.166790 0.937965
v 2.243807 4.166790 0.769837
v -2.870607 4.172903 3.800249
v 6.314052 4.172903 3.800249
v 6.314052 4.172903 -4.873881
v -0.577260 4.172903 -4.873881
v -2.870607 4.172903 -2.580534
v -1.094273 4.172903 -4.827072
v -1.589715 4.172903 -4.672055
v -2.035238 4.172903 -4.405591
v -2.402316 4.172903 -4.038512
v -2.668781 4.172903 -3.592989
v -2.823798 4.172903 -3.097547
v -2.735079 4.337911 3.664721
v -2.870607 4.202383 3.800249
v -2.804046 4.321482 3.733688
v -2.854177 4.271350 3.783819
v 6.178524 4.337911 3.664721
v 6.314052 4.202383 3.800249
v 6.247490 4.321482 3.733687
v 6.297622 4.271350 3.783819
v 6.178524 4.337911 -4.738353
v 6.314052 4.202383 -4.873881
v 6.247490 4.321482 -4.807320
v 6.297621 4.271350 -4.857451
v -2.735079 4.337911 -2.574412
v -2.870607 4.202383 -2.580534
v -2.804046 4.321482 -2.577528
v -2.854178 4.271350 -2.579792
v -0.571133 4.337911 -4.738353
v -0.577260 4.202383 -4.873881
v -0.574251 4.321482 -4.807320
v -0.576517 4.271350 -4.857451
v -2.690128 4.337911 -3.070900
v -2.823798 4.202383 -3.097547
v -2.758149 4.321482 -3.084460
v -2.807593 4.271350 -3.094317
v -2.544229 4.337911 -3.537200
v -2.668781 4.202383 -3.592989
v -2.607611 4.321482 -3.565590
v -2.653682 4.271350 -3.586226
v -2.294618 4.337911 -3.954544
v -2.402316 4.202383 -4.038512
v -2.349422 4.321482 -3.997273
v -2.389260 4.271350 -4.028332
v -1.951270 4.337911 -4.297892
v -2.035238 4.202383 -4.405591
v -1.993999 4.321482 -4.352697
v -2.025059 4.271350 -4.392535
v -1.533926 4.337911 -4.547503
v -1.589715 4.202383 -4.672055
v -1.562316 4.321482 -4.610885
v -1.582952 4.271350 -4.656956
v -1.067627 4.337911 -4.693402
v -1.094273 4.202383 -4.827072
v -1.081186 4.321482 -4.761423
v -1.091043 4.271350 -4.810867
v -2.467036 4.337911 2.260210
v -2.411935 4.337911 2.491507
v -2.467036 4.337911 1.169261
v -2.243807 4.337911 2.659635
v -2.243807 4.337911 0.769837
v -2.012510 4.337911 2.714736
v -2.012510 4.337911 0.714736
v -2.411935 4.337911 0.937965
v 2.012510 4.337911 0.714736
v 2.243807 4.337911 0.769837
v 2.467036 4.337911 1.169261
v 2.467036 4.337911 2.260210
v 2.411935 4.337911 2.491507
v 2.411935 4.337911 0.937965
v 2.012510 4.337911 2.714736
v 2.243807 4.337911 2.659635
vn -0.0000 1.0000 -0.0000
vn -0.0000 -1.0000 -0.0000
vn 1.0000 -0.0000 -0.0000
vn -1.0000 -0.0000 -0.0000
vn -0.0000 -0.0000 -1.0000
vn -0.0000 -0.0000 1.0000
vn -0.9954 -0.0000 -0.0956
vn -0.9491 -0.0000 -0.3150
vn -0.8444 -0.0000 -0.5357
vn -0.6859 -0.0000 -0.7277
vn -0.4911 -0.0000 -0.8711
vn -0.2829 -0.0000 -0.9592
vn -0.0850 -0.0000 -0.9964
vn 0.2317 -0.0000 -0.9728
vn 0.7071 -0.0000 -0.7071
vn 0.9728 -0.0000 -0.2317
vn 0.2317 -0.0000 0.9728
vn 0.7071 -0.0000 0.7071
vn 0.9728 -0.0000 0.2317
vn -0.9728 -0.0000 0.2317
vn -0.7071 -0.0000 0.7071
vn -0.2317 -0.0000 0.9728
vn -0.2317 -0.0000 -0.9728
vn -0.7071 -0.0000 -0.7071
vn -0.9728 -0.0000 -0.2317
vn -0.9959 -0.0000 -0.0902
vn -0.9544 -0.0000 -0.2986
vn -0.2986 -0.0000 -0.9544
vn -0.5133 -0.0000 -0.8582
vn -0.8582 -0.0000 -0.5133
vn -0.0902 -0.0000 -0.9959
vn 0.2317 0.9728 -0.0000
vn 0.7071 0.7071 -0.0000
vn 0.9728 0.2318 -0.0000
vn -0.0000 0.9728 0.2317
vn -0.0000 0.7071 0.7071
vn -0.0000 0.2317 0.9728
vn -0.0209 0.9728 -0.2308
vn -0.0638 0.7071 -0.7042
vn -0.0877 0.2317 -0.9688
vn -0.0692 0.9728 -0.2212
vn -0.2111 0.7071 -0.6748
vn -0.2905 0.2317 -0.9284
vn -0.1189 0.9728 -0.1989
vn -0.3629 0.7071 -0.6069
vn -0.4993 0.2317 -0.8349
vn -0.1639 0.9728 -0.1639
vn -0.5000 0.7071 -0.5000
vn -0.6879 0.2317 -0.6879
vn -0.1989 0.9728 -0.1189
vn -0.6068 0.7071 -0.3630
vn -0.8348 0.2317 -0.4993
vn -0.2212 0.9728 -0.0692
vn -0.6748 0.7071 -0.2111
vn -0.9284 0.2317 -0.2905
vn -0.2308 0.9728 -0.0209
vn -0.7042 0.7071 -0.0638
vn -0.9688 0.2317 -0.0877
vn -0.9728 0.2317 -0.0000
vn -0.7071 0.7071 -0.0000
vn -0.2317 0.9728 -0.0000
vn -0.0000 0.2317 -0.9728
vn -0.0000 0.7071 -0.7071
vn -0.0000 0.9728 -0.2317
vn 0.1075 -0.9941 0.0103
vn 0.0847 -0.9899 0.1136
vn -0.2829 -0.0000 -0.9591
vn 0.9728 0.2317 -0.0000
vn -0.0877 0.2318 -0.9688
vn -0.1190 0.9728 -0.1989
vn -0.3630 0.7071 -0.6068
vn -0.4993 0.2317 -0.8348
vn -0.1989 0.9728 -0.1190
vn -0.6069 0.7071 -0.3630
vn -0.8349 0.2317 -0.4993
vn -0.0000 0.2318 -0.9728
vt 0.007764 0.686992
vt 0.819789 0.020754
vt 0.950699 0.745000
vt 0.667566 0.020754
vt 0.338329 0.355808
vt 0.338329 0.883593
vt 0.819789 0.240715
vt 0.318701 0.686722
vt 0.817151 0.355808
vt 0.649400 0.355811
vt 0.667566 0.240715
vt 0.664928 0.355808
vt 0.318701 0.356874
vt 0.817151 0.589147
vt 0.649400 0.685801
vt 0.664928 0.589147
vt 0.318701 0.521798
vt 0.819789 0.130734
vt 0.163233 0.686857
vt 0.817151 0.699127
vt 0.163233 0.357009
vt 0.007764 0.522069
vt 0.950699 0.623491
vt 0.163233 0.521933
vt 0.318701 0.439336
vt 0.819789 0.185725
vt 0.240967 0.686790
vt 0.817151 0.754117
vt 0.085498 0.357077
vt 0.586638 0.705404
vt 0.007764 0.604531
vt 0.950699 0.684246
vt 0.318701 0.604260
vt 0.819789 0.075745
vt 0.085498 0.686925
vt 0.817151 0.644137
vt 0.240967 0.356942
vt 0.007764 0.439607
vt 0.835318 0.317055
vt 0.240967 0.521866
vt 0.085498 0.522001
vt 0.163233 0.604395
vt 0.163233 0.439471
vt 0.085498 0.439539
vt 0.667566 0.338769
vt 0.647255 0.701329
vt 0.890308 0.317055
vt 0.085498 0.604463
vt 0.240967 0.604328
vt 0.240967 0.439404
vt 0.664928 0.699127
vt 0.493865 0.685799
vt 0.338329 0.520802
vt 0.649400 0.520806
vt 0.667566 0.130734
vt 0.493865 0.355809
vt 0.493865 0.520804
vt 0.664928 0.644137
vt 0.571632 0.685800
vt 0.338329 0.603300
vt 0.835318 0.164831
vt 0.649400 0.438308
vt 0.667566 0.075745
vt 0.416097 0.355809
vt 0.416097 0.685798
vt 0.664928 0.754117
vt 0.586638 0.857224
vt 0.338329 0.438305
vt 0.649400 0.603303
vt 0.667566 0.185725
vt 0.571632 0.355810
vt 0.571632 0.520805
vt 0.416097 0.520803
vt 0.493865 0.603302
vt 0.493865 0.438307
vt 0.416097 0.438306
vt 0.416097 0.603301
vt 0.647255 0.853148
vt 0.890308 0.164831
vt 0.571632 0.603302
vt 0.571632 0.438308
vt 0.597316 0.986120
vt 0.007764 0.439607
vt 0.950699 0.562737
vt 0.085498 0.357077
vt 0.817151 0.754117
vt 0.597316 0.872752
vt 0.009351 0.421015
vt 0.596471 0.971378
vt 0.014606 0.403196
vt 0.595859 0.954718
vt 0.023637 0.387168
vt 0.595537 0.936813
vt 0.036079 0.373958
vt 0.595537 0.918667
vt 0.051181 0.364364
vt 0.595859 0.901376
vt 0.067974 0.358775
vt 0.596471 0.885882
vt 0.664928 0.754117
vt 0.338329 0.701329
vt 0.664928 0.447651
vt 0.817151 0.447651
vt 0.306910 0.968899
vt 0.735698 0.585408
vt 0.571109 0.890860
vt 0.740985 0.359586
vt 0.740985 0.443873
vt 0.835318 0.078479
vt 0.743623 0.240715
vt 0.740985 0.355808
vt 0.883260 0.769646
vt 0.670271 0.443873
vt 0.835318 0.007764
vt 0.670271 0.359586
vt 0.883260 0.888795
vt 0.835318 0.149302
vt 0.766351 0.888847
vt 0.811809 0.443873
vt 0.571109 0.701330
vt 0.735698 0.451390
vt 0.766351 0.769647
vt 0.811809 0.359586
vt 0.670271 0.515591
vt 0.907035 0.007764
vt 0.781880 0.769734
vt 0.670271 0.431303
vt 0.781880 0.888883
vt 0.664928 0.888846
vt 0.811809 0.515591
vt 0.907035 0.149302
vt 0.664928 0.769646
vt 0.811809 0.431303
vt 0.740985 0.431303
vt 0.740985 0.515591
vt 0.907035 0.078479
vt 0.109045 0.891970
vt 0.670215 0.451390
vt 0.109045 0.702521
vt 0.241427 0.968899
vt 0.670215 0.585408
vt 0.832680 0.545199
vt 0.746345 0.585357
vt 0.664928 0.976023
vt 0.746345 0.451441
vt 0.832680 0.355896
vt 0.740985 0.589147
vt 0.124574 0.891906
vt 0.811791 0.451441
vt 0.730374 0.976023
vt 0.811791 0.585357
vt 0.124574 0.702521
vt 0.740985 0.447651
vt 0.670215 0.657056
vt 0.241427 0.897251
vt 0.007764 0.702610
vt 0.007764 0.892058
vt 0.670215 0.523037
vt 0.811791 0.657004
vt 0.730374 0.904376
vt 0.225899 0.702522
vt 0.811791 0.523088
vt 0.225899 0.891907
vt 0.306910 0.897251
vt 0.735698 0.657056
vt 0.469784 0.890859
vt 0.735698 0.523037
vt 0.469784 0.701329
vt 0.746345 0.657004
vt 0.664928 0.904376
vt 0.933961 0.545111
vt 0.746345 0.523088
vt 0.933961 0.355808
vt 0.745362 0.338769
vt 0.835318 0.308131
vt 0.588416 0.986127
vt 0.743781 0.320170
vt 0.587571 0.971385
vt 0.738531 0.302346
vt 0.586960 0.954724
vt 0.729501 0.286316
vt 0.586638 0.936820
vt 0.717057 0.273107
vt 0.586638 0.918674
vt 0.701953 0.263516
vt 0.586960 0.901382
vt 0.685154 0.257934
vt 0.587571 0.885889
vt 0.808228 0.754117
vt 0.667623 0.256244
vt 0.586638 0.714304
vt 0.588416 0.872759
vt 0.789758 0.020754
vt 0.949490 0.297813
vt 0.920816 0.742991
vt 0.949490 0.545199
vt 0.760891 0.336126
vt 0.920816 0.560728
vt 0.454256 0.891385
vt 0.940934 0.007764
vt 0.784063 0.020754
vt 0.766586 0.336126
vt 0.454256 0.709122
vt 0.940934 0.255257
vt 0.899620 0.755415
vt 0.967852 0.297797
vt 0.789758 0.007765
vt 0.967852 0.545183
vt 0.899620 0.937678
vt 0.760891 0.323136
vt 0.905287 0.755795
vt 0.922564 0.007764
vt 0.784063 0.007765
vt 0.905287 0.938059
vt 0.922564 0.255257
vt 0.766586 0.323136
vt 0.783803 0.256244
vt 0.976910 0.138701
vt 0.241427 0.719029
vt 0.768275 0.307607
vt 0.783803 0.279590
vt 0.257935 0.702521
vt 0.783803 0.263599
vt 0.243429 0.710629
vt 0.783803 0.272235
vt 0.249535 0.704522
vt 0.849181 0.739886
vt 0.760891 0.307607
vt 0.791187 0.279590
vt 0.984262 0.139104
vt 0.832680 0.723399
vt 0.791187 0.256244
vt 0.840784 0.737893
vt 0.791187 0.272235
vt 0.834680 0.731795
vt 0.791187 0.263599
vt 0.768275 0.279590
vt 0.297558 0.702522
vt 0.920816 0.760529
vt 0.768275 0.256244
vt 0.314065 0.719030
vt 0.768275 0.272235
vt 0.305958 0.704523
vt 0.768275 0.263599
vt 0.312064 0.710629
vt 0.760891 0.256244
vt 0.905287 0.723336
vt 0.928200 0.760529
vt 0.888786 0.739851
vt 0.760891 0.279590
vt 0.903286 0.731735
vt 0.760891 0.263599
vt 0.897183 0.737844
vt 0.760891 0.272235
vt 0.920816 0.915261
vt 0.976910 0.007764
vt 0.257936 0.881722
vt 0.975567 0.031053
vt 0.241427 0.865214
vt 0.976168 0.014903
vt 0.249535 0.879721
vt 0.975671 0.023518
vt 0.243429 0.873615
vt 0.982921 0.031455
vt 0.832680 0.577277
vt 0.928200 0.915261
vt 0.849181 0.560762
vt 0.984262 0.008167
vt 0.834680 0.568879
vt 0.983025 0.023920
vt 0.840784 0.562770
vt 0.983521 0.015305
vt 0.920816 0.863898
vt 0.314065 0.865215
vt 0.920816 0.887244
vt 0.297558 0.881722
vt 0.920816 0.871253
vt 0.312064 0.873615
vt 0.920816 0.879888
vt 0.305958 0.879721
vt 0.928200 0.887244
vt 0.888786 0.560728
vt 0.905287 0.577214
vt 0.928200 0.863898
vt 0.897183 0.562721
vt 0.928200 0.879888
vt 0.903286 0.568819
vt 0.928200 0.871253
vt 0.322800 0.341346
vt 0.966228 0.796604
vt 0.322800 0.007768
vt 0.966228 0.560728
vt 0.956463 0.230530
vt 0.007764 0.007764
vt 0.988636 0.545156
vt 0.956463 0.007765
vt 0.007764 0.258050
vt 0.983620 0.360904
vt 0.988658 0.243312
vt 0.091056 0.341343
vt 0.966228 0.960473
vt 0.009464 0.276828
vt 0.983381 0.345932
vt 0.015095 0.294822
vt 0.983474 0.328881
vt 0.024772 0.311003
vt 0.983929 0.310431
vt 0.038104 0.324335
vt 0.984735 0.291609
vt 0.054285 0.334013
vt 0.985844 0.273552
vt 0.072279 0.339643
vt 0.987180 0.257250
vt 0.342582 0.335880
vt 0.967299 0.796604
vt 0.340096 0.338404
vt 0.338329 0.340279
vt 0.969803 0.796604
vt 0.342582 0.012286
vt 0.957534 0.230530
vt 0.967299 0.560728
vt 0.340096 0.009802
vt 0.960039 0.230530
vt 0.338329 0.008037
vt 0.969803 0.561572
vt 0.647642 0.012021
vt 0.989703 0.545199
vt 0.957534 0.007765
vt 0.650163 0.009532
vt 0.960039 0.008608
vt 0.652037 0.007764
vt 0.992236 0.544456
vt 0.569084 0.335683
vt 0.989725 0.243354
vt 0.967299 0.960473
vt 0.569214 0.338204
vt 0.992236 0.243875
vt 0.969803 0.960032
vt 0.569350 0.340078
vt 0.647642 0.257056
vt 0.984688 0.360946
vt 0.650163 0.257185
vt 0.987232 0.360663
vt 0.652037 0.257319
vt 0.587108 0.334036
vt 0.988247 0.257292
vt 0.587618 0.336522
vt 0.588029 0.338371
vt 0.990765 0.257746
vt 0.604036 0.328724
vt 0.986911 0.273594
vt 0.605084 0.331042
vt 0.605887 0.332767
vt 0.989438 0.273932
vt 0.619187 0.319650
vt 0.985802 0.291651
vt 0.990272 0.292226
vt 0.620756 0.321655
vt 0.621937 0.323154
vt 0.988338 0.291850
vt 0.631652 0.307174
vt 0.984996 0.310473
vt 0.989491 0.310450
vt 0.633659 0.308741
vt 0.987538 0.310525
vt 0.640714 0.292015
vt 0.984541 0.328924
vt 0.989050 0.328328
vt 0.643032 0.293061
vt 0.644758 0.293863
vt 0.987086 0.328834
vt 0.646010 0.275082
vt 0.984448 0.345974
vt 0.648497 0.275590
vt 0.986994 0.345763
vt 0.650346 0.276000
vt 0.393570 0.326105
vt 0.385173 0.324112
vt 0.433176 0.326071
vt 0.379070 0.318014
vt 0.447676 0.317954
vt 0.377069 0.309618
vt 0.449677 0.309556
vt 0.441572 0.324063
vt 0.449677 0.163434
vt 0.447676 0.155038
vt 0.433176 0.146947
vt 0.393570 0.146981
vt 0.385173 0.148989
vt 0.441572 0.148940
vt 0.377069 0.163496
vt 0.379070 0.155098
s 0
f 18/37/1 12/25/1 27/50/1
f 67/118/2 73/132/2 69/122/2
f 49/83/1 54/94/1 50/85/1
f 40/71/2 35/62/2 48/81/2
f 100/193/3 13/26/3 4/11/3
f 80/147/4 50/86/4 99/189/4
f 20/40/1 16/33/1 26/49/1
f 21/41/1 22/42/1 25/48/1
f 14/29/1 23/43/1 24/44/1
f 24/44/1 11/24/1 21/41/1
f 19/38/1 21/41/1 10/22/1
f 25/48/1 8/19/1 17/35/1
f 15/31/1 17/35/1 1/1/1
f 10/22/1 25/48/1 15/31/1
f 26/49/1 3/8/1 13/27/1
f 22/42/1 13/27/1 8/19/1
f 11/24/1 26/49/1 22/42/1
f 27/50/1 7/17/1 20/40/1
f 23/43/1 20/40/1 11/24/1
f 9/21/1 27/50/1 23/43/1
f 41/72/2 39/69/2 47/80/2
f 42/73/2 43/74/2 46/77/2
f 36/64/2 44/75/2 45/76/2
f 45/76/2 32/57/2 42/73/2
f 38/68/2 42/73/2 29/53/2
f 2/5/2 45/76/2 38/68/2
f 46/77/2 28/52/2 37/65/2
f 29/53/2 46/77/2 34/60/2
f 47/80/2 6/15/2 33/59/2
f 43/74/2 33/59/2 28/52/2
f 32/57/2 47/80/2 43/74/2
f 48/81/2 30/54/2 41/72/2
f 44/75/2 41/72/2 32/57/2
f 31/56/2 48/81/2 44/75/2
f 98/187/2 94/179/2 92/174/2
f 46/78/5 99/191/5 14/30/5
f 24/47/4 92/175/4 34/61/4
f 2/6/5 103/203/5 102/199/5
f 77/140/3 88/164/3 61/104/3
f 76/137/1 84/156/1 77/139/1
f 69/123/4 74/134/4 62/107/4
f 66/115/6 64/111/6 62/107/6
f 66/115/6 59/102/6 4/12/6
f 69/123/6 60/103/6 67/119/6
f 67/119/6 83/153/6 63/108/6
f 69/123/6 64/111/6 3/9/6
f 65/113/6 83/153/6 59/102/6
f 74/134/6 72/130/6 75/135/6
f 71/127/6 75/135/6 70/124/6
f 62/107/4 71/127/4 66/115/4
f 65/114/3 75/136/3 63/109/3
f 63/109/3 72/131/3 67/117/3
f 66/116/1 70/126/1 65/112/1
f 77/141/6 59/102/6 76/138/6
f 61/105/6 6/16/6 77/141/6
f 76/138/6 83/153/6 68/121/6
f 68/121/6 80/147/6 61/105/6
f 82/151/6 80/147/6 78/143/6
f 81/149/6 5/14/6 82/151/6
f 79/145/6 60/103/6 81/149/6
f 78/143/6 83/153/6 79/145/6
f 91/172/6 86/159/6 90/169/6
f 85/158/6 88/165/6 84/154/6
f 81/149/4 91/172/4 79/145/4
f 78/144/3 86/160/3 82/150/3
f 82/152/2 87/163/2 81/148/2
f 68/121/4 85/158/4 76/138/4
f 79/146/1 90/171/1 78/142/1
f 61/106/2 89/168/2 68/120/2
f 98/188/7 50/87/7 56/99/7
f 97/186/8 56/99/8 55/97/8
f 96/184/9 55/97/9 54/95/9
f 95/182/10 54/95/10 53/93/10
f 94/180/11 53/93/11 52/91/11
f 93/178/12 52/91/12 51/89/12
f 92/176/13 51/89/13 49/82/13
f 100/194/1 105/208/1 101/196/1
f 106/211/5 105/209/5 104/205/5
f 103/204/2 106/212/2 102/200/2
f 102/201/3 104/207/3 100/193/3
f 101/197/4 107/216/4 103/202/4
f 100/195/5 49/84/5 10/23/5
f 128/264/5 108/218/5 125/258/5
f 136/281/4 124/255/4 133/275/4
f 121/249/1 113/231/1 129/267/1
f 112/228/3 116/237/3 109/220/3
f 120/248/6 132/273/6 117/239/6
f 113/232/14 110/223/14 108/217/14
f 115/236/15 111/225/15 110/223/15
f 114/234/16 109/221/16 111/225/16
f 117/240/17 122/252/17 120/246/17
f 119/244/18 123/254/18 122/252/18
f 118/242/19 121/250/19 123/254/19
f 133/275/20 138/286/20 136/281/20
f 135/279/21 139/288/21 138/286/21
f 134/277/22 137/284/22 139/288/22
f 125/258/23 130/270/23 128/264/23
f 127/262/24 131/272/24 130/270/24
f 126/260/25 129/268/25 131/272/25
f 126/261/1 134/278/1 118/243/1
f 144/299/26 172/346/26 150/313/26
f 145/302/2 140/289/2 148/308/2
f 160/327/5 143/298/5 168/341/5
f 205/387/1 206/388/1 155/319/1
f 171/345/1 151/314/1 197/379/1
f 195/377/1 209/391/1 205/387/1
f 152/315/6 141/292/6 156/321/6
f 150/313/27 176/351/27 149/311/27
f 146/305/28 192/373/28 145/303/28
f 147/307/29 188/367/29 146/305/29
f 148/309/24 184/362/24 147/307/24
f 149/311/30 180/356/30 148/309/30
f 145/303/31 168/341/31 143/298/31
f 156/320/3 142/296/3 160/328/3
f 157/322/32 159/326/32 155/319/32
f 158/324/33 161/329/33 157/322/33
f 158/323/34 160/328/34 162/330/34
f 153/316/35 155/319/35 151/314/35
f 153/316/36 158/324/36 157/322/36
f 152/315/37 158/325/37 154/318/37
f 169/342/38 191/372/38 167/340/38
f 170/344/39 193/374/39 169/342/39
f 168/341/40 194/375/40 170/343/40
f 193/374/41 187/366/41 191/372/41
f 194/376/42 189/369/42 193/374/42
f 192/373/43 190/371/43 194/375/43
f 189/369/44 183/361/44 187/366/44
f 190/371/45 185/363/45 189/368/45
f 188/367/46 186/365/46 190/371/46
f 183/361/47 181/358/47 179/355/47
f 186/365/48 181/357/48 185/363/48
f 186/365/49 180/356/49 182/360/49
f 179/355/50 177/352/50 175/350/50
f 181/358/51 178/353/51 177/352/51
f 182/360/52 176/351/52 178/354/52
f 175/350/53 173/347/53 171/345/53
f 177/352/54 174/348/54 173/347/54
f 178/354/55 172/346/55 174/349/55
f 171/345/56 165/336/56 163/333/56
f 173/347/57 166/339/57 165/336/57
f 174/349/58 164/334/58 166/337/58
f 154/318/59 164/335/59 152/315/59
f 153/316/60 166/339/60 154/317/60
f 151/314/61 165/336/61 153/316/61
f 168/341/62 162/332/62 160/327/62
f 170/344/63 161/329/63 162/331/63
f 169/342/64 159/326/64 161/329/64
f 164/335/4 140/290/4 152/315/4
f 18/37/1 5/13/1 12/25/1
f 67/118/2 72/129/2 73/132/2
f 24/44/1 19/38/1 49/83/1
f 49/83/1 51/88/1 52/90/1
f 52/90/1 53/92/1 54/94/1
f 54/94/1 55/96/1 56/98/1
f 50/85/1 14/29/1 24/44/1
f 54/94/1 56/98/1 50/85/1
f 49/83/1 52/90/1 54/94/1
f 50/85/1 24/44/1 49/83/1
f 40/71/2 4/10/2 35/62/2
f 36/63/3 2/4/3 102/201/3
f 100/193/3 1/2/3 17/34/3
f 36/63/3 102/201/3 100/193/3
f 4/11/1 40/70/1 31/55/1
f 31/55/3 36/63/3 100/193/3
f 100/193/3 17/34/3 8/18/3
f 13/26/3 3/7/3 64/110/3
f 100/193/3 8/18/3 13/26/3
f 4/11/3 31/55/3 100/193/3
f 13/26/3 64/110/3 4/11/3
f 33/58/4 6/16/4 80/147/4
f 80/147/4 5/14/4 18/36/4
f 9/20/1 14/28/1 50/86/1
f 80/147/4 18/36/4 9/20/4
f 28/51/4 33/58/4 80/147/4
f 99/189/1 57/100/1 37/66/1
f 37/66/4 28/51/4 80/147/4
f 80/147/4 9/20/4 50/86/4
f 99/189/4 37/66/4 80/147/4
f 20/40/1 7/17/1 16/33/1
f 21/41/1 11/24/1 22/42/1
f 14/29/1 9/21/1 23/43/1
f 24/44/1 23/43/1 11/24/1
f 19/38/1 24/44/1 21/41/1
f 25/48/1 22/42/1 8/19/1
f 15/31/1 25/48/1 17/35/1
f 10/22/1 21/41/1 25/48/1
f 26/49/1 16/33/1 3/8/1
f 22/42/1 26/49/1 13/27/1
f 11/24/1 20/40/1 26/49/1
f 27/50/1 12/25/1 7/17/1
f 23/43/1 27/50/1 20/40/1
f 9/21/1 18/37/1 27/50/1
f 41/72/2 30/54/2 39/69/2
f 42/73/2 32/57/2 43/74/2
f 36/64/2 31/56/2 44/75/2
f 45/76/2 44/75/2 32/57/2
f 38/68/2 45/76/2 42/73/2
f 2/5/2 36/64/2 45/76/2
f 46/77/2 43/74/2 28/52/2
f 29/53/2 42/73/2 46/77/2
f 47/80/2 39/69/2 6/15/2
f 43/74/2 47/80/2 33/59/2
f 32/57/2 41/72/2 47/80/2
f 48/81/2 35/62/2 30/54/2
f 44/75/2 48/81/2 41/72/2
f 31/56/2 40/71/2 48/81/2
f 24/45/65 99/190/65 98/187/65
f 98/187/2 97/185/2 96/183/2
f 96/183/2 95/181/2 94/179/2
f 94/179/2 93/177/2 92/174/2
f 92/174/66 24/45/66 98/187/66
f 98/187/2 96/183/2 94/179/2
f 14/30/5 24/46/5 46/78/5
f 46/78/5 37/67/5 99/191/5
f 34/61/4 46/79/4 24/47/4
f 24/47/4 19/39/4 92/175/4
f 2/6/5 58/101/5 103/203/5
f 77/140/3 84/155/3 88/164/3
f 76/137/1 85/157/1 84/156/1
f 69/123/4 73/133/4 74/134/4
f 66/115/6 4/12/6 64/111/6
f 66/115/6 65/113/6 59/102/6
f 69/123/6 3/9/6 60/103/6
f 67/119/6 60/103/6 83/153/6
f 69/123/6 62/107/6 64/111/6
f 65/113/6 63/108/6 83/153/6
f 74/134/6 73/133/6 72/130/6
f 71/127/6 74/134/6 75/135/6
f 62/107/4 74/134/4 71/127/4
f 65/114/3 70/125/3 75/136/3
f 63/109/3 75/136/3 72/131/3
f 66/116/1 71/128/1 70/126/1
f 77/141/6 6/16/6 59/102/6
f 61/105/6 80/147/6 6/16/6
f 76/138/6 59/102/6 83/153/6
f 68/121/6 83/153/6 80/147/6
f 82/151/6 5/14/6 80/147/6
f 81/149/6 60/103/6 5/14/6
f 79/145/6 83/153/6 60/103/6
f 78/143/6 80/147/6 83/153/6
f 91/172/6 87/162/6 86/159/6
f 85/158/6 89/167/6 88/165/6
f 81/149/4 87/162/4 91/172/4
f 78/144/3 90/170/3 86/160/3
f 82/152/2 86/161/2 87/163/2
f 68/121/4 89/167/4 85/158/4
f 79/146/1 91/173/1 90/171/1
f 61/106/2 88/166/2 89/168/2
f 98/188/7 99/192/7 50/87/7
f 97/186/8 98/188/8 56/99/8
f 96/184/9 97/186/9 55/97/9
f 95/182/10 96/184/10 54/95/10
f 94/180/11 95/182/11 53/93/11
f 93/178/67 94/180/67 52/91/67
f 92/176/13 93/178/13 51/89/13
f 100/194/1 104/206/1 105/208/1
f 106/211/5 107/214/5 105/209/5
f 103/204/2 107/215/2 106/212/2
f 102/201/3 106/213/3 104/207/3
f 101/197/4 105/210/4 107/216/4
f 15/32/5 1/3/5 100/195/5
f 100/195/5 101/198/5 49/84/5
f 10/23/5 15/32/5 100/195/5
f 128/264/5 113/230/5 108/218/5
f 136/281/4 129/266/4 124/255/4
f 129/267/1 136/282/1 138/285/1
f 138/285/1 139/287/1 137/283/1
f 137/283/1 120/247/1 122/251/1
f 122/251/1 123/253/1 121/249/1
f 121/249/1 112/227/1 114/233/1
f 114/233/1 115/235/1 113/231/1
f 113/231/1 128/265/1 130/269/1
f 130/269/1 131/271/1 129/267/1
f 129/267/1 138/285/1 137/283/1
f 137/283/1 122/251/1 121/249/1
f 121/249/1 114/233/1 113/231/1
f 113/231/1 130/269/1 129/267/1
f 129/267/1 137/283/1 121/249/1
f 112/228/3 121/250/3 116/237/3
f 120/248/6 137/284/6 132/273/6
f 113/232/14 115/236/14 110/223/14
f 115/236/15 114/234/15 111/225/15
f 114/234/16 112/229/16 109/221/16
f 117/240/17 119/244/17 122/252/17
f 119/244/18 118/242/18 123/254/18
f 118/242/19 116/237/19 121/250/19
f 133/275/20 135/279/20 138/286/20
f 135/279/21 134/277/21 139/288/21
f 134/277/22 132/273/22 137/284/22
f 125/258/23 127/262/23 130/270/23
f 127/262/24 126/260/24 131/272/24
f 126/260/25 124/256/25 129/268/25
f 118/243/1 116/238/1 109/222/1
f 109/222/1 111/226/1 110/224/1
f 110/224/1 108/219/1 125/259/1
f 125/259/1 127/263/1 126/261/1
f 126/261/1 124/257/1 133/276/1
f 133/276/1 135/280/1 134/278/1
f 134/278/1 132/274/1 117/241/1
f 117/241/1 119/245/1 118/243/1
f 118/243/1 109/222/1 110/224/1
f 110/224/1 125/259/1 126/261/1
f 126/261/1 133/276/1 134/278/1
f 134/278/1 117/241/1 118/243/1
f 118/243/1 110/224/1 126/261/1
f 144/299/26 164/334/26 172/346/26
f 147/306/2 146/304/2 145/302/2
f 145/302/2 143/297/2 142/294/2
f 142/294/2 141/291/2 140/289/2
f 140/289/2 144/300/2 150/312/2
f 150/312/2 149/310/2 148/308/2
f 148/308/2 147/306/2 145/302/2
f 145/302/2 142/294/2 140/289/2
f 140/289/2 150/312/2 148/308/2
f 160/327/5 142/295/5 143/298/5
f 183/361/1 179/355/1 175/350/1
f 175/350/1 171/345/1 201/383/1
f 175/350/1 201/383/1 203/385/1
f 187/366/1 183/361/1 175/350/1
f 167/340/1 191/372/1 187/366/1
f 155/319/1 159/326/1 167/340/1
f 200/382/1 198/380/1 151/314/1
f 209/391/1 200/382/1 151/314/1
f 155/319/1 167/340/1 187/366/1
f 187/366/1 175/350/1 203/385/1
f 187/366/1 203/385/1 204/386/1
f 209/391/1 151/314/1 155/319/1
f 210/392/1 209/391/1 155/319/1
f 155/319/1 187/366/1 204/386/1
f 155/319/1 204/386/1 208/390/1
f 207/389/1 210/392/1 155/319/1
f 206/388/1 207/389/1 155/319/1
f 155/319/1 208/390/1 205/387/1
f 199/381/1 201/383/1 171/345/1
f 171/345/1 163/333/1 151/314/1
f 151/314/1 198/380/1 196/378/1
f 151/314/1 196/378/1 195/377/1
f 202/384/1 199/381/1 171/345/1
f 151/314/1 195/377/1 197/379/1
f 197/379/1 202/384/1 171/345/1
f 205/387/1 208/390/1 204/386/1
f 204/386/1 203/385/1 201/383/1
f 201/383/1 199/381/1 202/384/1
f 202/384/1 197/379/1 195/377/1
f 195/377/1 196/378/1 198/380/1
f 198/380/1 200/382/1 209/391/1
f 209/391/1 210/392/1 207/389/1
f 207/389/1 206/388/1 205/387/1
f 205/387/1 204/386/1 201/383/1
f 201/383/1 202/384/1 195/377/1
f 195/377/1 198/380/1 209/391/1
f 209/391/1 207/389/1 205/387/1
f 205/387/1 201/383/1 195/377/1
f 152/315/6 140/290/6 141/292/6
f 150/313/27 172/346/27 176/351/27
f 146/305/28 188/367/28 192/373/28
f 147/307/29 184/362/29 188/367/29
f 148/309/24 180/356/24 184/362/24
f 149/311/30 176/351/30 180/356/30
f 145/303/31 192/373/31 168/341/31
f 156/320/3 141/293/3 142/296/3
f 157/322/32 161/329/32 159/326/32
f 158/324/33 162/331/33 161/329/33
f 158/323/68 156/320/68 160/328/68
f 153/316/35 157/322/35 155/319/35
f 153/316/36 154/317/36 158/324/36
f 152/315/37 156/321/37 158/325/37
f 169/342/38 193/374/38 191/372/38
f 170/344/39 194/376/39 193/374/39
f 168/341/69 192/373/69 194/375/69
f 193/374/41 189/369/41 187/366/41
f 194/376/42 190/370/42 189/369/42
f 192/373/43 188/367/43 190/371/43
f 189/369/70 185/364/70 183/361/70
f 190/371/71 186/365/71 185/363/71
f 188/367/72 184/362/72 186/365/72
f 183/361/47 185/364/47 181/358/47
f 186/365/48 182/360/48 181/357/48
f 186/365/49 184/362/49 180/356/49
f 179/355/73 181/358/73 177/352/73
f 181/358/74 182/359/74 178/353/74
f 182/360/75 180/356/75 176/351/75
f 175/350/53 177/352/53 173/347/53
f 177/352/54 178/353/54 174/348/54
f 178/354/55 176/351/55 172/346/55
f 171/345/56 173/347/56 165/336/56
f 173/347/57 174/348/57 166/339/57
f 174/349/58 172/346/58 164/334/58
f 154/318/59 166/338/59 164/335/59
f 153/316/60 165/336/60 166/339/60
f 151/314/61 163/333/61 165/336/61
f 168/341/76 170/343/76 162/332/76
f 170/344/63 169/342/63 161/329/63
f 169/342/64 167/340/64 159/326/64
f 164/335/4 144/301/4 140/290/4
