# Blender 3.3.1
# www.blender.org
o kleiner_tisch
v -4.439269 3.587335 1.686385
v -4.439269 3.206001 1.686385
v -4.439269 3.587335 -2.762222
v -4.439269 3.206001 -2.762222
v 0.009338 3.587335 1.686385
v 0.009338 3.206001 1.686385
v 0.009338 3.587335 -2.762222
v 0.009338 3.206001 -2.762222
v -0.380083 3.587335 -2.762222
v -4.049858 3.587335 -2.762222
v -4.049858 3.206001 -2.762222
v -0.380083 3.206001 -2.762222
v -4.049858 3.587335 1.686385
v -0.380083 3.587335 1.686385
v -0.380083 3.206001 1.686385
v -4.049858 3.206001 1.686385
v -4.439269 3.587335 -2.395114
v -4.439269 3.587335 1.319276
v -4.439269 3.206001 1.319276
v -4.439269 3.206001 -2.395114
v 0.009338 3.587335 1.319276
v 0.009338 3.587335 -2.395114
v 0.009338 3.206001 -2.395114
v 0.009338 3.206001 1.319276
v -0.380083 3.206001 -2.395114
v -0.380083 3.206001 1.319276
v -4.049858 3.206001 -2.395114
v -4.049858 3.206001 1.319276
v -4.049858 3.587335 -2.395114
v -4.049858 3.587335 1.319276
v -0.380083 3.587335 -2.395114
v -0.380083 3.587335 1.319276
v -4.439269 0.043179 -2.395114
v -4.439269 0.043179 -2.762222
v -0.380083 0.043179 -2.762222
v 0.009338 0.043179 -2.762222
v 0.009338 0.043179 1.319276
v 0.009338 0.043179 1.686385
v -4.049858 0.043179 1.686385
v -4.439269 0.043179 1.686385
v -4.049858 0.043179 -2.762222
v -0.380083 0.043179 1.686385
v -0.380083 0.043179 1.319276
v -4.049858 0.043179 1.319276
v -4.439269 0.043179 1.319276
v 0.009338 0.043179 -2.395114
v -0.380083 0.043179 -2.395114
v -4.049858 0.043179 -2.395114
vn -1.0000 -0.0000 -0.0000
vn -0.0000 -0.0000 -1.0000
vn 1.0000 -0.0000 -0.0000
vn -0.0000 -0.0000 1.0000
vn -0.0000 1.0000 -0.0000
vn -0.0000 -1.0000 -0.0000
vt 0.373290 0.729733
vt 0.668496 0.005615
vt 0.362059 0.362059
vt 0.699050 0.005615
vt 0.403844 0.729733
vt 0.373290 0.362059
vt 0.362059 0.005615
vt 0.373290 0.373290
vt 0.403844 0.373290
vt 0.403844 0.362059
vt 0.668496 0.362059
vt 0.668496 0.373290
vt 0.005615 0.362059
vt 0.699050 0.373290
vt 0.699050 0.362059
vt 0.668496 0.729733
vt 0.373290 0.005615
vt 0.005615 0.005615
vt 0.403844 0.005615
vt 0.699050 0.729733
vt 0.373290 0.036818
vt 0.036818 0.005615
vt 0.373290 0.330858
vt 0.330858 0.005615
vt 0.403844 0.330858
vt 0.005615 0.698532
vt 0.204761 0.994385
vt 0.005615 0.404492
vt 0.963701 0.788338
vt 0.403844 0.036818
vt 0.330857 0.362059
vt 0.668496 0.036817
vt 0.036818 0.362059
vt 0.668496 0.330857
vt 0.362059 0.404492
vt 0.699050 0.330857
vt 0.993115 0.523687
vt 0.963701 0.259036
vt 0.362059 0.698532
vt 0.699050 0.036817
vt 0.362059 0.035030
vt 0.373290 0.402704
vt 0.362059 0.332644
vt 0.373290 0.700319
vt 0.332644 0.729733
vt 0.403844 0.700319
vt 0.164116 0.994385
vt 0.090481 0.994385
vt 0.035030 0.729733
vt 0.403844 0.402704
vt 0.005615 0.332644
vt 0.668496 0.402704
vt 0.005615 0.035030
vt 0.668496 0.700319
vt 0.035030 0.373290
vt 0.699050 0.700319
vt 0.079251 0.994385
vt 0.005615 0.994385
vt 0.332644 0.373290
vt 0.699050 0.402704
vt 0.048049 0.994385
vt 0.035030 0.404492
vt 0.993115 0.788338
vt 0.963701 0.523687
vt 0.332644 0.404492
vt 0.036818 0.994385
vt 0.175346 0.994385
vt 0.035030 0.698532
vt 0.121683 0.994385
vt 0.132914 0.994385
vt 0.332644 0.698532
vt 0.993115 0.259036
vt 0.330858 0.035030
vt 0.330858 0.332644
vt 0.036818 0.035030
vt 0.036818 0.332644
vt 0.657265 0.402704
vt 0.337928 0.740964
vt 0.090481 0.740964
vt 0.657265 0.373290
vt 0.367342 0.740964
vt 0.657265 0.362059
vt 0.286052 0.740964
vt 0.657265 0.036818
vt 0.963701 0.534918
vt 0.286052 0.772166
vt 0.952470 0.729733
vt 0.657265 0.005615
vt 0.245406 0.772166
vt 0.005615 0.740964
vt 0.952470 0.402704
vt 0.952470 0.362059
vt 0.215992 0.772166
vt 0.952470 0.373290
vt 0.952470 0.036817
vt 0.297282 0.772166
vt 0.963701 0.005615
vt 0.952470 0.005615
vt 0.297282 0.740964
vt 0.657265 0.729733
vt 0.367342 0.772166
vt 0.657265 0.330858
vt 0.204761 0.740964
vt 0.952470 0.330857
vt 0.215992 0.740964
vt 0.993116 0.270267
vt 0.245406 0.740964
vt 0.963701 0.270267
vt 0.036818 0.740964
vt 0.326697 0.772166
vt 0.993115 0.005615
vt 0.132914 0.740964
vt 0.326697 0.740964
vt 0.657265 0.700319
vt 0.164116 0.740964
vt 0.952470 0.700319
vt 0.256637 0.772166
vt 0.079251 0.740964
vt 0.256637 0.740964
vt 0.048049 0.740964
vt 0.993115 0.534918
vt 0.337928 0.772166
vt 0.121683 0.740964
vt 0.175346 0.740964
s 0
f 3/8/1 20/50/1 17/42/1
f 7/17/2 12/30/2 9/21/2
f 5/12/3 24/60/3 21/52/3
f 1/2/4 16/40/4 13/32/4
f 32/76/5 5/13/5 21/51/5
f 46/116/3 8/20/3 23/56/3
f 40/98/4 16/40/4 2/4/4
f 15/35/6 28/71/6 26/65/6
f 1/3/5 30/74/5 18/43/5
f 13/31/5 32/76/5 30/74/5
f 14/34/4 6/15/4 5/11/4
f 13/32/4 15/36/4 14/34/4
f 10/23/2 4/10/2 3/6/2
f 9/21/2 11/25/2 10/23/2
f 29/73/5 9/22/5 10/24/5
f 30/74/5 31/75/5 29/73/5
f 17/41/5 10/24/5 3/7/5
f 18/43/5 29/73/5 17/41/5
f 25/62/6 11/26/6 12/28/6
f 26/65/6 27/68/6 25/62/6
f 42/104/4 6/15/4 15/36/4
f 24/59/6 25/62/6 23/55/6
f 34/80/1 20/50/1 4/9/1
f 28/71/6 20/49/6 27/68/6
f 31/75/5 7/18/5 9/22/5
f 32/76/5 22/53/5 31/75/5
f 22/54/3 8/20/3 7/16/3
f 21/52/3 23/56/3 22/54/3
f 18/44/1 2/5/1 1/1/1
f 17/42/1 19/46/1 18/44/1
f 39/96/6 45/113/6 44/110/6
f 38/93/6 43/107/6 37/89/6
f 46/117/6 35/83/6 36/86/6
f 48/122/6 34/81/6 41/101/6
f 36/88/2 12/30/2 8/19/2
f 43/108/1 15/37/1 26/64/1
f 47/120/4 23/57/4 25/61/4
f 39/97/3 28/72/3 16/38/3
f 35/85/1 25/63/1 12/29/1
f 37/90/2 26/66/2 24/58/2
f 41/102/2 4/10/2 11/25/2
f 33/79/4 27/69/4 20/48/4
f 45/114/1 2/5/1 19/46/1
f 38/94/3 24/60/3 6/14/3
f 48/124/3 11/27/3 27/67/3
f 44/112/2 19/47/2 28/70/2
f 3/8/1 4/9/1 20/50/1
f 7/17/2 8/19/2 12/30/2
f 5/12/3 6/14/3 24/60/3
f 1/2/4 2/4/4 16/40/4
f 32/76/5 14/33/5 5/13/5
f 46/116/3 36/87/3 8/20/3
f 40/98/4 39/95/4 16/40/4
f 15/35/6 16/39/6 28/71/6
f 1/3/5 13/31/5 30/74/5
f 13/31/5 14/33/5 32/76/5
f 14/34/4 15/36/4 6/15/4
f 13/32/4 16/40/4 15/36/4
f 10/23/2 11/25/2 4/10/2
f 9/21/2 12/30/2 11/25/2
f 29/73/5 31/75/5 9/22/5
f 30/74/5 32/76/5 31/75/5
f 17/41/5 29/73/5 10/24/5
f 18/43/5 30/74/5 29/73/5
f 25/62/6 27/68/6 11/26/6
f 26/65/6 28/71/6 27/68/6
f 42/104/4 38/92/4 6/15/4
f 24/59/6 26/65/6 25/62/6
f 34/80/1 33/77/1 20/50/1
f 28/71/6 19/45/6 20/49/6
f 31/75/5 22/53/5 7/18/5
f 32/76/5 21/51/5 22/53/5
f 22/54/3 23/56/3 8/20/3
f 21/52/3 24/60/3 23/56/3
f 18/44/1 19/46/1 2/5/1
f 17/42/1 20/50/1 19/46/1
f 39/96/6 40/99/6 45/113/6
f 38/93/6 42/105/6 43/107/6
f 46/117/6 47/119/6 35/83/6
f 48/122/6 33/78/6 34/81/6
f 36/88/2 35/84/2 12/30/2
f 43/108/1 42/106/1 15/37/1
f 47/120/4 46/118/4 23/57/4
f 39/97/3 44/111/3 28/72/3
f 35/85/1 47/121/1 25/63/1
f 37/90/2 43/109/2 26/66/2
f 41/102/2 34/82/2 4/10/2
f 33/79/4 48/123/4 27/69/4
f 45/114/1 40/100/1 2/5/1
f 38/94/3 37/91/3 24/60/3
f 48/124/3 41/103/3 11/27/3
f 44/112/2 45/115/2 19/47/2
