# Blender 3.3.1
# www.blender.org
o south_wall_traiteur
v -1.000000 0.028381 1.000000
v -1.000000 2.028381 1.000000
v -1.000000 0.028381 -52.577148
v -1.000000 2.028381 -52.577148
v 1.000000 0.028381 1.000000
v 1.000000 2.028381 1.000000
v 1.000000 0.028381 -52.577148
v -5.135364 0.028381 -58.446655
v -1.000000 0.028381 -50.261322
v -1.000000 3.800387 -48.489315
v 1.000000 0.028381 -50.261322
v -2.860451 2.028381 -50.261322
v -2.860451 2.028381 -52.577148
v -2.860451 0.028381 -52.577148
v -2.860451 0.028381 -50.261322
v -4.734200 0.028381 -58.045490
v -1.565443 0.028381 -54.876732
v -3.605464 1.006738 -54.285679
v -3.605464 0.031313 -54.285679
v -8.304122 0.028381 -61.615417
v -8.895176 1.006738 -59.575397
v -8.895176 0.031313 -59.575397
v -1.000000 13.112098 -48.489315
v -1.000000 14.884103 -52.577148
v 1.000000 14.884103 -52.577148
v 1.000000 14.884103 -50.261322
v 1.000000 14.884103 1.000000
v -1.000000 14.884103 1.000000
v -2.860451 14.884103 -50.261322
v -2.860451 14.884103 -52.577148
v -1.000000 0.028381 -5.660313
v -1.000000 3.800387 -7.432318
v 1.000000 0.028381 -5.660313
v 1.000000 14.884103 -5.660313
v -1.000000 13.112098 -7.432318
v -1.000000 2.028381 -5.660313
v -1.000000 2.028381 -50.261322
v -1.000000 14.884103 -5.660313
v -1.000000 14.884103 -50.261322
v -0.325514 3.800387 -7.432318
v -0.325514 3.800387 -48.489315
v -0.325514 13.112098 -7.432318
v -0.325514 13.112098 -48.489315
v -1.000000 14.884103 -52.577148
v -2.860451 14.884103 -52.577148
v -1.565443 14.884103 -54.876732
v -3.605464 12.837886 -54.285679
v -8.304122 14.884103 -61.615417
v -8.895176 12.837886 -59.575397
v -2.880981 2.028381 -53.561195
v -2.880981 0.028381 -53.561195
v -9.619659 2.028381 -60.299881
v -9.619659 0.028381 -60.299881
v -9.619659 14.884103 -60.299881
v -2.880981 14.884103 -53.561195
v -8.431589 1.006738 -60.038982
v -3.141877 1.006738 -54.749264
v -3.141877 0.031313 -54.749264
v -8.431589 0.031313 -60.038982
v -8.431589 12.837886 -60.038982
v -3.141877 12.837886 -54.749264
v -6.049737 0.028381 -56.729954
v -6.450902 0.028381 -57.131119
v -4.734200 14.884103 -58.045490
v -5.135364 14.884103 -58.446655
v -6.450900 14.884103 -57.131119
v -6.049736 14.884103 -56.729958
v -6.092866 0.031313 -56.773087
v -6.407772 0.031313 -57.087990
v -6.407771 12.837886 -57.087990
v -6.092866 12.837886 -56.773087
v -5.944185 1.006738 -57.551575
v -5.629280 1.006738 -57.236671
v -5.629280 0.031313 -57.236671
v -5.944185 0.031313 -57.551575
v -5.944185 12.837886 -57.551575
v -5.629280 12.837886 -57.236671
v -6.074753 1.006738 -57.421005
v -5.759848 1.006738 -57.106102
v -5.759848 0.031313 -57.106102
v -6.074753 0.031313 -57.421005
v -6.074753 12.837886 -57.421005
v -5.759848 12.837886 -57.106102
v 0.521146 3.800387 -7.432318
v 0.521146 3.800387 -48.489315
v 0.521146 13.112098 -7.432318
v 0.521146 13.112098 -48.489315
v -1.000000 0.028381 8.723309
v -1.000000 2.028381 8.723309
v 1.000000 14.884103 8.723309
v 1.000000 2.028381 8.723309
v 1.000000 0.028381 8.723309
v -1.000000 14.884103 8.723309
v -7.767443 14.884104 -62.460136
v -7.767443 0.028381 -62.460136
v -9.627893 2.028381 -62.460140
v -9.627893 0.028381 -62.460140
v -9.627893 14.884104 -62.460140
v -7.767429 2.028381 -68.973221
v -7.767429 14.884104 -68.973221
v -7.767429 0.028381 -68.973221
v -9.627880 2.028381 -68.973228
v -9.627880 0.028381 -68.973228
v -9.627880 14.884104 -68.973228
vn -0.0000 -0.0000 1.0000
vn 0.7071 -0.0000 0.7071
vn -1.0000 -0.0000 -0.0000
vn -0.0000 -1.0000 -0.0000
vn -0.0000 -0.0000 -1.0000
vn -0.9998 -0.0000 0.0209
vn -0.7071 -0.0000 0.7071
vn -0.7071 -0.0000 -0.7071
vn -0.0000 1.0000 -0.0000
vn 1.0000 -0.0000 -0.0000
vn -0.7071 0.0008 0.7071
vn -0.7071 0.0023 0.7071
vn -1.0000 -0.0000 0.0038
vn -0.7071 -0.0005 0.7071
vn -0.7071 -0.0007 0.7071
vt 0.311791 0.105004
vt 0.192649 0.652134
vt 0.167406 0.652134
vt 0.227996 0.776011
vt 0.367949 0.533642
vt 0.425210 0.533642
vt 0.559473 0.251851
vt 0.286743 0.101876
vt 0.559473 0.277094
vt 0.202948 0.772882
vt 0.270607 0.855989
vt 0.357651 0.533642
vt 0.192649 0.005150
vt 0.231617 0.747006
vt 0.738014 0.005150
vt 0.145041 0.027515
vt 0.718815 0.533644
vt 0.206570 0.743879
vt 0.334169 0.558885
vt 0.487237 0.005150
vt 0.401729 0.533642
vt 0.391430 0.533642
vt 0.487237 0.034378
vt 0.461994 0.034378
vt 0.251296 0.778920
vt 0.461994 0.005150
vt 0.334169 0.533642
vt 0.254918 0.749917
vt 0.266211 0.850337
vt 0.231481 0.805695
vt 0.474342 0.055969
vt 0.644944 0.507733
vt 0.644944 0.495422
vt 0.510067 0.621586
vt 0.462031 0.055969
vt 0.305337 0.900631
vt 0.545551 0.461960
vt 0.474342 0.122913
vt 0.510067 0.716003
vt 0.462031 0.122913
vt 0.545551 0.449649
vt 0.718815 0.651170
vt 0.027514 0.027515
vt 0.748313 0.005150
vt 0.367949 0.695899
vt 0.683274 0.778846
vt 0.708517 0.778846
vt 0.708517 0.749617
vt 0.708517 0.102628
vt 0.559473 0.439351
vt 0.005149 0.652134
vt 0.683274 0.102628
vt 0.659792 0.749617
vt 0.334169 0.721142
vt 0.649494 0.005150
vt 0.391430 0.695899
vt 0.659792 0.778846
vt 0.649494 0.034378
vt 0.192649 0.568073
vt 0.301374 0.188419
vt 0.481193 0.621584
vt 0.145041 0.545708
vt 0.738014 0.523346
vt 0.276326 0.185291
vt 0.708517 0.186690
vt 0.748313 0.523346
vt 0.481193 0.739111
vt 0.027514 0.545708
vt 0.167406 0.568073
vt 0.357651 0.558885
vt 0.167406 0.005150
vt 0.683274 0.186690
vt 0.005149 0.568073
vt 0.357651 0.721142
vt 0.683274 0.749617
vt 0.005149 0.005150
vt 0.472680 0.621584
vt 0.451695 0.523342
vt 0.729501 0.523346
vt 0.727328 0.533644
vt 0.729501 0.005150
vt 0.451695 0.005150
vt 0.334168 0.523342
vt 0.756825 0.523346
vt 0.472680 0.739111
vt 0.727328 0.651170
vt 0.334168 0.005150
vt 0.756826 0.005150
vt 0.630098 0.251850
vt 0.425210 0.695899
vt 0.608605 0.261307
vt 0.649494 0.034378
vt 0.401729 0.695899
vt 0.635254 0.281288
vt 0.491493 0.716003
vt 0.623668 0.055969
vt 0.644944 0.657059
vt 0.591656 0.393391
vt 0.545551 0.611286
vt 0.491493 0.621586
vt 0.623668 0.122913
vt 0.487237 0.046799
vt 0.461994 0.046799
vt 0.250014 0.791277
vt 0.487237 0.132084
vt 0.323871 0.886212
vt 0.461994 0.132084
vt 0.569771 0.384880
vt 0.649494 0.132084
vt 0.649494 0.046799
vt 0.613370 0.272778
vt 0.503773 0.461961
vt 0.551403 0.461960
vt 0.493473 0.461961
vt 0.639092 0.507733
vt 0.493473 0.449649
vt 0.518341 0.621586
vt 0.639092 0.495422
vt 0.503773 0.449649
vt 0.551403 0.449649
vt 0.518341 0.716003
vt 0.503773 0.611286
vt 0.551403 0.611286
vt 0.499767 0.621586
vt 0.499767 0.716003
vt 0.493473 0.611286
vt 0.639092 0.657059
vt 0.461994 0.086903
vt 0.284744 0.835918
vt 0.461994 0.091980
vt 0.289141 0.841570
vt 0.614753 0.334003
vt 0.612157 0.340675
vt 0.590273 0.332165
vt 0.649494 0.091980
vt 0.649494 0.086903
vt 0.592868 0.325493
vt 0.462031 0.087448
vt 0.510067 0.665985
vt 0.462031 0.091434
vt 0.510067 0.671604
vt 0.491493 0.665985
vt 0.623668 0.091434
vt 0.491493 0.671604
vt 0.623668 0.087448
vt 0.535252 0.461961
vt 0.645553 0.264162
vt 0.461994 0.461961
vt 0.451443 0.545953
vt 0.451443 0.533642
vt 0.461994 0.449649
vt 0.518341 0.665985
vt 0.543598 0.627205
vt 0.535252 0.449649
vt 0.543598 0.621586
vt 0.645553 0.251851
vt 0.518341 0.671604
vt 0.645553 0.413488
vt 0.535252 0.611286
vt 0.499767 0.665985
vt 0.528637 0.621586
vt 0.451443 0.695278
vt 0.499767 0.671604
vt 0.461994 0.611286
vt 0.528637 0.627205
vt 0.435509 0.545953
vt 0.647201 0.264162
vt 0.439495 0.545953
vt 0.449795 0.545953
vt 0.439495 0.533642
vt 0.541267 0.627205
vt 0.449795 0.533642
vt 0.647201 0.251851
vt 0.435509 0.533642
vt 0.541267 0.621586
vt 0.435509 0.695278
vt 0.530968 0.621586
vt 0.647201 0.413488
vt 0.530968 0.627205
vt 0.449795 0.695278
vt 0.439495 0.695278
vt 0.718815 0.523346
vt 0.461994 0.621584
vt 0.738014 0.533644
vt 0.718815 0.005150
vt 0.461994 0.739111
vt 0.767511 0.523346
vt 0.738014 0.651170
vt 0.767512 0.005150
vt 0.569772 0.495422
vt 0.323871 0.008277
vt 0.192649 0.749615
vt 0.569772 0.520665
vt 0.167406 0.749615
vt 0.461994 0.439351
vt 0.595014 0.682922
vt 0.708516 0.005149
vt 0.595014 0.520665
vt 0.461994 0.277094
vt 0.595014 0.495422
vt 0.298822 0.005149
vt 0.461994 0.251851
vt 0.005149 0.749615
vt 0.569772 0.682922
vt 0.683274 0.005149
vt 0.602149 0.400421
vt 0.297295 0.910371
vt 0.487237 0.159348
vt 0.461994 0.159348
vt 0.320595 0.913280
vt 0.580656 0.409878
vt 0.649494 0.159348
vt 0.605313 0.520665
vt 0.635254 0.475666
vt 0.605313 0.682922
vt 0.605313 0.495422
vt 0.287108 0.991940
vt 0.628794 0.520665
vt 0.487237 0.241554
vt 0.628794 0.495422
vt 0.310409 0.994851
vt 0.461994 0.241554
vt 0.613761 0.485123
vt 0.628794 0.682922
vt 0.649494 0.241554
s 0
f 37/70/1 15/27/1 9/12/1
f 77/162/2 79/169/2 73/149/2
f 2/3/3 93/203/3 28/51/3
f 33/64/4 1/1/4 31/60/4
f 13/22/5 24/45/5 4/5/5
f 7/10/4 9/14/4 3/4/4
f 36/69/3 9/13/3 31/59/3
f 12/20/3 14/24/3 15/26/3
f 13/23/6 51/103/6 14/24/6
f 9/14/4 14/25/4 3/4/4
f 20/36/4 97/210/4 95/207/4
f 57/114/7 74/151/7 58/116/7
f 3/4/4 51/104/4 17/30/4
f 75/156/8 78/167/8 72/147/8
f 72/146/7 60/122/7 56/112/7
f 8/11/4 53/106/4 20/36/4
f 19/34/9 74/152/9 68/139/9
f 38/72/9 27/49/9 34/65/9
f 24/46/9 26/48/9 25/47/9
f 24/46/9 29/53/9 39/75/9
f 37/70/1 29/54/1 12/19/1
f 2/3/3 38/73/3 36/69/3
f 27/50/10 91/199/10 6/9/10
f 12/20/3 30/58/3 13/23/3
f 71/144/4 76/160/4 77/163/4
f 35/67/5 40/77/5 32/61/5
f 39/75/9 34/65/9 26/48/9
f 2/3/3 31/59/3 1/2/3
f 11/18/4 31/60/4 9/14/4
f 10/16/3 36/69/3 32/62/3
f 35/68/3 39/76/3 23/43/3
f 23/43/3 37/71/3 10/16/3
f 32/62/3 38/73/3 35/68/3
f 41/80/1 87/188/1 43/86/1
f 23/44/4 42/84/4 35/66/4
f 10/17/1 43/86/1 23/42/1
f 32/63/9 41/81/9 10/15/9
f 66/134/9 48/98/9 54/108/9
f 44/89/9 55/111/9 45/91/9
f 47/95/4 77/163/4 61/125/4
f 13/23/6 55/110/6 50/102/6
f 21/37/2 60/123/2 49/99/2
f 4/6/1 45/93/1 13/21/1
f 18/31/7 51/103/7 50/102/7
f 21/38/7 53/107/7 22/40/7
f 22/40/11 63/130/11 69/140/11
f 47/96/7 67/136/7 71/145/7
f 49/101/7 52/105/7 21/38/7
f 47/96/7 50/102/7 55/110/7
f 72/146/7 59/119/7 75/154/7
f 57/114/7 77/164/7 73/148/7
f 18/32/8 58/118/8 19/33/8
f 47/97/8 57/115/8 18/32/8
f 70/142/4 60/124/4 76/160/4
f 22/41/2 56/113/2 21/37/2
f 49/101/7 66/135/7 54/109/7
f 71/145/7 66/135/7 70/143/7
f 19/35/7 62/128/7 51/103/7
f 68/138/12 63/130/12 62/128/12
f 55/111/9 64/132/9 67/137/9
f 67/137/9 65/133/9 66/134/9
f 69/141/9 59/121/9 22/39/9
f 68/139/9 75/157/9 69/141/9
f 51/104/4 16/29/4 17/30/4
f 16/29/4 63/131/4 8/11/4
f 79/168/7 81/174/7 80/170/7
f 79/168/7 82/176/7 78/166/7
f 77/165/9 82/177/9 83/179/9
f 74/153/4 81/175/4 75/155/4
f 73/149/2 80/172/2 74/150/2
f 72/147/8 82/178/8 76/158/8
f 43/87/3 40/78/3 42/83/3
f 40/79/9 85/185/9 41/81/9
f 42/85/5 84/183/5 40/77/5
f 43/88/4 86/187/4 42/84/4
f 91/198/1 88/190/1 92/200/1
f 91/198/1 93/204/1 89/193/1
f 5/8/4 88/191/4 1/1/4
f 1/2/3 89/194/3 2/3/3
f 28/52/9 90/197/9 27/49/9
f 6/9/10 92/202/10 5/7/10
f 98/211/9 100/214/9 104/223/9
f 52/105/13 97/209/13 53/107/13
f 54/109/13 96/208/13 52/105/13
f 48/98/9 98/211/9 54/108/9
f 102/218/5 100/215/5 99/213/5
f 101/216/5 102/218/5 99/213/5
f 98/212/3 102/219/3 96/208/3
f 97/210/4 101/217/4 95/207/4
f 96/208/3 103/222/3 97/209/3
f 37/70/1 12/19/1 15/27/1
f 77/162/2 83/180/2 79/169/2
f 2/3/3 89/194/3 93/203/3
f 33/64/4 5/8/4 1/1/4
f 13/22/5 30/56/5 24/45/5
f 7/10/4 11/18/4 9/14/4
f 36/69/3 37/71/3 9/13/3
f 12/20/3 13/23/3 14/24/3
f 13/23/6 50/102/6 51/103/6
f 9/14/4 15/28/4 14/25/4
f 20/36/4 53/106/4 97/210/4
f 57/114/7 73/148/7 74/151/7
f 3/4/4 14/25/4 51/104/4
f 75/156/8 81/173/8 78/167/8
f 72/146/7 76/159/7 60/122/7
f 8/11/4 63/131/4 53/106/4
f 19/34/9 58/117/9 74/152/9
f 38/72/9 28/52/9 27/49/9
f 24/46/9 39/75/9 26/48/9
f 24/46/9 30/57/9 29/53/9
f 37/70/1 39/74/1 29/54/1
f 2/3/3 28/51/3 38/73/3
f 27/50/10 90/195/10 91/199/10
f 12/20/3 29/55/3 30/58/3
f 71/144/4 70/142/4 76/160/4
f 35/67/5 42/85/5 40/77/5
f 39/75/9 38/72/9 34/65/9
f 2/3/3 36/69/3 31/59/3
f 11/18/4 33/64/4 31/60/4
f 10/16/3 37/71/3 36/69/3
f 35/68/3 38/73/3 39/76/3
f 23/43/3 39/76/3 37/71/3
f 32/62/3 36/69/3 38/73/3
f 41/80/1 85/184/1 87/188/1
f 23/44/4 43/88/4 42/84/4
f 10/17/1 41/80/1 43/86/1
f 32/63/9 40/79/9 41/81/9
f 66/134/9 65/133/9 48/98/9
f 44/89/9 46/94/9 55/111/9
f 47/95/4 71/144/4 77/163/4
f 13/23/6 45/92/6 55/110/6
f 21/37/2 56/113/2 60/123/2
f 4/6/1 44/90/1 45/93/1
f 18/31/7 19/35/7 51/103/7
f 21/38/7 52/105/7 53/107/7
f 22/40/7 53/107/7 63/130/7
f 47/96/7 55/110/7 67/136/7
f 49/101/7 54/109/7 52/105/7
f 47/96/7 18/31/7 50/102/7
f 72/146/7 56/112/7 59/119/7
f 57/114/7 61/126/7 77/164/7
f 18/32/8 57/115/8 58/118/8
f 47/97/8 61/127/8 57/115/8
f 70/142/4 49/100/4 60/124/4
f 22/41/2 59/120/2 56/113/2
f 49/101/7 70/143/7 66/135/7
f 71/145/7 67/136/7 66/135/7
f 19/35/14 68/138/14 62/128/14
f 68/138/15 69/140/15 63/130/15
f 55/111/9 46/94/9 64/132/9
f 67/137/9 64/132/9 65/133/9
f 69/141/9 75/157/9 59/121/9
f 68/139/9 74/152/9 75/157/9
f 51/104/4 62/129/4 16/29/4
f 16/29/4 62/129/4 63/131/4
f 79/168/7 78/166/7 81/174/7
f 79/168/7 83/181/7 82/176/7
f 77/165/9 76/161/9 82/177/9
f 74/153/4 80/171/4 81/175/4
f 73/149/2 79/169/2 80/172/2
f 72/147/8 78/167/8 82/178/8
f 43/87/3 41/82/3 40/78/3
f 40/79/9 84/182/9 85/185/9
f 42/85/5 86/186/5 84/183/5
f 43/88/4 87/189/4 86/187/4
f 91/198/1 89/193/1 88/190/1
f 91/198/1 90/196/1 93/204/1
f 5/8/4 92/201/4 88/191/4
f 1/2/3 88/192/3 89/194/3
f 28/52/9 93/205/9 90/197/9
f 6/9/10 91/199/10 92/202/10
f 98/211/9 94/206/9 100/214/9
f 52/105/13 96/208/13 97/209/13
f 54/109/13 98/212/13 96/208/13
f 48/98/9 94/206/9 98/211/9
f 102/218/5 104/224/5 100/215/5
f 101/216/5 103/220/5 102/218/5
f 98/212/3 104/225/3 102/219/3
f 97/210/4 103/221/4 101/217/4
f 96/208/3 102/219/3 103/222/3
