# Blender 3.3.1
# www.blender.org
o table_12
v 2.560990 0.002424 5.025513
v 2.560990 0.002424 -5.298916
v 2.272514 1.425471 5.025513
v 2.382909 1.646261 4.981595
v 2.476498 1.833438 4.856528
v 2.539032 1.958506 4.669351
v 1.600533 0.002424 -5.298916
v 2.560990 2.002424 4.448560
v 1.600533 0.002424 5.025513
v 2.272514 1.425471 -5.298916
v 2.382909 1.646261 -5.254998
v 2.476498 1.833438 -5.129930
v 2.539032 1.958506 -4.942754
v 2.560990 2.002424 -4.721963
v 0.533811 0.002424 5.025513
v -0.043141 0.002424 4.448560
v 0.313021 0.002424 4.981595
v 0.125844 0.002424 4.856528
v 0.000777 0.002424 4.669351
v 0.533811 2.002424 5.025513
v -0.043141 2.002424 4.448560
v 0.313021 2.002424 4.981595
v 0.125844 2.002424 4.856528
v 0.000777 2.002424 4.669351
v -0.043141 0.002424 -4.721963
v 0.533811 0.002424 -5.298916
v 0.000777 0.002424 -4.942754
v 0.125844 0.002424 -5.129931
v 0.313021 0.002424 -5.254998
v -0.043141 2.002424 -4.721963
v 0.533811 2.002424 -5.298916
v 0.000777 2.002424 -4.942754
v 0.125844 2.002424 -5.129931
v 0.313021 2.002424 -5.254998
v 4.098400 0.002424 4.448560
v 3.521448 0.002424 5.025513
v 4.054482 0.002424 4.669351
v 3.929415 0.002424 4.856528
v 3.742238 0.002424 4.981595
v 3.521448 2.002424 4.448560
v 3.521448 1.425471 5.025513
v 4.098400 1.425471 4.448560
v 3.521448 1.958506 4.669351
v 3.521448 1.833438 4.856528
v 3.742238 1.958506 4.448561
v 3.747771 1.905502 4.674884
v 3.736288 1.804099 4.827188
v 3.854551 1.758575 4.781664
v 3.742238 1.425471 4.981596
v 3.929415 1.425471 4.856528
v 3.521448 1.646261 4.981596
v 3.747771 1.651794 4.928592
v 3.900075 1.640311 4.827188
v 4.054482 1.646261 4.448561
v 3.929415 1.833438 4.448561
v 4.054482 1.425471 4.669351
v 4.001479 1.651794 4.674884
v 3.900075 1.804099 4.663401
v 3.521448 0.002424 -5.298916
v 4.098400 0.002424 -4.721963
v 3.742238 0.002424 -5.254998
v 3.929415 0.002424 -5.129931
v 4.054482 0.002424 -4.942754
v 3.521448 2.002424 -4.721963
v 4.098400 1.425471 -4.721963
v 3.521448 1.425471 -5.298916
v 3.742238 1.958506 -4.721963
v 3.929415 1.833438 -4.721963
v 3.521448 1.958506 -4.942754
v 3.747771 1.905502 -4.948287
v 3.900075 1.804099 -4.936803
v 3.854551 1.758575 -5.055067
v 4.054482 1.425471 -4.942754
v 3.929415 1.425471 -5.129930
v 4.054482 1.646261 -4.721963
v 4.001479 1.651794 -4.948287
v 3.900075 1.640311 -5.100591
v 3.521448 1.646261 -5.254998
v 3.521448 1.833438 -5.129930
v 3.742238 1.425471 -5.254998
v 3.747771 1.651794 -5.201994
v 3.736288 1.804099 -5.100591
v 1.023581 1.425471 -5.298916
v 1.600533 2.002424 -4.721963
v 1.244371 1.646261 -5.254998
v 1.431548 1.833438 -5.129931
v 1.556615 1.958506 -4.942754
v 1.600533 2.002424 4.448560
v 1.023581 1.425471 5.025513
v 1.556615 1.958506 4.669351
v 1.431548 1.833438 4.856528
v 1.244371 1.646261 4.981595
v -0.043141 3.663192 4.448560
v 0.533811 3.663192 5.025513
v 0.533811 4.240145 4.448560
v 0.000776 3.663192 4.669351
v 0.125844 3.663192 4.856528
v 0.000776 3.883982 4.448561
v 0.053780 3.889516 4.674884
v 0.155183 3.878032 4.827188
v 0.200707 3.996296 4.781664
v 0.533811 3.883982 4.981596
v 0.533811 4.071159 4.856528
v 0.313021 3.663192 4.981596
v 0.307488 3.889516 4.928592
v 0.318971 4.041820 4.827188
v 0.313021 4.196227 4.448561
v 0.125844 4.071159 4.448561
v 0.533811 4.196227 4.669351
v 0.307488 4.143223 4.674884
v 0.155183 4.041820 4.663401
v -0.043141 3.663192 -4.721963
v 0.533811 4.240145 -4.721963
v 0.533811 3.663192 -5.298916
v 0.000776 3.883982 -4.721963
v 0.125844 4.071159 -4.721963
v 0.000776 3.663192 -4.942754
v 0.053780 3.889516 -4.948287
v 0.155183 4.041820 -4.936803
v 0.200707 3.996296 -5.055067
v 0.533811 4.196227 -4.942754
v 0.533811 4.071159 -5.129930
v 0.313021 4.196227 -4.721963
v 0.307488 4.143223 -4.948287
v 0.318971 4.041820 -5.100591
v 0.313021 3.663192 -5.254998
v 0.125844 3.663192 -5.129930
v 0.533811 3.883982 -5.254998
v 0.307488 3.889516 -5.201994
v 0.155183 3.878032 -5.100591
v 1.023581 3.663192 5.025513
v 1.600533 3.663192 4.448560
v 1.023581 4.240145 4.448560
v 1.244371 3.663192 4.981596
v 1.431548 3.663192 4.856528
v 1.023581 3.883982 4.981596
v 1.249904 3.889516 4.928592
v 1.402208 3.878032 4.827188
v 1.356684 3.996296 4.781664
v 1.556615 3.883982 4.448561
v 1.431548 4.071159 4.448561
v 1.556615 3.663192 4.669351
v 1.503611 3.889516 4.674884
v 1.402208 4.041820 4.663401
v 1.023581 4.196227 4.669351
v 1.023581 4.071159 4.856528
v 1.244371 4.196227 4.448561
v 1.249904 4.143223 4.674884
v 1.238421 4.041820 4.827188
v 1.023581 3.663192 -5.298916
v 1.023581 4.240145 -4.721963
v 1.600533 3.663192 -4.721963
v 1.023581 3.883982 -5.254999
v 1.023581 4.071159 -5.129931
v 1.244371 3.663192 -5.254999
v 1.249904 3.889516 -5.201995
v 1.238421 4.041820 -5.100592
v 1.356684 3.996296 -5.055068
v 1.244371 4.196227 -4.721964
v 1.431548 4.071159 -4.721964
v 1.023581 4.196227 -4.942754
v 1.249904 4.143223 -4.948287
v 1.402208 4.041820 -4.936804
v 1.556615 3.663192 -4.942754
v 1.431548 3.663192 -5.129931
v 1.556615 3.883982 -4.721964
v 1.503611 3.889516 -4.948287
v 1.402208 3.878032 -5.100592
v 12.918146 0.002424 -5.298931
v 12.918148 0.002424 5.025497
v 13.206623 1.425471 -5.298931
v 13.096228 1.646261 -5.255013
v 13.002640 1.833438 -5.129946
v 12.940105 1.958506 -4.942769
v 13.878605 0.002424 5.025497
v 12.918147 2.002424 -4.721979
v 13.878605 0.002424 -5.298931
v 13.206623 1.425471 5.025497
v 13.096228 1.646261 4.981580
v 13.002640 1.833438 4.856512
v 12.940105 1.958506 4.669335
v 12.918147 2.002424 4.448545
v 14.945326 0.002424 -5.298931
v 15.522279 0.002424 -4.721979
v 15.166117 0.002424 -5.255013
v 15.353292 0.002424 -5.129946
v 15.478361 0.002424 -4.942769
v 14.945326 2.002424 -5.298931
v 15.522279 2.002424 -4.721979
v 15.166117 2.002424 -5.255013
v 15.353292 2.002424 -5.129946
v 15.478361 2.002424 -4.942769
v 15.522279 0.002424 4.448545
v 14.945328 0.002424 5.025497
v 15.478361 0.002424 4.669335
v 15.353294 0.002424 4.856513
v 15.166117 0.002424 4.981580
v 15.522279 2.002424 4.448545
v 14.945328 2.002424 5.025497
v 15.478361 2.002424 4.669335
v 15.353294 2.002424 4.856513
v 15.166117 2.002424 4.981580
v 11.380737 0.002424 -4.721979
v 11.957689 0.002424 -5.298931
v 11.424654 0.002424 -4.942769
v 11.549723 0.002424 -5.129946
v 11.736898 0.002424 -5.255013
v 11.957689 2.002424 -4.721979
v 11.957689 1.425471 -5.298931
v 11.380737 1.425471 -4.721979
v 11.957689 1.958506 -4.942770
v 11.957689 1.833438 -5.129946
v 11.736898 1.958506 -4.721979
v 11.731365 1.905502 -4.948302
v 11.742849 1.804099 -5.100607
v 11.624586 1.758575 -5.055083
v 11.736898 1.425471 -5.255014
v 11.549723 1.425471 -5.129946
v 11.957689 1.646261 -5.255014
v 11.731365 1.651794 -5.202010
v 11.579062 1.640311 -5.100607
v 11.424654 1.646261 -4.721979
v 11.549723 1.833438 -4.721979
v 11.424654 1.425471 -4.942770
v 11.477659 1.651794 -4.948302
v 11.579062 1.804099 -4.936819
v 11.957689 0.002424 5.025497
v 11.380737 0.002424 4.448545
v 11.736900 0.002424 4.981580
v 11.549723 0.002424 4.856513
v 11.424656 0.002424 4.669335
v 11.957689 2.002424 4.448545
v 11.380737 1.425471 4.448545
v 11.957689 1.425471 5.025497
v 11.736900 1.958506 4.448545
v 11.549723 1.833438 4.448545
v 11.957689 1.958506 4.669335
v 11.731367 1.905502 4.674868
v 11.579062 1.804099 4.663385
v 11.624586 1.758575 4.781649
v 11.424656 1.425471 4.669335
v 11.549723 1.425471 4.856512
v 11.424656 1.646261 4.448545
v 11.477659 1.651794 4.674868
v 11.579062 1.640311 4.827173
v 11.957689 1.646261 4.981580
v 11.957689 1.833438 4.856512
v 11.736900 1.425471 4.981580
v 11.731367 1.651794 4.928576
v 11.742849 1.804099 4.827173
v 14.455557 1.425471 5.025497
v 13.878605 2.002424 4.448545
v 14.234767 1.646261 4.981580
v 14.047590 1.833438 4.856513
v 13.922523 1.958506 4.669335
v 13.878605 2.002424 -4.721979
v 14.455557 1.425471 -5.298931
v 13.922523 1.958506 -4.942769
v 14.047590 1.833438 -5.129946
v 14.234767 1.646261 -5.255013
v 15.522279 3.663192 -4.721979
v 14.945326 3.663192 -5.298931
v 14.945327 4.240145 -4.721979
v 15.478361 3.663192 -4.942770
v 15.353292 3.663192 -5.129946
v 15.478361 3.883982 -4.721979
v 15.425356 3.889516 -4.948302
v 15.323954 3.878032 -5.100607
v 15.278429 3.996296 -5.055083
v 14.945326 3.883982 -5.255014
v 14.945326 4.071159 -5.129946
v 15.166117 3.663192 -5.255014
v 15.171650 3.889516 -5.202010
v 15.160166 4.041820 -5.100607
v 15.166117 4.196227 -4.721979
v 15.353293 4.071159 -4.721979
v 14.945326 4.196227 -4.942770
v 15.171650 4.143223 -4.948302
v 15.323954 4.041820 -4.936819
v 15.522279 3.663192 4.448545
v 14.945327 4.240145 4.448545
v 14.945328 3.663192 5.025497
v 15.478361 3.883982 4.448545
v 15.353293 4.071159 4.448545
v 15.478361 3.663192 4.669335
v 15.425358 3.889516 4.674868
v 15.323954 4.041820 4.663385
v 15.278431 3.996296 4.781649
v 14.945328 4.196227 4.669335
v 14.945328 4.071159 4.856512
v 15.166117 4.196227 4.448545
v 15.171650 4.143223 4.674868
v 15.160168 4.041820 4.827173
v 15.166117 3.663192 4.981580
v 15.353294 3.663192 4.856512
v 14.945328 3.883982 4.981580
v 15.171650 3.889516 4.928576
v 15.323954 3.878032 4.827173
v 14.455557 3.663192 -5.298931
v 13.878605 3.663192 -4.721979
v 14.455557 4.240145 -4.721979
v 14.234767 3.663192 -5.255014
v 14.047590 3.663192 -5.129946
v 14.455557 3.883982 -5.255014
v 14.229234 3.889516 -5.202010
v 14.076929 3.878032 -5.100607
v 14.122454 3.996296 -5.055083
v 13.922523 3.883982 -4.721979
v 14.047590 4.071159 -4.721979
v 13.922523 3.663192 -4.942770
v 13.975526 3.889516 -4.948302
v 14.076929 4.041820 -4.936819
v 14.455557 4.196227 -4.942770
v 14.455557 4.071159 -5.129946
v 14.234767 4.196227 -4.721979
v 14.229234 4.143223 -4.948302
v 14.240717 4.041820 -5.100607
v 14.455557 3.663192 5.025497
v 14.455557 4.240145 4.448545
v 13.878605 3.663192 4.448545
v 14.455557 3.883982 4.981580
v 14.455557 4.071159 4.856513
v 14.234767 3.663192 4.981580
v 14.229234 3.889516 4.928576
v 14.240717 4.041820 4.827173
v 14.122454 3.996296 4.781649
v 14.234767 4.196227 4.448545
v 14.047590 4.071159 4.448545
v 14.455557 4.196227 4.669336
v 14.229234 4.143223 4.674869
v 14.076929 4.041820 4.663385
v 13.922523 3.663192 4.669336
v 14.047590 3.663192 4.856513
v 13.922523 3.883982 4.448545
v 13.975526 3.889516 4.674869
v 14.076929 3.878032 4.827173
v 5.839550 2.471468 4.632106
v 5.839550 2.471468 -5.222904
v 9.604353 2.471468 4.632106
v 9.604353 2.471468 -5.222904
v 6.101251 2.196796 4.285472
v 9.342652 2.196796 4.285472
v 9.342652 2.196796 4.632106
v 6.101252 2.196796 -5.222904
v 6.101252 2.471468 -5.222904
v 9.342652 2.471468 -5.222904
v 9.342652 2.471468 4.632106
v 6.101251 2.471468 4.632106
v 5.839550 2.196796 4.632106
v 6.101251 2.196796 4.632106
v 9.604353 2.196796 4.632106
v 9.604353 2.196796 4.285472
v 5.839550 2.471468 4.285472
v 5.839550 2.471468 -4.876249
v 9.604353 2.471468 -4.876249
v 9.604353 2.471468 4.285472
v 9.604353 2.196796 -5.222904
v 9.342652 2.196796 -5.222904
v 5.839550 2.196796 -5.222904
v 5.839550 2.196796 -4.876249
v 9.342652 2.471468 -4.876249
v 9.342652 2.471468 4.285472
v 6.101252 2.471468 -4.876249
v 6.101251 2.471468 4.285472
v 6.101252 2.196796 -4.876249
v 9.342652 2.196796 -4.876249
v 9.604353 2.196796 -4.876249
v 5.839550 2.196796 4.285472
v 5.839550 0.014684 4.285472
v 6.101251 0.014684 4.285472
v 5.839550 0.014684 -4.876249
v 6.101252 0.014684 -4.876249
v 9.342652 0.014684 4.285472
v 9.604353 0.014684 4.285472
v 9.342652 0.014684 -4.876249
v 9.604353 0.014684 -4.876249
v 6.101252 0.014684 -5.222904
v 9.342652 0.014684 -5.222904
v 9.604353 0.014684 -5.222904
v 5.839550 0.014684 4.632106
v 6.101251 0.014684 4.632106
v 9.342652 0.014684 4.632106
v 9.604353 0.014684 4.632106
v 5.839550 0.014684 -5.222904
vn -0.0000 -0.0000 1.0000
vn 1.0000 -0.0000 -0.0000
vn -1.0000 -0.0000 -0.0000
vn -0.0000 -0.0000 -1.0000
vn -0.0000 1.0000 -0.0000
vn -0.0000 0.1951 0.9808
vn -0.0000 -1.0000 -0.0000
vn 0.1915 0.9626 0.1915
vn 0.1782 0.8182 0.5467
vn 0.5467 0.8182 0.1782
vn 0.5127 0.7165 0.4731
vn 0.1915 0.1915 0.9626
vn 0.5467 0.1782 0.8182
vn 0.1782 0.5467 0.8182
vn 0.4731 0.5127 0.7164
vn 0.9626 0.1915 0.1915
vn 0.8182 0.5467 0.1782
vn 0.8182 0.1782 0.5467
vn 0.7165 0.4731 0.5127
vn 0.1915 0.9626 -0.1915
vn 0.5467 0.8182 -0.1782
vn 0.1782 0.8182 -0.5467
vn 0.4731 0.7165 -0.5127
vn 0.9626 0.1915 -0.1915
vn 0.8182 0.1782 -0.5467
vn 0.8182 0.5467 -0.1782
vn 0.7165 0.5127 -0.4731
vn 0.1915 0.1915 -0.9626
vn 0.1782 0.5467 -0.8182
vn 0.5467 0.1782 -0.8182
vn 0.5127 0.4731 -0.7164
vn -0.9626 0.1915 0.1915
vn -0.8182 0.1782 0.5467
vn -0.8182 0.5467 0.1782
vn -0.7164 0.5127 0.4731
vn -0.1915 0.1915 0.9626
vn -0.1782 0.5467 0.8182
vn -0.5467 0.1782 0.8182
vn -0.5127 0.4731 0.7164
vn -0.1915 0.9626 0.1915
vn -0.5467 0.8182 0.1782
vn -0.1782 0.8182 0.5467
vn -0.4731 0.7164 0.5127
vn -0.9626 0.1915 -0.1915
vn -0.8182 0.5467 -0.1782
vn -0.8182 0.1782 -0.5467
vn -0.7164 0.4731 -0.5127
vn -0.1915 0.9626 -0.1915
vn -0.1782 0.8182 -0.5467
vn -0.5467 0.8182 -0.1782
vn -0.5127 0.7165 -0.4731
vn -0.1915 0.1915 -0.9626
vn -0.5467 0.1782 -0.8182
vn -0.1782 0.5467 -0.8182
vn -0.4731 0.5127 -0.7164
vn 0.4731 0.7164 -0.5127
vn -0.1951 -0.0000 0.9808
vn -0.5556 -0.0000 0.8315
vn -0.8315 -0.0000 0.5556
vn -0.9808 -0.0000 0.1951
vn -0.1951 -0.0000 -0.9808
vn -0.5556 -0.0000 -0.8315
vn -0.8315 -0.0000 -0.5556
vn -0.9808 -0.0000 -0.1951
vn -0.0000 0.9808 -0.1951
vn -0.0000 0.8315 -0.5556
vn -0.0000 0.5556 -0.8315
vn -0.0000 0.1951 -0.9808
vn 0.9808 -0.0000 -0.1951
vn 0.8315 -0.0000 -0.5556
vn 0.5556 -0.0000 -0.8315
vn 0.1951 -0.0000 -0.9808
vn 0.1951 0.9808 -0.0000
vn 0.5556 0.8315 -0.0000
vn 0.8315 0.5556 -0.0000
vn 0.9808 0.1951 -0.0000
vn 0.1951 -0.0000 0.9808
vn 0.5556 -0.0000 0.8315
vn 0.8315 -0.0000 0.5556
vn 0.9808 -0.0000 0.1951
vn -0.0000 0.9808 0.1951
vn -0.0000 0.8315 0.5556
vn -0.0000 0.5556 0.8315
vn -0.1951 0.9808 -0.0000
vn -0.5556 0.8315 -0.0000
vn -0.8315 0.5556 -0.0000
vn -0.9808 0.1951 -0.0000
vn -0.7165 0.4731 -0.5127
vn -0.4731 0.7165 0.5127
vn -0.7165 0.5127 0.4731
vn 0.7164 0.5127 -0.4731
vn 0.5127 0.4731 -0.7165
vn 0.4731 0.5127 0.7165
vn -0.4731 0.5127 -0.7165
vn -0.5127 0.4731 0.7165
vn 0.2175 0.9515 0.2175
vn 0.1865 0.8112 0.5542
vn 0.5542 0.8112 0.1865
vn 0.4731 0.7164 0.5127
vn 0.2175 0.2175 0.9515
vn 0.5542 0.1865 0.8112
vn 0.1865 0.5542 0.8112
vn 0.5127 0.4731 0.7164
vn 0.9515 0.2175 0.2175
vn 0.8112 0.5542 0.1865
vn 0.8112 0.1865 0.5542
vn 0.7164 0.5127 0.4731
vn 0.2175 0.9515 -0.2175
vn 0.5542 0.8112 -0.1865
vn 0.1865 0.8112 -0.5542
vn 0.5127 0.7165 -0.4731
vn 0.9515 0.2175 -0.2175
vn 0.8112 0.1865 -0.5542
vn 0.8112 0.5542 -0.1865
vn 0.7164 0.4731 -0.5127
vn 0.2175 0.2175 -0.9515
vn 0.1865 0.5542 -0.8112
vn 0.5542 0.1865 -0.8112
vn 0.4731 0.5127 -0.7165
vn -0.9515 0.2175 0.2175
vn -0.8112 0.1865 0.5542
vn -0.8112 0.5542 0.1865
vn -0.7165 0.4731 0.5127
vn -0.2175 0.2175 0.9515
vn -0.1865 0.5542 0.8112
vn -0.5542 0.1865 0.8112
vn -0.4731 0.5127 0.7164
vn -0.2175 0.9515 0.2175
vn -0.5542 0.8112 0.1865
vn -0.1865 0.8112 0.5542
vn -0.5127 0.7165 0.4731
vn -0.9515 0.2175 -0.2175
vn -0.8112 0.5542 -0.1865
vn -0.8112 0.1865 -0.5542
vn -0.7165 0.5127 -0.4731
vn -0.2175 0.9515 -0.2175
vn -0.1865 0.8112 -0.5542
vn -0.5542 0.8112 -0.1865
vn -0.4731 0.7165 -0.5127
vn -0.2175 0.2175 -0.9515
vn -0.5542 0.1865 -0.8112
vn -0.1865 0.5542 -0.8112
vn -0.5127 0.4731 -0.7164
vn 0.4731 0.5127 -0.7164
vn 0.7165 0.4731 -0.5127
vn -0.4731 0.7164 -0.5127
vn -0.7164 0.5127 -0.4731
vn -0.7164 0.4731 0.5127
vn -0.4731 0.5127 0.7165
vn 0.5127 0.7164 -0.4731
vn 0.7165 0.5127 0.4731
vn 0.5127 0.4731 0.7165
vn -0.5127 0.4731 -0.7165
vt 0.272217 0.388112
vt 0.257203 0.872957
vt 0.406626 0.880379
vt 0.272217 0.007942
vt 0.263136 0.822318
vt 0.262207 0.813668
vt 0.179641 0.776325
vt 0.176195 0.771720
vt 0.173892 0.764828
vt 0.236850 0.007942
vt 0.377291 0.877599
vt 0.173084 0.756698
vt 0.276958 0.877085
vt 0.236850 0.388112
vt 0.397815 0.827666
vt 0.402090 0.819747
vt 0.407521 0.812657
vt 0.176195 0.403995
vt 0.173892 0.410887
vt 0.173084 0.419017
vt 0.298899 0.881669
vt 0.197571 0.388112
vt 0.348323 0.397593
vt 0.328387 0.882479
vt 0.176326 0.366867
vt 0.304781 0.882491
vt 0.189441 0.386494
vt 0.312451 0.882933
vt 0.182549 0.381889
vt 0.320740 0.882929
vt 0.177944 0.374997
vt 0.298899 0.808757
vt 0.420992 0.391647
vt 0.328387 0.809567
vt 0.304781 0.809579
vt 0.312451 0.810021
vt 0.320740 0.810017
vt 0.344711 0.678913
vt 0.176326 0.029186
vt 0.344711 0.874512
vt 0.347923 0.708237
vt 0.197571 0.007942
vt 0.344886 0.686571
vt 0.177944 0.021057
vt 0.345558 0.694833
vt 0.182549 0.014164
vt 0.346624 0.702441
vt 0.189441 0.009559
vt 0.417380 0.672967
vt 0.344711 0.801600
vt 0.420592 0.702291
vt 0.417555 0.680625
vt 0.418227 0.688887
vt 0.419293 0.696495
vt 0.328828 0.366867
vt 0.792985 0.672260
vt 0.237448 0.868829
vt 0.307583 0.388112
vt 0.796197 0.701584
vt 0.327211 0.374997
vt 0.793160 0.679918
vt 0.322605 0.381889
vt 0.793832 0.688180
vt 0.315713 0.386494
vt 0.794898 0.695788
vt 0.137717 0.756698
vt 0.847903 0.697354
vt 0.237448 0.816951
vt 0.844691 0.668029
vt 0.137717 0.764828
vt 0.862792 0.690957
vt 0.137717 0.771720
vt 0.129587 0.756698
vt 0.129384 0.765031
vt 0.864133 0.680610
vt 0.129807 0.770639
vt 0.860457 0.685815
vt 0.858116 0.682171
vt 0.846604 0.691557
vt 0.845537 0.683949
vt 0.238789 0.808774
vt 0.855942 0.695350
vt 0.137717 0.776325
vt 0.854815 0.689147
vt 0.853530 0.683002
vt 0.852975 0.668258
vt 0.122695 0.756698
vt 0.860521 0.670222
vt 0.844866 0.675687
vt 0.853403 0.676252
vt 0.123775 0.764608
vt 0.859546 0.677491
vt 0.307583 0.007942
vt 0.435960 0.883159
vt 0.796597 0.390940
vt 0.328828 0.029186
vt 0.465449 0.882349
vt 0.315713 0.009559
vt 0.443607 0.883609
vt 0.322605 0.014164
vt 0.451896 0.883613
vt 0.327211 0.021057
vt 0.459566 0.883171
vt 0.137717 0.419017
vt 0.465449 0.830470
vt 0.848303 0.386710
vt 0.435960 0.831280
vt 0.129587 0.419017
vt 0.864133 0.388902
vt 0.460287 0.815109
vt 0.122695 0.419017
vt 0.137717 0.410887
vt 0.129384 0.410684
vt 0.450084 0.812928
vt 0.123775 0.411107
vt 0.454972 0.817017
vt 0.451149 0.819053
vt 0.459566 0.831292
vt 0.451896 0.831735
vt 0.464107 0.822294
vt 0.856587 0.386938
vt 0.457833 0.822912
vt 0.451603 0.823691
vt 0.436863 0.823042
vt 0.137717 0.403995
vt 0.439436 0.815681
vt 0.443607 0.831730
vt 0.444866 0.823268
vt 0.129807 0.405076
vt 0.446601 0.817246
vt 0.359670 0.824051
vt 0.777102 0.699799
vt 0.389158 0.802208
vt 0.208450 0.419017
vt 0.367316 0.816452
vt 0.214672 0.403995
vt 0.375606 0.809633
vt 0.383276 0.804631
vt 0.210067 0.410887
vt 0.208450 0.756698
vt 0.761509 0.418888
vt 0.777102 0.386710
vt 0.288825 0.827686
vt 0.210067 0.764828
vt 0.762395 0.411021
vt 0.214672 0.771720
vt 0.765670 0.402143
vt 0.221565 0.776325
vt 0.285625 0.818560
vt 0.770834 0.393606
vt 0.481336 0.386710
vt 0.328387 0.749022
vt 0.298899 0.748212
vt 0.913073 0.739412
vt 0.320740 0.749472
vt 0.312451 0.749476
vt 0.327484 0.740784
vt 0.489620 0.386938
vt 0.319481 0.741009
vt 0.312744 0.741433
vt 0.313198 0.736794
vt 0.913073 0.759040
vt 0.300240 0.740036
vt 0.304060 0.732850
vt 0.913073 0.754435
vt 0.304781 0.749034
vt 0.306514 0.740654
vt 0.309375 0.734758
vt 0.920984 0.753354
vt 0.921203 0.739412
vt 0.497166 0.388902
vt 0.324911 0.733423
vt 0.928096 0.739412
vt 0.913073 0.747542
vt 0.921407 0.747746
vt 0.314262 0.730670
vt 0.927015 0.747323
vt 0.317746 0.734988
vt 0.477724 0.668030
vt 0.913073 0.401732
vt 0.480935 0.697354
vt 0.344711 0.741055
vt 0.486008 0.668258
vt 0.928096 0.401732
vt 0.493554 0.670222
vt 0.477898 0.675688
vt 0.486436 0.676252
vt 0.492578 0.677490
vt 0.927015 0.393821
vt 0.491149 0.682171
vt 0.913073 0.393602
vt 0.348187 0.725456
vt 0.495825 0.690957
vt 0.913073 0.386710
vt 0.921203 0.401732
vt 0.921407 0.393398
vt 0.497166 0.680610
vt 0.920984 0.387790
vt 0.493490 0.685815
vt 0.479637 0.691558
vt 0.478570 0.683949
vt 0.488975 0.695350
vt 0.345614 0.732817
vt 0.487848 0.689147
vt 0.486563 0.683002
vt 0.288825 0.746107
vt 0.696438 0.398895
vt 0.701643 0.427931
vt 0.895039 0.739412
vt 0.698130 0.404589
vt 0.699713 0.412106
vt 0.290166 0.737931
vt 0.688554 0.401442
vt 0.895039 0.759040
vt 0.690102 0.407554
vt 0.691803 0.413597
vt 0.687284 0.414739
vt 0.693363 0.428269
vt 0.880017 0.739412
vt 0.685700 0.426825
vt 0.700947 0.420303
vt 0.692391 0.420322
vt 0.686178 0.419506
vt 0.881097 0.747323
vt 0.895039 0.747542
vt 0.682020 0.406293
vt 0.895039 0.754435
vt 0.886909 0.739412
vt 0.886705 0.747746
vt 0.681388 0.416707
vt 0.887128 0.753354
vt 0.684700 0.411263
vt 0.359670 0.742472
vt 0.895039 0.401732
vt 0.389158 0.741663
vt 0.717236 0.708842
vt 0.360573 0.734235
vt 0.895039 0.386710
vt 0.363145 0.726873
vt 0.367316 0.742923
vt 0.368576 0.734460
vt 0.370311 0.728439
vt 0.887128 0.387790
vt 0.374859 0.730245
vt 0.886909 0.401732
vt 0.701293 0.707735
vt 0.383997 0.726301
vt 0.880017 0.401732
vt 0.895039 0.393602
vt 0.886705 0.393398
vt 0.373794 0.724121
vt 0.881097 0.393821
vt 0.378682 0.728209
vt 0.383276 0.742485
vt 0.375606 0.742927
vt 0.387817 0.733486
vt 0.708955 0.709179
vt 0.381543 0.734104
vt 0.375313 0.734884
vt 0.064552 0.007942
vt 0.510666 0.870062
vt 0.723084 0.882669
vt 0.064553 0.388112
vt 0.519477 0.819018
vt 0.517009 0.810461
vt 0.516723 0.802829
vt 0.053311 0.403995
vt 0.055614 0.410887
vt 0.099919 0.388112
vt 0.703329 0.878541
vt 0.056423 0.419017
vt 0.540001 0.872842
vt 0.099919 0.007942
vt 0.717151 0.829551
vt 0.720762 0.821849
vt 0.049866 0.776325
vt 0.053311 0.771720
vt 0.055614 0.764828
vt 0.056423 0.756698
vt 0.572581 0.875929
vt 0.139198 0.007942
vt 0.516662 0.397593
vt 0.602069 0.875119
vt 0.160443 0.029186
vt 0.580228 0.876379
vt 0.147328 0.009559
vt 0.588517 0.876384
vt 0.154221 0.014164
vt 0.596187 0.875941
vt 0.158826 0.021057
vt 0.572581 0.803017
vt 0.589331 0.391647
vt 0.602069 0.802207
vt 0.580228 0.803468
vt 0.588517 0.803472
vt 0.596187 0.803029
vt 0.513050 0.678913
vt 0.160443 0.366867
vt 0.681388 0.873957
vt 0.516261 0.708237
vt 0.139198 0.388112
vt 0.513224 0.686571
vt 0.158826 0.374997
vt 0.513896 0.694833
vt 0.154221 0.381889
vt 0.514963 0.702441
vt 0.147328 0.386494
vt 0.585719 0.672967
vt 0.681388 0.801045
vt 0.588930 0.702291
vt 0.585894 0.680625
vt 0.586565 0.688887
vt 0.587632 0.696495
vt 0.007941 0.029186
vt 0.870381 0.293492
vt 0.481332 0.867282
vt 0.029186 0.007942
vt 0.873593 0.322816
vt 0.009559 0.021057
vt 0.870556 0.301150
vt 0.014164 0.014164
vt 0.871228 0.309412
vt 0.021056 0.009559
vt 0.872294 0.317020
vt 0.091789 0.419017
vt 0.925299 0.318586
vt 0.481332 0.815404
vt 0.922087 0.289262
vt 0.091789 0.410887
vt 0.484807 0.799805
vt 0.940189 0.312189
vt 0.091789 0.403995
vt 0.099919 0.419017
vt 0.100122 0.410684
vt 0.941530 0.301842
vt 0.099700 0.405076
vt 0.937854 0.307047
vt 0.935512 0.303403
vt 0.924000 0.312790
vt 0.922934 0.305182
vt 0.933338 0.316582
vt 0.482235 0.807166
vt 0.932211 0.310379
vt 0.930926 0.304234
vt 0.930371 0.289490
vt 0.106812 0.419017
vt 0.937918 0.291454
vt 0.922262 0.296919
vt 0.930799 0.297484
vt 0.105731 0.411107
vt 0.936942 0.298723
vt 0.029186 0.388112
vt 0.742839 0.886797
vt 0.873993 0.012172
vt 0.007941 0.366867
vt 0.772327 0.887607
vt 0.021056 0.386494
vt 0.748722 0.887619
vt 0.014164 0.381889
vt 0.756392 0.888061
vt 0.009559 0.374997
vt 0.764681 0.888057
vt 0.091789 0.756698
vt 0.772327 0.835728
vt 0.925699 0.007942
vt 0.742839 0.834918
vt 0.099919 0.756698
vt 0.106812 0.756698
vt 0.768852 0.820129
vt 0.941530 0.010134
vt 0.091789 0.764828
vt 0.100122 0.765031
vt 0.758204 0.817376
vt 0.105731 0.764608
vt 0.761686 0.821694
vt 0.757138 0.823501
vt 0.764681 0.836178
vt 0.756392 0.836183
vt 0.933983 0.008170
vt 0.771424 0.827490
vt 0.763422 0.827715
vt 0.756684 0.828139
vt 0.091789 0.776325
vt 0.744181 0.826742
vt 0.748000 0.819556
vt 0.091789 0.771720
vt 0.748722 0.835740
vt 0.750455 0.827360
vt 0.099700 0.770639
vt 0.753315 0.821465
vt 0.691463 0.824183
vt 0.749449 0.321031
vt 0.720950 0.803960
vt 0.021056 0.756698
vt 0.007941 0.776325
vt 0.697345 0.816956
vt 0.705014 0.810575
vt 0.014834 0.771720
vt 0.713304 0.806011
vt 0.019440 0.764828
vt 0.021056 0.419017
vt 0.733857 0.040120
vt 0.749449 0.007941
vt 0.557622 0.822633
vt 0.019440 0.410887
vt 0.734743 0.032252
vt 0.014834 0.403995
vt 0.548638 0.805853
vt 0.738018 0.023375
vt 0.551782 0.813756
vt 0.743182 0.014838
vt 0.649674 0.386709
vt 0.602069 0.741663
vt 0.572581 0.742472
vt 0.977036 0.744018
vt 0.596187 0.742484
vt 0.588517 0.742927
vt 0.600728 0.733486
vt 0.657958 0.386938
vt 0.594454 0.734104
vt 0.588224 0.734884
vt 0.587770 0.730245
vt 0.573484 0.734234
vt 0.977036 0.759040
vt 0.576056 0.726873
vt 0.580228 0.742923
vt 0.581487 0.734460
vt 0.583222 0.728438
vt 0.984947 0.757959
vt 0.985167 0.744018
vt 0.665504 0.388902
vt 0.596908 0.726300
vt 0.992059 0.744018
vt 0.977036 0.752148
vt 0.985371 0.752351
vt 0.586705 0.724120
vt 0.990978 0.751928
vt 0.591593 0.728209
vt 0.646062 0.668030
vt 0.977036 0.406337
vt 0.681388 0.740500
vt 0.649274 0.697353
vt 0.654346 0.668258
vt 0.992059 0.406337
vt 0.661893 0.670221
vt 0.646237 0.675688
vt 0.654774 0.676252
vt 0.660917 0.677490
vt 0.990978 0.398427
vt 0.659487 0.682171
vt 0.977036 0.398207
vt 0.664164 0.690957
vt 0.977036 0.391315
vt 0.985167 0.406337
vt 0.985371 0.398004
vt 0.665505 0.680610
vt 0.984947 0.392395
vt 0.661829 0.685815
vt 0.647975 0.691558
vt 0.646909 0.683949
vt 0.657313 0.695350
vt 0.977036 0.386710
vt 0.656186 0.689147
vt 0.654901 0.683002
vt 0.557622 0.741055
vt 0.668786 0.020126
vt 0.673991 0.049164
vt 0.959002 0.744018
vt 0.670477 0.025821
vt 0.672060 0.033339
vt 0.660902 0.022675
vt 0.558526 0.732817
vt 0.662450 0.028786
vt 0.664151 0.034829
vt 0.659632 0.035971
vt 0.665711 0.049500
vt 0.943979 0.744018
vt 0.658048 0.048057
vt 0.673295 0.041535
vt 0.664739 0.041554
vt 0.658525 0.040738
vt 0.945060 0.751928
vt 0.959002 0.752148
vt 0.561098 0.725456
vt 0.654367 0.027525
vt 0.959002 0.759040
vt 0.950872 0.744018
vt 0.950668 0.752351
vt 0.653736 0.037939
vt 0.951091 0.757959
vt 0.657048 0.032495
vt 0.652193 0.707222
vt 0.691463 0.742605
vt 0.959002 0.406337
vt 0.720950 0.743415
vt 0.689583 0.330074
vt 0.692803 0.734429
vt 0.959002 0.386710
vt 0.660233 0.705218
vt 0.696623 0.727243
vt 0.959002 0.391315
vt 0.697345 0.743427
vt 0.699078 0.735046
vt 0.701939 0.729151
vt 0.951091 0.392395
vt 0.705761 0.731187
vt 0.950872 0.406337
vt 0.673640 0.328967
vt 0.717475 0.727816
vt 0.943979 0.406337
vt 0.959002 0.398207
vt 0.950668 0.398004
vt 0.706826 0.725063
vt 0.945060 0.398427
vt 0.710310 0.729381
vt 0.713304 0.743865
vt 0.705014 0.743869
vt 0.720047 0.735177
vt 0.681303 0.330411
vt 0.712045 0.735402
vt 0.705307 0.735826
vt 0.112990 0.881773
vt 0.483339 0.370826
vt 0.854498 0.007942
vt 0.854498 0.310284
vt 0.483339 0.007942
vt 0.097107 0.792208
vt 0.326613 0.706337
vt 0.344710 0.370826
vt 0.190426 0.897953
vt 0.344710 0.007942
vt 0.097107 0.907709
vt 0.326613 0.403995
vt 0.206309 0.871760
vt 0.655011 0.804675
vt 0.628216 0.020706
vt 0.819456 0.797019
vt 0.508860 0.020706
vt 0.853920 0.797776
vt 0.185043 0.886815
vt 0.508860 0.007942
vt 0.830043 0.798022
vt 0.087138 0.801182
vt 0.628216 0.370826
vt 0.803573 0.798022
vt 0.097107 0.800237
vt 0.473703 0.007942
vt 0.354347 0.007942
vt 0.097107 0.899680
vt 0.185043 0.896828
vt 0.354347 0.370826
vt 0.118373 0.882898
vt 0.473703 0.370826
vt 0.112990 0.871760
vt 0.844529 0.008886
vt 0.644424 0.803671
vt 0.628216 0.007942
vt 0.118373 0.872884
vt 0.316644 0.707282
vt 0.190426 0.887939
vt 0.845926 0.797019
vt 0.499223 0.020706
vt 0.316644 0.696648
vt 0.854498 0.018576
vt 0.483339 0.358062
vt 0.854498 0.299649
vt 0.483339 0.020706
vt 0.326613 0.414630
vt 0.344710 0.020706
vt 0.344710 0.358062
vt 0.326613 0.695704
vt 0.087138 0.908654
vt 0.316644 0.404940
vt 0.617952 0.803671
vt 0.508860 0.370826
vt 0.087138 0.900625
vt 0.844529 0.311229
vt 0.087138 0.793153
vt 0.880017 0.854474
vt 0.637852 0.358062
vt 0.844529 0.300594
vt 0.354347 0.020706
vt 0.354347 0.358062
vt 0.473703 0.020706
vt 0.473703 0.358062
vt 0.792985 0.797019
vt 0.628216 0.358062
vt 0.885399 0.855599
vt 0.845926 0.893211
vt 0.628540 0.804675
vt 0.508860 0.358062
vt 0.499223 0.358062
vt 0.316644 0.415575
vt 0.851309 0.894335
vt 0.637852 0.020706
vt 0.844529 0.019521
vt 0.214302 0.872517
vt 0.765333 0.027025
vt 0.730295 0.346295
vt 0.214302 0.792966
vt 0.739932 0.346295
vt 0.655011 0.725124
vt 0.206309 0.792208
vt 0.653736 0.359059
vt 0.880017 0.774923
vt 0.765333 0.308098
vt 0.663372 0.359059
vt 0.792985 0.717468
vt 0.885400 0.776048
vt 0.704775 0.346295
vt 0.819456 0.717468
vt 0.853920 0.718225
vt 0.714412 0.346295
vt 0.237448 0.704152
vt 0.845926 0.717468
vt 0.628540 0.725124
vt 0.679255 0.359059
vt 0.845926 0.813660
vt 0.688892 0.359059
vt 0.237448 0.423079
vt 0.851309 0.814784
vt 0.663372 0.346295
vt 0.007942 0.808687
vt 0.803573 0.718471
vt 0.617952 0.724120
vt 0.679255 0.346295
vt 0.007942 0.908130
vt 0.688892 0.346295
vt 0.237448 0.412444
vt 0.007942 0.916158
vt 0.765333 0.016391
vt 0.730295 0.359059
vt 0.112990 0.792208
vt 0.644424 0.724120
vt 0.739932 0.359059
vt 0.118373 0.793333
vt 0.185043 0.807264
vt 0.704775 0.359059
vt 0.830043 0.718471
vt 0.190426 0.808388
vt 0.714412 0.359059
vt 0.237448 0.714787
vt 0.653736 0.346295
vt 0.007942 0.800658
vt 0.765333 0.318733
s 0
f 89/143/1 15/21/1 9/13/1
f 84/132/2 132/208/2 88/141/2
f 3/5/1 9/13/1 1/2/1
f 21/33/3 112/179/3 30/49/3
f 65/106/2 35/56/2 60/95/2
f 20/32/1 131/206/1 94/153/1
f 2/3/4 66/107/4 59/94/4
f 21/33/3 25/38/3 16/23/3
f 84/134/5 8/12/5 14/20/5
f 31/50/4 150/233/4 83/131/4
f 4/6/6 41/68/6 51/81/6
f 62/100/7 37/60/7 1/1/7
f 26/40/4 83/131/4 7/11/4
f 113/180/5 133/209/5 151/234/5
f 43/70/8 45/73/8 40/66/8
f 44/72/9 46/74/9 43/70/9
f 46/74/10 55/87/10 45/73/10
f 46/75/11 48/78/11 58/92/11
f 49/79/12 51/82/12 41/67/12
f 50/80/13 52/84/13 49/79/13
f 52/84/14 44/71/14 51/82/14
f 52/84/15 48/78/15 47/77/15
f 54/86/16 56/89/16 42/69/16
f 55/88/17 57/90/17 54/86/17
f 57/90/18 50/80/18 56/89/18
f 57/90/19 48/78/19 53/85/19
f 67/108/20 69/112/20 64/104/20
f 68/111/21 70/113/21 67/108/21
f 70/113/22 79/125/22 69/112/22
f 70/114/23 72/117/23 82/130/23
f 73/118/24 75/120/24 65/105/24
f 74/119/25 76/122/25 73/118/25
f 76/122/26 68/110/26 75/120/26
f 76/122/27 72/117/27 71/116/27
f 78/124/28 80/127/28 66/107/28
f 79/126/29 81/128/29 78/124/29
f 81/128/30 74/119/30 80/127/30
f 81/128/31 72/117/31 77/123/31
f 96/155/32 98/157/32 93/152/32
f 97/156/33 99/159/33 96/155/33
f 99/159/34 108/172/34 98/157/34
f 99/159/35 101/161/35 111/178/35
f 102/163/36 104/166/36 94/153/36
f 103/164/37 105/167/37 102/163/37
f 105/167/38 97/156/38 104/166/38
f 105/167/39 101/161/39 100/160/39
f 107/170/40 109/174/40 95/154/40
f 108/173/41 110/175/41 107/170/41
f 110/175/42 103/165/42 109/174/42
f 110/176/43 101/161/43 106/168/43
f 115/183/44 117/186/44 112/179/44
f 116/185/45 118/187/45 115/183/45
f 118/187/46 127/201/46 117/186/46
f 118/187/47 120/190/47 130/205/47
f 121/191/48 123/195/48 113/180/48
f 122/194/49 124/196/49 121/191/49
f 124/196/50 116/184/50 123/195/50
f 124/197/51 120/190/51 119/188/51
f 126/200/52 128/202/52 114/181/52
f 127/201/53 129/204/53 126/200/53
f 129/204/54 122/193/54 128/202/54
f 129/204/55 120/190/55 125/199/55
f 134/210/12 136/213/12 131/207/12
f 135/211/13 137/215/13 134/210/13
f 137/215/14 146/226/14 136/213/14
f 137/215/15 139/217/15 149/232/15
f 140/218/16 142/221/16 132/208/16
f 141/220/17 143/222/17 140/218/17
f 143/222/18 135/211/18 142/221/18
f 143/222/19 139/217/19 138/216/19
f 145/225/8 147/228/8 133/209/8
f 146/227/9 148/229/9 145/225/9
f 148/229/10 141/219/10 147/228/10
f 148/230/11 139/217/11 144/223/11
f 153/237/28 155/240/28 150/233/28
f 154/239/29 156/241/29 153/237/29
f 156/241/30 165/255/30 155/240/30
f 156/241/31 158/244/31 168/259/31
f 159/245/20 161/249/20 151/234/20
f 160/248/21 162/250/21 159/245/21
f 162/250/22 154/238/22 161/249/22
f 162/251/56 158/244/56 157/242/56
f 164/254/24 166/256/24 152/235/24
f 165/255/25 167/258/25 164/254/25
f 167/258/26 160/247/26 166/256/26
f 167/258/27 158/244/27 163/253/27
f 20/32/57 17/26/57 15/21/57
f 22/35/58 18/28/58 17/26/58
f 23/36/59 19/30/59 18/28/59
f 24/37/60 16/24/60 19/30/60
f 26/41/61 34/54/61 31/51/61
f 29/47/62 33/53/62 34/54/62
f 28/45/63 32/52/63 33/53/63
f 27/43/64 30/49/64 32/52/64
f 14/20/65 69/112/65 13/19/65
f 13/19/66 79/125/66 12/18/66
f 12/17/67 78/124/67 11/16/67
f 11/16/68 66/107/68 10/15/68
f 60/97/69 73/118/69 65/105/69
f 63/103/70 74/119/70 73/118/70
f 62/101/71 80/127/71 74/119/71
f 61/99/72 66/107/72 80/127/72
f 40/66/73 67/108/73 64/104/73
f 45/73/74 68/111/74 67/108/74
f 55/88/75 75/121/75 68/109/75
f 54/86/76 65/106/76 75/121/76
f 36/59/77 49/79/77 41/67/77
f 39/65/78 50/80/78 49/79/78
f 38/63/79 56/89/79 50/80/79
f 37/61/80 42/69/80 56/89/80
f 88/140/81 6/9/81 8/12/81
f 90/144/82 5/8/82 6/9/82
f 91/146/83 4/7/83 5/8/83
f 92/149/6 3/5/6 4/6/6
f 113/180/84 107/170/84 95/154/84
f 123/195/85 108/173/85 107/170/85
f 116/185/86 98/158/86 108/171/86
f 115/183/87 93/151/87 98/158/87
f 95/154/81 145/225/81 133/209/81
f 109/174/82 146/227/82 145/225/82
f 103/165/83 136/214/83 146/227/83
f 102/163/6 131/206/6 136/212/6
f 151/234/65 121/191/65 113/180/65
f 161/249/66 122/194/66 121/191/66
f 154/239/67 128/203/67 122/192/67
f 153/237/68 114/182/68 128/203/68
f 133/209/73 159/245/73 151/234/73
f 147/228/74 160/248/74 159/245/74
f 141/220/75 166/257/75 160/246/75
f 140/218/76 152/236/76 166/257/76
f 94/153/57 22/35/57 20/32/57
f 22/35/58 97/156/58 23/36/58
f 97/156/59 24/37/59 23/36/59
f 96/155/60 21/34/60 24/37/60
f 31/51/61 126/200/61 114/181/61
f 34/54/62 127/201/62 126/200/62
f 33/53/63 117/186/63 127/201/63
f 32/52/64 112/179/64 117/186/64
f 84/133/69 164/254/69 152/235/69
f 87/138/70 165/255/70 164/254/70
f 86/137/71 155/240/71 165/255/71
f 85/135/72 150/233/72 155/240/72
f 88/141/80 142/221/80 90/145/80
f 90/145/79 135/211/79 91/147/79
f 91/147/78 134/210/78 92/150/78
f 92/150/77 131/207/77 89/142/77
f 29/48/7 15/22/7 16/25/7
f 5/8/83 51/83/83 44/72/83
f 6/9/82 44/72/82 43/70/82
f 8/12/81 43/70/81 40/66/81
f 85/135/68 10/15/68 83/131/68
f 86/137/67 11/16/67 85/135/67
f 87/139/66 12/18/66 86/136/66
f 84/134/65 13/19/65 87/139/65
f 2/4/7 9/14/7 7/10/7
f 14/20/5 40/66/5 64/104/5
f 7/11/4 10/15/4 2/3/4
f 41/68/1 1/2/1 36/57/1
f 257/404/4 183/280/4 177/272/4
f 252/392/3 300/467/3 256/402/3
f 171/264/4 177/272/4 169/261/4
f 189/292/2 280/439/2 198/308/2
f 233/365/3 203/315/3 228/354/3
f 188/291/4 299/465/4 262/414/4
f 170/262/1 234/366/1 227/353/1
f 189/292/2 193/297/2 184/282/2
f 252/394/5 176/271/5 182/279/5
f 199/309/1 318/493/1 251/391/1
f 172/265/68 209/327/68 219/342/68
f 230/359/7 205/319/7 169/260/7
f 194/299/1 251/391/1 175/270/1
f 281/440/5 301/468/5 319/494/5
f 211/329/48 213/333/48 208/325/48
f 212/332/49 214/334/49 211/329/49
f 214/334/50 223/346/50 213/333/50
f 214/335/51 216/338/51 226/351/51
f 217/339/52 219/341/52 209/326/52
f 218/340/53 220/343/53 217/339/53
f 220/343/54 212/331/54 219/341/54
f 220/343/55 216/338/55 215/337/55
f 222/345/44 224/348/44 210/328/44
f 223/347/45 225/349/45 222/345/45
f 225/349/46 218/340/46 224/348/46
f 225/349/88 216/338/88 221/344/88
f 235/367/40 237/371/40 232/363/40
f 236/368/41 238/372/41 235/367/41
f 238/372/42 247/386/42 237/371/42
f 238/373/89 240/376/89 250/390/89
f 241/377/32 243/380/32 233/364/32
f 242/378/33 244/381/33 241/377/33
f 244/381/34 236/369/34 243/380/34
f 244/381/90 240/376/90 239/375/90
f 246/384/36 248/387/36 234/366/36
f 247/385/37 249/388/37 246/384/37
f 249/388/38 242/378/38 248/387/38
f 249/388/39 240/376/39 245/382/39
f 264/416/24 266/418/24 261/413/24
f 265/417/25 267/420/25 264/416/25
f 267/420/26 276/432/26 266/418/26
f 267/420/91 269/422/91 279/438/91
f 270/423/28 272/426/28 262/414/28
f 271/425/29 273/427/29 270/423/29
f 273/427/30 265/417/30 272/426/30
f 273/427/92 269/422/92 268/421/92
f 275/430/20 277/434/20 263/415/20
f 276/433/21 278/435/21 275/430/21
f 278/435/22 271/424/22 277/434/22
f 278/436/56 269/422/56 274/428/56
f 283/443/16 285/446/16 280/439/16
f 284/445/17 286/447/17 283/443/17
f 286/447/18 295/460/18 285/446/18
f 286/447/19 288/450/19 298/464/19
f 289/451/8 291/454/8 281/440/8
f 290/453/9 292/455/9 289/451/9
f 292/455/10 284/444/10 291/454/10
f 292/456/11 288/450/11 287/448/11
f 294/459/12 296/461/12 282/442/12
f 295/460/13 297/463/13 294/459/13
f 297/463/14 290/452/14 296/461/14
f 297/463/93 288/450/93 293/458/93
f 302/469/52 304/471/52 299/466/52
f 303/470/53 305/473/53 302/469/53
f 305/473/54 314/485/54 304/471/54
f 305/473/94 307/475/94 317/491/94
f 308/476/44 310/479/44 300/467/44
f 309/478/45 311/480/45 308/476/45
f 311/480/46 303/470/46 310/479/46
f 311/480/47 307/475/47 306/474/47
f 313/483/48 315/487/48 301/468/48
f 314/486/49 316/488/49 313/483/49
f 316/488/50 309/477/50 315/487/50
f 316/489/51 307/475/51 312/481/51
f 321/497/36 323/502/36 318/493/36
f 322/500/37 324/503/37 321/497/37
f 324/503/38 333/517/38 323/502/38
f 324/503/95 326/506/95 336/521/95
f 327/507/40 329/511/40 319/494/40
f 328/510/41 330/512/41 327/507/41
f 330/512/42 322/501/42 329/511/42
f 330/513/43 326/506/43 325/504/43
f 332/516/32 334/518/32 320/495/32
f 333/517/33 335/520/33 332/516/33
f 335/520/34 328/509/34 334/518/34
f 335/520/90 326/506/90 331/515/90
f 188/291/72 185/285/72 183/280/72
f 190/294/71 186/287/71 185/285/71
f 191/295/70 187/289/70 186/287/70
f 192/296/69 184/283/69 187/289/69
f 194/300/77 202/313/77 199/310/77
f 197/306/78 201/312/78 202/313/78
f 196/304/79 200/311/79 201/312/79
f 195/302/80 198/308/80 200/311/80
f 182/279/81 237/371/81 181/278/81
f 181/278/82 247/386/82 180/277/82
f 180/277/83 246/383/83 179/276/83
f 179/275/6 234/366/6 178/274/6
f 228/356/60 241/377/60 233/364/60
f 231/362/59 242/378/59 241/377/59
f 230/360/58 248/387/58 242/378/58
f 229/358/57 234/366/57 248/387/57
f 232/363/84 213/333/84 235/367/84
f 235/367/85 223/346/85 236/368/85
f 236/370/86 222/345/86 243/379/86
f 222/345/87 233/365/87 243/379/87
f 204/318/61 217/339/61 209/326/61
f 207/324/62 218/340/62 217/339/62
f 206/322/63 224/348/63 218/340/63
f 205/320/64 210/328/64 224/348/64
f 256/401/65 174/268/65 176/271/65
f 258/405/66 173/267/66 174/268/66
f 259/408/67 172/265/67 173/266/67
f 260/410/68 171/264/68 172/265/68
f 281/440/73 275/430/73 263/415/73
f 291/454/74 276/433/74 275/430/74
f 284/445/75 266/419/75 276/431/75
f 266/419/76 280/439/76 261/412/76
f 301/468/65 277/434/65 313/483/65
f 277/434/66 314/486/66 313/483/66
f 271/425/67 304/472/67 314/484/67
f 270/423/68 299/465/68 304/472/68
f 281/440/81 329/511/81 289/451/81
f 329/511/82 290/453/82 289/451/82
f 322/501/83 296/462/83 290/453/83
f 321/499/6 282/442/6 296/461/6
f 301/468/84 327/507/84 319/494/84
f 315/487/85 328/510/85 327/507/85
f 309/478/86 334/519/86 328/508/86
f 308/476/87 320/496/87 334/519/87
f 262/414/72 190/294/72 188/291/72
f 272/426/71 191/295/71 190/294/71
f 191/295/70 264/416/70 192/296/70
f 264/416/69 189/293/69 192/296/69
f 199/310/77 294/459/77 282/442/77
f 202/313/78 295/460/78 294/459/78
f 295/460/79 200/311/79 285/446/79
f 200/311/80 280/439/80 285/446/80
f 252/393/60 332/516/60 320/495/60
f 255/399/59 333/517/59 332/516/59
f 254/397/58 323/502/58 333/517/58
f 253/396/57 318/493/57 323/502/57
f 256/402/64 310/479/64 258/406/64
f 258/406/63 303/470/63 259/409/63
f 259/409/62 302/469/62 260/411/62
f 260/411/61 299/466/61 257/403/61
f 197/307/7 183/281/7 184/284/7
f 173/266/67 219/342/67 212/330/67
f 174/268/66 212/332/66 211/329/66
f 176/271/65 211/329/65 208/325/65
f 253/396/6 178/274/6 251/391/6
f 254/398/83 179/276/83 253/395/83
f 255/400/82 180/277/82 254/398/82
f 252/394/81 181/278/81 255/400/81
f 170/263/7 177/273/7 175/269/7
f 182/279/5 208/325/5 232/363/5
f 175/270/1 178/274/1 170/262/1
f 209/327/4 169/261/4 204/316/4
f 349/554/1 348/552/1 337/522/1
f 352/563/2 355/568/2 356/571/2
f 350/558/1 347/550/1 348/552/1
f 341/536/7 360/580/7 365/587/7
f 353/565/5 348/553/5 364/585/5
f 362/583/5 339/529/5 356/570/5
f 364/585/5 347/551/5 362/583/5
f 378/625/3 366/590/3 358/574/3
f 352/562/7 366/591/7 367/592/7
f 381/634/2 341/535/2 350/556/2
f 342/538/7 365/587/7 366/591/7
f 360/581/3 353/564/3 354/566/3
f 358/576/4 345/546/4 346/549/4
f 367/593/2 340/533/2 355/568/2
f 345/547/5 361/582/5 346/548/5
f 363/584/5 362/583/5 361/582/5
f 346/548/5 355/569/5 340/531/5
f 361/582/5 356/570/5 355/569/5
f 343/540/1 339/530/1 347/550/1
f 359/577/3 354/566/3 338/525/3
f 368/596/3 337/524/3 353/564/3
f 357/572/4 346/549/4 340/532/4
f 338/526/5 363/584/5 345/547/5
f 354/567/5 364/585/5 363/584/5
f 344/543/4 338/527/4 345/546/4
f 351/559/2 356/571/2 339/528/2
f 366/591/7 344/544/7 358/575/7
f 343/541/7 341/536/7 342/538/7
f 382/637/1 351/560/1 343/540/1
f 369/598/3 349/555/3 368/596/3
f 372/607/7 384/643/7 377/622/7
f 376/619/7 378/626/7 379/628/7
f 383/641/7 373/610/7 374/613/7
f 381/635/7 369/599/7 370/601/7
f 373/611/3 343/542/3 342/537/3
f 377/623/4 359/578/4 344/543/4
f 372/608/2 344/545/2 365/586/2
f 376/620/2 357/573/2 367/593/2
f 380/633/1 350/558/1 349/554/1
f 371/605/1 365/588/1 360/579/1
f 383/642/2 352/563/2 351/559/2
f 374/615/4 342/539/4 352/561/4
f 379/630/4 358/576/4 357/572/4
f 375/618/1 367/594/1 366/589/1
f 384/645/3 360/581/3 359/577/3
f 370/603/4 368/597/4 341/534/4
f 89/143/1 20/32/1 15/21/1
f 84/132/2 152/236/2 132/208/2
f 3/5/1 89/143/1 9/13/1
f 21/33/3 93/151/3 112/179/3
f 65/106/2 42/69/2 35/56/2
f 20/32/1 89/143/1 131/206/1
f 2/3/4 10/15/4 66/107/4
f 21/33/3 30/49/3 25/38/3
f 84/134/5 88/140/5 8/12/5
f 31/50/4 114/182/4 150/233/4
f 4/6/6 3/5/6 41/68/6
f 1/1/7 2/4/7 59/93/7
f 59/93/7 61/98/7 62/100/7
f 62/100/7 63/102/7 60/96/7
f 60/96/7 35/55/7 37/60/7
f 37/60/7 38/62/7 39/64/7
f 39/64/7 36/58/7 1/1/7
f 1/1/7 59/93/7 62/100/7
f 62/100/7 60/96/7 37/60/7
f 37/60/7 39/64/7 1/1/7
f 26/40/4 31/50/4 83/131/4
f 113/180/5 95/154/5 133/209/5
f 43/70/96 46/74/96 45/73/96
f 44/72/97 47/76/97 46/74/97
f 46/74/98 58/91/98 55/87/98
f 46/75/99 47/77/99 48/78/99
f 49/79/100 52/84/100 51/82/100
f 50/80/101 53/85/101 52/84/101
f 52/84/102 47/77/102 44/71/102
f 52/84/103 53/85/103 48/78/103
f 54/86/104 57/90/104 56/89/104
f 55/88/105 58/92/105 57/90/105
f 57/90/106 53/85/106 50/80/106
f 57/90/107 58/92/107 48/78/107
f 67/108/108 70/113/108 69/112/108
f 68/111/109 71/115/109 70/113/109
f 70/113/110 82/129/110 79/125/110
f 70/114/111 71/116/111 72/117/111
f 73/118/112 76/122/112 75/120/112
f 74/119/113 77/123/113 76/122/113
f 76/122/114 71/116/114 68/110/114
f 76/122/115 77/123/115 72/117/115
f 78/124/116 81/128/116 80/127/116
f 79/126/117 82/130/117 81/128/117
f 81/128/118 77/123/118 74/119/118
f 81/128/119 82/130/119 72/117/119
f 96/155/120 99/159/120 98/157/120
f 97/156/121 100/160/121 99/159/121
f 99/159/122 111/178/122 108/172/122
f 99/159/123 100/160/123 101/161/123
f 102/163/124 105/167/124 104/166/124
f 103/164/125 106/168/125 105/167/125
f 105/167/126 100/160/126 97/156/126
f 105/167/127 106/168/127 101/161/127
f 107/170/128 110/175/128 109/174/128
f 108/173/129 111/177/129 110/175/129
f 110/175/130 106/169/130 103/165/130
f 110/176/131 111/178/131 101/161/131
f 115/183/132 118/187/132 117/186/132
f 116/185/133 119/188/133 118/187/133
f 118/187/134 130/205/134 127/201/134
f 118/187/135 119/188/135 120/190/135
f 121/191/136 124/196/136 123/195/136
f 122/194/137 125/198/137 124/196/137
f 124/196/138 119/189/138 116/184/138
f 124/197/139 125/199/139 120/190/139
f 126/200/140 129/204/140 128/202/140
f 127/201/141 130/205/141 129/204/141
f 129/204/142 125/199/142 122/193/142
f 129/204/143 130/205/143 120/190/143
f 134/210/100 137/215/100 136/213/100
f 135/211/101 138/216/101 137/215/101
f 137/215/102 149/232/102 146/226/102
f 137/215/103 138/216/103 139/217/103
f 140/218/104 143/222/104 142/221/104
f 141/220/105 144/223/105 143/222/105
f 143/222/106 138/216/106 135/211/106
f 143/222/107 144/223/107 139/217/107
f 145/225/96 148/229/96 147/228/96
f 146/227/97 149/231/97 148/229/97
f 148/229/98 144/224/98 141/219/98
f 148/230/99 149/232/99 139/217/99
f 153/237/116 156/241/116 155/240/116
f 154/239/117 157/242/117 156/241/117
f 156/241/118 168/259/118 165/255/118
f 156/241/144 157/242/144 158/244/144
f 159/245/108 162/250/108 161/249/108
f 160/248/109 163/252/109 162/250/109
f 162/250/110 157/243/110 154/238/110
f 162/251/111 163/253/111 158/244/111
f 164/254/112 167/258/112 166/256/112
f 165/255/113 168/259/113 167/258/113
f 167/258/114 163/253/114 160/247/114
f 167/258/145 168/259/145 158/244/145
f 20/32/57 22/35/57 17/26/57
f 22/35/58 23/36/58 18/28/58
f 23/36/59 24/37/59 19/30/59
f 24/37/60 21/34/60 16/24/60
f 26/41/61 29/47/61 34/54/61
f 29/47/62 28/45/62 33/53/62
f 28/45/63 27/43/63 32/52/63
f 27/43/64 25/38/64 30/49/64
f 14/20/65 64/104/65 69/112/65
f 13/19/66 69/112/66 79/125/66
f 12/17/67 79/126/67 78/124/67
f 11/16/68 78/124/68 66/107/68
f 60/97/69 63/103/69 73/118/69
f 63/103/70 62/101/70 74/119/70
f 62/101/71 61/99/71 80/127/71
f 61/99/72 59/94/72 66/107/72
f 40/66/73 45/73/73 67/108/73
f 45/73/74 55/87/74 68/111/74
f 55/88/75 54/86/75 75/121/75
f 54/86/76 42/69/76 65/106/76
f 36/59/77 39/65/77 49/79/77
f 39/65/78 38/63/78 50/80/78
f 38/63/79 37/61/79 56/89/79
f 37/61/80 35/56/80 42/69/80
f 88/140/81 90/144/81 6/9/81
f 90/144/82 91/146/82 5/8/82
f 91/146/83 92/148/83 4/7/83
f 92/149/6 89/143/6 3/5/6
f 113/180/84 123/195/84 107/170/84
f 123/195/85 116/184/85 108/173/85
f 116/185/86 115/183/86 98/158/86
f 115/183/87 112/179/87 93/151/87
f 95/154/81 109/174/81 145/225/81
f 109/174/82 103/165/82 146/227/82
f 103/165/83 102/162/83 136/214/83
f 102/163/6 94/153/6 131/206/6
f 151/234/65 161/249/65 121/191/65
f 161/249/66 154/238/66 122/194/66
f 154/239/67 153/237/67 128/203/67
f 153/237/68 150/233/68 114/182/68
f 133/209/73 147/228/73 159/245/73
f 147/228/74 141/219/74 160/248/74
f 141/220/75 140/218/75 166/257/75
f 140/218/76 132/208/76 152/236/76
f 94/153/57 104/166/57 22/35/57
f 22/35/58 104/166/58 97/156/58
f 97/156/59 96/155/59 24/37/59
f 96/155/60 93/152/60 21/34/60
f 31/51/61 34/54/61 126/200/61
f 34/54/62 33/53/62 127/201/62
f 33/53/63 32/52/63 117/186/63
f 32/52/64 30/49/64 112/179/64
f 84/133/69 87/138/69 164/254/69
f 87/138/70 86/137/70 165/255/70
f 86/137/71 85/135/71 155/240/71
f 85/135/72 83/131/72 150/233/72
f 88/141/80 132/208/80 142/221/80
f 90/145/79 142/221/79 135/211/79
f 91/147/78 135/211/78 134/210/78
f 92/150/77 134/210/77 131/207/77
f 16/25/7 25/39/7 27/44/7
f 27/44/7 28/46/7 29/48/7
f 29/48/7 26/42/7 7/10/7
f 7/10/7 9/14/7 15/22/7
f 15/22/7 17/27/7 18/29/7
f 18/29/7 19/31/7 16/25/7
f 16/25/7 27/44/7 29/48/7
f 29/48/7 7/10/7 15/22/7
f 15/22/7 18/29/7 16/25/7
f 5/8/83 4/7/83 51/83/83
f 6/9/82 5/8/82 44/72/82
f 8/12/81 6/9/81 43/70/81
f 85/135/68 11/16/68 10/15/68
f 86/137/67 12/17/67 11/16/67
f 87/139/66 13/19/66 12/18/66
f 84/134/65 14/20/65 13/19/65
f 2/4/7 1/1/7 9/14/7
f 14/20/5 8/12/5 40/66/5
f 7/11/4 83/131/4 10/15/4
f 41/68/1 3/5/1 1/2/1
f 257/404/4 188/291/4 183/280/4
f 252/392/3 320/496/3 300/467/3
f 171/264/4 257/404/4 177/272/4
f 189/292/2 261/412/2 280/439/2
f 233/365/3 210/328/3 203/315/3
f 188/291/4 257/404/4 299/465/4
f 170/262/1 178/274/1 234/366/1
f 189/292/2 198/308/2 193/297/2
f 252/394/5 256/401/5 176/271/5
f 199/309/1 282/441/1 318/493/1
f 172/265/68 171/264/68 209/327/68
f 169/260/7 170/263/7 227/352/7
f 227/352/7 229/357/7 230/359/7
f 230/359/7 231/361/7 228/355/7
f 228/355/7 203/314/7 205/319/7
f 205/319/7 206/321/7 207/323/7
f 207/323/7 204/317/7 169/260/7
f 169/260/7 227/352/7 230/359/7
f 230/359/7 228/355/7 205/319/7
f 205/319/7 207/323/7 169/260/7
f 194/299/1 199/309/1 251/391/1
f 281/440/5 263/415/5 301/468/5
f 211/329/136 214/334/136 213/333/136
f 212/332/137 215/336/137 214/334/137
f 214/334/138 226/350/138 223/346/138
f 214/335/146 215/337/146 216/338/146
f 217/339/140 220/343/140 219/341/140
f 218/340/141 221/344/141 220/343/141
f 220/343/142 215/337/142 212/331/142
f 220/343/143 221/344/143 216/338/143
f 222/345/132 225/349/132 224/348/132
f 223/347/133 226/351/133 225/349/133
f 225/349/134 221/344/134 218/340/134
f 225/349/147 226/351/147 216/338/147
f 235/367/128 238/372/128 237/371/128
f 236/368/129 239/374/129 238/372/129
f 238/372/130 250/389/130 247/386/130
f 238/373/131 239/375/131 240/376/131
f 241/377/120 244/381/120 243/380/120
f 242/378/121 245/382/121 244/381/121
f 244/381/122 239/375/122 236/369/122
f 244/381/148 245/382/148 240/376/148
f 246/384/124 249/388/124 248/387/124
f 247/385/125 250/390/125 249/388/125
f 249/388/126 245/382/126 242/378/126
f 249/388/149 250/390/149 240/376/149
f 264/416/112 267/420/112 266/418/112
f 265/417/113 268/421/113 267/420/113
f 267/420/114 279/438/114 276/432/114
f 267/420/145 268/421/145 269/422/145
f 270/423/116 273/427/116 272/426/116
f 271/425/117 274/428/117 273/427/117
f 273/427/118 268/421/118 265/417/118
f 273/427/144 274/428/144 269/422/144
f 275/430/108 278/435/108 277/434/108
f 276/433/109 279/437/109 278/435/109
f 278/435/110 274/429/110 271/424/110
f 278/436/150 279/438/150 269/422/150
f 283/443/104 286/447/104 285/446/104
f 284/445/105 287/448/105 286/447/105
f 286/447/106 298/464/106 295/460/106
f 286/447/151 287/448/151 288/450/151
f 289/451/96 292/455/96 291/454/96
f 290/453/97 293/457/97 292/455/97
f 292/455/98 287/449/98 284/444/98
f 292/456/99 293/458/99 288/450/99
f 294/459/100 297/463/100 296/461/100
f 295/460/101 298/464/101 297/463/101
f 297/463/102 293/458/102 290/452/102
f 297/463/152 298/464/152 288/450/152
f 302/469/140 305/473/140 304/471/140
f 303/470/141 306/474/141 305/473/141
f 305/473/142 317/491/142 314/485/142
f 305/473/153 306/474/153 307/475/153
f 308/476/132 311/480/132 310/479/132
f 309/478/133 312/481/133 311/480/133
f 311/480/134 306/474/134 303/470/134
f 311/480/135 312/481/135 307/475/135
f 313/483/136 316/488/136 315/487/136
f 314/486/137 317/490/137 316/488/137
f 316/488/138 312/482/138 309/477/138
f 316/489/146 317/491/146 307/475/146
f 321/497/124 324/503/124 323/502/124
f 322/500/125 325/504/125 324/503/125
f 324/503/126 336/521/126 333/517/126
f 324/503/127 325/504/127 326/506/127
f 327/507/128 330/512/128 329/511/128
f 328/510/129 331/514/129 330/512/129
f 330/512/130 325/505/130 322/501/130
f 330/513/131 331/515/131 326/506/131
f 332/516/120 335/520/120 334/518/120
f 333/517/121 336/521/121 335/520/121
f 335/520/122 331/515/122 328/509/122
f 335/520/148 336/521/148 326/506/148
f 188/291/72 190/294/72 185/285/72
f 190/294/71 191/295/71 186/287/71
f 191/295/70 192/296/70 187/289/70
f 192/296/69 189/293/69 184/283/69
f 194/300/77 197/306/77 202/313/77
f 197/306/78 196/304/78 201/312/78
f 196/304/79 195/302/79 200/311/79
f 195/302/80 193/297/80 198/308/80
f 182/279/81 232/363/81 237/371/81
f 181/278/82 237/371/82 247/386/82
f 180/277/83 247/386/83 246/383/83
f 179/275/6 246/384/6 234/366/6
f 228/356/60 231/362/60 241/377/60
f 231/362/59 230/360/59 242/378/59
f 230/360/58 229/358/58 248/387/58
f 229/358/57 227/353/57 234/366/57
f 232/363/84 208/325/84 213/333/84
f 235/367/85 213/333/85 223/346/85
f 236/370/86 223/347/86 222/345/86
f 222/345/87 210/328/87 233/365/87
f 204/318/61 207/324/61 217/339/61
f 207/324/62 206/322/62 218/340/62
f 206/322/63 205/320/63 224/348/63
f 205/320/64 203/315/64 210/328/64
f 256/401/65 258/405/65 174/268/65
f 258/405/66 259/407/66 173/267/66
f 259/408/67 260/410/67 172/265/67
f 260/410/68 257/404/68 171/264/68
f 281/440/73 291/454/73 275/430/73
f 291/454/74 284/444/74 276/433/74
f 284/445/75 283/443/75 266/419/75
f 266/419/76 283/443/76 280/439/76
f 301/468/65 263/415/65 277/434/65
f 277/434/66 271/424/66 314/486/66
f 271/425/67 270/423/67 304/472/67
f 270/423/68 262/414/68 299/465/68
f 281/440/81 319/494/81 329/511/81
f 329/511/82 322/501/82 290/453/82
f 322/501/83 321/498/83 296/462/83
f 321/499/6 318/492/6 282/442/6
f 301/468/84 315/487/84 327/507/84
f 315/487/85 309/477/85 328/510/85
f 309/478/86 308/476/86 334/519/86
f 308/476/87 300/467/87 320/496/87
f 262/414/72 272/426/72 190/294/72
f 272/426/71 265/417/71 191/295/71
f 191/295/70 265/417/70 264/416/70
f 264/416/69 261/413/69 189/293/69
f 199/310/77 202/313/77 294/459/77
f 202/313/78 201/312/78 295/460/78
f 295/460/79 201/312/79 200/311/79
f 200/311/80 198/308/80 280/439/80
f 252/393/60 255/399/60 332/516/60
f 255/399/59 254/397/59 333/517/59
f 254/397/58 253/396/58 323/502/58
f 253/396/57 251/391/57 318/493/57
f 256/402/64 300/467/64 310/479/64
f 258/406/63 310/479/63 303/470/63
f 259/409/62 303/470/62 302/469/62
f 260/411/61 302/469/61 299/466/61
f 184/284/7 193/298/7 195/303/7
f 195/303/7 196/305/7 197/307/7
f 197/307/7 194/301/7 175/269/7
f 175/269/7 177/273/7 183/281/7
f 183/281/7 185/286/7 186/288/7
f 186/288/7 187/290/7 184/284/7
f 184/284/7 195/303/7 197/307/7
f 197/307/7 175/269/7 183/281/7
f 183/281/7 186/288/7 184/284/7
f 173/266/67 172/265/67 219/342/67
f 174/268/66 173/267/66 212/332/66
f 176/271/65 174/268/65 211/329/65
f 253/396/6 179/275/6 178/274/6
f 254/398/83 180/277/83 179/276/83
f 255/400/82 181/278/82 180/277/82
f 252/394/81 182/279/81 181/278/81
f 170/263/7 169/260/7 177/273/7
f 182/279/5 176/271/5 208/325/5
f 175/270/1 251/391/1 178/274/1
f 209/327/4 171/264/4 169/261/4
f 349/554/1 350/558/1 348/552/1
f 352/563/2 367/593/2 355/568/2
f 350/558/1 343/540/1 347/550/1
f 341/536/7 368/595/7 360/580/7
f 353/565/5 337/523/5 348/553/5
f 362/583/5 347/551/5 339/529/5
f 364/585/5 348/553/5 347/551/5
f 378/625/3 375/616/3 366/590/3
f 352/562/7 342/538/7 366/591/7
f 381/634/2 370/602/2 341/535/2
f 342/538/7 341/536/7 365/587/7
f 360/581/3 368/596/3 353/564/3
f 358/576/4 344/543/4 345/546/4
f 367/593/2 357/573/2 340/533/2
f 345/547/5 363/584/5 361/582/5
f 363/584/5 364/585/5 362/583/5
f 346/548/5 361/582/5 355/569/5
f 361/582/5 362/583/5 356/570/5
f 343/540/1 351/560/1 339/530/1
f 359/577/3 360/581/3 354/566/3
f 368/596/3 349/555/3 337/524/3
f 357/572/4 358/576/4 346/549/4
f 338/526/5 354/567/5 363/584/5
f 354/567/5 353/565/5 364/585/5
f 344/543/4 359/578/4 338/527/4
f 351/559/2 352/563/2 356/571/2
f 366/591/7 365/587/7 344/544/7
f 343/541/7 350/557/7 341/536/7
f 382/637/1 383/640/1 351/560/1
f 369/598/3 380/631/3 349/555/3
f 372/607/7 371/604/7 384/643/7
f 376/619/7 375/617/7 378/626/7
f 383/641/7 382/638/7 373/610/7
f 381/635/7 380/632/7 369/599/7
f 373/611/3 382/639/3 343/542/3
f 377/623/4 384/644/4 359/578/4
f 372/608/2 377/624/2 344/545/2
f 376/620/2 379/629/2 357/573/2
f 380/633/1 381/636/1 350/558/1
f 371/605/1 372/609/1 365/588/1
f 383/642/2 374/614/2 352/563/2
f 374/615/4 373/612/4 342/539/4
f 379/630/4 378/627/4 358/576/4
f 375/618/1 376/621/1 367/594/1
f 384/645/3 371/606/3 360/581/3
f 370/603/4 369/600/4 368/597/4
