# Blender 3.3.1
# www.blender.org
o table_6_9.001
v -1.835126 0.002807 11.721035
v -1.835126 0.002807 -0.300294
v -2.123603 1.650931 11.721035
v -2.013207 1.906643 11.669899
v -1.919619 2.123424 11.524276
v -1.857085 2.268273 11.306334
v -2.795584 0.002807 -0.300294
v -1.835126 2.319137 11.049255
v -2.795584 0.002807 11.721035
v -2.123603 1.650931 -0.300294
v -2.013207 1.906643 -0.249158
v -1.919619 2.123424 -0.103534
v -1.857085 2.268273 0.114405
v -1.835126 2.319137 0.371485
v -3.862306 0.002807 11.721035
v -4.439258 0.002807 11.049255
v -4.083096 0.002807 11.669899
v -4.270273 0.002807 11.524276
v -4.395340 0.002807 11.306334
v -3.862306 2.319137 11.721035
v -4.439258 2.319137 11.049255
v -4.083096 2.319137 11.669899
v -4.270273 2.319137 11.524276
v -4.395340 2.319137 11.306334
v -4.439258 0.002807 0.371485
v -3.862306 0.002807 -0.300294
v -4.395340 0.002807 0.114405
v -4.270273 0.002807 -0.103536
v -4.083096 0.002807 -0.249158
v -4.439258 2.319137 0.371485
v -3.862306 2.319137 -0.300294
v -4.395340 2.319137 0.114405
v -4.270273 2.319137 -0.103536
v -4.083096 2.319137 -0.249158
v -0.297717 0.002807 11.049255
v -0.874669 0.002807 11.721035
v -0.341634 0.002807 11.306334
v -0.466702 0.002807 11.524276
v -0.653879 0.002807 11.669899
v -0.874669 2.319137 11.049255
v -0.874669 1.650931 11.721035
v -0.297717 1.650931 11.049255
v -0.874669 2.268273 11.306335
v -0.874669 2.123424 11.524276
v -0.653879 2.268273 11.049255
v -0.648346 2.206886 11.312777
v -0.659829 2.089444 11.490114
v -0.541565 2.036720 11.437108
v -0.653879 1.650931 11.669899
v -0.466702 1.650931 11.524276
v -0.874669 1.906642 11.669899
v -0.648346 1.913051 11.608184
v -0.496041 1.899751 11.490114
v -0.341634 1.906642 11.049255
v -0.466702 2.123424 11.049255
v -0.341634 1.650931 11.306335
v -0.394638 1.913051 11.312777
v -0.496041 2.089444 11.299406
v -0.874669 0.002807 -0.300294
v -0.297717 0.002807 0.371485
v -0.653879 0.002807 -0.249158
v -0.466702 0.002807 -0.103536
v -0.341634 0.002807 0.114405
v -0.874669 2.319137 0.371485
v -0.297717 1.650931 0.371485
v -0.874669 1.650931 -0.300294
v -0.653879 2.268273 0.371485
v -0.466702 2.123424 0.371485
v -0.874669 2.268273 0.114405
v -0.648346 2.206886 0.107964
v -0.496041 2.089444 0.121335
v -0.541565 2.036720 -0.016366
v -0.341634 1.650931 0.114405
v -0.466702 1.650931 -0.103534
v -0.341634 1.906642 0.371485
v -0.394638 1.913051 0.107964
v -0.496041 1.899751 -0.069374
v -0.874669 1.906642 -0.249158
v -0.874669 2.123424 -0.103534
v -0.653879 1.650931 -0.249158
v -0.648346 1.913051 -0.187444
v -0.659829 2.089444 -0.069374
v -3.372536 1.650931 -0.300294
v -2.795584 2.319137 0.371485
v -3.151746 1.906643 -0.249158
v -2.964569 2.123424 -0.103536
v -2.839502 2.268273 0.114405
v -2.795584 2.319137 11.049255
v -3.372536 1.650931 11.721035
v -2.839502 2.268273 11.306334
v -2.964569 2.123424 11.524276
v -3.151746 1.906643 11.669899
v -4.439258 4.242581 11.049255
v -3.862306 4.242581 11.721035
v -3.862306 4.910788 11.049255
v -4.395340 4.242581 11.306335
v -4.270273 4.242581 11.524276
v -4.395340 4.498293 11.049255
v -4.342337 4.504701 11.312777
v -4.240933 4.491402 11.490114
v -4.195409 4.628370 11.437108
v -3.862306 4.498293 11.669899
v -3.862306 4.715075 11.524276
v -4.083096 4.242581 11.669899
v -4.088629 4.504701 11.608184
v -4.077146 4.681095 11.490114
v -4.083096 4.859924 11.049255
v -4.270273 4.715075 11.049255
v -3.862306 4.859924 11.306335
v -4.088629 4.798537 11.312777
v -4.240933 4.681095 11.299406
v -4.439258 4.242581 0.371485
v -3.862306 4.910788 0.371485
v -3.862306 4.242581 -0.300294
v -4.395340 4.498293 0.371485
v -4.270273 4.715075 0.371485
v -4.395340 4.242581 0.114405
v -4.342337 4.504701 0.107964
v -4.240933 4.681095 0.121335
v -4.195409 4.628370 -0.016366
v -3.862306 4.859924 0.114405
v -3.862306 4.715075 -0.103534
v -4.083096 4.859924 0.371485
v -4.088629 4.798537 0.107964
v -4.077146 4.681095 -0.069374
v -4.083096 4.242581 -0.249158
v -4.270273 4.242581 -0.103534
v -3.862306 4.498293 -0.249158
v -4.088629 4.504701 -0.187444
v -4.240933 4.491402 -0.069374
v -3.372536 4.242581 11.721035
v -2.795584 4.242581 11.049255
v -3.372536 4.910788 11.049255
v -3.151746 4.242581 11.669899
v -2.964569 4.242581 11.524276
v -3.372536 4.498293 11.669899
v -3.146213 4.504701 11.608184
v -2.993909 4.491402 11.490114
v -3.039433 4.628370 11.437108
v -2.839502 4.498293 11.049255
v -2.964569 4.715075 11.049255
v -2.839502 4.242581 11.306335
v -2.892505 4.504701 11.312777
v -2.993909 4.681095 11.299406
v -3.372536 4.859924 11.306335
v -3.372536 4.715075 11.524276
v -3.151746 4.859924 11.049255
v -3.146213 4.798537 11.312777
v -3.157696 4.681095 11.490114
v -3.372536 4.242581 -0.300294
v -3.372536 4.910788 0.371485
v -2.795584 4.242581 0.371485
v -3.372536 4.498293 -0.249158
v -3.372536 4.715075 -0.103536
v -3.151746 4.242581 -0.249158
v -3.146213 4.504701 -0.187444
v -3.157696 4.681095 -0.069374
v -3.039433 4.628370 -0.016368
v -3.151746 4.859924 0.371485
v -2.964569 4.715075 0.371485
v -3.372536 4.859924 0.114405
v -3.146213 4.798537 0.107964
v -2.993909 4.681095 0.121335
v -2.839502 4.242581 0.114405
v -2.964569 4.242581 -0.103536
v -2.839502 4.498293 0.371485
v -2.892505 4.504701 0.107964
v -2.993909 4.491402 -0.069374
v -1.835126 0.002807 23.817333
v -1.835126 0.002807 11.796004
v -2.123603 1.650931 23.817333
v -2.013207 1.906643 23.766197
v -1.919619 2.123424 23.620575
v -1.857085 2.268273 23.402634
v -2.795584 0.002807 11.796004
v -1.835126 2.319137 23.145554
v -2.795584 0.002807 23.817333
v -2.123603 1.650931 11.796004
v -2.013207 1.906643 11.847140
v -1.919619 2.123424 11.992764
v -1.857085 2.268273 12.210705
v -1.835126 2.319137 12.467783
v -3.862306 0.002807 23.817333
v -4.439258 0.002807 23.145554
v -4.083096 0.002807 23.766197
v -4.270273 0.002807 23.620575
v -4.395340 0.002807 23.402634
v -3.862306 2.319137 23.817333
v -4.439258 2.319137 23.145554
v -4.083096 2.319137 23.766197
v -4.270273 2.319137 23.620575
v -4.395340 2.319137 23.402634
v -4.439258 0.002807 12.467783
v -3.862306 0.002807 11.796004
v -4.395340 0.002807 12.210705
v -4.270273 0.002807 11.992764
v -4.083096 0.002807 11.847140
v -4.439258 2.319137 12.467783
v -3.862306 2.319137 11.796004
v -4.395340 2.319137 12.210705
v -4.270273 2.319137 11.992764
v -4.083096 2.319137 11.847140
v -0.297717 0.002807 23.145554
v -0.874669 0.002807 23.817333
v -0.341634 0.002807 23.402634
v -0.466702 0.002807 23.620575
v -0.653879 0.002807 23.766197
v -0.874669 2.319137 23.145554
v -0.874669 1.650931 23.817333
v -0.297717 1.650931 23.145554
v -0.874669 2.268273 23.402634
v -0.874669 2.123424 23.620575
v -0.653879 2.268273 23.145554
v -0.648346 2.206886 23.409077
v -0.659829 2.089444 23.586414
v -0.541565 2.036720 23.533405
v -0.653879 1.650931 23.766197
v -0.466702 1.650931 23.620575
v -0.874669 1.906642 23.766197
v -0.648346 1.913051 23.704483
v -0.496041 1.899751 23.586414
v -0.341634 1.906642 23.145554
v -0.466702 2.123424 23.145554
v -0.341634 1.650931 23.402634
v -0.394638 1.913051 23.409077
v -0.496041 2.089444 23.395706
v -0.874669 0.002807 11.796004
v -0.297717 0.002807 12.467783
v -0.653879 0.002807 11.847140
v -0.466702 0.002807 11.992764
v -0.341634 0.002807 12.210705
v -0.874669 2.319137 12.467783
v -0.297717 1.650931 12.467783
v -0.874669 1.650931 11.796004
v -0.653879 2.268273 12.467783
v -0.466702 2.123424 12.467783
v -0.874669 2.268273 12.210705
v -0.648346 2.206886 12.204262
v -0.496041 2.089444 12.217632
v -0.541565 2.036720 12.079931
v -0.341634 1.650931 12.210705
v -0.466702 1.650931 11.992764
v -0.341634 1.906642 12.467783
v -0.394638 1.913051 12.204262
v -0.496041 1.899751 12.026925
v -0.874669 1.906642 11.847140
v -0.874669 2.123424 11.992764
v -0.653879 1.650931 11.847140
v -0.648346 1.913051 11.908855
v -0.659829 2.089444 12.026925
v -3.372536 1.650931 11.796004
v -2.795584 2.319137 12.467783
v -3.151746 1.906643 11.847140
v -2.964569 2.123424 11.992764
v -2.839502 2.268273 12.210705
v -2.795584 2.319137 23.145554
v -3.372536 1.650931 23.817333
v -2.839502 2.268273 23.402634
v -2.964569 2.123424 23.620575
v -3.151746 1.906643 23.766197
v -4.439258 4.242581 23.145554
v -3.862306 4.242581 23.817333
v -3.862306 4.910788 23.145554
v -4.395340 4.242581 23.402634
v -4.270273 4.242581 23.620575
v -4.395340 4.498293 23.145554
v -4.342337 4.504701 23.409077
v -4.240933 4.491402 23.586414
v -4.195409 4.628370 23.533405
v -3.862306 4.498293 23.766197
v -3.862306 4.715075 23.620575
v -4.083096 4.242581 23.766197
v -4.088629 4.504701 23.704483
v -4.077146 4.681095 23.586414
v -4.083096 4.859924 23.145554
v -4.270273 4.715075 23.145554
v -3.862306 4.859924 23.402634
v -4.088629 4.798537 23.409077
v -4.240933 4.681095 23.395706
v -4.439258 4.242581 12.467783
v -3.862306 4.910788 12.467783
v -3.862306 4.242581 11.796004
v -4.395340 4.498293 12.467783
v -4.270273 4.715075 12.467783
v -4.395340 4.242581 12.210705
v -4.342337 4.504701 12.204262
v -4.240933 4.681095 12.217632
v -4.195409 4.628370 12.079931
v -3.862306 4.859924 12.210705
v -3.862306 4.715075 11.992764
v -4.083096 4.859924 12.467783
v -4.088629 4.798537 12.204262
v -4.077146 4.681095 12.026925
v -4.083096 4.242581 11.847140
v -4.270273 4.242581 11.992764
v -3.862306 4.498293 11.847140
v -4.088629 4.504701 11.908855
v -4.240933 4.491402 12.026925
v -3.372536 4.242581 23.817333
v -2.795584 4.242581 23.145554
v -3.372536 4.910788 23.145554
v -3.151746 4.242581 23.766197
v -2.964569 4.242581 23.620575
v -3.372536 4.498293 23.766197
v -3.146213 4.504701 23.704483
v -2.993909 4.491402 23.586414
v -3.039433 4.628370 23.533405
v -2.839502 4.498293 23.145554
v -2.964569 4.715075 23.145554
v -2.839502 4.242581 23.402634
v -2.892505 4.504701 23.409077
v -2.993909 4.681095 23.395706
v -3.372536 4.859924 23.402634
v -3.372536 4.715075 23.620575
v -3.151746 4.859924 23.145554
v -3.146213 4.798537 23.409077
v -3.157696 4.681095 23.586414
v -3.372536 4.242581 11.796004
v -3.372536 4.910788 12.467783
v -2.795584 4.242581 12.467783
v -3.372536 4.498293 11.847139
v -3.372536 4.715075 11.992764
v -3.151746 4.242581 11.847139
v -3.146213 4.504701 11.908855
v -3.157696 4.681095 12.026924
v -3.039433 4.628370 12.079931
v -3.151746 4.859924 12.467783
v -2.964569 4.715075 12.467783
v -3.372536 4.859924 12.210704
v -3.146213 4.798537 12.204262
v -2.993909 4.681095 12.217632
v -2.839502 4.242581 12.210704
v -2.964569 4.242581 11.992764
v -2.839502 4.498293 12.467783
v -2.892505 4.504701 12.204262
v -2.993909 4.491402 12.026924
v -1.835126 0.002807 35.722637
v -1.835126 0.002807 23.701309
v -2.123603 1.650931 35.722637
v -2.013207 1.906643 35.671501
v -1.919619 2.123424 35.525883
v -1.857085 2.268273 35.307938
v -2.795584 0.002807 23.701309
v -1.835126 2.319137 35.050858
v -2.795584 0.002807 35.722637
v -2.123603 1.650931 23.701309
v -2.013207 1.906643 23.752445
v -1.919619 2.123424 23.898067
v -1.857085 2.268273 24.116009
v -1.835126 2.319137 24.373089
v -3.862306 0.002807 35.722637
v -4.439258 0.002807 35.050858
v -4.083096 0.002807 35.671501
v -4.270273 0.002807 35.525883
v -4.395340 0.002807 35.307938
v -3.862306 2.319137 35.722637
v -4.439258 2.319137 35.050858
v -4.083096 2.319137 35.671501
v -4.270273 2.319137 35.525883
v -4.395340 2.319137 35.307938
v -4.439258 0.002807 24.373089
v -3.862306 0.002807 23.701309
v -4.395340 0.002807 24.116009
v -4.270273 0.002807 23.898067
v -4.083096 0.002807 23.752445
v -4.439258 2.319137 24.373089
v -3.862306 2.319137 23.701309
v -4.395340 2.319137 24.116009
v -4.270273 2.319137 23.898067
v -4.083096 2.319137 23.752445
v -0.297717 0.002807 35.050858
v -0.874669 0.002807 35.722637
v -0.341634 0.002807 35.307938
v -0.466702 0.002807 35.525883
v -0.653879 0.002807 35.671501
v -0.874669 2.319137 35.050858
v -0.874669 1.650931 35.722637
v -0.297717 1.650931 35.050858
v -0.874669 2.268273 35.307938
v -0.874669 2.123424 35.525883
v -0.653879 2.268273 35.050861
v -0.648346 2.206886 35.314381
v -0.659829 2.089444 35.491718
v -0.541565 2.036720 35.438713
v -0.653879 1.650931 35.671501
v -0.466702 1.650931 35.525883
v -0.874669 1.906642 35.671501
v -0.648346 1.913051 35.609787
v -0.496041 1.899751 35.491718
v -0.341634 1.906642 35.050861
v -0.466702 2.123424 35.050861
v -0.341634 1.650931 35.307938
v -0.394638 1.913051 35.314381
v -0.496041 2.089444 35.301010
v -0.874669 0.002807 23.701309
v -0.297717 0.002807 24.373089
v -0.653879 0.002807 23.752445
v -0.466702 0.002807 23.898067
v -0.341634 0.002807 24.116009
v -0.874669 2.319137 24.373089
v -0.297717 1.650931 24.373089
v -0.874669 1.650931 23.701309
v -0.653879 2.268273 24.373089
v -0.466702 2.123424 24.373089
v -0.874669 2.268273 24.116009
v -0.648346 2.206886 24.109566
v -0.496041 2.089444 24.122936
v -0.541565 2.036720 23.985237
v -0.341634 1.650931 24.116009
v -0.466702 1.650931 23.898067
v -0.341634 1.906642 24.373089
v -0.394638 1.913051 24.109566
v -0.496041 1.899751 23.932228
v -0.874669 1.906642 23.752445
v -0.874669 2.123424 23.898067
v -0.653879 1.650931 23.752445
v -0.648346 1.913051 23.814159
v -0.659829 2.089444 23.932228
v -3.372536 1.650931 23.701309
v -2.795584 2.319137 24.373089
v -3.151746 1.906643 23.752445
v -2.964569 2.123424 23.898067
v -2.839502 2.268273 24.116009
v -2.795584 2.319137 35.050858
v -3.372536 1.650931 35.722637
v -2.839502 2.268273 35.307938
v -2.964569 2.123424 35.525883
v -3.151746 1.906643 35.671501
v -4.439258 4.242581 35.050858
v -3.862306 4.242581 35.722637
v -3.862306 4.910788 35.050858
v -4.395340 4.242581 35.307938
v -4.270273 4.242581 35.525883
v -4.395340 4.498293 35.050861
v -4.342337 4.504701 35.314381
v -4.240933 4.491402 35.491718
v -4.195409 4.628370 35.438713
v -3.862306 4.498293 35.671501
v -3.862306 4.715075 35.525883
v -4.083096 4.242581 35.671501
v -4.088629 4.504701 35.609787
v -4.077146 4.681095 35.491718
v -4.083096 4.859924 35.050861
v -4.270273 4.715075 35.050861
v -3.862306 4.859924 35.307938
v -4.088629 4.798537 35.314381
v -4.240933 4.681095 35.301010
v -4.439258 4.242581 24.373089
v -3.862306 4.910788 24.373089
v -3.862306 4.242581 23.701309
v -4.395340 4.498293 24.373089
v -4.270273 4.715075 24.373089
v -4.395340 4.242581 24.116009
v -4.342337 4.504701 24.109566
v -4.240933 4.681095 24.122936
v -4.195409 4.628370 23.985237
v -3.862306 4.859924 24.116009
v -3.862306 4.715075 23.898067
v -4.083096 4.859924 24.373089
v -4.088629 4.798537 24.109566
v -4.077146 4.681095 23.932228
v -4.083096 4.242581 23.752445
v -4.270273 4.242581 23.898067
v -3.862306 4.498293 23.752445
v -4.088629 4.504701 23.814159
v -4.240933 4.491402 23.932228
v -3.372536 4.242581 35.722637
v -2.795584 4.242581 35.050858
v -3.372536 4.910788 35.050858
v -3.151746 4.242581 35.671501
v -2.964569 4.242581 35.525883
v -3.372536 4.498293 35.671501
v -3.146213 4.504701 35.609787
v -2.993909 4.491402 35.491718
v -3.039433 4.628370 35.438713
v -2.839502 4.498293 35.050861
v -2.964569 4.715075 35.050861
v -2.839502 4.242581 35.307938
v -2.892505 4.504701 35.314381
v -2.993909 4.681095 35.301010
v -3.372536 4.859924 35.307938
v -3.372536 4.715075 35.525883
v -3.151746 4.859924 35.050861
v -3.146213 4.798537 35.314381
v -3.157696 4.681095 35.491718
v -3.372536 4.242581 23.701309
v -3.372536 4.910788 24.373089
v -2.795584 4.242581 24.373089
v -3.372536 4.498293 23.752445
v -3.372536 4.715075 23.898067
v -3.151746 4.242581 23.752445
v -3.146213 4.504701 23.814159
v -3.157696 4.681095 23.932228
v -3.039433 4.628370 23.985237
v -3.151746 4.859924 24.373089
v -2.964569 4.715075 24.373089
v -3.372536 4.859924 24.116009
v -3.146213 4.798537 24.109566
v -2.993909 4.681095 24.122936
v -2.839502 4.242581 24.116009
v -2.964569 4.242581 23.898067
v -2.839502 4.498293 24.373089
v -2.892505 4.504701 24.109566
v -2.993909 4.491402 23.932228
v -0.936204 3.741603 22.106129
v -0.936204 4.211004 22.106129
v -0.936204 3.741603 16.817154
v -0.936204 4.211004 16.817154
v 4.352771 3.741603 22.106129
v 4.352771 4.211004 22.106129
v 4.352771 3.741603 16.817154
v 4.352771 4.211004 16.817154
v 1.162345 3.741603 18.915703
v 2.254223 3.741603 18.915703
v 2.254223 3.741603 20.007580
v 1.162345 3.741603 20.007580
v 2.362298 0.486218 18.807629
v 1.054270 0.486218 18.807629
v 1.054270 0.486218 20.115654
v 2.362298 0.486218 20.115654
v 2.849744 0.239819 18.320183
v 2.796321 0.015714 18.373604
v 0.620247 0.015714 18.373604
v 0.566824 0.239819 18.320183
v 0.620247 0.015714 20.549679
v 0.566824 0.239819 20.603100
v 2.849744 0.239819 20.603100
v 2.796321 0.015714 20.549679
v -0.936204 3.741603 35.362892
v -0.936204 4.211004 35.362892
v -0.936204 3.741603 24.679958
v -0.936204 4.211004 24.679958
v 4.352771 3.741603 35.362892
v 4.352771 4.211004 35.362892
v 4.352771 3.741603 24.679958
v 4.352771 4.211004 24.679958
v 1.162345 3.741603 28.918709
v 2.254223 3.741603 28.918709
v 2.254223 3.741603 31.124138
v 1.162345 3.741603 31.124138
v 2.362298 0.486218 28.700417
v 1.054270 0.486218 28.700417
v 1.054270 0.486218 31.342434
v 2.362298 0.486218 31.342434
v 2.849744 0.239819 27.715847
v 2.796321 0.015714 27.823753
v 0.620247 0.015714 27.823753
v 0.566824 0.239819 27.715847
v 0.620247 0.015714 32.219093
v 0.566824 0.239819 32.327000
v 2.849744 0.239819 32.327000
v 2.796321 0.015714 32.219093
v -0.936204 3.741603 13.467010
v -0.936204 4.211004 13.467010
v -0.936204 3.741603 8.178034
v -0.936204 4.211004 8.178034
v 4.352771 3.741603 13.467010
v 4.352771 4.211004 13.467010
v 4.352771 3.741603 8.178034
v 4.352771 4.211004 8.178034
v 1.162345 3.741603 10.276583
v 2.254223 3.741603 10.276583
v 2.254223 3.741603 11.368461
v 1.162345 3.741603 11.368461
v 2.362298 0.486218 10.168509
v 1.054270 0.486218 10.168509
v 1.054270 0.486218 11.476536
v 2.362298 0.486218 11.476536
v 2.849744 0.239819 9.681062
v 2.796321 0.015714 9.734485
v 0.620247 0.015714 9.734485
v 0.566824 0.239819 9.681062
v 0.620247 0.015714 11.910559
v 0.566824 0.239819 11.963982
v 2.849744 0.239819 11.963982
v 2.796321 0.015714 11.910559
v -0.936204 3.741603 5.210635
v -0.936204 4.211004 5.210635
v -0.936204 3.741603 -0.078340
v -0.936204 4.211004 -0.078340
v 4.352771 3.741603 5.210635
v 4.352771 4.211004 5.210635
v 4.352771 3.741603 -0.078340
v 4.352771 4.211004 -0.078340
v 1.162345 3.741603 2.020209
v 2.254223 3.741603 2.020209
v 2.254223 3.741603 3.112087
v 1.162345 3.741603 3.112087
v 2.362298 0.486218 1.912134
v 1.054270 0.486218 1.912134
v 1.054270 0.486218 3.220161
v 2.362298 0.486218 3.220161
v 2.849744 0.239819 1.424688
v 2.796321 0.015714 1.478111
v 0.620247 0.015714 1.478111
v 0.566824 0.239819 1.424688
v 0.620247 0.015714 3.654185
v 0.566824 0.239819 3.707608
v 2.849744 0.239819 3.707608
v 2.796321 0.015714 3.654185
vn -0.0000 -0.0000 1.0000
vn 1.0000 -0.0000 -0.0000
vn -1.0000 -0.0000 -0.0000
vn -0.0000 -0.0000 -1.0000
vn -0.0000 1.0000 -0.0000
vn -0.0000 0.1961 0.9806
vn -0.0000 -1.0000 -0.0000
vn 0.2204 0.9569 0.1893
vn 0.2057 0.8150 0.5417
vn 0.6032 0.7795 0.1689
vn 0.5694 0.6871 0.4513
vn 0.2215 0.1912 0.9562
vn 0.6051 0.1703 0.7777
vn 0.2060 0.5457 0.8123
vn 0.5295 0.4954 0.6886
vn 0.9719 0.1669 0.1660
vn 0.8550 0.4933 0.1600
vn 0.8560 0.1610 0.4912
vn 0.7663 0.4370 0.4710
vn 0.2204 0.9569 -0.1893
vn 0.6032 0.7795 -0.1689
vn 0.2056 0.8150 -0.5417
vn 0.5289 0.6914 -0.4922
vn 0.9719 0.1669 -0.1660
vn 0.8560 0.1610 -0.4912
vn 0.8550 0.4933 -0.1600
vn 0.7662 0.4734 -0.4346
vn 0.2215 0.1912 -0.9562
vn 0.2060 0.5457 -0.8123
vn 0.6051 0.1703 -0.7777
vn 0.5702 0.4544 -0.6844
vn -0.9719 0.1669 0.1660
vn -0.8560 0.1610 0.4912
vn -0.8550 0.4933 0.1600
vn -0.7662 0.4734 0.4346
vn -0.2215 0.1912 0.9562
vn -0.2060 0.5457 0.8123
vn -0.6051 0.1703 0.7777
vn -0.5702 0.4544 0.6844
vn -0.2204 0.9569 0.1893
vn -0.6032 0.7795 0.1689
vn -0.2057 0.8150 0.5417
vn -0.5288 0.6915 0.4922
vn -0.9719 0.1669 -0.1660
vn -0.8550 0.4933 -0.1600
vn -0.8560 0.1610 -0.4912
vn -0.7663 0.4370 -0.4710
vn -0.2204 0.9569 -0.1893
vn -0.2057 0.8150 -0.5417
vn -0.6032 0.7795 -0.1689
vn -0.5694 0.6871 -0.4513
vn -0.2215 0.1912 -0.9562
vn -0.6051 0.1703 -0.7777
vn -0.2060 0.5457 -0.8123
vn -0.5295 0.4954 -0.6886
vn 0.2057 0.8150 -0.5417
vn 0.5288 0.6915 -0.4922
vn -0.2256 -0.0000 0.9742
vn -0.6140 -0.0000 0.7893
vn -0.8673 -0.0000 0.4977
vn -0.9857 -0.0000 0.1684
vn -0.2256 -0.0000 -0.9742
vn -0.6140 -0.0000 -0.7893
vn -0.8673 -0.0000 -0.4977
vn -0.9857 -0.0000 -0.1684
vn -0.0000 0.9810 -0.1941
vn -0.0000 0.8328 -0.5535
vn -0.0000 0.5576 -0.8301
vn -0.0000 0.1961 -0.9806
vn 0.9857 -0.0000 -0.1684
vn 0.8673 -0.0000 -0.4977
vn 0.6141 -0.0000 -0.7893
vn 0.2256 -0.0000 -0.9742
vn 0.2245 0.9745 -0.0000
vn 0.6120 0.7909 -0.0000
vn 0.8662 0.4997 -0.0000
vn 0.9856 0.1693 -0.0000
vn 0.2256 -0.0000 0.9742
vn 0.6140 -0.0000 0.7893
vn 0.8673 -0.0000 0.4977
vn 0.9857 -0.0000 0.1684
vn -0.0000 0.9810 0.1941
vn -0.0000 0.8328 0.5535
vn -0.0000 0.5576 0.8301
vn -0.2245 0.9745 -0.0000
vn -0.6120 0.7908 -0.0000
vn -0.8662 0.4997 -0.0000
vn -0.9856 0.1693 -0.0000
vn 0.6120 0.7908 -0.0000
vn -0.6141 -0.0000 -0.7893
vn 0.6140 -0.0000 -0.7893
vn 0.2056 0.8150 0.5417
vn 0.2060 0.5456 0.8123
vn 0.2060 0.5456 -0.8123
vn -0.2060 0.5456 0.8123
vn -0.2056 0.8150 0.5417
vn -0.5289 0.6914 0.4922
vn -0.2056 0.8150 -0.5417
vn -0.2060 0.5456 -0.8123
vn 0.2061 0.5457 -0.8123
vn 0.6051 0.1704 0.7777
vn 0.7663 0.4369 0.4710
vn -0.7662 0.4734 0.4345
vn -0.6051 0.1704 0.7777
vn -0.5288 0.6914 0.4922
vn -0.6051 0.1704 -0.7777
vn 0.6051 0.1704 -0.7777
vn -0.6120 0.7909 -0.0000
vn -0.0000 0.0332 0.9994
vn -0.4511 0.8925 -0.0000
vn -0.9994 0.0332 -0.0000
vn 0.9994 0.0332 -0.0000
vn -0.0000 0.0332 -0.9994
vn 0.4511 0.8925 -0.0000
vn -0.0000 0.8925 0.4511
vn -0.0000 -0.2319 -0.9727
vn -0.9727 -0.2319 -0.0000
vn 0.9727 -0.2319 -0.0000
vn -0.0000 -0.2319 0.9727
vn -0.0000 0.8925 -0.4511
vn -0.0000 0.0669 0.9978
vn -0.0000 0.0669 -0.9978
vn -0.0000 0.9701 0.2428
vn -0.0000 -0.4338 -0.9010
vn -0.0000 -0.4338 0.9010
vn -0.0000 0.9701 -0.2428
vn 0.2500 0.9442 0.2147
vn 0.2150 0.8078 0.5489
vn 0.6107 0.7719 0.1765
vn 0.5288 0.6915 0.4922
vn 0.2511 0.2168 0.9434
vn 0.6126 0.1780 0.7701
vn 0.2154 0.5528 0.8050
vn 0.5702 0.4544 0.6844
vn 0.9634 0.1902 0.1891
vn 0.8491 0.5009 0.1676
vn 0.8501 0.1687 0.4988
vn 0.7662 0.4734 0.4346
vn 0.2500 0.9441 -0.2147
vn 0.6107 0.7719 -0.1765
vn 0.2150 0.8078 -0.5489
vn 0.5694 0.6871 -0.4513
vn 0.9634 0.1902 -0.1891
vn 0.8501 0.1687 -0.4988
vn 0.8491 0.5009 -0.1676
vn 0.7663 0.4370 -0.4710
vn 0.2511 0.2168 -0.9434
vn 0.2154 0.5528 -0.8050
vn 0.6126 0.1780 -0.7701
vn 0.5295 0.4954 -0.6886
vn -0.9634 0.1902 0.1891
vn -0.8501 0.1687 0.4988
vn -0.8491 0.5009 0.1676
vn -0.7663 0.4370 0.4710
vn -0.2511 0.2168 0.9434
vn -0.2154 0.5528 0.8050
vn -0.6126 0.1780 0.7701
vn -0.5295 0.4954 0.6886
vn -0.2500 0.9442 0.2147
vn -0.6107 0.7719 0.1765
vn -0.2150 0.8078 0.5489
vn -0.5694 0.6871 0.4513
vn -0.9634 0.1902 -0.1891
vn -0.8491 0.5009 -0.1676
vn -0.8501 0.1687 -0.4988
vn -0.7662 0.4734 -0.4346
vn -0.2500 0.9442 -0.2147
vn -0.2150 0.8078 -0.5489
vn -0.6107 0.7719 -0.1765
vn -0.5289 0.6914 -0.4922
vn -0.2511 0.2168 -0.9434
vn -0.6126 0.1780 -0.7701
vn -0.2154 0.5528 -0.8050
vn -0.5702 0.4544 -0.6844
vn 0.2500 0.9442 -0.2147
vn 0.5289 0.6915 0.4921
vn 0.8502 0.1687 0.4988
vn 0.5289 0.6914 0.4922
vn 0.2500 0.9441 0.2147
vn 0.5288 0.6914 0.4922
vn 0.8491 0.5008 0.1676
vn 0.7662 0.4734 0.4345
vn -0.9634 0.1901 0.1891
vn -0.8491 0.5008 0.1676
vn -0.7663 0.4369 0.4710
vn -0.2155 0.5528 0.8050
vn -0.2500 0.9441 0.2147
vn 0.5702 0.4543 0.6844
vt 0.352846 0.283675
vt 0.041845 0.803158
vt 0.420788 0.523352
vt 0.352846 0.010716
vt 0.048395 0.770895
vt 0.045873 0.765825
vt 0.043704 0.761393
vt 0.635762 0.278046
vt 0.634424 0.273097
vt 0.331038 0.010716
vt 0.416813 0.506392
vt 0.633955 0.267260
vt 0.063651 0.803141
vt 0.331038 0.283675
vt 0.451361 0.513895
vt 0.456764 0.514455
vt 0.461378 0.513503
vt 0.635762 0.014023
vt 0.634424 0.018972
vt 0.633955 0.024809
vt 0.087870 0.803123
vt 0.306817 0.283675
vt 0.413791 0.319139
vt 0.293716 0.268421
vt 0.092868 0.803051
vt 0.301804 0.282514
vt 0.097073 0.802857
vt 0.297554 0.279207
vt 0.414058 0.316330
vt 0.099846 0.802568
vt 0.294713 0.274258
vt 0.087870 0.757786
vt 0.458437 0.313007
vt 0.092868 0.757715
vt 0.097073 0.757521
vt 0.099846 0.757232
vt 0.458705 0.310199
vt 0.410233 0.468002
vt 0.293716 0.025970
vt 0.412398 0.487556
vt 0.306817 0.010716
vt 0.410330 0.472362
vt 0.294713 0.020133
vt 0.410775 0.477609
vt 0.297554 0.015184
vt 0.411501 0.482944
vt 0.301804 0.011877
vt 0.454880 0.461870
vt 0.457044 0.481424
vt 0.454976 0.466230
vt 0.455421 0.471478
vt 0.456147 0.476812
vt 0.387755 0.268421
vt 0.435242 0.808394
vt 0.374654 0.283675
vt 0.020039 0.803175
vt 0.386758 0.274258
vt 0.435388 0.813529
vt 0.383918 0.279207
vt 0.010716 0.802924
vt 0.435805 0.817200
vt 0.379668 0.282514
vt 0.015010 0.803112
vt 0.612155 0.267260
vt 0.020039 0.770917
vt 0.467204 0.810034
vt 0.612127 0.273097
vt 0.019979 0.761411
vt 0.612045 0.278046
vt 0.607115 0.267260
vt 0.606955 0.273244
vt 0.607149 0.277270
vt 0.015091 0.762035
vt 0.604435 0.276067
vt 0.012390 0.762999
vt 0.475498 0.816786
vt 0.015010 0.770854
vt 0.467767 0.818841
vt 0.010716 0.770666
vt 0.020023 0.765845
vt 0.014866 0.765643
vt 0.011372 0.765751
vt 0.472690 0.818132
vt 0.472309 0.809947
vt 0.602785 0.267260
vt 0.476930 0.809191
vt 0.467350 0.815170
vt 0.472610 0.815156
vt 0.603432 0.272940
vt 0.476369 0.814259
vt 0.374654 0.010716
vt 0.424763 0.540312
vt 0.387755 0.025970
vt 0.435242 0.580920
vt 0.379668 0.011877
vt 0.436428 0.564930
vt 0.425694 0.543497
vt 0.383918 0.015184
vt 0.435805 0.569487
vt 0.386758 0.020133
vt 0.435388 0.575102
vt 0.612155 0.024809
vt 0.467204 0.582561
vt 0.456530 0.535949
vt 0.607115 0.024809
vt 0.476930 0.581718
vt 0.602785 0.024809
vt 0.612127 0.018972
vt 0.606955 0.018825
vt 0.603432 0.019129
vt 0.476369 0.576127
vt 0.604435 0.016002
vt 0.475498 0.572787
vt 0.467350 0.576743
vt 0.467767 0.571128
vt 0.472309 0.582474
vt 0.472610 0.576455
vt 0.472690 0.571875
vt 0.611922 0.010716
vt 0.461476 0.534559
vt 0.612045 0.014023
vt 0.465703 0.531955
vt 0.457461 0.539135
vt 0.468390 0.566571
vt 0.462556 0.537678
vt 0.606789 0.012118
vt 0.473455 0.568190
vt 0.607149 0.014799
vt 0.476914 0.570791
vt 0.446192 0.491841
vt 0.686914 0.321517
vt 0.655754 0.024809
vt 0.680125 0.305107
vt 0.452051 0.494350
vt 0.659479 0.014023
vt 0.683698 0.309885
vt 0.457053 0.495051
vt 0.686083 0.315648
vt 0.656722 0.018972
vt 0.655754 0.267260
vt 0.686592 0.548990
vt 0.076751 0.770873
vt 0.656722 0.273097
vt 0.685744 0.554074
vt 0.683347 0.557597
vt 0.659479 0.278046
vt 0.067428 0.761374
vt 0.071722 0.765805
vt 0.495511 0.307916
vt 0.087870 0.720140
vt 0.830359 0.604656
vt 0.099846 0.719586
vt 0.495779 0.305107
vt 0.097073 0.719874
vt 0.818494 0.604656
vt 0.500622 0.308014
vt 0.501052 0.305260
vt 0.098645 0.714465
vt 0.819694 0.598673
vt 0.822002 0.594646
vt 0.096397 0.714960
vt 0.095347 0.712210
vt 0.822958 0.595849
vt 0.087855 0.715068
vt 0.830470 0.593870
vt 0.087811 0.710634
vt 0.092868 0.720069
vt 0.092975 0.714857
vt 0.092678 0.711250
vt 0.825613 0.594646
vt 0.825377 0.604656
vt 0.505318 0.309649
vt 0.821210 0.604656
vt 0.830388 0.598819
vt 0.825286 0.598673
vt 0.821896 0.598976
vt 0.491954 0.456779
vt 0.830359 0.847107
vt 0.494118 0.476333
vt 0.497064 0.456878
vt 0.821210 0.847107
vt 0.501760 0.458512
vt 0.492050 0.461139
vt 0.497320 0.461471
vt 0.501144 0.462607
vt 0.821896 0.852787
vt 0.500270 0.465471
vt 0.830388 0.852944
vt 0.503291 0.472339
vt 0.830470 0.857893
vt 0.825377 0.847107
vt 0.825286 0.853090
vt 0.504033 0.465173
vt 0.825613 0.857118
vt 0.501758 0.468159
vt 0.493221 0.471721
vt 0.492495 0.466386
vt 0.499064 0.474943
vt 0.498271 0.470069
vt 0.497424 0.465769
vt 0.076751 0.720148
vt 0.723890 0.550958
vt 0.841475 0.604656
vt 0.071722 0.720085
vt 0.724441 0.559765
vt 0.067428 0.719897
vt 0.076735 0.715076
vt 0.071578 0.714874
vt 0.068084 0.714982
vt 0.729365 0.559064
vt 0.069101 0.712230
vt 0.732175 0.557721
vt 0.849195 0.595849
vt 0.728996 0.550879
vt 0.850845 0.604656
vt 0.733618 0.550129
vt 0.724030 0.556094
vt 0.729289 0.556087
vt 0.733049 0.555195
vt 0.850199 0.598976
vt 0.841504 0.598819
vt 0.076691 0.710642
vt 0.841586 0.593870
vt 0.846515 0.604656
vt 0.846675 0.598673
vt 0.071803 0.711266
vt 0.846481 0.594646
vt 0.496145 0.484981
vt 0.841475 0.847107
vt 0.724213 0.323485
vt 0.841709 0.861199
vt 0.501091 0.483591
vt 0.841586 0.857893
vt 0.505318 0.480988
vt 0.497076 0.488167
vt 0.725423 0.307497
vt 0.502172 0.486711
vt 0.846842 0.859798
vt 0.730485 0.309123
vt 0.733940 0.311729
vt 0.846481 0.857118
vt 0.849195 0.855914
vt 0.732521 0.313723
vt 0.846515 0.847107
vt 0.733940 0.322656
vt 0.850845 0.847107
vt 0.841504 0.852944
vt 0.846675 0.853090
vt 0.850199 0.852787
vt 0.733387 0.317064
vt 0.724368 0.317667
vt 0.724792 0.312053
vt 0.729319 0.323406
vt 0.729628 0.317387
vt 0.729714 0.312807
vt 0.069846 0.547675
vt 0.324845 0.798980
vt 0.187754 0.492964
vt 0.069846 0.274717
vt 0.331395 0.766717
vt 0.328873 0.761647
vt 0.326704 0.757215
vt 0.559727 0.572436
vt 0.558389 0.567488
vt 0.048038 0.274717
vt 0.183779 0.476004
vt 0.557920 0.561650
vt 0.346652 0.798963
vt 0.048038 0.547675
vt 0.218327 0.483507
vt 0.223729 0.484066
vt 0.228344 0.483114
vt 0.559727 0.308414
vt 0.558389 0.313362
vt 0.557920 0.319200
vt 0.370871 0.798944
vt 0.023817 0.547675
vt 0.180757 0.288750
vt 0.010716 0.532422
vt 0.375868 0.798873
vt 0.018804 0.546515
vt 0.380073 0.798679
vt 0.014554 0.543208
vt 0.181024 0.285942
vt 0.382847 0.798390
vt 0.011714 0.538260
vt 0.370871 0.753608
vt 0.225403 0.282618
vt 0.375868 0.753537
vt 0.380073 0.753343
vt 0.225671 0.279810
vt 0.382847 0.753054
vt 0.177199 0.437613
vt 0.010716 0.289970
vt 0.179364 0.457167
vt 0.023817 0.274717
vt 0.177296 0.441973
vt 0.011714 0.284134
vt 0.177741 0.447220
vt 0.014554 0.279185
vt 0.178467 0.452555
vt 0.018804 0.275878
vt 0.221846 0.431482
vt 0.224010 0.451035
vt 0.221942 0.435841
vt 0.222387 0.441088
vt 0.223113 0.446424
vt 0.104755 0.532422
vt 0.756160 0.254180
vt 0.091654 0.547675
vt 0.303039 0.798997
vt 0.103758 0.538260
vt 0.756306 0.259315
vt 0.100918 0.543208
vt 0.293717 0.798746
vt 0.756723 0.262986
vt 0.096668 0.546515
vt 0.298010 0.798934
vt 0.536121 0.561650
vt 0.303039 0.766739
vt 0.788122 0.255820
vt 0.536092 0.567488
vt 0.302979 0.757233
vt 0.536010 0.572436
vt 0.531081 0.561650
vt 0.530920 0.567635
vt 0.531115 0.571661
vt 0.298091 0.757857
vt 0.528401 0.570457
vt 0.295390 0.758821
vt 0.796416 0.262571
vt 0.298010 0.766676
vt 0.788685 0.264627
vt 0.293717 0.766488
vt 0.303023 0.761667
vt 0.297866 0.761465
vt 0.294372 0.761573
vt 0.793608 0.263919
vt 0.793227 0.255733
vt 0.526750 0.561650
vt 0.797848 0.254977
vt 0.788268 0.260956
vt 0.793528 0.260942
vt 0.527397 0.567330
vt 0.797287 0.260044
vt 0.091654 0.274717
vt 0.191729 0.509922
vt 0.104755 0.289970
vt 0.756160 0.026707
vt 0.096668 0.275878
vt 0.757346 0.010716
vt 0.192660 0.513109
vt 0.100918 0.279185
vt 0.756723 0.015273
vt 0.103758 0.284134
vt 0.756306 0.020888
vt 0.536121 0.319200
vt 0.788122 0.028347
vt 0.223496 0.505560
vt 0.531081 0.319200
vt 0.797848 0.027504
vt 0.526750 0.319200
vt 0.536092 0.313362
vt 0.530920 0.313216
vt 0.527397 0.313519
vt 0.797287 0.021913
vt 0.528401 0.310392
vt 0.796416 0.018573
vt 0.788268 0.022529
vt 0.788685 0.016914
vt 0.793227 0.028260
vt 0.793528 0.022241
vt 0.793608 0.017661
vt 0.535887 0.305107
vt 0.228442 0.504169
vt 0.536010 0.308414
vt 0.232669 0.501566
vt 0.224427 0.508745
vt 0.789309 0.012357
vt 0.229522 0.507290
vt 0.530754 0.306508
vt 0.794373 0.013976
vt 0.531115 0.309189
vt 0.797832 0.016578
vt 0.213158 0.461452
vt 0.687701 0.027126
vt 0.579719 0.319200
vt 0.680911 0.010716
vt 0.219017 0.463961
vt 0.583444 0.308414
vt 0.684485 0.015494
vt 0.224019 0.464663
vt 0.686869 0.021256
vt 0.580687 0.313362
vt 0.579719 0.561650
vt 0.687378 0.254600
vt 0.359751 0.766695
vt 0.580687 0.567488
vt 0.686531 0.259684
vt 0.684134 0.263206
vt 0.583444 0.572436
vt 0.350428 0.757196
vt 0.354722 0.761627
vt 0.262477 0.277527
vt 0.370871 0.715962
vt 0.831145 0.021502
vt 0.382847 0.715408
vt 0.262745 0.274717
vt 0.380073 0.715696
vt 0.819281 0.021502
vt 0.267588 0.277626
vt 0.268018 0.274870
vt 0.381645 0.710287
vt 0.820480 0.015518
vt 0.822789 0.011492
vt 0.379397 0.710782
vt 0.378347 0.708032
vt 0.823745 0.012695
vt 0.370855 0.710890
vt 0.831256 0.010715
vt 0.370811 0.706455
vt 0.375868 0.715891
vt 0.375975 0.710679
vt 0.375678 0.707072
vt 0.826399 0.011492
vt 0.826163 0.021502
vt 0.272284 0.279261
vt 0.821997 0.021502
vt 0.831174 0.015665
vt 0.826072 0.015518
vt 0.822682 0.015821
vt 0.258920 0.426390
vt 0.831146 0.263954
vt 0.261084 0.445944
vt 0.264030 0.426489
vt 0.821997 0.263954
vt 0.268726 0.428123
vt 0.259016 0.430750
vt 0.264286 0.431082
vt 0.268110 0.432219
vt 0.822682 0.269634
vt 0.267236 0.435081
vt 0.831174 0.269791
vt 0.270257 0.441950
vt 0.831256 0.274740
vt 0.826163 0.263954
vt 0.826072 0.269938
vt 0.270999 0.434784
vt 0.826399 0.273964
vt 0.268724 0.437771
vt 0.260187 0.441332
vt 0.259461 0.435997
vt 0.266030 0.444553
vt 0.265237 0.439680
vt 0.264390 0.435379
vt 0.359751 0.715970
vt 0.724677 0.256567
vt 0.842262 0.021502
vt 0.354722 0.715907
vt 0.725228 0.265374
vt 0.350428 0.715719
vt 0.359735 0.710898
vt 0.354578 0.710696
vt 0.351084 0.710804
vt 0.730152 0.264673
vt 0.352102 0.708052
vt 0.732961 0.263330
vt 0.849982 0.012695
vt 0.729782 0.256488
vt 0.851632 0.021502
vt 0.734404 0.255738
vt 0.724816 0.261703
vt 0.730076 0.261697
vt 0.733836 0.260804
vt 0.850985 0.015821
vt 0.842290 0.015665
vt 0.359691 0.706464
vt 0.842372 0.010715
vt 0.847301 0.021502
vt 0.847462 0.015518
vt 0.354803 0.707088
vt 0.847268 0.011492
vt 0.263111 0.454592
vt 0.842262 0.263954
vt 0.725000 0.029094
vt 0.842495 0.278046
vt 0.268057 0.453203
vt 0.842372 0.274740
vt 0.272284 0.450598
vt 0.264042 0.457777
vt 0.726209 0.013106
vt 0.269138 0.456322
vt 0.847628 0.276644
vt 0.731272 0.014731
vt 0.734727 0.017339
vt 0.847268 0.273964
vt 0.849982 0.272760
vt 0.733308 0.019332
vt 0.847301 0.263954
vt 0.734727 0.028265
vt 0.851632 0.263954
vt 0.842290 0.269791
vt 0.847462 0.269938
vt 0.850985 0.269634
vt 0.734174 0.022674
vt 0.725154 0.023276
vt 0.725579 0.017662
vt 0.730105 0.029015
vt 0.730414 0.022996
vt 0.730501 0.018416
vt 0.468318 0.283674
vt 0.557879 0.827919
vt 0.304271 0.523354
vt 0.468318 0.010715
vt 0.564429 0.795656
vt 0.561907 0.790586
vt 0.559738 0.786154
vt 0.557635 0.278046
vt 0.556298 0.273098
vt 0.446509 0.010715
vt 0.300295 0.506393
vt 0.555828 0.267260
vt 0.579685 0.827903
vt 0.446509 0.283674
vt 0.334844 0.513897
vt 0.340246 0.514456
vt 0.344861 0.513504
vt 0.557635 0.014023
vt 0.556298 0.018972
vt 0.555828 0.024809
vt 0.603904 0.827884
vt 0.422288 0.283674
vt 0.297274 0.319139
vt 0.409188 0.268421
vt 0.608902 0.827813
vt 0.417275 0.282513
vt 0.613107 0.827618
vt 0.413025 0.279207
vt 0.297541 0.316332
vt 0.615880 0.827330
vt 0.410185 0.274258
vt 0.603904 0.782547
vt 0.341920 0.313007
vt 0.608902 0.782476
vt 0.613107 0.782282
vt 0.342188 0.310200
vt 0.615880 0.781993
vt 0.293716 0.468002
vt 0.409188 0.025970
vt 0.295881 0.487556
vt 0.422288 0.010715
vt 0.293813 0.472363
vt 0.410185 0.020132
vt 0.294258 0.477610
vt 0.413025 0.015184
vt 0.294984 0.482944
vt 0.417275 0.011877
vt 0.338363 0.461872
vt 0.340527 0.481424
vt 0.338459 0.466230
vt 0.338904 0.471478
vt 0.339630 0.476814
vt 0.503226 0.268421
vt 0.797061 0.315556
vt 0.490126 0.283674
vt 0.536073 0.827936
vt 0.502229 0.274258
vt 0.796915 0.310421
vt 0.499389 0.279207
vt 0.526750 0.827685
vt 0.796499 0.306747
vt 0.495139 0.282513
vt 0.531044 0.827873
vt 0.534029 0.267260
vt 0.536073 0.795678
vt 0.765099 0.313915
vt 0.534000 0.273098
vt 0.536013 0.786172
vt 0.533919 0.278046
vt 0.528989 0.267260
vt 0.528829 0.273243
vt 0.529023 0.277269
vt 0.531125 0.786796
vt 0.526309 0.276066
vt 0.528424 0.787760
vt 0.756805 0.307163
vt 0.531044 0.795615
vt 0.764536 0.305107
vt 0.526750 0.795427
vt 0.536057 0.790606
vt 0.530900 0.790404
vt 0.527406 0.790512
vt 0.759613 0.305817
vt 0.759994 0.313999
vt 0.524659 0.267260
vt 0.755373 0.314758
vt 0.764953 0.308781
vt 0.759693 0.308792
vt 0.525306 0.272940
vt 0.755934 0.309689
vt 0.490126 0.010715
vt 0.308246 0.540312
vt 0.503226 0.025970
vt 0.797061 0.543030
vt 0.495139 0.011877
vt 0.795875 0.559017
vt 0.309177 0.543499
vt 0.499389 0.015184
vt 0.796499 0.554462
vt 0.502229 0.020132
vt 0.796915 0.548847
vt 0.534029 0.024809
vt 0.765099 0.541386
vt 0.340013 0.535950
vt 0.528989 0.024809
vt 0.755373 0.542229
vt 0.524659 0.024809
vt 0.534000 0.018972
vt 0.528829 0.018826
vt 0.525306 0.019129
vt 0.755934 0.547821
vt 0.526309 0.016003
vt 0.756805 0.551163
vt 0.764953 0.547207
vt 0.764536 0.552822
vt 0.759994 0.541473
vt 0.759693 0.547493
vt 0.759613 0.552074
vt 0.533796 0.010715
vt 0.344959 0.534559
vt 0.533918 0.014023
vt 0.349186 0.531956
vt 0.340944 0.539135
vt 0.763913 0.557377
vt 0.346039 0.537680
vt 0.528663 0.012117
vt 0.758848 0.555759
vt 0.529023 0.014799
vt 0.755389 0.553158
vt 0.329675 0.491842
vt 0.611666 0.321518
vt 0.577628 0.024809
vt 0.604877 0.305107
vt 0.335534 0.494350
vt 0.581352 0.014023
vt 0.608450 0.309885
vt 0.340536 0.495052
vt 0.610834 0.315649
vt 0.578596 0.018972
vt 0.577628 0.267260
vt 0.611344 0.548992
vt 0.592785 0.795635
vt 0.578596 0.273098
vt 0.610496 0.554075
vt 0.608099 0.557598
vt 0.581352 0.278046
vt 0.583462 0.786135
vt 0.587756 0.790566
vt 0.378994 0.307917
vt 0.603904 0.744901
vt 0.838980 0.561651
vt 0.615880 0.744347
vt 0.379262 0.305107
vt 0.613107 0.744635
vt 0.850846 0.561651
vt 0.384105 0.308016
vt 0.384535 0.305260
vt 0.614679 0.739226
vt 0.849646 0.567635
vt 0.847337 0.571663
vt 0.612431 0.739721
vt 0.611381 0.736971
vt 0.846381 0.570457
vt 0.603889 0.739829
vt 0.838870 0.572437
vt 0.603845 0.735395
vt 0.608902 0.744830
vt 0.609009 0.739618
vt 0.608712 0.736011
vt 0.843727 0.571661
vt 0.843963 0.561651
vt 0.388801 0.309650
vt 0.848130 0.561651
vt 0.838952 0.567490
vt 0.844054 0.567635
vt 0.847444 0.567331
vt 0.375437 0.456779
vt 0.838981 0.319201
vt 0.377601 0.476334
vt 0.380547 0.456879
vt 0.848130 0.319201
vt 0.385243 0.458513
vt 0.375533 0.461140
vt 0.380803 0.461472
vt 0.384627 0.462608
vt 0.847445 0.313520
vt 0.383753 0.465471
vt 0.838952 0.313364
vt 0.386774 0.472340
vt 0.838870 0.308414
vt 0.843963 0.319201
vt 0.844054 0.313217
vt 0.387516 0.465174
vt 0.843727 0.309191
vt 0.385241 0.468161
vt 0.376704 0.471722
vt 0.375978 0.466387
vt 0.382547 0.474943
vt 0.381754 0.470070
vt 0.380907 0.465769
vt 0.592785 0.744910
vt 0.648642 0.550959
vt 0.827864 0.561651
vt 0.587756 0.744846
vt 0.649193 0.559767
vt 0.583462 0.744658
vt 0.592769 0.739837
vt 0.587612 0.739635
vt 0.584118 0.739743
vt 0.654117 0.559065
vt 0.585136 0.736992
vt 0.656927 0.557722
vt 0.820144 0.570457
vt 0.653748 0.550880
vt 0.818494 0.561651
vt 0.658370 0.550129
vt 0.648781 0.556095
vt 0.654041 0.556087
vt 0.657801 0.555197
vt 0.819141 0.567331
vt 0.827836 0.567490
vt 0.592725 0.735403
vt 0.827754 0.572437
vt 0.822824 0.561651
vt 0.822664 0.567635
vt 0.587837 0.736027
vt 0.822858 0.571661
vt 0.379628 0.484982
vt 0.827865 0.319201
vt 0.648965 0.323486
vt 0.827632 0.305107
vt 0.384574 0.483593
vt 0.827754 0.308414
vt 0.388801 0.480988
vt 0.380559 0.488167
vt 0.650174 0.307497
vt 0.385655 0.486712
vt 0.822499 0.306509
vt 0.655237 0.309124
vt 0.658692 0.311729
vt 0.822859 0.309191
vt 0.820145 0.310394
vt 0.657273 0.313725
vt 0.822825 0.319201
vt 0.658692 0.322657
vt 0.818495 0.319201
vt 0.827836 0.313364
vt 0.822664 0.313217
vt 0.819141 0.313520
vt 0.658139 0.317064
vt 0.649119 0.317669
vt 0.649544 0.312054
vt 0.654070 0.323406
vt 0.654380 0.317387
vt 0.654466 0.312809
vt 0.882844 0.570270
vt 0.957417 0.305114
vt 0.152191 0.534541
vt 0.891975 0.570118
vt 0.948229 0.305107
vt 0.788318 0.713961
vt 0.872278 0.643266
vt 0.272284 0.534541
vt 0.881409 0.643114
vt 0.788318 0.593868
vt 0.957417 0.425196
vt 0.964538 0.932274
vt 0.152191 0.654633
vt 0.973641 0.932741
vt 0.948229 0.425189
vt 0.668275 0.713961
vt 0.964538 0.819599
vt 0.882844 0.738606
vt 0.272284 0.654633
vt 0.668275 0.593868
vt 0.891975 0.738455
vt 0.973641 0.820066
vt 0.224634 0.582191
vt 0.097956 0.888366
vt 0.922215 0.446665
vt 0.224634 0.606983
vt 0.078274 0.890548
vt 0.940635 0.883459
vt 0.199842 0.606983
vt 0.945475 0.446629
vt 0.113026 0.890548
vt 0.915845 0.883459
vt 0.199842 0.582191
vt 0.917608 0.510164
vt 0.073781 0.827221
vt 0.674458 0.867697
vt 0.704146 0.867697
vt 0.097360 0.824608
vt 0.913408 0.819601
vt 0.115413 0.827221
vt 0.704146 0.897398
vt 0.943106 0.819601
vt 0.945475 0.510121
vt 0.674458 0.897398
vt 0.880985 0.832699
vt 0.293717 0.953989
vt 0.663256 0.856628
vt 0.785913 0.861528
vt 0.876625 0.831071
vt 0.297885 0.953489
vt 0.736503 0.861528
vt 0.872278 0.791844
vt 0.876424 0.791546
vt 0.715070 0.856628
vt 0.736503 0.910940
vt 0.876625 0.761811
vt 0.130504 0.497077
vt 0.126188 0.495844
vt 0.715070 0.908466
vt 0.880985 0.760038
vt 0.663256 0.908466
vt 0.293717 0.905354
vt 0.126188 0.547676
vt 0.297885 0.907131
vt 0.785913 0.910940
vt 0.130504 0.546482
vt 0.887061 0.305664
vt 0.917609 0.425189
vt 0.010716 0.253284
vt 0.896177 0.305107
vt 0.926797 0.425196
vt 0.272284 0.253284
vt 0.872278 0.453907
vt 0.010716 0.010715
vt 0.881393 0.453350
vt 0.272284 0.010715
vt 0.917609 0.305108
vt 0.922511 0.570587
vt 0.130809 0.253284
vt 0.913408 0.570118
vt 0.926797 0.305115
vt 0.152242 0.253284
vt 0.922511 0.798168
vt 0.887061 0.548685
vt 0.130809 0.010715
vt 0.152242 0.010715
vt 0.896177 0.548128
vt 0.913408 0.797703
vt 0.058366 0.106962
vt 0.180583 0.881413
vt 0.342951 0.883922
vt 0.083159 0.106962
vt 0.161016 0.884465
vt 0.260987 0.881593
vt 0.083159 0.157040
vt 0.295967 0.883922
vt 0.236197 0.881593
vt 0.058366 0.157040
vt 0.211187 0.884465
vt 0.350002 0.820430
vt 0.152191 0.821247
vt 0.747706 0.757750
vt 0.777394 0.757750
vt 0.175631 0.817591
vt 0.212293 0.821247
vt 0.233726 0.817591
vt 0.777394 0.817739
vt 0.263424 0.817591
vt 0.293716 0.820430
vt 0.747706 0.817739
vt 0.989284 0.410006
vt 0.498363 0.663162
vt 0.736503 0.735394
vt 0.984932 0.407816
vt 0.715070 0.735394
vt 0.502531 0.661501
vt 0.665660 0.735394
vt 0.978849 0.368820
vt 0.982903 0.369095
vt 0.788318 0.735394
vt 0.502607 0.759110
vt 0.665660 0.835196
vt 0.984932 0.307829
vt 0.788318 0.840096
vt 0.989284 0.305107
vt 0.498363 0.757861
vt 0.736503 0.840096
vt 0.498363 0.564928
vt 0.498363 0.809693
vt 0.502531 0.567865
vt 0.715070 0.835196
vt 0.502607 0.808516
vt 0.883631 0.010868
vt 0.943944 0.690199
vt 0.293717 0.685023
vt 0.892762 0.010716
vt 0.953131 0.690206
vt 0.010716 0.569109
vt 0.873065 0.083864
vt 0.293717 0.564930
vt 0.882196 0.083713
vt 0.010716 0.689201
vt 0.943944 0.570117
vt 0.974528 0.242633
vt 0.413809 0.685023
vt 0.983631 0.243100
vt 0.953131 0.570125
vt 0.130759 0.569109
vt 0.974528 0.129959
vt 0.883631 0.179205
vt 0.413809 0.564930
vt 0.130759 0.689201
vt 0.892762 0.179053
vt 0.983631 0.130426
vt 0.341367 0.612580
vt 0.395609 0.884188
vt 0.918013 0.904927
vt 0.366159 0.612580
vt 0.375926 0.886370
vt 0.941422 0.074574
vt 0.366159 0.637372
vt 0.941274 0.904891
vt 0.410678 0.886370
vt 0.916632 0.074574
vt 0.341367 0.637372
vt 0.913408 0.968427
vt 0.371433 0.823043
vt 0.537953 0.860437
vt 0.567641 0.860437
vt 0.395012 0.820430
vt 0.914194 0.010716
vt 0.413065 0.823043
vt 0.567641 0.890138
vt 0.943892 0.010716
vt 0.941274 0.968384
vt 0.537953 0.890138
vt 0.412986 0.779116
vt 0.948112 0.711639
vt 0.526751 0.849369
vt 0.408627 0.777488
vt 0.867904 0.882632
vt 0.943944 0.712139
vt 0.818494 0.882632
vt 0.404279 0.738262
vt 0.408425 0.737964
vt 0.578565 0.849369
vt 0.502679 0.685829
vt 0.818494 0.932042
vt 0.408627 0.708229
vt 0.578565 0.901205
vt 0.412986 0.706456
vt 0.498363 0.684596
vt 0.526751 0.901205
vt 0.948112 0.760273
vt 0.498363 0.736428
vt 0.943944 0.758497
vt 0.867904 0.932042
vt 0.502679 0.735235
vt 0.146636 0.274869
vt 0.943908 0.250041
vt 0.526751 0.593870
vt 0.155767 0.274718
vt 0.953095 0.250048
vt 0.152191 0.676066
vt 0.136070 0.347866
vt 0.646843 0.593870
vt 0.145201 0.347714
vt 0.152191 0.796158
vt 0.943908 0.129959
vt 0.974564 0.682791
vt 0.526751 0.713962
vt 0.983667 0.683258
vt 0.953095 0.129966
vt 0.272234 0.676066
vt 0.974564 0.570117
vt 0.146636 0.443206
vt 0.646843 0.713962
vt 0.272234 0.796158
vt 0.155767 0.443054
vt 0.983667 0.570585
vt 0.599193 0.641520
vt 0.034891 0.888366
vt 0.238331 0.903062
vt 0.599193 0.666312
vt 0.015209 0.890548
vt 0.627225 0.913227
vt 0.574400 0.666312
vt 0.261592 0.903026
vt 0.049961 0.890548
vt 0.602435 0.913227
vt 0.574400 0.641520
vt 0.233726 0.966562
vt 0.010716 0.827221
vt 0.446444 0.851341
vt 0.476132 0.851341
vt 0.034295 0.824608
vt 0.599998 0.849369
vt 0.052348 0.827221
vt 0.476132 0.881042
vt 0.629696 0.849369
vt 0.261592 0.966518
vt 0.446444 0.881042
vt 0.129986 0.783294
vt 0.918362 0.096007
vt 0.435242 0.840273
vt 0.125626 0.781666
vt 0.922475 0.200638
vt 0.914194 0.096507
vt 0.873065 0.200638
vt 0.121279 0.742440
vt 0.125425 0.742141
vt 0.487056 0.840273
vt 0.641629 0.736627
vt 0.873065 0.250048
vt 0.125626 0.712406
vt 0.487056 0.892110
vt 0.129986 0.710634
vt 0.637313 0.735395
vt 0.435242 0.892110
vt 0.918362 0.144641
vt 0.637313 0.787226
vt 0.914194 0.142865
vt 0.922475 0.250048
vt 0.641629 0.786033
s 0
f 89/142/1 15/21/1 9/13/1
f 84/131/2 132/202/2 88/141/2
f 3/5/1 9/13/1 1/2/1
f 21/33/3 112/177/3 30/48/3
f 65/103/2 35/54/2 60/94/2
f 20/32/1 131/201/1 94/150/1
f 2/3/4 66/104/4 59/92/4
f 21/33/3 25/38/3 16/23/3
f 84/132/5 8/12/5 14/20/5
f 31/49/4 150/228/4 83/130/4
f 4/6/6 41/65/6 51/80/6
f 62/98/7 37/57/7 1/1/7
f 26/40/4 83/130/4 7/11/4
f 113/178/5 133/203/5 151/229/5
f 43/67/8 45/70/8 40/64/8
f 44/69/9 46/71/9 43/67/9
f 46/71/10 55/85/10 45/70/10
f 46/71/11 48/74/11 58/89/11
f 49/77/12 51/80/12 41/65/12
f 50/79/13 52/81/13 49/77/13
f 52/81/14 44/68/14 51/80/14
f 52/81/15 48/75/15 47/73/15
f 54/84/16 56/87/16 42/66/16
f 55/86/17 57/88/17 54/84/17
f 57/88/18 50/78/18 56/87/18
f 57/88/19 48/76/19 53/83/19
f 67/105/20 69/108/20 64/102/20
f 68/107/21 70/109/21 67/105/21
f 70/109/22 79/121/22 69/108/22
f 70/109/23 72/112/23 82/128/23
f 73/114/24 75/116/24 65/103/24
f 74/115/25 76/117/25 73/114/25
f 76/117/26 68/106/26 75/116/26
f 76/117/27 72/113/27 71/111/27
f 78/120/28 80/123/28 66/104/28
f 79/121/29 81/126/29 78/119/29
f 81/127/30 74/115/30 80/124/30
f 81/127/31 72/113/31 77/118/31
f 96/153/32 98/156/32 93/149/32
f 97/154/33 99/158/33 96/152/33
f 99/159/34 108/173/34 98/155/34
f 99/159/35 101/163/35 111/176/35
f 102/164/36 104/167/36 94/150/36
f 103/166/37 105/168/37 102/164/37
f 105/168/38 97/154/38 104/167/38
f 105/168/39 101/162/39 100/161/39
f 107/171/40 109/174/40 95/151/40
f 108/173/41 110/175/41 107/171/41
f 110/175/42 103/165/42 109/174/42
f 110/175/43 101/163/43 106/170/43
f 115/180/44 117/183/44 112/177/44
f 116/182/45 118/184/45 115/180/45
f 118/184/46 127/197/46 117/183/46
f 118/184/47 120/187/47 130/200/47
f 121/188/48 123/191/48 113/178/48
f 122/190/49 124/192/49 121/188/49
f 124/192/50 116/181/50 123/191/50
f 124/193/51 120/187/51 119/185/51
f 126/196/52 128/198/52 114/179/52
f 127/197/53 129/199/53 126/196/53
f 129/199/54 122/189/54 128/198/54
f 129/199/55 120/187/55 125/195/55
f 134/204/12 136/207/12 131/201/12
f 135/206/13 137/208/13 134/204/13
f 137/208/14 146/222/14 136/207/14
f 137/208/15 139/211/15 149/226/15
f 140/214/16 142/217/16 132/202/16
f 141/216/17 143/218/17 140/214/17
f 143/218/18 135/205/18 142/217/18
f 143/218/19 139/212/19 138/210/19
f 145/221/8 147/224/8 133/203/8
f 146/223/9 148/225/9 145/221/9
f 148/225/10 141/215/10 147/224/10
f 148/225/11 139/213/11 144/220/11
f 153/232/28 155/235/28 150/228/28
f 154/233/29 156/238/29 153/231/29
f 156/239/30 165/252/30 155/236/30
f 156/239/31 158/243/31 168/255/31
f 159/244/20 161/247/20 151/229/20
f 160/246/21 162/248/21 159/244/21
f 162/248/56 154/233/56 161/247/56
f 162/248/57 158/242/57 157/241/57
f 164/251/24 166/253/24 152/230/24
f 165/252/25 167/254/25 164/251/25
f 167/254/26 160/245/26 166/253/26
f 167/254/27 158/243/27 163/250/27
f 20/32/58 17/25/58 15/21/58
f 22/34/59 18/27/59 17/25/59
f 23/35/60 19/30/60 18/27/60
f 24/37/61 16/23/61 19/29/61
f 26/40/62 34/52/62 31/49/62
f 29/46/63 33/51/63 34/52/63
f 28/44/64 32/50/64 33/51/64
f 27/42/65 30/48/65 32/50/65
f 14/20/66 69/108/66 13/19/66
f 13/19/67 79/121/67 12/18/67
f 12/17/68 78/120/68 11/16/68
f 11/16/69 66/104/69 10/15/69
f 60/94/70 73/114/70 65/103/70
f 63/101/71 74/115/71 73/114/71
f 62/99/72 80/124/72 74/115/72
f 61/97/73 66/104/73 80/123/73
f 40/64/74 67/105/74 64/102/74
f 45/70/75 68/107/75 67/105/75
f 55/86/76 75/116/76 68/106/76
f 54/84/77 65/103/77 75/116/77
f 36/56/78 49/77/78 41/65/78
f 39/63/79 50/79/79 49/77/79
f 38/61/80 56/87/80 50/78/80
f 37/58/81 42/66/81 56/87/81
f 88/140/82 6/9/82 8/12/82
f 90/143/83 5/8/83 6/9/83
f 91/147/84 4/6/84 5/7/84
f 92/148/6 3/5/6 4/6/6
f 113/178/85 107/171/85 95/151/85
f 123/191/86 108/173/86 107/171/86
f 116/182/87 98/156/87 108/172/87
f 115/180/88 93/149/88 98/156/88
f 95/151/82 145/221/82 133/203/82
f 109/174/83 146/223/83 145/221/83
f 103/166/84 136/207/84 146/222/84
f 102/164/6 131/201/6 136/207/6
f 151/229/66 121/188/66 113/178/66
f 161/247/67 122/190/67 121/188/67
f 154/234/68 128/198/68 122/189/68
f 153/232/69 114/179/69 128/198/69
f 133/203/74 159/244/74 151/229/74
f 147/224/89 160/246/89 159/244/89
f 141/216/76 166/253/76 160/245/76
f 140/214/77 152/230/77 166/253/77
f 94/150/58 22/34/58 20/32/58
f 104/167/59 23/35/59 22/34/59
f 23/35/60 96/152/60 24/36/60
f 96/153/61 21/33/61 24/37/61
f 31/49/62 126/196/62 114/179/62
f 126/196/90 33/51/90 127/197/90
f 33/51/64 117/183/64 127/197/64
f 32/50/65 112/177/65 117/183/65
f 84/131/70 164/251/70 152/230/70
f 87/138/71 165/252/71 164/251/71
f 86/136/91 155/236/91 165/252/91
f 85/134/73 150/228/73 155/235/73
f 88/141/81 142/217/81 90/144/81
f 90/144/80 135/205/80 91/145/80
f 91/147/79 134/204/79 92/148/79
f 92/148/78 131/201/78 89/142/78
f 29/47/7 15/22/7 16/24/7
f 5/7/84 51/80/84 44/68/84
f 6/9/83 44/69/83 43/67/83
f 8/12/82 43/67/82 40/64/82
f 85/134/69 10/15/69 83/130/69
f 86/137/68 11/16/68 85/134/68
f 87/139/67 12/18/67 86/135/67
f 84/132/66 13/19/66 87/139/66
f 2/4/7 9/14/7 7/10/7
f 14/20/5 40/64/5 64/102/5
f 7/11/4 10/15/4 2/3/4
f 41/65/1 1/2/1 36/56/1
f 257/397/1 183/276/1 177/268/1
f 252/386/2 300/457/2 256/396/2
f 171/260/1 177/268/1 169/257/1
f 189/288/3 280/432/3 198/303/3
f 233/358/2 203/309/2 228/349/2
f 188/287/1 299/456/1 262/405/1
f 170/258/4 234/359/4 227/347/4
f 189/288/3 193/293/3 184/278/3
f 252/387/5 176/267/5 182/275/5
f 199/304/4 318/483/4 251/385/4
f 172/261/6 209/320/6 219/335/6
f 230/353/7 205/312/7 169/256/7
f 194/295/4 251/385/4 175/266/4
f 281/433/5 301/458/5 319/484/5
f 211/322/8 213/325/8 208/319/8
f 212/324/92 214/326/92 211/322/92
f 214/326/10 223/340/10 213/325/10
f 214/326/11 216/329/11 226/344/11
f 217/332/12 219/335/12 209/320/12
f 218/334/13 220/336/13 217/332/13
f 220/336/93 212/323/93 219/335/93
f 220/336/15 216/330/15 215/328/15
f 222/339/16 224/342/16 210/321/16
f 223/341/17 225/343/17 222/339/17
f 225/343/18 218/333/18 224/342/18
f 225/343/19 216/331/19 221/338/19
f 235/360/20 237/363/20 232/357/20
f 236/362/21 238/364/21 235/360/21
f 238/364/22 247/376/22 237/363/22
f 238/364/23 240/367/23 250/383/23
f 241/369/24 243/371/24 233/358/24
f 242/370/25 244/372/25 241/369/25
f 244/372/26 236/361/26 243/371/26
f 244/372/27 240/368/27 239/366/27
f 246/375/28 248/378/28 234/359/28
f 247/376/94 249/381/94 246/374/94
f 249/382/30 242/370/30 248/379/30
f 249/382/31 240/368/31 245/373/31
f 264/408/32 266/411/32 261/404/32
f 265/409/33 267/413/33 264/407/33
f 267/414/34 276/428/34 266/410/34
f 267/414/35 269/418/35 279/431/35
f 270/419/36 272/422/36 262/405/36
f 271/421/95 273/423/95 270/419/95
f 273/423/38 265/409/38 272/422/38
f 273/423/39 269/417/39 268/416/39
f 275/426/40 277/429/40 263/406/40
f 276/428/41 278/430/41 275/426/41
f 278/430/96 271/420/96 277/429/96
f 278/430/97 269/418/97 274/425/97
f 283/435/44 285/438/44 280/432/44
f 284/437/45 286/439/45 283/435/45
f 286/439/46 295/452/46 285/438/46
f 286/439/47 288/442/47 298/455/47
f 289/443/48 291/446/48 281/433/48
f 290/445/98 292/447/98 289/443/98
f 292/447/50 284/436/50 291/446/50
f 292/448/51 288/442/51 287/440/51
f 294/451/52 296/453/52 282/434/52
f 295/452/53 297/454/53 294/451/53
f 297/454/99 290/444/99 296/453/99
f 297/454/55 288/442/55 293/450/55
f 302/459/12 304/462/12 299/456/12
f 303/461/13 305/463/13 302/459/13
f 305/463/93 314/477/93 304/462/93
f 305/463/15 307/466/15 317/481/15
f 308/469/16 310/472/16 300/457/16
f 309/471/17 311/473/17 308/469/17
f 311/473/18 303/460/18 310/472/18
f 311/473/19 307/467/19 306/465/19
f 313/476/8 315/479/8 301/458/8
f 314/478/92 316/480/92 313/476/92
f 316/480/10 309/470/10 315/479/10
f 316/480/11 307/468/11 312/475/11
f 321/487/28 323/490/28 318/483/28
f 322/488/100 324/493/100 321/486/100
f 324/494/30 333/507/30 323/491/30
f 324/494/31 326/498/31 336/510/31
f 327/499/20 329/502/20 319/484/20
f 328/501/21 330/503/21 327/499/21
f 330/503/22 322/488/22 329/502/22
f 330/503/23 326/497/23 325/496/23
f 332/506/24 334/508/24 320/485/24
f 333/507/25 335/509/25 332/506/25
f 335/509/26 328/500/26 334/508/26
f 335/509/27 326/498/27 331/505/27
f 188/287/58 185/280/58 183/276/58
f 190/289/59 186/282/59 185/280/59
f 191/290/60 187/285/60 186/282/60
f 192/291/61 184/278/61 187/284/61
f 194/295/62 202/307/62 199/304/62
f 197/301/63 201/306/63 202/307/63
f 196/299/64 200/305/64 201/306/64
f 195/297/65 198/303/65 200/305/65
f 182/275/66 237/363/66 181/274/66
f 181/274/67 247/376/67 180/273/67
f 180/272/68 246/375/68 179/271/68
f 179/271/69 234/359/69 178/270/69
f 228/349/70 241/369/70 233/358/70
f 231/356/71 242/370/71 241/369/71
f 230/354/91 248/379/91 242/370/91
f 229/352/73 234/359/73 248/378/73
f 208/319/74 235/360/74 232/357/74
f 213/325/75 236/362/75 235/360/75
f 223/341/76 243/371/76 236/361/76
f 222/339/77 233/358/77 243/371/77
f 204/311/78 217/332/78 209/320/78
f 207/318/79 218/334/79 217/332/79
f 206/316/80 224/342/80 218/333/80
f 205/313/81 210/321/81 224/342/81
f 256/395/82 174/264/82 176/267/82
f 258/398/83 173/263/83 174/264/83
f 259/402/84 172/261/84 173/262/84
f 260/403/6 171/260/6 172/261/6
f 281/433/85 275/426/85 263/406/85
f 291/446/86 276/428/86 275/426/86
f 284/437/87 266/411/87 276/427/87
f 283/435/88 261/404/88 266/411/88
f 263/406/82 313/476/82 301/458/82
f 277/429/83 314/478/83 313/476/83
f 271/421/84 304/462/84 314/477/84
f 270/419/6 299/456/6 304/462/6
f 319/484/66 289/443/66 281/433/66
f 329/502/67 290/445/67 289/443/67
f 322/489/68 296/453/68 290/444/68
f 296/453/69 318/483/69 282/434/69
f 301/458/74 327/499/74 319/484/74
f 315/479/89 328/501/89 327/499/89
f 309/471/76 334/508/76 328/500/76
f 308/469/77 320/485/77 334/508/77
f 262/405/58 190/289/58 188/287/58
f 272/422/59 191/290/59 190/289/59
f 265/409/60 192/292/60 191/290/60
f 264/408/61 189/288/61 192/291/61
f 199/304/62 294/451/62 282/434/62
f 202/307/63 295/452/63 294/451/63
f 201/306/64 285/438/64 295/452/64
f 200/305/65 280/432/65 285/438/65
f 252/386/70 332/506/70 320/485/70
f 255/393/71 333/507/71 332/506/71
f 254/391/72 323/491/72 333/507/72
f 253/389/73 318/483/73 323/490/73
f 256/396/81 310/472/81 258/399/81
f 258/399/80 303/460/80 259/400/80
f 259/402/79 302/459/79 260/403/79
f 260/403/78 299/456/78 257/397/78
f 197/302/7 183/277/7 184/279/7
f 173/262/84 219/335/84 212/323/84
f 174/264/83 212/324/83 211/322/83
f 176/267/82 211/322/82 208/319/82
f 253/389/69 178/270/69 251/385/69
f 254/392/68 179/271/68 253/389/68
f 255/394/67 180/273/67 254/390/67
f 252/387/66 181/274/66 255/394/66
f 170/259/7 177/269/7 175/265/7
f 182/275/5 208/319/5 232/357/5
f 175/266/4 178/270/4 170/258/4
f 209/320/1 169/257/1 204/311/1
f 425/652/1 351/531/1 345/523/1
f 420/641/2 468/712/2 424/651/2
f 339/515/1 345/523/1 337/512/1
f 357/543/3 448/687/3 366/558/3
f 401/613/2 371/564/2 396/604/2
f 356/542/1 467/711/1 430/660/1
f 338/513/4 402/614/4 395/602/4
f 357/543/3 361/548/3 352/533/3
f 420/642/5 344/522/5 350/530/5
f 367/559/4 486/738/4 419/640/4
f 340/516/6 377/575/6 387/590/6
f 398/608/7 373/567/7 337/511/7
f 362/550/4 419/640/4 343/521/4
f 449/688/5 469/713/5 487/739/5
f 379/577/8 381/580/8 376/574/8
f 380/579/92 382/581/92 379/577/92
f 382/581/10 391/595/10 381/580/10
f 382/581/11 384/584/11 394/599/11
f 385/587/12 387/590/12 377/575/12
f 386/589/101 388/591/101 385/587/101
f 388/591/14 380/578/14 387/590/14
f 388/591/15 384/585/15 383/583/15
f 390/594/16 392/597/16 378/576/16
f 391/596/17 393/598/17 390/594/17
f 393/598/18 386/588/18 392/597/18
f 393/598/102 384/586/102 389/593/102
f 403/615/20 405/618/20 400/612/20
f 404/617/21 406/619/21 403/615/21
f 406/619/22 415/631/22 405/618/22
f 406/619/23 408/622/23 418/638/23
f 409/624/24 411/626/24 401/613/24
f 410/625/25 412/627/25 409/624/25
f 412/627/26 404/616/26 411/626/26
f 412/627/27 408/623/27 407/621/27
f 414/630/28 416/633/28 402/614/28
f 415/631/94 417/636/94 414/629/94
f 417/637/30 410/625/30 416/634/30
f 417/637/31 408/623/31 413/628/31
f 432/663/32 434/666/32 429/659/32
f 433/664/33 435/668/33 432/662/33
f 435/669/34 444/683/34 434/665/34
f 435/669/103 437/673/103 447/686/103
f 438/674/36 440/677/36 430/660/36
f 439/676/37 441/678/37 438/674/37
f 441/678/104 433/664/104 440/677/104
f 441/678/39 437/672/39 436/671/39
f 443/681/40 445/684/40 431/661/40
f 444/683/41 446/685/41 443/681/41
f 446/685/96 439/675/96 445/684/96
f 446/685/105 437/673/105 442/680/105
f 451/690/44 453/693/44 448/687/44
f 452/692/45 454/694/45 451/690/45
f 454/694/46 463/707/46 453/693/46
f 454/694/47 456/697/47 466/710/47
f 457/698/48 459/701/48 449/688/48
f 458/700/98 460/702/98 457/698/98
f 460/702/50 452/691/50 459/701/50
f 460/703/51 456/697/51 455/695/51
f 462/706/52 464/708/52 450/689/52
f 463/707/106 465/709/106 462/706/106
f 465/709/54 458/699/54 464/708/54
f 465/709/55 456/697/55 461/705/55
f 470/714/12 472/717/12 467/711/12
f 471/716/101 473/718/101 470/714/101
f 473/718/14 482/732/14 472/717/14
f 473/718/15 475/721/15 485/736/15
f 476/724/16 478/727/16 468/712/16
f 477/726/17 479/728/17 476/724/17
f 479/728/18 471/715/18 478/727/18
f 479/728/102 475/722/102 474/720/102
f 481/731/8 483/734/8 469/713/8
f 482/733/92 484/735/92 481/731/92
f 484/735/10 477/725/10 483/734/10
f 484/735/11 475/723/11 480/730/11
f 489/742/28 491/745/28 486/738/28
f 490/743/29 492/748/29 489/741/29
f 492/749/107 501/762/107 491/746/107
f 492/749/31 494/753/31 504/765/31
f 495/754/20 497/757/20 487/739/20
f 496/756/21 498/758/21 495/754/21
f 498/758/22 490/743/22 497/757/22
f 498/758/23 494/752/23 493/751/23
f 500/761/24 502/763/24 488/740/24
f 501/762/25 503/764/25 500/761/25
f 503/764/26 496/755/26 502/763/26
f 503/764/27 494/753/27 499/760/27
f 356/542/58 353/535/58 351/531/58
f 358/544/59 354/537/59 353/535/59
f 359/545/60 355/540/60 354/537/60
f 360/546/61 352/533/61 355/539/61
f 362/550/62 370/562/62 367/559/62
f 365/556/63 369/561/63 370/562/63
f 364/554/64 368/560/64 369/561/64
f 363/552/65 366/558/65 368/560/65
f 350/530/66 405/618/66 349/529/66
f 349/529/67 415/631/67 348/528/67
f 348/527/68 414/630/68 347/526/68
f 347/526/69 402/614/69 346/525/69
f 396/604/70 409/624/70 401/613/70
f 399/611/71 410/625/71 409/624/71
f 398/609/91 416/634/91 410/625/91
f 397/607/73 402/614/73 416/633/73
f 376/574/74 403/615/74 400/612/74
f 381/580/75 404/617/75 403/615/75
f 391/596/76 411/626/76 404/616/76
f 411/626/77 378/576/77 401/613/77
f 372/566/78 385/587/78 377/575/78
f 375/573/79 386/589/79 385/587/79
f 374/571/80 392/597/80 386/588/80
f 373/568/81 378/576/81 392/597/81
f 424/650/82 342/519/82 344/522/82
f 426/653/83 341/518/83 342/519/83
f 427/657/84 340/516/84 341/517/84
f 428/658/6 339/515/6 340/516/6
f 431/661/85 459/701/85 443/681/85
f 459/701/108 444/683/108 443/681/108
f 452/692/87 434/666/87 444/682/87
f 451/690/88 429/659/88 434/666/88
f 431/661/82 481/731/82 469/713/82
f 445/684/83 482/733/83 481/731/83
f 439/676/84 472/717/84 482/732/84
f 438/674/6 467/711/6 472/717/6
f 487/739/66 457/698/66 449/688/66
f 497/757/67 458/700/67 457/698/67
f 490/744/68 464/708/68 458/699/68
f 489/742/69 450/689/69 464/708/69
f 469/713/74 495/754/74 487/739/74
f 483/734/75 496/756/75 495/754/75
f 477/726/76 502/763/76 496/755/76
f 502/763/77 468/712/77 488/740/77
f 430/660/58 358/544/58 356/542/58
f 440/677/59 359/545/59 358/544/59
f 433/664/60 360/547/60 359/545/60
f 432/663/61 357/543/61 360/546/61
f 367/559/62 462/706/62 450/689/62
f 370/562/63 463/707/63 462/706/63
f 369/561/64 453/693/64 463/707/64
f 368/560/65 448/687/65 453/693/65
f 420/641/70 500/761/70 488/740/70
f 423/648/71 501/762/71 500/761/71
f 422/646/91 491/746/91 501/762/91
f 421/644/73 486/738/73 491/745/73
f 424/651/81 478/727/81 426/654/81
f 426/654/80 471/715/80 427/655/80
f 427/657/79 470/714/79 428/658/79
f 428/658/78 467/711/78 425/652/78
f 365/557/7 351/532/7 352/534/7
f 341/517/84 387/590/84 380/578/84
f 342/519/83 380/579/83 379/577/83
f 344/522/82 379/577/82 376/574/82
f 421/644/69 346/525/69 419/640/69
f 422/647/68 347/526/68 421/644/68
f 423/649/67 348/528/67 422/645/67
f 420/642/66 349/529/66 423/649/66
f 338/514/7 345/524/7 343/520/7
f 350/530/5 376/574/5 400/612/5
f 343/521/4 346/525/4 338/513/4
f 377/575/1 337/512/1 372/566/1
f 506/769/3 507/772/3 505/766/3
f 508/774/4 511/783/4 507/772/4
f 512/787/2 509/777/2 511/782/2
f 510/780/1 505/767/1 509/776/1
f 516/797/109 520/807/109 515/793/109
f 508/775/5 510/781/5 512/785/5
f 511/784/7 513/788/7 507/773/7
f 509/778/7 514/791/7 511/784/7
f 509/778/7 516/798/7 515/794/7
f 507/773/7 516/798/7 505/768/7
f 518/802/110 526/824/110 519/806/110
f 513/789/111 519/805/111 516/796/111
f 515/795/112 517/799/112 514/790/112
f 514/792/113 518/803/113 513/789/113
f 520/809/114 521/812/114 517/801/114
f 522/813/7 525/820/7 523/816/7
f 519/806/115 527/826/115 520/809/115
f 522/814/116 524/818/116 521/810/116
f 525/821/117 524/818/117 523/817/117
f 522/815/118 527/827/118 528/829/118
f 525/822/119 527/828/119 526/823/119
f 517/801/120 524/819/120 518/802/120
f 530/835/3 531/838/3 529/832/3
f 532/840/4 535/849/4 531/838/4
f 536/853/2 533/843/2 535/848/2
f 534/846/1 529/833/1 533/842/1
f 540/862/121 544/873/121 539/859/121
f 532/841/5 534/847/5 536/851/5
f 535/850/7 537/854/7 531/839/7
f 535/850/7 539/860/7 538/857/7
f 529/834/7 539/860/7 533/844/7
f 531/839/7 540/863/7 529/834/7
f 542/868/110 550/889/110 543/872/110
f 540/864/111 542/869/111 543/870/111
f 539/861/112 541/865/112 538/856/112
f 538/858/122 542/869/122 537/855/122
f 541/867/114 551/892/114 545/878/114
f 546/880/7 549/887/7 547/882/7
f 543/872/123 551/892/123 544/875/123
f 547/883/124 545/876/124 546/879/124
f 549/888/117 548/884/117 547/883/117
f 546/881/118 551/893/118 552/895/118
f 552/897/125 550/891/125 549/886/125
f 541/867/126 548/885/126 542/868/126
f 554/901/3 555/904/3 553/898/3
f 556/906/4 559/915/4 555/904/4
f 560/919/2 557/909/2 559/914/2
f 558/912/1 553/899/1 557/908/1
f 564/929/109 568/939/109 563/925/109
f 556/907/5 558/913/5 560/917/5
f 559/916/7 561/920/7 555/905/7
f 557/910/7 562/923/7 559/916/7
f 557/910/7 564/930/7 563/926/7
f 555/905/7 564/930/7 553/900/7
f 566/934/110 574/955/110 567/938/110
f 561/921/111 567/937/111 564/928/111
f 563/927/112 565/931/112 562/922/112
f 562/924/113 566/935/113 561/921/113
f 565/933/114 575/958/114 569/944/114
f 570/946/7 573/953/7 571/948/7
f 567/938/115 575/958/115 568/941/115
f 571/949/116 569/942/116 570/945/116
f 573/954/117 572/950/117 571/949/117
f 570/947/118 575/959/118 576/961/118
f 576/963/119 574/957/119 573/952/119
f 565/933/120 572/951/120 566/934/120
f 578/967/3 579/970/3 577/964/3
f 580/972/4 583/981/4 579/970/4
f 584/985/2 581/975/2 583/980/2
f 582/978/1 577/965/1 581/974/1
f 588/995/109 592/1005/109 587/991/109
f 580/973/5 582/979/5 584/983/5
f 583/982/7 585/986/7 579/971/7
f 581/976/7 586/989/7 583/982/7
f 577/966/7 587/992/7 581/976/7
f 579/971/7 588/996/7 577/966/7
f 590/1000/110 598/1021/110 591/1004/110
f 585/987/111 591/1003/111 588/994/111
f 587/993/112 589/997/112 586/988/112
f 586/990/113 590/1001/113 585/987/113
f 592/1007/114 593/1010/114 589/999/114
f 594/1012/7 597/1019/7 595/1014/7
f 591/1004/115 599/1024/115 592/1007/115
f 595/1015/116 593/1008/116 594/1011/116
f 597/1020/117 596/1016/117 595/1015/117
f 594/1013/118 599/1025/118 600/1027/118
f 600/1029/119 598/1023/119 597/1018/119
f 589/999/120 596/1017/120 590/1000/120
f 89/142/1 20/32/1 15/21/1
f 84/131/2 152/230/2 132/202/2
f 3/5/1 89/142/1 9/13/1
f 21/33/3 93/149/3 112/177/3
f 65/103/2 42/66/2 35/54/2
f 20/32/1 89/142/1 131/201/1
f 2/3/4 10/15/4 66/104/4
f 21/33/3 30/48/3 25/38/3
f 84/132/5 88/140/5 8/12/5
f 31/49/4 114/179/4 150/228/4
f 4/6/6 3/5/6 41/65/6
f 1/1/7 2/4/7 59/91/7
f 59/91/7 61/95/7 62/98/7
f 62/98/7 63/100/7 60/93/7
f 60/93/7 35/53/7 37/57/7
f 37/57/7 38/59/7 39/62/7
f 39/62/7 36/55/7 1/1/7
f 1/1/7 59/91/7 62/98/7
f 62/98/7 60/93/7 37/57/7
f 37/57/7 39/62/7 1/1/7
f 26/40/4 31/49/4 83/130/4
f 113/178/5 95/151/5 133/203/5
f 43/67/127 46/71/127 45/70/127
f 44/69/128 47/72/128 46/71/128
f 46/71/129 58/89/129 55/85/129
f 46/71/130 47/72/130 48/74/130
f 49/77/131 52/81/131 51/80/131
f 50/79/132 53/82/132 52/81/132
f 52/81/133 47/73/133 44/68/133
f 52/81/134 53/82/134 48/75/134
f 54/84/135 57/88/135 56/87/135
f 55/86/136 58/90/136 57/88/136
f 57/88/137 53/83/137 50/78/137
f 57/88/138 58/90/138 48/76/138
f 67/105/139 70/109/139 69/108/139
f 68/107/140 71/110/140 70/109/140
f 70/109/141 82/128/141 79/121/141
f 70/109/142 71/110/142 72/112/142
f 73/114/143 76/117/143 75/116/143
f 74/115/144 77/118/144 76/117/144
f 76/117/145 71/111/145 68/106/145
f 76/117/146 77/118/146 72/113/146
f 78/120/147 81/125/147 80/123/147
f 79/121/148 82/128/148 81/126/148
f 81/127/149 77/118/149 74/115/149
f 81/127/150 82/129/150 72/113/150
f 96/153/151 99/157/151 98/156/151
f 97/154/152 100/161/152 99/158/152
f 99/159/153 111/176/153 108/173/153
f 99/159/154 100/160/154 101/163/154
f 102/164/155 105/168/155 104/167/155
f 103/166/156 106/169/156 105/168/156
f 105/168/157 100/161/157 97/154/157
f 105/168/158 106/169/158 101/162/158
f 107/171/159 110/175/159 109/174/159
f 108/173/160 111/176/160 110/175/160
f 110/175/161 106/170/161 103/165/161
f 110/175/162 111/176/162 101/163/162
f 115/180/163 118/184/163 117/183/163
f 116/182/164 119/185/164 118/184/164
f 118/184/165 130/200/165 127/197/165
f 118/184/166 119/185/166 120/187/166
f 121/188/167 124/192/167 123/191/167
f 122/190/168 125/194/168 124/192/168
f 124/192/169 119/186/169 116/181/169
f 124/193/170 125/195/170 120/187/170
f 126/196/171 129/199/171 128/198/171
f 127/197/172 130/200/172 129/199/172
f 129/199/173 125/195/173 122/189/173
f 129/199/174 130/200/174 120/187/174
f 134/204/131 137/208/131 136/207/131
f 135/206/132 138/209/132 137/208/132
f 137/208/133 149/226/133 146/222/133
f 137/208/134 138/209/134 139/211/134
f 140/214/135 143/218/135 142/217/135
f 141/216/136 144/219/136 143/218/136
f 143/218/137 138/210/137 135/205/137
f 143/218/138 144/219/138 139/212/138
f 145/221/127 148/225/127 147/224/127
f 146/223/128 149/227/128 148/225/128
f 148/225/129 144/220/129 141/215/129
f 148/225/130 149/227/130 139/213/130
f 153/232/147 156/237/147 155/235/147
f 154/233/148 157/241/148 156/238/148
f 156/239/149 168/255/149 165/252/149
f 156/239/150 157/240/150 158/243/150
f 159/244/175 162/248/175 161/247/175
f 160/246/140 163/249/140 162/248/140
f 162/248/141 157/241/141 154/233/141
f 162/248/142 163/249/142 158/242/142
f 164/251/143 167/254/143 166/253/143
f 165/252/144 168/255/144 167/254/144
f 167/254/145 163/250/145 160/245/145
f 167/254/146 168/255/146 158/243/146
f 20/32/58 22/34/58 17/25/58
f 22/34/59 23/35/59 18/27/59
f 23/35/60 24/36/60 19/30/60
f 24/37/61 21/33/61 16/23/61
f 26/40/62 29/46/62 34/52/62
f 29/46/63 28/44/63 33/51/63
f 28/44/64 27/42/64 32/50/64
f 27/42/65 25/38/65 30/48/65
f 14/20/66 64/102/66 69/108/66
f 13/19/67 69/108/67 79/121/67
f 12/17/68 79/122/68 78/120/68
f 11/16/69 78/120/69 66/104/69
f 60/94/70 63/101/70 73/114/70
f 63/101/71 62/99/71 74/115/71
f 62/99/91 61/96/91 80/124/91
f 61/97/73 59/92/73 66/104/73
f 40/64/74 45/70/74 67/105/74
f 45/70/75 55/85/75 68/107/75
f 55/86/76 54/84/76 75/116/76
f 54/84/77 42/66/77 65/103/77
f 36/56/78 39/63/78 49/77/78
f 39/63/79 38/60/79 50/79/79
f 38/61/80 37/58/80 56/87/80
f 37/58/81 35/54/81 42/66/81
f 88/140/82 90/143/82 6/9/82
f 90/143/83 91/146/83 5/8/83
f 91/147/84 92/148/84 4/6/84
f 92/148/6 89/142/6 3/5/6
f 113/178/85 123/191/85 107/171/85
f 123/191/108 116/181/108 108/173/108
f 116/182/87 115/180/87 98/156/87
f 115/180/88 112/177/88 93/149/88
f 95/151/82 109/174/82 145/221/82
f 109/174/83 103/165/83 146/223/83
f 103/166/84 102/164/84 136/207/84
f 102/164/6 94/150/6 131/201/6
f 151/229/66 161/247/66 121/188/66
f 161/247/67 154/233/67 122/190/67
f 154/234/68 153/232/68 128/198/68
f 153/232/69 150/228/69 114/179/69
f 133/203/74 147/224/74 159/244/74
f 147/224/75 141/215/75 160/246/75
f 141/216/76 140/214/76 166/253/76
f 140/214/77 132/202/77 152/230/77
f 94/150/58 104/167/58 22/34/58
f 104/167/59 97/154/59 23/35/59
f 23/35/60 97/154/60 96/152/60
f 96/153/61 93/149/61 21/33/61
f 31/49/62 34/52/62 126/196/62
f 126/196/63 34/52/63 33/51/63
f 33/51/64 32/50/64 117/183/64
f 32/50/65 30/48/65 112/177/65
f 84/131/70 87/138/70 164/251/70
f 87/138/71 86/136/71 165/252/71
f 86/136/91 85/133/91 155/236/91
f 85/134/73 83/130/73 150/228/73
f 88/141/81 132/202/81 142/217/81
f 90/144/80 142/217/80 135/205/80
f 91/147/79 135/206/79 134/204/79
f 92/148/78 134/204/78 131/201/78
f 16/24/7 25/39/7 27/43/7
f 27/43/7 28/45/7 29/47/7
f 29/47/7 26/41/7 7/10/7
f 7/10/7 9/14/7 15/22/7
f 15/22/7 17/26/7 18/28/7
f 18/28/7 19/31/7 16/24/7
f 16/24/7 27/43/7 29/47/7
f 29/47/7 7/10/7 15/22/7
f 15/22/7 18/28/7 16/24/7
f 5/7/84 4/6/84 51/80/84
f 6/9/83 5/8/83 44/69/83
f 8/12/82 6/9/82 43/67/82
f 85/134/69 11/16/69 10/15/69
f 86/137/68 12/17/68 11/16/68
f 87/139/67 13/19/67 12/18/67
f 84/132/66 14/20/66 13/19/66
f 2/4/7 1/1/7 9/14/7
f 14/20/5 8/12/5 40/64/5
f 7/11/4 83/130/4 10/15/4
f 41/65/1 3/5/1 1/2/1
f 257/397/1 188/287/1 183/276/1
f 252/386/2 320/485/2 300/457/2
f 171/260/1 257/397/1 177/268/1
f 189/288/3 261/404/3 280/432/3
f 233/358/2 210/321/2 203/309/2
f 188/287/1 257/397/1 299/456/1
f 170/258/4 178/270/4 234/359/4
f 189/288/3 198/303/3 193/293/3
f 252/387/5 256/395/5 176/267/5
f 199/304/4 282/434/4 318/483/4
f 172/261/6 171/260/6 209/320/6
f 169/256/7 170/259/7 227/346/7
f 227/346/7 229/350/7 230/353/7
f 230/353/7 231/355/7 228/348/7
f 228/348/7 203/308/7 205/312/7
f 205/312/7 206/314/7 207/317/7
f 207/317/7 204/310/7 169/256/7
f 169/256/7 227/346/7 230/353/7
f 230/353/7 228/348/7 205/312/7
f 205/312/7 207/317/7 169/256/7
f 194/295/4 199/304/4 251/385/4
f 281/433/5 263/406/5 301/458/5
f 211/322/127 214/326/127 213/325/127
f 212/324/128 215/327/128 214/326/128
f 214/326/129 226/344/129 223/340/129
f 214/326/176 215/327/176 216/329/176
f 217/332/131 220/336/131 219/335/131
f 218/334/132 221/337/132 220/336/132
f 220/336/133 215/328/133 212/323/133
f 220/336/134 221/337/134 216/330/134
f 222/339/135 225/343/135 224/342/135
f 223/341/136 226/345/136 225/343/136
f 225/343/177 221/338/177 218/333/177
f 225/343/138 226/345/138 216/331/138
f 235/360/175 238/364/175 237/363/175
f 236/362/140 239/365/140 238/364/140
f 238/364/141 250/383/141 247/376/141
f 238/364/142 239/365/142 240/367/142
f 241/369/143 244/372/143 243/371/143
f 242/370/144 245/373/144 244/372/144
f 244/372/145 239/366/145 236/361/145
f 244/372/146 245/373/146 240/368/146
f 246/375/147 249/380/147 248/378/147
f 247/376/148 250/383/148 249/381/148
f 249/382/149 245/373/149 242/370/149
f 249/382/150 250/384/150 240/368/150
f 264/408/151 267/412/151 266/411/151
f 265/409/152 268/416/152 267/413/152
f 267/414/153 279/431/153 276/428/153
f 267/414/154 268/415/154 269/418/154
f 270/419/155 273/423/155 272/422/155
f 271/421/156 274/424/156 273/423/156
f 273/423/157 268/416/157 265/409/157
f 273/423/158 274/424/158 269/417/158
f 275/426/159 278/430/159 277/429/159
f 276/428/160 279/431/160 278/430/160
f 278/430/161 274/425/161 271/420/161
f 278/430/162 279/431/162 269/418/162
f 283/435/163 286/439/163 285/438/163
f 284/437/164 287/440/164 286/439/164
f 286/439/165 298/455/165 295/452/165
f 286/439/166 287/440/166 288/442/166
f 289/443/167 292/447/167 291/446/167
f 290/445/168 293/449/168 292/447/168
f 292/447/169 287/441/169 284/436/169
f 292/448/170 293/450/170 288/442/170
f 294/451/171 297/454/171 296/453/171
f 295/452/172 298/455/172 297/454/172
f 297/454/173 293/450/173 290/444/173
f 297/454/174 298/455/174 288/442/174
f 302/459/131 305/463/131 304/462/131
f 303/461/132 306/464/132 305/463/132
f 305/463/133 317/481/133 314/477/133
f 305/463/134 306/464/134 307/466/134
f 308/469/135 311/473/135 310/472/135
f 309/471/136 312/474/136 311/473/136
f 311/473/137 306/465/137 303/460/137
f 311/473/138 312/474/138 307/467/138
f 313/476/127 316/480/127 315/479/127
f 314/478/128 317/482/128 316/480/128
f 316/480/129 312/475/129 309/470/129
f 316/480/178 317/482/178 307/468/178
f 321/487/147 324/492/147 323/490/147
f 322/488/148 325/496/148 324/493/148
f 324/494/149 336/510/149 333/507/149
f 324/494/150 325/495/150 326/498/150
f 327/499/139 330/503/139 329/502/139
f 328/501/140 331/504/140 330/503/140
f 330/503/141 325/496/141 322/488/141
f 330/503/142 331/504/142 326/497/142
f 332/506/143 335/509/143 334/508/143
f 333/507/144 336/510/144 335/509/144
f 335/509/145 331/505/145 328/500/145
f 335/509/146 336/510/146 326/498/146
f 188/287/58 190/289/58 185/280/58
f 190/289/59 191/290/59 186/282/59
f 191/290/60 192/292/60 187/285/60
f 192/291/61 189/288/61 184/278/61
f 194/295/62 197/301/62 202/307/62
f 197/301/63 196/299/63 201/306/63
f 196/299/64 195/297/64 200/305/64
f 195/297/65 193/293/65 198/303/65
f 182/275/66 232/357/66 237/363/66
f 181/274/67 237/363/67 247/376/67
f 180/272/68 247/377/68 246/375/68
f 179/271/69 246/375/69 234/359/69
f 228/349/70 231/356/70 241/369/70
f 231/356/71 230/354/71 242/370/71
f 230/354/91 229/351/91 248/379/91
f 229/352/73 227/347/73 234/359/73
f 208/319/74 213/325/74 235/360/74
f 213/325/75 223/340/75 236/362/75
f 223/341/76 222/339/76 243/371/76
f 222/339/77 210/321/77 233/358/77
f 204/311/78 207/318/78 217/332/78
f 207/318/79 206/315/79 218/334/79
f 206/316/80 205/313/80 224/342/80
f 205/313/81 203/309/81 210/321/81
f 256/395/82 258/398/82 174/264/82
f 258/398/83 259/401/83 173/263/83
f 259/402/84 260/403/84 172/261/84
f 260/403/6 257/397/6 171/260/6
f 281/433/85 291/446/85 275/426/85
f 291/446/108 284/436/108 276/428/108
f 284/437/87 283/435/87 266/411/87
f 283/435/88 280/432/88 261/404/88
f 263/406/82 277/429/82 313/476/82
f 277/429/83 271/420/83 314/478/83
f 271/421/84 270/419/84 304/462/84
f 270/419/6 262/405/6 299/456/6
f 319/484/66 329/502/66 289/443/66
f 329/502/67 322/488/67 290/445/67
f 322/489/68 321/487/68 296/453/68
f 296/453/69 321/487/69 318/483/69
f 301/458/74 315/479/74 327/499/74
f 315/479/75 309/470/75 328/501/75
f 309/471/76 308/469/76 334/508/76
f 308/469/77 300/457/77 320/485/77
f 262/405/58 272/422/58 190/289/58
f 272/422/59 265/409/59 191/290/59
f 265/409/60 264/407/60 192/292/60
f 264/408/61 261/404/61 189/288/61
f 199/304/62 202/307/62 294/451/62
f 202/307/63 201/306/63 295/452/63
f 201/306/64 200/305/64 285/438/64
f 200/305/65 198/303/65 280/432/65
f 252/386/70 255/393/70 332/506/70
f 255/393/71 254/391/71 333/507/71
f 254/391/91 253/388/91 323/491/91
f 253/389/73 251/385/73 318/483/73
f 256/396/81 300/457/81 310/472/81
f 258/399/80 310/472/80 303/460/80
f 259/402/79 303/461/79 302/459/79
f 260/403/78 302/459/78 299/456/78
f 184/279/7 193/294/7 195/298/7
f 195/298/7 196/300/7 197/302/7
f 197/302/7 194/296/7 175/265/7
f 175/265/7 177/269/7 183/277/7
f 183/277/7 185/281/7 186/283/7
f 186/283/7 187/286/7 184/279/7
f 184/279/7 195/298/7 197/302/7
f 197/302/7 175/265/7 183/277/7
f 183/277/7 186/283/7 184/279/7
f 173/262/84 172/261/84 219/335/84
f 174/264/83 173/263/83 212/324/83
f 176/267/82 174/264/82 211/322/82
f 253/389/69 179/271/69 178/270/69
f 254/392/68 180/272/68 179/271/68
f 255/394/67 181/274/67 180/273/67
f 252/387/66 182/275/66 181/274/66
f 170/259/7 169/256/7 177/269/7
f 182/275/5 176/267/5 208/319/5
f 175/266/4 251/385/4 178/270/4
f 209/320/1 171/260/1 169/257/1
f 425/652/1 356/542/1 351/531/1
f 420/641/2 488/740/2 468/712/2
f 339/515/1 425/652/1 345/523/1
f 357/543/3 429/659/3 448/687/3
f 401/613/2 378/576/2 371/564/2
f 356/542/1 425/652/1 467/711/1
f 338/513/4 346/525/4 402/614/4
f 357/543/3 366/558/3 361/548/3
f 420/642/5 424/650/5 344/522/5
f 367/559/4 450/689/4 486/738/4
f 340/516/6 339/515/6 377/575/6
f 337/511/7 338/514/7 395/601/7
f 395/601/7 397/605/7 398/608/7
f 398/608/7 399/610/7 396/603/7
f 396/603/7 371/563/7 373/567/7
f 373/567/7 374/569/7 375/572/7
f 375/572/7 372/565/7 337/511/7
f 337/511/7 395/601/7 398/608/7
f 398/608/7 396/603/7 373/567/7
f 373/567/7 375/572/7 337/511/7
f 362/550/4 367/559/4 419/640/4
f 449/688/5 431/661/5 469/713/5
f 379/577/179 382/581/179 381/580/179
f 380/579/128 383/582/128 382/581/128
f 382/581/129 394/599/129 391/595/129
f 382/581/180 383/582/180 384/584/180
f 385/587/131 388/591/131 387/590/131
f 386/589/132 389/592/132 388/591/132
f 388/591/133 383/583/133 380/578/133
f 388/591/134 389/592/134 384/585/134
f 390/594/135 393/598/135 392/597/135
f 391/596/181 394/600/181 393/598/181
f 393/598/137 389/593/137 386/588/137
f 393/598/182 394/600/182 384/586/182
f 403/615/175 406/619/175 405/618/175
f 404/617/140 407/620/140 406/619/140
f 406/619/141 418/638/141 415/631/141
f 406/619/142 407/620/142 408/622/142
f 409/624/143 412/627/143 411/626/143
f 410/625/144 413/628/144 412/627/144
f 412/627/145 407/621/145 404/616/145
f 412/627/146 413/628/146 408/623/146
f 414/630/147 417/635/147 416/633/147
f 415/631/148 418/638/148 417/636/148
f 417/637/149 413/628/149 410/625/149
f 417/637/150 418/639/150 408/623/150
f 432/663/183 435/667/183 434/666/183
f 433/664/152 436/671/152 435/668/152
f 435/669/184 447/686/184 444/683/184
f 435/669/185 436/670/185 437/673/185
f 438/674/155 441/678/155 440/677/155
f 439/676/186 442/679/186 441/678/186
f 441/678/157 436/671/157 433/664/157
f 441/678/158 442/679/158 437/672/158
f 443/681/187 446/685/187 445/684/187
f 444/683/160 447/686/160 446/685/160
f 446/685/161 442/680/161 439/675/161
f 446/685/162 447/686/162 437/673/162
f 451/690/163 454/694/163 453/693/163
f 452/692/164 455/695/164 454/694/164
f 454/694/165 466/710/165 463/707/165
f 454/694/166 455/695/166 456/697/166
f 457/698/167 460/702/167 459/701/167
f 458/700/168 461/704/168 460/702/168
f 460/702/169 455/696/169 452/691/169
f 460/703/170 461/705/170 456/697/170
f 462/706/171 465/709/171 464/708/171
f 463/707/172 466/710/172 465/709/172
f 465/709/173 461/705/173 458/699/173
f 465/709/174 466/710/174 456/697/174
f 470/714/131 473/718/131 472/717/131
f 471/716/132 474/719/132 473/718/132
f 473/718/133 485/736/133 482/732/133
f 473/718/188 474/719/188 475/721/188
f 476/724/135 479/728/135 478/727/135
f 477/726/136 480/729/136 479/728/136
f 479/728/137 474/720/137 471/715/137
f 479/728/138 480/729/138 475/722/138
f 481/731/127 484/735/127 483/734/127
f 482/733/128 485/737/128 484/735/128
f 484/735/129 480/730/129 477/725/129
f 484/735/180 485/737/180 475/723/180
f 489/742/147 492/747/147 491/745/147
f 490/743/148 493/751/148 492/748/148
f 492/749/149 504/765/149 501/762/149
f 492/749/150 493/750/150 494/753/150
f 495/754/175 498/758/175 497/757/175
f 496/756/140 499/759/140 498/758/140
f 498/758/141 493/751/141 490/743/141
f 498/758/142 499/759/142 494/752/142
f 500/761/143 503/764/143 502/763/143
f 501/762/144 504/765/144 503/764/144
f 503/764/145 499/760/145 496/755/145
f 503/764/146 504/765/146 494/753/146
f 356/542/58 358/544/58 353/535/58
f 358/544/59 359/545/59 354/537/59
f 359/545/60 360/547/60 355/540/60
f 360/546/61 357/543/61 352/533/61
f 362/550/62 365/556/62 370/562/62
f 365/556/63 364/554/63 369/561/63
f 364/554/64 363/552/64 368/560/64
f 363/552/65 361/548/65 366/558/65
f 350/530/66 400/612/66 405/618/66
f 349/529/67 405/618/67 415/631/67
f 348/527/68 415/632/68 414/630/68
f 347/526/69 414/630/69 402/614/69
f 396/604/70 399/611/70 409/624/70
f 399/611/71 398/609/71 410/625/71
f 398/609/91 397/606/91 416/634/91
f 397/607/73 395/602/73 402/614/73
f 376/574/74 381/580/74 403/615/74
f 381/580/75 391/595/75 404/617/75
f 391/596/76 390/594/76 411/626/76
f 411/626/77 390/594/77 378/576/77
f 372/566/78 375/573/78 385/587/78
f 375/573/79 374/570/79 386/589/79
f 374/571/80 373/568/80 392/597/80
f 373/568/81 371/564/81 378/576/81
f 424/650/82 426/653/82 342/519/82
f 426/653/83 427/656/83 341/518/83
f 427/657/84 428/658/84 340/516/84
f 428/658/6 425/652/6 339/515/6
f 431/661/85 449/688/85 459/701/85
f 459/701/86 452/691/86 444/683/86
f 452/692/87 451/690/87 434/666/87
f 451/690/88 448/687/88 429/659/88
f 431/661/82 445/684/82 481/731/82
f 445/684/83 439/675/83 482/733/83
f 439/676/84 438/674/84 472/717/84
f 438/674/6 430/660/6 467/711/6
f 487/739/66 497/757/66 457/698/66
f 497/757/67 490/743/67 458/700/67
f 490/744/68 489/742/68 464/708/68
f 489/742/69 486/738/69 450/689/69
f 469/713/74 483/734/74 495/754/74
f 483/734/89 477/725/89 496/756/89
f 477/726/76 476/724/76 502/763/76
f 502/763/77 476/724/77 468/712/77
f 430/660/58 440/677/58 358/544/58
f 440/677/59 433/664/59 359/545/59
f 433/664/60 432/662/60 360/547/60
f 432/663/61 429/659/61 357/543/61
f 367/559/62 370/562/62 462/706/62
f 370/562/63 369/561/63 463/707/63
f 369/561/64 368/560/64 453/693/64
f 368/560/65 366/558/65 448/687/65
f 420/641/70 423/648/70 500/761/70
f 423/648/71 422/646/71 501/762/71
f 422/646/91 421/643/91 491/746/91
f 421/644/73 419/640/73 486/738/73
f 424/651/81 468/712/81 478/727/81
f 426/654/80 478/727/80 471/715/80
f 427/657/79 471/716/79 470/714/79
f 428/658/78 470/714/78 467/711/78
f 352/534/7 361/549/7 363/553/7
f 363/553/7 364/555/7 365/557/7
f 365/557/7 362/551/7 343/520/7
f 343/520/7 345/524/7 351/532/7
f 351/532/7 353/536/7 354/538/7
f 354/538/7 355/541/7 352/534/7
f 352/534/7 363/553/7 365/557/7
f 365/557/7 343/520/7 351/532/7
f 351/532/7 354/538/7 352/534/7
f 341/517/84 340/516/84 387/590/84
f 342/519/83 341/518/83 380/579/83
f 344/522/82 342/519/82 379/577/82
f 421/644/69 347/526/69 346/525/69
f 422/647/68 348/527/68 347/526/68
f 423/649/67 349/529/67 348/528/67
f 420/642/66 350/530/66 349/529/66
f 338/514/7 337/511/7 345/524/7
f 350/530/5 344/522/5 376/574/5
f 343/521/4 419/640/4 346/525/4
f 377/575/1 339/515/1 337/512/1
f 506/769/3 508/774/3 507/772/3
f 508/774/4 512/786/4 511/783/4
f 512/787/2 510/779/2 509/777/2
f 510/780/1 506/770/1 505/767/1
f 516/797/109 519/804/109 520/807/109
f 508/775/5 506/771/5 510/781/5
f 511/784/7 514/791/7 513/788/7
f 509/778/7 515/794/7 514/791/7
f 509/778/7 505/768/7 516/798/7
f 507/773/7 513/788/7 516/798/7
f 518/802/110 524/819/110 526/824/110
f 513/789/111 518/803/111 519/805/111
f 515/795/112 520/808/112 517/799/112
f 514/792/113 517/800/113 518/803/113
f 520/809/114 527/826/114 521/812/114
f 522/813/7 528/830/7 525/820/7
f 519/806/115 526/824/115 527/826/115
f 522/814/116 523/817/116 524/818/116
f 525/821/117 526/825/117 524/818/117
f 522/815/118 521/811/118 527/827/118
f 525/822/119 528/831/119 527/828/119
f 517/801/120 521/812/120 524/819/120
f 530/835/3 532/840/3 531/838/3
f 532/840/4 536/852/4 535/849/4
f 536/853/2 534/845/2 533/843/2
f 534/846/1 530/836/1 529/833/1
f 540/862/121 543/871/121 544/873/121
f 532/841/5 530/837/5 534/847/5
f 535/850/7 538/857/7 537/854/7
f 535/850/7 533/844/7 539/860/7
f 529/834/7 540/863/7 539/860/7
f 531/839/7 537/854/7 540/863/7
f 542/868/110 548/885/110 550/889/110
f 540/864/111 537/855/111 542/869/111
f 539/861/112 544/874/112 541/865/112
f 538/858/122 541/866/122 542/869/122
f 541/867/114 544/875/114 551/892/114
f 546/880/7 552/896/7 549/887/7
f 543/872/123 550/889/123 551/892/123
f 547/883/124 548/884/124 545/876/124
f 549/888/117 550/890/117 548/884/117
f 546/881/118 545/877/118 551/893/118
f 552/897/125 551/894/125 550/891/125
f 541/867/126 545/878/126 548/885/126
f 554/901/3 556/906/3 555/904/3
f 556/906/4 560/918/4 559/915/4
f 560/919/2 558/911/2 557/909/2
f 558/912/1 554/902/1 553/899/1
f 564/929/109 567/936/109 568/939/109
f 556/907/5 554/903/5 558/913/5
f 559/916/7 562/923/7 561/920/7
f 557/910/7 563/926/7 562/923/7
f 557/910/7 553/900/7 564/930/7
f 555/905/7 561/920/7 564/930/7
f 566/934/110 572/951/110 574/955/110
f 561/921/111 566/935/111 567/937/111
f 563/927/112 568/940/112 565/931/112
f 562/924/113 565/932/113 566/935/113
f 565/933/114 568/941/114 575/958/114
f 570/946/7 576/962/7 573/953/7
f 567/938/115 574/955/115 575/958/115
f 571/949/116 572/950/116 569/942/116
f 573/954/117 574/956/117 572/950/117
f 570/947/118 569/943/118 575/959/118
f 576/963/119 575/960/119 574/957/119
f 565/933/120 569/944/120 572/951/120
f 578/967/3 580/972/3 579/970/3
f 580/972/4 584/984/4 583/981/4
f 584/985/2 582/977/2 581/975/2
f 582/978/1 578/968/1 577/965/1
f 588/995/109 591/1002/109 592/1005/109
f 580/973/5 578/969/5 582/979/5
f 583/982/7 586/989/7 585/986/7
f 581/976/7 587/992/7 586/989/7
f 577/966/7 588/996/7 587/992/7
f 579/971/7 585/986/7 588/996/7
f 590/1000/110 596/1017/110 598/1021/110
f 585/987/111 590/1001/111 591/1003/111
f 587/993/112 592/1006/112 589/997/112
f 586/990/113 589/998/113 590/1001/113
f 592/1007/114 599/1024/114 593/1010/114
f 594/1012/7 600/1028/7 597/1019/7
f 591/1004/115 598/1021/115 599/1024/115
f 595/1015/116 596/1016/116 593/1008/116
f 597/1020/117 598/1022/117 596/1016/117
f 594/1013/118 593/1009/118 599/1025/118
f 600/1029/119 599/1026/119 598/1023/119
f 589/999/120 593/1010/120 596/1017/120
