# Blender 3.3.1
# www.blender.org
o table_3_5.001
v 0.065118 0.002807 2.871823
v -10.259311 0.002807 2.871824
v 0.065118 1.650931 3.160300
v 0.021200 1.906643 3.049904
v -0.103867 2.123424 2.956316
v -0.291044 2.268273 2.893782
v -10.259311 0.002807 3.832281
v -0.511835 2.319137 2.871823
v 0.065118 0.002807 3.832281
v -10.259311 1.650931 3.160300
v -10.215393 1.906643 3.049905
v -10.090325 2.123424 2.956316
v -9.903149 2.268273 2.893783
v -9.682358 2.319137 2.871824
v 0.065118 0.002807 4.899003
v -0.511834 0.002807 5.475955
v 0.021200 0.002807 5.119793
v -0.103867 0.002807 5.306970
v -0.291044 0.002807 5.432037
v 0.065118 2.319137 4.899003
v -0.511834 2.319137 5.475955
v 0.021200 2.319137 5.119793
v -0.103867 2.319137 5.306970
v -0.291044 2.319137 5.432037
v -9.682358 0.002807 5.475955
v -10.259311 0.002807 4.899003
v -9.903149 0.002807 5.432038
v -10.090326 0.002807 5.306970
v -10.215393 0.002807 5.119793
v -9.682358 2.319137 5.475955
v -10.259311 2.319137 4.899003
v -9.903149 2.319137 5.432038
v -10.090326 2.319137 5.306970
v -10.215393 2.319137 5.119793
v -0.511835 0.002807 1.334414
v 0.065118 0.002807 1.911366
v -0.291044 0.002807 1.378331
v -0.103867 0.002807 1.503399
v 0.021200 0.002807 1.690576
v -0.511835 2.319137 1.911366
v 0.065118 1.650931 1.911366
v -0.511835 1.650931 1.334414
v -0.291044 2.268273 1.911366
v -0.103867 2.123424 1.911366
v -0.511834 2.268273 1.690576
v -0.285511 2.206886 1.685043
v -0.133206 2.089444 1.696526
v -0.178730 2.036720 1.578262
v 0.021201 1.650931 1.690576
v -0.103867 1.650931 1.503399
v 0.021201 1.906642 1.911366
v -0.031803 1.913051 1.685043
v -0.133206 1.899751 1.532738
v -0.511834 1.906642 1.378331
v -0.511834 2.123424 1.503399
v -0.291044 1.650931 1.378331
v -0.285511 1.913051 1.431335
v -0.296994 2.089444 1.532738
v -10.259311 0.002807 1.911366
v -9.682358 0.002807 1.334414
v -10.215393 0.002807 1.690576
v -10.090326 0.002807 1.503399
v -9.903149 0.002807 1.378332
v -9.682358 2.319137 1.911366
v -9.682358 1.650931 1.334414
v -10.259311 1.650931 1.911366
v -9.682358 2.268273 1.690576
v -9.682358 2.123424 1.503399
v -9.903149 2.268273 1.911366
v -9.908682 2.206886 1.685043
v -9.897198 2.089444 1.532739
v -10.015462 2.036720 1.578263
v -9.903149 1.650931 1.378332
v -10.090325 1.650931 1.503399
v -9.682358 1.906642 1.378332
v -9.908682 1.913051 1.431335
v -10.060986 1.899751 1.532739
v -10.215393 1.906642 1.911366
v -10.090325 2.123424 1.911366
v -10.215393 1.650931 1.690576
v -10.162390 1.913051 1.685043
v -10.060986 2.089444 1.696526
v -10.259311 1.650931 4.409234
v -9.682358 2.319137 3.832281
v -10.215393 1.906643 4.188444
v -10.090326 2.123424 4.001266
v -9.903149 2.268273 3.876199
v -0.511834 2.319137 3.832281
v 0.065118 1.650931 4.409233
v -0.291044 2.268273 3.876199
v -0.103867 2.123424 4.001266
v 0.021200 1.906643 4.188443
v -0.511834 4.242581 5.475955
v 0.065118 4.242581 4.899003
v -0.511834 4.910788 4.899003
v -0.291044 4.242581 5.432037
v -0.103867 4.242581 5.306970
v -0.511834 4.498293 5.432037
v -0.285511 4.504701 5.379034
v -0.133206 4.491402 5.277630
v -0.178730 4.628370 5.232106
v 0.021201 4.498293 4.899003
v -0.103867 4.715075 4.899003
v 0.021201 4.242581 5.119793
v -0.031803 4.504701 5.125326
v -0.133206 4.681095 5.113843
v -0.511834 4.859924 5.119793
v -0.511834 4.715075 5.306970
v -0.291044 4.859924 4.899003
v -0.285511 4.798537 5.125326
v -0.296994 4.681095 5.277630
v -9.682358 4.242581 5.475955
v -9.682358 4.910788 4.899003
v -10.259311 4.242581 4.899003
v -9.682358 4.498293 5.432038
v -9.682358 4.715075 5.306970
v -9.903149 4.242581 5.432038
v -9.908682 4.504701 5.379034
v -9.897198 4.681095 5.277631
v -10.015462 4.628370 5.232107
v -9.903149 4.859924 4.899003
v -10.090325 4.715075 4.899003
v -9.682358 4.859924 5.119793
v -9.908682 4.798537 5.125327
v -10.060986 4.681095 5.113843
v -10.215393 4.242581 5.119793
v -10.090325 4.242581 5.306970
v -10.215393 4.498293 4.899003
v -10.162390 4.504701 5.125327
v -10.060986 4.491402 5.277631
v 0.065118 4.242581 4.409233
v -0.511834 4.242581 3.832281
v -0.511834 4.910788 4.409233
v 0.021201 4.242581 4.188443
v -0.103867 4.242581 4.001266
v 0.021201 4.498293 4.409233
v -0.031803 4.504701 4.182910
v -0.133206 4.491402 4.030605
v -0.178730 4.628370 4.076129
v -0.511834 4.498293 3.876199
v -0.511834 4.715075 4.001266
v -0.291044 4.242581 3.876199
v -0.285511 4.504701 3.929202
v -0.296994 4.681095 4.030605
v -0.291044 4.859924 4.409233
v -0.103867 4.715075 4.409233
v -0.511834 4.859924 4.188443
v -0.285511 4.798537 4.182910
v -0.133206 4.681095 4.194393
v -10.259311 4.242581 4.409234
v -9.682358 4.910788 4.409234
v -9.682358 4.242581 3.832281
v -10.215393 4.498293 4.409234
v -10.090326 4.715075 4.409234
v -10.215393 4.242581 4.188444
v -10.162390 4.504701 4.182910
v -10.060987 4.681095 4.194394
v -10.015463 4.628370 4.076130
v -9.682359 4.859924 4.188444
v -9.682359 4.715075 4.001266
v -9.903149 4.859924 4.409234
v -9.908682 4.798537 4.182910
v -9.897199 4.681095 4.030606
v -9.903149 4.242581 3.876199
v -10.090326 4.242581 4.001266
v -9.682359 4.498293 3.876199
v -9.908682 4.504701 3.929203
v -10.060987 4.491402 4.030606
v -14.075181 3.741603 1.710481
v -14.075181 4.211004 1.710481
v -14.075181 3.741603 -3.578494
v -14.075181 4.211004 -3.578494
v -8.786206 3.741603 1.710480
v -8.786206 4.211004 1.710480
v -8.786206 3.741603 -3.578495
v -8.786206 4.211004 -3.578495
v -11.976633 3.741603 -1.479946
v -10.884754 3.741603 -1.479946
v -10.884754 3.741603 -0.388068
v -11.976633 3.741603 -0.388068
v -10.776680 0.486218 -1.588021
v -12.084707 0.486218 -1.588021
v -12.084707 0.486218 -0.279993
v -10.776680 0.486218 -0.279994
v -10.289234 0.239819 -2.075467
v -10.342657 0.015714 -2.022044
v -12.518730 0.015714 -2.022044
v -12.572153 0.239819 -2.075467
v -12.518730 0.015714 0.154030
v -12.572153 0.239819 0.207453
v -10.289234 0.239819 0.207453
v -10.342657 0.015714 0.154030
v -7.406453 3.741603 1.710480
v -7.406453 4.211004 1.710480
v -7.406453 3.741603 -3.578495
v -7.406453 4.211004 -3.578495
v 0.073608 3.741603 1.710480
v 0.073608 4.211004 1.710480
v 0.073607 3.741603 -3.578495
v 0.073607 4.211004 -3.578495
v -4.438530 3.741603 -1.479946
v -2.894316 3.741603 -1.479946
v -2.894316 3.741603 -0.388069
v -4.438530 3.741603 -0.388068
v -2.741468 0.486218 -1.588021
v -4.591377 0.486218 -1.588021
v -4.591377 0.486218 -0.279994
v -2.741468 0.486218 -0.279994
v -2.052086 0.239819 -2.075467
v -2.127640 0.015714 -2.022045
v -5.205205 0.015714 -2.022044
v -5.280760 0.239819 -2.075467
v -5.205205 0.015714 0.154030
v -5.280760 0.239819 0.207452
v -2.052086 0.239819 0.207452
v -2.127640 0.015714 0.154029
v -21.183319 3.741603 1.710481
v -21.183319 4.211004 1.710481
v -21.183319 3.741603 -3.578494
v -21.183319 4.211004 -3.578494
v -15.894345 3.741603 1.710481
v -15.894345 4.211004 1.710481
v -15.894345 3.741603 -3.578494
v -15.894345 4.211004 -3.578494
v -19.084770 3.741603 -1.479946
v -17.992893 3.741603 -1.479946
v -17.992893 3.741603 -0.388068
v -19.084770 3.741603 -0.388068
v -17.884819 0.486218 -1.588020
v -19.192846 0.486218 -1.588020
v -19.192846 0.486218 -0.279993
v -17.884819 0.486218 -0.279993
v -17.397373 0.239819 -2.075467
v -17.450794 0.015714 -2.022044
v -19.626869 0.015714 -2.022044
v -19.680292 0.239819 -2.075467
v -19.626869 0.015714 0.154030
v -19.680292 0.239819 0.207453
v -17.397373 0.239819 0.207453
v -17.450794 0.015714 0.154030
v -10.274412 0.002807 2.871824
v -21.225090 0.002807 2.871824
v -10.274412 1.650931 3.160300
v -10.320993 1.906643 3.049905
v -10.453648 2.123424 2.956316
v -10.652178 2.268273 2.893783
v -21.225090 0.002807 3.832282
v -10.886361 2.319137 2.871824
v -10.274412 0.002807 3.832281
v -21.225090 1.650931 3.160300
v -21.178509 1.906643 3.049905
v -21.045856 2.123424 2.956317
v -20.847324 2.268273 2.893783
v -20.613144 2.319137 2.871824
v -10.274412 0.002807 4.899003
v -10.886361 0.002807 5.475955
v -10.320993 0.002807 5.119793
v -10.453648 0.002807 5.306970
v -10.652178 0.002807 5.432038
v -10.274412 2.319137 4.899003
v -10.886361 2.319137 5.475955
v -10.320993 2.319137 5.119793
v -10.453648 2.319137 5.306970
v -10.652178 2.319137 5.432038
v -20.613144 0.002807 5.475956
v -21.225090 0.002807 4.899004
v -20.847324 0.002807 5.432038
v -21.045856 0.002807 5.306971
v -21.178509 0.002807 5.119794
v -20.613144 2.319137 5.475956
v -21.225090 2.319137 4.899004
v -20.847324 2.319137 5.432038
v -21.045856 2.319137 5.306971
v -21.178509 2.319137 5.119794
v -10.886361 0.002807 1.334414
v -10.274412 0.002807 1.911366
v -10.652178 0.002807 1.378332
v -10.453648 0.002807 1.503399
v -10.320993 0.002807 1.690576
v -10.886361 2.319137 1.911366
v -10.274412 1.650931 1.911366
v -10.886361 1.650931 1.334414
v -10.652178 2.268273 1.911366
v -10.453648 2.123424 1.911366
v -10.886360 2.268273 1.690576
v -10.646309 2.206886 1.685043
v -10.484766 2.089444 1.696526
v -10.533052 2.036720 1.578263
v -10.320993 1.650931 1.690576
v -10.453648 1.650931 1.503399
v -10.320993 1.906642 1.911366
v -10.377213 1.913051 1.685043
v -10.484766 1.899751 1.532739
v -10.886360 1.906642 1.378332
v -10.886360 2.123424 1.503399
v -10.652178 1.650931 1.378332
v -10.646309 1.913051 1.431335
v -10.658489 2.089444 1.532739
v -21.225090 0.002807 1.911367
v -20.613144 0.002807 1.334414
v -21.178509 0.002807 1.690577
v -21.045856 0.002807 1.503400
v -20.847324 0.002807 1.378332
v -20.613144 2.319137 1.911367
v -20.613144 1.650931 1.334414
v -21.225090 1.650931 1.911367
v -20.613144 2.268273 1.690577
v -20.613144 2.123424 1.503400
v -20.847324 2.268273 1.911367
v -20.853195 2.206886 1.685044
v -20.841015 2.089444 1.532739
v -20.966450 2.036720 1.578263
v -20.847324 1.650931 1.378332
v -21.045856 1.650931 1.503400
v -20.613144 1.906642 1.378332
v -20.853195 1.913051 1.431336
v -21.014736 1.899751 1.532739
v -21.178509 1.906642 1.911367
v -21.045856 2.123424 1.911367
v -21.178509 1.650931 1.690577
v -21.122292 1.913051 1.685044
v -21.014736 2.089444 1.696527
v -21.225090 1.650931 4.409234
v -20.613144 2.319137 3.832282
v -21.178509 1.906643 4.188444
v -21.045856 2.123424 4.001267
v -20.847324 2.268273 3.876199
v -10.886361 2.319137 3.832281
v -10.274412 1.650931 4.409234
v -10.652178 2.268273 3.876199
v -10.453648 2.123424 4.001266
v -10.320993 1.906643 4.188444
v -10.886361 4.242581 5.475955
v -10.274412 4.242581 4.899003
v -10.886361 4.910788 4.899003
v -10.652178 4.242581 5.432038
v -10.453648 4.242581 5.306970
v -10.886360 4.498293 5.432038
v -10.646309 4.504701 5.379034
v -10.484766 4.491402 5.277631
v -10.533052 4.628370 5.232107
v -10.320993 4.498293 4.899003
v -10.453648 4.715075 4.899003
v -10.320993 4.242581 5.119793
v -10.377213 4.504701 5.125327
v -10.484766 4.681095 5.113843
v -10.886360 4.859924 5.119793
v -10.886360 4.715075 5.306970
v -10.652178 4.859924 4.899003
v -10.646309 4.798537 5.125327
v -10.658489 4.681095 5.277631
v -20.613144 4.242581 5.475956
v -20.613144 4.910788 4.899004
v -21.225090 4.242581 4.899004
v -20.613144 4.498293 5.432038
v -20.613144 4.715075 5.306971
v -20.847324 4.242581 5.432038
v -20.853195 4.504701 5.379035
v -20.841015 4.681095 5.277631
v -20.966450 4.628370 5.232107
v -20.847324 4.859924 4.899004
v -21.045856 4.715075 4.899004
v -20.613144 4.859924 5.119794
v -20.853195 4.798537 5.125327
v -21.014736 4.681095 5.113844
v -21.178509 4.242581 5.119794
v -21.045856 4.242581 5.306971
v -21.178509 4.498293 4.899004
v -21.122292 4.504701 5.125327
v -21.014736 4.491402 5.277631
v -10.274412 4.242581 4.409234
v -10.886361 4.242581 3.832281
v -10.886361 4.910788 4.409234
v -10.320993 4.242581 4.188444
v -10.453648 4.242581 4.001266
v -10.320993 4.498293 4.409234
v -10.377213 4.504701 4.182910
v -10.484766 4.491402 4.030606
v -10.533052 4.628370 4.076130
v -10.886360 4.498293 3.876199
v -10.886360 4.715075 4.001266
v -10.652178 4.242581 3.876199
v -10.646309 4.504701 3.929203
v -10.658489 4.681095 4.030606
v -10.652178 4.859924 4.409234
v -10.453648 4.715075 4.409234
v -10.886360 4.859924 4.188444
v -10.646309 4.798537 4.182910
v -10.484766 4.681095 4.194394
v -21.225090 4.242581 4.409234
v -20.613144 4.910788 4.409234
v -20.613144 4.242581 3.832282
v -21.178509 4.498293 4.409234
v -21.045856 4.715075 4.409234
v -21.178509 4.242581 4.188444
v -21.122292 4.504701 4.182911
v -21.014736 4.681095 4.194394
v -20.966454 4.628370 4.076130
v -20.613144 4.859924 4.188444
v -20.613144 4.715075 4.001267
v -20.847324 4.859924 4.409234
v -20.853195 4.798537 4.182911
v -20.841015 4.681095 4.030606
v -20.847324 4.242581 3.876199
v -21.045856 4.242581 4.001267
v -20.613144 4.498293 3.876199
v -20.853195 4.504701 3.929203
v -21.014736 4.491402 4.030606
vn 1.0000 -0.0000 -0.0000
vn -0.0000 -0.0000 -1.0000
vn -0.0000 -0.0000 1.0000
vn -1.0000 -0.0000 -0.0000
vn -0.0000 1.0000 -0.0000
vn 0.9856 0.1693 -0.0000
vn -0.0000 -1.0000 -0.0000
vn 0.2190 0.9508 -0.2190
vn 0.6002 0.7756 -0.1957
vn 0.1957 0.7756 -0.6002
vn 0.5074 0.6635 -0.5498
vn 0.9672 0.1661 -0.1924
vn 0.8215 0.1545 -0.5489
vn 0.8512 0.4911 -0.1854
vn 0.7417 0.4583 -0.4898
vn 0.1924 0.1661 -0.9672
vn 0.1854 0.4911 -0.8512
vn 0.5489 0.1545 -0.8215
vn 0.5279 0.4207 -0.7378
vn -0.2190 0.9508 -0.2190
vn -0.1957 0.7756 -0.6002
vn -0.6002 0.7756 -0.1957
vn -0.5499 0.6634 -0.5074
vn -0.1924 0.1661 -0.9672
vn -0.5489 0.1545 -0.8215
vn -0.1854 0.4911 -0.8512
vn -0.4898 0.4583 -0.7417
vn -0.9672 0.1661 -0.1924
vn -0.8512 0.4911 -0.1854
vn -0.8215 0.1545 -0.5489
vn -0.7378 0.4207 -0.5279
vn 0.1924 0.1661 0.9672
vn 0.5489 0.1545 0.8215
vn 0.1854 0.4911 0.8512
vn 0.4898 0.4583 0.7417
vn 0.9672 0.1661 0.1924
vn 0.8512 0.4911 0.1854
vn 0.8215 0.1545 0.5489
vn 0.7378 0.4207 0.5279
vn 0.2190 0.9508 0.2190
vn 0.1957 0.7756 0.6002
vn 0.6002 0.7756 0.1957
vn 0.5498 0.6635 0.5074
vn -0.1924 0.1661 0.9672
vn -0.1854 0.4911 0.8512
vn -0.5489 0.1545 0.8215
vn -0.5279 0.4207 0.7378
vn -0.2190 0.9508 0.2190
vn -0.6002 0.7756 0.1957
vn -0.1957 0.7756 0.6002
vn -0.5074 0.6635 0.5498
vn -0.9672 0.1661 0.1924
vn -0.8215 0.1545 0.5489
vn -0.8512 0.4911 0.1854
vn -0.7417 0.4583 0.4898
vn -0.5498 0.6635 -0.5074
vn 0.9808 -0.0000 0.1951
vn 0.8315 -0.0000 0.5556
vn 0.5556 -0.0000 0.8315
vn 0.1951 -0.0000 0.9808
vn -0.9808 -0.0000 0.1951
vn -0.8315 -0.0000 0.5556
vn -0.5556 -0.0000 0.8315
vn -0.1951 -0.0000 0.9808
vn -0.2245 0.9745 -0.0000
vn -0.6120 0.7909 -0.0000
vn -0.8662 0.4997 -0.0000
vn -0.9856 0.1693 -0.0000
vn -0.1951 -0.0000 -0.9808
vn -0.5556 -0.0000 -0.8315
vn -0.8315 -0.0000 -0.5556
vn -0.9808 -0.0000 -0.1951
vn -0.0000 0.9745 -0.2245
vn -0.0000 0.7909 -0.6120
vn -0.0000 0.4997 -0.8662
vn -0.0000 0.1693 -0.9856
vn 0.9808 -0.0000 -0.1951
vn 0.8315 -0.0000 -0.5556
vn 0.5556 -0.0000 -0.8315
vn 0.1951 -0.0000 -0.9808
vn 0.2245 0.9745 -0.0000
vn 0.6120 0.7909 -0.0000
vn 0.8662 0.4997 -0.0000
vn -0.0000 0.9745 0.2245
vn -0.0000 0.7909 0.6120
vn -0.0000 0.4997 0.8662
vn -0.0000 0.1693 0.9856
vn -0.6120 0.7908 -0.0000
vn -0.0000 0.0332 0.9994
vn -0.4511 0.8925 -0.0000
vn -0.9994 0.0332 -0.0000
vn 0.9994 0.0332 -0.0000
vn -0.0000 0.0332 -0.9994
vn 0.4511 0.8925 -0.0000
vn -0.0000 0.8925 0.4511
vn -0.0000 -0.2319 -0.9727
vn -0.9727 -0.2319 -0.0000
vn 0.9727 -0.2319 -0.0000
vn -0.0000 -0.2319 0.9727
vn -0.0000 0.8925 -0.4511
vn -0.3366 0.9417 -0.0000
vn -0.9989 0.0469 -0.0000
vn 0.9989 0.0469 -0.0000
vn 0.3366 0.9417 -0.0000
vn -0.9476 -0.3195 -0.0000
vn 0.9476 -0.3195 -0.0000
vn 0.9838 0.1792 -0.0000
vn 0.2071 0.9534 -0.2196
vn 0.5775 0.7916 -0.1997
vn 0.1849 0.7772 -0.6015
vn 0.4854 0.6732 -0.5579
vn 0.9633 0.1755 -0.2032
vn 0.8053 0.1607 -0.5707
vn 0.8369 0.5121 -0.1934
vn 0.7217 0.4729 -0.5055
vn 0.1818 0.1664 -0.9692
vn 0.1752 0.4920 -0.8528
vn 0.5264 0.1572 -0.8356
vn 0.5056 0.4274 -0.7495
vn -0.2071 0.9534 -0.2196
vn -0.1849 0.7772 -0.6015
vn -0.5775 0.7916 -0.1997
vn -0.5273 0.6749 -0.5162
vn -0.1818 0.1664 -0.9692
vn -0.5264 0.1572 -0.8356
vn -0.1752 0.4920 -0.8528
vn -0.4681 0.4645 -0.7518
vn -0.9633 0.1755 -0.2032
vn -0.8369 0.5121 -0.1934
vn -0.8053 0.1607 -0.5707
vn -0.7176 0.4340 -0.5447
vn 0.1817 0.1664 0.9692
vn 0.5264 0.1572 0.8356
vn 0.1752 0.4920 0.8528
vn 0.4681 0.4645 0.7518
vn 0.9633 0.1755 0.2032
vn 0.8369 0.5121 0.1934
vn 0.8053 0.1607 0.5707
vn 0.7176 0.4340 0.5447
vn 0.2071 0.9534 0.2196
vn 0.1849 0.7772 0.6015
vn 0.5775 0.7916 0.1997
vn 0.5273 0.6749 0.5162
vn -0.1818 0.1664 0.9692
vn -0.1752 0.4920 0.8528
vn -0.5264 0.1572 0.8356
vn -0.5056 0.4274 0.7495
vn -0.2071 0.9534 0.2196
vn -0.5775 0.7916 0.1997
vn -0.1849 0.7772 0.6015
vn -0.4854 0.6732 0.5579
vn -0.9633 0.1755 0.2032
vn -0.8053 0.1607 0.5707
vn -0.8369 0.5121 0.1934
vn -0.7217 0.4729 0.5055
vn 0.9785 -0.0000 0.2064
vn 0.8159 -0.0000 0.5782
vn 0.5330 -0.0000 0.8461
vn 0.1843 -0.0000 0.9829
vn -0.9785 -0.0000 0.2064
vn -0.8159 -0.0000 0.5782
vn -0.5330 -0.0000 0.8461
vn -0.1843 -0.0000 0.9829
vn -0.2123 0.9772 -0.0000
vn -0.5894 0.8078 -0.0000
vn -0.8530 0.5219 -0.0000
vn -0.9838 0.1792 -0.0000
vn -0.1843 -0.0000 -0.9829
vn -0.5330 -0.0000 -0.8461
vn -0.8159 -0.0000 -0.5782
vn -0.9785 -0.0000 -0.2064
vn 0.9785 -0.0000 -0.2064
vn 0.8159 -0.0000 -0.5782
vn 0.5330 -0.0000 -0.8461
vn 0.1843 -0.0000 -0.9829
vn 0.2123 0.9772 -0.0000
vn 0.5894 0.8078 -0.0000
vn 0.8530 0.5220 -0.0000
vn 0.2122 0.9772 -0.0000
vn 0.2480 0.9365 -0.2480
vn 0.6074 0.7677 -0.2044
vn 0.2044 0.7677 -0.6074
vn 0.5498 0.6635 -0.5074
vn 0.9573 0.1890 -0.2188
vn 0.8149 0.1617 -0.5566
vn 0.8449 0.4984 -0.1942
vn 0.7378 0.4207 -0.5279
vn 0.2188 0.1890 -0.9573
vn 0.1942 0.4984 -0.8449
vn 0.5566 0.1617 -0.8149
vn 0.4898 0.4583 -0.7417
vn -0.2480 0.9365 -0.2480
vn -0.2044 0.7677 -0.6074
vn -0.6074 0.7677 -0.2044
vn -0.5074 0.6635 -0.5498
vn -0.2188 0.1890 -0.9573
vn -0.5566 0.1617 -0.8149
vn -0.1942 0.4984 -0.8449
vn -0.5279 0.4207 -0.7378
vn -0.9573 0.1890 -0.2188
vn -0.8449 0.4984 -0.1942
vn -0.8149 0.1617 -0.5567
vn -0.7417 0.4583 -0.4898
vn 0.2188 0.1890 0.9573
vn 0.5566 0.1617 0.8149
vn 0.1942 0.4984 0.8449
vn 0.5279 0.4207 0.7378
vn 0.9573 0.1890 0.2188
vn 0.8449 0.4984 0.1942
vn 0.8149 0.1617 0.5566
vn 0.7417 0.4583 0.4898
vn 0.2480 0.9365 0.2479
vn 0.2044 0.7677 0.6074
vn 0.6074 0.7677 0.2044
vn 0.5074 0.6635 0.5498
vn -0.2188 0.1890 0.9573
vn -0.1942 0.4984 0.8449
vn -0.5566 0.1617 0.8149
vn -0.4898 0.4583 0.7417
vn -0.2480 0.9365 0.2480
vn -0.6074 0.7677 0.2044
vn -0.2044 0.7677 0.6074
vn -0.5499 0.6634 0.5074
vn -0.9573 0.1890 0.2188
vn -0.8149 0.1617 0.5567
vn -0.8449 0.4984 0.1942
vn -0.7378 0.4207 0.5279
vn 0.8149 0.1617 -0.5567
vn -0.2480 0.9365 -0.2479
vn 0.2346 0.9397 -0.2488
vn 0.5847 0.7839 -0.2087
vn 0.1931 0.7695 -0.6088
vn 0.5273 0.6749 -0.5162
vn 0.9523 0.1994 -0.2309
vn 0.7983 0.1680 -0.5784
vn 0.8302 0.5194 -0.2024
vn 0.7176 0.4340 -0.5447
vn 0.2069 0.1895 -0.9598
vn 0.1835 0.4994 -0.8467
vn 0.5341 0.1646 -0.8293
vn 0.4681 0.4645 -0.7518
vn -0.2346 0.9397 -0.2488
vn -0.1931 0.7695 -0.6088
vn -0.5847 0.7839 -0.2087
vn -0.4854 0.6731 -0.5579
vn -0.2069 0.1895 -0.9598
vn -0.5341 0.1646 -0.8293
vn -0.1835 0.4994 -0.8467
vn -0.5056 0.4274 -0.7495
vn -0.9523 0.1994 -0.2309
vn -0.8302 0.5194 -0.2024
vn -0.7983 0.1680 -0.5784
vn -0.7217 0.4729 -0.5055
vn 0.2069 0.1895 0.9598
vn 0.5341 0.1646 0.8293
vn 0.1835 0.4994 0.8467
vn 0.5056 0.4274 0.7495
vn 0.9523 0.1994 0.2309
vn 0.8302 0.5194 0.2024
vn 0.7983 0.1680 0.5784
vn 0.7217 0.4729 0.5055
vn 0.2346 0.9397 0.2488
vn 0.1931 0.7695 0.6088
vn 0.5847 0.7839 0.2087
vn 0.4854 0.6732 0.5579
vn -0.2069 0.1895 0.9598
vn -0.1835 0.4994 0.8467
vn -0.5341 0.1646 0.8293
vn -0.4681 0.4645 0.7518
vn -0.2346 0.9397 0.2488
vn -0.5847 0.7839 0.2087
vn -0.1931 0.7695 0.6088
vn -0.5273 0.6749 0.5162
vn -0.9523 0.1994 0.2309
vn -0.7983 0.1680 0.5784
vn -0.8302 0.5194 0.2024
vn -0.7176 0.4340 0.5447
vn -0.4854 0.6732 -0.5579
vn -0.5056 0.4273 -0.7495
vn -0.8530 0.5220 -0.0000
vt 0.225444 0.309813
vt 0.018226 0.370436
vt 0.656803 0.262973
vt 0.225444 0.009810
vt 0.058195 0.380076
vt 0.065013 0.378618
vt 0.070934 0.378844
vt 0.756304 0.228291
vt 0.758040 0.233730
vt 0.197535 0.009810
vt 0.673215 0.279162
vt 0.758649 0.240146
vt 0.014853 0.393240
vt 0.197535 0.309813
vt 0.657009 0.096896
vt 0.630671 0.294715
vt 0.663578 0.094319
vt 0.670477 0.092807
vt 0.756304 0.518473
vt 0.758040 0.513035
vt 0.758649 0.506619
vt 0.011106 0.418568
vt 0.166539 0.309813
vt 0.010013 0.441865
vt 0.149774 0.293048
vt 0.010402 0.424541
vt 0.160123 0.308537
vt 0.009947 0.431066
vt 0.154684 0.304903
vt 0.009810 0.437149
vt 0.151050 0.299464
vt 0.068704 0.422491
vt 0.067612 0.445787
vt 0.068000 0.428463
vt 0.067545 0.434988
vt 0.067409 0.441072
vt 0.024849 0.594421
vt 0.706327 0.315097
vt 0.149774 0.026575
vt 0.691442 0.297143
vt 0.166539 0.009810
vt 0.703653 0.311208
vt 0.151050 0.020160
vt 0.699885 0.306430
vt 0.154684 0.014721
vt 0.695597 0.301491
vt 0.160123 0.011086
vt 0.082447 0.598343
vt 0.662672 0.352875
vt 0.647786 0.334920
vt 0.659998 0.348985
vt 0.656230 0.344207
vt 0.651942 0.339268
vt 0.270117 0.293048
vt 0.871250 0.765752
vt 0.021599 0.347631
vt 0.253352 0.309813
vt 0.874176 0.788799
vt 0.268841 0.299464
vt 0.871416 0.771824
vt 0.265207 0.304903
vt 0.872030 0.778336
vt 0.259768 0.308537
vt 0.872999 0.784297
vt 0.786551 0.240146
vt 0.914805 0.785015
vt 0.062582 0.350422
vt 0.911879 0.761968
vt 0.786580 0.233730
vt 0.074604 0.354033
vt 0.926507 0.779805
vt 0.786661 0.228291
vt 0.792994 0.240146
vt 0.793189 0.233569
vt 0.927403 0.771663
vt 0.792921 0.229144
vt 0.924520 0.775829
vt 0.922597 0.773002
vt 0.913628 0.780513
vt 0.912659 0.774552
vt 0.921123 0.783356
vt 0.069011 0.351585
vt 0.920077 0.778532
vt 0.918960 0.773721
vt 0.918420 0.762063
vt 0.798512 0.240146
vt 0.924438 0.763508
vt 0.912045 0.768040
vt 0.918790 0.768397
vt 0.797679 0.233903
vt 0.923690 0.769287
vt 0.640392 0.246783
vt 0.253352 0.009810
vt 0.651392 0.149913
vt 0.874215 0.541878
vt 0.270117 0.026575
vt 0.669681 0.164403
vt 0.259768 0.011086
vt 0.655710 0.154105
vt 0.265207 0.014721
vt 0.660702 0.158331
vt 0.268841 0.020160
vt 0.665607 0.161947
vt 0.786551 0.506619
vt 0.695958 0.133201
vt 0.914843 0.538095
vt 0.609330 0.273663
vt 0.677669 0.118711
vt 0.792994 0.506619
vt 0.927403 0.539635
vt 0.700696 0.121305
vt 0.798512 0.506619
vt 0.786580 0.513035
vt 0.793189 0.513195
vt 0.695591 0.114820
vt 0.797679 0.512862
vt 0.696412 0.119792
vt 0.693026 0.119090
vt 0.691885 0.130745
vt 0.686979 0.127129
vt 0.699308 0.127593
vt 0.921384 0.538189
vt 0.695103 0.124815
vt 0.690905 0.122130
vt 0.682411 0.114205
vt 0.786661 0.518473
vt 0.687763 0.111058
vt 0.681987 0.122903
vt 0.687061 0.118443
vt 0.792921 0.517621
vt 0.691220 0.115678
vt 0.636349 0.075082
vt 0.652011 0.315767
vt 0.084848 0.870223
vt 0.665291 0.076922
vt 0.730748 0.506619
vt 0.644743 0.074433
vt 0.725948 0.518473
vt 0.653192 0.074555
vt 0.660407 0.075429
vt 0.729500 0.513035
vt 0.730748 0.240146
vt 0.072961 0.646646
vt 0.084848 0.621220
vt 0.053809 0.409730
vt 0.729500 0.233730
vt 0.073637 0.640398
vt 0.725948 0.228291
vt 0.067264 0.403655
vt 0.076133 0.633373
vt 0.061014 0.405651
vt 0.080070 0.626638
vt 0.706327 0.515043
vt 0.115440 0.449044
vt 0.116533 0.425747
vt 0.973212 0.816422
vt 0.115237 0.444328
vt 0.115374 0.438245
vt 0.700758 0.518473
vt 0.121953 0.448435
vt 0.988467 0.816422
vt 0.121932 0.443422
vt 0.121711 0.438458
vt 0.125351 0.438366
vt 0.122963 0.426911
vt 0.973103 0.828277
vt 0.128556 0.429359
vt 0.115829 0.431720
vt 0.122413 0.433177
vt 0.127004 0.434890
vt 0.979325 0.827424
vt 0.979598 0.816422
vt 0.127783 0.445832
vt 0.984954 0.816422
vt 0.973184 0.822838
vt 0.979724 0.822999
vt 0.130130 0.437895
vt 0.984083 0.822665
vt 0.126693 0.441504
vt 0.130276 0.601600
vt 0.626421 0.384244
vt 0.973212 0.549949
vt 0.611535 0.366290
vt 0.669567 0.017463
vt 0.988467 0.549949
vt 0.620851 0.387674
vt 0.614629 0.389102
vt 0.984954 0.549949
vt 0.623747 0.380355
vt 0.617853 0.383657
vt 0.612895 0.384989
vt 0.984083 0.543706
vt 0.612081 0.381675
vt 0.973184 0.543533
vt 0.604103 0.376406
vt 0.973103 0.538095
vt 0.679661 0.009810
vt 0.979598 0.549949
vt 0.979724 0.543372
vt 0.607980 0.384173
vt 0.979325 0.538947
vt 0.608670 0.379892
vt 0.615691 0.370638
vt 0.619979 0.375577
vt 0.674309 0.012958
vt 0.607099 0.371087
vt 0.611307 0.375762
vt 0.615044 0.379559
vt 0.118253 0.414119
vt 0.021495 0.631393
vt 0.025943 0.654196
vt 0.958984 0.816422
vt 0.022968 0.635807
vt 0.024330 0.641691
vt 0.015301 0.633468
vt 0.124683 0.415282
vt 0.016664 0.638212
vt 0.018097 0.642939
vt 0.014516 0.643897
vt 0.019410 0.654535
vt 0.947023 0.816422
vt 0.013309 0.653492
vt 0.025375 0.648148
vt 0.018620 0.648239
vt 0.013673 0.647676
vt 0.947856 0.822665
vt 0.958956 0.822838
vt 0.130276 0.417730
vt 0.010164 0.637368
vt 0.958875 0.828277
vt 0.952542 0.816422
vt 0.952347 0.822999
vt 0.009810 0.645551
vt 0.952615 0.827424
vt 0.012410 0.641203
vt 0.603167 0.358035
vt 0.677669 0.026017
vt 0.958984 0.549949
vt 0.695958 0.040508
vt 0.037829 0.877773
vt 0.682411 0.021512
vt 0.958875 0.538095
vt 0.687763 0.018365
vt 0.681987 0.030210
vt 0.687061 0.025749
vt 0.691220 0.022985
vt 0.952615 0.538947
vt 0.693026 0.026397
vt 0.952542 0.549949
vt 0.025195 0.877069
vt 0.700696 0.028611
vt 0.947023 0.549949
vt 0.958956 0.543533
vt 0.952347 0.543372
vt 0.695591 0.022127
vt 0.947856 0.543706
vt 0.696412 0.027099
vt 0.691885 0.038052
vt 0.686979 0.034435
vt 0.699308 0.034900
vt 0.031297 0.878112
vt 0.695103 0.032122
vt 0.690905 0.029437
vt 0.954969 0.190711
vt 0.486518 0.917842
vt 0.616728 0.009810
vt 0.966632 0.191633
vt 0.498215 0.918089
vt 0.270117 0.630629
vt 0.654678 0.826068
vt 0.954969 0.317657
vt 0.616728 0.163495
vt 0.966632 0.318579
vt 0.666234 0.824838
vt 0.116471 0.630629
vt 0.473848 0.830355
vt 0.463043 0.009810
vt 0.485545 0.830602
vt 0.270117 0.784313
vt 0.486518 0.704043
vt 0.654678 0.955195
vt 0.463043 0.163495
vt 0.116471 0.784313
vt 0.666234 0.953965
vt 0.498215 0.704290
vt 0.903141 0.890948
vt 0.555749 0.102516
vt 0.908694 0.009810
vt 0.851607 0.094062
vt 0.524022 0.102516
vt 0.876520 0.889555
vt 0.524022 0.070789
vt 0.825531 0.091446
vt 0.882495 0.010469
vt 0.807470 0.094062
vt 0.555749 0.070789
vt 0.857689 0.012944
vt 0.871250 0.808419
vt 0.130769 0.856106
vt 0.130769 0.818098
vt 0.908694 0.091156
vt 0.903141 0.810088
vt 0.804814 0.012944
vt 0.877309 0.091946
vt 0.168767 0.818098
vt 0.826450 0.009810
vt 0.168767 0.856106
vt 0.882527 0.167302
vt 0.157686 0.889890
vt 0.116471 0.870270
vt 0.877309 0.167412
vt 0.517836 0.876322
vt 0.152101 0.891932
vt 0.581067 0.876322
vt 0.202411 0.942121
vt 0.877309 0.114285
vt 0.882527 0.111567
vt 0.207763 0.944709
vt 0.116471 0.803934
vt 0.152101 0.979897
vt 0.581067 0.813090
vt 0.202411 0.889891
vt 0.182790 0.803934
vt 0.207763 0.889915
vt 0.157686 0.982174
vt 0.182790 0.870270
vt 0.152217 0.944412
vt 0.517836 0.813090
vt 0.146888 0.943901
vt 0.381922 0.608328
vt 0.289738 0.009810
vt 0.393611 0.607836
vt 0.289738 0.464136
vt 0.381922 0.755197
vt 0.397241 0.734346
vt 0.443423 0.009810
vt 0.408929 0.733854
vt 0.393478 0.753966
vt 0.443384 0.464136
vt 0.397241 0.484249
vt 0.947023 0.975764
vt 0.289738 0.227163
vt 0.958686 0.974843
vt 0.408929 0.483756
vt 0.289738 0.246783
vt 0.947023 0.848819
vt 0.381922 0.937819
vt 0.443423 0.227163
vt 0.443384 0.246783
vt 0.393478 0.936587
vt 0.958686 0.847897
vt 0.734237 0.898434
vt 0.382444 0.096051
vt 0.959706 0.009810
vt 0.742434 0.796252
vt 0.382444 0.140922
vt 0.696564 0.896972
vt 0.350716 0.140922
vt 0.716418 0.793090
vt 0.933502 0.010234
vt 0.690802 0.796252
vt 0.350716 0.096051
vt 0.750959 0.715188
vt 0.689107 0.815873
vt 0.617465 0.785185
vt 0.617465 0.731431
vt 0.959706 0.091322
vt 0.734237 0.817624
vt 0.689107 0.715188
vt 0.928315 0.091830
vt 0.655463 0.731431
vt 0.719793 0.711399
vt 0.655463 0.785185
vt 0.182524 0.968717
vt 0.932250 0.111566
vt 0.603166 0.805217
vt 0.177306 0.968286
vt 0.581067 0.793470
vt 0.926986 0.114514
vt 0.581067 0.704043
vt 0.984609 0.953557
vt 0.177306 0.893149
vt 0.182524 0.889891
vt 0.990190 0.955848
vt 0.603166 0.711400
vt 0.517836 0.704043
vt 0.978307 0.901709
vt 0.669486 0.711400
vt 0.983578 0.901454
vt 0.932250 0.166361
vt 0.669486 0.805217
vt 0.990190 0.847897
vt 0.517836 0.793470
vt 0.926986 0.166744
vt 0.984609 0.850658
vt 0.954969 0.338200
vt 0.442531 0.917842
vt 0.583546 0.530738
vt 0.966632 0.339121
vt 0.454228 0.918089
vt 0.603166 0.691779
vt 0.827440 0.834600
vt 0.954969 0.465145
vt 0.583546 0.684423
vt 0.966632 0.466067
vt 0.838996 0.833368
vt 0.756813 0.691779
vt 0.429861 0.830355
vt 0.429861 0.530738
vt 0.441558 0.830602
vt 0.603166 0.538095
vt 0.442531 0.704043
vt 0.827440 0.963728
vt 0.429861 0.684423
vt 0.756813 0.538095
vt 0.838996 0.962496
vt 0.454228 0.704290
vt 0.522567 0.623444
vt 0.807819 0.833369
vt 0.635057 0.907366
vt 0.851606 0.197935
vt 0.490840 0.623444
vt 0.608437 0.905973
vt 0.490840 0.591717
vt 0.825530 0.195319
vt 0.781620 0.834027
vt 0.807469 0.197935
vt 0.522567 0.591717
vt 0.857688 0.116816
vt 0.603167 0.824837
vt 0.216709 0.856106
vt 0.635057 0.826506
vt 0.216709 0.818096
vt 0.807819 0.914715
vt 0.804813 0.116816
vt 0.776434 0.915504
vt 0.254708 0.818096
vt 0.826449 0.113683
vt 0.254708 0.856106
vt 0.907366 0.167301
vt 0.127268 0.889891
vt 0.202411 0.870270
vt 0.902148 0.167412
vt 0.352969 0.874392
vt 0.121684 0.891932
vt 0.352969 0.811159
vt 0.227384 0.942121
vt 0.902148 0.114283
vt 0.907366 0.111565
vt 0.232737 0.944709
vt 0.202411 0.803932
vt 0.289738 0.811159
vt 0.227384 0.889891
vt 0.121684 0.979897
vt 0.127268 0.982174
vt 0.268730 0.803932
vt 0.232737 0.889915
vt 0.268730 0.870270
vt 0.121799 0.944411
vt 0.289738 0.874392
vt 0.116471 0.943902
vt 0.085480 0.328011
vt 0.471711 0.269571
vt 0.221529 0.346001
vt 0.085480 0.009809
vt 0.511633 0.279406
vt 0.518462 0.278025
vt 0.524394 0.278406
vt 0.320094 0.483756
vt 0.321829 0.489525
vt 0.057571 0.009809
vt 0.237558 0.362569
vt 0.322439 0.496329
vt 0.468227 0.292359
vt 0.057571 0.328011
vt 0.740975 0.096818
vt 0.194663 0.377126
vt 0.747585 0.094261
vt 0.754600 0.092807
vt 0.320094 0.791540
vt 0.321829 0.785771
vt 0.322439 0.778966
vt 0.464358 0.317668
vt 0.026575 0.328011
vt 0.463206 0.341542
vt 0.009810 0.310228
vt 0.463629 0.323682
vt 0.020160 0.326656
vt 0.463154 0.330331
vt 0.014720 0.322802
vt 0.463005 0.336603
vt 0.011086 0.317034
vt 0.521936 0.321870
vt 0.520784 0.345744
vt 0.521207 0.327884
vt 0.520732 0.334533
vt 0.520584 0.340805
vt 0.478155 0.503426
vt 0.270117 0.399772
vt 0.009810 0.027592
vt 0.255361 0.380969
vt 0.026575 0.009809
vt 0.267422 0.395627
vt 0.011086 0.020786
vt 0.263671 0.390599
vt 0.014720 0.015018
vt 0.259436 0.385451
vt 0.020160 0.011164
vt 0.535734 0.507628
vt 0.225593 0.436522
vt 0.210836 0.417719
vt 0.222898 0.432377
vt 0.219147 0.427348
vt 0.214912 0.422201
vt 0.130154 0.310228
vt 0.818132 0.474596
vt 0.475195 0.246783
vt 0.113389 0.328011
vt 0.821065 0.498495
vt 0.128877 0.317034
vt 0.818298 0.480995
vt 0.125243 0.322802
vt 0.818914 0.487783
vt 0.119804 0.326656
vt 0.819886 0.493929
vt 0.350340 0.496329
vt 0.861691 0.494680
vt 0.516164 0.249773
vt 0.858758 0.470781
vt 0.350369 0.489525
vt 0.528184 0.253613
vt 0.873393 0.489212
vt 0.350450 0.483756
vt 0.356783 0.496329
vt 0.356978 0.489354
vt 0.874285 0.480801
vt 0.356710 0.484660
vt 0.871403 0.485195
vt 0.869479 0.482302
vt 0.860511 0.490114
vt 0.859540 0.483971
vt 0.868008 0.492952
vt 0.522592 0.251012
vt 0.866960 0.488050
vt 0.865841 0.483089
vt 0.865299 0.470873
vt 0.362301 0.496329
vt 0.871319 0.472313
vt 0.858924 0.477180
vt 0.865670 0.477541
vt 0.361468 0.489708
vt 0.870570 0.478411
vt 0.205499 0.329433
vt 0.113389 0.009809
vt 0.735359 0.149834
vt 0.130154 0.027592
vt 0.821099 0.237141
vt 0.119804 0.011164
vt 0.739717 0.154047
vt 0.125243 0.015018
vt 0.744824 0.158331
vt 0.128877 0.020786
vt 0.821407 0.232105
vt 0.749903 0.162034
vt 0.350340 0.778966
vt 0.780456 0.133390
vt 0.861724 0.233326
vt 0.173819 0.355581
vt 0.761636 0.118632
vt 0.356783 0.778966
vt 0.874285 0.234858
vt 0.785193 0.121493
vt 0.362301 0.778966
vt 0.350369 0.785771
vt 0.356978 0.785941
vt 0.779881 0.114904
vt 0.361468 0.785587
vt 0.780712 0.119882
vt 0.777217 0.119125
vt 0.776179 0.130832
vt 0.862033 0.228291
vt 0.771101 0.127129
vt 0.783806 0.127782
vt 0.868265 0.233416
vt 0.779392 0.124899
vt 0.775055 0.122144
vt 0.766418 0.114147
vt 0.350450 0.791540
vt 0.771886 0.111058
vt 0.765994 0.122845
vt 0.771117 0.118409
vt 0.356710 0.790635
vt 0.775370 0.115692
vt 0.720316 0.075004
vt 0.215507 0.398669
vt 0.850401 0.801510
vt 0.294537 0.778966
vt 0.728751 0.074375
vt 0.289738 0.791540
vt 0.737314 0.074555
vt 0.851630 0.806364
vt 0.744701 0.075516
vt 0.293290 0.785771
vt 0.294537 0.496329
vt 0.839590 0.564282
vt 0.851630 0.538094
vt 0.507103 0.309038
vt 0.293290 0.489525
vt 0.840298 0.557713
vt 0.289738 0.483756
vt 0.520603 0.303198
vt 0.842834 0.550430
vt 0.514332 0.305038
vt 0.846814 0.543540
vt 0.270117 0.607708
vt 0.568596 0.349233
vt 0.569749 0.325360
vt 0.920094 0.485922
vt 0.568396 0.344294
vt 0.568544 0.338022
vt 0.264469 0.611008
vt 0.575112 0.348655
vt 0.935349 0.485922
vt 0.575095 0.343414
vt 0.574884 0.338295
vt 0.578528 0.338267
vt 0.576177 0.326599
vt 0.919985 0.498495
vt 0.581769 0.329200
vt 0.569019 0.331374
vt 0.575602 0.332916
vt 0.580193 0.334754
vt 0.926207 0.497591
vt 0.926480 0.485922
vt 0.580955 0.346081
vt 0.931837 0.485922
vt 0.920066 0.492725
vt 0.926606 0.492897
vt 0.583319 0.337927
vt 0.930965 0.492542
vt 0.579866 0.341531
vt 0.583546 0.511117
vt 0.188621 0.467037
vt 0.920094 0.203285
vt 0.173864 0.448236
vt 0.753534 0.017385
vt 0.935349 0.203285
vt 0.182972 0.470337
vt 0.176718 0.471619
vt 0.931837 0.203285
vt 0.185925 0.462893
vt 0.179953 0.466053
vt 0.174972 0.467278
vt 0.930965 0.196663
vt 0.174175 0.463842
vt 0.920066 0.196480
vt 0.763784 0.009810
vt 0.166284 0.458323
vt 0.919985 0.190710
vt 0.926480 0.203285
vt 0.926606 0.196310
vt 0.170071 0.466338
vt 0.926207 0.191614
vt 0.170783 0.461941
vt 0.177939 0.452718
vt 0.182175 0.457865
vt 0.169339 0.452966
vt 0.758317 0.012899
vt 0.173464 0.457785
vt 0.177163 0.461757
vt 0.571525 0.313739
vt 0.788201 0.547787
vt 0.792515 0.571476
vt 0.905866 0.485922
vt 0.789644 0.552277
vt 0.790970 0.558355
vt 0.781995 0.549879
vt 0.577953 0.314979
vt 0.783326 0.554712
vt 0.784730 0.559599
vt 0.781145 0.560598
vt 0.785981 0.571765
vt 0.893905 0.485922
vt 0.779887 0.570676
vt 0.791978 0.565097
vt 0.785223 0.565129
vt 0.780281 0.564546
vt 0.894739 0.492542
vt 0.905838 0.492725
vt 0.583546 0.317579
vt 0.776837 0.553926
vt 0.905757 0.498495
vt 0.899424 0.485922
vt 0.899229 0.492897
vt 0.776434 0.562374
vt 0.899497 0.497591
vt 0.779056 0.557821
vt 0.165690 0.439787
vt 0.761636 0.025939
vt 0.905867 0.203285
vt 0.780456 0.040697
vt 0.803327 0.808704
vt 0.766418 0.021454
vt 0.905757 0.190710
vt 0.771886 0.018365
vt 0.765994 0.030151
vt 0.771117 0.025716
vt 0.775370 0.022999
vt 0.899497 0.191614
vt 0.777217 0.026432
vt 0.899424 0.203285
vt 0.790699 0.807904
vt 0.785193 0.028800
vt 0.893905 0.203285
vt 0.905838 0.196480
vt 0.899229 0.196310
vt 0.779881 0.022211
vt 0.894739 0.196663
vt 0.780712 0.027188
vt 0.776179 0.038138
vt 0.803310 0.813748
vt 0.771101 0.034435
vt 0.783806 0.035089
vt 0.796792 0.808993
vt 0.779392 0.032206
vt 0.775055 0.029450
s 0
f 89/145/1 15/22/1 9/13/1
f 84/134/2 132/211/2 88/143/2
f 3/5/1 9/13/1 1/2/1
f 21/33/3 112/180/3 30/48/3
f 65/106/2 35/55/2 60/95/2
f 20/32/1 131/209/1 94/155/1
f 2/3/4 66/107/4 59/92/4
f 21/33/3 25/37/3 16/24/3
f 84/136/5 8/12/5 14/21/5
f 31/50/4 150/236/4 83/133/4
f 4/6/6 41/67/6 51/82/6
f 62/100/7 37/59/7 1/1/7
f 26/40/4 83/133/4 7/11/4
f 113/182/5 133/212/5 151/238/5
f 43/69/8 45/73/8 40/65/8
f 44/72/9 46/74/9 43/69/9
f 46/74/10 55/86/10 45/73/10
f 46/75/11 48/78/11 58/91/11
f 49/79/12 51/81/12 41/66/12
f 50/80/13 52/83/13 49/79/13
f 52/83/14 44/71/14 51/81/14
f 52/83/15 48/78/15 47/77/15
f 54/85/16 56/88/16 42/68/16
f 55/87/17 57/89/17 54/85/17
f 57/89/18 50/80/18 56/88/18
f 57/89/19 48/78/19 53/84/19
f 67/109/20 69/113/20 64/104/20
f 68/112/21 70/114/21 67/109/21
f 70/114/22 79/126/22 69/113/22
f 70/115/23 72/118/23 82/131/23
f 73/119/24 75/121/24 65/105/24
f 74/120/25 76/123/25 73/119/25
f 76/123/26 68/111/26 75/121/26
f 76/123/27 72/118/27 71/117/27
f 78/125/28 80/128/28 66/108/28
f 79/127/29 81/129/29 78/125/29
f 81/129/30 74/120/30 80/128/30
f 81/129/31 72/118/31 77/124/31
f 96/157/32 98/160/32 93/154/32
f 97/158/33 99/162/33 96/157/33
f 99/162/34 108/173/34 98/160/34
f 99/162/35 101/164/35 111/179/35
f 102/165/36 104/168/36 94/155/36
f 103/167/37 105/169/37 102/165/37
f 105/169/38 97/158/38 104/168/38
f 105/169/39 101/164/39 100/163/39
f 107/172/40 109/175/40 95/156/40
f 108/174/41 110/176/41 107/172/41
f 110/176/42 103/166/42 109/175/42
f 110/177/43 101/164/43 106/170/43
f 115/186/44 117/189/44 112/181/44
f 116/187/45 118/190/45 115/186/45
f 118/190/46 127/204/46 117/189/46
f 118/190/47 120/193/47 130/208/47
f 121/194/48 123/198/48 113/182/48
f 122/196/49 124/199/49 121/194/49
f 124/199/50 116/188/50 123/198/50
f 124/200/51 120/193/51 119/191/51
f 126/203/52 128/206/52 114/183/52
f 127/204/53 129/207/53 126/203/53
f 129/207/54 122/195/54 128/206/54
f 129/207/55 120/193/55 125/202/55
f 134/213/12 136/215/12 131/210/12
f 135/214/13 137/217/13 134/213/13
f 137/217/14 146/229/14 136/215/14
f 137/217/15 139/219/15 149/235/15
f 140/220/16 142/223/16 132/211/16
f 141/222/17 143/224/17 140/220/17
f 143/224/18 135/214/18 142/223/18
f 143/224/19 139/219/19 138/218/19
f 145/227/8 147/231/8 133/212/8
f 146/230/9 148/232/9 145/227/9
f 148/232/10 141/221/10 147/231/10
f 148/233/11 139/219/11 144/225/11
f 153/241/28 155/244/28 150/237/28
f 154/243/29 156/245/29 153/241/29
f 156/245/30 165/259/30 155/244/30
f 156/245/31 158/248/31 168/263/31
f 159/249/20 161/253/20 151/238/20
f 160/252/21 162/254/21 159/249/21
f 162/254/22 154/242/22 161/253/22
f 162/255/56 158/248/56 157/246/56
f 164/258/24 166/260/24 152/239/24
f 165/259/25 167/262/25 164/258/25
f 167/262/26 160/251/26 166/260/26
f 167/262/27 158/248/27 163/257/27
f 20/32/57 17/26/57 15/22/57
f 22/34/58 18/28/58 17/26/58
f 23/35/59 19/30/59 18/28/59
f 24/36/60 16/24/60 19/30/60
f 26/40/61 34/53/61 31/50/61
f 29/46/62 33/52/62 34/53/62
f 28/44/63 32/51/63 33/52/63
f 27/42/64 30/49/64 32/51/64
f 14/21/65 69/113/65 13/20/65
f 13/20/66 79/126/66 12/19/66
f 12/18/67 78/125/67 11/17/67
f 11/17/68 66/108/68 10/15/68
f 60/97/69 73/119/69 65/105/69
f 63/103/70 74/120/70 73/119/70
f 62/101/71 80/128/71 74/120/71
f 61/99/72 66/108/72 80/128/72
f 40/65/73 67/109/73 64/104/73
f 45/73/74 68/112/74 67/109/74
f 55/87/75 75/122/75 68/110/75
f 75/122/76 42/68/76 65/106/76
f 36/58/77 49/79/77 41/66/77
f 39/64/78 50/80/78 49/79/78
f 38/62/79 56/88/79 50/80/79
f 37/60/80 42/68/80 56/88/80
f 88/142/81 6/9/81 8/12/81
f 90/146/82 5/8/82 6/9/82
f 91/149/83 4/6/83 5/7/83
f 92/151/6 3/5/6 4/6/6
f 113/182/84 107/172/84 95/156/84
f 123/198/85 108/174/85 107/172/85
f 116/188/86 98/161/86 108/174/86
f 115/186/87 93/153/87 98/159/87
f 95/156/81 145/227/81 133/212/81
f 109/175/82 146/230/82 145/227/82
f 103/167/83 136/216/83 146/228/83
f 102/165/6 131/209/6 136/216/6
f 151/238/65 121/194/65 113/182/65
f 161/253/88 122/196/88 121/194/88
f 122/197/67 153/241/67 128/205/67
f 153/241/68 114/184/68 128/205/68
f 133/212/73 159/249/73 151/238/73
f 147/231/74 160/252/74 159/249/74
f 141/222/75 166/261/75 160/250/75
f 140/220/76 152/240/76 166/261/76
f 94/155/57 22/34/57 20/32/57
f 104/168/58 23/35/58 22/34/58
f 97/158/59 24/36/59 23/35/59
f 96/157/60 21/33/60 24/36/60
f 31/50/61 126/203/61 114/183/61
f 34/53/62 127/204/62 126/203/62
f 33/52/63 117/189/63 127/204/63
f 32/51/64 112/181/64 117/189/64
f 84/135/69 164/258/69 152/239/69
f 87/140/70 165/259/70 164/258/70
f 86/139/71 155/244/71 165/259/71
f 85/137/72 150/237/72 155/244/72
f 88/143/80 142/223/80 90/147/80
f 90/147/79 135/214/79 91/150/79
f 91/150/78 134/213/78 92/152/78
f 92/152/77 131/210/77 89/144/77
f 29/47/7 15/23/7 16/25/7
f 5/7/83 51/82/83 44/70/83
f 6/9/82 44/72/82 43/69/82
f 8/12/81 43/69/81 40/65/81
f 85/137/68 10/15/68 83/132/68
f 86/139/67 11/17/67 85/137/67
f 87/141/66 12/19/66 86/138/66
f 84/136/65 13/20/65 87/141/65
f 2/4/7 9/14/7 7/10/7
f 14/21/5 40/65/5 64/104/5
f 7/11/4 10/16/4 2/3/4
f 41/67/1 1/2/1 36/56/1
f 170/267/4 171/271/4 169/264/4
f 172/274/2 175/281/2 171/270/2
f 176/285/1 173/276/1 175/280/1
f 174/278/3 169/265/3 173/276/3
f 180/295/89 184/306/89 179/293/89
f 172/275/5 174/279/5 176/283/5
f 175/282/7 177/287/7 171/272/7
f 173/277/7 178/290/7 175/282/7
f 169/266/7 179/292/7 173/277/7
f 171/272/7 180/296/7 169/266/7
f 182/300/90 190/323/90 183/305/90
f 177/288/91 183/304/91 180/294/91
f 179/293/92 181/297/92 178/289/92
f 178/291/93 182/302/93 177/286/93
f 184/307/94 185/310/94 181/299/94
f 186/312/7 189/321/7 187/314/7
f 183/305/95 191/326/95 184/307/95
f 187/316/96 185/308/96 186/311/96
f 189/322/97 188/318/97 187/315/97
f 186/313/98 191/327/98 192/329/98
f 192/329/99 190/325/99 189/320/99
f 181/299/100 188/319/100 182/300/100
f 194/332/4 195/335/4 193/330/4
f 196/338/2 199/347/2 195/334/2
f 200/351/1 197/341/1 199/346/1
f 198/344/3 193/330/3 197/340/3
f 204/361/89 208/372/89 203/359/89
f 196/339/5 198/345/5 200/349/5
f 199/348/7 201/353/7 195/336/7
f 197/342/7 202/356/7 199/348/7
f 197/342/7 204/362/7 203/358/7
f 195/336/7 204/362/7 193/331/7
f 206/366/101 214/388/101 207/371/101
f 201/354/102 207/370/102 204/360/102
f 203/359/103 205/363/103 202/355/103
f 202/357/93 206/368/93 201/352/93
f 208/373/104 209/376/104 205/365/104
f 210/378/7 213/386/7 211/380/7
f 207/371/95 215/391/95 208/373/95
f 211/382/96 209/374/96 210/377/96
f 213/387/105 212/384/105 211/381/105
f 216/394/106 209/375/106 215/390/106
f 216/395/99 214/389/99 213/387/99
f 205/365/100 212/385/100 206/366/100
f 218/399/4 219/403/4 217/396/4
f 220/406/2 223/413/2 219/402/2
f 224/417/1 221/408/1 223/412/1
f 222/410/3 217/397/3 221/408/3
f 228/427/89 232/438/89 227/425/89
f 220/407/5 222/411/5 224/415/5
f 223/414/7 225/418/7 219/404/7
f 221/409/7 226/422/7 223/414/7
f 221/409/7 228/428/7 227/424/7
f 219/404/7 228/428/7 217/398/7
f 230/433/90 238/456/90 231/437/90
f 225/419/91 231/436/91 228/426/91
f 227/425/92 229/429/92 226/421/92
f 225/420/93 229/430/93 230/432/93
f 232/439/94 233/442/94 229/431/94
f 234/444/7 237/452/7 235/446/7
f 231/437/95 239/458/95 232/439/95
f 235/448/96 233/440/96 234/443/96
f 237/453/97 236/450/97 235/447/97
f 240/461/98 233/441/98 239/459/98
f 237/454/99 239/459/99 238/455/99
f 229/431/100 236/451/100 230/433/100
f 329/607/1 255/483/1 249/474/1
f 324/596/2 372/673/2 328/605/2
f 243/466/1 249/474/1 241/463/1
f 261/494/3 352/642/3 270/509/3
f 305/567/2 275/516/2 300/557/2
f 260/493/1 371/671/1 334/617/1
f 242/464/4 306/568/4 299/553/4
f 261/494/3 265/498/3 256/485/3
f 324/597/5 248/473/5 254/482/5
f 271/511/4 390/698/4 323/595/4
f 244/467/107 281/528/107 291/543/107
f 302/560/7 277/520/7 241/462/7
f 266/501/4 323/595/4 247/472/4
f 353/644/5 373/674/5 391/700/5
f 283/530/108 285/534/108 280/526/108
f 284/533/109 286/535/109 283/530/109
f 286/535/110 295/547/110 285/534/110
f 286/536/111 288/539/111 298/552/111
f 289/540/112 291/542/112 281/527/112
f 290/541/113 292/544/113 289/540/113
f 292/544/114 284/532/114 291/542/114
f 292/544/115 288/539/115 287/538/115
f 294/546/116 296/549/116 282/529/116
f 295/548/117 297/550/117 294/546/117
f 297/550/118 290/541/118 296/549/118
f 297/550/119 288/539/119 293/545/119
f 307/570/120 309/574/120 304/565/120
f 308/573/121 310/575/121 307/570/121
f 310/575/122 319/588/122 309/574/122
f 310/576/123 312/579/123 322/593/123
f 313/580/124 315/583/124 305/566/124
f 314/582/125 316/585/125 313/580/125
f 316/585/126 308/572/126 315/583/126
f 316/585/127 312/579/127 311/578/127
f 318/587/128 320/590/128 306/569/128
f 319/589/129 321/591/129 318/587/129
f 321/591/130 314/582/130 320/590/130
f 321/591/131 312/579/131 317/586/131
f 336/619/132 338/622/132 333/616/132
f 337/620/133 339/624/133 336/619/133
f 339/624/134 348/635/134 338/622/134
f 339/624/135 341/626/135 351/641/135
f 342/627/136 344/630/136 334/617/136
f 343/629/137 345/631/137 342/627/137
f 345/631/138 337/620/138 344/630/138
f 345/631/139 341/626/139 340/625/139
f 347/634/140 349/637/140 335/618/140
f 348/636/141 350/638/141 347/634/141
f 350/638/142 343/628/142 349/637/142
f 350/639/143 341/626/143 346/632/143
f 355/648/144 357/651/144 352/643/144
f 356/649/145 358/652/145 355/648/145
f 358/652/146 367/666/146 357/651/146
f 358/652/147 360/655/147 370/670/147
f 361/656/148 363/660/148 353/644/148
f 362/659/149 364/661/149 361/656/149
f 364/661/150 356/650/150 363/660/150
f 364/662/151 360/655/151 359/653/151
f 366/665/152 368/667/152 354/645/152
f 367/666/153 369/669/153 366/665/153
f 369/669/154 362/658/154 368/667/154
f 369/669/155 360/655/155 365/664/155
f 374/675/112 376/677/112 371/672/112
f 375/676/113 377/679/113 374/675/113
f 377/679/114 386/691/114 376/677/114
f 377/679/115 379/681/115 389/697/115
f 380/682/116 382/685/116 372/673/116
f 381/684/117 383/686/117 380/682/117
f 383/686/118 375/676/118 382/685/118
f 383/686/119 379/681/119 378/680/119
f 385/689/108 387/693/108 373/674/108
f 386/692/109 388/694/109 385/689/109
f 388/694/110 381/683/110 387/693/110
f 388/695/111 379/681/111 384/687/111
f 393/703/128 395/706/128 390/699/128
f 394/705/129 396/707/129 393/703/129
f 396/707/130 405/722/130 395/706/130
f 396/707/131 398/710/131 408/726/131
f 399/711/120 401/715/120 391/700/120
f 400/714/121 402/716/121 399/711/121
f 402/716/122 394/704/122 401/715/122
f 402/717/123 398/710/123 397/708/123
f 404/720/124 406/723/124 392/701/124
f 405/722/125 407/725/125 404/720/125
f 407/725/126 400/713/126 406/723/126
f 407/725/127 398/710/127 403/719/127
f 260/493/156 257/487/156 255/483/156
f 262/495/157 258/489/157 257/487/157
f 263/496/158 259/491/158 258/489/158
f 264/497/159 256/485/159 259/491/159
f 266/501/160 274/514/160 271/511/160
f 269/507/161 273/513/161 274/514/161
f 268/505/162 272/512/162 273/513/162
f 267/503/163 270/510/163 272/512/163
f 254/482/164 309/574/164 253/481/164
f 253/481/165 319/588/165 252/480/165
f 252/479/166 318/587/166 251/478/166
f 251/478/167 306/569/167 250/476/167
f 300/557/168 313/581/168 305/567/168
f 303/564/169 314/582/169 313/580/169
f 302/561/170 320/590/170 314/582/170
f 301/559/171 306/569/171 320/590/171
f 280/526/73 307/570/73 304/565/73
f 285/534/74 308/573/74 307/570/74
f 295/548/75 315/584/75 308/571/75
f 315/584/76 282/529/76 305/567/76
f 276/519/172 289/540/172 281/527/172
f 279/525/173 290/541/173 289/540/173
f 278/523/174 296/549/174 290/541/174
f 277/521/175 282/529/175 296/549/175
f 328/604/176 246/470/176 248/473/176
f 330/608/177 245/469/177 246/470/177
f 331/611/178 244/467/178 245/468/178
f 332/613/107 243/466/107 244/467/107
f 335/618/84 363/660/84 347/634/84
f 363/660/85 348/636/85 347/634/85
f 356/650/86 338/623/86 348/636/86
f 355/648/87 333/615/87 338/621/87
f 335/618/179 385/689/179 373/674/179
f 349/637/177 386/692/177 385/689/177
f 343/629/178 376/678/178 386/690/178
f 342/627/107 371/671/107 376/678/107
f 391/700/164 361/656/164 353/644/164
f 401/715/165 362/659/165 361/656/165
f 394/705/166 368/668/166 362/657/166
f 393/703/167 354/646/167 368/668/167
f 373/674/73 399/711/73 391/700/73
f 387/693/74 400/714/74 399/711/74
f 381/684/75 406/724/75 400/712/75
f 380/682/76 392/702/76 406/724/76
f 334/617/156 262/495/156 260/493/156
f 344/630/157 263/496/157 262/495/157
f 337/620/158 264/497/158 263/496/158
f 336/619/159 261/494/159 264/497/159
f 271/511/160 366/665/160 354/645/160
f 274/514/161 367/666/161 366/665/161
f 273/513/162 357/651/162 367/666/162
f 272/512/163 352/643/163 357/651/163
f 324/596/168 404/721/168 392/702/168
f 327/602/169 405/722/169 404/720/169
f 326/600/170 395/706/170 405/722/170
f 325/598/171 390/699/171 395/706/171
f 328/605/175 382/685/175 330/609/175
f 330/609/174 375/676/174 331/612/174
f 331/612/173 374/675/173 332/614/173
f 332/614/172 371/672/172 329/606/172
f 269/508/7 255/484/7 256/486/7
f 245/468/178 291/543/178 284/531/178
f 246/470/177 284/533/177 283/530/177
f 248/473/176 283/530/176 280/526/176
f 325/598/167 250/476/167 323/594/167
f 326/600/166 251/478/166 325/598/166
f 327/603/165 252/480/165 326/599/165
f 324/597/164 253/481/164 327/603/164
f 242/465/7 249/475/7 247/471/7
f 254/482/5 280/526/5 304/565/5
f 247/472/4 250/477/4 242/464/4
f 281/528/1 241/463/1 276/517/1
f 89/145/1 20/32/1 15/22/1
f 84/134/2 152/240/2 132/211/2
f 3/5/1 89/145/1 9/13/1
f 21/33/3 93/154/3 112/180/3
f 65/106/2 42/68/2 35/55/2
f 20/32/1 89/145/1 131/209/1
f 2/3/4 10/16/4 66/107/4
f 21/33/3 30/48/3 25/37/3
f 84/136/5 88/142/5 8/12/5
f 31/50/4 114/183/4 150/236/4
f 4/6/6 3/5/6 41/67/6
f 1/1/7 2/4/7 59/93/7
f 59/93/7 61/98/7 62/100/7
f 62/100/7 63/102/7 60/96/7
f 60/96/7 35/54/7 37/59/7
f 37/59/7 38/61/7 39/63/7
f 39/63/7 36/57/7 1/1/7
f 1/1/7 59/93/7 62/100/7
f 62/100/7 60/96/7 37/59/7
f 37/59/7 39/63/7 1/1/7
f 26/40/4 31/50/4 83/133/4
f 113/182/5 95/156/5 133/212/5
f 43/69/180 46/74/180 45/73/180
f 44/72/181 47/76/181 46/74/181
f 46/74/182 58/90/182 55/86/182
f 46/75/183 47/77/183 48/78/183
f 49/79/184 52/83/184 51/81/184
f 50/80/185 53/84/185 52/83/185
f 52/83/186 47/77/186 44/71/186
f 52/83/187 53/84/187 48/78/187
f 54/85/188 57/89/188 56/88/188
f 55/87/189 58/91/189 57/89/189
f 57/89/190 53/84/190 50/80/190
f 57/89/191 58/91/191 48/78/191
f 67/109/192 70/114/192 69/113/192
f 68/112/193 71/116/193 70/114/193
f 70/114/194 82/130/194 79/126/194
f 70/115/195 71/117/195 72/118/195
f 73/119/196 76/123/196 75/121/196
f 74/120/197 77/124/197 76/123/197
f 76/123/198 71/117/198 68/111/198
f 76/123/199 77/124/199 72/118/199
f 78/125/200 81/129/200 80/128/200
f 79/127/201 82/131/201 81/129/201
f 81/129/202 77/124/202 74/120/202
f 81/129/203 82/131/203 72/118/203
f 96/157/204 99/162/204 98/160/204
f 97/158/205 100/163/205 99/162/205
f 99/162/206 111/179/206 108/173/206
f 99/162/207 100/163/207 101/164/207
f 102/165/208 105/169/208 104/168/208
f 103/167/209 106/170/209 105/169/209
f 105/169/210 100/163/210 97/158/210
f 105/169/211 106/170/211 101/164/211
f 107/172/212 110/176/212 109/175/212
f 108/174/213 111/178/213 110/176/213
f 110/176/214 106/171/214 103/166/214
f 110/177/215 111/179/215 101/164/215
f 115/186/216 118/190/216 117/189/216
f 116/187/217 119/191/217 118/190/217
f 118/190/218 130/208/218 127/204/218
f 118/190/219 119/191/219 120/193/219
f 121/194/220 124/199/220 123/198/220
f 122/196/221 125/201/221 124/199/221
f 124/199/222 119/192/222 116/188/222
f 124/200/223 125/202/223 120/193/223
f 126/203/224 129/207/224 128/206/224
f 127/204/225 130/208/225 129/207/225
f 129/207/226 125/202/226 122/195/226
f 129/207/227 130/208/227 120/193/227
f 134/213/184 137/217/184 136/215/184
f 135/214/228 138/218/228 137/217/228
f 137/217/186 149/235/186 146/229/186
f 137/217/187 138/218/187 139/219/187
f 140/220/188 143/224/188 142/223/188
f 141/222/189 144/225/189 143/224/189
f 143/224/190 138/218/190 135/214/190
f 143/224/191 144/225/191 139/219/191
f 145/227/180 148/232/180 147/231/180
f 146/230/181 149/234/181 148/232/181
f 148/232/182 144/226/182 141/221/182
f 148/233/183 149/235/183 139/219/183
f 153/241/200 156/245/200 155/244/200
f 154/243/201 157/246/201 156/245/201
f 156/245/202 168/263/202 165/259/202
f 156/245/203 157/246/203 158/248/203
f 159/249/229 162/254/229 161/253/229
f 160/252/193 163/256/193 162/254/193
f 162/254/194 157/247/194 154/242/194
f 162/255/195 163/257/195 158/248/195
f 164/258/196 167/262/196 166/260/196
f 165/259/197 168/263/197 167/262/197
f 167/262/198 163/257/198 160/251/198
f 167/262/199 168/263/199 158/248/199
f 20/32/57 22/34/57 17/26/57
f 22/34/58 23/35/58 18/28/58
f 23/35/59 24/36/59 19/30/59
f 24/36/60 21/33/60 16/24/60
f 26/40/61 29/46/61 34/53/61
f 29/46/62 28/44/62 33/52/62
f 28/44/63 27/42/63 32/51/63
f 27/42/64 25/38/64 30/49/64
f 14/21/65 64/104/65 69/113/65
f 13/20/88 69/113/88 79/126/88
f 12/18/67 79/127/67 78/125/67
f 11/17/68 78/125/68 66/108/68
f 60/97/69 63/103/69 73/119/69
f 63/103/70 62/101/70 74/120/70
f 62/101/71 61/99/71 80/128/71
f 61/99/72 59/94/72 66/108/72
f 40/65/73 45/73/73 67/109/73
f 45/73/74 55/86/74 68/112/74
f 55/87/75 54/85/75 75/122/75
f 75/122/76 54/85/76 42/68/76
f 36/58/77 39/64/77 49/79/77
f 39/64/78 38/62/78 50/80/78
f 38/62/79 37/60/79 56/88/79
f 37/60/80 35/55/80 42/68/80
f 88/142/81 90/146/81 6/9/81
f 90/146/82 91/148/82 5/8/82
f 91/149/83 92/151/83 4/6/83
f 92/151/6 89/145/6 3/5/6
f 113/182/84 123/198/84 107/172/84
f 123/198/85 116/188/85 108/174/85
f 116/188/86 115/185/86 98/161/86
f 115/186/87 112/181/87 93/153/87
f 95/156/81 109/175/81 145/227/81
f 109/175/82 103/166/82 146/230/82
f 103/167/83 102/165/83 136/216/83
f 102/165/6 94/155/6 131/209/6
f 151/238/65 161/253/65 121/194/65
f 161/253/66 154/242/66 122/196/66
f 122/197/67 154/243/67 153/241/67
f 153/241/68 150/237/68 114/184/68
f 133/212/73 147/231/73 159/249/73
f 147/231/74 141/221/74 160/252/74
f 141/222/75 140/220/75 166/261/75
f 140/220/76 132/211/76 152/240/76
f 94/155/57 104/168/57 22/34/57
f 104/168/58 97/158/58 23/35/58
f 97/158/59 96/157/59 24/36/59
f 96/157/60 93/154/60 21/33/60
f 31/50/61 34/53/61 126/203/61
f 34/53/62 33/52/62 127/204/62
f 33/52/63 32/51/63 117/189/63
f 32/51/64 30/49/64 112/181/64
f 84/135/69 87/140/69 164/258/69
f 87/140/70 86/139/70 165/259/70
f 86/139/71 85/137/71 155/244/71
f 85/137/72 83/132/72 150/237/72
f 88/143/80 132/211/80 142/223/80
f 90/147/79 142/223/79 135/214/79
f 91/150/78 135/214/78 134/213/78
f 92/152/77 134/213/77 131/210/77
f 16/25/7 25/39/7 27/43/7
f 27/43/7 28/45/7 29/47/7
f 29/47/7 26/41/7 7/10/7
f 7/10/7 9/14/7 15/23/7
f 15/23/7 17/27/7 18/29/7
f 18/29/7 19/31/7 16/25/7
f 16/25/7 27/43/7 29/47/7
f 29/47/7 7/10/7 15/23/7
f 15/23/7 18/29/7 16/25/7
f 5/7/83 4/6/83 51/82/83
f 6/9/82 5/8/82 44/72/82
f 8/12/81 6/9/81 43/69/81
f 85/137/68 11/17/68 10/15/68
f 86/139/67 12/18/67 11/17/67
f 87/141/66 13/20/66 12/19/66
f 84/136/65 14/21/65 13/20/65
f 2/4/7 1/1/7 9/14/7
f 14/21/5 8/12/5 40/65/5
f 7/11/4 83/133/4 10/16/4
f 41/67/1 3/5/1 1/2/1
f 170/267/4 172/273/4 171/271/4
f 172/274/2 176/284/2 175/281/2
f 176/285/1 174/278/1 173/276/1
f 174/278/3 170/268/3 169/265/3
f 180/295/89 183/303/89 184/306/89
f 172/275/5 170/269/5 174/279/5
f 175/282/7 178/290/7 177/287/7
f 173/277/7 179/292/7 178/290/7
f 169/266/7 180/296/7 179/292/7
f 171/272/7 177/287/7 180/296/7
f 182/300/90 188/319/90 190/323/90
f 177/288/91 182/301/91 183/304/91
f 179/293/92 184/306/92 181/297/92
f 178/291/93 181/298/93 182/302/93
f 184/307/94 191/326/94 185/310/94
f 186/312/7 192/328/7 189/321/7
f 183/305/95 190/323/95 191/326/95
f 187/316/96 188/317/96 185/308/96
f 189/322/97 190/324/97 188/318/97
f 186/313/98 185/309/98 191/327/98
f 192/329/99 191/327/99 190/325/99
f 181/299/100 185/310/100 188/319/100
f 194/332/4 196/337/4 195/335/4
f 196/338/2 200/350/2 199/347/2
f 200/351/1 198/343/1 197/341/1
f 198/344/3 194/332/3 193/330/3
f 204/361/89 207/369/89 208/372/89
f 196/339/5 194/333/5 198/345/5
f 199/348/7 202/356/7 201/353/7
f 197/342/7 203/358/7 202/356/7
f 197/342/7 193/331/7 204/362/7
f 195/336/7 201/353/7 204/362/7
f 206/366/101 212/385/101 214/388/101
f 201/354/102 206/367/102 207/370/102
f 203/359/103 208/372/103 205/363/103
f 202/357/93 205/364/93 206/368/93
f 208/373/104 215/391/104 209/376/104
f 210/378/7 216/393/7 213/386/7
f 207/371/95 214/388/95 215/391/95
f 211/382/96 212/383/96 209/374/96
f 213/387/105 214/389/105 212/384/105
f 216/394/106 210/379/106 209/375/106
f 216/395/99 215/392/99 214/389/99
f 205/365/100 209/376/100 212/385/100
f 218/399/4 220/405/4 219/403/4
f 220/406/2 224/416/2 223/413/2
f 224/417/1 222/410/1 221/408/1
f 222/410/3 218/400/3 217/397/3
f 228/427/89 231/435/89 232/438/89
f 220/407/5 218/401/5 222/411/5
f 223/414/7 226/422/7 225/418/7
f 221/409/7 227/424/7 226/422/7
f 221/409/7 217/398/7 228/428/7
f 219/404/7 225/418/7 228/428/7
f 230/433/90 236/451/90 238/456/90
f 225/419/91 230/434/91 231/436/91
f 227/425/92 232/438/92 229/429/92
f 225/420/93 226/423/93 229/430/93
f 232/439/94 239/458/94 233/442/94
f 234/444/7 240/460/7 237/452/7
f 231/437/95 238/456/95 239/458/95
f 235/448/96 236/449/96 233/440/96
f 237/453/97 238/457/97 236/450/97
f 240/461/98 234/445/98 233/441/98
f 237/454/99 240/461/99 239/459/99
f 229/431/100 233/442/100 236/451/100
f 329/607/1 260/493/1 255/483/1
f 324/596/2 392/702/2 372/673/2
f 243/466/1 329/607/1 249/474/1
f 261/494/3 333/616/3 352/642/3
f 305/567/2 282/529/2 275/516/2
f 260/493/1 329/607/1 371/671/1
f 242/464/4 250/477/4 306/568/4
f 261/494/3 270/509/3 265/498/3
f 324/597/5 328/604/5 248/473/5
f 271/511/4 354/645/4 390/698/4
f 244/467/107 243/466/107 281/528/107
f 241/462/7 242/465/7 299/554/7
f 299/554/7 301/558/7 302/560/7
f 302/560/7 303/562/7 300/556/7
f 300/556/7 275/515/7 277/520/7
f 277/520/7 278/522/7 279/524/7
f 279/524/7 276/518/7 241/462/7
f 241/462/7 299/554/7 302/560/7
f 302/560/7 300/556/7 277/520/7
f 277/520/7 279/524/7 241/462/7
f 266/501/4 271/511/4 323/595/4
f 353/644/5 335/618/5 373/674/5
f 283/530/230 286/535/230 285/534/230
f 284/533/231 287/537/231 286/535/231
f 286/535/232 298/551/232 295/547/232
f 286/536/233 287/538/233 288/539/233
f 289/540/234 292/544/234 291/542/234
f 290/541/235 293/545/235 292/544/235
f 292/544/236 287/538/236 284/532/236
f 292/544/237 293/545/237 288/539/237
f 294/546/238 297/550/238 296/549/238
f 295/548/239 298/552/239 297/550/239
f 297/550/240 293/545/240 290/541/240
f 297/550/241 298/552/241 288/539/241
f 307/570/242 310/575/242 309/574/242
f 308/573/243 311/577/243 310/575/243
f 310/575/244 322/592/244 319/588/244
f 310/576/245 311/578/245 312/579/245
f 313/580/246 316/585/246 315/583/246
f 314/582/247 317/586/247 316/585/247
f 316/585/248 311/578/248 308/572/248
f 316/585/249 317/586/249 312/579/249
f 318/587/250 321/591/250 320/590/250
f 319/589/251 322/593/251 321/591/251
f 321/591/252 317/586/252 314/582/252
f 321/591/253 322/593/253 312/579/253
f 336/619/254 339/624/254 338/622/254
f 337/620/255 340/625/255 339/624/255
f 339/624/256 351/641/256 348/635/256
f 339/624/257 340/625/257 341/626/257
f 342/627/258 345/631/258 344/630/258
f 343/629/259 346/632/259 345/631/259
f 345/631/260 340/625/260 337/620/260
f 345/631/261 346/632/261 341/626/261
f 347/634/262 350/638/262 349/637/262
f 348/636/263 351/640/263 350/638/263
f 350/638/264 346/633/264 343/628/264
f 350/639/265 351/641/265 341/626/265
f 355/648/266 358/652/266 357/651/266
f 356/649/267 359/653/267 358/652/267
f 358/652/268 370/670/268 367/666/268
f 358/652/269 359/653/269 360/655/269
f 361/656/270 364/661/270 363/660/270
f 362/659/271 365/663/271 364/661/271
f 364/661/272 359/654/272 356/650/272
f 364/662/273 365/664/273 360/655/273
f 366/665/274 369/669/274 368/667/274
f 367/666/275 370/670/275 369/669/275
f 369/669/276 365/664/276 362/658/276
f 369/669/277 370/670/277 360/655/277
f 374/675/234 377/679/234 376/677/234
f 375/676/235 378/680/235 377/679/235
f 377/679/236 389/697/236 386/691/236
f 377/679/237 378/680/237 379/681/237
f 380/682/238 383/686/238 382/685/238
f 381/684/239 384/687/239 383/686/239
f 383/686/240 378/680/240 375/676/240
f 383/686/241 384/687/241 379/681/241
f 385/689/230 388/694/230 387/693/230
f 386/692/231 389/696/231 388/694/231
f 388/694/232 384/688/232 381/683/232
f 388/695/233 389/697/233 379/681/233
f 393/703/250 396/707/250 395/706/250
f 394/705/251 397/708/251 396/707/251
f 396/707/252 408/726/252 405/722/252
f 396/707/253 397/708/253 398/710/253
f 399/711/242 402/716/242 401/715/242
f 400/714/243 403/718/243 402/716/243
f 402/716/244 397/709/244 394/704/244
f 402/717/278 403/719/278 398/710/278
f 404/720/246 407/725/246 406/723/246
f 405/722/247 408/726/247 407/725/247
f 407/725/248 403/719/248 400/713/248
f 407/725/279 408/726/279 398/710/279
f 260/493/156 262/495/156 257/487/156
f 262/495/157 263/496/157 258/489/157
f 263/496/158 264/497/158 259/491/158
f 264/497/159 261/494/159 256/485/159
f 266/501/160 269/507/160 274/514/160
f 269/507/161 268/505/161 273/513/161
f 268/505/162 267/503/162 272/512/162
f 267/503/163 265/499/163 270/510/163
f 254/482/164 304/565/164 309/574/164
f 253/481/165 309/574/165 319/588/165
f 252/479/280 319/589/280 318/587/280
f 251/478/167 318/587/167 306/569/167
f 300/557/168 303/563/168 313/581/168
f 303/564/169 302/561/169 314/582/169
f 302/561/170 301/559/170 320/590/170
f 301/559/171 299/555/171 306/569/171
f 280/526/73 285/534/73 307/570/73
f 285/534/74 295/547/74 308/573/74
f 295/548/75 294/546/75 315/584/75
f 315/584/76 294/546/76 282/529/76
f 276/519/172 279/525/172 289/540/172
f 279/525/173 278/523/173 290/541/173
f 278/523/174 277/521/174 296/549/174
f 277/521/175 275/516/175 282/529/175
f 328/604/179 330/608/179 246/470/179
f 330/608/177 331/610/177 245/469/177
f 331/611/178 332/613/178 244/467/178
f 332/613/107 329/607/107 243/466/107
f 335/618/84 353/644/84 363/660/84
f 363/660/85 356/650/85 348/636/85
f 356/650/86 355/647/86 338/623/86
f 355/648/87 352/643/87 333/615/87
f 335/618/179 349/637/179 385/689/179
f 349/637/177 343/628/177 386/692/177
f 343/629/178 342/627/178 376/678/178
f 342/627/107 334/617/107 371/671/107
f 391/700/164 401/715/164 361/656/164
f 401/715/165 394/704/165 362/659/165
f 394/705/280 393/703/280 368/668/280
f 393/703/167 390/699/167 354/646/167
f 373/674/73 387/693/73 399/711/73
f 387/693/74 381/683/74 400/714/74
f 381/684/75 380/682/75 406/724/75
f 380/682/76 372/673/76 392/702/76
f 334/617/156 344/630/156 262/495/156
f 344/630/157 337/620/157 263/496/157
f 337/620/158 336/619/158 264/497/158
f 336/619/159 333/616/159 261/494/159
f 271/511/160 274/514/160 366/665/160
f 274/514/161 273/513/161 367/666/161
f 273/513/162 272/512/162 357/651/162
f 272/512/163 270/510/163 352/643/163
f 324/596/168 327/601/168 404/721/168
f 327/602/169 326/600/169 405/722/169
f 326/600/170 325/598/170 395/706/170
f 325/598/171 323/594/171 390/699/171
f 328/605/175 372/673/175 382/685/175
f 330/609/174 382/685/174 375/676/174
f 331/612/173 375/676/173 374/675/173
f 332/614/172 374/675/172 371/672/172
f 256/486/7 265/500/7 267/504/7
f 267/504/7 268/506/7 269/508/7
f 269/508/7 266/502/7 247/471/7
f 247/471/7 249/475/7 255/484/7
f 255/484/7 257/488/7 258/490/7
f 258/490/7 259/492/7 256/486/7
f 256/486/7 267/504/7 269/508/7
f 269/508/7 247/471/7 255/484/7
f 255/484/7 258/490/7 256/486/7
f 245/468/178 244/467/178 291/543/178
f 246/470/177 245/469/177 284/533/177
f 248/473/179 246/470/179 283/530/179
f 325/598/167 251/478/167 250/476/167
f 326/600/280 252/479/280 251/478/280
f 327/603/165 253/481/165 252/480/165
f 324/597/164 254/482/164 253/481/164
f 242/465/7 241/462/7 249/475/7
f 254/482/5 248/473/5 280/526/5
f 247/472/4 323/595/4 250/477/4
f 281/528/1 243/466/1 241/463/1
