# Blender 3.3.1
# www.blender.org
o table_37.001
v -2.185261 3.741603 -2.330451
v -0.011330 3.741603 -1.429979
v -2.185261 3.741603 -6.678312
v 3.063073 3.741603 -4.504381
v 2.162601 3.741603 -2.330450
v -0.011330 3.741603 -7.578784
v 2.162601 3.741603 -6.678312
v -3.085732 3.741603 -4.504381
v -0.460125 3.741603 -4.953176
v 0.437465 3.741603 -4.953176
v 0.437466 3.741603 -4.055586
v -0.460125 3.741603 -4.055586
v 0.642684 0.486218 -5.158395
v -0.665343 0.486218 -5.158395
v -0.665343 0.486218 -3.850368
v 0.642684 0.486218 -3.850368
v 1.130130 0.239819 -5.645841
v 1.076707 0.015714 -5.592418
v -1.099367 0.015714 -5.592418
v -1.152789 0.239819 -5.645841
v -1.099367 0.015714 -3.416344
v -1.152789 0.239819 -3.362922
v 1.130130 0.239819 -3.362921
v 1.076707 0.015714 -3.416344
v -0.011330 3.741603 -5.139073
v -0.646022 3.741603 -4.504381
v 0.623363 3.741603 -4.504382
v -0.011330 3.741603 -3.869689
v -1.606543 3.741603 -6.099595
v 1.583883 3.741603 -6.099594
v 1.583883 3.741603 -2.909168
v -1.606543 3.741603 -2.909168
v -1.606543 3.741603 -4.504381
v -0.011330 3.741603 -2.909168
v 1.583883 3.741603 -4.504382
v -0.011330 3.741603 -6.099595
v -2.851708 3.741603 -3.327859
v -0.254216 3.741603 -3.918002
v 0.575049 3.741603 -4.261496
v 0.231556 3.741603 -5.090761
v -1.187853 3.741603 -7.344759
v -1.187853 3.741603 -1.664003
v -2.851707 3.741603 -5.680904
v 2.829048 3.741603 -5.680904
v 2.829048 3.741603 -3.327858
v 1.165193 3.741603 -7.344759
v 1.165193 3.741603 -1.664003
v -0.597709 3.741603 -4.747267
v -0.254216 3.741603 -5.090760
v -0.597709 3.741603 -4.261495
v 0.575049 3.741603 -4.747268
v 0.231557 3.741603 -3.918002
v -2.131180 3.741603 -6.624231
v 1.059246 3.741603 -5.574957
v 1.059246 3.741603 -3.433806
v -1.081906 3.741603 -3.433805
v -1.081906 3.741603 -5.574957
v 2.108521 3.741603 -6.624231
v 2.108520 3.741603 -2.384531
v -2.131180 3.741603 -2.384531
v -1.081906 3.741603 -4.504382
v -2.131180 3.741603 -4.504381
v -1.606543 3.741603 -3.706775
v -1.606543 3.741603 -5.301988
v -0.011330 3.741603 -3.433805
v -0.011330 3.741603 -2.384531
v 0.786277 3.741603 -2.909168
v -0.808936 3.741603 -2.909168
v 1.059246 3.741603 -4.504381
v 2.108521 3.741603 -4.504382
v 1.583883 3.741603 -5.301988
v 1.583883 3.741603 -3.706775
v -0.011330 3.741603 -5.574957
v -0.011330 3.741603 -6.624231
v -0.808936 3.741603 -6.099595
v 0.786277 3.741603 -6.099594
v 1.048595 3.741603 -6.624231
v -1.071255 3.741603 -6.624232
v -0.546618 3.741603 -5.574957
v 2.108521 3.741603 -3.444456
v 2.108521 3.741603 -5.564306
v 1.059246 3.741603 -5.039669
v -1.071255 3.741603 -2.384531
v -1.081906 3.741603 -5.039670
v -0.546618 3.741603 -3.433805
v 1.059246 3.741603 -3.969093
v 0.523958 3.741603 -5.574957
v -2.131180 3.741603 -5.564306
v 1.048595 3.741603 -2.384531
v -1.081906 3.741603 -3.969093
v -2.131180 3.741603 -3.444456
v 0.523958 3.741603 -3.433805
v -2.185261 4.058268 -2.330451
v -0.011330 4.058268 -1.429979
v -2.185261 4.058268 -6.678312
v 3.063073 4.058268 -4.504381
v 2.162601 4.058268 -2.330450
v -0.011330 4.058268 -7.578784
v 2.162601 4.058268 -6.678312
v -3.085732 4.058268 -4.504381
v -2.851708 4.058268 -3.327859
v -1.187853 4.058268 -7.344759
v -1.187853 4.058268 -1.664003
v -2.851707 4.058268 -5.680904
v 2.829048 4.058268 -5.680904
v 2.829048 4.058268 -3.327858
v 1.165193 4.058268 -7.344759
v 1.165193 4.058268 -1.664003
vn -0.0000 -1.0000 -0.0000
vn -0.5505 -0.1346 0.8239
vn -0.4511 0.8925 -0.0000
vn -0.8239 -0.1346 -0.5505
vn 0.8239 -0.1346 0.5505
vn 0.5505 -0.1346 -0.8239
vn 0.4511 0.8925 -0.0000
vn -0.0000 0.8925 0.4511
vn -0.0000 -0.2319 -0.9727
vn -0.9727 -0.2319 -0.0000
vn 0.9727 -0.2319 -0.0000
vn -0.0000 -0.2319 0.9727
vn -0.0000 0.8925 -0.4511
vn 0.9808 -0.0000 0.1951
vn -0.1951 -0.0000 -0.9808
vn 0.1951 -0.0000 -0.9808
vn -0.5556 -0.0000 0.8315
vn 0.5556 -0.0000 0.8315
vn -0.8315 -0.0000 -0.5556
vn -0.5556 -0.0000 -0.8315
vn 0.9808 -0.0000 -0.1951
vn -0.9808 -0.0000 0.1951
vn -0.1951 -0.0000 0.9808
vn 0.8315 -0.0000 0.5556
vn -0.9808 -0.0000 -0.1951
vn 0.5556 -0.0000 -0.8315
vn 0.8315 -0.0000 -0.5556
vn 0.1951 -0.0000 0.9808
vn -0.8315 -0.0000 0.5556
vn -0.0000 1.0000 -0.0000
vn 0.5535 0.0871 0.8283
vn 0.1949 0.0450 0.9798
vn -0.0000 0.0629 0.9980
vn -0.1950 -0.0334 0.9802
vn -0.8283 0.0871 0.5535
vn -0.9798 0.0450 0.1949
vn -0.9980 0.0629 -0.0000
vn -0.9802 -0.0334 -0.1950
vn 0.8283 0.0871 -0.5535
vn 0.9798 0.0450 -0.1949
vn 0.9980 0.0629 -0.0000
vn 0.9802 -0.0334 0.1950
vn -0.5535 0.0871 -0.8283
vn -0.1949 0.0450 -0.9798
vn -0.0000 0.0629 -0.9980
vn 0.1950 -0.0334 -0.9802
vt 0.882774 0.388438
vt 0.111382 0.042543
vt 0.817154 0.005288
vt 0.005288 0.201324
vt 0.879730 0.572129
vt 0.817154 0.358143
vt 0.457457 0.111382
vt 0.922070 0.738799
vt 0.201324 0.494712
vt 0.882759 0.189103
vt 0.885803 0.005412
vt 0.042543 0.388618
vt 0.882774 0.738923
vt 0.494712 0.298676
vt 0.919027 0.555109
vt 0.922070 0.388314
vt 0.388618 0.457457
vt 0.885803 0.355897
vt 0.298676 0.005288
vt 0.820839 0.181715
vt 0.594788 0.389075
vt 0.751380 0.388942
vt 0.292828 0.221383
vt 0.641760 0.388942
vt 0.823735 0.388942
vt 0.278617 0.292828
vt 0.720878 0.005916
vt 0.714115 0.388942
vt 0.207172 0.278617
vt 0.793234 0.005916
vt 0.521943 0.389075
vt 0.221383 0.207172
vt 0.622019 0.652214
vt 0.843477 0.652214
vt 0.651001 0.151001
vt 0.611442 0.652093
vt 0.738036 0.652214
vt 0.544847 0.151001
vt 0.806578 0.269187
vt 0.505288 0.652093
vt 0.544847 0.044847
vt 0.701137 0.269187
vt 0.727460 0.652214
vt 0.651001 0.044847
vt 0.610456 0.846697
vt 0.552599 0.662669
vt 0.690561 0.190561
vt 0.592104 0.841977
vt 0.505288 0.377738
vt 0.534247 0.667389
vt 0.681889 0.377738
vt 0.592104 0.666562
vt 0.523671 0.667004
vt 0.505288 0.662669
vt 0.505288 0.190561
vt 0.610456 0.662669
vt 0.581528 0.666562
vt 0.681889 0.201137
vt 0.523671 0.843606
vt 0.505288 0.005288
vt 0.505288 0.847941
vt 0.563175 0.662669
vt 0.690561 0.005288
vt 0.552599 0.846697
vt 0.563175 0.846697
vt 0.534247 0.842804
vt 0.505288 0.201137
vt 0.581528 0.841977
vt 0.789302 0.388314
vt 0.300519 0.260049
vt 0.260049 0.199481
vt 0.558365 0.388314
vt 0.676193 0.388314
vt 0.239951 0.300519
vt 0.199481 0.239951
vt 0.755312 0.005288
vt 0.402230 0.148283
vt 0.351717 0.402230
vt 0.097770 0.351717
vt 0.148283 0.097770
vt 0.275257 0.123026
vt 0.123026 0.224743
vt 0.224743 0.376974
vt 0.376974 0.275257
vt 0.201324 0.005288
vt 0.819881 0.086234
vt 0.775344 0.005451
vt 0.207172 0.221383
vt 0.696226 0.388478
vt 0.221383 0.292828
vt 0.808428 0.388477
vt 0.292828 0.278617
vt 0.494712 0.201324
vt 0.919817 0.652145
vt 0.042543 0.111382
vt 0.880521 0.475092
vt 0.388618 0.042543
vt 0.819881 0.277197
vt 0.298676 0.494712
vt 0.883550 0.281748
vt 0.111382 0.457457
vt 0.883550 0.092066
vt 0.457457 0.388618
vt 0.919817 0.462464
vt 0.005288 0.298676
vt 0.880521 0.664774
vt 0.578077 0.388512
vt 0.278617 0.207172
vt 0.769269 0.388477
vt 0.300519 0.239951
vt 0.538653 0.388512
vt 0.239951 0.199481
vt 0.657068 0.388477
vt 0.260049 0.300519
vt 0.736186 0.005451
vt 0.199481 0.260049
vt 0.452296 0.114830
vt 0.318264 0.352164
vt 0.147836 0.318264
vt 0.181736 0.147836
vt 0.352164 0.181736
vt 0.385170 0.452296
vt 0.047704 0.385170
vt 0.114830 0.047704
vt 0.266950 0.164786
vt 0.283563 0.081267
vt 0.211770 0.110398
vt 0.338743 0.135655
vt 0.164786 0.233050
vt 0.081267 0.216437
vt 0.110398 0.288230
vt 0.135655 0.161257
vt 0.233050 0.335214
vt 0.216437 0.418733
vt 0.288230 0.389602
vt 0.161257 0.364345
vt 0.335214 0.266950
vt 0.418733 0.283563
vt 0.389602 0.211770
vt 0.364345 0.338743
vt 0.401951 0.367929
vt 0.435514 0.199197
vt 0.343689 0.224343
vt 0.132071 0.401951
vt 0.300803 0.435514
vt 0.275657 0.343689
vt 0.098049 0.132071
vt 0.309557 0.173261
vt 0.173261 0.190443
vt 0.190443 0.326739
vt 0.326739 0.309557
vt 0.367929 0.098049
vt 0.064486 0.300803
vt 0.224343 0.156311
vt 0.199197 0.064486
vt 0.156311 0.275657
vt 0.857097 0.388314
vt 0.842820 0.005288
vt 0.042543 0.888618
vt 0.854053 0.572005
vt 0.005288 0.701324
vt 0.842820 0.358143
vt 0.896393 0.738923
vt 0.388618 0.957457
vt 0.857082 0.188979
vt 0.298676 0.505288
vt 0.857097 0.738799
vt 0.860126 0.005288
vt 0.111382 0.542543
vt 0.893350 0.555232
vt 0.494712 0.798676
vt 0.896393 0.388438
vt 0.860126 0.355773
vt 0.457457 0.611382
vt 0.846506 0.181715
vt 0.201324 0.994712
vt 0.845548 0.086234
vt 0.111382 0.957457
vt 0.894140 0.652269
vt 0.457457 0.888618
vt 0.854844 0.474969
vt 0.005288 0.798676
vt 0.845548 0.277197
vt 0.298676 0.994712
vt 0.857873 0.281624
vt 0.388618 0.542543
vt 0.857873 0.091943
vt 0.201324 0.505288
vt 0.894140 0.462587
vt 0.494712 0.701324
vt 0.854844 0.664650
vt 0.042543 0.611382
s 0
f 65/129/1 52/116/1 92/156/1
f 62/126/1 63/127/1 91/155/1
f 61/125/1 50/112/1 90/154/1
f 66/130/1 67/131/1 89/153/1
f 38/87/2 12/30/2 16/42/2
f 88/152/1 29/77/1 64/128/1
f 87/151/1 10/26/1 40/92/1
f 86/150/1 11/29/1 39/90/1
f 85/149/1 12/32/1 38/88/1
f 84/148/1 9/23/1 48/108/1
f 15/41/3 20/55/3 22/60/3
f 48/107/4 9/21/4 15/40/4
f 39/89/5 11/28/5 13/33/5
f 40/91/6 10/25/6 14/37/6
f 13/35/7 23/63/7 17/47/7
f 18/49/1 21/58/1 19/51/1
f 15/41/8 23/63/8 16/44/8
f 19/52/9 17/45/9 18/48/9
f 19/53/10 22/61/10 20/54/10
f 18/50/11 23/64/11 24/66/11
f 24/68/12 22/62/12 21/57/12
f 14/38/13 17/47/13 20/55/13
f 83/147/1 32/80/1 68/132/1
f 69/133/1 51/114/1 82/146/1
f 70/134/1 71/135/1 81/145/1
f 80/144/1 31/79/1 72/136/1
f 73/137/1 49/110/1 79/143/1
f 74/138/1 75/139/1 78/142/1
f 77/141/1 30/78/1 76/140/1
f 74/138/1 76/140/1 36/84/1
f 46/103/1 74/138/1 6/14/1
f 46/103/1 58/122/1 77/141/1
f 78/142/1 29/77/1 53/117/1
f 41/93/1 53/117/1 3/7/1
f 41/93/1 74/138/1 78/142/1
f 79/143/1 9/23/1 57/121/1
f 75/139/1 57/121/1 29/77/1
f 36/84/1 79/143/1 75/139/1
f 70/134/1 72/136/1 35/83/1
f 45/101/1 70/134/1 4/9/1
f 45/101/1 59/123/1 80/144/1
f 81/145/1 30/78/1 58/122/1
f 44/99/1 58/122/1 7/17/1
f 44/99/1 70/134/1 81/145/1
f 82/146/1 10/26/1 54/118/1
f 71/135/1 54/118/1 30/78/1
f 35/83/1 82/146/1 71/135/1
f 66/130/1 68/132/1 34/82/1
f 42/95/1 66/130/1 2/4/1
f 42/95/1 60/124/1 83/147/1
f 61/125/1 48/108/1 26/71/1
f 33/81/1 84/148/1 61/125/1
f 64/128/1 57/121/1 84/148/1
f 65/129/1 38/88/1 28/75/1
f 34/82/1 85/149/1 65/129/1
f 68/132/1 56/120/1 85/149/1
f 69/133/1 39/90/1 27/74/1
f 35/83/1 86/150/1 69/133/1
f 72/136/1 55/119/1 86/150/1
f 73/137/1 40/92/1 25/70/1
f 36/84/1 87/151/1 73/137/1
f 76/140/1 54/118/1 87/151/1
f 62/126/1 64/128/1 33/81/1
f 43/97/1 62/126/1 8/19/1
f 43/97/1 53/117/1 88/152/1
f 89/153/1 31/79/1 59/123/1
f 47/105/1 59/123/1 5/12/1
f 47/105/1 66/130/1 89/153/1
f 90/154/1 12/32/1 56/120/1
f 63/127/1 56/120/1 32/80/1
f 33/81/1 90/154/1 63/127/1
f 91/155/1 32/80/1 60/124/1
f 37/85/1 60/124/1 1/2/1
f 37/85/1 62/126/1 91/155/1
f 92/156/1 11/29/1 55/119/1
f 67/131/1 55/119/1 31/79/1
f 34/82/1 92/156/1 67/131/1
f 4/10/14 106/187/14 45/102/14
f 41/94/15 98/170/15 6/15/15
f 6/15/16 107/189/16 46/104/16
f 42/96/17 93/157/17 1/1/17
f 5/13/18 108/191/18 47/106/18
f 43/98/19 95/162/19 3/6/19
f 3/8/20 102/179/20 41/94/20
f 44/100/21 96/165/21 4/10/21
f 37/86/22 100/175/22 8/20/22
f 2/5/23 103/181/23 42/96/23
f 45/102/24 97/168/24 5/11/24
f 8/20/25 104/183/25 43/98/25
f 46/104/26 99/172/26 7/16/26
f 7/18/27 105/185/27 44/100/27
f 47/106/28 94/160/28 2/5/28
f 1/3/29 101/177/29 37/86/29
f 96/166/30 98/171/30 100/176/30
f 65/129/1 28/75/1 52/116/1
f 62/126/1 33/81/1 63/127/1
f 61/125/1 26/71/1 50/112/1
f 66/130/1 34/82/1 67/131/1
f 16/42/31 11/27/31 52/115/31
f 16/42/32 52/115/32 28/76/32
f 12/30/33 15/39/33 16/42/33
f 16/42/34 28/76/34 38/87/34
f 88/152/1 53/117/1 29/77/1
f 87/151/1 54/118/1 10/26/1
f 86/150/1 55/119/1 11/29/1
f 85/149/1 56/120/1 12/32/1
f 84/148/1 57/121/1 9/23/1
f 15/41/3 14/38/3 20/55/3
f 15/40/35 12/31/35 50/111/35
f 15/40/36 50/111/36 26/72/36
f 9/21/37 14/36/37 15/40/37
f 15/40/38 26/72/38 48/107/38
f 13/33/39 10/24/39 51/113/39
f 13/33/40 51/113/40 27/73/40
f 11/28/41 16/43/41 13/33/41
f 13/33/42 27/73/42 39/89/42
f 14/37/43 9/22/43 49/109/43
f 14/37/44 49/109/44 25/69/44
f 10/25/45 13/34/45 14/37/45
f 14/37/46 25/69/46 40/91/46
f 13/35/7 16/44/7 23/63/7
f 18/49/1 24/67/1 21/58/1
f 15/41/8 22/60/8 23/63/8
f 19/52/9 20/56/9 17/45/9
f 19/53/10 21/59/10 22/61/10
f 18/50/11 17/46/11 23/64/11
f 24/68/12 23/65/12 22/62/12
f 14/38/13 13/35/13 17/47/13
f 83/147/1 60/124/1 32/80/1
f 69/133/1 27/74/1 51/114/1
f 70/134/1 35/83/1 71/135/1
f 80/144/1 59/123/1 31/79/1
f 73/137/1 25/70/1 49/110/1
f 74/138/1 36/84/1 75/139/1
f 77/141/1 58/122/1 30/78/1
f 74/138/1 77/141/1 76/140/1
f 46/103/1 77/141/1 74/138/1
f 46/103/1 7/17/1 58/122/1
f 78/142/1 75/139/1 29/77/1
f 41/93/1 78/142/1 53/117/1
f 41/93/1 6/14/1 74/138/1
f 79/143/1 49/110/1 9/23/1
f 75/139/1 79/143/1 57/121/1
f 36/84/1 73/137/1 79/143/1
f 70/134/1 80/144/1 72/136/1
f 45/101/1 80/144/1 70/134/1
f 45/101/1 5/12/1 59/123/1
f 81/145/1 71/135/1 30/78/1
f 44/99/1 81/145/1 58/122/1
f 44/99/1 4/9/1 70/134/1
f 82/146/1 51/114/1 10/26/1
f 71/135/1 82/146/1 54/118/1
f 35/83/1 69/133/1 82/146/1
f 66/130/1 83/147/1 68/132/1
f 42/95/1 83/147/1 66/130/1
f 42/95/1 1/2/1 60/124/1
f 61/125/1 84/148/1 48/108/1
f 33/81/1 64/128/1 84/148/1
f 64/128/1 29/77/1 57/121/1
f 65/129/1 85/149/1 38/88/1
f 34/82/1 68/132/1 85/149/1
f 68/132/1 32/80/1 56/120/1
f 69/133/1 86/150/1 39/90/1
f 35/83/1 72/136/1 86/150/1
f 72/136/1 31/79/1 55/119/1
f 73/137/1 87/151/1 40/92/1
f 36/84/1 76/140/1 87/151/1
f 76/140/1 30/78/1 54/118/1
f 62/126/1 88/152/1 64/128/1
f 43/97/1 88/152/1 62/126/1
f 43/97/1 3/7/1 53/117/1
f 89/153/1 67/131/1 31/79/1
f 47/105/1 89/153/1 59/123/1
f 47/105/1 2/4/1 66/130/1
f 90/154/1 50/112/1 12/32/1
f 63/127/1 90/154/1 56/120/1
f 33/81/1 61/125/1 90/154/1
f 91/155/1 63/127/1 32/80/1
f 37/85/1 91/155/1 60/124/1
f 37/85/1 8/19/1 62/126/1
f 92/156/1 52/116/1 11/29/1
f 67/131/1 92/156/1 55/119/1
f 34/82/1 65/129/1 92/156/1
f 4/10/14 96/165/14 106/187/14
f 41/94/15 102/179/15 98/170/15
f 6/15/16 98/170/16 107/189/16
f 42/96/17 103/181/17 93/157/17
f 5/13/18 97/167/18 108/191/18
f 43/98/19 104/183/19 95/162/19
f 3/8/20 95/163/20 102/179/20
f 44/100/21 105/185/21 96/165/21
f 37/86/22 101/177/22 100/175/22
f 2/5/23 94/160/23 103/181/23
f 45/102/24 106/187/24 97/168/24
f 8/20/25 100/175/25 104/183/25
f 46/104/26 107/189/26 99/172/26
f 7/18/27 99/173/27 105/185/27
f 47/106/28 108/191/28 94/160/28
f 1/3/29 93/158/29 101/177/29
f 100/176/30 101/178/30 93/159/30
f 93/159/30 103/182/30 94/161/30
f 94/161/30 108/192/30 97/169/30
f 97/169/30 106/188/30 96/166/30
f 96/166/30 105/186/30 99/174/30
f 99/174/30 107/190/30 98/171/30
f 98/171/30 102/180/30 95/164/30
f 95/164/30 104/184/30 100/176/30
f 100/176/30 93/159/30 94/161/30
f 94/161/30 97/169/30 96/166/30
f 96/166/30 99/174/30 98/171/30
f 98/171/30 95/164/30 100/176/30
f 100/176/30 94/161/30 96/166/30
