# Blender 3.3.1
# www.blender.org
o table_12_collider
v -0.029494 0.002424 4.827062
v -0.029494 2.002424 4.827062
v -0.029494 0.002424 -5.184300
v -0.029494 2.002424 -5.184300
v 4.108574 0.002424 4.827062
v 4.108574 2.002424 4.827062
v 4.108574 0.002424 -5.184300
v 4.108574 2.002424 -5.184300
v 1.547289 0.002424 -5.184300
v 1.547289 2.002424 -5.184300
v 1.547289 0.002424 4.827062
v 1.547289 2.002424 4.827062
v -0.029494 4.199795 4.827062
v -0.029494 4.199795 -5.184300
v 1.547289 4.199795 4.827062
v 1.547289 4.199795 -5.184300
v 15.484686 0.002424 -5.184297
v 15.484686 2.002424 -5.184297
v 15.484686 0.002424 4.827065
v 15.484686 2.002424 4.827065
v 11.346619 0.002424 -5.184297
v 11.346619 2.002424 -5.184297
v 11.346619 0.002424 4.827065
v 11.346619 2.002424 4.827065
v 13.907904 0.002424 4.827065
v 13.907904 2.002424 4.827065
v 13.907904 0.002424 -5.184297
v 13.907904 2.002424 -5.184297
v 15.484686 4.199795 -5.184297
v 15.484686 4.199795 4.827065
v 13.907904 4.199795 -5.184297
v 13.907904 4.199795 4.827065
v 5.811001 0.032765 -5.199688
v 5.811001 2.478222 -5.199688
v 5.811001 0.032765 4.540993
v 5.811001 2.478222 4.540993
v 9.579396 0.032765 -5.199688
v 9.579396 2.478222 -5.199688
v 9.579396 0.032765 4.540993
v 9.579396 2.478222 4.540993
vn -1.0000 -0.0000 -0.0000
vn -0.0000 -0.0000 -1.0000
vn 1.0000 -0.0000 -0.0000
vn -0.0000 -0.0000 1.0000
vn -0.0000 -1.0000 -0.0000
vn -0.0000 1.0000 -0.0000
vt 0.375000 0.000000
vt 0.375000 1.000000
vt 0.125000 0.750000
vt 0.625000 1.000000
vt 0.625000 0.000000
vt 0.125000 0.500000
vt 0.375000 0.250000
vt 0.625000 0.250000
vt 0.375000 0.750000
vt 0.625000 0.750000
vt 0.375000 0.500000
vt 0.625000 0.500000
vt 0.220261 0.500000
vt 0.375000 0.345261
vt 0.625000 0.345261
vt 0.779739 0.500000
vt 0.220261 0.750000
vt 0.375000 0.904739
vt 0.779739 0.750000
vt 0.625000 0.904739
vt 0.625000 0.000000
vt 0.875000 0.750000
vt 0.625000 1.000000
vt 0.875000 0.500000
vt 0.625000 0.250000
vt 0.625000 0.904739
vt 0.779739 0.750000
vt 0.625000 0.345261
vt 0.779739 0.500000
vt 0.375000 0.000000
vt 0.375000 1.000000
vt 0.125000 0.750000
vt 0.625000 1.000000
vt 0.625000 0.000000
vt 0.125000 0.500000
vt 0.375000 0.250000
vt 0.625000 0.250000
vt 0.375000 0.750000
vt 0.625000 0.750000
vt 0.375000 0.500000
vt 0.625000 0.500000
vt 0.220261 0.500000
vt 0.375000 0.345261
vt 0.625000 0.345261
vt 0.779739 0.500000
vt 0.220261 0.750000
vt 0.375000 0.904739
vt 0.779739 0.750000
vt 0.625000 0.904739
vt 0.625000 0.000000
vt 0.875000 0.750000
vt 0.625000 1.000000
vt 0.875000 0.500000
vt 0.625000 0.250000
vt 0.625000 0.904739
vt 0.779739 0.750000
vt 0.625000 0.345261
vt 0.779739 0.500000
vt 0.375000 0.000000
vt 0.375000 1.000000
vt 0.125000 0.750000
vt 0.625000 0.000000
vt 0.625000 1.000000
vt 0.875000 0.750000
vt 0.125000 0.500000
vt 0.375000 0.250000
vt 0.625000 0.250000
vt 0.875000 0.500000
vt 0.375000 0.750000
vt 0.625000 0.750000
vt 0.375000 0.500000
vt 0.625000 0.500000
s 0
f 2/5/1 3/7/1 1/1/1
f 10/15/2 7/11/2 9/14/2
f 8/12/3 5/9/3 7/11/3
f 12/20/4 1/2/4 11/18/4
f 7/11/5 11/17/5 9/13/5
f 2/5/1 14/25/1 4/8/1
f 10/16/6 6/10/6 8/12/6
f 9/13/5 1/3/5 3/6/5
f 6/10/4 11/18/4 5/9/4
f 4/8/2 9/14/2 3/7/2
f 14/24/6 15/27/6 16/29/6
f 4/8/2 16/28/2 10/15/2
f 12/20/4 13/23/4 2/4/4
f 10/16/3 15/27/3 12/19/3
f 18/34/3 19/36/3 17/30/3
f 26/44/4 23/40/4 25/43/4
f 24/41/1 21/38/1 23/40/1
f 28/49/2 17/31/2 27/47/2
f 23/40/5 27/46/5 25/42/5
f 18/34/3 30/54/3 20/37/3
f 26/45/6 22/39/6 24/41/6
f 25/42/5 17/32/5 19/35/5
f 22/39/2 27/47/2 21/38/2
f 20/37/4 25/43/4 19/36/4
f 30/53/6 31/56/6 32/58/6
f 20/37/4 32/57/4 26/44/4
f 28/49/2 29/52/2 18/33/2
f 26/45/1 31/56/1 28/48/1
f 34/62/3 35/66/3 33/59/3
f 36/67/2 39/71/2 35/66/2
f 40/72/1 37/69/1 39/71/1
f 38/70/4 33/60/4 37/69/4
f 39/71/6 33/61/6 35/65/6
f 36/68/5 38/70/5 40/72/5
f 2/5/1 4/8/1 3/7/1
f 10/15/2 8/12/2 7/11/2
f 8/12/3 6/10/3 5/9/3
f 12/20/4 2/4/4 1/2/4
f 7/11/5 5/9/5 11/17/5
f 2/5/1 13/21/1 14/25/1
f 10/16/6 12/19/6 6/10/6
f 9/13/5 11/17/5 1/3/5
f 6/10/4 12/20/4 11/18/4
f 4/8/2 10/15/2 9/14/2
f 14/24/6 13/22/6 15/27/6
f 4/8/2 14/25/2 16/28/2
f 12/20/4 15/26/4 13/23/4
f 10/16/3 16/29/3 15/27/3
f 18/34/3 20/37/3 19/36/3
f 26/44/4 24/41/4 23/40/4
f 24/41/1 22/39/1 21/38/1
f 28/49/2 18/33/2 17/31/2
f 23/40/5 21/38/5 27/46/5
f 18/34/3 29/50/3 30/54/3
f 26/45/6 28/48/6 22/39/6
f 25/42/5 27/46/5 17/32/5
f 22/39/2 28/49/2 27/47/2
f 20/37/4 26/44/4 25/43/4
f 30/53/6 29/51/6 31/56/6
f 20/37/4 30/54/4 32/57/4
f 28/49/2 31/55/2 29/52/2
f 26/45/1 32/58/1 31/56/1
f 34/62/3 36/67/3 35/66/3
f 36/67/2 40/72/2 39/71/2
f 40/72/1 38/70/1 37/69/1
f 38/70/4 34/63/4 33/60/4
f 39/71/6 37/69/6 33/61/6
f 36/68/5 34/64/5 38/70/5
