# Blender 3.3.1
# www.blender.org
o table_1_2.001
v -2.607839 5.708742 16.136969
v -2.607839 5.946871 16.136969
v -2.607840 5.708742 0.050853
v -2.607840 5.946871 0.050853
v 2.681136 5.708742 16.136969
v 2.681136 5.946871 16.136969
v 2.681136 5.708742 0.050853
v 2.681136 5.946871 0.050853
v -0.509291 5.708742 6.433469
v 0.582587 5.708742 6.433469
v 0.582587 5.708742 9.754353
v -0.509291 5.708742 9.754353
v 0.690662 0.741847 6.104765
v -0.617366 0.741847 6.104765
v -0.617366 0.741847 10.083056
v 0.690661 0.741847 10.083056
v 1.178108 0.365903 4.622226
v 1.124685 0.023975 4.784708
v -1.051389 0.023975 4.784708
v -1.104812 0.365903 4.622226
v -1.051389 0.023975 11.403113
v -1.104812 0.365903 11.565596
v 1.178108 0.365903 11.565596
v 1.124685 0.023975 11.403113
v -2.607839 5.708742 32.252357
v -2.607839 5.946871 32.252357
v -2.607839 5.708742 16.166246
v -2.607839 5.946871 16.166246
v 2.681136 5.708742 32.252357
v 2.681136 5.946871 32.252357
v 2.681136 5.708742 16.166246
v 2.681136 5.946871 16.166246
v -0.509290 5.708742 22.548861
v 0.582587 5.708742 22.548861
v 0.582588 5.708742 25.869745
v -0.509290 5.708742 25.869745
v 0.690662 0.741847 22.220158
v -0.617365 0.741847 22.220158
v -0.617365 0.741847 26.198448
v 0.690662 0.741847 26.198448
v 1.178108 0.365903 20.737619
v 1.124686 0.023975 20.900103
v -1.051388 0.023975 20.900103
v -1.104811 0.365903 20.737619
v -1.051388 0.023975 27.518505
v -1.104811 0.365903 27.680988
v 1.178109 0.365903 27.680988
v 1.124686 0.023975 27.518505
vn -1.0000 -0.0000 -0.0000
vn -0.0000 -0.0000 -1.0000
vn 1.0000 -0.0000 -0.0000
vn -0.0000 -0.0000 1.0000
vn -0.0000 0.0660 0.9978
vn -0.0000 1.0000 -0.0000
vn -0.0000 -1.0000 -0.0000
vn -0.6107 0.7918 -0.0000
vn -0.9998 0.0218 -0.0000
vn 0.9998 0.0218 -0.0000
vn -0.0000 0.0660 -0.9978
vn 0.6107 0.7918 -0.0000
vn -0.0000 0.9693 0.2458
vn -0.0000 -0.4292 -0.9032
vn -0.9880 -0.1544 -0.0000
vn 0.9880 -0.1544 -0.0000
vn -0.0000 -0.4292 0.9032
vn -0.0000 0.9693 -0.2458
vn -0.6107 0.7919 -0.0000
vn 0.6107 0.7919 -0.0000
vt 0.966631 0.567144
vt 0.037847 0.768248
vt 0.007132 0.567144
vt 0.958349 0.567144
vt 0.029621 0.768248
vt 0.205522 0.007132
vt 0.015357 0.952375
vt 0.966631 0.007132
vt 0.007132 0.007132
vt 0.958349 0.007132
vt 0.007132 0.952375
vt 0.205522 0.567143
vt 0.037847 0.952375
vt 0.944086 0.007132
vt 0.191259 0.567144
vt 0.935803 0.007132
vt 0.029621 0.952375
vt 0.389649 0.007132
vt 0.944086 0.567143
vt 0.015357 0.768248
vt 0.191259 0.007132
vt 0.389649 0.567143
vt 0.007132 0.768248
vt 0.935803 0.567143
vt 0.847429 0.935978
vt 0.080189 0.229332
vt 0.286947 0.581407
vt 0.018575 0.581407
vt 0.118201 0.229332
vt 0.809417 0.935978
vt 0.907229 0.935978
vt 0.118201 0.344943
vt 0.134186 0.581407
vt 0.171336 0.581407
vt 0.869217 0.935978
vt 0.080189 0.344943
vt 0.007132 0.753984
vt 0.805655 0.765824
vt 0.635145 0.633019
vt 0.298390 0.753984
vt 0.851191 0.765824
vt 0.680682 0.633019
vt 0.865455 0.765824
vt 0.159893 0.753984
vt 0.680682 0.771517
vt 0.910992 0.765824
vt 0.145629 0.753984
vt 0.635145 0.771517
vt 0.109602 0.847724
vt 0.963467 0.581407
vt 0.618176 0.581407
vt 0.097088 0.845864
vt 0.876450 0.007132
vt 0.951493 0.587064
vt 0.925255 0.817472
vt 0.800693 0.007132
vt 0.097088 0.770108
vt 0.697652 0.581407
vt 0.109602 0.768248
vt 0.937229 0.823129
vt 0.800693 0.237541
vt 0.189935 0.770108
vt 0.925255 0.587063
vt 0.697652 0.823129
vt 0.937229 0.581407
vt 0.177421 0.768248
vt 0.618176 0.823129
vt 0.963467 0.823129
vt 0.177421 0.847724
vt 0.951493 0.817472
vt 0.876450 0.237541
vt 0.189935 0.845864
vt 0.898995 0.567143
vt 0.082825 0.768248
vt 0.403912 0.567143
vt 0.890713 0.567143
vt 0.074599 0.768248
vt 0.602303 0.007132
vt 0.060336 0.952375
vt 0.898995 0.007132
vt 0.403912 0.007132
vt 0.890713 0.007132
vt 0.052110 0.952375
vt 0.602303 0.567144
vt 0.082825 0.952375
vt 0.921540 0.007132
vt 0.588040 0.567143
vt 0.913258 0.007132
vt 0.074599 0.952375
vt 0.786430 0.007132
vt 0.921540 0.567144
vt 0.060336 0.768248
vt 0.588039 0.007132
vt 0.786430 0.567144
vt 0.052110 0.768248
vt 0.913258 0.567144
vt 0.847429 0.751561
vt 0.476970 0.229332
vt 0.324099 0.753985
vt 0.592468 0.753985
vt 0.514982 0.229332
vt 0.809417 0.751561
vt 0.907229 0.751561
vt 0.514982 0.344943
vt 0.476858 0.753984
vt 0.439709 0.753985
vt 0.869217 0.751561
vt 0.476970 0.344943
vt 0.603912 0.581407
vt 0.805655 0.581407
vt 0.728885 0.633018
vt 0.312654 0.581407
vt 0.851192 0.581407
vt 0.774422 0.633018
vt 0.865455 0.581407
vt 0.451153 0.581407
vt 0.774422 0.771517
vt 0.910992 0.581407
vt 0.465414 0.581407
vt 0.728885 0.771517
vt 0.136380 0.847724
vt 0.992868 0.007132
vt 0.711915 0.581407
vt 0.123866 0.845864
vt 0.876450 0.251804
vt 0.980894 0.012788
vt 0.800693 0.251804
vt 0.977730 0.817472
vt 0.123866 0.770108
vt 0.791391 0.581407
vt 0.136380 0.768248
vt 0.989705 0.823130
vt 0.163157 0.770108
vt 0.800693 0.482213
vt 0.977730 0.587065
vt 0.791391 0.823129
vt 0.989705 0.581408
vt 0.150643 0.768248
vt 0.992868 0.248854
vt 0.711915 0.823129
vt 0.150643 0.847724
vt 0.876450 0.482213
vt 0.980894 0.243197
vt 0.163157 0.845864
s 0
f 2/4/1 3/8/1 1/1/1
f 4/11/2 7/20/2 3/7/2
f 8/24/3 5/14/3 7/19/3
f 6/17/4 1/2/4 5/13/4
f 12/35/5 16/46/5 11/31/5
f 4/12/6 6/18/6 8/22/6
f 3/9/7 10/29/7 9/26/7
f 5/15/7 10/29/7 7/21/7
f 5/15/7 12/36/7 11/32/7
f 3/9/7 12/36/7 1/3/7
f 14/42/8 22/64/8 15/45/8
f 9/27/9 15/44/9 12/34/9
f 11/33/10 13/37/10 10/28/10
f 10/30/11 14/41/11 9/25/11
f 16/48/12 17/51/12 13/39/12
f 19/56/7 24/71/7 21/61/7
f 15/45/13 23/67/13 16/48/13
f 19/57/14 17/49/14 18/52/14
f 21/63/15 20/60/15 19/55/15
f 18/54/16 23/68/16 24/70/16
f 24/72/17 22/66/17 21/62/17
f 14/42/18 17/51/18 20/58/18
f 26/76/1 27/80/1 25/73/1
f 28/83/2 31/92/2 27/79/2
f 32/96/3 29/86/3 31/91/3
f 30/89/4 25/74/4 29/85/4
f 36/107/5 40/118/5 35/103/5
f 28/84/6 30/90/6 32/94/6
f 27/81/7 34/101/7 33/98/7
f 29/87/7 34/101/7 31/93/7
f 29/87/7 36/108/7 35/104/7
f 25/75/7 33/98/7 36/108/7
f 39/117/19 44/130/19 46/136/19
f 33/99/9 39/116/9 36/106/9
f 35/105/10 37/109/10 34/100/10
f 34/102/11 38/113/11 33/97/11
f 40/120/12 41/123/12 37/111/12
f 42/125/7 45/134/7 43/127/7
f 40/120/13 46/136/13 47/140/13
f 43/129/14 41/121/14 42/124/14
f 45/135/15 44/132/15 43/128/15
f 48/143/16 41/122/16 47/139/16
f 48/144/17 46/138/17 45/133/17
f 38/114/18 41/123/18 44/130/18
f 2/4/1 4/10/1 3/8/1
f 4/11/2 8/23/2 7/20/2
f 8/24/3 6/16/3 5/14/3
f 6/17/4 2/5/4 1/2/4
f 12/35/5 15/43/5 16/46/5
f 4/12/6 2/6/6 6/18/6
f 3/9/7 7/21/7 10/29/7
f 5/15/7 11/32/7 10/29/7
f 5/15/7 1/3/7 12/36/7
f 3/9/7 9/26/7 12/36/7
f 14/42/19 20/58/19 22/64/19
f 9/27/9 14/40/9 15/44/9
f 11/33/10 16/47/10 13/37/10
f 10/30/11 13/38/11 14/41/11
f 16/48/20 23/67/20 17/51/20
f 19/56/7 18/53/7 24/71/7
f 15/45/13 22/64/13 23/67/13
f 19/57/14 20/59/14 17/49/14
f 21/63/15 22/65/15 20/60/15
f 18/54/16 17/50/16 23/68/16
f 24/72/17 23/69/17 22/66/17
f 14/42/18 13/39/18 17/51/18
f 26/76/1 28/82/1 27/80/1
f 28/83/2 32/95/2 31/92/2
f 32/96/3 30/88/3 29/86/3
f 30/89/4 26/77/4 25/74/4
f 36/107/5 39/115/5 40/118/5
f 28/84/6 26/78/6 30/90/6
f 27/81/7 31/93/7 34/101/7
f 29/87/7 35/104/7 34/101/7
f 29/87/7 25/75/7 36/108/7
f 25/75/7 27/81/7 33/98/7
f 39/117/8 38/114/8 44/130/8
f 33/99/9 38/112/9 39/116/9
f 35/105/10 40/119/10 37/109/10
f 34/102/11 37/110/11 38/113/11
f 40/120/20 47/140/20 41/123/20
f 42/125/7 48/142/7 45/134/7
f 40/120/13 39/117/13 46/136/13
f 43/129/14 44/131/14 41/121/14
f 45/135/15 46/137/15 44/132/15
f 48/143/16 42/126/16 41/122/16
f 48/144/17 47/141/17 46/138/17
f 38/114/18 37/111/18 41/123/18
