# Blender 3.3.1
# www.blender.org
o table_37
v 1.389569 2.595415 -2.955198
v 1.320408 2.595415 -3.024359
v 1.320408 2.733737 -3.024359
v 1.389569 2.733737 -2.955198
v 1.389569 2.897343 -2.955198
v 1.320408 2.897343 -3.024359
v 1.320408 2.966503 -2.955198
v 1.389568 2.733737 -0.314384
v 1.320407 2.733737 -0.245223
v 1.320407 2.595860 -0.237398
v 1.389568 2.595415 -0.306955
v 1.217166 3.035348 -0.306354
v 1.156582 3.035136 -0.236692
v 1.320407 2.897343 -0.245223
v 1.389568 2.897343 -0.314384
v -1.389567 2.733737 -2.955199
v -1.320407 2.733737 -3.024360
v -1.320407 2.595415 -3.024360
v -1.389567 2.595415 -2.955199
v -1.320406 2.966503 -2.955199
v -1.320407 2.897343 -3.024360
v -1.389567 2.897343 -2.955199
v -1.320407 2.733737 -0.245224
v -1.389568 2.733737 -0.314385
v -1.389568 2.595415 -0.306956
v -1.320407 2.595860 -0.237399
v -1.156584 3.035136 -0.236693
v -1.217167 3.035348 -0.306354
v -1.389568 2.897343 -0.314385
v -1.320407 2.897343 -0.245224
v -1.207286 2.595860 -0.237399
v -1.138126 2.595415 -0.306956
v -1.068965 2.664576 -0.314385
v -1.068965 2.733737 -0.245224
v -1.207286 2.733737 -0.245224
v 1.207271 2.595860 -0.237398
v 1.207271 2.733737 -0.245223
v 1.068950 2.733737 -0.245223
v 1.068950 2.664576 -0.314384
v 1.138110 2.595415 -0.306955
v 1.057368 3.035136 -0.236692
v 0.936415 3.035136 -0.236692
v 1.068950 2.897343 -0.245223
v 1.207271 2.897343 -0.245223
v -1.057384 3.035136 -0.236693
v -1.207287 2.897343 -0.245224
v -1.068965 2.897343 -0.245224
v -0.936431 3.035136 -0.236693
v 1.207272 2.595415 -3.024359
v 1.138111 2.595415 -2.955198
v 1.068950 2.664576 -2.955199
v 1.068950 2.733737 -3.024359
v 1.207272 2.733737 -3.024359
v -1.207286 2.595415 -3.024359
v -1.207286 2.733737 -3.024359
v -1.068965 2.733737 -3.024359
v -1.068965 2.664576 -2.955199
v -1.138125 2.595415 -2.955199
v -1.207286 2.897343 -3.024359
v -1.207286 2.966503 -2.955199
v -1.068964 2.966503 -2.955199
v -1.068964 2.897343 -3.024359
v 1.207272 2.897343 -3.024359
v 1.068951 2.897343 -3.024359
v 1.068951 2.966503 -2.955199
v 1.207272 2.966503 -2.955198
v 1.389568 2.595415 -0.418597
v 1.320407 2.595860 -0.488255
v 1.320407 2.664576 -0.565241
v 1.389568 2.733737 -0.565241
v 1.389568 2.733737 -0.426919
v 1.389568 2.595415 -2.842656
v 1.389568 2.733737 -2.842655
v 1.389568 2.733737 -2.704334
v 1.320408 2.664576 -2.704334
v 1.320408 2.595415 -2.773495
v 1.389568 2.897343 -2.842655
v 1.320408 2.966503 -2.842655
v 1.320408 2.966503 -2.704334
v 1.389568 2.897343 -2.704334
v 1.389568 2.897343 -0.426919
v 1.389568 2.897343 -0.565241
v 1.320407 2.966503 -0.565241
v 1.156592 3.035272 -0.488723
v 1.217166 3.035348 -0.419164
v -1.389567 2.595415 -2.842656
v -1.320406 2.595415 -2.773496
v -1.320406 2.664576 -2.704335
v -1.389567 2.733737 -2.704335
v -1.389567 2.733737 -2.842656
v -1.389568 2.595415 -0.418597
v -1.389568 2.733737 -0.426920
v -1.389568 2.733737 -0.565242
v -1.320407 2.664576 -0.565241
v -1.320407 2.595860 -0.488256
v -1.217167 3.035348 -0.419165
v -1.156594 3.035272 -0.488724
v -1.320407 2.966503 -0.565242
v -1.389568 2.897343 -0.565242
v -1.389568 2.897343 -0.426920
v -1.389567 2.897343 -2.842656
v -1.389567 2.897343 -2.704335
v -1.320406 2.966503 -2.704335
v -1.320406 2.966503 -2.842656
v -1.207286 2.966503 -0.565242
v -1.057393 3.035272 -0.488724
v -0.936439 3.035272 -0.488724
v -1.068965 2.966503 -0.565241
v -1.207286 2.966503 -2.842656
v -1.207286 2.966503 -2.704335
v -1.068964 2.966503 -2.704335
v -1.068964 2.966503 -2.842656
v 1.207271 2.966503 -0.565241
v 1.068950 2.966503 -0.565241
v 0.936424 3.035272 -0.488724
v 1.057378 3.035272 -0.488723
v 1.207272 2.966503 -2.842655
v 1.068951 2.966503 -2.842656
v 1.068950 2.966503 -2.704334
v 1.207272 2.966503 -2.704334
v 1.138110 2.595415 -0.418597
v 1.068950 2.664576 -0.426919
v 1.068950 2.664576 -0.565241
v 1.207271 2.664576 -0.565241
v 1.207271 2.595860 -0.488255
v 1.138111 2.595415 -2.842655
v 1.207272 2.595415 -2.773495
v 1.207271 2.664576 -2.704334
v 1.068950 2.664576 -2.704334
v 1.068950 2.664576 -2.842656
v -1.138126 2.595415 -0.418598
v -1.207286 2.595860 -0.488256
v -1.207286 2.664576 -0.565241
v -1.068965 2.664576 -0.565241
v -1.068965 2.664576 -0.426920
v -1.138125 2.595415 -2.842656
v -1.068965 2.664576 -2.842656
v -1.068965 2.664576 -2.704335
v -1.207286 2.664576 -2.704335
v -1.207286 2.595415 -2.773496
v 1.389568 0.070793 -2.842656
v 1.320408 0.070793 -2.773495
v 1.320408 0.001633 -2.842655
v 1.389569 0.070793 -2.955198
v 1.320408 0.001633 -2.955198
v 1.320408 0.070793 -3.024359
v 1.207271 0.070349 0.050193
v 1.138110 0.070793 -0.019466
v 1.207271 0.001633 -0.011143
v 1.320407 0.070349 0.050193
v 1.320407 0.001633 -0.011143
v 1.389568 0.070793 -0.019465
v -1.389568 0.070793 -0.131108
v -1.320407 0.070349 -0.200665
v -1.320407 0.001633 -0.123679
v -1.389568 0.070793 -0.019466
v -1.320407 0.001633 -0.011144
v -1.320408 0.070349 0.050192
v -1.207286 0.070793 -3.024359
v -1.138125 0.070793 -2.955199
v -1.207286 0.001633 -2.955199
v -1.320407 0.070793 -3.024360
v -1.320406 0.001633 -2.955199
v -1.389567 0.070793 -2.955199
v -1.207287 0.070349 0.050192
v -1.207287 0.001633 -0.011144
v -1.138126 0.070793 -0.019466
v 1.207272 0.070793 -3.024359
v 1.207272 0.001633 -2.955198
v 1.138111 0.070793 -2.955198
v 1.138111 0.070793 -2.842655
v 1.207272 0.001633 -2.842655
v 1.207272 0.070793 -2.773495
v -1.138125 0.070793 -2.842656
v -1.207286 0.070793 -2.773496
v -1.207286 0.001633 -2.842656
v 1.389567 0.070793 -0.131107
v 1.320407 0.001633 -0.123679
v 1.320407 0.070349 -0.200664
v -1.389567 0.070793 -2.842656
v -1.320406 0.001633 -2.842656
v -1.320406 0.070793 -2.773496
v 1.138110 0.070793 -0.131107
v 1.207271 0.070349 -0.200664
v 1.207271 0.001633 -0.123678
v -1.138126 0.070793 -0.131108
v -1.207287 0.001633 -0.123679
v -1.207286 0.070349 -0.200665
v 1.317022 4.952264 -0.283652
v 1.313944 5.090119 -0.273088
v 1.374910 5.089513 -0.203882
v 1.377583 4.952188 -0.214109
v 1.317034 4.952400 0.001635
v 1.377583 4.952188 -0.068080
v 1.374910 5.089513 -0.057576
v 1.313936 5.090178 0.011613
v -1.186751 5.090178 0.011613
v -1.188803 4.952400 0.001634
v -1.067850 4.952400 0.001634
v -1.065360 5.090178 0.011613
v -1.313939 5.090178 0.011613
v -1.374913 5.089513 -0.057577
v -1.377586 4.952188 -0.068081
v -1.317037 4.952400 0.001634
v 1.186733 5.090178 0.011613
v 1.065342 5.090178 0.011613
v 1.067832 4.952400 0.001635
v 1.188785 4.952400 0.001635
v -1.374912 5.089513 -0.203883
v -1.313947 5.090119 -0.273089
v -1.317025 4.952264 -0.283653
v -1.377586 4.952188 -0.214110
v -1.065367 5.090119 -0.273089
v -1.067840 4.952264 -0.283653
v -1.188794 4.952264 -0.283653
v -1.186756 5.090119 -0.273089
v 1.065349 5.090119 -0.273088
v 1.186738 5.090119 -0.273088
v 1.188776 4.952264 -0.283653
v 1.067822 4.952264 -0.283653
v 1.131220 6.573646 -0.204196
v 1.123308 6.642732 -0.131827
v 1.192036 6.574251 -0.134934
v 1.131226 6.573586 0.042664
v 1.192036 6.574251 -0.026497
v 1.123308 6.642732 -0.025049
v -1.037102 6.573587 0.042664
v -0.915711 6.573587 0.042664
v -0.909137 6.642732 -0.025050
v -1.029724 6.642732 -0.025050
v -1.131228 6.573587 0.042664
v -1.123310 6.642732 -0.025050
v -1.192038 6.574252 -0.026498
v 1.037086 6.573586 0.042664
v 1.029709 6.642732 -0.025049
v 0.909122 6.642732 -0.025049
v 0.915695 6.573587 0.042664
v -1.192038 6.574252 -0.134935
v -1.123310 6.642732 -0.131828
v -1.131221 6.573646 -0.204197
v -1.029724 6.642732 -0.131828
v -0.909137 6.642732 -0.131828
v -0.915705 6.573646 -0.204197
v -1.037095 6.573646 -0.204197
v 1.029709 6.642732 -0.131827
v 1.037080 6.573646 -0.204196
v 0.915690 6.573646 -0.204196
v 0.909122 6.642732 -0.131827
v -1.068965 2.966503 -0.565241
v 1.068950 2.966503 -0.565241
v 1.068950 2.966503 -2.704334
v -1.068964 2.966503 -2.704335
v 1.068950 3.049625 -0.565241
v 0.970442 3.148132 -0.663748
v -0.970458 3.148132 -0.663749
v -1.068965 3.049625 -0.565241
v -0.970457 3.148132 -2.605828
v -1.068964 3.049625 -2.704335
v 1.068950 3.049625 -2.704334
v 0.970443 3.148132 -2.605827
v -1.067840 4.950500 -0.260640
v -0.945217 4.831092 -0.404215
v 0.945200 4.831092 -0.404215
v 1.067822 4.950500 -0.260639
v 0.831534 3.172802 -0.581611
v 0.936424 3.033508 -0.465710
v -0.831549 3.172802 -0.581611
v -0.936439 3.033508 -0.465710
v -0.938092 5.228248 -0.373779
v -1.065367 5.088355 -0.250075
v 1.065349 5.088355 -0.250074
v 0.938074 5.228248 -0.373778
v 0.814635 6.451875 -0.316955
v 0.915690 6.571882 -0.181183
v -0.915705 6.571882 -0.181183
v -0.814649 6.451875 -0.316956
v -2.185261 3.741603 -2.330451
v -0.011330 3.741603 -1.429979
v -2.185261 3.741603 -6.678312
v 3.063073 3.741603 -4.504381
v 2.162601 3.741603 -2.330450
v -0.011330 3.741603 -7.578784
v 2.162601 3.741603 -6.678312
v -3.085732 3.741603 -4.504381
v -0.460125 3.741603 -4.953176
v 0.437465 3.741603 -4.953176
v 0.437466 3.741603 -4.055586
v -0.460125 3.741603 -4.055586
v 0.642684 0.486218 -5.158395
v -0.665343 0.486218 -5.158395
v -0.665343 0.486218 -3.850368
v 0.642684 0.486218 -3.850368
v 1.130130 0.239819 -5.645841
v 1.076707 0.015714 -5.592418
v -1.099367 0.015714 -5.592418
v -1.152789 0.239819 -5.645841
v -1.099367 0.015714 -3.416344
v -1.152789 0.239819 -3.362922
v 1.130130 0.239819 -3.362921
v 1.076707 0.015714 -3.416344
v -0.011330 3.741603 -5.139073
v -0.646022 3.741603 -4.504381
v 0.623363 3.741603 -4.504382
v -0.011330 3.741603 -3.869689
v -1.606543 3.741603 -6.099595
v 1.583883 3.741603 -6.099594
v 1.583883 3.741603 -2.909168
v -1.606543 3.741603 -2.909168
v -1.606543 3.741603 -4.504381
v -0.011330 3.741603 -2.909168
v 1.583883 3.741603 -4.504382
v -0.011330 3.741603 -6.099595
v -2.851708 3.741603 -3.327859
v -0.254216 3.741603 -3.918002
v 0.575049 3.741603 -4.261496
v 0.231556 3.741603 -5.090761
v -1.187853 3.741603 -7.344759
v -1.187853 3.741603 -1.664003
v -2.851707 3.741603 -5.680904
v 2.829048 3.741603 -5.680904
v 2.829048 3.741603 -3.327858
v 1.165193 3.741603 -7.344759
v 1.165193 3.741603 -1.664003
v -0.597709 3.741603 -4.747267
v -0.254216 3.741603 -5.090760
v -0.597709 3.741603 -4.261495
v 0.575049 3.741603 -4.747268
v 0.231557 3.741603 -3.918002
v -2.131180 3.741603 -6.624231
v 1.059246 3.741603 -5.574957
v 1.059246 3.741603 -3.433806
v -1.081906 3.741603 -3.433805
v -1.081906 3.741603 -5.574957
v 2.108521 3.741603 -6.624231
v 2.108520 3.741603 -2.384531
v -2.131180 3.741603 -2.384531
v -1.081906 3.741603 -4.504382
v -2.131180 3.741603 -4.504381
v -1.606543 3.741603 -3.706775
v -1.606543 3.741603 -5.301988
v -0.011330 3.741603 -3.433805
v -0.011330 3.741603 -2.384531
v 0.786277 3.741603 -2.909168
v -0.808936 3.741603 -2.909168
v 1.059246 3.741603 -4.504381
v 2.108521 3.741603 -4.504382
v 1.583883 3.741603 -5.301988
v 1.583883 3.741603 -3.706775
v -0.011330 3.741603 -5.574957
v -0.011330 3.741603 -6.624231
v -0.808936 3.741603 -6.099595
v 0.786277 3.741603 -6.099594
v 1.048595 3.741603 -6.624231
v -1.071255 3.741603 -6.624232
v -0.546618 3.741603 -5.574957
v 2.108521 3.741603 -3.444456
v 2.108521 3.741603 -5.564306
v 1.059246 3.741603 -5.039669
v -1.071255 3.741603 -2.384531
v -1.081906 3.741603 -5.039670
v -0.546618 3.741603 -3.433805
v 1.059246 3.741603 -3.969093
v 0.523958 3.741603 -5.574957
v -2.131180 3.741603 -5.564306
v 1.048595 3.741603 -2.384531
v -1.081906 3.741603 -3.969093
v -2.131180 3.741603 -3.444456
v 0.523958 3.741603 -3.433805
v -2.185261 4.058268 -2.330451
v -0.011330 4.058268 -1.429979
v -2.185261 4.058268 -6.678312
v 3.063073 4.058268 -4.504381
v 2.162601 4.058268 -2.330450
v -0.011330 4.058268 -7.578784
v 2.162601 4.058268 -6.678312
v -3.085732 4.058268 -4.504381
v -2.851708 4.058268 -3.327859
v -1.187853 4.058268 -7.344759
v -1.187853 4.058268 -1.664003
v -2.851707 4.058268 -5.680904
v 2.829048 4.058268 -5.680904
v 2.829048 4.058268 -3.327858
v 1.165193 4.058268 -7.344759
v 1.165193 4.058268 -1.664003
v -1.389570 2.595415 -5.847965
v -1.320409 2.595415 -5.778804
v -1.320409 2.733737 -5.778804
v -1.389570 2.733737 -5.847965
v -1.389570 2.897342 -5.847965
v -1.320409 2.897342 -5.778804
v -1.320409 2.966503 -5.847965
v -1.389570 2.733737 -8.488779
v -1.320409 2.733737 -8.557939
v -1.320409 2.595859 -8.565764
v -1.389570 2.595415 -8.496207
v -1.217168 3.035348 -8.496809
v -1.156584 3.035136 -8.566471
v -1.320409 2.897342 -8.557939
v -1.389570 2.897342 -8.488779
v 1.389566 2.733737 -5.847965
v 1.320405 2.733737 -5.778804
v 1.320405 2.595415 -5.778804
v 1.389566 2.595415 -5.847965
v 1.320405 2.966503 -5.847965
v 1.320405 2.897342 -5.778804
v 1.389566 2.897342 -5.847965
v 1.320405 2.733737 -8.557940
v 1.389566 2.733737 -8.488779
v 1.389566 2.595415 -8.496208
v 1.320405 2.595859 -8.565765
v 1.156581 3.035136 -8.566471
v 1.217165 3.035348 -8.496810
v 1.389566 2.897342 -8.488779
v 1.320405 2.897342 -8.557940
v 1.207284 2.595859 -8.565764
v 1.138124 2.595415 -8.496208
v 1.068963 2.664576 -8.488779
v 1.068963 2.733737 -8.557940
v 1.207284 2.733737 -8.557940
v -1.207273 2.595859 -8.565764
v -1.207273 2.733737 -8.557939
v -1.068952 2.733737 -8.557939
v -1.068952 2.664576 -8.488779
v -1.138112 2.595415 -8.496207
v -1.057370 3.035136 -8.566471
v -0.936417 3.035136 -8.566471
v -1.068952 2.897342 -8.557939
v -1.207273 2.897342 -8.557939
v 1.057381 3.035136 -8.566471
v 1.207285 2.897342 -8.557940
v 1.068963 2.897342 -8.557940
v 0.936428 3.035136 -8.566471
v -1.207273 2.595415 -5.778805
v -1.138112 2.595415 -5.847965
v -1.068951 2.664576 -5.847965
v -1.068951 2.733737 -5.778805
v -1.207273 2.733737 -5.778805
v 1.207285 2.595415 -5.778804
v 1.207285 2.733737 -5.778804
v 1.068963 2.733737 -5.778804
v 1.068963 2.664576 -5.847965
v 1.138124 2.595415 -5.847965
v 1.207284 2.897342 -5.778804
v 1.207284 2.966503 -5.847965
v 1.068963 2.966503 -5.847965
v 1.068963 2.897342 -5.778804
v -1.207273 2.897342 -5.778805
v -1.068952 2.897342 -5.778805
v -1.068952 2.966503 -5.847965
v -1.207273 2.966503 -5.847965
v -1.389570 2.595415 -8.384565
v -1.320409 2.595859 -8.314907
v -1.320409 2.664576 -8.237922
v -1.389570 2.733737 -8.237922
v -1.389570 2.733737 -8.376243
v -1.389570 2.595415 -5.960508
v -1.389570 2.733737 -5.960508
v -1.389569 2.733737 -6.098829
v -1.320409 2.664576 -6.098829
v -1.320409 2.595415 -6.029668
v -1.389570 2.897342 -5.960508
v -1.320409 2.966503 -5.960508
v -1.320409 2.966503 -6.098829
v -1.389569 2.897342 -6.098829
v -1.389570 2.897342 -8.376244
v -1.389570 2.897342 -8.237922
v -1.320409 2.966503 -8.237922
v -1.156594 3.035271 -8.314439
v -1.217168 3.035348 -8.383999
v 1.389566 2.595415 -5.960507
v 1.320405 2.595415 -6.029668
v 1.320405 2.664576 -6.098829
v 1.389566 2.733737 -6.098829
v 1.389566 2.733737 -5.960507
v 1.389566 2.595415 -8.384567
v 1.389566 2.733737 -8.376245
v 1.389566 2.733737 -8.237923
v 1.320405 2.664576 -8.237923
v 1.320405 2.595859 -8.314908
v 1.217165 3.035348 -8.384000
v 1.156592 3.035271 -8.314440
v 1.320405 2.966503 -8.237923
v 1.389566 2.897342 -8.237923
v 1.389566 2.897342 -8.376244
v 1.389566 2.897342 -5.960507
v 1.389566 2.897342 -6.098829
v 1.320405 2.966503 -6.098829
v 1.320405 2.966503 -5.960507
v 1.207284 2.966503 -8.237923
v 1.057391 3.035271 -8.314440
v 0.936437 3.035271 -8.314440
v 1.068963 2.966503 -8.237923
v 1.207284 2.966503 -5.960507
v 1.207284 2.966503 -6.098829
v 1.068963 2.966503 -6.098829
v 1.068963 2.966503 -5.960507
v -1.207273 2.966503 -8.237923
v -1.068951 2.966503 -8.237922
v -0.936426 3.035271 -8.314439
v -1.057380 3.035271 -8.314439
v -1.207273 2.966503 -5.960508
v -1.068952 2.966503 -5.960508
v -1.068952 2.966503 -6.098829
v -1.207273 2.966503 -6.098829
v -1.138112 2.595415 -8.384565
v -1.068952 2.664576 -8.376244
v -1.068952 2.664576 -8.237922
v -1.207273 2.664576 -8.237922
v -1.207273 2.595859 -8.314908
v -1.138112 2.595415 -5.960508
v -1.207273 2.595415 -6.029668
v -1.207273 2.664576 -6.098829
v -1.068951 2.664576 -6.098829
v -1.068951 2.664576 -5.960508
v 1.138124 2.595415 -8.384566
v 1.207284 2.595859 -8.314908
v 1.207284 2.664576 -8.237923
v 1.068963 2.664576 -8.237923
v 1.068963 2.664576 -8.376245
v 1.138124 2.595415 -5.960507
v 1.068963 2.664576 -5.960507
v 1.068963 2.664576 -6.098829
v 1.207285 2.664576 -6.098829
v 1.207284 2.595415 -6.029668
v -1.389570 0.070793 -5.960508
v -1.320409 0.070793 -6.029668
v -1.320409 0.001633 -5.960508
v -1.389570 0.070793 -5.847965
v -1.320409 0.001633 -5.847965
v -1.320409 0.070793 -5.778804
v -1.207273 0.070349 -8.853354
v -1.138112 0.070793 -8.783697
v -1.207273 0.001633 -8.792020
v -1.320409 0.070349 -8.853355
v -1.320409 0.001633 -8.792020
v -1.389570 0.070793 -8.783697
v 1.389566 0.070793 -8.672056
v 1.320405 0.070349 -8.602500
v 1.320405 0.001633 -8.679485
v 1.389566 0.070793 -8.783698
v 1.320405 0.001633 -8.792021
v 1.320405 0.070349 -8.853356
v 1.207285 0.070793 -5.778804
v 1.138124 0.070793 -5.847965
v 1.207285 0.001633 -5.847965
v 1.320405 0.070793 -5.778804
v 1.320405 0.001633 -5.847965
v 1.389566 0.070793 -5.847965
v 1.207284 0.070349 -8.853356
v 1.207284 0.001633 -8.792021
v 1.138124 0.070793 -8.783697
v -1.207273 0.070793 -5.778805
v -1.207273 0.001633 -5.847965
v -1.138112 0.070793 -5.847965
v -1.138112 0.070793 -5.960508
v -1.207273 0.001633 -5.960508
v -1.207273 0.070793 -6.029668
v 1.138124 0.070793 -5.960507
v 1.207284 0.070793 -6.029668
v 1.207285 0.001633 -5.960507
v -1.389570 0.070793 -8.672055
v -1.320409 0.001633 -8.679484
v -1.320409 0.070349 -8.602498
v 1.389566 0.070793 -5.960507
v 1.320405 0.001633 -5.960507
v 1.320405 0.070793 -6.029668
v -1.138112 0.070793 -8.672055
v -1.207273 0.070349 -8.602498
v -1.207273 0.001633 -8.679484
v 1.138124 0.070793 -8.672056
v 1.207284 0.001633 -8.679485
v 1.207284 0.070349 -8.602500
v -1.317024 4.952264 -8.519510
v -1.313946 5.090118 -8.530074
v -1.374911 5.089513 -8.599280
v -1.377585 4.952188 -8.589054
v -1.317036 4.952400 -8.804797
v -1.377585 4.952188 -8.735083
v -1.374912 5.089513 -8.745586
v -1.313938 5.090178 -8.814775
v 1.186749 5.090178 -8.814776
v 1.188801 4.952400 -8.804797
v 1.067848 4.952400 -8.804797
v 1.065358 5.090178 -8.814776
v 1.313937 5.090178 -8.814776
v 1.374910 5.089513 -8.745587
v 1.377583 4.952188 -8.735084
v 1.317035 4.952400 -8.804798
v -1.186735 5.090178 -8.814776
v -1.065344 5.090178 -8.814776
v -1.067834 4.952400 -8.804797
v -1.188787 4.952400 -8.804797
v 1.374910 5.089513 -8.599281
v 1.313945 5.090118 -8.530075
v 1.317022 4.952264 -8.519510
v 1.377583 4.952188 -8.589054
v 1.065364 5.090118 -8.530075
v 1.067838 4.952264 -8.519510
v 1.188792 4.952264 -8.519510
v 1.186754 5.090118 -8.530076
v -1.065351 5.090118 -8.530074
v -1.186740 5.090118 -8.530075
v -1.188778 4.952264 -8.519510
v -1.067824 4.952264 -8.519510
v -1.131222 6.573645 -8.598968
v -1.123310 6.642732 -8.671336
v -1.192038 6.574251 -8.668228
v -1.131228 6.573586 -8.845827
v -1.192038 6.574251 -8.776666
v -1.123310 6.642732 -8.778113
v 1.037099 6.573586 -8.845828
v 0.915708 6.573586 -8.845828
v 0.909135 6.642732 -8.778114
v 1.029722 6.642732 -8.778114
v 1.131225 6.573586 -8.845828
v 1.123307 6.642732 -8.778114
v 1.192036 6.574251 -8.776666
v -1.037089 6.573586 -8.845827
v -1.029711 6.642732 -8.778113
v -0.909124 6.642732 -8.778113
v -0.915698 6.573586 -8.845827
v 1.192035 6.574251 -8.668229
v 1.123307 6.642732 -8.671336
v 1.131219 6.573645 -8.598968
v 1.029722 6.642732 -8.671336
v 0.909135 6.642732 -8.671336
v 0.915703 6.573645 -8.598968
v 1.037093 6.573645 -8.598968
v -1.029711 6.642732 -8.671335
v -1.037082 6.573645 -8.598967
v -0.915693 6.573645 -8.598967
v -0.909124 6.642732 -8.671335
v 1.068963 2.966503 -8.237923
v -1.068951 2.966503 -8.237922
v -1.068952 2.966503 -6.098829
v 1.068963 2.966503 -6.098829
v -1.068951 3.049624 -8.237922
v -0.970444 3.148132 -8.139415
v 0.970456 3.148132 -8.139416
v 1.068963 3.049624 -8.237923
v 0.970456 3.148132 -6.197336
v 1.068963 3.049624 -6.098829
v -1.068952 3.049624 -6.098829
v -0.970444 3.148132 -6.197336
v 1.067838 4.950500 -8.542524
v 0.945215 4.831092 -8.398949
v -0.945202 4.831092 -8.398949
v -1.067824 4.950500 -8.542523
v -0.831536 3.172802 -8.221552
v -0.936426 3.033508 -8.337453
v 0.831547 3.172802 -8.221553
v 0.936437 3.033508 -8.337454
v 0.938090 5.228247 -8.429385
v 1.065364 5.088355 -8.553089
v -1.065351 5.088355 -8.553088
v -0.938076 5.228247 -8.429385
v -0.814637 6.451875 -8.486207
v -0.915693 6.571881 -8.621980
v 0.915703 6.571881 -8.621981
v 0.814647 6.451875 -8.486208
vn 1.0000 -0.0000 -0.0000
vn -0.0000 0.1131 0.9936
vn -1.0000 -0.0000 -0.0000
vn -0.0000 -0.0000 -1.0000
vn -0.0000 1.0000 -0.0000
vn -0.0000 -0.0000 1.0000
vn -0.0000 -1.0000 -0.0000
vn -0.0000 -0.1131 -0.9936
vn 0.9950 -0.1000 -0.0077
vn -0.9965 -0.0834 -0.0000
vn -0.0000 0.1064 -0.9943
vn -0.0000 -0.1234 0.9924
vn 0.9925 0.1222 -0.0000
vn 0.9965 -0.0834 -0.0000
vn -0.0000 -0.0209 0.9998
vn -0.0000 0.0464 -0.9989
vn -0.9925 0.1222 -0.0000
vn -0.9977 0.0678 0.0052
vn 0.7071 -0.0000 -0.7071
vn 0.5774 0.5774 -0.5773
vn 0.7066 0.0379 0.7066
vn 0.5409 0.6442 0.5408
vn -0.7071 -0.0000 -0.7071
vn -0.5774 0.5774 -0.5773
vn -0.7087 0.0400 0.7044
vn -0.5726 0.6498 0.4999
vn -0.0000 -0.4075 0.9132
vn -0.3363 -0.2384 0.9111
vn -0.0000 -0.0618 0.9981
vn -0.0000 -0.4472 -0.8944
vn 0.3015 -0.3015 -0.9045
vn -0.0000 0.7071 -0.7071
vn 0.8939 -0.4484 -0.0000
vn 0.9045 -0.3015 0.3015
vn 0.7071 0.7071 -0.0000
vn 0.3926 0.8534 -0.3429
vn -0.8944 -0.4472 -0.0000
vn -0.9011 -0.3235 -0.2888
vn -0.5094 0.8605 -0.0000
vn -0.7071 0.7071 -0.0000
vn -0.0000 0.7438 -0.6684
vn -0.5543 -0.6210 -0.5543
vn -0.4472 -0.8944 -0.0000
vn 0.4449 -0.8956 -0.0000
vn 0.5774 -0.5774 0.5773
vn 0.5774 -0.5773 0.5774
vn 0.5774 -0.5774 -0.5773
vn -0.6029 -0.5313 0.5952
vn 0.6029 -0.5313 0.5952
vn -0.5592 -0.6185 -0.5521
vn 0.5773 -0.5773 -0.5774
vn -0.5774 -0.5774 -0.5773
vn -0.5773 -0.5773 -0.5774
vn -0.5773 -0.5773 0.5774
vn 0.5592 -0.6185 -0.5521
vn -0.5774 -0.5773 0.5774
vn 0.7525 0.0670 -0.6552
vn 0.7497 -0.0310 0.6610
vn -0.0000 -0.0722 0.9974
vn -0.7497 -0.0310 0.6610
vn -0.7491 0.0637 -0.6594
vn -0.0000 0.0764 -0.9971
vn 0.5896 0.6154 -0.5231
vn 0.6020 0.5928 0.5350
vn -0.0000 0.6997 0.7145
vn -0.6020 0.5928 0.5350
vn -0.5896 0.6154 -0.5231
vn -0.0000 0.7233 -0.6905
vn 0.6249 0.7807 -0.0000
vn 0.7071 -0.0000 0.7071
vn -0.0000 0.0567 0.9984
vn -0.7071 -0.0000 0.7071
vn -0.0000 -0.7071 0.7071
vn -0.0000 -0.7071 -0.7071
vn -0.7071 -0.7071 -0.0000
vn 0.7071 -0.7071 -0.0000
vn -0.6249 0.7807 -0.0000
vn 0.7470 -0.1432 0.6492
vn 0.7541 0.0071 -0.6567
vn -0.0000 -0.7460 -0.6659
vn -0.0000 -0.6659 0.7460
vn 0.7071 -0.0800 -0.7026
vn -0.7071 -0.0800 -0.7026
vn -0.7071 0.0800 0.7026
vn 0.7071 0.0800 0.7026
vn 0.9998 0.0195 -0.0000
vn -0.9998 0.0195 -0.0000
vn 0.7483 0.0784 0.6587
vn 0.7453 0.1222 -0.6555
vn -0.7470 -0.1432 0.6492
vn -0.7541 0.0071 -0.6567
vn 0.7058 0.7084 -0.0000
vn -0.7058 0.7084 -0.0000
vn -0.7483 0.0784 0.6587
vn -0.7453 0.1222 -0.6555
vn -0.0000 -0.9971 -0.0764
vn -0.0000 0.7071 0.7071
vn -0.0000 0.9971 0.0764
vn -0.9950 -0.1000 -0.0077
vn -0.7505 0.1060 -0.6523
vn -0.7525 0.0188 -0.6583
vn 0.7505 0.1060 -0.6523
vn -0.0000 -0.6624 -0.7491
vn -0.0000 -0.6396 -0.7687
vn -0.0000 0.7493 -0.6623
vn 0.7525 0.0188 -0.6583
vn -0.0000 0.7688 -0.6394
vn 0.9977 0.0678 0.0052
vn -0.5505 -0.1346 0.8239
vn -0.4511 0.8925 -0.0000
vn -0.8239 -0.1346 -0.5505
vn 0.8239 -0.1346 0.5505
vn 0.5505 -0.1346 -0.8239
vn 0.4511 0.8925 -0.0000
vn -0.0000 0.8925 0.4511
vn -0.0000 -0.2319 -0.9727
vn -0.9727 -0.2319 -0.0000
vn 0.9727 -0.2319 -0.0000
vn -0.0000 -0.2319 0.9727
vn -0.0000 0.8925 -0.4511
vn 0.9808 -0.0000 0.1951
vn -0.1951 -0.0000 -0.9808
vn 0.1951 -0.0000 -0.9808
vn -0.5556 -0.0000 0.8315
vn 0.5556 -0.0000 0.8315
vn -0.8315 -0.0000 -0.5556
vn -0.5556 -0.0000 -0.8315
vn 0.9808 -0.0000 -0.1951
vn -0.9808 -0.0000 0.1951
vn -0.1951 -0.0000 0.9808
vn 0.8315 -0.0000 0.5556
vn -0.9808 -0.0000 -0.1951
vn 0.5556 -0.0000 -0.8315
vn 0.8315 -0.0000 -0.5556
vn 0.1951 -0.0000 0.9808
vn -0.8315 -0.0000 0.5556
vn -0.0000 0.1131 -0.9936
vn -0.0000 -0.1131 0.9936
vn -0.9950 -0.1000 0.0077
vn -0.0000 0.1064 0.9943
vn -0.0000 -0.1234 -0.9924
vn -0.0000 -0.0209 -0.9998
vn -0.0000 0.0464 0.9989
vn 0.9977 0.0678 -0.0052
vn -0.5773 0.5774 0.5773
vn -0.7066 0.0379 -0.7066
vn -0.5408 0.6442 -0.5408
vn 0.5774 0.5773 0.5774
vn 0.7087 0.0400 -0.7044
vn 0.5726 0.6498 -0.4999
vn -0.0000 -0.4075 -0.9132
vn 0.3363 -0.2384 -0.9111
vn -0.0000 -0.0618 -0.9981
vn -0.0000 -0.4472 0.8944
vn -0.3015 -0.3015 0.9045
vn -0.8938 -0.4484 -0.0000
vn -0.9045 -0.3015 -0.3015
vn -0.3926 0.8534 0.3428
vn 0.8944 -0.4472 -0.0000
vn 0.9011 -0.3235 0.2888
vn 0.5095 0.8605 -0.0000
vn -0.0000 0.7438 0.6684
vn 0.5543 -0.6210 0.5543
vn 0.4472 -0.8944 -0.0000
vn -0.4449 -0.8956 -0.0000
vn -0.5773 -0.5774 -0.5773
vn -0.5774 -0.5773 -0.5774
vn -0.5773 -0.5774 0.5773
vn 0.6029 -0.5313 -0.5952
vn -0.6029 -0.5313 -0.5952
vn 0.5592 -0.6185 0.5521
vn 0.5773 -0.5774 0.5774
vn 0.5773 -0.5774 -0.5774
vn -0.5592 -0.6185 0.5521
vn 0.5774 -0.5773 -0.5774
vn -0.7525 0.0670 0.6552
vn -0.7497 -0.0310 -0.6610
vn -0.0000 -0.0722 -0.9974
vn 0.7497 -0.0310 -0.6610
vn 0.7491 0.0637 0.6594
vn -0.0000 0.0764 0.9971
vn -0.5896 0.6154 0.5231
vn -0.6020 0.5928 -0.5350
vn -0.0000 0.6997 -0.7145
vn 0.6020 0.5928 -0.5350
vn 0.5896 0.6154 0.5231
vn -0.0000 0.7233 0.6905
vn -0.0000 0.0567 -0.9984
vn -0.7470 -0.1432 -0.6492
vn -0.7541 0.0071 0.6567
vn -0.0000 -0.7460 0.6659
vn -0.0000 -0.6659 -0.7460
vn -0.7071 -0.0800 0.7026
vn 0.7071 -0.0800 0.7026
vn 0.7071 0.0800 -0.7026
vn -0.7071 0.0800 -0.7026
vn -0.7483 0.0784 -0.6587
vn -0.7453 0.1222 0.6555
vn 0.7470 -0.1432 -0.6492
vn 0.7541 0.0071 0.6567
vn 0.7483 0.0784 -0.6587
vn 0.7453 0.1222 0.6555
vn -0.0000 -0.9971 0.0764
vn -0.0000 0.9971 -0.0764
vn 0.9950 -0.1000 0.0077
vn 0.7505 0.1060 0.6523
vn 0.7525 0.0188 0.6583
vn -0.7505 0.1060 0.6523
vn -0.0000 -0.6624 0.7491
vn -0.0000 -0.6396 0.7687
vn -0.0000 0.7493 0.6623
vn -0.7525 0.0188 0.6583
vn -0.0000 0.7688 0.6394
vn -0.9977 0.0678 -0.0052
vn 0.7087 0.0400 0.7044
vn 0.5726 0.6498 0.4999
vn -0.7066 0.0379 0.7066
vn -0.5409 0.6442 0.5408
vn 0.6165 -0.5567 0.5567
vn 0.7089 -0.0424 -0.7041
vn 0.5980 -0.5980 -0.5337
vn 0.5313 0.5313 0.6599
vn -0.7089 -0.0424 -0.7041
vn -0.5387 0.6993 -0.4699
vn -0.5313 0.5313 0.6599
vn 0.5543 -0.6210 -0.5543
vn 0.7491 0.0637 -0.6594
vn 0.7545 -0.0354 0.6554
vn -0.7545 -0.0354 0.6554
vn -0.7525 0.0670 -0.6552
vn 0.5535 0.0871 0.8283
vn 0.1949 0.0450 0.9798
vn -0.0000 0.0629 0.9980
vn -0.1950 -0.0334 0.9802
vn -0.8283 0.0871 0.5535
vn -0.9798 0.0450 0.1949
vn -0.9980 0.0629 -0.0000
vn -0.9802 -0.0334 -0.1950
vn 0.8283 0.0871 -0.5535
vn 0.9798 0.0450 -0.1949
vn 0.9980 0.0629 -0.0000
vn 0.9802 -0.0334 0.1950
vn -0.5535 0.0871 -0.8283
vn -0.1949 0.0450 -0.9798
vn -0.0000 0.0629 -0.9980
vn 0.1950 -0.0334 -0.9802
vn -0.7087 0.0400 -0.7044
vn -0.5726 0.6498 -0.4999
vn 0.7066 0.0379 -0.7066
vn 0.5408 0.6442 -0.5408
vn -0.6165 -0.5567 -0.5567
vn 0.5773 -0.5773 0.5774
vn -0.7089 -0.0424 0.7041
vn -0.5980 -0.5980 0.5337
vn -0.5313 0.5313 -0.6599
vn 0.7089 -0.0424 0.7041
vn 0.5387 0.6993 0.4699
vn 0.5313 0.5313 -0.6599
vn -0.5543 -0.6210 0.5543
vn -0.5774 -0.5773 -0.5773
vn -0.7491 0.0637 0.6594
vn -0.7545 -0.0354 -0.6554
vn 0.7545 -0.0354 -0.6554
vn 0.7525 0.0670 0.6552
vn -0.0000 -0.0723 -0.9974
vt 0.375000 0.006221
vt 0.375000 0.993779
vt 0.375000 0.000000
vt 0.432266 0.000000
vt 0.432266 0.993779
vt 0.375000 0.000000
vt 0.375000 0.006221
vt 0.432266 0.006221
vt 0.567734 0.006221
vt 0.567734 0.000000
vt 0.567734 0.993779
vt 0.625000 0.006221
vt 0.868779 0.743779
vt 0.625000 0.993779
vt 0.432266 0.243779
vt 0.432266 0.256221
vt 0.375000 0.256221
vt 0.375000 0.243738
vt 0.625000 0.243775
vt 0.625000 0.256207
vt 0.567734 0.256221
vt 0.567734 0.243779
vt 0.432266 0.743779
vt 0.432266 0.756221
vt 0.375000 0.756221
vt 0.375000 0.743779
vt 0.631221 0.743779
vt 0.625000 0.756221
vt 0.567734 0.756221
vt 0.567734 0.750000
vt 0.567734 0.743779
vt 0.432266 0.493779
vt 0.432266 0.506221
vt 0.375000 0.506262
vt 0.375000 0.493779
vt 0.625000 0.493793
vt 0.625000 0.506225
vt 0.567734 0.506221
vt 0.567734 0.493779
vt 0.375000 0.483603
vt 0.352381 0.500000
vt 0.352381 0.506262
vt 0.352381 0.506221
vt 0.346160 0.506221
vt 0.352381 0.500000
vt 0.346160 0.500000
vt 0.432266 0.471160
vt 0.352381 0.500000
vt 0.432266 0.483603
vt 0.375000 0.266399
vt 0.375000 0.266399
vt 0.432266 0.266399
vt 0.375000 0.272620
vt 0.153842 0.500000
vt 0.432266 0.278841
vt 0.375000 0.272620
vt 0.153841 0.506221
vt 0.147620 0.506262
vt 0.375000 0.272620
vt 0.625000 0.266416
vt 0.625000 0.278686
vt 0.567734 0.278841
vt 0.567734 0.266399
vt 0.625000 0.483586
vt 0.567734 0.483603
vt 0.567734 0.471160
vt 0.625000 0.471315
vt 0.375000 0.983601
vt 0.147620 0.743779
vt 0.375000 0.977380
vt 0.375000 0.977380
vt 0.153842 0.743779
vt 0.153842 0.750000
vt 0.375000 0.977380
vt 0.432266 0.971158
vt 0.375000 0.983601
vt 0.432266 0.983601
vt 0.375000 0.766397
vt 0.352381 0.750000
vt 0.352381 0.750000
vt 0.432266 0.766397
vt 0.352381 0.750000
vt 0.346160 0.750000
vt 0.432266 0.778840
vt 0.352381 0.743779
vt 0.346160 0.743779
vt 0.352381 0.743779
vt 0.567734 0.772619
vt 0.567734 0.766397
vt 0.625000 0.772619
vt 0.625000 0.766397
vt 0.641397 0.743779
vt 0.625000 0.778840
vt 0.653840 0.743779
vt 0.567734 0.778840
vt 0.567734 0.983601
vt 0.567734 0.977380
vt 0.567734 0.971158
vt 0.625000 0.977380
vt 0.625000 0.971159
vt 0.846158 0.743779
vt 0.625000 0.983601
vt 0.858601 0.743779
vt 0.375000 0.233696
vt 0.375000 0.227434
vt 0.131221 0.522566
vt 0.375000 0.227434
vt 0.131221 0.528787
vt 0.375000 0.227434
vt 0.125000 0.528787
vt 0.432266 0.221212
vt 0.375000 0.233655
vt 0.432266 0.233655
vt 0.375000 0.016345
vt 0.375000 0.016345
vt 0.432266 0.016345
vt 0.375000 0.022567
vt 0.125000 0.721212
vt 0.432266 0.028788
vt 0.375000 0.022567
vt 0.131221 0.721212
vt 0.131221 0.727433
vt 0.375000 0.022567
vt 0.567734 0.016345
vt 0.868779 0.733655
vt 0.625000 0.016345
vt 0.625000 0.028788
vt 0.625000 0.022567
vt 0.868779 0.721212
vt 0.567734 0.022567
vt 0.567734 0.028788
vt 0.567734 0.233655
vt 0.567734 0.227434
vt 0.567734 0.221213
vt 0.868779 0.528787
vt 0.625000 0.227434
vt 0.625000 0.221213
vt 0.625000 0.227434
vt 0.625000 0.228096
vt 0.868793 0.522566
vt 0.625000 0.234353
vt 0.625000 0.233656
vt 0.375000 0.733655
vt 0.368779 0.727433
vt 0.368779 0.721212
vt 0.432266 0.721212
vt 0.432266 0.733655
vt 0.375000 0.516304
vt 0.432266 0.516345
vt 0.432266 0.528787
vt 0.368779 0.528787
vt 0.368778 0.522566
vt 0.625000 0.516344
vt 0.631207 0.522566
vt 0.631221 0.528787
vt 0.567734 0.528787
vt 0.567734 0.516345
vt 0.567734 0.733655
vt 0.567734 0.721212
vt 0.631221 0.721212
vt 0.631221 0.733655
vt 0.641397 0.528787
vt 0.641414 0.522566
vt 0.653684 0.522566
vt 0.653840 0.528788
vt 0.641397 0.733655
vt 0.641397 0.721212
vt 0.653840 0.721212
vt 0.653840 0.733655
vt 0.858601 0.528787
vt 0.846158 0.528787
vt 0.846314 0.522566
vt 0.858584 0.522566
vt 0.858601 0.733655
vt 0.846158 0.733655
vt 0.846159 0.721212
vt 0.858601 0.721212
vt 0.147620 0.516304
vt 0.153841 0.516345
vt 0.153842 0.528788
vt 0.141399 0.528787
vt 0.141399 0.522566
vt 0.147620 0.733655
vt 0.141399 0.727433
vt 0.141399 0.721212
vt 0.153842 0.721212
vt 0.153842 0.733655
vt 0.352381 0.516304
vt 0.358603 0.522566
vt 0.358603 0.528787
vt 0.346160 0.528787
vt 0.346160 0.516345
vt 0.352381 0.733655
vt 0.346160 0.733655
vt 0.346160 0.721212
vt 0.358603 0.721212
vt 0.358603 0.727433
vt 0.125000 0.733655
vt 0.375000 0.016345
vt 0.131221 0.727433
vt 0.375000 0.022567
vt 0.131221 0.733655
vt 0.125000 0.743779
vt 0.375000 0.006221
vt 0.131221 0.743779
vt 0.131221 0.750000
vt 0.375000 0.000000
vt 0.375000 0.993779
vt 0.141399 0.500704
vt 0.375000 0.266399
vt 0.141399 0.500000
vt 0.147620 0.506970
vt 0.147620 0.506262
vt 0.375000 0.272620
vt 0.141399 0.506221
vt 0.131221 0.500704
vt 0.375000 0.256221
vt 0.131221 0.500000
vt 0.131221 0.506221
vt 0.125000 0.506970
vt 0.375000 0.243738
vt 0.375000 0.516304
vt 0.368779 0.522566
vt 0.368779 0.516345
vt 0.375000 0.506970
vt 0.375000 0.506262
vt 0.368779 0.506221
vt 0.368779 0.500704
vt 0.368779 0.500000
vt 0.375000 0.493779
vt 0.375000 0.766397
vt 0.358603 0.750000
vt 0.352381 0.750000
vt 0.352381 0.743779
vt 0.358603 0.743779
vt 0.368779 0.750000
vt 0.375000 0.756221
vt 0.368779 0.743779
vt 0.375000 0.743779
vt 0.358603 0.500704
vt 0.352381 0.500000
vt 0.375000 0.483603
vt 0.358603 0.500000
vt 0.358603 0.506221
vt 0.352381 0.506970
vt 0.352381 0.506262
vt 0.141399 0.750000
vt 0.375000 0.983601
vt 0.141399 0.743779
vt 0.147620 0.743779
vt 0.375000 0.977380
vt 0.147620 0.733655
vt 0.141399 0.733655
vt 0.141399 0.727433
vt 0.352381 0.733655
vt 0.358603 0.727433
vt 0.358603 0.733655
vt 0.125000 0.517013
vt 0.375000 0.233696
vt 0.131221 0.516345
vt 0.131221 0.522566
vt 0.375000 0.227434
vt 0.375000 0.733655
vt 0.368779 0.733655
vt 0.368779 0.727433
vt 0.147620 0.516304
vt 0.141399 0.522566
vt 0.141399 0.516345
vt 0.352381 0.516304
vt 0.358603 0.516345
vt 0.358603 0.522566
vt 0.869497 0.522566
vt 0.625000 0.227434
vt 0.625000 0.227687
vt 0.625000 0.227434
vt 0.869456 0.522566
vt 0.625000 0.233138
vt 0.625000 0.232934
vt 0.625000 0.232950
vt 0.625000 0.255503
vt 0.625000 0.244481
vt 0.625000 0.244501
vt 0.625000 0.255544
vt 0.625000 0.482921
vt 0.625000 0.482882
vt 0.625000 0.471784
vt 0.625000 0.471730
vt 0.625000 0.494456
vt 0.625000 0.505499
vt 0.625000 0.505519
vt 0.625000 0.494497
vt 0.625000 0.267080
vt 0.625000 0.278271
vt 0.625000 0.278218
vt 0.625000 0.267119
vt 0.625000 0.517066
vt 0.630544 0.522566
vt 0.630503 0.522566
vt 0.625000 0.517050
vt 0.653270 0.522566
vt 0.653216 0.522566
vt 0.642118 0.522566
vt 0.642079 0.522566
vt 0.846729 0.522566
vt 0.857920 0.522566
vt 0.857881 0.522566
vt 0.846782 0.522566
vt 0.868638 0.522566
vt 0.625000 0.227434
vt 0.625000 0.233801
vt 0.868632 0.516199
vt 0.625000 0.233747
vt 0.625000 0.249982
vt 0.625000 0.256363
vt 0.625000 0.243688
vt 0.868632 0.506368
vt 0.625000 0.243632
vt 0.625000 0.256368
vt 0.625000 0.477381
vt 0.625000 0.483739
vt 0.625000 0.471212
vt 0.625000 0.471014
vt 0.653986 0.506368
vt 0.625000 0.483749
vt 0.641251 0.506368
vt 0.625000 0.477381
vt 0.625000 0.493637
vt 0.631368 0.506368
vt 0.625000 0.493632
vt 0.625000 0.499981
vt 0.625000 0.506312
vt 0.625000 0.266262
vt 0.625000 0.266253
vt 0.858747 0.506368
vt 0.625000 0.278988
vt 0.846012 0.506368
vt 0.625000 0.272620
vt 0.625000 0.272620
vt 0.625000 0.278789
vt 0.625000 0.516253
vt 0.631368 0.516199
vt 0.631363 0.522566
vt 0.641251 0.516199
vt 0.653986 0.516199
vt 0.653788 0.522566
vt 0.641261 0.522566
vt 0.858747 0.516199
vt 0.858738 0.522566
vt 0.846211 0.522566
vt 0.846012 0.516198
vt 0.653840 0.528788
vt 0.846158 0.528787
vt 0.846159 0.721212
vt 0.653840 0.721212
vt 0.846158 0.528787
vt 0.837297 0.537649
vt 0.662702 0.537649
vt 0.653840 0.528788
vt 0.662701 0.712351
vt 0.653840 0.721212
vt 0.846159 0.721212
vt 0.837297 0.712351
vt 0.653216 0.522566
vt 0.663814 0.522566
vt 0.836185 0.522566
vt 0.846782 0.522566
vt 0.834979 0.522566
vt 0.846314 0.522566
vt 0.665019 0.522566
vt 0.653685 0.522566
vt 0.664002 0.522566
vt 0.653270 0.522566
vt 0.846729 0.522566
vt 0.835996 0.522566
vt 0.834720 0.522566
vt 0.846211 0.522566
vt 0.653788 0.522566
vt 0.665279 0.522566
vt 0.125000 0.750000
vt 0.250000 0.750000
vt 0.125000 0.500000
vt 0.375000 0.625000
vt 0.375000 0.750000
vt 0.250000 0.500000
vt 0.375000 0.500000
vt 0.125000 0.625000
vt 0.224194 0.599195
vt 0.275806 0.599194
vt 0.275806 0.650806
vt 0.224194 0.650806
vt 0.275806 0.599194
vt 0.224194 0.599195
vt 0.224194 0.650806
vt 0.275806 0.650806
vt 0.275806 0.599194
vt 0.267717 0.607283
vt 0.232283 0.607283
vt 0.224194 0.599195
vt 0.232283 0.642717
vt 0.224194 0.650806
vt 0.275806 0.650806
vt 0.267717 0.642717
vt 0.250000 0.599195
vt 0.224194 0.625000
vt 0.275806 0.625000
vt 0.250000 0.650806
vt 0.174597 0.549597
vt 0.325403 0.549597
vt 0.325403 0.700403
vt 0.174597 0.700403
vt 0.174597 0.625000
vt 0.250000 0.700403
vt 0.325403 0.625000
vt 0.250000 0.549597
vt 0.125000 0.687500
vt 0.237097 0.650806
vt 0.275806 0.637903
vt 0.262903 0.599195
vt 0.187500 0.500000
vt 0.187500 0.750000
vt 0.125000 0.562500
vt 0.375000 0.562500
vt 0.375000 0.687500
vt 0.312500 0.500000
vt 0.312500 0.750000
vt 0.224194 0.612097
vt 0.237097 0.599195
vt 0.224194 0.637903
vt 0.275806 0.612097
vt 0.262903 0.650806
vt 0.149799 0.524799
vt 0.300604 0.574396
vt 0.300604 0.675604
vt 0.199396 0.675604
vt 0.199396 0.574396
vt 0.350201 0.524799
vt 0.350201 0.725201
vt 0.149799 0.725201
vt 0.199396 0.625000
vt 0.149799 0.625000
vt 0.174597 0.662701
vt 0.174597 0.587299
vt 0.250000 0.675604
vt 0.250000 0.725201
vt 0.287701 0.700403
vt 0.212299 0.700403
vt 0.300604 0.625000
vt 0.350201 0.625000
vt 0.325403 0.587299
vt 0.325403 0.662701
vt 0.250000 0.574396
vt 0.250000 0.524799
vt 0.212299 0.549597
vt 0.287701 0.549597
vt 0.300101 0.524799
vt 0.199899 0.524799
vt 0.224698 0.574396
vt 0.350201 0.675101
vt 0.350201 0.574899
vt 0.300604 0.599698
vt 0.199899 0.725201
vt 0.199396 0.599698
vt 0.224698 0.675604
vt 0.300604 0.650302
vt 0.275302 0.574396
vt 0.149799 0.574899
vt 0.300101 0.725201
vt 0.199396 0.650302
vt 0.149799 0.675101
vt 0.275302 0.675604
vt 0.125000 0.750000
vt 0.250000 0.750000
vt 0.125000 0.500000
vt 0.375000 0.625000
vt 0.375000 0.750000
vt 0.250000 0.500000
vt 0.375000 0.500000
vt 0.125000 0.625000
vt 0.125000 0.687500
vt 0.187500 0.500000
vt 0.187500 0.750000
vt 0.125000 0.562500
vt 0.375000 0.562500
vt 0.375000 0.687500
vt 0.312500 0.500000
vt 0.312500 0.750000
vt 0.375000 0.006221
vt 0.375000 0.993779
vt 0.375000 0.000000
vt 0.432266 0.000000
vt 0.432266 0.993779
vt 0.375000 0.000000
vt 0.375000 0.006221
vt 0.432266 0.006221
vt 0.567734 0.006221
vt 0.567734 0.000000
vt 0.567734 0.993779
vt 0.868779 0.743779
vt 0.625000 0.993779
vt 0.625000 0.006221
vt 0.432266 0.243779
vt 0.432266 0.256221
vt 0.375000 0.256221
vt 0.375000 0.243738
vt 0.625000 0.243775
vt 0.625000 0.256207
vt 0.567734 0.256221
vt 0.567734 0.243779
vt 0.432266 0.743779
vt 0.432266 0.756221
vt 0.375000 0.756221
vt 0.375000 0.743779
vt 0.631221 0.743779
vt 0.625000 0.756221
vt 0.567734 0.756221
vt 0.567734 0.750000
vt 0.567734 0.743779
vt 0.432266 0.493779
vt 0.432266 0.506221
vt 0.375000 0.506262
vt 0.375000 0.493779
vt 0.625000 0.493793
vt 0.625000 0.506225
vt 0.567734 0.506221
vt 0.567734 0.493779
vt 0.375000 0.483603
vt 0.352381 0.500000
vt 0.352381 0.506262
vt 0.352381 0.506221
vt 0.346160 0.506221
vt 0.352381 0.500000
vt 0.346160 0.500000
vt 0.432266 0.471160
vt 0.352381 0.500000
vt 0.432266 0.483603
vt 0.375000 0.266399
vt 0.375000 0.266399
vt 0.432266 0.266399
vt 0.375000 0.272620
vt 0.153842 0.500000
vt 0.432266 0.278841
vt 0.375000 0.272620
vt 0.153841 0.506221
vt 0.147620 0.506262
vt 0.375000 0.272620
vt 0.625000 0.266416
vt 0.625000 0.278686
vt 0.567734 0.278841
vt 0.567734 0.266399
vt 0.625000 0.483586
vt 0.567734 0.483603
vt 0.567734 0.471160
vt 0.625000 0.471315
vt 0.375000 0.983601
vt 0.147620 0.743779
vt 0.375000 0.977380
vt 0.375000 0.977380
vt 0.153842 0.743779
vt 0.375000 0.977380
vt 0.153842 0.750000
vt 0.432266 0.971158
vt 0.375000 0.983601
vt 0.432266 0.983601
vt 0.375000 0.766397
vt 0.352381 0.750000
vt 0.352381 0.750000
vt 0.432266 0.766397
vt 0.352381 0.750000
vt 0.346160 0.750000
vt 0.432266 0.778840
vt 0.352381 0.743779
vt 0.346160 0.743779
vt 0.352381 0.743779
vt 0.567734 0.772619
vt 0.567734 0.766397
vt 0.625000 0.772619
vt 0.625000 0.766397
vt 0.641397 0.743779
vt 0.625000 0.778840
vt 0.653840 0.743779
vt 0.567734 0.778840
vt 0.567734 0.983601
vt 0.567734 0.977380
vt 0.567734 0.971158
vt 0.625000 0.977380
vt 0.625000 0.971159
vt 0.846158 0.743779
vt 0.625000 0.983601
vt 0.858601 0.743779
vt 0.375000 0.233696
vt 0.375000 0.227434
vt 0.131221 0.522566
vt 0.375000 0.227434
vt 0.131221 0.528787
vt 0.375000 0.227434
vt 0.125000 0.528787
vt 0.432266 0.221212
vt 0.375000 0.233655
vt 0.432266 0.233655
vt 0.375000 0.016345
vt 0.375000 0.016345
vt 0.432266 0.016345
vt 0.375000 0.022567
vt 0.125000 0.721212
vt 0.432266 0.028788
vt 0.375000 0.022567
vt 0.131221 0.721212
vt 0.131221 0.727433
vt 0.375000 0.022567
vt 0.567734 0.016345
vt 0.868779 0.733655
vt 0.625000 0.016345
vt 0.625000 0.028788
vt 0.625000 0.022567
vt 0.868779 0.721212
vt 0.567734 0.022567
vt 0.567734 0.028788
vt 0.567734 0.233655
vt 0.567734 0.227434
vt 0.567734 0.221213
vt 0.868779 0.528787
vt 0.625000 0.227434
vt 0.625000 0.221213
vt 0.625000 0.227434
vt 0.625000 0.228096
vt 0.868793 0.522566
vt 0.625000 0.234353
vt 0.625000 0.233656
vt 0.375000 0.733655
vt 0.368779 0.727433
vt 0.368779 0.721212
vt 0.432266 0.721212
vt 0.432266 0.733655
vt 0.375000 0.516304
vt 0.432266 0.516345
vt 0.432266 0.528787
vt 0.368779 0.528787
vt 0.368778 0.522566
vt 0.625000 0.516344
vt 0.631207 0.522566
vt 0.631221 0.528787
vt 0.567734 0.528787
vt 0.567734 0.516345
vt 0.567734 0.733655
vt 0.567734 0.721212
vt 0.631221 0.721212
vt 0.631221 0.733655
vt 0.641397 0.528787
vt 0.641414 0.522566
vt 0.653684 0.522566
vt 0.653840 0.528788
vt 0.641397 0.733655
vt 0.641397 0.721212
vt 0.653840 0.721212
vt 0.653840 0.733655
vt 0.858601 0.528787
vt 0.846158 0.528787
vt 0.846314 0.522566
vt 0.858584 0.522566
vt 0.858601 0.733655
vt 0.846158 0.733655
vt 0.846159 0.721212
vt 0.858601 0.721212
vt 0.147620 0.516304
vt 0.153841 0.516345
vt 0.153842 0.528788
vt 0.141399 0.528787
vt 0.141399 0.522566
vt 0.147620 0.733655
vt 0.141399 0.727433
vt 0.141399 0.721212
vt 0.153842 0.721212
vt 0.153842 0.733655
vt 0.352381 0.516304
vt 0.358603 0.522566
vt 0.358603 0.528787
vt 0.346160 0.528787
vt 0.346160 0.516345
vt 0.352381 0.733655
vt 0.346160 0.733655
vt 0.346160 0.721212
vt 0.358603 0.721212
vt 0.358603 0.727433
vt 0.125000 0.733655
vt 0.375000 0.016345
vt 0.131221 0.727433
vt 0.375000 0.022567
vt 0.131221 0.733655
vt 0.125000 0.743779
vt 0.375000 0.006221
vt 0.131221 0.743779
vt 0.131221 0.750000
vt 0.375000 0.000000
vt 0.375000 0.993779
vt 0.141399 0.500704
vt 0.375000 0.266399
vt 0.141399 0.500000
vt 0.147620 0.506970
vt 0.147620 0.506262
vt 0.375000 0.272620
vt 0.141399 0.506221
vt 0.131221 0.500704
vt 0.375000 0.256221
vt 0.131221 0.500000
vt 0.131221 0.506221
vt 0.125000 0.506970
vt 0.375000 0.243738
vt 0.375000 0.516304
vt 0.368779 0.522566
vt 0.368779 0.516345
vt 0.375000 0.506970
vt 0.375000 0.506262
vt 0.368779 0.506221
vt 0.368779 0.500704
vt 0.368779 0.500000
vt 0.375000 0.493779
vt 0.375000 0.766397
vt 0.358603 0.750000
vt 0.352381 0.750000
vt 0.352381 0.743779
vt 0.358603 0.743779
vt 0.368779 0.750000
vt 0.375000 0.756221
vt 0.368779 0.743779
vt 0.375000 0.743779
vt 0.358603 0.500704
vt 0.352381 0.500000
vt 0.375000 0.483603
vt 0.358603 0.500000
vt 0.358603 0.506221
vt 0.352381 0.506970
vt 0.352381 0.506262
vt 0.141399 0.750000
vt 0.375000 0.983601
vt 0.141399 0.743779
vt 0.147620 0.743779
vt 0.375000 0.977380
vt 0.147620 0.733655
vt 0.141399 0.733655
vt 0.141399 0.727433
vt 0.352381 0.733655
vt 0.358603 0.727433
vt 0.358603 0.733655
vt 0.125000 0.517013
vt 0.375000 0.233696
vt 0.131221 0.516345
vt 0.131221 0.522566
vt 0.375000 0.227434
vt 0.375000 0.733655
vt 0.368779 0.733655
vt 0.368779 0.727433
vt 0.147620 0.516304
vt 0.141399 0.522566
vt 0.141399 0.516345
vt 0.352381 0.516304
vt 0.358603 0.516345
vt 0.358603 0.522566
vt 0.869497 0.522566
vt 0.625000 0.227434
vt 0.625000 0.227687
vt 0.625000 0.227434
vt 0.869456 0.522566
vt 0.625000 0.233138
vt 0.625000 0.232934
vt 0.625000 0.232950
vt 0.625000 0.255503
vt 0.625000 0.244481
vt 0.625000 0.244501
vt 0.625000 0.255544
vt 0.625000 0.482921
vt 0.625000 0.482882
vt 0.625000 0.471784
vt 0.625000 0.471730
vt 0.625000 0.494456
vt 0.625000 0.505499
vt 0.625000 0.505519
vt 0.625000 0.494497
vt 0.625000 0.267080
vt 0.625000 0.278271
vt 0.625000 0.278218
vt 0.625000 0.267119
vt 0.625000 0.517066
vt 0.630544 0.522566
vt 0.630503 0.522566
vt 0.625000 0.517050
vt 0.653270 0.522566
vt 0.653216 0.522566
vt 0.642118 0.522566
vt 0.642079 0.522566
vt 0.846729 0.522566
vt 0.857920 0.522566
vt 0.857881 0.522566
vt 0.846782 0.522566
vt 0.868638 0.522566
vt 0.625000 0.227434
vt 0.625000 0.233801
vt 0.868632 0.516199
vt 0.625000 0.233747
vt 0.625000 0.249982
vt 0.625000 0.256363
vt 0.625000 0.243688
vt 0.868632 0.506368
vt 0.625000 0.243632
vt 0.625000 0.256368
vt 0.625000 0.477381
vt 0.625000 0.483739
vt 0.625000 0.471212
vt 0.653986 0.506368
vt 0.625000 0.471014
vt 0.625000 0.483749
vt 0.625000 0.477381
vt 0.641251 0.506368
vt 0.625000 0.493637
vt 0.631368 0.506368
vt 0.625000 0.493632
vt 0.625000 0.499981
vt 0.625000 0.506312
vt 0.625000 0.266262
vt 0.858747 0.506368
vt 0.625000 0.266253
vt 0.625000 0.278988
vt 0.625000 0.272620
vt 0.846012 0.506368
vt 0.625000 0.272620
vt 0.625000 0.278789
vt 0.625000 0.516253
vt 0.631368 0.516199
vt 0.631363 0.522566
vt 0.641251 0.516199
vt 0.653986 0.516199
vt 0.653788 0.522566
vt 0.641261 0.522566
vt 0.858747 0.516199
vt 0.858738 0.522566
vt 0.846211 0.522566
vt 0.846012 0.516198
vt 0.653840 0.528788
vt 0.846158 0.528787
vt 0.846159 0.721212
vt 0.653840 0.721212
vt 0.846158 0.528787
vt 0.837297 0.537649
vt 0.662702 0.537649
vt 0.653840 0.528788
vt 0.662701 0.712351
vt 0.653840 0.721212
vt 0.846159 0.721212
vt 0.837297 0.712351
vt 0.653216 0.522566
vt 0.663814 0.522566
vt 0.836185 0.522566
vt 0.846782 0.522566
vt 0.834979 0.522566
vt 0.846314 0.522566
vt 0.665019 0.522566
vt 0.653685 0.522566
vt 0.664002 0.522566
vt 0.653270 0.522566
vt 0.846729 0.522566
vt 0.835996 0.522566
vt 0.834720 0.522566
vt 0.846211 0.522566
vt 0.653788 0.522566
vt 0.665279 0.522566
s 0
f 11/18/1 177/259/1 67/104/1
f 26/35/2 165/242/2 31/40/2
f 19/26/3 180/263/3 86/143/3
f 2/2/4 168/248/4 49/68/4
f 83/135/5 120/177/5 113/170/5
f 14/21/6 37/52/6 9/16/6
f 29/38/3 92/149/3 24/33/3
f 80/131/1 70/111/1 74/119/1
f 109/166/5 20/27/5 104/161/5
f 50/69/3 171/252/3 126/183/3
f 54/78/4 162/237/4 18/25/4
f 137/194/7 51/72/7 130/187/7
f 36/50/2 150/217/2 10/17/2
f 40/58/3 183/266/3 148/213/3
f 32/42/1 186/269/1 131/188/1
f 172/253/7 145/205/7 143/202/7
f 105/162/5 103/160/5 98/155/5
f 68/106/8 184/267/8 125/182/8
f 21/29/4 55/81/4 17/24/4
f 213/300/9 275/377/9 270/372/9
f 28/37/10 212/299/10 96/153/10
f 97/154/11 215/302/11 106/163/11
f 13/20/12 208/295/12 41/60/12
f 84/140/11 219/306/11 189/272/11
f 127/184/6 142/200/6 76/122/6
f 87/144/6 175/256/6 140/197/6
f 25/34/3 153/222/3 156/226/3
f 94/151/7 139/196/7 133/190/7
f 63/96/4 3/5/4 53/77/4
f 124/181/7 75/121/7 69/108/7
f 195/282/13 223/312/13 225/315/13
f 149/215/7 178/260/7 151/219/7
f 166/244/7 155/224/7 187/270/7
f 181/264/7 161/235/7 176/257/7
f 101/158/3 16/23/3 90/147/3
f 48/67/12 207/294/12 199/286/12
f 132/189/8 154/223/8 95/152/8
f 81/132/1 8/15/1 71/113/1
f 27/36/12 198/285/12 204/291/12
f 43/62/6 34/47/6 38/55/6
f 12/19/14 192/279/14 194/281/14
f 46/65/6 23/32/6 35/49/6
f 136/193/1 160/234/1 58/87/1
f 5/9/1 73/116/1 4/8/1
f 118/175/5 61/94/5 112/169/5
f 78/125/5 66/103/5 117/174/5
f 235/334/5 222/311/5 245/347/5
f 205/292/15 224/314/15 234/332/15
f 218/305/16 221/308/16 190/276/16
f 33/44/7 122/179/7 39/57/7
f 99/156/3 89/146/3 93/150/3
f 249/351/3 258/360/3 252/354/3
f 134/191/7 129/186/7 123/180/7
f 62/95/4 52/75/4 56/84/4
f 236/336/5 242/344/5 229/323/5
f 232/328/5 241/343/5 239/341/5
f 202/289/17 238/340/17 209/296/17
f 206/293/15 228/321/15 200/287/15
f 220/307/18 266/368/18 264/366/18
f 216/303/16 240/342/16 244/346/16
f 197/284/15 231/327/15 201/288/15
f 2/3/19 4/7/19 1/1/19
f 5/9/20 6/10/20 7/12/20
f 9/16/21 11/18/21 8/15/21
f 12/19/22 14/21/22 15/22/22
f 17/24/23 19/26/23 16/23/23
f 20/28/24 21/29/24 22/30/24
f 23/32/25 25/34/25 26/35/25
f 28/37/26 30/39/26 27/36/26
f 32/42/27 34/45/27 35/48/27
f 37/51/28 39/56/28 40/59/28
f 41/60/29 43/62/29 44/63/29
f 45/64/29 47/66/29 48/67/29
f 50/70/30 52/74/30 53/76/30
f 55/80/31 57/85/31 58/87/31
f 60/90/32 62/95/32 59/88/32
f 64/97/32 66/102/32 63/96/32
f 68/105/33 70/109/33 71/112/33
f 73/115/34 75/120/34 76/123/34
f 78/126/35 80/130/35 77/124/35
f 82/133/36 84/139/36 85/141/36
f 87/144/37 89/146/37 90/147/37
f 92/149/38 94/151/38 95/152/38
f 97/154/39 99/156/39 100/157/39
f 102/159/40 104/161/40 101/158/40
f 106/163/41 108/165/41 105/162/41
f 110/167/5 112/169/5 109/166/5
f 114/171/41 116/173/41 113/170/41
f 118/175/5 120/177/5 117/174/5
f 122/179/42 124/181/42 125/182/42
f 127/184/43 129/186/43 130/187/43
f 132/189/44 134/191/44 135/192/44
f 137/194/45 139/196/45 140/197/45
f 141/198/46 142/200/46 143/202/46
f 144/203/47 145/205/47 146/206/47
f 147/209/48 148/212/48 149/215/48
f 150/216/49 151/219/49 152/220/49
f 153/222/50 154/223/50 155/224/50
f 156/225/48 157/227/48 158/228/48
f 159/232/51 160/234/51 161/235/51
f 162/236/52 163/238/52 164/239/52
f 165/240/49 166/244/49 167/245/49
f 168/247/53 169/249/53 170/250/53
f 171/252/54 172/253/54 173/254/54
f 174/255/46 175/256/46 176/257/46
f 177/258/55 178/260/55 179/261/55
f 180/263/56 181/264/56 182/265/56
f 183/266/50 184/267/50 185/268/50
f 186/269/55 187/270/55 188/271/55
f 190/274/57 192/279/57 189/273/57
f 193/280/58 195/282/58 196/283/58
f 197/284/59 199/286/59 200/287/59
f 202/289/60 204/291/60 201/288/60
f 205/292/59 207/294/59 208/295/59
f 210/297/61 212/299/61 209/296/61
f 214/301/62 216/303/62 213/300/62
f 218/305/62 220/307/62 217/304/62
f 221/309/63 222/310/63 223/312/63
f 224/313/64 225/315/64 226/317/64
f 228/321/65 230/326/65 227/319/65
f 231/327/66 232/329/66 233/330/66
f 235/333/65 237/338/65 234/332/65
f 238/340/67 239/341/67 240/342/67
f 241/343/68 243/345/68 244/346/68
f 245/347/68 247/349/68 248/350/68
f 72/114/1 4/8/1 73/116/1
f 6/10/19 4/8/19 3/4/19
f 85/142/69 15/22/69 81/132/69
f 9/16/70 15/22/70 14/21/70
f 36/50/71 9/16/71 37/52/71
f 27/36/29 46/65/29 45/64/29
f 24/33/72 30/39/72 29/38/72
f 91/148/3 24/33/3 92/149/3
f 104/161/40 22/31/40 101/158/40
f 17/24/23 22/31/23 21/29/23
f 54/78/4 17/24/4 55/81/4
f 7/14/32 63/96/32 66/102/32
f 26/35/71 35/49/71 23/32/71
f 39/57/73 34/46/73 33/44/73
f 13/20/29 44/63/29 14/21/29
f 48/67/29 43/62/29 42/61/29
f 2/2/4 53/77/4 3/5/4
f 51/72/74 56/83/74 52/73/74
f 20/28/32 59/89/32 21/29/32
f 61/93/32 64/98/32 62/95/32
f 112/169/5 60/92/5 109/166/5
f 117/174/5 65/101/5 118/175/5
f 51/72/75 126/183/75 130/187/75
f 58/87/76 137/194/76 136/193/76
f 56/84/4 59/89/4 62/95/4
f 53/77/4 64/98/4 63/96/4
f 38/55/6 44/63/6 43/62/6
f 35/49/6 47/66/6 46/65/6
f 67/104/1 8/15/1 11/18/1
f 75/121/76 70/110/76 69/108/76
f 78/126/35 5/9/35 7/12/35
f 83/137/35 80/131/35 79/127/35
f 86/143/3 16/23/3 19/26/3
f 94/151/75 89/146/75 88/145/75
f 96/153/77 29/38/77 28/37/77
f 103/160/40 99/156/40 98/155/40
f 13/20/78 194/281/78 193/280/78
f 111/168/5 105/162/5 108/165/5
f 189/273/79 85/142/79 84/138/79
f 120/177/5 114/171/5 113/170/5
f 39/57/75 121/178/75 40/58/75
f 129/186/7 124/181/7 123/180/7
f 131/188/76 33/44/76 32/42/76
f 139/196/7 134/191/7 133/190/7
f 123/180/7 135/192/7 134/191/7
f 137/194/7 129/186/7 138/195/7
f 124/181/80 68/106/80 125/182/80
f 76/122/73 128/185/73 127/184/73
f 114/171/41 107/164/41 115/172/41
f 118/175/5 111/168/5 119/176/5
f 105/162/41 97/154/41 106/163/41
f 109/166/5 103/160/5 110/167/5
f 113/170/41 84/140/41 83/135/41
f 117/174/5 79/129/5 78/125/5
f 133/190/80 95/152/80 94/151/80
f 140/197/73 88/145/73 87/144/73
f 93/150/3 100/157/3 99/156/3
f 90/147/3 102/159/3 101/158/3
f 74/119/1 77/124/1 80/131/1
f 71/113/1 82/134/1 81/132/1
f 145/205/76 141/198/76 143/202/76
f 151/219/81 147/211/81 149/215/81
f 155/224/75 156/226/75 153/222/75
f 163/238/74 159/232/74 161/235/74
f 157/227/81 165/243/81 158/229/81
f 145/205/74 168/247/74 146/206/74
f 170/250/75 172/253/75 171/252/75
f 161/235/76 174/255/76 176/257/76
f 178/260/76 152/220/76 151/219/76
f 181/264/75 164/239/75 163/238/75
f 148/213/75 185/268/75 149/215/75
f 187/270/76 167/246/76 166/244/76
f 184/267/80 178/260/80 185/268/80
f 172/253/73 142/200/73 173/254/73
f 154/223/80 187/270/80 155/224/80
f 176/257/73 182/265/73 181/264/73
f 67/104/82 179/262/82 68/105/82
f 121/178/83 184/267/83 183/266/83
f 131/188/82 188/271/82 132/189/82
f 91/148/83 154/223/83 153/222/83
f 162/237/23 19/26/23 18/25/23
f 87/144/72 180/263/72 182/265/72
f 171/252/72 127/184/72 126/183/72
f 72/114/70 142/201/70 141/199/70
f 160/234/19 54/79/19 58/87/19
f 36/50/84 148/214/84 147/210/84
f 136/193/70 175/256/70 174/255/70
f 152/221/85 10/17/85 150/217/85
f 156/226/84 26/35/84 25/34/84
f 167/246/85 31/41/85 165/241/85
f 168/248/23 50/70/23 49/68/23
f 2/3/19 144/204/19 146/207/19
f 191/278/86 194/281/86 192/279/86
f 201/288/59 198/285/59 197/284/59
f 196/283/59 208/295/59 193/280/59
f 200/287/59 207/294/59 206/293/59
f 209/296/87 203/290/87 202/289/87
f 196/283/88 225/315/88 224/314/88
f 190/275/89 223/312/89 191/278/89
f 214/301/62 217/304/62 220/307/62
f 215/302/62 210/297/62 216/303/62
f 219/306/62 190/276/62 189/272/62
f 199/286/12 45/64/12 48/67/12
f 203/290/90 27/36/90 204/291/90
f 207/294/12 41/60/12 208/295/12
f 211/298/91 96/153/91 212/299/91
f 220/307/11 116/173/11 115/172/11
f 214/301/11 106/163/11 215/302/11
f 222/310/92 225/315/92 223/312/92
f 232/329/65 227/320/65 230/324/65
f 226/318/65 234/332/65 224/314/65
f 229/322/65 237/339/65 236/335/65
f 239/341/93 233/331/93 232/328/93
f 229/323/5 241/343/5 230/325/5
f 235/334/5 248/350/5 236/336/5
f 243/345/68 248/350/68 247/349/68
f 244/346/68 239/341/68 241/343/68
f 246/348/68 222/311/68 221/308/68
f 217/304/16 246/348/16 218/305/16
f 244/346/16 213/300/16 216/303/16
f 234/332/15 206/293/15 205/292/15
f 227/320/15 200/287/15 228/321/15
f 233/331/94 201/288/94 231/327/94
f 238/340/95 210/297/95 209/296/95
f 72/114/1 144/204/1 1/1/1
f 108/165/5 250/352/5 249/351/5
f 114/171/5 251/353/5 250/352/5
f 119/176/5 252/354/5 251/353/5
f 111/168/5 249/351/5 252/354/5
f 251/353/1 253/355/1 250/352/1
f 254/356/5 257/359/5 255/357/5
f 220/307/96 261/363/96 214/301/96
f 252/354/4 259/361/4 251/353/4
f 255/357/97 253/355/97 254/356/97
f 257/359/40 256/358/40 255/357/40
f 254/356/35 259/361/35 260/362/35
f 260/362/32 258/360/32 257/359/32
f 250/352/6 256/358/6 249/351/6
f 213/300/98 271/373/98 217/304/98
f 247/349/96 275/377/96 243/345/96
f 267/369/11 263/365/11 265/367/11
f 107/164/98 266/368/98 115/172/98
f 217/304/99 274/376/99 247/349/99
f 272/374/16 276/378/16 273/375/16
f 269/371/100 275/377/100 276/378/100
f 262/364/101 268/370/101 261/363/101
f 272/374/102 274/376/102 271/373/102
f 272/374/103 270/372/103 269/371/103
f 265/367/104 268/370/104 267/369/104
f 273/375/105 275/377/105 274/376/105
f 263/365/106 266/368/106 265/367/106
f 262/364/107 264/366/107 263/365/107
f 214/301/108 268/370/108 107/164/108
f 341/443/7 328/430/7 368/470/7
f 338/440/7 339/441/7 367/469/7
f 337/439/7 326/428/7 366/468/7
f 342/444/7 343/445/7 365/467/7
f 314/416/109 288/390/109 292/394/109
f 364/466/7 305/407/7 340/442/7
f 363/465/7 286/388/7 316/418/7
f 362/464/7 287/389/7 315/417/7
f 361/463/7 288/390/7 314/416/7
f 360/462/7 285/387/7 324/426/7
f 291/393/110 296/398/110 298/400/110
f 324/426/111 285/387/111 291/393/111
f 315/417/112 287/389/112 289/391/112
f 316/418/113 286/388/113 290/392/113
f 289/391/114 299/401/114 293/395/114
f 294/396/7 297/399/7 295/397/7
f 291/393/115 299/401/115 292/394/115
f 295/397/116 293/395/116 294/396/116
f 295/397/117 298/400/117 296/398/117
f 294/396/118 299/401/118 300/402/118
f 300/402/119 298/400/119 297/399/119
f 290/392/120 293/395/120 296/398/120
f 359/461/7 308/410/7 344/446/7
f 345/447/7 327/429/7 358/460/7
f 346/448/7 347/449/7 357/459/7
f 356/458/7 307/409/7 348/450/7
f 349/451/7 325/427/7 355/457/7
f 350/452/7 351/453/7 354/456/7
f 353/455/7 306/408/7 352/454/7
f 350/452/7 352/454/7 312/414/7
f 322/424/7 350/452/7 282/384/7
f 322/424/7 334/436/7 353/455/7
f 354/456/7 305/407/7 329/431/7
f 317/419/7 329/431/7 279/381/7
f 317/419/7 350/452/7 354/456/7
f 355/457/7 285/387/7 333/435/7
f 351/453/7 333/435/7 305/407/7
f 312/414/7 355/457/7 351/453/7
f 346/448/7 348/450/7 311/413/7
f 321/423/7 346/448/7 280/382/7
f 321/423/7 335/437/7 356/458/7
f 357/459/7 306/408/7 334/436/7
f 320/422/7 334/436/7 283/385/7
f 320/422/7 346/448/7 357/459/7
f 358/460/7 286/388/7 330/432/7
f 347/449/7 330/432/7 306/408/7
f 311/413/7 358/460/7 347/449/7
f 342/444/7 344/446/7 310/412/7
f 318/420/7 342/444/7 278/380/7
f 318/420/7 336/438/7 359/461/7
f 337/439/7 324/426/7 302/404/7
f 309/411/7 360/462/7 337/439/7
f 340/442/7 333/435/7 360/462/7
f 341/443/7 314/416/7 304/406/7
f 310/412/7 361/463/7 341/443/7
f 344/446/7 332/434/7 361/463/7
f 345/447/7 315/417/7 303/405/7
f 311/413/7 362/464/7 345/447/7
f 348/450/7 331/433/7 362/464/7
f 349/451/7 316/418/7 301/403/7
f 312/414/7 363/465/7 349/451/7
f 352/454/7 330/432/7 363/465/7
f 338/440/7 340/442/7 309/411/7
f 319/421/7 338/440/7 284/386/7
f 319/421/7 329/431/7 364/466/7
f 365/467/7 307/409/7 335/437/7
f 323/425/7 335/437/7 281/383/7
f 323/425/7 342/444/7 365/467/7
f 366/468/7 288/390/7 332/434/7
f 339/441/7 332/434/7 308/410/7
f 309/411/7 366/468/7 339/441/7
f 367/469/7 308/410/7 336/438/7
f 313/415/7 336/438/7 277/379/7
f 313/415/7 338/440/7 367/469/7
f 368/470/7 287/389/7 331/433/7
f 343/445/7 331/433/7 307/409/7
f 310/412/7 368/470/7 343/445/7
f 280/382/121 382/484/121 321/423/121
f 317/419/122 374/476/122 282/384/122
f 282/384/123 383/485/123 322/424/123
f 318/420/124 369/471/124 277/379/124
f 281/383/125 384/486/125 323/425/125
f 319/421/126 371/473/126 279/381/126
f 279/381/127 378/480/127 317/419/127
f 320/422/128 372/474/128 280/382/128
f 313/415/129 376/478/129 284/386/129
f 278/380/130 379/481/130 318/420/130
f 321/423/131 373/475/131 281/383/131
f 284/386/132 380/482/132 319/421/132
f 322/424/133 375/477/133 283/385/133
f 283/385/134 381/483/134 320/422/134
f 323/425/135 370/472/135 278/380/135
f 277/379/136 377/479/136 313/415/136
f 372/474/5 374/476/5 376/478/5
f 395/504/3 561/745/3 451/590/3
f 410/521/137 549/728/137 415/526/137
f 403/512/1 564/749/1 470/629/1
f 386/488/6 552/734/6 433/554/6
f 467/621/5 504/663/5 497/656/5
f 398/507/4 421/538/4 393/502/4
f 413/524/1 476/635/1 408/519/1
f 464/617/3 454/597/3 458/605/3
f 493/652/5 404/513/5 488/647/5
f 434/555/1 555/738/1 510/669/1
f 438/564/6 546/723/6 402/511/6
f 514/673/7 441/572/7 435/558/7
f 420/536/137 534/703/137 394/503/137
f 424/544/1 567/752/1 532/699/1
f 416/528/3 570/755/3 515/674/3
f 556/739/7 529/691/7 527/688/7
f 489/648/5 487/646/5 482/641/5
f 509/668/138 563/747/138 568/753/138
f 405/515/6 439/567/6 401/510/6
f 597/786/139 659/863/139 654/858/139
f 412/523/14 596/785/14 480/639/14
f 481/640/140 599/788/140 490/649/140
f 397/506/141 592/781/141 425/546/141
f 468/626/140 603/792/140 573/758/140
f 511/670/4 526/686/4 460/608/4
f 471/630/4 559/742/4 524/683/4
f 409/520/1 537/708/1 540/712/1
f 478/637/7 523/682/7 517/676/7
f 447/582/6 387/491/6 437/563/6
f 508/667/7 459/607/7 453/594/7
f 579/768/17 607/798/17 609/801/17
f 533/701/7 562/746/7 535/705/7
f 541/713/7 571/756/7 550/730/7
f 565/750/7 545/721/7 560/743/7
f 485/644/1 400/509/1 474/633/1
f 432/553/141 591/780/141 583/772/141
f 516/675/138 538/709/138 479/638/138
f 465/618/3 392/501/3 455/599/3
f 411/522/141 582/771/141 588/777/141
f 427/548/4 418/533/4 422/541/4
f 396/505/10 576/765/10 578/767/10
f 430/551/4 407/518/4 419/535/4
f 520/679/3 544/720/3 442/573/3
f 389/495/3 457/602/3 388/494/3
f 502/661/5 445/580/5 496/655/5
f 462/611/5 450/589/5 501/660/5
f 619/819/5 606/797/5 629/833/5
f 589/778/142 608/800/142 618/818/142
f 602/791/143 605/794/143 574/762/143
f 417/530/7 506/665/7 423/543/7
f 483/642/1 473/632/1 477/636/1
f 633/837/1 642/846/1 636/840/1
f 518/677/7 513/672/7 507/666/7
f 446/581/6 436/561/6 440/570/6
f 620/823/5 626/830/5 613/808/5
f 614/812/5 623/827/5 616/814/5
f 586/775/13 622/826/13 593/782/13
f 590/779/142 612/807/142 584/773/142
f 604/793/144 650/854/144 648/852/144
f 600/789/143 624/828/143 628/832/143
f 581/770/142 615/813/142 585/774/142
f 386/489/72 388/493/72 385/487/72
f 389/495/145 390/496/145 391/500/145
f 393/502/146 395/504/146 392/501/146
f 396/505/147 398/507/147 399/508/147
f 401/510/70 403/512/70 400/509/70
f 404/514/148 405/515/148 406/516/148
f 407/518/149 409/520/149 410/521/149
f 412/523/150 414/525/150 411/522/150
f 416/528/151 418/531/151 419/534/151
f 421/537/152 423/542/152 424/545/152
f 425/546/153 427/548/153 428/549/153
f 429/550/153 431/552/153 432/553/153
f 434/556/154 436/559/154 437/562/154
f 439/566/155 441/571/155 442/573/155
f 444/576/97 446/581/97 443/574/97
f 448/583/97 450/588/97 447/582/97
f 452/591/156 454/595/156 455/598/156
f 457/601/157 459/606/157 460/609/157
f 462/612/40 464/616/40 461/610/40
f 466/619/158 468/625/158 469/627/158
f 471/630/159 473/632/159 474/633/159
f 476/635/160 478/637/160 479/638/160
f 481/640/161 483/642/161 484/643/161
f 486/645/35 488/647/35 485/644/35
f 490/649/162 492/651/162 489/648/162
f 494/653/5 496/655/5 493/652/5
f 498/657/162 500/659/162 497/656/162
f 502/661/5 504/663/5 501/660/5
f 506/665/163 508/667/163 509/668/163
f 511/670/164 513/672/164 514/673/164
f 516/675/165 518/677/165 519/678/165
f 521/680/166 523/682/166 524/683/166
f 525/684/167 526/686/167 527/688/167
f 528/689/168 529/691/168 530/692/168
f 531/695/169 532/698/169 533/701/169
f 534/702/170 535/705/170 536/706/170
f 537/708/171 538/709/171 539/710/171
f 540/711/169 541/713/169 542/714/169
f 543/718/54 544/720/54 545/721/54
f 546/722/46 547/724/46 548/725/46
f 549/726/170 550/730/170 551/731/170
f 552/733/172 553/735/172 554/736/172
f 555/738/173 556/739/173 557/740/173
f 558/741/167 559/742/167 560/743/167
f 561/744/174 562/746/174 563/747/174
f 564/749/175 565/750/175 566/751/175
f 567/752/171 568/753/171 569/754/171
f 570/755/174 571/756/174 572/757/174
f 574/760/176 576/765/176 573/759/176
f 577/766/177 579/768/177 580/769/177
f 581/770/178 583/772/178 584/773/178
f 586/775/179 588/777/179 585/774/179
f 589/778/178 591/780/178 592/781/178
f 594/783/180 596/785/180 593/782/180
f 598/787/181 600/789/181 597/786/181
f 602/791/181 604/793/181 601/790/181
f 605/795/182 606/796/182 607/798/182
f 608/799/183 609/801/183 610/803/183
f 612/807/184 614/811/184 611/805/184
f 615/813/185 616/815/185 617/816/185
f 619/820/184 621/824/184 618/818/184
f 622/826/186 623/827/186 624/828/186
f 625/829/187 627/831/187 628/832/187
f 629/833/187 631/835/187 632/836/187
f 385/487/3 457/602/3 456/600/3
f 390/496/72 388/494/72 387/490/72
f 469/628/77 399/508/77 465/618/77
f 393/502/23 399/508/23 398/507/23
f 420/536/188 393/502/188 421/538/188
f 411/522/153 430/551/153 429/550/153
f 408/519/19 414/525/19 413/524/19
f 475/634/1 408/519/1 476/635/1
f 404/513/35 485/644/35 488/647/35
f 401/510/70 406/517/70 405/515/70
f 438/564/6 401/510/6 439/567/6
f 391/499/97 447/582/97 450/588/97
f 410/521/188 419/535/188 407/518/188
f 423/543/74 418/532/74 417/530/74
f 397/506/153 428/549/153 398/507/153
f 432/553/153 427/548/153 426/547/153
f 386/488/6 437/563/6 387/491/6
f 441/572/73 436/560/73 435/558/73
f 404/514/97 443/575/97 405/515/97
f 445/579/97 448/584/97 446/581/97
f 496/655/5 444/578/5 493/652/5
f 501/660/5 449/587/5 502/661/5
f 435/558/76 510/669/76 514/673/76
f 442/573/75 521/680/75 520/679/75
f 440/570/6 443/575/6 446/581/6
f 437/563/6 448/584/6 447/582/6
f 422/541/4 428/549/4 427/548/4
f 419/535/4 431/552/4 430/551/4
f 451/590/3 392/501/3 395/504/3
f 459/607/75 454/596/75 453/594/75
f 391/500/40 461/610/40 389/495/40
f 467/623/40 464/617/40 463/613/40
f 470/629/1 400/509/1 403/512/1
f 478/637/76 473/632/76 472/631/76
f 480/639/69 413/524/69 412/523/69
f 487/646/35 483/642/35 482/641/35
f 397/506/189 578/767/189 577/766/189
f 495/654/5 489/648/5 492/651/5
f 573/759/190 469/628/190 468/624/190
f 504/663/5 498/657/5 497/656/5
f 423/543/76 505/664/76 424/544/76
f 507/666/7 512/671/7 508/667/7
f 515/674/75 417/530/75 416/528/75
f 517/676/7 522/681/7 518/677/7
f 507/666/7 519/678/7 518/677/7
f 514/673/7 522/681/7 521/680/7
f 508/667/191 452/592/191 509/668/191
f 460/608/74 512/671/74 511/670/74
f 498/657/162 491/650/162 499/658/162
f 496/655/5 503/662/5 502/661/5
f 489/648/162 481/640/162 490/649/162
f 493/652/5 487/646/5 494/653/5
f 497/656/162 468/626/162 467/621/162
f 501/660/5 463/615/5 462/611/5
f 517/676/191 479/638/191 478/637/191
f 524/683/74 472/631/74 471/630/74
f 477/636/1 484/643/1 483/642/1
f 474/633/1 486/645/1 485/644/1
f 458/605/3 461/610/3 464/617/3
f 455/599/3 466/620/3 465/618/3
f 529/691/75 525/684/75 527/688/75
f 535/705/192 531/697/192 533/701/192
f 539/710/76 540/712/76 537/708/76
f 547/724/73 543/718/73 545/721/73
f 541/713/192 549/729/192 542/715/192
f 529/691/73 552/733/73 530/692/73
f 554/736/76 556/739/76 555/738/76
f 545/721/75 558/741/75 560/743/75
f 562/746/75 536/706/75 535/705/75
f 547/724/76 564/749/76 548/725/76
f 532/699/76 569/754/76 533/701/76
f 571/756/75 551/732/75 550/730/75
f 563/747/191 569/754/191 568/753/191
f 527/688/74 557/740/74 556/739/74
f 538/709/191 571/756/191 539/710/191
f 560/743/74 566/751/74 565/750/74
f 451/590/193 563/748/193 452/591/193
f 505/664/194 568/753/194 567/752/194
f 515/674/193 572/757/193 516/675/193
f 475/634/194 538/709/194 537/708/194
f 546/723/70 403/512/70 402/511/70
f 471/630/19 564/749/19 566/751/19
f 555/738/19 511/670/19 510/669/19
f 456/600/23 526/687/23 525/685/23
f 544/720/72 438/565/72 442/573/72
f 420/536/195 532/700/195 531/696/195
f 520/679/23 559/742/23 558/741/23
f 536/707/196 394/503/196 534/703/196
f 540/712/195 410/521/195 409/520/195
f 551/732/196 415/527/196 549/727/196
f 552/734/70 434/556/70 433/554/70
f 386/489/72 528/690/72 530/693/72
f 575/764/87 578/767/87 576/765/87
f 585/774/178 582/771/178 581/770/178
f 580/769/178 592/781/178 577/766/178
f 584/773/178 591/780/178 590/779/178
f 593/782/86 587/776/86 586/775/86
f 580/769/197 609/801/197 608/800/197
f 574/761/198 607/798/198 575/764/198
f 598/787/181 601/790/181 604/793/181
f 599/788/181 594/783/181 600/789/181
f 603/792/181 574/762/181 573/758/181
f 583/772/141 429/550/141 432/553/141
f 587/776/199 411/522/199 588/777/199
f 591/780/141 425/546/141 592/781/141
f 595/784/200 480/639/200 596/785/200
f 604/793/140 500/659/140 499/658/140
f 598/787/140 490/649/140 599/788/140
f 606/796/93 609/801/93 607/798/93
f 616/815/184 611/806/184 614/810/184
f 610/804/184 618/818/184 608/800/184
f 613/809/184 621/825/184 620/821/184
f 623/827/92 617/817/92 616/814/92
f 626/830/5 614/812/5 613/808/5
f 629/833/5 620/823/5 619/819/5
f 627/831/187 632/836/187 631/835/187
f 628/832/187 623/827/187 625/829/187
f 630/834/187 606/797/187 605/794/187
f 601/790/143 630/834/143 602/791/143
f 628/832/143 597/786/143 600/789/143
f 618/818/142 590/779/142 589/778/142
f 611/806/142 584/773/142 612/807/142
f 617/817/201 585/774/201 615/813/201
f 622/826/202 594/783/202 593/782/202
f 456/600/3 528/690/3 385/487/3
f 492/651/5 634/838/5 633/837/5
f 498/657/5 635/839/5 634/838/5
f 503/662/5 636/840/5 635/839/5
f 495/654/5 633/837/5 636/840/5
f 635/839/3 637/841/3 634/838/3
f 638/842/5 641/845/5 639/843/5
f 604/793/203 645/849/203 598/787/203
f 636/840/6 643/847/6 635/839/6
f 638/842/32 640/844/32 637/841/32
f 641/845/35 640/844/35 639/843/35
f 638/842/40 643/847/40 644/848/40
f 644/848/97 642/846/97 641/845/97
f 634/838/4 640/844/4 633/837/4
f 597/786/204 655/859/204 601/790/204
f 631/835/203 659/863/203 627/831/203
f 651/855/140 647/851/140 649/853/140
f 491/650/204 650/854/204 499/658/204
f 601/790/205 658/862/205 631/835/205
f 656/860/143 660/864/143 657/861/143
f 653/857/206 659/863/206 660/864/206
f 646/850/207 652/856/207 645/849/207
f 656/860/208 658/862/208 655/859/208
f 656/860/209 654/858/209 653/857/209
f 649/853/210 652/856/210 651/855/210
f 660/864/211 658/862/211 657/861/211
f 647/851/212 650/854/212 649/853/212
f 646/850/213 648/852/213 647/851/213
f 598/787/214 652/856/214 491/650/214
f 11/18/1 152/221/1 177/259/1
f 26/35/2 158/230/2 165/242/2
f 19/26/3 164/239/3 180/263/3
f 2/2/4 146/208/4 168/248/4
f 83/135/5 79/129/5 120/177/5
f 14/21/6 44/63/6 37/52/6
f 29/38/3 100/157/3 92/149/3
f 80/131/1 82/134/1 70/111/1
f 109/166/5 60/92/5 20/27/5
f 50/69/3 170/250/3 171/252/3
f 54/78/4 159/231/4 162/237/4
f 137/194/7 57/86/7 51/72/7
f 36/50/2 147/210/2 150/217/2
f 40/58/3 121/178/3 183/266/3
f 32/42/1 167/246/1 186/269/1
f 172/253/7 169/249/7 145/205/7
f 105/162/5 110/167/5 103/160/5
f 68/106/8 179/261/8 184/267/8
f 21/29/4 59/89/4 55/81/4
f 213/300/9 243/345/9 275/377/9
f 28/37/10 203/290/10 212/299/10
f 97/154/11 211/298/11 215/302/11
f 13/20/12 193/280/12 208/295/12
f 84/140/11 116/173/11 219/306/11
f 127/184/6 173/254/6 142/200/6
f 87/144/6 182/265/6 175/256/6
f 25/34/3 91/148/3 153/222/3
f 94/151/7 88/145/7 139/196/7
f 63/96/4 6/11/4 3/5/4
f 124/181/7 128/185/7 75/121/7
f 195/282/13 191/278/13 223/312/13
f 149/215/7 185/268/7 178/260/7
f 166/244/7 157/227/7 155/224/7
f 181/264/7 163/238/7 161/235/7
f 101/158/3 22/31/3 16/23/3
f 48/67/12 42/61/12 207/294/12
f 132/189/8 188/271/8 154/223/8
f 81/132/1 15/22/1 8/15/1
f 27/36/12 45/64/12 198/285/12
f 43/62/6 47/66/6 34/47/6
f 12/19/14 85/142/14 192/279/14
f 46/65/6 30/39/6 23/32/6
f 136/193/1 174/255/1 160/234/1
f 5/9/1 77/124/1 73/116/1
f 118/175/5 65/101/5 61/94/5
f 78/125/5 7/13/5 66/103/5
f 235/334/5 226/316/5 222/311/5
f 205/292/15 196/283/15 224/314/15
f 218/305/16 246/348/16 221/308/16
f 33/44/7 135/192/7 122/179/7
f 99/156/3 102/159/3 89/146/3
f 249/351/3 256/358/3 258/360/3
f 134/191/7 138/195/7 129/186/7
f 62/95/4 64/98/4 52/75/4
f 236/336/5 248/350/5 242/344/5
f 232/328/5 230/325/5 241/343/5
f 202/289/17 233/331/17 238/340/17
f 206/293/15 237/339/15 228/321/15
f 220/307/18 115/172/18 266/368/18
f 216/303/16 210/297/16 240/342/16
f 197/284/15 227/320/15 231/327/15
f 2/3/19 3/6/19 4/7/19
f 9/16/215 10/17/215 11/18/215
f 12/19/216 13/20/216 14/21/216
f 17/24/23 18/25/23 19/26/23
f 23/32/217 24/33/217 25/34/217
f 28/37/218 29/38/218 30/39/218
f 35/48/215 31/41/215 32/42/215
f 32/42/219 33/43/219 34/45/219
f 40/59/25 36/50/25 37/51/25
f 37/51/73 38/53/73 39/56/73
f 41/60/29 42/61/29 43/62/29
f 45/64/29 46/65/29 47/66/29
f 53/76/23 49/68/23 50/70/23
f 50/70/167 51/71/167 52/74/167
f 58/87/19 54/79/19 55/80/19
f 55/80/74 56/82/74 57/85/74
f 60/90/32 61/93/32 62/95/32
f 64/97/32 65/99/32 66/102/32
f 71/112/220 67/104/220 68/105/220
f 68/105/221 69/107/221 70/109/221
f 76/123/70 72/114/70 73/115/70
f 73/115/76 74/117/76 75/120/76
f 78/126/35 79/128/35 80/130/35
f 85/141/69 81/132/69 82/133/69
f 82/133/222 83/136/222 84/139/222
f 90/147/72 86/143/72 87/144/72
f 87/144/56 88/145/56 89/146/56
f 95/152/223 91/148/223 92/149/223
f 92/149/75 93/150/75 94/151/75
f 100/157/224 96/153/224 97/154/224
f 97/154/225 98/155/225 99/156/225
f 102/159/40 103/160/40 104/161/40
f 106/163/41 107/164/41 108/165/41
f 110/167/5 111/168/5 112/169/5
f 114/171/41 115/172/41 116/173/41
f 118/175/5 119/176/5 120/177/5
f 125/182/42 121/178/42 122/179/42
f 122/179/7 123/180/7 124/181/7
f 130/187/54 126/183/54 127/184/54
f 127/184/73 128/185/73 129/186/73
f 135/192/226 131/188/226 132/189/226
f 132/189/80 133/190/80 134/191/80
f 140/197/45 136/193/45 137/194/45
f 137/194/7 138/195/7 139/196/7
f 190/274/227 191/277/227 192/279/227
f 193/280/228 194/281/228 195/282/228
f 197/284/59 198/285/59 199/286/59
f 202/289/229 203/290/229 204/291/229
f 205/292/59 206/293/59 207/294/59
f 210/297/230 211/298/230 212/299/230
f 214/301/62 215/302/62 216/303/62
f 218/305/62 219/306/62 220/307/62
f 228/321/65 229/322/65 230/326/65
f 235/333/65 236/337/65 237/338/65
f 241/343/68 242/344/68 243/345/68
f 245/347/68 246/348/68 247/349/68
f 72/114/1 1/1/1 4/8/1
f 6/10/19 5/9/19 4/8/19
f 85/142/69 12/19/69 15/22/69
f 9/16/70 8/15/70 15/22/70
f 36/50/71 10/17/71 9/16/71
f 27/36/29 30/39/29 46/65/29
f 24/33/72 23/32/72 30/39/72
f 91/148/3 25/34/3 24/33/3
f 104/161/40 20/27/40 22/31/40
f 17/24/23 16/23/23 22/31/23
f 54/78/4 18/25/4 17/24/4
f 7/14/32 6/11/32 63/96/32
f 26/35/71 31/40/71 35/49/71
f 39/57/73 38/54/73 34/46/73
f 13/20/29 41/60/29 44/63/29
f 48/67/29 47/66/29 43/62/29
f 2/2/4 49/68/4 53/77/4
f 51/72/74 57/86/74 56/83/74
f 20/28/32 60/91/32 59/89/32
f 61/93/32 65/100/32 64/98/32
f 112/169/5 61/94/5 60/92/5
f 117/174/5 66/103/5 65/101/5
f 51/72/75 50/69/75 126/183/75
f 58/87/76 57/86/76 137/194/76
f 56/84/4 55/81/4 59/89/4
f 53/77/4 52/75/4 64/98/4
f 38/55/6 37/52/6 44/63/6
f 35/49/6 34/47/6 47/66/6
f 67/104/1 71/113/1 8/15/1
f 75/121/76 74/118/76 70/110/76
f 78/126/35 77/124/35 5/9/35
f 83/137/35 82/134/35 80/131/35
f 86/143/3 90/147/3 16/23/3
f 94/151/75 93/150/75 89/146/75
f 96/153/77 100/157/77 29/38/77
f 103/160/40 102/159/40 99/156/40
f 13/20/78 12/19/78 194/281/78
f 111/168/5 110/167/5 105/162/5
f 189/273/79 192/279/79 85/142/79
f 120/177/5 119/176/5 114/171/5
f 39/57/75 122/179/75 121/178/75
f 129/186/7 128/185/7 124/181/7
f 131/188/76 135/192/76 33/44/76
f 139/196/7 138/195/7 134/191/7
f 123/180/7 122/179/7 135/192/7
f 137/194/7 130/187/7 129/186/7
f 124/181/80 69/108/80 68/106/80
f 76/122/73 75/121/73 128/185/73
f 114/171/41 108/165/41 107/164/41
f 118/175/5 112/169/5 111/168/5
f 105/162/41 98/155/41 97/154/41
f 109/166/5 104/161/5 103/160/5
f 113/170/41 116/173/41 84/140/41
f 117/174/5 120/177/5 79/129/5
f 133/190/80 132/189/80 95/152/80
f 140/197/73 139/196/73 88/145/73
f 93/150/3 92/149/3 100/157/3
f 90/147/3 89/146/3 102/159/3
f 74/119/1 73/116/1 77/124/1
f 71/113/1 70/111/1 82/134/1
f 145/205/76 144/203/76 141/198/76
f 151/219/81 150/218/81 147/211/81
f 155/224/75 157/227/75 156/226/75
f 163/238/74 162/236/74 159/232/74
f 157/227/81 166/244/81 165/243/81
f 145/205/74 169/249/74 168/247/74
f 170/250/75 169/249/75 172/253/75
f 161/235/76 160/234/76 174/255/76
f 178/260/76 177/258/76 152/220/76
f 181/264/75 180/263/75 164/239/75
f 148/213/75 183/266/75 185/268/75
f 187/270/76 186/269/76 167/246/76
f 184/267/80 179/261/80 178/260/80
f 172/253/73 143/202/73 142/200/73
f 154/223/80 188/271/80 187/270/80
f 176/257/73 175/256/73 182/265/73
f 67/104/82 177/259/82 179/262/82
f 121/178/83 125/182/83 184/267/83
f 131/188/82 186/269/82 188/271/82
f 91/148/83 95/152/83 154/223/83
f 162/237/23 164/239/23 19/26/23
f 87/144/72 86/143/72 180/263/72
f 171/252/72 173/254/72 127/184/72
f 72/114/70 76/123/70 142/201/70
f 160/234/19 159/233/19 54/79/19
f 36/50/84 40/59/84 148/214/84
f 136/193/70 140/197/70 175/256/70
f 152/221/85 11/18/85 10/17/85
f 156/226/84 158/230/84 26/35/84
f 167/246/85 32/42/85 31/41/85
f 168/248/23 170/251/23 50/70/23
f 2/3/19 1/1/19 144/204/19
f 191/278/86 195/282/86 194/281/86
f 201/288/59 204/291/59 198/285/59
f 196/283/59 205/292/59 208/295/59
f 200/287/59 199/286/59 207/294/59
f 209/296/87 212/299/87 203/290/87
f 196/283/88 195/282/88 225/315/88
f 190/275/89 221/309/89 223/312/89
f 214/301/62 213/300/62 217/304/62
f 215/302/62 211/298/62 210/297/62
f 219/306/62 218/305/62 190/276/62
f 199/286/12 198/285/12 45/64/12
f 203/290/90 28/37/90 27/36/90
f 207/294/12 42/61/12 41/60/12
f 211/298/91 97/154/91 96/153/91
f 220/307/11 219/306/11 116/173/11
f 214/301/11 107/164/11 106/163/11
f 222/310/92 226/317/92 225/315/92
f 232/329/65 231/327/65 227/320/65
f 226/318/65 235/333/65 234/332/65
f 229/322/65 228/321/65 237/339/65
f 239/341/93 238/340/93 233/331/93
f 229/323/5 242/344/5 241/343/5
f 235/334/5 245/347/5 248/350/5
f 243/345/68 242/344/68 248/350/68
f 244/346/68 240/342/68 239/341/68
f 246/348/68 245/347/68 222/311/68
f 217/304/16 247/349/16 246/348/16
f 244/346/16 243/345/16 213/300/16
f 234/332/15 237/339/15 206/293/15
f 227/320/15 197/284/15 200/287/15
f 233/331/94 202/289/94 201/288/94
f 238/340/95 240/342/95 210/297/95
f 72/114/1 141/199/1 144/204/1
f 108/165/5 114/171/5 250/352/5
f 114/171/5 119/176/5 251/353/5
f 119/176/5 111/168/5 252/354/5
f 111/168/5 108/165/5 249/351/5
f 251/353/1 259/361/1 253/355/1
f 254/356/5 260/362/5 257/359/5
f 220/307/96 264/366/96 261/363/96
f 252/354/4 258/360/4 259/361/4
f 255/357/97 256/358/97 253/355/97
f 257/359/40 258/360/40 256/358/40
f 254/356/35 253/355/35 259/361/35
f 260/362/32 259/361/32 258/360/32
f 250/352/6 253/355/6 256/358/6
f 213/300/98 270/372/98 271/373/98
f 247/349/96 274/376/96 275/377/96
f 267/369/11 262/364/11 263/365/11
f 107/164/98 268/370/98 266/368/98
f 217/304/99 271/373/99 274/376/99
f 272/374/16 269/371/16 276/378/16
f 269/371/100 270/372/100 275/377/100
f 262/364/101 267/369/101 268/370/101
f 272/374/102 273/375/102 274/376/102
f 272/374/103 271/373/103 270/372/103
f 265/367/104 266/368/104 268/370/104
f 273/375/105 276/378/105 275/377/105
f 263/365/106 264/366/106 266/368/106
f 262/364/107 261/363/107 264/366/107
f 214/301/108 261/363/108 268/370/108
f 341/443/7 304/406/7 328/430/7
f 338/440/7 309/411/7 339/441/7
f 337/439/7 302/404/7 326/428/7
f 342/444/7 310/412/7 343/445/7
f 292/394/231 287/389/231 328/430/231
f 292/394/232 328/430/232 304/406/232
f 288/390/233 291/393/233 292/394/233
f 292/394/234 304/406/234 314/416/234
f 364/466/7 329/431/7 305/407/7
f 363/465/7 330/432/7 286/388/7
f 362/464/7 331/433/7 287/389/7
f 361/463/7 332/434/7 288/390/7
f 360/462/7 333/435/7 285/387/7
f 291/393/110 290/392/110 296/398/110
f 291/393/235 288/390/235 326/428/235
f 291/393/236 326/428/236 302/404/236
f 285/387/237 290/392/237 291/393/237
f 291/393/238 302/404/238 324/426/238
f 289/391/239 286/388/239 327/429/239
f 289/391/240 327/429/240 303/405/240
f 287/389/241 292/394/241 289/391/241
f 289/391/242 303/405/242 315/417/242
f 290/392/243 285/387/243 325/427/243
f 290/392/244 325/427/244 301/403/244
f 286/388/245 289/391/245 290/392/245
f 290/392/246 301/403/246 316/418/246
f 289/391/114 292/394/114 299/401/114
f 294/396/7 300/402/7 297/399/7
f 291/393/115 298/400/115 299/401/115
f 295/397/116 296/398/116 293/395/116
f 295/397/117 297/399/117 298/400/117
f 294/396/118 293/395/118 299/401/118
f 300/402/119 299/401/119 298/400/119
f 290/392/120 289/391/120 293/395/120
f 359/461/7 336/438/7 308/410/7
f 345/447/7 303/405/7 327/429/7
f 346/448/7 311/413/7 347/449/7
f 356/458/7 335/437/7 307/409/7
f 349/451/7 301/403/7 325/427/7
f 350/452/7 312/414/7 351/453/7
f 353/455/7 334/436/7 306/408/7
f 350/452/7 353/455/7 352/454/7
f 322/424/7 353/455/7 350/452/7
f 322/424/7 283/385/7 334/436/7
f 354/456/7 351/453/7 305/407/7
f 317/419/7 354/456/7 329/431/7
f 317/419/7 282/384/7 350/452/7
f 355/457/7 325/427/7 285/387/7
f 351/453/7 355/457/7 333/435/7
f 312/414/7 349/451/7 355/457/7
f 346/448/7 356/458/7 348/450/7
f 321/423/7 356/458/7 346/448/7
f 321/423/7 281/383/7 335/437/7
f 357/459/7 347/449/7 306/408/7
f 320/422/7 357/459/7 334/436/7
f 320/422/7 280/382/7 346/448/7
f 358/460/7 327/429/7 286/388/7
f 347/449/7 358/460/7 330/432/7
f 311/413/7 345/447/7 358/460/7
f 342/444/7 359/461/7 344/446/7
f 318/420/7 359/461/7 342/444/7
f 318/420/7 277/379/7 336/438/7
f 337/439/7 360/462/7 324/426/7
f 309/411/7 340/442/7 360/462/7
f 340/442/7 305/407/7 333/435/7
f 341/443/7 361/463/7 314/416/7
f 310/412/7 344/446/7 361/463/7
f 344/446/7 308/410/7 332/434/7
f 345/447/7 362/464/7 315/417/7
f 311/413/7 348/450/7 362/464/7
f 348/450/7 307/409/7 331/433/7
f 349/451/7 363/465/7 316/418/7
f 312/414/7 352/454/7 363/465/7
f 352/454/7 306/408/7 330/432/7
f 338/440/7 364/466/7 340/442/7
f 319/421/7 364/466/7 338/440/7
f 319/421/7 279/381/7 329/431/7
f 365/467/7 343/445/7 307/409/7
f 323/425/7 365/467/7 335/437/7
f 323/425/7 278/380/7 342/444/7
f 366/468/7 326/428/7 288/390/7
f 339/441/7 366/468/7 332/434/7
f 309/411/7 337/439/7 366/468/7
f 367/469/7 339/441/7 308/410/7
f 313/415/7 367/469/7 336/438/7
f 313/415/7 284/386/7 338/440/7
f 368/470/7 328/430/7 287/389/7
f 343/445/7 368/470/7 331/433/7
f 310/412/7 341/443/7 368/470/7
f 280/382/121 372/474/121 382/484/121
f 317/419/122 378/480/122 374/476/122
f 282/384/123 374/476/123 383/485/123
f 318/420/124 379/481/124 369/471/124
f 281/383/125 373/475/125 384/486/125
f 319/421/126 380/482/126 371/473/126
f 279/381/127 371/473/127 378/480/127
f 320/422/128 381/483/128 372/474/128
f 313/415/129 377/479/129 376/478/129
f 278/380/130 370/472/130 379/481/130
f 321/423/131 382/484/131 373/475/131
f 284/386/132 376/478/132 380/482/132
f 322/424/133 383/485/133 375/477/133
f 283/385/134 375/477/134 381/483/134
f 323/425/135 384/486/135 370/472/135
f 277/379/136 369/471/136 377/479/136
f 376/478/5 377/479/5 369/471/5
f 369/471/5 379/481/5 370/472/5
f 370/472/5 384/486/5 373/475/5
f 373/475/5 382/484/5 372/474/5
f 372/474/5 381/483/5 375/477/5
f 375/477/5 383/485/5 374/476/5
f 374/476/5 378/480/5 371/473/5
f 371/473/5 380/482/5 376/478/5
f 376/478/5 369/471/5 370/472/5
f 370/472/5 373/475/5 372/474/5
f 372/474/5 375/477/5 374/476/5
f 374/476/5 371/473/5 376/478/5
f 376/478/5 370/472/5 372/474/5
f 395/504/3 536/707/3 561/745/3
f 410/521/137 542/716/137 549/728/137
f 403/512/1 548/725/1 564/749/1
f 386/488/6 530/694/6 552/734/6
f 467/621/5 463/615/5 504/663/5
f 398/507/4 428/549/4 421/538/4
f 413/524/1 484/643/1 476/635/1
f 464/617/3 466/620/3 454/597/3
f 493/652/5 444/578/5 404/513/5
f 434/555/1 554/736/1 555/738/1
f 438/564/6 543/717/6 546/723/6
f 514/673/7 521/680/7 441/572/7
f 420/536/137 531/696/137 534/703/137
f 424/544/1 505/664/1 567/752/1
f 416/528/3 551/732/3 570/755/3
f 556/739/7 553/735/7 529/691/7
f 489/648/5 494/653/5 487/646/5
f 509/668/138 452/592/138 563/747/138
f 405/515/6 443/575/6 439/567/6
f 597/786/139 627/831/139 659/863/139
f 412/523/14 587/776/14 596/785/14
f 481/640/140 595/784/140 599/788/140
f 397/506/141 577/766/141 592/781/141
f 468/626/140 500/659/140 603/792/140
f 511/670/4 557/740/4 526/686/4
f 471/630/4 566/751/4 559/742/4
f 409/520/1 475/634/1 537/708/1
f 478/637/7 472/631/7 523/682/7
f 447/582/6 390/497/6 387/491/6
f 508/667/7 512/671/7 459/607/7
f 579/768/17 575/764/17 607/798/17
f 533/701/7 569/754/7 562/746/7
f 541/713/7 539/710/7 571/756/7
f 565/750/7 547/724/7 545/721/7
f 485/644/1 406/517/1 400/509/1
f 432/553/141 426/547/141 591/780/141
f 516/675/138 572/757/138 538/709/138
f 465/618/3 399/508/3 392/501/3
f 411/522/141 429/550/141 582/771/141
f 427/548/4 431/552/4 418/533/4
f 396/505/10 469/628/10 576/765/10
f 430/551/4 414/525/4 407/518/4
f 520/679/3 558/741/3 544/720/3
f 389/495/3 461/610/3 457/602/3
f 502/661/5 449/587/5 445/580/5
f 462/611/5 391/498/5 450/589/5
f 619/819/5 610/802/5 606/797/5
f 589/778/142 580/769/142 608/800/142
f 602/791/143 630/834/143 605/794/143
f 417/530/7 519/678/7 506/665/7
f 483/642/1 486/645/1 473/632/1
f 633/837/1 640/844/1 642/846/1
f 518/677/7 522/681/7 513/672/7
f 446/581/6 448/584/6 436/561/6
f 620/823/5 632/836/5 626/830/5
f 614/812/5 625/829/5 623/827/5
f 586/775/13 617/817/13 622/826/13
f 590/779/142 621/825/142 612/807/142
f 604/793/144 499/658/144 650/854/144
f 600/789/143 594/783/143 624/828/143
f 581/770/142 611/806/142 615/813/142
f 386/489/72 387/492/72 388/493/72
f 393/502/247 394/503/247 395/504/247
f 396/505/248 397/506/248 398/507/248
f 401/510/70 402/511/70 403/512/70
f 407/518/249 408/519/249 409/520/249
f 412/523/250 413/524/250 414/525/250
f 419/534/247 415/527/247 416/528/247
f 416/528/251 417/529/251 418/531/251
f 424/545/149 420/536/149 421/537/149
f 421/537/74 422/539/74 423/542/74
f 425/546/153 426/547/153 427/548/153
f 429/550/153 430/551/153 431/552/153
f 437/562/70 433/554/70 434/556/70
f 434/556/252 435/557/252 436/559/252
f 442/573/72 438/565/72 439/566/72
f 439/566/73 440/568/73 441/571/73
f 444/576/97 445/579/97 446/581/97
f 448/583/97 449/585/97 450/588/97
f 455/598/253 451/590/253 452/591/253
f 452/591/254 453/593/254 454/595/254
f 460/609/23 456/600/23 457/601/23
f 457/601/75 458/603/75 459/606/75
f 462/612/40 463/614/40 464/616/40
f 469/627/77 465/618/77 466/619/77
f 466/619/255 467/622/255 468/625/255
f 474/633/19 470/629/19 471/630/19
f 471/630/51 472/631/51 473/632/51
f 479/638/256 475/634/256 476/635/256
f 476/635/76 477/636/76 478/637/76
f 484/643/257 480/639/257 481/640/257
f 481/640/258 482/641/258 483/642/258
f 486/645/35 487/646/35 488/647/35
f 490/649/162 491/650/162 492/651/162
f 494/653/5 495/654/5 496/655/5
f 498/657/162 499/658/162 500/659/162
f 502/661/5 503/662/5 504/663/5
f 509/668/163 505/664/163 506/665/163
f 506/665/7 507/666/7 508/667/7
f 514/673/173 510/669/173 511/670/173
f 511/670/74 512/671/74 513/672/74
f 519/678/259 515/674/259 516/675/259
f 516/675/191 517/676/191 518/677/191
f 524/683/260 520/679/260 521/680/260
f 521/680/7 522/681/7 523/682/7
f 574/760/261 575/763/261 576/765/261
f 577/766/262 578/767/262 579/768/262
f 581/770/178 582/771/178 583/772/178
f 586/775/263 587/776/263 588/777/263
f 589/778/178 590/779/178 591/780/178
f 594/783/264 595/784/264 596/785/264
f 598/787/181 599/788/181 600/789/181
f 602/791/181 603/792/181 604/793/181
f 612/807/184 613/809/184 614/811/184
f 619/820/184 620/822/184 621/824/184
f 625/829/187 626/830/187 627/831/187
f 629/833/187 630/834/187 631/835/187
f 385/487/3 388/494/3 457/602/3
f 390/496/72 389/495/72 388/494/72
f 469/628/77 396/505/77 399/508/77
f 393/502/23 392/501/23 399/508/23
f 420/536/188 394/503/188 393/502/188
f 411/522/153 414/525/153 430/551/153
f 408/519/19 407/518/19 414/525/19
f 475/634/1 409/520/1 408/519/1
f 404/513/35 406/517/35 485/644/35
f 401/510/70 400/509/70 406/517/70
f 438/564/6 402/511/6 401/510/6
f 391/499/97 390/497/97 447/582/97
f 410/521/188 415/526/188 419/535/188
f 423/543/74 422/540/74 418/532/74
f 397/506/153 425/546/153 428/549/153
f 432/553/153 431/552/153 427/548/153
f 386/488/6 433/554/6 437/563/6
f 441/572/73 440/569/73 436/560/73
f 404/514/97 444/577/97 443/575/97
f 445/579/97 449/586/97 448/584/97
f 496/655/5 445/580/5 444/578/5
f 501/660/5 450/589/5 449/587/5
f 435/558/76 434/555/76 510/669/76
f 442/573/75 441/572/75 521/680/75
f 440/570/6 439/567/6 443/575/6
f 437/563/6 436/561/6 448/584/6
f 422/541/4 421/538/4 428/549/4
f 419/535/4 418/533/4 431/552/4
f 451/590/3 455/599/3 392/501/3
f 459/607/75 458/604/75 454/596/75
f 391/500/40 462/612/40 461/610/40
f 467/623/40 466/620/40 464/617/40
f 470/629/1 474/633/1 400/509/1
f 478/637/76 477/636/76 473/632/76
f 480/639/69 484/643/69 413/524/69
f 487/646/35 486/645/35 483/642/35
f 397/506/189 396/505/189 578/767/189
f 495/654/5 494/653/5 489/648/5
f 573/759/190 576/765/190 469/628/190
f 504/663/5 503/662/5 498/657/5
f 423/543/76 506/665/76 505/664/76
f 507/666/7 513/672/7 512/671/7
f 515/674/75 519/678/75 417/530/75
f 517/676/7 523/682/7 522/681/7
f 507/666/7 506/665/7 519/678/7
f 514/673/7 513/672/7 522/681/7
f 508/667/191 453/594/191 452/592/191
f 460/608/74 459/607/74 512/671/74
f 498/657/162 492/651/162 491/650/162
f 496/655/5 495/654/5 503/662/5
f 489/648/162 482/641/162 481/640/162
f 493/652/5 488/647/5 487/646/5
f 497/656/162 500/659/162 468/626/162
f 501/660/5 504/663/5 463/615/5
f 517/676/191 516/675/191 479/638/191
f 524/683/74 523/682/74 472/631/74
f 477/636/1 476/635/1 484/643/1
f 474/633/1 473/632/1 486/645/1
f 458/605/3 457/602/3 461/610/3
f 455/599/3 454/597/3 466/620/3
f 529/691/75 528/689/75 525/684/75
f 535/705/192 534/704/192 531/697/192
f 539/710/76 541/713/76 540/712/76
f 547/724/73 546/722/73 543/718/73
f 541/713/192 550/730/192 549/729/192
f 529/691/73 553/735/73 552/733/73
f 554/736/76 553/735/76 556/739/76
f 545/721/75 544/720/75 558/741/75
f 562/746/75 561/744/75 536/706/75
f 547/724/76 565/750/76 564/749/76
f 532/699/76 567/752/76 569/754/76
f 571/756/75 570/755/75 551/732/75
f 563/747/191 562/746/191 569/754/191
f 527/688/74 526/686/74 557/740/74
f 538/709/191 572/757/191 571/756/191
f 560/743/74 559/742/74 566/751/74
f 451/590/193 561/745/193 563/748/193
f 505/664/194 509/668/194 568/753/194
f 515/674/193 570/755/193 572/757/193
f 475/634/194 479/638/194 538/709/194
f 546/723/70 548/725/70 403/512/70
f 471/630/19 470/629/19 564/749/19
f 555/738/19 557/740/19 511/670/19
f 456/600/23 460/609/23 526/687/23
f 544/720/72 543/719/72 438/565/72
f 420/536/195 424/545/195 532/700/195
f 520/679/23 524/683/23 559/742/23
f 536/707/196 395/504/196 394/503/196
f 540/712/195 542/716/195 410/521/195
f 551/732/196 416/528/196 415/527/196
f 552/734/70 554/737/70 434/556/70
f 386/489/72 385/487/72 528/690/72
f 575/764/87 579/768/87 578/767/87
f 585/774/265 588/777/265 582/771/265
f 580/769/178 589/778/178 592/781/178
f 584/773/178 583/772/178 591/780/178
f 593/782/86 596/785/86 587/776/86
f 580/769/197 579/768/197 609/801/197
f 574/761/198 605/795/198 607/798/198
f 598/787/181 597/786/181 601/790/181
f 599/788/181 595/784/181 594/783/181
f 603/792/181 602/791/181 574/762/181
f 583/772/141 582/771/141 429/550/141
f 587/776/199 412/523/199 411/522/199
f 591/780/141 426/547/141 425/546/141
f 595/784/200 481/640/200 480/639/200
f 604/793/140 603/792/140 500/659/140
f 598/787/140 491/650/140 490/649/140
f 606/796/93 610/803/93 609/801/93
f 616/815/184 615/813/184 611/806/184
f 610/804/184 619/820/184 618/818/184
f 613/809/184 612/807/184 621/825/184
f 623/827/92 622/826/92 617/817/92
f 626/830/5 625/829/5 614/812/5
f 629/833/5 632/836/5 620/823/5
f 627/831/187 626/830/187 632/836/187
f 628/832/187 624/828/187 623/827/187
f 630/834/187 629/833/187 606/797/187
f 601/790/143 631/835/143 630/834/143
f 628/832/143 627/831/143 597/786/143
f 618/818/142 621/825/142 590/779/142
f 611/806/142 581/770/142 584/773/142
f 617/817/201 586/775/201 585/774/201
f 622/826/202 624/828/202 594/783/202
f 456/600/3 525/685/3 528/690/3
f 492/651/5 498/657/5 634/838/5
f 498/657/5 503/662/5 635/839/5
f 503/662/5 495/654/5 636/840/5
f 495/654/5 492/651/5 633/837/5
f 635/839/3 643/847/3 637/841/3
f 638/842/5 644/848/5 641/845/5
f 604/793/203 648/852/203 645/849/203
f 636/840/6 642/846/6 643/847/6
f 638/842/32 639/843/32 640/844/32
f 641/845/35 642/846/35 640/844/35
f 638/842/40 637/841/40 643/847/40
f 644/848/97 643/847/97 642/846/97
f 634/838/4 637/841/4 640/844/4
f 597/786/204 654/858/204 655/859/204
f 631/835/203 658/862/203 659/863/203
f 651/855/140 646/850/140 647/851/140
f 491/650/204 652/856/204 650/854/204
f 601/790/205 655/859/205 658/862/205
f 656/860/143 653/857/143 660/864/143
f 653/857/206 654/858/206 659/863/206
f 646/850/207 651/855/207 652/856/207
f 656/860/208 657/861/208 658/862/208
f 656/860/209 655/859/209 654/858/209
f 649/853/210 650/854/210 652/856/210
f 660/864/211 659/863/211 658/862/211
f 647/851/212 648/852/212 650/854/212
f 646/850/213 645/849/213 648/852/213
f 598/787/214 645/849/214 652/856/214
