# Blender 3.3.1
# www.blender.org
o traiteur_schränke
v 0.139114 8.023665 2.153618
v 0.139114 12.112467 2.153618
v 0.139114 8.023665 -1.000000
v 0.139114 12.112467 -1.000000
v 27.421103 8.023665 2.153618
v 27.421103 12.112467 2.153618
v 27.421103 8.023665 -1.000000
v 27.421103 12.112467 -1.000000
v 22.874104 8.023665 -1.000000
v 18.327106 8.023665 -1.000000
v 13.780108 8.023665 -1.000000
v 9.233110 8.023665 -1.000000
v 4.686112 8.023665 -1.000000
v 4.686112 12.112467 -1.000000
v 9.233110 12.112467 -1.000000
v 13.780108 12.112467 -1.000000
v 18.327106 12.112467 -1.000000
v 22.874104 12.112467 -1.000000
v 4.686112 8.023665 2.153618
v 9.233110 8.023665 2.153618
v 13.780108 8.023665 2.153618
v 18.327106 8.023665 2.153618
v 22.874104 8.023665 2.153618
v 22.874104 12.112467 2.153618
v 18.327106 12.112467 2.153618
v 13.780108 12.112467 2.153618
v 9.233110 12.112467 2.153618
v 4.686112 12.112467 2.153618
v 23.850689 9.729570 -1.218763
v 22.928591 8.078152 -1.068402
v 23.186764 8.336324 -1.213639
v 23.128433 8.277995 -1.198618
v 23.069588 8.219149 -1.174723
v 23.014233 8.163794 -1.143582
v 22.966141 8.115702 -1.107318
v 22.928591 12.057981 -1.068402
v 23.631897 9.729570 -1.218763
v 22.966141 12.020430 -1.107318
v 23.014233 11.972340 -1.143582
v 23.069588 11.916985 -1.174723
v 23.128433 11.858137 -1.198618
v 23.186764 11.799809 -1.213639
v 27.366615 12.057981 -1.068402
v 23.631895 10.406559 -1.218763
v 27.329067 12.020432 -1.107318
v 27.280975 11.972342 -1.143582
v 27.225620 11.916986 -1.174723
v 27.166775 11.858139 -1.198618
v 27.108444 11.799810 -1.213639
v 23.850689 10.406559 -1.218763
v 27.366615 8.078152 -1.068402
v 27.108444 8.336322 -1.213639
v 27.166775 8.277993 -1.198618
v 27.225620 8.219147 -1.174723
v 27.280975 8.163792 -1.143582
v 27.329067 8.115700 -1.107318
v 3.928322 9.729573 -1.218763
v 0.193601 8.078152 -1.068402
v 0.451771 8.336323 -1.213639
v 0.393443 8.277994 -1.198618
v 0.334596 8.219148 -1.174723
v 0.279241 8.163793 -1.143582
v 0.231150 8.115701 -1.107318
v 0.193601 12.057981 -1.068402
v 3.709529 9.729573 -1.218763
v 0.231150 12.020432 -1.107318
v 0.279241 11.972340 -1.143582
v 0.334596 11.916985 -1.174723
v 0.393443 11.858138 -1.198618
v 0.451771 11.799809 -1.213639
v 4.631626 12.057981 -1.068402
v 3.709529 10.406563 -1.218763
v 4.594077 12.020432 -1.107318
v 4.545985 11.972340 -1.143582
v 4.490630 11.916985 -1.174723
v 4.431784 11.858137 -1.198618
v 4.373455 11.799809 -1.213639
v 3.928322 10.406563 -1.218763
v 4.631626 8.078152 -1.068402
v 4.373455 8.336323 -1.213639
v 4.431784 8.277994 -1.198618
v 4.490630 8.219148 -1.174723
v 4.545985 8.163793 -1.143582
v 4.594077 8.115702 -1.107318
v 5.662693 9.729574 -1.218763
v 4.740599 8.078152 -1.068402
v 4.998770 8.336323 -1.213639
v 4.940441 8.277994 -1.198618
v 4.881595 8.219148 -1.174723
v 4.826240 8.163793 -1.143582
v 4.778148 8.115702 -1.107318
v 4.740599 12.057981 -1.068402
v 5.443900 9.729574 -1.218763
v 4.778148 12.020432 -1.107318
v 4.826240 11.972340 -1.143582
v 4.881595 11.916985 -1.174723
v 4.940441 11.858137 -1.198618
v 4.998770 11.799809 -1.213639
v 9.178624 12.057981 -1.068402
v 5.443900 10.406565 -1.218763
v 9.141075 12.020432 -1.107318
v 9.092983 11.972340 -1.143582
v 9.037628 11.916985 -1.174723
v 8.978782 11.858137 -1.198618
v 8.920454 11.799809 -1.213639
v 5.662693 10.406565 -1.218763
v 9.178624 8.078152 -1.068402
v 8.920454 8.336323 -1.213639
v 8.978782 8.277995 -1.198618
v 9.037628 8.219148 -1.174723
v 9.092983 8.163793 -1.143582
v 9.141075 8.115702 -1.107318
v 13.022320 9.729570 -1.218763
v 9.287597 8.078152 -1.068402
v 9.545767 8.336323 -1.213639
v 9.487439 8.277995 -1.198618
v 9.428593 8.219148 -1.174723
v 9.373238 8.163793 -1.143582
v 9.325146 8.115702 -1.107318
v 9.287597 12.057981 -1.068402
v 12.803527 9.729570 -1.218763
v 9.325146 12.020432 -1.107318
v 9.373238 11.972340 -1.143582
v 9.428593 11.916985 -1.174723
v 9.487439 11.858137 -1.198618
v 9.545767 11.799809 -1.213639
v 13.725622 12.057981 -1.068402
v 12.803527 10.406561 -1.218763
v 13.688073 12.020432 -1.107318
v 13.639981 11.972340 -1.143582
v 13.584626 11.916985 -1.174723
v 13.525780 11.858138 -1.198618
v 13.467451 11.799809 -1.213639
v 13.022320 10.406561 -1.218763
v 13.725622 8.078152 -1.068402
v 13.467451 8.336323 -1.213639
v 13.525780 8.277994 -1.198618
v 13.584626 8.219148 -1.174723
v 13.639981 8.163793 -1.143582
v 13.688073 8.115701 -1.107318
v 14.756695 9.729568 -1.218763
v 13.834595 8.078152 -1.068402
v 14.092766 8.336323 -1.213639
v 14.034437 8.277994 -1.198618
v 13.975591 8.219148 -1.174723
v 13.920236 8.163793 -1.143582
v 13.872144 8.115701 -1.107318
v 13.834595 12.057981 -1.068402
v 14.537902 9.729568 -1.218763
v 13.872144 12.020432 -1.107318
v 13.920236 11.972340 -1.143582
v 13.975591 11.916985 -1.174723
v 14.034437 11.858138 -1.198618
v 14.092766 11.799809 -1.213639
v 18.272619 12.057981 -1.068402
v 14.537902 10.406557 -1.218763
v 18.235069 12.020430 -1.107318
v 18.186977 11.972340 -1.143582
v 18.131622 11.916985 -1.174723
v 18.072777 11.858137 -1.198618
v 18.014446 11.799809 -1.213639
v 14.756695 10.406557 -1.218763
v 18.272619 8.078152 -1.068402
v 18.014446 8.336324 -1.213639
v 18.072777 8.277995 -1.198618
v 18.131622 8.219149 -1.174723
v 18.186977 8.163794 -1.143582
v 18.235069 8.115702 -1.107318
v 22.116318 9.729570 -1.218763
v 18.381594 8.078152 -1.068402
v 18.639767 8.336324 -1.213639
v 18.581436 8.277995 -1.198618
v 18.522591 8.219149 -1.174723
v 18.467236 8.163794 -1.143582
v 18.419144 8.115702 -1.107318
v 18.381594 12.057981 -1.068402
v 21.897526 9.729570 -1.218763
v 18.419144 12.020430 -1.107318
v 18.467236 11.972340 -1.143582
v 18.522591 11.916985 -1.174723
v 18.581436 11.858137 -1.198618
v 18.639767 11.799809 -1.213639
v 22.819616 12.057981 -1.068402
v 21.897524 10.406557 -1.218763
v 22.782066 12.020430 -1.107318
v 22.733974 11.972340 -1.143582
v 22.678619 11.916985 -1.174723
v 22.619774 11.858137 -1.198618
v 22.561443 11.799809 -1.213639
v 22.116318 10.406557 -1.218763
v 22.819616 8.078152 -1.068402
v 22.561443 8.336324 -1.213639
v 22.619774 8.277995 -1.198618
v 22.678619 8.219149 -1.174723
v 22.733974 8.163794 -1.143582
v 22.782066 8.115702 -1.107318
v 23.240597 11.745975 -1.218763
v 23.240597 8.390158 -1.218763
v 27.054609 8.390158 -1.218763
v 27.054609 11.745975 -1.218763
v 0.505606 11.745975 -1.218763
v 0.505606 8.390158 -1.218763
v 4.319621 8.390158 -1.218763
v 4.319621 11.745975 -1.218763
v 5.052604 11.745975 -1.218763
v 5.052604 8.390158 -1.218763
v 8.866619 8.390158 -1.218763
v 8.866619 11.745975 -1.218763
v 9.599602 11.745975 -1.218763
v 9.599602 8.390158 -1.218763
v 13.413616 8.390158 -1.218763
v 13.413616 11.745975 -1.218763
v 14.146601 11.745975 -1.218763
v 14.146601 8.390158 -1.218763
v 17.960613 8.390158 -1.218763
v 17.960613 11.745975 -1.218763
v 18.693600 11.745975 -1.218763
v 18.693600 8.390158 -1.218763
v 22.507610 8.390158 -1.218763
v 22.507610 11.745975 -1.218763
v 23.631897 9.729570 -1.408105
v 23.850689 9.729570 -1.408105
v 23.850689 10.406559 -1.408105
v 23.631895 10.406559 -1.408105
v 3.709529 9.729573 -1.408105
v 3.928322 9.729573 -1.408105
v 3.928322 10.406563 -1.408105
v 3.709529 10.406563 -1.408105
v 5.443900 9.729574 -1.408105
v 5.662693 9.729574 -1.408105
v 5.662693 10.406565 -1.408105
v 5.443900 10.406565 -1.408105
v 12.803527 9.729570 -1.408105
v 13.022320 9.729570 -1.408105
v 13.022320 10.406561 -1.408105
v 12.803527 10.406561 -1.408105
v 14.537902 9.729568 -1.408105
v 14.756695 9.729568 -1.408105
v 14.756695 10.406557 -1.408105
v 14.537902 10.406557 -1.408105
v 21.897526 9.729570 -1.408105
v 22.116318 9.729570 -1.408105
v 22.116318 10.406557 -1.408105
v 21.897524 10.406557 -1.408105
vn -1.0000 -0.0000 -0.0000
vn -0.0000 -0.7822 -0.6231
vn 1.0000 -0.0000 -0.0000
vn -0.0000 -0.0000 1.0000
vn -0.0000 -1.0000 -0.0000
vn -0.0000 1.0000 -0.0000
vn 0.7822 -0.0000 -0.6230
vn -0.7822 -0.0000 -0.6231
vn -0.0000 0.7822 -0.6231
vn 0.7822 -0.0000 -0.6231
vn -0.0947 -0.0000 -0.9955
vn -0.2494 -0.0000 -0.9684
vn -0.3762 -0.0000 -0.9265
vn -0.4903 -0.0000 -0.8715
vn -0.6021 -0.0000 -0.7984
vn -0.7197 -0.0000 -0.6943
vn -0.0000 -0.7196 -0.6943
vn -0.0000 -0.6021 -0.7984
vn -0.0000 -0.4903 -0.8716
vn -0.0000 -0.3762 -0.9265
vn -0.0000 -0.2494 -0.9684
vn -0.0000 -0.0947 -0.9955
vn -0.0000 0.7196 -0.6944
vn -0.0000 0.6021 -0.7984
vn -0.0000 0.4903 -0.8716
vn -0.0000 0.3762 -0.9265
vn -0.0000 0.2494 -0.9684
vn -0.0000 0.0947 -0.9955
vn 0.7196 -0.0000 -0.6943
vn 0.6021 -0.0000 -0.7985
vn 0.4903 -0.0000 -0.8716
vn 0.3762 -0.0000 -0.9265
vn 0.2494 -0.0000 -0.9684
vn 0.0947 -0.0000 -0.9955
vn -0.4903 -0.0000 -0.8716
vn -0.7196 -0.0000 -0.6944
vn -0.0000 -0.7196 -0.6944
vn 0.7196 -0.0000 -0.6944
vn 0.6021 -0.0000 -0.7984
vn 0.4903 -0.0000 -0.8715
vn -0.7196 -0.0000 -0.6943
vn 0.7197 -0.0000 -0.6943
vn -0.6021 -0.0000 -0.7985
vn -0.7821 -0.0000 -0.6231
vn -0.0000 -0.0000 -1.0000
vn -0.7822 -0.0000 -0.6230
vn -0.0000 0.4903 -0.8715
vt 0.694631 0.354165
vt 0.005594 0.994406
vt 0.294353 0.005594
vt 0.694631 0.502360
vt 0.153789 0.994406
vt 0.164976 0.994406
vt 0.580331 0.354165
vt 0.408653 0.005594
vt 0.279276 0.994406
vt 0.580331 0.502360
vt 0.005594 0.005594
vt 0.576441 0.513547
vt 0.294353 0.994406
vt 0.576441 0.661743
vt 0.164976 0.005594
vt 0.153789 0.005594
vt 0.408653 0.994406
vt 0.690742 0.513547
vt 0.690742 0.661743
vt 0.279276 0.005594
vt 0.709708 0.354165
vt 0.408653 0.829604
vt 0.739862 0.661742
vt 0.724785 0.354165
vt 0.408653 0.664802
vt 0.733042 0.313171
vt 0.709708 0.513547
vt 0.408653 0.500000
vt 0.748119 0.313171
vt 0.724785 0.513547
vt 0.408653 0.335198
vt 0.748119 0.153789
vt 0.733042 0.005594
vt 0.408653 0.170396
vt 0.739862 0.502359
vt 0.739862 0.354164
vt 0.733042 0.153789
vt 0.279276 0.829603
vt 0.748119 0.005593
vt 0.724785 0.661743
vt 0.279276 0.664803
vt 0.748119 0.164976
vt 0.709708 0.661743
vt 0.279276 0.500000
vt 0.733042 0.164976
vt 0.724785 0.502360
vt 0.279276 0.335197
vt 0.739862 0.513547
vt 0.279276 0.170395
vt 0.709708 0.502360
vt 0.294353 0.170396
vt 0.005594 0.829605
vt 0.294353 0.335198
vt 0.005594 0.664803
vt 0.294353 0.500000
vt 0.005594 0.500000
vt 0.294353 0.664802
vt 0.005594 0.335197
vt 0.294353 0.829604
vt 0.005594 0.170395
vt 0.164976 0.170395
vt 0.153789 0.170395
vt 0.164976 0.335197
vt 0.153789 0.335197
vt 0.164976 0.500000
vt 0.153789 0.500000
vt 0.164976 0.664803
vt 0.153789 0.664803
vt 0.164976 0.829603
vt 0.153789 0.829605
vt 0.502792 0.718590
vt 0.482224 0.376289
vt 0.709194 0.672930
vt 0.411133 0.831579
vt 0.707229 0.356140
vt 0.431726 0.352226
vt 0.429613 0.350113
vt 0.427480 0.347979
vt 0.425473 0.345974
vt 0.705819 0.357501
vt 0.412543 0.832940
vt 0.423730 0.344231
vt 0.281756 0.168421
vt 0.707229 0.500385
vt 0.482224 0.368361
vt 0.502792 0.726519
vt 0.556942 0.682865
vt 0.565254 0.344231
vt 0.705819 0.499024
vt 0.283166 0.167061
vt 0.563510 0.345974
vt 0.561505 0.347979
vt 0.559371 0.350113
vt 0.557257 0.352226
vt 0.693221 0.659768
vt 0.281756 0.007568
vt 0.506760 0.368361
vt 0.556942 0.707402
vt 0.466693 0.718590
vt 0.283166 0.008930
vt 0.694631 0.658407
vt 0.565254 0.502361
vt 0.563511 0.500618
vt 0.561505 0.498611
vt 0.559371 0.496479
vt 0.557258 0.494364
vt 0.709194 0.697467
vt 0.506760 0.376289
vt 0.466693 0.726519
vt 0.411133 0.992431
vt 0.693221 0.515522
vt 0.431726 0.494364
vt 0.429613 0.496479
vt 0.427480 0.498611
vt 0.425473 0.500618
vt 0.412543 0.991071
vt 0.694631 0.516883
vt 0.423730 0.502361
vt 0.698007 0.708654
vt 0.495930 0.682865
vt 0.506761 0.199041
vt 0.577852 0.356140
vt 0.411133 0.007568
vt 0.557258 0.325046
vt 0.559372 0.327160
vt 0.561504 0.329293
vt 0.563511 0.331299
vt 0.576441 0.357501
vt 0.412543 0.008929
vt 0.565254 0.333042
vt 0.281756 0.992432
vt 0.577852 0.500385
vt 0.698007 0.716584
vt 0.506761 0.206971
vt 0.484742 0.682865
vt 0.576441 0.499024
vt 0.423730 0.333042
vt 0.283166 0.991070
vt 0.425473 0.331299
vt 0.427480 0.329293
vt 0.429612 0.327160
vt 0.431726 0.325046
vt 0.281756 0.831579
vt 0.737383 0.356139
vt 0.482224 0.206971
vt 0.484742 0.707402
vt 0.716057 0.708654
vt 0.735973 0.357500
vt 0.283166 0.832939
vt 0.423730 0.174911
vt 0.425473 0.176654
vt 0.427480 0.178661
vt 0.429612 0.180793
vt 0.431726 0.182908
vt 0.495930 0.707402
vt 0.482224 0.199041
vt 0.716057 0.716584
vt 0.411133 0.168421
vt 0.737383 0.500385
vt 0.557258 0.182908
vt 0.559372 0.180793
vt 0.561504 0.178661
vt 0.563511 0.176654
vt 0.412543 0.167060
vt 0.735973 0.499023
vt 0.565254 0.174911
vt 0.423730 0.726519
vt 0.506761 0.639618
vt 0.691145 0.672930
vt 0.730563 0.007568
vt 0.411133 0.172371
vt 0.557258 0.663682
vt 0.559372 0.665795
vt 0.561504 0.667929
vt 0.563511 0.669935
vt 0.729152 0.008929
vt 0.412543 0.173731
vt 0.565254 0.671678
vt 0.281756 0.827629
vt 0.730563 0.151814
vt 0.506761 0.647549
vt 0.423730 0.718589
vt 0.430593 0.682865
vt 0.729152 0.150453
vt 0.423730 0.671678
vt 0.283166 0.826269
vt 0.425473 0.669935
vt 0.427480 0.667929
vt 0.429612 0.665795
vt 0.431726 0.663682
vt 0.281756 0.666777
vt 0.745640 0.007568
vt 0.482224 0.647549
vt 0.430593 0.707402
vt 0.448643 0.718589
vt 0.744229 0.008929
vt 0.283166 0.668139
vt 0.423730 0.513547
vt 0.425473 0.515290
vt 0.427480 0.517297
vt 0.429612 0.519429
vt 0.431726 0.521544
vt 0.691145 0.697467
vt 0.482224 0.639618
vt 0.448643 0.726519
vt 0.411133 0.333223
vt 0.745640 0.151814
vt 0.557258 0.521544
vt 0.559372 0.519429
vt 0.561504 0.517297
vt 0.563511 0.515290
vt 0.412543 0.331862
vt 0.744229 0.150453
vt 0.565254 0.513547
vt 0.658705 0.708653
vt 0.459830 0.682865
vt 0.506761 0.029723
vt 0.722306 0.515522
vt 0.411133 0.337173
vt 0.557258 0.155728
vt 0.559372 0.157842
vt 0.561504 0.159975
vt 0.563511 0.161982
vt 0.720896 0.516883
vt 0.412543 0.338534
vt 0.565254 0.163724
vt 0.281756 0.662827
vt 0.722306 0.659768
vt 0.658705 0.716584
vt 0.506761 0.037653
vt 0.448643 0.682865
vt 0.720896 0.658407
vt 0.423730 0.163724
vt 0.283166 0.661467
vt 0.425473 0.161982
vt 0.427480 0.159975
vt 0.429612 0.157842
vt 0.431726 0.155728
vt 0.745640 0.166951
vt 0.281756 0.501974
vt 0.482224 0.037653
vt 0.448643 0.707402
vt 0.603489 0.708653
vt 0.283166 0.503336
vt 0.423730 0.005593
vt 0.744229 0.168312
vt 0.425473 0.007337
vt 0.427480 0.009343
vt 0.429612 0.011476
vt 0.431726 0.013590
vt 0.459830 0.707402
vt 0.482224 0.029723
vt 0.603489 0.716584
vt 0.411133 0.498025
vt 0.745640 0.311197
vt 0.557258 0.013590
vt 0.559372 0.011476
vt 0.561504 0.009343
vt 0.563511 0.007337
vt 0.412543 0.496664
vt 0.744229 0.309835
vt 0.565254 0.005593
vt 0.676755 0.708653
vt 0.659472 0.131664
vt 0.532029 0.682865
vt 0.707229 0.515522
vt 0.411133 0.501975
vt 0.709969 0.155727
vt 0.712083 0.157843
vt 0.714215 0.159975
vt 0.716222 0.161982
vt 0.705819 0.516883
vt 0.412543 0.503336
vt 0.717965 0.163725
vt 0.707229 0.659768
vt 0.281756 0.498026
vt 0.659472 0.139595
vt 0.676755 0.716584
vt 0.520842 0.682865
vt 0.705819 0.658407
vt 0.283166 0.496664
vt 0.576441 0.163725
vt 0.578184 0.161982
vt 0.580191 0.159975
vt 0.582323 0.157843
vt 0.584437 0.155727
vt 0.730563 0.166951
vt 0.281756 0.337173
vt 0.640656 0.708653
vt 0.634934 0.139595
vt 0.520842 0.707402
vt 0.283166 0.338533
vt 0.729152 0.168312
vt 0.576441 0.005594
vt 0.578184 0.007338
vt 0.580191 0.009342
vt 0.582323 0.011477
vt 0.584437 0.013590
vt 0.532029 0.707402
vt 0.640656 0.716584
vt 0.634934 0.131664
vt 0.411133 0.662827
vt 0.730563 0.311197
vt 0.709969 0.013590
vt 0.712083 0.011477
vt 0.714215 0.009342
vt 0.716222 0.007338
vt 0.412543 0.661466
vt 0.729152 0.309835
vt 0.717965 0.005594
vt 0.520842 0.718590
vt 0.659472 0.199039
vt 0.614676 0.708653
vt 0.722306 0.356140
vt 0.411133 0.666777
vt 0.709969 0.325045
vt 0.712083 0.327160
vt 0.714215 0.329292
vt 0.716222 0.331299
vt 0.720896 0.357501
vt 0.412543 0.668138
vt 0.717965 0.333042
vt 0.722306 0.500385
vt 0.281756 0.333223
vt 0.583304 0.708653
vt 0.520842 0.726519
vt 0.659472 0.206970
vt 0.576441 0.333042
vt 0.720896 0.499024
vt 0.283166 0.331861
vt 0.578184 0.331299
vt 0.580191 0.329292
vt 0.582323 0.327160
vt 0.584437 0.325045
vt 0.737383 0.515522
vt 0.281756 0.172371
vt 0.634934 0.206970
vt 0.583304 0.733191
vt 0.484742 0.718590
vt 0.283166 0.173731
vt 0.735973 0.516883
vt 0.576441 0.174911
vt 0.578184 0.176655
vt 0.580191 0.178659
vt 0.582323 0.180794
vt 0.584437 0.182907
vt 0.614676 0.733191
vt 0.634934 0.199039
vt 0.484742 0.726519
vt 0.411133 0.827629
vt 0.737383 0.659768
vt 0.709969 0.182907
vt 0.712083 0.180794
vt 0.714215 0.178659
vt 0.716222 0.176655
vt 0.412543 0.826268
vt 0.735973 0.658406
vt 0.717965 0.174911
vt 0.555307 0.354177
vt 0.433678 0.354177
vt 0.433678 0.492413
vt 0.555307 0.492413
vt 0.433678 0.323094
vt 0.555306 0.323094
vt 0.555306 0.184859
vt 0.433678 0.184859
vt 0.433678 0.661731
vt 0.555306 0.661731
vt 0.555306 0.523495
vt 0.433678 0.523495
vt 0.433678 0.153777
vt 0.555306 0.153777
vt 0.555306 0.015541
vt 0.433678 0.015541
vt 0.586389 0.153776
vt 0.708017 0.153776
vt 0.708017 0.015541
vt 0.586389 0.015541
vt 0.586389 0.323093
vt 0.708017 0.323093
vt 0.708017 0.184858
vt 0.586389 0.184858
vt 0.550079 0.682865
vt 0.660839 0.672929
vt 0.495930 0.726519
vt 0.652910 0.672929
vt 0.495930 0.718590
vt 0.716057 0.672930
vt 0.652910 0.697466
vt 0.716057 0.697467
vt 0.459830 0.726519
vt 0.459830 0.718590
vt 0.660839 0.697466
vt 0.550079 0.707402
vt 0.477880 0.682865
vt 0.691145 0.716584
vt 0.641723 0.672929
vt 0.633793 0.672929
vt 0.502792 0.682865
vt 0.691145 0.708654
vt 0.502792 0.707402
vt 0.633793 0.697466
vt 0.709195 0.716584
vt 0.709195 0.708654
vt 0.641723 0.697466
vt 0.477880 0.707402
vt 0.423730 0.682865
vt 0.603488 0.672929
vt 0.430593 0.718589
vt 0.595559 0.672929
vt 0.430593 0.726519
vt 0.698007 0.672930
vt 0.595559 0.697466
vt 0.698007 0.697467
vt 0.441780 0.726519
vt 0.441780 0.718589
vt 0.603488 0.697466
vt 0.423730 0.707402
vt 0.441780 0.682865
vt 0.651843 0.716584
vt 0.584372 0.672929
vt 0.576441 0.672929
vt 0.466693 0.682865
vt 0.651843 0.708653
vt 0.466693 0.707402
vt 0.576441 0.697466
vt 0.596626 0.716584
vt 0.596626 0.708653
vt 0.584372 0.697466
vt 0.441780 0.707402
vt 0.513979 0.682865
vt 0.622606 0.672929
vt 0.669893 0.716584
vt 0.614676 0.672929
vt 0.669893 0.708653
vt 0.538892 0.682865
vt 0.633793 0.716584
vt 0.614676 0.697466
vt 0.538892 0.707402
vt 0.633793 0.708653
vt 0.622606 0.697466
vt 0.513979 0.707402
vt 0.513980 0.726519
vt 0.679956 0.672930
vt 0.576442 0.708653
vt 0.672028 0.672930
vt 0.513980 0.718590
vt 0.621538 0.708653
vt 0.672028 0.697467
vt 0.621538 0.733191
vt 0.477880 0.726519
vt 0.477880 0.718590
vt 0.679956 0.697467
vt 0.576442 0.733191
s 0
f 2/4/1 3/7/1 1/1/1
f 9/22/2 51/110/2 7/17/2
f 8/19/3 5/12/3 7/18/3
f 28/70/4 1/2/4 19/52/4
f 7/17/5 23/59/5 9/22/5
f 4/9/6 28/69/6 14/38/6
f 18/49/6 6/15/6 8/20/6
f 17/47/6 24/61/6 18/49/6
f 16/44/6 25/63/6 17/47/6
f 15/41/6 26/65/6 16/44/6
f 14/38/6 27/67/6 15/41/6
f 13/34/5 1/3/5 3/8/5
f 12/31/5 19/51/5 13/34/5
f 11/28/5 20/53/5 12/31/5
f 10/25/5 21/55/5 11/28/5
f 9/22/5 22/57/5 10/25/5
f 6/16/4 23/60/4 5/11/4
f 24/62/4 22/58/4 23/60/4
f 25/64/4 21/56/4 22/58/4
f 26/66/4 20/54/4 21/56/4
f 27/68/4 19/52/4 20/54/4
f 3/8/2 79/158/2 13/34/2
f 13/34/2 107/206/2 12/31/2
f 12/31/2 135/254/2 11/28/2
f 11/28/2 163/302/2 10/25/2
f 10/25/2 191/350/2 9/22/2
f 113/216/3 235/425/3 134/251/3
f 7/18/7 43/95/7 8/19/7
f 4/10/8 58/122/8 3/7/8
f 8/20/9 36/83/9 18/49/9
f 177/326/5 242/447/5 169/311/5
f 13/35/10 71/144/10 14/36/10
f 14/37/8 86/170/8 13/33/8
f 14/38/9 64/131/9 4/9/9
f 57/120/3 227/401/3 78/155/3
f 12/32/7 99/192/7 15/39/7
f 15/40/8 114/218/8 12/30/8
f 15/41/9 92/179/9 14/38/9
f 121/229/5 234/424/5 113/215/5
f 11/29/10 127/239/10 16/42/10
f 16/43/8 142/266/8 11/27/8
f 16/44/9 120/227/9 15/41/9
f 156/289/6 239/437/6 240/440/6
f 10/26/10 155/287/10 17/45/10
f 17/46/8 170/314/8 10/24/8
f 16/44/9 155/288/9 148/276/9
f 65/133/5 226/400/5 57/119/5
f 9/23/10 183/335/10 18/48/10
f 18/49/9 176/324/9 17/47/9
f 198/360/11 42/94/11 197/359/11
f 31/76/12 41/93/12 42/94/12
f 32/77/13 40/92/13 41/93/13
f 33/78/14 39/91/14 40/92/14
f 34/79/15 38/88/15 39/91/15
f 38/89/16 30/75/16 36/84/16
f 30/74/17 56/116/17 51/110/17
f 35/82/18 55/115/18 56/118/18
f 34/79/19 54/114/19 55/115/19
f 33/78/20 53/113/20 54/114/20
f 53/113/21 31/76/21 52/112/21
f 52/112/22 198/360/22 199/361/22
f 43/96/23 38/90/23 36/83/23
f 45/102/24 39/91/24 38/88/24
f 46/103/25 40/92/25 39/91/25
f 47/104/26 41/93/26 40/92/26
f 48/105/27 42/94/27 41/93/27
f 49/106/28 197/359/28 42/94/28
f 51/111/29 45/101/29 43/95/29
f 45/102/30 55/115/30 46/103/30
f 55/115/31 47/104/31 46/103/31
f 54/114/32 48/105/32 47/104/32
f 53/113/33 49/106/33 48/105/33
f 52/112/34 200/362/34 49/106/34
f 202/364/11 70/142/11 201/363/11
f 59/124/12 69/141/12 70/142/12
f 60/125/13 68/140/13 69/141/13
f 61/126/35 67/139/35 68/140/35
f 67/139/15 63/130/15 66/137/15
f 63/128/36 64/132/36 66/136/36
f 58/123/37 84/164/37 79/158/37
f 63/130/18 83/163/18 84/166/18
f 62/127/19 82/162/19 83/163/19
f 61/126/20 81/161/20 82/162/20
f 60/125/21 80/160/21 81/161/21
f 80/160/22 202/364/22 203/365/22
f 71/143/23 66/138/23 64/131/23
f 73/150/24 67/139/24 66/137/24
f 74/151/25 68/140/25 67/139/25
f 75/152/26 69/141/26 68/140/26
f 69/141/27 77/154/27 70/142/27
f 77/154/28 201/363/28 70/142/28
f 71/144/38 84/165/38 73/148/38
f 84/166/39 74/151/39 73/150/39
f 83/163/31 75/152/31 74/151/31
f 82/162/32 76/153/32 75/152/32
f 76/153/33 80/160/33 77/154/33
f 80/160/34 204/366/34 77/154/34
f 205/367/11 87/172/11 98/190/11
f 87/172/12 97/189/12 98/190/12
f 97/189/13 89/174/13 96/188/13
f 89/174/35 95/187/35 96/188/35
f 95/187/15 91/178/15 94/185/15
f 91/176/36 92/180/36 94/184/36
f 107/206/37 91/177/37 112/212/37
f 112/214/18 90/175/18 111/211/18
f 90/175/19 110/210/19 111/211/19
f 110/210/20 88/173/20 109/209/20
f 88/173/21 108/208/21 109/209/21
f 87/172/22 207/369/22 108/208/22
f 99/191/23 94/186/23 92/179/23
f 101/198/24 95/187/24 94/185/24
f 102/199/25 96/188/25 95/187/25
f 103/200/26 97/189/26 96/188/26
f 104/201/27 98/190/27 97/189/27
f 98/190/28 208/370/28 205/367/28
f 99/192/29 112/213/29 101/196/29
f 112/214/39 102/199/39 101/198/39
f 111/211/40 103/200/40 102/199/40
f 110/210/32 104/201/32 103/200/32
f 109/209/33 105/202/33 104/201/33
f 105/202/34 207/369/34 208/370/34
f 210/372/11 126/238/11 209/371/11
f 126/238/12 116/221/12 125/237/12
f 116/221/13 124/236/13 125/237/13
f 117/222/35 123/235/35 124/236/35
f 123/235/15 119/226/15 122/233/15
f 119/224/41 120/228/41 122/232/41
f 114/219/37 140/260/37 135/254/37
f 119/226/18 139/259/18 140/262/18
f 118/223/19 138/258/19 139/259/19
f 117/222/20 137/257/20 138/258/20
f 116/221/21 136/256/21 137/257/21
f 115/220/22 211/373/22 136/256/22
f 127/240/23 122/234/23 120/227/23
f 129/245/24 123/235/24 122/233/24
f 130/247/25 124/236/25 123/235/25
f 131/248/26 125/237/26 124/236/26
f 125/237/27 133/250/27 126/238/27
f 133/250/28 209/371/28 126/238/28
f 135/255/42 129/246/42 127/239/42
f 140/262/39 130/247/39 129/245/39
f 139/259/31 131/248/31 130/247/31
f 138/258/32 132/249/32 131/248/32
f 137/257/33 133/250/33 132/249/33
f 136/256/34 212/374/34 133/250/34
f 214/376/11 154/286/11 213/375/11
f 143/268/12 153/285/12 154/286/12
f 144/269/13 152/284/13 153/285/13
f 145/270/35 151/283/35 152/284/35
f 146/271/15 150/282/15 151/283/15
f 147/272/36 148/275/36 150/280/36
f 142/267/37 168/308/37 163/302/37
f 168/310/18 146/271/18 167/307/18
f 146/271/19 166/306/19 167/307/19
f 166/306/20 144/269/20 165/305/20
f 144/269/21 164/304/21 165/305/21
f 164/304/22 214/376/22 215/377/22
f 148/276/23 157/292/23 150/281/23
f 150/282/24 158/295/24 151/283/24
f 158/295/25 152/284/25 151/283/25
f 159/296/26 153/285/26 152/284/26
f 153/285/27 161/298/27 154/286/27
f 161/298/28 213/375/28 154/286/28
f 163/303/42 157/293/42 155/287/42
f 157/294/30 167/307/30 158/295/30
f 167/307/40 159/296/40 158/295/40
f 166/306/32 160/297/32 159/296/32
f 165/305/33 161/298/33 160/297/33
f 164/304/34 216/378/34 161/298/34
f 218/380/11 182/334/11 217/379/11
f 171/316/12 181/333/12 182/334/12
f 172/317/13 180/332/13 181/333/13
f 173/318/35 179/331/35 180/332/35
f 174/319/43 178/328/43 179/331/43
f 178/329/16 170/314/16 176/323/16
f 170/315/37 196/356/37 191/350/37
f 175/322/18 195/355/18 196/358/18
f 174/319/19 194/354/19 195/355/19
f 173/318/20 193/353/20 194/354/20
f 172/317/21 192/352/21 193/353/21
f 171/316/22 219/381/22 192/352/22
f 183/336/23 178/330/23 176/324/23
f 185/342/24 179/331/24 178/328/24
f 186/343/25 180/332/25 179/331/25
f 187/344/26 181/333/26 180/332/26
f 188/345/27 182/334/27 181/333/27
f 189/346/28 217/379/28 182/334/28
f 191/351/42 185/341/42 183/335/42
f 185/342/30 195/355/30 186/343/30
f 186/343/40 194/354/40 187/344/40
f 194/354/32 188/345/32 187/344/32
f 193/353/33 189/346/33 188/345/33
f 192/352/34 220/382/34 189/346/34
f 18/50/44 30/75/44 9/21/44
f 37/85/45 198/360/45 197/359/45
f 29/72/45 199/361/45 198/360/45
f 44/97/45 197/359/45 200/362/45
f 50/108/45 200/362/45 199/361/45
f 65/134/45 202/364/45 201/363/45
f 57/121/45 203/365/45 202/364/45
f 72/145/45 201/363/45 204/366/45
f 78/156/45 204/366/45 203/365/45
f 93/181/45 206/368/45 205/367/45
f 85/168/45 207/369/45 206/368/45
f 100/193/45 205/367/45 208/370/45
f 106/204/45 208/370/45 207/369/45
f 121/230/45 210/372/45 209/371/45
f 113/217/45 211/373/45 210/372/45
f 128/241/45 209/371/45 212/374/45
f 134/252/45 212/374/45 211/373/45
f 149/277/45 214/376/45 213/375/45
f 141/264/45 215/377/45 214/376/45
f 156/290/45 213/375/45 216/378/45
f 162/301/45 216/378/45 215/377/45
f 177/327/45 218/380/45 217/379/45
f 169/312/45 219/381/45 218/380/45
f 184/337/45 217/379/45 220/382/45
f 190/348/45 220/382/45 219/381/45
f 221/384/45 223/389/45 222/386/45
f 225/397/45 227/402/45 226/398/45
f 229/408/45 231/413/45 230/410/45
f 233/421/45 235/426/45 234/422/45
f 237/432/45 239/438/45 238/434/45
f 241/444/45 243/449/45 242/446/45
f 65/135/1 228/406/1 225/395/1
f 169/313/3 243/450/3 190/347/3
f 121/231/1 236/430/1 233/419/1
f 72/147/6 227/403/6 228/404/6
f 184/338/1 241/445/1 177/325/1
f 37/86/5 222/387/5 29/71/5
f 128/243/6 235/427/6 236/428/6
f 93/182/5 230/411/5 85/167/5
f 184/339/6 243/451/6 244/452/6
f 29/73/3 223/390/3 50/107/3
f 149/278/5 238/435/5 141/263/5
f 85/169/3 231/414/3 106/203/3
f 37/87/1 224/394/1 221/383/1
f 141/265/3 239/439/3 162/299/3
f 93/183/1 232/418/1 229/407/1
f 44/99/6 223/391/6 224/392/6
f 149/279/1 240/442/1 237/431/1
f 100/195/6 231/415/6 232/416/6
f 2/4/1 4/10/1 3/7/1
f 9/22/2 30/74/2 51/110/2
f 8/19/3 6/14/3 5/12/3
f 28/70/4 2/5/4 1/2/4
f 7/17/5 5/13/5 23/59/5
f 4/9/6 2/6/6 28/69/6
f 18/49/6 24/61/6 6/15/6
f 17/47/6 25/63/6 24/61/6
f 16/44/6 26/65/6 25/63/6
f 15/41/6 27/67/6 26/65/6
f 14/38/6 28/69/6 27/67/6
f 13/34/5 19/51/5 1/3/5
f 12/31/5 20/53/5 19/51/5
f 11/28/5 21/55/5 20/53/5
f 10/25/5 22/57/5 21/55/5
f 9/22/5 23/59/5 22/57/5
f 6/16/4 24/62/4 23/60/4
f 24/62/4 25/64/4 22/58/4
f 25/64/4 26/66/4 21/56/4
f 26/66/4 27/68/4 20/54/4
f 27/68/4 28/70/4 19/52/4
f 3/8/2 58/123/2 79/158/2
f 13/34/2 86/171/2 107/206/2
f 12/31/2 114/219/2 135/254/2
f 11/28/2 142/267/2 163/302/2
f 10/25/2 170/315/2 191/350/2
f 113/216/3 234/423/3 235/425/3
f 7/18/10 51/111/10 43/95/10
f 4/10/8 64/132/8 58/122/8
f 8/20/9 43/96/9 36/83/9
f 177/326/5 241/443/5 242/447/5
f 13/35/10 79/159/10 71/144/10
f 14/37/8 92/180/8 86/170/8
f 14/38/9 71/143/9 64/131/9
f 57/120/3 226/399/3 227/401/3
f 12/32/7 107/207/7 99/192/7
f 15/40/8 120/228/8 114/218/8
f 15/41/9 99/191/9 92/179/9
f 121/229/5 233/420/5 234/424/5
f 11/29/7 135/255/7 127/239/7
f 16/43/46 148/275/46 142/266/46
f 16/44/9 127/240/9 120/227/9
f 156/289/6 162/300/6 239/437/6
f 10/26/7 163/303/7 155/287/7
f 17/46/46 176/323/46 170/314/46
f 16/44/9 17/47/9 155/288/9
f 65/133/5 225/396/5 226/400/5
f 9/23/7 191/351/7 183/335/7
f 18/49/9 183/336/9 176/324/9
f 198/360/11 31/76/11 42/94/11
f 31/76/12 32/77/12 41/93/12
f 32/77/13 33/78/13 40/92/13
f 33/78/35 34/79/35 39/91/35
f 34/79/15 35/82/15 38/88/15
f 38/89/36 35/80/36 30/75/36
f 30/74/37 35/81/37 56/116/37
f 35/82/18 34/79/18 55/115/18
f 34/79/19 33/78/19 54/114/19
f 33/78/20 32/77/20 53/113/20
f 53/113/21 32/77/21 31/76/21
f 52/112/22 31/76/22 198/360/22
f 43/96/23 45/100/23 38/90/23
f 45/102/24 46/103/24 39/91/24
f 46/103/47 47/104/47 40/92/47
f 47/104/26 48/105/26 41/93/26
f 48/105/27 49/106/27 42/94/27
f 49/106/28 200/362/28 197/359/28
f 51/111/38 56/117/38 45/101/38
f 45/102/39 56/118/39 55/115/39
f 55/115/31 54/114/31 47/104/31
f 54/114/32 53/113/32 48/105/32
f 53/113/33 52/112/33 49/106/33
f 52/112/34 199/361/34 200/362/34
f 202/364/11 59/124/11 70/142/11
f 59/124/12 60/125/12 69/141/12
f 60/125/13 61/126/13 68/140/13
f 61/126/35 62/127/35 67/139/35
f 67/139/15 62/127/15 63/130/15
f 63/128/36 58/122/36 64/132/36
f 58/123/37 63/129/37 84/164/37
f 63/130/18 62/127/18 83/163/18
f 62/127/19 61/126/19 82/162/19
f 61/126/20 60/125/20 81/161/20
f 60/125/21 59/124/21 80/160/21
f 80/160/22 59/124/22 202/364/22
f 71/143/23 73/149/23 66/138/23
f 73/150/24 74/151/24 67/139/24
f 74/151/25 75/152/25 68/140/25
f 75/152/26 76/153/26 69/141/26
f 69/141/27 76/153/27 77/154/27
f 77/154/28 204/366/28 201/363/28
f 71/144/38 79/159/38 84/165/38
f 84/166/39 83/163/39 74/151/39
f 83/163/31 82/162/31 75/152/31
f 82/162/32 81/161/32 76/153/32
f 76/153/33 81/161/33 80/160/33
f 80/160/34 203/365/34 204/366/34
f 205/367/11 206/368/11 87/172/11
f 87/172/12 88/173/12 97/189/12
f 97/189/13 88/173/13 89/174/13
f 89/174/14 90/175/14 95/187/14
f 95/187/15 90/175/15 91/178/15
f 91/176/36 86/170/36 92/180/36
f 107/206/37 86/171/37 91/177/37
f 112/214/18 91/178/18 90/175/18
f 90/175/19 89/174/19 110/210/19
f 110/210/20 89/174/20 88/173/20
f 88/173/21 87/172/21 108/208/21
f 87/172/22 206/368/22 207/369/22
f 99/191/23 101/197/23 94/186/23
f 101/198/24 102/199/24 95/187/24
f 102/199/25 103/200/25 96/188/25
f 103/200/26 104/201/26 97/189/26
f 104/201/27 105/202/27 98/190/27
f 98/190/28 105/202/28 208/370/28
f 99/192/38 107/207/38 112/213/38
f 112/214/39 111/211/39 102/199/39
f 111/211/31 110/210/31 103/200/31
f 110/210/32 109/209/32 104/201/32
f 109/209/33 108/208/33 105/202/33
f 105/202/34 108/208/34 207/369/34
f 210/372/11 115/220/11 126/238/11
f 126/238/12 115/220/12 116/221/12
f 116/221/13 117/222/13 124/236/13
f 117/222/35 118/223/35 123/235/35
f 123/235/43 118/223/43 119/226/43
f 119/224/41 114/218/41 120/228/41
f 114/219/37 119/225/37 140/260/37
f 119/226/18 118/223/18 139/259/18
f 118/223/19 117/222/19 138/258/19
f 117/222/20 116/221/20 137/257/20
f 116/221/21 115/220/21 136/256/21
f 115/220/22 210/372/22 211/373/22
f 127/240/23 129/244/23 122/234/23
f 129/245/24 130/247/24 123/235/24
f 130/247/25 131/248/25 124/236/25
f 131/248/26 132/249/26 125/237/26
f 125/237/27 132/249/27 133/250/27
f 133/250/28 212/374/28 209/371/28
f 135/255/38 140/261/38 129/246/38
f 140/262/30 139/259/30 130/247/30
f 139/259/31 138/258/31 131/248/31
f 138/258/32 137/257/32 132/249/32
f 137/257/33 136/256/33 133/250/33
f 136/256/34 211/373/34 212/374/34
f 214/376/11 143/268/11 154/286/11
f 143/268/12 144/269/12 153/285/12
f 144/269/13 145/270/13 152/284/13
f 145/270/14 146/271/14 151/283/14
f 146/271/15 147/274/15 150/282/15
f 147/272/41 142/266/41 148/275/41
f 142/267/37 147/273/37 168/308/37
f 168/310/18 147/274/18 146/271/18
f 146/271/19 145/270/19 166/306/19
f 166/306/20 145/270/20 144/269/20
f 144/269/21 143/268/21 164/304/21
f 164/304/22 143/268/22 214/376/22
f 148/276/23 155/288/23 157/292/23
f 150/282/24 157/294/24 158/295/24
f 158/295/25 159/296/25 152/284/25
f 159/296/26 160/297/26 153/285/26
f 153/285/27 160/297/27 161/298/27
f 161/298/28 216/378/28 213/375/28
f 163/303/38 168/309/38 157/293/38
f 157/294/39 168/310/39 167/307/39
f 167/307/40 166/306/40 159/296/40
f 166/306/32 165/305/32 160/297/32
f 165/305/33 164/304/33 161/298/33
f 164/304/34 215/377/34 216/378/34
f 218/380/11 171/316/11 182/334/11
f 171/316/12 172/317/12 181/333/12
f 172/317/13 173/318/13 180/332/13
f 173/318/14 174/319/14 179/331/14
f 174/319/15 175/322/15 178/328/15
f 178/329/36 175/320/36 170/314/36
f 170/315/37 175/321/37 196/356/37
f 175/322/18 174/319/18 195/355/18
f 174/319/19 173/318/19 194/354/19
f 173/318/20 172/317/20 193/353/20
f 172/317/21 171/316/21 192/352/21
f 171/316/22 218/380/22 219/381/22
f 183/336/23 185/340/23 178/330/23
f 185/342/24 186/343/24 179/331/24
f 186/343/25 187/344/25 180/332/25
f 187/344/26 188/345/26 181/333/26
f 188/345/27 189/346/27 182/334/27
f 189/346/28 220/382/28 217/379/28
f 191/351/38 196/357/38 185/341/38
f 185/342/39 196/358/39 195/355/39
f 186/343/31 195/355/31 194/354/31
f 194/354/32 193/353/32 188/345/32
f 193/353/33 192/352/33 189/346/33
f 192/352/34 219/381/34 220/382/34
f 18/50/46 36/84/46 30/75/46
f 37/85/45 29/72/45 198/360/45
f 29/72/45 50/108/45 199/361/45
f 44/97/45 37/85/45 197/359/45
f 50/108/45 44/97/45 200/362/45
f 65/134/45 57/121/45 202/364/45
f 57/121/45 78/156/45 203/365/45
f 72/145/45 65/134/45 201/363/45
f 78/156/45 72/145/45 204/366/45
f 93/181/45 85/168/45 206/368/45
f 85/168/45 106/204/45 207/369/45
f 100/193/45 93/181/45 205/367/45
f 106/204/45 100/193/45 208/370/45
f 121/230/45 113/217/45 210/372/45
f 113/217/45 134/252/45 211/373/45
f 128/241/45 121/230/45 209/371/45
f 134/252/45 128/241/45 212/374/45
f 149/277/45 141/264/45 214/376/45
f 141/264/45 162/301/45 215/377/45
f 156/290/45 149/277/45 213/375/45
f 162/301/45 156/290/45 216/378/45
f 177/327/45 169/312/45 218/380/45
f 169/312/45 190/348/45 219/381/45
f 184/337/45 177/327/45 217/379/45
f 190/348/45 184/337/45 220/382/45
f 221/384/45 224/393/45 223/389/45
f 225/397/45 228/405/45 227/402/45
f 229/408/45 232/417/45 231/413/45
f 233/421/45 236/429/45 235/426/45
f 237/432/45 240/441/45 239/438/45
f 241/444/45 244/453/45 243/449/45
f 65/135/1 72/146/1 228/406/1
f 169/313/3 242/448/3 243/450/3
f 121/231/1 128/242/1 236/430/1
f 72/147/6 78/157/6 227/403/6
f 184/338/1 244/454/1 241/445/1
f 37/86/5 221/385/5 222/387/5
f 128/243/6 134/253/6 235/427/6
f 93/182/5 229/409/5 230/411/5
f 184/339/6 190/349/6 243/451/6
f 29/73/3 222/388/3 223/390/3
f 149/278/5 237/433/5 238/435/5
f 85/169/3 230/412/3 231/414/3
f 37/87/1 44/98/1 224/394/1
f 141/265/3 238/436/3 239/439/3
f 93/183/1 100/194/1 232/418/1
f 44/99/6 50/109/6 223/391/6
f 149/279/1 156/291/1 240/442/1
f 100/195/6 106/205/6 231/415/6
