# Blender 3.3.1
# www.blender.org
o schränke_klapptisch
v -1.476097 8.242706 3.013873
v -1.476097 12.246284 3.013873
v -1.476097 8.242706 -2.552424
v -1.476097 12.246284 -2.552424
v 0.523903 8.242706 3.013873
v 0.523903 12.246284 3.013873
v 0.523903 8.242706 -2.552424
v 0.523903 12.246284 -2.552424
v -1.476097 8.242706 0.230724
v -1.476097 12.246284 0.230724
v 0.523903 8.242706 0.230724
v 0.523903 12.246284 0.230724
v 0.733411 9.929337 1.022962
v 0.608181 8.351799 0.339817
v 0.716633 8.594604 0.582621
v 0.670796 8.460293 0.448311
v 0.608181 12.137192 0.339817
v 0.733411 10.559654 1.022962
v 0.670796 12.028698 0.448311
v 0.716633 11.894387 0.582621
v 0.608181 12.137192 2.904780
v 0.733411 10.559654 1.158381
v 0.670796 12.028698 2.796286
v 0.716633 11.894388 2.661976
v 0.733411 9.929337 1.158381
v 0.608181 8.351799 2.904780
v 0.716633 8.594604 2.661976
v 0.670796 8.460293 2.796286
v 0.733411 9.929337 -0.696933
v 0.608181 8.351799 -2.443331
v 0.716633 8.594603 -2.200527
v 0.670796 8.460293 -2.334837
v 0.608181 12.137192 -2.443331
v 0.733411 10.559654 -0.696933
v 0.670796 12.028698 -2.334837
v 0.716633 11.894387 -2.200527
v 0.608181 12.137192 0.121632
v 0.733411 10.559654 -0.561513
v 0.670796 12.028698 0.013138
v 0.716633 11.894387 -0.121173
v 0.733411 9.929337 -0.561513
v 0.608181 8.351799 0.121632
v 0.716633 8.594604 -0.121173
v 0.670796 8.460293 0.013138
v 0.733411 11.770250 0.706759
v 0.733411 8.718740 0.706759
v 0.733411 8.718740 2.537838
v 0.733411 11.770250 2.537838
v 0.733411 11.770250 -2.076390
v 0.733411 8.718740 -2.076390
v 0.733411 8.718740 -0.245310
v 0.733411 11.770250 -0.245310
v 0.902854 10.559654 1.022962
v 0.902854 9.929337 1.022962
v 0.902854 9.929337 1.158381
v 0.902854 10.559654 1.158381
v 0.902854 10.559654 -0.696933
v 0.902854 9.929337 -0.696933
v 0.902854 9.929337 -0.561513
v 0.902854 10.559654 -0.561513
vn -1.0000 -0.0000 -0.0000
vn -0.0000 -0.0000 -1.0000
vn 0.7914 -0.6114 -0.0000
vn -0.0000 -0.0000 1.0000
vn -0.0000 -1.0000 -0.0000
vn -0.0000 1.0000 -0.0000
vn 0.7914 -0.0000 0.6114
vn 0.7914 -0.0000 -0.6114
vn 0.7914 0.6114 -0.0000
vn 0.9910 -0.0000 -0.1339
vn 0.9464 -0.0000 -0.3230
vn 0.8661 -0.0000 -0.4999
vn 0.8661 -0.4999 -0.0000
vn 0.9464 -0.3230 -0.0000
vn 0.9910 -0.1339 -0.0000
vn 0.8661 0.4999 -0.0000
vn 0.9464 0.3230 -0.0000
vn 0.9910 0.1339 -0.0000
vn 0.8661 -0.0000 0.4999
vn 0.9464 -0.0000 0.3230
vn 0.9910 -0.0000 0.1339
vn 1.0000 -0.0000 -0.0000
vt 0.719780 0.495714
vt 0.374574 0.504286
vt 0.004286 0.995714
vt 0.374574 0.857747
vt 0.904925 0.495714
vt 0.366319 0.495714
vt 0.366003 0.504286
vt 0.004286 0.504286
vt 0.719780 0.004286
vt 0.366319 0.004286
vt 0.366003 0.857747
vt 0.904925 0.004286
vt 0.551147 0.504286
vt 0.180859 0.995714
vt 0.357747 0.004286
vt 0.551147 0.857747
vt 0.728352 0.495714
vt 0.004286 0.004286
vt 0.189430 0.504286
vt 0.180859 0.504286
vt 0.357747 0.495714
vt 0.728352 0.004286
vt 0.189430 0.857747
vt 0.004286 0.495714
vt 0.004286 0.750000
vt 0.719780 0.250000
vt 0.904925 0.250000
vt 0.366319 0.250000
vt 0.180859 0.750000
vt 0.357747 0.250000
vt 0.728352 0.250000
vt 0.004286 0.250000
vt 0.598209 0.504286
vt 0.208840 0.180056
vt 0.636259 0.615567
vt 0.348116 0.240369
vt 0.326679 0.218932
vt 0.338537 0.230790
vt 0.013917 0.240369
vt 0.642267 0.519245
vt 0.153193 0.180056
vt 0.598209 0.559935
vt 0.023496 0.230790
vt 0.035354 0.218932
vt 0.013917 0.013917
vt 0.559719 0.559935
vt 0.153193 0.168100
vt 0.630311 0.519245
vt 0.023496 0.023496
vt 0.035354 0.035353
vt 0.624303 0.615567
vt 0.208840 0.168100
vt 0.559719 0.504286
vt 0.348116 0.013917
vt 0.326679 0.035353
vt 0.338537 0.023496
vt 0.574678 0.568505
vt 0.208840 0.331900
vt 0.636259 0.568506
vt 0.348116 0.486083
vt 0.326680 0.464647
vt 0.338537 0.476504
vt 0.013917 0.486083
vt 0.636259 0.606996
vt 0.574678 0.624154
vt 0.153193 0.331900
vt 0.023496 0.476504
vt 0.035354 0.464647
vt 0.013917 0.259631
vt 0.606780 0.559935
vt 0.624304 0.606996
vt 0.153193 0.319944
vt 0.023496 0.269210
vt 0.035354 0.281068
vt 0.624304 0.568506
vt 0.208840 0.319944
vt 0.606780 0.504286
vt 0.348116 0.259631
vt 0.326679 0.281068
vt 0.338537 0.269210
vt 0.046313 0.207973
vt 0.315720 0.207973
vt 0.315720 0.046313
vt 0.046313 0.046313
vt 0.046313 0.453687
vt 0.315720 0.453687
vt 0.315720 0.292027
vt 0.046313 0.292027
vt 0.595205 0.624154
vt 0.642267 0.504286
vt 0.583250 0.559935
vt 0.595205 0.568505
vt 0.583250 0.504286
vt 0.636259 0.630527
vt 0.583249 0.568505
vt 0.574678 0.504286
vt 0.624303 0.630527
vt 0.583249 0.624154
vt 0.630311 0.504286
vt 0.574678 0.559935
vt 0.559719 0.624154
vt 0.636259 0.592036
vt 0.615732 0.624154
vt 0.615732 0.568505
vt 0.559719 0.568505
vt 0.636259 0.583465
vt 0.603777 0.568505
vt 0.621740 0.504286
vt 0.624304 0.583465
vt 0.624304 0.592036
vt 0.603777 0.624154
vt 0.621740 0.559935
s 0
f 10/28/1 3/9/1 9/26/1
f 4/11/2 7/19/2 3/7/2
f 11/30/3 26/54/3 5/15/3
f 6/16/4 1/2/4 5/13/4
f 11/29/5 1/3/5 9/25/5
f 10/27/6 6/17/6 12/31/6
f 4/12/6 12/31/6 8/22/6
f 7/20/5 9/25/5 3/8/5
f 7/21/3 42/78/3 11/30/3
f 2/6/1 9/26/1 1/1/1
f 34/65/2 58/105/2 29/57/2
f 5/15/7 21/45/7 6/18/7
f 8/24/8 30/60/8 7/21/8
f 6/18/9 17/39/9 12/32/9
f 38/71/6 57/102/6 34/64/6
f 11/30/7 37/69/7 12/32/7
f 12/32/9 33/63/9 8/24/9
f 46/82/10 20/44/10 45/81/10
f 15/37/11 19/43/11 20/44/11
f 16/38/12 17/39/12 19/43/12
f 14/36/13 28/56/13 26/54/13
f 16/38/14 27/55/14 28/56/14
f 15/37/15 47/83/15 27/55/15
f 21/45/16 19/43/16 17/39/16
f 19/43/17 24/50/17 20/44/17
f 24/50/18 45/81/18 20/44/18
f 26/54/19 23/49/19 21/45/19
f 23/49/20 27/55/20 24/50/20
f 27/55/21 48/84/21 24/50/21
f 50/86/10 36/68/10 49/85/10
f 36/68/11 32/62/11 35/67/11
f 35/67/12 30/60/12 33/63/12
f 30/60/13 44/80/13 42/78/13
f 44/80/14 31/61/14 43/79/14
f 31/61/15 51/87/15 43/79/15
f 37/69/16 35/67/16 33/63/16
f 39/73/17 36/68/17 35/67/17
f 40/74/18 49/85/18 36/68/18
f 37/69/19 44/80/19 39/73/19
f 44/80/20 40/74/20 39/73/20
f 43/79/21 52/88/21 40/74/21
f 12/32/8 14/36/8 11/30/8
f 18/41/22 46/82/22 45/81/22
f 25/52/22 46/82/22 13/34/22
f 22/47/22 45/81/22 48/84/22
f 22/47/22 47/83/22 25/52/22
f 29/58/22 49/85/22 34/66/22
f 29/58/22 51/87/22 50/86/22
f 34/66/22 52/88/22 38/72/22
f 38/72/22 51/87/22 41/76/22
f 53/89/22 55/95/22 54/92/22
f 57/103/22 59/107/22 58/104/22
f 22/48/6 53/90/6 18/40/6
f 18/42/2 54/93/2 13/33/2
f 41/77/4 60/112/4 38/70/4
f 29/59/5 59/109/5 41/75/5
f 25/53/4 56/100/4 22/46/4
f 13/35/5 55/97/5 25/51/5
f 10/28/1 4/10/1 3/9/1
f 4/11/2 8/23/2 7/19/2
f 11/30/3 14/36/3 26/54/3
f 6/16/4 2/4/4 1/2/4
f 11/29/5 5/14/5 1/3/5
f 10/27/6 2/5/6 6/17/6
f 4/12/6 10/27/6 12/31/6
f 7/20/5 11/29/5 9/25/5
f 7/21/3 30/60/3 42/78/3
f 2/6/1 10/28/1 9/26/1
f 34/65/2 57/101/2 58/105/2
f 5/15/7 26/54/7 21/45/7
f 8/24/8 33/63/8 30/60/8
f 6/18/9 21/45/9 17/39/9
f 38/71/6 60/110/6 57/102/6
f 11/30/7 42/78/7 37/69/7
f 12/32/9 37/69/9 33/63/9
f 46/82/10 15/37/10 20/44/10
f 15/37/11 16/38/11 19/43/11
f 16/38/12 14/36/12 17/39/12
f 14/36/13 16/38/13 28/56/13
f 16/38/14 15/37/14 27/55/14
f 15/37/15 46/82/15 47/83/15
f 21/45/16 23/49/16 19/43/16
f 19/43/17 23/49/17 24/50/17
f 24/50/18 48/84/18 45/81/18
f 26/54/19 28/56/19 23/49/19
f 23/49/20 28/56/20 27/55/20
f 27/55/21 47/83/21 48/84/21
f 50/86/10 31/61/10 36/68/10
f 36/68/11 31/61/11 32/62/11
f 35/67/12 32/62/12 30/60/12
f 30/60/13 32/62/13 44/80/13
f 44/80/14 32/62/14 31/61/14
f 31/61/15 50/86/15 51/87/15
f 37/69/16 39/73/16 35/67/16
f 39/73/17 40/74/17 36/68/17
f 40/74/18 52/88/18 49/85/18
f 37/69/19 42/78/19 44/80/19
f 44/80/20 43/79/20 40/74/20
f 43/79/21 51/87/21 52/88/21
f 12/32/8 17/39/8 14/36/8
f 18/41/22 13/34/22 46/82/22
f 25/52/22 47/83/22 46/82/22
f 22/47/22 18/41/22 45/81/22
f 22/47/22 48/84/22 47/83/22
f 29/58/22 50/86/22 49/85/22
f 29/58/22 41/76/22 51/87/22
f 34/66/22 49/85/22 52/88/22
f 38/72/22 52/88/22 51/87/22
f 53/89/22 56/98/22 55/95/22
f 57/103/22 60/111/22 59/107/22
f 22/48/6 56/99/6 53/90/6
f 18/42/2 53/91/2 54/93/2
f 41/77/4 59/108/4 60/112/4
f 29/59/5 58/106/5 59/109/5
f 25/53/4 55/96/4 56/100/4
f 13/35/5 54/94/5 55/97/5
