# Blender 3.3.1
# www.blender.org
o traiteur
v 0.001487 4.174712 -3.932393
v 0.001487 0.003105 -3.932393
v 5.610626 4.174712 -3.858705
v 5.610626 0.003105 -3.858705
v 0.755895 0.146505 3.067194
v 0.001487 4.174712 3.019186
v 4.021377 0.146506 3.078294
v 4.021377 4.174712 3.054341
v 0.001487 3.349872 -3.932393
v 0.001487 3.349872 3.019186
v 5.610626 3.349872 -3.858705
v 4.021377 3.349872 3.054341
v 0.001487 3.190285 -3.932393
v 5.610626 3.190285 -3.858705
v 0.755895 3.046884 3.067194
v 4.021377 3.046884 3.054341
v 6.170428 3.349940 -4.275284
v 0.001791 3.349940 -4.299071
v 0.001791 3.190353 -4.299071
v 6.170428 3.190353 -4.275284
v 0.001487 0.003105 3.019186
v 4.021377 0.003105 3.078294
v 0.001487 3.190285 3.019186
v 4.021377 3.190285 3.054341
v 5.175142 0.146549 2.201344
v 5.175142 3.046928 2.201344
v 1.909660 0.146549 2.214196
v 1.909660 3.046928 2.214196
v 0.064439 4.174712 -3.970107
v 5.674266 4.174712 -3.939239
v 0.064439 4.174712 3.152230
v 4.139418 4.174712 3.190130
v 0.941935 4.335959 -3.378567
v 0.064400 4.255845 -3.970109
v 0.288060 4.313373 -3.790423
v 0.124320 4.289059 -3.921963
v 5.674228 4.255845 -3.939241
v 5.573303 4.335945 -3.397603
v 5.667322 4.289059 -3.893586
v 5.648484 4.313372 -3.768854
v 0.941935 4.335954 2.523089
v 0.064400 4.255845 3.152229
v 0.288060 4.313373 2.991863
v 0.124320 4.289059 3.109259
v 4.247315 4.335944 2.522652
v 4.139379 4.255845 3.190128
v 4.166873 4.313373 3.019992
v 4.146739 4.289059 3.144540
v 5.622765 4.335943 -3.598467
v 0.511742 4.335946 -3.610736
v 0.511742 4.335946 2.831501
v 4.194390 4.335946 2.849856
v 5.622860 4.945439 -3.598654
v 0.511839 4.945442 -3.610922
v 5.573391 4.890369 -3.270946
v 1.312484 4.890382 -3.364923
v 5.622812 4.640692 -3.598560
v 0.511790 4.640693 -3.610829
v 1.312451 4.695777 -3.364863
v 5.573361 4.695765 -3.270886
v 5.573401 4.945441 -3.270962
v 0.942034 4.945455 -3.378753
v 0.941984 4.640707 -3.378660
v 5.573351 4.640693 -3.397700
v 3.751213 4.890208 -1.927881
v 3.751184 4.695603 -1.927822
v 1.269232 4.890221 -1.942955
v 1.269199 4.695616 -1.942896
v 23.250109 0.003105 -4.045801
v 24.190655 4.945455 -3.378753
v 27.101372 0.003105 -3.871152
v 29.228888 0.003105 -3.858705
v 27.101372 0.004199 3.125621
v 29.228888 0.146549 2.279145
v 29.228888 4.255845 3.267550
v 29.228888 4.174712 3.267551
v 29.228888 3.349872 -3.858705
v 29.228888 4.174712 -3.858705
v 29.228888 3.349872 3.132161
v 29.228888 3.190285 3.132161
v 27.101372 4.945442 -3.279086
v 29.228888 4.945441 -3.270962
v 29.228888 4.890369 -3.270946
v 29.228888 4.890208 -1.927881
v 29.228888 4.255845 -3.939241
v 29.228888 4.289059 -3.894347
v 29.228888 4.945439 -3.598654
v 29.228888 3.190353 -4.275284
v 29.228888 3.349940 -4.275284
v 29.228888 0.146506 3.132335
v 29.228888 4.335946 2.927093
v 29.228888 4.313373 3.097321
v 29.228888 4.640692 -3.598560
v 29.228888 4.313372 -3.768092
v 29.228888 3.046884 3.132161
v 29.228888 3.046928 2.279145
v 29.228888 4.335944 2.599709
v 29.228888 3.190285 -3.858705
v 29.228888 4.289059 3.221937
v 29.228888 4.335943 -3.598467
v 29.228888 4.695603 -1.927822
v 29.228888 4.174712 -3.939239
v 29.228888 0.003105 3.132335
v 29.228888 4.174712 3.132161
v 29.228888 4.695765 -3.270886
v 29.228888 4.335944 -3.261124
v 29.228888 4.335944 -3.257983
v 29.228888 4.340690 -3.257985
v 29.228888 4.695165 -3.272268
vn -1.0000 -0.0000 -0.0000
vn 0.0131 -0.0000 -0.9999
vn 0.5945 -0.0000 0.8041
vn -0.0000 1.0000 0.0001
vn -0.0087 -0.0000 1.0000
vn -0.0000 -1.0000 -0.0002
vn -1.0000 -0.0000 -0.0008
vn -0.0000 1.0000 0.0002
vn 0.0039 -0.0000 -1.0000
vn -0.0142 -0.2493 0.9683
vn -0.0635 -0.0000 0.9980
vn 0.0039 -0.0000 1.0000
vn -0.0000 -1.0000 -0.0001
vn -0.0000 -1.0000 -0.0000
vn -0.0000 1.0000 -0.0000
vn -1.0000 -0.0005 -0.0000
vn -0.0093 -0.0000 1.0000
vn 0.0031 0.8213 -0.5705
vn 0.0009 0.9831 -0.1829
vn 0.0005 0.9921 -0.1253
vn -0.1004 0.9949 -0.0000
vn -0.1469 0.9892 -0.0000
vn -0.4848 0.8746 -0.0000
vn -0.0010 0.9904 0.1380
vn -0.0018 0.9797 0.2005
vn -0.0056 0.7950 0.6066
vn 0.0055 -0.0000 -1.0000
vn 0.0024 -0.0003 -1.0000
vn -0.9995 0.0002 -0.0304
vn -0.0001 0.9997 -0.0240
vn -0.4749 0.0003 0.8800
vn 0.0041 0.0003 1.0000
vn -0.0221 0.0003 0.9998
vn -0.0373 0.0003 0.9993
vn 0.0040 -0.2680 0.9634
vn -0.0061 0.0003 1.0000
vn -0.0031 -0.0000 1.0000
vn -0.0000 -0.0000 -1.0000
vn -0.0000 0.8086 -0.5883
vn -0.0004 0.9913 0.1315
vn -0.0000 -0.0003 -1.0000
vn -0.0000 0.9815 -0.1913
vn -0.0000 0.0003 1.0000
vn -0.0006 0.9815 0.1915
vn 0.0750 -0.9972 -0.0000
vn -0.0000 0.9913 -0.1313
vn -0.0018 0.8084 0.5887
vn -0.0021 -0.0000 1.0000
vn -0.0032 -0.0000 1.0000
vn -0.0000 -0.9172 0.3984
vn 1.0000 -0.0000 -0.0000
vn -0.0034 -0.0000 1.0000
vn -0.0084 0.2774 0.9607
vn 0.0030 0.8089 -0.5880
vn 0.0008 0.9815 -0.1912
vn 0.0003 0.9913 -0.1313
vn -0.0007 0.9913 0.1314
vn -0.0014 0.9815 0.1914
vn -0.0052 0.8086 0.5883
vn 0.0003 0.9997 -0.0234
vn 0.0001 0.9997 -0.0234
vn -0.0005 0.9864 0.1645
vn 0.0007 0.9842 0.1770
vn -0.0000 0.9997 -0.0236
vn 0.0001 0.9997 -0.0233
vn -0.0000 1.0000 -0.0001
vn -0.0232 0.0941 0.9953
vn -0.0088 -0.9172 0.3983
vn -0.0000 0.8039 -0.5948
vn -0.0004 0.9913 0.1314
vn -0.0000 0.9820 -0.1891
vn -0.0000 0.9913 -0.1319
vn -0.0018 0.8084 0.5886
vn -0.9999 -0.0000 0.0121
vn -0.0059 0.0003 1.0000
vn -0.0000 -0.9172 0.3983
vn -0.0054 0.0397 0.9992
vn -0.0000 -0.0000 1.0000
vn 1.0000 -0.0000 -0.0001
vt 0.354576 0.994980
vt 0.315837 0.352370
vt 0.220819 0.352093
vt 0.689785 0.316969
vt 0.711456 0.005009
vt 0.315837 0.647890
vt 0.536618 0.005016
vt 0.007833 0.689957
vt 0.220788 0.416833
vt 0.353641 0.930290
vt 0.008546 0.625248
vt 0.536587 0.069756
vt 0.582529 0.693980
vt 0.015175 0.013744
vt 0.411748 0.352356
vt 0.300760 0.005162
vt 0.343624 0.994991
vt 0.689785 0.221058
vt 0.582585 0.656310
vt 0.015175 0.051385
vt 0.343353 0.948629
vt 0.300757 0.051515
vt 0.279258 0.352095
vt 0.529183 0.352357
vt 0.315837 0.410803
vt 0.242283 0.005131
vt 0.411748 0.410788
vt 0.528229 0.417062
vt 0.279227 0.416835
vt 0.242281 0.051484
vt 0.311731 0.994980
vt 0.315837 0.422108
vt 0.310808 0.005009
vt 0.310778 0.069749
vt 0.310778 0.930290
vt 0.604688 0.365525
vt 0.220797 0.013850
vt 0.220800 0.051473
vt 0.604408 0.403184
vt 0.289276 0.423287
vt 0.533983 0.423515
vt 0.310778 0.410798
vt 0.534242 0.352356
vt 0.289285 0.352093
vt 0.316791 0.994981
vt 0.310778 0.422104
vt 0.300592 0.352094
vt 0.300582 0.423288
vt 0.316532 0.923840
vt 0.411748 0.647875
vt 0.711456 0.100920
vt 0.005015 0.005009
vt 0.103743 0.689516
vt 0.005009 0.051380
vt 0.411748 0.422093
vt 0.230970 0.005125
vt 0.230967 0.051479
vt 0.015306 0.064029
vt 0.092211 0.629569
vt 0.570452 0.643030
vt 0.592603 0.416458
vt 0.220927 0.064135
vt 0.689059 0.089811
vt 0.015302 0.026406
vt 0.570726 0.680699
vt 0.092565 0.667237
vt 0.220924 0.026512
vt 0.592883 0.378799
vt 0.355097 0.994255
vt 0.689059 0.317490
vt 0.689059 0.110938
vt 0.624630 0.365526
vt 0.354753 0.929558
vt 0.624617 0.430272
vt 0.689059 0.219223
vt 0.689059 0.209205
vt 0.341792 0.994257
vt 0.634651 0.365525
vt 0.634648 0.412515
vt 0.341486 0.947259
vt 0.421765 0.357486
vt 0.121268 0.678400
vt 0.618882 0.365525
vt 0.694806 0.110939
vt 0.614714 0.368116
vt 0.115581 0.685993
vt 0.113761 0.687935
vt 0.616504 0.366219
vt 0.697187 0.111601
vt 0.618869 0.430271
vt 0.121000 0.624974
vt 0.421775 0.410846
vt 0.616492 0.430193
vt 0.614705 0.429982
vt 0.115872 0.624157
vt 0.202693 0.678400
vt 0.640403 0.365528
vt 0.694806 0.209205
vt 0.209156 0.685993
vt 0.644505 0.367988
vt 0.210771 0.687935
vt 0.697187 0.208610
vt 0.642764 0.366187
vt 0.202683 0.640270
vt 0.640400 0.412518
vt 0.209540 0.641248
vt 0.644503 0.412710
vt 0.642761 0.412570
vt 0.518207 0.411348
vt 0.118228 0.624404
vt 0.518212 0.352360
vt 0.118065 0.683362
vt 0.421797 0.352356
vt 0.206949 0.683362
vt 0.207198 0.640881
vt 0.331329 0.716866
vt 0.475024 0.411344
vt 0.475030 0.352356
vt 0.331469 0.657907
vt 0.465007 0.352375
vt 0.461062 0.410958
vt 0.677943 0.054588
vt 0.679041 0.005431
vt 0.365115 0.677549
vt 0.461069 0.361783
vt 0.496616 0.411346
vt 0.443402 0.352365
vt 0.496621 0.352358
vt 0.378901 0.677528
vt 0.447273 0.361777
vt 0.679041 0.659586
vt 0.677943 0.610441
vt 0.447266 0.410952
vt 0.326808 0.716297
vt 0.464967 0.410959
vt 0.464975 0.357505
vt 0.328268 0.662871
vt 0.443370 0.357496
vt 0.443380 0.410856
vt 0.659328 0.033640
vt 0.560432 0.394148
vt 0.546635 0.394140
vt 0.659328 0.631381
vt 0.659421 0.005009
vt 0.365115 0.657928
vt 0.560435 0.365533
vt 0.378901 0.657907
vt 0.546638 0.365525
vt 0.659420 0.660006
vt 0.005009 0.421780
vt 0.328405 0.931058
vt 0.007210 0.377343
vt 0.007266 0.352800
vt 0.536618 0.342338
vt 0.557923 0.005009
vt 0.103743 0.376897
vt 0.091980 0.352093
vt 0.570814 0.365554
vt 0.015308 0.341293
vt 0.642347 0.017154
vt 0.640402 0.701718
vt 0.649176 0.308736
vt 0.634650 0.701715
vt 0.341756 0.657907
vt 0.649310 0.302986
vt 0.279258 0.689417
vt 0.528495 0.689513
vt 0.552381 0.242225
vt 0.220819 0.689415
vt 0.353986 0.657907
vt 0.551016 0.300690
vt 0.242283 0.342045
vt 0.648809 0.244478
vt 0.230970 0.342039
vt 0.649073 0.233167
vt 0.327047 0.964636
vt 0.326947 0.989178
vt 0.465007 0.683576
vt 0.557846 0.355508
vt 0.679041 0.327466
vt 0.461103 0.683574
vt 0.557938 0.351604
vt 0.660511 0.327539
vt 0.560435 0.687764
vt 0.576463 0.352026
vt 0.618882 0.702119
vt 0.549770 0.306414
vt 0.616506 0.702121
vt 0.550335 0.308783
vt 0.475030 0.683784
vt 0.331469 0.989176
vt 0.553326 0.355402
vt 0.316790 0.657913
vt 0.300592 0.689410
vt 0.546900 0.230785
vt 0.289285 0.689409
vt 0.534242 0.689508
vt 0.546635 0.242096
vt 0.582585 0.365525
vt 0.015181 0.341928
vt 0.208234 0.352093
vt 0.644347 0.314304
vt 0.210578 0.352143
vt 0.644505 0.701593
vt 0.646733 0.312759
vt 0.496621 0.683787
vt 0.553832 0.333802
vt 0.614718 0.702128
vt 0.115856 0.352143
vt 0.552036 0.310547
vt 0.604688 0.693898
vt 0.220803 0.342034
vt 0.649310 0.223002
vt 0.592919 0.693866
vt 0.220929 0.341399
vt 0.637544 0.222731
vt 0.203717 0.352093
vt 0.639832 0.314199
vt 0.311043 0.657907
vt 0.310808 0.342331
vt 0.552646 0.230914
vt 0.642763 0.701685
vt 0.648492 0.311076
vt 0.118201 0.352093
vt 0.518212 0.683790
vt 0.554338 0.312201
vt 0.546638 0.687756
vt 0.660511 0.337556
vt 0.576786 0.338232
vt 0.355097 0.657909
vt 0.624630 0.702119
vt 0.549905 0.300664
vt 0.005015 0.341923
vt 0.300760 0.342075
vt 0.343624 0.657916
vt 0.647443 0.302942
vt 0.679041 0.337630
vt 0.447306 0.683568
vt 0.558261 0.337811
vt 0.122855 0.352093
vt 0.558991 0.312310
vt 0.122899 0.352093
vt 0.421795 0.683568
vt 0.559035 0.312311
vt 0.422132 0.683568
vt 0.559027 0.312647
vt 0.447264 0.683568
vt 0.558243 0.337768
s 0
f 9/25/1 10/27/1 6/15/1
f 3/9/2 11/29/2 9/23/2
f 15/37/3 5/14/3 27/64/3
f 7/19/4 25/60/4 27/65/4
f 6/16/5 10/26/5 12/30/5
f 10/26/5 23/56/5 24/57/5
f 14/35/6 13/31/6 19/45/6
f 9/25/7 18/42/7 19/46/7
f 11/28/8 17/41/8 18/43/8
f 13/32/1 23/55/1 10/27/1
f 2/6/1 21/50/1 23/55/1
f 14/34/2 4/12/2 2/7/2
f 17/40/9 20/48/9 19/47/9
f 5/14/10 21/52/10 22/54/10
f 5/14/11 15/37/11 23/56/11
f 15/37/12 16/38/12 24/57/12
f 28/67/12 27/64/12 25/58/12
f 16/39/13 15/36/13 28/68/13
f 3/10/14 1/1/14 29/69/14
f 8/21/14 32/80/14 31/77/14
f 6/18/15 31/75/15 29/70/15
f 29/71/16 31/76/16 42/98/16
f 31/78/17 32/79/17 46/105/17
f 37/90/18 34/83/18 36/88/18
f 39/93/19 36/88/19 35/85/19
f 40/95/20 35/86/20 50/112/20
f 50/112/21 35/86/21 43/99/21
f 35/86/22 36/87/22 44/101/22
f 36/89/23 34/84/23 42/98/23
f 51/114/24 43/99/24 47/106/24
f 43/100/25 44/103/25 48/108/25
f 44/103/26 42/97/26 46/105/26
f 29/72/27 34/83/27 37/90/27
f 56/123/4 67/144/4 65/140/4
f 57/126/28 58/128/28 54/118/28
f 59/129/29 68/147/29 67/145/29
f 41/96/15 33/82/15 50/112/15
f 41/96/15 51/114/15 52/115/15
f 27/66/30 25/59/30 71/152/30
f 62/137/15 61/134/15 53/116/15
f 63/138/31 62/136/31 54/120/31
f 33/81/31 63/138/31 58/127/31
f 49/109/28 50/111/28 58/128/28
f 38/92/32 64/139/32 63/138/32
f 56/125/33 55/121/33 61/135/33
f 56/125/34 62/136/34 63/138/34
f 59/130/35 63/138/35 64/139/35
f 68/148/36 66/142/36 65/141/36
f 59/131/13 60/132/13 66/143/13
f 32/79/37 76/163/37 75/161/37
f 11/29/38 3/9/38 78/169/38
f 12/30/37 24/57/37 80/174/37
f 81/176/4 62/137/4 61/134/4
f 55/122/4 65/140/4 84/183/4
f 37/90/39 39/93/39 86/188/39
f 53/116/15 61/134/15 82/177/15
f 20/48/38 17/40/38 89/196/38
f 25/60/15 7/19/15 90/199/15
f 52/115/40 47/106/40 92/203/40
f 53/117/41 87/190/41 93/206/41
f 39/93/42 40/94/42 94/208/42
f 61/135/43 55/121/43 83/181/43
f 26/61/13 96/214/13 95/211/13
f 45/104/15 52/115/15 91/201/15
f 20/49/6 88/193/6 98/219/6
f 47/107/44 48/108/44 99/222/44
f 17/41/8 11/28/8 77/167/8
f 2/5/45 27/63/45 21/51/45
f 40/95/46 49/110/46 100/224/46
f 48/108/47 46/105/47 75/161/47
f 71/152/15 2/8/15 4/11/15
f 57/126/41 93/206/41 100/225/41
f 65/141/43 66/142/43 101/227/43
f 30/73/14 102/230/14 78/170/14
f 4/12/38 14/34/38 98/220/38
f 7/20/48 22/54/48 103/233/48
f 8/22/37 12/30/37 79/172/37
f 30/74/38 37/90/38 85/186/38
f 60/132/13 105/237/13 101/228/13
f 24/57/37 16/38/37 95/212/37
f 32/80/14 8/21/14 104/235/14
f 26/62/49 25/58/49 74/159/49
f 38/91/15 45/104/15 107/242/15
f 64/139/50 109/247/50 105/238/50
f 106/241/51 100/226/51 109/248/51
f 107/244/51 106/241/51 108/246/51
f 9/25/1 6/15/1 1/2/1
f 3/9/2 9/23/2 1/3/2
f 15/37/3 27/64/3 28/67/3
f 7/19/4 27/65/4 5/13/4
f 6/16/5 12/30/5 8/22/5
f 10/26/5 24/57/5 12/30/5
f 14/35/6 19/45/6 20/49/6
f 9/25/7 19/46/7 13/32/7
f 11/28/8 18/43/8 9/24/8
f 13/32/1 10/27/1 9/25/1
f 2/6/1 23/55/1 13/32/1
f 14/34/2 2/7/2 13/33/2
f 17/40/9 19/47/9 18/44/9
f 5/14/52 22/54/52 7/20/52
f 5/14/11 23/56/11 21/52/11
f 15/37/53 24/57/53 23/56/53
f 28/67/12 25/58/12 26/62/12
f 16/39/13 28/68/13 26/61/13
f 3/10/14 29/69/14 30/73/14
f 8/21/14 31/77/14 6/17/14
f 6/18/15 29/70/15 1/4/15
f 29/71/16 42/98/16 34/84/16
f 31/78/17 46/105/17 42/97/17
f 37/90/54 36/88/54 39/93/54
f 39/93/55 35/85/55 40/94/55
f 40/95/56 50/112/56 49/110/56
f 50/112/21 43/99/21 51/114/21
f 35/86/22 44/101/22 43/99/22
f 36/89/23 42/98/23 44/102/23
f 51/114/57 47/106/57 52/115/57
f 43/100/58 48/108/58 47/107/58
f 44/103/59 46/105/59 48/108/59
f 29/72/27 37/90/27 30/74/27
f 56/123/4 65/140/4 55/122/4
f 57/126/28 54/118/28 53/117/28
f 59/129/29 67/145/29 56/124/29
f 41/96/15 50/112/15 51/114/15
f 41/96/15 52/115/15 45/104/15
f 27/66/60 4/11/60 2/8/60
f 4/11/15 71/152/15 69/150/15
f 71/152/61 74/157/61 72/153/61
f 74/157/62 25/59/62 73/156/62
f 25/59/63 27/66/63 21/53/63
f 27/66/64 71/152/64 4/11/64
f 71/152/65 25/59/65 74/157/65
f 62/137/66 53/116/66 54/119/66
f 63/138/31 54/120/31 58/127/31
f 33/81/31 58/127/31 50/113/31
f 49/109/28 58/128/28 57/126/28
f 38/92/32 63/138/32 33/81/32
f 56/125/67 61/135/67 62/136/67
f 56/125/34 63/138/34 59/130/34
f 59/130/68 64/139/68 60/133/68
f 68/148/36 65/141/36 67/146/36
f 59/131/13 66/143/13 68/149/13
f 32/79/37 75/161/37 46/105/37
f 11/29/38 78/169/38 77/166/38
f 12/30/37 80/174/37 79/172/37
f 62/137/4 81/176/4 70/151/4
f 81/176/4 61/134/4 82/177/4
f 55/122/4 84/183/4 83/180/4
f 37/90/69 86/188/69 85/186/69
f 53/116/15 82/177/15 87/191/15
f 20/48/38 89/196/38 88/194/38
f 25/60/4 90/199/4 74/158/4
f 52/115/70 92/203/70 91/201/70
f 53/117/41 93/206/41 57/126/41
f 39/93/71 94/208/71 86/188/71
f 61/135/43 83/181/43 82/178/43
f 26/61/13 95/211/13 16/39/13
f 45/104/15 91/201/15 97/217/15
f 20/49/6 98/219/6 14/35/6
f 47/107/44 99/222/44 92/204/44
f 17/41/8 77/167/8 89/197/8
f 40/95/72 100/224/72 94/209/72
f 48/108/73 75/161/73 99/222/73
f 2/8/15 71/152/15 69/150/15
f 71/152/15 4/11/15 72/153/15
f 57/126/41 100/225/41 49/109/41
f 65/141/43 101/227/43 84/184/43
f 30/73/14 78/170/14 3/10/14
f 4/12/38 98/220/38 72/154/38
f 7/20/48 103/233/48 90/200/48
f 8/22/37 79/172/37 104/234/37
f 30/74/38 85/186/38 102/231/38
f 60/132/13 101/228/13 66/143/13
f 24/57/37 95/212/37 80/174/37
f 32/80/14 104/235/14 76/164/14
f 26/62/49 74/159/49 96/215/49
f 45/104/15 33/82/15 41/96/15
f 38/91/15 106/240/15 49/110/15
f 45/104/15 38/91/15 33/82/15
f 107/242/15 45/104/15 97/217/15
f 38/91/15 107/242/15 106/240/15
f 109/247/74 107/243/74 108/245/74
f 107/243/75 64/139/75 38/92/75
f 64/139/76 105/238/76 60/133/76
f 109/247/77 64/139/77 107/243/77
f 85/187/51 78/171/51 102/232/51
f 77/168/51 88/195/51 89/198/51
f 86/189/51 78/171/51 85/187/51
f 77/168/51 98/221/51 88/195/51
f 94/210/51 78/171/51 86/189/51
f 77/168/78 72/155/78 98/221/78
f 94/210/79 77/168/79 78/171/79
f 100/226/51 77/168/51 94/210/51
f 77/168/51 74/160/51 72/155/51
f 96/216/51 80/175/51 95/213/51
f 77/168/51 96/216/51 74/160/51
f 100/226/51 96/216/51 77/168/51
f 96/216/51 79/173/51 80/175/51
f 104/236/51 75/162/51 76/165/51
f 96/216/51 104/236/51 79/173/51
f 82/179/51 93/207/51 87/192/51
f 101/229/51 83/182/51 84/185/51
f 83/182/51 93/207/51 82/179/51
f 100/226/51 104/236/51 96/216/51
f 104/236/51 99/223/51 75/162/51
f 99/223/51 91/202/51 92/205/51
f 99/223/51 97/218/51 91/202/51
f 100/226/51 99/223/51 104/236/51
f 83/182/51 100/226/51 93/207/51
f 105/239/51 83/182/51 101/229/51
f 106/241/51 109/248/51 108/246/51
f 109/248/51 83/182/51 105/239/51
f 100/226/51 97/218/51 99/223/51
f 100/226/51 107/244/51 97/218/51
f 109/248/51 100/226/51 83/182/51
f 100/226/1 106/241/1 107/244/1
