# Blender 3.3.1
# www.blender.org
o klapptisch
v -1.453720 4.298936 3.753929
v 0.328819 4.061189 0.420897
v -1.453720 4.298936 -3.471751
v 0.328819 4.061189 -0.138717
v 1.971081 4.298936 2.906074
v 1.123226 4.298936 3.753929
v 1.857490 4.298936 3.330001
v 1.547154 4.298936 3.640338
v 0.851427 4.061189 0.420897
v 0.910304 4.061189 0.401883
v 0.891850 4.061189 0.417399
v 0.899473 4.061189 0.414937
v 1.123226 4.298936 -3.471751
v 1.971081 4.298936 -2.623896
v 1.547154 4.298936 -3.358160
v 1.857490 4.298936 -3.047824
v 0.910304 4.061189 -0.119702
v 0.851428 4.061189 -0.138717
v 0.899473 4.061189 -0.132757
v 0.891851 4.061189 -0.135219
v -1.453720 4.061189 3.753929
v -1.453720 4.061189 -3.471751
v 1.857490 4.061189 -3.047824
v 1.971081 4.061189 -2.623896
v 1.547154 4.061189 -3.358160
v 1.123226 4.061189 -3.471751
v 1.547154 4.061189 3.640338
v 1.123226 4.061189 3.753929
v 1.857490 4.061189 3.330001
v 1.971081 4.061189 2.906074
v 0.389651 4.286469 0.420897
v 0.389651 4.286469 -0.138717
v 0.882741 3.999227 -0.132757
v 0.892100 3.993775 -0.119702
v 0.876155 4.003064 -0.135219
v 0.841226 4.023411 -0.138717
v 0.876155 4.003064 0.417399
v 0.841226 4.023411 0.420897
v 0.882741 3.999227 0.414937
v 0.892100 3.993775 0.401883
v -2.259498 -0.261160 0.420897
v -2.259498 -0.261160 -0.138717
v -1.766408 -0.548402 -0.132757
v -1.757049 -0.553854 -0.119703
v -1.772994 -0.544565 -0.135219
v -1.807923 -0.524218 -0.138717
v -1.772994 -0.544565 0.417399
v -1.807923 -0.524218 0.420897
v -1.766408 -0.548402 0.414937
v -1.757049 -0.553854 0.401883
vn -1.0000 -0.0000 -0.0000
vn -0.0000 -0.0000 1.0000
vn 0.3063 -0.0827 -0.9483
vn 1.0000 -0.0000 -0.0000
vn -0.0000 -0.0000 -1.0000
vn 0.9659 -0.0000 -0.2588
vn 0.7071 -0.0000 -0.7071
vn 0.2588 -0.0000 -0.9659
vn 0.2588 -0.0000 0.9659
vn 0.7071 -0.0000 0.7071
vn 0.9659 -0.0000 0.2588
vn -0.0000 1.0000 -0.0000
vn -0.0000 -1.0000 -0.0000
vn 0.6650 -0.3874 0.6385
vn 0.7535 -0.2035 0.6252
vn 0.0862 -0.0233 -0.9960
vn 0.9654 -0.2607 -0.0000
vn 0.0862 -0.0233 0.9960
vn 0.7535 -0.2035 -0.6252
vn 0.3063 -0.0827 0.9483
vn -0.5034 -0.8641 -0.0000
vn 0.0745 -0.0434 -0.9963
vn -0.8641 0.5034 -0.0000
vn 0.8641 -0.5034 -0.0000
vn 0.0745 -0.0434 0.9963
vn 0.6650 -0.3874 -0.6385
vn 0.2656 -0.1547 0.9516
vn 0.2656 -0.1547 -0.9516
vn -0.5033 -0.8641 -0.0000
vn -0.5034 -0.8641 0.0001
vt 0.939926 0.704317
vt 0.816239 0.505397
vt 0.336150 0.704317
vt 0.740746 0.528808
vt 0.503877 0.327261
vt 0.718229 0.649111
vt 0.686394 0.852162
vt 0.939926 0.004411
vt 0.336150 0.004411
vt 0.503877 0.381467
vt 0.740831 0.591836
vt 0.740746 0.583014
vt 0.970982 0.045474
vt 0.004411 0.622190
vt 0.815023 0.753046
vt 0.086537 0.704317
vt 0.816239 0.828750
vt 0.972919 0.004411
vt 0.015414 0.663253
vt 0.815242 0.795164
vt 0.045474 0.693314
vt 0.453310 0.327261
vt 0.692049 0.006755
vt 0.731453 0.697563
vt 0.447613 0.329103
vt 0.879317 0.489961
vt 0.449398 0.327600
vt 0.688650 0.004787
vt 0.687987 0.004411
vt 0.448661 0.327838
vt 0.878052 0.489776
vt 0.685178 0.604513
vt 0.086538 0.004411
vt 0.970982 0.581127
vt 0.004411 0.086538
vt 0.685397 0.562396
vt 0.045474 0.015414
vt 0.972919 0.622190
vt 0.686394 0.528809
vt 0.015414 0.045474
vt 0.447613 0.379625
vt 0.929839 0.489961
vt 0.799329 0.006754
vt 0.453310 0.381467
vt 0.727607 0.640288
vt 0.931104 0.489776
vt 0.803391 0.004411
vt 0.448661 0.380890
vt 0.449398 0.381128
vt 0.802728 0.004787
vt 0.962159 0.704317
vt 0.839252 0.505399
vt 0.676355 0.004411
vt 0.962159 0.004411
vt 0.709406 0.852161
vt 0.676355 0.704317
vt 0.709406 0.528808
vt 0.995589 0.622190
vt 0.355963 0.663253
vt 0.993650 0.581127
vt 0.344972 0.622190
vt 0.708408 0.562394
vt 0.385991 0.693314
vt 0.708190 0.604511
vt 0.427011 0.704317
vt 0.838254 0.795165
vt 0.385991 0.015414
vt 0.838036 0.753048
vt 0.427011 0.004411
vt 0.995589 0.004411
vt 0.839252 0.828752
vt 0.355963 0.045475
vt 0.993650 0.045474
vt 0.344972 0.086538
vt 0.718228 0.528808
vt 0.740831 0.649111
vt 0.869230 0.496574
vt 0.741278 0.010224
vt 0.718229 0.591836
vt 0.718228 0.583014
vt 0.815023 0.496574
vt 0.750100 0.010224
vt 0.931104 0.483583
vt 0.804999 0.010417
vt 0.929839 0.483222
vt 0.806201 0.010383
vt 0.804236 0.010421
vt 0.731397 0.640288
vt 0.800310 0.010416
vt 0.687142 0.010421
vt 0.727663 0.697563
vt 0.691069 0.010416
vt 0.878052 0.483583
vt 0.686380 0.010417
vt 0.685178 0.010383
vt 0.879317 0.483222
vt 0.869230 0.004411
vt 0.004411 0.767345
vt 0.741278 0.519788
vt 0.750100 0.519788
vt 0.004411 0.713139
vt 0.815023 0.004411
vt 0.053410 0.713716
vt 0.804999 0.519981
vt 0.054340 0.714981
vt 0.929839 0.004411
vt 0.806201 0.519948
vt 0.052756 0.713478
vt 0.804236 0.519985
vt 0.049285 0.713139
vt 0.800310 0.519980
vt 0.052756 0.767007
vt 0.687142 0.519985
vt 0.049285 0.767345
vt 0.691069 0.519980
vt 0.053410 0.766768
vt 0.686380 0.519981
vt 0.685178 0.519948
vt 0.054340 0.765504
vt 0.879317 0.004411
s 0
f 3/8/1 21/51/1 1/1/1
f 1/2/2 28/68/2 6/15/2
f 20/50/3 33/84/3 35/87/3
f 5/13/4 24/60/4 14/34/4
f 13/32/5 22/55/5 3/7/5
f 23/58/6 14/34/6 24/60/6
f 25/62/7 16/39/7 23/57/7
f 26/64/8 15/36/8 25/62/8
f 27/66/9 6/15/9 28/68/9
f 29/71/10 8/20/10 27/66/10
f 30/73/11 7/18/11 29/70/11
f 8/21/12 16/40/12 13/33/12
f 4/10/13 21/53/13 22/56/13
f 19/48/13 24/61/13 17/41/13
f 20/49/13 23/59/13 19/48/13
f 18/44/13 25/63/13 20/49/13
f 9/22/13 27/67/13 28/69/13
f 11/27/13 29/72/13 27/67/13
f 12/30/13 30/74/13 29/72/13
f 17/41/13 30/74/13 10/25/13
f 2/5/13 28/69/13 21/53/13
f 4/10/13 26/65/13 18/44/13
f 40/95/14 49/117/14 50/118/14
f 4/11/2 36/88/2 32/79/2
f 10/26/15 39/93/15 40/96/15
f 20/50/16 36/89/16 18/43/16
f 4/12/17 31/75/17 2/4/17
f 10/26/17 34/85/17 17/42/17
f 11/28/18 38/92/18 37/90/18
f 17/42/19 33/83/19 19/46/19
f 9/24/2 31/76/2 38/91/2
f 11/28/20 39/94/20 12/29/20
f 47/112/21 46/110/21 43/103/21
f 36/89/22 45/109/22 46/111/22
f 31/77/23 42/102/23 41/97/23
f 40/96/24 44/106/24 34/85/24
f 37/90/25 48/115/25 47/113/25
f 33/84/26 44/107/26 43/104/26
f 31/78/2 48/115/2 38/92/2
f 37/90/27 49/117/27 39/94/27
f 35/87/28 43/104/28 45/109/28
f 32/82/5 46/111/5 42/100/5
f 3/8/1 22/54/1 21/51/1
f 1/2/2 21/52/2 28/68/2
f 20/50/3 19/47/3 33/84/3
f 5/13/4 30/73/4 24/60/4
f 13/32/5 26/64/5 22/55/5
f 23/58/6 16/38/6 14/34/6
f 25/62/7 15/36/7 16/39/7
f 26/64/8 13/32/8 15/36/8
f 27/66/9 8/20/9 6/15/9
f 29/71/10 7/17/10 8/20/10
f 30/73/11 5/13/11 7/18/11
f 13/33/12 3/9/12 1/3/12
f 1/3/12 6/16/12 8/21/12
f 8/21/12 7/19/12 5/14/12
f 5/14/12 14/35/12 16/40/12
f 16/40/12 15/37/12 13/33/12
f 13/33/12 1/3/12 8/21/12
f 8/21/12 5/14/12 16/40/12
f 4/10/13 2/5/13 21/53/13
f 19/48/13 23/59/13 24/61/13
f 20/49/13 25/63/13 23/59/13
f 18/44/13 26/65/13 25/63/13
f 9/22/13 11/27/13 27/67/13
f 11/27/13 12/30/13 29/72/13
f 12/30/13 10/25/13 30/74/13
f 17/41/13 24/61/13 30/74/13
f 2/5/13 9/22/13 28/69/13
f 4/10/13 22/56/13 26/65/13
f 40/95/14 39/94/14 49/117/14
f 4/11/5 18/45/5 36/88/5
f 10/26/15 12/31/15 39/93/15
f 20/50/16 35/87/16 36/89/16
f 4/12/17 32/80/17 31/75/17
f 10/26/17 40/96/17 34/85/17
f 11/28/18 9/23/18 38/92/18
f 17/42/19 34/85/19 33/83/19
f 9/24/5 2/6/5 31/76/5
f 11/28/20 37/90/20 39/94/20
f 43/103/29 44/105/29 50/119/29
f 50/119/29 49/116/29 47/112/29
f 47/112/30 48/114/30 41/98/30
f 41/98/21 42/101/21 46/110/21
f 46/110/30 45/108/30 43/103/30
f 43/103/29 50/119/29 47/112/29
f 47/112/21 41/98/21 46/110/21
f 36/89/22 35/87/22 45/109/22
f 31/77/23 32/81/23 42/102/23
f 40/96/24 50/120/24 44/106/24
f 37/90/25 38/92/25 48/115/25
f 33/84/26 34/86/26 44/107/26
f 31/78/2 41/99/2 48/115/2
f 37/90/27 47/113/27 49/117/27
f 35/87/28 33/84/28 43/104/28
f 32/82/5 36/89/5 46/111/5
