# Blender 3.3.1
# www.blender.org
o traiteur.001
v 27.477211 4.174713 2.134378
v 27.477211 0.003105 2.134378
v 21.868069 4.174713 2.088287
v 21.868069 0.003105 2.088287
v 26.722799 0.146505 -2.243829
v 27.477211 4.174713 -2.213801
v 23.457321 4.174713 -2.235790
v 27.477211 3.349872 2.134378
v 27.477211 3.349872 -2.213801
v 21.868069 3.349872 2.088287
v 23.457321 3.349872 -2.235790
v 27.477211 3.190285 2.134378
v 21.868069 3.190285 2.088287
v 27.477211 0.003105 -2.213801
v 27.477211 3.190285 -2.213801
v 23.457321 3.190285 -2.235790
v 25.569036 0.146549 -1.710283
v 27.414259 4.174713 2.157968
v 21.804430 4.174713 2.138661
v 27.414259 4.174713 -2.297019
v 23.339279 4.174713 -2.320725
v 26.588104 4.335960 1.787962
v 27.414297 4.255846 2.157969
v 27.190638 4.313374 2.045576
v 27.354378 4.289060 2.127854
v 21.804468 4.255846 2.138662
v 21.956736 4.335946 1.799870
v 21.811375 4.289060 2.110105
v 21.830212 4.313373 2.032086
v 26.588104 4.335954 -1.903494
v 27.414297 4.255846 -2.297019
v 27.190638 4.313374 -2.196711
v 27.354378 4.289060 -2.270141
v 23.282722 4.335945 -1.903220
v 23.339315 4.255846 -2.320724
v 23.311823 4.313374 -2.214304
v 23.331957 4.289060 -2.292208
v 21.907274 4.335944 1.925510
v 26.966955 4.335946 1.933182
v 26.966955 4.335946 -2.096405
v 23.335649 4.335946 -2.107885
v 4.228586 0.003105 2.205318
v 0.102833 4.174713 2.088292
v 0.102833 0.003105 2.088292
v 0.208694 4.174713 -2.284816
v 0.102833 3.349872 2.088292
v 0.208694 3.349872 -2.284816
v 0.102833 3.190285 2.088292
v 0.208694 0.003105 -2.284816
v 0.208694 3.190285 -2.284816
v 0.088340 4.174713 2.138665
v 0.207716 4.174713 -2.369751
v 0.084827 4.255846 2.138667
v 0.096660 4.289060 2.110592
v 0.091447 4.313373 2.031608
v 0.207754 4.255846 -2.369750
v 0.202510 4.313374 -2.263331
v 0.203819 4.289060 -2.341235
v 0.090694 4.335944 1.925514
v 0.207509 4.335946 -2.156912
v 0.088066 4.335944 1.711161
vn 1.0000 -0.0000 -0.0000
vn -0.0082 -0.0000 1.0000
vn 0.0055 -0.0000 -1.0000
vn -0.0003 -0.9993 -0.0380
vn -0.0000 -1.0000 -0.0000
vn -0.0000 1.0000 -0.0000
vn 1.0000 -0.0005 -0.0000
vn 0.0058 -0.0000 -1.0000
vn -0.0026 0.6692 0.7431
vn -0.0009 0.9585 0.2851
vn -0.0005 0.9802 0.1979
vn 0.1004 0.9949 -0.0000
vn 0.1469 0.9892 -0.0000
vn 0.4848 0.8746 -0.0000
vn 0.0010 0.9761 -0.2174
vn 0.0017 0.9504 -0.3109
vn 0.0045 0.6339 -0.7734
vn -0.0034 -0.0000 1.0000
vn 0.0054 -0.9999 0.0117
vn 0.0021 -0.0000 -1.0000
vn -0.0000 -0.0000 1.0000
vn -0.0000 0.6519 0.7583
vn 0.0004 0.9782 -0.2075
vn -0.0000 0.9547 0.2975
vn 0.0006 0.9546 -0.2978
vn -0.0750 -0.9972 -0.0000
vn -0.0000 0.9783 0.2072
vn 0.0016 0.6516 -0.7586
vn -0.1615 -0.9230 -0.3493
vn -0.9949 0.0856 0.0538
vn 0.0057 -1.0000 0.0001
vn 0.0026 -0.0036 -1.0000
vn -0.9987 -0.0417 0.0306
vn -0.9889 -0.1466 -0.0239
vn -0.9997 -0.0000 -0.0242
vn 0.0009 -0.9995 -0.0317
vn 0.0003 -0.9993 -0.0374
vn -0.0024 0.6522 0.7580
vn -0.0007 0.9548 0.2974
vn -0.0003 0.9783 0.2070
vn 0.0007 0.9782 -0.2076
vn 0.0013 0.9547 -0.2976
vn 0.0042 0.6519 -0.7583
vn -0.0000 0.6456 0.7637
vn 0.0004 0.9782 -0.2076
vn -0.0000 0.9557 0.2942
vn -0.0000 1.0000 0.0005
vn 0.0006 0.9546 -0.2979
vn -0.0000 0.9781 0.2081
vn 0.0016 0.6515 -0.7586
vn -0.0000 1.0000 0.0001
vn -0.9066 -0.3316 -0.2608
vn -0.8453 -0.5238 -0.1054
vn -0.9034 -0.0391 -0.4270
vn -0.9998 -0.0165 0.0115
vn -0.9905 0.0005 -0.1373
vn -0.8333 -0.5315 0.1519
vn -0.9994 0.0171 -0.0309
vn -0.9980 -0.0628 0.0122
vt 0.981436 0.994855
vt 0.784750 0.503631
vt 0.004377 0.004301
vt 0.026712 0.600779
vt 0.472944 0.503631
vt 0.784750 0.963994
vt 0.462178 0.004301
vt 0.992072 0.495750
vt 0.004301 0.105230
vt 0.980530 0.894028
vt 0.473802 0.604459
vt 0.993063 0.395049
vt 0.462102 0.105231
vt 0.567341 0.517955
vt 0.035314 0.524647
vt 0.878280 0.503631
vt 0.470865 0.494953
vt 0.965743 0.992715
vt 0.026712 0.507248
vt 0.965495 0.920455
vt 0.470897 0.422621
vt 0.094897 0.004301
vt 0.784750 0.594657
vt 0.561291 0.494968
vt 0.878280 0.594657
vt 0.094820 0.105231
vt 0.561323 0.422636
vt 0.784750 0.612269
vt 0.112411 0.004301
vt 0.112334 0.105231
vt 0.878280 0.963994
vt 0.566463 0.503689
vt 0.043243 0.543785
vt 0.928191 0.495030
vt 0.878280 0.612269
vt 0.578786 0.494971
vt 0.578818 0.422639
vt 0.043243 0.505458
vt 0.555838 0.538688
vt 0.981945 0.993724
vt 0.025582 0.601286
vt 0.016981 0.601286
vt 0.955073 0.004304
vt 0.981615 0.892884
vt 0.955034 0.105244
vt 0.025582 0.505458
vt 0.016981 0.505458
vt 0.963957 0.991579
vt 0.963715 0.004301
vt 0.963675 0.077625
vt 0.963675 0.918329
vt 0.688858 0.979383
vt 0.946170 0.004301
vt 0.008027 0.601286
vt 0.939568 0.008331
vt 0.683316 0.990367
vt 0.681546 0.993487
vt 0.942448 0.005380
vt 0.004301 0.600638
vt 0.946130 0.105241
vt 0.688601 0.896237
vt 0.942412 0.105118
vt 0.939543 0.104784
vt 0.768262 0.979383
vt 0.972609 0.004302
vt 0.008027 0.505458
vt 0.774569 0.990367
vt 0.979193 0.008318
vt 0.776148 0.993487
vt 0.004301 0.506036
vt 0.976325 0.005378
vt 0.768256 0.920042
vt 0.972569 0.077626
vt 0.979169 0.078112
vt 0.976289 0.077756
vt 0.936792 0.103404
vt 0.685899 0.895349
vt 0.936802 0.012364
vt 0.685734 0.986184
vt 0.981945 0.012334
vt 0.772411 0.986184
vt 0.981936 0.077674
vt 0.772658 0.920992
vt 0.470865 0.921535
vt 0.990546 0.078370
vt 0.004463 0.496857
vt 0.980861 0.502787
vt 0.671854 0.521455
vt 0.993063 0.004301
vt 0.473284 0.995699
vt 0.462264 0.496857
vt 0.671865 0.982548
vt 0.470865 0.004301
vt 0.965743 0.502549
vt 0.577769 0.521455
vt 0.094982 0.496857
vt 0.671856 0.612626
vt 0.561291 0.004316
vt 0.577771 0.612626
vt 0.112496 0.496857
vt 0.671857 0.630265
vt 0.567341 0.993855
vt 0.928191 0.004377
vt 0.577780 0.982548
vt 0.578786 0.004319
vt 0.577771 0.630265
vt 0.981945 0.502527
vt 0.955073 0.495986
vt 0.672944 0.521453
vt 0.963684 0.493838
vt 0.963916 0.502527
vt 0.575943 0.521455
vt 0.946170 0.496047
vt 0.672945 0.512485
vt 0.942453 0.495835
vt 0.672336 0.508815
vt 0.939582 0.495933
vt 0.670640 0.506127
vt 0.972579 0.493840
vt 0.575943 0.512487
vt 0.979178 0.493925
vt 0.578233 0.506128
vt 0.976298 0.493909
vt 0.576557 0.508815
vt 0.685898 0.503678
vt 0.936832 0.495954
vt 0.668359 0.503632
vt 0.981945 0.493826
vt 0.773712 0.505775
vt 0.580519 0.503634
vt 0.690509 0.503631
vt 0.663750 0.503631
s 0
f 8/23/1 9/25/1 6/16/1
f 3/9/2 10/26/2 8/22/2
f 6/17/3 9/24/3 11/27/3
f 9/24/3 15/36/3 16/37/3
f 17/39/4 4/11/4 42/84/4
f 12/28/1 15/35/1 9/25/1
f 2/6/1 14/31/1 15/35/1
f 13/30/2 4/13/2 2/7/2
f 3/10/5 1/1/5 18/40/5
f 7/20/5 21/51/5 20/48/5
f 6/19/6 20/46/6 18/41/6
f 18/42/7 20/47/7 31/66/7
f 20/49/8 21/50/8 35/73/8
f 26/60/9 23/53/9 25/58/9
f 28/62/10 25/58/10 24/55/10
f 29/63/11 24/55/11 39/78/11
f 39/79/12 24/56/12 32/67/12
f 24/56/13 25/57/13 33/69/13
f 25/59/14 23/54/14 31/66/14
f 40/80/15 32/68/15 36/74/15
f 32/68/16 33/71/16 37/75/16
f 33/71/17 31/65/17 35/73/17
f 18/43/18 23/53/18 26/60/18
f 30/64/6 22/52/6 39/79/6
f 30/64/6 40/81/6 41/83/6
f 49/102/19 5/14/19 17/39/19
f 12/29/2 8/22/2 10/26/2
f 21/50/20 52/110/20 56/119/20
f 10/26/21 3/9/21 43/86/21
f 11/27/20 16/37/20 50/105/20
f 26/60/22 28/62/22 54/115/22
f 36/74/23 57/121/23 60/128/23
f 28/62/24 29/63/24 55/117/24
f 61/131/6 22/52/6 34/72/6
f 48/100/21 13/30/21 10/26/21
f 36/74/25 37/75/25 58/123/25
f 2/5/26 17/39/26 14/32/26
f 29/63/27 38/76/27 59/126/27
f 37/75/28 35/73/28 56/119/28
f 4/12/6 44/89/6 42/85/6
f 19/44/5 51/107/5 43/87/5
f 4/13/21 13/30/21 48/100/21
f 7/21/20 11/27/20 47/98/20
f 26/60/21 53/113/21 51/108/21
f 22/52/6 27/61/6 38/77/6
f 5/15/29 14/33/29 17/38/29
f 21/51/5 7/20/5 45/94/5
f 38/77/6 61/131/6 59/125/6
f 59/127/30 51/109/30 54/116/30
f 44/90/31 49/102/31 17/39/31
f 16/37/32 14/34/32 49/103/32
f 52/112/33 60/130/33 58/124/33
f 61/132/34 45/95/34 43/88/34
f 50/106/35 46/97/35 45/95/35
f 8/23/1 6/16/1 1/2/1
f 3/9/2 8/22/2 1/3/2
f 6/17/3 11/27/3 7/21/3
f 9/24/3 16/37/3 11/27/3
f 17/39/36 42/84/36 44/90/36
f 4/11/37 17/39/37 2/5/37
f 12/28/1 9/25/1 8/23/1
f 2/6/1 15/35/1 12/28/1
f 13/30/2 2/7/2 12/29/2
f 3/10/5 18/40/5 19/44/5
f 7/20/5 20/48/5 6/18/5
f 6/19/6 18/41/6 1/4/6
f 18/42/7 31/66/7 23/54/7
f 20/49/8 35/73/8 31/65/8
f 26/60/38 25/58/38 28/62/38
f 28/62/39 24/55/39 29/63/39
f 29/63/40 39/78/40 38/76/40
f 39/79/12 32/67/12 40/81/12
f 24/56/13 33/69/13 32/67/13
f 25/59/14 31/66/14 33/70/14
f 40/80/41 36/74/41 41/82/41
f 32/68/42 37/75/42 36/74/42
f 33/71/43 35/73/43 37/75/43
f 18/43/18 26/60/18 19/45/18
f 30/64/6 39/79/6 40/81/6
f 30/64/6 41/83/6 34/72/6
f 12/29/2 10/26/2 13/30/2
f 21/50/20 56/119/20 35/73/20
f 10/26/21 43/86/21 46/96/21
f 11/27/20 50/105/20 47/98/20
f 26/60/44 54/115/44 53/113/44
f 36/74/45 60/128/45 41/82/45
f 28/62/46 55/117/46 54/115/46
f 27/61/6 61/131/6 38/77/6
f 61/131/6 41/83/6 60/129/6
f 34/72/6 22/52/6 30/64/6
f 61/131/6 34/72/6 41/83/6
f 22/52/47 61/131/47 27/61/47
f 48/100/21 10/26/21 46/96/21
f 36/74/48 58/123/48 57/121/48
f 29/63/49 59/126/49 55/117/49
f 37/75/50 56/119/50 58/123/50
f 4/12/6 42/85/6 2/8/6
f 19/44/5 43/87/5 3/10/5
f 4/13/21 48/100/21 44/91/21
f 7/21/20 47/98/20 45/93/20
f 26/60/21 51/108/21 19/45/21
f 22/52/51 38/77/51 39/79/51
f 21/51/5 45/94/5 52/111/5
f 51/109/52 59/127/52 43/88/52
f 59/127/53 54/116/53 55/118/53
f 54/116/54 51/109/54 53/114/54
f 14/34/3 16/37/3 15/36/3
f 16/37/20 49/103/20 50/105/20
f 60/130/55 52/112/55 45/95/55
f 52/112/56 58/124/56 56/120/56
f 58/124/57 60/130/57 57/122/57
f 45/95/58 61/132/58 60/130/58
f 61/132/59 43/88/59 59/127/59
f 48/101/35 49/104/35 44/92/35
f 50/106/5 45/95/5 47/99/5
f 48/101/35 50/106/35 49/104/35
f 45/95/35 46/97/35 43/88/35
f 46/97/35 50/106/35 48/101/35
