# Blender 3.3.1
# www.blender.org
o freezer
v -0.088709 0.025203 1.816631
v -0.088709 12.100587 1.816631
v -0.088709 0.025203 -1.816637
v -0.088709 12.100587 -1.816637
v 8.656390 0.025203 1.816631
v 8.656390 12.100587 1.816631
v 8.656390 0.025203 -1.816637
v 8.656390 12.100587 -1.816637
v 4.283841 0.025203 -1.816637
v 4.283841 12.100587 -1.816637
v 4.283841 0.025203 1.816631
v 4.283841 12.100587 1.816631
v 5.380801 5.551957 -2.139946
v 4.346983 0.088345 -1.879563
v 4.757691 0.499053 -2.105062
v 4.527041 0.268403 -2.009755
v 4.346983 12.037444 -1.879563
v 5.380801 6.573833 -2.139946
v 4.527041 11.857386 -2.009755
v 4.757691 11.626736 -2.105062
v 8.593247 12.037444 -1.879563
v 5.540303 6.573833 -2.139946
v 8.413189 11.857386 -2.009755
v 8.182539 11.626736 -2.105062
v 5.540303 5.551957 -2.139946
v 8.593247 0.088345 -1.879563
v 8.182539 0.499053 -2.105062
v 8.413189 0.268404 -2.009755
v 3.027380 5.551957 -2.139946
v -0.025566 0.088345 -1.879564
v 0.385142 0.499053 -2.105062
v 0.154492 0.268403 -2.009755
v -0.025566 12.037444 -1.879563
v 3.027380 6.573833 -2.139946
v 0.154492 11.857386 -2.009755
v 0.385142 11.626736 -2.105062
v 4.220698 12.037444 -1.879563
v 3.186882 6.573833 -2.139946
v 4.040640 11.857386 -2.009755
v 3.809990 11.626736 -2.105062
v 3.186882 5.551957 -2.139946
v 4.220698 0.088345 -1.879564
v 3.809990 0.499053 -2.105062
v 4.040640 0.268403 -2.009755
v 4.977130 11.407297 -2.139946
v 4.977130 0.718492 -2.139946
v 7.963100 0.718492 -2.139946
v 7.963100 11.407297 -2.139946
v 0.604581 11.407297 -2.139946
v 0.604581 0.718492 -2.139946
v 3.590551 0.718492 -2.139946
v 3.590551 11.407297 -2.139946
v 5.380801 6.573833 -2.358068
v 5.380801 5.551957 -2.358068
v 5.540303 5.551957 -2.358068
v 5.540303 6.573833 -2.358068
v 3.027380 6.573833 -2.358068
v 3.027380 5.551957 -2.358068
v 3.186882 5.551957 -2.358068
v 3.186882 6.573833 -2.358068
vn -1.0000 -0.0000 -0.0000
vn -0.0000 -0.7059 -0.7083
vn 1.0000 -0.0000 -0.0000
vn -0.0000 -0.0000 1.0000
vn -0.0000 -1.0000 -0.0000
vn -0.0000 1.0000 -0.0000
vn 0.7059 -0.0000 -0.7083
vn -0.7059 -0.0000 -0.7083
vn -0.0000 0.7059 -0.7083
vn -0.1570 -0.0000 -0.9876
vn -0.3819 -0.0000 -0.9242
vn -0.5859 -0.0000 -0.8104
vn -0.0000 -0.5859 -0.8104
vn -0.0000 -0.3819 -0.9242
vn -0.0000 -0.1570 -0.9876
vn -0.0000 0.5859 -0.8104
vn -0.0000 0.3819 -0.9242
vn -0.0000 0.1570 -0.9876
vn 0.5859 -0.0000 -0.8104
vn 0.3819 -0.0000 -0.9242
vn 0.1570 -0.0000 -0.9876
vn -0.0000 -0.0000 -1.0000
vt 0.150441 0.500000
vt 0.000000 0.000000
vt 0.300882 0.500000
vt 0.150441 1.000000
vt 0.000000 0.500000
vt 0.150441 0.862104
vt 0.451323 0.500000
vt 0.000000 0.500000
vt 0.724209 0.000000
vt 0.000000 1.000000
vt 0.300882 0.862104
vt 0.724209 0.500000
vt 0.362104 0.000000
vt 0.724209 0.000000
vt 0.300882 0.862104
vt 0.724209 0.500000
vt 0.150441 0.500000
vt 0.362104 0.500000
vt 0.874650 0.000000
vt 0.451323 0.862104
vt 0.362104 0.000000
vt 0.300882 0.500000
vt 0.874650 0.500000
vt 0.362104 0.500000
vt 0.451323 0.681052
vt 0.543157 0.000000
vt 0.300882 0.681052
vt 0.543157 0.500000
vt 0.300882 0.681052
vt 0.181052 0.000000
vt 0.150441 0.681052
vt 0.181052 0.500000
vt 0.478418 0.500000
vt 0.497735 0.228844
vt 0.507263 0.518064
vt 0.540543 0.002615
vt 0.523536 0.019621
vt 0.533087 0.010070
vt 0.540542 0.497385
vt 0.513867 0.509032
vt 0.497735 0.271156
vt 0.478418 0.542312
vt 0.533087 0.489930
vt 0.523536 0.480379
vt 0.364719 0.497385
vt 0.478418 0.542312
vt 0.491131 0.271156
vt 0.507263 0.509032
vt 0.372174 0.489930
vt 0.381725 0.480379
vt 0.513867 0.518064
vt 0.491131 0.228844
vt 0.478418 0.500000
vt 0.364719 0.002615
vt 0.381725 0.019621
vt 0.372174 0.010070
vt 0.460355 0.500000
vt 0.500659 0.509032
vt 0.595182 0.228844
vt 0.721594 0.002615
vt 0.704588 0.019621
vt 0.714139 0.010070
vt 0.721594 0.497385
vt 0.507263 0.518064
vt 0.595182 0.271156
vt 0.460355 0.542312
vt 0.714139 0.489930
vt 0.704588 0.480379
vt 0.545771 0.497385
vt 0.460355 0.542312
vt 0.588578 0.271156
vt 0.500659 0.518064
vt 0.553226 0.489930
vt 0.562778 0.480379
vt 0.507263 0.509032
vt 0.460355 0.500000
vt 0.588578 0.228844
vt 0.545772 0.002615
vt 0.562778 0.019621
vt 0.553226 0.010070
vt 0.514450 0.471293
vt 0.514450 0.028707
vt 0.390811 0.028707
vt 0.390811 0.471293
vt 0.695502 0.471293
vt 0.695502 0.028707
vt 0.571863 0.028707
vt 0.571863 0.471293
vt 0.494054 0.542312
vt 0.513867 0.500000
vt 0.469387 0.542312
vt 0.494054 0.500000
vt 0.507263 0.509032
vt 0.469387 0.500000
vt 0.487450 0.500000
vt 0.513867 0.509032
vt 0.487450 0.542312
vt 0.507263 0.500000
vt 0.500659 0.542312
vt 0.507263 0.509032
vt 0.451323 0.542312
vt 0.500659 0.500000
vt 0.451323 0.500000
vt 0.507263 0.500000
vt 0.469387 0.500000
vt 0.494055 0.500000
vt 0.469387 0.542312
vt 0.494055 0.542312
vt 0.500659 0.509032
s 0
f 2/4/1 3/8/1 1/1/1
f 7/21/2 14/36/2 26/54/2
f 8/23/3 5/14/3 7/19/3
f 12/32/4 1/2/4 11/30/4
f 7/20/5 11/29/5 9/25/5
f 4/11/6 12/31/6 10/27/6
f 10/27/6 6/17/6 8/22/6
f 9/25/5 1/3/5 3/7/5
f 6/18/4 11/30/4 5/13/4
f 3/9/2 42/78/2 9/26/2
f 29/58/5 59/104/5 41/75/5
f 7/21/7 21/45/7 8/24/7
f 4/12/8 30/60/8 3/9/8
f 8/24/9 17/39/9 10/28/9
f 41/76/3 60/107/3 38/70/3
f 9/26/7 37/69/7 10/28/7
f 10/28/9 33/63/9 4/12/9
f 46/82/10 20/44/10 45/81/10
f 15/37/11 19/43/11 20/44/11
f 19/43/12 14/36/12 17/39/12
f 14/36/13 28/56/13 26/54/13
f 16/38/14 27/55/14 28/56/14
f 27/55/15 46/82/15 47/83/15
f 17/39/16 23/49/16 19/43/16
f 23/49/17 20/44/17 19/43/17
f 24/50/18 45/81/18 20/44/18
f 26/54/19 23/49/19 21/45/19
f 23/49/20 27/55/20 24/50/20
f 27/55/21 48/84/21 24/50/21
f 50/86/10 36/68/10 49/85/10
f 31/61/11 35/67/11 36/68/11
f 35/67/12 30/60/12 33/63/12
f 30/60/13 44/80/13 42/78/13
f 32/62/14 43/79/14 44/80/14
f 43/79/15 50/86/15 51/87/15
f 37/69/16 35/67/16 33/63/16
f 39/73/17 36/68/17 35/67/17
f 40/74/18 49/85/18 36/68/18
f 42/78/19 39/73/19 37/69/19
f 44/80/20 40/74/20 39/73/20
f 40/74/21 51/87/21 52/88/21
f 10/28/8 14/36/8 9/26/8
f 13/34/22 45/81/22 18/41/22
f 25/52/22 46/82/22 13/34/22
f 22/47/22 45/81/22 48/84/22
f 22/47/22 47/83/22 25/52/22
f 29/59/22 49/85/22 34/65/22
f 29/59/22 51/87/22 50/86/22
f 34/65/22 52/88/22 38/71/22
f 38/71/22 51/87/22 41/77/22
f 53/89/22 55/95/22 54/92/22
f 57/99/22 59/106/22 58/102/22
f 25/53/3 56/97/3 22/46/3
f 13/35/5 55/96/5 25/51/5
f 38/72/6 57/100/6 34/64/6
f 34/66/1 58/103/1 29/57/1
f 22/48/6 53/90/6 18/40/6
f 18/42/1 54/94/1 13/33/1
f 2/4/1 4/10/1 3/8/1
f 7/21/2 9/26/2 14/36/2
f 8/23/3 6/16/3 5/14/3
f 12/32/4 2/5/4 1/2/4
f 7/20/5 5/15/5 11/29/5
f 4/11/6 2/6/6 12/31/6
f 10/27/6 12/31/6 6/17/6
f 9/25/5 11/29/5 1/3/5
f 6/18/4 12/32/4 11/30/4
f 3/9/2 30/60/2 42/78/2
f 29/58/5 58/102/5 59/104/5
f 7/21/7 26/54/7 21/45/7
f 4/12/8 33/63/8 30/60/8
f 8/24/9 21/45/9 17/39/9
f 41/76/3 59/105/3 60/107/3
f 9/26/7 42/78/7 37/69/7
f 10/28/9 37/69/9 33/63/9
f 46/82/10 15/37/10 20/44/10
f 15/37/11 16/38/11 19/43/11
f 19/43/12 16/38/12 14/36/12
f 14/36/13 16/38/13 28/56/13
f 16/38/14 15/37/14 27/55/14
f 27/55/15 15/37/15 46/82/15
f 17/39/16 21/45/16 23/49/16
f 23/49/17 24/50/17 20/44/17
f 24/50/18 48/84/18 45/81/18
f 26/54/19 28/56/19 23/49/19
f 23/49/20 28/56/20 27/55/20
f 27/55/21 47/83/21 48/84/21
f 50/86/10 31/61/10 36/68/10
f 31/61/11 32/62/11 35/67/11
f 35/67/12 32/62/12 30/60/12
f 30/60/13 32/62/13 44/80/13
f 32/62/14 31/61/14 43/79/14
f 43/79/15 31/61/15 50/86/15
f 37/69/16 39/73/16 35/67/16
f 39/73/17 40/74/17 36/68/17
f 40/74/18 52/88/18 49/85/18
f 42/78/19 44/80/19 39/73/19
f 44/80/20 43/79/20 40/74/20
f 40/74/21 43/79/21 51/87/21
f 10/28/8 17/39/8 14/36/8
f 13/34/22 46/82/22 45/81/22
f 25/52/22 47/83/22 46/82/22
f 22/47/22 18/41/22 45/81/22
f 22/47/22 48/84/22 47/83/22
f 29/59/22 50/86/22 49/85/22
f 29/59/22 41/77/22 51/87/22
f 34/65/22 49/85/22 52/88/22
f 38/71/22 52/88/22 51/87/22
f 53/89/22 56/97/22 55/95/22
f 57/99/22 60/108/22 59/106/22
f 25/53/3 55/95/3 56/97/3
f 13/35/5 54/93/5 55/96/5
f 38/72/6 60/109/6 57/100/6
f 34/66/1 57/101/1 58/103/1
f 22/48/6 56/98/6 53/90/6
f 18/42/1 53/91/1 54/94/1
