# Blender 3.3.1
# www.blender.org
o west_wall_kitchen
v 0.012564 0.044207 2.012564
v 0.012564 14.742915 2.012564
v 0.012564 0.044207 0.012564
v 0.012564 14.742915 0.012564
v 2.012564 0.044207 2.012564
v 2.012564 14.742915 2.012564
v 2.012564 0.044207 0.012564
v 2.012564 14.742915 0.012564
v -17.997360 0.044207 0.012564
v -17.997360 0.044207 2.012564
v -17.997360 14.742915 2.012564
v -17.997360 14.742915 0.012564
v 0.012564 14.742915 -11.815253
v 0.012564 0.044207 -11.815253
v 2.012564 0.044207 -11.815253
v 2.012564 14.742915 -11.815253
v 2.012564 14.742915 -9.133961
v 0.012564 14.742915 -9.133961
v 0.012564 0.044207 -9.133961
v 2.012564 0.044207 -9.133961
v 13.790133 14.742915 -11.815253
v 13.790133 0.044207 -11.815253
v 13.790133 14.742915 -9.133961
v 13.790133 0.044207 -9.133961
v 13.790133 14.742915 -2.331850
v 13.790133 0.044207 -2.331850
vn -0.0000 -0.0000 -1.0000
vn -0.0000 1.0000 -0.0000
vn -0.0000 -1.0000 -0.0000
vn -1.0000 -0.0000 -0.0000
vn 1.0000 -0.0000 -0.0000
vt 0.295429 0.313726
vt 0.026788 0.397057
vt 0.784681 0.693575
vt 0.843708 0.004215
vt 0.329800 0.336298
vt 0.541498 0.004215
vt 0.061159 0.374485
vt 0.784681 0.995785
vt 0.272856 0.348097
vt 0.004215 0.362686
vt 0.307227 0.370669
vt 0.038586 0.340113
vt 0.843708 0.374505
vt 0.833199 0.382935
vt 0.533068 0.026787
vt 0.874320 0.382935
vt 0.498697 0.004215
vt 0.874320 0.685145
vt 0.230056 0.706568
vt 0.541498 0.374505
vt 0.833199 0.685145
vt 0.264427 0.683994
vt 0.264427 0.240990
vt 0.824769 0.685145
vt 0.541498 0.995785
vt 0.824769 0.382935
vt 0.541498 0.693575
vt 0.533068 0.469792
vt 0.783648 0.382935
vt 0.510495 0.504164
vt 0.241854 0.206619
vt 0.783648 0.685145
vt 0.195774 0.236881
vt 0.596626 0.995785
vt 0.218347 0.271252
vt 0.486989 0.439530
vt 0.596626 0.693575
vt 0.464416 0.473902
vt 0.988094 0.995785
vt 0.541498 0.685145
vt 0.108927 0.004215
vt 0.377568 0.706568
vt 0.988094 0.693575
vt 0.541498 0.382935
vt 0.062848 0.034477
vt 0.932965 0.995785
vt 0.331489 0.676306
vt 0.932965 0.693575
vt 0.793112 0.995785
vt 0.793112 0.693575
s 0
f 3/4/1 12/20/1 4/6/1
f 17/33/2 13/23/2 18/35/2
f 7/11/3 1/1/3 3/5/3
f 4/7/2 6/10/2 8/12/2
f 11/18/4 9/14/4 10/16/4
f 4/7/2 11/19/2 2/2/2
f 1/1/3 9/15/3 3/5/3
f 13/24/1 15/29/1 14/26/1
f 18/34/4 14/27/4 19/37/4
f 15/30/3 24/47/3 20/38/3
f 19/36/3 15/30/3 20/38/3
f 3/5/3 20/38/3 7/11/3
f 4/8/4 19/37/4 3/3/4
f 8/12/2 18/35/2 4/7/2
f 24/48/5 21/39/5 23/46/5
f 16/32/1 22/44/1 15/29/1
f 17/33/2 21/41/2 16/31/2
f 23/46/5 26/50/5 24/48/5
f 3/4/1 9/13/1 12/20/1
f 17/33/2 16/31/2 13/23/2
f 7/11/3 5/9/3 1/1/3
f 4/7/2 2/2/2 6/10/2
f 11/18/4 12/21/4 9/14/4
f 4/7/2 12/22/2 11/19/2
f 1/1/3 10/17/3 9/15/3
f 13/24/1 16/32/1 15/29/1
f 18/34/4 13/25/4 14/27/4
f 15/30/3 22/42/3 24/47/3
f 19/36/3 14/28/3 15/30/3
f 3/5/3 19/36/3 20/38/3
f 4/8/4 18/34/4 19/37/4
f 8/12/2 17/33/2 18/35/2
f 24/48/5 22/43/5 21/39/5
f 16/32/1 21/40/1 22/44/1
f 17/33/2 23/45/2 21/41/2
f 23/46/5 25/49/5 26/50/5
