# Blender 3.3.1
# www.blender.org
o west_wall_essbereich
v -1.000000 0.012564 1.000000
v -1.000000 14.706966 1.000000
v -1.000000 0.012564 -1.000000
v -1.000000 14.706966 -1.000000
v 31.615164 0.012564 1.000000
v 31.615164 14.706966 1.000000
v 31.615164 0.012564 -1.000000
v 31.615164 14.706966 -1.000000
v 15.307581 0.012564 -1.000000
v 15.307583 14.706966 -1.000000
v 15.307583 0.012564 1.000000
v 15.307581 14.706966 1.000000
v 17.151962 4.713492 -1.000000
v 17.151964 12.843403 -1.000000
v 27.138424 12.843403 -1.000000
v 27.138424 4.713492 -1.000000
v 3.476741 4.713492 -1.000000
v 3.476741 12.843403 -1.000000
v 13.463202 12.843403 -1.000000
v 13.463201 4.713492 -1.000000
v 17.151964 12.843403 -0.163809
v 17.151962 4.713492 -0.163809
v 27.138424 4.713492 -0.163809
v 27.138424 12.843403 -0.163809
v 3.476741 12.843403 -0.163809
v 3.476741 4.713492 -0.163809
v 13.463201 4.713492 -0.163809
v 13.463202 12.843403 -0.163809
v 17.151964 12.843403 0.545352
v 17.151962 4.713492 0.545352
v 27.138424 4.713492 0.545352
v 27.138424 12.843403 0.545352
v 3.476741 12.843403 0.545352
v 3.476741 4.713492 0.545352
v 13.463201 4.713492 0.545352
v 13.463202 12.843403 0.545352
vn -1.0000 -0.0000 -0.0000
vn 1.0000 -0.0000 -0.0000
vn -0.0000 -0.0000 -1.0000
vn -0.0000 -1.0000 -0.0000
vn -0.0000 1.0000 -0.0000
vt 0.897215 0.005683
vt 0.698368 0.005683
vt 0.897215 0.437003
vt 0.768439 0.963024
vt 0.757073 0.005683
vt 0.838510 0.005683
vt 0.437003 0.963024
vt 0.838510 0.437003
vt 0.827144 0.963024
vt 0.005683 0.963024
vt 0.838510 0.448368
vt 0.698368 0.963025
vt 0.838510 0.879688
vt 0.768439 0.005682
vt 0.897215 0.448368
vt 0.757073 0.963025
vt 0.437003 0.005682
vt 0.827144 0.005682
vt 0.897215 0.879688
vt 0.005683 0.005682
vt 0.757073 0.484354
vt 0.437003 0.484354
vt 0.827144 0.484354
vt 0.005683 0.484354
vt 0.698368 0.484354
vt 0.768439 0.484354
vt 0.953941 0.255682
vt 0.299018 0.430216
vt 0.550454 0.907803
vt 0.663905 0.614672
vt 0.060383 0.430216
vt 0.953941 0.494318
vt 0.908580 0.244318
vt 0.060383 0.137087
vt 0.663905 0.907803
vt 0.550454 0.614672
vt 0.908580 0.005682
vt 0.299018 0.137087
vt 0.953941 0.755682
vt 0.607180 0.907802
vt 0.299018 0.831621
vt 0.493728 0.614672
vt 0.060383 0.831621
vt 0.953941 0.994318
vt 0.908580 0.744318
vt 0.060383 0.538492
vt 0.493728 0.907802
vt 0.607180 0.614673
vt 0.299018 0.538492
vt 0.908580 0.505682
vt 0.687003 0.310177
vt 0.639361 0.614672
vt 0.929396 0.494318
vt 0.448368 0.310177
vt 0.929396 0.255682
vt 0.525909 0.907803
vt 0.448368 0.603308
vt 0.525909 0.614672
vt 0.933125 0.005682
vt 0.687003 0.603308
vt 0.933125 0.244318
vt 0.639361 0.907803
vt 0.448368 0.298812
vt 0.469184 0.614672
vt 0.929396 0.994318
vt 0.687002 0.298812
vt 0.929396 0.755682
vt 0.582635 0.907802
vt 0.687002 0.005683
vt 0.582635 0.614673
vt 0.933125 0.505682
vt 0.448368 0.005683
vt 0.933125 0.744318
vt 0.469184 0.907802
vt 0.618545 0.614672
vt 0.908580 0.494318
vt 0.908580 0.255682
vt 0.505094 0.907803
vt 0.953941 0.005682
vt 0.505094 0.614672
vt 0.618545 0.907803
vt 0.953941 0.244318
vt 0.908580 0.994318
vt 0.448368 0.614672
vt 0.908580 0.755682
vt 0.561819 0.907802
vt 0.953941 0.505682
vt 0.561819 0.614673
vt 0.953941 0.744318
vt 0.448368 0.907802
s 0
f 2/3/1 3/6/1 1/1/1
f 16/37/1 24/61/1 15/33/1
f 8/19/2 5/11/2 7/15/2
f 27/69/3 25/63/3 28/72/3
f 7/16/4 11/25/4 9/21/4
f 4/9/5 12/26/5 10/23/5
f 10/23/5 6/14/5 8/18/5
f 9/21/4 1/2/4 3/5/4
f 23/57/3 21/51/3 24/60/3
f 17/40/5 27/70/5 20/48/5
f 10/24/3 13/28/3 9/22/3
f 10/24/3 15/34/3 14/31/3
f 8/20/3 16/38/3 15/34/3
f 9/22/3 16/38/3 7/17/3
f 4/10/3 17/41/3 3/7/3
f 10/24/3 18/43/3 4/10/3
f 10/24/3 20/49/3 19/46/3
f 9/22/3 17/41/3 20/49/3
f 24/62/4 29/75/4 21/52/4
f 25/65/2 34/85/2 26/67/2
f 13/29/5 23/58/5 16/36/5
f 19/47/4 25/64/4 18/42/4
f 18/44/2 26/67/2 17/39/2
f 15/35/4 21/52/4 14/30/4
f 20/50/1 28/73/1 19/45/1
f 14/32/2 22/55/2 13/27/2
f 21/53/2 30/77/2 22/55/2
f 27/71/1 36/89/1 28/73/1
f 26/68/5 35/88/5 27/70/5
f 23/59/1 32/82/1 24/61/1
f 22/56/5 31/80/5 23/58/5
f 28/74/4 33/84/4 25/64/4
f 2/3/1 4/8/1 3/6/1
f 16/37/1 23/59/1 24/61/1
f 8/19/2 6/13/2 5/11/2
f 27/69/3 26/66/3 25/63/3
f 7/16/4 5/12/4 11/25/4
f 4/9/5 2/4/5 12/26/5
f 10/23/5 12/26/5 6/14/5
f 9/21/4 11/25/4 1/2/4
f 23/57/3 22/54/3 21/51/3
f 17/40/5 26/68/5 27/70/5
f 10/24/3 14/31/3 13/28/3
f 10/24/3 8/20/3 15/34/3
f 8/20/3 7/17/3 16/38/3
f 9/22/3 13/28/3 16/38/3
f 4/10/3 18/43/3 17/41/3
f 10/24/3 19/46/3 18/43/3
f 10/24/3 9/22/3 20/49/3
f 9/22/3 3/7/3 17/41/3
f 24/62/4 32/81/4 29/75/4
f 25/65/2 33/83/2 34/85/2
f 13/29/5 22/56/5 23/58/5
f 19/47/4 28/74/4 25/64/4
f 18/44/2 25/65/2 26/67/2
f 15/35/4 24/62/4 21/52/4
f 20/50/1 27/71/1 28/73/1
f 14/32/2 21/53/2 22/55/2
f 21/53/2 29/76/2 30/77/2
f 27/71/1 35/87/1 36/89/1
f 26/68/5 34/86/5 35/88/5
f 23/59/1 31/79/1 32/82/1
f 22/56/5 30/78/5 31/80/5
f 28/74/4 36/90/4 33/84/4
