# Blender 3.3.1
# www.blender.org
o west_wall_traiteur
v -1.000000 0.002439 1.000000
v -1.000000 14.654024 1.000000
v -1.000000 0.002439 -1.000000
v -1.000000 14.654024 -1.000000
v 39.512257 0.002439 1.000000
v 39.512257 14.654024 1.000000
v 39.512257 0.002439 -1.000000
v 39.512257 14.654024 -1.000000
vn -1.0000 -0.0000 -0.0000
vn -0.0000 -0.0000 -1.0000
vn 1.0000 -0.0000 -0.0000
vn -0.0000 -1.0000 -0.0000
vn -0.0000 1.0000 -0.0000
vt 0.579719 0.002612
vt 0.367605 0.002612
vt 0.579719 0.362381
vt 0.421940 0.997387
vt 0.362381 0.997387
vt 0.416715 0.002612
vt 0.530609 0.002612
vt 0.530609 0.362381
vt 0.002612 0.997387
vt 0.471050 0.997387
vt 0.476274 0.002612
vt 0.367605 0.997388
vt 0.476274 0.362381
vt 0.421940 0.002613
vt 0.525384 0.002612
vt 0.362381 0.002613
vt 0.416715 0.997388
vt 0.471050 0.002613
vt 0.002612 0.002613
vt 0.525384 0.362381
s 0
f 2/3/1 3/7/1 1/1/1
f 4/9/2 7/16/2 3/5/2
f 8/20/3 5/11/3 7/15/3
f 7/17/4 1/2/4 3/6/4
f 4/10/5 6/14/5 8/18/5
f 2/3/1 4/8/1 3/7/1
f 4/9/2 8/19/2 7/16/2
f 8/20/3 6/13/3 5/11/3
f 7/17/4 5/12/4 1/2/4
f 4/10/5 2/4/5 6/14/5
