# Blender 3.3.1
# www.blender.org
o west_wall_arbeitsbereich
v -1.949279 0.002017 1.975648
v -1.949279 14.731151 1.975648
v -1.949279 0.002017 -0.024352
v -1.949279 14.731151 -0.024352
v 0.050721 0.002017 1.975648
v 0.050721 14.731151 1.975648
v 0.050721 0.002017 -0.024352
v 0.050721 14.731151 -0.024352
v 16.514103 14.731151 -0.024352
v 16.514103 0.002017 -0.024352
v 16.514103 0.002017 1.975648
v 16.514103 14.731151 1.975648
vn -1.0000 -0.0000 -0.0000
vn -0.0000 -0.0000 -1.0000
vn -0.0000 1.0000 -0.0000
vn -0.0000 -1.0000 -0.0000
vn 1.0000 -0.0000 -0.0000
vt 0.996641 0.003359
vt 0.813131 0.788396
vt 0.996641 0.629621
vt 0.721376 0.003359
vt 0.003359 0.003359
vt 0.728094 0.788396
vt 0.911604 0.003359
vt 0.911604 0.629621
vt 0.629621 0.003359
vt 0.636339 0.003359
vt 0.813131 0.703359
vt 0.721376 0.088396
vt 0.003359 0.088396
vt 0.728094 0.703359
vt 0.636339 0.088396
vt 0.629621 0.088396
vt 0.636339 0.788396
vt 0.904886 0.629621
vt 0.629621 0.788396
vt 0.904886 0.003359
vt 0.003359 0.788396
vt 0.728094 0.003359
vt 0.819849 0.003359
vt 0.813131 0.003359
vt 0.721376 0.788396
vt 0.819849 0.629621
s 0
f 2/3/1 3/7/1 1/1/1
f 4/9/2 7/13/2 3/5/2
f 6/12/3 9/17/3 8/15/3
f 7/14/4 1/2/4 3/6/4
f 4/10/3 6/12/3 8/15/3
f 9/18/5 11/23/5 10/20/5
f 8/16/2 10/21/2 7/13/2
f 7/14/4 11/24/4 5/11/4
f 2/3/1 4/8/1 3/7/1
f 4/9/2 8/16/2 7/13/2
f 6/12/3 12/25/3 9/17/3
f 7/14/4 5/11/4 1/2/4
f 4/10/3 2/4/3 6/12/3
f 9/18/5 12/26/5 11/23/5
f 8/16/2 9/19/2 10/21/2
f 7/14/4 10/22/4 11/24/4
