# Blender 3.3.1
# www.blender.org
o arbeitsplatte2
v 0.002002 0.012549 2.986751
v 0.002002 4.175505 2.986751
v 0.002002 0.012549 -2.648314
v 0.002002 4.175505 -2.648314
v 6.392525 0.012549 2.986751
v 6.392525 4.175505 2.986751
v 6.392525 4.175505 -2.648314
v 0.002002 3.924547 2.986751
v 0.002002 3.924547 -2.648314
v 6.392525 3.924547 2.986751
v 0.002002 4.175505 -2.791337
v 6.392525 4.175505 -2.791337
v 0.002002 3.924547 -2.791337
v 6.392525 3.924547 -2.791337
v 3.197263 4.175505 -2.648314
v 3.197263 0.012549 2.986751
v 3.197263 4.175505 2.986751
v 3.197263 3.924547 2.986751
v 3.197263 4.175505 -2.791337
v 3.197263 3.924547 -2.791337
v 6.392525 3.924547 -2.648314
v 6.392525 0.012549 -2.648314
v 3.197263 3.924547 -2.648314
v 3.197263 0.012549 -2.648314
v 6.297446 0.107628 -2.715601
v 3.983657 1.514992 -2.799075
v 6.219111 0.185963 -2.757338
v 6.123048 0.282026 -2.787892
v 3.983657 2.422103 -2.799075
v 6.297446 3.829467 -2.715601
v 6.123048 3.655069 -2.787892
v 6.219111 3.751133 -2.757338
v 3.292343 0.107628 -2.715601
v 3.793282 1.514992 -2.799075
v 3.370677 0.185963 -2.757338
v 3.466741 0.282026 -2.787892
v 3.793282 2.422103 -2.799075
v 3.292343 3.829467 -2.715601
v 3.466741 3.655069 -2.787892
v 3.370677 3.751133 -2.757338
v 6.034996 0.370078 -2.799075
v 6.034996 3.567017 -2.799075
v 3.554793 3.567017 -2.799075
v 3.554793 0.370079 -2.799075
v 3.983657 1.514992 -2.976247
v 3.983657 2.422103 -2.976247
v 3.793282 2.422103 -2.976247
v 3.793282 1.514992 -2.976247
v 0.002002 1.968548 -2.648314
v 6.392525 1.968548 -2.648314
v 6.392525 1.968548 2.986751
v 0.002002 1.968548 2.986751
v 3.197263 1.968548 -2.648314
v 3.197263 1.968548 2.986751
v 6.297446 1.968548 -2.715601
v 6.219111 1.968548 -2.757338
v 6.123048 1.968548 -2.787892
v 6.034996 1.968548 -2.799075
v 3.554793 1.968548 -2.799075
v 3.466741 1.968548 -2.787892
v 3.370677 1.968548 -2.757338
v 3.292343 1.968548 -2.715601
v 3.983657 1.968548 -2.799075
v 3.793282 1.968548 -2.799075
v 3.983657 1.968548 -2.976247
v 3.793282 1.968548 -2.976247
v 0.140398 2.106944 -2.648314
v 0.140398 3.786150 -2.648314
v 3.058867 3.786150 -2.648314
v 3.058867 2.106944 -2.648314
v 0.140398 0.150945 -2.648314
v 0.140398 1.830152 -2.648314
v 3.058867 1.830152 -2.648314
v 3.058867 0.150945 -2.648314
vn -1.0000 -0.0000 -0.0000
vn -0.0000 -1.0000 -0.0000
vn 1.0000 -0.0000 -0.0000
vn -0.0000 -0.0000 1.0000
vn -0.0000 1.0000 -0.0000
vn -0.0000 -0.5777 -0.8163
vn -0.0000 -0.0000 -1.0000
vn -0.5777 -0.0000 -0.8163
vn -0.0000 0.5777 -0.8163
vn 0.4702 -0.0000 -0.8825
vn 0.3031 -0.0000 -0.9530
vn 0.1260 -0.0000 -0.9920
vn -0.0000 0.4702 -0.8825
vn -0.0000 0.3031 -0.9530
vn -0.0000 0.1260 -0.9920
vn -0.0000 -0.4702 -0.8825
vn -0.0000 -0.3031 -0.9530
vn -0.0000 -0.1260 -0.9920
vn -0.1260 -0.0000 -0.9920
vn -0.3031 -0.0000 -0.9530
vn -0.4702 -0.0000 -0.8825
vn 0.5777 -0.0000 -0.8163
vt 0.995521 0.365467
vt 0.726479 0.403729
vt 0.004480 0.811939
vt 0.735439 0.365467
vt 0.264562 0.811939
vt 0.365468 0.004480
vt 0.374427 0.403729
vt 0.995521 0.013415
vt 0.273521 0.412689
vt 0.013415 0.004480
vt 0.735439 0.013415
vt 0.004480 0.412689
vt 0.726479 0.004480
vt 0.786965 0.412689
vt 0.526884 0.412689
vt 0.365468 0.403730
vt 0.264562 0.412689
vt 0.526884 0.764741
vt 0.013415 0.403730
vt 0.248883 0.811939
vt 0.751117 0.365467
vt 0.829498 0.811939
vt 0.751117 0.013415
vt 0.517924 0.412689
vt 0.542562 0.412689
vt 0.248883 0.412689
vt 0.735439 0.004480
vt 0.004480 0.004480
vt 0.811604 0.412689
vt 0.811604 0.811939
vt 0.004480 0.403730
vt 0.526884 0.773677
vt 0.795925 0.412689
vt 0.820563 0.811939
vt 0.751117 0.004480
vt 0.795925 0.811939
vt 0.542562 0.773677
vt 0.820563 0.412689
vt 0.013415 0.204105
vt 0.726479 0.204104
vt 0.004480 0.612314
vt 0.365468 0.204105
vt 0.264562 0.612314
vt 0.248883 0.612314
vt 0.004480 0.204105
vt 0.811604 0.612314
vt 0.795925 0.612314
vt 0.820563 0.612314
vt 0.829498 0.412689
vt 0.542562 0.764741
vt 0.517924 0.811939
vt 0.786965 0.764741
vt 0.374427 0.004480
vt 0.273521 0.811939
vt 0.829498 0.612314
vt 0.517924 0.612314
vt 0.374427 0.204104
vt 0.273521 0.612314
vt 0.279461 0.805999
vt 0.755467 0.386320
vt 0.567765 0.782636
vt 0.367387 0.661444
vt 0.284355 0.801105
vt 0.290357 0.795103
vt 0.567765 0.839308
vt 0.424059 0.661444
vt 0.735438 0.374427
vt 0.511984 0.805999
vt 0.501089 0.795103
vt 0.507090 0.801105
vt 0.279461 0.618254
vt 0.558805 0.782636
vt 0.755467 0.374427
vt 0.367387 0.649550
vt 0.284355 0.623148
vt 0.290357 0.629149
vt 0.735438 0.386320
vt 0.558805 0.839308
vt 0.424059 0.649550
vt 0.511984 0.618254
vt 0.501089 0.629149
vt 0.507090 0.623148
vt 0.295858 0.789602
vt 0.495587 0.789602
vt 0.495587 0.634651
vt 0.295858 0.634651
vt 0.766535 0.386320
vt 0.578834 0.782636
vt 0.526884 0.782636
vt 0.526884 0.839308
vt 0.746507 0.374427
vt 0.578834 0.839308
vt 0.538777 0.839308
vt 0.547737 0.839308
vt 0.746507 0.386320
vt 0.538777 0.782636
vt 0.766535 0.374427
vt 0.547737 0.782636
vt 0.873319 0.013415
vt 0.395723 0.412689
vt 0.395723 0.811939
vt 0.664764 0.764741
vt 0.126681 0.412689
vt 0.664764 0.412689
vt 0.873319 0.365467
vt 0.126681 0.811939
vt 0.395723 0.612314
vt 0.126681 0.612314
vt 0.395723 0.805999
vt 0.395723 0.801105
vt 0.395723 0.795103
vt 0.395723 0.789602
vt 0.395723 0.634651
vt 0.395723 0.629149
vt 0.395723 0.623148
vt 0.395723 0.618254
vt 0.567765 0.810972
vt 0.395723 0.661444
vt 0.558805 0.810972
vt 0.395723 0.649550
vt 0.578834 0.810972
vt 0.526884 0.810972
vt 0.547737 0.810972
vt 0.538777 0.810972
vt 0.404369 0.421335
vt 0.509278 0.421335
vt 0.509278 0.603667
vt 0.404369 0.603667
vt 0.282167 0.421335
vt 0.387076 0.421335
vt 0.387076 0.603667
vt 0.282167 0.603667
s 0
f 2/4/1 9/23/1 8/21/1
f 9/22/2 20/48/2 23/55/2
f 7/18/3 10/25/3 21/50/3
f 17/43/4 8/20/4 18/44/4
f 22/53/2 16/40/2 24/57/2
f 4/10/5 17/42/5 15/39/5
f 18/44/4 52/106/4 54/108/4
f 21/50/3 51/104/3 50/102/3
f 33/71/6 22/54/6 24/58/6
f 8/21/1 49/99/1 52/105/1
f 19/46/7 14/36/7 20/47/7
f 7/19/5 19/45/5 15/39/5
f 21/50/3 12/32/3 7/18/3
f 4/11/1 13/35/1 9/23/1
f 15/39/5 11/28/5 4/10/5
f 11/29/7 20/47/7 13/33/7
f 10/26/4 54/108/4 51/103/4
f 15/39/5 6/16/5 7/19/5
f 24/57/2 1/2/2 3/7/2
f 6/17/4 18/44/4 10/26/4
f 23/55/2 14/38/2 21/49/2
f 34/73/2 45/87/2 26/60/2
f 33/71/8 53/107/8 62/116/8
f 38/80/9 21/51/9 30/68/9
f 55/109/10 27/63/10 56/110/10
f 56/110/11 28/64/11 57/111/11
f 57/111/12 41/83/12 58/112/12
f 30/68/13 40/82/13 38/80/13
f 32/70/14 39/81/14 40/82/14
f 31/69/15 43/85/15 39/81/15
f 33/71/16 27/63/16 25/59/16
f 35/75/17 28/64/17 27/63/17
f 36/76/18 41/83/18 28/64/18
f 44/86/19 60/114/19 59/113/19
f 36/76/20 61/115/20 60/114/20
f 35/75/21 62/116/21 61/115/21
f 30/68/22 50/101/22 55/109/22
f 29/66/7 58/112/7 63/118/7
f 29/66/7 43/85/7 42/84/7
f 26/62/7 44/86/7 34/74/7
f 34/74/7 59/113/7 64/120/7
f 66/124/7 46/90/7 65/122/7
f 26/61/3 65/121/3 63/117/3
f 37/78/1 66/123/1 64/119/1
f 29/67/5 47/95/5 37/77/5
f 64/119/1 48/98/1 34/72/1
f 63/117/3 46/92/3 29/65/3
f 66/124/7 45/89/7 48/96/7
f 37/79/7 59/113/7 43/85/7
f 26/62/7 58/112/7 41/83/7
f 25/59/22 50/101/22 22/54/22
f 40/82/21 62/116/21 38/80/21
f 39/81/20 61/115/20 40/82/20
f 43/85/19 60/114/19 39/81/19
f 57/111/12 42/84/12 31/69/12
f 56/110/11 31/69/11 32/70/11
f 55/109/10 32/70/10 30/68/10
f 38/80/8 53/107/8 23/56/8
f 51/103/4 16/41/4 5/12/4
f 52/105/1 3/8/1 1/1/1
f 50/102/3 5/14/3 22/52/3
f 54/108/4 1/3/4 16/41/4
f 9/24/7 67/125/7 49/100/7
f 23/56/7 68/126/7 9/24/7
f 53/107/7 69/127/7 23/56/7
f 49/100/7 70/128/7 53/107/7
f 49/100/7 71/129/7 3/9/7
f 53/107/7 72/130/7 49/100/7
f 24/58/7 73/131/7 53/107/7
f 3/9/7 74/132/7 24/58/7
f 72/130/7 74/132/7 71/129/7
f 68/126/7 70/128/7 67/125/7
f 2/4/1 4/11/1 9/23/1
f 9/22/2 13/34/2 20/48/2
f 7/18/3 6/15/3 10/25/3
f 17/43/4 2/5/4 8/20/4
f 22/53/2 5/13/2 16/40/2
f 4/10/5 2/6/5 17/42/5
f 18/44/4 8/20/4 52/106/4
f 21/50/3 10/25/3 51/104/3
f 33/71/6 25/59/6 22/54/6
f 8/21/1 9/23/1 49/99/1
f 19/46/7 12/30/7 14/36/7
f 7/19/5 12/31/5 19/45/5
f 21/50/3 14/37/3 12/32/3
f 4/11/1 11/27/1 13/35/1
f 15/39/5 19/45/5 11/28/5
f 11/29/7 19/46/7 20/47/7
f 10/26/4 18/44/4 54/108/4
f 15/39/5 17/42/5 6/16/5
f 24/57/2 16/40/2 1/2/2
f 6/17/4 17/43/4 18/44/4
f 23/55/2 20/48/2 14/38/2
f 34/73/2 48/97/2 45/87/2
f 33/71/8 24/58/8 53/107/8
f 38/80/9 23/56/9 21/51/9
f 55/109/10 25/59/10 27/63/10
f 56/110/11 27/63/11 28/64/11
f 57/111/12 28/64/12 41/83/12
f 30/68/13 32/70/13 40/82/13
f 32/70/14 31/69/14 39/81/14
f 31/69/15 42/84/15 43/85/15
f 33/71/16 35/75/16 27/63/16
f 35/75/17 36/76/17 28/64/17
f 36/76/18 44/86/18 41/83/18
f 44/86/19 36/76/19 60/114/19
f 36/76/20 35/75/20 61/115/20
f 35/75/21 33/71/21 62/116/21
f 30/68/22 21/51/22 50/101/22
f 29/66/7 42/84/7 58/112/7
f 29/66/7 37/79/7 43/85/7
f 26/62/7 41/83/7 44/86/7
f 34/74/7 44/86/7 59/113/7
f 66/124/7 47/93/7 46/90/7
f 26/61/3 45/88/3 65/121/3
f 37/78/1 47/94/1 66/123/1
f 29/67/5 46/91/5 47/95/5
f 64/119/1 66/123/1 48/98/1
f 63/117/3 65/121/3 46/92/3
f 66/124/7 65/122/7 45/89/7
f 37/79/7 64/120/7 59/113/7
f 26/62/7 63/118/7 58/112/7
f 25/59/22 55/109/22 50/101/22
f 40/82/21 61/115/21 62/116/21
f 39/81/20 60/114/20 61/115/20
f 43/85/19 59/113/19 60/114/19
f 57/111/12 58/112/12 42/84/12
f 56/110/11 57/111/11 31/69/11
f 55/109/10 56/110/10 32/70/10
f 38/80/8 62/116/8 53/107/8
f 51/103/4 54/108/4 16/41/4
f 52/105/1 49/99/1 3/8/1
f 50/102/3 51/104/3 5/14/3
f 54/108/4 52/106/4 1/3/4
f 9/24/7 68/126/7 67/125/7
f 23/56/7 69/127/7 68/126/7
f 53/107/7 70/128/7 69/127/7
f 49/100/7 67/125/7 70/128/7
f 49/100/7 72/130/7 71/129/7
f 53/107/7 73/131/7 72/130/7
f 24/58/7 74/132/7 73/131/7
f 3/9/7 71/129/7 74/132/7
f 72/130/7 73/131/7 74/132/7
f 68/126/7 69/127/7 70/128/7
