# Blender 3.3.1
# www.blender.org
o arbeitsschrank_oben
v 0.140398 3.786150 1.093013
v 0.140398 2.106944 1.093013
v 3.058867 2.106944 1.093013
v 3.058867 3.786150 1.093013
v 0.250807 3.786150 -2.526669
v 2.948458 3.786150 -2.526669
v 2.948458 3.786150 0.982604
v 0.250807 3.786150 0.982604
v 0.250807 2.209339 -2.526669
v 2.948458 2.209339 -2.526669
v 0.250807 2.209339 0.982604
v 2.948458 2.209339 0.982604
v 0.140398 3.786150 -2.637078
v 0.140398 2.106944 -2.637078
v 3.058867 2.106944 -2.637078
v 3.058867 3.786150 -2.637078
v 0.205149 2.171695 -2.681400
v 0.446655 2.413201 -2.756138
v 0.277471 2.244017 -2.718769
v 0.365868 2.332414 -2.746125
v 0.446655 3.479893 -2.756138
v 0.205149 3.721399 -2.681400
v 0.365868 3.560681 -2.746125
v 0.277471 3.649078 -2.718769
v 2.752610 3.479893 -2.756138
v 2.994116 3.721399 -2.681400
v 2.833397 3.560681 -2.746125
v 2.921794 3.649078 -2.718769
v 2.994116 2.171695 -2.681400
v 2.752610 2.413201 -2.756138
v 2.921794 2.244017 -2.718769
v 2.833397 2.332414 -2.746125
v 1.353080 3.135170 -2.756138
v 1.846186 3.135170 -2.756138
v 1.846186 3.285703 -2.756138
v 1.353080 3.285703 -2.756138
v 1.846186 3.135170 -2.925603
v 1.353080 3.135170 -2.925603
v 1.353080 3.285703 -2.925603
v 1.846186 3.285703 -2.925603
vn -0.0000 -0.5648 -0.8252
vn -0.0000 -0.0000 1.0000
vn -1.0000 -0.0000 -0.0000
vn 1.0000 -0.0000 -0.0000
vn -0.0000 -1.0000 -0.0000
vn -0.0000 1.0000 -0.0000
vn -0.0000 -0.0000 -1.0000
vn -0.0000 0.5648 -0.8252
vn 0.5648 -0.0000 -0.8252
vn -0.4590 -0.0000 -0.8884
vn -0.2956 -0.0000 -0.9553
vn -0.1230 -0.0000 -0.9924
vn -0.0000 -0.4590 -0.8884
vn -0.0000 -0.2956 -0.9553
vn -0.0000 -0.1230 -0.9924
vn -0.0000 0.1230 -0.9924
vn -0.0000 0.2956 -0.9553
vn -0.0000 0.4591 -0.8884
vn 0.1230 -0.0000 -0.9924
vn 0.2956 -0.0000 -0.9553
vn 0.4590 -0.0000 -0.8884
vn -0.5648 -0.0000 -0.8252
vn -0.0000 -0.4591 -0.8884
vn -0.0000 0.4590 -0.8884
vt 0.584426 0.368286
vt 0.792978 0.379605
vt 0.453801 0.742232
vt 0.956225 0.379605
vt 0.617048 0.742232
vt 0.005660 0.368286
vt 0.956225 0.663329
vt 0.442482 0.379605
vt 0.289383 0.368286
vt 0.792978 0.663329
vt 0.279235 0.379605
vt 0.300702 0.368286
vt 0.005660 0.732084
vt 0.573692 0.016393
vt 0.595745 0.346819
vt 0.628367 0.379606
vt 0.311436 0.016393
vt 0.005660 0.994340
vt 0.792978 0.674648
vt 0.628367 0.720765
vt 0.311436 0.357553
vt 0.595745 0.005660
vt 0.573692 0.357553
vt 0.792978 0.936905
vt 0.267916 0.379605
vt 0.158952 0.732084
vt 0.749037 0.346819
vt 0.781659 0.379606
vt 0.005660 0.379605
vt 0.158952 0.994340
vt 0.267916 0.720765
vt 0.946270 0.936905
vt 0.749037 0.005660
vt 0.781659 0.720765
vt 0.005660 0.720765
vt 0.946270 0.674648
vt 0.453801 0.379606
vt 0.584426 0.005660
vt 0.760356 0.289383
vt 0.617048 0.379606
vt 0.005660 0.005660
vt 0.923603 0.289383
vt 0.289383 0.005660
vt 0.442482 0.742232
vt 0.923603 0.005660
vt 0.279235 0.742232
vt 0.300702 0.005660
vt 0.760356 0.005660
vt 0.917308 0.283088
vt 0.893830 0.259610
vt 0.910277 0.276057
vt 0.901684 0.267464
vt 0.790130 0.259610
vt 0.766651 0.283088
vt 0.782276 0.267464
vt 0.773682 0.276057
vt 0.790130 0.035433
vt 0.766651 0.011955
vt 0.782276 0.027579
vt 0.773682 0.018985
vt 0.917308 0.011955
vt 0.893830 0.035433
vt 0.910277 0.018985
vt 0.901684 0.027579
vt 0.760356 0.300702
vt 0.823642 0.171490
vt 0.238653 0.748559
vt 0.264606 0.732084
vt 0.823642 0.123552
vt 0.760356 0.348640
vt 0.170271 0.732084
vt 0.249972 0.732084
vt 0.809008 0.123552
vt 0.224019 0.748559
vt 0.809008 0.171490
vt 0.170271 0.780022
vt 0.264606 0.748559
vt 0.212699 0.732084
vt 0.776831 0.348640
vt 0.212699 0.780022
vt 0.776831 0.300702
vt 0.238653 0.732084
vt 0.198065 0.780022
vt 0.186746 0.780022
vt 0.224019 0.732084
vt 0.249972 0.748559
vt 0.198065 0.732084
vt 0.186746 0.732084
s 0
f 15/45/1 17/49/1 29/61/1
f 3/7/2 1/2/2 2/4/2
f 10/28/3 7/20/3 6/16/3
f 2/5/3 13/37/3 14/40/3
f 4/11/4 15/44/4 16/46/4
f 3/9/5 14/41/5 15/43/5
f 13/38/6 6/17/6 16/47/6
f 16/47/6 7/21/6 4/12/6
f 4/12/6 8/23/6 1/1/6
f 8/23/6 13/38/6 1/1/6
f 11/31/6 10/29/6 9/25/6
f 9/26/2 6/18/2 5/13/2
f 12/36/7 8/24/7 7/19/7
f 11/33/4 5/15/4 8/22/4
f 37/77/4 35/72/4 34/68/4
f 22/54/8 16/48/8 26/58/8
f 16/48/9 29/61/9 26/58/9
f 24/56/10 17/49/10 22/54/10
f 23/55/11 19/51/11 24/56/11
f 21/53/12 20/52/12 23/55/12
f 17/49/13 31/63/13 29/61/13
f 20/52/14 31/63/14 19/51/14
f 18/50/15 32/64/15 20/52/15
f 23/55/16 25/57/16 21/53/16
f 24/56/17 27/59/17 23/55/17
f 22/54/18 28/60/18 24/56/18
f 27/59/19 30/62/19 25/57/19
f 28/60/20 32/64/20 27/59/20
f 26/58/21 31/63/21 28/60/21
f 14/42/22 22/54/22 17/49/22
f 33/66/7 30/62/7 18/50/7
f 34/69/7 25/57/7 30/62/7
f 25/57/7 36/75/7 21/53/7
f 21/53/7 33/66/7 18/50/7
f 39/83/7 37/78/7 38/80/7
f 38/81/5 34/70/5 33/65/5
f 40/88/6 36/76/6 35/71/6
f 39/85/3 33/67/3 36/74/3
f 15/45/1 14/42/1 17/49/1
f 3/7/2 4/10/2 1/2/2
f 10/28/3 12/34/3 7/20/3
f 2/5/3 1/3/3 13/37/3
f 4/11/4 3/8/4 15/44/4
f 3/9/5 2/6/5 14/41/5
f 13/38/6 5/14/6 6/17/6
f 16/47/6 6/17/6 7/21/6
f 4/12/6 7/21/6 8/23/6
f 8/23/6 5/14/6 13/38/6
f 11/31/6 12/35/6 10/29/6
f 9/26/2 10/30/2 6/18/2
f 12/36/7 11/32/7 8/24/7
f 11/33/4 9/27/4 5/15/4
f 37/77/4 40/86/4 35/72/4
f 22/54/8 13/39/8 16/48/8
f 16/48/9 15/45/9 29/61/9
f 24/56/10 19/51/10 17/49/10
f 23/55/11 20/52/11 19/51/11
f 21/53/12 18/50/12 20/52/12
f 17/49/23 19/51/23 31/63/23
f 20/52/14 32/64/14 31/63/14
f 18/50/15 30/62/15 32/64/15
f 23/55/16 27/59/16 25/57/16
f 24/56/17 28/60/17 27/59/17
f 22/54/24 26/58/24 28/60/24
f 27/59/19 32/64/19 30/62/19
f 28/60/20 31/63/20 32/64/20
f 26/58/21 29/61/21 31/63/21
f 14/42/22 13/39/22 22/54/22
f 33/66/7 34/69/7 30/62/7
f 34/69/7 35/73/7 25/57/7
f 25/57/7 35/73/7 36/75/7
f 21/53/7 36/75/7 33/66/7
f 39/83/7 40/87/7 37/78/7
f 38/81/5 37/79/5 34/70/5
f 40/88/6 39/84/6 36/76/6
f 39/85/3 38/82/3 33/67/3
