# Blender 3.3.1
# www.blender.org
o arbeitsschrank_unten
v 0.140398 1.830152 1.093013
v 0.140398 0.150945 1.093013
v 3.058867 0.150945 1.093013
v 3.058867 1.830152 1.093013
v 0.250807 1.830152 -2.526669
v 2.948458 1.830152 -2.526669
v 2.948458 1.830152 0.982604
v 0.250807 1.830152 0.982604
v 0.250807 0.253340 -2.526669
v 2.948458 0.253340 -2.526669
v 0.250807 0.253340 0.982604
v 2.948458 0.253340 0.982604
v 0.140398 1.830152 -2.637078
v 0.140398 0.150945 -2.637078
v 3.058867 0.150945 -2.637078
v 3.058867 1.830152 -2.637078
v 0.205149 0.215697 -2.681400
v 0.446655 0.457202 -2.756138
v 0.277471 0.288018 -2.718769
v 0.365868 0.376415 -2.746125
v 0.446655 1.523894 -2.756138
v 0.205149 1.765400 -2.681400
v 0.365868 1.604682 -2.746125
v 0.277471 1.693079 -2.718769
v 2.752610 1.523894 -2.756138
v 2.994116 1.765400 -2.681400
v 2.833397 1.604682 -2.746125
v 2.921794 1.693079 -2.718769
v 2.994116 0.215697 -2.681400
v 2.752610 0.457202 -2.756138
v 2.921794 0.288018 -2.718769
v 2.833397 0.376415 -2.746125
v 1.353080 1.179171 -2.756138
v 1.846186 1.179171 -2.756138
v 1.846186 1.329704 -2.756138
v 1.353080 1.329704 -2.756138
v 1.846186 1.179171 -2.925603
v 1.353080 1.179171 -2.925603
v 1.353080 1.329704 -2.925603
v 1.846186 1.329704 -2.925603
vn -0.0000 -0.5648 -0.8252
vn -0.0000 -0.0000 1.0000
vn -1.0000 -0.0000 -0.0000
vn 1.0000 -0.0000 -0.0000
vn -0.0000 -1.0000 -0.0000
vn -0.0000 1.0000 -0.0000
vn -0.0000 -0.0000 -1.0000
vn -0.0000 0.5648 -0.8252
vn 0.5648 -0.0000 -0.8252
vn -0.4590 -0.0000 -0.8884
vn -0.2956 -0.0000 -0.9553
vn -0.1230 -0.0000 -0.9924
vn -0.0000 -0.1230 -0.9924
vn -0.0000 -0.2956 -0.9553
vn -0.0000 -0.4590 -0.8884
vn -0.0000 0.1230 -0.9924
vn -0.0000 0.2956 -0.9553
vn -0.0000 0.4591 -0.8884
vn 0.1230 -0.0000 -0.9924
vn 0.2956 -0.0000 -0.9553
vn 0.4590 -0.0000 -0.8884
vn -0.5648 -0.0000 -0.8252
vn -0.0000 0.4590 -0.8884
vt 0.584426 0.368286
vt 0.760356 0.005660
vt 0.453801 0.742232
vt 0.923603 0.005660
vt 0.617048 0.742232
vt 0.005660 0.368286
vt 0.923603 0.289383
vt 0.442482 0.379605
vt 0.289383 0.368286
vt 0.760356 0.289383
vt 0.279235 0.379605
vt 0.300702 0.368286
vt 0.005660 0.732084
vt 0.573692 0.016393
vt 0.628367 0.720765
vt 0.595745 0.005660
vt 0.311436 0.016393
vt 0.005660 0.994340
vt 0.792978 0.674648
vt 0.595745 0.346819
vt 0.311436 0.357553
vt 0.628367 0.379605
vt 0.573692 0.357553
vt 0.792978 0.936905
vt 0.267916 0.379605
vt 0.158952 0.732084
vt 0.781659 0.720765
vt 0.749037 0.005660
vt 0.005660 0.379605
vt 0.158952 0.994340
vt 0.267916 0.720765
vt 0.946270 0.936905
vt 0.781659 0.379605
vt 0.749037 0.346819
vt 0.005660 0.720765
vt 0.946270 0.674648
vt 0.453801 0.379606
vt 0.584426 0.005660
vt 0.956225 0.379605
vt 0.617048 0.379606
vt 0.005660 0.005660
vt 0.792978 0.379605
vt 0.289383 0.005660
vt 0.442482 0.742232
vt 0.792978 0.663329
vt 0.279235 0.742232
vt 0.300702 0.005660
vt 0.956225 0.663329
vt 0.799273 0.385900
vt 0.822752 0.409379
vt 0.806304 0.392931
vt 0.814898 0.401525
vt 0.926452 0.409379
vt 0.949930 0.385900
vt 0.934306 0.401525
vt 0.942899 0.392931
vt 0.926452 0.633556
vt 0.949930 0.657034
vt 0.934306 0.641410
vt 0.942899 0.650003
vt 0.799273 0.657034
vt 0.822752 0.633556
vt 0.806304 0.650003
vt 0.814898 0.641410
vt 0.760356 0.300702
vt 0.892939 0.497498
vt 0.238653 0.748559
vt 0.264606 0.732084
vt 0.892939 0.545436
vt 0.760356 0.348640
vt 0.170271 0.732084
vt 0.249972 0.732084
vt 0.907573 0.545436
vt 0.224018 0.748559
vt 0.907573 0.497498
vt 0.170271 0.780022
vt 0.264606 0.748559
vt 0.212699 0.732084
vt 0.776831 0.348640
vt 0.212699 0.780022
vt 0.776831 0.300702
vt 0.238653 0.732084
vt 0.198065 0.780022
vt 0.186746 0.780022
vt 0.224018 0.732084
vt 0.249972 0.748559
vt 0.198065 0.732084
vt 0.186746 0.732084
s 0
f 15/45/1 17/49/1 29/61/1
f 3/7/2 1/2/2 2/4/2
f 10/28/3 7/20/3 6/16/3
f 2/5/3 13/37/3 14/40/3
f 4/11/4 15/44/4 16/46/4
f 3/9/5 14/41/5 15/43/5
f 13/38/6 6/17/6 16/47/6
f 16/47/6 7/21/6 4/12/6
f 4/12/6 8/23/6 1/1/6
f 8/23/6 13/38/6 1/1/6
f 11/31/6 10/29/6 9/25/6
f 9/26/2 6/18/2 5/13/2
f 12/36/7 8/24/7 7/19/7
f 11/33/4 5/15/4 8/22/4
f 37/77/4 35/72/4 34/68/4
f 13/39/8 26/58/8 22/54/8
f 16/48/9 29/61/9 26/58/9
f 24/56/10 17/49/10 22/54/10
f 23/55/11 19/51/11 24/56/11
f 23/55/12 18/50/12 20/52/12
f 32/64/13 18/50/13 30/62/13
f 31/63/14 20/52/14 32/64/14
f 29/61/15 19/51/15 31/63/15
f 23/55/16 25/57/16 21/53/16
f 24/56/17 27/59/17 23/55/17
f 22/54/18 28/60/18 24/56/18
f 27/59/19 30/62/19 25/57/19
f 28/60/20 32/64/20 27/59/20
f 26/58/21 31/63/21 28/60/21
f 14/42/22 22/54/22 17/49/22
f 33/66/7 30/62/7 18/50/7
f 34/69/7 25/57/7 30/62/7
f 25/57/7 36/75/7 21/53/7
f 21/53/7 33/66/7 18/50/7
f 39/83/7 37/78/7 38/80/7
f 38/81/5 34/70/5 33/65/5
f 40/88/6 36/76/6 35/71/6
f 39/85/3 33/67/3 36/74/3
f 15/45/1 14/42/1 17/49/1
f 3/7/2 4/10/2 1/2/2
f 10/28/3 12/34/3 7/20/3
f 2/5/3 1/3/3 13/37/3
f 4/11/4 3/8/4 15/44/4
f 3/9/5 2/6/5 14/41/5
f 13/38/6 5/14/6 6/17/6
f 16/47/6 6/17/6 7/21/6
f 4/12/6 7/21/6 8/23/6
f 8/23/6 5/14/6 13/38/6
f 11/31/6 12/35/6 10/29/6
f 9/26/2 10/30/2 6/18/2
f 12/36/7 11/32/7 8/24/7
f 11/33/4 9/27/4 5/15/4
f 37/77/4 40/86/4 35/72/4
f 13/39/8 16/48/8 26/58/8
f 16/48/9 15/45/9 29/61/9
f 24/56/10 19/51/10 17/49/10
f 23/55/11 20/52/11 19/51/11
f 23/55/12 21/53/12 18/50/12
f 32/64/13 20/52/13 18/50/13
f 31/63/14 19/51/14 20/52/14
f 29/61/15 17/49/15 19/51/15
f 23/55/16 27/59/16 25/57/16
f 24/56/17 28/60/17 27/59/17
f 22/54/23 26/58/23 28/60/23
f 27/59/19 32/64/19 30/62/19
f 28/60/20 31/63/20 32/64/20
f 26/58/21 29/61/21 31/63/21
f 14/42/22 13/39/22 22/54/22
f 33/66/7 34/69/7 30/62/7
f 34/69/7 35/73/7 25/57/7
f 25/57/7 35/73/7 36/75/7
f 21/53/7 36/75/7 33/66/7
f 39/83/7 40/87/7 37/78/7
f 38/81/5 37/79/5 34/70/5
f 40/88/6 39/84/6 36/76/6
f 39/85/3 38/82/3 33/67/3
