# Blender 3.3.1
# www.blender.org
o arbeitsplatte
v 0.002002 0.012549 2.986751
v 0.002002 4.175505 2.986751
v 0.002002 0.012549 -2.648314
v 0.002002 4.175505 -2.648314
v 6.392525 0.012549 2.986751
v 6.392525 4.175505 2.986751
v 6.392525 4.175505 -2.648314
v 0.002002 3.924547 2.986751
v 0.002002 3.924547 -2.648314
v 6.392525 3.924547 2.986751
v 0.002002 4.175505 -2.791337
v 6.392525 4.175505 -2.791337
v 0.002002 3.924547 -2.791337
v 6.392525 3.924547 -2.791337
v 3.197263 4.175505 -2.648314
v 3.197263 0.012549 2.986751
v 3.197263 4.175505 2.986751
v 3.197263 3.924547 2.986751
v 3.197263 4.175505 -2.791337
v 3.197263 3.924547 -2.791337
v 6.392525 3.924547 -2.648314
v 6.392525 0.012549 -2.648314
v 3.197263 3.924547 -2.648314
v 3.197263 0.012549 -2.648314
v 6.297446 0.107628 -2.715601
v 3.983657 1.514992 -2.799075
v 6.219111 0.185963 -2.757338
v 6.123048 0.282026 -2.787892
v 3.983657 2.422103 -2.799075
v 6.297446 3.829467 -2.715601
v 6.123048 3.655069 -2.787892
v 6.219111 3.751133 -2.757338
v 3.292343 0.107628 -2.715601
v 3.793282 1.514992 -2.799075
v 3.370677 0.185963 -2.757338
v 3.466741 0.282026 -2.787892
v 3.793282 2.422103 -2.799075
v 3.292343 3.829467 -2.715601
v 3.466741 3.655069 -2.787892
v 3.370677 3.751133 -2.757338
v 6.034996 0.370078 -2.799075
v 6.034996 3.567017 -2.799075
v 3.554793 3.567017 -2.799075
v 3.554793 0.370079 -2.799075
v 3.983657 1.514992 -2.976247
v 3.983657 2.422103 -2.976247
v 3.793282 2.422103 -2.976247
v 3.793282 1.514992 -2.976247
v 0.002002 1.968548 -2.648314
v 6.392525 1.968548 -2.648314
v 6.392525 1.968548 2.986751
v 0.002002 1.968548 2.986751
v 3.197263 1.968548 -2.648314
v 3.197263 1.968548 2.986751
v 6.297446 1.968548 -2.715601
v 6.219111 1.968548 -2.757338
v 6.123048 1.968548 -2.787892
v 6.034996 1.968548 -2.799075
v 3.554793 1.968548 -2.799075
v 3.466741 1.968548 -2.787892
v 3.370677 1.968548 -2.757338
v 3.292343 1.968548 -2.715601
v 3.983657 1.968548 -2.799075
v 3.793282 1.968548 -2.799075
v 3.983657 1.968548 -2.976247
v 3.793282 1.968548 -2.976247
v 0.140398 2.106944 -2.648314
v 0.140398 3.786150 -2.648314
v 3.058867 3.786150 -2.648314
v 3.058867 2.106944 -2.648314
v 0.140398 0.150945 -2.648314
v 0.140398 1.830152 -2.648314
v 3.058867 1.830152 -2.648314
v 3.058867 0.150945 -2.648314
v 0.140398 3.786150 1.181812
v 0.140398 2.106944 1.181812
v 3.058867 2.106944 1.181812
v 3.058867 3.786150 1.181812
v 0.140398 1.830152 1.181812
v 0.140398 0.150945 1.181812
v 3.058867 0.150945 1.181812
v 3.058867 1.830152 1.181812
vn -1.0000 -0.0000 -0.0000
vn -0.0000 -1.0000 -0.0000
vn 1.0000 -0.0000 -0.0000
vn -0.0000 -0.0000 1.0000
vn -0.0000 1.0000 -0.0000
vn -0.0000 -0.5777 -0.8163
vn -0.0000 -0.0000 -1.0000
vn -0.5777 -0.0000 -0.8163
vn -0.0000 0.5777 -0.8163
vn 0.4702 -0.0000 -0.8825
vn 0.3031 -0.0000 -0.9530
vn 0.1260 -0.0000 -0.9920
vn -0.0000 0.4702 -0.8825
vn -0.0000 0.3031 -0.9530
vn -0.0000 0.1260 -0.9920
vn -0.0000 -0.4702 -0.8825
vn -0.0000 -0.3031 -0.9530
vn -0.0000 -0.1260 -0.9920
vn -0.1260 -0.0000 -0.9920
vn -0.3031 -0.0000 -0.9530
vn -0.4702 -0.0000 -0.8825
vn 0.5777 -0.0000 -0.8163
vt 0.895236 0.326073
vt 0.651295 0.359888
vt 0.007045 0.726821
vt 0.665384 0.326073
vt 0.236896 0.726821
vt 0.326073 0.007045
vt 0.340163 0.359888
vt 0.895236 0.014942
vt 0.250986 0.373978
vt 0.014942 0.007045
vt 0.665384 0.014942
vt 0.007045 0.373978
vt 0.651295 0.007045
vt 0.710922 0.373978
vt 0.481071 0.373978
vt 0.326073 0.359888
vt 0.236896 0.373978
vt 0.481071 0.685109
vt 0.014942 0.359888
vt 0.223040 0.726821
vt 0.679241 0.326073
vt 0.945168 0.359888
vt 0.679241 0.014942
vt 0.466981 0.373978
vt 0.494927 0.373978
vt 0.223040 0.373978
vt 0.665384 0.007045
vt 0.007045 0.007045
vt 0.923182 0.007045
vt 0.923182 0.359888
vt 0.007045 0.359888
vt 0.481071 0.693006
vt 0.909325 0.007045
vt 0.937271 0.359888
vt 0.679241 0.007045
vt 0.909325 0.359888
vt 0.494927 0.693006
vt 0.937271 0.007045
vt 0.014942 0.183466
vt 0.651295 0.183466
vt 0.007045 0.550399
vt 0.326073 0.183466
vt 0.236896 0.550399
vt 0.223040 0.550399
vt 0.007045 0.183466
vt 0.923182 0.183466
vt 0.909325 0.183466
vt 0.937271 0.183466
vt 0.945168 0.007045
vt 0.494927 0.685109
vt 0.466981 0.726821
vt 0.710922 0.685109
vt 0.340163 0.007045
vt 0.250986 0.726821
vt 0.945168 0.183466
vt 0.466981 0.550399
vt 0.340163 0.183466
vt 0.250986 0.550399
vt 0.256236 0.721571
vt 0.689256 0.350674
vt 0.395883 0.740910
vt 0.333941 0.593819
vt 0.260561 0.717246
vt 0.265865 0.711942
vt 0.395883 0.790995
vt 0.384026 0.593819
vt 0.665384 0.340163
vt 0.461731 0.721571
vt 0.452102 0.711942
vt 0.457406 0.717246
vt 0.256236 0.555649
vt 0.690682 0.707096
vt 0.689256 0.340163
vt 0.333941 0.583307
vt 0.260561 0.559974
vt 0.265865 0.565278
vt 0.665384 0.350674
vt 0.690682 0.757181
vt 0.384026 0.583307
vt 0.461731 0.555649
vt 0.452102 0.565278
vt 0.457406 0.559974
vt 0.270726 0.707080
vt 0.447240 0.707080
vt 0.447240 0.570140
vt 0.270726 0.570140
vt 0.699039 0.350674
vt 0.405665 0.740910
vt 0.656299 0.707096
vt 0.656299 0.757181
vt 0.675167 0.340163
vt 0.405665 0.790995
vt 0.666811 0.757181
vt 0.680900 0.757181
vt 0.675167 0.350674
vt 0.666811 0.707096
vt 0.699039 0.340163
vt 0.680900 0.707096
vt 0.787238 0.014942
vt 0.358983 0.373978
vt 0.358983 0.726821
vt 0.602924 0.685109
vt 0.115042 0.373978
vt 0.602924 0.373978
vt 0.787238 0.326073
vt 0.115042 0.726821
vt 0.358983 0.550399
vt 0.115042 0.550399
vt 0.358983 0.721571
vt 0.358983 0.717246
vt 0.358983 0.711942
vt 0.358983 0.707080
vt 0.358983 0.570140
vt 0.358983 0.565278
vt 0.358983 0.559974
vt 0.358983 0.555649
vt 0.395883 0.765953
vt 0.358983 0.593819
vt 0.690682 0.732138
vt 0.358983 0.583307
vt 0.405665 0.765953
vt 0.656299 0.732138
vt 0.680900 0.732138
vt 0.666811 0.732138
vt 0.992955 0.811016
vt 0.366625 0.381619
vt 0.886151 0.373978
vt 0.481071 0.707096
vt 0.459340 0.381619
vt 0.900240 0.811016
vt 0.900240 0.373978
vt 0.642210 0.707096
vt 0.459340 0.542758
vt 0.725012 0.373978
vt 0.366625 0.542758
vt 0.992955 0.373978
vt 0.381793 0.952385
vt 0.258627 0.381619
vt 0.886151 0.599542
vt 0.007045 0.740910
vt 0.351342 0.381619
vt 0.289078 0.952385
vt 0.182273 0.740910
vt 0.351342 0.542758
vt 0.168184 0.740910
vt 0.725012 0.599542
vt 0.274988 0.740910
vt 0.258627 0.542758
vt 0.481071 0.918570
vt 0.725012 0.986245
vt 0.900240 0.599542
vt 0.817727 0.986245
vt 0.992955 0.599542
vt 0.886151 0.585452
vt 0.817727 0.825106
vt 0.992955 0.585452
vt 0.725012 0.585452
vt 0.642210 0.918570
vt 0.725012 0.825106
vt 0.900240 0.585452
vt 0.924531 0.825106
vt 0.007045 0.952385
vt 0.289078 0.740911
vt 0.831816 0.825106
vt 0.886151 0.811017
vt 0.381793 0.740911
vt 0.274988 0.952385
vt 0.831816 0.986245
vt 0.725012 0.811017
vt 0.182273 0.952385
vt 0.924531 0.986245
vt 0.168184 0.952385
s 0
f 2/4/1 9/23/1 8/21/1
f 9/22/2 20/48/2 23/55/2
f 7/18/3 10/25/3 21/50/3
f 17/43/4 8/20/4 18/44/4
f 22/53/2 16/40/2 24/57/2
f 4/10/5 17/42/5 15/39/5
f 18/44/4 52/106/4 54/108/4
f 21/50/3 51/104/3 50/102/3
f 33/71/6 22/54/6 24/58/6
f 8/21/1 49/99/1 52/105/1
f 19/46/7 14/36/7 20/47/7
f 7/19/5 19/45/5 15/39/5
f 21/50/3 12/32/3 7/18/3
f 4/11/1 13/35/1 9/23/1
f 15/39/5 11/28/5 4/10/5
f 11/29/7 20/47/7 13/33/7
f 74/147/1 82/170/1 73/143/1
f 10/26/4 54/108/4 51/103/4
f 15/39/5 6/16/5 7/19/5
f 24/57/2 1/2/2 3/7/2
f 6/17/4 18/44/4 10/26/4
f 23/55/2 14/38/2 21/49/2
f 34/73/2 45/87/2 26/60/2
f 33/71/8 53/107/8 62/116/8
f 38/80/9 21/51/9 30/68/9
f 55/109/10 27/63/10 56/110/10
f 56/110/11 28/64/11 57/111/11
f 57/111/12 41/83/12 58/112/12
f 30/68/13 40/82/13 38/80/13
f 32/70/14 39/81/14 40/82/14
f 31/69/15 43/85/15 39/81/15
f 33/71/16 27/63/16 25/59/16
f 35/75/17 28/64/17 27/63/17
f 36/76/18 41/83/18 28/64/18
f 44/86/19 60/114/19 59/113/19
f 36/76/20 61/115/20 60/114/20
f 35/75/21 62/116/21 61/115/21
f 30/68/22 50/101/22 55/109/22
f 29/66/7 58/112/7 63/118/7
f 29/66/7 43/85/7 42/84/7
f 26/62/7 44/86/7 34/74/7
f 34/74/7 59/113/7 64/120/7
f 66/124/7 46/90/7 65/122/7
f 26/61/3 65/121/3 63/117/3
f 37/78/1 66/123/1 64/119/1
f 29/67/5 47/95/5 37/77/5
f 64/119/1 48/98/1 34/72/1
f 63/117/3 46/92/3 29/65/3
f 66/124/7 45/89/7 48/96/7
f 37/79/7 59/113/7 43/85/7
f 26/62/7 58/112/7 41/83/7
f 25/59/22 50/101/22 22/54/22
f 40/82/21 62/116/21 38/80/21
f 39/81/20 61/115/20 40/82/20
f 43/85/19 60/114/19 39/81/19
f 57/111/12 42/84/12 31/69/12
f 56/110/11 31/69/11 32/70/11
f 55/109/10 32/70/10 30/68/10
f 38/80/8 53/107/8 23/56/8
f 51/103/4 16/41/4 5/12/4
f 69/132/2 75/149/2 68/128/2
f 52/105/1 3/8/1 1/1/1
f 50/102/3 5/14/3 22/52/3
f 54/108/4 1/3/4 16/41/4
f 9/24/7 67/126/7 49/100/7
f 23/56/7 68/129/7 9/24/7
f 53/107/7 69/133/7 23/56/7
f 49/100/7 70/135/7 53/107/7
f 49/100/7 71/138/7 3/9/7
f 53/107/7 72/141/7 49/100/7
f 24/58/7 73/144/7 53/107/7
f 3/9/7 74/148/7 24/58/7
f 75/150/7 77/155/7 76/152/7
f 79/161/7 81/168/7 80/164/7
f 68/130/3 76/153/3 67/125/3
f 71/139/5 81/169/5 74/146/5
f 70/136/1 78/160/1 69/131/1
f 67/127/5 77/157/5 70/134/5
f 73/145/2 79/162/2 72/140/2
f 72/142/3 80/166/3 71/137/3
f 2/4/1 4/11/1 9/23/1
f 9/22/2 13/34/2 20/48/2
f 7/18/3 6/15/3 10/25/3
f 17/43/4 2/5/4 8/20/4
f 22/53/2 5/13/2 16/40/2
f 4/10/5 2/6/5 17/42/5
f 18/44/4 8/20/4 52/106/4
f 21/50/3 10/25/3 51/104/3
f 33/71/6 25/59/6 22/54/6
f 8/21/1 9/23/1 49/99/1
f 19/46/7 12/30/7 14/36/7
f 7/19/5 12/31/5 19/45/5
f 21/50/3 14/37/3 12/32/3
f 4/11/1 11/27/1 13/35/1
f 15/39/5 19/45/5 11/28/5
f 11/29/7 19/46/7 20/47/7
f 74/147/1 81/167/1 82/170/1
f 10/26/4 18/44/4 54/108/4
f 15/39/5 17/42/5 6/16/5
f 24/57/2 16/40/2 1/2/2
f 6/17/4 17/43/4 18/44/4
f 23/55/2 20/48/2 14/38/2
f 34/73/2 48/97/2 45/87/2
f 33/71/8 24/58/8 53/107/8
f 38/80/9 23/56/9 21/51/9
f 55/109/10 25/59/10 27/63/10
f 56/110/11 27/63/11 28/64/11
f 57/111/12 28/64/12 41/83/12
f 30/68/13 32/70/13 40/82/13
f 32/70/14 31/69/14 39/81/14
f 31/69/15 42/84/15 43/85/15
f 33/71/16 35/75/16 27/63/16
f 35/75/17 36/76/17 28/64/17
f 36/76/18 44/86/18 41/83/18
f 44/86/19 36/76/19 60/114/19
f 36/76/20 35/75/20 61/115/20
f 35/75/21 33/71/21 62/116/21
f 30/68/22 21/51/22 50/101/22
f 29/66/7 42/84/7 58/112/7
f 29/66/7 37/79/7 43/85/7
f 26/62/7 41/83/7 44/86/7
f 34/74/7 44/86/7 59/113/7
f 66/124/7 47/93/7 46/90/7
f 26/61/3 45/88/3 65/121/3
f 37/78/1 47/94/1 66/123/1
f 29/67/5 46/91/5 47/95/5
f 64/119/1 66/123/1 48/98/1
f 63/117/3 65/121/3 46/92/3
f 66/124/7 65/122/7 45/89/7
f 37/79/7 64/120/7 59/113/7
f 26/62/7 63/118/7 58/112/7
f 25/59/22 55/109/22 50/101/22
f 40/82/21 61/115/21 62/116/21
f 39/81/20 60/114/20 61/115/20
f 43/85/19 59/113/19 60/114/19
f 57/111/12 58/112/12 42/84/12
f 56/110/11 57/111/11 31/69/11
f 55/109/10 56/110/10 32/70/10
f 38/80/8 62/116/8 53/107/8
f 51/103/4 54/108/4 16/41/4
f 69/132/2 78/158/2 75/149/2
f 52/105/1 49/99/1 3/8/1
f 50/102/3 51/104/3 5/14/3
f 54/108/4 52/106/4 1/3/4
f 9/24/7 68/129/7 67/126/7
f 23/56/7 69/133/7 68/129/7
f 53/107/7 70/135/7 69/133/7
f 49/100/7 67/126/7 70/135/7
f 49/100/7 72/141/7 71/138/7
f 53/107/7 73/144/7 72/141/7
f 24/58/7 74/148/7 73/144/7
f 3/9/7 71/138/7 74/148/7
f 75/150/7 78/159/7 77/155/7
f 79/161/7 82/171/7 81/168/7
f 68/130/3 75/151/3 76/153/3
f 71/139/5 80/165/5 81/169/5
f 70/136/1 77/156/1 78/160/1
f 67/127/5 76/154/5 77/157/5
f 73/145/2 82/172/2 79/162/2
f 72/142/3 79/163/3 80/166/3
