# Blender 3.3.1
# www.blender.org
o Beer
v 0.000000 0.009439 -0.327277
v 0.000000 0.050536 -0.306883
v 0.063848 0.009439 -0.320988
v 0.059870 0.050536 -0.300986
v 0.125243 0.009439 -0.302364
v 0.117439 0.050536 -0.283523
v 0.181825 0.009439 -0.272121
v 0.170495 0.050536 -0.255164
v 0.231419 0.009439 -0.231419
v 0.216999 0.050536 -0.216999
v 0.272121 0.009439 -0.181825
v 0.255164 0.050536 -0.170495
v 0.302364 0.009439 -0.125243
v 0.283523 0.050536 -0.117439
v 0.320988 0.009439 -0.063848
v 0.300986 0.050536 -0.059870
v 0.327277 0.009439 0.000000
v 0.306883 0.050536 0.000000
v 0.320988 0.009439 0.063848
v 0.300986 0.050536 0.059870
v 0.302364 0.009439 0.125243
v 0.283523 0.050536 0.117439
v 0.272121 0.009439 0.181825
v 0.255164 0.050536 0.170495
v 0.231419 0.009439 0.231419
v 0.216999 0.050536 0.216999
v 0.181825 0.009439 0.272121
v 0.170495 0.050536 0.255164
v 0.125243 0.009439 0.302364
v 0.117439 0.050536 0.283523
v 0.063848 0.009439 0.320988
v 0.059870 0.050536 0.300986
v 0.000000 0.009439 0.327277
v 0.000000 0.050536 0.306883
v -0.063848 0.009439 0.320988
v -0.059870 0.050536 0.300986
v -0.125243 0.009439 0.302364
v -0.117439 0.050536 0.283523
v -0.181825 0.009439 0.272121
v -0.170495 0.050536 0.255164
v -0.231419 0.009439 0.231419
v -0.216999 0.050536 0.216999
v -0.272121 0.009439 0.181825
v -0.255164 0.050536 0.170495
v -0.302364 0.009439 0.125243
v -0.283523 0.050536 0.117439
v -0.320988 0.009439 0.063848
v -0.300986 0.050536 0.059870
v -0.327277 0.009439 0.000000
v -0.306883 0.050536 0.000000
v -0.320988 0.009439 -0.063848
v -0.300986 0.050536 -0.059870
v -0.302364 0.009439 -0.125243
v -0.283523 0.050536 -0.117439
v -0.272121 0.009439 -0.181825
v -0.255164 0.050536 -0.170495
v -0.231419 0.009439 -0.231419
v -0.216999 0.050536 -0.216999
v -0.181825 0.009439 -0.272121
v -0.170495 0.050536 -0.255164
v -0.125243 0.009439 -0.302364
v -0.117439 0.050536 -0.283523
v -0.063848 0.009439 -0.320988
v -0.059870 0.050536 -0.300986
v 0.039406 0.086997 -0.198108
v -0.000000 0.086997 -0.201989
v 0.077298 0.086997 -0.186613
v 0.112219 0.086997 -0.167947
v 0.142828 0.086997 -0.142828
v 0.167947 0.086997 -0.112219
v 0.186613 0.086997 -0.077298
v 0.198108 0.086997 -0.039406
v 0.201989 0.086997 -0.000000
v 0.198108 0.086997 0.039406
v 0.186613 0.086997 0.077298
v 0.167947 0.086997 0.112219
v 0.142828 0.086997 0.142828
v 0.112219 0.086997 0.167947
v 0.077298 0.086997 0.186613
v 0.039406 0.086997 0.198108
v -0.000000 0.086997 0.201989
v -0.039406 0.086997 0.198108
v -0.077298 0.086997 0.186613
v -0.112219 0.086997 0.167947
v -0.142828 0.086997 0.142828
v -0.167947 0.086997 0.112219
v -0.186613 0.086997 0.077298
v -0.198108 0.086997 0.039406
v -0.201989 0.086997 -0.000000
v -0.198108 0.086997 -0.039406
v -0.186613 0.086997 -0.077298
v -0.167947 0.086997 -0.112219
v -0.142828 0.086997 -0.142828
v -0.112219 0.086997 -0.167947
v -0.077298 0.086997 -0.186613
v -0.039406 0.086997 -0.198108
v 0.035526 0.105945 -0.178601
v 0.000000 0.105945 -0.182100
v 0.069687 0.105945 -0.168238
v 0.101169 0.105945 -0.151410
v 0.128764 0.105945 -0.128764
v 0.151410 0.105945 -0.101169
v 0.168238 0.105945 -0.069687
v 0.178601 0.105945 -0.035526
v 0.182100 0.105945 -0.000000
v 0.178601 0.105945 0.035526
v 0.168238 0.105945 0.069687
v 0.151410 0.105945 0.101169
v 0.128764 0.105945 0.128764
v 0.101169 0.105945 0.151410
v 0.069687 0.105945 0.168238
v 0.035526 0.105945 0.178601
v 0.000000 0.105945 0.182100
v -0.035526 0.105945 0.178601
v -0.069687 0.105945 0.168238
v -0.101169 0.105945 0.151410
v -0.128764 0.105945 0.128764
v -0.151410 0.105945 0.101169
v -0.168238 0.105945 0.069687
v -0.178601 0.105945 0.035526
v -0.182100 0.105945 -0.000000
v -0.178601 0.105945 -0.035526
v -0.168238 0.105945 -0.069687
v -0.151410 0.105945 -0.101169
v -0.128764 0.105945 -0.128764
v -0.101169 0.105945 -0.151410
v -0.069687 0.105945 -0.168238
v -0.035526 0.105945 -0.178601
v 0.038241 0.222615 -0.192252
v 0.000000 0.222615 -0.196019
v 0.075013 0.222615 -0.181098
v 0.108902 0.222615 -0.162984
v 0.138606 0.222615 -0.138606
v 0.162984 0.222615 -0.108902
v 0.181098 0.222615 -0.075013
v 0.192252 0.222615 -0.038241
v 0.196019 0.222615 -0.000000
v 0.192252 0.222615 0.038241
v 0.181098 0.222615 0.075013
v 0.162984 0.222615 0.108902
v 0.138606 0.222615 0.138606
v 0.108902 0.222615 0.162984
v 0.075013 0.222615 0.181098
v 0.038241 0.222615 0.192252
v 0.000000 0.222615 0.196019
v -0.038241 0.222615 0.192252
v -0.075013 0.222615 0.181098
v -0.108902 0.222615 0.162984
v -0.138606 0.222615 0.138606
v -0.162984 0.222615 0.108902
v -0.181098 0.222615 0.075013
v -0.192252 0.222615 0.038241
v -0.196019 0.222615 -0.000000
v -0.192252 0.222615 -0.038241
v -0.181098 0.222615 -0.075013
v -0.162984 0.222615 -0.108902
v -0.138606 0.222615 -0.138606
v -0.108902 0.222615 -0.162984
v -0.075013 0.222615 -0.181098
v -0.038241 0.222615 -0.192252
v 0.048816 0.481191 -0.245416
v -0.000000 0.481191 -0.250224
v 0.095757 0.481191 -0.231177
v 0.139017 0.481191 -0.208054
v 0.176935 0.481191 -0.176935
v 0.208054 0.481191 -0.139017
v 0.231177 0.481191 -0.095757
v 0.245416 0.481191 -0.048816
v 0.250224 0.481191 -0.000000
v 0.245416 0.481191 0.048816
v 0.231177 0.481191 0.095757
v 0.208054 0.481191 0.139017
v 0.176935 0.481191 0.176935
v 0.139017 0.481191 0.208054
v 0.095757 0.481191 0.231177
v 0.048816 0.481191 0.245416
v -0.000000 0.481191 0.250224
v -0.048816 0.481191 0.245416
v -0.095757 0.481191 0.231177
v -0.139017 0.481191 0.208054
v -0.176935 0.481191 0.176935
v -0.208054 0.481191 0.139017
v -0.231177 0.481191 0.095757
v -0.245416 0.481191 0.048816
v -0.250224 0.481191 -0.000000
v -0.245416 0.481191 -0.048816
v -0.231177 0.481191 -0.095757
v -0.208054 0.481191 -0.139017
v -0.176935 0.481191 -0.176935
v -0.139017 0.481191 -0.208054
v -0.095757 0.481191 -0.231177
v -0.048816 0.481191 -0.245416
v 0.059590 0.972421 -0.299577
v 0.000000 0.972421 -0.305446
v 0.116889 0.972421 -0.282195
v 0.169697 0.972421 -0.253969
v 0.215983 0.972421 -0.215983
v 0.253969 0.972421 -0.169697
v 0.282195 0.972421 -0.116889
v 0.299577 0.972421 -0.059589
v 0.305446 0.972421 -0.000000
v 0.299577 0.972421 0.059589
v 0.282195 0.972421 0.116889
v 0.253969 0.972421 0.169697
v 0.215983 0.972421 0.215983
v 0.169697 0.972421 0.253969
v 0.116889 0.972421 0.282195
v 0.059590 0.972421 0.299577
v 0.000000 0.972421 0.305446
v -0.059589 0.972421 0.299577
v -0.116889 0.972421 0.282195
v -0.169696 0.972421 0.253969
v -0.215983 0.972421 0.215983
v -0.253969 0.972421 0.169697
v -0.282195 0.972421 0.116889
v -0.299577 0.972421 0.059589
v -0.305446 0.972421 -0.000000
v -0.299577 0.972421 -0.059589
v -0.282195 0.972421 -0.116889
v -0.253969 0.972421 -0.169697
v -0.215983 0.972421 -0.215983
v -0.169696 0.972421 -0.253969
v -0.116889 0.972421 -0.282195
v -0.059589 0.972421 -0.299577
v 0.059269 1.719618 -0.297964
v 0.000000 1.719618 -0.303802
v 0.116260 1.719618 -0.280676
v 0.168783 1.719618 -0.252602
v 0.214820 1.719618 -0.214820
v 0.252602 1.719618 -0.168783
v 0.280676 1.719618 -0.116260
v 0.297964 1.719618 -0.059269
v 0.303802 1.719618 -0.000000
v 0.297964 1.719618 0.059269
v 0.280676 1.719618 0.116260
v 0.252602 1.719618 0.168783
v 0.214820 1.719618 0.214820
v 0.168783 1.719618 0.252602
v 0.116260 1.719618 0.280676
v 0.059269 1.719618 0.297964
v 0.000000 1.719618 0.303802
v -0.059269 1.719618 0.297964
v -0.116260 1.719618 0.280676
v -0.168783 1.719618 0.252602
v -0.214820 1.719618 0.214820
v -0.252602 1.719618 0.168783
v -0.280676 1.719618 0.116260
v -0.297964 1.719618 0.059269
v -0.303801 1.719618 -0.000000
v -0.297964 1.719618 -0.059269
v -0.280676 1.719618 -0.116260
v -0.252602 1.719618 -0.168783
v -0.214820 1.719618 -0.214820
v -0.168783 1.719618 -0.252602
v -0.116260 1.719618 -0.280676
v -0.059269 1.719618 -0.297964
v 0.064169 1.719618 -0.322597
v 0.000000 1.719618 -0.328917
v 0.125871 1.719618 -0.303880
v 0.182737 1.719618 -0.273485
v 0.232580 1.719618 -0.232580
v 0.273485 1.719618 -0.182737
v 0.303880 1.719618 -0.125871
v 0.322598 1.719618 -0.064169
v 0.328918 1.719618 -0.000000
v 0.322598 1.719618 0.064169
v 0.303880 1.719618 0.125871
v 0.273485 1.719618 0.182737
v 0.232580 1.719618 0.232580
v 0.182737 1.719618 0.273485
v 0.125871 1.719618 0.303880
v 0.064169 1.719618 0.322597
v 0.000000 1.719618 0.328917
v -0.064168 1.719618 0.322597
v -0.125871 1.719618 0.303880
v -0.182737 1.719618 0.273485
v -0.232580 1.719618 0.232580
v -0.273485 1.719618 0.182737
v -0.303880 1.719618 0.125871
v -0.322597 1.719618 0.064169
v -0.328917 1.719618 -0.000000
v -0.322597 1.719618 -0.064169
v -0.303880 1.719618 -0.125871
v -0.273485 1.719618 -0.182737
v -0.232580 1.719618 -0.232580
v -0.182737 1.719618 -0.273485
v -0.125871 1.719618 -0.303880
v -0.064168 1.719618 -0.322597
v 0.027373 0.174583 -0.137608
v 0.000001 0.174583 -0.140304
v 0.053693 0.174583 -0.129624
v 0.077949 0.174583 -0.116659
v 0.099211 0.174583 -0.099210
v 0.116659 0.174583 -0.077949
v 0.129625 0.174583 -0.053692
v 0.137609 0.174583 -0.027372
v 0.140305 0.174583 0.000000
v 0.137609 0.174583 0.027372
v 0.129625 0.174583 0.053692
v 0.116659 0.174583 0.077949
v 0.099211 0.174583 0.099210
v 0.077949 0.174583 0.116659
v 0.053693 0.174583 0.129624
v 0.027373 0.174583 0.137608
v 0.000001 0.174583 0.140304
v -0.027371 0.174583 0.137608
v -0.053692 0.174583 0.129624
v -0.077948 0.174583 0.116659
v -0.099209 0.174583 0.099210
v -0.116658 0.174583 0.077949
v -0.129624 0.174583 0.053692
v -0.137608 0.174583 0.027372
v -0.140304 0.174583 0.000000
v -0.137608 0.174583 -0.027372
v -0.129624 0.174583 -0.053692
v -0.116658 0.174583 -0.077949
v -0.099209 0.174583 -0.099210
v -0.077948 0.174583 -0.116659
v -0.053692 0.174583 -0.129624
v -0.027371 0.174583 -0.137608
vn 0.0879 0.4428 -0.8923
vn 0.2603 0.4428 -0.8580
vn 0.4227 0.4428 -0.7907
vn 0.5688 0.4428 -0.6931
vn 0.6931 0.4428 -0.5688
vn 0.7907 0.4428 -0.4227
vn 0.8580 0.4428 -0.2603
vn 0.8923 0.4428 -0.0879
vn 0.8923 0.4428 0.0879
vn 0.8580 0.4428 0.2603
vn 0.7907 0.4428 0.4227
vn 0.6931 0.4428 0.5688
vn 0.5688 0.4428 0.6931
vn 0.4227 0.4428 0.7907
vn 0.2603 0.4428 0.8580
vn 0.0879 0.4428 0.8923
vn -0.0879 0.4428 0.8923
vn -0.2603 0.4428 0.8580
vn -0.4227 0.4428 0.7907
vn -0.5688 0.4428 0.6931
vn -0.6931 0.4428 0.5688
vn -0.7907 0.4428 0.4227
vn -0.8580 0.4428 0.2603
vn -0.8923 0.4428 0.0879
vn -0.8923 0.4428 -0.0879
vn -0.8580 0.4428 -0.2603
vn -0.7907 0.4428 -0.4227
vn -0.6931 0.4428 -0.5688
vn -0.5688 0.4428 -0.6931
vn -0.4227 0.4428 -0.7907
vn -0.2908 0.9441 -0.1554
vn -0.2603 0.4428 -0.8580
vn -0.0879 0.4428 -0.8923
vn -0.0000 -1.0000 -0.0000
vn -0.0678 0.7224 0.6882
vn 0.2549 0.9441 -0.2092
vn 0.1554 0.9441 0.2908
vn -0.3155 0.9441 0.0957
vn 0.0323 0.9441 -0.3282
vn -0.0323 0.9441 -0.3282
vn 0.3155 0.9441 0.0957
vn -0.1554 0.9441 0.2908
vn -0.2549 0.9441 -0.2092
vn 0.2908 0.9441 -0.1554
vn 0.0957 0.9441 0.3155
vn -0.3282 0.9441 0.0323
vn 0.0957 0.9441 -0.3155
vn 0.2908 0.9441 0.1554
vn -0.2092 0.9441 0.2549
vn -0.2092 0.9441 -0.2549
vn 0.3155 0.9441 -0.0957
vn 0.0323 0.9441 0.3282
vn -0.3282 0.9441 -0.0323
vn 0.1554 0.9441 -0.2908
vn 0.2549 0.9441 0.2092
vn -0.2549 0.9441 0.2092
vn -0.1554 0.9441 -0.2908
vn 0.3282 0.9441 -0.0323
vn -0.0323 0.9441 0.3282
vn -0.3155 0.9441 -0.0957
vn 0.2092 0.9441 -0.2549
vn 0.2092 0.9441 0.2549
vn -0.2908 0.9441 0.1554
vn -0.0957 0.9441 -0.3155
vn 0.3282 0.9441 0.0323
vn -0.0957 0.9441 0.3155
vn -0.6300 -0.1179 0.7676
vn 0.4387 0.7224 -0.5346
vn -0.2007 0.7224 -0.6617
vn -0.2007 0.7224 0.6617
vn 0.5346 0.7224 -0.4387
vn -0.0678 0.7224 -0.6882
vn -0.3260 0.7224 0.6099
vn 0.6099 0.7224 -0.3260
vn -0.4387 0.7224 0.5346
vn 0.6617 0.7224 -0.2007
vn -0.5346 0.7224 0.4387
vn 0.6882 0.7224 -0.0678
vn -0.6099 0.7224 0.3260
vn 0.6882 0.7224 0.0678
vn -0.6617 0.7224 0.2007
vn 0.6617 0.7224 0.2007
vn -0.6882 0.7224 0.0678
vn 0.6099 0.7224 0.3260
vn -0.6882 0.7224 -0.0678
vn 0.5346 0.7224 0.4387
vn -0.6617 0.7224 -0.2007
vn 0.4387 0.7224 0.5346
vn -0.6099 0.7224 -0.3260
vn 0.3260 0.7224 0.6099
vn 0.0678 0.7224 -0.6882
vn -0.5346 0.7224 -0.4387
vn 0.2007 0.7224 0.6617
vn 0.2007 0.7224 -0.6617
vn -0.4387 0.7224 -0.5346
vn 0.0678 0.7224 0.6882
vn 0.3260 0.7224 -0.6099
vn -0.3260 0.7224 -0.6099
vn -0.9368 -0.2042 0.2842
vn 0.9503 -0.1179 -0.2883
vn -0.7676 -0.1179 0.6300
vn 0.9882 -0.1179 -0.0973
vn -0.8758 -0.1179 0.4681
vn 0.9882 -0.1179 0.0973
vn -0.9503 -0.1179 0.2883
vn 0.9503 -0.1179 0.2883
vn -0.9882 -0.1179 0.0973
vn 0.8758 -0.1179 0.4681
vn -0.9882 -0.1179 -0.0973
vn 0.7676 -0.1179 0.6300
vn -0.9503 -0.1179 -0.2883
vn 0.6300 -0.1179 0.7676
vn -0.8758 -0.1179 -0.4681
vn 0.4681 -0.1179 0.8758
vn 0.0973 -0.1179 -0.9882
vn -0.7676 -0.1179 -0.6300
vn 0.2883 -0.1179 0.9503
vn 0.2883 -0.1179 -0.9503
vn -0.6300 -0.1179 -0.7676
vn 0.0973 -0.1179 0.9882
vn 0.4681 -0.1179 -0.8758
vn -0.4681 -0.1179 -0.8758
vn -0.0973 -0.1179 0.9882
vn 0.6300 -0.1179 -0.7676
vn -0.2883 -0.1179 -0.9503
vn -0.2883 -0.1179 0.9503
vn 0.7676 -0.1179 -0.6300
vn -0.0973 -0.1179 -0.9882
vn -0.4681 -0.1179 0.8758
vn 0.8758 -0.1179 -0.4681
vn -0.9510 -0.1112 -0.2885
vn 0.9368 -0.2042 0.2842
vn -0.9742 -0.2042 0.0960
vn 0.8633 -0.2042 0.4615
vn -0.9742 -0.2042 -0.0960
vn 0.7567 -0.2042 0.6210
vn -0.9368 -0.2042 -0.2842
vn 0.6210 -0.2042 0.7567
vn -0.8633 -0.2042 -0.4615
vn 0.4615 -0.2042 0.8633
vn 0.0960 -0.2042 -0.9742
vn -0.7567 -0.2042 -0.6210
vn 0.2842 -0.2042 0.9368
vn 0.2842 -0.2042 -0.9368
vn -0.6210 -0.2042 -0.7567
vn 0.0960 -0.2042 0.9742
vn 0.4615 -0.2042 -0.8633
vn -0.4615 -0.2042 -0.8633
vn -0.0960 -0.2042 0.9742
vn 0.6210 -0.2042 -0.7567
vn -0.2842 -0.2042 -0.9368
vn -0.2842 -0.2042 0.9368
vn 0.7567 -0.2042 -0.6210
vn -0.0960 -0.2042 -0.9742
vn -0.4615 -0.2042 0.8633
vn 0.8633 -0.2042 -0.4615
vn -0.6210 -0.2042 0.7567
vn 0.9368 -0.2042 -0.2842
vn -0.7567 -0.2042 0.6210
vn 0.9742 -0.2042 -0.0960
vn -0.8633 -0.2042 0.4615
vn 0.9742 -0.2042 0.0960
vn 0.2901 -0.0312 -0.9565
vn 0.6305 -0.1112 0.7682
vn -0.8765 -0.1112 -0.4685
vn 0.4685 -0.1112 0.8765
vn 0.0974 -0.1112 -0.9890
vn -0.7682 -0.1112 -0.6305
vn 0.2885 -0.1112 0.9510
vn 0.2885 -0.1112 -0.9510
vn -0.6305 -0.1112 -0.7682
vn 0.0974 -0.1112 0.9890
vn 0.4685 -0.1112 -0.8765
vn -0.4685 -0.1112 -0.8765
vn -0.0974 -0.1112 0.9890
vn 0.6305 -0.1112 -0.7682
vn -0.2885 -0.1112 -0.9510
vn -0.2885 -0.1112 0.9510
vn 0.7682 -0.1112 -0.6305
vn -0.0974 -0.1112 -0.9890
vn -0.4685 -0.1112 0.8765
vn 0.8765 -0.1112 -0.4685
vn -0.6305 -0.1112 0.7682
vn 0.9510 -0.1112 -0.2885
vn -0.7682 -0.1112 0.6305
vn 0.9890 -0.1112 -0.0974
vn -0.8765 -0.1112 0.4685
vn 0.9890 -0.1112 0.0974
vn -0.9510 -0.1112 0.2885
vn 0.9510 -0.1112 0.2885
vn -0.9890 -0.1112 0.0974
vn 0.8765 -0.1112 0.4685
vn -0.9890 -0.1112 -0.0974
vn 0.7682 -0.1112 0.6305
vn 0.0975 0.1047 0.9897
vn -0.6341 -0.0312 -0.7726
vn 0.0980 -0.0312 0.9947
vn 0.4712 -0.0312 -0.8815
vn -0.4712 -0.0312 -0.8815
vn -0.0980 -0.0312 0.9947
vn 0.6341 -0.0312 -0.7726
vn -0.2901 -0.0312 -0.9565
vn -0.2901 -0.0312 0.9565
vn 0.7726 -0.0312 -0.6341
vn -0.0980 -0.0312 -0.9947
vn -0.4712 -0.0312 0.8815
vn 0.8815 -0.0312 -0.4712
vn -0.6341 -0.0312 0.7726
vn 0.9565 -0.0312 -0.2901
vn -0.7726 -0.0312 0.6341
vn 0.9947 -0.0312 -0.0980
vn -0.8815 -0.0312 0.4712
vn 0.9947 -0.0312 0.0980
vn -0.9565 -0.0312 0.2901
vn 0.9565 -0.0312 0.2901
vn -0.9947 -0.0312 0.0980
vn 0.8815 -0.0312 0.4712
vn -0.9947 -0.0312 -0.0980
vn 0.7726 -0.0312 0.6341
vn -0.9565 -0.0312 -0.2901
vn 0.6341 -0.0312 0.7726
vn -0.8815 -0.0312 -0.4712
vn 0.4712 -0.0312 0.8815
vn 0.0980 -0.0312 -0.9947
vn -0.7726 -0.0312 -0.6341
vn 0.2901 -0.0312 0.9565
vn -0.0000 1.0000 -0.0000
vn 0.4688 0.1047 -0.8771
vn -0.8771 0.1047 0.4688
vn 0.6309 0.1047 -0.7688
vn -0.9517 0.1047 0.2887
vn 0.7688 0.1047 -0.6309
vn -0.9897 0.1047 0.0975
vn 0.8771 0.1047 -0.4688
vn -0.9897 0.1047 -0.0975
vn 0.9517 0.1047 -0.2887
vn -0.9517 0.1047 -0.2887
vn 0.9897 0.1047 -0.0975
vn -0.8771 0.1047 -0.4688
vn 0.9897 0.1047 0.0975
vn -0.7688 0.1047 -0.6309
vn 0.9517 0.1047 0.2887
vn -0.6309 0.1047 -0.7688
vn 0.8771 0.1047 0.4688
vn -0.4688 0.1047 -0.8771
vn -0.0975 0.1047 0.9897
vn 0.7688 0.1047 0.6309
vn -0.2887 0.1047 -0.9517
vn -0.2887 0.1047 0.9517
vn 0.6309 0.1047 0.7688
vn -0.0975 0.1047 -0.9897
vn -0.4688 0.1047 0.8771
vn 0.4688 0.1047 0.8771
vn 0.0975 0.1047 -0.9897
vn -0.6309 0.1047 0.7688
vn 0.2887 0.1047 0.9517
vn 0.2887 0.1047 -0.9517
vn -0.7688 0.1047 0.6309
vt 0.606859 0.619371
vt 0.224957 0.622075
vt 0.593979 0.618762
vt 0.228669 0.871907
vt 0.606824 0.599085
vt 0.228915 0.602179
vt 0.593946 0.599740
vt 0.235948 0.889481
vt 0.606859 0.579189
vt 0.236678 0.583437
vt 0.593979 0.581083
vt 0.246516 0.905297
vt 0.606964 0.560447
vt 0.247949 0.566570
vt 0.594078 0.563509
vt 0.259966 0.918748
vt 0.607135 0.543579
vt 0.262293 0.552226
vt 0.594238 0.547693
vt 0.275783 0.929316
vt 0.556585 0.674876
vt 0.607364 0.529235
vt 0.279160 0.540955
vt 0.594453 0.534242
vt 0.543674 0.670807
vt 0.293356 0.936595
vt 0.556355 0.658009
vt 0.297902 0.533192
vt 0.543459 0.654992
vt 0.312013 0.940306
vt 0.556185 0.639267
vt 0.317798 0.529235
vt 0.543299 0.637418
vt 0.331035 0.940306
vt 0.556080 0.619371
vt 0.338084 0.529235
vt 0.543200 0.618762
vt 0.349691 0.936595
vt 0.556044 0.599085
vt 0.357980 0.533192
vt 0.543167 0.599740
vt 0.367265 0.929316
vt 0.556080 0.579189
vt 0.376722 0.540955
vt 0.543200 0.581083
vt 0.383081 0.918748
vt 0.556185 0.560447
vt 0.393589 0.552226
vt 0.543299 0.563509
vt 0.396532 0.905297
vt 0.556355 0.543579
vt 0.407934 0.566570
vt 0.543459 0.547693
vt 0.407100 0.889481
vt 0.456315 0.775146
vt 0.556585 0.529235
vt 0.419204 0.583437
vt 0.543674 0.534242
vt 0.443403 0.771078
vt 0.414379 0.871907
vt 0.456085 0.758279
vt 0.426967 0.602179
vt 0.443188 0.755262
vt 0.418090 0.853251
vt 0.455914 0.739537
vt 0.430925 0.622075
vt 0.443028 0.737688
vt 0.418090 0.834229
vt 0.455809 0.719641
vt 0.430925 0.642361
vt 0.442930 0.719032
vt 0.414379 0.815572
vt 0.455774 0.699355
vt 0.426967 0.662257
vt 0.442896 0.700010
vt 0.407100 0.797999
vt 0.455809 0.679459
vt 0.419204 0.680999
vt 0.442930 0.681354
vt 0.396532 0.782182
vt 0.455914 0.660717
vt 0.407934 0.697866
vt 0.443028 0.663779
vt 0.383081 0.768732
vt 0.456085 0.643850
vt 0.393589 0.712211
vt 0.443188 0.647963
vt 0.367265 0.758164
vt 0.581975 0.674876
vt 0.456315 0.629505
vt 0.376722 0.723481
vt 0.443403 0.634512
vt 0.569064 0.670807
vt 0.349691 0.750884
vt 0.581745 0.658009
vt 0.357980 0.731244
vt 0.568848 0.654992
vt 0.331035 0.747173
vt 0.581574 0.639267
vt 0.338084 0.735202
vt 0.568688 0.637418
vt 0.312013 0.747173
vt 0.581469 0.619371
vt 0.317798 0.735202
vt 0.568590 0.618762
vt 0.293356 0.750884
vt 0.581434 0.599085
vt 0.297902 0.731244
vt 0.568557 0.599740
vt 0.275783 0.758164
vt 0.581469 0.579189
vt 0.279160 0.723481
vt 0.568590 0.581083
vt 0.259966 0.768732
vt 0.581574 0.560447
vt 0.262293 0.712211
vt 0.568688 0.563509
vt 0.246516 0.782182
vt 0.581745 0.543579
vt 0.247949 0.697866
vt 0.568848 0.547693
vt 0.235948 0.797998
vt 0.607364 0.674876
vt 0.581975 0.529235
vt 0.236678 0.680999
vt 0.569064 0.534242
vt 0.594453 0.670807
vt 0.228669 0.815572
vt 0.607135 0.658009
vt 0.228915 0.662257
vt 0.594238 0.654992
vt 0.224958 0.834229
vt 0.606964 0.639267
vt 0.224957 0.642361
vt 0.594078 0.637418
vt 0.224958 0.853251
vt 0.265198 0.873846
vt 0.260407 0.862279
vt 0.272154 0.884257
vt 0.281007 0.893110
vt 0.291417 0.900065
vt 0.302984 0.904857
vt 0.315264 0.907299
vt 0.327784 0.907299
vt 0.340063 0.904857
vt 0.351631 0.900065
vt 0.362041 0.893110
vt 0.370894 0.884257
vt 0.377850 0.873847
vt 0.382641 0.862279
vt 0.385083 0.850000
vt 0.385083 0.837480
vt 0.382641 0.825200
vt 0.377850 0.813633
vt 0.370894 0.803223
vt 0.362041 0.794370
vt 0.351631 0.787414
vt 0.340063 0.782623
vt 0.327784 0.780180
vt 0.315264 0.780180
vt 0.302984 0.782623
vt 0.291417 0.787414
vt 0.281007 0.794370
vt 0.272154 0.803223
vt 0.265198 0.813633
vt 0.260407 0.825200
vt 0.257964 0.837480
vt 0.257964 0.850000
vt 0.270744 0.870882
vt 0.078499 0.516962
vt 0.266425 0.860454
vt 0.067212 0.516982
vt 0.277015 0.880267
vt 0.089570 0.516982
vt 0.284997 0.888248
vt 0.099998 0.517040
vt 0.294382 0.894519
vt 0.109383 0.517135
vt 0.304810 0.898839
vt 0.117365 0.517263
vt 0.194672 0.517263
vt 0.315880 0.901041
vt 0.204057 0.517135
vt 0.327167 0.901041
vt 0.214485 0.517040
vt 0.338238 0.898839
vt 0.225555 0.516982
vt 0.348666 0.894519
vt 0.236842 0.516962
vt 0.358051 0.888248
vt 0.247913 0.516982
vt 0.366032 0.880267
vt 0.258341 0.517040
vt 0.372303 0.870882
vt 0.267726 0.517135
vt 0.376623 0.860454
vt 0.275708 0.517263
vt 0.511358 0.517263
vt 0.378825 0.849383
vt 0.520743 0.517135
vt 0.378825 0.838096
vt 0.531171 0.517040
vt 0.376623 0.827026
vt 0.542241 0.516982
vt 0.372303 0.816598
vt 0.553528 0.516962
vt 0.366032 0.807212
vt 0.564599 0.516982
vt 0.575027 0.517040
vt 0.358051 0.799231
vt 0.348666 0.792960
vt 0.584412 0.517135
vt 0.338238 0.788641
vt 0.592394 0.517263
vt 0.353015 0.517263
vt 0.327168 0.786439
vt 0.362400 0.517135
vt 0.315880 0.786439
vt 0.372828 0.517040
vt 0.304810 0.788641
vt 0.383898 0.516982
vt 0.294382 0.792960
vt 0.395185 0.516962
vt 0.284997 0.799231
vt 0.406256 0.516982
vt 0.277015 0.807212
vt 0.416684 0.517040
vt 0.270744 0.816598
vt 0.426069 0.517135
vt 0.266425 0.827026
vt 0.434051 0.517263
vt 0.036329 0.517263
vt 0.264223 0.838096
vt 0.045714 0.517135
vt 0.264223 0.849383
vt 0.056142 0.517040
vt 0.078866 0.479999
vt 0.066716 0.480020
vt 0.090783 0.480020
vt 0.102008 0.480083
vt 0.112111 0.480186
vt 0.120702 0.480323
vt 0.191815 0.480323
vt 0.201918 0.480186
vt 0.213143 0.480083
vt 0.225059 0.480020
vt 0.237209 0.479999
vt 0.249126 0.480020
vt 0.260351 0.480083
vt 0.270454 0.480186
vt 0.279045 0.480323
vt 0.508501 0.480323
vt 0.518604 0.480186
vt 0.529829 0.480083
vt 0.541745 0.480020
vt 0.553895 0.479999
vt 0.565812 0.480020
vt 0.577037 0.480083
vt 0.587140 0.480186
vt 0.595731 0.480323
vt 0.350158 0.480323
vt 0.360261 0.480186
vt 0.371486 0.480083
vt 0.383402 0.480020
vt 0.395552 0.479999
vt 0.407469 0.480020
vt 0.418694 0.480083
vt 0.428797 0.480186
vt 0.437388 0.480323
vt 0.033472 0.480323
vt 0.043575 0.480186
vt 0.054800 0.480083
vt 0.080403 0.397947
vt 0.064893 0.397974
vt 0.095615 0.397974
vt 0.109944 0.398055
vt 0.122841 0.398185
vt 0.133808 0.398361
vt 0.180799 0.398361
vt 0.193695 0.398185
vt 0.208024 0.398055
vt 0.223236 0.397974
vt 0.238746 0.397947
vt 0.253958 0.397974
vt 0.268287 0.398055
vt 0.281184 0.398185
vt 0.292151 0.398361
vt 0.497485 0.398361
vt 0.510381 0.398185
vt 0.524710 0.398055
vt 0.539922 0.397974
vt 0.555432 0.397947
vt 0.570644 0.397974
vt 0.584973 0.398055
vt 0.597870 0.398185
vt 0.608837 0.398361
vt 0.339142 0.398361
vt 0.352038 0.398185
vt 0.366367 0.398055
vt 0.381579 0.397974
vt 0.397089 0.397947
vt 0.412301 0.397974
vt 0.426630 0.398055
vt 0.439527 0.398185
vt 0.450494 0.398361
vt 0.022456 0.398361
vt 0.035352 0.398185
vt 0.049681 0.398055
vt 0.081842 0.242338
vt 0.062909 0.242371
vt 0.100411 0.242371
vt 0.117903 0.242469
vt 0.133645 0.242628
vt 0.147033 0.242842
vt 0.169450 0.242842
vt 0.185192 0.242628
vt 0.202683 0.242469
vt 0.221252 0.242371
vt 0.240185 0.242338
vt 0.258754 0.242371
vt 0.276246 0.242469
vt 0.291988 0.242628
vt 0.305376 0.242842
vt 0.486136 0.242842
vt 0.501878 0.242628
vt 0.519369 0.242469
vt 0.537938 0.242371
vt 0.556871 0.242338
vt 0.575440 0.242371
vt 0.592932 0.242469
vt 0.608674 0.242628
vt 0.622062 0.242842
vt 0.327793 0.242842
vt 0.343535 0.242628
vt 0.361026 0.242469
vt 0.379595 0.242371
vt 0.398528 0.242338
vt 0.417097 0.242371
vt 0.434589 0.242469
vt 0.450331 0.242628
vt 0.463719 0.242842
vt 0.011107 0.242842
vt 0.026849 0.242628
vt 0.044340 0.242469
vt 0.137371 0.724657
vt 0.856878 0.493512
vt 0.118901 0.728331
vt 0.838047 0.493545
vt 0.154768 0.717451
vt 0.875347 0.493545
vt 0.170425 0.706989
vt 0.892745 0.493643
vt 0.183741 0.693674
vt 0.908403 0.493801
vt 0.921718 0.494014
vt 0.194203 0.678016
vt 0.639358 0.994014
vt 0.201409 0.660619
vt 0.655015 0.993801
vt 0.205083 0.642150
vt 0.672412 0.993643
vt 0.205083 0.623319
vt 0.690881 0.993545
vt 0.201409 0.604850
vt 0.709712 0.993512
vt 0.194203 0.587452
vt 0.728181 0.993545
vt 0.183741 0.571795
vt 0.745579 0.993643
vt 0.170425 0.558479
vt 0.761236 0.993801
vt 0.774552 0.994014
vt 0.154768 0.548018
vt 0.786524 0.994014
vt 0.137370 0.540811
vt 0.802181 0.993801
vt 0.118901 0.537138
vt 0.819578 0.993643
vt 0.100070 0.537138
vt 0.838047 0.993545
vt 0.081601 0.540811
vt 0.856878 0.993512
vt 0.064204 0.548018
vt 0.875347 0.993545
vt 0.048546 0.558480
vt 0.892745 0.993643
vt 0.035231 0.571795
vt 0.908403 0.993801
vt 0.921718 0.994014
vt 0.024769 0.587453
vt 0.639358 0.494014
vt 0.017563 0.604850
vt 0.655015 0.493801
vt 0.013889 0.623319
vt 0.672412 0.493643
vt 0.013889 0.642150
vt 0.690881 0.493545
vt 0.017563 0.660619
vt 0.709712 0.493512
vt 0.024769 0.678017
vt 0.728181 0.493545
vt 0.035231 0.693674
vt 0.745579 0.493643
vt 0.048547 0.706990
vt 0.761236 0.493801
vt 0.774552 0.494014
vt 0.064204 0.717451
vt 0.786524 0.494014
vt 0.081601 0.724658
vt 0.802181 0.493801
vt 0.819578 0.493643
vt 0.100071 0.728331
vt 0.082156 0.005986
vt 0.139676 0.732257
vt 0.061769 0.006021
vt 0.119680 0.736234
vt 0.102152 0.006021
vt 0.158512 0.724455
vt 0.120988 0.006127
vt 0.175463 0.713128
vt 0.137940 0.006299
vt 0.189880 0.698712
vt 0.152357 0.006529
vt 0.164329 0.006529
vt 0.201206 0.681760
vt 0.181280 0.006299
vt 0.209008 0.662924
vt 0.200116 0.006127
vt 0.212986 0.642928
vt 0.220111 0.006021
vt 0.212986 0.622540
vt 0.240499 0.005986
vt 0.209008 0.602544
vt 0.260495 0.006021
vt 0.201206 0.583709
vt 0.279331 0.006127
vt 0.189879 0.566757
vt 0.296283 0.006299
vt 0.175463 0.552341
vt 0.310700 0.006529
vt 0.481015 0.006529
vt 0.158511 0.541014
vt 0.497966 0.006299
vt 0.139675 0.533212
vt 0.516802 0.006127
vt 0.119679 0.529235
vt 0.536797 0.006021
vt 0.099292 0.529235
vt 0.557185 0.005986
vt 0.079296 0.533212
vt 0.577181 0.006021
vt 0.060460 0.541014
vt 0.596017 0.006127
vt 0.043508 0.552341
vt 0.612969 0.006299
vt 0.029092 0.566757
vt 0.627386 0.006529
vt 0.322672 0.006529
vt 0.017765 0.583709
vt 0.339623 0.006299
vt 0.009963 0.602545
vt 0.358459 0.006127
vt 0.005986 0.622541
vt 0.378455 0.006021
vt 0.005986 0.642929
vt 0.398842 0.005986
vt 0.009963 0.662925
vt 0.418838 0.006021
vt 0.017765 0.681760
vt 0.437674 0.006127
vt 0.029092 0.698712
vt 0.454626 0.006299
vt 0.043509 0.713128
vt 0.469043 0.006529
vt 0.005986 0.006529
vt 0.060460 0.724455
vt 0.022937 0.006299
vt 0.079296 0.732257
vt 0.041773 0.006127
vt 0.099292 0.736234
vt 0.521339 0.601527
vt 0.850958 0.005986
vt 0.515189 0.607677
vt 0.842262 0.006001
vt 0.526170 0.594296
vt 0.859488 0.006001
vt 0.529499 0.586262
vt 0.867523 0.006046
vt 0.531195 0.577732
vt 0.874754 0.006119
vt 0.531195 0.569035
vt 0.671301 0.506218
vt 0.880904 0.006218
vt 0.529498 0.560506
vt 0.678531 0.506119
vt 0.526170 0.552471
vt 0.686566 0.506046
vt 0.521339 0.545240
vt 0.695095 0.506001
vt 0.515189 0.539091
vt 0.703792 0.505986
vt 0.507958 0.534259
vt 0.712322 0.506001
vt 0.499924 0.530931
vt 0.720356 0.506046
vt 0.491394 0.529235
vt 0.727588 0.506119
vt 0.482697 0.529235
vt 0.733737 0.506218
vt 0.818467 0.506218
vt 0.474168 0.530931
vt 0.825697 0.506119
vt 0.466133 0.534259
vt 0.833732 0.506046
vt 0.458902 0.539091
vt 0.842261 0.506001
vt 0.452753 0.545240
vt 0.850958 0.505986
vt 0.447921 0.552471
vt 0.859488 0.506001
vt 0.444593 0.560506
vt 0.867522 0.506046
vt 0.442896 0.569036
vt 0.874754 0.506119
vt 0.442896 0.577732
vt 0.880903 0.506218
vt 0.671300 0.006218
vt 0.444593 0.586262
vt 0.678531 0.006119
vt 0.447921 0.594296
vt 0.686566 0.006046
vt 0.452753 0.601527
vt 0.695095 0.006001
vt 0.458902 0.607677
vt 0.703792 0.005986
vt 0.466133 0.612508
vt 0.712322 0.006001
vt 0.474168 0.615837
vt 0.720356 0.006046
vt 0.482698 0.617533
vt 0.727588 0.006119
vt 0.491394 0.617533
vt 0.733737 0.006218
vt 0.818467 0.006218
vt 0.499924 0.615837
vt 0.825698 0.006119
vt 0.507958 0.612508
vt 0.833732 0.006046
s 0
f 1/1/1 4/7/1 3/5/1
f 3/5/2 6/11/2 5/9/2
f 6/11/3 7/13/3 5/9/3
f 8/15/4 9/17/4 7/13/4
f 10/19/5 11/22/5 9/17/5
f 12/25/6 13/27/6 11/21/6
f 14/29/7 15/31/7 13/27/7
f 16/33/8 17/35/8 15/31/8
f 17/35/9 20/41/9 19/39/9
f 19/39/10 22/45/10 21/43/10
f 22/45/11 23/47/11 21/43/11
f 24/49/12 25/51/12 23/47/12
f 26/53/13 27/56/13 25/51/13
f 28/59/14 29/61/14 27/55/14
f 30/63/15 31/65/15 29/61/15
f 32/67/16 33/69/16 31/65/16
f 33/69/17 36/75/17 35/73/17
f 35/73/18 38/79/18 37/77/18
f 38/79/19 39/81/19 37/77/19
f 40/83/20 41/85/20 39/81/20
f 42/87/21 43/90/21 41/85/21
f 44/93/22 45/95/22 43/89/22
f 46/97/23 47/99/23 45/95/23
f 48/101/24 49/103/24 47/99/24
f 49/103/25 52/109/25 51/107/25
f 51/107/26 54/113/26 53/111/26
f 54/113/27 55/115/27 53/111/27
f 56/117/28 57/119/28 55/115/28
f 58/121/29 59/124/29 57/119/29
f 60/127/30 61/129/30 59/123/30
f 56/118/31 91/163/31 92/164/31
f 62/131/32 63/133/32 61/129/32
f 64/135/33 1/1/33 63/133/33
f 31/66/34 47/100/34 63/134/34
f 82/154/35 113/203/35 114/205/35
f 10/20/36 70/142/36 12/26/36
f 28/60/37 79/151/37 30/64/37
f 48/102/38 87/159/38 88/160/38
f 4/8/39 66/138/39 65/137/39
f 64/136/40 66/138/40 2/4/40
f 20/42/41 75/147/41 22/46/41
f 40/84/42 83/155/42 84/156/42
f 56/118/43 93/165/43 58/122/43
f 12/26/44 71/143/44 14/30/44
f 32/68/45 79/151/45 80/152/45
f 48/102/46 89/161/46 50/106/46
f 4/8/47 67/139/47 6/12/47
f 24/50/48 75/147/48 76/148/48
f 40/84/49 85/157/49 42/88/49
f 58/122/50 94/166/50 60/128/50
f 16/34/51 71/143/51 72/144/51
f 32/68/52 81/153/52 34/72/52
f 52/110/53 89/161/53 90/162/53
f 8/16/54 67/139/54 68/140/54
f 24/50/55 77/149/55 26/54/55
f 42/88/56 86/158/56 44/94/56
f 60/128/57 95/167/57 62/132/57
f 16/34/58 73/145/58 18/38/58
f 36/76/59 81/153/59 82/154/59
f 52/110/60 91/163/60 54/114/60
f 8/16/61 69/141/61 10/20/61
f 26/54/62 78/150/62 28/60/62
f 44/94/63 87/159/63 46/98/63
f 64/136/64 95/167/64 96/168/64
f 20/42/65 73/145/65 74/146/65
f 36/76/66 83/155/66 38/80/66
f 117/212/67 148/258/67 149/259/67
f 68/140/68 101/177/68 69/141/68
f 96/168/69 127/233/69 128/235/69
f 82/154/70 115/207/70 83/155/70
f 69/141/71 102/179/71 70/142/71
f 96/168/72 98/171/72 66/138/72
f 84/156/73 115/207/73 116/210/73
f 70/142/74 103/182/74 71/143/74
f 84/156/75 117/211/75 85/157/75
f 72/144/76 103/182/76 104/184/76
f 85/157/77 118/213/77 86/158/77
f 72/144/78 105/186/78 73/145/78
f 86/158/79 119/216/79 87/159/79
f 74/146/80 105/186/80 106/188/80
f 88/160/81 119/216/81 120/218/81
f 74/146/82 107/190/82 75/147/82
f 88/160/83 121/220/83 89/161/83
f 76/148/84 107/190/84 108/192/84
f 90/162/85 121/220/85 122/222/85
f 76/148/86 109/194/86 77/149/86
f 90/162/87 123/224/87 91/163/87
f 77/149/88 110/196/88 78/150/88
f 92/164/89 123/224/89 124/226/89
f 78/150/90 111/199/90 79/151/90
f 65/137/91 98/171/91 97/169/91
f 92/164/92 125/228/92 93/165/92
f 80/152/93 111/199/93 112/201/93
f 65/137/94 99/173/94 67/139/94
f 93/165/95 126/230/95 94/166/95
f 80/152/96 113/203/96 81/153/96
f 68/140/97 99/173/97 100/175/97
f 94/166/98 127/233/98 95/167/98
f 151/262/99 184/299/99 152/263/99
f 103/183/100 136/245/100 104/185/100
f 118/214/101 149/259/101 150/260/101
f 104/185/102 137/246/102 105/187/102
f 118/215/103 151/262/103 119/217/103
f 105/187/104 138/247/104 106/189/104
f 119/217/105 152/263/105 120/219/105
f 106/189/106 139/248/106 107/191/106
f 120/219/107 153/264/107 121/221/107
f 107/191/108 140/249/108 108/193/108
f 121/221/109 154/265/109 122/223/109
f 109/195/110 140/249/110 141/250/110
f 122/223/111 155/266/111 123/225/111
f 110/197/112 141/250/112 142/251/112
f 124/227/113 155/266/113 156/267/113
f 110/198/114 143/253/114 111/200/114
f 98/172/115 129/237/115 97/170/115
f 125/229/116 156/267/116 157/268/116
f 111/200/117 144/254/117 112/202/117
f 97/170/118 131/239/118 99/174/118
f 126/231/119 157/268/119 158/269/119
f 112/202/120 145/255/120 113/204/120
f 99/174/121 132/240/121 100/176/121
f 126/232/122 159/271/122 127/234/122
f 113/204/123 146/256/123 114/206/123
f 101/178/124 132/240/124 133/241/124
f 127/234/125 160/272/125 128/236/125
f 114/206/126 147/257/126 115/208/126
f 102/180/127 133/241/127 134/242/127
f 128/236/128 130/238/128 98/172/128
f 115/208/129 148/258/129 116/209/129
f 103/183/130 134/243/130 135/244/130
f 186/301/131 219/338/131 187/302/131
f 139/248/132 170/283/132 171/284/132
f 153/264/133 184/299/133 185/300/133
f 139/248/134 172/285/134 140/249/134
f 153/264/135 186/301/135 154/265/135
f 140/249/136 173/286/136 141/250/136
f 155/266/137 186/301/137 187/302/137
f 141/250/138 174/287/138 142/251/138
f 155/266/139 188/303/139 156/267/139
f 143/253/140 174/288/140 175/289/140
f 130/238/141 161/273/141 129/237/141
f 156/267/142 189/304/142 157/268/142
f 143/253/143 176/290/143 144/254/143
f 129/237/144 163/275/144 131/239/144
f 157/268/145 190/305/145 158/269/145
f 145/255/146 176/290/146 177/291/146
f 131/239/147 164/276/147 132/240/147
f 159/271/148 190/306/148 191/307/148
f 145/255/149 178/292/149 146/256/149
f 133/241/150 164/276/150 165/277/150
f 159/271/151 192/308/151 160/272/151
f 147/257/152 178/292/152 179/293/152
f 133/241/153 166/278/153 134/242/153
f 130/238/154 192/308/154 162/274/154
f 147/257/155 180/294/155 148/258/155
f 135/244/156 166/279/156 167/280/156
f 148/258/157 181/295/157 149/259/157
f 135/244/158 168/281/158 136/245/158
f 150/260/159 181/295/159 182/296/159
f 137/246/160 168/281/160 169/282/160
f 151/262/161 182/297/161 183/298/161
f 137/246/162 170/283/162 138/247/162
f 193/309/163 259/417/163 195/311/163
f 173/286/164 206/323/164 174/287/164
f 187/302/165 220/339/165 188/303/165
f 174/288/166 207/325/166 175/289/166
f 162/274/167 193/309/167 161/273/167
f 188/303/168 221/340/168 189/304/168
f 175/289/169 208/326/169 176/290/169
f 161/273/170 195/311/170 163/275/170
f 189/304/171 222/341/171 190/305/171
f 176/290/172 209/327/172 177/291/172
f 163/275/173 196/312/173 164/276/173
f 190/306/174 223/343/174 191/307/174
f 177/291/175 210/328/175 178/292/175
f 164/276/176 197/313/176 165/277/176
f 191/307/177 224/344/177 192/308/177
f 178/292/178 211/329/178 179/293/178
f 165/277/179 198/314/179 166/278/179
f 192/308/180 194/310/180 162/274/180
f 179/293/181 212/330/181 180/294/181
f 166/279/182 199/316/182 167/280/182
f 180/294/183 213/331/183 181/295/183
f 167/280/184 200/317/184 168/281/184
f 181/295/185 214/332/185 182/296/185
f 168/281/186 201/318/186 169/282/186
f 183/298/187 214/333/187 215/334/187
f 169/282/188 202/319/188 170/283/188
f 183/298/189 216/335/189 184/299/189
f 170/283/190 203/320/190 171/284/190
f 184/299/191 217/336/191 185/300/191
f 171/284/192 204/321/192 172/285/192
f 185/300/193 218/337/193 186/301/193
f 173/286/194 204/321/194 205/322/194
f 256/411/195 290/484/195 226/348/195
f 222/341/196 285/472/196 286/474/196
f 208/326/197 273/447/197 209/327/197
f 195/311/198 260/419/198 196/312/198
f 222/342/199 287/477/199 223/343/199
f 209/327/200 274/449/200 210/328/200
f 196/312/201 261/421/201 197/313/201
f 223/343/202 288/479/202 224/344/202
f 210/328/203 275/451/203 211/329/203
f 197/313/204 262/423/204 198/314/204
f 224/344/205 258/415/205 194/310/205
f 211/329/206 276/453/206 212/330/206
f 198/315/207 263/426/207 199/316/207
f 212/330/208 277/455/208 213/331/208
f 199/316/209 264/428/209 200/317/209
f 213/331/210 278/457/210 214/332/210
f 200/317/211 265/430/211 201/318/211
f 214/333/212 279/460/212 215/334/212
f 201/318/213 266/432/213 202/319/213
f 215/334/214 280/462/214 216/335/214
f 202/319/215 267/434/215 203/320/215
f 216/335/216 281/464/216 217/336/216
f 203/320/217 268/436/217 204/321/217
f 218/337/218 281/464/218 282/466/218
f 204/321/219 269/438/219 205/322/219
f 218/337/220 283/468/220 219/338/220
f 205/322/221 270/440/221 206/323/221
f 219/338/222 284/470/222 220/339/222
f 206/324/223 271/443/223 207/325/223
f 194/310/224 257/413/224 193/309/224
f 220/339/225 285/472/225 221/340/225
f 207/325/226 272/445/226 208/326/226
f 226/347/227 257/414/227 258/416/227
f 227/349/227 257/414/227 225/345/227
f 227/349/227 260/420/227 259/418/227
f 228/351/227 261/422/227 260/420/227
f 229/353/227 262/425/227 261/422/227
f 231/358/227 262/425/227 230/356/227
f 231/358/227 264/429/227 263/427/227
f 233/362/227 264/429/227 232/360/227
f 233/362/227 266/433/227 265/431/227
f 235/366/227 266/433/227 234/364/227
f 236/368/227 267/435/227 235/366/227
f 237/370/227 268/437/227 236/368/227
f 238/373/227 269/439/227 237/370/227
f 239/375/227 270/442/227 238/373/227
f 239/375/227 272/446/227 271/444/227
f 241/379/227 272/446/227 240/377/227
f 241/379/227 274/450/227 273/448/227
f 243/383/227 274/450/227 242/381/227
f 243/383/227 276/454/227 275/452/227
f 245/387/227 276/454/227 244/385/227
f 246/390/227 277/456/227 245/387/227
f 247/392/227 278/459/227 246/390/227
f 248/394/227 279/461/227 247/392/227
f 249/396/227 280/463/227 248/394/227
f 249/396/227 282/467/227 281/465/227
f 250/398/227 283/469/227 282/467/227
f 252/402/227 283/469/227 251/400/227
f 252/402/227 285/473/227 284/471/227
f 253/404/227 286/476/227 285/473/227
f 255/409/227 286/476/227 254/407/227
f 255/409/227 288/480/227 287/478/227
f 226/347/227 288/480/227 256/412/227
f 307/519/227 299/502/227 291/485/227
f 243/384/228 308/522/228 244/386/228
f 230/357/229 295/495/229 231/359/229
f 244/386/230 309/524/230 245/388/230
f 231/359/231 296/497/231 232/361/231
f 245/388/232 310/526/232 246/389/232
f 233/363/233 296/497/233 297/499/233
f 246/391/234 311/529/234 247/393/234
f 233/363/235 298/501/235 234/365/235
f 247/393/236 312/531/236 248/395/236
f 234/365/237 299/503/237 235/367/237
f 248/395/238 313/533/238 249/397/238
f 235/367/239 300/505/239 236/369/239
f 249/397/240 314/535/240 250/399/240
f 236/369/241 301/507/241 237/371/241
f 250/399/242 315/537/242 251/401/242
f 237/371/243 302/509/243 238/372/243
f 251/401/244 316/539/244 252/403/244
f 238/374/245 303/512/245 239/376/245
f 226/348/246 289/482/246 225/346/246
f 252/403/247 317/541/247 253/405/247
f 239/376/248 304/514/248 240/378/248
f 225/346/249 291/486/249 227/350/249
f 253/405/250 318/543/250 254/406/250
f 240/378/251 305/516/251 241/380/251
f 227/350/252 292/488/252 228/352/252
f 254/408/253 319/546/253 255/410/253
f 241/380/254 306/518/254 242/382/254
f 228/352/255 293/490/255 229/354/255
f 255/410/256 320/548/256 256/411/256
f 242/382/257 307/520/257 243/384/257
f 229/354/258 294/493/258 230/355/258
f 1/1/1 2/3/1 4/7/1
f 3/5/2 4/7/2 6/11/2
f 6/11/3 8/15/3 7/13/3
f 8/15/4 10/19/4 9/17/4
f 10/19/5 12/24/5 11/22/5
f 12/25/6 14/29/6 13/27/6
f 14/29/7 16/33/7 15/31/7
f 16/33/8 18/37/8 17/35/8
f 17/35/9 18/37/9 20/41/9
f 19/39/10 20/41/10 22/45/10
f 22/45/11 24/49/11 23/47/11
f 24/49/12 26/53/12 25/51/12
f 26/53/13 28/58/13 27/56/13
f 28/59/14 30/63/14 29/61/14
f 30/63/15 32/67/15 31/65/15
f 32/67/16 34/71/16 33/69/16
f 33/69/17 34/71/17 36/75/17
f 35/73/18 36/75/18 38/79/18
f 38/79/19 40/83/19 39/81/19
f 40/83/20 42/87/20 41/85/20
f 42/87/21 44/92/21 43/90/21
f 44/93/22 46/97/22 45/95/22
f 46/97/23 48/101/23 47/99/23
f 48/101/24 50/105/24 49/103/24
f 49/103/25 50/105/25 52/109/25
f 51/107/26 52/109/26 54/113/26
f 54/113/27 56/117/27 55/115/27
f 56/117/28 58/121/28 57/119/28
f 58/121/29 60/126/29 59/124/29
f 60/127/30 62/131/30 61/129/30
f 56/118/31 54/114/31 91/163/31
f 62/131/32 64/135/32 63/133/32
f 64/135/33 2/3/33 1/1/33
f 63/134/34 1/2/34 3/6/34
f 3/6/34 5/10/34 7/14/34
f 7/14/34 9/18/34 11/23/34
f 11/23/34 13/28/34 15/32/34
f 15/32/34 17/36/34 19/40/34
f 19/40/34 21/44/34 23/48/34
f 23/48/34 25/52/34 27/57/34
f 27/57/34 29/62/34 31/66/34
f 31/66/34 33/70/34 35/74/34
f 35/74/34 37/78/34 39/82/34
f 39/82/34 41/86/34 43/91/34
f 43/91/34 45/96/34 47/100/34
f 47/100/34 49/104/34 51/108/34
f 51/108/34 53/112/34 55/116/34
f 55/116/34 57/120/34 59/125/34
f 59/125/34 61/130/34 63/134/34
f 63/134/34 3/6/34 7/14/34
f 7/14/34 11/23/34 15/32/34
f 15/32/34 19/40/34 23/48/34
f 23/48/34 27/57/34 31/66/34
f 31/66/34 35/74/34 39/82/34
f 39/82/34 43/91/34 47/100/34
f 47/100/34 51/108/34 55/116/34
f 55/116/34 59/125/34 63/134/34
f 63/134/34 7/14/34 15/32/34
f 15/32/34 23/48/34 31/66/34
f 31/66/34 39/82/34 47/100/34
f 47/100/34 55/116/34 63/134/34
f 63/134/34 15/32/34 31/66/34
f 82/154/35 81/153/35 113/203/35
f 10/20/36 69/141/36 70/142/36
f 28/60/37 78/150/37 79/151/37
f 48/102/38 46/98/38 87/159/38
f 4/8/39 2/4/39 66/138/39
f 64/136/40 96/168/40 66/138/40
f 20/42/41 74/146/41 75/147/41
f 40/84/42 38/80/42 83/155/42
f 56/118/43 92/164/43 93/165/43
f 12/26/44 70/142/44 71/143/44
f 32/68/45 30/64/45 79/151/45
f 48/102/46 88/160/46 89/161/46
f 4/8/47 65/137/47 67/139/47
f 24/50/48 22/46/48 75/147/48
f 40/84/49 84/156/49 85/157/49
f 58/122/50 93/165/50 94/166/50
f 16/34/51 14/30/51 71/143/51
f 32/68/52 80/152/52 81/153/52
f 52/110/53 50/106/53 89/161/53
f 8/16/54 6/12/54 67/139/54
f 24/50/55 76/148/55 77/149/55
f 42/88/56 85/157/56 86/158/56
f 60/128/57 94/166/57 95/167/57
f 16/34/58 72/144/58 73/145/58
f 36/76/59 34/72/59 81/153/59
f 52/110/60 90/162/60 91/163/60
f 8/16/61 68/140/61 69/141/61
f 26/54/62 77/149/62 78/150/62
f 44/94/63 86/158/63 87/159/63
f 64/136/64 62/132/64 95/167/64
f 20/42/65 18/38/65 73/145/65
f 36/76/66 82/154/66 83/155/66
f 117/212/67 116/209/67 148/258/67
f 68/140/68 100/175/68 101/177/68
f 96/168/69 95/167/69 127/233/69
f 82/154/70 114/205/70 115/207/70
f 69/141/71 101/177/71 102/179/71
f 96/168/72 128/235/72 98/171/72
f 84/156/73 83/155/73 115/207/73
f 70/142/74 102/179/74 103/182/74
f 84/156/75 116/210/75 117/211/75
f 72/144/76 71/143/76 103/182/76
f 85/157/77 117/211/77 118/213/77
f 72/144/78 104/184/78 105/186/78
f 86/158/79 118/213/79 119/216/79
f 74/146/80 73/145/80 105/186/80
f 88/160/81 87/159/81 119/216/81
f 74/146/82 106/188/82 107/190/82
f 88/160/83 120/218/83 121/220/83
f 76/148/84 75/147/84 107/190/84
f 90/162/85 89/161/85 121/220/85
f 76/148/86 108/192/86 109/194/86
f 90/162/87 122/222/87 123/224/87
f 77/149/88 109/194/88 110/196/88
f 92/164/89 91/163/89 123/224/89
f 78/150/90 110/196/90 111/199/90
f 65/137/91 66/138/91 98/171/91
f 92/164/92 124/226/92 125/228/92
f 80/152/93 79/151/93 111/199/93
f 65/137/94 97/169/94 99/173/94
f 93/165/95 125/228/95 126/230/95
f 80/152/96 112/201/96 113/203/96
f 68/140/97 67/139/97 99/173/97
f 94/166/98 126/230/98 127/233/98
f 151/262/99 183/298/99 184/299/99
f 103/183/100 135/244/100 136/245/100
f 118/214/101 117/212/101 149/259/101
f 104/185/102 136/245/102 137/246/102
f 118/215/103 150/261/103 151/262/103
f 105/187/104 137/246/104 138/247/104
f 119/217/105 151/262/105 152/263/105
f 106/189/106 138/247/106 139/248/106
f 120/219/107 152/263/107 153/264/107
f 107/191/108 139/248/108 140/249/108
f 121/221/109 153/264/109 154/265/109
f 109/195/110 108/193/110 140/249/110
f 122/223/111 154/265/111 155/266/111
f 110/197/112 109/195/112 141/250/112
f 124/227/113 123/225/113 155/266/113
f 110/198/114 142/252/114 143/253/114
f 98/172/115 130/238/115 129/237/115
f 125/229/116 124/227/116 156/267/116
f 111/200/117 143/253/117 144/254/117
f 97/170/118 129/237/118 131/239/118
f 126/231/119 125/229/119 157/268/119
f 112/202/120 144/254/120 145/255/120
f 99/174/121 131/239/121 132/240/121
f 126/232/122 158/270/122 159/271/122
f 113/204/123 145/255/123 146/256/123
f 101/178/124 100/176/124 132/240/124
f 127/234/125 159/271/125 160/272/125
f 114/206/126 146/256/126 147/257/126
f 102/180/127 101/178/127 133/241/127
f 128/236/128 160/272/128 130/238/128
f 115/208/129 147/257/129 148/258/129
f 103/183/130 102/181/130 134/243/130
f 186/301/131 218/337/131 219/338/131
f 139/248/132 138/247/132 170/283/132
f 153/264/133 152/263/133 184/299/133
f 139/248/134 171/284/134 172/285/134
f 153/264/135 185/300/135 186/301/135
f 140/249/136 172/285/136 173/286/136
f 155/266/137 154/265/137 186/301/137
f 141/250/138 173/286/138 174/287/138
f 155/266/139 187/302/139 188/303/139
f 143/253/140 142/252/140 174/288/140
f 130/238/141 162/274/141 161/273/141
f 156/267/142 188/303/142 189/304/142
f 143/253/143 175/289/143 176/290/143
f 129/237/144 161/273/144 163/275/144
f 157/268/145 189/304/145 190/305/145
f 145/255/146 144/254/146 176/290/146
f 131/239/147 163/275/147 164/276/147
f 159/271/148 158/270/148 190/306/148
f 145/255/149 177/291/149 178/292/149
f 133/241/150 132/240/150 164/276/150
f 159/271/151 191/307/151 192/308/151
f 147/257/152 146/256/152 178/292/152
f 133/241/153 165/277/153 166/278/153
f 130/238/154 160/272/154 192/308/154
f 147/257/155 179/293/155 180/294/155
f 135/244/156 134/243/156 166/279/156
f 148/258/157 180/294/157 181/295/157
f 135/244/158 167/280/158 168/281/158
f 150/260/159 149/259/159 181/295/159
f 137/246/160 136/245/160 168/281/160
f 151/262/161 150/261/161 182/297/161
f 137/246/162 169/282/162 170/283/162
f 193/309/163 257/413/163 259/417/163
f 173/286/164 205/322/164 206/323/164
f 187/302/165 219/338/165 220/339/165
f 174/288/166 206/324/166 207/325/166
f 162/274/167 194/310/167 193/309/167
f 188/303/168 220/339/168 221/340/168
f 175/289/169 207/325/169 208/326/169
f 161/273/170 193/309/170 195/311/170
f 189/304/171 221/340/171 222/341/171
f 176/290/172 208/326/172 209/327/172
f 163/275/173 195/311/173 196/312/173
f 190/306/174 222/342/174 223/343/174
f 177/291/175 209/327/175 210/328/175
f 164/276/176 196/312/176 197/313/176
f 191/307/177 223/343/177 224/344/177
f 178/292/178 210/328/178 211/329/178
f 165/277/179 197/313/179 198/314/179
f 192/308/180 224/344/180 194/310/180
f 179/293/181 211/329/181 212/330/181
f 166/279/182 198/315/182 199/316/182
f 180/294/183 212/330/183 213/331/183
f 167/280/184 199/316/184 200/317/184
f 181/295/185 213/331/185 214/332/185
f 168/281/186 200/317/186 201/318/186
f 183/298/187 182/297/187 214/333/187
f 169/282/188 201/318/188 202/319/188
f 183/298/189 215/334/189 216/335/189
f 170/283/190 202/319/190 203/320/190
f 184/299/191 216/335/191 217/336/191
f 171/284/192 203/320/192 204/321/192
f 185/300/193 217/336/193 218/337/193
f 173/286/194 172/285/194 204/321/194
f 256/411/195 320/548/195 290/484/195
f 222/341/196 221/340/196 285/472/196
f 208/326/197 272/445/197 273/447/197
f 195/311/198 259/417/198 260/419/198
f 222/342/199 286/475/199 287/477/199
f 209/327/200 273/447/200 274/449/200
f 196/312/201 260/419/201 261/421/201
f 223/343/202 287/477/202 288/479/202
f 210/328/203 274/449/203 275/451/203
f 197/313/204 261/421/204 262/423/204
f 224/344/205 288/479/205 258/415/205
f 211/329/206 275/451/206 276/453/206
f 198/315/207 262/424/207 263/426/207
f 212/330/208 276/453/208 277/455/208
f 199/316/209 263/426/209 264/428/209
f 213/331/210 277/455/210 278/457/210
f 200/317/211 264/428/211 265/430/211
f 214/333/212 278/458/212 279/460/212
f 201/318/213 265/430/213 266/432/213
f 215/334/214 279/460/214 280/462/214
f 202/319/215 266/432/215 267/434/215
f 216/335/216 280/462/216 281/464/216
f 203/320/217 267/434/217 268/436/217
f 218/337/218 217/336/218 281/464/218
f 204/321/219 268/436/219 269/438/219
f 218/337/220 282/466/220 283/468/220
f 205/322/221 269/438/221 270/440/221
f 219/338/222 283/468/222 284/470/222
f 206/324/223 270/441/223 271/443/223
f 194/310/224 258/415/224 257/413/224
f 220/339/225 284/470/225 285/472/225
f 207/325/226 271/443/226 272/445/226
f 226/347/227 225/345/227 257/414/227
f 227/349/227 259/418/227 257/414/227
f 227/349/227 228/351/227 260/420/227
f 228/351/227 229/353/227 261/422/227
f 229/353/227 230/356/227 262/425/227
f 231/358/227 263/427/227 262/425/227
f 231/358/227 232/360/227 264/429/227
f 233/362/227 265/431/227 264/429/227
f 233/362/227 234/364/227 266/433/227
f 235/366/227 267/435/227 266/433/227
f 236/368/227 268/437/227 267/435/227
f 237/370/227 269/439/227 268/437/227
f 238/373/227 270/442/227 269/439/227
f 239/375/227 271/444/227 270/442/227
f 239/375/227 240/377/227 272/446/227
f 241/379/227 273/448/227 272/446/227
f 241/379/227 242/381/227 274/450/227
f 243/383/227 275/452/227 274/450/227
f 243/383/227 244/385/227 276/454/227
f 245/387/227 277/456/227 276/454/227
f 246/390/227 278/459/227 277/456/227
f 247/392/227 279/461/227 278/459/227
f 248/394/227 280/463/227 279/461/227
f 249/396/227 281/465/227 280/463/227
f 249/396/227 250/398/227 282/467/227
f 250/398/227 251/400/227 283/469/227
f 252/402/227 284/471/227 283/469/227
f 252/402/227 253/404/227 285/473/227
f 253/404/227 254/407/227 286/476/227
f 255/409/227 287/478/227 286/476/227
f 255/409/227 256/412/227 288/480/227
f 226/347/227 258/416/227 288/480/227
f 291/485/227 289/481/227 290/483/227
f 290/483/227 320/547/227 319/545/227
f 319/545/227 318/542/227 317/540/227
f 317/540/227 316/538/227 315/536/227
f 315/536/227 314/534/227 313/532/227
f 313/532/227 312/530/227 311/528/227
f 311/528/227 310/525/227 309/523/227
f 309/523/227 308/521/227 307/519/227
f 307/519/227 306/517/227 305/515/227
f 305/515/227 304/513/227 303/511/227
f 303/511/227 302/508/227 301/506/227
f 301/506/227 300/504/227 299/502/227
f 299/502/227 298/500/227 297/498/227
f 297/498/227 296/496/227 295/494/227
f 295/494/227 294/491/227 293/489/227
f 293/489/227 292/487/227 291/485/227
f 291/485/227 290/483/227 319/545/227
f 319/545/227 317/540/227 315/536/227
f 315/536/227 313/532/227 311/528/227
f 311/528/227 309/523/227 307/519/227
f 307/519/227 305/515/227 303/511/227
f 303/511/227 301/506/227 299/502/227
f 299/502/227 297/498/227 295/494/227
f 295/494/227 293/489/227 291/485/227
f 291/485/227 319/545/227 315/536/227
f 315/536/227 311/528/227 307/519/227
f 307/519/227 303/511/227 299/502/227
f 299/502/227 295/494/227 291/485/227
f 291/485/227 315/536/227 307/519/227
f 243/384/228 307/520/228 308/522/228
f 230/357/229 294/492/229 295/495/229
f 244/386/230 308/522/230 309/524/230
f 231/359/231 295/495/231 296/497/231
f 245/388/232 309/524/232 310/526/232
f 233/363/233 232/361/233 296/497/233
f 246/391/234 310/527/234 311/529/234
f 233/363/235 297/499/235 298/501/235
f 247/393/236 311/529/236 312/531/236
f 234/365/237 298/501/237 299/503/237
f 248/395/238 312/531/238 313/533/238
f 235/367/239 299/503/239 300/505/239
f 249/397/240 313/533/240 314/535/240
f 236/369/241 300/505/241 301/507/241
f 250/399/242 314/535/242 315/537/242
f 237/371/243 301/507/243 302/509/243
f 251/401/244 315/537/244 316/539/244
f 238/374/245 302/510/245 303/512/245
f 226/348/246 290/484/246 289/482/246
f 252/403/247 316/539/247 317/541/247
f 239/376/248 303/512/248 304/514/248
f 225/346/249 289/482/249 291/486/249
f 253/405/250 317/541/250 318/543/250
f 240/378/251 304/514/251 305/516/251
f 227/350/252 291/486/252 292/488/252
f 254/408/253 318/544/253 319/546/253
f 241/380/254 305/516/254 306/518/254
f 228/352/255 292/488/255 293/490/255
f 255/410/256 319/546/256 320/548/256
f 242/382/257 306/518/257 307/520/257
f 229/354/258 293/490/258 294/493/258
