# Blender 3.3.1
# www.blender.org
o big_glass
v -0.000000 0.027071 -0.106083
v 0.000000 1.085965 -0.279598
v 0.020696 0.027071 -0.104044
v 0.054547 1.085965 -0.274225
v 0.040596 0.027071 -0.098008
v 0.106997 1.085965 -0.258314
v 0.058936 0.027071 -0.088205
v 0.155336 1.085965 -0.232477
v 0.075012 0.027071 -0.075012
v 0.197705 1.085965 -0.197705
v 0.088205 0.027071 -0.058936
v 0.232477 1.085965 -0.155336
v 0.098008 0.027071 -0.040596
v 0.258314 1.085965 -0.106997
v 0.104044 0.027071 -0.020696
v 0.274225 1.085965 -0.054547
v 0.106083 0.027071 0.000000
v 0.279597 1.085965 -0.000000
v 0.104044 0.027071 0.020696
v 0.274225 1.085965 0.054547
v 0.098008 0.027071 0.040596
v 0.258314 1.085965 0.106997
v 0.088205 0.027071 0.058936
v 0.232477 1.085965 0.155336
v 0.075012 0.027071 0.075012
v 0.197705 1.085965 0.197705
v 0.058936 0.027071 0.088205
v 0.155336 1.085965 0.232477
v 0.040596 0.027071 0.098008
v 0.106997 1.085965 0.258314
v 0.020696 0.027071 0.104044
v 0.054547 1.085965 0.274225
v -0.000000 0.027071 0.106083
v 0.000000 1.085965 0.279597
v -0.020696 0.027071 0.104044
v -0.054547 1.085965 0.274225
v -0.040596 0.027071 0.098008
v -0.106997 1.085965 0.258314
v -0.058936 0.027071 0.088205
v -0.155336 1.085965 0.232477
v -0.075012 0.027071 0.075012
v -0.197705 1.085965 0.197705
v -0.088205 0.027071 0.058936
v -0.232477 1.085965 0.155336
v -0.098008 0.027071 0.040596
v -0.258314 1.085965 0.106997
v -0.104044 0.027071 0.020696
v -0.274225 1.085965 0.054547
v -0.106083 0.027071 0.000000
v -0.279597 1.085965 -0.000000
v -0.104044 0.027071 -0.020696
v -0.274225 1.085965 -0.054547
v -0.098008 0.027071 -0.040596
v -0.258314 1.085965 -0.106997
v -0.088205 0.027071 -0.058936
v -0.232477 1.085965 -0.155336
v -0.075012 0.027071 -0.075012
v -0.197705 1.085965 -0.197705
v -0.058936 0.027071 -0.088205
v -0.155336 1.085965 -0.232477
v -0.040596 0.027071 -0.098008
v -0.106997 1.085965 -0.258314
v -0.020696 0.027071 -0.104044
v -0.054547 1.085965 -0.274225
v 0.061838 1.085965 -0.310879
v 0.000000 1.085965 -0.316969
v 0.121299 1.085965 -0.292841
v 0.176099 1.085965 -0.263550
v 0.224131 1.085965 -0.224131
v 0.263550 1.085965 -0.176099
v 0.292841 1.085965 -0.121299
v 0.310878 1.085965 -0.061838
v 0.316969 1.085965 -0.000000
v 0.310878 1.085965 0.061838
v 0.292841 1.085965 0.121299
v 0.263550 1.085965 0.176098
v 0.224131 1.085965 0.224131
v 0.176099 1.085965 0.263550
v 0.121299 1.085965 0.292841
v 0.061838 1.085965 0.310878
v 0.000000 1.085965 0.316969
v -0.061838 1.085965 0.310878
v -0.121299 1.085965 0.292841
v -0.176098 1.085965 0.263550
v -0.224131 1.085965 0.224131
v -0.263550 1.085965 0.176098
v -0.292841 1.085965 0.121299
v -0.310878 1.085965 0.061838
v -0.316969 1.085965 -0.000000
v -0.310878 1.085965 -0.061838
v -0.292841 1.085965 -0.121299
v -0.263550 1.085965 -0.176099
v -0.224131 1.085965 -0.224131
v -0.176098 1.085965 -0.263550
v -0.121299 1.085965 -0.292841
v -0.061838 1.085965 -0.310879
v 0.048053 0.053208 -0.241577
v -0.000000 0.053208 -0.246310
v 0.094259 0.053208 -0.227561
v 0.136843 0.053208 -0.204799
v 0.174168 0.053208 -0.174168
v 0.204799 0.053208 -0.136843
v 0.227561 0.053208 -0.094259
v 0.241577 0.053208 -0.048053
v 0.246310 0.053208 0.000000
v 0.241577 0.053208 0.048053
v 0.227561 0.053208 0.094259
v 0.204799 0.053208 0.136843
v 0.174168 0.053208 0.174168
v 0.136843 0.053208 0.204799
v 0.094259 0.053208 0.227561
v 0.048053 0.053208 0.241577
v -0.000000 0.053208 0.246310
v -0.048053 0.053208 0.241577
v -0.094259 0.053208 0.227561
v -0.136843 0.053208 0.204799
v -0.174168 0.053208 0.174168
v -0.204799 0.053208 0.136843
v -0.227561 0.053208 0.094259
v -0.241577 0.053208 0.048053
v -0.246310 0.053208 0.000000
v -0.241577 0.053208 -0.048053
v -0.227561 0.053208 -0.094259
v -0.204799 0.053208 -0.136843
v -0.174168 0.053208 -0.174168
v -0.136843 0.053208 -0.204799
v -0.094259 0.053208 -0.227561
v -0.048053 0.053208 -0.241577
v 0.054476 0.001273 -0.273867
v 0.106858 0.001273 -0.257977
v 0.155133 0.001273 -0.232173
v 0.232173 0.001273 -0.155133
v 0.257977 0.001273 -0.106858
v 0.273867 0.001273 -0.054476
v 0.273867 0.001273 0.054476
v 0.257977 0.001273 0.106858
v 0.232173 0.001273 0.155133
v 0.155133 0.001273 0.232173
v 0.106858 0.001273 0.257977
v 0.054476 0.001273 0.273867
v -0.054476 0.001273 0.273867
v -0.106858 0.001273 0.257977
v -0.155133 0.001273 0.232173
v -0.232173 0.001273 0.155133
v -0.257977 0.001273 0.106858
v -0.273867 0.001273 0.054476
v -0.273867 0.001273 -0.054476
v -0.257977 0.001273 -0.106858
v -0.232173 0.001273 -0.155133
v -0.155133 0.001273 -0.232173
v -0.106858 0.001273 -0.257977
v -0.054476 0.001273 -0.273867
v 0.000000 0.001273 -0.232423
v 0.045343 0.001273 -0.227957
v 0.088944 0.001273 -0.214731
v 0.129127 0.001273 -0.193252
v 0.164348 0.001273 -0.164348
v 0.193252 0.001273 -0.129127
v 0.214731 0.001273 -0.088944
v 0.227957 0.001273 -0.045343
v 0.232423 0.001273 0.000000
v 0.227957 0.001273 0.045343
v 0.214731 0.001273 0.088944
v 0.193252 0.001273 0.129127
v 0.164348 0.001273 0.164348
v 0.129127 0.001273 0.193252
v 0.088944 0.001273 0.214731
v 0.045343 0.001273 0.227957
v 0.000000 0.001273 0.232423
v -0.045343 0.001273 0.227957
v -0.088944 0.001273 0.214731
v -0.129127 0.001273 0.193252
v -0.164348 0.001273 0.164348
v -0.193252 0.001273 0.129127
v -0.214731 0.001273 0.088944
v -0.227957 0.001273 0.045343
v -0.232423 0.001273 0.000000
v -0.227957 0.001273 -0.045343
v -0.214731 0.001273 -0.088944
v -0.193252 0.001273 -0.129127
v -0.164348 0.001273 -0.164348
v -0.129127 0.001273 -0.193252
v -0.088944 0.001273 -0.214731
v -0.045343 0.001273 -0.227957
v 0.060365 0.869027 -0.303476
v 0.058893 0.652088 -0.296074
v 0.057420 0.435150 -0.288672
v 0.055948 0.218212 -0.281269
v 0.118411 0.869027 -0.285868
v 0.115522 0.652088 -0.278895
v 0.112634 0.435150 -0.271923
v 0.109746 0.218212 -0.264950
v 0.171905 0.869027 -0.257275
v 0.167712 0.652088 -0.250999
v 0.163519 0.435150 -0.244724
v 0.159326 0.218212 -0.238449
v 0.257275 0.869027 -0.171906
v 0.250999 0.652088 -0.167712
v 0.244724 0.435150 -0.163519
v 0.238449 0.218212 -0.159326
v 0.285868 0.869027 -0.118411
v 0.278895 0.652088 -0.115522
v 0.271923 0.435150 -0.112634
v 0.264950 0.218212 -0.109746
v 0.303476 0.869027 -0.060365
v 0.296074 0.652088 -0.058893
v 0.288672 0.435150 -0.057420
v 0.281269 0.218212 -0.055948
v 0.303476 0.869027 0.060365
v 0.296074 0.652088 0.058893
v 0.288672 0.435150 0.057420
v 0.281269 0.218212 0.055948
v 0.285868 0.869027 0.118410
v 0.278895 0.652088 0.115522
v 0.271923 0.435150 0.112634
v 0.264950 0.218212 0.109746
v 0.257275 0.869027 0.171905
v 0.250999 0.652088 0.167712
v 0.244724 0.435150 0.163519
v 0.238449 0.218212 0.159326
v 0.171905 0.869027 0.257275
v 0.167712 0.652088 0.250999
v 0.163519 0.435150 0.244724
v 0.159326 0.218212 0.238449
v 0.118411 0.869027 0.285868
v 0.115522 0.652088 0.278895
v 0.112634 0.435150 0.271923
v 0.109746 0.218212 0.264950
v 0.060365 0.869027 0.303476
v 0.058893 0.652088 0.296074
v 0.057420 0.435150 0.288672
v 0.055948 0.218212 0.281269
v -0.060365 0.869027 0.303476
v -0.058893 0.652088 0.296074
v -0.057420 0.435150 0.288672
v -0.055948 0.218212 0.281269
v -0.118411 0.869027 0.285868
v -0.115522 0.652088 0.278895
v -0.112634 0.435150 0.271923
v -0.109746 0.218212 0.264950
v -0.171905 0.869027 0.257275
v -0.167712 0.652088 0.250999
v -0.163519 0.435150 0.244724
v -0.159326 0.218212 0.238449
v -0.257275 0.869027 0.171905
v -0.250999 0.652088 0.167712
v -0.244724 0.435150 0.163519
v -0.238449 0.218212 0.159326
v -0.285868 0.869027 0.118410
v -0.278895 0.652088 0.115522
v -0.271923 0.435150 0.112634
v -0.264950 0.218212 0.109746
v -0.303476 0.869027 0.060365
v -0.296074 0.652088 0.058893
v -0.288672 0.435150 0.057420
v -0.281269 0.218212 0.055948
v -0.303476 0.869027 -0.060365
v -0.296074 0.652088 -0.058893
v -0.288672 0.435150 -0.057420
v -0.281269 0.218212 -0.055948
v -0.285868 0.869027 -0.118411
v -0.278895 0.652088 -0.115522
v -0.271923 0.435150 -0.112634
v -0.264950 0.218212 -0.109746
v -0.257275 0.869027 -0.171906
v -0.250999 0.652088 -0.167712
v -0.244724 0.435150 -0.163519
v -0.238449 0.218212 -0.159326
v -0.171905 0.869027 -0.257275
v -0.167712 0.652088 -0.250999
v -0.163519 0.435150 -0.244724
v -0.159326 0.218212 -0.238449
v -0.118411 0.869027 -0.285868
v -0.115522 0.652088 -0.278895
v -0.112634 0.435150 -0.271923
v -0.109746 0.218212 -0.264950
v -0.060365 0.869027 -0.303476
v -0.058893 0.652088 -0.296074
v -0.057420 0.435150 -0.288672
v -0.055948 0.218212 -0.281269
v 0.000000 1.026565 -0.314902
v 0.061434 1.026565 -0.308852
v 0.120508 1.026565 -0.290932
v 0.174950 1.026565 -0.261832
v 0.222670 1.026565 -0.222670
v 0.261832 1.026565 -0.174950
v 0.290932 1.026565 -0.120508
v 0.308852 1.026565 -0.061434
v 0.314902 1.026565 -0.000000
v 0.308852 1.026565 0.061434
v 0.290932 1.026565 0.120508
v 0.261832 1.026565 0.174950
v 0.222670 1.026565 0.222670
v 0.174950 1.026565 0.261832
v 0.120508 1.026565 0.290932
v 0.061434 1.026565 0.308852
v 0.000000 1.026565 0.314902
v -0.061434 1.026565 0.308852
v -0.120508 1.026565 0.290932
v -0.174950 1.026565 0.261832
v -0.222670 1.026565 0.222670
v -0.261832 1.026565 0.174950
v -0.290932 1.026565 0.120508
v -0.308852 1.026565 0.061434
v -0.314902 1.026565 -0.000000
v -0.308852 1.026565 -0.061434
v -0.290932 1.026565 -0.120508
v -0.261832 1.026565 -0.174950
v -0.222670 1.026565 -0.222670
v -0.174950 1.026565 -0.261832
v -0.120508 1.026565 -0.290932
v -0.061434 1.026565 -0.308852
v 0.000000 0.023238 -0.265793
v 0.051854 0.023238 -0.260686
v 0.053255 0.229736 -0.267732
v 0.151658 0.229736 -0.226972
v 0.147667 0.023238 -0.220999
v 0.187944 0.023238 -0.187944
v 0.193024 0.229736 -0.193024
v 0.220999 0.023238 -0.147667
v 0.226972 0.229736 -0.151658
v 0.267732 0.229736 -0.053255
v 0.260686 0.023238 -0.051854
v 0.265793 0.023238 0.000000
v 0.272977 0.229736 0.000000
v 0.260686 0.023238 0.051854
v 0.267732 0.229736 0.053255
v 0.226972 0.229736 0.151658
v 0.220999 0.023238 0.147667
v 0.187944 0.023238 0.187944
v 0.193024 0.229736 0.193024
v 0.147667 0.023238 0.220999
v 0.151658 0.229736 0.226972
v 0.053255 0.229736 0.267732
v 0.051854 0.023238 0.260686
v 0.000000 0.023238 0.265793
v 0.000000 0.229736 0.272977
v -0.051854 0.023238 0.260686
v -0.053255 0.229736 0.267732
v -0.151658 0.229736 0.226972
v -0.147667 0.023238 0.220999
v -0.187944 0.023238 0.187944
v -0.193024 0.229736 0.193024
v -0.220999 0.023238 0.147667
v -0.226972 0.229736 0.151658
v -0.267732 0.229736 0.053255
v -0.260686 0.023238 0.051854
v -0.265793 0.023238 0.000000
v -0.272977 0.229736 0.000000
v -0.260686 0.023238 -0.051854
v -0.267732 0.229736 -0.053255
v -0.226972 0.229736 -0.151658
v -0.220999 0.023238 -0.147667
v -0.187944 0.023238 -0.187944
v -0.193024 0.229736 -0.193024
v -0.147667 0.023238 -0.220999
v -0.151658 0.229736 -0.226972
v -0.053255 0.229736 -0.267732
v -0.051854 0.023238 -0.260686
v 0.000000 0.023238 -0.221236
v 0.043161 0.023238 -0.216985
v 0.122912 0.023238 -0.183951
v 0.156438 0.023238 -0.156438
v 0.183951 0.023238 -0.122912
v 0.216986 0.023238 -0.043161
v 0.221236 0.023238 0.000000
v 0.216986 0.023238 0.043161
v 0.183951 0.023238 0.122912
v 0.156438 0.023238 0.156438
v 0.122912 0.023238 0.183951
v 0.043161 0.023238 0.216986
v 0.000000 0.023238 0.221237
v -0.043161 0.023238 0.216986
v -0.122912 0.023238 0.183951
v -0.156438 0.023238 0.156438
v -0.183951 0.023238 0.122912
v -0.216986 0.023238 0.043161
v -0.221236 0.023238 0.000000
v -0.216986 0.023238 -0.043161
v -0.183951 0.023238 -0.122912
v -0.156438 0.023238 -0.156438
v -0.122912 0.023238 -0.183951
v -0.043161 0.023238 -0.216985
v 0.000000 0.229736 -0.272977
v 0.000000 0.436233 -0.280161
v 0.000000 0.642731 -0.287346
v 0.000000 0.849228 -0.294530
v 0.058478 0.999185 -0.293987
v 0.057460 0.849228 -0.288870
v 0.056058 0.642731 -0.281824
v 0.054657 0.436233 -0.274778
v 0.166530 0.999185 -0.249230
v 0.163632 0.849228 -0.244892
v 0.159641 0.642731 -0.238919
v 0.155649 0.436233 -0.232946
v 0.211953 0.999185 -0.211953
v 0.208264 0.849228 -0.208264
v 0.203184 0.642731 -0.203184
v 0.198104 0.436233 -0.198104
v 0.249230 0.999185 -0.166530
v 0.244892 0.849228 -0.163632
v 0.238919 0.642731 -0.159641
v 0.232946 0.436233 -0.155649
v 0.293987 0.999185 -0.058478
v 0.288870 0.849228 -0.057460
v 0.281824 0.642731 -0.056058
v 0.274778 0.436233 -0.054657
v 0.299747 0.999185 -0.000000
v 0.294530 0.849228 -0.000000
v 0.287346 0.642731 -0.000000
v 0.280161 0.436233 -0.000000
v 0.293987 0.999185 0.058478
v 0.288870 0.849228 0.057460
v 0.281824 0.642731 0.056058
v 0.274778 0.436233 0.054657
v 0.249230 0.999185 0.166530
v 0.244892 0.849228 0.163632
v 0.238919 0.642731 0.159641
v 0.232946 0.436233 0.155649
v 0.211953 0.999185 0.211953
v 0.208264 0.849228 0.208264
v 0.203184 0.642731 0.203184
v 0.198104 0.436233 0.198104
v 0.166530 0.999185 0.249230
v 0.163632 0.849228 0.244892
v 0.159641 0.642731 0.238919
v 0.155649 0.436233 0.232946
v 0.058478 0.999185 0.293987
v 0.057460 0.849228 0.288870
v 0.056058 0.642731 0.281824
v 0.054657 0.436233 0.274778
v 0.000000 0.999185 0.299747
v 0.000000 0.849228 0.294530
v 0.000000 0.642731 0.287345
v 0.000000 0.436233 0.280161
v -0.058478 0.999185 0.293987
v -0.057460 0.849228 0.288870
v -0.056058 0.642731 0.281824
v -0.054657 0.436233 0.274778
v -0.166530 0.999185 0.249230
v -0.163632 0.849228 0.244892
v -0.159641 0.642731 0.238919
v -0.155649 0.436233 0.232946
v -0.211953 0.999185 0.211953
v -0.208264 0.849228 0.208264
v -0.203184 0.642731 0.203184
v -0.198104 0.436233 0.198104
v -0.249230 0.999185 0.166530
v -0.244892 0.849228 0.163632
v -0.238919 0.642731 0.159641
v -0.232946 0.436233 0.155649
v -0.293987 0.999185 0.058478
v -0.288870 0.849228 0.057460
v -0.281824 0.642731 0.056058
v -0.274778 0.436233 0.054657
v -0.299747 0.999185 -0.000000
v -0.294530 0.849228 -0.000000
v -0.287345 0.642731 -0.000000
v -0.280161 0.436233 -0.000000
v -0.293987 0.999185 -0.058478
v -0.288870 0.849228 -0.057460
v -0.281824 0.642731 -0.056058
v -0.274778 0.436233 -0.054657
v -0.249230 0.999185 -0.166530
v -0.244892 0.849228 -0.163632
v -0.238919 0.642731 -0.159641
v -0.232946 0.436233 -0.155649
v -0.211953 0.999185 -0.211953
v -0.208264 0.849228 -0.208264
v -0.203184 0.642731 -0.203184
v -0.198104 0.436233 -0.198104
v -0.166530 0.999185 -0.249230
v -0.163632 0.849228 -0.244892
v -0.159641 0.642731 -0.238919
v -0.155649 0.436233 -0.232946
v -0.058478 0.999185 -0.293987
v -0.057460 0.849228 -0.288870
v -0.056058 0.642731 -0.281824
v -0.054657 0.436233 -0.274778
v 0.000000 0.999185 -0.299747
vn 0.0980 -0.0346 -0.9946
vn 0.2901 -0.0346 -0.9564
vn 0.4711 -0.0346 -0.8814
vn 0.6340 -0.0346 -0.7725
vn 0.7725 -0.0346 -0.6340
vn 0.8814 -0.0346 -0.4711
vn 0.9564 -0.0346 -0.2901
vn 0.9946 -0.0346 -0.0980
vn 0.9946 -0.0346 0.0980
vn 0.9564 -0.0346 0.2901
vn 0.8814 -0.0346 0.4711
vn 0.7725 -0.0346 0.6340
vn 0.6340 -0.0346 0.7725
vn 0.4711 -0.0346 0.8814
vn 0.2901 -0.0346 0.9564
vn 0.0980 -0.0346 0.9946
vn -0.0980 -0.0346 0.9946
vn -0.2901 -0.0346 0.9564
vn -0.4711 -0.0346 0.8814
vn -0.6340 -0.0346 0.7725
vn -0.7725 -0.0346 0.6340
vn -0.8814 -0.0346 0.4711
vn -0.9564 -0.0346 0.2901
vn -0.9946 -0.0346 0.0980
vn -0.9946 -0.0346 -0.0980
vn -0.9564 -0.0346 -0.2901
vn -0.8814 -0.0346 -0.4711
vn -0.7725 -0.0346 -0.6340
vn -0.6340 -0.0346 -0.7725
vn -0.4711 -0.0346 -0.8814
vn -0.2901 0.0321 -0.9564
vn -0.2901 -0.0346 -0.9564
vn -0.0980 -0.0346 -0.9946
vn -0.0000 -1.0000 -0.0000
vn -0.0000 1.0000 -0.0000
vn -0.2901 0.0321 0.9564
vn 0.6341 0.0321 0.7726
vn -0.0980 0.0321 -0.9947
vn -0.4712 0.0321 0.8815
vn 0.4712 0.0321 0.8815
vn 0.0980 0.0321 -0.9947
vn -0.6341 0.0321 0.7726
vn 0.2901 0.0321 0.9564
vn 0.2901 0.0321 -0.9564
vn -0.7726 0.0321 0.6341
vn 0.0980 0.0321 0.9947
vn 0.4712 0.0321 -0.8815
vn -0.8815 0.0321 0.4712
vn 0.6341 0.0321 -0.7726
vn -0.9564 0.0321 0.2901
vn 0.7726 0.0321 -0.6341
vn -0.9947 0.0321 0.0980
vn 0.8815 0.0321 -0.4712
vn -0.9947 0.0321 -0.0980
vn 0.9564 0.0321 -0.2901
vn -0.9564 0.0321 -0.2901
vn 0.9947 0.0321 -0.0980
vn -0.8815 0.0321 -0.4712
vn 0.9947 0.0321 0.0980
vn -0.7726 0.0321 -0.6341
vn 0.9564 0.0321 0.2901
vn -0.6341 0.0321 -0.7726
vn 0.8815 0.0321 0.4712
vn -0.4712 0.0321 -0.8815
vn -0.0980 0.0321 0.9947
vn 0.7726 0.0321 0.6341
vn 0.9808 -0.0000 0.1951
vn -0.5556 -0.0000 0.8315
vn 0.8315 -0.0000 0.5556
vn -0.8315 -0.0000 0.5556
vn 0.1951 -0.0000 -0.9808
vn 0.1951 -0.0000 0.9808
vn -0.8315 -0.0000 -0.5556
vn -0.0197 -0.9796 0.2000
vn -0.0583 -0.9796 0.1923
vn -0.0947 -0.9796 0.1773
vn -0.1275 -0.9796 0.1554
vn -0.1554 -0.9796 0.1275
vn -0.1773 -0.9796 0.0947
vn -0.1923 -0.9796 0.0583
vn -0.2000 -0.9796 0.0197
vn -0.2000 -0.9796 -0.0197
vn -0.1923 -0.9796 -0.0583
vn -0.1773 -0.9796 -0.0947
vn -0.1554 -0.9796 -0.1275
vn -0.1275 -0.9796 -0.1554
vn -0.0947 -0.9796 -0.1773
vn -0.0583 -0.9796 -0.1923
vn -0.0197 -0.9796 -0.2000
vn 0.0197 -0.9796 -0.2000
vn 0.0583 -0.9796 -0.1923
vn 0.0947 -0.9796 -0.1773
vn 0.1275 -0.9796 -0.1554
vn 0.1554 -0.9796 -0.1275
vn 0.1773 -0.9796 -0.0947
vn 0.1923 -0.9796 -0.0583
vn 0.2000 -0.9796 -0.0197
vn 0.2000 -0.9796 0.0197
vn 0.1923 -0.9796 0.0583
vn 0.1773 -0.9796 0.0947
vn 0.1554 -0.9796 0.1275
vn 0.1275 -0.9796 0.1554
vn 0.0947 -0.9796 0.1773
vn 0.0583 -0.9796 0.1923
vn 0.0197 -0.9796 0.2000
vn -0.5556 -0.0000 -0.8315
vn -0.9808 -0.0000 0.1951
vn -0.9808 -0.0000 -0.1951
vn 0.0859 -0.4825 -0.8717
vn 0.5556 -0.0000 -0.8315
vn 0.5557 -0.4825 -0.6771
vn 0.6771 -0.4825 -0.5557
vn -0.0874 0.4521 -0.8877
vn 0.8315 -0.0000 -0.5556
vn 0.8717 -0.4825 -0.0859
vn -0.5659 0.4521 -0.6895
vn 0.8717 -0.4825 0.0859
vn -0.6895 0.4521 -0.5659
vn -0.1951 -0.0000 0.9808
vn 0.6771 -0.4825 0.5557
vn -0.8877 0.4521 -0.0874
vn 0.5557 -0.4825 0.6771
vn 0.9808 -0.0000 -0.1951
vn -0.8877 0.4521 0.0874
vn 0.0859 -0.4825 0.8717
vn -0.6895 0.4521 0.5659
vn -0.0859 -0.4825 0.8717
vn -0.5659 0.4521 0.6895
vn -0.1951 -0.0000 -0.9808
vn -0.5557 -0.4825 0.6771
vn -0.0874 0.4521 0.8877
vn -0.6771 -0.4825 0.5557
vn 0.0874 0.4521 0.8877
vn -0.8717 -0.4825 0.0859
vn 0.5659 0.4521 0.6895
vn -0.8717 -0.4825 -0.0859
vn 0.6895 0.4521 0.5659
vn 0.5556 -0.0000 0.8315
vn -0.6771 -0.4825 -0.5557
vn 0.8877 0.4521 0.0874
vn -0.5557 -0.4825 -0.6771
vn 0.8877 0.4521 -0.0874
vn 0.0874 0.4521 -0.8877
vn 0.5659 0.4521 -0.6895
vn 0.6895 0.4521 -0.5659
vn -0.0859 -0.4825 -0.8717
vt 0.668855 0.638519
vt 0.638037 0.482102
vt 0.533146 0.328547
vt 0.669490 0.632072
vt 0.647523 0.496300
vt 0.550150 0.328547
vt 0.671370 0.625872
vt 0.659597 0.508373
vt 0.567130 0.328583
vt 0.674424 0.620159
vt 0.673795 0.517860
vt 0.583433 0.328653
vt 0.678534 0.615151
vt 0.689570 0.524394
vt 0.598433 0.328754
vt 0.683542 0.611041
vt 0.611553 0.328883
vt 0.706316 0.527725
vt 0.326399 0.680886
vt 0.689255 0.607987
vt 0.723391 0.527725
vt 0.339677 0.680771
vt 0.695455 0.606107
vt 0.740138 0.524394
vt 0.354794 0.680685
vt 0.701902 0.605472
vt 0.755913 0.517860
vt 0.371169 0.680632
vt 0.708349 0.606107
vt 0.770111 0.508373
vt 0.388173 0.680615
vt 0.714549 0.607987
vt 0.782185 0.496300
vt 0.405154 0.680632
vt 0.720262 0.611041
vt 0.791671 0.482102
vt 0.421457 0.680685
vt 0.725270 0.615151
vt 0.798205 0.466327
vt 0.436457 0.680771
vt 0.729380 0.620159
vt 0.449576 0.680886
vt 0.801536 0.449580
vt 0.202028 0.681022
vt 0.732434 0.625872
vt 0.215988 0.680858
vt 0.801536 0.432505
vt 0.734315 0.632072
vt 0.798205 0.415758
vt 0.231598 0.680744
vt 0.734950 0.638519
vt 0.791671 0.399983
vt 0.248258 0.680687
vt 0.734315 0.644966
vt 0.782185 0.385786
vt 0.265328 0.680687
vt 0.732434 0.651166
vt 0.770111 0.373712
vt 0.282151 0.680744
vt 0.729380 0.656879
vt 0.755913 0.364226
vt 0.298082 0.680858
vt 0.725270 0.661887
vt 0.312508 0.681022
vt 0.740138 0.357692
vt 0.006946 0.681059
vt 0.720262 0.665997
vt 0.723392 0.354360
vt 0.021945 0.680942
vt 0.714549 0.669051
vt 0.706317 0.354360
vt 0.038248 0.680854
vt 0.708349 0.670932
vt 0.689570 0.357692
vt 0.055228 0.680801
vt 0.701902 0.671567
vt 0.673795 0.364226
vt 0.072233 0.680783
vt 0.695455 0.670932
vt 0.659597 0.373712
vt 0.088608 0.680801
vt 0.689255 0.669051
vt 0.647523 0.385786
vt 0.103725 0.680854
vt 0.683542 0.665997
vt 0.638037 0.399983
vt 0.117003 0.680942
vt 0.678534 0.661887
vt 0.127931 0.681059
vt 0.631503 0.415758
vt 0.477447 0.328883
vt 0.674424 0.656879
vt 0.628172 0.432505
vt 0.488375 0.328754
vt 0.671370 0.651166
vt 0.628172 0.449580
vt 0.501653 0.328653
vt 0.669490 0.644966
vt 0.631503 0.466327
vt 0.516770 0.328583
vt 0.549209 0.342807
vt 0.638524 0.503685
vt 0.529857 0.342774
vt 0.627770 0.487590
vt 0.568281 0.342905
vt 0.652211 0.517373
vt 0.586341 0.343065
vt 0.668306 0.528127
vt 0.602694 0.343279
vt 0.326399 0.007259
vt 0.686190 0.535535
vt 0.343404 0.007126
vt 0.705175 0.539311
vt 0.361886 0.007027
vt 0.724533 0.539311
vt 0.381135 0.006966
vt 0.743518 0.535535
vt 0.400413 0.006946
vt 0.761402 0.528127
vt 0.418977 0.006966
vt 0.777496 0.517373
vt 0.436114 0.007027
vt 0.791184 0.503685
vt 0.451167 0.007126
vt 0.801938 0.487590
vt 0.463556 0.007259
vt 0.006946 0.007493
vt 0.809346 0.469707
vt 0.019334 0.007322
vt 0.813123 0.450721
vt 0.034386 0.007176
vt 0.813123 0.431364
vt 0.051524 0.007062
vt 0.809346 0.412379
vt 0.070088 0.006984
vt 0.801938 0.394495
vt 0.089365 0.006946
vt 0.791184 0.378400
vt 0.108615 0.006947
vt 0.777497 0.364713
vt 0.127097 0.006989
vt 0.761402 0.353958
vt 0.144102 0.007069
vt 0.743518 0.346551
vt 0.158975 0.007185
vt 0.172867 0.007322
vt 0.724533 0.342774
vt 0.187919 0.007176
vt 0.705175 0.342774
vt 0.205056 0.007062
vt 0.686190 0.346551
vt 0.223620 0.006984
vt 0.668306 0.353958
vt 0.242898 0.006946
vt 0.652212 0.364713
vt 0.262147 0.006947
vt 0.638524 0.378400
vt 0.280630 0.006989
vt 0.627770 0.394495
vt 0.297634 0.007069
vt 0.620362 0.412379
vt 0.312508 0.007185
vt 0.477447 0.343065
vt 0.616585 0.431364
vt 0.493274 0.342905
vt 0.616585 0.450721
vt 0.510970 0.342807
vt 0.620362 0.469707
vt 0.625444 0.090829
vt 0.550386 0.006946
vt 0.625444 0.075787
vt 0.535406 0.006946
vt 0.628378 0.105582
vt 0.565345 0.006977
vt 0.634135 0.119479
vt 0.579707 0.007038
vt 0.642492 0.131986
vt 0.592921 0.007128
vt 0.653128 0.142623
vt 0.604479 0.007241
vt 0.333653 0.359252
vt 0.665635 0.150980
vt 0.345350 0.359150
vt 0.679532 0.156736
vt 0.358667 0.359075
vt 0.694285 0.159671
vt 0.373093 0.359028
vt 0.709327 0.159671
vt 0.388073 0.359013
vt 0.724080 0.156736
vt 0.403032 0.359028
vt 0.737977 0.150980
vt 0.417394 0.359075
vt 0.750484 0.142623
vt 0.430608 0.359150
vt 0.761121 0.131986
vt 0.442166 0.359252
vt 0.208938 0.359479
vt 0.769478 0.119479
vt 0.221236 0.359334
vt 0.775234 0.105582
vt 0.234988 0.359234
vt 0.778169 0.090829
vt 0.249664 0.359183
vt 0.778169 0.075787
vt 0.264702 0.359183
vt 0.775234 0.061034
vt 0.279522 0.359234
vt 0.769478 0.047137
vt 0.293557 0.359334
vt 0.761121 0.034630
vt 0.306265 0.359479
vt 0.012114 0.359427
vt 0.750484 0.023993
vt 0.025328 0.359324
vt 0.737977 0.015637
vt 0.039690 0.359247
vt 0.724080 0.009880
vt 0.054649 0.359199
vt 0.709327 0.006946
vt 0.069629 0.359183
vt 0.694285 0.006946
vt 0.084055 0.359199
vt 0.679532 0.009880
vt 0.097372 0.359247
vt 0.665635 0.015637
vt 0.109069 0.359324
vt 0.653128 0.023993
vt 0.486339 0.007241
vt 0.118696 0.359427
vt 0.642492 0.034630
vt 0.495966 0.007128
vt 0.634135 0.047137
vt 0.507663 0.007038
vt 0.628378 0.061034
vt 0.520981 0.006977
vt 0.547621 0.680867
vt 0.616585 0.621549
vt 0.810354 0.326525
vt 0.621536 0.605230
vt 0.564423 0.680953
vt 0.629574 0.590191
vt 0.993054 0.007312
vt 0.580333 0.681093
vt 0.348670 0.345122
vt 0.653574 0.566191
vt 0.155673 0.678777
vt 0.668613 0.558153
vt 0.364951 0.345034
vt 0.381909 0.344981
vt 0.684932 0.553203
vt 0.876106 0.343151
vt 0.718873 0.553203
vt 0.415246 0.344981
vt 0.845259 0.662309
vt 0.430343 0.345034
vt 0.735191 0.558153
vt 0.935392 0.007436
vt 0.750230 0.566191
vt 0.443603 0.345122
vt 0.027942 0.345292
vt 0.774230 0.590191
vt 0.966133 0.326543
vt 0.782269 0.605230
vt 0.041202 0.345164
vt 0.787219 0.621549
vt 0.056299 0.345064
vt 0.906953 0.343151
vt 0.089635 0.344961
vt 0.787219 0.655490
vt 0.904652 0.326454
vt 0.782269 0.671808
vt 0.106593 0.344962
vt 0.774230 0.686847
vt 0.122875 0.344999
vt 0.937694 0.343265
vt 0.181474 0.345292
vt 0.750230 0.710847
vt 0.150958 0.345172
vt 0.735191 0.718886
vt 0.194734 0.345164
vt 0.718873 0.723836
vt 0.209831 0.345064
vt 0.873805 0.007324
vt 0.243167 0.344961
vt 0.684932 0.723836
vt 0.842539 0.326525
vt 0.668613 0.718886
vt 0.260125 0.344962
vt 0.653574 0.710847
vt 0.276407 0.344999
vt 0.967924 0.343292
vt 0.484404 0.681093
vt 0.629574 0.686847
vt 0.304490 0.345172
vt 0.621536 0.671808
vt 0.498346 0.680953
vt 0.616585 0.655490
vt 0.513936 0.680867
vt 0.188136 0.359689
vt 0.629496 0.638519
vt 0.690417 0.280149
vt 0.690441 0.265959
vt 0.630888 0.624393
vt 0.795780 0.327031
vt 0.635008 0.610811
vt 0.641699 0.598293
vt 0.982674 0.006946
vt 0.652905 0.324150
vt 0.650704 0.587321
vt 0.652905 0.312158
vt 0.625444 0.312158
vt 0.661676 0.578316
vt 0.144639 0.679233
vt 0.625444 0.324627
vt 0.674194 0.571625
vt 0.862599 0.342774
vt 0.687776 0.567505
vt 0.711152 0.293707
vt 0.701902 0.566113
vt 0.711137 0.279572
vt 0.830724 0.662795
vt 0.716028 0.567505
vt 0.711152 0.265959
vt 0.729611 0.571625
vt 0.921970 0.006946
vt 0.742128 0.578316
vt 0.687472 0.314691
vt 0.753101 0.587321
vt 0.666796 0.312158
vt 0.687472 0.323776
vt 0.762105 0.598293
vt 0.666796 0.321243
vt 0.952710 0.327033
vt 0.768796 0.610811
vt 0.772916 0.624393
vt 0.719552 0.242949
vt 0.893446 0.342774
vt 0.774308 0.638519
vt 0.719537 0.229336
vt 0.719552 0.215201
vt 0.772916 0.652645
vt 0.891144 0.326831
vt 0.768796 0.666228
vt 0.762105 0.678746
vt 0.117197 0.345148
vt 0.924271 0.342774
vt 0.753101 0.689718
vt 0.129666 0.345207
vt 0.742128 0.698722
vt 0.140572 0.345292
vt 0.729611 0.705413
vt 0.716028 0.709533
vt 0.719552 0.201310
vt 0.859963 0.006946
vt 0.701902 0.710925
vt 0.719537 0.187697
vt 0.719552 0.173562
vt 0.687776 0.709533
vt 0.827965 0.327031
vt 0.674194 0.705413
vt 0.661676 0.698722
vt 0.270729 0.345148
vt 0.954908 0.342774
vt 0.650704 0.689718
vt 0.283198 0.345207
vt 0.641699 0.678746
vt 0.294104 0.345292
vt 0.635008 0.666228
vt 0.630888 0.652645
vt 0.690441 0.293998
vt 0.173563 0.359183
vt 0.810354 0.056050
vt 0.548891 0.410419
vt 0.810354 0.123668
vt 0.548574 0.478031
vt 0.810354 0.191287
vt 0.548256 0.545643
vt 0.810354 0.258906
vt 0.547939 0.613255
vt 0.567509 0.410515
vt 0.566738 0.478124
vt 0.565966 0.545734
vt 0.565194 0.613343
vt 0.993054 0.277777
vt 0.585139 0.410671
vt 0.993054 0.210161
vt 0.583937 0.478276
vt 0.993054 0.142544
vt 0.582736 0.545882
vt 0.993054 0.074928
vt 0.581534 0.613488
vt 0.344457 0.074725
vt 0.155673 0.408290
vt 0.345510 0.142324
vt 0.155673 0.475911
vt 0.346563 0.209923
vt 0.155673 0.543533
vt 0.347616 0.277522
vt 0.155673 0.611155
vt 0.362499 0.074629
vt 0.363112 0.142230
vt 0.363725 0.209831
vt 0.364338 0.277433
vt 0.381290 0.074569
vt 0.876106 0.613567
vt 0.381445 0.142172
vt 0.876106 0.545963
vt 0.381600 0.209775
vt 0.876106 0.478359
vt 0.381754 0.277378
vt 0.876106 0.410755
vt 0.418231 0.074569
vt 0.845259 0.391871
vt 0.417484 0.142172
vt 0.845259 0.459481
vt 0.416738 0.209775
vt 0.845259 0.527090
vt 0.415992 0.277378
vt 0.845259 0.594700
vt 0.434960 0.074629
vt 0.433806 0.142230
vt 0.432652 0.209831
vt 0.431497 0.277433
vt 0.935392 0.277926
vt 0.449654 0.074725
vt 0.448142 0.142324
vt 0.935392 0.210304
vt 0.935392 0.142681
vt 0.446629 0.209923
vt 0.445116 0.277522
vt 0.935392 0.075059
vt 0.966133 0.056052
vt 0.021056 0.074916
vt 0.966133 0.123675
vt 0.022777 0.142510
vt 0.966133 0.191298
vt 0.024499 0.210104
vt 0.026220 0.277698
vt 0.966133 0.258920
vt 0.035749 0.074774
vt 0.037112 0.142371
vt 0.038476 0.209969
vt 0.039839 0.277567
vt 0.906953 0.613567
vt 0.052479 0.074663
vt 0.906953 0.545963
vt 0.053434 0.142263
vt 0.906953 0.478359
vt 0.054389 0.209863
vt 0.906953 0.410755
vt 0.055344 0.277464
vt 0.904652 0.056039
vt 0.089419 0.074549
vt 0.904652 0.123643
vt 0.089473 0.142152
vt 0.089527 0.209755
vt 0.904652 0.191247
vt 0.089581 0.277358
vt 0.904652 0.258850
vt 0.108210 0.074550
vt 0.107806 0.142153
vt 0.107402 0.209756
vt 0.106997 0.277359
vt 0.126253 0.074591
vt 0.937694 0.613755
vt 0.125408 0.142193
vt 0.937694 0.546132
vt 0.124564 0.209795
vt 0.937694 0.478510
vt 0.937694 0.410887
vt 0.123719 0.277397
vt 0.174588 0.074916
vt 0.157372 0.074783
vt 0.176310 0.142510
vt 0.155768 0.142380
vt 0.178031 0.210104
vt 0.154165 0.209978
vt 0.179753 0.277698
vt 0.152561 0.277575
vt 0.189282 0.074774
vt 0.190645 0.142371
vt 0.192008 0.209969
vt 0.193371 0.277567
vt 0.873805 0.277707
vt 0.206011 0.074663
vt 0.206966 0.142263
vt 0.873805 0.210111
vt 0.207921 0.209863
vt 0.873805 0.142515
vt 0.208876 0.277464
vt 0.873805 0.074920
vt 0.242952 0.074549
vt 0.842539 0.056050
vt 0.243006 0.142152
vt 0.842539 0.123668
vt 0.243060 0.209755
vt 0.842539 0.191287
vt 0.243114 0.277358
vt 0.842539 0.258906
vt 0.261743 0.074550
vt 0.261339 0.142153
vt 0.260934 0.209756
vt 0.260530 0.277359
vt 0.967924 0.613783
vt 0.279785 0.074591
vt 0.278941 0.142193
vt 0.967924 0.546160
vt 0.967924 0.478538
vt 0.278096 0.209795
vt 0.277252 0.277397
vt 0.967924 0.410915
vt 0.310905 0.074783
vt 0.478838 0.410670
vt 0.309301 0.142380
vt 0.480230 0.478276
vt 0.307697 0.209978
vt 0.481621 0.545882
vt 0.483012 0.613488
vt 0.306094 0.277575
vt 0.494288 0.410515
vt 0.495302 0.478124
vt 0.496317 0.545734
vt 0.497331 0.613343
vt 0.511563 0.410419
vt 0.188136 0.630165
vt 0.512156 0.478031
vt 0.188136 0.562546
vt 0.512749 0.545643
vt 0.188136 0.494927
vt 0.513343 0.613255
vt 0.188136 0.427308
vt 0.529896 0.361287
vt 0.810354 0.006946
vt 0.549122 0.361320
vt 0.568069 0.361418
vt 0.993054 0.326880
vt 0.586012 0.361576
vt 0.326798 0.025767
vt 0.602259 0.361789
vt 0.155673 0.359183
vt 0.343692 0.025635
vt 0.362054 0.025537
vt 0.381178 0.025476
vt 0.876106 0.662660
vt 0.400329 0.025456
vt 0.845259 0.342774
vt 0.418772 0.025476
vt 0.435798 0.025537
vt 0.935392 0.327033
vt 0.450753 0.025635
vt 0.463061 0.025767
vt 0.007498 0.026000
vt 0.966133 0.006946
vt 0.019806 0.025830
vt 0.034760 0.025685
vt 0.906953 0.662660
vt 0.051785 0.025572
vt 0.070228 0.025495
vt 0.904652 0.006946
vt 0.089380 0.025456
vt 0.108504 0.025457
vt 0.126866 0.025499
vt 0.937694 0.662862
vt 0.143760 0.025579
vt 0.158536 0.025694
vt 0.173338 0.025830
vt 0.188292 0.025685
vt 0.873805 0.326795
vt 0.205318 0.025572
vt 0.223761 0.025495
vt 0.842539 0.006946
vt 0.242912 0.025456
vt 0.262037 0.025457
vt 0.967924 0.662890
vt 0.280398 0.025499
vt 0.297292 0.025579
vt 0.477828 0.361576
vt 0.312069 0.025694
vt 0.493551 0.361418
vt 0.188136 0.679269
vt 0.511133 0.361320
vt 0.625444 0.235914
vt 0.531101 0.674069
vt 0.805932 0.319832
vt 0.627035 0.219760
vt 0.547328 0.674097
vt 0.805932 0.255468
vt 0.547630 0.609739
vt 0.989905 0.078409
vt 0.579609 0.609961
vt 0.578465 0.674313
vt 0.989905 0.014047
vt 0.656131 0.298267
vt 0.336027 0.338428
vt 0.654540 0.282113
vt 0.592178 0.674492
vt 0.334639 0.274086
vt 0.593693 0.610145
vt 0.656131 0.265959
vt 0.350286 0.338317
vt 0.152325 0.672068
vt 0.349284 0.273971
vt 0.152325 0.607701
vt 0.381779 0.273834
vt 0.872008 0.414232
vt 0.381926 0.338183
vt 0.627035 0.298267
vt 0.872008 0.349882
vt 0.625444 0.282113
vt 0.398091 0.338166
vt 0.398380 0.273816
vt 0.840849 0.655611
vt 0.627035 0.265959
vt 0.413658 0.338183
vt 0.840849 0.591256
vt 0.414368 0.273834
vt 0.931320 0.078502
vt 0.442091 0.273971
vt 0.440651 0.338317
vt 0.931320 0.014134
vt 0.685227 0.205869
vt 0.020485 0.338622
vt 0.683636 0.189715
vt 0.451040 0.338428
vt 0.018565 0.274285
vt 0.452760 0.274086
vt 0.685227 0.173562
vt 0.030873 0.338479
vt 0.962060 0.319844
vt 0.962060 0.255477
vt 0.029234 0.274138
vt 0.902855 0.414232
vt 0.056957 0.273915
vt 0.057866 0.338261
vt 0.627035 0.205869
vt 0.902855 0.349882
vt 0.625444 0.189715
vt 0.073432 0.338196
vt 0.072944 0.273847
vt 0.627035 0.173562
vt 0.089597 0.338163
vt 0.900553 0.319724
vt 0.089546 0.273814
vt 0.900553 0.255373
vt 0.122041 0.273851
vt 0.933621 0.414331
vt 0.121237 0.338200
vt 0.656131 0.205869
vt 0.933621 0.349963
vt 0.654540 0.189715
vt 0.135497 0.338267
vt 0.136686 0.273921
vt 0.656131 0.173562
vt 0.147969 0.338365
vt 0.149495 0.274020
vt 0.210489 0.273915
vt 0.869605 0.078396
vt 0.211398 0.338261
vt 0.685227 0.252068
vt 0.869605 0.014053
vt 0.683636 0.235914
vt 0.226965 0.338196
vt 0.226477 0.273847
vt 0.685227 0.219760
vt 0.243130 0.338163
vt 0.838117 0.319832
vt 0.838117 0.255468
vt 0.243078 0.273814
vt 0.963974 0.414350
vt 0.275574 0.273851
vt 0.274770 0.338200
vt 0.963974 0.349982
vt 0.656131 0.252068
vt 0.654540 0.235914
vt 0.289029 0.338267
vt 0.290218 0.273921
vt 0.656131 0.219760
vt 0.301501 0.338365
vt 0.303028 0.274020
vt 0.514699 0.609739
vt 0.183715 0.430747
vt 0.515263 0.674097
vt 0.183715 0.366382
vt 0.627035 0.252068
vt 0.639324 0.235914
vt 0.683636 0.279708
vt 0.640649 0.222468
vt 0.792060 0.320313
vt 0.683659 0.266201
vt 0.980024 0.013698
vt 0.669745 0.295559
vt 0.646135 0.325791
vt 0.646135 0.314376
vt 0.668420 0.282113
vt 0.632244 0.314154
vt 0.632244 0.326023
vt 0.141823 0.672502
vt 0.669745 0.268667
vt 0.859150 0.349523
vt 0.704347 0.293695
vt 0.640649 0.295559
vt 0.704332 0.280240
vt 0.639324 0.282113
vt 0.704347 0.267283
vt 0.640649 0.268667
vt 0.827014 0.656074
vt 0.918543 0.013667
vt 0.694256 0.312158
vt 0.698841 0.203161
vt 0.694256 0.320805
vt 0.673580 0.315128
vt 0.697517 0.189715
vt 0.673580 0.323776
vt 0.698841 0.176270
vt 0.949284 0.320312
vt 0.889998 0.349523
vt 0.712746 0.241625
vt 0.640649 0.203161
vt 0.712732 0.228667
vt 0.639324 0.189715
vt 0.640649 0.176270
vt 0.712746 0.215212
vt 0.887696 0.320083
vt 0.920845 0.349496
vt 0.115832 0.338341
vt 0.669745 0.203161
vt 0.127701 0.338398
vt 0.668420 0.189715
vt 0.669745 0.176270
vt 0.138083 0.338479
vt 0.856430 0.013693
vt 0.712746 0.199986
vt 0.698841 0.249360
vt 0.712732 0.187028
vt 0.697517 0.235914
vt 0.698841 0.222468
vt 0.712746 0.173573
vt 0.824245 0.320313
vt 0.951585 0.349489
vt 0.269365 0.338341
vt 0.669745 0.249360
vt 0.281234 0.338398
vt 0.668421 0.235914
vt 0.291615 0.338479
vt 0.669745 0.222468
vt 0.169843 0.365901
vt 0.683659 0.292890
vt 0.640649 0.249360
vt 0.530965 0.609710
vt 0.530828 0.545352
vt 0.530692 0.480993
vt 0.530555 0.416635
vt 0.805932 0.015634
vt 0.548756 0.369930
vt 0.805932 0.062374
vt 0.548537 0.416665
vt 0.805932 0.126739
vt 0.548234 0.481023
vt 0.805932 0.191103
vt 0.547932 0.545381
vt 0.989905 0.318234
vt 0.583870 0.370173
vt 0.989905 0.271495
vt 0.583040 0.416905
vt 0.989905 0.207133
vt 0.581896 0.481256
vt 0.989905 0.142771
vt 0.580752 0.545609
vt 0.329467 0.034333
vt 0.599336 0.370376
vt 0.330475 0.081058
vt 0.598236 0.417104
vt 0.331863 0.145401
vt 0.596721 0.481451
vt 0.333251 0.209743
vt 0.595207 0.545798
vt 0.345548 0.034207
vt 0.152325 0.367857
vt 0.346276 0.080934
vt 0.152325 0.414599
vt 0.347278 0.145280
vt 0.152325 0.478966
vt 0.348281 0.209626
vt 0.152325 0.543334
vt 0.381230 0.034056
vt 0.872008 0.654013
vt 0.381337 0.080786
vt 0.872008 0.607282
vt 0.381484 0.145135
vt 0.872008 0.542932
vt 0.381631 0.209484
vt 0.872008 0.478582
vt 0.399459 0.034037
vt 0.399249 0.080767
vt 0.398960 0.145117
vt 0.398670 0.209466
vt 0.840849 0.351455
vt 0.417015 0.034056
vt 0.840849 0.398189
vt 0.416499 0.080786
vt 0.840849 0.462545
vt 0.415789 0.145135
vt 0.840849 0.526900
vt 0.415078 0.209484
vt 0.931320 0.318349
vt 0.447456 0.034207
vt 0.931320 0.271606
vt 0.446411 0.080934
vt 0.931320 0.207238
vt 0.444971 0.145280
vt 0.931320 0.142870
vt 0.443531 0.209626
vt 0.011413 0.034553
vt 0.459172 0.034333
vt 0.012807 0.081274
vt 0.457922 0.081058
vt 0.014727 0.145611
vt 0.456202 0.145401
vt 0.016646 0.209948
vt 0.454481 0.209743
vt 0.962060 0.015629
vt 0.023129 0.034391
vt 0.962060 0.062373
vt 0.024319 0.081115
vt 0.962060 0.126741
vt 0.025957 0.145456
vt 0.962060 0.191109
vt 0.027596 0.209797
vt 0.902855 0.654013
vt 0.053569 0.034146
vt 0.902855 0.607282
vt 0.054229 0.080874
vt 0.902855 0.542932
vt 0.055138 0.145221
vt 0.902855 0.478582
vt 0.056047 0.209568
vt 0.071125 0.034072
vt 0.071479 0.080802
vt 0.071968 0.145150
vt 0.072456 0.209499
vt 0.900553 0.015593
vt 0.089355 0.034035
vt 0.900553 0.062323
vt 0.089392 0.080765
vt 0.900553 0.126673
vt 0.089443 0.145115
vt 0.900553 0.191023
vt 0.089495 0.209464
vt 0.125036 0.034076
vt 0.933621 0.654178
vt 0.124453 0.080806
vt 0.933621 0.607435
vt 0.123649 0.145154
vt 0.933621 0.543067
vt 0.122845 0.209503
vt 0.933621 0.478699
vt 0.141117 0.034153
vt 0.140254 0.080880
vt 0.139064 0.145227
vt 0.137875 0.209574
vt 0.155183 0.034262
vt 0.154074 0.080988
vt 0.152548 0.145333
vt 0.151022 0.209677
vt 0.869605 0.318148
vt 0.207102 0.034146
vt 0.869605 0.271423
vt 0.207762 0.080874
vt 0.869605 0.207081
vt 0.208671 0.145221
vt 0.869605 0.142738
vt 0.209580 0.209568
vt 0.224657 0.034072
vt 0.225012 0.080802
vt 0.225500 0.145150
vt 0.225988 0.209499
vt 0.838117 0.015634
vt 0.242887 0.034036
vt 0.838117 0.062374
vt 0.242924 0.080765
vt 0.838117 0.126739
vt 0.242976 0.145115
vt 0.838117 0.191103
vt 0.243027 0.209465
vt 0.963974 0.654198
vt 0.278569 0.034076
vt 0.963974 0.607454
vt 0.277985 0.080806
vt 0.963974 0.543086
vt 0.277181 0.145154
vt 0.963974 0.478718
vt 0.276378 0.209503
vt 0.294650 0.034153
vt 0.293786 0.080881
vt 0.292597 0.145227
vt 0.291408 0.209574
vt 0.308715 0.034262
vt 0.307607 0.080988
vt 0.306080 0.145333
vt 0.304554 0.209677
vt 0.512595 0.369930
vt 0.183715 0.670581
vt 0.513005 0.416665
vt 0.183715 0.623840
vt 0.513570 0.481023
vt 0.183715 0.559475
vt 0.514134 0.545381
vt 0.183715 0.495111
vt 0.530456 0.369898
s 0
f 66/103/1 282/535/1 281/533/1
f 282/535/2 67/105/2 283/536/2
f 67/105/3 284/538/3 283/536/3
f 284/538/4 69/109/4 285/540/4
f 69/110/5 286/542/5 285/539/5
f 70/112/6 287/543/6 286/542/6
f 71/114/7 288/544/7 287/543/7
f 288/544/8 73/118/8 289/546/8
f 73/118/9 290/548/9 289/546/9
f 74/120/10 291/549/10 290/548/10
f 291/549/11 76/124/11 292/551/11
f 76/124/12 293/552/12 292/551/12
f 77/127/13 294/555/13 293/553/13
f 78/129/14 295/556/14 294/555/14
f 79/131/15 296/558/15 295/556/15
f 296/558/16 81/135/16 297/559/16
f 81/135/17 298/561/17 297/559/17
f 82/137/18 299/562/18 298/561/18
f 83/139/19 300/563/19 299/562/19
f 84/141/20 301/565/20 300/563/20
f 85/143/21 302/566/21 301/565/21
f 302/567/22 87/148/22 303/568/22
f 87/148/23 304/570/23 303/568/23
f 88/150/24 305/571/24 304/570/24
f 89/152/25 306/573/25 305/571/25
f 90/154/26 307/574/26 306/573/26
f 91/156/27 308/576/27 307/574/27
f 92/158/28 309/577/28 308/576/28
f 93/160/29 310/579/29 309/577/29
f 94/163/30 311/580/30 310/578/30
f 30/46/31 112/202/31 32/50/31
f 95/165/32 312/582/32 311/580/32
f 312/582/33 66/103/33 281/533/33
f 31/48/34 47/73/34 63/98/34
f 4/5/35 66/104/35 2/2/35
f 4/5/35 67/106/35 65/102/35
f 8/11/35 67/106/35 6/8/35
f 10/14/35 68/108/35 8/11/35
f 12/18/35 69/111/35 10/14/35
f 14/21/35 70/113/35 12/18/35
f 16/24/35 71/115/35 14/21/35
f 18/27/35 72/117/35 16/24/35
f 20/30/35 73/119/35 18/27/35
f 20/30/35 75/123/35 74/121/35
f 24/36/35 75/123/35 22/33/35
f 26/39/35 76/125/35 24/36/35
f 28/43/35 77/128/35 26/39/35
f 30/47/35 78/130/35 28/43/35
f 32/49/35 79/132/35 30/47/35
f 34/52/35 80/134/35 32/49/35
f 36/55/35 81/136/35 34/52/35
f 38/58/35 82/138/35 36/55/35
f 40/61/35 83/140/35 38/58/35
f 42/65/35 84/142/35 40/61/35
f 44/68/35 85/144/35 42/65/35
f 46/71/35 86/147/35 44/68/35
f 46/71/35 88/151/35 87/149/35
f 50/77/35 88/151/35 48/74/35
f 50/77/35 90/155/35 89/153/35
f 54/83/35 90/155/35 52/80/35
f 54/83/35 92/159/35 91/157/35
f 56/86/35 93/161/35 92/159/35
f 58/90/35 94/164/35 93/161/35
f 62/96/35 94/164/35 60/93/35
f 64/99/35 95/166/35 62/96/35
f 2/2/35 96/168/35 64/99/35
f 115/207/35 107/190/35 99/173/35
f 4/6/36 99/174/36 6/9/36
f 58/91/37 126/232/37 60/94/37
f 32/50/38 113/204/38 34/53/38
f 6/9/39 100/176/39 8/12/39
f 60/94/40 127/234/40 62/97/40
f 34/53/41 114/206/41 36/56/41
f 8/12/42 101/178/42 10/15/42
f 62/97/43 128/236/43 64/100/43
f 36/56/44 115/208/44 38/59/44
f 10/15/45 102/180/45 12/17/45
f 64/100/46 98/172/46 2/3/46
f 38/59/47 116/210/47 40/62/47
f 12/19/48 103/183/48 14/22/48
f 40/62/49 117/212/49 42/64/49
f 14/22/50 104/185/50 16/25/50
f 42/66/51 118/215/51 44/69/51
f 16/25/52 105/187/52 18/28/52
f 44/69/53 119/217/53 46/72/53
f 18/28/54 106/189/54 20/31/54
f 46/72/55 120/219/55 48/75/55
f 20/31/56 107/191/56 22/34/56
f 48/75/57 121/221/57 50/78/57
f 22/34/58 108/193/58 24/37/58
f 50/78/59 122/223/59 52/81/59
f 24/37/60 109/195/60 26/40/60
f 52/81/61 123/225/61 54/84/61
f 26/40/62 110/197/62 28/42/62
f 54/84/63 124/227/63 56/87/63
f 28/44/64 111/200/64 30/46/64
f 4/6/65 98/172/65 97/170/65
f 56/87/66 125/230/66 58/89/66
f 235/458/67 438/846/67 234/455/67
f 155/306/34 129/238/34 130/240/34
f 155/306/34 131/242/34 156/307/34
f 164/326/68 329/621/68 368/708/68
f 234/455/67 437/844/67 233/453/67
f 158/313/34 133/248/34 159/316/34
f 159/316/34 134/251/34 160/318/34
f 196/391/69 317/593/69 131/243/69
f 233/453/67 436/842/67 298/560/67
f 163/325/34 135/253/34 136/257/34
f 163/325/34 137/259/34 164/327/34
f 271/517/70 357/680/70 475/901/70
f 162/322/71 326/613/71 135/255/71
f 166/332/34 139/264/34 167/335/34
f 167/335/34 140/266/34 168/336/34
f 271/517/70 474/900/70 270/515/70
f 195/389/69 316/590/69 196/391/69
f 171/344/34 141/270/34 142/272/34
f 171/344/34 143/274/34 172/345/34
f 270/515/70 473/899/70 269/513/70
f 195/389/69 394/766/69 395/768/69
f 174/350/34 145/280/34 175/352/34
f 175/352/34 146/282/34 176/353/34
f 160/317/72 323/609/72 365/700/72
f 244/471/73 341/650/73 143/276/73
f 179/361/34 147/286/34 148/288/34
f 179/361/34 149/290/34 180/362/34
f 269/513/70 472/898/70 310/579/70
f 194/387/69 393/764/69 394/766/69
f 182/367/34 151/296/34 183/369/34
f 183/369/34 152/298/34 184/370/34
f 193/385/69 392/762/69 393/764/69
f 1/1/74 154/304/74 3/4/74
f 3/4/75 155/306/75 5/7/75
f 5/7/76 156/307/76 7/10/76
f 9/13/77 156/307/77 157/310/77
f 9/13/78 158/313/78 11/16/78
f 11/16/79 159/316/79 13/20/79
f 15/23/80 159/316/80 160/318/80
f 15/23/81 161/320/81 17/26/81
f 17/26/82 162/323/82 19/29/82
f 19/29/83 163/325/83 21/32/83
f 21/32/84 164/327/84 23/35/84
f 25/38/85 164/327/85 165/329/85
f 25/38/86 166/332/86 27/41/86
f 27/41/87 167/335/87 29/45/87
f 31/48/88 167/335/88 168/336/88
f 31/48/89 169/339/89 33/51/89
f 33/51/90 170/342/90 35/54/90
f 35/54/91 171/344/91 37/57/91
f 37/57/92 172/345/92 39/60/92
f 41/63/93 172/345/93 173/348/93
f 41/63/94 174/350/94 43/67/94
f 43/67/95 175/352/95 45/70/95
f 47/73/96 175/352/96 176/353/96
f 47/73/97 177/356/97 49/76/97
f 49/76/98 178/359/98 51/79/98
f 51/79/99 179/361/99 53/82/99
f 53/82/100 180/362/100 55/85/100
f 57/88/101 180/362/101 181/365/101
f 57/88/102 182/367/102 59/92/102
f 59/92/103 183/369/103 61/95/103
f 63/98/104 183/369/104 184/370/104
f 63/98/105 153/301/105 1/1/105
f 158/314/106 320/602/106 132/247/106
f 231/449/107 334/633/107 232/451/107
f 188/379/108 314/585/108 315/588/108
f 231/449/107 430/834/107 431/836/107
f 276/524/32 152/299/32 151/297/32
f 275/523/32 280/531/32 276/524/32
f 274/522/32 279/529/32 275/523/32
f 273/521/32 278/527/32 274/522/32
f 272/519/30 151/297/30 150/293/30
f 271/518/30 276/524/30 272/519/30
f 270/516/30 275/523/30 271/518/30
f 269/514/30 274/522/30 270/516/30
f 282/535/109 480/910/109 281/533/109
f 156/308/69 317/593/69 362/691/69
f 230/447/107 429/832/107 430/834/107
f 229/445/107 428/830/107 429/832/107
f 267/509/110 352/670/110 268/512/110
f 285/540/111 392/763/111 284/538/111
f 236/460/67 338/643/67 339/645/67
f 267/509/110 466/890/110 467/892/110
f 264/504/27 149/291/27 148/289/27
f 263/503/27 268/511/27 264/504/27
f 262/502/27 267/510/27 263/503/27
f 261/501/27 266/507/27 262/502/27
f 260/499/26 148/289/26 147/285/26
f 259/497/26 264/504/26 260/499/26
f 258/495/26 263/503/26 259/497/26
f 257/493/26 262/502/26 258/495/26
f 187/377/108 315/588/108 391/760/108
f 154/305/108 314/585/108 129/239/108
f 286/542/112 396/770/112 285/539/112
f 266/508/110 465/888/110 466/890/110
f 187/377/108 390/758/108 186/375/108
f 153/302/113 383/748/113 360/687/113
f 265/505/110 464/886/110 465/888/110
f 186/375/108 389/756/108 185/373/108
f 252/484/23 146/283/23 145/281/23
f 251/483/23 256/491/23 252/484/23
f 250/482/23 255/489/23 251/483/23
f 249/481/23 254/487/23 250/482/23
f 248/479/22 145/281/22 144/277/22
f 247/477/22 252/484/22 248/479/22
f 246/475/22 251/483/22 247/477/22
f 245/473/22 250/482/22 246/475/22
f 185/373/108 388/754/108 282/534/108
f 223/437/114 333/631/114 427/828/114
f 289/546/115 404/786/115 288/544/115
f 181/366/116 382/745/116 182/368/116
f 223/437/114 426/826/114 222/435/114
f 290/548/117 408/794/117 289/546/117
f 180/363/118 381/743/118 181/366/118
f 222/435/114 425/824/114 221/433/114
f 240/464/19 143/275/19 142/273/19
f 239/463/19 244/472/19 240/464/19
f 238/462/19 243/469/19 239/463/19
f 237/461/19 242/467/19 238/462/19
f 236/459/18 142/273/18 141/269/18
f 235/457/18 240/464/18 236/459/18
f 234/456/18 239/463/18 235/457/18
f 233/454/18 238/462/18 234/456/18
f 232/451/107 335/637/107 140/268/107
f 221/433/114 424/822/114 294/554/114
f 259/498/119 351/668/119 463/884/119
f 293/552/120 416/807/120 292/551/120
f 259/498/119 462/882/119 258/496/119
f 177/357/121 379/738/121 178/358/121
f 293/553/122 424/823/122 420/814/122
f 258/496/119 461/880/119 257/494/119
f 228/444/15 140/267/15 139/265/15
f 227/443/15 232/452/15 228/444/15
f 226/442/15 231/450/15 227/443/15
f 225/441/15 230/448/15 226/442/15
f 224/439/14 139/265/14 138/261/14
f 223/438/14 228/444/14 224/439/14
f 222/436/14 227/443/14 223/438/14
f 222/436/14 225/441/14 226/442/14
f 280/532/123 359/684/123 152/300/123
f 176/354/124 378/735/124 177/357/124
f 257/494/119 460/878/119 306/572/119
f 219/429/68 328/618/68 220/432/68
f 297/559/125 428/831/125 296/558/125
f 224/440/114 332/630/114 333/631/114
f 173/349/126 376/731/126 174/351/126
f 219/429/68 418/810/68 419/812/68
f 216/424/11 137/260/11 136/256/11
f 215/423/11 220/431/11 216/424/11
f 214/422/11 219/430/11 215/423/11
f 213/421/11 218/427/11 214/422/11
f 135/254/10 216/424/10 136/256/10
f 211/417/10 216/424/10 212/419/10
f 210/415/10 215/423/10 211/417/10
f 210/415/10 213/421/10 214/422/10
f 297/559/127 436/843/127 432/838/127
f 172/346/128 375/728/128 173/349/128
f 218/428/68 417/808/68 418/810/68
f 217/425/68 416/806/68 417/808/68
f 255/490/129 346/658/129 256/492/129
f 272/520/70 356/679/70 357/680/70
f 300/563/130 444/858/130 440/850/130
f 255/490/129 454/870/129 455/872/129
f 133/249/7 208/411/7 134/250/7
f 204/404/7 207/409/7 208/411/7
f 203/403/7 206/407/7 207/409/7
f 201/401/7 206/407/7 202/402/7
f 200/399/6 133/249/6 132/245/6
f 199/397/6 204/404/6 200/399/6
f 198/395/6 203/403/6 199/397/6
f 198/395/6 201/401/6 202/402/6
f 169/340/131 373/723/131 170/341/131
f 301/565/132 448/862/132 444/858/132
f 254/488/129 453/868/129 454/870/129
f 168/337/133 372/720/133 169/340/133
f 220/432/68 329/621/68 137/258/68
f 253/485/129 452/866/129 453/868/129
f 211/418/71 327/616/71 415/804/71
f 304/570/134 456/874/134 452/867/134
f 192/384/3 131/244/3 130/241/3
f 191/383/3 196/392/3 192/384/3
f 190/382/3 195/390/3 191/383/3
f 189/381/3 194/388/3 190/382/3
f 188/380/2 130/241/2 129/237/2
f 187/378/2 192/384/2 188/380/2
f 186/376/2 191/383/2 187/378/2
f 185/374/2 190/382/2 186/376/2
f 166/333/135 369/712/135 370/714/135
f 211/418/71 414/802/71 210/416/71
f 305/571/136 460/879/136 456/874/136
f 184/372/123 359/684/123 383/747/123
f 268/512/110 353/673/110 149/292/110
f 311/580/32 277/525/32 273/521/32
f 310/578/30 273/521/30 269/514/30
f 165/331/137 368/709/137 369/711/137
f 210/416/71 413/800/71 209/414/71
f 307/574/27 265/506/27 261/501/27
f 306/573/26 261/501/26 257/493/26
f 209/414/71 412/798/71 290/547/71
f 182/368/70 356/679/70 150/295/70
f 303/568/23 253/486/23 249/481/23
f 302/567/22 249/481/22 245/473/22
f 247/478/138 345/656/138 451/865/138
f 308/576/139 468/894/139 464/887/139
f 299/562/19 241/465/19 237/461/19
f 233/454/18 299/562/18 237/461/18
f 212/420/71 326/613/71 327/616/71
f 247/478/138 450/864/138 246/476/138
f 295/556/15 229/446/15 225/441/15
f 294/555/14 225/441/14 221/434/14
f 162/324/140 366/703/140 367/705/140
f 309/577/141 472/898/141 468/894/141
f 291/549/11 217/426/11 213/421/11
f 290/548/10 213/421/10 209/413/10
f 180/364/110 353/673/110 380/740/110
f 246/476/138 449/863/138 245/474/138
f 201/401/7 288/544/7 205/405/7
f 286/542/6 201/401/6 197/393/6
f 161/321/142 365/701/142 366/703/142
f 245/474/138 448/862/138 302/566/138
f 283/536/3 193/386/3 189/381/3
f 185/374/2 283/536/2 189/381/2
f 178/360/119 350/667/119 147/287/119
f 360/686/34 314/586/34 361/688/34
f 362/692/34 318/596/34 363/695/34
f 364/699/34 318/596/34 320/600/34
f 365/702/34 324/610/34 366/704/34
f 366/704/34 326/614/34 367/706/34
f 368/710/34 330/624/34 369/713/34
f 370/715/34 330/624/34 332/628/34
f 372/721/34 335/636/34 336/638/34
f 372/721/34 338/641/34 373/722/34
f 374/727/34 342/651/34 375/729/34
f 376/730/34 342/651/34 344/654/34
f 377/734/34 348/662/34 378/736/34
f 378/736/34 350/665/34 379/737/34
f 380/742/34 354/675/34 381/744/34
f 382/746/34 354/675/34 356/678/34
f 383/749/34 313/583/34 360/686/34
f 358/681/33 313/584/33 359/683/33
f 358/681/33 385/751/33 384/750/33
f 478/906/33 385/751/33 479/908/33
f 477/904/33 386/752/33 478/906/33
f 355/677/29 356/679/29 354/676/29
f 471/897/29 357/680/29 355/677/29
f 470/896/29 475/901/29 471/897/29
f 469/895/29 474/900/29 470/896/29
f 352/671/28 354/676/28 353/672/28
f 467/893/28 355/677/28 352/671/28
f 466/891/28 471/897/28 467/893/28
f 465/889/28 470/896/28 466/891/28
f 349/664/25 350/666/25 348/663/25
f 349/664/25 463/885/25 351/669/25
f 458/876/25 463/885/25 459/877/25
f 457/875/25 462/883/25 458/876/25
f 346/657/24 348/663/24 347/659/24
f 455/873/24 349/664/24 346/657/24
f 454/871/24 459/877/24 455/873/24
f 453/869/24 458/876/24 454/871/24
f 343/653/21 344/655/21 342/652/21
f 447/861/21 345/656/21 343/653/21
f 446/860/21 451/865/21 447/861/21
f 445/859/21 450/864/21 446/860/21
f 340/646/20 342/652/20 341/648/20
f 443/856/20 343/653/20 340/646/20
f 442/854/20 447/861/20 443/856/20
f 441/852/20 446/860/20 442/854/20
f 337/640/17 338/642/17 336/639/17
f 435/841/17 339/644/17 337/640/17
f 434/840/17 439/849/17 435/841/17
f 433/839/17 438/847/17 434/840/17
f 334/634/16 336/639/16 335/635/16
f 431/837/16 337/640/16 334/634/16
f 430/835/16 435/841/16 431/837/16
f 429/833/16 434/840/16 430/835/16
f 331/626/13 332/629/13 330/623/13
f 423/820/13 333/632/13 331/626/13
f 422/818/13 427/829/13 423/820/13
f 422/818/13 425/825/13 426/827/13
f 328/619/12 330/625/12 329/620/12
f 419/813/12 331/627/12 328/619/12
f 419/813/12 422/819/12 423/821/12
f 417/809/12 422/819/12 418/811/12
f 325/612/9 326/615/9 324/611/9
f 411/797/9 327/617/9 325/612/9
f 410/796/9 415/805/9 411/797/9
f 409/795/9 414/803/9 410/796/9
f 322/605/8 324/611/8 323/607/8
f 322/605/8 411/797/8 325/612/8
f 406/790/8 411/797/8 407/792/8
f 405/788/8 410/796/8 406/790/8
f 319/598/5 320/601/5 318/595/5
f 399/776/5 321/603/5 319/598/5
f 398/774/5 403/784/5 399/776/5
f 397/772/5 402/782/5 398/774/5
f 316/591/4 318/597/4 317/592/4
f 395/769/4 319/599/4 316/591/4
f 394/767/4 399/777/4 395/769/4
f 393/765/4 398/775/4 394/767/4
f 384/750/1 314/587/1 313/584/1
f 384/750/1 391/761/1 315/589/1
f 386/752/1 391/761/1 385/751/1
f 387/753/1 390/759/1 386/752/1
f 476/902/33 387/753/33 477/904/33
f 468/894/29 473/899/29 469/895/29
f 464/887/28 469/895/28 465/889/28
f 456/874/25 461/881/25 457/875/25
f 453/869/24 456/874/24 457/875/24
f 444/858/21 449/863/21 445/859/21
f 440/850/20 445/859/20 441/852/20
f 432/838/17 437/845/17 433/839/17
f 428/831/16 433/839/16 429/833/16
f 420/814/13 425/825/13 421/816/13
f 416/807/12 421/817/12 417/809/12
f 408/794/9 413/801/9 409/795/9
f 404/786/8 409/795/8 405/788/8
f 396/770/5 401/780/5 397/772/5
f 392/763/4 397/773/4 393/765/4
f 480/910/1 389/757/1 387/753/1
f 248/480/138 344/655/138 345/656/138
f 235/458/67 339/645/67 439/848/67
f 166/334/114 332/630/114 138/263/114
f 197/394/106 400/779/106 286/541/106
f 198/396/106 401/781/106 197/394/106
f 277/526/123 476/903/123 477/905/123
f 168/338/107 335/637/107 371/717/107
f 199/398/106 402/783/106 198/396/106
f 278/528/123 477/905/123 478/907/123
f 200/400/106 320/602/106 321/604/106
f 199/398/106 321/604/106 403/785/106
f 279/530/123 478/907/123 479/909/123
f 170/343/67 338/643/67 141/271/67
f 279/530/123 358/682/123 280/532/123
f 241/466/73 440/851/73 441/853/73
f 256/492/129 347/661/129 146/284/129
f 242/468/73 441/853/73 442/855/73
f 172/347/73 341/650/73 374/725/73
f 153/302/143 361/690/143 154/303/143
f 243/470/73 442/855/73 443/857/73
f 243/470/73 340/647/73 244/471/73
f 174/351/138 344/655/138 144/279/138
f 205/406/72 404/787/72 405/789/72
f 208/412/72 323/609/72 134/252/72
f 206/408/72 405/789/72 406/791/72
f 157/311/144 362/693/144 363/694/144
f 176/355/129 347/661/129 377/732/129
f 207/410/72 406/791/72 407/793/72
f 158/315/145 363/696/145 364/697/145
f 312/582/146 480/910/146 476/902/146
f 207/410/72 322/606/72 208/412/72
f 260/500/119 350/667/119 351/668/119
f 66/103/1 65/101/1 282/535/1
f 282/535/2 65/101/2 67/105/2
f 67/105/3 68/107/3 284/538/3
f 284/538/4 68/107/4 69/109/4
f 69/110/5 70/112/5 286/542/5
f 70/112/6 71/114/6 287/543/6
f 71/114/7 72/116/7 288/544/7
f 288/544/8 72/116/8 73/118/8
f 73/118/9 74/120/9 290/548/9
f 74/120/10 75/122/10 291/549/10
f 291/549/11 75/122/11 76/124/11
f 76/124/12 77/126/12 293/552/12
f 77/127/13 78/129/13 294/555/13
f 78/129/14 79/131/14 295/556/14
f 79/131/15 80/133/15 296/558/15
f 296/558/16 80/133/16 81/135/16
f 81/135/17 82/137/17 298/561/17
f 82/137/18 83/139/18 299/562/18
f 83/139/19 84/141/19 300/563/19
f 84/141/20 85/143/20 301/565/20
f 85/143/21 86/145/21 302/566/21
f 302/567/22 86/146/22 87/148/22
f 87/148/23 88/150/23 304/570/23
f 88/150/24 89/152/24 305/571/24
f 89/152/25 90/154/25 306/573/25
f 90/154/26 91/156/26 307/574/26
f 91/156/27 92/158/27 308/576/27
f 92/158/28 93/160/28 309/577/28
f 93/160/29 94/162/29 310/579/29
f 94/163/30 95/165/30 311/580/30
f 30/46/31 111/200/31 112/202/31
f 95/165/32 96/167/32 312/582/32
f 312/582/33 96/167/33 66/103/33
f 63/98/34 1/1/34 3/4/34
f 3/4/34 5/7/34 7/10/34
f 7/10/34 9/13/34 11/16/34
f 11/16/34 13/20/34 15/23/34
f 15/23/34 17/26/34 19/29/34
f 19/29/34 21/32/34 23/35/34
f 23/35/34 25/38/34 27/41/34
f 27/41/34 29/45/34 31/48/34
f 31/48/34 33/51/34 35/54/34
f 35/54/34 37/57/34 39/60/34
f 39/60/34 41/63/34 43/67/34
f 43/67/34 45/70/34 47/73/34
f 47/73/34 49/76/34 51/79/34
f 51/79/34 53/82/34 55/85/34
f 55/85/34 57/88/34 59/92/34
f 59/92/34 61/95/34 63/98/34
f 63/98/34 3/4/34 7/10/34
f 7/10/34 11/16/34 15/23/34
f 15/23/34 19/29/34 23/35/34
f 23/35/34 27/41/34 31/48/34
f 31/48/34 35/54/34 39/60/34
f 39/60/34 43/67/34 47/73/34
f 47/73/34 51/79/34 55/85/34
f 55/85/34 59/92/34 63/98/34
f 63/98/34 7/10/34 15/23/34
f 15/23/34 23/35/34 31/48/34
f 31/48/34 39/60/34 47/73/34
f 47/73/34 55/85/34 63/98/34
f 63/98/34 15/23/34 31/48/34
f 4/5/35 65/102/35 66/104/35
f 4/5/35 6/8/35 67/106/35
f 8/11/35 68/108/35 67/106/35
f 10/14/35 69/111/35 68/108/35
f 12/18/35 70/113/35 69/111/35
f 14/21/35 71/115/35 70/113/35
f 16/24/35 72/117/35 71/115/35
f 18/27/35 73/119/35 72/117/35
f 20/30/35 74/121/35 73/119/35
f 20/30/35 22/33/35 75/123/35
f 24/36/35 76/125/35 75/123/35
f 26/39/35 77/128/35 76/125/35
f 28/43/35 78/130/35 77/128/35
f 30/47/35 79/132/35 78/130/35
f 32/49/35 80/134/35 79/132/35
f 34/52/35 81/136/35 80/134/35
f 36/55/35 82/138/35 81/136/35
f 38/58/35 83/140/35 82/138/35
f 40/61/35 84/142/35 83/140/35
f 42/65/35 85/144/35 84/142/35
f 44/68/35 86/147/35 85/144/35
f 46/71/35 87/149/35 86/147/35
f 46/71/35 48/74/35 88/151/35
f 50/77/35 89/153/35 88/151/35
f 50/77/35 52/80/35 90/155/35
f 54/83/35 91/157/35 90/155/35
f 54/83/35 56/86/35 92/159/35
f 56/86/35 58/90/35 93/161/35
f 58/90/35 60/93/35 94/164/35
f 62/96/35 95/166/35 94/164/35
f 64/99/35 96/168/35 95/166/35
f 2/2/35 66/104/35 96/168/35
f 99/173/35 97/169/35 98/171/35
f 98/171/35 128/235/35 127/233/35
f 127/233/35 126/231/35 125/228/35
f 125/228/35 124/226/35 123/224/35
f 123/224/35 122/222/35 121/220/35
f 121/220/35 120/218/35 119/216/35
f 119/216/35 118/214/35 117/211/35
f 117/211/35 116/209/35 115/207/35
f 115/207/35 114/205/35 113/203/35
f 113/203/35 112/201/35 111/199/35
f 111/199/35 110/196/35 109/194/35
f 109/194/35 108/192/35 107/190/35
f 107/190/35 106/188/35 105/186/35
f 105/186/35 104/184/35 103/182/35
f 103/182/35 102/179/35 101/177/35
f 101/177/35 100/175/35 99/173/35
f 99/173/35 98/171/35 127/233/35
f 127/233/35 125/228/35 123/224/35
f 123/224/35 121/220/35 119/216/35
f 119/216/35 117/211/35 115/207/35
f 115/207/35 113/203/35 111/199/35
f 111/199/35 109/194/35 107/190/35
f 107/190/35 105/186/35 103/182/35
f 103/182/35 101/177/35 99/173/35
f 99/173/35 127/233/35 123/224/35
f 123/224/35 119/216/35 115/207/35
f 115/207/35 111/199/35 107/190/35
f 107/190/35 103/182/35 99/173/35
f 99/173/35 123/224/35 115/207/35
f 4/6/36 97/170/36 99/174/36
f 58/91/37 125/229/37 126/232/37
f 32/50/38 112/202/38 113/204/38
f 6/9/39 99/174/39 100/176/39
f 60/94/40 126/232/40 127/234/40
f 34/53/41 113/204/41 114/206/41
f 8/12/42 100/176/42 101/178/42
f 62/97/43 127/234/43 128/236/43
f 36/56/44 114/206/44 115/208/44
f 10/15/45 101/178/45 102/180/45
f 64/100/46 128/236/46 98/172/46
f 38/59/47 115/208/47 116/210/47
f 12/19/48 102/181/48 103/183/48
f 40/62/49 116/210/49 117/212/49
f 14/22/50 103/183/50 104/185/50
f 42/66/51 117/213/51 118/215/51
f 16/25/52 104/185/52 105/187/52
f 44/69/53 118/215/53 119/217/53
f 18/28/54 105/187/54 106/189/54
f 46/72/55 119/217/55 120/219/55
f 20/31/56 106/189/56 107/191/56
f 48/75/57 120/219/57 121/221/57
f 22/34/58 107/191/58 108/193/58
f 50/78/59 121/221/59 122/223/59
f 24/37/60 108/193/60 109/195/60
f 52/81/61 122/223/61 123/225/61
f 26/40/62 109/195/62 110/197/62
f 54/84/63 123/225/63 124/227/63
f 28/44/64 110/198/64 111/200/64
f 4/6/65 2/3/65 98/172/65
f 56/87/66 124/227/66 125/230/66
f 235/458/67 439/848/67 438/846/67
f 155/306/34 154/304/34 129/238/34
f 155/306/34 130/240/34 131/242/34
f 164/326/68 137/258/68 329/621/68
f 234/455/67 438/846/67 437/844/67
f 158/313/34 132/246/34 133/248/34
f 159/316/34 133/248/34 134/251/34
f 196/391/69 316/590/69 317/593/69
f 233/453/67 437/844/67 436/842/67
f 163/325/34 162/323/34 135/253/34
f 163/325/34 136/257/34 137/259/34
f 271/517/70 272/520/70 357/680/70
f 162/322/71 367/707/71 326/613/71
f 166/332/34 138/262/34 139/264/34
f 167/335/34 139/264/34 140/266/34
f 271/517/70 475/901/70 474/900/70
f 195/389/69 395/768/69 316/590/69
f 171/344/34 170/342/34 141/270/34
f 171/344/34 142/272/34 143/274/34
f 270/515/70 474/900/70 473/899/70
f 195/389/69 194/387/69 394/766/69
f 174/350/34 144/278/34 145/280/34
f 175/352/34 145/280/34 146/282/34
f 160/317/72 134/252/72 323/609/72
f 244/471/73 340/647/73 341/650/73
f 179/361/34 178/359/34 147/286/34
f 179/361/34 148/288/34 149/290/34
f 269/513/70 473/899/70 472/898/70
f 194/387/69 193/385/69 393/764/69
f 182/367/34 150/294/34 151/296/34
f 183/369/34 151/296/34 152/298/34
f 193/385/69 284/537/69 392/762/69
f 1/1/74 153/301/74 154/304/74
f 3/4/75 154/304/75 155/306/75
f 5/7/76 155/306/76 156/307/76
f 9/13/77 7/10/77 156/307/77
f 9/13/78 157/310/78 158/313/78
f 11/16/79 158/313/79 159/316/79
f 15/23/80 13/20/80 159/316/80
f 15/23/81 160/318/81 161/320/81
f 17/26/82 161/320/82 162/323/82
f 19/29/83 162/323/83 163/325/83
f 21/32/84 163/325/84 164/327/84
f 25/38/85 23/35/85 164/327/85
f 25/38/86 165/329/86 166/332/86
f 27/41/87 166/332/87 167/335/87
f 31/48/88 29/45/88 167/335/88
f 31/48/89 168/336/89 169/339/89
f 33/51/90 169/339/90 170/342/90
f 35/54/91 170/342/91 171/344/91
f 37/57/92 171/344/92 172/345/92
f 41/63/93 39/60/93 172/345/93
f 41/63/94 173/348/94 174/350/94
f 43/67/95 174/350/95 175/352/95
f 47/73/96 45/70/96 175/352/96
f 47/73/97 176/353/97 177/356/97
f 49/76/98 177/356/98 178/359/98
f 51/79/99 178/359/99 179/361/99
f 53/82/100 179/361/100 180/362/100
f 57/88/101 55/85/101 180/362/101
f 57/88/102 181/365/102 182/367/102
f 59/92/103 182/367/103 183/369/103
f 63/98/104 61/95/104 183/369/104
f 63/98/105 184/370/105 153/301/105
f 158/314/106 364/698/106 320/602/106
f 231/449/107 431/836/107 334/633/107
f 188/379/108 129/239/108 314/585/108
f 231/449/107 230/447/107 430/834/107
f 276/524/32 280/531/32 152/299/32
f 275/523/32 279/529/32 280/531/32
f 274/522/32 278/527/32 279/529/32
f 273/521/32 277/525/32 278/527/32
f 272/519/30 276/524/30 151/297/30
f 271/518/30 275/523/30 276/524/30
f 270/516/30 274/522/30 275/523/30
f 269/514/30 273/521/30 274/522/30
f 282/535/109 388/755/109 480/910/109
f 156/308/69 131/243/69 317/593/69
f 230/447/107 229/445/107 429/832/107
f 229/445/107 296/557/107 428/830/107
f 267/509/110 467/892/110 352/670/110
f 285/540/111 396/771/111 392/763/111
f 236/460/67 141/271/67 338/643/67
f 267/509/110 266/508/110 466/890/110
f 264/504/27 268/511/27 149/291/27
f 263/503/27 267/510/27 268/511/27
f 262/502/27 266/507/27 267/510/27
f 261/501/27 265/506/27 266/507/27
f 260/499/26 264/504/26 148/289/26
f 259/497/26 263/503/26 264/504/26
f 258/495/26 262/502/26 263/503/26
f 257/493/26 261/501/26 262/502/26
f 187/377/108 188/379/108 315/588/108
f 154/305/108 361/689/108 314/585/108
f 286/542/112 400/778/112 396/770/112
f 266/508/110 265/505/110 465/888/110
f 187/377/108 391/760/108 390/758/108
f 153/302/113 184/371/113 383/748/113
f 265/505/110 308/575/110 464/886/110
f 186/375/108 390/758/108 389/756/108
f 252/484/23 256/491/23 146/283/23
f 251/483/23 255/489/23 256/491/23
f 250/482/23 254/487/23 255/489/23
f 249/481/23 253/486/23 254/487/23
f 248/479/22 252/484/22 145/281/22
f 247/477/22 251/483/22 252/484/22
f 246/475/22 250/482/22 251/483/22
f 245/473/22 249/481/22 250/482/22
f 185/373/108 389/756/108 388/754/108
f 223/437/114 224/440/114 333/631/114
f 289/546/115 408/794/115 404/786/115
f 181/366/116 381/743/116 382/745/116
f 223/437/114 427/828/114 426/826/114
f 290/548/117 412/799/117 408/794/117
f 180/363/118 380/741/118 381/743/118
f 222/435/114 426/826/114 425/824/114
f 240/464/19 244/472/19 143/275/19
f 239/463/19 243/469/19 244/472/19
f 238/462/19 242/467/19 243/469/19
f 237/461/19 241/465/19 242/467/19
f 236/459/18 240/464/18 142/273/18
f 235/457/18 239/463/18 240/464/18
f 234/456/18 238/462/18 239/463/18
f 233/454/18 237/461/18 238/462/18
f 232/451/107 334/633/107 335/637/107
f 221/433/114 425/824/114 424/822/114
f 259/498/119 260/500/119 351/668/119
f 293/552/120 420/815/120 416/807/120
f 259/498/119 463/884/119 462/882/119
f 177/357/121 378/735/121 379/738/121
f 293/553/122 294/555/122 424/823/122
f 258/496/119 462/882/119 461/880/119
f 228/444/15 232/452/15 140/267/15
f 227/443/15 231/450/15 232/452/15
f 226/442/15 230/448/15 231/450/15
f 225/441/15 229/446/15 230/448/15
f 224/439/14 228/444/14 139/265/14
f 223/438/14 227/443/14 228/444/14
f 222/436/14 226/442/14 227/443/14
f 222/436/14 221/434/14 225/441/14
f 280/532/123 358/682/123 359/684/123
f 176/354/124 377/733/124 378/735/124
f 257/494/119 461/880/119 460/878/119
f 219/429/68 419/812/68 328/618/68
f 297/559/125 432/838/125 428/831/125
f 224/440/114 138/263/114 332/630/114
f 173/349/126 375/728/126 376/731/126
f 219/429/68 218/428/68 418/810/68
f 216/424/11 220/431/11 137/260/11
f 215/423/11 219/430/11 220/431/11
f 214/422/11 218/427/11 219/430/11
f 213/421/11 217/426/11 218/427/11
f 135/254/10 212/419/10 216/424/10
f 211/417/10 215/423/10 216/424/10
f 210/415/10 214/422/10 215/423/10
f 210/415/10 209/413/10 213/421/10
f 297/559/127 298/561/127 436/843/127
f 172/346/128 374/726/128 375/728/128
f 218/428/68 217/425/68 417/808/68
f 217/425/68 292/550/68 416/806/68
f 255/490/129 455/872/129 346/658/129
f 272/520/70 150/295/70 356/679/70
f 300/563/130 301/565/130 444/858/130
f 255/490/129 254/488/129 454/870/129
f 133/249/7 204/404/7 208/411/7
f 204/404/7 203/403/7 207/409/7
f 203/403/7 202/402/7 206/407/7
f 201/401/7 205/405/7 206/407/7
f 200/399/6 204/404/6 133/249/6
f 199/397/6 203/403/6 204/404/6
f 198/395/6 202/402/6 203/403/6
f 198/395/6 197/393/6 201/401/6
f 169/340/131 372/720/131 373/723/131
f 301/565/132 302/566/132 448/862/132
f 254/488/129 253/485/129 453/868/129
f 168/337/133 371/718/133 372/720/133
f 220/432/68 328/618/68 329/621/68
f 253/485/129 304/569/129 452/866/129
f 211/418/71 212/420/71 327/616/71
f 304/570/134 305/571/134 456/874/134
f 192/384/3 196/392/3 131/244/3
f 191/383/3 195/390/3 196/392/3
f 190/382/3 194/388/3 195/390/3
f 189/381/3 193/386/3 194/388/3
f 188/380/2 192/384/2 130/241/2
f 187/378/2 191/383/2 192/384/2
f 186/376/2 190/382/2 191/383/2
f 185/374/2 189/381/2 190/382/2
f 166/333/135 165/330/135 369/712/135
f 211/418/71 415/804/71 414/802/71
f 305/571/136 306/573/136 460/879/136
f 184/372/123 152/300/123 359/684/123
f 268/512/110 352/670/110 353/673/110
f 311/580/32 312/582/32 277/525/32
f 310/578/30 311/580/30 273/521/30
f 165/331/137 164/328/137 368/709/137
f 210/416/71 414/802/71 413/800/71
f 307/574/27 308/576/27 265/506/27
f 306/573/26 307/574/26 261/501/26
f 209/414/71 413/800/71 412/798/71
f 182/368/70 382/745/70 356/679/70
f 303/568/23 304/570/23 253/486/23
f 302/567/22 303/568/22 249/481/22
f 247/478/138 248/480/138 345/656/138
f 308/576/139 309/577/139 468/894/139
f 299/562/19 300/563/19 241/465/19
f 233/454/18 298/561/18 299/562/18
f 212/420/71 135/255/71 326/613/71
f 247/478/138 451/865/138 450/864/138
f 295/556/15 296/558/15 229/446/15
f 294/555/14 295/556/14 225/441/14
f 162/324/140 161/321/140 366/703/140
f 309/577/141 310/579/141 472/898/141
f 291/549/11 292/551/11 217/426/11
f 290/548/10 291/549/10 213/421/10
f 180/364/110 149/292/110 353/673/110
f 246/476/138 450/864/138 449/863/138
f 201/401/7 287/543/7 288/544/7
f 286/542/6 287/543/6 201/401/6
f 161/321/142 160/319/142 365/701/142
f 245/474/138 449/863/138 448/862/138
f 283/536/3 284/538/3 193/386/3
f 185/374/2 282/535/2 283/536/2
f 178/360/119 379/739/119 350/667/119
f 360/686/34 313/583/34 314/586/34
f 362/692/34 317/594/34 318/596/34
f 364/699/34 363/695/34 318/596/34
f 365/702/34 323/608/34 324/610/34
f 366/704/34 324/610/34 326/614/34
f 368/710/34 329/622/34 330/624/34
f 370/715/34 369/713/34 330/624/34
f 372/721/34 371/719/34 335/636/34
f 372/721/34 336/638/34 338/641/34
f 374/727/34 341/649/34 342/651/34
f 376/730/34 375/729/34 342/651/34
f 377/734/34 347/660/34 348/662/34
f 378/736/34 348/662/34 350/665/34
f 380/742/34 353/674/34 354/675/34
f 382/746/34 381/744/34 354/675/34
f 383/749/34 359/685/34 313/583/34
f 358/681/33 384/750/33 313/584/33
f 358/681/33 479/908/33 385/751/33
f 478/906/33 386/752/33 385/751/33
f 477/904/33 387/753/33 386/752/33
f 355/677/29 357/680/29 356/679/29
f 471/897/29 475/901/29 357/680/29
f 470/896/29 474/900/29 475/901/29
f 469/895/29 473/899/29 474/900/29
f 352/671/28 355/677/28 354/676/28
f 467/893/28 471/897/28 355/677/28
f 466/891/28 470/896/28 471/897/28
f 465/889/28 469/895/28 470/896/28
f 349/664/25 351/669/25 350/666/25
f 349/664/25 459/877/25 463/885/25
f 458/876/25 462/883/25 463/885/25
f 457/875/25 461/881/25 462/883/25
f 346/657/24 349/664/24 348/663/24
f 455/873/24 459/877/24 349/664/24
f 454/871/24 458/876/24 459/877/24
f 453/869/24 457/875/24 458/876/24
f 343/653/21 345/656/21 344/655/21
f 447/861/21 451/865/21 345/656/21
f 446/860/21 450/864/21 451/865/21
f 445/859/21 449/863/21 450/864/21
f 340/646/20 343/653/20 342/652/20
f 443/856/20 447/861/20 343/653/20
f 442/854/20 446/860/20 447/861/20
f 441/852/20 445/859/20 446/860/20
f 337/640/17 339/644/17 338/642/17
f 435/841/17 439/849/17 339/644/17
f 434/840/17 438/847/17 439/849/17
f 433/839/17 437/845/17 438/847/17
f 334/634/16 337/640/16 336/639/16
f 431/837/16 435/841/16 337/640/16
f 430/835/16 434/840/16 435/841/16
f 429/833/16 433/839/16 434/840/16
f 331/626/13 333/632/13 332/629/13
f 423/820/13 427/829/13 333/632/13
f 422/818/13 426/827/13 427/829/13
f 422/818/13 421/816/13 425/825/13
f 328/619/12 331/627/12 330/625/12
f 419/813/12 423/821/12 331/627/12
f 419/813/12 418/811/12 422/819/12
f 417/809/12 421/817/12 422/819/12
f 325/612/9 327/617/9 326/615/9
f 411/797/9 415/805/9 327/617/9
f 410/796/9 414/803/9 415/805/9
f 409/795/9 413/801/9 414/803/9
f 322/605/8 325/612/8 324/611/8
f 322/605/8 407/792/8 411/797/8
f 406/790/8 410/796/8 411/797/8
f 405/788/8 409/795/8 410/796/8
f 319/598/5 321/603/5 320/601/5
f 399/776/5 403/784/5 321/603/5
f 398/774/5 402/782/5 403/784/5
f 397/772/5 401/780/5 402/782/5
f 316/591/4 319/599/4 318/597/4
f 395/769/4 399/777/4 319/599/4
f 394/767/4 398/775/4 399/777/4
f 393/765/4 397/773/4 398/775/4
f 384/750/1 315/589/1 314/587/1
f 384/750/1 385/751/1 391/761/1
f 386/752/1 390/759/1 391/761/1
f 387/753/1 389/757/1 390/759/1
f 476/902/33 480/910/33 387/753/33
f 468/894/29 472/898/29 473/899/29
f 464/887/28 468/894/28 469/895/28
f 456/874/25 460/879/25 461/881/25
f 453/869/24 452/867/24 456/874/24
f 444/858/21 448/862/21 449/863/21
f 440/850/20 444/858/20 445/859/20
f 432/838/17 436/843/17 437/845/17
f 428/831/16 432/838/16 433/839/16
f 420/814/13 424/823/13 425/825/13
f 416/807/12 420/815/12 421/817/12
f 408/794/9 412/799/9 413/801/9
f 404/786/8 408/794/8 409/795/8
f 396/770/5 400/778/5 401/780/5
f 392/763/4 396/771/4 397/773/4
f 480/910/1 388/755/1 389/757/1
f 248/480/138 144/279/138 344/655/138
f 235/458/67 236/460/67 339/645/67
f 166/334/114 370/716/114 332/630/114
f 197/394/106 401/781/106 400/779/106
f 198/396/106 402/783/106 401/781/106
f 277/526/123 312/581/123 476/903/123
f 168/338/107 140/268/107 335/637/107
f 199/398/106 403/785/106 402/783/106
f 278/528/123 277/526/123 477/905/123
f 200/400/106 132/247/106 320/602/106
f 199/398/106 200/400/106 321/604/106
f 279/530/123 278/528/123 478/907/123
f 170/343/67 373/724/67 338/643/67
f 279/530/123 479/909/123 358/682/123
f 241/466/73 300/564/73 440/851/73
f 256/492/129 346/658/129 347/661/129
f 242/468/73 241/466/73 441/853/73
f 172/347/73 143/276/73 341/650/73
f 153/302/143 360/687/143 361/690/143
f 243/470/73 242/468/73 442/855/73
f 243/470/73 443/857/73 340/647/73
f 174/351/138 376/731/138 344/655/138
f 205/406/72 288/545/72 404/787/72
f 208/412/72 322/606/72 323/609/72
f 206/408/72 205/406/72 405/789/72
f 157/311/144 156/309/144 362/693/144
f 176/355/129 146/284/129 347/661/129
f 207/410/72 206/408/72 406/791/72
f 158/315/145 157/312/145 363/696/145
f 312/582/146 281/533/146 480/910/146
f 207/410/72 407/793/72 322/606/72
f 260/500/119 147/287/119 350/667/119
