# Blender 3.3.1
# www.blender.org
o big_coffee_cup
v -0.000000 0.019199 -0.164810
v -0.000000 0.487877 -0.344620
v 0.032153 0.019199 -0.161643
v 0.067232 0.487877 -0.337998
v 0.063070 0.019199 -0.152265
v 0.131880 0.487877 -0.318387
v 0.091563 0.019199 -0.137035
v 0.191460 0.487877 -0.286541
v 0.116538 0.019199 -0.116538
v 0.243683 0.487877 -0.243683
v 0.137034 0.019199 -0.091564
v 0.286541 0.487877 -0.191460
v 0.152264 0.019199 -0.063070
v 0.318387 0.487877 -0.131880
v 0.161643 0.019199 -0.032153
v 0.337998 0.487877 -0.067232
v 0.164810 0.019199 -0.000000
v 0.344620 0.487877 0.000000
v 0.161643 0.019199 0.032153
v 0.337998 0.487877 0.067232
v 0.152264 0.019199 0.063070
v 0.318387 0.487877 0.131880
v 0.137034 0.019199 0.091563
v 0.286541 0.487877 0.191461
v 0.116538 0.019199 0.116538
v 0.243683 0.487877 0.243683
v 0.091563 0.019199 0.137034
v 0.191460 0.487877 0.286541
v 0.063070 0.019199 0.152264
v 0.131880 0.487877 0.318387
v 0.032153 0.019199 0.161643
v 0.067232 0.487877 0.337998
v -0.000000 0.019199 0.164810
v -0.000000 0.487877 0.344620
v -0.032153 0.019199 0.161643
v -0.067232 0.487877 0.337998
v -0.063070 0.019199 0.152264
v -0.131880 0.487877 0.318387
v -0.091564 0.019199 0.137034
v -0.191461 0.487877 0.286541
v -0.116538 0.019199 0.116538
v -0.243683 0.487877 0.243683
v -0.137035 0.019199 0.091563
v -0.286541 0.487877 0.191461
v -0.152265 0.019199 0.063070
v -0.318387 0.487877 0.131880
v -0.161643 0.019199 0.032153
v -0.337998 0.487877 0.067232
v -0.164810 0.019199 -0.000000
v -0.344620 0.487877 0.000000
v -0.161643 0.019199 -0.032153
v -0.337998 0.487877 -0.067232
v -0.152265 0.019199 -0.063070
v -0.318387 0.487877 -0.131880
v -0.137035 0.019199 -0.091564
v -0.286541 0.487877 -0.191460
v -0.116538 0.019199 -0.116538
v -0.243683 0.487877 -0.243683
v -0.091564 0.019199 -0.137035
v -0.191461 0.487877 -0.286541
v -0.063070 0.019199 -0.152265
v -0.131880 0.487877 -0.318387
v -0.032153 0.019199 -0.161643
v -0.067232 0.487877 -0.337998
v 0.077224 0.487877 -0.388232
v -0.000000 0.487877 -0.395838
v 0.151480 0.487877 -0.365706
v 0.219916 0.487877 -0.329127
v 0.279899 0.487877 -0.279899
v 0.329127 0.487877 -0.219915
v 0.365706 0.487877 -0.151480
v 0.388232 0.487877 -0.077224
v 0.395838 0.487877 0.000000
v 0.388232 0.487877 0.077224
v 0.365706 0.487877 0.151481
v 0.329127 0.487877 0.219916
v 0.279899 0.487877 0.279900
v 0.219916 0.487877 0.329127
v 0.151480 0.487877 0.365706
v 0.077224 0.487877 0.388232
v -0.000000 0.487877 0.395838
v -0.077224 0.487877 0.388232
v -0.151481 0.487877 0.365706
v -0.219916 0.487877 0.329127
v -0.279900 0.487877 0.279900
v -0.329127 0.487877 0.219916
v -0.365706 0.487877 0.151481
v -0.388232 0.487877 0.077224
v -0.395838 0.487877 0.000000
v -0.388232 0.487877 -0.077224
v -0.365706 0.487877 -0.151480
v -0.329127 0.487877 -0.219915
v -0.279900 0.487877 -0.279899
v -0.219916 0.487877 -0.329127
v -0.151481 0.487877 -0.365706
v -0.077224 0.487877 -0.388232
v 0.046696 0.050015 -0.234756
v -0.000000 0.050015 -0.239355
v 0.091597 0.050015 -0.221135
v 0.132978 0.050015 -0.199016
v 0.169249 0.050015 -0.169249
v 0.199016 0.050015 -0.132978
v 0.221135 0.050015 -0.091597
v 0.234756 0.050015 -0.046696
v 0.239355 0.050015 0.000000
v 0.234756 0.050015 0.046696
v 0.221135 0.050015 0.091597
v 0.199016 0.050015 0.132978
v 0.169249 0.050015 0.169249
v 0.132978 0.050015 0.199016
v 0.091597 0.050015 0.221135
v 0.046696 0.050015 0.234756
v -0.000000 0.050015 0.239355
v -0.046696 0.050015 0.234756
v -0.091597 0.050015 0.221135
v -0.132978 0.050015 0.199016
v -0.169249 0.050015 0.169249
v -0.199016 0.050015 0.132978
v -0.221135 0.050015 0.091597
v -0.234756 0.050015 0.046696
v -0.239355 0.050015 0.000000
v -0.234756 0.050015 -0.046696
v -0.221135 0.050015 -0.091597
v -0.199016 0.050015 -0.132978
v -0.169249 0.050015 -0.169249
v -0.132978 0.050015 -0.199016
v -0.091597 0.050015 -0.221135
v -0.046696 0.050015 -0.234756
v -0.000000 -0.000455 -0.200623
v 0.039139 -0.000455 -0.196768
v 0.076775 -0.000455 -0.185352
v 0.111460 -0.000455 -0.166812
v 0.141862 -0.000455 -0.141862
v 0.166812 -0.000455 -0.111460
v 0.185351 -0.000455 -0.076775
v 0.196768 -0.000455 -0.039140
v 0.200623 -0.000455 -0.000000
v 0.196768 -0.000455 0.039139
v 0.185351 -0.000455 0.076775
v 0.166812 -0.000455 0.111460
v 0.141862 -0.000455 0.141862
v 0.111460 -0.000455 0.166812
v 0.076775 -0.000455 0.185351
v 0.039139 -0.000455 0.196768
v -0.000000 -0.000455 0.200623
v -0.039140 -0.000455 0.196768
v -0.076775 -0.000455 0.185351
v -0.111460 -0.000455 0.166812
v -0.141862 -0.000455 0.141862
v -0.166812 -0.000455 0.111460
v -0.185351 -0.000455 0.076775
v -0.196768 -0.000455 0.039139
v -0.200623 -0.000455 -0.000000
v -0.196768 -0.000455 -0.039140
v -0.185351 -0.000455 -0.076775
v -0.166812 -0.000455 -0.111460
v -0.141862 -0.000455 -0.141862
v -0.111460 -0.000455 -0.166812
v -0.076775 -0.000455 -0.185352
v -0.039140 -0.000455 -0.196768
v -0.000000 -0.000455 -0.172864
v 0.033724 -0.000455 -0.169542
v 0.066152 -0.000455 -0.159705
v 0.096038 -0.000455 -0.143731
v 0.122233 -0.000455 -0.122233
v 0.143731 -0.000455 -0.096038
v 0.159705 -0.000455 -0.066152
v 0.169542 -0.000455 -0.033724
v 0.172864 -0.000455 -0.000000
v 0.169542 -0.000455 0.033724
v 0.159705 -0.000455 0.066152
v 0.143731 -0.000455 0.096038
v 0.122233 -0.000455 0.122233
v 0.096038 -0.000455 0.143731
v 0.066152 -0.000455 0.159705
v 0.033724 -0.000455 0.169542
v -0.000000 -0.000455 0.172863
v -0.033724 -0.000455 0.169542
v -0.066152 -0.000455 0.159705
v -0.096038 -0.000455 0.143731
v -0.122233 -0.000455 0.122233
v -0.143731 -0.000455 0.096038
v -0.159705 -0.000455 0.066152
v -0.169542 -0.000455 0.033724
v -0.172864 -0.000455 -0.000000
v -0.169542 -0.000455 -0.033724
v -0.159705 -0.000455 -0.066152
v -0.143731 -0.000455 -0.096038
v -0.122233 -0.000455 -0.122233
v -0.096038 -0.000455 -0.143731
v -0.066152 -0.000455 -0.159705
v -0.033724 -0.000455 -0.169542
v -0.000000 0.111752 -0.307887
v -0.000000 0.225137 -0.350918
v -0.000000 0.367451 -0.382039
v 0.074532 0.367451 -0.374698
v 0.068461 0.225137 -0.344175
v 0.060066 0.111752 -0.301971
v 0.146200 0.367451 -0.352958
v 0.134290 0.225137 -0.324206
v 0.117823 0.111752 -0.284450
v 0.212250 0.367451 -0.317654
v 0.194960 0.225137 -0.291778
v 0.171053 0.111752 -0.255998
v 0.270143 0.367451 -0.270142
v 0.248137 0.225137 -0.248136
v 0.217709 0.111752 -0.217709
v 0.317654 0.367451 -0.212250
v 0.291778 0.225137 -0.194960
v 0.255999 0.111752 -0.171053
v 0.352958 0.367451 -0.146200
v 0.324206 0.225137 -0.134290
v 0.284450 0.111752 -0.117823
v 0.374698 0.367451 -0.074532
v 0.344175 0.225137 -0.068461
v 0.301971 0.111752 -0.060066
v 0.382039 0.367451 0.000000
v 0.350918 0.225137 0.000000
v 0.307887 0.111752 0.000000
v 0.374698 0.367451 0.074532
v 0.344175 0.225137 0.068461
v 0.301971 0.111752 0.060066
v 0.352958 0.367451 0.146200
v 0.324206 0.225137 0.134291
v 0.284450 0.111752 0.117823
v 0.317654 0.367451 0.212250
v 0.291778 0.225137 0.194960
v 0.255999 0.111752 0.171053
v 0.270143 0.367451 0.270143
v 0.248137 0.225137 0.248137
v 0.217709 0.111752 0.217709
v 0.212250 0.367451 0.317654
v 0.194960 0.225137 0.291778
v 0.171053 0.111752 0.255999
v 0.146200 0.367451 0.352959
v 0.134290 0.225137 0.324206
v 0.117823 0.111752 0.284450
v 0.074532 0.367451 0.374699
v 0.068461 0.225137 0.344175
v 0.060066 0.111752 0.301971
v -0.000000 0.367451 0.382040
v -0.000000 0.225137 0.350918
v -0.000000 0.111752 0.307887
v -0.074532 0.367451 0.374699
v -0.068461 0.225137 0.344175
v -0.060066 0.111752 0.301971
v -0.146200 0.367451 0.352959
v -0.134291 0.225137 0.324206
v -0.117823 0.111752 0.284450
v -0.212250 0.367451 0.317654
v -0.194960 0.225137 0.291778
v -0.171053 0.111752 0.255999
v -0.270143 0.367451 0.270143
v -0.248137 0.225137 0.248137
v -0.217709 0.111752 0.217709
v -0.317654 0.367451 0.212250
v -0.291778 0.225137 0.194960
v -0.255999 0.111752 0.171053
v -0.352958 0.367451 0.146200
v -0.324206 0.225137 0.134291
v -0.284450 0.111752 0.117823
v -0.374699 0.367451 0.074532
v -0.344175 0.225137 0.068461
v -0.301971 0.111752 0.060066
v -0.382039 0.367451 0.000000
v -0.350918 0.225137 0.000000
v -0.307887 0.111752 0.000000
v -0.374699 0.367451 -0.074532
v -0.344175 0.225137 -0.068461
v -0.301971 0.111752 -0.060066
v -0.352958 0.367451 -0.146200
v -0.324206 0.225137 -0.134290
v -0.284450 0.111752 -0.117823
v -0.317654 0.367451 -0.212250
v -0.291778 0.225137 -0.194960
v -0.255999 0.111752 -0.171053
v -0.270143 0.367451 -0.270142
v -0.248137 0.225137 -0.248136
v -0.217709 0.111752 -0.217709
v -0.212250 0.367451 -0.317654
v -0.194960 0.225137 -0.291778
v -0.171053 0.111752 -0.255998
v -0.146200 0.367451 -0.352958
v -0.134291 0.225137 -0.324206
v -0.117823 0.111752 -0.284450
v -0.074532 0.367451 -0.374698
v -0.068461 0.225137 -0.344175
v -0.060066 0.111752 -0.301971
v -0.359437 0.296294 0.071497
v -0.323073 0.168445 0.064263
v -0.366479 0.296294 0.000000
v -0.329403 0.168445 0.000000
v -0.304929 0.111752 0.030033
v -0.347547 0.225137 0.034231
v -0.378369 0.367451 0.037266
v -0.362958 0.296294 0.035748
v -0.326238 0.168445 0.032132
v -0.553949 0.337025 0.054559
v -0.557619 0.337025 0.017293
v -0.550278 0.337025 0.091825
v -0.571703 0.288223 0.092403
v -0.578744 0.288223 0.020906
v -0.575224 0.288223 0.056655
v -0.560439 0.187164 0.055199
v -0.563810 0.187164 0.020968
v -0.557067 0.187164 0.089429
v -0.500591 0.130472 0.081747
v -0.506921 0.130472 0.017484
v -0.503756 0.130472 0.049616
v -0.444747 0.119720 0.076247
v -0.447912 0.119720 0.044116
v -0.469220 0.176413 0.046214
v -0.465849 0.176413 0.080445
v -0.451076 0.119720 0.011984
v -0.472592 0.176413 0.011984
v -0.511246 0.306843 0.012728
v -0.511264 0.368589 0.012728
v -0.503923 0.368589 0.087260
v -0.504204 0.306843 0.084224
v -0.507725 0.306843 0.048476
v -0.507593 0.368589 0.049994
v -0.387051 0.123244 0.038121
v -0.404988 0.179937 0.074450
v -0.411731 0.179937 0.005990
v -0.383886 0.123244 0.070253
v -0.408360 0.179937 0.040220
v -0.390215 0.123244 0.005990
v -0.518614 0.239016 0.051079
v -0.522063 0.239016 0.016064
v -0.580226 0.239442 0.021792
v -0.576778 0.239442 0.056808
v -0.573329 0.239442 0.091823
v -0.515165 0.239016 0.086095
v -0.446652 0.377060 0.006364
v -0.436557 0.329745 0.079092
v -0.442981 0.377060 0.043630
v -0.443599 0.329745 0.007596
v -0.439311 0.377060 0.080896
v -0.440078 0.329745 0.043344
vn 0.0974 -0.1133 -0.9888
vn 0.2884 -0.1133 -0.9508
vn 0.4684 -0.1133 -0.8762
vn 0.6303 -0.1133 -0.7680
vn 0.7680 -0.1133 -0.6303
vn 0.8762 -0.1133 -0.4684
vn 0.9508 -0.1133 -0.2884
vn 0.9888 -0.1133 -0.0974
vn 0.9888 -0.1133 0.0974
vn 0.9508 -0.1133 0.2884
vn 0.8762 -0.1133 0.4684
vn 0.7680 -0.1133 0.6303
vn 0.6303 -0.1133 0.7680
vn 0.4684 -0.1133 0.8762
vn 0.2884 -0.1133 0.9508
vn 0.0974 -0.1133 0.9888
vn -0.0974 -0.1133 0.9888
vn -0.2884 -0.1133 0.9508
vn -0.4684 -0.1133 0.8762
vn -0.6303 -0.1133 0.7680
vn -0.7680 -0.1133 0.6303
vn -0.8762 -0.1133 0.4684
vn -0.9508 -0.1133 0.2884
vn -0.9888 -0.1133 0.0974
vn -0.9888 -0.1133 -0.0974
vn -0.9508 -0.1133 -0.2884
vn -0.8762 -0.1133 -0.4684
vn -0.7680 -0.1133 -0.6303
vn -0.6303 -0.1133 -0.7680
vn -0.4684 -0.1133 -0.8762
vn 0.9307 0.2327 0.2823
vn -0.2884 -0.1133 -0.9508
vn -0.0974 -0.1133 -0.9888
vn -0.0000 -1.0000 -0.0000
vn -0.0000 1.0000 -0.0000
vn -0.6170 0.2327 -0.7518
vn 0.8577 0.2327 0.4585
vn -0.4585 0.2327 -0.8577
vn -0.0953 0.2327 0.9679
vn 0.7518 0.2327 0.6170
vn -0.2823 0.2327 -0.9307
vn -0.2823 0.2327 0.9307
vn 0.6170 0.2327 0.7518
vn -0.0953 0.2327 -0.9679
vn -0.4585 0.2327 0.8577
vn 0.4585 0.2327 0.8577
vn 0.0953 0.2327 -0.9679
vn -0.6170 0.2327 0.7518
vn 0.2823 0.2327 0.9307
vn 0.2823 0.2327 -0.9307
vn -0.7518 0.2327 0.6170
vn 0.0953 0.2327 0.9679
vn 0.4585 0.2327 -0.8577
vn -0.8577 0.2327 0.4585
vn 0.6170 0.2327 -0.7518
vn -0.9307 0.2327 0.2823
vn 0.7518 0.2327 -0.6170
vn -0.9679 0.2327 0.0953
vn 0.8577 0.2327 -0.4585
vn -0.9679 0.2327 -0.0953
vn 0.9307 0.2327 -0.2823
vn -0.9307 0.2327 -0.2823
vn 0.9679 0.2327 -0.0953
vn -0.8577 0.2327 -0.4585
vn 0.9679 0.2327 0.0953
vn -0.7518 0.2327 -0.6170
vn -0.0908 -0.3776 0.9215
vn -0.2688 -0.3776 0.8861
vn -0.4365 -0.3776 0.8166
vn -0.5874 -0.3776 0.7158
vn -0.7158 -0.3776 0.5874
vn -0.8166 -0.3776 0.4365
vn -0.8861 -0.3776 0.2688
vn -0.9215 -0.3776 0.0908
vn -0.9215 -0.3776 -0.0908
vn -0.8861 -0.3776 -0.2688
vn -0.8166 -0.3776 -0.4365
vn -0.7158 -0.3776 -0.5874
vn -0.5874 -0.3776 -0.7158
vn -0.4365 -0.3776 -0.8166
vn -0.2688 -0.3776 -0.8861
vn -0.0908 -0.3776 -0.9215
vn 0.0908 -0.3776 -0.9215
vn 0.2688 -0.3776 -0.8861
vn 0.4365 -0.3776 -0.8166
vn 0.5874 -0.3776 -0.7158
vn 0.7158 -0.3776 -0.5874
vn 0.8166 -0.3776 -0.4365
vn 0.8861 -0.3776 -0.2688
vn 0.9215 -0.3776 -0.0908
vn 0.9215 -0.3776 0.0908
vn 0.8861 -0.3776 0.2688
vn 0.8166 -0.3776 0.4365
vn 0.7158 -0.3776 0.5874
vn 0.5874 -0.3776 0.7158
vn 0.4365 -0.3776 0.8166
vn 0.2688 -0.3776 0.8861
vn 0.0908 -0.3776 0.9215
vn -0.0710 -0.6893 -0.7210
vn -0.0917 -0.3533 -0.9310
vn -0.0958 -0.2127 -0.9724
vn -0.2103 -0.6893 -0.6933
vn -0.2716 -0.3533 -0.8952
vn -0.2836 -0.2127 -0.9351
vn -0.3415 -0.6893 -0.6390
vn -0.4410 -0.3533 -0.8250
vn -0.4606 -0.2127 -0.8618
vn -0.4596 -0.6893 -0.5601
vn -0.5935 -0.3533 -0.7232
vn -0.6199 -0.2127 -0.7553
vn -0.5601 -0.6893 -0.4596
vn -0.7232 -0.3533 -0.5935
vn -0.7553 -0.2127 -0.6199
vn -0.6390 -0.6893 -0.3415
vn -0.8250 -0.3533 -0.4410
vn -0.8618 -0.2127 -0.4606
vn -0.6933 -0.6893 -0.2103
vn -0.8952 -0.3533 -0.2716
vn -0.9351 -0.2127 -0.2836
vn -0.7210 -0.6893 -0.0710
vn -0.9310 -0.3533 -0.0917
vn -0.9724 -0.2127 -0.0958
vn -0.7210 -0.6893 0.0710
vn -0.9495 -0.2996 0.0935
vn -0.6933 -0.6893 0.2103
vn -0.8952 -0.3533 0.2716
vn -0.9351 -0.2127 0.2836
vn -0.6390 -0.6893 0.3415
vn -0.8250 -0.3533 0.4410
vn -0.8618 -0.2127 0.4606
vn -0.5601 -0.6893 0.4596
vn -0.7232 -0.3533 0.5935
vn -0.7553 -0.2127 0.6199
vn -0.4596 -0.6893 0.5601
vn -0.5935 -0.3533 0.7232
vn -0.6199 -0.2127 0.7553
vn -0.3415 -0.6893 0.6390
vn -0.4410 -0.3533 0.8250
vn -0.4606 -0.2127 0.8617
vn -0.2103 -0.6893 0.6933
vn -0.2716 -0.3533 0.8952
vn -0.2836 -0.2127 0.9351
vn -0.0710 -0.6893 0.7210
vn -0.0917 -0.3533 0.9310
vn -0.0958 -0.2127 0.9724
vn 0.0710 -0.6893 0.7210
vn 0.0917 -0.3533 0.9310
vn 0.0958 -0.2127 0.9724
vn 0.2103 -0.6893 0.6933
vn 0.2716 -0.3533 0.8952
vn 0.2836 -0.2127 0.9351
vn 0.3415 -0.6893 0.6390
vn 0.4410 -0.3533 0.8250
vn 0.4606 -0.2127 0.8618
vn 0.4596 -0.6893 0.5601
vn 0.5935 -0.3533 0.7232
vn 0.6199 -0.2127 0.7553
vn 0.5601 -0.6893 0.4596
vn 0.7232 -0.3533 0.5935
vn 0.7553 -0.2127 0.6199
vn 0.6390 -0.6893 0.3415
vn 0.8250 -0.3533 0.4410
vn 0.8618 -0.2127 0.4606
vn 0.6933 -0.6893 0.2103
vn 0.8952 -0.3533 0.2716
vn 0.9351 -0.2127 0.2836
vn 0.7210 -0.6893 0.0710
vn 0.9310 -0.3533 0.0917
vn 0.9724 -0.2127 0.0958
vn 0.7210 -0.6893 -0.0710
vn 0.9310 -0.3533 -0.0917
vn 0.9724 -0.2127 -0.0958
vn 0.6933 -0.6893 -0.2103
vn 0.8952 -0.3533 -0.2716
vn 0.9351 -0.2127 -0.2836
vn 0.6390 -0.6893 -0.3415
vn 0.8250 -0.3533 -0.4410
vn 0.8618 -0.2127 -0.4606
vn 0.5601 -0.6893 -0.4596
vn 0.7232 -0.3533 -0.5935
vn 0.7553 -0.2127 -0.6199
vn 0.4596 -0.6893 -0.5601
vn 0.5935 -0.3533 -0.7232
vn 0.6199 -0.2127 -0.7553
vn 0.3415 -0.6893 -0.6390
vn 0.4410 -0.3533 -0.8250
vn 0.4606 -0.2127 -0.8617
vn 0.2103 -0.6893 -0.6933
vn 0.2716 -0.3533 -0.8952
vn 0.2836 -0.2127 -0.9351
vn 0.0710 -0.6893 -0.7210
vn 0.0917 -0.3533 -0.9310
vn 0.0958 -0.2127 -0.9724
vn -0.9724 -0.2127 0.0958
vn -0.1873 -0.9821 0.0184
vn 0.1328 -0.0466 0.9900
vn -0.0980 -0.0000 -0.9952
vn -0.9310 -0.3533 0.0917
vn -0.9116 0.4012 0.0898
vn -0.5583 0.8278 0.0550
vn -0.0981 -0.0151 -0.9951
vn -0.7021 -0.7087 0.0691
vn -0.1028 -0.0421 -0.9938
vn 0.0903 -0.0401 0.9951
vn 0.7798 0.6213 -0.0768
vn -0.0572 0.9983 0.0056
vn 0.0572 -0.9983 -0.0056
vn 0.1000 -0.0364 0.9943
vn -0.0959 -0.0364 -0.9947
vn -0.1288 0.9916 0.0127
vn 0.3184 -0.9474 -0.0314
vn -0.0938 -0.0320 -0.9951
vn 0.0921 -0.0493 0.9945
vn 0.0979 -0.0151 0.9951
vn -0.5918 0.8040 0.0583
vn 0.5918 -0.8040 -0.0583
vn -0.0766 -0.0291 -0.9966
vn 0.1193 -0.0291 0.9924
vn 0.9821 -0.1614 -0.0967
vn 0.0964 -0.0139 0.9952
vn -0.1118 -0.0310 -0.9932
vn -0.9947 0.0320 0.0980
vn 0.0878 -0.0236 0.9959
vn -0.1028 -0.0325 -0.9942
vn -0.3944 -0.9181 0.0388
vn 0.1457 0.9892 -0.0144
vn -0.8617 -0.2127 -0.4606
vn -0.8617 -0.2127 0.4606
vn -0.4606 -0.2127 0.8618
vn 0.8617 -0.2127 0.4606
vn 0.8617 -0.2127 -0.4606
vn 0.4606 -0.2127 -0.8618
vn 0.1311 -0.0493 0.9901
vn -0.1136 -0.0243 -0.9932
vn -0.0996 -0.0139 -0.9949
vn -0.1056 -0.0401 -0.9936
vn 0.0930 -0.0421 0.9948
vn -0.0756 -0.0000 -0.9971
vn 0.1021 -0.0320 0.9943
vn 0.1180 0.0083 0.9930
vn 0.0932 -0.0325 0.9951
vn -0.1081 -0.0236 -0.9939
vt 0.864710 0.925113
vt 0.844518 0.047366
vt 0.193048 0.327801
vt 0.987632 0.367064
vt 0.850900 0.922366
vt 0.844899 0.033560
vt 0.221926 0.322057
vt 0.988824 0.338209
vt 0.837892 0.916977
vt 0.845647 0.020560
vt 0.249129 0.310789
vt 0.990760 0.311049
vt 0.826184 0.909154
vt 0.846734 0.008865
vt 0.833957 0.664685
vt 0.993365 0.286628
vt 0.273610 0.294431
vt 0.791385 0.518838
vt 0.816228 0.899197
vt 0.832744 0.654711
vt 0.294431 0.273611
vt 0.788572 0.498018
vt 0.808405 0.887489
vt 0.831843 0.642990
vt 0.310789 0.249129
vt 0.786362 0.473536
vt 0.803017 0.874479
vt 0.831288 0.629972
vt 0.322057 0.221926
vt 0.784840 0.446333
vt 0.800270 0.860669
vt 0.831101 0.616157
vt 0.327801 0.193048
vt 0.784064 0.417455
vt 0.800270 0.846587
vt 0.831288 0.602077
vt 0.327801 0.163604
vt 0.784064 0.388011
vt 0.803017 0.832777
vt 0.831843 0.588273
vt 0.322056 0.134726
vt 0.784840 0.359133
vt 0.808405 0.819767
vt 0.832744 0.575274
vt 0.310789 0.107523
vt 0.786362 0.331930
vt 0.816228 0.808059
vt 0.833957 0.563581
vt 0.346841 0.815841
vt 0.294430 0.083041
vt 0.788572 0.307448
vt 0.826184 0.798102
vt 0.345606 0.805868
vt 0.791385 0.286628
vt 0.273610 0.062221
vt 0.195380 0.845396
vt 0.837892 0.790279
vt 0.344688 0.794148
vt 0.249129 0.045863
vt 0.192798 0.820951
vt 0.850900 0.784891
vt 0.344123 0.781131
vt 0.221926 0.034595
vt 0.190880 0.793774
vt 0.864710 0.782143
vt 0.343933 0.767317
vt 0.193048 0.028851
vt 0.189699 0.764910
vt 0.878791 0.782143
vt 0.344123 0.753237
vt 0.163604 0.028851
vt 0.189300 0.735469
vt 0.892601 0.784891
vt 0.344688 0.739432
vt 0.134725 0.034595
vt 0.189699 0.706581
vt 0.905609 0.790279
vt 0.345606 0.726433
vt 0.107523 0.045863
vt 0.190880 0.679357
vt 0.346841 0.714739
vt 0.917317 0.798102
vt 0.208651 0.636696
vt 0.083041 0.062221
vt 0.192798 0.654844
vt 0.927273 0.808059
vt 0.210388 0.646653
vt 0.062221 0.083041
vt 0.195380 0.633983
vt 0.786999 0.972713
vt 0.935096 0.819767
vt 0.211753 0.658361
vt 0.045863 0.107523
vt 0.784145 0.948231
vt 0.940485 0.832777
vt 0.212693 0.671370
vt 0.034595 0.134726
vt 0.782179 0.921029
vt 0.943232 0.846587
vt 0.213172 0.685181
vt 0.028851 0.163604
vt 0.781177 0.892150
vt 0.943232 0.860669
vt 0.213172 0.699262
vt 0.028851 0.193048
vt 0.781177 0.862706
vt 0.940485 0.874479
vt 0.212693 0.713073
vt 0.782179 0.833828
vt 0.034595 0.221926
vt 0.935096 0.887489
vt 0.211753 0.726082
vt 0.045863 0.249129
vt 0.784145 0.806625
vt 0.927273 0.899197
vt 0.210388 0.737791
vt 0.786999 0.782143
vt 0.062221 0.273611
vt 0.993365 0.498072
vt 0.208651 0.747747
vt 0.917317 0.909154
vt 0.846734 0.100002
vt 0.083041 0.294431
vt 0.990760 0.477180
vt 0.905609 0.916977
vt 0.845647 0.088281
vt 0.107523 0.310789
vt 0.988824 0.452642
vt 0.892601 0.922366
vt 0.844899 0.075263
vt 0.134725 0.322057
vt 0.987632 0.425401
vt 0.878791 0.925113
vt 0.844518 0.061447
vt 0.163604 0.327801
vt 0.987229 0.396505
vt 0.363745 0.370016
vt 0.228406 0.343419
vt 0.363287 0.403197
vt 0.195236 0.350017
vt 0.365102 0.338746
vt 0.259652 0.330476
vt 0.367305 0.310590
vt 0.287772 0.311687
vt 0.370271 0.286628
vt 0.227679 0.382553
vt 0.311686 0.287772
vt 0.230957 0.410674
vt 0.330476 0.259652
vt 0.233215 0.441919
vt 0.343418 0.228406
vt 0.234366 0.475090
vt 0.350016 0.195236
vt 0.234366 0.508910
vt 0.350016 0.161416
vt 0.233215 0.542080
vt 0.343418 0.128246
vt 0.230957 0.573326
vt 0.330476 0.097000
vt 0.227679 0.601446
vt 0.370334 0.804107
vt 0.311686 0.068880
vt 0.367342 0.780109
vt 0.287772 0.044965
vt 0.365118 0.751924
vt 0.259652 0.026176
vt 0.363749 0.720635
vt 0.228406 0.013233
vt 0.363287 0.687444
vt 0.195236 0.006635
vt 0.363749 0.653627
vt 0.161416 0.006635
vt 0.365118 0.620484
vt 0.128245 0.013233
vt 0.367342 0.589287
vt 0.097000 0.026176
vt 0.370334 0.561237
vt 0.578537 0.006635
vt 0.068879 0.044965
vt 0.581768 0.030550
vt 0.044965 0.068880
vt 0.584307 0.058670
vt 0.026176 0.097000
vt 0.586055 0.089916
vt 0.013233 0.128246
vt 0.586946 0.123086
vt 0.006635 0.161416
vt 0.586946 0.156906
vt 0.006636 0.195236
vt 0.586055 0.190077
vt 0.013233 0.228406
vt 0.584307 0.221322
vt 0.026176 0.259652
vt 0.581768 0.249443
vt 0.044965 0.287772
vt 0.578537 0.273357
vt 0.370271 0.529462
vt 0.068880 0.311687
vt 0.367305 0.501383
vt 0.097000 0.330476
vt 0.365102 0.470168
vt 0.128245 0.343419
vt 0.363745 0.437014
vt 0.161416 0.350017
vt 0.735332 0.764883
vt 0.805763 0.349144
vt 0.715275 0.768872
vt 0.804935 0.369185
vt 0.754226 0.757057
vt 0.807108 0.330280
vt 0.771229 0.745695
vt 0.808917 0.313318
vt 0.606230 0.483374
vt 0.785690 0.731235
vt 0.604276 0.468913
vt 0.797052 0.714231
vt 0.602741 0.451909
vt 0.804878 0.695337
vt 0.601684 0.433016
vt 0.808867 0.675280
vt 0.601145 0.412958
vt 0.808867 0.654830
vt 0.601145 0.392508
vt 0.804878 0.634772
vt 0.601684 0.372451
vt 0.797052 0.615879
vt 0.602741 0.353557
vt 0.785690 0.598875
vt 0.604276 0.336553
vt 0.771229 0.584414
vt 0.010858 0.818776
vt 0.606230 0.322093
vt 0.754226 0.573053
vt 0.009065 0.801797
vt 0.735332 0.565227
vt 0.007733 0.782921
vt 0.715275 0.561237
vt 0.006913 0.762874
vt 0.694824 0.561237
vt 0.006635 0.742426
vt 0.674767 0.565227
vt 0.006913 0.722362
vt 0.655874 0.573053
vt 0.007733 0.703454
vt 0.638870 0.584414
vt 0.009065 0.686428
vt 0.010858 0.671939
vt 0.624409 0.598875
vt 0.605276 0.943608
vt 0.613048 0.615879
vt 0.603293 0.926604
vt 0.605222 0.634772
vt 0.601928 0.907711
vt 0.601232 0.654830
vt 0.601232 0.887653
vt 0.601232 0.675280
vt 0.601232 0.867203
vt 0.605222 0.695337
vt 0.601928 0.847146
vt 0.613048 0.714231
vt 0.603293 0.828252
vt 0.624409 0.731235
vt 0.605276 0.811248
vt 0.808917 0.460177
vt 0.638870 0.745695
vt 0.807108 0.445666
vt 0.655874 0.757057
vt 0.805763 0.428623
vt 0.674767 0.764883
vt 0.804935 0.409703
vt 0.694825 0.768872
vt 0.804656 0.389633
vt 0.727623 0.037961
vt 0.585837 0.408511
vt 0.744434 0.041305
vt 0.586069 0.391693
vt 0.760269 0.047865
vt 0.586757 0.375845
vt 0.774521 0.057388
vt 0.587874 0.361574
vt 0.006636 0.436529
vt 0.786641 0.069509
vt 0.796163 0.083761
vt 0.008297 0.450781
vt 0.802723 0.099597
vt 0.009441 0.466617
vt 0.806067 0.116409
vt 0.010025 0.483429
vt 0.806067 0.133550
vt 0.010025 0.500570
vt 0.802723 0.150362
vt 0.009441 0.517382
vt 0.796163 0.166198
vt 0.008297 0.533218
vt 0.786641 0.180450
vt 0.006635 0.547470
vt 0.587961 0.729205
vt 0.774521 0.192571
vt 0.760269 0.202094
vt 0.586834 0.714920
vt 0.744434 0.208653
vt 0.586140 0.699062
vt 0.727623 0.211998
vt 0.585906 0.682239
vt 0.710483 0.211998
vt 0.586140 0.665100
vt 0.693672 0.208653
vt 0.586834 0.648302
vt 0.587961 0.632491
vt 0.677837 0.202094
vt 0.663585 0.192571
vt 0.651465 0.180450
vt 0.641943 0.166198
vt 0.363287 0.098778
vt 0.635383 0.150362
vt 0.364173 0.114614
vt 0.632039 0.133550
vt 0.364625 0.131426
vt 0.632039 0.116409
vt 0.364625 0.148567
vt 0.635383 0.099597
vt 0.364173 0.165379
vt 0.363287 0.181215
vt 0.641943 0.083761
vt 0.651465 0.069509
vt 0.663585 0.057388
vt 0.677837 0.047865
vt 0.587874 0.458274
vt 0.693672 0.041305
vt 0.586757 0.442453
vt 0.586069 0.425650
vt 0.710483 0.037961
vt 0.726437 0.050002
vt 0.835550 0.047018
vt 0.740922 0.052883
vt 0.835950 0.032538
vt 0.754566 0.058535
vt 0.836735 0.018902
vt 0.837874 0.006635
vt 0.766846 0.066740
vt 0.825134 0.667281
vt 0.777289 0.077184
vt 0.823862 0.656820
vt 0.785494 0.089464
vt 0.822917 0.644526
vt 0.791146 0.103109
vt 0.822335 0.630872
vt 0.794027 0.117595
vt 0.822138 0.616382
vt 0.794027 0.132364
vt 0.822335 0.601614
vt 0.791146 0.146850
vt 0.822917 0.587135
vt 0.785494 0.160495
vt 0.823862 0.573501
vt 0.825134 0.561237
vt 0.777289 0.172775
vt 0.338014 0.818435
vt 0.766846 0.183219
vt 0.336719 0.807975
vt 0.754566 0.191424
vt 0.335757 0.795682
vt 0.740922 0.197076
vt 0.335164 0.782029
vt 0.726437 0.199957
vt 0.334964 0.767540
vt 0.711669 0.199957
vt 0.335164 0.752772
vt 0.697184 0.197076
vt 0.335757 0.738293
vt 0.683539 0.191424
vt 0.336719 0.724658
vt 0.671260 0.183219
vt 0.338014 0.712392
vt 0.217474 0.633983
vt 0.660817 0.172775
vt 0.219296 0.644426
vt 0.652612 0.160495
vt 0.220727 0.656706
vt 0.646960 0.146850
vt 0.221713 0.670351
vt 0.644079 0.132364
vt 0.222216 0.684837
vt 0.644079 0.117595
vt 0.222216 0.699606
vt 0.646960 0.103109
vt 0.221713 0.714092
vt 0.652612 0.089464
vt 0.220727 0.727737
vt 0.660817 0.077184
vt 0.219296 0.740017
vt 0.671260 0.066740
vt 0.217474 0.750461
vt 0.837874 0.102227
vt 0.683539 0.058535
vt 0.836735 0.089933
vt 0.697184 0.052883
vt 0.835950 0.076278
vt 0.711669 0.050002
vt 0.835550 0.061788
vt 0.530941 0.404680
vt 0.479406 0.403542
vt 0.416101 0.403071
vt 0.416543 0.371047
vt 0.479812 0.374127
vt 0.531298 0.378871
vt 0.417852 0.340867
vt 0.481015 0.346405
vt 0.532353 0.354550
vt 0.171160 0.363288
vt 0.419979 0.313692
vt 0.108585 0.373773
vt 0.482968 0.321444
vt 0.057849 0.388270
vt 0.803679 0.021250
vt 0.534067 0.332649
vt 0.422841 0.290566
vt 0.175187 0.386368
vt 0.112283 0.394973
vt 0.822279 0.039851
vt 0.061094 0.406871
vt 0.178351 0.413509
vt 0.115189 0.419903
vt 0.063644 0.428743
vt 0.180530 0.443665
vt 0.117191 0.447602
vt 0.065400 0.453047
vt 0.181641 0.475679
vt 0.118211 0.477009
vt 0.066295 0.478847
vt 0.181641 0.508320
vt 0.118211 0.506991
vt 0.066295 0.505152
vt 0.180530 0.540334
vt 0.117191 0.536397
vt 0.065400 0.530953
vt 0.178351 0.570491
vt 0.115189 0.564097
vt 0.063644 0.555256
vt 0.422900 0.800170
vt 0.175187 0.597631
vt 0.112283 0.589026
vt 0.822279 0.210108
vt 0.061094 0.577128
vt 0.420012 0.777009
vt 0.171160 0.620712
vt 0.483005 0.769267
vt 0.108585 0.610227
vt 0.534114 0.758080
vt 0.803679 0.228709
vt 0.057849 0.595729
vt 0.417866 0.749807
vt 0.481034 0.744281
vt 0.532385 0.736157
vt 0.416545 0.719608
vt 0.479820 0.716543
vt 0.531320 0.711820
vt 0.416099 0.687575
vt 0.479410 0.687118
vt 0.530960 0.686004
vt 0.416545 0.654936
vt 0.479820 0.657139
vt 0.531320 0.659701
vt 0.417866 0.622948
vt 0.481034 0.627757
vt 0.532385 0.633922
vt 0.420012 0.592839
vt 0.483005 0.600100
vt 0.655302 0.243324
vt 0.534114 0.609657
vt 0.526017 0.011284
vt 0.422900 0.565767
vt 0.463397 0.021769
vt 0.485657 0.575233
vt 0.412825 0.036267
vt 0.536442 0.587839
vt 0.633431 0.228709
vt 0.529135 0.034365
vt 0.466261 0.042970
vt 0.614831 0.210108
vt 0.415338 0.054868
vt 0.531585 0.061505
vt 0.468512 0.067899
vt 0.417313 0.076740
vt 0.600217 0.188236
vt 0.533273 0.091662
vt 0.470062 0.095599
vt 0.418673 0.101043
vt 0.534133 0.123676
vt 0.345819 0.593975
vt 0.293549 0.622199
vt 0.470852 0.125005
vt 0.247637 0.804620
vt 0.343094 0.530966
vt 0.419366 0.126843
vt 0.534133 0.156317
vt 0.345816 0.378248
vt 0.326190 0.622199
vt 0.343091 0.441269
vt 0.470852 0.154987
vt 0.277619 0.804620
vt 0.419366 0.153149
vt 0.533273 0.188331
vt 0.470062 0.184393
vt 0.418673 0.178949
vt 0.531585 0.218487
vt 0.468512 0.212093
vt 0.600217 0.061723
vt 0.417313 0.203252
vt 0.426328 0.547966
vt 0.529135 0.245627
vt 0.488800 0.536634
vt 0.466261 0.237023
vt 0.415338 0.225125
vt 0.539184 0.521451
vt 0.614831 0.039851
vt 0.526017 0.268708
vt 0.422841 0.524935
vt 0.485597 0.515479
vt 0.536373 0.502890
vt 0.633431 0.021250
vt 0.419979 0.497835
vt 0.482968 0.490586
vt 0.534067 0.481050
vt 0.655302 0.006635
vt 0.417852 0.467707
vt 0.481015 0.462913
vt 0.532353 0.456770
vt 0.416543 0.435709
vt 0.479812 0.433522
vt 0.531298 0.430983
vt 0.344457 0.562470
vt 0.502492 0.124340
vt 0.247993 0.791349
vt 0.445109 0.125924
vt 0.293549 0.789963
vt 0.345819 0.504800
vt 0.279303 0.791021
vt 0.502492 0.155652
vt 0.344453 0.409758
vt 0.445109 0.154068
vt 0.345816 0.467438
vt 0.321693 0.789963
vt 0.419366 0.139996
vt 0.470852 0.139996
vt 0.262628 0.804620
vt 0.534133 0.139996
vt 0.309870 0.622199
vt 0.502492 0.139996
vt 0.263648 0.791185
vt 0.445109 0.139996
vt 0.307621 0.789963
vt 0.263958 0.622199
vt 0.309870 0.699122
vt 0.280278 0.622199
vt 0.268120 0.371263
vt 0.326190 0.699122
vt 0.268121 0.600953
vt 0.247637 0.622199
vt 0.293549 0.699122
vt 0.248302 0.642015
vt 0.253698 0.582886
vt 0.279614 0.642015
vt 0.253697 0.389332
vt 0.263958 0.642015
vt 0.263958 0.686532
vt 0.248766 0.433251
vt 0.278949 0.686532
vt 0.248967 0.686532
vt 0.248765 0.538975
vt 0.293549 0.712392
vt 0.249886 0.714368
vt 0.266466 0.508847
vt 0.278030 0.714368
vt 0.266466 0.463386
vt 0.321693 0.712392
vt 0.263958 0.714368
vt 0.307621 0.712392
vt 0.288921 0.498104
vt 0.293549 0.736896
vt 0.307621 0.736896
vt 0.837849 0.733780
vt 0.262628 0.857951
vt 0.286196 0.524269
vt 0.247637 0.857951
vt 0.852839 0.733951
vt 0.321693 0.736896
vt 0.288920 0.474132
vt 0.286195 0.447963
vt 0.822859 0.733608
vt 0.277619 0.857951
vt 0.279303 0.727639
vt 0.822138 0.680552
vt 0.284417 0.389057
vt 0.326190 0.678792
vt 0.291233 0.363287
vt 0.293549 0.678792
vt 0.291235 0.608929
vt 0.247993 0.727967
vt 0.284373 0.582986
vt 0.853448 0.680911
vt 0.263648 0.727803
vt 0.837793 0.680731
vt 0.309870 0.678792
vt 0.307621 0.763532
vt 0.247637 0.831294
vt 0.312352 0.518920
vt 0.312351 0.453315
vt 0.277619 0.831294
vt 0.315077 0.492755
vt 0.293549 0.763532
vt 0.262628 0.831294
vt 0.321693 0.763532
vt 0.315075 0.479484
vt 0.838114 0.710689
vt 0.822780 0.710513
vt 0.272214 0.416256
vt 0.247637 0.409558
vt 0.279293 0.662989
vt 0.263958 0.662989
vt 0.247637 0.562664
vt 0.248623 0.662989
vt 0.853448 0.710864
vt 0.272215 0.555969
vt 0.319523 0.366995
vt 0.326190 0.650487
vt 0.315503 0.585068
vt 0.247637 0.757430
vt 0.309870 0.650487
vt 0.315501 0.387154
vt 0.278947 0.757102
vt 0.293549 0.650487
vt 0.319526 0.605224
vt 0.263292 0.757266
s 0
f 66/139/1 196/404/1 195/403/1
f 65/137/2 199/407/2 196/404/2
f 67/141/3 202/411/3 199/407/3
f 68/143/4 205/417/4 202/411/4
f 69/146/5 208/422/5 205/418/5
f 70/148/6 211/425/6 208/422/6
f 71/150/7 214/428/7 211/425/7
f 72/152/8 217/431/8 214/428/8
f 73/154/9 220/434/9 217/431/9
f 74/156/10 223/437/10 220/434/10
f 75/158/11 226/441/11 223/437/11
f 76/161/12 229/445/12 226/440/12
f 77/163/13 232/452/13 229/445/13
f 78/165/14 235/455/14 232/452/14
f 235/455/15 80/169/15 238/458/15
f 238/458/16 81/171/16 241/461/16
f 241/461/17 82/173/17 244/464/17
f 82/173/18 247/467/18 244/464/18
f 83/175/19 250/472/19 247/467/19
f 84/178/20 253/478/20 250/471/20
f 85/180/21 256/482/21 253/478/21
f 256/482/22 87/184/22 259/486/22
f 259/486/23 88/186/23 262/489/23
f 88/186/24 265/496/24 295/547/24
f 265/496/25 90/190/25 268/503/25
f 90/190/26 271/506/26 268/503/26
f 91/192/27 274/511/27 271/506/27
f 92/194/28 277/517/28 274/511/28
f 93/197/29 280/522/29 277/518/29
f 94/199/30 283/526/30 280/522/30
f 52/109/31 123/261/31 54/114/31
f 95/201/32 286/529/32 283/526/32
f 96/203/33 195/403/33 286/529/33
f 31/65/34 47/99/34 63/133/34
f 2/3/35 65/138/35 66/140/35
f 6/11/35 65/138/35 4/7/35
f 6/11/35 68/144/35 67/142/35
f 8/17/35 69/147/35 68/144/35
f 12/25/35 69/147/35 10/21/35
f 12/25/35 71/151/35 70/149/35
f 14/29/35 72/153/35 71/151/35
f 18/37/35 72/153/35 16/33/35
f 18/37/35 74/157/35 73/155/35
f 22/45/35 74/157/35 20/41/35
f 24/50/35 75/159/35 22/45/35
f 26/55/35 76/162/35 24/50/35
f 26/55/35 78/166/35 77/164/35
f 30/63/35 78/166/35 28/59/35
f 30/63/35 80/170/35 79/168/35
f 34/71/35 80/170/35 32/67/35
f 34/71/35 82/174/35 81/172/35
f 38/79/35 82/174/35 36/75/35
f 40/84/35 83/176/35 38/79/35
f 42/88/35 84/179/35 40/84/35
f 44/93/35 85/181/35 42/88/35
f 44/93/35 87/185/35 86/183/35
f 48/101/35 87/185/35 46/97/35
f 50/105/35 88/187/35 48/101/35
f 52/110/35 89/189/35 50/105/35
f 52/110/35 91/193/35 90/191/35
f 56/118/35 91/193/35 54/113/35
f 56/118/35 93/198/35 92/195/35
f 60/127/35 93/198/35 58/123/35
f 62/131/35 94/200/35 60/127/35
f 64/135/35 95/202/35 62/131/35
f 2/3/35 96/204/35 64/135/35
f 115/243/35 107/226/35 99/209/35
f 26/56/36 110/234/36 28/60/36
f 54/114/37 124/263/37 56/117/37
f 28/60/38 111/236/38 30/64/38
f 2/4/39 97/206/39 4/8/39
f 58/124/40 124/264/40 125/266/40
f 30/64/41 112/238/41 32/68/41
f 4/8/42 99/210/42 6/12/42
f 58/124/43 126/268/43 60/128/43
f 32/68/44 113/240/44 34/72/44
f 6/12/45 100/212/45 8/16/45
f 60/128/46 127/270/46 62/132/46
f 34/72/47 114/242/47 36/76/47
f 8/18/48 101/215/48 10/22/48
f 62/132/49 128/272/49 64/136/49
f 36/76/50 115/244/50 38/80/50
f 10/22/51 102/217/51 12/26/51
f 64/136/52 98/208/52 2/4/52
f 38/80/53 116/246/53 40/85/53
f 12/26/54 103/219/54 14/30/54
f 42/89/55 116/246/55 117/247/55
f 14/30/56 104/221/56 16/34/56
f 44/94/57 117/249/57 118/251/57
f 16/34/58 105/223/58 18/38/58
f 44/94/59 119/253/59 46/98/59
f 18/38/60 106/225/60 20/42/60
f 48/102/61 119/253/61 120/255/61
f 20/42/62 107/227/62 22/46/62
f 48/102/63 121/257/63 50/106/63
f 22/46/64 108/229/64 24/51/64
f 50/106/65 122/259/65 52/109/65
f 24/51/66 109/232/66 26/54/66
f 161/333/34 130/275/34 162/335/34
f 162/335/34 131/277/34 163/337/34
f 163/337/34 132/279/34 164/340/34
f 164/340/34 133/282/34 165/342/34
f 165/342/34 134/283/34 166/344/34
f 166/344/34 135/285/34 167/346/34
f 167/346/34 136/287/34 168/348/34
f 169/350/34 136/287/34 137/289/34
f 169/350/34 138/291/34 170/352/34
f 170/352/34 139/293/34 171/354/34
f 171/354/34 140/295/34 172/357/34
f 172/357/34 141/298/34 173/359/34
f 174/361/34 141/298/34 142/299/34
f 174/361/34 143/301/34 175/363/34
f 175/363/34 144/303/34 176/365/34
f 177/367/34 144/303/34 145/305/34
f 177/367/34 146/307/34 178/369/34
f 178/369/34 147/310/34 179/371/34
f 180/373/34 147/310/34 148/311/34
f 180/373/34 149/312/34 181/376/34
f 181/376/34 150/313/34 182/378/34
f 182/378/34 151/315/34 183/380/34
f 183/380/34 152/317/34 184/382/34
f 184/382/34 153/319/34 185/384/34
f 185/384/34 154/321/34 186/386/34
f 186/386/34 155/324/34 187/388/34
f 187/388/34 156/325/34 188/390/34
f 188/390/34 157/326/34 189/392/34
f 190/395/34 157/326/34 158/327/34
f 190/395/34 159/329/34 191/397/34
f 191/397/34 160/332/34 192/399/34
f 192/399/34 129/273/34 161/333/34
f 3/6/67 161/334/67 162/336/67
f 5/10/68 162/336/68 163/338/68
f 7/14/69 163/338/69 164/339/69
f 7/15/70 165/343/70 9/20/70
f 9/20/71 166/345/71 11/24/71
f 11/24/72 167/347/72 13/28/72
f 13/28/73 168/349/73 15/32/73
f 15/32/74 169/351/74 17/36/74
f 17/36/75 170/353/75 19/40/75
f 19/40/76 171/355/76 21/44/76
f 23/48/77 171/355/77 172/356/77
f 23/49/78 173/360/78 25/53/78
f 27/58/79 173/360/79 174/362/79
f 29/62/80 174/362/80 175/364/80
f 29/62/81 176/366/81 31/66/81
f 31/66/82 177/368/82 33/70/82
f 33/70/83 178/370/83 35/74/83
f 35/74/84 179/372/84 37/78/84
f 37/78/85 180/374/85 39/81/85
f 39/83/86 181/377/86 41/87/86
f 41/87/87 182/379/87 43/92/87
f 43/92/88 183/381/88 45/96/88
f 47/100/89 183/381/89 184/383/89
f 47/100/90 185/385/90 49/104/90
f 49/104/91 186/387/91 51/108/91
f 51/108/92 187/389/92 53/112/92
f 55/116/93 187/389/93 188/391/93
f 55/116/94 189/393/94 57/120/94
f 57/122/95 190/396/95 59/126/95
f 59/126/96 191/398/96 61/130/96
f 61/130/97 192/400/97 63/134/97
f 63/134/98 161/334/98 1/2/98
f 288/531/99 129/274/99 160/331/99
f 288/531/100 194/402/100 193/401/100
f 286/529/101 194/402/101 287/530/101
f 159/330/102 288/531/102 160/331/102
f 285/528/103 287/530/103 288/531/103
f 284/527/104 286/529/104 287/530/104
f 158/328/105 285/528/105 159/330/105
f 282/524/106 284/527/106 285/528/106
f 281/523/107 283/526/107 284/527/107
f 157/326/108 282/525/108 158/327/108
f 279/520/109 281/523/109 282/524/109
f 277/518/110 281/523/110 278/519/110
f 156/325/111 279/521/111 157/326/111
f 276/515/112 278/519/112 279/520/112
f 274/510/113 278/519/113 275/512/113
f 155/324/114 276/516/114 156/325/114
f 273/509/115 275/513/115 276/514/115
f 271/506/116 275/513/116 272/507/116
f 154/322/117 273/509/117 155/323/117
f 270/505/118 272/507/118 273/509/118
f 268/503/119 272/507/119 269/504/119
f 153/320/120 270/505/120 154/322/120
f 292/541/121 269/504/121 270/505/121
f 291/539/122 268/503/122 269/504/122
f 264/495/123 267/502/123 153/320/123
f 331/620/124 306/569/124 332/622/124
f 151/316/125 264/495/125 152/318/125
f 260/487/126 290/535/126 264/495/126
f 259/486/127 289/533/127 263/492/127
f 150/314/128 261/488/128 151/316/128
f 258/484/129 260/487/129 261/488/129
f 256/482/130 260/487/130 257/483/130
f 149/312/131 258/485/131 150/313/131
f 255/481/132 257/483/132 258/484/132
f 253/478/133 257/483/133 254/479/133
f 148/311/134 255/480/134 149/312/134
f 251/473/135 255/481/135 252/475/135
f 250/471/136 254/479/136 251/473/136
f 147/310/137 252/477/137 148/311/137
f 249/470/138 251/474/138 252/476/138
f 247/467/139 251/474/139 248/468/139
f 146/308/140 249/470/140 147/309/140
f 245/465/141 249/470/141 246/466/141
f 244/464/142 248/468/142 245/465/142
f 145/306/143 246/466/143 146/308/143
f 242/462/144 246/466/144 243/463/144
f 241/461/145 245/465/145 242/462/145
f 144/304/146 243/463/146 145/306/146
f 239/459/147 243/463/147 240/460/147
f 238/458/148 242/462/148 239/459/148
f 237/457/149 144/304/149 143/302/149
f 236/456/150 240/460/150 237/457/150
f 235/455/151 239/459/151 236/456/151
f 234/454/152 143/302/152 142/300/152
f 233/453/153 237/457/153 234/454/153
f 232/452/154 236/456/154 233/453/154
f 231/449/155 142/300/155 141/297/155
f 230/447/156 234/454/156 231/449/156
f 229/445/157 233/453/157 230/447/157
f 228/443/158 141/298/158 140/295/158
f 227/442/159 231/451/159 228/444/159
f 226/441/160 230/448/160 227/442/160
f 225/439/161 140/296/161 139/294/161
f 224/438/162 228/444/162 225/439/162
f 223/437/163 227/442/163 224/438/163
f 222/436/164 139/294/164 138/292/164
f 221/435/165 225/439/165 222/436/165
f 220/434/166 224/438/166 221/435/166
f 219/433/167 138/292/167 137/290/167
f 218/432/168 222/436/168 219/433/168
f 218/432/169 220/434/169 221/435/169
f 216/430/170 137/290/170 136/288/170
f 215/429/171 219/433/171 216/430/171
f 214/428/172 218/432/172 215/429/172
f 213/427/173 136/288/173 135/286/173
f 212/426/174 216/430/174 213/427/174
f 211/425/175 215/429/175 212/426/175
f 210/424/176 135/286/176 134/284/176
f 209/423/177 213/427/177 210/424/177
f 208/422/178 212/426/178 209/423/178
f 207/421/179 134/284/179 133/281/179
f 206/419/180 210/424/180 207/421/180
f 205/418/181 209/423/181 206/419/181
f 204/415/182 133/282/182 132/279/182
f 203/412/183 207/421/183 204/414/183
f 203/412/184 205/418/184 206/419/184
f 201/409/185 132/280/185 131/278/185
f 200/408/186 204/416/186 201/409/186
f 200/408/187 202/411/187 203/413/187
f 198/406/188 131/278/188 130/276/188
f 197/405/189 201/409/189 198/406/189
f 196/404/190 200/408/190 197/405/190
f 193/401/191 130/276/191 129/274/191
f 193/401/192 197/405/192 198/406/192
f 194/402/193 196/404/193 197/405/193
f 296/549/194 266/500/194 294/545/194
f 263/492/194 296/549/194 294/545/194
f 311/581/195 307/571/195 309/578/195
f 319/600/196 300/558/196 301/562/196
f 316/594/197 299/556/197 317/596/197
f 292/541/198 293/544/198 290/535/198
f 302/563/199 298/553/199 299/555/199
f 301/561/199 298/553/199 303/565/199
f 305/568/124 331/620/124 330/619/124
f 317/595/200 298/554/200 321/604/200
f 329/617/201 305/567/201 330/618/201
f 321/604/200 300/560/200 318/597/200
f 304/566/202 308/574/202 309/577/202
f 307/572/202 304/566/202 309/577/202
f 315/589/203 308/575/203 305/567/203
f 313/584/204 307/573/204 310/579/204
f 311/581/195 308/576/195 314/587/195
f 328/615/205 315/590/205 329/616/205
f 324/609/206 312/583/206 326/612/206
f 322/605/207 314/587/207 327/613/207
f 323/607/208 310/579/208 325/610/208
f 324/608/209 314/588/209 315/589/209
f 322/605/207 310/580/207 311/581/207
f 326/612/206 313/585/206 323/606/206
f 338/632/210 321/604/210 318/597/210
f 339/634/211 319/599/211 320/602/211
f 334/626/210 321/604/210 336/629/210
f 337/631/211 320/602/211 316/592/211
f 337/630/212 317/596/212 334/625/212
f 335/627/213 318/598/213 319/600/213
f 333/624/214 301/562/214 332/621/214
f 328/615/205 313/586/205 312/582/205
f 263/493/215 326/612/215 323/606/215
f 290/536/216 322/605/216 297/552/216
f 292/542/217 324/608/217 266/499/217
f 290/537/218 323/607/218 325/610/218
f 292/543/216 322/605/216 327/613/216
f 294/546/215 324/609/215 326/612/215
f 319/601/219 328/615/219 320/603/219
f 333/624/220 306/570/220 313/584/220
f 320/603/219 329/616/219 316/593/219
f 329/617/221 302/564/221 316/594/221
f 330/619/222 303/565/222 302/563/222
f 303/565/222 332/622/222 301/561/222
f 262/490/223 335/627/223 289/532/223
f 265/497/224 337/630/224 334/625/224
f 296/550/225 337/631/225 291/538/225
f 265/498/226 336/629/226 295/548/226
f 296/550/225 335/628/225 339/634/225
f 262/491/226 336/629/226 338/632/226
f 66/139/1 65/137/1 196/404/1
f 65/137/2 67/141/2 199/407/2
f 67/141/3 68/143/3 202/411/3
f 68/143/4 69/145/4 205/417/4
f 69/146/5 70/148/5 208/422/5
f 70/148/6 71/150/6 211/425/6
f 71/150/7 72/152/7 214/428/7
f 72/152/8 73/154/8 217/431/8
f 73/154/9 74/156/9 220/434/9
f 74/156/10 75/158/10 223/437/10
f 75/158/11 76/160/11 226/441/11
f 76/161/12 77/163/12 229/445/12
f 77/163/13 78/165/13 232/452/13
f 78/165/14 79/167/14 235/455/14
f 235/455/15 79/167/15 80/169/15
f 238/458/16 80/169/16 81/171/16
f 241/461/17 81/171/17 82/173/17
f 82/173/18 83/175/18 247/467/18
f 83/175/19 84/177/19 250/472/19
f 84/178/20 85/180/20 253/478/20
f 85/180/21 86/182/21 256/482/21
f 256/482/22 86/182/22 87/184/22
f 259/486/23 87/184/23 88/186/23
f 295/547/24 262/489/24 88/186/24
f 88/186/24 89/188/24 265/496/24
f 265/496/25 89/188/25 90/190/25
f 90/190/26 91/192/26 271/506/26
f 91/192/27 92/194/27 274/511/27
f 92/194/28 93/196/28 277/517/28
f 93/197/29 94/199/29 280/522/29
f 94/199/30 95/201/30 283/526/30
f 52/109/31 122/259/31 123/261/31
f 95/201/32 96/203/32 286/529/32
f 96/203/33 66/139/33 195/403/33
f 63/133/34 1/1/34 3/5/34
f 3/5/34 5/9/34 7/13/34
f 7/13/34 9/19/34 11/23/34
f 11/23/34 13/27/34 15/31/34
f 15/31/34 17/35/34 19/39/34
f 19/39/34 21/43/34 23/47/34
f 23/47/34 25/52/34 27/57/34
f 27/57/34 29/61/34 31/65/34
f 31/65/34 33/69/34 35/73/34
f 35/73/34 37/77/34 39/82/34
f 39/82/34 41/86/34 43/91/34
f 43/91/34 45/95/34 47/99/34
f 47/99/34 49/103/34 51/107/34
f 51/107/34 53/111/34 55/115/34
f 55/115/34 57/121/34 59/125/34
f 59/125/34 61/129/34 63/133/34
f 63/133/34 3/5/34 7/13/34
f 7/13/34 11/23/34 15/31/34
f 15/31/34 19/39/34 23/47/34
f 23/47/34 27/57/34 31/65/34
f 31/65/34 35/73/34 39/82/34
f 39/82/34 43/91/34 47/99/34
f 47/99/34 51/107/34 55/115/34
f 55/115/34 59/125/34 63/133/34
f 63/133/34 7/13/34 15/31/34
f 15/31/34 23/47/34 31/65/34
f 31/65/34 39/82/34 47/99/34
f 47/99/34 55/115/34 63/133/34
f 63/133/34 15/31/34 31/65/34
f 2/3/35 4/7/35 65/138/35
f 6/11/35 67/142/35 65/138/35
f 6/11/35 8/17/35 68/144/35
f 8/17/35 10/21/35 69/147/35
f 12/25/35 70/149/35 69/147/35
f 12/25/35 14/29/35 71/151/35
f 14/29/35 16/33/35 72/153/35
f 18/37/35 73/155/35 72/153/35
f 18/37/35 20/41/35 74/157/35
f 22/45/35 75/159/35 74/157/35
f 24/50/35 76/162/35 75/159/35
f 26/55/35 77/164/35 76/162/35
f 26/55/35 28/59/35 78/166/35
f 30/63/35 79/168/35 78/166/35
f 30/63/35 32/67/35 80/170/35
f 34/71/35 81/172/35 80/170/35
f 34/71/35 36/75/35 82/174/35
f 38/79/35 83/176/35 82/174/35
f 40/84/35 84/179/35 83/176/35
f 42/88/35 85/181/35 84/179/35
f 44/93/35 86/183/35 85/181/35
f 44/93/35 46/97/35 87/185/35
f 48/101/35 88/187/35 87/185/35
f 50/105/35 89/189/35 88/187/35
f 52/110/35 90/191/35 89/189/35
f 52/110/35 54/113/35 91/193/35
f 56/118/35 92/195/35 91/193/35
f 56/118/35 58/123/35 93/198/35
f 60/127/35 94/200/35 93/198/35
f 62/131/35 95/202/35 94/200/35
f 64/135/35 96/204/35 95/202/35
f 2/3/35 66/140/35 96/204/35
f 99/209/35 97/205/35 98/207/35
f 98/207/35 128/271/35 127/269/35
f 127/269/35 126/267/35 125/265/35
f 125/265/35 124/262/35 123/260/35
f 123/260/35 122/258/35 121/256/35
f 121/256/35 120/254/35 119/252/35
f 119/252/35 118/250/35 117/248/35
f 117/248/35 116/245/35 115/243/35
f 115/243/35 114/241/35 113/239/35
f 113/239/35 112/237/35 111/235/35
f 111/235/35 110/233/35 109/230/35
f 109/230/35 108/228/35 107/226/35
f 107/226/35 106/224/35 105/222/35
f 105/222/35 104/220/35 103/218/35
f 103/218/35 102/216/35 101/214/35
f 101/214/35 100/211/35 99/209/35
f 99/209/35 98/207/35 127/269/35
f 127/269/35 125/265/35 123/260/35
f 123/260/35 121/256/35 119/252/35
f 119/252/35 117/248/35 115/243/35
f 115/243/35 113/239/35 111/235/35
f 111/235/35 109/230/35 107/226/35
f 107/226/35 105/222/35 103/218/35
f 103/218/35 101/214/35 99/209/35
f 99/209/35 127/269/35 123/260/35
f 123/260/35 119/252/35 115/243/35
f 115/243/35 111/235/35 107/226/35
f 107/226/35 103/218/35 99/209/35
f 99/209/35 123/260/35 115/243/35
f 26/56/36 109/231/36 110/234/36
f 54/114/37 123/261/37 124/263/37
f 28/60/38 110/234/38 111/236/38
f 2/4/39 98/208/39 97/206/39
f 58/124/40 56/119/40 124/264/40
f 30/64/41 111/236/41 112/238/41
f 4/8/42 97/206/42 99/210/42
f 58/124/43 125/266/43 126/268/43
f 32/68/44 112/238/44 113/240/44
f 6/12/45 99/210/45 100/212/45
f 60/128/46 126/268/46 127/270/46
f 34/72/47 113/240/47 114/242/47
f 8/18/48 100/213/48 101/215/48
f 62/132/49 127/270/49 128/272/49
f 36/76/50 114/242/50 115/244/50
f 10/22/51 101/215/51 102/217/51
f 64/136/52 128/272/52 98/208/52
f 38/80/53 115/244/53 116/246/53
f 12/26/54 102/217/54 103/219/54
f 42/89/55 40/85/55 116/246/55
f 14/30/56 103/219/56 104/221/56
f 44/94/57 42/90/57 117/249/57
f 16/34/58 104/221/58 105/223/58
f 44/94/59 118/251/59 119/253/59
f 18/38/60 105/223/60 106/225/60
f 48/102/61 46/98/61 119/253/61
f 20/42/62 106/225/62 107/227/62
f 48/102/63 120/255/63 121/257/63
f 22/46/64 107/227/64 108/229/64
f 50/106/65 121/257/65 122/259/65
f 24/51/66 108/229/66 109/232/66
f 161/333/34 129/273/34 130/275/34
f 162/335/34 130/275/34 131/277/34
f 163/337/34 131/277/34 132/279/34
f 164/340/34 132/279/34 133/282/34
f 165/342/34 133/282/34 134/283/34
f 166/344/34 134/283/34 135/285/34
f 167/346/34 135/285/34 136/287/34
f 169/350/34 168/348/34 136/287/34
f 169/350/34 137/289/34 138/291/34
f 170/352/34 138/291/34 139/293/34
f 171/354/34 139/293/34 140/295/34
f 172/357/34 140/295/34 141/298/34
f 174/361/34 173/359/34 141/298/34
f 174/361/34 142/299/34 143/301/34
f 175/363/34 143/301/34 144/303/34
f 177/367/34 176/365/34 144/303/34
f 177/367/34 145/305/34 146/307/34
f 178/369/34 146/307/34 147/310/34
f 180/373/34 179/371/34 147/310/34
f 180/373/34 148/311/34 149/312/34
f 181/376/34 149/312/34 150/313/34
f 182/378/34 150/313/34 151/315/34
f 183/380/34 151/315/34 152/317/34
f 184/382/34 152/317/34 153/319/34
f 185/384/34 153/319/34 154/321/34
f 186/386/34 154/321/34 155/324/34
f 187/388/34 155/324/34 156/325/34
f 188/390/34 156/325/34 157/326/34
f 190/395/34 189/392/34 157/326/34
f 190/395/34 158/327/34 159/329/34
f 191/397/34 159/329/34 160/332/34
f 192/399/34 160/332/34 129/273/34
f 3/6/67 1/2/67 161/334/67
f 5/10/68 3/6/68 162/336/68
f 7/14/69 5/10/69 163/338/69
f 7/15/70 164/341/70 165/343/70
f 9/20/71 165/343/71 166/345/71
f 11/24/72 166/345/72 167/347/72
f 13/28/73 167/347/73 168/349/73
f 15/32/74 168/349/74 169/351/74
f 17/36/75 169/351/75 170/353/75
f 19/40/76 170/353/76 171/355/76
f 23/48/77 21/44/77 171/355/77
f 23/49/78 172/358/78 173/360/78
f 27/58/79 25/53/79 173/360/79
f 29/62/80 27/58/80 174/362/80
f 29/62/81 175/364/81 176/366/81
f 31/66/82 176/366/82 177/368/82
f 33/70/83 177/368/83 178/370/83
f 35/74/84 178/370/84 179/372/84
f 37/78/85 179/372/85 180/374/85
f 39/83/86 180/375/86 181/377/86
f 41/87/87 181/377/87 182/379/87
f 43/92/88 182/379/88 183/381/88
f 47/100/89 45/96/89 183/381/89
f 47/100/90 184/383/90 185/385/90
f 49/104/91 185/385/91 186/387/91
f 51/108/92 186/387/92 187/389/92
f 55/116/93 53/112/93 187/389/93
f 55/116/94 188/391/94 189/393/94
f 57/122/95 189/394/95 190/396/95
f 59/126/96 190/396/96 191/398/96
f 61/130/97 191/398/97 192/400/97
f 63/134/98 192/400/98 161/334/98
f 288/531/99 193/401/99 129/274/99
f 288/531/100 287/530/100 194/402/100
f 286/529/101 195/403/101 194/402/101
f 159/330/102 285/528/102 288/531/102
f 285/528/103 284/527/103 287/530/103
f 284/527/104 283/526/104 286/529/104
f 158/328/105 282/524/105 285/528/105
f 282/524/106 281/523/106 284/527/106
f 281/523/107 280/522/107 283/526/107
f 157/326/108 279/521/108 282/525/108
f 279/520/109 278/519/109 281/523/109
f 277/518/110 280/522/110 281/523/110
f 156/325/111 276/516/111 279/521/111
f 276/515/112 275/512/112 278/519/112
f 274/510/113 277/518/113 278/519/113
f 155/324/114 273/508/114 276/516/114
f 273/509/115 272/507/115 275/513/115
f 271/506/227 274/511/227 275/513/227
f 154/322/117 270/505/117 273/509/117
f 270/505/118 269/504/118 272/507/118
f 268/503/119 271/506/119 272/507/119
f 153/320/120 267/502/120 270/505/120
f 270/505/121 267/502/121 292/541/121
f 292/541/121 266/500/121 269/504/121
f 269/504/122 266/500/122 291/539/122
f 291/539/122 265/496/122 268/503/122
f 153/320/123 152/318/123 264/495/123
f 264/495/35 293/544/35 267/502/35
f 331/620/124 304/566/124 306/569/124
f 151/316/125 261/488/125 264/495/125
f 264/495/126 261/488/126 260/487/126
f 260/487/126 263/492/126 290/535/126
f 263/492/127 260/487/127 259/486/127
f 259/486/127 262/489/127 289/533/127
f 150/314/128 258/484/128 261/488/128
f 258/484/129 257/483/129 260/487/129
f 256/482/228 259/486/228 260/487/228
f 149/312/131 255/480/131 258/485/131
f 255/481/132 254/479/132 257/483/132
f 253/478/133 256/482/133 257/483/133
f 148/311/134 252/477/134 255/480/134
f 251/473/135 254/479/135 255/481/135
f 250/471/136 253/478/136 254/479/136
f 147/310/137 249/469/137 252/477/137
f 249/470/138 248/468/138 251/474/138
f 247/467/229 250/472/229 251/474/229
f 146/308/140 246/466/140 249/470/140
f 245/465/141 248/468/141 249/470/141
f 244/464/142 247/467/142 248/468/142
f 145/306/143 243/463/143 246/466/143
f 242/462/144 245/465/144 246/466/144
f 241/461/145 244/464/145 245/465/145
f 144/304/146 240/460/146 243/463/146
f 239/459/147 242/462/147 243/463/147
f 238/458/148 241/461/148 242/462/148
f 237/457/149 240/460/149 144/304/149
f 236/456/150 239/459/150 240/460/150
f 235/455/151 238/458/151 239/459/151
f 234/454/152 237/457/152 143/302/152
f 233/453/153 236/456/153 237/457/153
f 232/452/154 235/455/154 236/456/154
f 231/449/155 234/454/155 142/300/155
f 230/447/156 233/453/156 234/454/156
f 229/445/157 232/452/157 233/453/157
f 228/443/158 231/450/158 141/298/158
f 227/442/159 230/448/159 231/451/159
f 226/441/160 229/446/160 230/448/160
f 225/439/161 228/444/161 140/296/161
f 224/438/162 227/442/162 228/444/162
f 223/437/230 226/441/230 227/442/230
f 222/436/164 225/439/164 139/294/164
f 221/435/165 224/438/165 225/439/165
f 220/434/166 223/437/166 224/438/166
f 219/433/167 222/436/167 138/292/167
f 218/432/168 221/435/168 222/436/168
f 218/432/169 217/431/169 220/434/169
f 216/430/170 219/433/170 137/290/170
f 215/429/171 218/432/171 219/433/171
f 214/428/172 217/431/172 218/432/172
f 213/427/173 216/430/173 136/288/173
f 212/426/174 215/429/174 216/430/174
f 211/425/175 214/428/175 215/429/175
f 210/424/176 213/427/176 135/286/176
f 209/423/177 212/426/177 213/427/177
f 208/422/231 211/425/231 212/426/231
f 207/421/179 210/424/179 134/284/179
f 206/419/180 209/423/180 210/424/180
f 205/418/181 208/422/181 209/423/181
f 204/415/182 207/420/182 133/282/182
f 203/412/183 206/419/183 207/421/183
f 203/412/184 202/410/184 205/418/184
f 201/409/185 204/416/185 132/280/185
f 200/408/186 203/413/186 204/416/186
f 200/408/232 199/407/232 202/411/232
f 198/406/188 201/409/188 131/278/188
f 197/405/189 200/408/189 201/409/189
f 196/404/190 199/407/190 200/408/190
f 193/401/191 198/406/191 130/276/191
f 193/401/192 194/402/192 197/405/192
f 194/402/193 195/403/193 196/404/193
f 296/549/194 291/539/194 266/500/194
f 263/492/194 289/533/194 296/549/194
f 311/581/195 310/580/195 307/571/195
f 319/600/233 318/598/233 300/558/233
f 316/594/234 302/564/234 299/556/234
f 290/535/35 297/551/35 292/541/35
f 292/541/198 267/502/198 293/544/198
f 293/544/198 264/495/198 290/535/198
f 302/563/199 303/565/199 298/553/199
f 301/561/199 300/559/199 298/553/199
f 305/568/124 304/566/124 331/620/124
f 317/595/200 299/557/200 298/554/200
f 329/617/235 315/589/235 305/567/235
f 321/604/200 298/554/200 300/560/200
f 304/566/202 305/568/202 308/574/202
f 307/572/202 306/569/202 304/566/202
f 315/589/236 314/588/236 308/575/236
f 313/584/237 306/570/237 307/573/237
f 311/581/195 309/578/195 308/576/195
f 328/615/205 312/582/205 315/590/205
f 324/609/206 315/591/206 312/583/206
f 322/605/207 311/581/207 314/587/207
f 323/607/208 313/584/208 310/579/208
f 324/608/209 327/614/209 314/588/209
f 322/605/207 325/611/207 310/580/207
f 326/612/206 312/583/206 313/585/206
f 338/632/210 336/629/210 321/604/210
f 339/634/211 335/628/211 319/599/211
f 334/626/210 317/595/210 321/604/210
f 337/631/211 339/634/211 320/602/211
f 337/630/238 316/594/238 317/596/238
f 335/627/239 338/633/239 318/598/239
f 333/624/240 319/600/240 301/562/240
f 328/615/205 333/623/205 313/586/205
f 263/493/215 294/546/215 326/612/215
f 290/536/216 325/611/216 322/605/216
f 292/542/217 327/614/217 324/608/217
f 290/537/218 263/494/218 323/607/218
f 292/543/216 297/552/216 322/605/216
f 294/546/215 266/501/215 324/609/215
f 319/601/219 333/623/219 328/615/219
f 333/624/214 332/621/214 306/570/214
f 320/603/219 328/615/219 329/616/219
f 329/617/201 330/618/201 302/564/201
f 330/619/222 331/620/222 303/565/222
f 303/565/222 331/620/222 332/622/222
f 262/490/241 338/633/241 335/627/241
f 265/497/242 291/540/242 337/630/242
f 296/550/225 339/634/225 337/631/225
f 265/498/226 334/626/226 336/629/226
f 296/550/225 289/534/225 335/628/225
f 262/491/226 295/548/226 336/629/226
