# Blender 3.3.1
# www.blender.org
o espresso_cup
v -0.000000 0.026983 -0.062020
v -0.000000 0.382635 -0.129685
v 0.012100 0.026983 -0.060829
v 0.025300 0.382635 -0.127193
v 0.023734 0.026983 -0.057299
v 0.049628 0.382635 -0.119814
v 0.034457 0.026983 -0.051568
v 0.072049 0.382635 -0.107829
v 0.043855 0.026983 -0.043855
v 0.091701 0.382635 -0.091701
v 0.051568 0.026983 -0.034457
v 0.107829 0.382635 -0.072049
v 0.057299 0.026983 -0.023734
v 0.119814 0.382635 -0.049628
v 0.060829 0.026983 -0.012100
v 0.127193 0.382635 -0.025300
v 0.062020 0.026983 -0.000000
v 0.129685 0.382635 0.000000
v 0.060829 0.026983 0.012099
v 0.127193 0.382635 0.025300
v 0.057299 0.026983 0.023734
v 0.119814 0.382635 0.049628
v 0.051568 0.026983 0.034457
v 0.107829 0.382635 0.072049
v 0.043855 0.026983 0.043855
v 0.091701 0.382635 0.091701
v 0.034457 0.026983 0.051568
v 0.072049 0.382635 0.107829
v 0.023734 0.026983 0.057299
v 0.049628 0.382635 0.119814
v 0.012100 0.026983 0.060829
v 0.025300 0.382635 0.127193
v -0.000000 0.026983 0.062020
v -0.000000 0.382635 0.129685
v -0.012100 0.026983 0.060829
v -0.025300 0.382635 0.127193
v -0.023734 0.026983 0.057299
v -0.049628 0.382635 0.119814
v -0.034457 0.026983 0.051568
v -0.072049 0.382635 0.107829
v -0.043855 0.026983 0.043855
v -0.091701 0.382635 0.091701
v -0.051568 0.026983 0.034457
v -0.107829 0.382635 0.072049
v -0.057299 0.026983 0.023734
v -0.119814 0.382635 0.049628
v -0.060829 0.026983 0.012099
v -0.127193 0.382635 0.025300
v -0.062020 0.026983 -0.000000
v -0.129685 0.382635 0.000000
v -0.060829 0.026983 -0.012100
v -0.127193 0.382635 -0.025300
v -0.057299 0.026983 -0.023734
v -0.119814 0.382635 -0.049628
v -0.051568 0.026983 -0.034457
v -0.107829 0.382635 -0.072049
v -0.043855 0.026983 -0.043855
v -0.091701 0.382635 -0.091701
v -0.034457 0.026983 -0.051568
v -0.072049 0.382635 -0.107829
v -0.023734 0.026983 -0.057299
v -0.049628 0.382635 -0.119814
v -0.012100 0.026983 -0.060829
v -0.025300 0.382635 -0.127193
v 0.029060 0.382635 -0.146097
v -0.000000 0.382635 -0.148959
v 0.057004 0.382635 -0.137620
v 0.082757 0.382635 -0.123855
v 0.105330 0.382635 -0.105330
v 0.123855 0.382635 -0.082757
v 0.137620 0.382635 -0.057004
v 0.146097 0.382635 -0.029060
v 0.148959 0.382635 0.000000
v 0.146097 0.382635 0.029061
v 0.137620 0.382635 0.057004
v 0.123855 0.382635 0.082757
v 0.105330 0.382635 0.105330
v 0.082757 0.382635 0.123855
v 0.057004 0.382635 0.137620
v 0.029060 0.382635 0.146097
v -0.000000 0.382635 0.148959
v -0.029061 0.382635 0.146097
v -0.057004 0.382635 0.137620
v -0.082757 0.382635 0.123855
v -0.105330 0.382635 0.105330
v -0.123855 0.382635 0.082757
v -0.137620 0.382635 0.057004
v -0.146097 0.382635 0.029061
v -0.148959 0.382635 0.000000
v -0.146097 0.382635 -0.029060
v -0.137620 0.382635 -0.057004
v -0.123855 0.382635 -0.082757
v -0.105330 0.382635 -0.105330
v -0.082757 0.382635 -0.123855
v -0.057004 0.382635 -0.137620
v -0.029061 0.382635 -0.146097
v 0.017572 0.050368 -0.088342
v -0.000000 0.050368 -0.090073
v 0.034469 0.050368 -0.083216
v 0.050042 0.050368 -0.074893
v 0.063691 0.050368 -0.063691
v 0.074893 0.050368 -0.050042
v 0.083216 0.050368 -0.034469
v 0.088342 0.050368 -0.017572
v 0.090073 0.050368 0.000000
v 0.088342 0.050368 0.017572
v 0.083216 0.050368 0.034469
v 0.074893 0.050368 0.050042
v 0.063691 0.050368 0.063691
v 0.050042 0.050368 0.074893
v 0.034469 0.050368 0.083216
v 0.017572 0.050368 0.088342
v -0.000000 0.050368 0.090073
v -0.017572 0.050368 0.088342
v -0.034469 0.050368 0.083216
v -0.050042 0.050368 0.074893
v -0.063691 0.050368 0.063691
v -0.074893 0.050368 0.050042
v -0.083216 0.050368 0.034469
v -0.088342 0.050368 0.017572
v -0.090073 0.050368 0.000000
v -0.088342 0.050368 -0.017572
v -0.083216 0.050368 -0.034469
v -0.074893 0.050368 -0.050042
v -0.063691 0.050368 -0.063691
v -0.050042 0.050368 -0.074893
v -0.034469 0.050368 -0.083216
v -0.017572 0.050368 -0.088342
v -0.000000 0.012070 -0.075497
v 0.014729 0.012070 -0.074047
v 0.028891 0.012070 -0.069750
v 0.041944 0.012070 -0.062774
v 0.053385 0.012070 -0.053385
v 0.062774 0.012070 -0.041944
v 0.069750 0.012070 -0.028892
v 0.074047 0.012070 -0.014729
v 0.075497 0.012070 -0.000000
v 0.074047 0.012070 0.014729
v 0.069750 0.012070 0.028891
v 0.062774 0.012070 0.041944
v 0.053385 0.012070 0.053384
v 0.041944 0.012070 0.062774
v 0.028891 0.012070 0.069750
v 0.014729 0.012070 0.074046
v -0.000000 0.012070 0.075497
v -0.014729 0.012070 0.074046
v -0.028892 0.012070 0.069750
v -0.041944 0.012070 0.062774
v -0.053385 0.012070 0.053384
v -0.062774 0.012070 0.041944
v -0.069750 0.012070 0.028891
v -0.074047 0.012070 0.014729
v -0.075497 0.012070 -0.000000
v -0.074047 0.012070 -0.014729
v -0.069750 0.012070 -0.028892
v -0.062774 0.012070 -0.041944
v -0.053385 0.012070 -0.053385
v -0.041944 0.012070 -0.062774
v -0.028892 0.012070 -0.069750
v -0.014729 0.012070 -0.074047
v -0.000000 0.012070 -0.065051
v 0.012691 0.012070 -0.063801
v 0.024894 0.012070 -0.060099
v 0.036140 0.012070 -0.054088
v 0.045998 0.012070 -0.045998
v 0.054088 0.012070 -0.036140
v 0.060099 0.012070 -0.024894
v 0.063801 0.012070 -0.012691
v 0.065051 0.012070 -0.000000
v 0.063801 0.012070 0.012691
v 0.060099 0.012070 0.024894
v 0.054088 0.012070 0.036140
v 0.045998 0.012070 0.045998
v 0.036140 0.012070 0.054088
v 0.024894 0.012070 0.060099
v 0.012691 0.012070 0.063801
v -0.000000 0.012070 0.065051
v -0.012691 0.012070 0.063801
v -0.024894 0.012070 0.060099
v -0.036140 0.012070 0.054088
v -0.045998 0.012070 0.045998
v -0.054088 0.012070 0.036140
v -0.060099 0.012070 0.024894
v -0.063801 0.012070 0.012691
v -0.065051 0.012070 -0.000000
v -0.063801 0.012070 -0.012691
v -0.060099 0.012070 -0.024894
v -0.054088 0.012070 -0.036140
v -0.045998 0.012070 -0.045998
v -0.036140 0.012070 -0.054088
v -0.024894 0.012070 -0.060099
v -0.012691 0.012070 -0.063801
v -0.000000 0.097216 -0.115862
v -0.000000 0.183258 -0.132055
v -0.000000 0.291251 -0.143767
v 0.028047 0.291251 -0.141004
v 0.025763 0.183258 -0.129518
v 0.022604 0.097216 -0.113636
v 0.055017 0.291251 -0.132823
v 0.050535 0.183258 -0.122003
v 0.044339 0.097216 -0.107043
v 0.079873 0.291251 -0.119538
v 0.073366 0.183258 -0.109800
v 0.064370 0.097216 -0.096336
v 0.101658 0.291251 -0.101658
v 0.093377 0.183258 -0.093377
v 0.081927 0.097216 -0.081927
v 0.119538 0.291251 -0.079873
v 0.109800 0.183258 -0.073366
v 0.096336 0.097216 -0.064370
v 0.132823 0.291251 -0.055017
v 0.122003 0.183258 -0.050535
v 0.107043 0.097216 -0.044338
v 0.141004 0.291251 -0.028047
v 0.129518 0.183258 -0.025763
v 0.113636 0.097216 -0.022604
v 0.143767 0.291251 0.000000
v 0.132055 0.183258 0.000000
v 0.115862 0.097216 0.000000
v 0.141004 0.291251 0.028048
v 0.129518 0.183258 0.025763
v 0.113636 0.097216 0.022604
v 0.132823 0.291251 0.055017
v 0.122003 0.183258 0.050535
v 0.107043 0.097216 0.044339
v 0.119538 0.291251 0.079873
v 0.109800 0.183258 0.073366
v 0.096336 0.097216 0.064370
v 0.101658 0.291251 0.101659
v 0.093377 0.183258 0.093377
v 0.081927 0.097216 0.081927
v 0.079873 0.291251 0.119538
v 0.073366 0.183258 0.109800
v 0.064370 0.097216 0.096336
v 0.055017 0.291251 0.132823
v 0.050535 0.183258 0.122003
v 0.044339 0.097216 0.107043
v 0.028047 0.291251 0.141004
v 0.025763 0.183258 0.129518
v 0.022604 0.097216 0.113636
v -0.000000 0.291251 0.143767
v -0.000000 0.183258 0.132055
v -0.000000 0.097216 0.115862
v -0.028048 0.291251 0.141004
v -0.025763 0.183258 0.129518
v -0.022604 0.097216 0.113636
v -0.055017 0.291251 0.132823
v -0.050535 0.183258 0.122003
v -0.044339 0.097216 0.107043
v -0.079873 0.291251 0.119538
v -0.073366 0.183258 0.109800
v -0.064370 0.097216 0.096336
v -0.101659 0.291251 0.101659
v -0.093377 0.183258 0.093377
v -0.081927 0.097216 0.081927
v -0.119538 0.291251 0.079873
v -0.109800 0.183258 0.073366
v -0.096336 0.097216 0.064370
v -0.132823 0.291251 0.055017
v -0.122003 0.183258 0.050535
v -0.107043 0.097216 0.044339
v -0.141004 0.308815 0.028048
v -0.129518 0.183258 0.025763
v -0.113636 0.097216 0.022604
v -0.143767 0.308815 0.000000
v -0.132055 0.183258 0.000000
v -0.115862 0.097216 0.000000
v -0.141004 0.291251 -0.028047
v -0.129518 0.183258 -0.025763
v -0.113636 0.097216 -0.022604
v -0.132823 0.291251 -0.055017
v -0.122003 0.183258 -0.050535
v -0.107043 0.097216 -0.044338
v -0.119538 0.291251 -0.079873
v -0.109800 0.183258 -0.073366
v -0.096336 0.097216 -0.064370
v -0.101659 0.291251 -0.101658
v -0.093377 0.183258 -0.093377
v -0.081927 0.097216 -0.081927
v -0.079873 0.291251 -0.119538
v -0.073366 0.183258 -0.109800
v -0.064370 0.097216 -0.096336
v -0.055017 0.291251 -0.132823
v -0.050535 0.183258 -0.122003
v -0.044339 0.097216 -0.107043
v -0.028048 0.291251 -0.141004
v -0.025763 0.183258 -0.129518
v -0.022604 0.097216 -0.113636
v -0.135261 0.237254 0.026905
v -0.121577 0.140237 0.024183
v -0.137911 0.237254 0.000000
v -0.123959 0.140237 0.000000
v -0.114749 0.097216 0.011302
v -0.130787 0.183258 0.012881
v -0.142386 0.308815 0.014024
v -0.136586 0.237254 0.013453
v -0.122768 0.140237 0.012092
v -0.205840 0.298570 0.020844
v -0.207064 0.298570 0.004918
v -0.204616 0.298570 0.036770
v -0.211760 0.265754 0.037017
v -0.214108 0.265754 0.006462
v -0.212934 0.265754 0.021740
v -0.208004 0.197799 0.021117
v -0.209128 0.197799 0.006489
v -0.206880 0.197799 0.035746
v -0.188047 0.159677 0.032463
v -0.190158 0.159677 0.005000
v -0.189102 0.159677 0.018732
v -0.169425 0.152448 0.030113
v -0.170480 0.152448 0.016381
v -0.177586 0.190570 0.017278
v -0.176462 0.190570 0.031907
v -0.171536 0.152448 0.002649
v -0.178710 0.190570 0.002649
v -0.191600 0.278274 0.002967
v -0.191606 0.319794 0.002967
v -0.189158 0.319794 0.034819
v -0.189252 0.278274 0.033522
v -0.190426 0.278274 0.018244
v -0.190382 0.319794 0.018893
v -0.146753 0.145308 0.012036
v -0.146570 0.177518 0.027917
v -0.144811 0.178167 -0.001366
v -0.147579 0.145003 0.025780
v -0.145690 0.177842 0.013275
v -0.145928 0.145613 -0.001708
v -0.194057 0.232665 0.019357
v -0.195207 0.232665 0.004393
v -0.214602 0.232952 0.006841
v -0.213452 0.232952 0.021805
v -0.212302 0.232952 0.036769
v -0.192907 0.232665 0.034321
v -0.170060 0.325490 0.000248
v -0.166694 0.293674 0.031329
v -0.168836 0.325490 0.016174
v -0.169042 0.293674 0.000774
v -0.167612 0.325490 0.032099
v -0.167868 0.293674 0.016051
vn 0.0979 -0.0565 -0.9936
vn 0.2898 -0.0565 -0.9554
vn 0.4706 -0.0565 -0.8805
vn 0.6334 -0.0565 -0.7718
vn 0.7718 -0.0565 -0.6334
vn 0.8805 -0.0565 -0.4706
vn 0.9554 -0.0565 -0.2898
vn 0.9936 -0.0565 -0.0979
vn 0.9936 -0.0565 0.0979
vn 0.9554 -0.0565 0.2898
vn 0.8805 -0.0565 0.4706
vn 0.7718 -0.0565 0.6334
vn 0.6334 -0.0565 0.7718
vn 0.4706 -0.0565 0.8805
vn 0.2898 -0.0565 0.9554
vn 0.0979 -0.0565 0.9936
vn -0.0979 -0.0565 0.9936
vn -0.2898 -0.0565 0.9554
vn -0.4706 -0.0565 0.8805
vn -0.6334 -0.0565 0.7718
vn -0.7718 -0.0565 0.6334
vn -0.8805 -0.0565 0.4706
vn -0.9650 -0.0562 0.2561
vn -0.9928 -0.0698 0.0978
vn -0.9964 -0.0562 -0.0629
vn -0.9554 -0.0565 -0.2898
vn -0.8805 -0.0565 -0.4706
vn -0.7718 -0.0565 -0.6334
vn -0.6334 -0.0565 -0.7718
vn -0.4706 -0.0565 -0.8805
vn 0.9503 0.1178 0.2883
vn -0.2898 -0.0565 -0.9554
vn -0.0979 -0.0565 -0.9936
vn -0.0000 -1.0000 -0.0000
vn -0.0000 1.0000 -0.0000
vn -0.6300 0.1178 -0.7676
vn 0.8758 0.1178 0.4681
vn -0.4681 0.1178 -0.8758
vn -0.0973 0.1178 0.9883
vn 0.7676 0.1178 0.6300
vn -0.2883 0.1178 -0.9503
vn -0.2883 0.1178 0.9503
vn 0.6300 0.1178 0.7676
vn -0.0973 0.1178 -0.9883
vn -0.4681 0.1178 0.8758
vn 0.4681 0.1178 0.8758
vn 0.0973 0.1178 -0.9883
vn -0.6300 0.1178 0.7676
vn 0.2883 0.1178 0.9503
vn 0.2883 0.1178 -0.9503
vn -0.7676 0.1178 0.6300
vn 0.0973 0.1178 0.9883
vn 0.4681 0.1178 -0.8758
vn -0.8758 0.1178 0.4681
vn 0.6300 0.1178 -0.7676
vn -0.9503 0.1178 0.2883
vn 0.7676 0.1178 -0.6300
vn -0.9883 0.1178 0.0973
vn 0.8758 0.1178 -0.4681
vn -0.9883 0.1178 -0.0973
vn 0.9503 0.1178 -0.2883
vn -0.9503 0.1178 -0.2883
vn 0.9883 0.1178 -0.0973
vn -0.8758 0.1178 -0.4681
vn 0.9883 0.1178 0.0973
vn -0.7676 0.1178 -0.6300
vn -0.0961 -0.1982 0.9754
vn -0.2845 -0.1982 0.9380
vn -0.4620 -0.1982 0.8644
vn -0.6218 -0.1982 0.7577
vn -0.7577 -0.1982 0.6218
vn -0.8644 -0.1982 0.4620
vn -0.9380 -0.1982 0.2845
vn -0.9754 -0.1982 0.0961
vn -0.9754 -0.1982 -0.0961
vn -0.9380 -0.1982 -0.2845
vn -0.8644 -0.1982 -0.4620
vn -0.7577 -0.1982 -0.6218
vn -0.6218 -0.1982 -0.7577
vn -0.4620 -0.1982 -0.8644
vn -0.2845 -0.1982 -0.9380
vn -0.0961 -0.1982 -0.9754
vn 0.0961 -0.1982 -0.9754
vn 0.2845 -0.1982 -0.9380
vn 0.4620 -0.1982 -0.8644
vn 0.6218 -0.1982 -0.7577
vn 0.7577 -0.1982 -0.6218
vn 0.8644 -0.1982 -0.4620
vn 0.9380 -0.1982 -0.2845
vn 0.9754 -0.1982 -0.0961
vn 0.9754 -0.1982 0.0961
vn 0.9380 -0.1982 0.2845
vn 0.8644 -0.1982 0.4620
vn 0.7577 -0.1982 0.6218
vn 0.6218 -0.1982 0.7577
vn 0.4620 -0.1982 0.8644
vn 0.2845 -0.1982 0.9380
vn 0.0961 -0.1982 0.9754
vn -0.0886 -0.4267 -0.9000
vn -0.0963 -0.1841 -0.9782
vn -0.0975 -0.1073 -0.9894
vn -0.2625 -0.4267 -0.8655
vn -0.2853 -0.1841 -0.9406
vn -0.2886 -0.1073 -0.9514
vn -0.4263 -0.4267 -0.7976
vn -0.4633 -0.1841 -0.8668
vn -0.4687 -0.1073 -0.8768
vn -0.5737 -0.4267 -0.6991
vn -0.6236 -0.1841 -0.7598
vn -0.6307 -0.1073 -0.7685
vn -0.6991 -0.4267 -0.5737
vn -0.7598 -0.1841 -0.6236
vn -0.7685 -0.1073 -0.6307
vn -0.7976 -0.4267 -0.4263
vn -0.8668 -0.1841 -0.4633
vn -0.8768 -0.1073 -0.4687
vn -0.8655 -0.4267 -0.2625
vn -0.9406 -0.1841 -0.2853
vn -0.9514 -0.1073 -0.2886
vn -0.9000 -0.4267 -0.0886
vn -0.9782 -0.1841 -0.0963
vn -0.9894 -0.1073 -0.0975
vn -0.9000 -0.4267 0.0886
vn -0.9851 -0.1542 0.0757
vn -0.8655 -0.4267 0.2625
vn -0.9406 -0.1841 0.2853
vn -0.9514 -0.1073 0.2886
vn -0.7976 -0.4267 0.4263
vn -0.8668 -0.1841 0.4633
vn -0.8768 -0.1073 0.4687
vn -0.6991 -0.4267 0.5737
vn -0.7598 -0.1841 0.6236
vn -0.7685 -0.1073 0.6307
vn -0.5737 -0.4267 0.6991
vn -0.6236 -0.1841 0.7598
vn -0.6307 -0.1073 0.7685
vn -0.4263 -0.4267 0.7976
vn -0.4633 -0.1841 0.8668
vn -0.4687 -0.1073 0.8768
vn -0.2625 -0.4267 0.8655
vn -0.2853 -0.1841 0.9406
vn -0.2886 -0.1073 0.9514
vn -0.0886 -0.4267 0.9000
vn -0.0963 -0.1841 0.9782
vn -0.0975 -0.1073 0.9894
vn 0.0886 -0.4267 0.9000
vn 0.0963 -0.1841 0.9782
vn 0.0975 -0.1073 0.9894
vn 0.2625 -0.4267 0.8655
vn 0.2853 -0.1841 0.9406
vn 0.2886 -0.1073 0.9514
vn 0.4263 -0.4267 0.7976
vn 0.4633 -0.1841 0.8668
vn 0.4687 -0.1073 0.8768
vn 0.5737 -0.4267 0.6991
vn 0.6236 -0.1841 0.7598
vn 0.6307 -0.1073 0.7685
vn 0.6991 -0.4267 0.5737
vn 0.7598 -0.1841 0.6236
vn 0.7685 -0.1073 0.6307
vn 0.7976 -0.4267 0.4263
vn 0.8668 -0.1841 0.4633
vn 0.8768 -0.1073 0.4687
vn 0.8655 -0.4267 0.2625
vn 0.9406 -0.1841 0.2853
vn 0.9514 -0.1073 0.2886
vn 0.9000 -0.4267 0.0886
vn 0.9782 -0.1841 0.0963
vn 0.9894 -0.1073 0.0975
vn 0.9000 -0.4267 -0.0886
vn 0.9782 -0.1841 -0.0963
vn 0.9894 -0.1073 -0.0975
vn 0.8655 -0.4267 -0.2625
vn 0.9406 -0.1841 -0.2853
vn 0.9514 -0.1073 -0.2886
vn 0.7976 -0.4267 -0.4263
vn 0.8668 -0.1841 -0.4633
vn 0.8768 -0.1073 -0.4687
vn 0.6991 -0.4267 -0.5737
vn 0.7598 -0.1841 -0.6236
vn 0.7685 -0.1073 -0.6307
vn 0.5737 -0.4267 -0.6991
vn 0.6236 -0.1841 -0.7598
vn 0.6307 -0.1073 -0.7685
vn 0.4263 -0.4267 -0.7976
vn 0.4633 -0.1841 -0.8668
vn 0.4687 -0.1073 -0.8768
vn 0.2625 -0.4267 -0.8655
vn 0.2853 -0.1841 -0.9406
vn 0.2886 -0.1073 -0.9514
vn 0.0886 -0.4267 -0.9000
vn 0.0963 -0.1841 -0.9782
vn 0.0975 -0.1073 -0.9894
vn -0.9894 -0.1073 0.0975
vn -0.3587 -0.9330 0.0276
vn 0.1694 -0.0295 0.9851
vn -0.1252 -0.0000 -0.9921
vn -0.9782 -0.1841 0.0963
vn -0.9743 0.2127 0.0749
vn -0.8041 0.5913 0.0618
vn -0.1254 -0.0096 -0.9921
vn -0.8921 -0.4466 0.0686
vn -0.1314 -0.0267 -0.9910
vn 0.1155 -0.0254 0.9930
vn 0.9277 0.3665 -0.0713
vn 0.3674 0.9296 -0.0282
vn -0.2636 -0.9639 -0.0372
vn 0.1711 -0.0699 0.9828
vn -0.1262 -0.0237 -0.9917
vn -0.2945 -0.9549 -0.0389
vn 0.3965 0.9175 -0.0305
vn -0.2532 0.9672 0.0195
vn 0.5604 -0.8271 -0.0431
vn -0.1199 -0.0203 -0.9926
vn 0.1179 -0.0313 0.9925
vn 0.1251 -0.0096 0.9921
vn -0.3188 0.9478 0.0019
vn -0.2069 -0.9782 0.0204
vn 0.1038 0.0069 -0.9946
vn 0.0565 -0.0262 0.9981
vn -0.2349 -0.9714 -0.0356
vn -0.3405 0.9396 0.0335
vn 0.9938 -0.0810 -0.0764
vn 0.1232 -0.0088 0.9923
vn -0.1427 -0.0196 -0.9896
vn -0.9969 0.0159 0.0766
vn 0.1298 -0.0054 0.9915
vn -0.0203 -0.0172 -0.9996
vn -0.8732 -0.4827 0.0671
vn 0.5295 0.8467 -0.0522
vn -0.8697 -0.4861 0.0857
vn 0.5262 0.8494 -0.0404
vn -0.9546 -0.0698 0.2896
vn -0.9928 -0.0698 -0.0978
vn -0.9956 -0.0815 -0.0470
vn -0.9673 -0.0815 0.2404
vn 0.1672 -0.0312 0.9854
vn -0.1451 -0.0154 -0.9893
vn -0.1273 -0.0088 -0.9918
vn -0.1349 -0.0254 -0.9905
vn 0.1189 -0.0267 0.9925
vn 0.3476 0.9367 0.0416
vn -0.2844 -0.9585 0.0219
vn 0.1219 -0.0242 0.9923
vn -0.1636 0.0160 -0.9864
vn -0.3181 -0.9477 0.0244
vn 0.3749 0.9261 0.0430
vn -0.0968 -0.0000 -0.9953
vn 0.1305 -0.0203 0.9912
vn 0.1506 0.0053 0.9886
vn -0.1822 -0.9827 -0.0327
vn 0.0812 0.0153 -0.9966
vn 0.1480 -0.0694 0.9865
vn -0.3705 0.9288 -0.0017
vn 0.1383 -0.0200 0.9902
vn -0.0292 -0.0024 -0.9996
vn 0.5348 0.8440 -0.0411
vn -0.8694 -0.4896 0.0668
vt 0.442485 0.937545
vt 0.832750 0.327514
vt 0.193365 0.328407
vt 0.987526 0.086376
vt 0.428375 0.937545
vt 0.833337 0.313754
vt 0.222303 0.322651
vt 0.988753 0.057603
vt 0.414536 0.934793
vt 0.834290 0.300867
vt 0.249561 0.311360
vt 0.990746 0.030657
vt 0.835572 0.289349
vt 0.401499 0.929393
vt 0.221579 0.735263
vt 0.274093 0.294968
vt 0.993428 0.006572
vt 0.791294 0.239235
vt 0.389767 0.921553
vt 0.220313 0.725449
vt 0.294955 0.274104
vt 0.788647 0.218712
vt 0.379790 0.911576
vt 0.219318 0.713845
vt 0.311347 0.249571
vt 0.786566 0.194448
vt 0.371950 0.899843
vt 0.218633 0.700898
vt 0.322638 0.222312
vt 0.785134 0.167376
vt 0.366551 0.886807
vt 0.218284 0.687105
vt 0.328394 0.193374
vt 0.784403 0.138534
vt 0.363798 0.872967
vt 0.218284 0.672996
vt 0.328394 0.163868
vt 0.784403 0.109033
vt 0.363798 0.858856
vt 0.218633 0.659114
vt 0.322638 0.134930
vt 0.785134 0.080005
vt 0.366551 0.845017
vt 0.219318 0.645991
vt 0.311347 0.107670
vt 0.786566 0.052566
vt 0.371950 0.831981
vt 0.220313 0.634133
vt 0.294955 0.083137
vt 0.788647 0.027771
vt 0.221579 0.623995
vt 0.379790 0.820248
vt 0.835041 0.510861
vt 0.791294 0.006572
vt 0.274093 0.062274
vt 0.196182 0.834019
vt 0.389767 0.810270
vt 0.833961 0.499648
vt 0.249561 0.045881
vt 0.193924 0.810573
vt 0.401500 0.802431
vt 0.833159 0.486979
vt 0.222302 0.034590
vt 0.192246 0.784083
vt 0.414536 0.797031
vt 0.832665 0.473342
vt 0.193365 0.028834
vt 0.191213 0.755567
vt 0.428375 0.794278
vt 0.832498 0.459259
vt 0.163861 0.028833
vt 0.190864 0.726121
vt 0.442485 0.794278
vt 0.832665 0.445274
vt 0.134923 0.034589
vt 0.191213 0.696876
vt 0.456325 0.797031
vt 0.833159 0.431922
vt 0.107665 0.045880
vt 0.192246 0.668957
vt 0.469361 0.802431
vt 0.833961 0.419717
vt 0.083133 0.062273
vt 0.193924 0.643437
vt 0.835041 0.409128
vt 0.481093 0.810270
vt 0.843819 0.637511
vt 0.196182 0.621295
vt 0.062271 0.083136
vt 0.785626 0.976271
vt 0.491071 0.820248
vt 0.842451 0.625791
vt 0.045879 0.107669
vt 0.782766 0.951765
vt 0.498910 0.831981
vt 0.841509 0.612763
vt 0.034588 0.134928
vt 0.780796 0.924524
vt 0.504310 0.845017
vt 0.841028 0.598928
vt 0.028832 0.163867
vt 0.779791 0.895595
vt 0.507062 0.858856
vt 0.841028 0.584818
vt 0.028832 0.193372
vt 0.779791 0.866090
vt 0.507062 0.872967
vt 0.841509 0.570974
vt 0.780796 0.837142
vt 0.034588 0.222310
vt 0.504310 0.886807
vt 0.842451 0.557929
vt 0.045879 0.249570
vt 0.782766 0.809864
vt 0.498910 0.899843
vt 0.843819 0.546183
vt 0.835572 0.390879
vt 0.785626 0.785304
vt 0.062271 0.274103
vt 0.993428 0.218873
vt 0.491070 0.911576
vt 0.834290 0.380639
vt 0.083134 0.294966
vt 0.990746 0.197460
vt 0.481093 0.921553
vt 0.833337 0.368702
vt 0.107665 0.311359
vt 0.988753 0.172500
vt 0.469361 0.929393
vt 0.832750 0.355526
vt 0.134924 0.322650
vt 0.987526 0.144950
vt 0.456324 0.934793
vt 0.832552 0.341619
vt 0.163861 0.328407
vt 0.987112 0.115869
vt 0.006972 0.450626
vt 0.228796 0.344057
vt 0.006572 0.484217
vt 0.195558 0.350668
vt 0.008159 0.418558
vt 0.260105 0.331088
vt 0.010086 0.389244
vt 0.288283 0.312259
vt 0.012680 0.363812
vt 0.599474 0.550656
vt 0.312246 0.288295
vt 0.627622 0.547370
vt 0.331074 0.260116
vt 0.658911 0.545107
vt 0.344043 0.228806
vt 0.692140 0.543954
vt 0.350654 0.195566
vt 0.726030 0.543954
vt 0.350654 0.161676
vt 0.759280 0.545107
vt 0.344043 0.128436
vt 0.790612 0.547370
vt 0.331074 0.097126
vt 0.818822 0.550656
vt 0.371053 0.530810
vt 0.312246 0.068946
vt 0.367972 0.506216
vt 0.288283 0.044982
vt 0.365683 0.477545
vt 0.260105 0.026153
vt 0.364274 0.445901
vt 0.228796 0.013184
vt 0.363798 0.412498
vt 0.195557 0.006572
vt 0.364274 0.378622
vt 0.161668 0.006572
vt 0.365683 0.345573
vt 0.128430 0.013183
vt 0.367972 0.314621
vt 0.097121 0.026152
vt 0.371053 0.286957
vt 0.579462 0.006572
vt 0.068943 0.044981
vt 0.582503 0.030144
vt 0.044980 0.068945
vt 0.584892 0.058014
vt 0.026152 0.097124
vt 0.586538 0.089111
vt 0.013183 0.128435
vt 0.587377 0.122238
vt 0.006572 0.161674
vt 0.587377 0.156124
vt 0.006572 0.195564
vt 0.586538 0.189466
vt 0.013183 0.228804
vt 0.584892 0.220983
vt 0.026152 0.260115
vt 0.582503 0.249464
vt 0.044980 0.288294
vt 0.579462 0.273813
vt 0.012680 0.608152
vt 0.068943 0.312258
vt 0.010086 0.581221
vt 0.097121 0.331087
vt 0.008159 0.550793
vt 0.128431 0.344056
vt 0.006972 0.518039
vt 0.161669 0.350668
vt 0.676034 0.290955
vt 0.805578 0.070142
vt 0.696133 0.286957
vt 0.804725 0.090126
vt 0.657102 0.298797
vt 0.806962 0.051427
vt 0.808825 0.034698
vt 0.640064 0.310182
vt 0.605307 0.202832
vt 0.625574 0.324673
vt 0.603468 0.188578
vt 0.614189 0.341712
vt 0.602023 0.171725
vt 0.606347 0.360645
vt 0.601028 0.152922
vt 0.602349 0.380744
vt 0.600521 0.132890
vt 0.602350 0.401237
vt 0.600521 0.112400
vt 0.606348 0.421336
vt 0.601028 0.092239
vt 0.614190 0.440269
vt 0.602023 0.073181
vt 0.625575 0.457309
vt 0.603468 0.055960
vt 0.640065 0.471799
vt 0.010265 0.803473
vt 0.605307 0.041236
vt 0.657103 0.483185
vt 0.008697 0.787189
vt 0.676036 0.491027
vt 0.007532 0.768790
vt 0.696134 0.495025
vt 0.006814 0.748985
vt 0.716626 0.495025
vt 0.006572 0.728533
vt 0.736724 0.491027
vt 0.006814 0.708221
vt 0.755657 0.483184
vt 0.007532 0.688830
vt 0.772695 0.471799
vt 0.008697 0.671105
vt 0.787185 0.457309
vt 0.010265 0.655726
vt 0.603526 0.946991
vt 0.798570 0.440269
vt 0.601540 0.929971
vt 0.806412 0.421336
vt 0.600171 0.911051
vt 0.810409 0.401237
vt 0.599474 0.890958
vt 0.810409 0.380744
vt 0.599474 0.870465
vt 0.806411 0.360645
vt 0.600171 0.850360
vt 0.798569 0.341712
vt 0.601540 0.831414
vt 0.787184 0.324673
vt 0.603526 0.814356
vt 0.808824 0.182151
vt 0.772694 0.310182
vt 0.806962 0.167280
vt 0.755655 0.298797
vt 0.805578 0.149943
vt 0.736723 0.290955
vt 0.804725 0.130809
vt 0.716625 0.286957
vt 0.804438 0.110611
vt 0.491262 0.575417
vt 0.228576 0.486285
vt 0.508108 0.578768
vt 0.228779 0.469260
vt 0.523977 0.585341
vt 0.229380 0.453007
vt 0.538259 0.594884
vt 0.230357 0.438150
vt 0.653608 0.772161
vt 0.550405 0.607030
vt 0.559947 0.621312
vt 0.667874 0.770495
vt 0.566521 0.637181
vt 0.683732 0.769349
vt 0.569872 0.654028
vt 0.700574 0.768764
vt 0.569872 0.671204
vt 0.717750 0.768764
vt 0.566521 0.688051
vt 0.734603 0.769349
vt 0.559947 0.703920
vt 0.750483 0.770495
vt 0.550405 0.718202
vt 0.764780 0.772161
vt 0.589206 0.456115
vt 0.538259 0.730348
vt 0.523977 0.739891
vt 0.588046 0.441584
vt 0.508108 0.746465
vt 0.587331 0.425545
vt 0.491262 0.749816
vt 0.587090 0.408616
vt 0.474085 0.749816
vt 0.587331 0.391446
vt 0.457239 0.746465
vt 0.588046 0.374696
vt 0.589206 0.359009
vt 0.441370 0.739892
vt 0.427088 0.730349
vt 0.414943 0.718204
vt 0.405400 0.703922
vt 0.363798 0.098977
vt 0.398827 0.688052
vt 0.364632 0.114737
vt 0.395476 0.671206
vt 0.365057 0.131527
vt 0.395476 0.654029
vt 0.365057 0.148702
vt 0.398827 0.637182
vt 0.364632 0.165601
vt 0.363798 0.181574
vt 0.405400 0.621313
vt 0.414943 0.607031
vt 0.427088 0.594885
vt 0.441370 0.585342
vt 0.230357 0.535450
vt 0.457239 0.578769
vt 0.229380 0.520028
vt 0.228779 0.503427
vt 0.474085 0.575417
vt 0.490074 0.587483
vt 0.823761 0.326987
vt 0.504589 0.590370
vt 0.824376 0.312555
vt 0.518262 0.596034
vt 0.825376 0.299038
vt 0.530568 0.604256
vt 0.826721 0.286957
vt 0.212782 0.738000
vt 0.541033 0.614721
vt 0.211454 0.727706
vt 0.549255 0.627027
vt 0.210410 0.715535
vt 0.554919 0.640700
vt 0.209692 0.701955
vt 0.557806 0.655216
vt 0.209325 0.687488
vt 0.557806 0.670016
vt 0.209325 0.672690
vt 0.554919 0.684532
vt 0.209692 0.658130
vt 0.549255 0.698205
vt 0.210410 0.644366
vt 0.541033 0.710511
vt 0.211454 0.631929
vt 0.530568 0.720977
vt 0.212782 0.621295
vt 0.826220 0.513296
vt 0.518262 0.729199
vt 0.825087 0.501535
vt 0.504589 0.734863
vt 0.824246 0.488247
vt 0.490074 0.737751
vt 0.823728 0.473944
vt 0.475274 0.737751
vt 0.823553 0.459173
vt 0.460758 0.734863
vt 0.823728 0.444504
vt 0.447085 0.729200
vt 0.824246 0.430500
vt 0.434779 0.720977
vt 0.825087 0.417698
vt 0.424314 0.710512
vt 0.826220 0.406592
vt 0.834893 0.639744
vt 0.416092 0.698207
vt 0.833458 0.627452
vt 0.410428 0.684533
vt 0.832470 0.613787
vt 0.407541 0.670017
vt 0.831966 0.599276
vt 0.407541 0.655217
vt 0.831966 0.584476
vt 0.410428 0.640702
vt 0.832470 0.569956
vt 0.416092 0.627028
vt 0.833458 0.556273
vt 0.834893 0.543954
vt 0.424314 0.614722
vt 0.826721 0.393448
vt 0.434779 0.604257
vt 0.825376 0.382708
vt 0.447085 0.596034
vt 0.824376 0.370187
vt 0.460758 0.590370
vt 0.823761 0.356368
vt 0.475274 0.587483
vt 0.823553 0.341781
vt 0.174277 0.484860
vt 0.122851 0.484415
vt 0.059510 0.484204
vt 0.059897 0.451784
vt 0.123206 0.454636
vt 0.174589 0.458733
vt 0.061042 0.420834
vt 0.124258 0.426207
vt 0.175512 0.433790
vt 0.062902 0.392542
vt 0.125967 0.400220
vt 0.567691 0.558597
vt 0.177011 0.410989
vt 0.603289 0.603257
vt 0.065405 0.367996
vt 0.611911 0.666292
vt 0.128266 0.377673
vt 0.179028 0.391208
vt 0.623843 0.717588
vt 0.586330 0.577237
vt 0.630456 0.600086
vt 0.636865 0.663379
vt 0.645737 0.715032
vt 0.660655 0.597902
vt 0.664604 0.661373
vt 0.670074 0.713272
vt 0.692725 0.596789
vt 0.694061 0.660350
vt 0.695920 0.712375
vt 0.725434 0.596789
vt 0.724106 0.660350
vt 0.722280 0.712375
vt 0.757525 0.597902
vt 0.753583 0.661373
vt 0.748142 0.713272
vt 0.787765 0.600086
vt 0.781359 0.663379
vt 0.772513 0.715032
vt 0.423716 0.526799
vt 0.814991 0.603257
vt 0.486607 0.517170
vt 0.806368 0.666292
vt 0.537521 0.503478
vt 0.586330 0.747849
vt 0.794455 0.717588
vt 0.420743 0.503062
vt 0.483876 0.495366
vt 0.567691 0.766488
vt 0.535125 0.484348
vt 0.418534 0.475391
vt 0.481847 0.469949
vt 0.533344 0.462048
vt 0.417174 0.444850
vt 0.480597 0.441896
vt 0.532248 0.437435
vt 0.416714 0.412612
vt 0.480175 0.412284
vt 0.531878 0.411454
vt 0.417174 0.379916
vt 0.480597 0.382251
vt 0.532248 0.385104
vt 0.418534 0.348019
vt 0.481847 0.352953
vt 0.533344 0.359398
vt 0.420743 0.318146
vt 0.483876 0.325514
vt 0.418999 0.781135
vt 0.535125 0.335324
vt 0.526806 0.011182
vt 0.423716 0.291446
vt 0.464060 0.021699
vt 0.486607 0.300989
vt 0.413427 0.036315
vt 0.397082 0.766490
vt 0.537521 0.313806
vt 0.529741 0.033933
vt 0.466756 0.042596
vt 0.378443 0.747850
vt 0.415792 0.054650
vt 0.532047 0.060832
vt 0.468874 0.067304
vt 0.363798 0.725933
vt 0.417650 0.076328
vt 0.533636 0.090844
vt 0.470333 0.094871
vt 0.418930 0.100515
vt 0.544473 0.122838
vt 0.334614 0.462773
vt 0.329978 0.700736
vt 0.471077 0.124240
vt 0.244177 0.721784
vt 0.331197 0.389918
vt 0.419583 0.126282
vt 0.544473 0.155543
vt 0.333883 0.514020
vt 0.297281 0.701643
vt 0.471077 0.154280
vt 0.330455 0.587008
vt 0.274216 0.721196
vt 0.419583 0.152639
vt 0.533636 0.187702
vt 0.470333 0.183839
vt 0.418930 0.178573
vt 0.532047 0.218120
vt 0.468874 0.211779
vt 0.363798 0.599157
vt 0.417650 0.203087
vt 0.529741 0.245608
vt 0.466756 0.237027
vt 0.415792 0.225239
vt 0.378443 0.577239
vt 0.065405 0.603819
vt 0.526806 0.269108
vt 0.128266 0.594285
vt 0.464060 0.258614
vt 0.413427 0.244179
vt 0.179028 0.581258
vt 0.397082 0.558599
vt 0.062902 0.577826
vt 0.125967 0.570410
vt 0.177011 0.560310
vt 0.418999 0.543954
vt 0.061042 0.548460
vt 0.124258 0.543436
vt 0.175512 0.536644
vt 0.059897 0.516848
vt 0.123206 0.514399
vt 0.174589 0.511167
vt 0.331746 0.421479
vt 0.502761 0.123528
vt 0.334614 0.363812
vt 0.445330 0.125261
vt 0.327031 0.715506
vt 0.331006 0.555395
vt 0.502761 0.154901
vt 0.445330 0.153459
vt 0.333883 0.613135
vt 0.298838 0.714786
vt 0.419583 0.139460
vt 0.471077 0.139260
vt 0.259197 0.721490
vt 0.544473 0.139190
vt 0.313629 0.701189
vt 0.502761 0.139215
vt 0.445330 0.139360
vt 0.312935 0.715146
vt 0.262039 0.626278
vt 0.312241 0.627190
vt 0.280576 0.626278
vt 0.260827 0.503014
vt 0.293725 0.628102
vt 0.330756 0.626278
vt 0.260809 0.474492
vt 0.243501 0.626278
vt 0.243903 0.643961
vt 0.248415 0.458120
vt 0.279469 0.643961
vt 0.248429 0.519520
vt 0.261686 0.643961
vt 0.261964 0.683487
vt 0.245041 0.558655
vt 0.278991 0.683487
vt 0.244936 0.683487
vt 0.245066 0.419012
vt 0.327031 0.793311
vt 0.246965 0.708052
vt 0.261555 0.392602
vt 0.278933 0.708052
vt 0.261482 0.584846
vt 0.295099 0.791809
vt 0.262949 0.708052
vt 0.311065 0.792560
vt 0.281791 0.383542
vt 0.326997 0.771503
vt 0.311031 0.770752
vt 0.815952 0.832804
vt 0.260514 0.776064
vt 0.243501 0.776763
vt 0.278724 0.406751
vt 0.832972 0.833192
vt 0.295065 0.770001
vt 0.281684 0.593663
vt 0.278646 0.570512
vt 0.798932 0.832416
vt 0.277528 0.775365
vt 0.798770 0.785304
vt 0.269747 0.825472
vt 0.275710 0.518279
vt 0.293720 0.646074
vt 0.281202 0.495202
vt 0.330751 0.644250
vt 0.281199 0.482058
vt 0.269747 0.789906
vt 0.275745 0.458823
vt 0.834319 0.786115
vt 0.269747 0.807689
vt 0.816544 0.785710
vt 0.312235 0.645162
vt 0.309431 0.742779
vt 0.244017 0.741700
vt 0.311037 0.391365
vt 0.315503 0.586174
vt 0.277528 0.735684
vt 0.325143 0.745697
vt 0.305825 0.373184
vt 0.260772 0.738692
vt 0.293720 0.739861
vt 0.309957 0.603919
vt 0.816909 0.812322
vt 0.799498 0.811925
vt 0.265501 0.542821
vt 0.243501 0.537664
vt 0.279089 0.662611
vt 0.261671 0.662611
vt 0.243501 0.440029
vt 0.244253 0.662611
vt 0.834319 0.812720
vt 0.265532 0.434607
vt 0.306438 0.497588
vt 0.293725 0.671247
vt 0.243501 0.790450
vt 0.303380 0.461362
vt 0.539642 0.121466
vt 0.312241 0.670335
vt 0.243501 0.826016
vt 0.539545 0.157031
vt 0.303334 0.515616
vt 0.330756 0.669423
vt 0.306468 0.479368
vt 0.243501 0.808233
vt 0.539593 0.139248
s 0
f 66/139/1 196/404/1 195/403/1
f 65/137/2 199/407/2 196/404/2
f 67/141/3 202/410/3 199/407/3
f 68/143/4 205/415/4 202/410/4
f 69/146/5 208/421/5 205/414/5
f 70/148/6 211/424/6 208/421/6
f 71/150/7 214/427/7 211/424/7
f 72/152/8 217/430/8 214/427/8
f 73/154/9 220/433/9 217/430/9
f 74/156/10 223/436/10 220/433/10
f 75/158/11 226/440/11 223/436/11
f 76/161/12 229/446/12 226/439/12
f 77/163/13 232/450/13 229/446/13
f 232/450/14 79/167/14 235/453/14
f 235/453/15 80/169/15 238/456/15
f 80/169/16 241/459/16 238/456/16
f 241/459/17 82/173/17 244/462/17
f 244/462/18 83/175/18 247/465/18
f 247/465/19 84/177/19 250/470/19
f 84/178/20 253/476/20 250/469/20
f 253/476/21 86/182/21 256/480/21
f 256/480/22 87/184/22 259/484/22
f 87/184/23 262/487/23 259/484/23
f 88/186/24 265/494/24 295/542/24
f 265/494/25 90/190/25 268/501/25
f 90/190/26 271/504/26 268/501/26
f 271/504/27 92/194/27 274/508/27
f 92/194/28 277/513/28 274/508/28
f 93/197/29 280/519/29 277/512/29
f 94/199/30 283/523/30 280/519/30
f 54/114/31 122/259/31 123/261/31
f 95/201/32 286/526/32 283/523/32
f 96/203/33 195/403/33 286/526/33
f 31/65/34 47/99/34 63/133/34
f 2/3/35 65/138/35 66/140/35
f 6/11/35 65/138/35 4/7/35
f 6/11/35 68/144/35 67/142/35
f 8/16/35 69/147/35 68/144/35
f 12/25/35 69/147/35 10/21/35
f 12/25/35 71/151/35 70/149/35
f 14/29/35 72/153/35 71/151/35
f 18/37/35 72/153/35 16/33/35
f 18/37/35 74/157/35 73/155/35
f 22/45/35 74/157/35 20/41/35
f 24/49/35 75/159/35 22/45/35
f 26/55/35 76/162/35 24/49/35
f 26/55/35 78/166/35 77/164/35
f 30/63/35 78/166/35 28/59/35
f 30/63/35 80/170/35 79/168/35
f 34/71/35 80/170/35 32/67/35
f 34/71/35 82/174/35 81/172/35
f 38/79/35 82/174/35 36/75/35
f 40/83/35 83/176/35 38/79/35
f 42/89/35 84/179/35 40/83/35
f 44/93/35 85/181/35 42/89/35
f 44/93/35 87/185/35 86/183/35
f 48/101/35 87/185/35 46/97/35
f 50/105/35 88/187/35 48/101/35
f 52/110/35 89/189/35 50/105/35
f 52/110/35 91/193/35 90/191/35
f 56/119/35 91/193/35 54/113/35
f 56/119/35 93/198/35 92/195/35
f 60/127/35 93/198/35 58/123/35
f 62/131/35 94/200/35 60/127/35
f 64/135/35 95/202/35 62/131/35
f 2/3/35 96/204/35 64/135/35
f 115/243/35 107/226/35 99/209/35
f 26/56/36 110/234/36 28/60/36
f 54/114/37 124/263/37 56/118/37
f 30/64/38 110/234/38 111/236/38
f 2/4/39 97/206/39 4/8/39
f 58/124/40 124/264/40 125/266/40
f 30/64/41 112/238/41 32/68/41
f 4/8/42 99/210/42 6/12/42
f 58/124/43 126/268/43 60/128/43
f 34/72/44 112/238/44 113/240/44
f 8/17/45 99/210/45 100/211/45
f 60/128/46 127/270/46 62/132/46
f 34/72/47 114/242/47 36/76/47
f 8/18/48 101/215/48 10/22/48
f 64/136/49 127/270/49 128/272/49
f 36/76/50 115/244/50 38/80/50
f 10/22/51 102/217/51 12/26/51
f 64/136/52 98/208/52 2/4/52
f 38/80/53 116/246/53 40/84/53
f 12/26/54 103/219/54 14/30/54
f 40/84/55 117/248/55 42/88/55
f 16/34/56 103/219/56 104/221/56
f 42/90/57 118/251/57 44/94/57
f 16/34/58 105/223/58 18/38/58
f 44/94/59 119/253/59 46/98/59
f 18/38/60 106/225/60 20/42/60
f 46/98/61 120/255/61 48/102/61
f 20/42/62 107/227/62 22/46/62
f 50/106/63 120/255/63 121/257/63
f 22/46/64 108/229/64 24/50/64
f 50/106/65 122/259/65 52/109/65
f 24/50/66 109/232/66 26/54/66
f 161/333/34 130/275/34 162/335/34
f 162/335/34 131/277/34 163/337/34
f 163/337/34 132/279/34 164/339/34
f 164/339/34 133/282/34 165/342/34
f 165/342/34 134/283/34 166/344/34
f 166/344/34 135/285/34 167/346/34
f 167/346/34 136/287/34 168/348/34
f 169/350/34 136/287/34 137/289/34
f 169/350/34 138/291/34 170/352/34
f 170/352/34 139/293/34 171/354/34
f 171/354/34 140/295/34 172/356/34
f 172/356/34 141/298/34 173/358/34
f 174/361/34 141/298/34 142/299/34
f 174/361/34 143/301/34 175/363/34
f 175/363/34 144/303/34 176/365/34
f 177/367/34 144/303/34 145/305/34
f 177/367/34 146/307/34 178/369/34
f 178/369/34 147/310/34 179/371/34
f 180/373/34 147/310/34 148/311/34
f 180/373/34 149/312/34 181/375/34
f 181/375/34 150/313/34 182/378/34
f 182/378/34 151/315/34 183/380/34
f 183/380/34 152/317/34 184/382/34
f 184/382/34 153/319/34 185/384/34
f 185/384/34 154/321/34 186/386/34
f 186/386/34 155/324/34 187/388/34
f 187/388/34 156/325/34 188/391/34
f 188/391/34 157/326/34 189/393/34
f 190/395/34 157/326/34 158/327/34
f 190/395/34 159/329/34 191/397/34
f 191/397/34 160/332/34 192/399/34
f 192/399/34 129/273/34 161/333/34
f 3/6/67 161/334/67 162/336/67
f 5/10/68 162/336/68 163/338/68
f 5/10/69 164/340/69 7/13/69
f 7/15/70 165/343/70 9/20/70
f 9/20/71 166/345/71 11/24/71
f 13/28/72 166/345/72 167/347/72
f 13/28/73 168/349/73 15/32/73
f 15/32/74 169/351/74 17/36/74
f 17/36/75 170/353/75 19/40/75
f 19/40/76 171/355/76 21/44/76
f 23/48/77 171/355/77 172/357/77
f 23/48/78 173/359/78 25/51/78
f 27/58/79 173/360/79 174/362/79
f 27/58/80 175/364/80 29/62/80
f 29/62/81 176/366/81 31/66/81
f 31/66/82 177/368/82 33/70/82
f 33/70/83 178/370/83 35/74/83
f 35/74/84 179/372/84 37/78/84
f 37/78/85 180/374/85 39/82/85
f 39/82/86 181/376/86 41/85/86
f 41/87/87 182/379/87 43/92/87
f 43/92/88 183/381/88 45/96/88
f 47/100/89 183/381/89 184/383/89
f 47/100/90 185/385/90 49/104/90
f 49/104/91 186/387/91 51/108/91
f 51/108/92 187/389/92 53/112/92
f 55/116/93 187/389/93 188/390/93
f 55/117/94 189/394/94 57/122/94
f 57/122/95 190/396/95 59/126/95
f 59/126/96 191/398/96 61/130/96
f 61/130/97 192/400/97 63/134/97
f 63/134/98 161/334/98 1/2/98
f 288/528/99 129/274/99 160/331/99
f 288/528/100 194/402/100 193/401/100
f 286/526/101 194/402/101 287/527/101
f 159/330/102 288/528/102 160/331/102
f 285/525/103 287/527/103 288/528/103
f 283/523/104 287/527/104 284/524/104
f 158/328/105 285/525/105 159/330/105
f 282/521/106 284/524/106 285/525/106
f 280/519/107 284/524/107 281/520/107
f 157/326/108 282/522/108 158/327/108
f 279/517/109 281/520/109 282/521/109
f 277/512/110 281/520/110 278/514/110
f 156/325/111 279/518/111 157/326/111
f 276/510/112 278/515/112 279/516/112
f 274/508/113 278/515/113 275/509/113
f 155/324/114 276/511/114 156/325/114
f 273/507/115 275/509/115 276/510/115
f 271/504/116 275/509/116 272/505/116
f 154/322/117 273/507/117 155/323/117
f 270/503/118 272/505/118 273/507/118
f 268/501/119 272/505/119 269/502/119
f 153/320/120 270/503/120 154/322/120
f 292/536/121 269/502/121 270/503/121
f 291/535/122 268/501/122 269/502/122
f 264/493/123 267/500/123 153/320/123
f 331/614/124 306/563/124 332/616/124
f 151/316/125 264/493/125 152/318/125
f 260/485/126 290/532/126 264/493/126
f 259/484/127 289/530/127 263/490/127
f 150/314/128 261/486/128 151/316/128
f 258/483/129 260/485/129 261/486/129
f 256/480/130 260/485/130 257/481/130
f 149/312/131 258/482/131 150/313/131
f 254/477/132 258/483/132 255/479/132
f 253/476/133 257/481/133 254/477/133
f 148/311/134 255/478/134 149/312/134
f 251/471/135 255/479/135 252/473/135
f 250/469/136 254/477/136 251/471/136
f 147/310/137 252/474/137 148/311/137
f 248/466/138 252/475/138 249/468/138
f 247/465/139 251/472/139 248/466/139
f 146/308/140 249/468/140 147/309/140
f 245/463/141 249/468/141 246/464/141
f 244/462/142 248/466/142 245/463/142
f 145/306/143 246/464/143 146/308/143
f 242/460/144 246/464/144 243/461/144
f 241/459/145 245/463/145 242/460/145
f 144/304/146 243/461/146 145/306/146
f 239/457/147 243/461/147 240/458/147
f 238/456/148 242/460/148 239/457/148
f 237/455/149 144/304/149 143/302/149
f 236/454/150 240/458/150 237/455/150
f 235/453/151 239/457/151 236/454/151
f 234/452/152 143/302/152 142/300/152
f 233/451/153 237/455/153 234/452/153
f 232/450/154 236/454/154 233/451/154
f 231/449/155 142/300/155 141/297/155
f 230/447/156 234/452/156 231/449/156
f 229/446/157 233/451/157 230/447/157
f 228/444/158 141/298/158 140/295/158
f 227/441/159 231/449/159 228/443/159
f 226/439/160 230/447/160 227/441/160
f 225/438/161 140/296/161 139/294/161
f 224/437/162 228/445/162 225/438/162
f 223/436/163 227/442/163 224/437/163
f 222/435/164 139/294/164 138/292/164
f 221/434/165 225/438/165 222/435/165
f 220/433/166 224/437/166 221/434/166
f 219/432/167 138/292/167 137/290/167
f 218/431/168 222/435/168 219/432/168
f 218/431/169 220/433/169 221/434/169
f 216/429/170 137/290/170 136/288/170
f 215/428/171 219/432/171 216/429/171
f 214/427/172 218/431/172 215/428/172
f 213/426/173 136/288/173 135/286/173
f 212/425/174 216/429/174 213/426/174
f 211/424/175 215/428/175 212/425/175
f 210/423/176 135/286/176 134/284/176
f 209/422/177 213/426/177 210/423/177
f 208/421/178 212/425/178 209/422/178
f 207/419/179 134/284/179 133/281/179
f 206/416/180 210/423/180 207/419/180
f 205/414/181 209/422/181 206/416/181
f 204/412/182 133/282/182 132/279/182
f 204/413/183 206/417/183 207/418/183
f 203/411/184 205/415/184 206/417/184
f 201/409/185 132/280/185 131/278/185
f 201/409/186 203/411/186 204/413/186
f 199/407/187 203/411/187 200/408/187
f 198/406/188 131/278/188 130/276/188
f 197/405/189 201/409/189 198/406/189
f 197/405/190 199/407/190 200/408/190
f 193/401/191 130/276/191 129/274/191
f 193/401/192 197/405/192 198/406/192
f 194/402/193 196/404/193 197/405/193
f 296/544/194 266/497/194 294/540/194
f 263/490/194 296/544/194 294/540/194
f 310/574/195 309/572/195 311/575/195
f 319/594/196 300/553/196 301/556/196
f 316/588/197 299/550/197 317/590/197
f 297/545/198 293/539/198 290/532/198
f 302/557/199 298/547/199 299/549/199
f 300/554/199 303/559/199 301/555/199
f 330/613/124 304/560/124 331/614/124
f 321/598/200 299/551/200 298/548/200
f 329/611/201 305/561/201 330/612/201
f 318/591/200 298/548/200 300/552/200
f 309/571/202 305/562/202 308/568/202
f 307/566/202 304/560/202 309/571/202
f 315/583/203 308/569/203 305/561/203
f 313/579/204 307/567/204 310/573/204
f 311/575/195 308/570/195 314/581/195
f 312/576/205 329/610/205 328/609/205
f 326/606/206 315/585/206 312/577/206
f 322/599/207 314/581/207 327/607/207
f 323/601/208 310/573/208 325/605/208
f 324/602/209 314/582/209 315/583/209
f 325/604/210 311/575/210 322/599/210
f 323/600/211 312/577/211 313/578/211
f 338/628/212 321/598/212 318/591/212
f 335/621/213 320/596/213 339/630/213
f 336/624/212 317/589/212 321/598/212
f 339/630/213 316/587/213 337/625/213
f 337/627/214 317/590/214 334/619/214
f 335/622/215 318/592/215 319/594/215
f 333/618/216 301/556/216 332/615/216
f 328/609/205 313/580/205 312/576/205
f 263/491/217 326/606/217 323/600/217
f 290/533/218 322/599/218 297/546/218
f 266/498/219 327/608/219 324/602/219
f 263/492/220 325/605/220 290/531/220
f 292/538/221 322/599/221 327/607/221
f 266/499/222 326/606/222 294/541/222
f 319/595/223 328/609/223 320/597/223
f 333/618/224 306/564/224 313/579/224
f 320/597/223 329/610/223 316/586/223
f 329/611/225 302/558/225 316/588/225
f 330/613/226 303/559/226 302/557/226
f 303/559/226 332/616/226 301/555/226
f 262/488/227 335/622/227 289/529/227
f 265/495/228 337/627/228 334/619/228
f 291/535/229 339/631/229 337/626/229
f 265/496/230 336/624/230 295/543/230
f 289/530/231 339/631/231 296/544/231
f 262/489/232 336/624/232 338/628/232
f 66/139/1 65/137/1 196/404/1
f 65/137/2 67/141/2 199/407/2
f 67/141/3 68/143/3 202/410/3
f 68/143/4 69/145/4 205/415/4
f 69/146/5 70/148/5 208/421/5
f 70/148/6 71/150/6 211/424/6
f 71/150/7 72/152/7 214/427/7
f 72/152/8 73/154/8 217/430/8
f 73/154/9 74/156/9 220/433/9
f 74/156/10 75/158/10 223/436/10
f 75/158/11 76/160/11 226/440/11
f 76/161/12 77/163/12 229/446/12
f 77/163/13 78/165/13 232/450/13
f 232/450/14 78/165/14 79/167/14
f 235/453/15 79/167/15 80/169/15
f 80/169/16 81/171/16 241/459/16
f 241/459/17 81/171/17 82/173/17
f 244/462/18 82/173/18 83/175/18
f 247/465/19 83/175/19 84/177/19
f 84/178/20 85/180/20 253/476/20
f 253/476/21 85/180/21 86/182/21
f 256/480/22 86/182/22 87/184/22
f 87/184/233 88/186/233 262/487/233
f 295/542/24 262/487/24 88/186/24
f 88/186/24 89/188/24 265/494/24
f 265/494/234 89/188/234 90/190/234
f 90/190/26 91/192/26 271/504/26
f 271/504/27 91/192/27 92/194/27
f 92/194/28 93/196/28 277/513/28
f 93/197/29 94/199/29 280/519/29
f 94/199/30 95/201/30 283/523/30
f 54/114/31 52/109/31 122/259/31
f 95/201/32 96/203/32 286/526/32
f 96/203/33 66/139/33 195/403/33
f 63/133/34 1/1/34 3/5/34
f 3/5/34 5/9/34 7/14/34
f 7/14/34 9/19/34 11/23/34
f 11/23/34 13/27/34 15/31/34
f 15/31/34 17/35/34 19/39/34
f 19/39/34 21/43/34 23/47/34
f 23/47/34 25/52/34 27/57/34
f 27/57/34 29/61/34 31/65/34
f 31/65/34 33/69/34 35/73/34
f 35/73/34 37/77/34 39/81/34
f 39/81/34 41/86/34 43/91/34
f 43/91/34 45/95/34 47/99/34
f 47/99/34 49/103/34 51/107/34
f 51/107/34 53/111/34 55/115/34
f 55/115/34 57/121/34 59/125/34
f 59/125/34 61/129/34 63/133/34
f 63/133/34 3/5/34 7/14/34
f 7/14/34 11/23/34 15/31/34
f 15/31/34 19/39/34 23/47/34
f 23/47/34 27/57/34 31/65/34
f 31/65/34 35/73/34 39/81/34
f 39/81/34 43/91/34 47/99/34
f 47/99/34 51/107/34 55/115/34
f 55/115/34 59/125/34 63/133/34
f 63/133/34 7/14/34 15/31/34
f 15/31/34 23/47/34 31/65/34
f 31/65/34 39/81/34 47/99/34
f 47/99/34 55/115/34 63/133/34
f 63/133/34 15/31/34 31/65/34
f 2/3/35 4/7/35 65/138/35
f 6/11/35 67/142/35 65/138/35
f 6/11/35 8/16/35 68/144/35
f 8/16/35 10/21/35 69/147/35
f 12/25/35 70/149/35 69/147/35
f 12/25/35 14/29/35 71/151/35
f 14/29/35 16/33/35 72/153/35
f 18/37/35 73/155/35 72/153/35
f 18/37/35 20/41/35 74/157/35
f 22/45/35 75/159/35 74/157/35
f 24/49/35 76/162/35 75/159/35
f 26/55/35 77/164/35 76/162/35
f 26/55/35 28/59/35 78/166/35
f 30/63/35 79/168/35 78/166/35
f 30/63/35 32/67/35 80/170/35
f 34/71/35 81/172/35 80/170/35
f 34/71/35 36/75/35 82/174/35
f 38/79/35 83/176/35 82/174/35
f 40/83/35 84/179/35 83/176/35
f 42/89/35 85/181/35 84/179/35
f 44/93/35 86/183/35 85/181/35
f 44/93/35 46/97/35 87/185/35
f 48/101/35 88/187/35 87/185/35
f 50/105/35 89/189/35 88/187/35
f 52/110/35 90/191/35 89/189/35
f 52/110/35 54/113/35 91/193/35
f 56/119/35 92/195/35 91/193/35
f 56/119/35 58/123/35 93/198/35
f 60/127/35 94/200/35 93/198/35
f 62/131/35 95/202/35 94/200/35
f 64/135/35 96/204/35 95/202/35
f 2/3/35 66/140/35 96/204/35
f 99/209/35 97/205/35 98/207/35
f 98/207/35 128/271/35 127/269/35
f 127/269/35 126/267/35 125/265/35
f 125/265/35 124/262/35 123/260/35
f 123/260/35 122/258/35 121/256/35
f 121/256/35 120/254/35 119/252/35
f 119/252/35 118/250/35 117/247/35
f 117/247/35 116/245/35 115/243/35
f 115/243/35 114/241/35 113/239/35
f 113/239/35 112/237/35 111/235/35
f 111/235/35 110/233/35 109/230/35
f 109/230/35 108/228/35 107/226/35
f 107/226/35 106/224/35 105/222/35
f 105/222/35 104/220/35 103/218/35
f 103/218/35 102/216/35 101/214/35
f 101/214/35 100/212/35 99/209/35
f 99/209/35 98/207/35 127/269/35
f 127/269/35 125/265/35 123/260/35
f 123/260/35 121/256/35 119/252/35
f 119/252/35 117/247/35 115/243/35
f 115/243/35 113/239/35 111/235/35
f 111/235/35 109/230/35 107/226/35
f 107/226/35 105/222/35 103/218/35
f 103/218/35 101/214/35 99/209/35
f 99/209/35 127/269/35 123/260/35
f 123/260/35 119/252/35 115/243/35
f 115/243/35 111/235/35 107/226/35
f 107/226/35 103/218/35 99/209/35
f 99/209/35 123/260/35 115/243/35
f 26/56/36 109/231/36 110/234/36
f 54/114/37 123/261/37 124/263/37
f 30/64/38 28/60/38 110/234/38
f 2/4/39 98/208/39 97/206/39
f 58/124/40 56/120/40 124/264/40
f 30/64/41 111/236/41 112/238/41
f 4/8/42 97/206/42 99/210/42
f 58/124/43 125/266/43 126/268/43
f 34/72/44 32/68/44 112/238/44
f 8/17/45 6/12/45 99/210/45
f 60/128/46 126/268/46 127/270/46
f 34/72/47 113/240/47 114/242/47
f 8/18/48 100/213/48 101/215/48
f 64/136/49 62/132/49 127/270/49
f 36/76/50 114/242/50 115/244/50
f 10/22/51 101/215/51 102/217/51
f 64/136/52 128/272/52 98/208/52
f 38/80/53 115/244/53 116/246/53
f 12/26/54 102/217/54 103/219/54
f 40/84/55 116/246/55 117/248/55
f 16/34/56 14/30/56 103/219/56
f 42/90/57 117/249/57 118/251/57
f 16/34/58 104/221/58 105/223/58
f 44/94/59 118/251/59 119/253/59
f 18/38/60 105/223/60 106/225/60
f 46/98/61 119/253/61 120/255/61
f 20/42/62 106/225/62 107/227/62
f 50/106/63 48/102/63 120/255/63
f 22/46/64 107/227/64 108/229/64
f 50/106/65 121/257/65 122/259/65
f 24/50/66 108/229/66 109/232/66
f 161/333/34 129/273/34 130/275/34
f 162/335/34 130/275/34 131/277/34
f 163/337/34 131/277/34 132/279/34
f 164/339/34 132/279/34 133/282/34
f 165/342/34 133/282/34 134/283/34
f 166/344/34 134/283/34 135/285/34
f 167/346/34 135/285/34 136/287/34
f 169/350/34 168/348/34 136/287/34
f 169/350/34 137/289/34 138/291/34
f 170/352/34 138/291/34 139/293/34
f 171/354/34 139/293/34 140/295/34
f 172/356/34 140/295/34 141/298/34
f 174/361/34 173/358/34 141/298/34
f 174/361/34 142/299/34 143/301/34
f 175/363/34 143/301/34 144/303/34
f 177/367/34 176/365/34 144/303/34
f 177/367/34 145/305/34 146/307/34
f 178/369/34 146/307/34 147/310/34
f 180/373/34 179/371/34 147/310/34
f 180/373/34 148/311/34 149/312/34
f 181/375/34 149/312/34 150/313/34
f 182/378/34 150/313/34 151/315/34
f 183/380/34 151/315/34 152/317/34
f 184/382/34 152/317/34 153/319/34
f 185/384/34 153/319/34 154/321/34
f 186/386/34 154/321/34 155/324/34
f 187/388/34 155/324/34 156/325/34
f 188/391/34 156/325/34 157/326/34
f 190/395/34 189/393/34 157/326/34
f 190/395/34 158/327/34 159/329/34
f 191/397/34 159/329/34 160/332/34
f 192/399/34 160/332/34 129/273/34
f 3/6/67 1/2/67 161/334/67
f 5/10/68 3/6/68 162/336/68
f 5/10/69 163/338/69 164/340/69
f 7/15/70 164/341/70 165/343/70
f 9/20/71 165/343/71 166/345/71
f 13/28/72 11/24/72 166/345/72
f 13/28/73 167/347/73 168/349/73
f 15/32/74 168/349/74 169/351/74
f 17/36/75 169/351/75 170/353/75
f 19/40/76 170/353/76 171/355/76
f 23/48/77 21/44/77 171/355/77
f 23/48/78 172/357/78 173/359/78
f 27/58/79 25/53/79 173/360/79
f 27/58/80 174/362/80 175/364/80
f 29/62/81 175/364/81 176/366/81
f 31/66/82 176/366/82 177/368/82
f 33/70/83 177/368/83 178/370/83
f 35/74/84 178/370/84 179/372/84
f 37/78/85 179/372/85 180/374/85
f 39/82/86 180/374/86 181/376/86
f 41/87/87 181/377/87 182/379/87
f 43/92/88 182/379/88 183/381/88
f 47/100/89 45/96/89 183/381/89
f 47/100/90 184/383/90 185/385/90
f 49/104/91 185/385/91 186/387/91
f 51/108/92 186/387/92 187/389/92
f 55/116/93 53/112/93 187/389/93
f 55/117/94 188/392/94 189/394/94
f 57/122/95 189/394/95 190/396/95
f 59/126/96 190/396/96 191/398/96
f 61/130/97 191/398/97 192/400/97
f 63/134/98 192/400/98 161/334/98
f 288/528/99 193/401/99 129/274/99
f 288/528/100 287/527/100 194/402/100
f 286/526/101 195/403/101 194/402/101
f 159/330/102 285/525/102 288/528/102
f 285/525/103 284/524/103 287/527/103
f 283/523/104 286/526/104 287/527/104
f 158/328/105 282/521/105 285/525/105
f 282/521/106 281/520/106 284/524/106
f 280/519/107 283/523/107 284/524/107
f 157/326/108 279/518/108 282/522/108
f 279/517/109 278/514/109 281/520/109
f 277/512/110 280/519/110 281/520/110
f 156/325/111 276/511/111 279/518/111
f 276/510/112 275/509/112 278/515/112
f 274/508/113 277/513/113 278/515/113
f 155/324/114 273/506/114 276/511/114
f 273/507/115 272/505/115 275/509/115
f 271/504/116 274/508/116 275/509/116
f 154/322/117 270/503/117 273/507/117
f 270/503/118 269/502/118 272/505/118
f 268/501/119 271/504/119 272/505/119
f 153/320/120 267/500/120 270/503/120
f 270/503/121 267/500/121 292/536/121
f 292/536/121 266/497/121 269/502/121
f 269/502/122 266/497/122 291/535/122
f 291/535/235 265/494/235 268/501/235
f 153/320/123 152/318/123 264/493/123
f 264/493/35 293/539/35 267/500/35
f 331/614/124 304/560/124 306/563/124
f 151/316/125 261/486/125 264/493/125
f 264/493/126 261/486/126 260/485/126
f 260/485/126 263/490/126 290/532/126
f 263/490/127 260/485/127 259/484/127
f 259/484/236 262/487/236 289/530/236
f 150/314/128 258/483/128 261/486/128
f 258/483/129 257/481/129 260/485/129
f 256/480/130 259/484/130 260/485/130
f 149/312/131 255/478/131 258/482/131
f 254/477/132 257/481/132 258/483/132
f 253/476/133 256/480/133 257/481/133
f 148/311/134 252/474/134 255/478/134
f 251/471/135 254/477/135 255/479/135
f 250/469/136 253/476/136 254/477/136
f 147/310/137 249/467/137 252/474/137
f 248/466/138 251/472/138 252/475/138
f 247/465/139 250/470/139 251/472/139
f 146/308/140 246/464/140 249/468/140
f 245/463/141 248/466/141 249/468/141
f 244/462/142 247/465/142 248/466/142
f 145/306/143 243/461/143 246/464/143
f 242/460/144 245/463/144 246/464/144
f 241/459/145 244/462/145 245/463/145
f 144/304/146 240/458/146 243/461/146
f 239/457/147 242/460/147 243/461/147
f 238/456/148 241/459/148 242/460/148
f 237/455/149 240/458/149 144/304/149
f 236/454/150 239/457/150 240/458/150
f 235/453/151 238/456/151 239/457/151
f 234/452/152 237/455/152 143/302/152
f 233/451/153 236/454/153 237/455/153
f 232/450/154 235/453/154 236/454/154
f 231/449/155 234/452/155 142/300/155
f 230/447/156 233/451/156 234/452/156
f 229/446/157 232/450/157 233/451/157
f 228/444/158 231/448/158 141/298/158
f 227/441/159 230/447/159 231/449/159
f 226/439/160 229/446/160 230/447/160
f 225/438/161 228/445/161 140/296/161
f 224/437/162 227/442/162 228/445/162
f 223/436/163 226/440/163 227/442/163
f 222/435/164 225/438/164 139/294/164
f 221/434/165 224/437/165 225/438/165
f 220/433/166 223/436/166 224/437/166
f 219/432/167 222/435/167 138/292/167
f 218/431/168 221/434/168 222/435/168
f 218/431/169 217/430/169 220/433/169
f 216/429/170 219/432/170 137/290/170
f 215/428/171 218/431/171 219/432/171
f 214/427/172 217/430/172 218/431/172
f 213/426/173 216/429/173 136/288/173
f 212/425/174 215/428/174 216/429/174
f 211/424/175 214/427/175 215/428/175
f 210/423/176 213/426/176 135/286/176
f 209/422/177 212/425/177 213/426/177
f 208/421/178 211/424/178 212/425/178
f 207/419/179 210/423/179 134/284/179
f 206/416/180 209/422/180 210/423/180
f 205/414/181 208/421/181 209/422/181
f 204/412/182 207/420/182 133/282/182
f 204/413/183 203/411/183 206/417/183
f 203/411/184 202/410/184 205/415/184
f 201/409/185 204/413/185 132/280/185
f 201/409/186 200/408/186 203/411/186
f 199/407/187 202/410/187 203/411/187
f 198/406/188 201/409/188 131/278/188
f 197/405/189 200/408/189 201/409/189
f 197/405/190 196/404/190 199/407/190
f 193/401/191 198/406/191 130/276/191
f 193/401/192 194/402/192 197/405/192
f 194/402/193 195/403/193 196/404/193
f 296/544/194 291/535/194 266/497/194
f 263/490/194 289/530/194 296/544/194
f 310/574/195 307/565/195 309/572/195
f 319/594/237 318/592/237 300/553/237
f 316/588/238 302/558/238 299/550/238
f 297/545/198 292/536/198 267/500/198
f 293/539/198 264/493/198 290/532/198
f 297/545/198 267/500/198 293/539/198
f 302/557/199 303/559/199 298/547/199
f 300/554/199 298/547/199 303/559/199
f 330/613/124 305/562/124 304/560/124
f 321/598/200 317/589/200 299/551/200
f 329/611/239 315/583/239 305/561/239
f 318/591/200 321/598/200 298/548/200
f 309/571/202 304/560/202 305/562/202
f 307/566/202 306/563/202 304/560/202
f 315/583/240 314/582/240 308/569/240
f 313/579/241 306/564/241 307/567/241
f 311/575/195 309/572/195 308/570/195
f 312/576/205 315/584/205 329/610/205
f 326/606/242 324/603/242 315/585/242
f 322/599/243 311/575/243 314/581/243
f 323/601/244 313/579/244 310/573/244
f 324/602/245 327/608/245 314/582/245
f 325/604/246 310/574/246 311/575/246
f 323/600/247 326/606/247 312/577/247
f 338/628/212 336/624/212 321/598/212
f 335/621/213 319/593/213 320/596/213
f 336/624/212 334/620/212 317/589/212
f 339/630/213 320/596/213 316/587/213
f 337/627/248 316/588/248 317/590/248
f 335/622/249 338/629/249 318/592/249
f 333/618/250 319/594/250 301/556/250
f 328/609/205 333/617/205 313/580/205
f 263/491/222 294/541/222 326/606/222
f 290/533/251 325/604/251 322/599/251
f 266/498/252 292/537/252 327/608/252
f 263/492/253 323/601/253 325/605/253
f 292/538/218 297/546/218 322/599/218
f 266/499/254 324/603/254 326/606/254
f 319/595/223 333/617/223 328/609/223
f 333/618/216 332/615/216 306/564/216
f 320/597/223 328/609/223 329/610/223
f 329/611/201 330/612/201 302/558/201
f 330/613/226 331/614/226 303/559/226
f 303/559/226 331/614/226 332/616/226
f 262/488/255 338/629/255 335/622/255
f 265/495/256 291/534/256 337/627/256
f 291/535/231 296/544/231 339/631/231
f 265/496/257 334/620/257 336/624/257
f 289/530/258 335/623/258 339/631/258
f 262/489/230 295/543/230 336/624/230
