# Blender 3.3.1
# www.blender.org
o Prosecco
v 0.000000 0.010374 -0.217715
v 0.000000 1.193992 -0.187546
v 0.042474 0.010374 -0.213531
v 0.036588 1.193992 -0.183942
v 0.083316 0.010374 -0.201142
v 0.071771 1.193992 -0.173270
v 0.120956 0.010374 -0.181023
v 0.104195 1.193992 -0.155939
v 0.153948 0.010374 -0.153948
v 0.132615 1.193992 -0.132615
v 0.181023 0.010374 -0.120956
v 0.155939 1.193992 -0.104195
v 0.201142 0.010374 -0.083316
v 0.173270 1.193992 -0.071771
v 0.213531 0.010374 -0.042474
v 0.183942 1.193992 -0.036588
v 0.217715 0.010374 -0.000000
v 0.187546 1.193992 -0.000000
v 0.213531 0.010374 0.042474
v 0.183942 1.193992 0.036588
v 0.201142 0.010374 0.083316
v 0.173270 1.193992 0.071771
v 0.181023 0.010374 0.120956
v 0.155939 1.193992 0.104195
v 0.153948 0.010374 0.153948
v 0.132615 1.193992 0.132615
v 0.120956 0.010374 0.181023
v 0.104195 1.193992 0.155939
v 0.083316 0.010374 0.201142
v 0.071771 1.193992 0.173270
v 0.042474 0.010374 0.213531
v 0.036588 1.193992 0.183942
v 0.000000 0.010374 0.217715
v 0.000000 1.193992 0.187546
v -0.042474 0.010374 0.213531
v -0.036588 1.193992 0.183942
v -0.083316 0.010374 0.201142
v -0.071771 1.193992 0.173270
v -0.120956 0.010374 0.181023
v -0.104195 1.193992 0.155939
v -0.153948 0.010374 0.153948
v -0.132615 1.193992 0.132615
v -0.181023 0.010374 0.120956
v -0.155939 1.193992 0.104195
v -0.201142 0.010374 0.083316
v -0.173270 1.193992 0.071771
v -0.213531 0.010374 0.042474
v -0.183942 1.193992 0.036588
v -0.217715 0.010374 -0.000000
v -0.187546 1.193992 -0.000000
v -0.213531 0.010374 -0.042474
v -0.183942 1.193992 -0.036588
v -0.201142 0.010374 -0.083316
v -0.173270 1.193992 -0.071771
v -0.181023 0.010374 -0.120956
v -0.155939 1.193992 -0.104195
v -0.153948 0.010374 -0.153948
v -0.132615 1.193992 -0.132615
v -0.120956 0.010374 -0.181023
v -0.104195 1.193992 -0.155939
v -0.083316 0.010374 -0.201142
v -0.071771 1.193992 -0.173270
v -0.042474 0.010374 -0.213531
v -0.036588 1.193992 -0.183942
v 0.000000 0.044313 -0.211314
v -0.000000 0.067382 -0.046518
v -0.000000 0.519727 -0.027459
v -0.000000 0.797961 -0.049919
v -0.000000 0.937209 -0.136765
v 0.000000 1.038477 -0.171992
v 0.033554 1.038477 -0.168688
v 0.026681 0.937209 -0.134137
v 0.009739 0.797961 -0.048960
v 0.005357 0.519727 -0.026931
v 0.009075 0.067382 -0.045624
v 0.041225 0.044313 -0.207254
v 0.065819 1.038477 -0.158900
v 0.052338 0.937209 -0.126354
v 0.019103 0.797961 -0.046119
v 0.010508 0.519727 -0.025369
v 0.017802 0.067382 -0.042977
v 0.080866 0.044313 -0.195229
v 0.095554 1.038477 -0.143006
v 0.075982 0.937209 -0.113716
v 0.027733 0.797961 -0.041506
v 0.015255 0.519727 -0.022831
v 0.025844 0.067382 -0.038678
v 0.117400 0.044313 -0.175701
v 0.121617 1.038477 -0.121617
v 0.096707 0.937209 -0.096707
v 0.035298 0.797961 -0.035298
v 0.019416 0.519727 -0.019416
v 0.032893 0.067382 -0.032893
v 0.149422 0.044313 -0.149422
v 0.143006 1.038477 -0.095554
v 0.113716 0.937209 -0.075982
v 0.041506 0.797961 -0.027733
v 0.022831 0.519727 -0.015255
v 0.038678 0.067382 -0.025844
v 0.175701 0.044313 -0.117400
v 0.158900 1.038477 -0.065819
v 0.126354 0.937209 -0.052338
v 0.046119 0.797961 -0.019103
v 0.025369 0.519727 -0.010508
v 0.042977 0.067382 -0.017802
v 0.195229 0.044313 -0.080866
v 0.168688 1.038477 -0.033554
v 0.134137 0.937209 -0.026681
v 0.048960 0.797961 -0.009739
v 0.026931 0.519727 -0.005357
v 0.045624 0.067382 -0.009075
v 0.207254 0.044313 -0.041225
v 0.171992 1.038477 -0.000000
v 0.136765 0.937209 -0.000000
v 0.049919 0.797961 -0.000000
v 0.027459 0.519727 -0.000000
v 0.046518 0.067382 -0.000000
v 0.211314 0.044313 -0.000000
v 0.168688 1.038477 0.033554
v 0.134137 0.937209 0.026681
v 0.048960 0.797961 0.009739
v 0.026931 0.519727 0.005357
v 0.045624 0.067382 0.009075
v 0.207254 0.044313 0.041225
v 0.158900 1.038477 0.065819
v 0.126354 0.937209 0.052338
v 0.046119 0.797961 0.019103
v 0.025369 0.519727 0.010508
v 0.042977 0.067382 0.017802
v 0.195229 0.044313 0.080866
v 0.143006 1.038477 0.095554
v 0.113716 0.937209 0.075982
v 0.041506 0.797961 0.027733
v 0.022831 0.519727 0.015255
v 0.038678 0.067382 0.025844
v 0.175701 0.044313 0.117400
v 0.121617 1.038477 0.121617
v 0.096707 0.937209 0.096707
v 0.035298 0.797961 0.035298
v 0.019416 0.519727 0.019416
v 0.032893 0.067382 0.032893
v 0.149422 0.044313 0.149422
v 0.095554 1.038477 0.143006
v 0.075982 0.937209 0.113716
v 0.027733 0.797961 0.041506
v 0.015255 0.519727 0.022831
v 0.025844 0.067382 0.038678
v 0.117400 0.044313 0.175701
v 0.065819 1.038477 0.158900
v 0.052338 0.937209 0.126354
v 0.019103 0.797961 0.046119
v 0.010508 0.519727 0.025369
v 0.017802 0.067382 0.042977
v 0.080866 0.044313 0.195229
v 0.033554 1.038477 0.168688
v 0.026681 0.937209 0.134137
v 0.009739 0.797961 0.048960
v 0.005357 0.519727 0.026931
v 0.009075 0.067382 0.045624
v 0.041225 0.044313 0.207254
v 0.000000 1.038477 0.171992
v -0.000000 0.937209 0.136765
v -0.000000 0.797961 0.049919
v -0.000000 0.519727 0.027459
v -0.000000 0.067382 0.046518
v 0.000000 0.044313 0.211314
v -0.033554 1.038477 0.168688
v -0.026681 0.937209 0.134137
v -0.009739 0.797961 0.048960
v -0.005357 0.519727 0.026931
v -0.009075 0.067382 0.045624
v -0.041225 0.044313 0.207254
v -0.065819 1.038477 0.158900
v -0.052338 0.937209 0.126354
v -0.019103 0.797961 0.046119
v -0.010508 0.519727 0.025369
v -0.017802 0.067382 0.042977
v -0.080866 0.044313 0.195229
v -0.095554 1.038477 0.143006
v -0.075982 0.937209 0.113716
v -0.027733 0.797961 0.041506
v -0.015255 0.519727 0.022831
v -0.025844 0.067382 0.038678
v -0.117400 0.044313 0.175701
v -0.121617 1.038477 0.121617
v -0.096707 0.937209 0.096707
v -0.035298 0.797961 0.035298
v -0.019416 0.519727 0.019416
v -0.032893 0.067382 0.032893
v -0.149422 0.044313 0.149422
v -0.143006 1.038477 0.095554
v -0.113716 0.937209 0.075982
v -0.041506 0.797961 0.027733
v -0.022831 0.519727 0.015255
v -0.038678 0.067382 0.025844
v -0.175701 0.044313 0.117400
v -0.158900 1.038477 0.065819
v -0.126354 0.937209 0.052338
v -0.046119 0.797961 0.019103
v -0.025369 0.519727 0.010508
v -0.042977 0.067382 0.017802
v -0.195229 0.044313 0.080866
v -0.168688 1.038477 0.033554
v -0.134137 0.937209 0.026681
v -0.048960 0.797961 0.009739
v -0.026931 0.519727 0.005357
v -0.045624 0.067382 0.009075
v -0.207254 0.044313 0.041225
v -0.171992 1.038477 -0.000000
v -0.136765 0.937209 -0.000000
v -0.049919 0.797961 -0.000000
v -0.027459 0.519727 -0.000000
v -0.046518 0.067382 -0.000000
v -0.211314 0.044313 -0.000000
v -0.168688 1.038477 -0.033554
v -0.134137 0.937209 -0.026681
v -0.048960 0.797961 -0.009739
v -0.026931 0.519727 -0.005357
v -0.045624 0.067382 -0.009075
v -0.207254 0.044313 -0.041225
v -0.158900 1.038477 -0.065819
v -0.126354 0.937209 -0.052338
v -0.046119 0.797961 -0.019103
v -0.025369 0.519727 -0.010508
v -0.042977 0.067382 -0.017802
v -0.195229 0.044313 -0.080866
v -0.143006 1.038477 -0.095554
v -0.113716 0.937209 -0.075982
v -0.041506 0.797961 -0.027733
v -0.022831 0.519727 -0.015255
v -0.038678 0.067382 -0.025844
v -0.175701 0.044313 -0.117400
v -0.121617 1.038477 -0.121617
v -0.096707 0.937209 -0.096707
v -0.035298 0.797961 -0.035298
v -0.019416 0.519727 -0.019416
v -0.032893 0.067382 -0.032893
v -0.149422 0.044313 -0.149422
v -0.095554 1.038477 -0.143006
v -0.075982 0.937209 -0.113716
v -0.027733 0.797961 -0.041506
v -0.015255 0.519727 -0.022831
v -0.025844 0.067382 -0.038678
v -0.117400 0.044313 -0.175701
v -0.065819 1.038477 -0.158900
v -0.052338 0.937209 -0.126354
v -0.019103 0.797961 -0.046119
v -0.010508 0.519727 -0.025369
v -0.017802 0.067382 -0.042977
v -0.080866 0.044313 -0.195229
v -0.033554 1.038477 -0.168688
v -0.026681 0.937209 -0.134137
v -0.009739 0.797961 -0.048960
v -0.005357 0.519727 -0.026931
v -0.009075 0.067382 -0.045624
v -0.041225 0.044313 -0.207254
v 0.026770 1.624559 -0.134582
v -0.000000 1.624559 -0.137219
v 0.052511 1.624559 -0.126774
v 0.076235 1.624559 -0.114093
v 0.097028 1.624559 -0.097028
v 0.114093 1.624559 -0.076235
v 0.126774 1.624559 -0.052511
v 0.134582 1.624559 -0.026770
v 0.137219 1.624559 -0.000000
v 0.134582 1.624559 0.026770
v 0.126774 1.624559 0.052511
v 0.114093 1.624559 0.076235
v 0.097028 1.624559 0.097028
v 0.076235 1.624559 0.114093
v 0.052511 1.624559 0.126774
v 0.026770 1.624559 0.134582
v -0.000000 1.624559 0.137219
v -0.026770 1.624559 0.134582
v -0.052511 1.624559 0.126774
v -0.076235 1.624559 0.114093
v -0.097028 1.624559 0.097028
v -0.114093 1.624559 0.076235
v -0.126774 1.624559 0.052511
v -0.134582 1.624559 0.026770
v -0.137219 1.624559 -0.000000
v -0.134582 1.624559 -0.026770
v -0.126774 1.624559 -0.052511
v -0.114093 1.624559 -0.076235
v -0.097028 1.624559 -0.097028
v -0.076235 1.624559 -0.114093
v -0.052511 1.624559 -0.126774
v -0.026770 1.624559 -0.134582
v 0.031208 1.624559 -0.156892
v -0.000000 1.624559 -0.159966
v 0.061216 1.624559 -0.147789
v 0.088872 1.624559 -0.133007
v 0.113113 1.624559 -0.113113
v 0.133007 1.624559 -0.088872
v 0.147789 1.624559 -0.061216
v 0.156892 1.624559 -0.031208
v 0.159966 1.624559 -0.000000
v 0.156892 1.624559 0.031208
v 0.147789 1.624559 0.061216
v 0.133007 1.624559 0.088872
v 0.113113 1.624559 0.113113
v 0.088872 1.624559 0.133007
v 0.061216 1.624559 0.147789
v 0.031208 1.624559 0.156892
v -0.000000 1.624559 0.159966
v -0.031208 1.624559 0.156892
v -0.061216 1.624559 0.147789
v -0.088872 1.624559 0.133007
v -0.113113 1.624559 0.113113
v -0.133007 1.624559 0.088872
v -0.147789 1.624559 0.061216
v -0.156892 1.624559 0.031208
v -0.159966 1.624559 -0.000000
v -0.156892 1.624559 -0.031208
v -0.147789 1.624559 -0.061216
v -0.133007 1.624559 -0.088872
v -0.113113 1.624559 -0.113113
v -0.088872 1.624559 -0.133007
v -0.061216 1.624559 -0.147789
v -0.031208 1.624559 -0.156892
v 0.026770 1.002332 -0.134582
v -0.000000 1.002332 -0.137219
v 0.052511 1.002332 -0.126774
v 0.076235 1.002332 -0.114093
v 0.097028 1.002332 -0.097028
v 0.114093 1.002332 -0.076235
v 0.126774 1.002332 -0.052511
v 0.134582 1.002332 -0.026770
v 0.137219 1.002332 -0.000000
v 0.134582 1.002332 0.026770
v 0.126774 1.002332 0.052511
v 0.114093 1.002332 0.076235
v 0.097028 1.002332 0.097028
v 0.076235 1.002332 0.114093
v 0.052511 1.002332 0.126774
v 0.026770 1.002332 0.134582
v -0.000000 1.002332 0.137219
v -0.026770 1.002332 0.134582
v -0.052511 1.002332 0.126774
v -0.076235 1.002332 0.114093
v -0.097028 1.002332 0.097028
v -0.114093 1.002332 0.076235
v -0.126774 1.002332 0.052511
v -0.134582 1.002332 0.026770
v -0.137219 1.002332 -0.000000
v -0.134582 1.002332 -0.026770
v -0.126774 1.002332 -0.052511
v -0.114093 1.002332 -0.076235
v -0.097028 1.002332 -0.097028
v -0.076235 1.002332 -0.114093
v -0.052511 1.002332 -0.126774
v -0.026770 1.002332 -0.134582
vn 0.0975 -0.0990 -0.9903
vn 0.2889 -0.0990 -0.9522
vn 0.4691 -0.0990 -0.8776
vn 0.6313 -0.0990 -0.7692
vn 0.7692 -0.0990 -0.6313
vn 0.8776 -0.0990 -0.4691
vn 0.9522 -0.0990 -0.2889
vn 0.9903 -0.0990 -0.0975
vn 0.9903 -0.0990 0.0975
vn 0.9522 -0.0990 0.2889
vn 0.8776 -0.0990 0.4691
vn 0.7692 -0.0990 0.6313
vn 0.6313 -0.0990 0.7692
vn 0.4691 -0.0990 0.8776
vn 0.2889 -0.0990 0.9522
vn 0.0975 -0.0990 0.9903
vn -0.0975 -0.0990 0.9903
vn -0.2889 -0.0990 0.9522
vn -0.4691 -0.0990 0.8776
vn -0.6313 -0.0990 0.7692
vn -0.7692 -0.0990 0.6313
vn -0.8776 -0.0990 0.4691
vn -0.9522 -0.0990 0.2889
vn -0.9903 -0.0990 0.0975
vn -0.9903 -0.0990 -0.0975
vn -0.9522 -0.0990 -0.2889
vn -0.8776 -0.0990 -0.4691
vn -0.7692 -0.0990 -0.6313
vn -0.6313 -0.0990 -0.7692
vn -0.4691 -0.0990 -0.8776
vn -0.7714 0.0636 -0.6331
vn -0.2889 -0.0990 -0.9522
vn -0.0975 -0.0990 -0.9903
vn -0.0000 -1.0000 -0.0000
vn -0.0963 0.1845 -0.9781
vn -0.0137 0.9903 -0.1386
vn -0.0979 0.0419 -0.9943
vn -0.0977 -0.0801 -0.9920
vn -0.0833 -0.5274 -0.8456
vn -0.0926 -0.3271 -0.9404
vn -0.2853 0.1845 -0.9405
vn -0.0404 0.9903 -0.1333
vn -0.2900 0.0419 -0.9561
vn -0.2894 -0.0801 -0.9539
vn -0.2466 -0.5274 -0.8131
vn -0.2743 -0.3271 -0.9043
vn -0.4633 0.1845 -0.8668
vn -0.0657 0.9903 -0.1228
vn -0.4710 0.0419 -0.8811
vn -0.4699 -0.0801 -0.8791
vn -0.4005 -0.5274 -0.7493
vn -0.4455 -0.3271 -0.8334
vn -0.6235 0.1845 -0.7597
vn -0.0884 0.9903 -0.1077
vn -0.6338 0.0419 -0.7723
vn -0.6324 -0.0801 -0.7705
vn -0.5390 -0.5274 -0.6568
vn -0.5995 -0.3271 -0.7305
vn -0.7597 0.1845 -0.6235
vn -0.1077 0.9903 -0.0884
vn -0.7723 0.0419 -0.6338
vn -0.7705 -0.0801 -0.6324
vn -0.6568 -0.5274 -0.5390
vn -0.7305 -0.3271 -0.5995
vn -0.8668 0.1845 -0.4633
vn -0.1228 0.9903 -0.0657
vn -0.8811 0.0419 -0.4710
vn -0.8791 -0.0801 -0.4699
vn -0.7493 -0.5274 -0.4005
vn -0.8334 -0.3271 -0.4455
vn -0.9405 0.1845 -0.2853
vn -0.1333 0.9903 -0.0404
vn -0.9561 0.0419 -0.2900
vn -0.9539 -0.0801 -0.2894
vn -0.8131 -0.5274 -0.2466
vn -0.9043 -0.3271 -0.2743
vn -0.9781 0.1845 -0.0963
vn -0.1386 0.9903 -0.0137
vn -0.9943 0.0419 -0.0979
vn -0.9920 -0.0801 -0.0977
vn -0.8456 -0.5274 -0.0833
vn -0.9404 -0.3271 -0.0926
vn -0.9781 0.1845 0.0963
vn -0.1386 0.9903 0.0137
vn -0.9943 0.0419 0.0979
vn -0.9920 -0.0801 0.0977
vn -0.8456 -0.5274 0.0833
vn -0.9404 -0.3271 0.0926
vn -0.9405 0.1845 0.2853
vn -0.1333 0.9903 0.0404
vn -0.9561 0.0419 0.2900
vn -0.9539 -0.0801 0.2894
vn -0.8131 -0.5274 0.2466
vn -0.9043 -0.3271 0.2743
vn -0.8668 0.1845 0.4633
vn -0.1228 0.9903 0.0657
vn -0.8811 0.0419 0.4710
vn -0.8791 -0.0801 0.4699
vn -0.7493 -0.5274 0.4005
vn -0.8334 -0.3271 0.4455
vn -0.7597 0.1845 0.6235
vn -0.1077 0.9903 0.0884
vn -0.7723 0.0419 0.6338
vn -0.7705 -0.0801 0.6324
vn -0.6568 -0.5274 0.5390
vn -0.7305 -0.3271 0.5995
vn -0.6235 0.1845 0.7597
vn -0.0884 0.9903 0.1077
vn -0.6338 0.0419 0.7723
vn -0.6324 -0.0801 0.7705
vn -0.5390 -0.5274 0.6568
vn -0.5995 -0.3271 0.7305
vn -0.4633 0.1845 0.8668
vn -0.0657 0.9903 0.1228
vn -0.4710 0.0419 0.8811
vn -0.4699 -0.0801 0.8791
vn -0.4005 -0.5274 0.7493
vn -0.4455 -0.3271 0.8334
vn -0.2853 0.1845 0.9405
vn -0.0404 0.9903 0.1333
vn -0.2900 0.0419 0.9561
vn -0.2894 -0.0801 0.9539
vn -0.2466 -0.5274 0.8131
vn -0.2743 -0.3271 0.9043
vn -0.0963 0.1845 0.9781
vn -0.0137 0.9903 0.1386
vn -0.0979 0.0419 0.9943
vn -0.0977 -0.0801 0.9920
vn -0.0833 -0.5274 0.8456
vn -0.0926 -0.3271 0.9404
vn 0.0963 0.1845 0.9781
vn 0.0137 0.9903 0.1386
vn 0.0979 0.0419 0.9943
vn 0.0977 -0.0801 0.9920
vn 0.0833 -0.5274 0.8456
vn 0.0926 -0.3271 0.9404
vn 0.2853 0.1845 0.9405
vn 0.0404 0.9903 0.1333
vn 0.2900 0.0419 0.9561
vn 0.2894 -0.0801 0.9539
vn 0.2466 -0.5274 0.8131
vn 0.2743 -0.3271 0.9043
vn 0.4633 0.1845 0.8668
vn 0.0657 0.9903 0.1228
vn 0.4710 0.0419 0.8811
vn 0.4699 -0.0801 0.8791
vn 0.4005 -0.5274 0.7493
vn 0.4455 -0.3271 0.8334
vn 0.6235 0.1845 0.7597
vn 0.0884 0.9903 0.1077
vn 0.6338 0.0419 0.7723
vn 0.6324 -0.0801 0.7705
vn 0.5390 -0.5274 0.6568
vn 0.5995 -0.3271 0.7305
vn 0.7597 0.1845 0.6235
vn 0.1077 0.9903 0.0884
vn 0.7723 0.0419 0.6338
vn 0.7705 -0.0801 0.6324
vn 0.6568 -0.5274 0.5390
vn 0.7305 -0.3271 0.5995
vn 0.8668 0.1845 0.4633
vn 0.1228 0.9903 0.0657
vn 0.8811 0.0419 0.4710
vn 0.8791 -0.0801 0.4699
vn 0.7493 -0.5274 0.4005
vn 0.8334 -0.3271 0.4455
vn 0.9405 0.1845 0.2853
vn 0.1333 0.9903 0.0404
vn 0.9561 0.0419 0.2900
vn 0.9539 -0.0801 0.2894
vn 0.8131 -0.5274 0.2466
vn 0.9043 -0.3271 0.2743
vn 0.9781 0.1845 0.0963
vn 0.1386 0.9903 0.0137
vn 0.9943 0.0419 0.0979
vn 0.9920 -0.0801 0.0977
vn 0.8456 -0.5274 0.0833
vn 0.9404 -0.3271 0.0926
vn 0.9781 0.1845 -0.0963
vn 0.1386 0.9903 -0.0137
vn 0.9943 0.0419 -0.0979
vn 0.9920 -0.0801 -0.0977
vn 0.8456 -0.5274 -0.0833
vn 0.9404 -0.3271 -0.0926
vn 0.9405 0.1845 -0.2853
vn 0.1333 0.9903 -0.0404
vn 0.9561 0.0419 -0.2900
vn 0.9539 -0.0801 -0.2894
vn 0.8131 -0.5274 -0.2466
vn 0.9043 -0.3271 -0.2743
vn 0.8668 0.1845 -0.4633
vn 0.1228 0.9903 -0.0657
vn 0.8811 0.0419 -0.4710
vn 0.8791 -0.0801 -0.4699
vn 0.7493 -0.5274 -0.4005
vn 0.8334 -0.3271 -0.4455
vn 0.7597 0.1845 -0.6235
vn 0.1077 0.9903 -0.0884
vn 0.7723 0.0419 -0.6338
vn 0.7705 -0.0801 -0.6324
vn 0.6568 -0.5274 -0.5390
vn 0.7305 -0.3271 -0.5995
vn 0.6235 0.1845 -0.7597
vn 0.0884 0.9903 -0.1077
vn 0.6338 0.0419 -0.7723
vn 0.6324 -0.0801 -0.7705
vn 0.5390 -0.5274 -0.6568
vn 0.5995 -0.3271 -0.7305
vn 0.4633 0.1845 -0.8668
vn 0.0657 0.9903 -0.1228
vn 0.4710 0.0419 -0.8811
vn 0.4699 -0.0801 -0.8791
vn 0.4005 -0.5274 -0.7493
vn 0.4455 -0.3271 -0.8334
vn 0.2853 0.1845 -0.9405
vn 0.0404 0.9903 -0.1333
vn 0.2900 0.0419 -0.9561
vn 0.2894 -0.0801 -0.9539
vn 0.2466 -0.5274 -0.8131
vn 0.2743 -0.3271 -0.9043
vn 0.0963 0.1845 -0.9781
vn 0.0137 0.9903 -0.1386
vn 0.0979 0.0419 -0.9943
vn 0.0977 -0.0801 -0.9920
vn 0.0833 -0.5274 -0.8456
vn 0.0926 -0.3271 -0.9404
vn -0.2903 -0.0000 -0.9569
vn 0.8801 0.0636 -0.4704
vn 0.2897 0.0636 0.9550
vn -0.9932 0.0636 0.0978
vn 0.2897 0.0636 -0.9550
vn 0.8801 0.0636 0.4704
vn -0.6331 0.0636 0.7714
vn -0.6331 0.0636 -0.7714
vn 0.9550 0.0636 -0.2897
vn 0.0978 0.0636 0.9932
vn -0.9932 0.0636 -0.0978
vn 0.4704 0.0636 -0.8801
vn 0.7714 0.0636 0.6331
vn -0.7714 0.0636 0.6331
vn -0.4704 0.0636 -0.8801
vn 0.9932 0.0636 -0.0978
vn -0.0978 0.0636 0.9932
vn -0.9550 0.0636 -0.2897
vn 0.6331 0.0636 -0.7714
vn 0.6331 0.0636 0.7714
vn -0.8801 0.0636 0.4704
vn -0.2897 0.0636 -0.9550
vn 0.9932 0.0636 0.0978
vn -0.2897 0.0636 0.9550
vn -0.8801 0.0636 -0.4704
vn 0.7714 0.0636 -0.6331
vn 0.4704 0.0636 0.8801
vn -0.9550 0.0636 0.2897
vn 0.0978 0.0636 -0.9932
vn -0.0978 0.0636 -0.9932
vn 0.9550 0.0636 0.2897
vn -0.4704 0.0636 0.8801
vn -0.0000 1.0000 -0.0000
vn -0.2903 -0.0000 0.9569
vn 0.6344 -0.0000 0.7730
vn -0.0980 -0.0000 -0.9952
vn -0.4714 -0.0000 0.8819
vn 0.4714 -0.0000 0.8819
vn 0.0980 -0.0000 -0.9952
vn -0.6344 -0.0000 0.7730
vn 0.2903 -0.0000 0.9569
vn 0.2903 -0.0000 -0.9569
vn -0.7730 -0.0000 0.6344
vn 0.0980 -0.0000 0.9952
vn 0.4714 -0.0000 -0.8819
vn -0.8819 -0.0000 0.4714
vn 0.6344 -0.0000 -0.7730
vn -0.9569 -0.0000 0.2903
vn 0.7730 -0.0000 -0.6344
vn -0.9952 -0.0000 0.0980
vn 0.8819 -0.0000 -0.4714
vn -0.9952 -0.0000 -0.0980
vn 0.9569 -0.0000 -0.2903
vn -0.9569 -0.0000 -0.2903
vn 0.9952 -0.0000 -0.0980
vn -0.8819 -0.0000 -0.4714
vn 0.9952 -0.0000 0.0980
vn -0.7730 -0.0000 -0.6344
vn 0.9569 -0.0000 0.2903
vn -0.6344 -0.0000 -0.7730
vn 0.8819 -0.0000 0.4714
vn -0.4714 -0.0000 -0.8819
vn -0.0980 -0.0000 0.9952
vn 0.7730 -0.0000 0.6344
vt 0.878653 0.086179
vt 0.947532 0.912389
vt 0.560224 0.232644
vt 0.882992 0.107994
vt 0.947429 0.890147
vt 0.579288 0.234571
vt 0.882992 0.130237
vt 0.947532 0.868330
vt 0.597967 0.236636
vt 0.878653 0.152053
vt 0.947838 0.847779
vt 0.615545 0.238760
vt 0.948334 0.829282
vt 0.870141 0.172602
vt 0.631345 0.240860
vt 0.006197 0.227662
vt 0.886046 0.973243
vt 0.857783 0.191097
vt 0.949002 0.813551
vt 0.644761 0.242858
vt 0.019742 0.228390
vt 0.842055 0.206825
vt 0.885378 0.954751
vt 0.035643 0.229493
vt 0.823561 0.219182
vt 0.884882 0.934204
vt 0.053290 0.230929
vt 0.803011 0.227694
vt 0.884576 0.912389
vt 0.072005 0.232644
vt 0.781196 0.232034
vt 0.884473 0.890147
vt 0.091069 0.234571
vt 0.758953 0.232034
vt 0.884576 0.868330
vt 0.109748 0.236636
vt 0.737137 0.227694
vt 0.884882 0.847779
vt 0.127326 0.238760
vt 0.885378 0.829282
vt 0.716587 0.219182
vt 0.143126 0.240860
vt 0.168937 0.227662
vt 0.917524 0.973243
vt 0.698093 0.206825
vt 0.886046 0.813551
vt 0.156542 0.242858
vt 0.182481 0.228390
vt 0.682365 0.191097
vt 0.916856 0.954751
vt 0.198383 0.229493
vt 0.670008 0.172602
vt 0.916360 0.934204
vt 0.216030 0.230929
vt 0.661496 0.152053
vt 0.916054 0.912389
vt 0.234745 0.232644
vt 0.657156 0.130237
vt 0.915951 0.890147
vt 0.253808 0.234571
vt 0.657156 0.107994
vt 0.916054 0.868330
vt 0.272488 0.236636
vt 0.661496 0.086179
vt 0.916360 0.847779
vt 0.290066 0.238760
vt 0.916856 0.829282
vt 0.670008 0.065629
vt 0.305866 0.240860
vt 0.331677 0.227662
vt 0.854568 0.973243
vt 0.682365 0.047135
vt 0.917524 0.813551
vt 0.319282 0.242858
vt 0.345221 0.228389
vt 0.698093 0.031406
vt 0.853900 0.954751
vt 0.361122 0.229493
vt 0.716587 0.019049
vt 0.853403 0.934204
vt 0.378769 0.230929
vt 0.737137 0.010537
vt 0.853098 0.912389
vt 0.397484 0.232644
vt 0.758953 0.006198
vt 0.852995 0.890147
vt 0.416548 0.234571
vt 0.781196 0.006198
vt 0.853098 0.868330
vt 0.435228 0.236636
vt 0.803011 0.010537
vt 0.853403 0.847779
vt 0.452805 0.238760
vt 0.853900 0.829282
vt 0.823561 0.019049
vt 0.468606 0.240860
vt 0.494416 0.227662
vt 0.949002 0.973243
vt 0.842055 0.031406
vt 0.854568 0.813551
vt 0.482021 0.242858
vt 0.507961 0.228389
vt 0.857783 0.047134
vt 0.948334 0.954751
vt 0.523862 0.229493
vt 0.870141 0.065629
vt 0.947838 0.934204
vt 0.541509 0.230929
vt 0.930019 0.912143
vt 0.681624 0.423892
vt 0.508066 0.820317
vt 0.748014 0.369407
vt 0.532668 0.586589
vt 0.546148 0.441818
vt 0.549237 0.367138
vt 0.552835 0.313650
vt 0.570317 0.315417
vt 0.563139 0.368544
vt 0.551222 0.442331
vt 0.535459 0.586871
vt 0.751375 0.372767
vt 0.512794 0.820795
vt 0.696890 0.439158
vt 0.929919 0.890555
vt 0.587448 0.317311
vt 0.576761 0.370049
vt 0.556194 0.442881
vt 0.538194 0.587173
vt 0.517427 0.821307
vt 0.755326 0.375408
vt 0.714840 0.451152
vt 0.930019 0.869380
vt 0.603568 0.319259
vt 0.589579 0.371598
vt 0.560872 0.443446
vt 0.540768 0.587484
vt 0.759717 0.377226
vt 0.521787 0.821834
vt 0.930316 0.849433
vt 0.734786 0.459413
vt 0.618058 0.321186
vt 0.601101 0.373130
vt 0.040413 0.440492
vt 0.565078 0.444005
vt 0.034814 0.585860
vt 0.543081 0.587792
vt 0.764378 0.378154
vt 0.525706 0.822355
vt 0.930797 0.831480
vt 0.755960 0.463625
vt 0.016687 0.309749
vt 0.630361 0.323017
vt 0.022906 0.364036
vt 0.610884 0.374587
vt 0.044018 0.440686
vt 0.568649 0.444537
vt 0.545045 0.588084
vt 0.036797 0.585966
vt 0.006883 0.819262
vt 0.769131 0.378154
vt 0.529034 0.822850
vt 0.777549 0.463625
vt 0.868489 0.971208
vt 0.931446 0.816211
vt 0.031269 0.310760
vt 0.034502 0.364841
vt 0.048250 0.440979
vt 0.039125 0.586128
vt 0.773792 0.377226
vt 0.010827 0.819535
vt 0.867841 0.953260
vt 0.798723 0.459413
vt 0.047453 0.312078
vt 0.047371 0.365888
vt 0.052948 0.441361
vt 0.041709 0.586338
vt 0.778183 0.375408
vt 0.015205 0.819892
vt 0.818669 0.451152
vt 0.867359 0.933317
vt 0.064616 0.313650
vt 0.061018 0.367138
vt 0.057929 0.441818
vt 0.044449 0.586589
vt 0.019847 0.820317
vt 0.782134 0.372767
vt 0.867063 0.912143
vt 0.836619 0.439158
vt 0.082099 0.315417
vt 0.074920 0.368544
vt 0.063003 0.442331
vt 0.047240 0.586871
vt 0.785495 0.369407
vt 0.024575 0.820795
vt 0.851885 0.423892
vt 0.866963 0.890555
vt 0.099229 0.317311
vt 0.088542 0.370049
vt 0.067975 0.442881
vt 0.049975 0.587173
vt 0.788135 0.365455
vt 0.029208 0.821307
vt 0.867063 0.869380
vt 0.863879 0.405941
vt 0.115349 0.319259
vt 0.101360 0.371598
vt 0.072654 0.443446
vt 0.052549 0.587484
vt 0.789954 0.361064
vt 0.033568 0.821834
vt 0.867359 0.849433
vt 0.872141 0.385996
vt 0.129839 0.321186
vt 0.112882 0.373130
vt 0.076859 0.444005
vt 0.054862 0.587792
vt 0.790881 0.356403
vt 0.037487 0.822355
vt 0.867841 0.831480
vt 0.876353 0.364821
vt 0.179427 0.309749
vt 0.142142 0.323017
vt 0.185646 0.364036
vt 0.122666 0.374587
vt 0.206758 0.440686
vt 0.080430 0.444537
vt 0.199537 0.585966
vt 0.056827 0.588084
vt 0.169623 0.819262
vt 0.790881 0.351651
vt 0.040815 0.822850
vt 0.899968 0.971208
vt 0.876353 0.343232
vt 0.868489 0.816211
vt 0.194009 0.310760
vt 0.197241 0.364841
vt 0.210990 0.440979
vt 0.201865 0.586128
vt 0.789954 0.346989
vt 0.173567 0.819535
vt 0.872141 0.322058
vt 0.899319 0.953260
vt 0.210193 0.312078
vt 0.210110 0.365888
vt 0.215687 0.441361
vt 0.204449 0.586338
vt 0.177944 0.819892
vt 0.788135 0.342599
vt 0.863879 0.302113
vt 0.898838 0.933317
vt 0.227356 0.313650
vt 0.223758 0.367138
vt 0.220669 0.441818
vt 0.207189 0.586589
vt 0.182586 0.820317
vt 0.785495 0.338647
vt 0.898541 0.912143
vt 0.851885 0.284162
vt 0.244838 0.315417
vt 0.237660 0.368544
vt 0.225743 0.442331
vt 0.209980 0.586871
vt 0.187315 0.820795
vt 0.782134 0.335287
vt 0.836619 0.268896
vt 0.898441 0.890555
vt 0.261969 0.317311
vt 0.251281 0.370049
vt 0.230715 0.442881
vt 0.212715 0.587173
vt 0.778183 0.332646
vt 0.191948 0.821307
vt 0.818669 0.256902
vt 0.898541 0.869380
vt 0.278089 0.319259
vt 0.264100 0.371598
vt 0.235393 0.443446
vt 0.215289 0.587484
vt 0.773792 0.330827
vt 0.196308 0.821834
vt 0.898838 0.849433
vt 0.798723 0.248640
vt 0.292579 0.321186
vt 0.275622 0.373130
vt 0.239599 0.444005
vt 0.217602 0.587792
vt 0.769131 0.329900
vt 0.200227 0.822355
vt 0.899319 0.831480
vt 0.777549 0.244429
vt 0.342166 0.309749
vt 0.304882 0.323017
vt 0.348385 0.364036
vt 0.285405 0.374587
vt 0.369497 0.440686
vt 0.243170 0.444537
vt 0.362277 0.585966
vt 0.219566 0.588084
vt 0.332363 0.819262
vt 0.203554 0.822850
vt 0.764378 0.329900
vt 0.837011 0.971208
vt 0.899968 0.816211
vt 0.755960 0.244429
vt 0.356749 0.310760
vt 0.359981 0.364841
vt 0.373730 0.440979
vt 0.364605 0.586128
vt 0.759717 0.330827
vt 0.336307 0.819535
vt 0.734786 0.248640
vt 0.836363 0.953260
vt 0.372932 0.312078
vt 0.372850 0.365888
vt 0.378427 0.441362
vt 0.367188 0.586338
vt 0.755326 0.332646
vt 0.340684 0.819892
vt 0.835881 0.933317
vt 0.714840 0.256902
vt 0.390095 0.313650
vt 0.386498 0.367138
vt 0.383408 0.441818
vt 0.369929 0.586589
vt 0.751375 0.335287
vt 0.345326 0.820317
vt 0.835585 0.912144
vt 0.696890 0.268896
vt 0.407578 0.315417
vt 0.400399 0.368544
vt 0.388482 0.442331
vt 0.372720 0.586871
vt 0.748014 0.338647
vt 0.350054 0.820795
vt 0.681624 0.284162
vt 0.835484 0.890555
vt 0.424708 0.317311
vt 0.414021 0.370049
vt 0.393454 0.442881
vt 0.375455 0.587173
vt 0.745374 0.342599
vt 0.354687 0.821307
vt 0.835585 0.869380
vt 0.669630 0.302113
vt 0.440828 0.319259
vt 0.426839 0.371598
vt 0.398133 0.443446
vt 0.378028 0.587484
vt 0.359047 0.821834
vt 0.743555 0.346989
vt 0.835881 0.849433
vt 0.661368 0.322058
vt 0.455318 0.321186
vt 0.501248 0.363505
vt 0.438362 0.373130
vt 0.528632 0.440492
vt 0.402338 0.444005
vt 0.380342 0.587792
vt 0.742628 0.351651
vt 0.362966 0.822355
vt 0.836363 0.831480
vt 0.657156 0.343232
vt 0.504906 0.309749
vt 0.467621 0.323017
vt 0.511125 0.364036
vt 0.448145 0.374587
vt 0.405909 0.444537
vt 0.532237 0.440686
vt 0.525016 0.585966
vt 0.382306 0.588085
vt 0.495102 0.819262
vt 0.366294 0.822851
vt 0.742628 0.356403
vt 0.657156 0.364821
vt 0.931446 0.971208
vt 0.837011 0.816211
vt 0.519488 0.310760
vt 0.522721 0.364841
vt 0.536469 0.440979
vt 0.527344 0.586128
vt 0.743555 0.361064
vt 0.499046 0.819535
vt 0.930797 0.953260
vt 0.661368 0.385996
vt 0.535672 0.312078
vt 0.535590 0.365888
vt 0.541167 0.441361
vt 0.529928 0.586338
vt 0.745374 0.365455
vt 0.503424 0.819892
vt 0.930316 0.933317
vt 0.669630 0.405941
vt 0.719364 0.964951
vt 0.818470 0.477236
vt 0.706412 0.959586
vt 0.832489 0.477236
vt 0.733113 0.967686
vt 0.804720 0.477107
vt 0.747132 0.967686
vt 0.791768 0.476854
vt 0.780112 0.476487
vt 0.760882 0.964951
vt 0.657156 0.801156
vt 0.773834 0.959586
vt 0.667069 0.800689
vt 0.785490 0.951798
vt 0.678725 0.800322
vt 0.795403 0.941885
vt 0.691677 0.800069
vt 0.803192 0.930228
vt 0.705427 0.799941
vt 0.808557 0.917276
vt 0.719446 0.799941
vt 0.811292 0.903527
vt 0.733196 0.800069
vt 0.811292 0.889508
vt 0.746148 0.800322
vt 0.808557 0.875758
vt 0.757804 0.800689
vt 0.767717 0.801156
vt 0.803192 0.862806
vt 0.895387 0.330866
vt 0.907044 0.330499
vt 0.795403 0.851150
vt 0.785490 0.841237
vt 0.919995 0.330246
vt 0.773834 0.833448
vt 0.933745 0.330117
vt 0.760882 0.828084
vt 0.947764 0.330117
vt 0.747132 0.825348
vt 0.961514 0.330246
vt 0.733113 0.825348
vt 0.974466 0.330499
vt 0.986122 0.330866
vt 0.719364 0.828083
vt 0.993803 0.476020
vt 0.706412 0.833448
vt 0.983890 0.476487
vt 0.694755 0.841237
vt 0.972233 0.476854
vt 0.684842 0.851150
vt 0.959281 0.477107
vt 0.677054 0.862806
vt 0.945532 0.477236
vt 0.671689 0.875758
vt 0.931513 0.477236
vt 0.668954 0.889508
vt 0.917763 0.477107
vt 0.668954 0.903527
vt 0.904811 0.476854
vt 0.893155 0.476487
vt 0.671689 0.917276
vt 0.880760 0.476020
vt 0.677054 0.930228
vt 0.870847 0.476487
vt 0.684842 0.941885
vt 0.859190 0.476854
vt 0.694755 0.951798
vt 0.846238 0.477107
vt 0.600359 0.012090
vt 0.715922 0.976296
vt 0.584099 0.010447
vt 0.700823 0.970041
vt 0.616292 0.013852
vt 0.731951 0.979484
vt 0.631284 0.015663
vt 0.748294 0.979484
vt 0.644761 0.017455
vt 0.039750 0.006197
vt 0.764323 0.976296
vt 0.051302 0.006818
vt 0.779422 0.970041
vt 0.064865 0.007759
vt 0.793011 0.960962
vt 0.079917 0.008985
vt 0.804567 0.949405
vt 0.095880 0.010447
vt 0.813647 0.935817
vt 0.112140 0.012090
vt 0.819901 0.920718
vt 0.128073 0.013852
vt 0.823089 0.904689
vt 0.143065 0.015663
vt 0.823089 0.888346
vt 0.156542 0.017455
vt 0.202489 0.006197
vt 0.819901 0.872317
vt 0.214042 0.006818
vt 0.813647 0.857218
vt 0.227605 0.007759
vt 0.804567 0.843629
vt 0.242657 0.008985
vt 0.793011 0.832073
vt 0.258619 0.010447
vt 0.779422 0.822993
vt 0.274880 0.012090
vt 0.764323 0.816739
vt 0.290812 0.013852
vt 0.748294 0.813551
vt 0.305805 0.015663
vt 0.731951 0.813551
vt 0.319282 0.017455
vt 0.365229 0.006197
vt 0.715922 0.816739
vt 0.376781 0.006818
vt 0.700823 0.822993
vt 0.390344 0.007759
vt 0.687235 0.832073
vt 0.405396 0.008985
vt 0.675678 0.843629
vt 0.421359 0.010447
vt 0.666599 0.857218
vt 0.437619 0.012090
vt 0.660344 0.872317
vt 0.453552 0.013852
vt 0.657156 0.888346
vt 0.468545 0.015663
vt 0.657156 0.904689
vt 0.482021 0.017455
vt 0.527969 0.006197
vt 0.660344 0.920718
vt 0.539521 0.006818
vt 0.666599 0.935817
vt 0.553084 0.007759
vt 0.675678 0.949405
vt 0.568136 0.008985
vt 0.687235 0.960962
vt 0.056607 0.974848
vt 0.818470 0.801156
vt 0.043655 0.969483
vt 0.832489 0.801156
vt 0.070357 0.977583
vt 0.804720 0.801027
vt 0.084376 0.977583
vt 0.791768 0.800774
vt 0.098125 0.974848
vt 0.780112 0.800407
vt 0.657156 0.477236
vt 0.111077 0.969483
vt 0.667069 0.476769
vt 0.122734 0.961695
vt 0.678725 0.476402
vt 0.132647 0.951782
vt 0.691677 0.476149
vt 0.140435 0.940125
vt 0.705427 0.476020
vt 0.145800 0.927173
vt 0.719446 0.476020
vt 0.148535 0.913424
vt 0.733196 0.476149
vt 0.148535 0.899405
vt 0.746148 0.476402
vt 0.145800 0.885655
vt 0.757804 0.476769
vt 0.140435 0.872703
vt 0.767717 0.477236
vt 0.895387 0.006946
vt 0.132647 0.861047
vt 0.907044 0.006579
vt 0.122734 0.851134
vt 0.919995 0.006326
vt 0.111077 0.843345
vt 0.933745 0.006197
vt 0.098125 0.837981
vt 0.947764 0.006197
vt 0.084376 0.835245
vt 0.961514 0.006326
vt 0.070357 0.835245
vt 0.974466 0.006579
vt 0.056607 0.837980
vt 0.986122 0.006946
vt 0.993803 0.799941
vt 0.043655 0.843345
vt 0.983890 0.800407
vt 0.031999 0.851134
vt 0.972233 0.800774
vt 0.022086 0.861047
vt 0.959281 0.801027
vt 0.014297 0.872703
vt 0.945532 0.801156
vt 0.008932 0.885655
vt 0.931513 0.801156
vt 0.006197 0.899405
vt 0.917763 0.801027
vt 0.006197 0.913424
vt 0.904811 0.800774
vt 0.008932 0.927173
vt 0.880760 0.799941
vt 0.893155 0.800407
vt 0.014297 0.940125
vt 0.870847 0.800407
vt 0.022086 0.951782
vt 0.859190 0.800774
vt 0.031999 0.961695
vt 0.846238 0.801027
s 0
f 2/3/1 71/117/1 70/116/1
f 4/6/2 77/125/2 71/117/2
f 6/9/3 83/133/3 77/125/3
f 83/133/4 10/15/4 89/141/4
f 10/15/5 95/152/5 89/141/5
f 95/151/6 14/24/6 101/165/6
f 14/24/7 107/173/7 101/165/7
f 16/27/8 113/181/8 107/173/8
f 18/30/9 119/189/9 113/181/9
f 119/189/10 22/36/10 125/197/10
f 125/197/11 24/39/11 131/205/11
f 24/39/12 137/213/12 131/205/12
f 26/42/13 143/222/13 137/213/13
f 28/48/14 149/235/14 143/221/14
f 30/51/15 155/243/15 149/235/15
f 155/243/16 34/57/16 161/251/16
f 34/57/17 167/259/17 161/251/17
f 36/60/18 173/267/18 167/259/18
f 38/63/19 179/275/19 173/267/19
f 179/275/20 42/69/20 185/283/20
f 42/69/21 191/292/21 185/283/21
f 191/291/22 46/78/22 197/305/22
f 197/305/23 48/81/23 203/313/23
f 203/313/24 50/84/24 209/321/24
f 50/84/25 215/329/25 209/321/25
f 52/87/26 221/337/26 215/329/26
f 221/337/27 56/93/27 227/345/27
f 56/93/28 233/353/28 227/345/28
f 58/96/29 239/364/29 233/353/29
f 239/363/30 62/105/30 245/377/30
f 56/93/31 317/520/31 58/96/31
f 62/105/32 251/385/32 245/377/32
f 64/108/33 70/116/33 251/385/33
f 31/52/34 47/79/34 63/106/34
f 256/391/35 1/2/35 63/107/35
f 255/389/36 65/110/36 256/392/36
f 254/388/37 66/111/37 255/390/37
f 253/387/38 67/113/38 254/388/38
f 253/387/39 69/115/39 68/114/39
f 251/385/40 69/115/40 252/386/40
f 250/383/41 63/107/41 61/104/41
f 249/381/42 256/392/42 250/384/42
f 248/380/43 255/390/43 249/382/43
f 247/379/44 254/388/44 248/380/44
f 246/378/45 253/387/45 247/379/45
f 246/378/46 251/385/46 252/386/46
f 244/375/47 61/104/47 59/98/47
f 243/373/48 250/384/48 244/374/48
f 242/369/49 249/382/49 243/371/49
f 241/368/50 248/380/50 242/369/50
f 240/365/51 247/379/51 241/368/51
f 239/363/52 246/378/52 240/365/52
f 238/361/53 59/100/53 57/94/53
f 238/362/54 243/373/54 244/374/54
f 237/360/55 242/370/55 243/372/55
f 236/358/56 241/367/56 242/370/56
f 234/354/57 241/368/57 235/356/57
f 233/353/58 240/366/58 234/355/58
f 55/92/59 238/361/59 57/94/59
f 231/350/60 238/362/60 232/352/60
f 230/348/61 237/360/61 231/349/61
f 229/347/62 236/358/62 230/348/62
f 228/346/63 235/357/63 229/347/63
f 227/345/64 234/355/64 228/346/64
f 53/89/65 232/351/65 55/92/65
f 225/341/66 232/352/66 226/344/66
f 225/342/67 230/348/67 231/349/67
f 223/339/68 230/348/68 224/340/68
f 222/338/69 229/347/69 223/339/69
f 221/337/70 228/346/70 222/338/70
f 220/336/71 53/89/71 51/86/71
f 219/333/72 226/344/72 220/335/72
f 218/332/73 225/342/73 219/334/73
f 217/331/74 224/340/74 218/332/74
f 216/330/75 223/339/75 217/331/75
f 215/329/76 222/338/76 216/330/76
f 214/327/77 51/86/77 49/83/77
f 214/328/78 219/333/78 220/335/78
f 212/324/79 219/334/79 213/326/79
f 211/323/80 218/332/80 212/324/80
f 210/322/81 217/331/81 211/323/81
f 209/321/82 216/330/82 210/322/82
f 208/319/83 49/83/83 47/80/83
f 207/317/84 214/328/84 208/320/84
f 206/316/85 213/326/85 207/318/85
f 205/315/86 212/324/86 206/316/86
f 204/314/87 211/323/87 205/315/87
f 204/314/88 209/321/88 210/322/88
f 202/312/89 47/80/89 45/77/89
f 201/309/90 208/320/90 202/311/90
f 200/308/91 207/318/91 201/310/91
f 199/307/92 206/316/92 200/308/92
f 198/306/93 205/315/93 199/307/93
f 197/305/94 204/314/94 198/306/94
f 196/302/95 45/77/95 43/71/95
f 196/304/96 201/309/96 202/311/96
f 194/297/97 201/310/97 195/299/97
f 193/295/98 200/308/98 194/297/98
f 192/293/99 199/307/99 193/295/99
f 191/291/100 198/306/100 192/293/100
f 190/289/101 43/73/101 41/67/101
f 189/287/102 196/304/102 190/290/102
f 189/288/103 194/298/103 195/300/103
f 187/285/104 194/298/104 188/286/104
f 186/284/105 193/296/105 187/285/105
f 185/283/106 192/294/106 186/284/106
f 39/65/107 190/289/107 41/67/107
f 183/279/108 190/290/108 184/282/108
f 182/278/109 189/288/109 183/280/109
f 181/277/110 188/286/110 182/278/110
f 180/276/111 187/285/111 181/277/111
f 180/276/112 185/283/112 186/284/112
f 37/62/113 184/281/113 39/65/113
f 177/271/114 184/282/114 178/273/114
f 176/270/115 183/280/115 177/272/115
f 175/269/116 182/278/116 176/270/116
f 174/268/117 181/277/117 175/269/117
f 173/267/118 180/276/118 174/268/118
f 172/266/119 37/62/119 35/59/119
f 172/265/120 177/271/120 178/273/120
f 170/262/121 177/272/121 171/263/121
f 169/261/122 176/270/122 170/262/122
f 168/260/123 175/269/123 169/261/123
f 167/259/124 174/268/124 168/260/124
f 166/257/125 35/59/125 33/56/125
f 166/258/126 171/264/126 172/265/126
f 165/255/127 170/262/127 171/263/127
f 163/253/128 170/262/128 164/254/128
f 162/252/129 169/261/129 163/253/129
f 162/252/130 167/259/130 168/260/130
f 160/250/131 33/56/131 31/53/131
f 159/248/132 166/258/132 160/249/132
f 159/247/133 164/254/133 165/255/133
f 157/245/134 164/254/134 158/246/134
f 157/245/135 162/252/135 163/253/135
f 156/244/136 161/251/136 162/252/136
f 154/242/137 31/53/137 29/50/137
f 154/241/138 159/248/138 160/249/138
f 153/240/139 158/246/139 159/247/139
f 151/237/140 158/246/140 152/238/140
f 151/237/141 156/244/141 157/245/141
f 149/235/142 156/244/142 150/236/142
f 148/232/143 29/50/143 27/44/143
f 148/233/144 153/239/144 154/241/144
f 146/227/145 153/240/145 147/229/145
f 145/225/146 152/238/146 146/227/146
f 144/223/147 151/237/147 145/225/147
f 143/221/148 150/236/148 144/223/148
f 142/219/149 27/46/149 25/40/149
f 142/220/150 147/230/150 148/233/150
f 140/216/151 147/231/151 141/218/151
f 139/215/152 146/228/152 140/216/152
f 138/214/153 145/226/153 139/215/153
f 137/213/154 144/224/154 138/214/154
f 23/38/155 142/219/155 25/40/155
f 135/209/156 142/220/156 136/212/156
f 134/208/157 141/218/157 135/210/157
f 133/207/158 140/216/158 134/208/158
f 132/206/159 139/215/159 133/207/159
f 132/206/160 137/213/160 138/214/160
f 21/35/161 136/211/161 23/38/161
f 129/201/162 136/212/162 130/204/162
f 128/200/163 135/210/163 129/202/163
f 127/199/164 134/208/164 128/200/164
f 126/198/165 133/207/165 127/199/165
f 125/197/166 132/206/166 126/198/166
f 124/196/167 21/35/167 19/32/167
f 123/193/168 130/204/168 124/195/168
f 122/192/169 129/202/169 123/194/169
f 121/191/170 128/200/170 122/192/170
f 120/190/171 127/199/171 121/191/171
f 119/189/172 126/198/172 120/190/172
f 118/187/173 19/32/173 17/29/173
f 118/188/174 123/193/174 124/195/174
f 116/184/175 123/194/175 117/185/175
f 115/183/176 122/192/176 116/184/176
f 114/182/177 121/191/177 115/183/177
f 113/181/178 120/190/178 114/182/178
f 112/180/179 17/29/179 15/26/179
f 111/177/180 118/188/180 112/179/180
f 111/178/181 116/184/181 117/185/181
f 109/175/182 116/184/182 110/176/182
f 108/174/183 115/183/183 109/175/183
f 107/173/184 114/182/184 108/174/184
f 106/171/185 15/26/185 13/23/185
f 106/172/186 111/177/186 112/179/186
f 104/168/187 111/178/187 105/170/187
f 103/167/188 110/176/188 104/168/188
f 103/167/189 108/174/189 109/175/189
f 101/165/190 108/174/190 102/166/190
f 100/163/191 13/23/191 11/17/191
f 99/160/192 106/172/192 100/162/192
f 98/158/193 105/170/193 99/159/193
f 98/158/194 103/167/194 104/168/194
f 96/153/195 103/167/195 97/155/195
f 95/151/196 102/166/196 96/153/196
f 94/149/197 11/19/197 9/13/197
f 94/150/198 99/160/198 100/162/198
f 92/146/199 99/161/199 93/148/199
f 91/143/200 98/158/200 92/145/200
f 90/142/201 97/156/201 91/144/201
f 89/141/202 96/154/202 90/142/202
f 7/11/203 94/149/203 9/13/203
f 87/137/204 94/150/204 88/140/204
f 86/136/205 93/148/205 87/138/205
f 85/135/206 92/146/206 86/136/206
f 84/134/207 91/144/207 85/135/207
f 83/133/208 90/142/208 84/134/208
f 5/8/209 88/139/209 7/11/209
f 81/130/210 88/140/210 82/131/210
f 80/128/211 87/138/211 81/129/211
f 79/127/212 86/136/212 80/128/212
f 78/126/213 85/135/213 79/127/213
f 77/125/214 84/134/214 78/126/214
f 76/124/215 5/8/215 3/5/215
f 76/123/216 81/130/216 82/131/216
f 75/122/217 80/128/217 81/129/217
f 73/119/218 80/128/218 74/120/218
f 72/118/219 79/127/219 73/119/219
f 71/117/220 78/126/220 72/118/220
f 65/109/221 3/5/221 1/2/221
f 65/110/222 75/121/222 76/123/222
f 67/113/223 75/122/223 66/111/223
f 68/114/224 74/120/224 67/113/224
f 69/115/225 73/119/225 68/114/225
f 70/116/226 72/118/226 69/115/226
f 271/423/227 336/562/227 272/426/227
f 12/21/228 295/474/228 14/24/228
f 30/51/229 304/493/229 32/54/229
f 48/81/230 313/512/230 50/84/230
f 4/6/231 291/465/231 6/9/231
f 22/36/232 300/484/232 24/39/232
f 40/66/233 309/503/233 42/69/233
f 58/97/234 318/523/234 60/102/234
f 14/24/235 296/476/235 16/27/235
f 32/54/236 305/495/236 34/57/236
f 50/84/237 314/514/237 52/87/237
f 6/9/238 292/467/238 8/12/238
f 24/39/239 301/486/239 26/42/239
f 42/70/240 310/506/240 44/75/240
f 60/102/241 319/525/241 62/105/241
f 16/27/242 297/478/242 18/30/242
f 34/57/243 306/497/243 36/60/243
f 52/87/244 315/516/244 54/90/244
f 8/12/245 293/469/245 10/15/245
f 26/43/246 302/489/246 28/48/246
f 44/75/247 311/508/247 46/78/247
f 62/105/248 320/527/248 64/108/248
f 18/30/249 298/480/249 20/33/249
f 36/60/250 307/499/250 38/63/250
f 54/90/251 316/518/251 56/93/251
f 10/16/252 294/472/252 12/21/252
f 28/48/253 303/491/253 30/51/253
f 48/81/254 311/508/254 312/510/254
f 2/3/255 289/461/255 4/6/255
f 64/108/256 290/463/256 2/3/256
f 20/33/257 299/482/257 22/36/257
f 38/63/258 308/501/258 40/66/258
f 258/395/259 289/462/259 290/464/259
f 259/397/259 289/462/259 257/393/259
f 260/399/259 291/466/259 259/397/259
f 261/402/259 292/468/259 260/399/259
f 261/402/259 294/473/259 293/471/259
f 263/406/259 294/473/259 262/404/259
f 264/408/259 295/475/259 263/406/259
f 264/408/259 297/479/259 296/477/259
f 266/412/259 297/479/259 265/410/259
f 266/412/259 299/483/259 298/481/259
f 268/416/259 299/483/259 267/414/259
f 269/418/259 300/485/259 268/416/259
f 270/421/259 301/488/259 269/418/259
f 270/421/259 303/492/259 302/490/259
f 272/425/259 303/492/259 271/424/259
f 273/427/259 304/494/259 272/425/259
f 273/427/259 306/498/259 305/496/259
f 274/429/259 307/500/259 306/498/259
f 276/433/259 307/500/259 275/431/259
f 277/436/259 308/502/259 276/433/259
f 277/436/259 310/507/259 309/505/259
f 279/440/259 310/507/259 278/438/259
f 279/440/259 312/511/259 311/509/259
f 281/444/259 312/511/259 280/442/259
f 281/444/259 314/515/259 313/513/259
f 282/446/259 315/517/259 314/515/259
f 284/450/259 315/517/259 283/448/259
f 285/453/259 316/519/259 284/450/259
f 286/455/259 317/522/259 285/453/259
f 287/457/259 318/524/259 286/455/259
f 288/459/259 319/526/259 287/457/259
f 258/395/259 320/528/259 288/459/259
f 339/567/259 331/550/259 323/533/259
f 257/394/260 323/534/260 259/398/260
f 285/454/261 350/592/261 286/456/261
f 272/426/262 337/564/262 273/428/262
f 259/398/263 324/536/263 260/400/263
f 286/456/264 351/594/264 287/458/264
f 273/428/265 338/566/265 274/430/265
f 260/400/266 325/538/266 261/401/266
f 287/458/267 352/596/267 288/460/267
f 274/430/268 339/568/268 275/432/268
f 261/403/269 326/541/269 262/405/269
f 288/460/270 322/532/270 258/396/270
f 275/432/271 340/570/271 276/434/271
f 262/405/272 327/543/272 263/407/272
f 276/434/273 341/572/273 277/435/273
f 263/407/274 328/545/274 264/409/274
f 277/437/275 342/575/275 278/439/275
f 264/409/276 329/547/276 265/411/276
f 278/439/277 343/577/277 279/441/277
f 265/411/278 330/549/278 266/413/278
f 279/441/279 344/579/279 280/443/279
f 266/413/280 331/551/280 267/415/280
f 280/443/281 345/581/281 281/445/281
f 267/415/282 332/553/282 268/417/282
f 281/445/283 346/583/283 282/447/283
f 268/417/284 333/555/284 269/419/284
f 282/447/285 347/585/285 283/449/285
f 269/419/286 334/557/286 270/420/286
f 283/449/287 348/587/287 284/451/287
f 270/422/288 335/560/288 271/423/288
f 258/396/289 321/530/289 257/394/289
f 284/451/290 349/590/290 285/452/290
f 2/3/1 4/6/1 71/117/1
f 4/6/2 6/9/2 77/125/2
f 6/9/3 8/12/3 83/133/3
f 83/133/4 8/12/4 10/15/4
f 10/15/5 12/20/5 95/152/5
f 95/151/6 12/21/6 14/24/6
f 14/24/7 16/27/7 107/173/7
f 16/27/8 18/30/8 113/181/8
f 18/30/9 20/33/9 119/189/9
f 119/189/10 20/33/10 22/36/10
f 125/197/11 22/36/11 24/39/11
f 24/39/12 26/42/12 137/213/12
f 26/42/13 28/47/13 143/222/13
f 28/48/14 30/51/14 149/235/14
f 30/51/15 32/54/15 155/243/15
f 155/243/16 32/54/16 34/57/16
f 34/57/17 36/60/17 167/259/17
f 36/60/18 38/63/18 173/267/18
f 38/63/19 40/66/19 179/275/19
f 179/275/20 40/66/20 42/69/20
f 42/69/21 44/74/21 191/292/21
f 191/291/22 44/75/22 46/78/22
f 197/305/23 46/78/23 48/81/23
f 203/313/24 48/81/24 50/84/24
f 50/84/25 52/87/25 215/329/25
f 52/87/26 54/90/26 221/337/26
f 221/337/27 54/90/27 56/93/27
f 56/93/28 58/96/28 233/353/28
f 58/96/29 60/101/29 239/364/29
f 239/363/30 60/102/30 62/105/30
f 56/93/31 316/518/31 317/520/31
f 62/105/32 64/108/32 251/385/32
f 64/108/33 2/3/33 70/116/33
f 63/106/34 1/1/34 3/4/34
f 3/4/34 5/7/34 7/10/34
f 7/10/34 9/14/34 11/18/34
f 11/18/34 13/22/34 15/25/34
f 15/25/34 17/28/34 19/31/34
f 19/31/34 21/34/34 23/37/34
f 23/37/34 25/41/34 27/45/34
f 27/45/34 29/49/34 31/52/34
f 31/52/34 33/55/34 35/58/34
f 35/58/34 37/61/34 39/64/34
f 39/64/34 41/68/34 43/72/34
f 43/72/34 45/76/34 47/79/34
f 47/79/34 49/82/34 51/85/34
f 51/85/34 53/88/34 55/91/34
f 55/91/34 57/95/34 59/99/34
f 59/99/34 61/103/34 63/106/34
f 63/106/34 3/4/34 7/10/34
f 7/10/34 11/18/34 15/25/34
f 15/25/34 19/31/34 23/37/34
f 23/37/34 27/45/34 31/52/34
f 31/52/34 35/58/34 39/64/34
f 39/64/34 43/72/34 47/79/34
f 47/79/34 51/85/34 55/91/34
f 55/91/34 59/99/34 63/106/34
f 63/106/34 7/10/34 15/25/34
f 15/25/34 23/37/34 31/52/34
f 31/52/34 39/64/34 47/79/34
f 47/79/34 55/91/34 63/106/34
f 63/106/34 15/25/34 31/52/34
f 256/391/35 65/109/35 1/2/35
f 255/389/36 66/112/36 65/110/36
f 254/388/37 67/113/37 66/111/37
f 253/387/38 68/114/38 67/113/38
f 253/387/39 252/386/39 69/115/39
f 251/385/40 70/116/40 69/115/40
f 250/383/41 256/391/41 63/107/41
f 249/381/42 255/389/42 256/392/42
f 248/380/43 254/388/43 255/390/43
f 247/379/44 253/387/44 254/388/44
f 246/378/45 252/386/45 253/387/45
f 246/378/46 245/377/46 251/385/46
f 244/375/47 250/383/47 61/104/47
f 243/373/48 249/381/48 250/384/48
f 242/369/49 248/380/49 249/382/49
f 241/368/50 247/379/50 248/380/50
f 240/365/51 246/378/51 247/379/51
f 239/363/52 245/377/52 246/378/52
f 238/361/53 244/376/53 59/100/53
f 238/362/54 237/359/54 243/373/54
f 237/360/55 236/358/55 242/370/55
f 236/358/56 235/357/56 241/367/56
f 234/354/57 240/365/57 241/368/57
f 233/353/58 239/364/58 240/366/58
f 55/92/59 232/351/59 238/361/59
f 231/350/60 237/359/60 238/362/60
f 230/348/61 236/358/61 237/360/61
f 229/347/62 235/357/62 236/358/62
f 228/346/63 234/355/63 235/357/63
f 227/345/64 233/353/64 234/355/64
f 53/89/65 226/343/65 232/351/65
f 225/341/66 231/350/66 232/352/66
f 225/342/67 224/340/67 230/348/67
f 223/339/68 229/347/68 230/348/68
f 222/338/69 228/346/69 229/347/69
f 221/337/70 227/345/70 228/346/70
f 220/336/71 226/343/71 53/89/71
f 219/333/72 225/341/72 226/344/72
f 218/332/73 224/340/73 225/342/73
f 217/331/74 223/339/74 224/340/74
f 216/330/75 222/338/75 223/339/75
f 215/329/76 221/337/76 222/338/76
f 214/327/77 220/336/77 51/86/77
f 214/328/78 213/325/78 219/333/78
f 212/324/79 218/332/79 219/334/79
f 211/323/80 217/331/80 218/332/80
f 210/322/81 216/330/81 217/331/81
f 209/321/82 215/329/82 216/330/82
f 208/319/83 214/327/83 49/83/83
f 207/317/84 213/325/84 214/328/84
f 206/316/85 212/324/85 213/326/85
f 205/315/86 211/323/86 212/324/86
f 204/314/87 210/322/87 211/323/87
f 204/314/88 203/313/88 209/321/88
f 202/312/89 208/319/89 47/80/89
f 201/309/90 207/317/90 208/320/90
f 200/308/91 206/316/91 207/318/91
f 199/307/92 205/315/92 206/316/92
f 198/306/93 204/314/93 205/315/93
f 197/305/94 203/313/94 204/314/94
f 196/302/95 202/312/95 45/77/95
f 196/304/96 195/301/96 201/309/96
f 194/297/97 200/308/97 201/310/97
f 193/295/98 199/307/98 200/308/98
f 192/293/99 198/306/99 199/307/99
f 191/291/100 197/305/100 198/306/100
f 190/289/101 196/303/101 43/73/101
f 189/287/102 195/301/102 196/304/102
f 189/288/103 188/286/103 194/298/103
f 187/285/104 193/296/104 194/298/104
f 186/284/105 192/294/105 193/296/105
f 185/283/106 191/292/106 192/294/106
f 39/65/107 184/281/107 190/289/107
f 183/279/108 189/287/108 190/290/108
f 182/278/109 188/286/109 189/288/109
f 181/277/110 187/285/110 188/286/110
f 180/276/111 186/284/111 187/285/111
f 180/276/112 179/275/112 185/283/112
f 37/62/113 178/274/113 184/281/113
f 177/271/114 183/279/114 184/282/114
f 176/270/115 182/278/115 183/280/115
f 175/269/116 181/277/116 182/278/116
f 174/268/117 180/276/117 181/277/117
f 173/267/118 179/275/118 180/276/118
f 172/266/119 178/274/119 37/62/119
f 172/265/120 171/264/120 177/271/120
f 170/262/121 176/270/121 177/272/121
f 169/261/122 175/269/122 176/270/122
f 168/260/123 174/268/123 175/269/123
f 167/259/124 173/267/124 174/268/124
f 166/257/125 172/266/125 35/59/125
f 166/258/126 165/256/126 171/264/126
f 165/255/127 164/254/127 170/262/127
f 163/253/128 169/261/128 170/262/128
f 162/252/129 168/260/129 169/261/129
f 162/252/130 161/251/130 167/259/130
f 160/250/131 166/257/131 33/56/131
f 159/248/132 165/256/132 166/258/132
f 159/247/133 158/246/133 164/254/133
f 157/245/134 163/253/134 164/254/134
f 157/245/135 156/244/135 162/252/135
f 156/244/136 155/243/136 161/251/136
f 154/242/137 160/250/137 31/53/137
f 154/241/138 153/239/138 159/248/138
f 153/240/139 152/238/139 158/246/139
f 151/237/140 157/245/140 158/246/140
f 151/237/141 150/236/141 156/244/141
f 149/235/142 155/243/142 156/244/142
f 148/232/143 154/242/143 29/50/143
f 148/233/144 147/230/144 153/239/144
f 146/227/145 152/238/145 153/240/145
f 145/225/146 151/237/146 152/238/146
f 144/223/147 150/236/147 151/237/147
f 143/221/148 149/235/148 150/236/148
f 142/219/149 148/234/149 27/46/149
f 142/220/150 141/217/150 147/230/150
f 140/216/151 146/228/151 147/231/151
f 139/215/152 145/226/152 146/228/152
f 138/214/153 144/224/153 145/226/153
f 137/213/154 143/222/154 144/224/154
f 23/38/155 136/211/155 142/219/155
f 135/209/156 141/217/156 142/220/156
f 134/208/157 140/216/157 141/218/157
f 133/207/158 139/215/158 140/216/158
f 132/206/159 138/214/159 139/215/159
f 132/206/160 131/205/160 137/213/160
f 21/35/161 130/203/161 136/211/161
f 129/201/162 135/209/162 136/212/162
f 128/200/163 134/208/163 135/210/163
f 127/199/164 133/207/164 134/208/164
f 126/198/165 132/206/165 133/207/165
f 125/197/166 131/205/166 132/206/166
f 124/196/167 130/203/167 21/35/167
f 123/193/168 129/201/168 130/204/168
f 122/192/169 128/200/169 129/202/169
f 121/191/170 127/199/170 128/200/170
f 120/190/171 126/198/171 127/199/171
f 119/189/172 125/197/172 126/198/172
f 118/187/173 124/196/173 19/32/173
f 118/188/174 117/186/174 123/193/174
f 116/184/175 122/192/175 123/194/175
f 115/183/176 121/191/176 122/192/176
f 114/182/177 120/190/177 121/191/177
f 113/181/178 119/189/178 120/190/178
f 112/180/179 118/187/179 17/29/179
f 111/177/180 117/186/180 118/188/180
f 111/178/181 110/176/181 116/184/181
f 109/175/182 115/183/182 116/184/182
f 108/174/183 114/182/183 115/183/183
f 107/173/184 113/181/184 114/182/184
f 106/171/185 112/180/185 15/26/185
f 106/172/186 105/169/186 111/177/186
f 104/168/187 110/176/187 111/178/187
f 103/167/188 109/175/188 110/176/188
f 103/167/189 102/166/189 108/174/189
f 101/165/190 107/173/190 108/174/190
f 100/163/191 106/171/191 13/23/191
f 99/160/192 105/169/192 106/172/192
f 98/158/193 104/168/193 105/170/193
f 98/158/194 97/155/194 103/167/194
f 96/153/195 102/166/195 103/167/195
f 95/151/196 101/165/196 102/166/196
f 94/149/197 100/164/197 11/19/197
f 94/150/198 93/147/198 99/160/198
f 92/146/199 98/157/199 99/161/199
f 91/143/200 97/155/200 98/158/200
f 90/142/201 96/154/201 97/156/201
f 89/141/202 95/152/202 96/154/202
f 7/11/203 88/139/203 94/149/203
f 87/137/204 93/147/204 94/150/204
f 86/136/205 92/146/205 93/148/205
f 85/135/206 91/144/206 92/146/206
f 84/134/207 90/142/207 91/144/207
f 83/133/208 89/141/208 90/142/208
f 5/8/209 82/132/209 88/139/209
f 81/130/210 87/137/210 88/140/210
f 80/128/211 86/136/211 87/138/211
f 79/127/212 85/135/212 86/136/212
f 78/126/213 84/134/213 85/135/213
f 77/125/214 83/133/214 84/134/214
f 76/124/215 82/132/215 5/8/215
f 76/123/216 75/121/216 81/130/216
f 75/122/217 74/120/217 80/128/217
f 73/119/218 79/127/218 80/128/218
f 72/118/219 78/126/219 79/127/219
f 71/117/220 77/125/220 78/126/220
f 65/109/221 76/124/221 3/5/221
f 65/110/222 66/112/222 75/121/222
f 67/113/223 74/120/223 75/122/223
f 68/114/224 73/119/224 74/120/224
f 69/115/225 72/118/225 73/119/225
f 70/116/226 71/117/226 72/118/226
f 271/423/227 335/560/227 336/562/227
f 12/21/228 294/472/228 295/474/228
f 30/51/229 303/491/229 304/493/229
f 48/81/230 312/510/230 313/512/230
f 4/6/231 289/461/231 291/465/231
f 22/36/232 299/482/232 300/484/232
f 40/66/233 308/501/233 309/503/233
f 58/97/234 317/521/234 318/523/234
f 14/24/235 295/474/235 296/476/235
f 32/54/236 304/493/236 305/495/236
f 50/84/237 313/512/237 314/514/237
f 6/9/238 291/465/238 292/467/238
f 24/39/239 300/484/239 301/486/239
f 42/70/240 309/504/240 310/506/240
f 60/102/241 318/523/241 319/525/241
f 16/27/242 296/476/242 297/478/242
f 34/57/243 305/495/243 306/497/243
f 52/87/244 314/514/244 315/516/244
f 8/12/245 292/467/245 293/469/245
f 26/43/246 301/487/246 302/489/246
f 44/75/247 310/506/247 311/508/247
f 62/105/248 319/525/248 320/527/248
f 18/30/249 297/478/249 298/480/249
f 36/60/250 306/497/250 307/499/250
f 54/90/251 315/516/251 316/518/251
f 10/16/252 293/470/252 294/472/252
f 28/48/253 302/489/253 303/491/253
f 48/81/254 46/78/254 311/508/254
f 2/3/255 290/463/255 289/461/255
f 64/108/256 320/527/256 290/463/256
f 20/33/257 298/480/257 299/482/257
f 38/63/258 307/499/258 308/501/258
f 258/395/259 257/393/259 289/462/259
f 259/397/259 291/466/259 289/462/259
f 260/399/259 292/468/259 291/466/259
f 261/402/259 293/471/259 292/468/259
f 261/402/259 262/404/259 294/473/259
f 263/406/259 295/475/259 294/473/259
f 264/408/259 296/477/259 295/475/259
f 264/408/259 265/410/259 297/479/259
f 266/412/259 298/481/259 297/479/259
f 266/412/259 267/414/259 299/483/259
f 268/416/259 300/485/259 299/483/259
f 269/418/259 301/488/259 300/485/259
f 270/421/259 302/490/259 301/488/259
f 270/421/259 271/424/259 303/492/259
f 272/425/259 304/494/259 303/492/259
f 273/427/259 305/496/259 304/494/259
f 273/427/259 274/429/259 306/498/259
f 274/429/259 275/431/259 307/500/259
f 276/433/259 308/502/259 307/500/259
f 277/436/259 309/505/259 308/502/259
f 277/436/259 278/438/259 310/507/259
f 279/440/259 311/509/259 310/507/259
f 279/440/259 280/442/259 312/511/259
f 281/444/259 313/513/259 312/511/259
f 281/444/259 282/446/259 314/515/259
f 282/446/259 283/448/259 315/517/259
f 284/450/259 316/519/259 315/517/259
f 285/453/259 317/522/259 316/519/259
f 286/455/259 318/524/259 317/522/259
f 287/457/259 319/526/259 318/524/259
f 288/459/259 320/528/259 319/526/259
f 258/395/259 290/464/259 320/528/259
f 323/533/259 321/529/259 322/531/259
f 322/531/259 352/595/259 351/593/259
f 351/593/259 350/591/259 349/588/259
f 349/588/259 348/586/259 347/584/259
f 347/584/259 346/582/259 345/580/259
f 345/580/259 344/578/259 343/576/259
f 343/576/259 342/574/259 341/571/259
f 341/571/259 340/569/259 339/567/259
f 339/567/259 338/565/259 337/563/259
f 337/563/259 336/561/259 335/559/259
f 335/559/259 334/556/259 333/554/259
f 333/554/259 332/552/259 331/550/259
f 331/550/259 330/548/259 329/546/259
f 329/546/259 328/544/259 327/542/259
f 327/542/259 326/540/259 325/537/259
f 325/537/259 324/535/259 323/533/259
f 323/533/259 322/531/259 351/593/259
f 351/593/259 349/588/259 347/584/259
f 347/584/259 345/580/259 343/576/259
f 343/576/259 341/571/259 339/567/259
f 339/567/259 337/563/259 335/559/259
f 335/559/259 333/554/259 331/550/259
f 331/550/259 329/546/259 327/542/259
f 327/542/259 325/537/259 323/533/259
f 323/533/259 351/593/259 347/584/259
f 347/584/259 343/576/259 339/567/259
f 339/567/259 335/559/259 331/550/259
f 331/550/259 327/542/259 323/533/259
f 323/533/259 347/584/259 339/567/259
f 257/394/260 321/530/260 323/534/260
f 285/454/261 349/589/261 350/592/261
f 272/426/262 336/562/262 337/564/262
f 259/398/263 323/534/263 324/536/263
f 286/456/264 350/592/264 351/594/264
f 273/428/265 337/564/265 338/566/265
f 260/400/266 324/536/266 325/538/266
f 287/458/267 351/594/267 352/596/267
f 274/430/268 338/566/268 339/568/268
f 261/403/269 325/539/269 326/541/269
f 288/460/270 352/596/270 322/532/270
f 275/432/271 339/568/271 340/570/271
f 262/405/272 326/541/272 327/543/272
f 276/434/273 340/570/273 341/572/273
f 263/407/274 327/543/274 328/545/274
f 277/437/275 341/573/275 342/575/275
f 264/409/276 328/545/276 329/547/276
f 278/439/277 342/575/277 343/577/277
f 265/411/278 329/547/278 330/549/278
f 279/441/279 343/577/279 344/579/279
f 266/413/280 330/549/280 331/551/280
f 280/443/281 344/579/281 345/581/281
f 267/415/282 331/551/282 332/553/282
f 281/445/283 345/581/283 346/583/283
f 268/417/284 332/553/284 333/555/284
f 282/447/285 346/583/285 347/585/285
f 269/419/286 333/555/286 334/557/286
f 283/449/287 347/585/287 348/587/287
f 270/422/288 334/558/288 335/560/288
f 258/396/289 322/532/289 321/530/289
f 284/451/290 348/587/290 349/590/290
