# Blender 3.3.1
# www.blender.org
o small_glass
v -0.000000 0.010747 -0.106083
v 0.000000 0.562589 -0.279597
v 0.020696 0.010747 -0.104044
v 0.054547 0.562589 -0.274225
v 0.040596 0.010747 -0.098008
v 0.106997 0.562589 -0.258314
v 0.058936 0.010747 -0.088205
v 0.155336 0.562589 -0.232477
v 0.075012 0.010747 -0.075012
v 0.197705 0.562589 -0.197705
v 0.088205 0.010747 -0.058936
v 0.232477 0.562589 -0.155336
v 0.098008 0.010747 -0.040596
v 0.258314 0.562589 -0.106997
v 0.104044 0.010747 -0.020696
v 0.274225 0.562589 -0.054547
v 0.106083 0.010747 0.000000
v 0.279597 0.562589 0.000000
v 0.104044 0.010747 0.020696
v 0.274225 0.562589 0.054547
v 0.098008 0.010747 0.040596
v 0.258314 0.562589 0.106997
v 0.088205 0.010747 0.058936
v 0.232477 0.562589 0.155336
v 0.075012 0.010747 0.075012
v 0.197705 0.562589 0.197705
v 0.058936 0.010747 0.088205
v 0.155336 0.562589 0.232477
v 0.040596 0.010747 0.098008
v 0.106997 0.562589 0.258314
v 0.020696 0.010747 0.104044
v 0.054547 0.562589 0.274225
v -0.000000 0.010747 0.106083
v 0.000000 0.562589 0.279597
v -0.020696 0.010747 0.104044
v -0.054547 0.562589 0.274225
v -0.040596 0.010747 0.098008
v -0.106997 0.562589 0.258314
v -0.058936 0.010747 0.088205
v -0.155336 0.562589 0.232477
v -0.075012 0.010747 0.075012
v -0.197705 0.562589 0.197705
v -0.088205 0.010747 0.058936
v -0.232477 0.562589 0.155336
v -0.098008 0.010747 0.040596
v -0.258314 0.562589 0.106997
v -0.104044 0.010747 0.020696
v -0.274225 0.562589 0.054547
v -0.106083 0.010747 0.000000
v -0.279597 0.562589 0.000000
v -0.104044 0.010747 -0.020696
v -0.274225 0.562589 -0.054547
v -0.098008 0.010747 -0.040596
v -0.258314 0.562588 -0.106997
v -0.088205 0.010747 -0.058936
v -0.232477 0.562588 -0.155336
v -0.075012 0.010747 -0.075012
v -0.197705 0.562588 -0.197705
v -0.058936 0.010747 -0.088205
v -0.155336 0.562588 -0.232477
v -0.040596 0.010747 -0.098008
v -0.106997 0.562588 -0.258314
v -0.020696 0.010747 -0.104044
v -0.054547 0.562588 -0.274225
v 0.061838 0.562589 -0.310878
v 0.000000 0.562588 -0.316969
v 0.121299 0.562589 -0.292841
v 0.176098 0.562589 -0.263550
v 0.224131 0.562589 -0.224131
v 0.263550 0.562589 -0.176098
v 0.292841 0.562589 -0.121299
v 0.310878 0.562589 -0.061838
v 0.316969 0.562589 0.000000
v 0.310878 0.562589 0.061838
v 0.292841 0.562589 0.121299
v 0.263550 0.562589 0.176098
v 0.224131 0.562589 0.224131
v 0.176098 0.562589 0.263550
v 0.121299 0.562589 0.292841
v 0.061838 0.562589 0.310878
v 0.000000 0.562589 0.316969
v -0.061838 0.562589 0.310878
v -0.121299 0.562589 0.292841
v -0.176098 0.562589 0.263550
v -0.224131 0.562589 0.224131
v -0.263550 0.562589 0.176098
v -0.292841 0.562589 0.121299
v -0.310878 0.562589 0.061838
v -0.316969 0.562589 0.000000
v -0.310878 0.562588 -0.061838
v -0.292841 0.562588 -0.121299
v -0.263550 0.562588 -0.176098
v -0.224131 0.562588 -0.224131
v -0.176098 0.562588 -0.263550
v -0.121299 0.562588 -0.292841
v -0.061838 0.562588 -0.310878
v 0.048053 0.024369 -0.241577
v -0.000000 0.024369 -0.246310
v 0.094259 0.024369 -0.227561
v 0.136842 0.024369 -0.204799
v 0.174167 0.024369 -0.174167
v 0.204799 0.024369 -0.136843
v 0.227561 0.024369 -0.094259
v 0.241577 0.024369 -0.048053
v 0.246310 0.024369 0.000000
v 0.241577 0.024369 0.048053
v 0.227561 0.024369 0.094259
v 0.204799 0.024369 0.136843
v 0.174167 0.024369 0.174168
v 0.136842 0.024369 0.204799
v 0.094259 0.024369 0.227561
v 0.048053 0.024369 0.241577
v -0.000000 0.024369 0.246310
v -0.048053 0.024369 0.241577
v -0.094259 0.024369 0.227561
v -0.136843 0.024369 0.204799
v -0.174168 0.024369 0.174168
v -0.204799 0.024369 0.136843
v -0.227561 0.024369 0.094259
v -0.241577 0.024369 0.048053
v -0.246310 0.024369 0.000000
v -0.241577 0.024369 -0.048053
v -0.227561 0.024369 -0.094259
v -0.204799 0.024369 -0.136843
v -0.174168 0.024369 -0.174167
v -0.136843 0.024369 -0.204799
v -0.094259 0.024369 -0.227561
v -0.048053 0.024369 -0.241577
v 0.054475 -0.002697 -0.273867
v 0.106858 -0.002697 -0.257977
v 0.155133 -0.002697 -0.232173
v 0.232173 -0.002697 -0.155133
v 0.257977 -0.002697 -0.106858
v 0.273867 -0.002697 -0.054475
v 0.273867 -0.002697 0.054476
v 0.257977 -0.002697 0.106858
v 0.232173 -0.002697 0.155133
v 0.155133 -0.002697 0.232173
v 0.106858 -0.002697 0.257977
v 0.054475 -0.002697 0.273867
v -0.054476 -0.002697 0.273867
v -0.106858 -0.002697 0.257977
v -0.155133 -0.002697 0.232173
v -0.232173 -0.002697 0.155133
v -0.257977 -0.002697 0.106858
v -0.273867 -0.002697 0.054476
v -0.273867 -0.002697 -0.054475
v -0.257977 -0.002697 -0.106858
v -0.232173 -0.002697 -0.155133
v -0.155133 -0.002697 -0.232173
v -0.106858 -0.002697 -0.257977
v -0.054476 -0.002697 -0.273867
v -0.000000 -0.002697 -0.232423
v 0.045343 -0.002697 -0.227957
v 0.088944 -0.002697 -0.214730
v 0.129127 -0.002697 -0.193252
v 0.164348 -0.002697 -0.164348
v 0.193252 -0.002697 -0.129127
v 0.214730 -0.002697 -0.088944
v 0.227957 -0.002697 -0.045343
v 0.232423 -0.002697 0.000000
v 0.227957 -0.002697 0.045343
v 0.214730 -0.002697 0.088944
v 0.193252 -0.002697 0.129127
v 0.164348 -0.002697 0.164348
v 0.129127 -0.002697 0.193252
v 0.088944 -0.002697 0.214731
v 0.045343 -0.002697 0.227957
v -0.000000 -0.002697 0.232423
v -0.045343 -0.002697 0.227957
v -0.088944 -0.002697 0.214731
v -0.129127 -0.002697 0.193252
v -0.164348 -0.002697 0.164348
v -0.193252 -0.002697 0.129127
v -0.214731 -0.002697 0.088944
v -0.227957 -0.002697 0.045343
v -0.232423 -0.002697 0.000000
v -0.227957 -0.002697 -0.045343
v -0.214731 -0.002697 -0.088944
v -0.193252 -0.002697 -0.129127
v -0.164348 -0.002697 -0.164348
v -0.129127 -0.002697 -0.193252
v -0.088944 -0.002697 -0.214730
v -0.045343 -0.002697 -0.227957
v 0.060365 0.449531 -0.303476
v 0.058893 0.336474 -0.296074
v 0.057420 0.223417 -0.288671
v 0.055948 0.110360 -0.281269
v 0.118411 0.449531 -0.285868
v 0.115522 0.336474 -0.278895
v 0.112634 0.223417 -0.271923
v 0.109746 0.110360 -0.264950
v 0.171905 0.449531 -0.257275
v 0.167712 0.336474 -0.250999
v 0.163519 0.223417 -0.244724
v 0.159326 0.110360 -0.238448
v 0.257275 0.449531 -0.171905
v 0.250999 0.336474 -0.167712
v 0.244724 0.223417 -0.163519
v 0.238448 0.110360 -0.159326
v 0.285868 0.449531 -0.118410
v 0.278895 0.336474 -0.115522
v 0.271923 0.223417 -0.112634
v 0.264950 0.110360 -0.109746
v 0.303476 0.449531 -0.060365
v 0.296074 0.336474 -0.058893
v 0.288671 0.223417 -0.057420
v 0.281269 0.110360 -0.055948
v 0.303476 0.449531 0.060365
v 0.296074 0.336474 0.058893
v 0.288671 0.223417 0.057420
v 0.281269 0.110360 0.055948
v 0.285868 0.449531 0.118411
v 0.278895 0.336474 0.115522
v 0.271923 0.223417 0.112634
v 0.264950 0.110360 0.109746
v 0.257275 0.449531 0.171905
v 0.250999 0.336474 0.167712
v 0.244724 0.223417 0.163519
v 0.238448 0.110360 0.159326
v 0.171905 0.449531 0.257275
v 0.167712 0.336474 0.250999
v 0.163519 0.223417 0.244724
v 0.159326 0.110360 0.238449
v 0.118411 0.449531 0.285868
v 0.115522 0.336474 0.278895
v 0.112634 0.223417 0.271923
v 0.109746 0.110360 0.264950
v 0.060365 0.449531 0.303476
v 0.058893 0.336474 0.296074
v 0.057420 0.223417 0.288672
v 0.055948 0.110360 0.281269
v -0.060365 0.449531 0.303476
v -0.058893 0.336474 0.296074
v -0.057420 0.223417 0.288672
v -0.055948 0.110360 0.281269
v -0.118410 0.449531 0.285868
v -0.115522 0.336474 0.278895
v -0.112634 0.223417 0.271923
v -0.109746 0.110360 0.264950
v -0.171905 0.449531 0.257275
v -0.167712 0.336474 0.250999
v -0.163519 0.223417 0.244724
v -0.159326 0.110360 0.238449
v -0.257275 0.449531 0.171905
v -0.250999 0.336474 0.167712
v -0.244724 0.223417 0.163519
v -0.238449 0.110360 0.159326
v -0.285868 0.449531 0.118411
v -0.278895 0.336474 0.115522
v -0.271923 0.223417 0.112634
v -0.264950 0.110360 0.109746
v -0.303476 0.449531 0.060365
v -0.296074 0.336474 0.058893
v -0.288672 0.223417 0.057420
v -0.281269 0.110360 0.055948
v -0.303476 0.449531 -0.060365
v -0.296074 0.336474 -0.058893
v -0.288672 0.223417 -0.057420
v -0.281269 0.110360 -0.055948
v -0.285868 0.449531 -0.118410
v -0.278895 0.336474 -0.115522
v -0.271923 0.223417 -0.112634
v -0.264950 0.110360 -0.109746
v -0.257275 0.449531 -0.171905
v -0.250999 0.336474 -0.167712
v -0.244724 0.223417 -0.163519
v -0.238449 0.110360 -0.159326
v -0.171905 0.449531 -0.257275
v -0.167712 0.336474 -0.250999
v -0.163519 0.223417 -0.244724
v -0.159326 0.110360 -0.238448
v -0.118410 0.449531 -0.285868
v -0.115522 0.336474 -0.278895
v -0.112634 0.223417 -0.271923
v -0.109746 0.110360 -0.264950
v -0.060365 0.449531 -0.303476
v -0.058893 0.336474 -0.296074
v -0.057420 0.223417 -0.288671
v -0.055948 0.110360 -0.281269
v 0.000000 0.531632 -0.314902
v 0.061434 0.531632 -0.308852
v 0.120508 0.531632 -0.290932
v 0.174950 0.531632 -0.261832
v 0.222670 0.531632 -0.222670
v 0.261832 0.531632 -0.174950
v 0.290932 0.531632 -0.120508
v 0.308852 0.531632 -0.061434
v 0.314902 0.531632 0.000000
v 0.308852 0.531632 0.061434
v 0.290932 0.531632 0.120508
v 0.261832 0.531632 0.174950
v 0.222670 0.531632 0.222670
v 0.174950 0.531632 0.261832
v 0.120508 0.531632 0.290932
v 0.061434 0.531632 0.308852
v 0.000000 0.531632 0.314902
v -0.061434 0.531632 0.308852
v -0.120508 0.531632 0.290932
v -0.174950 0.531632 0.261832
v -0.222670 0.531632 0.222670
v -0.261832 0.531632 0.174950
v -0.290932 0.531632 0.120508
v -0.308852 0.531632 0.061434
v -0.314902 0.531632 0.000000
v -0.308852 0.531632 -0.061434
v -0.290932 0.531632 -0.120508
v -0.261832 0.531632 -0.174950
v -0.222670 0.531632 -0.222670
v -0.174950 0.531632 -0.261832
v -0.120508 0.531632 -0.290932
v -0.061434 0.531632 -0.308852
v -0.000000 0.008750 -0.265793
v 0.051854 0.008750 -0.260686
v 0.053255 0.116366 -0.267732
v 0.151658 0.116366 -0.226972
v 0.147667 0.008750 -0.220999
v 0.187944 0.008750 -0.187944
v 0.193024 0.116366 -0.193024
v 0.220999 0.008750 -0.147667
v 0.226972 0.116366 -0.151658
v 0.267732 0.116366 -0.053255
v 0.260686 0.008750 -0.051854
v 0.265793 0.008750 0.000000
v 0.272977 0.116366 0.000000
v 0.260686 0.008750 0.051854
v 0.267732 0.116366 0.053255
v 0.226972 0.116366 0.151658
v 0.220999 0.008750 0.147667
v 0.187944 0.008750 0.187944
v 0.193024 0.116366 0.193024
v 0.147667 0.008750 0.220999
v 0.151658 0.116366 0.226972
v 0.053255 0.116366 0.267732
v 0.051854 0.008750 0.260686
v -0.000000 0.008750 0.265793
v -0.000000 0.116366 0.272977
v -0.051854 0.008750 0.260686
v -0.053255 0.116366 0.267732
v -0.151658 0.116366 0.226972
v -0.147667 0.008750 0.220999
v -0.187944 0.008750 0.187944
v -0.193024 0.116366 0.193024
v -0.220999 0.008750 0.147667
v -0.226972 0.116366 0.151658
v -0.267732 0.116366 0.053255
v -0.260686 0.008750 0.051854
v -0.265793 0.008750 0.000000
v -0.272977 0.116366 0.000000
v -0.260686 0.008750 -0.051854
v -0.267732 0.116366 -0.053255
v -0.226972 0.116366 -0.151658
v -0.220999 0.008750 -0.147667
v -0.187944 0.008750 -0.187944
v -0.193024 0.116366 -0.193024
v -0.147667 0.008750 -0.220999
v -0.151658 0.116366 -0.226972
v -0.053255 0.116366 -0.267732
v -0.051854 0.008750 -0.260686
v -0.000000 0.008750 -0.221236
v 0.043161 0.008750 -0.216985
v 0.122912 0.008750 -0.183951
v 0.156438 0.008750 -0.156438
v 0.183951 0.008750 -0.122912
v 0.216985 0.008750 -0.043161
v 0.221236 0.008750 0.000000
v 0.216985 0.008750 0.043161
v 0.183951 0.008750 0.122912
v 0.156438 0.008750 0.156438
v 0.122912 0.008750 0.183951
v 0.043161 0.008750 0.216986
v -0.000000 0.008750 0.221236
v -0.043161 0.008750 0.216986
v -0.122912 0.008750 0.183951
v -0.156438 0.008750 0.156438
v -0.183951 0.008750 0.122912
v -0.216985 0.008750 0.043161
v -0.221236 0.008750 0.000000
v -0.216985 0.008750 -0.043161
v -0.183951 0.008750 -0.122912
v -0.156438 0.008750 -0.156438
v -0.122912 0.008750 -0.183951
v -0.043161 0.008750 -0.216985
v -0.000000 0.116366 -0.272977
v -0.000000 0.223981 -0.280161
v -0.000000 0.331597 -0.287345
v 0.000000 0.439213 -0.294529
v 0.058478 0.517363 -0.293987
v 0.057460 0.439213 -0.288870
v 0.056058 0.331597 -0.281824
v 0.054657 0.223981 -0.274778
v 0.166530 0.517363 -0.249230
v 0.163632 0.439213 -0.244892
v 0.159641 0.331597 -0.238919
v 0.155649 0.223981 -0.232946
v 0.211953 0.517363 -0.211953
v 0.208264 0.439213 -0.208264
v 0.203184 0.331597 -0.203184
v 0.198104 0.223981 -0.198104
v 0.249230 0.517363 -0.166530
v 0.244892 0.439213 -0.163632
v 0.238919 0.331597 -0.159641
v 0.232946 0.223981 -0.155649
v 0.293987 0.517363 -0.058478
v 0.288870 0.439213 -0.057460
v 0.281824 0.331597 -0.056058
v 0.274778 0.223981 -0.054657
v 0.299747 0.517363 0.000000
v 0.294529 0.439213 0.000000
v 0.287345 0.331597 0.000000
v 0.280161 0.223982 0.000000
v 0.293987 0.517363 0.058478
v 0.288870 0.439213 0.057460
v 0.281824 0.331597 0.056058
v 0.274778 0.223982 0.054657
v 0.249230 0.517363 0.166530
v 0.244892 0.439213 0.163632
v 0.238919 0.331597 0.159641
v 0.232946 0.223982 0.155649
v 0.211953 0.517363 0.211953
v 0.208264 0.439213 0.208264
v 0.203184 0.331597 0.203184
v 0.198104 0.223982 0.198104
v 0.166530 0.517363 0.249230
v 0.163632 0.439213 0.244892
v 0.159641 0.331597 0.238919
v 0.155649 0.223982 0.232946
v 0.058478 0.517363 0.293987
v 0.057460 0.439213 0.288870
v 0.056058 0.331597 0.281824
v 0.054657 0.223982 0.274778
v 0.000000 0.517363 0.299747
v 0.000000 0.439213 0.294530
v -0.000000 0.331597 0.287345
v -0.000000 0.223982 0.280161
v -0.058478 0.517363 0.293987
v -0.057460 0.439213 0.288870
v -0.056058 0.331597 0.281824
v -0.054657 0.223982 0.274778
v -0.166530 0.517363 0.249230
v -0.163632 0.439213 0.244892
v -0.159641 0.331597 0.238919
v -0.155649 0.223981 0.232946
v -0.211953 0.517363 0.211953
v -0.208264 0.439213 0.208264
v -0.203184 0.331597 0.203184
v -0.198104 0.223981 0.198104
v -0.249230 0.517363 0.166530
v -0.244892 0.439213 0.163632
v -0.238919 0.331597 0.159641
v -0.232946 0.223981 0.155649
v -0.293987 0.517363 0.058478
v -0.288870 0.439213 0.057460
v -0.281824 0.331597 0.056058
v -0.274778 0.223981 0.054657
v -0.299746 0.517363 0.000000
v -0.294529 0.439213 0.000000
v -0.287345 0.331597 0.000000
v -0.280161 0.223981 0.000000
v -0.293987 0.517363 -0.058478
v -0.288870 0.439213 -0.057460
v -0.281824 0.331597 -0.056058
v -0.274778 0.223981 -0.054657
v -0.249230 0.517363 -0.166530
v -0.244892 0.439213 -0.163632
v -0.238919 0.331597 -0.159641
v -0.232946 0.223981 -0.155649
v -0.211953 0.517363 -0.211953
v -0.208264 0.439213 -0.208264
v -0.203184 0.331597 -0.203184
v -0.198104 0.223981 -0.198104
v -0.166530 0.517363 -0.249230
v -0.163632 0.439213 -0.244892
v -0.159641 0.331597 -0.238919
v -0.155649 0.223981 -0.232946
v -0.058478 0.517363 -0.293987
v -0.057460 0.439213 -0.288870
v -0.056058 0.331597 -0.281824
v -0.054657 0.223981 -0.274778
v 0.000000 0.517363 -0.299746
vn 0.0978 -0.0663 -0.9930
vn 0.2896 -0.0663 -0.9548
vn 0.4704 -0.0663 -0.8800
vn 0.6330 -0.0663 -0.7713
vn 0.7713 -0.0663 -0.6330
vn 0.8800 -0.0663 -0.4704
vn 0.9548 -0.0663 -0.2896
vn 0.9930 -0.0663 -0.0978
vn 0.9930 -0.0663 0.0978
vn 0.9548 -0.0663 0.2896
vn 0.8800 -0.0663 0.4704
vn 0.7713 -0.0663 0.6330
vn 0.6330 -0.0663 0.7713
vn 0.4704 -0.0663 0.8800
vn 0.2896 -0.0663 0.9548
vn 0.0978 -0.0663 0.9930
vn -0.0978 -0.0663 0.9930
vn -0.2896 -0.0663 0.9548
vn -0.4704 -0.0663 0.8800
vn -0.6330 -0.0663 0.7713
vn -0.7713 -0.0663 0.6330
vn -0.8800 -0.0663 0.4704
vn -0.9548 -0.0663 0.2896
vn -0.9930 -0.0663 0.0978
vn -0.9930 -0.0663 -0.0978
vn -0.9548 -0.0663 -0.2896
vn -0.8800 -0.0663 -0.4704
vn -0.7713 -0.0663 -0.6330
vn -0.6330 -0.0663 -0.7713
vn -0.4704 -0.0663 -0.8800
vn -0.2897 0.0614 -0.9551
vn -0.2896 -0.0663 -0.9548
vn -0.0978 -0.0663 -0.9930
vn -0.0000 -1.0000 -0.0000
vn -0.0000 1.0000 -0.0000
vn -0.2897 0.0614 0.9551
vn 0.6332 0.0614 0.7716
vn -0.0978 0.0614 -0.9933
vn -0.4705 0.0614 0.8803
vn 0.4705 0.0614 0.8803
vn 0.0978 0.0614 -0.9933
vn -0.6332 0.0614 0.7716
vn 0.2897 0.0614 0.9551
vn 0.2897 0.0614 -0.9551
vn -0.7716 0.0614 0.6332
vn 0.0978 0.0614 0.9933
vn 0.4705 0.0614 -0.8803
vn -0.8803 0.0614 0.4705
vn 0.6332 0.0614 -0.7716
vn -0.9551 0.0614 0.2897
vn 0.7716 0.0614 -0.6332
vn -0.9933 0.0614 0.0978
vn 0.8803 0.0614 -0.4705
vn -0.9933 0.0614 -0.0978
vn 0.9551 0.0614 -0.2897
vn -0.9551 0.0614 -0.2897
vn 0.9933 0.0614 -0.0978
vn -0.8803 0.0614 -0.4705
vn 0.9933 0.0614 0.0978
vn -0.7716 0.0614 -0.6332
vn 0.9551 0.0614 0.2897
vn -0.6332 0.0614 -0.7716
vn 0.8803 0.0614 0.4705
vn -0.4705 0.0614 -0.8803
vn -0.0978 0.0614 0.9933
vn 0.7716 0.0614 0.6332
vn 0.9808 -0.0000 0.1951
vn -0.5556 -0.0000 0.8315
vn 0.8315 -0.0000 0.5556
vn -0.8315 -0.0000 0.5556
vn 0.1951 -0.0000 -0.9808
vn 0.1951 -0.0000 0.9808
vn -0.8315 -0.0000 -0.5556
vn -0.0104 -0.9943 0.1058
vn -0.0309 -0.9943 0.1017
vn -0.0501 -0.9943 0.0938
vn -0.0675 -0.9943 0.0822
vn -0.0822 -0.9943 0.0675
vn -0.0938 -0.9943 0.0501
vn -0.1017 -0.9943 0.0309
vn -0.1058 -0.9943 0.0104
vn -0.1058 -0.9943 -0.0104
vn -0.1017 -0.9943 -0.0309
vn -0.0938 -0.9943 -0.0501
vn -0.0822 -0.9943 -0.0675
vn -0.0675 -0.9943 -0.0822
vn -0.0501 -0.9943 -0.0938
vn -0.0309 -0.9943 -0.1017
vn -0.0104 -0.9943 -0.1058
vn 0.0104 -0.9943 -0.1058
vn 0.0309 -0.9943 -0.1017
vn 0.0501 -0.9943 -0.0938
vn 0.0675 -0.9943 -0.0822
vn 0.0822 -0.9943 -0.0675
vn 0.0938 -0.9943 -0.0501
vn 0.1017 -0.9943 -0.0309
vn 0.1058 -0.9943 -0.0104
vn 0.1058 -0.9943 0.0104
vn 0.1017 -0.9943 0.0309
vn 0.0938 -0.9943 0.0501
vn 0.0822 -0.9943 0.0675
vn 0.0675 -0.9943 0.0822
vn 0.0501 -0.9943 0.0938
vn 0.0309 -0.9943 0.1017
vn 0.0104 -0.9943 0.1058
vn -0.5556 -0.0000 -0.8315
vn -0.9808 -0.0000 0.1951
vn -0.9808 -0.0000 -0.1951
vn 0.0674 -0.7264 -0.6839
vn 0.5556 -0.0000 -0.8315
vn 0.4360 -0.7264 -0.5312
vn 0.5313 -0.7264 -0.4360
vn -0.0703 0.6972 -0.7134
vn 0.8315 -0.0000 -0.5556
vn 0.6839 -0.7264 -0.0674
vn -0.4548 0.6972 -0.5542
vn 0.6839 -0.7264 0.0674
vn -0.5542 0.6972 -0.4548
vn -0.1951 -0.0000 0.9808
vn 0.5313 -0.7264 0.4360
vn -0.7134 0.6972 -0.0703
vn 0.4360 -0.7264 0.5313
vn 0.9808 -0.0000 -0.1951
vn -0.7134 0.6972 0.0703
vn 0.0674 -0.7264 0.6839
vn -0.5542 0.6972 0.4548
vn -0.0674 -0.7264 0.6839
vn -0.4548 0.6972 0.5542
vn -0.1951 -0.0000 -0.9808
vn -0.4360 -0.7264 0.5313
vn -0.0703 0.6972 0.7134
vn -0.5313 -0.7264 0.4360
vn 0.0703 0.6972 0.7134
vn -0.6839 -0.7264 0.0674
vn 0.4548 0.6972 0.5542
vn -0.6839 -0.7264 -0.0674
vn 0.5542 0.6972 0.4548
vn 0.5556 -0.0000 0.8315
vn -0.5313 -0.7264 -0.4360
vn 0.7134 0.6972 0.0703
vn -0.4360 -0.7264 -0.5313
vn 0.7134 0.6972 -0.0703
vn 0.0703 0.6972 -0.7134
vn 0.4548 0.6972 -0.5542
vn 0.5542 0.6972 -0.4548
vn -0.0674 -0.7264 -0.6839
vn 0.4360 -0.7264 -0.5313
vn 0.5312 -0.7264 -0.4360
vn 0.5312 -0.7264 0.4360
vn -0.5312 -0.7264 0.4360
vn -0.5312 -0.7264 -0.4360
vn -0.4360 -0.7264 -0.5312
vt 0.071051 0.361611
vt 0.689493 0.852576
vt 0.026707 0.155680
vt 0.705164 0.436152
vt 0.071805 0.353956
vt 0.034464 0.174409
vt 0.687287 0.436555
vt 0.074038 0.346596
vt 0.045727 0.191264
vt 0.667889 0.436832
vt 0.077664 0.339813
vt 0.060061 0.205598
vt 0.647716 0.436973
vt 0.082543 0.333868
vt 0.076916 0.216860
vt 0.627541 0.436973
vt 0.088488 0.328988
vt 0.095645 0.224618
vt 0.608142 0.436832
vt 0.095271 0.325363
vt 0.115527 0.228573
vt 0.590263 0.436555
vt 0.102632 0.323130
vt 0.574591 0.436152
vt 0.135798 0.228573
vt 0.722926 0.208308
vt 0.110286 0.322376
vt 0.155680 0.224618
vt 0.707255 0.208710
vt 0.117940 0.323130
vt 0.174409 0.216860
vt 0.689376 0.208988
vt 0.125300 0.325363
vt 0.191264 0.205598
vt 0.669976 0.209129
vt 0.132083 0.328988
vt 0.205598 0.191264
vt 0.649802 0.209129
vt 0.138029 0.333868
vt 0.216860 0.174409
vt 0.629629 0.208988
vt 0.142908 0.339813
vt 0.224618 0.155680
vt 0.610231 0.208710
vt 0.146534 0.346596
vt 0.723157 0.635267
vt 0.228573 0.135798
vt 0.592354 0.208308
vt 0.148766 0.353956
vt 0.228573 0.115527
vt 0.741035 0.634927
vt 0.149520 0.361611
vt 0.224618 0.095645
vt 0.760434 0.634718
vt 0.148766 0.369265
vt 0.216860 0.076916
vt 0.780608 0.634647
vt 0.146534 0.376625
vt 0.205598 0.060061
vt 0.800782 0.634718
vt 0.142908 0.383408
vt 0.191264 0.045727
vt 0.820181 0.634927
vt 0.138029 0.389354
vt 0.838059 0.635267
vt 0.174409 0.034464
vt 0.723157 0.852376
vt 0.132083 0.394233
vt 0.155680 0.026707
vt 0.741035 0.852036
vt 0.125300 0.397859
vt 0.135798 0.022752
vt 0.760434 0.851827
vt 0.117940 0.400091
vt 0.115527 0.022752
vt 0.780608 0.851756
vt 0.110286 0.400845
vt 0.095645 0.026707
vt 0.800782 0.851827
vt 0.102632 0.400091
vt 0.076916 0.034464
vt 0.820181 0.852036
vt 0.095271 0.397859
vt 0.060061 0.045727
vt 0.838059 0.852376
vt 0.574591 0.852576
vt 0.088488 0.394233
vt 0.045727 0.060061
vt 0.592469 0.852236
vt 0.082543 0.389354
vt 0.034464 0.076916
vt 0.611868 0.852027
vt 0.077664 0.383408
vt 0.026707 0.095645
vt 0.632042 0.851956
vt 0.074038 0.376625
vt 0.022752 0.115527
vt 0.652216 0.852027
vt 0.071805 0.369265
vt 0.022752 0.135798
vt 0.671615 0.852236
vt 0.074129 0.480894
vt 0.022275 0.180924
vt 0.051258 0.480894
vt 0.013480 0.159693
vt 0.096999 0.481054
vt 0.035043 0.200032
vt 0.118989 0.481368
vt 0.051293 0.216283
vt 0.139255 0.481825
vt 0.390580 0.645290
vt 0.070401 0.229050
vt 0.370314 0.645747
vt 0.091632 0.237845
vt 0.348323 0.646061
vt 0.114172 0.242328
vt 0.325453 0.646221
vt 0.137153 0.242328
vt 0.302583 0.646221
vt 0.159693 0.237845
vt 0.280591 0.646061
vt 0.180924 0.229050
vt 0.260322 0.645747
vt 0.426339 0.436627
vt 0.200032 0.216282
vt 0.446608 0.436312
vt 0.216283 0.200032
vt 0.468600 0.436152
vt 0.229050 0.180924
vt 0.491471 0.436152
vt 0.237845 0.159693
vt 0.514341 0.436312
vt 0.242328 0.137153
vt 0.536332 0.436627
vt 0.242328 0.114172
vt 0.556598 0.437083
vt 0.260322 0.209553
vt 0.237845 0.091632
vt 0.280586 0.209024
vt 0.229050 0.070401
vt 0.302575 0.208631
vt 0.216282 0.051293
vt 0.325445 0.208390
vt 0.200032 0.035042
vt 0.348315 0.208308
vt 0.180924 0.022275
vt 0.370308 0.208389
vt 0.159693 0.013480
vt 0.390578 0.208631
vt 0.137153 0.008997
vt 0.408345 0.209024
vt 0.426339 0.209820
vt 0.114172 0.008997
vt 0.444102 0.209239
vt 0.091632 0.013480
vt 0.464368 0.208782
vt 0.070401 0.022275
vt 0.486359 0.208468
vt 0.051293 0.035042
vt 0.509229 0.208308
vt 0.035042 0.051293
vt 0.532099 0.208308
vt 0.022275 0.070401
vt 0.554092 0.208468
vt 0.013480 0.091632
vt 0.574360 0.208782
vt 0.008997 0.481368
vt 0.008997 0.114172
vt 0.029266 0.481054
vt 0.008997 0.137153
vt 0.408772 0.029236
vt 0.683271 0.635098
vt 0.421399 0.041864
vt 0.682653 0.654007
vt 0.699020 0.634744
vt 0.393923 0.019315
vt 0.666183 0.635343
vt 0.377424 0.012481
vt 0.648411 0.635467
vt 0.359909 0.008997
vt 0.630639 0.635467
vt 0.342051 0.008997
vt 0.613549 0.635343
vt 0.324536 0.012481
vt 0.597799 0.635098
vt 0.308037 0.019315
vt 0.583993 0.634744
vt 0.713525 0.406899
vt 0.293189 0.029236
vt 0.699719 0.407254
vt 0.280561 0.041864
vt 0.683969 0.407498
vt 0.270640 0.056713
vt 0.666879 0.407623
vt 0.263806 0.073211
vt 0.649107 0.407623
vt 0.260322 0.090726
vt 0.631335 0.407498
vt 0.260322 0.108584
vt 0.614246 0.407254
vt 0.598498 0.406899
vt 0.729997 0.436698
vt 0.263806 0.126099
vt 0.270640 0.142598
vt 0.745747 0.436399
vt 0.280561 0.157447
vt 0.762836 0.436214
vt 0.293189 0.170074
vt 0.780608 0.436152
vt 0.308037 0.179996
vt 0.798380 0.436214
vt 0.324536 0.186830
vt 0.815469 0.436399
vt 0.342051 0.190314
vt 0.831219 0.436698
vt 0.729997 0.653807
vt 0.359909 0.190314
vt 0.745747 0.653508
vt 0.377424 0.186830
vt 0.762836 0.653323
vt 0.393923 0.179996
vt 0.780608 0.653261
vt 0.408772 0.170074
vt 0.798380 0.653323
vt 0.421399 0.157447
vt 0.815469 0.653508
vt 0.831219 0.653807
vt 0.431321 0.142598
vt 0.581431 0.654007
vt 0.438155 0.126099
vt 0.597181 0.653708
vt 0.441639 0.108584
vt 0.614270 0.653523
vt 0.441639 0.090726
vt 0.632042 0.653461
vt 0.438155 0.073211
vt 0.649814 0.653523
vt 0.431321 0.056712
vt 0.666903 0.653708
vt 0.073395 0.690326
vt 0.008997 0.341463
vt 0.177271 0.885447
vt 0.014874 0.322090
vt 0.093542 0.690467
vt 0.024417 0.304235
vt 0.915788 0.436903
vt 0.112914 0.690744
vt 0.052910 0.275742
vt 0.364239 0.436371
vt 0.105086 0.906429
vt 0.344867 0.436648
vt 0.070765 0.266199
vt 0.090138 0.260322
vt 0.237690 0.699196
vt 0.324719 0.436789
vt 0.285198 0.436648
vt 0.130433 0.260322
vt 0.877736 0.851196
vt 0.433360 0.646002
vt 0.149807 0.266199
vt 0.267342 0.436371
vt 0.335975 0.665369
vt 0.167661 0.275742
vt 0.451215 0.645725
vt 0.196154 0.304235
vt 0.490737 0.645584
vt 0.067034 0.906788
vt 0.510884 0.645725
vt 0.205698 0.322090
vt 0.211575 0.341463
vt 0.530257 0.646002
vt 0.138404 0.709749
vt 0.287409 0.418377
vt 0.211575 0.381758
vt 0.953840 0.633844
vt 0.205698 0.401132
vt 0.306780 0.418031
vt 0.326927 0.417818
vt 0.196154 0.418986
vt 0.877736 0.437306
vt 0.366449 0.417818
vt 0.167661 0.447479
vt 0.375653 0.862151
vt 0.149807 0.457023
vt 0.384305 0.418031
vt 0.399958 0.418377
vt 0.130433 0.462900
vt 0.915788 0.654012
vt 0.090138 0.462900
vt 0.470443 0.418158
vt 0.029019 0.906788
vt 0.489815 0.417881
vt 0.070765 0.457023
vt 0.052910 0.447479
vt 0.509963 0.417740
vt 0.881780 0.209527
vt 0.549484 0.417881
vt 0.024417 0.418986
vt 0.919832 0.405999
vt 0.016017 0.690744
vt 0.014874 0.401132
vt 0.567340 0.418158
vt 0.008997 0.381758
vt 0.033873 0.690467
vt 0.239352 0.482047
vt 0.024325 0.361611
vt 0.619227 0.077301
vt 0.025977 0.344841
vt 0.161321 0.886667
vt 0.620879 0.094071
vt 0.030868 0.328715
vt 0.038812 0.313853
vt 0.899809 0.436152
vt 0.610563 0.121696
vt 0.049502 0.300827
vt 0.608911 0.138467
vt 0.062528 0.290137
vt 0.089107 0.907180
vt 0.610563 0.155237
vt 0.077390 0.282193
vt 0.221740 0.697976
vt 0.093516 0.277302
vt 0.657969 0.121696
vt 0.110286 0.275650
vt 0.656318 0.138467
vt 0.860462 0.852350
vt 0.127056 0.277302
vt 0.657969 0.155237
vt 0.143182 0.282193
vt 0.318701 0.664215
vt 0.158043 0.290137
vt 0.644582 0.060531
vt 0.171069 0.300827
vt 0.642930 0.077301
vt 0.644582 0.094071
vt 0.181760 0.313853
vt 0.051084 0.908008
vt 0.189703 0.328715
vt 0.194595 0.344841
vt 0.634266 0.121696
vt 0.126196 0.708738
vt 0.196247 0.361611
vt 0.632614 0.138467
vt 0.634266 0.155237
vt 0.194595 0.378381
vt 0.937861 0.634594
vt 0.189703 0.394507
vt 0.181760 0.409368
vt 0.668285 0.008997
vt 0.860462 0.436152
vt 0.171069 0.422394
vt 0.666634 0.025767
vt 0.668285 0.042537
vt 0.158043 0.433085
vt 0.358379 0.863304
vt 0.143182 0.441028
vt 0.127056 0.445920
vt 0.644582 0.008997
vt 0.899809 0.653261
vt 0.110286 0.447572
vt 0.642930 0.025767
vt 0.644582 0.042537
vt 0.093516 0.445920
vt 0.013069 0.908007
vt 0.077390 0.441028
vt 0.062528 0.433085
vt 0.620879 0.008997
vt 0.865831 0.208308
vt 0.049502 0.422394
vt 0.619227 0.025767
vt 0.620879 0.042537
vt 0.038812 0.409368
vt 0.903854 0.406750
vt 0.030868 0.394507
vt 0.025977 0.378381
vt 0.620879 0.060531
vt 0.222078 0.480893
vt 0.177271 0.717828
vt 0.073982 0.522780
vt 0.177271 0.759732
vt 0.073835 0.564667
vt 0.177271 0.801637
vt 0.073688 0.606553
vt 0.177271 0.843542
vt 0.073541 0.648439
vt 0.096307 0.522937
vt 0.095616 0.564819
vt 0.094925 0.606702
vt 0.094233 0.648584
vt 0.915788 0.604219
vt 0.117774 0.523243
vt 0.915788 0.562390
vt 0.116559 0.565119
vt 0.915788 0.520561
vt 0.115344 0.606994
vt 0.915788 0.478732
vt 0.114129 0.648869
vt 0.369099 0.603871
vt 0.105086 0.739114
vt 0.367884 0.561996
vt 0.105086 0.780943
vt 0.366669 0.520121
vt 0.105086 0.822772
vt 0.365454 0.478246
vt 0.105086 0.864600
vt 0.347632 0.604178
vt 0.346941 0.562296
vt 0.346249 0.520413
vt 0.345558 0.478530
vt 0.325307 0.604335
vt 0.237690 0.866815
vt 0.325160 0.562448
vt 0.237690 0.824911
vt 0.325013 0.520562
vt 0.237690 0.783006
vt 0.324866 0.478675
vt 0.237690 0.741101
vt 0.281512 0.604178
vt 0.877736 0.683674
vt 0.282433 0.562296
vt 0.877736 0.725555
vt 0.283355 0.520413
vt 0.877736 0.767435
vt 0.284276 0.478530
vt 0.877736 0.809316
vt 0.427743 0.478502
vt 0.261726 0.603871
vt 0.429147 0.520377
vt 0.263130 0.561996
vt 0.430552 0.562252
vt 0.264534 0.520121
vt 0.431956 0.604127
vt 0.265938 0.478246
vt 0.447530 0.478195
vt 0.335975 0.832891
vt 0.448451 0.520077
vt 0.335975 0.791011
vt 0.335975 0.749130
vt 0.449372 0.561960
vt 0.450294 0.603843
vt 0.335975 0.707250
vt 0.067034 0.739169
vt 0.491324 0.478038
vt 0.067034 0.781073
vt 0.491177 0.519925
vt 0.067034 0.822978
vt 0.491031 0.561811
vt 0.490884 0.603698
vt 0.067034 0.864883
vt 0.513650 0.478195
vt 0.512958 0.520077
vt 0.512267 0.561960
vt 0.511576 0.603843
vt 0.138404 0.877366
vt 0.535117 0.478502
vt 0.138404 0.835462
vt 0.533902 0.520377
vt 0.138404 0.793558
vt 0.532687 0.562252
vt 0.138404 0.751654
vt 0.531472 0.604127
vt 0.953840 0.466528
vt 0.281951 0.250895
vt 0.953840 0.508357
vt 0.283315 0.292765
vt 0.284680 0.334636
vt 0.953840 0.550186
vt 0.286044 0.376507
vt 0.953840 0.592015
vt 0.303416 0.250511
vt 0.304257 0.292391
vt 0.305098 0.334271
vt 0.305939 0.376151
vt 0.325741 0.250275
vt 0.877736 0.604828
vt 0.326038 0.292161
vt 0.877736 0.562947
vt 0.326334 0.334046
vt 0.877736 0.521067
vt 0.877736 0.479186
vt 0.326630 0.375932
vt 0.369536 0.250275
vt 0.375653 0.694628
vt 0.368764 0.292161
vt 0.375653 0.736509
vt 0.367992 0.334046
vt 0.375653 0.778390
vt 0.367221 0.375932
vt 0.375653 0.820270
vt 0.389323 0.250511
vt 0.388069 0.292391
vt 0.386814 0.334271
vt 0.385560 0.376151
vt 0.406668 0.250895
vt 0.915788 0.821328
vt 0.404990 0.292765
vt 0.915788 0.779499
vt 0.403313 0.334636
vt 0.915788 0.737670
vt 0.401635 0.376507
vt 0.915788 0.695841
vt 0.465583 0.250658
vt 0.029019 0.739168
vt 0.466798 0.292533
vt 0.029019 0.781073
vt 0.468013 0.334408
vt 0.029019 0.822978
vt 0.469228 0.376283
vt 0.029019 0.864883
vt 0.487050 0.250351
vt 0.487741 0.292233
vt 0.488433 0.334116
vt 0.489124 0.375998
vt 0.881780 0.377147
vt 0.509375 0.250194
vt 0.509522 0.292081
vt 0.881780 0.335242
vt 0.881780 0.293337
vt 0.509669 0.333967
vt 0.509816 0.375854
vt 0.881780 0.251432
vt 0.919832 0.238683
vt 0.553170 0.250351
vt 0.919832 0.280512
vt 0.552249 0.292233
vt 0.919832 0.322341
vt 0.551327 0.334116
vt 0.550406 0.375998
vt 0.919832 0.364170
vt 0.010401 0.523243
vt 0.572956 0.250658
vt 0.011805 0.565119
vt 0.571552 0.292533
vt 0.013209 0.606994
vt 0.570148 0.334408
vt 0.014613 0.648869
vt 0.568744 0.376283
vt 0.030187 0.522937
vt 0.239352 0.649569
vt 0.031109 0.564819
vt 0.239352 0.607689
vt 0.032030 0.606702
vt 0.239352 0.565808
vt 0.032951 0.648584
vt 0.239352 0.523928
vt 0.051367 0.492362
vt 0.229569 0.409916
vt 0.177271 0.687397
vt 0.231806 0.387195
vt 0.074088 0.492362
vt 0.096809 0.492522
vt 0.231806 0.305765
vt 0.915788 0.634594
vt 0.118656 0.492834
vt 0.138790 0.493288
vt 0.390115 0.633827
vt 0.229569 0.283043
vt 0.105086 0.708738
vt 0.231806 0.260322
vt 0.369981 0.634281
vt 0.348134 0.634593
vt 0.595736 0.054440
vt 0.325413 0.634752
vt 0.237690 0.897246
vt 0.302692 0.634752
vt 0.593498 0.031718
vt 0.877736 0.653261
vt 0.595736 0.008997
vt 0.280843 0.634593
vt 0.426724 0.448092
vt 0.260706 0.634281
vt 0.231806 0.369201
vt 0.335975 0.863304
vt 0.446860 0.447780
vt 0.468709 0.447621
vt 0.229569 0.346480
vt 0.067034 0.708738
vt 0.231806 0.323758
vt 0.491431 0.447621
vt 0.514152 0.447780
vt 0.585420 0.167139
vt 0.138404 0.907796
vt 0.535999 0.448092
vt 0.556133 0.448546
vt 0.260828 0.221014
vt 0.583182 0.144418
vt 0.953840 0.436152
vt 0.585420 0.121696
vt 0.280960 0.220489
vt 0.302806 0.220098
vt 0.570006 0.054440
vt 0.325526 0.219858
vt 0.877736 0.635241
vt 0.348247 0.219777
vt 0.567768 0.031718
vt 0.375653 0.664215
vt 0.570006 0.008997
vt 0.370097 0.219858
vt 0.390234 0.220098
vt 0.426920 0.221279
vt 0.915788 0.851703
vt 0.559690 0.167139
vt 0.407886 0.220489
vt 0.444567 0.220702
vt 0.557452 0.144418
vt 0.029019 0.708738
vt 0.559690 0.121696
vt 0.464701 0.220248
vt 0.486548 0.219936
vt 0.881780 0.407577
vt 0.509269 0.219777
vt 0.533961 0.167139
vt 0.531990 0.219777
vt 0.531723 0.144418
vt 0.919832 0.208308
vt 0.553839 0.219936
vt 0.533961 0.121696
vt 0.009381 0.492834
vt 0.573976 0.220248
vt 0.029518 0.492522
vt 0.239352 0.679983
vt 0.231806 0.432638
vt 0.495678 0.140874
vt 0.448253 0.852437
vt 0.497567 0.121696
vt 0.172431 0.881574
vt 0.467431 0.852506
vt 0.172431 0.841686
vt 0.467713 0.812636
vt 0.910940 0.480726
vt 0.956996 0.248184
vt 0.910940 0.440910
vt 0.461522 0.047353
vt 0.956996 0.208308
vt 0.974005 0.624630
vt 0.939998 0.208418
vt 0.459633 0.028175
vt 0.973546 0.584751
vt 0.939538 0.248297
vt 0.461522 0.008997
vt 0.991003 0.624740
vt 0.100238 0.902422
vt 0.991003 0.584864
vt 0.100238 0.862606
vt 0.802391 0.356947
vt 0.232850 0.742957
vt 0.533612 0.103703
vt 0.802673 0.396817
vt 0.232850 0.703069
vt 0.821851 0.396749
vt 0.531723 0.084525
vt 0.822087 0.356877
vt 0.533612 0.065347
vt 0.872495 0.847306
vt 0.840293 0.396817
vt 0.872495 0.807441
vt 0.841027 0.356947
vt 0.330734 0.709124
vt 0.743658 0.356947
vt 0.744392 0.396817
vt 0.330734 0.669259
vt 0.461521 0.160052
vt 0.459633 0.140874
vt 0.762834 0.396749
vt 0.762598 0.356877
vt 0.461521 0.121696
vt 0.782012 0.396817
vt 0.062195 0.902915
vt 0.062195 0.863027
vt 0.782294 0.356947
vt 0.134700 0.753573
vt 0.990114 0.693137
vt 0.497567 0.047353
vt 0.990114 0.653261
vt 0.134700 0.713685
vt 0.973116 0.653371
vt 0.495678 0.028175
vt 0.935953 0.841739
vt 0.935494 0.801860
vt 0.972657 0.693251
vt 0.952951 0.841849
vt 0.497567 0.008997
vt 0.948992 0.629836
vt 0.952951 0.801973
vt 0.948992 0.590020
vt 0.158300 0.629533
vt 0.872495 0.481061
vt 0.158583 0.669403
vt 0.497567 0.103703
vt 0.872495 0.441196
vt 0.495678 0.084525
vt 0.177761 0.669334
vt 0.177997 0.629463
vt 0.497567 0.065347
vt 0.196202 0.669403
vt 0.370412 0.858260
vt 0.370412 0.818395
vt 0.196937 0.629533
vt 0.263535 0.812870
vt 0.910940 0.697835
vt 0.264397 0.852748
vt 0.533612 0.047353
vt 0.910940 0.658019
vt 0.531723 0.028175
vt 0.279300 0.852693
vt 0.278840 0.812814
vt 0.296298 0.852803
vt 0.533612 0.008997
vt 0.024179 0.902915
vt 0.024179 0.863027
vt 0.296298 0.812927
vt 0.876941 0.253288
vt 0.487810 0.812636
vt 0.488092 0.852506
vt 0.876941 0.213400
vt 0.461522 0.103703
vt 0.459633 0.084525
vt 0.507270 0.852437
vt 0.507506 0.812566
vt 0.461522 0.065347
vt 0.914984 0.401992
vt 0.525712 0.852506
vt 0.914984 0.362176
vt 0.526447 0.812636
vt 0.429077 0.812636
vt 0.234111 0.525803
vt 0.429811 0.852506
vt 0.234111 0.485938
vt 0.497567 0.160052
vt 0.512157 0.140874
vt 0.623364 0.077301
vt 0.624936 0.093264
vt 0.157249 0.882735
vt 0.513729 0.124911
vt 0.895730 0.440195
vt 0.477684 0.044138
vt 0.614621 0.122504
vt 0.476112 0.028175
vt 0.613048 0.138467
vt 0.477684 0.012212
vt 0.614621 0.154430
vt 0.085028 0.903137
vt 0.217668 0.701908
vt 0.662027 0.122504
vt 0.549775 0.100488
vt 0.660455 0.138467
vt 0.548202 0.084525
vt 0.662027 0.154430
vt 0.856052 0.848404
vt 0.549775 0.068562
vt 0.314291 0.668161
vt 0.648640 0.061338
vt 0.477684 0.156837
vt 0.647067 0.077301
vt 0.476112 0.140874
vt 0.648640 0.093264
vt 0.477684 0.124911
vt 0.047012 0.904076
vt 0.123080 0.712722
vt 0.638324 0.122504
vt 0.513729 0.044138
vt 0.636751 0.138467
vt 0.512157 0.028175
vt 0.513729 0.012212
vt 0.638324 0.154430
vt 0.933782 0.630551
vt 0.856052 0.440098
vt 0.672343 0.009804
vt 0.513729 0.100488
vt 0.670771 0.025767
vt 0.512157 0.084525
vt 0.672343 0.041730
vt 0.513729 0.068562
vt 0.353969 0.859359
vt 0.895730 0.657304
vt 0.648640 0.009804
vt 0.549775 0.044138
vt 0.647067 0.025767
vt 0.548202 0.028175
vt 0.549775 0.012212
vt 0.648640 0.041730
vt 0.008997 0.904076
vt 0.861759 0.212239
vt 0.624936 0.009804
vt 0.477684 0.100488
vt 0.623364 0.025767
vt 0.476112 0.084525
vt 0.624936 0.041730
vt 0.899774 0.402707
vt 0.477684 0.068562
vt 0.217668 0.484839
vt 0.624936 0.061338
vt 0.513729 0.156837
vt 0.448017 0.812566
vt 0.447781 0.772694
vt 0.447545 0.732822
vt 0.447309 0.692951
vt 0.237304 0.388288
vt 0.172431 0.693056
vt 0.468765 0.664074
vt 0.172431 0.722022
vt 0.468560 0.693027
vt 0.172431 0.761910
vt 0.468278 0.732896
vt 0.172431 0.801798
vt 0.467996 0.772766
vt 0.910940 0.629087
vt 0.237304 0.304671
vt 0.956996 0.396772
vt 0.910940 0.600173
vt 0.956996 0.367814
vt 0.910940 0.560358
vt 0.956996 0.327937
vt 0.910940 0.520542
vt 0.956996 0.288061
vt 0.235174 0.283043
vt 0.971834 0.436152
vt 0.937826 0.396896
vt 0.972167 0.465112
vt 0.938160 0.367936
vt 0.972627 0.504992
vt 0.938619 0.328056
vt 0.973086 0.544871
vt 0.939079 0.288177
vt 0.237304 0.261415
vt 0.991003 0.436276
vt 0.100238 0.714245
vt 0.991003 0.465234
vt 0.100238 0.743159
vt 0.991003 0.505111
vt 0.100238 0.782975
vt 0.991003 0.544987
vt 0.100238 0.822791
vt 0.601233 0.053346
vt 0.801339 0.208385
vt 0.232850 0.891587
vt 0.801544 0.237338
vt 0.232850 0.862621
vt 0.801826 0.277208
vt 0.232850 0.822733
vt 0.802109 0.317078
vt 0.232850 0.782845
vt 0.599103 0.031718
vt 0.822967 0.208308
vt 0.822796 0.237262
vt 0.822559 0.277134
vt 0.822323 0.317005
vt 0.601233 0.010090
vt 0.872495 0.658897
vt 0.843765 0.208385
vt 0.872495 0.687846
vt 0.843231 0.237338
vt 0.872495 0.727711
vt 0.842497 0.277208
vt 0.872495 0.767576
vt 0.841762 0.317078
vt 0.237304 0.368107
vt 0.330734 0.857668
vt 0.740920 0.208385
vt 0.330734 0.828719
vt 0.741454 0.237338
vt 0.330734 0.788854
vt 0.742188 0.277208
vt 0.330734 0.748989
vt 0.742923 0.317078
vt 0.235174 0.346480
vt 0.761718 0.208308
vt 0.761889 0.237262
vt 0.762126 0.277134
vt 0.762362 0.317005
vt 0.062195 0.714397
vt 0.237304 0.324852
vt 0.783346 0.208385
vt 0.062195 0.743363
vt 0.783141 0.237338
vt 0.062195 0.783251
vt 0.782859 0.277208
vt 0.062195 0.823139
vt 0.782576 0.317078
vt 0.134700 0.902200
vt 0.590917 0.166046
vt 0.990114 0.841725
vt 0.134700 0.873235
vt 0.990114 0.812767
vt 0.134700 0.833347
vt 0.990114 0.772890
vt 0.134700 0.793460
vt 0.990114 0.733014
vt 0.588787 0.144418
vt 0.933782 0.653261
vt 0.970945 0.841849
vt 0.971279 0.812889
vt 0.934116 0.682221
vt 0.934575 0.722100
vt 0.971738 0.773010
vt 0.935034 0.761980
vt 0.972198 0.733130
vt 0.948992 0.441659
vt 0.590917 0.122790
vt 0.952951 0.653385
vt 0.948992 0.470573
vt 0.952951 0.682343
vt 0.948992 0.510389
vt 0.952951 0.722220
vt 0.948992 0.550205
vt 0.952951 0.762096
vt 0.575504 0.053346
vt 0.157249 0.480971
vt 0.872495 0.629605
vt 0.157454 0.509924
vt 0.872495 0.600656
vt 0.157736 0.549794
vt 0.872495 0.560791
vt 0.158018 0.589663
vt 0.872495 0.520926
vt 0.573374 0.031718
vt 0.178877 0.480894
vt 0.178705 0.509848
vt 0.178469 0.549720
vt 0.178233 0.589591
vt 0.575504 0.010090
vt 0.370412 0.669851
vt 0.199675 0.480971
vt 0.370412 0.698801
vt 0.199141 0.509924
vt 0.370412 0.738666
vt 0.198406 0.549794
vt 0.370412 0.778531
vt 0.197672 0.589663
vt 0.565188 0.166046
vt 0.910940 0.846196
vt 0.260322 0.664277
vt 0.910940 0.817282
vt 0.260948 0.693236
vt 0.910940 0.777466
vt 0.261810 0.733114
vt 0.910940 0.737651
vt 0.262672 0.772992
vt 0.563058 0.144418
vt 0.277128 0.664215
vt 0.277462 0.693175
vt 0.277921 0.733055
vt 0.278381 0.772934
vt 0.024179 0.714397
vt 0.565188 0.122790
vt 0.296298 0.664339
vt 0.024179 0.743363
vt 0.296298 0.693297
vt 0.024179 0.783251
vt 0.296298 0.733174
vt 0.024179 0.823139
vt 0.296298 0.773050
vt 0.539459 0.166046
vt 0.876941 0.401918
vt 0.486759 0.664074
vt 0.876941 0.372952
vt 0.486964 0.693027
vt 0.876941 0.333064
vt 0.487246 0.732896
vt 0.876941 0.293176
vt 0.487528 0.772766
vt 0.537328 0.144418
vt 0.508386 0.663996
vt 0.508215 0.692951
vt 0.507979 0.732822
vt 0.507743 0.772694
vt 0.914984 0.213815
vt 0.539459 0.122790
vt 0.529184 0.664074
vt 0.914984 0.242729
vt 0.528651 0.693027
vt 0.914984 0.282545
vt 0.527916 0.732896
vt 0.914984 0.322360
vt 0.527181 0.772766
vt 0.237304 0.431544
vt 0.426339 0.664074
vt 0.234111 0.674347
vt 0.426873 0.693027
vt 0.234111 0.645397
vt 0.427607 0.732896
vt 0.234111 0.605532
vt 0.428342 0.772766
vt 0.234111 0.565667
vt 0.447137 0.663996
vt 0.235174 0.409916
s 0
f 66/104/1 282/550/1 281/546/1
f 282/550/2 67/106/2 283/551/2
f 67/106/3 284/554/3 283/551/3
f 68/108/4 285/555/4 284/554/4
f 285/556/5 70/113/5 286/560/5
f 70/113/6 287/561/6 286/560/6
f 71/115/7 288/563/7 287/561/7
f 288/563/8 73/119/8 289/565/8
f 73/119/9 290/569/9 289/565/9
f 290/569/10 75/123/10 291/571/10
f 75/124/11 292/574/11 291/570/11
f 292/574/12 77/128/12 293/575/12
f 77/128/13 294/579/13 293/575/13
f 78/130/14 295/580/14 294/579/14
f 79/132/15 296/583/15 295/580/15
f 296/583/16 81/136/16 297/584/16
f 81/137/17 298/589/17 297/585/17
f 298/589/18 83/141/18 299/590/18
f 83/141/19 300/592/19 299/590/19
f 84/143/20 301/594/20 300/592/20
f 301/594/21 86/147/21 302/598/21
f 302/598/22 87/149/22 303/599/22
f 87/149/23 304/603/23 303/599/23
f 88/152/24 305/604/24 304/600/24
f 305/604/25 90/156/25 306/608/25
f 90/156/26 307/609/26 306/608/26
f 91/158/27 308/611/27 307/609/27
f 92/160/28 309/613/28 308/611/28
f 93/162/29 310/616/29 309/613/29
f 94/164/30 311/619/30 310/616/30
f 30/46/31 112/205/31 32/51/31
f 95/167/32 312/620/32 311/618/32
f 96/169/33 281/546/33 312/620/33
f 31/49/34 47/74/34 63/99/34
f 4/6/35 66/105/35 2/3/35
f 4/6/35 67/107/35 65/103/35
f 8/12/35 67/107/35 6/9/35
f 8/12/35 69/112/35 68/109/35
f 12/18/35 69/112/35 10/15/35
f 12/18/35 71/116/35 70/114/35
f 16/25/35 71/116/35 14/21/35
f 16/25/35 73/120/35 72/118/35
f 20/31/35 73/120/35 18/28/35
f 22/34/35 74/122/35 20/31/35
f 24/37/35 75/125/35 22/34/35
f 24/37/35 77/129/35 76/127/35
f 28/43/35 77/129/35 26/40/35
f 30/47/35 78/131/35 28/43/35
f 32/50/35 79/133/35 30/47/35
f 34/53/35 80/135/35 32/50/35
f 34/53/35 82/140/35 81/138/35
f 38/59/35 82/140/35 36/56/35
f 40/62/35 83/142/35 38/59/35
f 42/66/35 84/144/35 40/62/35
f 42/66/35 86/148/35 85/146/35
f 44/69/35 87/150/35 86/148/35
f 48/75/35 87/150/35 46/72/35
f 50/78/35 88/153/35 48/75/35
f 50/78/35 90/157/35 89/155/35
f 52/81/35 91/159/35 90/157/35
f 56/88/35 91/159/35 54/84/35
f 58/91/35 92/161/35 56/88/35
f 58/91/35 94/165/35 93/163/35
f 60/94/35 95/168/35 94/165/35
f 62/97/35 96/170/35 95/168/35
f 64/100/35 66/105/35 96/170/35
f 115/210/35 107/193/35 99/176/35
f 4/7/36 99/177/36 6/10/36
f 58/92/37 126/235/37 60/95/37
f 32/51/38 113/207/38 34/54/38
f 6/10/39 100/179/39 8/13/39
f 60/95/40 127/237/40 62/98/40
f 34/54/41 114/209/41 36/57/41
f 8/13/42 101/181/42 10/16/42
f 62/98/43 128/239/43 64/101/43
f 36/57/44 115/211/44 38/60/44
f 10/16/45 102/183/45 12/19/45
f 64/101/46 98/174/46 2/2/46
f 38/60/47 116/213/47 40/63/47
f 12/19/48 103/185/48 14/22/48
f 40/63/49 117/215/49 42/65/49
f 14/22/50 104/187/50 16/24/50
f 42/67/51 118/218/51 44/70/51
f 16/26/52 105/190/52 18/29/52
f 44/70/53 119/220/53 46/73/53
f 18/29/54 106/192/54 20/32/54
f 46/73/55 120/222/55 48/76/55
f 20/32/56 107/194/56 22/35/56
f 48/76/57 121/224/57 50/79/57
f 22/35/58 108/196/58 24/38/58
f 50/79/59 122/226/59 52/82/59
f 24/38/60 109/198/60 26/41/60
f 54/85/61 122/226/61 123/227/61
f 26/41/62 110/200/62 28/44/62
f 54/86/63 124/231/63 56/89/63
f 30/48/64 110/200/64 111/201/64
f 2/4/65 97/172/65 4/7/65
f 56/89/66 125/233/66 58/92/66
f 235/467/67 438/903/67 234/464/67
f 154/308/34 130/243/34 155/311/34
f 156/312/34 130/243/34 131/245/34
f 164/330/68 329/661/68 368/751/68
f 234/464/67 437/901/67 233/462/67
f 158/317/34 133/252/34 159/320/34
f 160/322/34 133/252/34 134/253/34
f 196/396/69 317/632/69 131/246/69
f 233/462/67 436/898/67 298/587/67
f 162/327/34 136/260/34 163/329/34
f 163/329/34 137/263/34 164/331/34
f 271/526/70 357/723/70 475/974/70
f 162/326/71 326/654/71 135/258/71
f 166/336/34 139/269/34 167/338/34
f 168/339/34 139/269/34 140/270/34
f 271/526/70 474/972/70 270/524/70
f 195/394/69 316/630/69 196/396/69
f 171/347/34 141/274/34 142/276/34
f 171/347/34 143/279/34 172/348/34
f 270/524/70 473/970/70 269/522/70
f 195/394/69 394/812/69 395/814/69
f 175/356/34 144/282/34 145/284/34
f 175/356/34 146/287/34 176/357/34
f 160/321/72 323/649/72 365/743/72
f 244/480/73 341/690/73 143/280/73
f 179/365/34 147/289/34 148/293/34
f 179/365/34 149/294/34 180/366/34
f 269/522/70 472/967/70 310/615/70
f 194/392/69 393/810/69 394/812/69
f 183/374/34 150/298/34 151/301/34
f 183/374/34 152/303/34 184/375/34
f 193/390/69 392/807/69 393/810/69
f 1/1/74 154/308/74 3/5/74
f 3/5/75 155/311/75 5/8/75
f 5/8/76 156/312/76 7/11/76
f 9/14/77 156/312/77 157/315/77
f 9/14/78 158/317/78 11/17/78
f 11/17/79 159/320/79 13/20/79
f 15/23/80 159/320/80 160/322/80
f 15/23/81 161/324/81 17/27/81
f 17/27/82 162/327/82 19/30/82
f 19/30/83 163/329/83 21/33/83
f 21/33/84 164/331/84 23/36/84
f 23/36/85 165/333/85 25/39/85
f 27/42/86 165/333/86 166/336/86
f 27/42/87 167/338/87 29/45/87
f 29/45/88 168/339/88 31/49/88
f 31/49/89 169/342/89 33/52/89
f 35/55/90 169/342/90 170/345/90
f 35/55/91 171/347/91 37/58/91
f 37/58/92 172/348/92 39/61/92
f 39/61/93 173/351/93 41/64/93
f 43/68/94 173/351/94 174/354/94
f 45/71/95 174/354/95 175/356/95
f 45/71/96 176/357/96 47/74/96
f 49/77/97 176/357/97 177/360/97
f 49/77/98 178/363/98 51/80/98
f 51/80/99 179/365/99 53/83/99
f 53/83/100 180/366/100 55/87/100
f 57/90/101 180/366/101 181/369/101
f 59/93/102 181/369/102 182/372/102
f 59/93/103 183/374/103 61/96/103
f 63/99/104 183/374/104 184/375/104
f 63/99/105 153/306/105 1/1/105
f 158/318/106 320/642/106 132/250/106
f 231/458/107 334/671/107 232/460/107
f 188/384/108 314/626/108 315/628/108
f 231/458/107 430/885/107 431/887/107
f 276/536/32 152/304/32 151/300/32
f 276/536/32 279/542/32 280/544/32
f 274/532/32 279/542/32 275/534/32
f 273/530/32 278/540/32 274/532/32
f 272/528/30 151/302/30 150/297/30
f 271/527/30 276/537/30 272/528/30
f 270/525/30 275/535/30 271/527/30
f 269/523/30 274/533/30 270/525/30
f 281/547/109 388/798/109 480/986/109
f 156/313/69 317/632/69 362/735/69
f 230/456/107 429/883/107 430/885/107
f 229/454/107 428/880/107 429/883/107
f 267/518/110 352/712/110 268/521/110
f 285/557/111 392/808/111 284/552/111
f 236/469/67 338/683/67 339/685/67
f 267/518/110 466/958/110 467/960/110
f 264/513/27 149/295/27 148/292/27
f 263/512/27 268/520/27 264/513/27
f 263/512/27 266/516/27 267/519/27
f 261/510/27 266/516/27 262/511/27
f 147/290/26 264/513/26 148/292/26
f 259/506/26 264/513/26 260/508/26
f 259/506/26 262/511/26 263/512/26
f 257/502/26 262/511/26 258/504/26
f 187/382/108 315/628/108 391/805/108
f 154/309/108 314/626/108 129/242/108
f 286/559/112 396/816/112 285/557/112
f 266/517/110 465/956/110 466/958/110
f 187/382/108 390/803/108 186/380/108
f 184/376/113 360/731/113 153/307/113
f 265/514/110 464/954/110 465/956/110
f 186/380/108 389/801/108 185/378/108
f 145/285/23 256/500/23 146/286/23
f 252/493/23 255/498/23 256/500/23
f 250/491/23 255/498/23 251/492/23
f 250/491/23 253/494/23 254/496/23
f 248/488/22 145/285/22 144/281/22
f 248/488/22 251/492/22 252/493/22
f 246/484/22 251/492/22 247/486/22
f 245/482/22 250/491/22 246/484/22
f 185/378/108 388/799/108 282/548/108
f 223/446/114 333/669/114 427/878/114
f 289/566/115 404/834/115 288/562/115
f 181/370/116 382/788/116 182/371/116
f 223/446/114 426/876/114 222/444/114
f 290/568/117 408/843/117 289/566/117
f 180/367/118 381/786/118 181/370/118
f 222/444/114 425/874/114 221/442/114
f 142/277/19 244/481/19 143/278/19
f 240/473/19 243/478/19 244/481/19
f 239/472/19 242/476/19 243/478/19
f 238/471/19 241/474/19 242/476/19
f 236/468/18 142/277/18 141/273/18
f 236/468/18 239/472/18 240/473/18
f 234/465/18 239/472/18 235/466/18
f 233/463/18 238/471/18 234/465/18
f 232/460/107 335/675/107 140/272/107
f 221/442/114 424/871/114 294/577/114
f 259/507/119 351/710/119 463/951/119
f 293/576/120 416/857/120 292/572/120
f 259/507/119 462/949/119 258/505/119
f 177/361/121 379/781/121 178/362/121
f 294/578/122 420/866/122 293/576/122
f 258/505/119 461/947/119 257/503/119
f 228/453/15 140/271/15 139/268/15
f 227/452/15 232/461/15 228/453/15
f 227/452/15 230/457/15 231/459/15
f 226/451/15 229/455/15 230/457/15
f 138/266/14 228/453/14 139/268/14
f 224/448/14 227/452/14 228/453/14
f 222/445/14 227/452/14 223/447/14
f 222/445/14 225/450/14 226/451/14
f 280/545/123 359/728/123 152/305/123
f 176/358/124 378/778/124 177/361/124
f 257/503/119 460/944/119 306/606/119
f 219/438/68 328/658/68 220/441/68
f 297/586/125 428/881/125 296/581/125
f 224/449/114 332/668/114 333/669/114
f 173/352/126 376/772/126 174/353/126
f 219/438/68 418/862/68 419/864/68
f 216/432/11 137/264/11 136/259/11
f 215/430/11 220/440/11 216/432/11
f 215/430/11 218/436/11 219/439/11
f 214/428/11 217/434/11 218/436/11
f 212/424/10 136/261/10 135/256/10
f 211/422/10 216/433/10 212/424/10
f 210/420/10 215/431/10 211/422/10
f 209/418/10 214/429/10 210/420/10
f 298/588/127 432/889/127 297/586/127
f 172/349/128 375/770/128 173/352/128
f 218/437/68 417/860/68 418/862/68
f 217/435/68 416/858/68 417/860/68
f 255/499/129 346/700/129 256/501/129
f 272/529/70 356/721/70 357/723/70
f 300/591/130 444/916/130 440/907/130
f 255/499/129 454/935/129 455/937/129
f 204/409/7 134/255/7 133/251/7
f 203/408/7 208/416/7 204/409/7
f 203/408/7 206/412/7 207/414/7
f 201/406/7 206/412/7 202/407/7
f 132/249/6 204/409/6 133/251/6
f 199/402/6 204/409/6 200/404/6
f 198/400/6 203/408/6 199/402/6
f 197/398/6 202/407/6 198/400/6
f 169/343/131 373/765/131 170/344/131
f 302/597/132 444/916/132 301/595/132
f 254/497/129 453/933/129 454/935/129
f 168/340/133 372/762/133 169/343/133
f 220/441/68 329/661/68 137/262/68
f 253/495/129 452/931/129 453/933/129
f 211/423/71 327/656/71 415/855/71
f 304/602/134 456/939/134 452/930/134
f 192/389/3 131/247/3 130/244/3
f 191/388/3 196/397/3 192/389/3
f 190/387/3 195/395/3 191/388/3
f 189/386/3 194/393/3 190/387/3
f 188/385/2 130/244/2 129/240/2
f 187/383/2 192/389/2 188/385/2
f 186/381/2 191/388/2 187/383/2
f 185/379/2 190/387/2 186/381/2
f 165/334/135 370/756/135 166/335/135
f 211/423/71 414/853/71 210/421/71
f 305/605/136 460/945/136 456/939/136
f 184/377/123 359/728/123 383/791/123
f 268/521/110 353/715/110 149/296/110
f 311/618/32 277/538/32 273/530/32
f 310/616/30 273/531/30 269/523/30
f 165/334/137 368/752/137 369/754/137
f 210/421/71 413/851/71 209/419/71
f 307/609/27 265/515/27 261/510/27
f 306/608/26 261/510/26 257/502/26
f 209/419/71 412/849/71 290/567/71
f 182/373/70 356/721/70 150/299/70
f 249/490/23 304/603/23 253/494/23
f 245/482/22 303/599/22 249/490/22
f 247/487/138 345/697/138 451/928/138
f 308/612/139 468/962/139 464/953/139
f 237/470/19 300/592/19 241/474/19
f 298/589/18 237/470/18 233/463/18
f 212/425/71 326/654/71 327/656/71
f 247/487/138 450/926/138 246/485/138
f 225/450/15 296/583/15 229/455/15
f 221/443/14 295/580/14 225/450/14
f 162/328/140 366/746/140 367/748/140
f 309/614/141 472/968/141 468/962/141
f 213/426/11 292/574/11 217/434/11
f 290/569/10 213/427/10 209/418/10
f 180/368/110 353/715/110 380/783/110
f 246/485/138 449/924/138 245/483/138
f 287/561/7 205/410/7 201/406/7
f 286/560/6 201/406/6 197/398/6
f 161/325/142 365/744/142 366/746/142
f 245/483/138 448/922/138 302/596/138
f 283/551/3 193/391/3 189/386/3
f 282/550/2 189/386/2 185/379/2
f 178/364/119 350/709/119 147/291/119
f 361/734/34 313/623/34 314/625/34
f 362/736/34 318/637/34 363/738/34
f 363/738/34 320/640/34 364/740/34
f 365/745/34 324/651/34 366/747/34
f 367/750/34 324/651/34 326/653/34
f 368/753/34 330/663/34 369/755/34
f 370/757/34 330/663/34 332/666/34
f 371/761/34 336/677/34 372/763/34
f 372/763/34 338/682/34 373/764/34
f 374/769/34 342/691/34 375/771/34
f 376/773/34 342/691/34 344/694/34
f 377/777/34 348/704/34 378/779/34
f 378/779/34 350/708/34 379/780/34
f 381/787/34 353/716/34 354/717/34
f 382/790/34 354/717/34 356/720/34
f 383/793/34 313/623/34 360/730/34
f 358/725/33 313/624/33 359/727/33
f 358/725/33 385/795/33 384/794/33
f 478/981/33 385/795/33 479/983/33
f 477/979/33 386/796/33 478/981/33
f 355/719/29 356/722/29 354/718/29
f 471/966/29 357/724/29 355/719/29
f 470/965/29 475/975/29 471/966/29
f 469/964/29 474/973/29 470/965/29
f 352/713/28 354/718/28 353/714/28
f 467/961/28 355/719/28 352/713/28
f 466/959/28 471/966/28 467/961/28
f 465/957/28 470/965/28 466/959/28
f 348/705/25 351/711/25 350/707/25
f 349/706/25 463/952/25 351/711/25
f 458/942/25 463/952/25 459/943/25
f 457/941/25 462/950/25 458/942/25
f 346/699/24 348/705/24 347/701/24
f 455/938/24 349/706/24 346/699/24
f 454/936/24 459/943/24 455/938/24
f 453/934/24 458/942/24 454/936/24
f 343/693/21 344/695/21 342/692/21
f 447/920/21 345/698/21 343/693/21
f 447/920/21 450/927/21 451/929/21
f 445/918/21 450/927/21 446/919/21
f 340/686/20 342/692/20 341/688/20
f 443/914/20 343/693/20 340/686/20
f 442/912/20 447/920/20 443/914/20
f 441/910/20 446/919/20 442/912/20
f 336/678/17 339/684/17 338/681/17
f 337/679/17 439/906/17 339/684/17
f 434/894/17 439/906/17 435/896/17
f 434/894/17 437/902/17 438/904/17
f 335/674/16 337/680/16 336/676/16
f 431/888/16 337/680/16 334/672/16
f 430/886/16 435/897/16 431/888/16
f 430/886/16 433/892/16 434/895/16
f 331/665/13 332/667/13 330/664/13
f 331/665/13 427/879/13 333/670/13
f 422/869/13 427/879/13 423/870/13
f 422/869/13 425/875/13 426/877/13
f 328/659/12 330/664/12 329/660/12
f 419/865/12 331/665/12 328/659/12
f 418/863/12 423/870/12 419/865/12
f 418/863/12 421/868/12 422/869/12
f 325/652/9 326/655/9 324/650/9
f 411/847/9 327/657/9 325/652/9
f 410/846/9 415/856/9 411/847/9
f 409/845/9 414/854/9 410/846/9
f 323/648/8 325/652/8 324/650/8
f 407/841/8 325/652/8 322/645/8
f 406/839/8 411/847/8 407/841/8
f 405/837/8 410/846/8 406/839/8
f 319/638/5 320/641/5 318/635/5
f 399/823/5 321/643/5 319/638/5
f 398/821/5 403/832/5 399/823/5
f 397/819/5 402/830/5 398/821/5
f 317/634/4 319/639/4 318/636/4
f 395/815/4 319/639/4 316/631/4
f 394/813/4 399/824/4 395/815/4
f 393/811/4 398/822/4 394/813/4
f 384/794/1 314/627/1 313/624/1
f 385/795/1 315/629/1 384/794/1
f 386/796/1 391/806/1 385/795/1
f 387/797/1 390/804/1 386/796/1
f 476/977/33 387/797/33 477/979/33
f 468/963/29 473/971/29 469/964/29
f 464/955/28 469/964/28 465/957/28
f 456/940/25 461/948/25 457/941/25
f 452/932/24 457/941/24 453/934/24
f 444/917/21 449/925/21 445/918/21
f 440/908/20 445/918/20 441/910/20
f 433/893/17 436/900/17 437/902/17
f 429/884/16 432/891/16 433/892/16
f 420/867/13 425/875/13 421/868/13
f 416/859/12 421/868/12 417/861/12
f 408/844/9 413/852/9 409/845/9
f 404/835/8 409/845/8 405/837/8
f 396/817/5 401/828/5 397/819/5
f 392/809/4 397/820/4 393/811/4
f 387/797/1 388/800/1 389/802/1
f 248/489/138 344/696/138 345/697/138
f 235/467/67 339/685/67 439/905/67
f 166/337/114 332/668/114 138/267/114
f 197/399/106 400/827/106 286/558/106
f 198/401/106 401/829/106 197/399/106
f 277/539/123 476/978/123 477/980/123
f 168/341/107 335/675/107 371/759/107
f 199/403/106 402/831/106 198/401/106
f 278/541/123 477/980/123 478/982/123
f 200/405/106 320/642/106 321/644/106
f 199/403/106 321/644/106 403/833/106
f 279/543/123 478/982/123 479/984/123
f 170/346/67 338/683/67 141/275/67
f 279/543/123 358/726/123 280/545/123
f 241/475/73 440/909/73 441/911/73
f 256/501/129 347/703/129 146/288/129
f 242/477/73 441/911/73 442/913/73
f 172/350/73 341/690/73 374/767/73
f 154/310/143 360/731/143 361/732/143
f 243/479/73 442/913/73 443/915/73
f 243/479/73 340/687/73 244/480/73
f 174/355/138 344/696/138 144/283/138
f 205/411/72 404/836/72 405/838/72
f 208/417/72 323/649/72 134/254/72
f 206/413/72 405/838/72 406/840/72
f 157/316/144 362/737/144 363/739/144
f 176/359/129 347/703/129 377/775/129
f 207/415/72 406/840/72 407/842/72
f 158/319/145 363/739/145 364/741/145
f 312/622/146 480/986/146 476/976/146
f 207/415/72 322/646/72 208/417/72
f 260/509/119 350/709/119 351/710/119
f 66/104/1 65/102/1 282/550/1
f 282/550/2 65/102/2 67/106/2
f 67/106/3 68/108/3 284/554/3
f 68/108/4 69/110/4 285/555/4
f 285/556/5 69/111/5 70/113/5
f 70/113/6 71/115/6 287/561/6
f 71/115/7 72/117/7 288/563/7
f 288/563/8 72/117/8 73/119/8
f 73/119/9 74/121/9 290/569/9
f 290/569/10 74/121/10 75/123/10
f 75/124/11 76/126/11 292/574/11
f 292/574/12 76/126/12 77/128/12
f 77/128/13 78/130/13 294/579/13
f 78/130/14 79/132/14 295/580/14
f 79/132/15 80/134/15 296/583/15
f 296/583/16 80/134/16 81/136/16
f 81/137/17 82/139/17 298/589/17
f 298/589/18 82/139/18 83/141/18
f 83/141/19 84/143/19 300/592/19
f 84/143/20 85/145/20 301/594/20
f 301/594/21 85/145/21 86/147/21
f 302/598/22 86/147/22 87/149/22
f 87/149/23 88/151/23 304/603/23
f 88/152/24 89/154/24 305/604/24
f 305/604/25 89/154/25 90/156/25
f 90/156/26 91/158/26 307/609/26
f 91/158/27 92/160/27 308/611/27
f 92/160/28 93/162/28 309/613/28
f 93/162/29 94/164/29 310/616/29
f 94/164/30 95/166/30 311/619/30
f 30/46/31 111/202/31 112/205/31
f 95/167/32 96/169/32 312/620/32
f 96/169/33 66/104/33 281/546/33
f 63/99/34 1/1/34 3/5/34
f 3/5/34 5/8/34 7/11/34
f 7/11/34 9/14/34 11/17/34
f 11/17/34 13/20/34 15/23/34
f 15/23/34 17/27/34 19/30/34
f 19/30/34 21/33/34 23/36/34
f 23/36/34 25/39/34 27/42/34
f 27/42/34 29/45/34 31/49/34
f 31/49/34 33/52/34 35/55/34
f 35/55/34 37/58/34 39/61/34
f 39/61/34 41/64/34 43/68/34
f 43/68/34 45/71/34 47/74/34
f 47/74/34 49/77/34 51/80/34
f 51/80/34 53/83/34 55/87/34
f 55/87/34 57/90/34 59/93/34
f 59/93/34 61/96/34 63/99/34
f 63/99/34 3/5/34 7/11/34
f 7/11/34 11/17/34 15/23/34
f 15/23/34 19/30/34 23/36/34
f 23/36/34 27/42/34 31/49/34
f 31/49/34 35/55/34 39/61/34
f 39/61/34 43/68/34 47/74/34
f 47/74/34 51/80/34 55/87/34
f 55/87/34 59/93/34 63/99/34
f 63/99/34 7/11/34 15/23/34
f 15/23/34 23/36/34 31/49/34
f 31/49/34 39/61/34 47/74/34
f 47/74/34 55/87/34 63/99/34
f 63/99/34 15/23/34 31/49/34
f 4/6/35 65/103/35 66/105/35
f 4/6/35 6/9/35 67/107/35
f 8/12/35 68/109/35 67/107/35
f 8/12/35 10/15/35 69/112/35
f 12/18/35 70/114/35 69/112/35
f 12/18/35 14/21/35 71/116/35
f 16/25/35 72/118/35 71/116/35
f 16/25/35 18/28/35 73/120/35
f 20/31/35 74/122/35 73/120/35
f 22/34/35 75/125/35 74/122/35
f 24/37/35 76/127/35 75/125/35
f 24/37/35 26/40/35 77/129/35
f 28/43/35 78/131/35 77/129/35
f 30/47/35 79/133/35 78/131/35
f 32/50/35 80/135/35 79/133/35
f 34/53/35 81/138/35 80/135/35
f 34/53/35 36/56/35 82/140/35
f 38/59/35 83/142/35 82/140/35
f 40/62/35 84/144/35 83/142/35
f 42/66/35 85/146/35 84/144/35
f 42/66/35 44/69/35 86/148/35
f 44/69/35 46/72/35 87/150/35
f 48/75/35 88/153/35 87/150/35
f 50/78/35 89/155/35 88/153/35
f 50/78/35 52/81/35 90/157/35
f 52/81/35 54/84/35 91/159/35
f 56/88/35 92/161/35 91/159/35
f 58/91/35 93/163/35 92/161/35
f 58/91/35 60/94/35 94/165/35
f 60/94/35 62/97/35 95/168/35
f 62/97/35 64/100/35 96/170/35
f 64/100/35 2/3/35 66/105/35
f 99/176/35 97/171/35 98/173/35
f 98/173/35 128/238/35 127/236/35
f 127/236/35 126/234/35 125/232/35
f 125/232/35 124/230/35 123/228/35
f 123/228/35 122/225/35 121/223/35
f 121/223/35 120/221/35 119/219/35
f 119/219/35 118/217/35 117/214/35
f 117/214/35 116/212/35 115/210/35
f 115/210/35 114/208/35 113/206/35
f 113/206/35 112/204/35 111/203/35
f 111/203/35 110/199/35 109/197/35
f 109/197/35 108/195/35 107/193/35
f 107/193/35 106/191/35 105/189/35
f 105/189/35 104/186/35 103/184/35
f 103/184/35 102/182/35 101/180/35
f 101/180/35 100/178/35 99/176/35
f 99/176/35 98/173/35 127/236/35
f 127/236/35 125/232/35 123/228/35
f 123/228/35 121/223/35 119/219/35
f 119/219/35 117/214/35 115/210/35
f 115/210/35 113/206/35 111/203/35
f 111/203/35 109/197/35 107/193/35
f 107/193/35 105/189/35 103/184/35
f 103/184/35 101/180/35 99/176/35
f 99/176/35 127/236/35 123/228/35
f 123/228/35 119/219/35 115/210/35
f 115/210/35 111/203/35 107/193/35
f 107/193/35 103/184/35 99/176/35
f 99/176/35 123/228/35 115/210/35
f 4/7/36 97/172/36 99/177/36
f 58/92/37 125/233/37 126/235/37
f 32/51/38 112/205/38 113/207/38
f 6/10/39 99/177/39 100/179/39
f 60/95/40 126/235/40 127/237/40
f 34/54/41 113/207/41 114/209/41
f 8/13/42 100/179/42 101/181/42
f 62/98/43 127/237/43 128/239/43
f 36/57/44 114/209/44 115/211/44
f 10/16/45 101/181/45 102/183/45
f 64/101/46 128/239/46 98/174/46
f 38/60/47 115/211/47 116/213/47
f 12/19/48 102/183/48 103/185/48
f 40/63/49 116/213/49 117/215/49
f 14/22/50 103/185/50 104/187/50
f 42/67/51 117/216/51 118/218/51
f 16/26/52 104/188/52 105/190/52
f 44/70/53 118/218/53 119/220/53
f 18/29/54 105/190/54 106/192/54
f 46/73/55 119/220/55 120/222/55
f 20/32/56 106/192/56 107/194/56
f 48/76/57 120/222/57 121/224/57
f 22/35/58 107/194/58 108/196/58
f 50/79/59 121/224/59 122/226/59
f 24/38/60 108/196/60 109/198/60
f 54/85/61 52/82/61 122/226/61
f 26/41/62 109/198/62 110/200/62
f 54/86/63 123/229/63 124/231/63
f 30/48/64 28/44/64 110/200/64
f 2/4/65 98/175/65 97/172/65
f 56/89/66 124/231/66 125/233/66
f 235/467/67 439/905/67 438/903/67
f 154/308/34 129/241/34 130/243/34
f 156/312/34 155/311/34 130/243/34
f 164/330/68 137/262/68 329/661/68
f 234/464/67 438/903/67 437/901/67
f 158/317/34 132/248/34 133/252/34
f 160/322/34 159/320/34 133/252/34
f 196/396/69 316/630/69 317/632/69
f 233/462/67 437/901/67 436/898/67
f 162/327/34 135/257/34 136/260/34
f 163/329/34 136/260/34 137/263/34
f 271/526/70 272/529/70 357/723/70
f 162/326/71 367/749/71 326/654/71
f 166/336/34 138/265/34 139/269/34
f 168/339/34 167/338/34 139/269/34
f 271/526/70 475/974/70 474/972/70
f 195/394/69 395/814/69 316/630/69
f 171/347/34 170/345/34 141/274/34
f 171/347/34 142/276/34 143/279/34
f 270/524/70 474/972/70 473/970/70
f 195/394/69 194/392/69 394/812/69
f 175/356/34 174/354/34 144/282/34
f 175/356/34 145/284/34 146/287/34
f 160/321/72 134/254/72 323/649/72
f 244/480/73 340/687/73 341/690/73
f 179/365/34 178/363/34 147/289/34
f 179/365/34 148/293/34 149/294/34
f 269/522/70 473/970/70 472/967/70
f 194/392/69 193/390/69 393/810/69
f 183/374/34 182/372/34 150/298/34
f 183/374/34 151/301/34 152/303/34
f 193/390/69 284/553/69 392/807/69
f 1/1/74 153/306/74 154/308/74
f 3/5/75 154/308/75 155/311/75
f 5/8/76 155/311/76 156/312/76
f 9/14/77 7/11/77 156/312/77
f 9/14/78 157/315/78 158/317/78
f 11/17/79 158/317/79 159/320/79
f 15/23/80 13/20/80 159/320/80
f 15/23/81 160/322/81 161/324/81
f 17/27/82 161/324/82 162/327/82
f 19/30/83 162/327/83 163/329/83
f 21/33/84 163/329/84 164/331/84
f 23/36/85 164/331/85 165/333/85
f 27/42/86 25/39/86 165/333/86
f 27/42/87 166/336/87 167/338/87
f 29/45/88 167/338/88 168/339/88
f 31/49/89 168/339/89 169/342/89
f 35/55/90 33/52/90 169/342/90
f 35/55/91 170/345/91 171/347/91
f 37/58/92 171/347/92 172/348/92
f 39/61/93 172/348/93 173/351/93
f 43/68/94 41/64/94 173/351/94
f 45/71/95 43/68/95 174/354/95
f 45/71/96 175/356/96 176/357/96
f 49/77/97 47/74/97 176/357/97
f 49/77/98 177/360/98 178/363/98
f 51/80/99 178/363/99 179/365/99
f 53/83/100 179/365/100 180/366/100
f 57/90/101 55/87/101 180/366/101
f 59/93/102 57/90/102 181/369/102
f 59/93/103 182/372/103 183/374/103
f 63/99/104 61/96/104 183/374/104
f 63/99/105 184/375/105 153/306/105
f 158/318/106 364/742/106 320/642/106
f 231/458/107 431/887/107 334/671/107
f 188/384/108 129/242/108 314/626/108
f 231/458/107 230/456/107 430/885/107
f 276/536/32 280/544/32 152/304/32
f 276/536/32 275/534/32 279/542/32
f 274/532/32 278/540/32 279/542/32
f 273/530/32 277/538/32 278/540/32
f 272/528/30 276/537/30 151/302/30
f 271/527/30 275/535/30 276/537/30
f 270/525/30 274/533/30 275/535/30
f 269/523/30 273/531/30 274/533/30
f 281/547/109 282/549/109 388/798/109
f 156/313/69 131/246/69 317/632/69
f 230/456/107 229/454/107 429/883/107
f 229/454/107 296/582/107 428/880/107
f 267/518/110 467/960/110 352/712/110
f 285/557/147 396/816/147 392/808/147
f 236/469/67 141/275/67 338/683/67
f 267/518/110 266/517/110 466/958/110
f 264/513/27 268/520/27 149/295/27
f 263/512/27 267/519/27 268/520/27
f 263/512/27 262/511/27 266/516/27
f 261/510/27 265/515/27 266/516/27
f 147/290/26 260/508/26 264/513/26
f 259/506/26 263/512/26 264/513/26
f 259/506/26 258/504/26 262/511/26
f 257/502/26 261/510/26 262/511/26
f 187/382/108 188/384/108 315/628/108
f 154/309/108 361/733/108 314/626/108
f 286/559/148 400/825/148 396/816/148
f 266/517/110 265/514/110 465/956/110
f 187/382/108 391/805/108 390/803/108
f 184/376/113 383/792/113 360/731/113
f 265/514/110 308/610/110 464/954/110
f 186/380/108 390/803/108 389/801/108
f 145/285/23 252/493/23 256/500/23
f 252/493/23 251/492/23 255/498/23
f 250/491/23 254/496/23 255/498/23
f 250/491/23 249/490/23 253/494/23
f 248/488/22 252/493/22 145/285/22
f 248/488/22 247/486/22 251/492/22
f 246/484/22 250/491/22 251/492/22
f 245/482/22 249/490/22 250/491/22
f 185/378/108 389/801/108 388/799/108
f 223/446/114 224/449/114 333/669/114
f 289/566/115 408/843/115 404/834/115
f 181/370/116 381/786/116 382/788/116
f 223/446/114 427/878/114 426/876/114
f 290/568/117 412/848/117 408/843/117
f 180/367/118 380/784/118 381/786/118
f 222/444/114 426/876/114 425/874/114
f 142/277/19 240/473/19 244/481/19
f 240/473/19 239/472/19 243/478/19
f 239/472/19 238/471/19 242/476/19
f 238/471/19 237/470/19 241/474/19
f 236/468/18 240/473/18 142/277/18
f 236/468/18 235/466/18 239/472/18
f 234/465/18 238/471/18 239/472/18
f 233/463/18 237/470/18 238/471/18
f 232/460/107 334/671/107 335/675/107
f 221/442/114 425/874/114 424/871/114
f 259/507/119 260/509/119 351/710/119
f 293/576/149 420/866/149 416/857/149
f 259/507/119 463/951/119 462/949/119
f 177/361/121 378/778/121 379/781/121
f 294/578/122 424/872/122 420/866/122
f 258/505/119 462/949/119 461/947/119
f 228/453/15 232/461/15 140/271/15
f 227/452/15 231/459/15 232/461/15
f 227/452/15 226/451/15 230/457/15
f 226/451/15 225/450/15 229/455/15
f 138/266/14 224/448/14 228/453/14
f 224/448/14 223/447/14 227/452/14
f 222/445/14 226/451/14 227/452/14
f 222/445/14 221/443/14 225/450/14
f 280/545/123 358/726/123 359/728/123
f 176/358/124 377/776/124 378/778/124
f 257/503/119 461/947/119 460/944/119
f 219/438/68 419/864/68 328/658/68
f 297/586/125 432/889/125 428/881/125
f 224/449/114 138/267/114 332/668/114
f 173/352/126 375/770/126 376/772/126
f 219/438/68 218/437/68 418/862/68
f 216/432/11 220/440/11 137/264/11
f 215/430/11 219/439/11 220/440/11
f 215/430/11 214/428/11 218/436/11
f 214/428/11 213/426/11 217/434/11
f 212/424/10 216/433/10 136/261/10
f 211/422/10 215/431/10 216/433/10
f 210/420/10 214/429/10 215/431/10
f 209/418/10 213/427/10 214/429/10
f 298/588/127 436/899/127 432/889/127
f 172/349/128 374/768/128 375/770/128
f 218/437/68 217/435/68 417/860/68
f 217/435/68 292/573/68 416/858/68
f 255/499/129 455/937/129 346/700/129
f 272/529/70 150/299/70 356/721/70
f 300/591/130 301/595/130 444/916/130
f 255/499/129 254/497/129 454/935/129
f 204/409/7 208/416/7 134/255/7
f 203/408/7 207/414/7 208/416/7
f 203/408/7 202/407/7 206/412/7
f 201/406/7 205/410/7 206/412/7
f 132/249/6 200/404/6 204/409/6
f 199/402/6 203/408/6 204/409/6
f 198/400/6 202/407/6 203/408/6
f 197/398/6 201/406/6 202/407/6
f 169/343/131 372/762/131 373/765/131
f 302/597/150 448/921/150 444/916/150
f 254/497/129 253/495/129 453/933/129
f 168/340/133 371/760/133 372/762/133
f 220/441/68 328/658/68 329/661/68
f 253/495/129 304/601/129 452/931/129
f 211/423/71 212/425/71 327/656/71
f 304/602/134 305/605/134 456/939/134
f 192/389/3 196/397/3 131/247/3
f 191/388/3 195/395/3 196/397/3
f 190/387/3 194/393/3 195/395/3
f 189/386/3 193/391/3 194/393/3
f 188/385/2 192/389/2 130/244/2
f 187/383/2 191/388/2 192/389/2
f 186/381/2 190/387/2 191/388/2
f 185/379/2 189/386/2 190/387/2
f 165/334/135 369/754/135 370/756/135
f 211/423/71 415/855/71 414/853/71
f 305/605/136 306/607/136 460/945/136
f 184/377/123 152/305/123 359/728/123
f 268/521/110 352/712/110 353/715/110
f 311/618/32 312/620/32 277/538/32
f 310/616/30 311/619/30 273/531/30
f 165/334/137 164/332/137 368/752/137
f 210/421/71 414/853/71 413/851/71
f 307/609/27 308/611/27 265/515/27
f 306/608/26 307/609/26 261/510/26
f 209/419/71 413/851/71 412/849/71
f 182/373/70 382/789/70 356/721/70
f 249/490/23 303/599/23 304/603/23
f 245/482/22 302/598/22 303/599/22
f 247/487/138 248/489/138 345/697/138
f 308/612/151 309/614/151 468/962/151
f 237/470/19 299/590/19 300/592/19
f 298/589/18 299/590/18 237/470/18
f 212/425/71 135/258/71 326/654/71
f 247/487/138 451/928/138 450/926/138
f 225/450/15 295/580/15 296/583/15
f 221/443/14 294/579/14 295/580/14
f 162/328/140 161/325/140 366/746/140
f 309/614/152 310/617/152 472/968/152
f 213/426/11 291/570/11 292/574/11
f 290/569/10 291/571/10 213/427/10
f 180/368/110 149/296/110 353/715/110
f 246/485/138 450/926/138 449/924/138
f 287/561/7 288/563/7 205/410/7
f 286/560/6 287/561/6 201/406/6
f 161/325/142 160/323/142 365/744/142
f 245/483/138 449/924/138 448/922/138
f 283/551/3 284/554/3 193/391/3
f 282/550/2 283/551/2 189/386/2
f 178/364/119 379/782/119 350/709/119
f 361/734/34 360/730/34 313/623/34
f 362/736/34 317/633/34 318/637/34
f 363/738/34 318/637/34 320/640/34
f 365/745/34 323/647/34 324/651/34
f 367/750/34 366/747/34 324/651/34
f 368/753/34 329/662/34 330/663/34
f 370/757/34 369/755/34 330/663/34
f 371/761/34 335/673/34 336/677/34
f 372/763/34 336/677/34 338/682/34
f 374/769/34 341/689/34 342/691/34
f 376/773/34 375/771/34 342/691/34
f 377/777/34 347/702/34 348/704/34
f 378/779/34 348/704/34 350/708/34
f 381/787/34 380/785/34 353/716/34
f 382/790/34 381/787/34 354/717/34
f 383/793/34 359/729/34 313/623/34
f 358/725/33 384/794/33 313/624/33
f 358/725/33 479/983/33 385/795/33
f 478/981/33 386/796/33 385/795/33
f 477/979/33 387/797/33 386/796/33
f 355/719/29 357/724/29 356/722/29
f 471/966/29 475/975/29 357/724/29
f 470/965/29 474/973/29 475/975/29
f 469/964/29 473/971/29 474/973/29
f 352/713/28 355/719/28 354/718/28
f 467/961/28 471/966/28 355/719/28
f 466/959/28 470/965/28 471/966/28
f 465/957/28 469/964/28 470/965/28
f 348/705/25 349/706/25 351/711/25
f 349/706/25 459/943/25 463/952/25
f 458/942/25 462/950/25 463/952/25
f 457/941/25 461/948/25 462/950/25
f 346/699/24 349/706/24 348/705/24
f 455/938/24 459/943/24 349/706/24
f 454/936/24 458/942/24 459/943/24
f 453/934/24 457/941/24 458/942/24
f 343/693/21 345/698/21 344/695/21
f 447/920/21 451/929/21 345/698/21
f 447/920/21 446/919/21 450/927/21
f 445/918/21 449/925/21 450/927/21
f 340/686/20 343/693/20 342/692/20
f 443/914/20 447/920/20 343/693/20
f 442/912/20 446/919/20 447/920/20
f 441/910/20 445/918/20 446/919/20
f 336/678/17 337/679/17 339/684/17
f 337/679/17 435/896/17 439/906/17
f 434/894/17 438/904/17 439/906/17
f 434/894/17 433/893/17 437/902/17
f 335/674/16 334/672/16 337/680/16
f 431/888/16 435/897/16 337/680/16
f 430/886/16 434/895/16 435/897/16
f 430/886/16 429/884/16 433/892/16
f 331/665/13 333/670/13 332/667/13
f 331/665/13 423/870/13 427/879/13
f 422/869/13 426/877/13 427/879/13
f 422/869/13 421/868/13 425/875/13
f 328/659/12 331/665/12 330/664/12
f 419/865/12 423/870/12 331/665/12
f 418/863/12 422/869/12 423/870/12
f 418/863/12 417/861/12 421/868/12
f 325/652/9 327/657/9 326/655/9
f 411/847/9 415/856/9 327/657/9
f 410/846/9 414/854/9 415/856/9
f 409/845/9 413/852/9 414/854/9
f 323/648/8 322/645/8 325/652/8
f 407/841/8 411/847/8 325/652/8
f 406/839/8 410/846/8 411/847/8
f 405/837/8 409/845/8 410/846/8
f 319/638/5 321/643/5 320/641/5
f 399/823/5 403/832/5 321/643/5
f 398/821/5 402/830/5 403/832/5
f 397/819/5 401/828/5 402/830/5
f 317/634/4 316/631/4 319/639/4
f 395/815/4 399/824/4 319/639/4
f 394/813/4 398/822/4 399/824/4
f 393/811/4 397/820/4 398/822/4
f 384/794/1 315/629/1 314/627/1
f 385/795/1 391/806/1 315/629/1
f 386/796/1 390/804/1 391/806/1
f 387/797/1 389/802/1 390/804/1
f 476/977/33 480/985/33 387/797/33
f 468/963/29 472/969/29 473/971/29
f 464/955/28 468/963/28 469/964/28
f 456/940/25 460/946/25 461/948/25
f 452/932/24 456/940/24 457/941/24
f 444/917/21 448/923/21 449/925/21
f 440/908/20 444/917/20 445/918/20
f 433/893/17 432/890/17 436/900/17
f 429/884/16 428/882/16 432/891/16
f 420/867/13 424/873/13 425/875/13
f 416/859/12 420/867/12 421/868/12
f 408/844/9 412/850/9 413/852/9
f 404/835/8 408/844/8 409/845/8
f 396/817/5 400/826/5 401/828/5
f 392/809/4 396/818/4 397/820/4
f 387/797/1 480/985/1 388/800/1
f 248/489/138 144/283/138 344/696/138
f 235/467/67 236/469/67 339/685/67
f 166/337/114 370/758/114 332/668/114
f 197/399/106 401/829/106 400/827/106
f 198/401/106 402/831/106 401/829/106
f 277/539/123 312/621/123 476/978/123
f 168/341/107 140/272/107 335/675/107
f 199/403/106 403/833/106 402/831/106
f 278/541/123 277/539/123 477/980/123
f 200/405/106 132/250/106 320/642/106
f 199/403/106 200/405/106 321/644/106
f 279/543/123 278/541/123 478/982/123
f 170/346/67 373/766/67 338/683/67
f 279/543/123 479/984/123 358/726/123
f 241/475/73 300/593/73 440/909/73
f 256/501/129 346/700/129 347/703/129
f 242/477/73 241/475/73 441/911/73
f 172/350/73 143/280/73 341/690/73
f 154/310/143 153/307/143 360/731/143
f 243/479/73 242/477/73 442/913/73
f 243/479/73 443/915/73 340/687/73
f 174/355/138 376/774/138 344/696/138
f 205/411/72 288/564/72 404/836/72
f 208/417/72 322/646/72 323/649/72
f 206/413/72 205/411/72 405/838/72
f 157/316/144 156/314/144 362/737/144
f 176/359/129 146/288/129 347/703/129
f 207/415/72 206/413/72 406/840/72
f 158/319/145 157/316/145 363/739/145
f 312/622/146 281/547/146 480/986/146
f 207/415/72 407/842/72 322/646/72
f 260/509/119 147/291/119 350/709/119
