# Blender 3.3.1
# www.blender.org
o tee_pot_lid
v 0.000000 1.159194 -0.276893
v -0.000000 1.280474 -0.065092
v 0.054019 1.159194 -0.271573
v 0.012699 1.280474 -0.063841
v 0.105962 1.159194 -0.255816
v 0.024909 1.280474 -0.060137
v 0.153834 1.159194 -0.230228
v 0.036163 1.280474 -0.054122
v 0.195793 1.159194 -0.195793
v 0.046027 1.280474 -0.046027
v 0.230228 1.159194 -0.153834
v 0.054122 1.280474 -0.036163
v 0.255816 1.159194 -0.105962
v 0.060137 1.280474 -0.024910
v 0.271573 1.159194 -0.054019
v 0.063841 1.280474 -0.012699
v 0.276893 1.159194 0.000000
v 0.065092 1.280474 -0.000000
v 0.271573 1.159194 0.054019
v 0.063841 1.280474 0.012699
v 0.255816 1.159194 0.105962
v 0.060137 1.280474 0.024909
v 0.230228 1.159194 0.153834
v 0.054122 1.280474 0.036163
v 0.195793 1.159194 0.195793
v 0.046027 1.280474 0.046027
v 0.153834 1.159194 0.230228
v 0.036163 1.280474 0.054122
v 0.105962 1.159194 0.255816
v 0.024909 1.280474 0.060137
v 0.054019 1.159194 0.271573
v 0.012699 1.280474 0.063841
v 0.000000 1.159194 0.276893
v -0.000000 1.280474 0.065092
v -0.054019 1.159194 0.271573
v -0.012699 1.280474 0.063841
v -0.105962 1.159194 0.255816
v -0.024910 1.280474 0.060137
v -0.153834 1.159194 0.230228
v -0.036163 1.280474 0.054122
v -0.195793 1.159194 0.195793
v -0.046027 1.280474 0.046027
v -0.230228 1.159194 0.153834
v -0.054122 1.280474 0.036163
v -0.255816 1.159194 0.105962
v -0.060137 1.280474 0.024909
v -0.271573 1.159194 0.054019
v -0.063841 1.280474 0.012699
v -0.276893 1.159194 0.000000
v -0.065092 1.280474 -0.000000
v -0.271573 1.159194 -0.054019
v -0.063841 1.280474 -0.012699
v -0.255816 1.159194 -0.105962
v -0.060137 1.280474 -0.024910
v -0.230228 1.159194 -0.153834
v -0.054122 1.280474 -0.036163
v -0.195793 1.159194 -0.195793
v -0.046027 1.280474 -0.046027
v -0.153834 1.159194 -0.230228
v -0.036163 1.280474 -0.054122
v -0.105962 1.159194 -0.255816
v -0.024910 1.280474 -0.060137
v -0.054019 1.159194 -0.271573
v -0.012699 1.280474 -0.063841
v -0.000000 1.195779 -0.122950
v -0.000000 1.230531 -0.154224
v 0.030088 1.230531 -0.151261
v 0.023986 1.195779 -0.120588
v 0.059019 1.230531 -0.142485
v 0.047051 1.195779 -0.113591
v 0.085682 1.230531 -0.128233
v 0.068307 1.195779 -0.102229
v 0.109053 1.230531 -0.109053
v 0.086939 1.195779 -0.086939
v 0.128233 1.230531 -0.085682
v 0.102229 1.195779 -0.068307
v 0.142485 1.230531 -0.059019
v 0.113591 1.195779 -0.047051
v 0.151261 1.230531 -0.030088
v 0.120587 1.195779 -0.023986
v 0.154224 1.230531 0.000000
v 0.122950 1.195779 -0.000000
v 0.151261 1.230531 0.030088
v 0.120587 1.195779 0.023986
v 0.142485 1.230531 0.059019
v 0.113591 1.195779 0.047051
v 0.128233 1.230531 0.085683
v 0.102229 1.195779 0.068307
v 0.109053 1.230531 0.109053
v 0.086939 1.195779 0.086939
v 0.085682 1.230531 0.128233
v 0.068307 1.195779 0.102229
v 0.059019 1.230531 0.142485
v 0.047051 1.195779 0.113591
v 0.030088 1.230531 0.151261
v 0.023986 1.195779 0.120587
v -0.000000 1.230531 0.154224
v -0.000000 1.195779 0.122950
v -0.030088 1.230531 0.151261
v -0.023986 1.195779 0.120587
v -0.059019 1.230531 0.142485
v -0.047051 1.195779 0.113591
v -0.085683 1.230531 0.128233
v -0.068307 1.195779 0.102229
v -0.109053 1.230531 0.109053
v -0.086939 1.195779 0.086939
v -0.128233 1.230531 0.085683
v -0.102229 1.195779 0.068307
v -0.142485 1.230531 0.059019
v -0.113591 1.195779 0.047051
v -0.151261 1.230531 0.030088
v -0.120588 1.195779 0.023986
v -0.154225 1.230531 0.000000
v -0.122950 1.195779 -0.000000
v -0.151261 1.230531 -0.030088
v -0.120588 1.195779 -0.023986
v -0.142485 1.230531 -0.059019
v -0.113591 1.195779 -0.047051
v -0.128233 1.230531 -0.085682
v -0.102229 1.195779 -0.068307
v -0.109053 1.230531 -0.109053
v -0.086939 1.195779 -0.086939
v -0.085683 1.230531 -0.128233
v -0.068307 1.195779 -0.102229
v -0.059019 1.230531 -0.142485
v -0.047051 1.195779 -0.113591
v -0.030088 1.230531 -0.151261
v -0.023986 1.195779 -0.120588
v -0.054019 1.131317 0.271573
v -0.000000 1.131317 0.276893
v 0.054019 1.131317 0.271573
v 0.105962 1.131317 0.255816
v 0.153834 1.131317 0.230228
v 0.195793 1.131317 0.195793
v 0.230228 1.131317 0.153834
v 0.255816 1.131317 0.105962
v 0.271573 1.131317 0.054019
v 0.276893 1.131317 0.000000
v 0.271573 1.131317 -0.054019
v 0.255816 1.131317 -0.105962
v 0.230228 1.131317 -0.153834
v 0.195793 1.131317 -0.195793
v 0.153834 1.131317 -0.230228
v 0.105962 1.131317 -0.255816
v 0.054019 1.131317 -0.271573
v -0.000000 1.131317 -0.276893
v -0.105962 1.131317 0.255816
v -0.153834 1.131317 0.230228
v -0.195793 1.131317 0.195793
v -0.230228 1.131317 0.153834
v -0.255816 1.131317 0.105962
v -0.271573 1.131317 0.054019
v -0.276893 1.131317 0.000000
v -0.271573 1.131317 -0.054019
v -0.255816 1.131317 -0.105962
v -0.230228 1.131317 -0.153834
v -0.195793 1.131317 -0.195793
v -0.153834 1.131317 -0.230228
v -0.105962 1.131317 -0.255816
v -0.054019 1.131317 -0.271573
vn 0.0481 0.8714 -0.4883
vn 0.1424 0.8714 -0.4695
vn 0.2313 0.8714 -0.4327
vn 0.3112 0.8714 -0.3793
vn 0.3793 0.8714 -0.3112
vn 0.4327 0.8714 -0.2313
vn 0.4695 0.8714 -0.1424
vn 0.4883 0.8714 -0.0481
vn 0.4883 0.8714 0.0481
vn 0.4695 0.8714 0.1424
vn 0.4327 0.8714 0.2313
vn 0.3792 0.8714 0.3112
vn 0.3112 0.8714 0.3793
vn 0.2313 0.8714 0.4327
vn 0.1424 0.8714 0.4695
vn 0.0481 0.8714 0.4883
vn -0.0481 0.8714 0.4883
vn -0.1424 0.8714 0.4695
vn -0.2313 0.8714 0.4327
vn -0.3112 0.8714 0.3793
vn -0.3792 0.8714 0.3112
vn -0.4327 0.8714 0.2313
vn -0.4695 0.8714 0.1424
vn -0.4883 0.8714 0.0481
vn -0.4883 0.8714 -0.0481
vn -0.4695 0.8714 -0.1424
vn -0.4327 0.8714 -0.2313
vn -0.3793 0.8714 -0.3112
vn -0.3112 0.8714 -0.3793
vn -0.2313 0.8714 -0.4327
vn -0.0000 1.0000 -0.0000
vn -0.1424 0.8714 -0.4695
vn -0.0481 0.8714 -0.4883
vn 0.9952 -0.0000 -0.0980
vn -0.0228 0.9727 -0.2312
vn -0.0730 -0.6672 -0.7413
vn -0.0674 0.9727 -0.2223
vn -0.2162 -0.6672 -0.7128
vn -0.1095 0.9727 -0.2048
vn -0.3512 -0.6672 -0.6570
vn -0.1474 0.9727 -0.1795
vn -0.4726 -0.6672 -0.5758
vn -0.1795 0.9727 -0.1474
vn -0.5758 -0.6672 -0.4726
vn -0.2048 0.9727 -0.1095
vn -0.6570 -0.6672 -0.3512
vn -0.2223 0.9727 -0.0674
vn -0.7128 -0.6672 -0.2162
vn -0.2312 0.9727 -0.0228
vn -0.7413 -0.6672 -0.0730
vn -0.2312 0.9727 0.0228
vn -0.7413 -0.6672 0.0730
vn -0.2223 0.9727 0.0674
vn -0.7128 -0.6672 0.2162
vn -0.2048 0.9727 0.1095
vn -0.6570 -0.6672 0.3512
vn -0.1796 0.9727 0.1474
vn -0.5758 -0.6672 0.4726
vn -0.1474 0.9727 0.1795
vn -0.4726 -0.6672 0.5758
vn -0.1095 0.9727 0.2048
vn -0.3511 -0.6672 0.6570
vn -0.0674 0.9727 0.2223
vn -0.2162 -0.6672 0.7128
vn -0.0228 0.9727 0.2312
vn -0.0730 -0.6672 0.7413
vn 0.0228 0.9727 0.2312
vn 0.0730 -0.6672 0.7413
vn 0.0674 0.9727 0.2223
vn 0.2162 -0.6672 0.7128
vn 0.1095 0.9727 0.2048
vn 0.3511 -0.6672 0.6570
vn 0.1474 0.9727 0.1795
vn 0.4726 -0.6672 0.5758
vn 0.1795 0.9727 0.1474
vn 0.5758 -0.6672 0.4726
vn 0.2048 0.9727 0.1095
vn 0.6570 -0.6672 0.3511
vn 0.2223 0.9727 0.0674
vn 0.7128 -0.6672 0.2162
vn 0.2312 0.9727 0.0228
vn 0.7413 -0.6672 0.0730
vn 0.2312 0.9727 -0.0228
vn 0.7413 -0.6672 -0.0730
vn 0.2223 0.9727 -0.0674
vn 0.7128 -0.6672 -0.2162
vn 0.2048 0.9727 -0.1095
vn 0.6570 -0.6672 -0.3512
vn 0.1795 0.9727 -0.1474
vn 0.5758 -0.6672 -0.4726
vn 0.1474 0.9727 -0.1795
vn 0.4726 -0.6672 -0.5758
vn 0.1095 0.9727 -0.2048
vn 0.3512 -0.6672 -0.6570
vn 0.0674 0.9727 -0.2223
vn 0.2162 -0.6672 -0.7128
vn 0.0228 0.9727 -0.2312
vn 0.0730 -0.6672 -0.7413
vn -0.4714 -0.0000 0.8819
vn 0.9569 -0.0000 0.2903
vn -0.0980 -0.0000 -0.9952
vn 0.0980 -0.0000 -0.9952
vn -0.9569 -0.0000 0.2903
vn 0.4714 -0.0000 0.8819
vn 0.7730 -0.0000 -0.6344
vn -0.8819 -0.0000 -0.4714
vn -0.2903 -0.0000 0.9569
vn 0.9952 -0.0000 0.0980
vn -0.2903 -0.0000 -0.9569
vn -0.8819 -0.0000 0.4714
vn 0.6344 -0.0000 0.7730
vn 0.6344 -0.0000 -0.7730
vn -0.9569 -0.0000 -0.2903
vn -0.0980 -0.0000 0.9952
vn -0.0000 -1.0000 -0.0000
vn -0.7730 -0.0000 -0.6344
vn 0.8819 -0.0000 -0.4714
vn 0.2903 -0.0000 0.9569
vn -0.9952 -0.0000 0.0980
vn 0.2903 -0.0000 -0.9569
vn 0.8819 -0.0000 0.4714
vn -0.6344 -0.0000 0.7730
vn -0.6344 -0.0000 -0.7730
vn 0.9569 -0.0000 -0.2903
vn 0.0980 -0.0000 0.9952
vn -0.9952 -0.0000 -0.0980
vn 0.4714 -0.0000 -0.8819
vn 0.7730 -0.0000 0.6344
vn -0.7730 -0.0000 0.6344
vn -0.4714 -0.0000 -0.8819
vn 0.3113 0.8714 -0.3793
vn 0.3792 0.8714 -0.3112
vn 0.3793 0.8714 0.3112
vn -0.3793 0.8714 0.3112
vn -0.3792 0.8714 -0.3112
vn -0.3113 0.8714 -0.3793
vn -0.0001 1.0000 -0.0000
vn 0.0001 1.0000 -0.0000
vn -0.3511 -0.6672 -0.6570
vn -0.1796 0.9726 -0.1474
vn -0.1795 0.9727 0.1474
vn -0.1473 0.9727 0.1795
vn 0.0674 0.9726 0.2223
vn 0.1473 0.9727 0.1795
vn 0.6570 -0.6672 0.3512
vn 0.1796 0.9726 -0.1474
vt 0.004170 0.225788
vt 0.570588 0.360860
vt 0.583303 0.146785
vt 0.004170 0.274212
vt 0.570588 0.320596
vt 0.585524 0.157949
vt 0.537379 0.634012
vt 0.013617 0.321706
vt 0.570588 0.286355
vt 0.589880 0.168466
vt 0.032148 0.366444
vt 0.537379 0.593748
vt 0.596205 0.177931
vt 0.059051 0.406708
vt 0.537379 0.549010
vt 0.604254 0.185981
vt 0.093292 0.440949
vt 0.537379 0.501516
vt 0.613719 0.192305
vt 0.133556 0.467852
vt 0.537379 0.453092
vt 0.624236 0.196661
vt 0.178294 0.486383
vt 0.537379 0.405598
vt 0.635401 0.198882
vt 0.225788 0.495830
vt 0.537379 0.360860
vt 0.646784 0.198882
vt 0.274212 0.495830
vt 0.537379 0.320596
vt 0.657949 0.196661
vt 0.504169 0.634012
vt 0.321706 0.486383
vt 0.537379 0.286355
vt 0.668466 0.192305
vt 0.366444 0.467852
vt 0.504169 0.593748
vt 0.677931 0.185981
vt 0.406708 0.440949
vt 0.504169 0.549010
vt 0.685981 0.177931
vt 0.440949 0.406708
vt 0.504169 0.501516
vt 0.692305 0.168466
vt 0.467852 0.366444
vt 0.504169 0.453092
vt 0.696661 0.157949
vt 0.486383 0.321706
vt 0.504169 0.405598
vt 0.698882 0.146785
vt 0.495830 0.274212
vt 0.504169 0.360860
vt 0.698882 0.135401
vt 0.495830 0.225788
vt 0.504169 0.320596
vt 0.696661 0.124236
vt 0.603796 0.634012
vt 0.486383 0.178294
vt 0.504169 0.286355
vt 0.692305 0.113719
vt 0.467852 0.133556
vt 0.603796 0.593748
vt 0.685981 0.104254
vt 0.440949 0.093292
vt 0.603796 0.549010
vt 0.677931 0.096205
vt 0.406708 0.059051
vt 0.603796 0.501516
vt 0.668466 0.089880
vt 0.366444 0.032148
vt 0.603796 0.453092
vt 0.657949 0.085524
vt 0.321706 0.013617
vt 0.603796 0.405598
vt 0.646784 0.083303
vt 0.274212 0.004170
vt 0.603796 0.360860
vt 0.635401 0.083303
vt 0.225788 0.004170
vt 0.603796 0.320596
vt 0.624236 0.085524
vt 0.570588 0.634012
vt 0.178294 0.013617
vt 0.603796 0.286355
vt 0.613719 0.089880
vt 0.133556 0.032148
vt 0.570588 0.593748
vt 0.604254 0.096205
vt 0.093292 0.059051
vt 0.570588 0.549010
vt 0.596205 0.104254
vt 0.059051 0.093292
vt 0.570588 0.501516
vt 0.589880 0.113719
vt 0.032148 0.133556
vt 0.570588 0.453092
vt 0.585524 0.124236
vt 0.013617 0.178294
vt 0.570588 0.405598
vt 0.583303 0.135401
vt 0.637006 0.540972
vt 0.140843 0.239249
vt 0.536130 0.714130
vt 0.504170 0.154579
vt 0.668008 0.554124
vt 0.509432 0.722229
vt 0.509432 0.181032
vt 0.504170 0.695776
vt 0.531936 0.693041
vt 0.140843 0.260751
vt 0.519753 0.205950
vt 0.504170 0.668804
vt 0.145038 0.281840
vt 0.531936 0.671539
vt 0.534738 0.228376
vt 0.668008 0.562464
vt 0.509432 0.642351
vt 0.637006 0.575616
vt 0.153266 0.301705
vt 0.536130 0.650450
vt 0.553809 0.247448
vt 0.668008 0.587382
vt 0.165212 0.319583
vt 0.637006 0.595481
vt 0.576235 0.262432
vt 0.668008 0.613835
vt 0.180416 0.334788
vt 0.637006 0.616570
vt 0.601154 0.272754
vt 0.668008 0.640807
vt 0.198295 0.346734
vt 0.637006 0.638072
vt 0.627607 0.278016
vt 0.668008 0.667260
vt 0.218160 0.354962
vt 0.637006 0.659161
vt 0.654579 0.278016
vt 0.703047 0.512627
vt 0.668008 0.692178
vt 0.676347 0.520726
vt 0.239249 0.359157
vt 0.637006 0.679026
vt 0.681032 0.272754
vt 0.708308 0.539080
vt 0.260751 0.359157
vt 0.680542 0.541815
vt 0.705950 0.262432
vt 0.708308 0.566052
vt 0.281840 0.354962
vt 0.680542 0.563317
vt 0.728376 0.247448
vt 0.707350 0.286355
vt 0.703047 0.592505
vt 0.676347 0.299507
vt 0.301705 0.346734
vt 0.676347 0.584406
vt 0.747448 0.228376
vt 0.707350 0.311274
vt 0.319583 0.334788
vt 0.676347 0.319373
vt 0.762432 0.205950
vt 0.707350 0.337727
vt 0.334788 0.319583
vt 0.676347 0.340462
vt 0.772754 0.181032
vt 0.707350 0.364698
vt 0.346734 0.301705
vt 0.676347 0.361964
vt 0.778016 0.154578
vt 0.707350 0.391152
vt 0.354962 0.281840
vt 0.676347 0.383052
vt 0.778016 0.127607
vt 0.681609 0.504287
vt 0.707350 0.416070
vt 0.708309 0.496188
vt 0.359157 0.260751
vt 0.676347 0.402918
vt 0.772754 0.101154
vt 0.676348 0.477834
vt 0.359157 0.239249
vt 0.704114 0.475099
vt 0.762432 0.076235
vt 0.676348 0.450863
vt 0.354962 0.218160
vt 0.704114 0.453597
vt 0.747448 0.053809
vt 0.668008 0.286355
vt 0.681609 0.424409
vt 0.708309 0.432508
vt 0.637006 0.299507
vt 0.346734 0.198295
vt 0.728376 0.034738
vt 0.668008 0.311274
vt 0.637006 0.319373
vt 0.334788 0.180416
vt 0.705950 0.019753
vt 0.668008 0.337727
vt 0.637006 0.340462
vt 0.319583 0.165212
vt 0.681032 0.009432
vt 0.668008 0.364698
vt 0.637006 0.361964
vt 0.301705 0.153266
vt 0.654578 0.004170
vt 0.668008 0.391152
vt 0.637006 0.383053
vt 0.281840 0.145038
vt 0.627607 0.004170
vt 0.703047 0.600844
vt 0.668008 0.416070
vt 0.637006 0.402918
vt 0.676348 0.608943
vt 0.260751 0.140843
vt 0.601154 0.009432
vt 0.708308 0.627298
vt 0.680542 0.630032
vt 0.239249 0.140843
vt 0.576235 0.019753
vt 0.708308 0.654269
vt 0.680542 0.651534
vt 0.218160 0.145038
vt 0.553809 0.034738
vt 0.668008 0.424409
vt 0.703047 0.680722
vt 0.676347 0.672623
vt 0.637006 0.437562
vt 0.198295 0.153266
vt 0.534738 0.053809
vt 0.668008 0.449328
vt 0.637006 0.457427
vt 0.180416 0.165212
vt 0.519753 0.076235
vt 0.668008 0.475781
vt 0.637006 0.478516
vt 0.165212 0.180416
vt 0.509432 0.101154
vt 0.668008 0.502753
vt 0.637006 0.500018
vt 0.153266 0.198295
vt 0.504170 0.127607
vt 0.668008 0.529206
vt 0.637006 0.521107
vt 0.145038 0.218160
vt 0.529039 0.320596
vt 0.486383 0.821706
vt 0.495830 0.774212
vt 0.529039 0.360860
vt 0.495830 0.725788
vt 0.529039 0.405598
vt 0.486383 0.678294
vt 0.529039 0.453092
vt 0.529039 0.501516
vt 0.467852 0.633556
vt 0.440949 0.593292
vt 0.529039 0.549010
vt 0.406708 0.559051
vt 0.529039 0.593748
vt 0.562249 0.286355
vt 0.366444 0.532148
vt 0.529039 0.634012
vt 0.562249 0.320596
vt 0.321706 0.513617
vt 0.562249 0.360860
vt 0.274212 0.504170
vt 0.225788 0.504170
vt 0.562249 0.405598
vt 0.178294 0.513617
vt 0.562249 0.453092
vt 0.133556 0.532148
vt 0.562249 0.501516
vt 0.562249 0.549010
vt 0.093292 0.559051
vt 0.059051 0.593292
vt 0.562249 0.593748
vt 0.032148 0.633556
vt 0.595458 0.286355
vt 0.562249 0.634012
vt 0.013617 0.678294
vt 0.595458 0.320596
vt 0.595458 0.360860
vt 0.004170 0.725788
vt 0.628666 0.634012
vt 0.529039 0.286355
vt 0.467852 0.866444
vt 0.440949 0.906708
vt 0.628666 0.593748
vt 0.406708 0.940949
vt 0.628666 0.549010
vt 0.366444 0.967852
vt 0.628666 0.501516
vt 0.628666 0.453092
vt 0.321706 0.986383
vt 0.274212 0.995830
vt 0.628666 0.405598
vt 0.225788 0.995830
vt 0.628666 0.360860
vt 0.178294 0.986383
vt 0.628666 0.320596
vt 0.595458 0.634012
vt 0.628666 0.286355
vt 0.133556 0.967852
vt 0.093292 0.940949
vt 0.595458 0.593748
vt 0.059051 0.906708
vt 0.595458 0.549010
vt 0.032148 0.866444
vt 0.595458 0.501516
vt 0.013617 0.821706
vt 0.595458 0.453092
vt 0.595458 0.405598
vt 0.004170 0.774212
s 0
f 2/3/1 67/107/1 66/104/1
f 4/6/2 69/111/2 67/107/2
f 69/111/3 8/13/3 71/115/3
f 71/115/4 10/16/4 73/121/4
f 73/121/5 12/19/5 75/125/5
f 75/125/6 14/22/6 77/129/6
f 77/129/7 16/25/7 79/133/7
f 79/133/8 18/28/8 81/137/8
f 81/137/9 20/31/9 83/143/9
f 83/143/10 22/35/10 85/147/10
f 85/147/11 24/38/11 87/151/11
f 87/151/12 26/41/12 89/157/12
f 89/157/13 28/44/13 91/161/13
f 91/161/14 30/47/14 93/165/14
f 30/47/15 95/169/15 93/165/15
f 95/169/16 34/53/16 97/173/16
f 34/53/17 99/179/17 97/173/17
f 99/179/18 38/60/18 101/183/18
f 38/60/19 103/187/19 101/183/19
f 40/63/20 105/193/20 103/187/20
f 42/66/21 107/197/21 105/193/21
f 44/69/22 109/201/22 107/197/22
f 46/72/23 111/205/23 109/201/23
f 48/75/24 113/209/24 111/205/24
f 50/78/25 115/215/25 113/209/25
f 52/81/26 117/219/26 115/215/26
f 54/85/27 119/223/27 117/219/27
f 56/88/28 121/229/28 119/223/28
f 58/91/29 123/233/29 121/229/29
f 60/94/30 125/237/30 123/233/30
f 38/60/31 22/35/31 6/10/31
f 62/97/32 127/241/32 125/237/32
f 64/100/33 66/104/33 127/241/33
f 17/27/34 139/267/34 15/24/34
f 63/98/35 65/102/35 1/1/35
f 128/243/36 66/105/36 65/101/36
f 61/95/37 128/244/37 63/98/37
f 126/239/38 127/242/38 128/243/38
f 124/236/39 61/95/39 59/92/39
f 124/235/40 125/238/40 126/239/40
f 122/232/41 59/92/41 57/89/41
f 122/231/42 123/234/42 124/235/42
f 120/228/43 57/89/43 55/86/43
f 120/227/44 121/230/44 122/231/44
f 118/222/45 55/86/45 53/83/45
f 118/221/46 119/225/46 120/226/46
f 116/218/47 53/83/47 51/79/47
f 116/217/48 117/220/48 118/221/48
f 114/214/49 51/79/49 49/76/49
f 114/213/50 115/216/50 116/217/50
f 112/208/51 49/76/51 47/73/51
f 112/207/52 113/211/52 114/212/52
f 110/204/53 47/73/53 45/70/53
f 110/203/54 111/206/54 112/207/54
f 108/200/55 45/70/55 43/67/55
f 108/199/56 109/202/56 110/203/56
f 106/196/57 43/67/57 41/64/57
f 106/195/58 107/198/58 108/199/58
f 104/192/59 41/64/59 39/61/59
f 104/191/60 105/194/60 106/195/60
f 102/185/61 39/61/61 37/58/61
f 102/186/62 103/189/62 104/190/62
f 100/181/63 37/58/63 35/54/63
f 99/180/64 102/186/64 100/182/64
f 98/177/65 35/54/65 33/51/65
f 97/174/66 100/182/66 98/176/66
f 96/171/67 33/51/67 31/48/67
f 95/170/68 98/178/68 96/172/68
f 94/167/69 31/48/69 29/45/69
f 93/166/70 96/172/70 94/168/70
f 92/163/71 29/45/71 27/42/71
f 91/162/72 94/168/72 92/164/72
f 90/159/73 27/42/73 25/39/73
f 89/158/74 92/164/74 90/160/74
f 23/36/75 90/159/75 25/39/75
f 87/152/76 90/160/76 88/154/76
f 21/33/77 88/155/77 23/36/77
f 85/148/78 88/156/78 86/150/78
f 19/29/79 86/149/79 21/33/79
f 83/144/80 86/150/80 84/146/80
f 82/141/81 19/29/81 17/26/81
f 81/138/82 84/146/82 82/140/82
f 15/23/83 82/141/83 17/26/83
f 79/134/84 82/142/84 80/136/84
f 13/20/85 80/135/85 15/23/85
f 77/130/86 80/136/86 78/132/86
f 11/17/87 78/131/87 13/20/87
f 75/126/88 78/132/88 76/128/88
f 9/14/89 76/127/89 11/17/89
f 73/122/90 76/128/90 74/124/90
f 7/11/91 74/123/91 9/14/91
f 71/116/92 74/124/92 72/118/92
f 5/8/93 72/119/93 7/11/93
f 69/112/94 72/120/94 70/114/94
f 3/4/95 70/113/95 5/8/95
f 67/108/96 70/114/96 68/109/96
f 65/102/97 3/4/97 1/1/97
f 65/103/98 67/108/98 68/109/98
f 39/62/99 147/283/99 37/57/99
f 21/34/100 137/262/100 19/30/100
f 1/2/101 160/311/101 63/99/101
f 3/5/102 146/281/102 1/2/102
f 47/74/103 151/292/103 45/71/103
f 29/46/104 133/253/104 27/43/104
f 11/18/105 142/272/105 9/15/105
f 55/87/106 155/300/106 53/82/106
f 37/59/107 129/245/107 35/55/107
f 19/30/108 138/264/108 17/27/108
f 63/99/109 159/310/109 61/96/109
f 45/71/110 150/291/110 43/68/110
f 27/43/111 134/256/111 25/40/111
f 9/15/112 143/275/112 7/12/112
f 53/84/113 154/299/113 51/80/113
f 35/55/114 130/248/114 33/52/114
f 131/249/115 152/294/115 160/312/115
f 57/90/116 156/304/116 55/87/116
f 13/21/117 141/271/117 11/18/117
f 31/49/118 132/252/118 29/46/118
f 49/77/119 152/295/119 47/74/119
f 5/9/120 145/280/120 3/5/120
f 23/37/121 136/261/121 21/32/121
f 41/65/122 148/287/122 39/62/122
f 59/93/123 157/306/123 57/90/123
f 15/24/124 140/269/124 13/21/124
f 33/52/125 131/250/125 31/49/125
f 51/80/126 153/297/126 49/77/126
f 7/12/127 144/278/127 5/7/127
f 25/40/128 135/258/128 23/37/128
f 43/68/129 149/289/129 41/65/129
f 61/96/130 158/308/130 59/93/130
f 2/3/1 4/6/1 67/107/1
f 4/6/2 6/10/2 69/111/2
f 69/111/3 6/10/3 8/13/3
f 71/115/131 8/13/131 10/16/131
f 73/121/132 10/16/132 12/19/132
f 75/125/6 12/19/6 14/22/6
f 77/129/7 14/22/7 16/25/7
f 79/133/8 16/25/8 18/28/8
f 81/137/9 18/28/9 20/31/9
f 83/143/10 20/31/10 22/35/10
f 85/147/11 22/35/11 24/38/11
f 87/151/133 24/38/133 26/41/133
f 89/157/13 26/41/13 28/44/13
f 91/161/14 28/44/14 30/47/14
f 30/47/15 32/50/15 95/169/15
f 95/169/16 32/50/16 34/53/16
f 34/53/17 36/56/17 99/179/17
f 99/179/18 36/56/18 38/60/18
f 38/60/19 40/63/19 103/187/19
f 40/63/20 42/66/20 105/193/20
f 42/66/134 44/69/134 107/197/134
f 44/69/22 46/72/22 109/201/22
f 46/72/23 48/75/23 111/205/23
f 48/75/24 50/78/24 113/209/24
f 50/78/25 52/81/25 115/215/25
f 52/81/26 54/85/26 117/219/26
f 54/85/27 56/88/27 119/223/27
f 56/88/135 58/91/135 121/229/135
f 58/91/136 60/94/136 123/233/136
f 60/94/30 62/97/30 125/237/30
f 6/10/31 4/6/31 2/3/31
f 2/3/31 64/100/31 62/97/31
f 62/97/31 60/94/31 58/91/31
f 58/91/137 56/88/137 54/85/137
f 54/85/137 52/81/137 50/78/137
f 50/78/31 48/75/31 46/72/31
f 46/72/31 44/69/31 42/66/31
f 42/66/31 40/63/31 38/60/31
f 38/60/31 36/56/31 34/53/31
f 34/53/31 32/50/31 30/47/31
f 30/47/31 28/44/31 26/41/31
f 26/41/31 24/38/31 22/35/31
f 22/35/31 20/31/31 18/28/31
f 18/28/138 16/25/138 14/22/138
f 14/22/138 12/19/138 10/16/138
f 10/16/31 8/13/31 6/10/31
f 6/10/31 2/3/31 62/97/31
f 62/97/31 58/91/31 54/85/31
f 54/85/31 50/78/31 46/72/31
f 46/72/31 42/66/31 38/60/31
f 38/60/31 34/53/31 30/47/31
f 30/47/31 26/41/31 22/35/31
f 22/35/31 18/28/31 14/22/31
f 14/22/31 10/16/31 6/10/31
f 6/10/31 62/97/31 54/85/31
f 54/85/31 46/72/31 38/60/31
f 38/60/31 30/47/31 22/35/31
f 22/35/31 14/22/31 6/10/31
f 6/10/31 54/85/31 38/60/31
f 62/97/32 64/100/32 127/241/32
f 64/100/33 2/3/33 66/104/33
f 17/27/34 138/264/34 139/267/34
f 63/98/35 128/244/35 65/102/35
f 128/243/36 127/242/36 66/105/36
f 61/95/37 126/240/37 128/244/37
f 126/239/38 125/238/38 127/242/38
f 124/236/39 126/240/39 61/95/39
f 124/235/139 123/234/139 125/238/139
f 122/232/41 124/236/41 59/92/41
f 122/231/42 121/230/42 123/234/42
f 120/228/140 122/232/140 57/89/140
f 120/227/44 119/224/44 121/230/44
f 118/222/45 120/228/45 55/86/45
f 118/221/46 117/220/46 119/225/46
f 116/218/47 118/222/47 53/83/47
f 116/217/48 115/216/48 117/220/48
f 114/214/49 116/218/49 51/79/49
f 114/213/50 113/210/50 115/216/50
f 112/208/51 114/214/51 49/76/51
f 112/207/52 111/206/52 113/211/52
f 110/204/53 112/208/53 47/73/53
f 110/203/54 109/202/54 111/206/54
f 108/200/55 110/204/55 45/70/55
f 108/199/56 107/198/56 109/202/56
f 106/196/141 108/200/141 43/67/141
f 106/195/58 105/194/58 107/198/58
f 104/192/142 106/196/142 41/64/142
f 104/191/60 103/188/60 105/194/60
f 102/185/61 104/192/61 39/61/61
f 102/186/62 101/184/62 103/189/62
f 100/181/63 102/185/63 37/58/63
f 99/180/64 101/184/64 102/186/64
f 98/177/65 100/181/65 35/54/65
f 97/174/66 99/180/66 100/182/66
f 96/171/67 98/177/67 33/51/67
f 95/170/68 97/175/68 98/178/68
f 94/167/143 96/171/143 31/48/143
f 93/166/70 95/170/70 96/172/70
f 92/163/71 94/167/71 29/45/71
f 91/162/72 93/166/72 94/168/72
f 90/159/144 92/163/144 27/42/144
f 89/158/74 91/162/74 92/164/74
f 23/36/75 88/155/75 90/159/75
f 87/152/76 89/158/76 90/160/76
f 21/33/77 86/149/77 88/155/77
f 85/148/145 87/153/145 88/156/145
f 19/29/79 84/145/79 86/149/79
f 83/144/80 85/148/80 86/150/80
f 82/141/81 84/145/81 19/29/81
f 81/138/82 83/144/82 84/146/82
f 15/23/83 80/135/83 82/141/83
f 79/134/84 81/139/84 82/142/84
f 13/20/85 78/131/85 80/135/85
f 77/130/86 79/134/86 80/136/86
f 11/17/87 76/127/87 78/131/87
f 75/126/88 77/130/88 78/132/88
f 9/14/146 74/123/146 76/127/146
f 73/122/90 75/126/90 76/128/90
f 7/11/91 72/119/91 74/123/91
f 71/116/92 73/122/92 74/124/92
f 5/8/93 70/113/93 72/119/93
f 69/112/94 71/117/94 72/120/94
f 3/4/95 68/110/95 70/113/95
f 67/108/96 69/112/96 70/114/96
f 65/102/97 68/110/97 3/4/97
f 65/103/98 66/106/98 67/108/98
f 39/62/99 148/287/99 147/283/99
f 21/34/100 136/259/100 137/262/100
f 1/2/101 146/281/101 160/311/101
f 3/5/102 145/280/102 146/281/102
f 47/74/103 152/295/103 151/292/103
f 29/46/104 132/252/104 133/253/104
f 11/18/105 141/271/105 142/272/105
f 55/87/106 156/304/106 155/300/106
f 37/59/107 147/284/107 129/245/107
f 19/30/108 137/262/108 138/264/108
f 63/99/109 160/311/109 159/310/109
f 45/71/110 151/292/110 150/291/110
f 27/43/111 133/253/111 134/256/111
f 9/15/112 142/272/112 143/275/112
f 53/84/113 155/301/113 154/299/113
f 35/55/114 129/245/114 130/248/114
f 160/312/115 146/282/115 145/279/115
f 145/279/115 144/276/115 143/274/115
f 143/274/115 142/273/115 141/270/115
f 141/270/115 140/268/115 139/266/115
f 139/266/115 138/265/115 137/263/115
f 137/263/115 136/260/115 135/257/115
f 135/257/115 134/255/115 133/254/115
f 133/254/115 132/251/115 131/249/115
f 131/249/115 130/247/115 129/246/115
f 129/246/115 147/285/115 148/286/115
f 148/286/115 149/288/115 150/290/115
f 150/290/115 151/293/115 152/294/115
f 152/294/115 153/296/115 154/298/115
f 154/298/115 155/302/115 156/303/115
f 156/303/115 157/305/115 158/307/115
f 158/307/115 159/309/115 160/312/115
f 160/312/115 145/279/115 143/274/115
f 143/274/115 141/270/115 139/266/115
f 139/266/115 137/263/115 135/257/115
f 135/257/115 133/254/115 131/249/115
f 131/249/115 129/246/115 148/286/115
f 148/286/115 150/290/115 152/294/115
f 152/294/115 154/298/115 156/303/115
f 156/303/115 158/307/115 160/312/115
f 160/312/115 143/274/115 139/266/115
f 139/266/115 135/257/115 131/249/115
f 131/249/115 148/286/115 152/294/115
f 152/294/115 156/303/115 160/312/115
f 160/312/115 139/266/115 131/249/115
f 57/90/116 157/306/116 156/304/116
f 13/21/117 140/269/117 141/271/117
f 31/49/118 131/250/118 132/252/118
f 49/77/119 153/297/119 152/295/119
f 5/9/120 144/277/120 145/280/120
f 23/37/121 135/258/121 136/261/121
f 41/65/122 149/289/122 148/287/122
f 59/93/123 158/308/123 157/306/123
f 15/24/124 139/267/124 140/269/124
f 33/52/125 130/248/125 131/250/125
f 51/80/126 154/299/126 153/297/126
f 7/12/127 143/275/127 144/278/127
f 25/40/128 134/256/128 135/258/128
f 43/68/129 150/291/129 149/289/129
f 61/96/130 159/310/130 158/308/130
