# Blender 3.3.1
# www.blender.org
o tee_pot
v 0.000000 0.024534 -0.156829
v 0.000000 1.136347 -0.228625
v 0.030596 0.024534 -0.153816
v 0.044602 1.136347 -0.224232
v 0.060016 0.024534 -0.144891
v 0.087491 1.136347 -0.211222
v 0.087130 0.024534 -0.130399
v 0.127017 1.136347 -0.190094
v 0.110895 0.024534 -0.110895
v 0.161662 1.136347 -0.161662
v 0.130399 0.024534 -0.087130
v 0.190094 1.136347 -0.127017
v 0.144891 0.024534 -0.060016
v 0.211222 1.136347 -0.087491
v 0.153816 0.024534 -0.030596
v 0.224232 1.136347 -0.044602
v 0.156829 0.024534 0.000000
v 0.228625 1.136347 0.000000
v 0.153816 0.024534 0.030596
v 0.224232 1.136347 0.044602
v 0.144891 0.024534 0.060016
v 0.211222 1.136347 0.087491
v 0.130399 0.024534 0.087130
v 0.190094 1.136347 0.127017
v 0.110895 0.024534 0.110895
v 0.161662 1.136347 0.161662
v 0.087130 0.024534 0.130399
v 0.127017 1.136347 0.190094
v 0.060016 0.024534 0.144891
v 0.087491 1.136347 0.211222
v 0.030596 0.024534 0.153816
v 0.044602 1.136347 0.224232
v 0.000000 0.024534 0.156829
v 0.000000 1.136347 0.228625
v -0.030596 0.024534 0.153816
v -0.044602 1.136347 0.224232
v -0.060016 0.024534 0.144891
v -0.087491 1.136347 0.211222
v -0.087130 0.024534 0.130399
v -0.127017 1.136347 0.190094
v -0.110895 0.024534 0.110895
v -0.161662 1.136347 0.161662
v -0.130399 0.024534 0.087130
v -0.190094 1.136347 0.127017
v -0.144891 0.024534 0.060016
v -0.211222 1.136347 0.087491
v -0.153816 0.024534 0.030596
v -0.224232 1.136347 0.044602
v -0.156829 0.024534 0.000000
v -0.228625 1.136347 0.000000
v -0.153816 0.024534 -0.030596
v -0.224232 1.136347 -0.044602
v -0.144891 0.024534 -0.060016
v -0.211222 1.136347 -0.087491
v -0.130399 0.024534 -0.087130
v -0.190094 1.136347 -0.127017
v -0.110895 0.024534 -0.110895
v -0.161662 1.136347 -0.161662
v -0.087130 0.024534 -0.130399
v -0.127017 1.136347 -0.190094
v -0.060016 0.024534 -0.144891
v -0.087491 1.136347 -0.211222
v -0.030596 0.024534 -0.153816
v -0.044602 1.136347 -0.224232
v 0.000000 0.295409 -0.573841
v 0.000000 0.512037 -0.638384
v 0.000000 0.767391 -0.638384
v 0.000000 0.984018 -0.573841
v 0.111951 0.984018 -0.562815
v 0.124543 0.767391 -0.626118
v 0.124543 0.512037 -0.626118
v 0.111951 0.295409 -0.562815
v 0.219599 0.984018 -0.530160
v 0.244299 0.767391 -0.589790
v 0.244299 0.512037 -0.589790
v 0.219599 0.295409 -0.530160
v 0.318809 0.984018 -0.477131
v 0.354667 0.767391 -0.530797
v 0.354667 0.512037 -0.530797
v 0.318809 0.295409 -0.477131
v 0.405767 0.984018 -0.405767
v 0.451406 0.767391 -0.451406
v 0.451406 0.512037 -0.451406
v 0.405767 0.295409 -0.405767
v 0.477131 0.984018 -0.318809
v 0.530797 0.767391 -0.354667
v 0.530797 0.512037 -0.354667
v 0.477131 0.295409 -0.318809
v 0.530160 0.984018 -0.219599
v 0.589790 0.767391 -0.244299
v 0.589790 0.512037 -0.244299
v 0.530160 0.295409 -0.219599
v 0.562815 0.984018 -0.111951
v 0.626118 0.767391 -0.124543
v 0.626118 0.512037 -0.124543
v 0.562815 0.295409 -0.111951
v 0.573841 0.984018 -0.000000
v 0.638384 0.767391 0.000000
v 0.638384 0.512037 0.000000
v 0.573841 0.295409 -0.000000
v 0.562815 0.984018 0.111951
v 0.626118 0.767391 0.124543
v 0.626118 0.512037 0.124543
v 0.562815 0.295409 0.111951
v 0.530160 0.984018 0.219599
v 0.589790 0.767391 0.244299
v 0.589790 0.512037 0.244299
v 0.530160 0.295409 0.219599
v 0.477131 0.984018 0.318809
v 0.530797 0.767391 0.354667
v 0.530797 0.512037 0.354667
v 0.477131 0.295409 0.318809
v 0.405767 0.984018 0.405767
v 0.451406 0.767391 0.451406
v 0.451406 0.512037 0.451406
v 0.405767 0.295409 0.405767
v 0.318809 0.984018 0.477131
v 0.354667 0.767391 0.530797
v 0.354667 0.512037 0.530797
v 0.318809 0.295409 0.477131
v 0.219599 0.984018 0.530160
v 0.244299 0.767391 0.589790
v 0.244299 0.512037 0.589790
v 0.219599 0.295409 0.530160
v 0.111951 0.984018 0.562815
v 0.124543 0.767391 0.626118
v 0.124543 0.512037 0.626118
v 0.111951 0.295409 0.562815
v 0.000000 0.984018 0.573841
v 0.000000 0.767391 0.638384
v 0.000000 0.512037 0.638384
v 0.000000 0.295409 0.573841
v -0.111951 0.984018 0.562815
v -0.124543 0.767391 0.626118
v -0.124543 0.512037 0.626118
v -0.111951 0.295409 0.562815
v -0.219599 0.984018 0.530160
v -0.244299 0.767391 0.589790
v -0.244299 0.512037 0.589790
v -0.219599 0.295409 0.530160
v -0.318809 0.984018 0.477131
v -0.354667 0.767391 0.530797
v -0.354667 0.512037 0.530797
v -0.318809 0.295409 0.477131
v -0.405767 0.984018 0.405767
v -0.451406 0.767391 0.451406
v -0.451406 0.512037 0.451406
v -0.405767 0.295409 0.405767
v -0.477131 0.984018 0.318809
v -0.530797 0.767391 0.354667
v -0.530797 0.512037 0.354667
v -0.477131 0.295409 0.318809
v -0.530160 0.984018 0.219599
v -0.589790 0.767391 0.244299
v -0.589790 0.512037 0.244299
v -0.530160 0.295409 0.219599
v -0.562815 0.984018 0.111951
v -0.626118 0.767391 0.124543
v -0.626118 0.512037 0.124543
v -0.562815 0.295409 0.111951
v -0.573841 0.984018 -0.000000
v -0.638384 0.767391 0.000000
v -0.638384 0.512037 0.000000
v -0.573841 0.295409 -0.000000
v -0.562815 0.984018 -0.111951
v -0.626118 0.767391 -0.124543
v -0.626118 0.512037 -0.124543
v -0.562815 0.295409 -0.111951
v -0.530160 0.984018 -0.219599
v -0.589790 0.767391 -0.244299
v -0.589790 0.512037 -0.244299
v -0.530160 0.295409 -0.219599
v -0.477131 0.984018 -0.318809
v -0.530797 0.767391 -0.354667
v -0.530797 0.512037 -0.354667
v -0.477131 0.295409 -0.318809
v -0.405767 0.984018 -0.405767
v -0.451406 0.767391 -0.451406
v -0.451406 0.512037 -0.451406
v -0.405767 0.295409 -0.405767
v -0.318809 0.984018 -0.477131
v -0.354667 0.767391 -0.530797
v -0.354667 0.512037 -0.530797
v -0.318809 0.295409 -0.477131
v -0.219599 0.984018 -0.530160
v -0.244299 0.767391 -0.589790
v -0.244299 0.512037 -0.589790
v -0.219599 0.295409 -0.530160
v -0.111951 0.984018 -0.562815
v -0.124543 0.767391 -0.626118
v -0.124543 0.512037 -0.626118
v -0.111951 0.295409 -0.562815
v 0.000000 0.001330 -0.315357
v 0.061523 0.001330 -0.309297
v 0.120682 0.001330 -0.291351
v 0.175203 0.001330 -0.262209
v 0.222991 0.001330 -0.222991
v 0.262209 0.001330 -0.175203
v 0.291351 0.001330 -0.120682
v 0.309297 0.001330 -0.061523
v 0.315357 0.001330 0.000000
v 0.309297 0.001330 0.061523
v 0.291351 0.001330 0.120682
v 0.262209 0.001330 0.175203
v 0.222991 0.001330 0.222991
v 0.175203 0.001330 0.262209
v 0.120682 0.001330 0.291351
v 0.061523 0.001330 0.309297
v 0.000000 0.001330 0.315357
v -0.061523 0.001330 0.309297
v -0.120682 0.001330 0.291351
v -0.175203 0.001330 0.262209
v -0.222991 0.001330 0.222991
v -0.262209 0.001330 0.175203
v -0.291351 0.001330 0.120682
v -0.309297 0.001330 0.061523
v -0.315357 0.001330 0.000000
v -0.309297 0.001330 -0.061523
v -0.291351 0.001330 -0.120682
v -0.262209 0.001330 -0.175203
v -0.222991 0.001330 -0.222991
v -0.175203 0.001330 -0.262209
v -0.120682 0.001330 -0.291351
v -0.061523 0.001330 -0.309297
v 0.000000 0.001330 -0.245807
v 0.047955 0.001330 -0.241084
v 0.094066 0.001330 -0.227096
v 0.136563 0.001330 -0.204381
v 0.173812 0.001330 -0.173812
v 0.204381 0.001330 -0.136563
v 0.227096 0.001330 -0.094066
v 0.241084 0.001330 -0.047955
v 0.245807 0.001330 0.000000
v 0.241084 0.001330 0.047955
v 0.227096 0.001330 0.094066
v 0.204381 0.001330 0.136563
v 0.173812 0.001330 0.173812
v 0.136563 0.001330 0.204381
v 0.094066 0.001330 0.227096
v 0.047955 0.001330 0.241084
v 0.000000 0.001330 0.245807
v -0.047955 0.001330 0.241084
v -0.094066 0.001330 0.227096
v -0.136563 0.001330 0.204381
v -0.173812 0.001330 0.173812
v -0.204381 0.001330 0.136563
v -0.227096 0.001330 0.094066
v -0.241084 0.001330 0.047955
v -0.245807 0.001330 0.000000
v -0.241084 0.001330 -0.047955
v -0.227096 0.001330 -0.094066
v -0.204381 0.001330 -0.136563
v -0.173812 0.001330 -0.173812
v -0.136563 0.001330 -0.204381
v -0.094066 0.001330 -0.227096
v -0.047955 0.001330 -0.241084
v 0.051133 1.136347 -0.257062
v 0.000000 1.136347 -0.262098
v 0.100301 1.136347 -0.242147
v 0.145614 1.136347 -0.217927
v 0.185331 1.136347 -0.185331
v 0.217927 1.136347 -0.145614
v 0.242147 1.136347 -0.100301
v 0.257062 1.136347 -0.051133
v 0.262098 1.136347 0.000000
v 0.257062 1.136347 0.051133
v 0.242147 1.136347 0.100301
v 0.217927 1.136347 0.145614
v 0.185331 1.136347 0.185331
v 0.145614 1.136347 0.217927
v 0.100301 1.136347 0.242147
v 0.051133 1.136347 0.257062
v 0.000000 1.136347 0.262098
v -0.051133 1.136347 0.257062
v -0.100301 1.136347 0.242147
v -0.145614 1.136347 0.217927
v -0.185331 1.136347 0.185331
v -0.217927 1.136347 0.145614
v -0.242147 1.136347 0.100301
v -0.257062 1.136347 0.051133
v -0.262098 1.136347 0.000000
v -0.257062 1.136347 -0.051133
v -0.242147 1.136347 -0.100301
v -0.217927 1.136347 -0.145614
v -0.185331 1.136347 -0.185331
v -0.145614 1.136347 -0.217927
v -0.100301 1.136347 -0.242147
v -0.051133 1.136347 -0.257062
v 0.110324 0.528260 -0.554636
v -0.000000 0.528260 -0.565502
v 0.216408 0.528260 -0.522456
v 0.314176 0.528260 -0.470198
v 0.399871 0.528260 -0.399870
v 0.470198 0.528260 -0.314176
v 0.522456 0.528260 -0.216408
v 0.554637 0.528260 -0.110324
v 0.565503 0.528260 0.000000
v 0.554637 0.528260 0.110325
v 0.522456 0.528260 0.216409
v 0.470198 0.528260 0.314177
v 0.399871 0.528260 0.399871
v 0.314176 0.528260 0.470199
v 0.216408 0.528260 0.522457
v 0.110324 0.528260 0.554637
v -0.000000 0.528260 0.565503
v -0.110324 0.528260 0.554637
v -0.216409 0.528260 0.522457
v -0.314177 0.528260 0.470199
v -0.399871 0.528260 0.399871
v -0.470199 0.528260 0.314177
v -0.522457 0.528260 0.216409
v -0.554637 0.528260 0.110325
v -0.565503 0.528260 0.000000
v -0.554637 0.528260 -0.110324
v -0.522457 0.528260 -0.216408
v -0.470199 0.528260 -0.314176
v -0.399871 0.528260 -0.399870
v -0.314177 0.528260 -0.470198
v -0.216409 0.528260 -0.522456
v -0.110324 0.528260 -0.554636
v 0.829873 0.916058 -0.113385
v 0.796977 0.853128 -0.117750
v 0.836048 0.916058 -0.050694
v 0.804635 0.853128 -0.039995
v 0.806872 0.578817 -0.121467
v 0.893676 0.516393 -0.121881
v 0.815065 0.578817 -0.038280
v 0.900282 0.516393 -0.054809
v 0.872660 0.650689 -0.127947
v 0.969748 0.676302 -0.129373
v 0.880853 0.650689 -0.044759
v 0.976354 0.676302 -0.062301
v 0.953967 0.829140 -0.125608
v 0.864904 0.822023 -0.124440
v 0.960142 0.829140 -0.062916
v 0.872562 0.822023 -0.046685
v 0.312327 0.001330 -0.030762
v 0.259580 1.136347 -0.025566
v 0.568328 0.295409 -0.055975
v 0.568328 0.984018 -0.055975
v 0.243445 0.001330 -0.023977
v 0.155323 0.024534 -0.015298
v 0.226428 1.136347 -0.022301
v 0.560070 0.528260 -0.055162
v 0.823535 0.936917 -0.081111
v 0.894907 0.491341 -0.088141
v 0.979719 0.669620 -0.096494
v 0.961884 0.840015 -0.094737
v 0.632251 0.512037 -0.062271
v 0.632251 0.767391 -0.062271
v 0.764003 0.809163 -0.075248
v 0.766397 0.569459 -0.075484
v 0.832185 0.641331 -0.081963
v 0.824161 0.812665 -0.081173
vn 0.0432 0.8976 -0.4386
vn 0.1279 0.8976 -0.4218
vn 0.2078 0.8976 -0.3887
vn 0.2796 0.8976 -0.3407
vn 0.3407 0.8976 -0.2796
vn 0.3887 0.8976 -0.2078
vn 0.4218 0.8976 -0.1279
vn 0.4386 0.8976 -0.0432
vn 0.4386 0.8976 0.0432
vn 0.4218 0.8976 0.1279
vn 0.3887 0.8976 0.2078
vn 0.3407 0.8976 0.2796
vn 0.2796 0.8976 0.3407
vn 0.2078 0.8976 0.3887
vn 0.1279 0.8976 0.4218
vn 0.0432 0.8976 0.4386
vn -0.0432 0.8976 0.4386
vn -0.1279 0.8976 0.4218
vn -0.2078 0.8976 0.3887
vn -0.2796 0.8976 0.3407
vn -0.3407 0.8976 0.2796
vn -0.3887 0.8976 0.2078
vn -0.4218 0.8976 0.1279
vn -0.4386 0.8976 0.0432
vn -0.4386 0.8976 -0.0432
vn -0.4218 0.8976 -0.1279
vn -0.3887 0.8976 -0.2078
vn -0.3407 0.8976 -0.2796
vn -0.2796 0.8976 -0.3407
vn -0.2078 0.8976 -0.3887
vn -0.4128 -0.4828 0.7723
vn -0.1279 0.8976 -0.4218
vn -0.0432 0.8976 -0.4386
vn -0.0000 -1.0000 -0.0000
vn -0.0738 -0.6584 -0.7491
vn -0.0940 -0.2843 -0.9541
vn -0.0980 -0.0000 -0.9952
vn -0.0940 0.2843 -0.9541
vn -0.2185 -0.6584 -0.7203
vn -0.2783 -0.2843 -0.9175
vn -0.2903 -0.0000 -0.9569
vn -0.2783 0.2843 -0.9175
vn -0.3548 -0.6584 -0.6638
vn -0.4519 -0.2843 -0.8455
vn -0.4714 -0.0000 -0.8819
vn -0.4519 0.2843 -0.8455
vn -0.4775 -0.6584 -0.5818
vn -0.6082 -0.2843 -0.7411
vn -0.6344 -0.0000 -0.7730
vn -0.6082 0.2843 -0.7411
vn -0.5818 -0.6584 -0.4775
vn -0.7411 -0.2843 -0.6082
vn -0.7730 -0.0000 -0.6344
vn -0.7411 0.2843 -0.6082
vn -0.6638 -0.6584 -0.3548
vn -0.8455 -0.2843 -0.4519
vn -0.8819 -0.0000 -0.4714
vn -0.8455 0.2843 -0.4519
vn -0.7203 -0.6584 -0.2185
vn -0.9175 -0.2843 -0.2783
vn -0.9569 -0.0000 -0.2903
vn -0.9175 0.2843 -0.2783
vn -0.7491 -0.6584 -0.0738
vn -0.9541 -0.2843 -0.0940
vn -0.9952 -0.0000 -0.0980
vn -0.9541 0.2843 -0.0940
vn -0.7491 -0.6584 0.0738
vn -0.9541 -0.2843 0.0940
vn -0.9952 -0.0000 0.0980
vn -0.9541 0.2843 0.0940
vn -0.7203 -0.6584 0.2185
vn -0.9175 -0.2843 0.2783
vn -0.9569 -0.0000 0.2903
vn -0.9175 0.2843 0.2783
vn -0.6638 -0.6584 0.3548
vn -0.8455 -0.2843 0.4519
vn -0.8819 -0.0000 0.4714
vn -0.8455 0.2843 0.4519
vn -0.5818 -0.6584 0.4775
vn -0.7411 -0.2843 0.6082
vn -0.7730 -0.0000 0.6344
vn -0.7411 0.2843 0.6082
vn -0.4775 -0.6584 0.5818
vn -0.6082 -0.2843 0.7411
vn -0.6344 -0.0000 0.7730
vn -0.6082 0.2843 0.7411
vn -0.3548 -0.6584 0.6638
vn -0.4519 -0.2843 0.8455
vn -0.4714 -0.0000 0.8819
vn -0.4519 0.2843 0.8455
vn -0.2185 -0.6584 0.7203
vn -0.2783 -0.2843 0.9175
vn -0.2903 -0.0000 0.9569
vn -0.2783 0.2843 0.9175
vn -0.0738 -0.6584 0.7491
vn -0.0940 -0.2843 0.9541
vn -0.0980 -0.0000 0.9952
vn -0.0940 0.2843 0.9541
vn 0.0738 -0.6584 0.7491
vn 0.0940 -0.2843 0.9541
vn 0.0980 -0.0000 0.9952
vn 0.0940 0.2843 0.9541
vn 0.2185 -0.6584 0.7203
vn 0.2783 -0.2843 0.9175
vn 0.2903 -0.0000 0.9569
vn 0.2783 0.2843 0.9175
vn 0.3548 -0.6584 0.6638
vn 0.4519 -0.2843 0.8455
vn 0.4714 -0.0000 0.8819
vn 0.4519 0.2843 0.8455
vn 0.4775 -0.6584 0.5818
vn 0.6082 -0.2843 0.7411
vn 0.6344 -0.0000 0.7730
vn 0.6082 0.2843 0.7411
vn 0.5818 -0.6584 0.4775
vn 0.7411 -0.2843 0.6082
vn 0.7730 -0.0000 0.6344
vn 0.7411 0.2843 0.6082
vn 0.6638 -0.6584 0.3548
vn 0.8455 -0.2843 0.4519
vn 0.8819 -0.0000 0.4714
vn 0.8455 0.2843 0.4519
vn 0.7203 -0.6584 0.2185
vn 0.9175 -0.2843 0.2783
vn 0.9569 -0.0000 0.2903
vn 0.9175 0.2843 0.2783
vn 0.7491 -0.6584 0.0738
vn 0.9541 -0.2843 0.0940
vn 0.9952 -0.0000 0.0980
vn 0.9541 0.2843 0.0940
vn 0.7491 -0.6584 -0.0738
vn 0.5102 -0.8586 -0.0502
vn 0.9952 -0.0000 -0.0980
vn 0.2995 -0.9537 -0.0295
vn 0.7203 -0.6584 -0.2185
vn 0.9175 -0.2843 -0.2783
vn 0.9569 -0.0000 -0.2903
vn 0.9175 0.2843 -0.2783
vn 0.6638 -0.6584 -0.3548
vn 0.8455 -0.2843 -0.4519
vn 0.8819 -0.0000 -0.4714
vn 0.8455 0.2843 -0.4519
vn 0.5818 -0.6584 -0.4775
vn 0.7411 -0.2843 -0.6082
vn 0.7730 -0.0000 -0.6344
vn 0.7411 0.2843 -0.6082
vn 0.4775 -0.6584 -0.5818
vn 0.6082 -0.2843 -0.7411
vn 0.6344 -0.0000 -0.7730
vn 0.6082 0.2843 -0.7411
vn 0.3548 -0.6584 -0.6638
vn 0.4519 -0.2843 -0.8455
vn 0.4714 -0.0000 -0.8819
vn 0.4519 0.2843 -0.8455
vn 0.2185 -0.6584 -0.7203
vn 0.2783 -0.2843 -0.9175
vn 0.2903 -0.0000 -0.9569
vn 0.2783 0.2843 -0.9175
vn 0.0738 -0.6584 -0.7491
vn 0.0940 -0.2843 -0.9541
vn 0.0980 -0.0000 -0.9952
vn 0.0940 0.2843 -0.9541
vn -0.0248 -0.9673 0.2523
vn -0.0736 -0.9673 0.2426
vn -0.1195 -0.9673 0.2236
vn -0.1608 -0.9673 0.1960
vn -0.1960 -0.9673 0.1608
vn -0.2236 -0.9673 0.1195
vn -0.2426 -0.9673 0.0736
vn -0.2523 -0.9673 0.0248
vn -0.2523 -0.9673 -0.0248
vn -0.2426 -0.9673 -0.0736
vn -0.2236 -0.9673 -0.1195
vn -0.1960 -0.9673 -0.1608
vn -0.1608 -0.9673 -0.1960
vn -0.1195 -0.9673 -0.2236
vn -0.0736 -0.9673 -0.2426
vn -0.0248 -0.9673 -0.2523
vn 0.0248 -0.9673 -0.2523
vn 0.0736 -0.9673 -0.2426
vn 0.1195 -0.9673 -0.2236
vn 0.1608 -0.9673 -0.1960
vn 0.1960 -0.9673 -0.1608
vn 0.2236 -0.9673 -0.1195
vn 0.2426 -0.9673 -0.0736
vn 0.2523 -0.9673 -0.0248
vn 0.2523 -0.9673 0.0248
vn 0.2426 -0.9673 0.0736
vn 0.2236 -0.9673 0.1195
vn 0.1960 -0.9673 0.1608
vn 0.1608 -0.9673 0.1960
vn 0.1195 -0.9673 0.2236
vn 0.0736 -0.9673 0.2426
vn 0.0248 -0.9673 0.2523
vn -0.0000 1.0000 -0.0000
vn 0.4128 -0.4828 0.7723
vn 0.0858 -0.4828 -0.8715
vn -0.5556 -0.4828 0.6769
vn 0.2542 -0.4828 0.8380
vn 0.2542 -0.4828 -0.8380
vn -0.6769 -0.4828 0.5556
vn 0.0858 -0.4828 0.8715
vn 0.4128 -0.4828 -0.7723
vn -0.7723 -0.4828 0.4128
vn 0.5556 -0.4828 -0.6769
vn -0.8380 -0.4828 0.2542
vn 0.6769 -0.4828 -0.5556
vn -0.8715 -0.4828 0.0858
vn 0.7723 -0.4828 -0.4128
vn -0.8715 -0.4828 -0.0858
vn 0.8380 -0.4828 -0.2542
vn -0.8380 -0.4828 -0.2542
vn 0.8715 -0.4828 -0.0858
vn -0.7723 -0.4828 -0.4128
vn 0.8715 -0.4828 0.0858
vn -0.6769 -0.4828 -0.5556
vn 0.8380 -0.4828 0.2542
vn -0.5556 -0.4828 -0.6769
vn 0.7723 -0.4828 0.4128
vn -0.4128 -0.4828 -0.7723
vn -0.0858 -0.4828 0.8715
vn 0.6769 -0.4828 0.5556
vn -0.2542 -0.4828 -0.8380
vn -0.2542 -0.4828 0.8380
vn 0.5556 -0.4828 0.6769
vn -0.0858 -0.4828 -0.8715
vn 0.5676 0.7691 0.2939
vn 0.2053 0.0636 0.9766
vn 0.0092 0.0607 -0.9981
vn 0.1798 0.9835 -0.0177
vn 0.1536 -0.0516 0.9868
vn 0.2045 0.0200 0.9787
vn 0.0109 -0.0612 -0.9981
vn -0.3900 0.9200 0.0384
vn 0.8428 -0.4169 -0.3403
vn -0.0027 -0.0455 -0.9990
vn -0.5651 0.5709 0.5956
vn 0.1726 0.1087 0.9790
vn -0.0323 -0.6821 -0.7306
vn -0.0535 0.0969 -0.9939
vn 0.9907 0.1028 0.0894
vn 0.1804 0.0231 0.9833
vn -0.7470 -0.0319 -0.6640
vn -0.0198 0.0196 -0.9996
vn 0.9574 0.1055 -0.2689
vn 0.8930 -0.4169 0.1693
vn 0.2109 0.8393 -0.5011
vn 0.4994 0.7691 -0.3990
vn 0.5526 -0.7066 0.4420
vn -0.5778 -0.0188 0.8160
vn -0.2833 -0.7478 0.6005
vn -0.6704 0.5709 -0.4739
vn -0.3427 0.9328 -0.1118
vn 0.4943 -0.7740 0.3956
vn 0.4557 -0.7066 -0.5413
vn 0.4077 -0.7740 -0.4844
vn 0.2038 0.0607 0.9771
vn 0.0108 0.0636 -0.9979
vn 0.3046 0.8393 0.4503
vn 0.1923 -0.0455 0.9803
vn 0.2054 -0.0612 0.9768
vn 0.0096 0.0200 -0.9998
vn -0.3143 0.9328 0.1765
vn -0.0419 -0.0516 -0.9978
vn 0.1414 0.0969 0.9852
vn -0.3950 -0.7478 -0.5337
vn -0.0217 0.1087 -0.9938
vn 0.9914 0.1055 0.0769
vn 0.1755 0.0196 0.9843
vn -0.7259 -0.0188 -0.6876
vn -0.0149 0.0231 -0.9996
vn 0.9542 0.1028 -0.2809
vn -0.6031 -0.0319 0.7970
vn 0.1109 -0.6821 0.7228
vt 0.704990 0.659873
vt 0.109596 0.193540
vt 0.993038 0.872708
vt 0.712848 0.661436
vt 0.117973 0.201680
vt 0.993181 0.861300
vt 0.720250 0.664503
vt 0.993460 0.850602
vt 0.127777 0.208029
vt 0.726912 0.668954
vt 0.993866 0.841023
vt 0.138631 0.212344
vt 0.485917 0.747908
vt 0.732578 0.674620
vt 0.150118 0.214458
vt 0.485011 0.739649
vt 0.737029 0.681282
vt 0.161798 0.214291
vt 0.484300 0.729937
vt 0.740095 0.688684
vt 0.173220 0.211848
vt 0.483809 0.719146
vt 0.741658 0.696542
vt 0.483559 0.707690
vt 0.183946 0.207224
vt 0.741658 0.704555
vt 0.193563 0.200597
vt 0.483559 0.696009
vt 0.740095 0.712413
vt 0.201704 0.192220
vt 0.483809 0.684554
vt 0.737029 0.719816
vt 0.208053 0.182416
vt 0.484300 0.673762
vt 0.732578 0.726478
vt 0.212368 0.171562
vt 0.485011 0.664050
vt 0.726912 0.732143
vt 0.485917 0.655791
vt 0.214482 0.160075
vt 0.993866 0.715040
vt 0.720250 0.736595
vt 0.214315 0.148395
vt 0.993460 0.705461
vt 0.712848 0.739661
vt 0.211872 0.136973
vt 0.993181 0.694763
vt 0.704990 0.741224
vt 0.207248 0.126247
vt 0.993038 0.683355
vt 0.696978 0.741224
vt 0.200620 0.116630
vt 0.993038 0.671677
vt 0.689120 0.739661
vt 0.192244 0.108490
vt 0.993181 0.660178
vt 0.681718 0.736595
vt 0.182440 0.102140
vt 0.993460 0.649298
vt 0.675056 0.732143
vt 0.993866 0.639457
vt 0.171586 0.097825
vt 0.175282 0.811723
vt 0.669390 0.726478
vt 0.160098 0.095711
vt 0.174405 0.803464
vt 0.664939 0.719816
vt 0.148419 0.095879
vt 0.173715 0.793752
vt 0.661873 0.712413
vt 0.136997 0.098321
vt 0.173240 0.782961
vt 0.660310 0.704555
vt 0.126271 0.102945
vt 0.172998 0.771505
vt 0.660310 0.696542
vt 0.116653 0.109573
vt 0.172998 0.759825
vt 0.661873 0.688684
vt 0.108513 0.117950
vt 0.173240 0.748369
vt 0.664939 0.681282
vt 0.102164 0.127754
vt 0.173715 0.737578
vt 0.669390 0.674620
vt 0.097849 0.138608
vt 0.174405 0.727866
vt 0.675056 0.668954
vt 0.175282 0.719607
vt 0.095735 0.150095
vt 0.993866 0.916606
vt 0.681718 0.664503
vt 0.095902 0.161774
vt 0.993460 0.906765
vt 0.689120 0.661436
vt 0.098345 0.173196
vt 0.993181 0.895885
vt 0.696978 0.659873
vt 0.102969 0.183922
vt 0.993038 0.884386
vt 0.700896 0.393564
vt 0.699515 0.450956
vt 0.699431 0.517375
vt 0.040927 0.251682
vt 0.700669 0.572675
vt 0.061952 0.272113
vt 0.671805 0.572317
vt 0.667320 0.516977
vt 0.667405 0.450559
vt 0.672033 0.393207
vt 0.086559 0.288050
vt 0.644498 0.571616
vt 0.636942 0.516197
vt 0.637026 0.449778
vt 0.644726 0.392505
vt 0.113803 0.298879
vt 0.619798 0.570598
vt 0.609463 0.515065
vt 0.609547 0.448646
vt 0.796412 0.584944
vt 0.620025 0.391487
vt 0.142636 0.304186
vt 0.822481 0.266321
vt 0.598652 0.569303
vt 0.833152 0.211566
vt 0.585939 0.513623
vt 0.833152 0.145394
vt 0.586024 0.447205
vt 0.822481 0.087875
vt 0.817142 0.605674
vt 0.598880 0.390192
vt 0.171950 0.303766
vt 0.798105 0.268052
vt 0.806034 0.213492
vt 0.806034 0.147319
vt 0.798105 0.089606
vt 0.200619 0.297635
vt 0.771019 0.269244
vt 0.775902 0.214818
vt 0.775902 0.148646
vt 0.771019 0.090798
vt 0.742265 0.269852
vt 0.293636 0.830851
vt 0.227541 0.286029
vt 0.276933 0.774629
vt 0.572387 0.664140
vt 0.743914 0.215494
vt 0.743914 0.149322
vt 0.276933 0.708210
vt 0.572387 0.651871
vt 0.293636 0.651740
vt 0.498186 0.674441
vt 0.742265 0.091406
vt 0.712948 0.269852
vt 0.951506 0.006134
vt 0.251682 0.269393
vt 0.711299 0.215494
vt 0.934803 0.062356
vt 0.539772 0.664140
vt 0.711299 0.149322
vt 0.934803 0.128775
vt 0.539772 0.651871
vt 0.712948 0.091406
vt 0.951506 0.185246
vt 0.527503 0.674441
vt 0.272113 0.248368
vt 0.684194 0.269244
vt 0.679311 0.214818
vt 0.679311 0.148646
vt 0.684194 0.090798
vt 0.288050 0.223761
vt 0.657109 0.268052
vt 0.649179 0.213492
vt 0.649179 0.147319
vt 0.657109 0.089606
vt 0.298880 0.196517
vt 0.250584 0.636099
vt 0.632732 0.266321
vt 0.263297 0.580420
vt 0.622061 0.211566
vt 0.263213 0.514001
vt 0.622061 0.145394
vt 0.250357 0.456988
vt 0.817142 0.795423
vt 0.632732 0.087875
vt 0.304186 0.167684
vt 0.229439 0.637395
vt 0.239773 0.581861
vt 0.239689 0.515442
vt 0.796412 0.816154
vt 0.229211 0.458284
vt 0.303766 0.138370
vt 0.204738 0.638413
vt 0.212294 0.582994
vt 0.212210 0.516575
vt 0.204511 0.459302
vt 0.297635 0.109701
vt 0.177431 0.639114
vt 0.181916 0.583774
vt 0.181832 0.517355
vt 0.177204 0.460003
vt 0.286029 0.082779
vt 0.148567 0.639471
vt 0.149806 0.584171
vt 0.149721 0.517753
vt 0.148340 0.460360
vt 0.269394 0.058639
vt 0.119256 0.639471
vt 0.117198 0.584171
vt 0.117113 0.517753
vt 0.119029 0.460360
vt 0.248369 0.038208
vt 0.090624 0.639114
vt 0.085345 0.583774
vt 0.085261 0.517355
vt 0.090397 0.460003
vt 0.223761 0.022271
vt 0.063771 0.638413
vt 0.055471 0.582994
vt 0.055387 0.516575
vt 0.063543 0.459302
vt 0.196518 0.011441
vt 0.039729 0.637395
vt 0.316455 0.372605
vt 0.028725 0.581861
vt 0.316455 0.438752
vt 0.028641 0.515442
vt 0.329458 0.496038
vt 0.606669 0.816154
vt 0.039501 0.458284
vt 0.167685 0.006134
vt 0.350188 0.315386
vt 0.019422 0.636099
vt 0.339517 0.370075
vt 0.006134 0.580420
vt 0.339517 0.436223
vt 0.585939 0.795423
vt 0.350188 0.493765
vt 0.138371 0.006555
vt 0.374565 0.313599
vt 0.366636 0.368088
vt 0.366636 0.434235
vt 0.374565 0.491978
vt 0.109702 0.012686
vt 0.401650 0.312368
vt 0.396768 0.366719
vt 0.396768 0.432866
vt 0.401650 0.490747
vt 0.082780 0.024292
vt 0.430404 0.311741
vt 0.428756 0.366021
vt 0.428756 0.432168
vt 0.430404 0.490120
vt 0.058639 0.040927
vt 0.459722 0.311741
vt 0.461370 0.366021
vt 0.461370 0.432168
vt 0.459722 0.490120
vt 0.038208 0.061952
vt 0.488476 0.312368
vt 0.493358 0.366719
vt 0.493358 0.432866
vt 0.488476 0.490747
vt 0.022271 0.086560
vt 0.515561 0.313599
vt 0.523490 0.368088
vt 0.523490 0.434235
vt 0.515561 0.491978
vt 0.011441 0.113803
vt 0.829814 0.569303
vt 0.539937 0.315386
vt 0.843102 0.513624
vt 0.550609 0.370075
vt 0.550609 0.436223
vt 0.585939 0.605674
vt 0.539937 0.493765
vt 0.006134 0.142636
vt 0.809508 0.570598
vt 0.573671 0.372605
vt 0.820511 0.515065
vt 0.820595 0.448646
vt 0.573671 0.438752
vt 0.809735 0.391487
vt 0.606669 0.584944
vt 0.560668 0.496038
vt 0.006554 0.171950
vt 0.785466 0.571616
vt 0.793765 0.516197
vt 0.793849 0.449779
vt 0.785693 0.392505
vt 0.012685 0.200619
vt 0.758612 0.572318
vt 0.763891 0.516978
vt 0.763976 0.450559
vt 0.758840 0.393207
vt 0.024292 0.227541
vt 0.729980 0.572675
vt 0.732039 0.517375
vt 0.732123 0.450956
vt 0.730207 0.393564
vt 0.706239 0.312882
vt 0.708992 0.618758
vt 0.690377 0.312686
vt 0.724793 0.621901
vt 0.675370 0.312300
vt 0.739678 0.628066
vt 0.661796 0.311741
vt 0.753073 0.637017
vt 0.779745 0.006134
vt 0.764465 0.648410
vt 0.766349 0.007086
vt 0.773416 0.661806
vt 0.751464 0.007741
vt 0.779582 0.676691
vt 0.782725 0.692493
vt 0.735662 0.008075
vt 0.719551 0.008075
vt 0.782725 0.708604
vt 0.703749 0.007741
vt 0.779582 0.724406
vt 0.688864 0.007086
vt 0.773416 0.739291
vt 0.675468 0.006134
vt 0.764465 0.752687
vt 0.187440 0.378537
vt 0.753073 0.764080
vt 0.173866 0.379097
vt 0.739678 0.773031
vt 0.158859 0.379482
vt 0.724793 0.779196
vt 0.142997 0.379679
vt 0.708992 0.782340
vt 0.126889 0.379679
vt 0.692881 0.782340
vt 0.111154 0.379482
vt 0.677079 0.779196
vt 0.096397 0.379097
vt 0.662195 0.773031
vt 0.083185 0.378537
vt 0.648799 0.764080
vt 0.392924 0.575656
vt 0.637407 0.752687
vt 0.406320 0.574674
vt 0.628456 0.739291
vt 0.421205 0.573997
vt 0.622291 0.724406
vt 0.437007 0.573653
vt 0.619148 0.708604
vt 0.453119 0.573653
vt 0.619148 0.692493
vt 0.468920 0.573997
vt 0.622291 0.676691
vt 0.483805 0.574674
vt 0.628456 0.661806
vt 0.497202 0.575656
vt 0.637407 0.648410
vt 0.766052 0.311741
vt 0.648799 0.637017
vt 0.752840 0.312300
vt 0.662195 0.628066
vt 0.738082 0.312686
vt 0.677079 0.621901
vt 0.722347 0.312882
vt 0.692881 0.618758
vt 0.707215 0.636796
vt 0.719532 0.639246
vt 0.731133 0.644052
vt 0.741575 0.651029
vt 0.750454 0.659909
vt 0.757431 0.670350
vt 0.762237 0.681953
vt 0.764687 0.694270
vt 0.764687 0.706828
vt 0.762237 0.719145
vt 0.757431 0.730747
vt 0.750455 0.741188
vt 0.741575 0.750068
vt 0.731133 0.757045
vt 0.719532 0.761851
vt 0.707215 0.764301
vt 0.694657 0.764301
vt 0.682341 0.761851
vt 0.670739 0.757045
vt 0.660298 0.750068
vt 0.651418 0.741188
vt 0.644441 0.730747
vt 0.639636 0.719145
vt 0.637186 0.706828
vt 0.637186 0.694270
vt 0.639636 0.681953
vt 0.644441 0.670350
vt 0.651418 0.659909
vt 0.660298 0.651029
vt 0.670739 0.644052
vt 0.682341 0.639246
vt 0.694657 0.636796
vt 0.112536 0.208502
vt 0.102933 0.199170
vt 0.123775 0.215781
vt 0.136219 0.220728
vt 0.149388 0.223151
vt 0.162777 0.222960
vt 0.175871 0.220159
vt 0.188168 0.214858
vt 0.199194 0.207260
vt 0.208526 0.197657
vt 0.215805 0.186418
vt 0.220751 0.173974
vt 0.223175 0.160805
vt 0.222983 0.147416
vt 0.220183 0.134322
vt 0.214882 0.122025
vt 0.207284 0.110999
vt 0.197681 0.101667
vt 0.186441 0.094388
vt 0.173998 0.089442
vt 0.160829 0.087018
vt 0.147440 0.087210
vt 0.134345 0.090010
vt 0.122049 0.095311
vt 0.111023 0.102909
vt 0.101691 0.112513
vt 0.094412 0.123752
vt 0.089466 0.136195
vt 0.087042 0.149364
vt 0.087234 0.162754
vt 0.090034 0.175848
vt 0.095335 0.188144
vt 0.420342 0.011771
vt 0.829763 0.834322
vt 0.448678 0.006134
vt 0.829411 0.862538
vt 0.393650 0.022827
vt 0.830454 0.807859
vt 0.831457 0.784166
vt 0.369628 0.038878
vt 0.322288 0.815775
vt 0.349199 0.059307
vt 0.320047 0.795345
vt 0.333148 0.083329
vt 0.318286 0.771323
vt 0.322092 0.110022
vt 0.317073 0.744631
vt 0.316455 0.138358
vt 0.316455 0.716295
vt 0.316455 0.167249
vt 0.316455 0.687404
vt 0.322092 0.195585
vt 0.317073 0.659068
vt 0.333148 0.222277
vt 0.318286 0.632376
vt 0.349199 0.246299
vt 0.320047 0.608353
vt 0.369628 0.266728
vt 0.322288 0.587924
vt 0.831457 0.771897
vt 0.393650 0.282780
vt 0.830454 0.748205
vt 0.420342 0.293836
vt 0.829763 0.721742
vt 0.448678 0.299472
vt 0.829411 0.693525
vt 0.477569 0.299472
vt 0.829411 0.664640
vt 0.505905 0.293836
vt 0.829763 0.636196
vt 0.532597 0.282780
vt 0.830454 0.609286
vt 0.556619 0.266728
vt 0.831457 0.584944
vt 0.011785 0.879590
vt 0.577049 0.246299
vt 0.009614 0.859161
vt 0.593100 0.222277
vt 0.007908 0.835139
vt 0.604156 0.195585
vt 0.006733 0.808447
vt 0.609792 0.167249
vt 0.006134 0.780111
vt 0.609792 0.138358
vt 0.006134 0.751220
vt 0.604156 0.110022
vt 0.006733 0.722883
vt 0.593100 0.083329
vt 0.007908 0.696191
vt 0.577049 0.059307
vt 0.009614 0.672169
vt 0.556619 0.038878
vt 0.011785 0.651740
vt 0.831457 0.971120
vt 0.532597 0.022827
vt 0.830454 0.946778
vt 0.505905 0.011771
vt 0.829763 0.919868
vt 0.477569 0.006134
vt 0.829411 0.891423
vt 0.224218 0.812859
vt 0.272198 0.339467
vt 0.232677 0.796603
vt 0.566261 0.708455
vt 0.285717 0.330151
vt 0.882088 0.024126
vt 0.890547 0.040382
vt 0.545898 0.708455
vt 0.230031 0.725301
vt 0.566972 0.605109
vt 0.504062 0.587924
vt 0.275566 0.464207
vt 0.207469 0.708961
vt 0.887901 0.111684
vt 0.545187 0.605109
vt 0.521627 0.587924
vt 0.865338 0.128024
vt 0.293130 0.464207
vt 0.566972 0.587924
vt 0.212806 0.744017
vt 0.275566 0.420651
vt 0.187551 0.750580
vt 0.545187 0.587924
vt 0.870676 0.092968
vt 0.293130 0.420651
vt 0.845421 0.086406
vt 0.290668 0.366268
vt 0.191728 0.790293
vt 0.276139 0.381490
vt 0.566261 0.726179
vt 0.214893 0.788535
vt 0.849598 0.046693
vt 0.304186 0.356953
vt 0.292557 0.381490
vt 0.545898 0.726179
vt 0.872762 0.048450
vt 0.727607 0.008075
vt 0.782725 0.700549
vt 0.193681 0.211059
vt 0.512845 0.674441
vt 0.727607 0.091406
vt 0.239611 0.277711
vt 0.764687 0.700549
vt 0.741658 0.700549
vt 0.483559 0.701850
vt 0.188755 0.203910
vt 0.316455 0.152803
vt 0.316455 0.701849
vt 0.277550 0.332766
vt 0.284348 0.470756
vt 0.512845 0.588518
vt 0.284348 0.422197
vt 0.284348 0.378537
vt 0.298141 0.362647
vt 0.556080 0.651871
vt 0.727607 0.149322
vt 0.556080 0.664140
vt 0.727607 0.215494
vt 0.556080 0.698727
vt 0.556080 0.616776
vt 0.224255 0.740888
vt 0.882125 0.096097
vt 0.556080 0.599591
vt 0.226356 0.785450
vt 0.884225 0.051535
vt 0.556080 0.714488
s 0
f 258/398/1 69/106/1 68/104/1
f 257/397/2 73/111/2 69/106/2
f 259/399/3 77/116/3 73/111/3
f 77/116/4 261/401/4 81/122/4
f 261/401/5 85/132/5 81/122/5
f 85/132/6 263/403/6 89/137/6
f 263/403/7 93/144/7 89/137/7
f 340/538/8 265/405/8 97/156/8
f 265/405/9 101/166/9 97/156/9
f 266/406/10 105/171/10 101/166/10
f 267/407/11 109/176/11 105/171/11
f 268/408/12 113/186/12 109/176/12
f 269/409/13 117/192/13 113/186/13
f 270/410/14 121/197/14 117/192/14
f 271/411/15 125/202/15 121/197/15
f 272/412/16 129/207/16 125/202/16
f 273/413/17 133/212/17 129/207/17
f 274/414/18 137/217/18 133/212/18
f 275/415/19 141/222/19 137/217/19
f 141/222/20 277/417/20 145/231/20
f 145/231/21 278/418/21 149/239/21
f 278/418/22 153/244/22 149/239/22
f 153/244/23 280/420/23 157/249/23
f 157/249/24 281/421/24 161/254/24
f 161/254/25 282/422/25 165/259/25
f 282/422/26 169/264/26 165/259/26
f 169/264/27 284/424/27 173/269/27
f 173/269/28 285/425/28 177/277/28
f 177/277/29 286/426/29 181/286/29
f 286/426/30 185/291/30 181/286/30
f 8/11/31 291/434/31 292/435/31
f 185/291/32 288/428/32 189/296/32
f 189/296/33 258/398/33 68/104/33
f 25/38/34 41/64/34 57/88/34
f 192/300/35 193/301/35 224/363/35
f 191/299/36 65/101/36 192/300/36
f 190/298/37 66/102/37 191/299/37
f 189/297/38 67/103/38 190/298/38
f 188/295/39 224/363/39 223/361/39
f 188/295/40 191/299/40 192/300/40
f 186/293/41 191/299/41 187/294/41
f 186/293/42 189/297/42 190/298/42
f 184/290/43 223/361/43 222/359/43
f 183/289/44 188/295/44 184/290/44
f 182/288/45 187/294/45 183/289/45
f 181/287/46 186/293/46 182/288/46
f 180/283/47 222/359/47 221/357/47
f 180/283/48 183/289/48 184/290/48
f 178/280/49 183/289/49 179/281/49
f 177/278/50 182/288/50 178/280/50
f 176/275/51 221/358/51 220/356/51
f 175/274/52 180/285/52 176/276/52
f 174/273/53 179/282/53 175/274/53
f 173/270/54 178/280/54 174/272/54
f 172/268/55 220/355/55 219/353/55
f 171/267/56 176/276/56 172/268/56
f 170/266/57 175/274/57 171/267/57
f 169/265/58 174/273/58 170/266/58
f 168/263/59 219/353/59 218/351/59
f 167/262/60 172/268/60 168/263/60
f 166/261/61 171/267/61 167/262/61
f 165/260/62 170/266/62 166/261/62
f 164/258/63 218/351/63 217/349/63
f 164/258/64 167/262/64 168/263/64
f 162/256/65 167/262/65 163/257/65
f 161/255/66 166/261/66 162/256/66
f 160/253/67 217/349/67 216/347/67
f 160/253/68 163/257/68 164/258/68
f 158/251/69 163/257/69 159/252/69
f 157/250/70 162/256/70 158/251/70
f 156/248/71 216/347/71 215/345/71
f 156/248/72 159/252/72 160/253/72
f 154/246/73 159/252/73 155/247/73
f 153/245/74 158/251/74 154/246/74
f 152/243/75 215/345/75 214/343/75
f 152/243/76 155/247/76 156/248/76
f 150/241/77 155/247/77 151/242/77
f 149/240/78 154/246/78 150/241/78
f 148/238/79 214/343/79 213/341/79
f 148/238/80 151/242/80 152/243/80
f 146/234/81 151/242/81 147/236/81
f 145/232/82 150/241/82 146/234/82
f 144/229/83 213/342/83 212/340/83
f 143/226/84 148/238/84 144/228/84
f 142/224/85 147/236/85 143/226/85
f 141/223/86 146/235/86 142/225/86
f 140/221/87 212/339/87 211/337/87
f 139/220/88 144/230/88 140/221/88
f 138/219/89 143/227/89 139/220/89
f 137/218/90 142/225/90 138/219/90
f 136/216/91 211/337/91 210/335/91
f 135/215/92 140/221/92 136/216/92
f 134/214/93 139/220/93 135/215/93
f 133/213/94 138/219/94 134/214/94
f 132/211/95 210/335/95 209/333/95
f 131/210/96 136/216/96 132/211/96
f 130/209/97 135/215/97 131/210/97
f 129/208/98 134/214/98 130/209/98
f 208/331/99 132/211/99 209/333/99
f 127/205/100 132/211/100 128/206/100
f 126/204/101 131/210/101 127/205/101
f 126/204/102 129/208/102 130/209/102
f 207/329/103 128/206/103 208/331/103
f 123/200/104 128/206/104 124/201/104
f 122/199/105 127/205/105 123/200/105
f 121/198/106 126/204/106 122/199/106
f 120/196/107 207/329/107 206/327/107
f 119/195/108 124/201/108 120/196/108
f 118/194/109 123/200/109 119/195/109
f 117/193/110 122/199/110 118/194/110
f 116/191/111 206/327/111 205/325/111
f 115/189/112 120/196/112 116/191/112
f 114/188/113 119/195/113 115/189/113
f 113/187/114 118/194/114 114/188/114
f 204/324/115 116/190/115 205/326/115
f 111/181/116 116/191/116 112/183/116
f 110/179/117 115/189/117 111/181/117
f 110/179/118 113/187/118 114/188/118
f 108/175/119 204/323/119 203/321/119
f 107/174/120 112/185/120 108/175/120
f 106/173/121 111/182/121 107/174/121
f 106/173/122 109/178/122 110/180/122
f 202/319/123 108/175/123 203/321/123
f 103/169/124 108/175/124 104/170/124
f 102/168/125 107/174/125 103/169/125
f 102/168/126 105/172/126 106/173/126
f 201/317/127 104/170/127 202/319/127
f 99/160/128 104/170/128 100/163/128
f 98/157/129 103/169/129 99/160/129
f 98/157/130 101/167/130 102/168/130
f 339/537/131 201/317/131 337/533/131
f 96/152/132 346/547/132 339/536/132
f 350/554/133 99/160/133 349/552/133
f 94/146/134 351/555/134 350/553/134
f 199/313/135 96/153/135 200/316/135
f 91/140/136 96/153/136 92/141/136
f 90/139/137 95/148/137 91/140/137
f 90/139/138 93/142/138 94/147/138
f 198/311/139 92/141/139 199/313/139
f 87/135/140 92/141/140 88/136/140
f 86/134/141 91/140/141 87/135/141
f 86/134/142 89/138/142 90/139/142
f 84/129/143 198/311/143 197/309/143
f 83/127/144 88/136/144 84/129/144
f 82/125/145 87/135/145 83/127/145
f 81/123/146 86/134/146 82/125/146
f 196/308/147 84/130/147 197/310/147
f 79/119/148 84/131/148 80/121/148
f 78/118/149 83/128/149 79/119/149
f 77/117/150 82/126/150 78/118/150
f 76/115/151 196/307/151 195/305/151
f 75/114/152 80/121/152 76/115/152
f 74/113/153 79/119/153 75/114/153
f 74/113/154 77/117/154 78/118/154
f 194/303/155 76/115/155 195/305/155
f 71/109/156 76/115/156 72/110/156
f 70/108/157 75/114/157 71/109/157
f 69/107/158 74/113/158 70/108/158
f 193/301/159 72/110/159 194/303/159
f 66/102/160 72/110/160 65/101/160
f 67/103/161 71/109/161 66/102/161
f 68/105/162 70/108/162 67/103/162
f 226/366/34 193/302/34 194/304/34
f 226/366/34 195/306/34 227/367/34
f 227/367/34 196/308/34 228/368/34
f 228/368/34 197/310/34 229/369/34
f 230/370/34 197/310/34 198/312/34
f 230/370/34 199/314/34 231/371/34
f 232/372/34 199/314/34 200/315/34
f 232/372/34 337/534/34 341/539/34
f 234/374/34 201/318/34 202/320/34
f 234/374/34 203/322/34 235/375/34
f 235/375/34 204/324/34 236/376/34
f 236/376/34 205/326/34 237/377/34
f 238/378/34 205/326/34 206/328/34
f 238/378/34 207/330/34 239/379/34
f 240/380/34 207/330/34 208/332/34
f 240/380/34 209/334/34 241/381/34
f 242/382/34 209/334/34 210/336/34
f 242/382/34 211/338/34 243/383/34
f 243/383/34 212/340/34 244/384/34
f 244/384/34 213/342/34 245/385/34
f 246/386/34 213/342/34 214/344/34
f 246/386/34 215/346/34 247/387/34
f 248/388/34 215/346/34 216/348/34
f 248/388/34 217/350/34 249/389/34
f 250/390/34 217/350/34 218/352/34
f 250/390/34 219/354/34 251/391/34
f 251/391/34 220/356/34 252/392/34
f 252/392/34 221/358/34 253/393/34
f 254/394/34 221/358/34 222/360/34
f 254/394/34 223/362/34 255/395/34
f 256/396/34 223/362/34 224/364/34
f 256/396/34 193/302/34 225/365/34
f 3/4/163 225/365/163 226/366/163
f 3/4/164 227/367/164 5/7/164
f 5/7/165 228/368/165 7/10/165
f 7/10/166 229/369/166 9/14/166
f 11/17/167 229/369/167 230/370/167
f 11/17/168 231/371/168 13/20/168
f 15/23/169 231/371/169 232/372/169
f 15/23/170 341/539/170 342/540/170
f 19/29/171 233/373/171 234/374/171
f 19/29/172 235/375/172 21/32/172
f 21/32/173 236/376/173 23/35/173
f 23/35/174 237/377/174 25/38/174
f 27/42/175 237/377/175 238/378/175
f 27/42/176 239/379/176 29/45/176
f 31/48/177 239/379/177 240/380/177
f 31/48/178 241/381/178 33/51/178
f 35/54/179 241/381/179 242/382/179
f 35/54/180 243/383/180 37/57/180
f 37/57/181 244/384/181 39/60/181
f 39/60/182 245/385/182 41/64/182
f 43/67/183 245/385/183 246/386/183
f 43/67/184 247/387/184 45/70/184
f 47/73/185 247/387/185 248/388/185
f 47/73/186 249/389/186 49/76/186
f 51/79/187 249/389/187 250/390/187
f 51/79/188 251/391/188 53/82/188
f 53/82/189 252/392/189 55/85/189
f 55/85/190 253/393/190 57/88/190
f 59/92/191 253/393/191 254/394/191
f 59/92/192 255/395/192 61/95/192
f 63/98/193 255/395/193 256/396/193
f 63/98/194 225/365/194 1/1/194
f 4/5/195 258/398/195 2/2/195
f 4/5/195 259/399/195 257/397/195
f 6/9/195 260/400/195 259/399/195
f 10/15/195 260/400/195 8/12/195
f 10/15/195 262/402/195 261/401/195
f 14/21/195 262/402/195 12/18/195
f 16/25/195 263/403/195 14/21/195
f 18/27/195 338/535/195 343/542/195
f 20/30/195 265/405/195 18/27/195
f 20/30/195 267/407/195 266/406/195
f 22/33/195 268/408/195 267/407/195
f 26/40/195 268/408/195 24/36/195
f 26/40/195 270/410/195 269/409/195
f 30/46/195 270/410/195 28/43/195
f 32/49/195 271/411/195 30/46/195
f 34/52/195 272/412/195 32/49/195
f 36/55/195 273/413/195 34/52/195
f 36/55/195 275/415/195 274/414/195
f 38/58/195 276/416/195 275/415/195
f 42/65/195 276/416/195 40/62/195
f 42/65/195 278/418/195 277/417/195
f 46/71/195 278/418/195 44/68/195
f 48/74/195 279/419/195 46/71/195
f 50/77/195 280/420/195 48/74/195
f 52/80/195 281/421/195 50/77/195
f 52/80/195 283/423/195 282/422/195
f 54/83/195 284/424/195 283/423/195
f 58/90/195 284/424/195 56/86/195
f 58/90/195 286/426/195 285/425/195
f 62/96/195 286/426/195 60/93/195
f 64/99/195 287/427/195 62/96/195
f 2/2/195 288/428/195 64/99/195
f 307/467/195 295/442/195 291/433/195
f 60/94/196 319/494/196 62/97/196
f 36/56/197 305/464/197 306/466/197
f 10/16/198 292/437/198 293/439/198
f 62/97/199 320/496/199 64/100/199
f 36/56/200 307/468/200 38/59/200
f 12/19/201 293/439/201 294/441/201
f 64/100/202 290/432/202 2/3/202
f 38/59/203 308/470/203 40/61/203
f 12/19/204 295/443/204 14/22/204
f 40/63/205 309/473/205 42/66/205
f 14/22/206 296/445/206 16/24/206
f 42/66/207 310/475/207 44/69/207
f 16/24/208 344/544/208 343/541/208
f 44/69/209 311/477/209 46/72/209
f 18/28/210 298/449/210 20/31/210
f 46/72/211 312/479/211 48/75/211
f 20/31/212 299/451/212 22/34/212
f 48/75/213 313/481/213 50/78/213
f 22/34/214 300/453/214 24/37/214
f 50/78/215 314/483/215 52/81/215
f 24/37/216 301/455/216 26/39/216
f 52/81/217 315/485/217 54/84/217
f 26/41/218 302/458/218 28/44/218
f 54/84/219 316/487/219 56/87/219
f 28/44/220 303/460/220 30/47/220
f 2/3/221 289/430/221 4/6/221
f 56/87/222 317/489/222 58/89/222
f 30/47/223 304/462/223 32/50/223
f 4/6/224 291/434/224 6/8/224
f 60/94/225 317/490/225 318/492/225
f 34/53/226 304/462/226 305/464/226
f 323/501/227 348/550/227 345/545/227
f 97/155/228 324/503/228 323/502/228
f 93/143/229 322/499/229 94/145/229
f 97/156/230 345/545/230 340/538/230
f 328/513/231 331/520/231 327/510/231
f 99/161/232 328/513/232 327/510/232
f 95/149/233 326/509/233 96/151/233
f 99/162/234 352/556/234 349/551/234
f 326/508/235 347/548/235 346/546/235
f 326/509/236 329/516/236 330/518/236
f 327/511/237 353/559/237 352/556/237
f 323/502/238 336/532/238 335/528/238
f 322/500/239 354/562/239 351/555/239
f 321/497/240 334/527/240 322/499/240
f 335/530/241 347/548/241 348/549/241
f 336/532/242 332/522/242 335/528/242
f 354/560/243 329/516/243 353/557/243
f 334/527/244 330/518/244 329/516/244
f 333/525/245 347/548/245 330/517/245
f 328/514/246 347/548/246 332/521/246
f 93/144/247 345/545/247 321/498/247
f 321/498/248 348/550/248 333/523/248
f 18/28/208 344/544/208 297/447/208
f 16/25/195 338/535/195 264/404/195
f 17/26/170 341/539/170 233/373/170
f 233/373/34 337/534/34 201/318/34
f 100/165/249 346/547/249 328/512/249
f 200/316/131 339/537/131 337/533/131
f 264/404/8 340/538/8 93/144/8
f 354/561/250 331/520/250 336/532/250
f 324/504/251 354/562/251 336/531/251
f 325/506/252 353/559/252 329/515/252
f 95/150/253 352/556/253 325/506/253
f 98/159/254 351/555/254 324/504/254
f 94/147/133 349/552/133 95/148/133
f 258/398/1 257/397/1 69/106/1
f 257/397/2 259/399/2 73/111/2
f 259/399/3 260/400/3 77/116/3
f 77/116/4 260/400/4 261/401/4
f 261/401/5 262/402/5 85/132/5
f 85/132/6 262/402/6 263/403/6
f 263/403/7 264/404/7 93/144/7
f 340/538/8 338/535/8 265/405/8
f 265/405/9 266/406/9 101/166/9
f 266/406/10 267/407/10 105/171/10
f 267/407/11 268/408/11 109/176/11
f 268/408/12 269/409/12 113/186/12
f 269/409/13 270/410/13 117/192/13
f 270/410/14 271/411/14 121/197/14
f 271/411/15 272/412/15 125/202/15
f 272/412/16 273/413/16 129/207/16
f 273/413/17 274/414/17 133/212/17
f 274/414/18 275/415/18 137/217/18
f 275/415/19 276/416/19 141/222/19
f 141/222/20 276/416/20 277/417/20
f 145/231/21 277/417/21 278/418/21
f 278/418/22 279/419/22 153/244/22
f 153/244/23 279/419/23 280/420/23
f 157/249/24 280/420/24 281/421/24
f 161/254/25 281/421/25 282/422/25
f 282/422/26 283/423/26 169/264/26
f 169/264/27 283/423/27 284/424/27
f 173/269/28 284/424/28 285/425/28
f 177/277/29 285/425/29 286/426/29
f 286/426/30 287/427/30 185/291/30
f 8/11/31 6/8/31 291/434/31
f 185/291/32 287/427/32 288/428/32
f 189/296/33 288/428/33 258/398/33
f 63/98/34 1/1/34 3/4/34
f 3/4/34 5/7/34 7/10/34
f 7/10/34 9/14/34 11/17/34
f 11/17/34 13/20/34 15/23/34
f 342/540/34 17/26/34 19/29/34
f 11/17/34 15/23/34 342/540/34
f 3/4/34 7/10/34 11/17/34
f 61/95/34 63/98/34 3/4/34
f 57/88/34 59/92/34 61/95/34
f 53/82/34 55/85/34 57/88/34
f 49/76/34 51/79/34 53/82/34
f 45/70/34 47/73/34 49/76/34
f 41/64/34 43/67/34 45/70/34
f 37/57/34 39/60/34 41/64/34
f 33/51/34 35/54/34 37/57/34
f 29/45/34 31/48/34 33/51/34
f 25/38/34 27/42/34 29/45/34
f 21/32/34 23/35/34 25/38/34
f 342/540/34 19/29/34 21/32/34
f 3/4/34 11/17/34 342/540/34
f 57/88/34 61/95/34 3/4/34
f 49/76/34 53/82/34 57/88/34
f 41/64/34 45/70/34 49/76/34
f 33/51/34 37/57/34 41/64/34
f 25/38/34 29/45/34 33/51/34
f 342/540/34 21/32/34 25/38/34
f 57/88/34 3/4/34 342/540/34
f 41/64/34 49/76/34 57/88/34
f 25/38/34 33/51/34 41/64/34
f 57/88/34 342/540/34 25/38/34
f 192/300/35 65/101/35 193/301/35
f 191/299/36 66/102/36 65/101/36
f 190/298/37 67/103/37 66/102/37
f 189/297/38 68/105/38 67/103/38
f 188/295/39 192/300/39 224/363/39
f 188/295/40 187/294/40 191/299/40
f 186/293/41 190/298/41 191/299/41
f 186/293/42 185/292/42 189/297/42
f 184/290/43 188/295/43 223/361/43
f 183/289/44 187/294/44 188/295/44
f 182/288/45 186/293/45 187/294/45
f 181/287/46 185/292/46 186/293/46
f 180/283/47 184/290/47 222/359/47
f 180/283/48 179/281/48 183/289/48
f 178/280/49 182/288/49 183/289/49
f 177/278/50 181/287/50 182/288/50
f 176/275/51 180/284/51 221/358/51
f 175/274/52 179/282/52 180/285/52
f 174/273/53 178/279/53 179/282/53
f 173/270/54 177/278/54 178/280/54
f 172/268/55 176/276/55 220/355/55
f 171/267/56 175/274/56 176/276/56
f 170/266/57 174/273/57 175/274/57
f 169/265/58 173/271/58 174/273/58
f 168/263/59 172/268/59 219/353/59
f 167/262/60 171/267/60 172/268/60
f 166/261/61 170/266/61 171/267/61
f 165/260/62 169/265/62 170/266/62
f 164/258/63 168/263/63 218/351/63
f 164/258/64 163/257/64 167/262/64
f 162/256/65 166/261/65 167/262/65
f 161/255/66 165/260/66 166/261/66
f 160/253/67 164/258/67 217/349/67
f 160/253/68 159/252/68 163/257/68
f 158/251/69 162/256/69 163/257/69
f 157/250/70 161/255/70 162/256/70
f 156/248/71 160/253/71 216/347/71
f 156/248/72 155/247/72 159/252/72
f 154/246/73 158/251/73 159/252/73
f 153/245/74 157/250/74 158/251/74
f 152/243/75 156/248/75 215/345/75
f 152/243/76 151/242/76 155/247/76
f 150/241/77 154/246/77 155/247/77
f 149/240/78 153/245/78 154/246/78
f 148/238/79 152/243/79 214/343/79
f 148/238/80 147/236/80 151/242/80
f 146/234/81 150/241/81 151/242/81
f 145/232/82 149/240/82 150/241/82
f 144/229/83 148/237/83 213/342/83
f 143/226/84 147/236/84 148/238/84
f 142/224/85 146/234/85 147/236/85
f 141/223/86 145/233/86 146/235/86
f 140/221/87 144/230/87 212/339/87
f 139/220/88 143/227/88 144/230/88
f 138/219/89 142/225/89 143/227/89
f 137/218/90 141/223/90 142/225/90
f 136/216/91 140/221/91 211/337/91
f 135/215/92 139/220/92 140/221/92
f 134/214/93 138/219/93 139/220/93
f 133/213/94 137/218/94 138/219/94
f 132/211/95 136/216/95 210/335/95
f 131/210/96 135/215/96 136/216/96
f 130/209/97 134/214/97 135/215/97
f 129/208/98 133/213/98 134/214/98
f 208/331/99 128/206/99 132/211/99
f 127/205/100 131/210/100 132/211/100
f 126/204/101 130/209/101 131/210/101
f 126/204/102 125/203/102 129/208/102
f 207/329/103 124/201/103 128/206/103
f 123/200/104 127/205/104 128/206/104
f 122/199/105 126/204/105 127/205/105
f 121/198/106 125/203/106 126/204/106
f 120/196/107 124/201/107 207/329/107
f 119/195/108 123/200/108 124/201/108
f 118/194/109 122/199/109 123/200/109
f 117/193/110 121/198/110 122/199/110
f 116/191/111 120/196/111 206/327/111
f 115/189/112 119/195/112 120/196/112
f 114/188/113 118/194/113 119/195/113
f 113/187/114 117/193/114 118/194/114
f 204/324/115 112/184/115 116/190/115
f 111/181/116 115/189/116 116/191/116
f 110/179/117 114/188/117 115/189/117
f 110/179/118 109/177/118 113/187/118
f 108/175/119 112/185/119 204/323/119
f 107/174/120 111/182/120 112/185/120
f 106/173/121 110/180/121 111/182/121
f 106/173/122 105/172/122 109/178/122
f 202/319/123 104/170/123 108/175/123
f 103/169/124 107/174/124 108/175/124
f 102/168/125 106/173/125 107/174/125
f 102/168/126 101/167/126 105/172/126
f 201/317/127 100/163/127 104/170/127
f 99/160/128 103/169/128 104/170/128
f 98/157/129 102/168/129 103/169/129
f 98/157/130 97/154/130 101/167/130
f 339/537/131 100/163/131 201/317/131
f 96/152/255 326/507/255 346/547/255
f 350/554/133 98/157/133 99/160/133
f 94/146/256 322/500/256 351/555/256
f 199/313/135 92/141/135 96/153/135
f 91/140/136 95/148/136 96/153/136
f 90/139/137 94/147/137 95/148/137
f 90/139/138 89/138/138 93/142/138
f 198/311/139 88/136/139 92/141/139
f 87/135/140 91/140/140 92/141/140
f 86/134/141 90/139/141 91/140/141
f 86/134/142 85/133/142 89/138/142
f 84/129/143 88/136/143 198/311/143
f 83/127/144 87/135/144 88/136/144
f 82/125/145 86/134/145 87/135/145
f 81/123/146 85/133/146 86/134/146
f 196/308/147 80/120/147 84/130/147
f 79/119/148 83/128/148 84/131/148
f 78/118/149 82/126/149 83/128/149
f 77/117/150 81/124/150 82/126/150
f 76/115/151 80/121/151 196/307/151
f 75/114/152 79/119/152 80/121/152
f 74/113/153 78/118/153 79/119/153
f 74/113/154 73/112/154 77/117/154
f 194/303/155 72/110/155 76/115/155
f 71/109/156 75/114/156 76/115/156
f 70/108/157 74/113/157 75/114/157
f 69/107/158 73/112/158 74/113/158
f 193/301/159 65/101/159 72/110/159
f 66/102/160 71/109/160 72/110/160
f 67/103/161 70/108/161 71/109/161
f 68/105/162 69/107/162 70/108/162
f 226/366/34 225/365/34 193/302/34
f 226/366/34 194/304/34 195/306/34
f 227/367/34 195/306/34 196/308/34
f 228/368/34 196/308/34 197/310/34
f 230/370/34 229/369/34 197/310/34
f 230/370/34 198/312/34 199/314/34
f 232/372/34 231/371/34 199/314/34
f 232/372/34 200/315/34 337/534/34
f 234/374/34 233/373/34 201/318/34
f 234/374/34 202/320/34 203/322/34
f 235/375/34 203/322/34 204/324/34
f 236/376/34 204/324/34 205/326/34
f 238/378/34 237/377/34 205/326/34
f 238/378/34 206/328/34 207/330/34
f 240/380/34 239/379/34 207/330/34
f 240/380/34 208/332/34 209/334/34
f 242/382/34 241/381/34 209/334/34
f 242/382/34 210/336/34 211/338/34
f 243/383/34 211/338/34 212/340/34
f 244/384/34 212/340/34 213/342/34
f 246/386/34 245/385/34 213/342/34
f 246/386/34 214/344/34 215/346/34
f 248/388/34 247/387/34 215/346/34
f 248/388/34 216/348/34 217/350/34
f 250/390/34 249/389/34 217/350/34
f 250/390/34 218/352/34 219/354/34
f 251/391/34 219/354/34 220/356/34
f 252/392/34 220/356/34 221/358/34
f 254/394/34 253/393/34 221/358/34
f 254/394/34 222/360/34 223/362/34
f 256/396/34 255/395/34 223/362/34
f 256/396/34 224/364/34 193/302/34
f 3/4/163 1/1/163 225/365/163
f 3/4/164 226/366/164 227/367/164
f 5/7/165 227/367/165 228/368/165
f 7/10/166 228/368/166 229/369/166
f 11/17/167 9/14/167 229/369/167
f 11/17/168 230/370/168 231/371/168
f 15/23/169 13/20/169 231/371/169
f 15/23/170 232/372/170 341/539/170
f 19/29/171 17/26/171 233/373/171
f 19/29/172 234/374/172 235/375/172
f 21/32/173 235/375/173 236/376/173
f 23/35/174 236/376/174 237/377/174
f 27/42/175 25/38/175 237/377/175
f 27/42/176 238/378/176 239/379/176
f 31/48/177 29/45/177 239/379/177
f 31/48/178 240/380/178 241/381/178
f 35/54/179 33/51/179 241/381/179
f 35/54/180 242/382/180 243/383/180
f 37/57/181 243/383/181 244/384/181
f 39/60/182 244/384/182 245/385/182
f 43/67/183 41/64/183 245/385/183
f 43/67/184 246/386/184 247/387/184
f 47/73/185 45/70/185 247/387/185
f 47/73/186 248/388/186 249/389/186
f 51/79/187 49/76/187 249/389/187
f 51/79/188 250/390/188 251/391/188
f 53/82/189 251/391/189 252/392/189
f 55/85/190 252/392/190 253/393/190
f 59/92/191 57/88/191 253/393/191
f 59/92/192 254/394/192 255/395/192
f 63/98/193 61/95/193 255/395/193
f 63/98/194 256/396/194 225/365/194
f 4/5/195 257/397/195 258/398/195
f 4/5/195 6/9/195 259/399/195
f 6/9/195 8/12/195 260/400/195
f 10/15/195 261/401/195 260/400/195
f 10/15/195 12/18/195 262/402/195
f 14/21/195 263/403/195 262/402/195
f 16/25/195 264/404/195 263/403/195
f 18/27/195 265/405/195 338/535/195
f 20/30/195 266/406/195 265/405/195
f 20/30/195 22/33/195 267/407/195
f 22/33/195 24/36/195 268/408/195
f 26/40/195 269/409/195 268/408/195
f 26/40/195 28/43/195 270/410/195
f 30/46/195 271/411/195 270/410/195
f 32/49/195 272/412/195 271/411/195
f 34/52/195 273/413/195 272/412/195
f 36/55/195 274/414/195 273/413/195
f 36/55/195 38/58/195 275/415/195
f 38/58/195 40/62/195 276/416/195
f 42/65/195 277/417/195 276/416/195
f 42/65/195 44/68/195 278/418/195
f 46/71/195 279/419/195 278/418/195
f 48/74/195 280/420/195 279/419/195
f 50/77/195 281/421/195 280/420/195
f 52/80/195 282/422/195 281/421/195
f 52/80/195 54/83/195 283/423/195
f 54/83/195 56/86/195 284/424/195
f 58/90/195 285/425/195 284/424/195
f 58/90/195 60/93/195 286/426/195
f 62/96/195 287/427/195 286/426/195
f 64/99/195 288/428/195 287/427/195
f 2/2/195 258/398/195 288/428/195
f 291/433/195 289/429/195 290/431/195
f 290/431/195 320/495/195 319/493/195
f 319/493/195 318/491/195 317/488/195
f 317/488/195 316/486/195 315/484/195
f 315/484/195 314/482/195 313/480/195
f 313/480/195 312/478/195 311/476/195
f 311/476/195 310/474/195 309/472/195
f 309/472/195 308/469/195 307/467/195
f 307/467/195 306/465/195 305/463/195
f 305/463/195 304/461/195 303/459/195
f 303/459/195 302/457/195 301/454/195
f 301/454/195 300/452/195 299/450/195
f 299/450/195 298/448/195 297/446/195
f 344/543/195 296/444/195 295/442/195
f 299/450/195 297/446/195 344/543/195
f 303/459/195 301/454/195 299/450/195
f 307/467/195 305/463/195 303/459/195
f 311/476/195 309/472/195 307/467/195
f 315/484/195 313/480/195 311/476/195
f 319/493/195 317/488/195 315/484/195
f 291/433/195 290/431/195 319/493/195
f 293/438/195 292/436/195 291/433/195
f 295/442/195 294/440/195 293/438/195
f 299/450/195 344/543/195 295/442/195
f 307/467/195 303/459/195 299/450/195
f 315/484/195 311/476/195 307/467/195
f 291/433/195 319/493/195 315/484/195
f 295/442/195 293/438/195 291/433/195
f 307/467/195 299/450/195 295/442/195
f 291/433/195 315/484/195 307/467/195
f 60/94/196 318/492/196 319/494/196
f 36/56/197 34/53/197 305/464/197
f 10/16/198 8/13/198 292/437/198
f 62/97/199 319/494/199 320/496/199
f 36/56/200 306/466/200 307/468/200
f 12/19/201 10/16/201 293/439/201
f 64/100/202 320/496/202 290/432/202
f 38/59/203 307/468/203 308/470/203
f 12/19/204 294/441/204 295/443/204
f 40/63/205 308/471/205 309/473/205
f 14/22/206 295/443/206 296/445/206
f 42/66/207 309/473/207 310/475/207
f 16/24/208 296/445/208 344/544/208
f 44/69/209 310/475/209 311/477/209
f 18/28/210 297/447/210 298/449/210
f 46/72/211 311/477/211 312/479/211
f 20/31/212 298/449/212 299/451/212
f 48/75/213 312/479/213 313/481/213
f 22/34/214 299/451/214 300/453/214
f 50/78/215 313/481/215 314/483/215
f 24/37/216 300/453/216 301/455/216
f 52/81/217 314/483/217 315/485/217
f 26/41/218 301/456/218 302/458/218
f 54/84/219 315/485/219 316/487/219
f 28/44/220 302/458/220 303/460/220
f 2/3/221 290/432/221 289/430/221
f 56/87/222 316/487/222 317/489/222
f 30/47/223 303/460/223 304/462/223
f 4/6/224 289/430/224 291/434/224
f 60/94/225 58/91/225 317/490/225
f 34/53/226 32/50/226 304/462/226
f 323/501/227 335/529/227 348/550/227
f 97/155/257 98/158/257 324/503/257
f 93/143/258 321/497/258 322/499/258
f 97/156/259 323/501/259 345/545/259
f 328/513/260 332/522/260 331/520/260
f 99/161/261 100/164/261 328/513/261
f 95/149/262 325/505/262 326/509/262
f 99/162/263 327/511/263 352/556/263
f 326/508/235 330/517/235 347/548/235
f 326/509/264 325/505/264 329/516/264
f 327/511/237 331/519/237 353/559/237
f 323/502/265 324/503/265 336/532/265
f 322/500/266 334/526/266 354/562/266
f 321/497/267 333/524/267 334/527/267
f 335/530/268 332/521/268 347/548/268
f 336/532/269 331/520/269 332/522/269
f 354/560/270 334/527/270 329/516/270
f 334/527/271 333/524/271 330/518/271
f 333/525/272 348/549/272 347/548/272
f 328/514/246 346/546/246 347/548/246
f 93/144/230 340/538/230 345/545/230
f 321/498/248 345/545/248 348/550/248
f 18/28/208 343/541/208 344/544/208
f 16/25/195 343/542/195 338/535/195
f 17/26/170 342/540/170 341/539/170
f 233/373/34 341/539/34 337/534/34
f 100/165/132 339/536/132 346/547/132
f 200/316/131 96/153/131 339/537/131
f 264/404/8 338/535/8 340/538/8
f 354/561/273 353/558/273 331/520/273
f 324/504/274 351/555/274 354/562/274
f 325/506/252 352/556/252 353/559/252
f 95/150/234 349/551/234 352/556/234
f 98/159/134 350/553/134 351/555/134
f 94/147/133 350/554/133 349/552/133
