# Blender 3.3.1
# www.blender.org
o Cube.001
v 0.000000 -0.003810 1.679901
v 0.000000 1.996190 1.679901
v -1.000000 -0.003810 -1.679901
v -1.000000 1.996190 -1.679901
v 0.666667 -0.003810 -1.762547
v 0.333333 -0.003810 -1.823437
v 1.000000 -0.003810 -1.679901
v 1.000000 1.996190 -1.679901
v -0.000000 -0.003810 -1.823437
v -0.333333 -0.003810 -1.823437
v -0.666667 -0.003810 -1.762547
v -0.666667 1.996190 -1.762547
v -0.333333 1.996190 -1.823437
v 0.000000 1.996190 -1.823437
v 0.333333 1.996190 -1.823437
v 0.666667 1.996190 -1.762547
vn -0.9584 -0.0000 0.2853
vn 0.2407 -0.0000 -0.9706
vn 0.9584 -0.0000 0.2853
vn -0.2407 -0.0000 -0.9706
vn -0.0000 -1.0000 -0.0000
vn -0.0000 1.0000 -0.0000
vn -0.1797 -0.0000 -0.9837
vn -0.0000 -0.0000 -1.0000
vn 0.1797 -0.0000 -0.9837
vt 0.712465 0.395850
vt 0.354438 0.003589
vt 0.317398 0.795289
vt 0.361616 0.395850
vt 0.003589 0.003589
vt 0.638384 0.795289
vt 0.996411 0.403028
vt 0.712465 0.003589
vt 0.003589 0.559932
vt 0.361616 0.003589
vt 0.996411 0.753877
vt 0.638384 0.403028
vt 0.261237 0.421459
vt 0.704037 0.403028
vt 0.206092 0.441923
vt 0.762512 0.403028
vt 0.354438 0.395850
vt 0.645562 0.403028
vt 0.317398 0.403028
vt 0.645562 0.753877
vt 0.003589 0.395850
vt 0.324576 0.559932
vt 0.153790 0.468074
vt 0.820987 0.403028
vt 0.101489 0.494224
vt 0.879462 0.403028
vt 0.937936 0.403028
vt 0.052031 0.526062
vt 0.582223 0.421459
vt 0.937936 0.753877
vt 0.527078 0.441923
vt 0.879462 0.753877
vt 0.474777 0.468074
vt 0.820987 0.753877
vt 0.422475 0.494224
vt 0.762512 0.753877
vt 0.373017 0.526062
vt 0.704037 0.753877
s 0
f 2/4/1 3/8/1 1/1/1
f 16/38/2 7/18/2 5/14/2
f 8/21/3 1/2/3 7/17/3
f 4/11/4 11/27/4 3/7/4
f 9/23/5 5/13/5 1/3/5
f 14/33/6 12/29/6 2/6/6
f 12/30/7 10/26/7 11/27/7
f 13/32/8 9/24/8 10/26/8
f 14/34/8 6/16/8 9/24/8
f 15/36/9 5/14/9 6/16/9
f 2/4/1 4/10/1 3/8/1
f 16/38/2 8/20/2 7/18/2
f 8/21/3 2/5/3 1/2/3
f 4/11/4 12/30/4 11/27/4
f 1/3/5 3/9/5 11/28/5
f 11/28/5 10/25/5 9/23/5
f 9/23/5 6/15/5 5/13/5
f 5/13/5 7/19/5 1/3/5
f 1/3/5 11/28/5 9/23/5
f 2/6/6 8/22/6 16/37/6
f 16/37/6 15/35/6 14/33/6
f 14/33/6 13/31/6 12/29/6
f 12/29/6 4/12/6 2/6/6
f 2/6/6 16/37/6 14/33/6
f 12/30/7 13/32/7 10/26/7
f 13/32/8 14/34/8 9/24/8
f 14/34/8 15/36/8 6/16/8
f 15/36/9 16/38/9 5/14/9
