# Blender 3.3.1
# www.blender.org
o Sphere.004
v 0.000000 0.018979 -0.917054
v 0.000000 0.062123 -1.372469
v 0.000000 0.118495 -1.618937
v 0.000000 0.149003 -1.650654
v 0.000000 0.179511 -1.618937
v 0.000000 0.235882 -1.372469
v 0.062824 -0.004371 -0.315839
v 0.123234 0.004528 -0.619541
v 0.178908 0.018979 -0.899433
v 0.227707 0.038426 -1.144761
v 0.267755 0.062123 -1.346097
v 0.297514 0.089159 -1.495703
v 0.315839 0.118495 -1.587830
v 0.322027 0.149003 -1.618937
v 0.315839 0.179511 -1.587830
v 0.297514 0.208846 -1.495703
v 0.267755 0.235882 -1.346097
v 0.227707 0.259579 -1.144761
v 0.178908 0.279027 -0.899433
v 0.123234 0.293478 -0.619541
v 0.062824 0.302377 -0.315839
v 0.123234 -0.004371 -0.297514
v 0.241733 0.004528 -0.583594
v 0.350941 0.018979 -0.847248
v 0.446664 0.038426 -1.078342
v 0.525221 0.062123 -1.267995
v 0.583594 0.089159 -1.408921
v 0.619540 0.118495 -1.495703
v 0.631678 0.149003 -1.525005
v 0.619540 0.179511 -1.495703
v 0.583594 0.208846 -1.408921
v 0.525221 0.235882 -1.267995
v 0.446664 0.259579 -1.078342
v 0.350941 0.279027 -0.847248
v 0.241733 0.293478 -0.583594
v 0.123234 0.302377 -0.297514
v 0.178908 -0.004371 -0.267755
v 0.350941 0.004528 -0.525221
v 0.509488 0.018979 -0.762503
v 0.648455 0.038426 -0.970482
v 0.762503 0.062123 -1.141166
v 0.847248 0.089159 -1.267996
v 0.899433 0.118495 -1.346097
v 0.917054 0.149003 -1.372468
v 0.899433 0.179511 -1.346097
v 0.847248 0.208846 -1.267996
v 0.762503 0.235882 -1.141166
v 0.648455 0.259579 -0.970482
v 0.509488 0.279027 -0.762503
v 0.350941 0.293478 -0.525221
v 0.178908 0.302377 -0.267755
v 0.227707 -0.004371 -0.227707
v 0.446664 0.004528 -0.446664
v 0.648455 0.018979 -0.648455
v 0.825327 0.038426 -0.825327
v 0.970482 0.062123 -0.970482
v 1.078342 0.089159 -1.078342
v 1.144761 0.118495 -1.144761
v 1.167189 0.149003 -1.167188
v 1.144761 0.179511 -1.144761
v 1.078342 0.208846 -1.078342
v 0.970482 0.235882 -0.970482
v 0.825327 0.259579 -0.825327
v 0.648455 0.279027 -0.648455
v 0.446664 0.293478 -0.446664
v 0.227707 0.302377 -0.227707
v 0.267755 -0.004371 -0.178908
v 0.525221 0.004528 -0.350941
v 0.762503 0.018979 -0.509488
v 0.970482 0.038426 -0.648455
v 1.141166 0.062123 -0.762503
v 1.267995 0.089159 -0.847248
v 1.346097 0.118495 -0.899433
v 1.372469 0.149003 -0.917054
v 1.346097 0.179511 -0.899433
v 1.267995 0.208846 -0.847248
v 1.141166 0.235882 -0.762503
v 0.970482 0.259579 -0.648455
v 0.762503 0.279027 -0.509488
v 0.525221 0.293478 -0.350941
v 0.267755 0.302377 -0.178908
v 0.000000 -0.007376 0.000000
v 0.297514 -0.004371 -0.123234
v 0.583594 0.004528 -0.241733
v 0.847248 0.018979 -0.350941
v 1.078342 0.038426 -0.446664
v 1.267995 0.062123 -0.525221
v 1.408921 0.089159 -0.583594
v 1.495703 0.118495 -0.619540
v 1.525005 0.149003 -0.631678
v 1.495703 0.179511 -0.619540
v 1.408921 0.208846 -0.583594
v 1.267995 0.235882 -0.525221
v 1.078342 0.259579 -0.446664
v 0.847248 0.279027 -0.350941
v 0.583594 0.293478 -0.241733
v 0.297514 0.302377 -0.123234
v 0.315839 -0.004371 -0.062824
v 0.619540 0.004528 -0.123234
v 0.899433 0.018979 -0.178908
v 1.144761 0.038426 -0.227707
v 1.346097 0.062123 -0.267755
v 1.495703 0.089159 -0.297514
v 1.587830 0.118495 -0.315839
v 1.618937 0.149003 -0.322026
v 1.587830 0.179511 -0.315839
v 1.495703 0.208846 -0.297514
v 1.346097 0.235882 -0.267755
v 1.144761 0.259579 -0.227707
v 0.899433 0.279027 -0.178908
v 0.619540 0.293478 -0.123234
v 0.315839 0.302377 -0.062824
v 0.322027 -0.004371 0.000000
v 0.631678 0.004528 0.000000
v 0.917054 0.018979 0.000000
v 1.167189 0.038426 -0.000000
v 1.372468 0.062123 0.000000
v 1.525005 0.089159 -0.000000
v 1.618937 0.118495 0.000000
v 1.650654 0.149003 0.000000
v 1.618937 0.179511 0.000000
v 1.525005 0.208846 -0.000000
v 1.372468 0.235882 0.000000
v 1.167189 0.259579 -0.000000
v 0.917054 0.279027 0.000000
v 0.631678 0.293478 0.000000
v 0.322027 0.302377 0.000000
v 0.315839 -0.004371 0.062824
v 0.619540 0.004528 0.123234
v 0.899433 0.018979 0.178908
v 1.144761 0.038426 0.227707
v 1.346097 0.062123 0.267755
v 1.495703 0.089159 0.297514
v 1.587829 0.118495 0.315839
v 1.618937 0.149003 0.322027
v 1.587829 0.179511 0.315839
v 1.495703 0.208846 0.297514
v 1.346097 0.235882 0.267755
v 1.144761 0.259579 0.227707
v 0.899433 0.279027 0.178908
v 0.619540 0.293478 0.123234
v 0.315839 0.302377 0.062824
v 0.297514 -0.004371 0.123234
v 0.583594 0.004528 0.241733
v 0.847247 0.018979 0.350941
v 1.078342 0.038426 0.446664
v 1.267995 0.062123 0.525221
v 1.408921 0.089159 0.583594
v 1.495703 0.118495 0.619541
v 1.525005 0.149003 0.631678
v 1.495703 0.179511 0.619541
v 1.408921 0.208846 0.583594
v 1.267995 0.235882 0.525221
v 1.078342 0.259579 0.446664
v 0.847247 0.279027 0.350941
v 0.583594 0.293478 0.241733
v 0.297514 0.302377 0.123234
v 0.267755 -0.004371 0.178908
v 0.525221 0.004528 0.350941
v 0.762502 0.018979 0.509488
v 0.970482 0.038426 0.648455
v 1.141166 0.062123 0.762503
v 1.267995 0.089159 0.847247
v 1.346097 0.118495 0.899433
v 1.372468 0.149003 0.917054
v 1.346097 0.179511 0.899433
v 1.267995 0.208846 0.847247
v 1.141166 0.235882 0.762503
v 0.970482 0.259579 0.648455
v 0.762502 0.279027 0.509488
v 0.525221 0.293478 0.350941
v 0.267755 0.302377 0.178908
v 0.227707 -0.004371 0.227707
v 0.446664 0.004528 0.446664
v 0.648455 0.018979 0.648455
v 0.825327 0.038426 0.825327
v 0.970482 0.062123 0.970482
v 1.078342 0.089159 1.078341
v 1.144761 0.118495 1.144761
v 1.167188 0.149003 1.167189
v 1.144761 0.179511 1.144761
v 1.078342 0.208846 1.078341
v 0.970482 0.235882 0.970482
v 0.825327 0.259579 0.825327
v 0.648455 0.279027 0.648455
v 0.446664 0.293478 0.446664
v 0.227707 0.302377 0.227707
v 0.178908 -0.004371 0.267755
v 0.350941 0.004528 0.525221
v 0.509488 0.018979 0.762503
v 0.648455 0.038426 0.970482
v 0.762502 0.062123 1.141166
v 0.847248 0.089159 1.267995
v 0.899433 0.118495 1.346097
v 0.917053 0.149003 1.372468
v 0.899433 0.179511 1.346097
v 0.847248 0.208846 1.267995
v 0.762502 0.235882 1.141166
v 0.648455 0.259579 0.970482
v 0.509488 0.279027 0.762503
v 0.350941 0.293478 0.525221
v 0.178908 0.302377 0.267755
v 0.123234 -0.004371 0.297514
v 0.241733 0.004528 0.583594
v 0.350941 0.018979 0.847247
v 0.446664 0.038426 1.078342
v 0.525221 0.062123 1.267995
v 0.583594 0.089159 1.408921
v 0.619540 0.118495 1.495703
v 0.631677 0.149003 1.525005
v 0.619540 0.179511 1.495703
v 0.583594 0.208846 1.408921
v 0.525221 0.235882 1.267995
v 0.446664 0.259579 1.078342
v 0.350941 0.279027 0.847247
v 0.241733 0.293478 0.583594
v 0.123234 0.302377 0.297514
v 0.062824 -0.004371 0.315839
v 0.123234 0.004528 0.619540
v 0.178908 0.018979 0.899433
v 0.227707 0.038426 1.144761
v 0.267755 0.062123 1.346097
v 0.297514 0.089159 1.495703
v 0.315839 0.118495 1.587829
v 0.322026 0.149003 1.618936
v 0.315839 0.179511 1.587829
v 0.297514 0.208846 1.495703
v 0.267755 0.235882 1.346097
v 0.227707 0.259579 1.144761
v 0.178908 0.279027 0.899433
v 0.123234 0.293478 0.619540
v 0.062824 0.302377 0.315839
v -0.000000 -0.004371 0.322026
v -0.000000 0.004528 0.631678
v -0.000000 0.018979 0.917054
v -0.000000 0.038426 1.167189
v -0.000000 0.062123 1.372468
v 0.000000 0.089159 1.525005
v -0.000000 0.118495 1.618937
v -0.000001 0.149003 1.650653
v -0.000000 0.179511 1.618937
v 0.000000 0.208846 1.525005
v -0.000000 0.235882 1.372468
v -0.000000 0.259579 1.167189
v -0.000000 0.279027 0.917054
v -0.000000 0.293478 0.631678
v -0.000000 0.302377 0.322026
v -0.062824 -0.004371 0.315839
v -0.123234 0.004528 0.619540
v -0.178908 0.018979 0.899433
v -0.227707 0.038426 1.144761
v -0.267755 0.062123 1.346097
v -0.297514 0.089159 1.495703
v -0.315839 0.118495 1.587829
v -0.322027 0.149003 1.618936
v -0.315839 0.179511 1.587829
v -0.297514 0.208846 1.495703
v -0.267755 0.235882 1.346097
v -0.227707 0.259579 1.144761
v -0.178908 0.279027 0.899433
v -0.123234 0.293478 0.619540
v -0.062824 0.302377 0.315839
v -0.123234 -0.004371 0.297514
v -0.241733 0.004528 0.583594
v -0.350941 0.018979 0.847247
v -0.446664 0.038426 1.078341
v -0.525221 0.062123 1.267995
v -0.583594 0.089159 1.408921
v -0.619540 0.118495 1.495702
v -0.631678 0.149003 1.525004
v -0.619540 0.179511 1.495702
v -0.583594 0.208846 1.408921
v -0.525221 0.235882 1.267995
v -0.446664 0.259579 1.078341
v -0.350941 0.279027 0.847247
v -0.241733 0.293478 0.583594
v -0.123234 0.302377 0.297514
v -0.178908 -0.004371 0.267755
v -0.350941 0.004528 0.525221
v -0.509488 0.018979 0.762502
v -0.648455 0.038426 0.970482
v -0.762503 0.062123 1.141165
v -0.847247 0.089159 1.267995
v -0.899433 0.118495 1.346096
v -0.917054 0.149003 1.372467
v -0.899433 0.179511 1.346096
v -0.847247 0.208846 1.267995
v -0.762503 0.235882 1.141165
v -0.648455 0.259579 0.970482
v -0.509488 0.279027 0.762502
v -0.350941 0.293478 0.525221
v -0.178908 0.302377 0.267755
v -0.227707 -0.004371 0.227707
v -0.446664 0.004528 0.446664
v -0.648455 0.018979 0.648455
v -0.825327 0.038426 0.825327
v -0.970482 0.062123 0.970481
v -1.078341 0.089159 1.078341
v -1.144761 0.118495 1.144761
v -1.167188 0.149003 1.167187
v -1.144761 0.179511 1.144761
v -1.078341 0.208846 1.078341
v -0.970482 0.235882 0.970481
v -0.825327 0.259579 0.825327
v -0.648455 0.279027 0.648455
v -0.446664 0.293478 0.446664
v -0.227707 0.302377 0.227707
v 0.000000 0.305382 0.000000
v -0.267755 -0.004371 0.178908
v -0.525221 0.004528 0.350941
v -0.762502 0.018979 0.509488
v -0.970482 0.038426 0.648455
v -1.141166 0.062123 0.762502
v -1.267995 0.089159 0.847247
v -1.346097 0.118495 0.899433
v -1.372468 0.149003 0.917053
v -1.346097 0.179511 0.899433
v -1.267995 0.208846 0.847247
v -1.141166 0.235882 0.762502
v -0.970482 0.259579 0.648455
v -0.762502 0.279027 0.509488
v -0.525221 0.293478 0.350941
v -0.267755 0.302377 0.178908
v -0.297514 -0.004371 0.123234
v -0.583594 0.004528 0.241733
v -0.847247 0.018979 0.350941
v -1.078341 0.038426 0.446664
v -1.267995 0.062123 0.525221
v -1.408921 0.089159 0.583594
v -1.495703 0.118495 0.619540
v -1.525004 0.149003 0.631677
v -1.495703 0.179511 0.619540
v -1.408921 0.208846 0.583594
v -1.267995 0.235882 0.525221
v -1.078341 0.259579 0.446664
v -0.847247 0.279027 0.350941
v -0.583594 0.293478 0.241733
v -0.297514 0.302377 0.123234
v -0.315839 -0.004371 0.062824
v -0.619540 0.004528 0.123234
v -0.899433 0.018979 0.178908
v -1.144761 0.038426 0.227707
v -1.346096 0.062123 0.267755
v -1.495702 0.089159 0.297514
v -1.587829 0.118495 0.315838
v -1.618936 0.149003 0.322026
v -1.587829 0.179511 0.315838
v -1.495702 0.208846 0.297514
v -1.346096 0.235882 0.267755
v -1.144761 0.259579 0.227707
v -0.899433 0.279027 0.178908
v -0.619540 0.293478 0.123234
v -0.315839 0.302377 0.062824
v -0.322026 -0.004371 -0.000000
v -0.631678 0.004528 -0.000000
v -0.917054 0.018979 -0.000000
v -1.167188 0.038426 -0.000000
v -1.372468 0.062123 -0.000000
v -1.525005 0.089159 -0.000000
v -1.618937 0.118495 -0.000000
v -1.650653 0.149003 -0.000001
v -1.618937 0.179511 -0.000000
v -1.525005 0.208846 -0.000000
v -1.372468 0.235882 -0.000000
v -1.167188 0.259579 -0.000000
v -0.917054 0.279027 -0.000000
v -0.631678 0.293478 -0.000000
v -0.322026 0.302377 -0.000000
v -0.315839 -0.004371 -0.062824
v -0.619540 0.004528 -0.123234
v -0.899433 0.018979 -0.178909
v -1.144761 0.038426 -0.227707
v -1.346096 0.062123 -0.267756
v -1.495702 0.089159 -0.297514
v -1.587829 0.118495 -0.315839
v -1.618935 0.149003 -0.322027
v -1.587829 0.179511 -0.315839
v -1.495702 0.208846 -0.297514
v -1.346096 0.235882 -0.267756
v -1.144761 0.259579 -0.227707
v -0.899433 0.279027 -0.178909
v -0.619540 0.293478 -0.123234
v -0.315839 0.302377 -0.062824
v -0.297514 -0.004371 -0.123234
v -0.583594 0.004528 -0.241733
v -0.847247 0.018979 -0.350941
v -1.078341 0.038426 -0.446664
v -1.267995 0.062123 -0.525221
v -1.408921 0.089159 -0.583594
v -1.495702 0.118495 -0.619541
v -1.525004 0.149003 -0.631678
v -1.495702 0.179511 -0.619541
v -1.408921 0.208846 -0.583594
v -1.267995 0.235882 -0.525221
v -1.078341 0.259579 -0.446664
v -0.847247 0.279027 -0.350941
v -0.583594 0.293478 -0.241733
v -0.297514 0.302377 -0.123234
v -0.267755 -0.004371 -0.178908
v -0.525221 0.004528 -0.350941
v -0.762502 0.018979 -0.509488
v -0.970482 0.038426 -0.648455
v -1.141165 0.062123 -0.762503
v -1.267995 0.089159 -0.847247
v -1.346096 0.118495 -0.899433
v -1.372467 0.149003 -0.917054
v -1.346096 0.179511 -0.899433
v -1.267995 0.208846 -0.847247
v -1.141165 0.235882 -0.762503
v -0.970482 0.259579 -0.648455
v -0.762502 0.279027 -0.509488
v -0.525221 0.293478 -0.350941
v -0.267755 0.302377 -0.178908
v -0.227707 -0.004371 -0.227707
v -0.446663 0.004528 -0.446664
v -0.648454 0.018979 -0.648455
v -0.825327 0.038426 -0.825327
v -0.970481 0.062123 -0.970482
v -1.078341 0.089159 -1.078341
v -1.144761 0.118495 -1.144761
v -1.167187 0.149003 -1.167188
v -1.144761 0.179511 -1.144761
v -1.078341 0.208846 -1.078341
v -0.970481 0.235882 -0.970482
v -0.825327 0.259579 -0.825327
v -0.648454 0.279027 -0.648455
v -0.446663 0.293478 -0.446664
v -0.227707 0.302377 -0.227707
v -0.178908 -0.004371 -0.267755
v -0.350941 0.004528 -0.525221
v -0.509487 0.018979 -0.762502
v -0.648455 0.038426 -0.970482
v -0.762502 0.062123 -1.141165
v -0.847247 0.089159 -1.267995
v -0.899432 0.118495 -1.346097
v -0.917053 0.149003 -1.372468
v -0.899432 0.179511 -1.346097
v -0.847247 0.208846 -1.267995
v -0.762502 0.235882 -1.141165
v -0.648455 0.259579 -0.970482
v -0.509487 0.279027 -0.762502
v -0.350941 0.293478 -0.525221
v -0.178908 0.302377 -0.267755
v -0.123234 -0.004371 -0.297514
v -0.241732 0.004528 -0.583594
v -0.350941 0.018979 -0.847247
v -0.446664 0.038426 -1.078341
v -0.525220 0.062123 -1.267995
v -0.583594 0.089159 -1.408921
v -0.619540 0.118495 -1.495702
v -0.631677 0.149003 -1.525004
v -0.619540 0.179511 -1.495702
v -0.583594 0.208846 -1.408921
v -0.525220 0.235882 -1.267995
v -0.446664 0.259579 -1.078341
v -0.350941 0.279027 -0.847247
v -0.241732 0.293478 -0.583594
v -0.123234 0.302377 -0.297514
v -0.062824 -0.004371 -0.315839
v -0.123234 0.004528 -0.619540
v -0.178908 0.018979 -0.899432
v -0.227707 0.038426 -1.144761
v -0.267755 0.062123 -1.346096
v -0.297514 0.089159 -1.495702
v -0.315838 0.118495 -1.587829
v -0.322025 0.149003 -1.618935
v -0.315838 0.179511 -1.587829
v -0.297514 0.208846 -1.495702
v -0.267755 0.235882 -1.346096
v -0.227707 0.259579 -1.144761
v -0.178908 0.279027 -0.899432
v -0.123234 0.293478 -0.619540
v -0.062824 0.302377 -0.315839
v 0.000000 -0.004371 -0.322026
v 0.000000 0.004528 -0.631678
v 0.000000 0.038426 -1.167188
v 0.000000 0.089159 -1.525005
v 0.000000 0.208846 -1.525005
v 0.000000 0.259579 -1.167188
v 0.000000 0.279027 -0.917053
v 0.000000 0.293478 -0.631678
v 0.000000 0.302377 -0.322026
vn 0.0293 0.9541 -0.2980
vn 0.0050 -0.9987 -0.0506
vn 0.0172 0.9845 -0.1745
vn 0.0076 -0.9970 -0.0775
vn 0.0113 0.9933 -0.1147
vn 0.0113 -0.9933 -0.1147
vn 0.0076 0.9970 -0.0775
vn 0.0172 -0.9845 -0.1745
vn 0.0050 0.9987 -0.0506
vn 0.0293 -0.9541 -0.2980
vn 0.0028 0.9996 -0.0287
vn 0.0681 -0.7190 -0.6916
vn 0.0009 -1.0000 -0.0093
vn 0.0009 1.0000 -0.0093
vn 0.0681 0.7190 -0.6916
vn 0.0028 -0.9996 -0.0287
vn 0.0027 1.0000 -0.0090
vn 0.2017 0.7190 -0.6650
vn 0.0084 -0.9996 -0.0276
vn 0.0869 0.9541 -0.2865
vn 0.0148 -0.9987 -0.0486
vn 0.0509 0.9845 -0.1678
vn 0.0226 -0.9970 -0.0745
vn 0.0334 0.9933 -0.1103
vn 0.0334 -0.9933 -0.1103
vn 0.0226 0.9970 -0.0745
vn 0.0509 -0.9845 -0.1678
vn 0.0148 0.9987 -0.0486
vn 0.0869 -0.9541 -0.2865
vn 0.0084 0.9996 -0.0276
vn 0.2017 -0.7190 -0.6650
vn 0.0027 -1.0000 -0.0090
vn 0.0367 0.9970 -0.0687
vn 0.0827 -0.9845 -0.1546
vn 0.0240 0.9987 -0.0448
vn 0.1411 -0.9541 -0.2641
vn 0.0136 0.9996 -0.0255
vn 0.3276 -0.7190 -0.6129
vn 0.0044 -1.0000 -0.0083
vn 0.0044 1.0000 -0.0083
vn 0.3276 0.7190 -0.6129
vn 0.0136 -0.9996 -0.0255
vn 0.1411 0.9541 -0.2641
vn 0.0240 -0.9987 -0.0448
vn 0.0827 0.9845 -0.1546
vn 0.0367 -0.9970 -0.0687
vn 0.0543 0.9933 -0.1016
vn 0.0543 -0.9933 -0.1016
vn 0.0183 -0.9996 -0.0223
vn 0.1900 0.9541 -0.2315
vn 0.0322 -0.9987 -0.0393
vn 0.1112 0.9845 -0.1355
vn 0.0494 -0.9970 -0.0602
vn 0.0731 0.9933 -0.0891
vn 0.0731 -0.9933 -0.0891
vn 0.0494 0.9970 -0.0602
vn 0.1112 -0.9845 -0.1355
vn 0.0322 0.9987 -0.0393
vn 0.1900 -0.9541 -0.2315
vn 0.0183 0.9996 -0.0223
vn 0.4409 -0.7190 -0.5372
vn 0.0059 -1.0000 -0.0072
vn 0.0059 1.0000 -0.0072
vn 0.4409 0.7190 -0.5372
vn 0.1355 -0.9845 -0.1112
vn 0.0393 0.9987 -0.0322
vn 0.2315 -0.9541 -0.1900
vn 0.0223 0.9996 -0.0183
vn 0.5372 -0.7190 -0.4409
vn 0.0072 -1.0000 -0.0059
vn 0.0072 1.0000 -0.0059
vn 0.5372 0.7190 -0.4409
vn 0.0223 -0.9996 -0.0183
vn 0.2315 0.9541 -0.1900
vn 0.0393 -0.9987 -0.0322
vn 0.1355 0.9845 -0.1112
vn 0.0602 -0.9970 -0.0494
vn 0.0891 0.9933 -0.0731
vn 0.0891 -0.9933 -0.0731
vn 0.0602 0.9970 -0.0494
vn 0.2641 0.9541 -0.1411
vn 0.0448 -0.9987 -0.0240
vn 0.1546 0.9845 -0.0827
vn 0.0687 -0.9970 -0.0367
vn 0.1016 0.9933 -0.0543
vn 0.1016 -0.9933 -0.0543
vn 0.0687 0.9970 -0.0367
vn 0.1546 -0.9845 -0.0827
vn 0.0448 0.9987 -0.0240
vn 0.2641 -0.9541 -0.1411
vn 0.0255 0.9996 -0.0136
vn 0.6129 -0.7190 -0.3276
vn 0.0083 -1.0000 -0.0044
vn 0.0083 1.0000 -0.0044
vn 0.6129 0.7190 -0.3276
vn 0.0255 -0.9996 -0.0136
vn 0.0486 0.9987 -0.0148
vn 0.2865 -0.9541 -0.0869
vn 0.0276 0.9996 -0.0084
vn 0.6651 -0.7190 -0.2017
vn 0.0090 -1.0000 -0.0027
vn 0.0090 1.0000 -0.0027
vn 0.6651 0.7190 -0.2017
vn 0.0276 -0.9996 -0.0084
vn 0.2865 0.9541 -0.0869
vn 0.0486 -0.9987 -0.0148
vn 0.1678 0.9845 -0.0509
vn 0.0745 -0.9970 -0.0226
vn 0.1103 0.9933 -0.0334
vn 0.1103 -0.9933 -0.0334
vn 0.0745 0.9970 -0.0226
vn 0.1678 -0.9845 -0.0509
vn 0.0506 -0.9987 -0.0050
vn 0.1745 0.9845 -0.0172
vn 0.0775 -0.9970 -0.0076
vn 0.1147 0.9933 -0.0113
vn 0.1147 -0.9933 -0.0113
vn 0.0775 0.9970 -0.0076
vn 0.1745 -0.9845 -0.0172
vn 0.0506 0.9987 -0.0050
vn 0.2980 -0.9541 -0.0293
vn 0.0287 0.9996 -0.0028
vn 0.6916 -0.7190 -0.0681
vn 0.0093 -1.0000 -0.0009
vn 0.0093 1.0000 -0.0009
vn 0.6916 0.7190 -0.0681
vn 0.0287 -0.9996 -0.0028
vn 0.2980 0.9541 -0.0293
vn 0.2980 -0.9541 0.0293
vn 0.0287 0.9996 0.0028
vn 0.6916 -0.7190 0.0681
vn 0.0093 -1.0000 0.0009
vn 0.0093 1.0000 0.0009
vn 0.6916 0.7190 0.0681
vn 0.0287 -0.9996 0.0028
vn 0.2980 0.9541 0.0293
vn 0.0506 -0.9987 0.0050
vn 0.1745 0.9845 0.0172
vn 0.0775 -0.9970 0.0076
vn 0.1147 0.9933 0.0113
vn 0.1147 -0.9933 0.0113
vn 0.0775 0.9970 0.0076
vn 0.1745 -0.9845 0.0172
vn 0.0506 0.9987 0.0050
vn 0.1678 0.9845 0.0509
vn 0.0745 -0.9970 0.0226
vn 0.1103 0.9933 0.0334
vn 0.1103 -0.9933 0.0334
vn 0.0745 0.9970 0.0226
vn 0.1678 -0.9845 0.0509
vn 0.0486 0.9987 0.0148
vn 0.2865 -0.9541 0.0869
vn 0.0276 0.9996 0.0084
vn 0.6651 -0.7190 0.2017
vn 0.0090 -1.0000 0.0027
vn 0.0090 1.0000 0.0027
vn 0.6651 0.7190 0.2017
vn 0.0276 -0.9996 0.0084
vn 0.2865 0.9541 0.0869
vn 0.0486 -0.9987 0.0148
vn 0.0255 0.9996 0.0136
vn 0.6129 -0.7190 0.3276
vn 0.0083 -1.0000 0.0044
vn 0.0083 1.0000 0.0044
vn 0.6129 0.7190 0.3276
vn 0.0255 -0.9996 0.0136
vn 0.2641 0.9541 0.1411
vn 0.0448 -0.9987 0.0240
vn 0.1546 0.9845 0.0827
vn 0.0687 -0.9970 0.0367
vn 0.1016 0.9933 0.0543
vn 0.1016 -0.9933 0.0543
vn 0.0687 0.9970 0.0367
vn 0.1546 -0.9845 0.0827
vn 0.0448 0.9987 0.0240
vn 0.2641 -0.9541 0.1411
vn 0.0891 0.9933 0.0731
vn 0.0891 -0.9933 0.0731
vn 0.0602 0.9970 0.0494
vn 0.1355 -0.9845 0.1112
vn 0.0393 0.9987 0.0322
vn 0.2315 -0.9541 0.1900
vn 0.0223 0.9996 0.0183
vn 0.5372 -0.7190 0.4409
vn 0.0072 -1.0000 0.0059
vn 0.0072 1.0000 0.0059
vn 0.5372 0.7190 0.4409
vn 0.0223 -0.9996 0.0183
vn 0.2315 0.9541 0.1900
vn 0.0393 -0.9987 0.0322
vn 0.1355 0.9845 0.1112
vn 0.0602 -0.9970 0.0494
vn 0.0059 -1.0000 0.0072
vn 0.0059 1.0000 0.0072
vn 0.4409 0.7190 0.5372
vn 0.0183 -0.9996 0.0223
vn 0.1900 0.9541 0.2315
vn 0.0322 -0.9987 0.0393
vn 0.1112 0.9845 0.1355
vn 0.0494 -0.9970 0.0602
vn 0.0731 0.9933 0.0891
vn 0.0731 -0.9933 0.0891
vn 0.0494 0.9970 0.0602
vn 0.1112 -0.9845 0.1355
vn 0.0322 0.9987 0.0393
vn 0.1900 -0.9541 0.2315
vn 0.0183 0.9996 0.0223
vn 0.4409 -0.7190 0.5372
vn 0.0543 -0.9933 0.1016
vn 0.0367 0.9970 0.0687
vn 0.0827 -0.9845 0.1546
vn 0.0240 0.9987 0.0448
vn 0.1411 -0.9541 0.2641
vn 0.0136 0.9996 0.0255
vn 0.3276 -0.7190 0.6129
vn 0.0044 -1.0000 0.0083
vn 0.0044 1.0000 0.0083
vn 0.3276 0.7190 0.6129
vn 0.0136 -0.9996 0.0255
vn 0.1411 0.9541 0.2641
vn 0.0240 -0.9987 0.0448
vn 0.0827 0.9845 0.1546
vn 0.0367 -0.9970 0.0687
vn 0.0543 0.9933 0.1016
vn 0.2017 0.7190 0.6651
vn 0.0084 -0.9996 0.0276
vn 0.0869 0.9541 0.2865
vn 0.0148 -0.9987 0.0486
vn 0.0509 0.9845 0.1678
vn 0.0226 -0.9970 0.0745
vn 0.0334 0.9933 0.1103
vn 0.0334 -0.9933 0.1103
vn 0.0226 0.9970 0.0745
vn 0.0509 -0.9845 0.1678
vn 0.0148 0.9987 0.0486
vn 0.0869 -0.9541 0.2865
vn 0.0084 0.9996 0.0276
vn 0.2017 -0.7190 0.6651
vn 0.0027 -1.0000 0.0090
vn 0.0027 1.0000 0.0090
vn 0.0076 0.9970 0.0775
vn 0.0172 -0.9845 0.1745
vn 0.0050 0.9987 0.0506
vn 0.0293 -0.9541 0.2980
vn 0.0028 0.9996 0.0287
vn 0.0681 -0.7190 0.6916
vn 0.0009 -1.0000 0.0093
vn 0.0009 1.0000 0.0093
vn 0.0681 0.7190 0.6916
vn 0.0028 -0.9996 0.0287
vn 0.0293 0.9541 0.2980
vn 0.0050 -0.9987 0.0506
vn 0.0172 0.9845 0.1745
vn 0.0076 -0.9970 0.0775
vn 0.0113 0.9933 0.1147
vn 0.0113 -0.9933 0.1147
vn -0.0028 -0.9996 0.0287
vn -0.0293 0.9541 0.2980
vn -0.0050 -0.9987 0.0506
vn -0.0172 0.9845 0.1745
vn -0.0076 -0.9970 0.0775
vn -0.0113 0.9933 0.1147
vn -0.0113 -0.9933 0.1147
vn -0.0076 0.9970 0.0775
vn -0.0172 -0.9845 0.1745
vn -0.0050 0.9987 0.0506
vn -0.0293 -0.9541 0.2980
vn -0.0028 0.9996 0.0287
vn -0.0681 -0.7190 0.6916
vn -0.0009 -1.0000 0.0093
vn -0.0009 1.0000 0.0093
vn -0.0681 0.7190 0.6916
vn -0.0509 -0.9845 0.1678
vn -0.0148 0.9987 0.0486
vn -0.0869 -0.9541 0.2865
vn -0.0084 0.9996 0.0276
vn -0.2017 -0.7190 0.6651
vn -0.0027 -1.0000 0.0090
vn -0.0027 1.0000 0.0090
vn -0.2017 0.7190 0.6651
vn -0.0084 -0.9996 0.0276
vn -0.0869 0.9541 0.2865
vn -0.0148 -0.9987 0.0486
vn -0.0509 0.9845 0.1678
vn -0.0226 -0.9970 0.0745
vn -0.0334 0.9933 0.1103
vn -0.0334 -0.9933 0.1103
vn -0.0226 0.9970 0.0745
vn -0.1411 0.9541 0.2641
vn -0.0240 -0.9987 0.0448
vn -0.0827 0.9845 0.1546
vn -0.0367 -0.9970 0.0687
vn -0.0543 0.9933 0.1016
vn -0.0543 -0.9933 0.1016
vn -0.0367 0.9970 0.0687
vn -0.0827 -0.9845 0.1546
vn -0.0240 0.9987 0.0448
vn -0.1411 -0.9541 0.2641
vn -0.0136 0.9996 0.0255
vn -0.3276 -0.7190 0.6129
vn -0.0044 -1.0000 0.0083
vn -0.0044 1.0000 0.0083
vn -0.3276 0.7190 0.6129
vn -0.0136 -0.9996 0.0255
vn -0.0322 0.9987 0.0393
vn -0.1900 -0.9541 0.2315
vn -0.0183 0.9996 0.0223
vn -0.4409 -0.7190 0.5372
vn -0.0059 -1.0000 0.0072
vn -0.0059 1.0000 0.0072
vn -0.4409 0.7190 0.5372
vn -0.0183 -0.9996 0.0223
vn -0.1900 0.9541 0.2315
vn -0.0322 -0.9987 0.0393
vn -0.1112 0.9845 0.1355
vn -0.0494 -0.9970 0.0602
vn -0.0731 0.9933 0.0891
vn -0.0731 -0.9933 0.0891
vn -0.0494 0.9970 0.0602
vn -0.1112 -0.9845 0.1355
vn -0.1355 0.9845 0.1112
vn -0.0602 -0.9970 0.0494
vn -0.0891 0.9933 0.0731
vn -0.0891 -0.9933 0.0731
vn -0.0602 0.9970 0.0494
vn -0.1355 -0.9845 0.1112
vn -0.0393 0.9987 0.0322
vn -0.2315 -0.9541 0.1900
vn -0.0223 0.9996 0.0183
vn -0.5372 -0.7190 0.4409
vn -0.0072 -1.0000 0.0059
vn -0.0072 1.0000 0.0059
vn -0.5372 0.7190 0.4409
vn -0.0223 -0.9996 0.0183
vn -0.2315 0.9541 0.1900
vn -0.0393 -0.9987 0.0322
vn -0.0255 0.9996 0.0136
vn -0.6129 -0.7190 0.3276
vn -0.0083 -1.0000 0.0044
vn -0.0083 1.0000 0.0044
vn -0.6129 0.7190 0.3276
vn -0.0255 -0.9996 0.0136
vn -0.2641 0.9541 0.1411
vn -0.0448 -0.9987 0.0240
vn -0.1546 0.9845 0.0827
vn -0.0687 -0.9970 0.0367
vn -0.1016 0.9933 0.0543
vn -0.1016 -0.9933 0.0543
vn -0.0687 0.9970 0.0367
vn -0.1546 -0.9845 0.0827
vn -0.0448 0.9987 0.0240
vn -0.2641 -0.9541 0.1411
vn -0.0745 -0.9970 0.0226
vn -0.1103 0.9933 0.0334
vn -0.1103 -0.9933 0.0334
vn -0.0745 0.9970 0.0226
vn -0.1678 -0.9845 0.0509
vn -0.0486 0.9987 0.0148
vn -0.2865 -0.9541 0.0869
vn -0.0276 0.9996 0.0084
vn -0.6651 -0.7190 0.2017
vn -0.0090 -1.0000 0.0027
vn -0.0090 1.0000 0.0027
vn -0.6651 0.7190 0.2017
vn -0.0276 -0.9996 0.0084
vn -0.2865 0.9541 0.0869
vn -0.0486 -0.9987 0.0148
vn -0.1678 0.9845 0.0509
vn -0.6916 -0.7190 0.0681
vn -0.0093 -1.0000 0.0009
vn -0.0093 1.0000 0.0009
vn -0.6916 0.7190 0.0681
vn -0.0287 -0.9996 0.0028
vn -0.2980 0.9541 0.0293
vn -0.0506 -0.9987 0.0050
vn -0.1745 0.9845 0.0172
vn -0.0775 -0.9970 0.0076
vn -0.1147 0.9933 0.0113
vn -0.1147 -0.9933 0.0113
vn -0.0775 0.9970 0.0076
vn -0.1745 -0.9845 0.0172
vn -0.0506 0.9987 0.0050
vn -0.2980 -0.9541 0.0293
vn -0.0287 0.9996 0.0028
vn -0.1147 0.9933 -0.0113
vn -0.1147 -0.9933 -0.0113
vn -0.0775 0.9970 -0.0076
vn -0.1745 -0.9845 -0.0172
vn -0.0506 0.9987 -0.0050
vn -0.2980 -0.9541 -0.0293
vn -0.0287 0.9996 -0.0028
vn -0.6916 -0.7190 -0.0681
vn -0.0093 -1.0000 -0.0009
vn -0.0093 1.0000 -0.0009
vn -0.6916 0.7190 -0.0681
vn -0.0287 -0.9996 -0.0028
vn -0.2980 0.9541 -0.0293
vn -0.0506 -0.9987 -0.0050
vn -0.1745 0.9845 -0.0172
vn -0.0775 -0.9970 -0.0076
vn -0.0090 -1.0000 -0.0027
vn -0.0090 1.0000 -0.0027
vn -0.6651 0.7190 -0.2017
vn -0.0276 -0.9996 -0.0084
vn -0.2865 0.9541 -0.0869
vn -0.0486 -0.9987 -0.0148
vn -0.1678 0.9845 -0.0509
vn -0.0745 -0.9970 -0.0226
vn -0.1103 0.9933 -0.0334
vn -0.1103 -0.9933 -0.0334
vn -0.0745 0.9970 -0.0226
vn -0.1678 -0.9845 -0.0509
vn -0.0486 0.9987 -0.0148
vn -0.2865 -0.9541 -0.0869
vn -0.0276 0.9996 -0.0084
vn -0.6651 -0.7190 -0.2017
vn -0.1016 -0.9933 -0.0543
vn -0.0687 0.9970 -0.0367
vn -0.1546 -0.9845 -0.0827
vn -0.0448 0.9987 -0.0240
vn -0.2641 -0.9541 -0.1411
vn -0.0255 0.9996 -0.0136
vn -0.6129 -0.7190 -0.3276
vn -0.0083 -1.0000 -0.0044
vn -0.0083 1.0000 -0.0044
vn -0.6129 0.7190 -0.3276
vn -0.0255 -0.9996 -0.0136
vn -0.2641 0.9541 -0.1411
vn -0.0448 -0.9987 -0.0240
vn -0.1546 0.9845 -0.0827
vn -0.0687 -0.9970 -0.0367
vn -0.1016 0.9933 -0.0543
vn -0.5372 0.7190 -0.4409
vn -0.0223 -0.9996 -0.0183
vn -0.2315 0.9541 -0.1900
vn -0.0393 -0.9987 -0.0322
vn -0.1355 0.9845 -0.1112
vn -0.0602 -0.9970 -0.0494
vn -0.0891 0.9933 -0.0731
vn -0.0891 -0.9933 -0.0731
vn -0.0602 0.9970 -0.0494
vn -0.1355 -0.9845 -0.1112
vn -0.0393 0.9987 -0.0322
vn -0.2315 -0.9541 -0.1900
vn -0.0223 0.9996 -0.0183
vn -0.5372 -0.7190 -0.4409
vn -0.0072 -1.0000 -0.0059
vn -0.0072 1.0000 -0.0059
vn -0.0494 0.9970 -0.0602
vn -0.1112 -0.9845 -0.1355
vn -0.0322 0.9987 -0.0393
vn -0.1900 -0.9541 -0.2315
vn -0.0183 0.9996 -0.0223
vn -0.4409 -0.7190 -0.5372
vn -0.0059 -1.0000 -0.0072
vn -0.0059 1.0000 -0.0072
vn -0.4409 0.7190 -0.5372
vn -0.0183 -0.9996 -0.0223
vn -0.1900 0.9541 -0.2315
vn -0.0322 -0.9987 -0.0393
vn -0.1112 0.9845 -0.1355
vn -0.0494 -0.9970 -0.0602
vn -0.0731 0.9933 -0.0891
vn -0.0731 -0.9933 -0.0891
vn -0.1411 0.9541 -0.2641
vn -0.0240 -0.9987 -0.0448
vn -0.0827 0.9845 -0.1546
vn -0.0367 -0.9970 -0.0687
vn -0.0543 0.9933 -0.1016
vn -0.0543 -0.9933 -0.1016
vn -0.0367 0.9970 -0.0687
vn -0.0827 -0.9845 -0.1546
vn -0.0240 0.9987 -0.0448
vn -0.1411 -0.9541 -0.2641
vn -0.0136 0.9996 -0.0255
vn -0.3276 -0.7190 -0.6129
vn -0.0044 -1.0000 -0.0083
vn -0.0044 1.0000 -0.0083
vn -0.3276 0.7190 -0.6129
vn -0.0136 -0.9996 -0.0255
vn -0.0148 0.9987 -0.0486
vn -0.0869 -0.9541 -0.2865
vn -0.0084 0.9996 -0.0276
vn -0.2017 -0.7190 -0.6651
vn -0.0027 -1.0000 -0.0090
vn -0.0027 1.0000 -0.0090
vn -0.2017 0.7190 -0.6651
vn -0.0084 -0.9996 -0.0276
vn -0.0869 0.9541 -0.2865
vn -0.0148 -0.9987 -0.0486
vn -0.0509 0.9845 -0.1678
vn -0.0226 -0.9970 -0.0745
vn -0.0334 0.9933 -0.1103
vn -0.0334 -0.9933 -0.1103
vn -0.0226 0.9970 -0.0745
vn -0.0509 -0.9845 -0.1678
vn -0.0050 -0.9987 -0.0506
vn -0.0172 0.9845 -0.1745
vn -0.0076 -0.9970 -0.0775
vn -0.0113 0.9933 -0.1147
vn -0.0113 -0.9933 -0.1147
vn -0.0076 0.9970 -0.0775
vn -0.0172 -0.9845 -0.1745
vn -0.0050 0.9987 -0.0506
vn -0.0293 -0.9541 -0.2980
vn -0.0028 0.9996 -0.0287
vn -0.0681 -0.7190 -0.6916
vn -0.0009 -1.0000 -0.0093
vn -0.0009 1.0000 -0.0093
vn -0.0681 0.7190 -0.6916
vn -0.0028 -0.9996 -0.0287
vn -0.0293 0.9541 -0.2980
vt 0.127892 0.184732
vt 0.067252 0.152319
vt 0.034434 0.134778
vt 0.030211 0.132521
vt 0.969789 0.132521
vt 0.965566 0.134778
vt 0.932748 0.152319
vt 0.212416 0.219156
vt 0.176277 0.189498
vt 0.142971 0.162164
vt 0.113778 0.138206
vt 0.089820 0.118544
vt 0.072018 0.103934
vt 0.061055 0.094937
vt 0.942647 0.091899
vt 0.057353 0.091899
vt 0.938945 0.094937
vt 0.927982 0.103934
vt 0.910180 0.118544
vt 0.886222 0.138206
vt 0.857029 0.162164
vt 0.823723 0.189498
vt 0.787584 0.219156
vt 0.219156 0.212417
vt 0.189497 0.176278
vt 0.162164 0.142971
vt 0.138206 0.113778
vt 0.118544 0.089820
vt 0.103934 0.072018
vt 0.094937 0.061055
vt 0.091899 0.057354
vt 0.908101 0.057354
vt 0.905063 0.061055
vt 0.896066 0.072018
vt 0.881456 0.089820
vt 0.861794 0.113778
vt 0.837836 0.142971
vt 0.810503 0.176278
vt 0.780844 0.212417
vt 0.227081 0.207121
vt 0.205042 0.165891
vt 0.184732 0.127892
vt 0.166929 0.094586
vt 0.152319 0.067252
vt 0.141463 0.046942
vt 0.134777 0.034434
vt 0.132520 0.030211
vt 0.867480 0.030211
vt 0.865222 0.034434
vt 0.858537 0.046942
vt 0.847681 0.067252
vt 0.833071 0.094586
vt 0.815268 0.127892
vt 0.794958 0.165891
vt 0.772919 0.207121
vt 0.235886 0.203474
vt 0.222315 0.158736
vt 0.209808 0.117505
vt 0.198845 0.081366
vt 0.189848 0.051707
vt 0.183163 0.029669
vt 0.179046 0.016098
vt 0.177656 0.011515
vt 0.822344 0.011515
vt 0.820954 0.016098
vt 0.816837 0.029669
vt 0.810152 0.051707
vt 0.801155 0.081366
vt 0.790192 0.117505
vt 0.777685 0.158736
vt 0.764114 0.203474
vt 0.245234 0.201615
vt 0.240652 0.155089
vt 0.236429 0.112210
vt 0.232727 0.074626
vt 0.229689 0.043782
vt 0.227432 0.020863
vt 0.226042 0.006750
vt 0.225572 0.001984
vt 0.774428 0.001984
vt 0.773958 0.006750
vt 0.772568 0.020863
vt 0.770311 0.043782
vt 0.767273 0.074626
vt 0.763571 0.112210
vt 0.759348 0.155089
vt 0.754766 0.201615
vt 0.250000 0.250000
vt 0.254765 0.201615
vt 0.259348 0.155089
vt 0.263571 0.112210
vt 0.267273 0.074626
vt 0.270310 0.043782
vt 0.272568 0.020863
vt 0.273958 0.006750
vt 0.274427 0.001984
vt 0.725573 0.001984
vt 0.726042 0.006750
vt 0.727432 0.020863
vt 0.729689 0.043782
vt 0.732727 0.074626
vt 0.736429 0.112210
vt 0.740652 0.155089
vt 0.745234 0.201615
vt 0.264113 0.203474
vt 0.277685 0.158736
vt 0.290192 0.117505
vt 0.301154 0.081366
vt 0.310151 0.051707
vt 0.316837 0.029669
vt 0.320953 0.016098
vt 0.322343 0.011515
vt 0.677657 0.011515
vt 0.679047 0.016098
vt 0.683163 0.029669
vt 0.689849 0.051707
vt 0.698846 0.081366
vt 0.709808 0.117505
vt 0.722315 0.158736
vt 0.735887 0.203474
vt 0.272919 0.207121
vt 0.294957 0.165891
vt 0.315268 0.127892
vt 0.333070 0.094586
vt 0.347681 0.067252
vt 0.358537 0.046942
vt 0.365222 0.034434
vt 0.367479 0.030211
vt 0.632520 0.030211
vt 0.634778 0.034434
vt 0.641463 0.046942
vt 0.652319 0.067252
vt 0.666929 0.094586
vt 0.684732 0.127892
vt 0.705043 0.165891
vt 0.727081 0.207121
vt 0.280844 0.212417
vt 0.310503 0.176277
vt 0.337836 0.142971
vt 0.361794 0.113778
vt 0.381456 0.089820
vt 0.396066 0.072018
vt 0.405063 0.061055
vt 0.408101 0.057353
vt 0.591899 0.057353
vt 0.594937 0.061055
vt 0.603934 0.072018
vt 0.618544 0.089820
vt 0.638206 0.113778
vt 0.662164 0.142971
vt 0.689497 0.176277
vt 0.719156 0.212417
vt 0.287583 0.219156
vt 0.323723 0.189497
vt 0.357029 0.162164
vt 0.386222 0.138206
vt 0.410180 0.118544
vt 0.427982 0.103934
vt 0.438945 0.094937
vt 0.442646 0.091899
vt 0.557354 0.091899
vt 0.561055 0.094937
vt 0.572018 0.103934
vt 0.589820 0.118544
vt 0.613778 0.138206
vt 0.642971 0.162164
vt 0.676277 0.189497
vt 0.712417 0.219156
vt 0.292879 0.227081
vt 0.334109 0.205043
vt 0.372108 0.184732
vt 0.405414 0.166929
vt 0.432748 0.152319
vt 0.453058 0.141463
vt 0.465566 0.134778
vt 0.469789 0.132520
vt 0.530211 0.132520
vt 0.534434 0.134778
vt 0.546942 0.141463
vt 0.567252 0.152319
vt 0.594586 0.166929
vt 0.627892 0.184732
vt 0.665890 0.205043
vt 0.707121 0.227081
vt 0.296526 0.235887
vt 0.341264 0.222315
vt 0.382495 0.209808
vt 0.418634 0.198845
vt 0.448293 0.189849
vt 0.470331 0.183163
vt 0.483902 0.179047
vt 0.511515 0.177657
vt 0.488485 0.177656
vt 0.516098 0.179047
vt 0.529669 0.183163
vt 0.551707 0.189849
vt 0.581366 0.198845
vt 0.617505 0.209808
vt 0.658736 0.222315
vt 0.703474 0.235887
vt 0.298385 0.245235
vt 0.344912 0.240652
vt 0.387790 0.236429
vt 0.425374 0.232727
vt 0.456218 0.229689
vt 0.479137 0.227432
vt 0.493250 0.226042
vt 0.498016 0.225573
vt 0.501984 0.225573
vt 0.506750 0.226042
vt 0.520863 0.227432
vt 0.543782 0.229689
vt 0.574626 0.232727
vt 0.612210 0.236429
vt 0.655088 0.240652
vt 0.701615 0.245235
vt 0.298385 0.254766
vt 0.344912 0.259348
vt 0.387790 0.263571
vt 0.425374 0.267273
vt 0.456218 0.270311
vt 0.479137 0.272568
vt 0.493250 0.273958
vt 0.501984 0.274428
vt 0.498016 0.274428
vt 0.506750 0.273958
vt 0.520863 0.272568
vt 0.543782 0.270311
vt 0.574626 0.267273
vt 0.612210 0.263571
vt 0.655088 0.259348
vt 0.701615 0.254766
vt 0.296526 0.264114
vt 0.341264 0.277685
vt 0.382495 0.290192
vt 0.418634 0.301155
vt 0.448293 0.310152
vt 0.470331 0.316837
vt 0.483902 0.320954
vt 0.488485 0.322344
vt 0.511515 0.322344
vt 0.516098 0.320954
vt 0.529669 0.316837
vt 0.551707 0.310152
vt 0.581366 0.301155
vt 0.617505 0.290192
vt 0.658736 0.277685
vt 0.703474 0.264114
vt 0.292879 0.272919
vt 0.334109 0.294958
vt 0.372108 0.315268
vt 0.405414 0.333071
vt 0.432748 0.347681
vt 0.453058 0.358537
vt 0.465566 0.365222
vt 0.469789 0.367480
vt 0.530211 0.367480
vt 0.534434 0.365222
vt 0.546942 0.358537
vt 0.567252 0.347681
vt 0.594586 0.333071
vt 0.627892 0.315268
vt 0.665890 0.294958
vt 0.707121 0.272919
vt 0.287583 0.280844
vt 0.323723 0.310503
vt 0.357029 0.337836
vt 0.386222 0.361794
vt 0.410180 0.381456
vt 0.427982 0.396066
vt 0.438945 0.405063
vt 0.442646 0.408101
vt 0.557353 0.408101
vt 0.561055 0.405063
vt 0.572018 0.396066
vt 0.589820 0.381456
vt 0.613778 0.361794
vt 0.642971 0.337836
vt 0.676277 0.310503
vt 0.712417 0.280844
vt 0.280844 0.287584
vt 0.310503 0.323723
vt 0.337836 0.357029
vt 0.361794 0.386222
vt 0.381456 0.410180
vt 0.396066 0.427982
vt 0.405063 0.438945
vt 0.408101 0.442647
vt 0.591899 0.442647
vt 0.594937 0.438945
vt 0.603934 0.427982
vt 0.618544 0.410180
vt 0.638206 0.386222
vt 0.662164 0.357029
vt 0.689497 0.323723
vt 0.719156 0.287584
vt 0.272919 0.292879
vt 0.294957 0.334110
vt 0.315268 0.372108
vt 0.333071 0.405414
vt 0.347681 0.432748
vt 0.358537 0.453059
vt 0.365222 0.465566
vt 0.367480 0.469789
vt 0.632520 0.469789
vt 0.634778 0.465566
vt 0.641463 0.453059
vt 0.652319 0.432748
vt 0.666929 0.405414
vt 0.684732 0.372108
vt 0.705042 0.334110
vt 0.727081 0.292879
vt 0.264113 0.296526
vt 0.277685 0.341264
vt 0.290192 0.382495
vt 0.301155 0.418634
vt 0.310151 0.448293
vt 0.316837 0.470331
vt 0.320953 0.483903
vt 0.322343 0.488485
vt 0.677656 0.488485
vt 0.679046 0.483903
vt 0.683163 0.470331
vt 0.689848 0.448293
vt 0.698845 0.418634
vt 0.709808 0.382495
vt 0.722315 0.341264
vt 0.735887 0.296526
vt 0.750000 0.250000
vt 0.254766 0.298386
vt 0.259348 0.344912
vt 0.263571 0.387790
vt 0.267273 0.425374
vt 0.270311 0.456218
vt 0.272568 0.479137
vt 0.273958 0.493250
vt 0.274427 0.498016
vt 0.725573 0.498016
vt 0.726042 0.493251
vt 0.727432 0.479137
vt 0.729689 0.456218
vt 0.732727 0.425374
vt 0.736429 0.387790
vt 0.740652 0.344912
vt 0.745234 0.298386
vt 0.245234 0.298386
vt 0.240652 0.344912
vt 0.236429 0.387790
vt 0.232727 0.425374
vt 0.229689 0.456218
vt 0.227432 0.479137
vt 0.226042 0.493251
vt 0.225573 0.498016
vt 0.774427 0.498016
vt 0.773958 0.493251
vt 0.772568 0.479137
vt 0.770311 0.456218
vt 0.767273 0.425374
vt 0.763571 0.387790
vt 0.759348 0.344912
vt 0.754766 0.298386
vt 0.235886 0.296526
vt 0.222315 0.341264
vt 0.209808 0.382495
vt 0.198845 0.418634
vt 0.189848 0.448293
vt 0.183163 0.470331
vt 0.179046 0.483903
vt 0.177656 0.488485
vt 0.822344 0.488485
vt 0.820953 0.483903
vt 0.816837 0.470331
vt 0.810151 0.448293
vt 0.801155 0.418634
vt 0.790192 0.382495
vt 0.777685 0.341264
vt 0.764114 0.296526
vt 0.227081 0.292879
vt 0.205042 0.334110
vt 0.184732 0.372108
vt 0.166929 0.405414
vt 0.152319 0.432748
vt 0.141463 0.453059
vt 0.134778 0.465566
vt 0.132520 0.469789
vt 0.867480 0.469789
vt 0.865222 0.465566
vt 0.858537 0.453059
vt 0.847681 0.432748
vt 0.833071 0.405414
vt 0.815268 0.372108
vt 0.794958 0.334110
vt 0.772919 0.292879
vt 0.219156 0.287584
vt 0.189497 0.323723
vt 0.162164 0.357029
vt 0.138206 0.386222
vt 0.118544 0.410180
vt 0.103934 0.427982
vt 0.094937 0.438945
vt 0.908101 0.442647
vt 0.091899 0.442647
vt 0.905063 0.438945
vt 0.896066 0.427982
vt 0.881456 0.410180
vt 0.861794 0.386222
vt 0.837836 0.357029
vt 0.810503 0.323723
vt 0.780844 0.287584
vt 0.212416 0.280844
vt 0.176277 0.310503
vt 0.142971 0.337836
vt 0.113778 0.361794
vt 0.089820 0.381456
vt 0.072018 0.396066
vt 0.061055 0.405063
vt 0.057353 0.408101
vt 0.942647 0.408101
vt 0.938945 0.405063
vt 0.927982 0.396066
vt 0.910180 0.381456
vt 0.886222 0.361794
vt 0.857029 0.337836
vt 0.823723 0.310503
vt 0.787583 0.280844
vt 0.207121 0.272919
vt 0.165890 0.294958
vt 0.127892 0.315268
vt 0.094586 0.333071
vt 0.067252 0.347681
vt 0.046942 0.358537
vt 0.034434 0.365222
vt 0.969789 0.367480
vt 0.030211 0.367480
vt 0.965566 0.365222
vt 0.953058 0.358537
vt 0.932748 0.347681
vt 0.905414 0.333071
vt 0.872108 0.315268
vt 0.834110 0.294958
vt 0.792879 0.272919
vt 0.203474 0.264114
vt 0.158736 0.277685
vt 0.117505 0.290192
vt 0.081366 0.301155
vt 0.051707 0.310152
vt 0.029669 0.316837
vt 0.016098 0.320954
vt 0.011515 0.322344
vt 0.988485 0.322344
vt 0.983902 0.320954
vt 0.970331 0.316837
vt 0.948293 0.310152
vt 0.918634 0.301155
vt 0.882495 0.290192
vt 0.841264 0.277685
vt 0.796526 0.264114
vt 0.201614 0.254766
vt 0.155088 0.259348
vt 0.112210 0.263571
vt 0.074626 0.267273
vt 0.043782 0.270311
vt 0.020863 0.272568
vt 0.006750 0.273958
vt 0.001984 0.274428
vt 0.998016 0.274428
vt 0.993250 0.273958
vt 0.979137 0.272568
vt 0.956218 0.270311
vt 0.925374 0.267273
vt 0.887790 0.263571
vt 0.844912 0.259348
vt 0.798386 0.254766
vt 0.201614 0.245235
vt 0.155088 0.240652
vt 0.112210 0.236429
vt 0.074626 0.232727
vt 0.043782 0.229690
vt 0.020863 0.227432
vt 0.006750 0.226042
vt 0.001984 0.225573
vt 0.998016 0.225573
vt 0.993250 0.226042
vt 0.979137 0.227432
vt 0.956218 0.229690
vt 0.925374 0.232727
vt 0.887790 0.236429
vt 0.844912 0.240652
vt 0.798386 0.245235
vt 0.203474 0.235887
vt 0.158736 0.222315
vt 0.117505 0.209808
vt 0.081366 0.198846
vt 0.051707 0.189849
vt 0.029669 0.183164
vt 0.016098 0.179047
vt 0.011515 0.177657
vt 0.988485 0.177657
vt 0.983902 0.179047
vt 0.970331 0.183164
vt 0.948293 0.189849
vt 0.918634 0.198846
vt 0.882495 0.209808
vt 0.841264 0.222315
vt 0.796526 0.235887
vt 0.207121 0.227081
vt 0.165890 0.205043
vt 0.094586 0.166930
vt 0.046941 0.141463
vt 0.953059 0.141463
vt 0.905414 0.166930
vt 0.872108 0.184732
vt 0.834110 0.205043
vt 0.792879 0.227081
s 0
f 16/18/1 5/6/1 478/510/1
f 1/1/2 8/9/2 475/507/2
f 17/19/3 478/510/3 6/7/3
f 476/508/4 9/10/4 1/1/4
f 18/20/5 6/7/5 479/511/5
f 2/2/6 10/11/6 476/508/6
f 19/21/7 479/511/7 480/512/7
f 477/509/8 11/12/8 2/2/8
f 20/22/9 480/512/9 481/513/9
f 3/3/10 12/13/10 477/509/10
f 21/23/11 481/513/11 482/514/11
f 14/16/12 3/3/12 4/4/12
f 474/506/13 7/8/13 82/88/13
f 308/329/14 21/23/14 482/514/14
f 15/17/15 4/5/15 5/6/15
f 475/507/16 7/8/16 474/506/16
f 308/329/17 36/39/17 21/23/17
f 30/33/18 14/15/18 15/17/18
f 23/25/19 7/8/19 8/9/19
f 31/34/20 15/17/20 16/18/20
f 24/26/21 8/9/21 9/10/21
f 17/19/22 31/34/22 16/18/22
f 25/27/23 9/10/23 10/11/23
f 18/20/24 32/35/24 17/19/24
f 26/28/25 10/11/25 11/12/25
f 34/37/26 18/20/26 19/21/26
f 27/29/27 11/12/27 12/13/27
f 35/38/28 19/21/28 20/22/28
f 13/14/29 27/29/29 12/13/29
f 36/39/30 20/22/30 21/23/30
f 14/16/31 28/30/31 13/14/31
f 7/8/32 22/24/32 82/88/32
f 34/37/33 48/52/33 33/36/33
f 42/45/34 26/28/34 27/29/34
f 35/38/35 49/53/35 34/37/35
f 28/30/36 42/45/36 27/29/36
f 51/55/37 35/38/37 36/39/37
f 29/31/38 43/46/38 28/30/38
f 22/24/39 37/40/39 82/88/39
f 308/329/40 51/55/40 36/39/40
f 45/49/41 29/32/41 30/33/41
f 38/41/42 22/24/42 23/25/42
f 46/50/43 30/33/43 31/34/43
f 39/42/44 23/25/44 24/26/44
f 32/35/45 46/50/45 31/34/45
f 40/43/46 24/26/46 25/27/46
f 48/52/47 32/35/47 33/36/47
f 41/44/48 25/27/48 26/28/48
f 53/57/49 37/40/49 38/41/49
f 61/66/50 45/49/50 46/50/50
f 54/58/51 38/41/51 39/42/51
f 47/51/52 61/66/52 46/50/52
f 55/59/53 39/42/53 40/43/53
f 48/52/54 62/67/54 47/51/54
f 56/60/55 40/43/55 41/44/55
f 49/53/56 63/68/56 48/52/56
f 57/61/57 41/44/57 42/45/57
f 65/70/58 49/53/58 50/54/58
f 58/62/59 42/45/59 43/46/59
f 51/55/60 65/70/60 50/54/60
f 44/47/61 58/62/61 43/46/61
f 37/40/62 52/56/62 82/88/62
f 308/329/63 66/71/63 51/55/63
f 60/65/64 44/48/64 45/49/64
f 72/77/65 56/60/65 57/61/65
f 80/86/66 64/69/66 65/70/66
f 58/62/67 72/77/67 57/61/67
f 81/87/68 65/70/68 66/71/68
f 59/63/69 73/78/69 58/62/69
f 52/56/70 67/72/70 82/88/70
f 308/329/71 81/87/71 66/71/71
f 75/81/72 59/64/72 60/65/72
f 53/57/73 67/72/73 52/56/73
f 76/82/74 60/65/74 61/66/74
f 69/74/75 53/57/75 54/58/75
f 62/67/76 76/82/76 61/66/76
f 70/75/77 54/58/77 55/59/77
f 78/84/78 62/67/78 63/68/78
f 56/60/79 70/75/79 55/59/79
f 64/69/80 78/84/80 63/68/80
f 92/99/81 75/81/81 76/82/81
f 85/91/82 68/73/82 69/74/82
f 77/83/83 92/99/83 76/82/83
f 86/92/84 69/74/84 70/75/84
f 94/101/85 77/83/85 78/84/85
f 71/76/86 86/92/86 70/75/86
f 79/85/87 94/101/87 78/84/87
f 88/94/88 71/76/88 72/77/88
f 80/86/89 95/102/89 79/85/89
f 73/78/90 88/94/90 72/77/90
f 81/87/91 96/103/91 80/86/91
f 74/79/92 89/95/92 73/78/92
f 67/72/93 83/89/93 82/88/93
f 308/329/94 97/104/94 81/87/94
f 91/98/95 74/80/95 75/81/95
f 84/90/96 67/72/96 68/73/96
f 111/119/97 95/102/97 96/103/97
f 89/95/98 103/110/98 88/94/98
f 97/104/99 111/119/99 96/103/99
f 90/96/100 104/111/100 89/95/100
f 83/89/101 98/105/101 82/88/101
f 308/329/102 112/120/102 97/104/102
f 106/114/103 90/97/103 91/98/103
f 99/106/104 83/89/104 84/90/104
f 107/115/105 91/98/105 92/99/105
f 100/107/106 84/90/106 85/91/106
f 93/100/107 107/115/107 92/99/107
f 101/108/108 85/91/108 86/92/108
f 109/117/109 93/100/109 94/101/109
f 87/93/110 101/108/110 86/92/110
f 95/102/111 109/117/111 94/101/111
f 103/110/112 87/93/112 88/94/112
f 115/123/113 99/106/113 100/107/113
f 108/116/114 122/131/114 107/115/114
f 116/124/115 100/107/115 101/108/115
f 124/133/116 108/116/116 109/117/116
f 102/109/117 116/124/117 101/108/117
f 110/118/118 124/133/118 109/117/118
f 118/126/119 102/109/119 103/110/119
f 126/135/120 110/118/120 111/119/120
f 104/111/121 118/126/121 103/110/121
f 127/136/122 111/119/122 112/120/122
f 105/112/123 119/127/123 104/111/123
f 98/105/124 113/121/124 82/88/124
f 308/329/125 127/136/125 112/120/125
f 121/130/126 105/113/126 106/114/126
f 114/122/127 98/105/127 99/106/127
f 122/131/128 106/114/128 107/115/128
f 119/127/129 133/142/129 118/126/129
f 142/152/130 126/135/130 127/136/130
f 120/128/131 134/143/131 119/127/131
f 113/121/132 128/137/132 82/88/132
f 308/329/133 142/152/133 127/136/133
f 136/146/134 120/129/134 121/130/134
f 114/122/135 128/137/135 113/121/135
f 137/147/136 121/130/136 122/131/136
f 115/123/137 129/138/137 114/122/137
f 123/132/138 137/147/138 122/131/138
f 131/140/139 115/123/139 116/124/139
f 139/149/140 123/132/140 124/133/140
f 117/125/141 131/140/141 116/124/141
f 125/134/142 139/149/142 124/133/142
f 133/142/143 117/125/143 118/126/143
f 141/151/144 125/134/144 126/135/144
f 138/148/145 152/163/145 137/147/145
f 146/156/146 130/139/146 131/140/146
f 154/165/147 138/148/147 139/149/147
f 132/141/148 146/156/148 131/140/148
f 140/150/149 154/165/149 139/149/149
f 148/158/150 132/141/150 133/142/150
f 156/167/151 140/150/151 141/151/151
f 134/143/152 148/158/152 133/142/152
f 142/152/153 156/167/153 141/151/153
f 135/144/154 149/159/154 134/143/154
f 128/137/155 143/153/155 82/88/155
f 308/329/156 157/168/156 142/152/156
f 151/162/157 135/145/157 136/146/157
f 144/154/158 128/137/158 129/138/158
f 152/163/159 136/146/159 137/147/159
f 145/155/160 129/138/160 130/139/160
f 157/168/161 171/183/161 156/167/161
f 150/160/162 164/175/162 149/159/162
f 143/153/163 158/169/163 82/88/163
f 308/329/164 172/184/164 157/168/164
f 166/178/165 150/161/165 151/162/165
f 144/154/166 158/169/166 143/153/166
f 167/179/167 151/162/167 152/163/167
f 160/171/168 144/154/168 145/155/168
f 153/164/169 167/179/169 152/163/169
f 161/172/170 145/155/170 146/156/170
f 169/181/171 153/164/171 154/165/171
f 147/157/172 161/172/172 146/156/172
f 155/166/173 169/181/173 154/165/173
f 163/174/174 147/157/174 148/158/174
f 156/167/175 170/182/175 155/166/175
f 149/159/176 163/174/176 148/158/176
f 184/197/177 168/180/177 169/181/177
f 162/173/178 176/188/178 161/172/178
f 170/182/179 184/197/179 169/181/179
f 178/190/180 162/173/180 163/174/180
f 186/199/181 170/182/181 171/183/181
f 164/175/182 178/190/182 163/174/182
f 187/200/183 171/183/183 172/184/183
f 165/176/184 179/191/184 164/175/184
f 158/169/185 173/185/185 82/88/185
f 308/329/186 187/200/186 172/184/186
f 181/194/187 165/177/187 166/178/187
f 159/170/188 173/185/188 158/169/188
f 182/195/189 166/178/189 167/179/189
f 175/187/190 159/170/190 160/171/190
f 168/180/191 182/195/191 167/179/191
f 176/188/192 160/171/192 161/172/192
f 173/185/193 188/201/193 82/88/193
f 308/329/194 202/216/194 187/200/194
f 196/210/195 180/192/195 181/194/195
f 189/202/196 173/185/196 174/186/196
f 197/211/197 181/194/197 182/195/197
f 175/187/198 189/202/198 174/186/198
f 183/196/199 197/211/199 182/195/199
f 191/204/200 175/187/200 176/188/200
f 199/213/201 183/196/201 184/197/201
f 177/189/202 191/204/202 176/188/202
f 185/198/203 199/213/203 184/197/203
f 193/206/204 177/189/204 178/190/204
f 201/215/205 185/198/205 186/199/205
f 179/191/206 193/206/206 178/190/206
f 202/216/207 186/199/207 187/200/207
f 180/193/208 194/207/208 179/191/208
f 192/205/209 206/220/209 191/204/209
f 200/214/210 214/229/210 199/213/210
f 208/222/211 192/205/211 193/206/211
f 216/231/212 200/214/212 201/215/212
f 194/207/213 208/222/213 193/206/213
f 202/216/214 216/231/214 201/215/214
f 195/208/215 209/223/215 194/207/215
f 188/201/216 203/217/216 82/88/216
f 308/329/217 217/232/217 202/216/217
f 211/226/218 195/209/218 196/210/218
f 204/218/219 188/201/219 189/202/219
f 212/227/220 196/210/220 197/211/220
f 205/219/221 189/202/221 190/203/221
f 198/212/222 212/227/222 197/211/222
f 206/220/223 190/203/223 191/204/223
f 214/229/224 198/212/224 199/213/224
f 226/242/225 210/224/225 211/226/225
f 219/234/226 203/217/226 204/218/226
f 227/243/227 211/226/227 212/227/227
f 220/235/228 204/218/228 205/219/228
f 213/228/229 227/243/229 212/227/229
f 221/236/230 205/219/230 206/220/230
f 229/245/231 213/228/231 214/229/231
f 207/221/232 221/236/232 206/220/232
f 215/230/233 229/245/233 214/229/233
f 223/238/234 207/221/234 208/222/234
f 216/231/235 230/246/235 215/230/235
f 209/223/236 223/238/236 208/222/236
f 232/248/237 216/231/237 217/232/237
f 210/225/238 224/239/238 209/223/238
f 203/217/239 218/233/239 82/88/239
f 308/329/240 232/248/240 217/232/240
f 230/246/241 244/261/241 229/245/241
f 238/254/242 222/237/242 223/238/242
f 246/263/243 230/246/243 231/247/243
f 224/239/244 238/254/244 223/238/244
f 247/264/245 231/247/245 232/248/245
f 225/240/246 239/255/246 224/239/246
f 218/233/247 233/249/247 82/88/247
f 308/329/248 247/264/248 232/248/248
f 241/258/249 225/241/249 226/242/249
f 234/250/250 218/233/250 219/234/250
f 242/259/251 226/242/251 227/243/251
f 235/251/252 219/234/252 220/235/252
f 228/244/253 242/259/253 227/243/253
f 236/252/254 220/235/254 221/236/254
f 244/261/255 228/244/255 229/245/255
f 222/237/256 236/252/256 221/236/256
f 249/266/257 233/249/257 234/250/257
f 257/275/258 241/258/258 242/259/258
f 250/267/259 234/250/259 235/251/259
f 243/260/260 257/275/260 242/259/260
f 251/268/261 235/251/261 236/252/261
f 259/277/262 243/260/262 244/261/262
f 237/253/263 251/268/263 236/252/263
f 245/262/264 259/277/264 244/261/264
f 253/270/265 237/253/265 238/254/265
f 261/279/266 245/262/266 246/263/266
f 239/255/267 253/270/267 238/254/267
f 247/264/268 261/279/268 246/263/268
f 240/256/269 254/271/269 239/255/269
f 233/249/270 248/265/270 82/88/270
f 308/329/271 262/280/271 247/264/271
f 256/274/272 240/257/272 241/258/272
f 268/286/273 252/269/273 253/270/273
f 276/295/274 260/278/274 261/279/274
f 254/271/275 268/286/275 253/270/275
f 277/296/276 261/279/276 262/280/276
f 255/272/277 269/287/277 254/271/277
f 248/265/278 263/281/278 82/88/278
f 308/329/279 277/296/279 262/280/279
f 271/290/280 255/273/280 256/274/280
f 264/282/281 248/265/281 249/266/281
f 272/291/282 256/274/282 257/275/282
f 250/267/283 264/282/283 249/266/283
f 258/276/284 272/291/284 257/275/284
f 266/284/285 250/267/285 251/268/285
f 274/293/286 258/276/286 259/277/286
f 252/269/287 266/284/287 251/268/287
f 260/278/288 274/293/288 259/277/288
f 287/307/289 271/290/289 272/291/289
f 280/299/290 264/282/290 265/283/290
f 273/292/291 287/307/291 272/291/291
f 281/300/292 265/283/292 266/284/292
f 289/309/293 273/292/293 274/293/293
f 267/285/294 281/300/294 266/284/294
f 275/294/295 289/309/295 274/293/295
f 283/302/296 267/285/296 268/286/296
f 291/311/297 275/294/297 276/295/297
f 269/287/298 283/302/298 268/286/298
f 292/312/299 276/295/299 277/296/299
f 270/288/300 284/303/300 269/287/300
f 263/281/301 278/297/301 82/88/301
f 308/329/302 292/312/302 277/296/302
f 286/306/303 270/289/303 271/290/303
f 264/282/304 278/297/304 263/281/304
f 306/327/305 290/310/305 291/311/305
f 284/303/306 298/318/306 283/302/306
f 292/312/307 306/327/307 291/311/307
f 285/304/308 299/319/308 284/303/308
f 278/297/309 293/313/309 82/88/309
f 308/329/310 307/328/310 292/312/310
f 301/322/311 285/305/311 286/306/311
f 294/314/312 278/297/312 279/298/312
f 302/323/313 286/306/313 287/307/313
f 280/299/314 294/314/314 279/298/314
f 288/308/315 302/323/315 287/307/315
f 296/316/316 280/299/316 281/300/316
f 289/309/317 303/324/317 288/308/317
f 297/317/318 281/300/318 282/301/318
f 290/310/319 304/325/319 289/309/319
f 298/318/320 282/301/320 283/302/320
f 303/324/321 318/340/321 302/323/321
f 312/333/322 295/315/322 296/316/322
f 320/342/323 303/324/323 304/325/323
f 297/317/324 312/333/324 296/316/324
f 305/326/325 320/342/325 304/325/325
f 314/335/326 297/317/326 298/318/326
f 322/344/327 305/326/327 306/327/327
f 299/319/328 314/335/328 298/318/328
f 323/345/329 306/327/329 307/328/329
f 300/320/330 315/336/330 299/319/330
f 293/313/331 309/330/331 82/88/331
f 308/329/332 323/345/332 307/328/332
f 317/339/333 300/321/333 301/322/333
f 310/331/334 293/313/334 294/314/334
f 318/340/335 301/322/335 302/323/335
f 311/332/336 294/314/336 295/315/336
f 323/345/337 337/360/337 322/344/337
f 316/337/338 330/352/338 315/336/338
f 309/330/339 324/346/339 82/88/339
f 308/329/340 338/361/340 323/345/340
f 332/355/341 316/338/341 317/339/341
f 325/347/342 309/330/342 310/331/342
f 333/356/343 317/339/343 318/340/343
f 326/348/344 310/331/344 311/332/344
f 319/341/345 333/356/345 318/340/345
f 327/349/346 311/332/346 312/333/346
f 335/358/347 319/341/347 320/342/347
f 313/334/348 327/349/348 312/333/348
f 321/343/349 335/358/349 320/342/349
f 329/351/350 313/334/350 314/335/350
f 337/360/351 321/343/351 322/344/351
f 315/336/352 329/351/352 314/335/352
f 342/365/353 326/348/353 327/349/353
f 350/374/354 334/357/354 335/358/354
f 328/350/355 342/365/355 327/349/355
f 336/359/356 350/374/356 335/358/356
f 344/367/357 328/350/357 329/351/357
f 352/376/358 336/359/358 337/360/358
f 330/352/359 344/367/359 329/351/359
f 338/361/360 352/376/360 337/360/360
f 331/353/361 345/368/361 330/352/361
f 324/346/362 339/362/362 82/88/362
f 308/329/363 353/377/363 338/361/363
f 347/371/364 331/354/364 332/355/364
f 340/363/365 324/346/365 325/347/365
f 348/372/366 332/355/366 333/356/366
f 341/364/367 325/347/367 326/348/367
f 334/357/368 348/372/368 333/356/368
f 346/369/369 360/384/369 345/368/369
f 339/362/370 354/378/370 82/88/370
f 308/329/371 368/393/371 353/377/371
f 362/387/372 346/370/372 347/371/372
f 355/379/373 339/362/373 340/363/373
f 363/388/374 347/371/374 348/372/374
f 341/364/375 355/379/375 340/363/375
f 349/373/376 363/388/376 348/372/376
f 357/381/377 341/364/377 342/365/377
f 365/390/378 349/373/378 350/374/378
f 343/366/379 357/381/379 342/365/379
f 351/375/380 365/390/380 350/374/380
f 359/383/381 343/366/381 344/367/381
f 367/392/382 351/375/382 352/376/382
f 345/368/383 359/383/383 344/367/383
f 353/377/384 367/392/384 352/376/384
f 380/406/385 364/389/385 365/390/385
f 358/382/386 372/397/386 357/381/386
f 366/391/387 380/406/387 365/390/387
f 374/399/388 358/382/388 359/383/388
f 382/408/389 366/391/389 367/392/389
f 360/384/390 374/399/390 359/383/390
f 383/409/391 367/392/391 368/393/391
f 361/385/392 375/400/392 360/384/392
f 354/378/393 369/394/393 82/88/393
f 308/329/394 383/409/394 368/393/394
f 377/403/395 361/386/395 362/387/395
f 370/395/396 354/378/396 355/379/396
f 378/404/397 362/387/397 363/388/397
f 356/380/398 370/395/398 355/379/398
f 364/389/399 378/404/399 363/388/399
f 372/397/400 356/380/400 357/381/400
f 369/394/401 384/410/401 82/88/401
f 308/329/402 398/425/402 383/409/402
f 392/419/403 376/401/403 377/403/403
f 385/411/404 369/394/404 370/395/404
f 393/420/405 377/403/405 378/404/405
f 386/412/406 370/395/406 371/396/406
f 379/405/407 393/420/407 378/404/407
f 387/413/408 371/396/408 372/397/408
f 395/422/409 379/405/409 380/406/409
f 373/398/410 387/413/410 372/397/410
f 381/407/411 395/422/411 380/406/411
f 389/415/412 373/398/412 374/399/412
f 397/424/413 381/407/413 382/408/413
f 375/400/414 389/415/414 374/399/414
f 383/409/415 397/424/415 382/408/415
f 376/402/416 390/416/416 375/400/416
f 388/414/417 402/429/417 387/413/417
f 396/423/418 410/438/418 395/422/418
f 404/431/419 388/414/419 389/415/419
f 412/440/420 396/423/420 397/424/420
f 390/416/421 404/431/421 389/415/421
f 398/425/422 412/440/422 397/424/422
f 391/417/423 405/432/423 390/416/423
f 384/410/424 399/426/424 82/88/424
f 308/329/425 413/441/425 398/425/425
f 407/435/426 391/418/426 392/419/426
f 400/427/427 384/410/427 385/411/427
f 408/436/428 392/419/428 393/420/428
f 386/412/429 400/427/429 385/411/429
f 394/421/430 408/436/430 393/420/430
f 402/429/431 386/412/431 387/413/431
f 410/438/432 394/421/432 395/422/432
f 422/451/433 406/433/433 407/435/433
f 415/443/434 399/426/434 400/427/434
f 423/452/435 407/435/435 408/436/435
f 401/428/436 415/443/436 400/427/436
f 409/437/437 423/452/437 408/436/437
f 417/445/438 401/428/438 402/429/438
f 425/454/439 409/437/439 410/438/439
f 403/430/440 417/445/440 402/429/440
f 411/439/441 425/454/441 410/438/441
f 419/447/442 403/430/442 404/431/442
f 427/456/443 411/439/443 412/440/443
f 405/432/444 419/447/444 404/431/444
f 413/441/445 427/456/445 412/440/445
f 406/434/446 420/448/446 405/432/446
f 399/426/447 414/442/447 82/88/447
f 308/329/448 428/457/448 413/441/448
f 426/455/449 440/470/449 425/454/449
f 434/463/450 418/446/450 419/447/450
f 442/472/451 426/455/451 427/456/451
f 420/448/452 434/463/452 419/447/452
f 443/473/453 427/456/453 428/457/453
f 421/449/454 435/464/454 420/448/454
f 414/442/455 429/458/455 82/88/455
f 308/329/456 443/473/456 428/457/456
f 437/467/457 421/450/457 422/451/457
f 415/443/458 429/458/458 414/442/458
f 438/468/459 422/451/459 423/452/459
f 416/444/460 430/459/460 415/443/460
f 424/453/461 438/468/461 423/452/461
f 432/461/462 416/444/462 417/445/462
f 440/470/463 424/453/463 425/454/463
f 418/446/464 432/461/464 417/445/464
f 453/484/465 437/467/465 438/468/465
f 431/460/466 445/475/466 430/459/466
f 439/469/467 453/484/467 438/468/467
f 447/477/468 431/460/468 432/461/468
f 455/486/469 439/469/469 440/470/469
f 433/462/470 447/477/470 432/461/470
f 441/471/471 455/486/471 440/470/471
f 449/479/472 433/462/472 434/463/472
f 457/488/473 441/471/473 442/472/473
f 435/464/474 449/479/474 434/463/474
f 458/489/475 442/472/475 443/473/475
f 436/465/476 450/480/476 435/464/476
f 429/458/477 444/474/477 82/88/477
f 308/329/478 458/489/478 443/473/478
f 452/483/479 436/466/479 437/467/479
f 445/475/480 429/458/480 430/459/480
f 472/504/481 456/487/481 457/488/481
f 450/480/482 464/495/482 449/479/482
f 458/489/483 472/504/483 457/488/483
f 451/481/484 465/496/484 450/480/484
f 444/474/485 459/490/485 82/88/485
f 308/329/486 473/505/486 458/489/486
f 467/499/487 451/482/487 452/483/487
f 460/491/488 444/474/488 445/475/488
f 468/500/489 452/483/489 453/484/489
f 446/476/490 460/491/490 445/475/490
f 454/485/491 468/500/491 453/484/491
f 462/493/492 446/476/492 447/477/492
f 470/502/493 454/485/493 455/486/493
f 448/478/494 462/493/494 447/477/494
f 456/487/495 470/502/495 455/486/495
f 464/495/496 448/478/496 449/479/496
f 461/492/497 475/507/497 460/491/497
f 6/7/498 468/500/498 469/501/498
f 462/493/499 1/1/499 461/492/499
f 479/511/500 469/501/500 470/502/500
f 463/494/501 476/508/501 462/493/501
f 471/503/502 479/511/502 470/502/502
f 464/495/503 2/2/503 463/494/503
f 481/513/504 471/503/504 472/504/504
f 465/496/505 477/509/505 464/495/505
f 482/514/506 472/504/506 473/505/506
f 466/497/507 3/3/507 465/496/507
f 459/490/508 474/506/508 82/88/508
f 308/329/509 482/514/509 473/505/509
f 5/6/510 466/498/510 467/499/510
f 460/491/511 474/506/511 459/490/511
f 478/510/512 467/499/512 468/500/512
f 16/18/1 15/17/1 5/6/1
f 1/1/2 9/10/2 8/9/2
f 17/19/3 16/18/3 478/510/3
f 476/508/4 10/11/4 9/10/4
f 18/20/5 17/19/5 6/7/5
f 2/2/6 11/12/6 10/11/6
f 19/21/7 18/20/7 479/511/7
f 477/509/8 12/13/8 11/12/8
f 20/22/9 19/21/9 480/512/9
f 3/3/10 13/14/10 12/13/10
f 21/23/11 20/22/11 481/513/11
f 14/16/12 13/14/12 3/3/12
f 15/17/15 14/15/15 4/5/15
f 475/507/16 8/9/16 7/8/16
f 30/33/18 29/32/18 14/15/18
f 23/25/19 22/24/19 7/8/19
f 31/34/20 30/33/20 15/17/20
f 24/26/21 23/25/21 8/9/21
f 17/19/22 32/35/22 31/34/22
f 25/27/23 24/26/23 9/10/23
f 18/20/24 33/36/24 32/35/24
f 26/28/25 25/27/25 10/11/25
f 34/37/26 33/36/26 18/20/26
f 27/29/27 26/28/27 11/12/27
f 35/38/28 34/37/28 19/21/28
f 13/14/29 28/30/29 27/29/29
f 36/39/30 35/38/30 20/22/30
f 14/16/31 29/31/31 28/30/31
f 34/37/33 49/53/33 48/52/33
f 42/45/34 41/44/34 26/28/34
f 35/38/35 50/54/35 49/53/35
f 28/30/36 43/46/36 42/45/36
f 51/55/37 50/54/37 35/38/37
f 29/31/38 44/47/38 43/46/38
f 45/49/41 44/48/41 29/32/41
f 38/41/42 37/40/42 22/24/42
f 46/50/43 45/49/43 30/33/43
f 39/42/44 38/41/44 23/25/44
f 32/35/45 47/51/45 46/50/45
f 40/43/46 39/42/46 24/26/46
f 48/52/47 47/51/47 32/35/47
f 41/44/48 40/43/48 25/27/48
f 53/57/49 52/56/49 37/40/49
f 61/66/50 60/65/50 45/49/50
f 54/58/51 53/57/51 38/41/51
f 47/51/52 62/67/52 61/66/52
f 55/59/53 54/58/53 39/42/53
f 48/52/54 63/68/54 62/67/54
f 56/60/55 55/59/55 40/43/55
f 49/53/56 64/69/56 63/68/56
f 57/61/57 56/60/57 41/44/57
f 65/70/58 64/69/58 49/53/58
f 58/62/59 57/61/59 42/45/59
f 51/55/60 66/71/60 65/70/60
f 44/47/61 59/63/61 58/62/61
f 60/65/64 59/64/64 44/48/64
f 72/77/65 71/76/65 56/60/65
f 80/86/66 79/85/66 64/69/66
f 58/62/67 73/78/67 72/77/67
f 81/87/68 80/86/68 65/70/68
f 59/63/69 74/79/69 73/78/69
f 75/81/72 74/80/72 59/64/72
f 53/57/73 68/73/73 67/72/73
f 76/82/74 75/81/74 60/65/74
f 69/74/75 68/73/75 53/57/75
f 62/67/76 77/83/76 76/82/76
f 70/75/77 69/74/77 54/58/77
f 78/84/78 77/83/78 62/67/78
f 56/60/79 71/76/79 70/75/79
f 64/69/80 79/85/80 78/84/80
f 92/99/81 91/98/81 75/81/81
f 85/91/82 84/90/82 68/73/82
f 77/83/83 93/100/83 92/99/83
f 86/92/84 85/91/84 69/74/84
f 94/101/85 93/100/85 77/83/85
f 71/76/86 87/93/86 86/92/86
f 79/85/87 95/102/87 94/101/87
f 88/94/88 87/93/88 71/76/88
f 80/86/89 96/103/89 95/102/89
f 73/78/90 89/95/90 88/94/90
f 81/87/91 97/104/91 96/103/91
f 74/79/92 90/96/92 89/95/92
f 91/98/95 90/97/95 74/80/95
f 84/90/96 83/89/96 67/72/96
f 111/119/97 110/118/97 95/102/97
f 89/95/98 104/111/98 103/110/98
f 97/104/99 112/120/99 111/119/99
f 90/96/100 105/112/100 104/111/100
f 106/114/103 105/113/103 90/97/103
f 99/106/104 98/105/104 83/89/104
f 107/115/105 106/114/105 91/98/105
f 100/107/106 99/106/106 84/90/106
f 93/100/107 108/116/107 107/115/107
f 101/108/108 100/107/108 85/91/108
f 109/117/109 108/116/109 93/100/109
f 87/93/110 102/109/110 101/108/110
f 95/102/111 110/118/111 109/117/111
f 103/110/112 102/109/112 87/93/112
f 115/123/113 114/122/113 99/106/113
f 108/116/114 123/132/114 122/131/114
f 116/124/115 115/123/115 100/107/115
f 124/133/116 123/132/116 108/116/116
f 102/109/117 117/125/117 116/124/117
f 110/118/118 125/134/118 124/133/118
f 118/126/119 117/125/119 102/109/119
f 126/135/120 125/134/120 110/118/120
f 104/111/121 119/127/121 118/126/121
f 127/136/122 126/135/122 111/119/122
f 105/112/123 120/128/123 119/127/123
f 121/130/126 120/129/126 105/113/126
f 114/122/127 113/121/127 98/105/127
f 122/131/128 121/130/128 106/114/128
f 119/127/129 134/143/129 133/142/129
f 142/152/130 141/151/130 126/135/130
f 120/128/131 135/144/131 134/143/131
f 136/146/134 135/145/134 120/129/134
f 114/122/135 129/138/135 128/137/135
f 137/147/136 136/146/136 121/130/136
f 115/123/137 130/139/137 129/138/137
f 123/132/138 138/148/138 137/147/138
f 131/140/139 130/139/139 115/123/139
f 139/149/140 138/148/140 123/132/140
f 117/125/141 132/141/141 131/140/141
f 125/134/142 140/150/142 139/149/142
f 133/142/143 132/141/143 117/125/143
f 141/151/144 140/150/144 125/134/144
f 138/148/145 153/164/145 152/163/145
f 146/156/146 145/155/146 130/139/146
f 154/165/147 153/164/147 138/148/147
f 132/141/148 147/157/148 146/156/148
f 140/150/149 155/166/149 154/165/149
f 148/158/150 147/157/150 132/141/150
f 156/167/151 155/166/151 140/150/151
f 134/143/152 149/159/152 148/158/152
f 142/152/153 157/168/153 156/167/153
f 135/144/154 150/160/154 149/159/154
f 151/162/157 150/161/157 135/145/157
f 144/154/158 143/153/158 128/137/158
f 152/163/159 151/162/159 136/146/159
f 145/155/160 144/154/160 129/138/160
f 157/168/161 172/184/161 171/183/161
f 150/160/162 165/176/162 164/175/162
f 166/178/165 165/177/165 150/161/165
f 144/154/166 159/170/166 158/169/166
f 167/179/167 166/178/167 151/162/167
f 160/171/168 159/170/168 144/154/168
f 153/164/169 168/180/169 167/179/169
f 161/172/170 160/171/170 145/155/170
f 169/181/171 168/180/171 153/164/171
f 147/157/172 162/173/172 161/172/172
f 155/166/173 170/182/173 169/181/173
f 163/174/174 162/173/174 147/157/174
f 156/167/175 171/183/175 170/182/175
f 149/159/176 164/175/176 163/174/176
f 184/197/177 183/196/177 168/180/177
f 162/173/178 177/189/178 176/188/178
f 170/182/179 185/198/179 184/197/179
f 178/190/180 177/189/180 162/173/180
f 186/199/181 185/198/181 170/182/181
f 164/175/182 179/191/182 178/190/182
f 187/200/183 186/199/183 171/183/183
f 165/176/184 180/193/184 179/191/184
f 181/194/187 180/192/187 165/177/187
f 159/170/188 174/186/188 173/185/188
f 182/195/189 181/194/189 166/178/189
f 175/187/190 174/186/190 159/170/190
f 168/180/191 183/196/191 182/195/191
f 176/188/192 175/187/192 160/171/192
f 196/210/195 195/209/195 180/192/195
f 189/202/196 188/201/196 173/185/196
f 197/211/197 196/210/197 181/194/197
f 175/187/198 190/203/198 189/202/198
f 183/196/199 198/212/199 197/211/199
f 191/204/200 190/203/200 175/187/200
f 199/213/201 198/212/201 183/196/201
f 177/189/202 192/205/202 191/204/202
f 185/198/203 200/214/203 199/213/203
f 193/206/204 192/205/204 177/189/204
f 201/215/205 200/214/205 185/198/205
f 179/191/206 194/207/206 193/206/206
f 202/216/207 201/215/207 186/199/207
f 180/193/208 195/208/208 194/207/208
f 192/205/209 207/221/209 206/220/209
f 200/214/210 215/230/210 214/229/210
f 208/222/211 207/221/211 192/205/211
f 216/231/212 215/230/212 200/214/212
f 194/207/213 209/223/213 208/222/213
f 202/216/214 217/232/214 216/231/214
f 195/208/215 210/225/215 209/223/215
f 211/226/218 210/224/218 195/209/218
f 204/218/219 203/217/219 188/201/219
f 212/227/220 211/226/220 196/210/220
f 205/219/221 204/218/221 189/202/221
f 198/212/222 213/228/222 212/227/222
f 206/220/223 205/219/223 190/203/223
f 214/229/224 213/228/224 198/212/224
f 226/242/225 225/241/225 210/224/225
f 219/234/226 218/233/226 203/217/226
f 227/243/227 226/242/227 211/226/227
f 220/235/228 219/234/228 204/218/228
f 213/228/229 228/244/229 227/243/229
f 221/236/230 220/235/230 205/219/230
f 229/245/231 228/244/231 213/228/231
f 207/221/232 222/237/232 221/236/232
f 215/230/233 230/246/233 229/245/233
f 223/238/234 222/237/234 207/221/234
f 216/231/235 231/247/235 230/246/235
f 209/223/236 224/239/236 223/238/236
f 232/248/237 231/247/237 216/231/237
f 210/225/238 225/240/238 224/239/238
f 230/246/241 245/262/241 244/261/241
f 238/254/242 237/253/242 222/237/242
f 246/263/243 245/262/243 230/246/243
f 224/239/244 239/255/244 238/254/244
f 247/264/245 246/263/245 231/247/245
f 225/240/246 240/256/246 239/255/246
f 241/258/249 240/257/249 225/241/249
f 234/250/250 233/249/250 218/233/250
f 242/259/251 241/258/251 226/242/251
f 235/251/252 234/250/252 219/234/252
f 228/244/253 243/260/253 242/259/253
f 236/252/254 235/251/254 220/235/254
f 244/261/255 243/260/255 228/244/255
f 222/237/256 237/253/256 236/252/256
f 249/266/257 248/265/257 233/249/257
f 257/275/258 256/274/258 241/258/258
f 250/267/259 249/266/259 234/250/259
f 243/260/260 258/276/260 257/275/260
f 251/268/261 250/267/261 235/251/261
f 259/277/262 258/276/262 243/260/262
f 237/253/263 252/269/263 251/268/263
f 245/262/264 260/278/264 259/277/264
f 253/270/265 252/269/265 237/253/265
f 261/279/266 260/278/266 245/262/266
f 239/255/267 254/271/267 253/270/267
f 247/264/268 262/280/268 261/279/268
f 240/256/269 255/272/269 254/271/269
f 256/274/272 255/273/272 240/257/272
f 268/286/273 267/285/273 252/269/273
f 276/295/274 275/294/274 260/278/274
f 254/271/275 269/287/275 268/286/275
f 277/296/276 276/295/276 261/279/276
f 255/272/277 270/288/277 269/287/277
f 271/290/280 270/289/280 255/273/280
f 264/282/281 263/281/281 248/265/281
f 272/291/282 271/290/282 256/274/282
f 250/267/283 265/283/283 264/282/283
f 258/276/284 273/292/284 272/291/284
f 266/284/285 265/283/285 250/267/285
f 274/293/286 273/292/286 258/276/286
f 252/269/287 267/285/287 266/284/287
f 260/278/288 275/294/288 274/293/288
f 287/307/289 286/306/289 271/290/289
f 280/299/290 279/298/290 264/282/290
f 273/292/291 288/308/291 287/307/291
f 281/300/292 280/299/292 265/283/292
f 289/309/293 288/308/293 273/292/293
f 267/285/294 282/301/294 281/300/294
f 275/294/295 290/310/295 289/309/295
f 283/302/296 282/301/296 267/285/296
f 291/311/297 290/310/297 275/294/297
f 269/287/298 284/303/298 283/302/298
f 292/312/299 291/311/299 276/295/299
f 270/288/300 285/304/300 284/303/300
f 286/306/303 285/305/303 270/289/303
f 264/282/304 279/298/304 278/297/304
f 306/327/305 305/326/305 290/310/305
f 284/303/306 299/319/306 298/318/306
f 292/312/307 307/328/307 306/327/307
f 285/304/308 300/320/308 299/319/308
f 301/322/311 300/321/311 285/305/311
f 294/314/312 293/313/312 278/297/312
f 302/323/313 301/322/313 286/306/313
f 280/299/314 295/315/314 294/314/314
f 288/308/315 303/324/315 302/323/315
f 296/316/316 295/315/316 280/299/316
f 289/309/317 304/325/317 303/324/317
f 297/317/318 296/316/318 281/300/318
f 290/310/319 305/326/319 304/325/319
f 298/318/320 297/317/320 282/301/320
f 303/324/321 319/341/321 318/340/321
f 312/333/322 311/332/322 295/315/322
f 320/342/323 319/341/323 303/324/323
f 297/317/324 313/334/324 312/333/324
f 305/326/325 321/343/325 320/342/325
f 314/335/326 313/334/326 297/317/326
f 322/344/327 321/343/327 305/326/327
f 299/319/328 315/336/328 314/335/328
f 323/345/329 322/344/329 306/327/329
f 300/320/330 316/337/330 315/336/330
f 317/339/333 316/338/333 300/321/333
f 310/331/334 309/330/334 293/313/334
f 318/340/335 317/339/335 301/322/335
f 311/332/336 310/331/336 294/314/336
f 323/345/337 338/361/337 337/360/337
f 316/337/338 331/353/338 330/352/338
f 332/355/341 331/354/341 316/338/341
f 325/347/342 324/346/342 309/330/342
f 333/356/343 332/355/343 317/339/343
f 326/348/344 325/347/344 310/331/344
f 319/341/345 334/357/345 333/356/345
f 327/349/346 326/348/346 311/332/346
f 335/358/347 334/357/347 319/341/347
f 313/334/348 328/350/348 327/349/348
f 321/343/349 336/359/349 335/358/349
f 329/351/350 328/350/350 313/334/350
f 337/360/351 336/359/351 321/343/351
f 315/336/352 330/352/352 329/351/352
f 342/365/353 341/364/353 326/348/353
f 350/374/354 349/373/354 334/357/354
f 328/350/355 343/366/355 342/365/355
f 336/359/356 351/375/356 350/374/356
f 344/367/357 343/366/357 328/350/357
f 352/376/358 351/375/358 336/359/358
f 330/352/359 345/368/359 344/367/359
f 338/361/360 353/377/360 352/376/360
f 331/353/361 346/369/361 345/368/361
f 347/371/364 346/370/364 331/354/364
f 340/363/365 339/362/365 324/346/365
f 348/372/366 347/371/366 332/355/366
f 341/364/367 340/363/367 325/347/367
f 334/357/368 349/373/368 348/372/368
f 346/369/369 361/385/369 360/384/369
f 362/387/372 361/386/372 346/370/372
f 355/379/373 354/378/373 339/362/373
f 363/388/374 362/387/374 347/371/374
f 341/364/375 356/380/375 355/379/375
f 349/373/376 364/389/376 363/388/376
f 357/381/377 356/380/377 341/364/377
f 365/390/378 364/389/378 349/373/378
f 343/366/379 358/382/379 357/381/379
f 351/375/380 366/391/380 365/390/380
f 359/383/381 358/382/381 343/366/381
f 367/392/382 366/391/382 351/375/382
f 345/368/383 360/384/383 359/383/383
f 353/377/384 368/393/384 367/392/384
f 380/406/385 379/405/385 364/389/385
f 358/382/386 373/398/386 372/397/386
f 366/391/387 381/407/387 380/406/387
f 374/399/388 373/398/388 358/382/388
f 382/408/389 381/407/389 366/391/389
f 360/384/390 375/400/390 374/399/390
f 383/409/391 382/408/391 367/392/391
f 361/385/392 376/402/392 375/400/392
f 377/403/395 376/401/395 361/386/395
f 370/395/396 369/394/396 354/378/396
f 378/404/397 377/403/397 362/387/397
f 356/380/398 371/396/398 370/395/398
f 364/389/399 379/405/399 378/404/399
f 372/397/400 371/396/400 356/380/400
f 392/419/403 391/418/403 376/401/403
f 385/411/404 384/410/404 369/394/404
f 393/420/405 392/419/405 377/403/405
f 386/412/406 385/411/406 370/395/406
f 379/405/407 394/421/407 393/420/407
f 387/413/408 386/412/408 371/396/408
f 395/422/409 394/421/409 379/405/409
f 373/398/410 388/414/410 387/413/410
f 381/407/411 396/423/411 395/422/411
f 389/415/412 388/414/412 373/398/412
f 397/424/413 396/423/413 381/407/413
f 375/400/414 390/416/414 389/415/414
f 383/409/415 398/425/415 397/424/415
f 376/402/416 391/417/416 390/416/416
f 388/414/417 403/430/417 402/429/417
f 396/423/418 411/439/418 410/438/418
f 404/431/419 403/430/419 388/414/419
f 412/440/420 411/439/420 396/423/420
f 390/416/421 405/432/421 404/431/421
f 398/425/422 413/441/422 412/440/422
f 391/417/423 406/434/423 405/432/423
f 407/435/426 406/433/426 391/418/426
f 400/427/427 399/426/427 384/410/427
f 408/436/428 407/435/428 392/419/428
f 386/412/429 401/428/429 400/427/429
f 394/421/430 409/437/430 408/436/430
f 402/429/431 401/428/431 386/412/431
f 410/438/432 409/437/432 394/421/432
f 422/451/433 421/450/433 406/433/433
f 415/443/434 414/442/434 399/426/434
f 423/452/435 422/451/435 407/435/435
f 401/428/436 416/444/436 415/443/436
f 409/437/437 424/453/437 423/452/437
f 417/445/438 416/444/438 401/428/438
f 425/454/439 424/453/439 409/437/439
f 403/430/440 418/446/440 417/445/440
f 411/439/441 426/455/441 425/454/441
f 419/447/442 418/446/442 403/430/442
f 427/456/443 426/455/443 411/439/443
f 405/432/444 420/448/444 419/447/444
f 413/441/445 428/457/445 427/456/445
f 406/434/446 421/449/446 420/448/446
f 426/455/449 441/471/449 440/470/449
f 434/463/450 433/462/450 418/446/450
f 442/472/451 441/471/451 426/455/451
f 420/448/452 435/464/452 434/463/452
f 443/473/453 442/472/453 427/456/453
f 421/449/454 436/465/454 435/464/454
f 437/467/457 436/466/457 421/450/457
f 415/443/458 430/459/458 429/458/458
f 438/468/459 437/467/459 422/451/459
f 416/444/460 431/460/460 430/459/460
f 424/453/461 439/469/461 438/468/461
f 432/461/462 431/460/462 416/444/462
f 440/470/463 439/469/463 424/453/463
f 418/446/464 433/462/464 432/461/464
f 453/484/465 452/483/465 437/467/465
f 431/460/466 446/476/466 445/475/466
f 439/469/467 454/485/467 453/484/467
f 447/477/468 446/476/468 431/460/468
f 455/486/469 454/485/469 439/469/469
f 433/462/470 448/478/470 447/477/470
f 441/471/471 456/487/471 455/486/471
f 449/479/472 448/478/472 433/462/472
f 457/488/473 456/487/473 441/471/473
f 435/464/474 450/480/474 449/479/474
f 458/489/475 457/488/475 442/472/475
f 436/465/476 451/481/476 450/480/476
f 452/483/479 451/482/479 436/466/479
f 445/475/480 444/474/480 429/458/480
f 472/504/481 471/503/481 456/487/481
f 450/480/482 465/496/482 464/495/482
f 458/489/483 473/505/483 472/504/483
f 451/481/484 466/497/484 465/496/484
f 467/499/487 466/498/487 451/482/487
f 460/491/488 459/490/488 444/474/488
f 468/500/489 467/499/489 452/483/489
f 446/476/490 461/492/490 460/491/490
f 454/485/491 469/501/491 468/500/491
f 462/493/492 461/492/492 446/476/492
f 470/502/493 469/501/493 454/485/493
f 448/478/494 463/494/494 462/493/494
f 456/487/495 471/503/495 470/502/495
f 464/495/496 463/494/496 448/478/496
f 461/492/497 1/1/497 475/507/497
f 6/7/498 478/510/498 468/500/498
f 462/493/499 476/508/499 1/1/499
f 479/511/500 6/7/500 469/501/500
f 463/494/501 2/2/501 476/508/501
f 471/503/502 480/512/502 479/511/502
f 464/495/503 477/509/503 2/2/503
f 481/513/504 480/512/504 471/503/504
f 465/496/505 3/3/505 477/509/505
f 482/514/506 481/513/506 472/504/506
f 466/497/507 4/4/507 3/3/507
f 5/6/510 4/5/510 466/498/510
f 460/491/511 475/507/511 474/506/511
f 478/510/512 5/6/512 467/499/512
