# Blender 3.3.1
# www.blender.org
o Torus
v 2.497735 0.865635 0.271436
v 2.443930 1.072922 0.257654
v 2.296932 1.224666 0.220000
v 2.096128 1.280208 0.168565
v 1.895325 1.224666 0.117129
v 1.748327 1.072922 0.079475
v 1.694522 0.865635 0.065693
v 1.748327 0.658349 0.079475
v 1.895325 0.506605 0.117129
v 2.096128 0.451063 0.168565
v 2.296932 0.506605 0.220000
v 2.443930 0.658349 0.257654
v 2.744311 0.865635 -0.052042
v 2.669966 1.145101 -0.060996
v 2.466851 1.349684 -0.085459
v 2.189390 1.424566 -0.118875
v 1.911929 1.349684 -0.152292
v 1.708814 1.145101 -0.176754
v 1.634469 0.865635 -0.185708
v 1.708814 0.586170 -0.176754
v 1.911929 0.381587 -0.152292
v 2.189390 0.306705 -0.118875
v 2.466851 0.381587 -0.085459
v 2.669966 0.586170 -0.060996
v 2.809690 0.865635 -0.687643
v 2.734405 1.156516 -0.667470
v 2.528721 1.369455 -0.612357
v 2.247752 1.447396 -0.537072
v 1.966783 1.369455 -0.461786
v 1.761099 1.156516 -0.406674
v 1.685814 0.865635 -0.386501
v 1.761099 0.574755 -0.406674
v 1.966783 0.361816 -0.461786
v 2.247752 0.283875 -0.537072
v 2.528721 0.361816 -0.612357
v 2.734405 0.574755 -0.667470
v 2.819363 0.865635 -1.015522
v 2.743819 1.170801 -0.984231
v 2.537427 1.394198 -0.898740
v 2.255491 1.475967 -0.781959
v 1.973554 1.394198 -0.665177
v 1.767162 1.170801 -0.579687
v 1.691618 0.865635 -0.548395
v 1.767162 0.560470 -0.579687
v 1.973554 0.337073 -0.665177
v 2.255491 0.255304 -0.781959
v 2.537427 0.337073 -0.898740
v 2.743819 0.560470 -0.984231
v 2.642812 0.865635 -1.373533
v 2.571998 1.170801 -1.332648
v 2.378531 1.394198 -1.220950
v 2.114249 1.475967 -1.068367
v 1.849968 1.394198 -0.915784
v 1.656501 1.170801 -0.804086
v 1.585687 0.865635 -0.763201
v 1.656501 0.560470 -0.804086
v 1.849968 0.337073 -0.915784
v 2.114249 0.255304 -1.068367
v 2.378531 0.337073 -1.220950
v 2.571998 0.560470 -1.332648
v 2.581547 0.865635 -1.691422
v 2.512375 1.191032 -1.638344
v 2.323392 1.429239 -1.493333
v 2.065237 1.516429 -1.295244
v 1.807083 1.429239 -1.097154
v 1.618100 1.191032 -0.952143
v 1.548928 0.865635 -0.899066
v 1.618100 0.540239 -0.952143
v 1.807083 0.302032 -1.097154
v 2.065237 0.214842 -1.295244
v 2.323392 0.302032 -1.493333
v 2.512375 0.540239 -1.638344
v 2.300902 0.865635 -2.011434
v 2.239250 1.191032 -1.949782
v 2.070812 1.429239 -1.781344
v 1.840722 1.516429 -1.551254
v 1.610632 1.429239 -1.321164
v 1.442194 1.191032 -1.152726
v 1.380542 0.865635 -1.091074
v 1.442194 0.540239 -1.152726
v 1.610632 0.302032 -1.321164
v 1.840722 0.214842 -1.551254
v 2.070812 0.302032 -1.781344
v 2.239250 0.540239 -1.949782
v 2.183589 0.865635 -2.312112
v 2.125080 1.224329 -2.235862
v 1.965230 1.486911 -2.027542
v 1.746871 1.583023 -1.742971
v 1.528512 1.486911 -1.458400
v 1.368662 1.224329 -1.250080
v 1.310153 0.865635 -1.173830
v 1.368662 0.506942 -1.250080
v 1.528512 0.244360 -1.458400
v 1.746871 0.148248 -1.742971
v 1.965230 0.244360 -2.027542
v 2.125080 0.506942 -2.235862
v 1.793468 0.865635 -2.572784
v 1.745412 1.224329 -2.489548
v 1.614121 1.486911 -2.262145
v 1.434774 1.583023 -1.951508
v 1.255428 1.486911 -1.640870
v 1.124137 1.224329 -1.413467
v 1.076081 0.865635 -1.330232
v 1.124137 0.506942 -1.413467
v 1.255428 0.244360 -1.640870
v 1.434774 0.148248 -1.951508
v 1.614121 0.244360 -2.262145
v 1.745412 0.506942 -2.489548
v 1.606105 0.865635 -2.872427
v 1.563069 1.285331 -2.768531
v 1.445494 1.592569 -2.484680
v 1.284884 1.705026 -2.096932
v 1.124273 1.592569 -1.709184
v 1.006698 1.285331 -1.425334
v 0.963663 0.865635 -1.321437
v 1.006698 0.445940 -1.425334
v 1.124273 0.138702 -1.709184
v 1.284884 0.026245 -2.096932
v 1.445494 0.138702 -2.484680
v 1.563069 0.445940 -2.768531
v 1.086251 0.865635 -3.048894
v 1.057145 1.285331 -2.940269
v 0.977626 1.592569 -2.643499
v 0.869001 1.705026 -2.238106
v 0.760376 1.592569 -1.832711
v 0.680857 1.285331 -1.535942
v 0.651751 0.865635 -1.427317
v 0.680857 0.445940 -1.535942
v 0.760376 0.138702 -1.832711
v 0.869001 0.026245 -2.238106
v 0.977626 0.138702 -2.643499
v 1.057145 0.445940 -2.940269
v 0.646681 0.865635 -3.304467
v 0.629353 1.361078 -3.172849
v 0.582013 1.723767 -2.813263
v 0.517345 1.856520 -2.322059
v 0.452677 1.723767 -1.830856
v 0.405337 1.361078 -1.471270
v 0.388009 0.865635 -1.339652
v 0.405337 0.370193 -1.471270
v 0.452677 0.007504 -1.830856
v 0.517345 -0.125249 -2.322059
v 0.582013 0.007504 -2.813263
v 0.629353 0.370193 -3.172849
v 0.000001 0.865635 -3.443171
v 0.000001 1.409237 -3.297513
v 0.000000 1.807181 -2.899570
v 0.000000 1.952839 -2.355968
v 0.000000 1.807181 -1.812366
v 0.000000 1.409237 -1.414422
v 0.000000 0.865635 -1.268765
v 0.000000 0.322034 -1.414422
v 0.000000 -0.075910 -1.812366
v 0.000000 -0.221568 -2.355968
v 0.000000 -0.075910 -2.899570
v 0.000001 0.322034 -3.297513
v -0.646682 0.865635 -3.304466
v -0.629355 1.361078 -3.172849
v -0.582014 1.723767 -2.813263
v -0.517346 1.856520 -2.322059
v -0.452678 1.723767 -1.830856
v -0.405337 1.361078 -1.471270
v -0.388009 0.865635 -1.339652
v -0.405337 0.370193 -1.471270
v -0.452678 0.007504 -1.830856
v -0.517346 -0.125249 -2.322059
v -0.582014 0.007504 -2.813263
v -0.629355 0.370193 -3.172849
v -1.086250 0.865635 -3.048894
v -1.057144 1.285331 -2.940269
v -0.977625 1.592569 -2.643499
v -0.869000 1.705026 -2.238106
v -0.760375 1.592569 -1.832712
v -0.680856 1.285331 -1.535942
v -0.651750 0.865635 -1.427317
v -0.680856 0.445940 -1.535942
v -0.760375 0.138702 -1.832712
v -0.869000 0.026245 -2.238106
v -0.977625 0.138702 -2.643499
v -1.057144 0.445940 -2.940269
v -1.606104 0.865635 -2.872428
v -1.563069 1.285331 -2.768532
v -1.445494 1.592569 -2.484680
v -1.284883 1.705026 -2.096933
v -1.124273 1.592569 -1.709185
v -1.006698 1.285331 -1.425334
v -0.963662 0.865635 -1.321437
v -1.006698 0.445940 -1.425334
v -1.124273 0.138702 -1.709185
v -1.284883 0.026245 -2.096933
v -1.445494 0.138702 -2.484680
v -1.563069 0.445940 -2.768532
v -1.793468 0.865635 -2.572784
v -1.745412 1.224329 -2.489548
v -1.614121 1.486911 -2.262146
v -1.434774 1.583023 -1.951508
v -1.255427 1.486911 -1.640870
v -1.124136 1.224329 -1.413467
v -1.076081 0.865635 -1.330232
v -1.124136 0.506942 -1.413467
v -1.255427 0.244360 -1.640870
v -1.434774 0.148248 -1.951508
v -1.614121 0.244360 -2.262146
v -1.745412 0.506942 -2.489548
v -2.183589 0.865635 -2.312113
v -2.125080 1.224329 -2.235862
v -1.965230 1.486911 -2.027542
v -1.746871 1.583023 -1.742971
v -1.528512 1.486911 -1.458401
v -1.368662 1.224329 -1.250080
v -1.310153 0.865635 -1.173830
v -1.368662 0.506942 -1.250080
v -1.528512 0.244360 -1.458401
v -1.746871 0.148248 -1.742971
v -1.965230 0.244360 -2.027542
v -2.125080 0.506942 -2.235862
v -2.300903 0.865635 -2.011434
v -2.239251 1.191032 -1.949782
v -2.070813 1.429239 -1.781344
v -1.840723 1.516429 -1.551253
v -1.610632 1.429239 -1.321163
v -1.442195 1.191032 -1.152725
v -1.380542 0.865635 -1.091073
v -1.442195 0.540239 -1.152725
v -1.610632 0.302032 -1.321163
v -1.840723 0.214842 -1.551253
v -2.070813 0.302032 -1.781344
v -2.239251 0.540239 -1.949782
v -2.581546 0.865635 -1.691422
v -2.512373 1.191032 -1.638344
v -2.323392 1.429239 -1.493333
v -2.065237 1.516429 -1.295244
v -1.807083 1.429239 -1.097155
v -1.618100 1.191032 -0.952144
v -1.548928 0.865635 -0.899066
v -1.618100 0.540239 -0.952144
v -1.807083 0.302032 -1.097155
v -2.065237 0.214842 -1.295244
v -2.323392 0.302032 -1.493333
v -2.512373 0.540239 -1.638344
v -2.642811 0.865635 -1.373533
v -2.571997 1.170801 -1.332649
v -2.378530 1.394198 -1.220950
v -2.114249 1.475967 -1.068367
v -1.849968 1.394198 -0.915784
v -1.656501 1.170801 -0.804086
v -1.585687 0.865635 -0.763202
v -1.656501 0.560470 -0.804086
v -1.849968 0.337073 -0.915784
v -2.114249 0.255304 -1.068367
v -2.378530 0.337073 -1.220950
v -2.571997 0.560470 -1.332649
v -2.819362 0.865635 -1.015523
v -2.743818 1.170801 -0.984231
v -2.537426 1.394198 -0.898741
v -2.255490 1.475967 -0.781959
v -1.973554 1.394198 -0.665177
v -1.767162 1.170801 -0.579687
v -1.691618 0.865635 -0.548395
v -1.767162 0.560470 -0.579687
v -1.973554 0.337073 -0.665177
v -2.255490 0.255304 -0.781959
v -2.537426 0.337073 -0.898741
v -2.743818 0.560470 -0.984231
v -2.809690 0.865635 -0.687642
v -2.734405 1.156516 -0.667470
v -2.528721 1.369455 -0.612357
v -2.247751 1.447396 -0.537072
v -1.966783 1.369455 -0.461786
v -1.761099 1.156516 -0.406674
v -1.685814 0.865635 -0.386501
v -1.761099 0.574755 -0.406674
v -1.966783 0.361816 -0.461786
v -2.247751 0.283875 -0.537072
v -2.528721 0.361816 -0.612357
v -2.734405 0.574755 -0.667470
v -2.770746 0.865635 -0.364776
v -2.696503 1.145101 -0.355002
v -2.493671 1.349684 -0.328298
v -2.216596 1.424566 -0.291821
v -1.939522 1.349684 -0.255343
v -1.736689 1.145101 -0.228640
v -1.662447 0.865635 -0.218866
v -1.736689 0.586170 -0.228640
v -1.939522 0.381587 -0.255343
v -2.216596 0.306705 -0.291821
v -2.493671 0.381587 -0.328298
v -2.696503 0.586170 -0.355002
v -2.410485 0.865635 0.210203
v -2.362054 1.049718 0.200854
v -2.229738 1.184476 0.175313
v -2.048992 1.233801 0.140423
v -1.868246 1.184476 0.105532
v -1.735931 1.049718 0.079991
v -1.687500 0.865635 0.070642
v -1.735931 0.681553 0.079991
v -1.868246 0.546795 0.105532
v -2.048992 0.497470 0.140423
v -2.229738 0.546795 0.175313
v -2.362054 0.681553 0.200854
v -1.537105 0.865635 0.326772
v 1.642281 0.865635 0.548580
vn 0.7658 0.2385 0.5972
vn 0.5240 0.6455 0.5557
vn 0.1190 0.8713 0.4762
vn -0.3357 0.8622 0.3794
vn -0.7225 0.6283 0.2884
vn -0.9464 0.2306 0.2261
vn -0.9464 -0.2306 0.2261
vn -0.7225 -0.6283 0.2884
vn -0.3357 -0.8622 0.3794
vn 0.1190 -0.8713 0.4762
vn 0.5240 -0.6455 0.5557
vn 0.7658 -0.2385 0.5972
vn 0.9600 0.2588 0.1069
vn 0.6989 0.7069 0.1086
vn 0.2497 0.9644 0.0875
vn -0.2622 0.9649 0.0152
vn -0.6968 0.7066 -0.1234
vn -0.9363 0.2568 -0.2394
vn -0.9363 -0.2568 -0.2394
vn -0.6968 -0.7066 -0.1234
vn -0.2622 -0.9649 0.0152
vn 0.2497 -0.9644 0.0875
vn 0.6989 -0.7069 0.1086
vn 0.9600 -0.2588 0.1069
vn 0.9680 0.2478 0.0399
vn 0.7273 0.6815 0.0810
vn 0.2951 0.9479 0.1199
vn -0.2384 0.9650 0.1095
vn -0.7146 0.6987 0.0326
vn -0.9681 0.2482 -0.0347
vn -0.9681 -0.2482 -0.0347
vn -0.7146 -0.6987 0.0326
vn -0.2384 -0.9650 0.1095
vn 0.2951 -0.9479 0.1199
vn 0.7273 -0.6815 0.0810
vn 0.9680 -0.2478 0.0399
vn 0.8664 0.2583 -0.4273
vn 0.6349 0.7063 -0.3131
vn 0.2326 0.9658 -0.1147
vn -0.2326 0.9658 0.1147
vn -0.6349 0.7063 0.3131
vn -0.8664 0.2583 0.4273
vn -0.8664 -0.2583 0.4273
vn -0.6349 -0.7063 0.3131
vn -0.2326 -0.9658 0.1147
vn 0.2326 -0.9658 -0.1147
vn 0.6349 -0.7063 -0.3131
vn 0.8664 -0.2583 -0.4273
vn 0.9547 0.2443 -0.1700
vn 0.7386 0.6712 -0.0632
vn 0.3428 0.9348 0.0927
vn -0.1671 0.9599 0.2250
vn -0.6584 0.7037 0.2669
vn -0.9345 0.2507 0.2528
vn -0.9345 -0.2507 0.2528
vn -0.6584 -0.7037 0.2669
vn -0.1671 -0.9599 0.2250
vn 0.3428 -0.9348 0.0927
vn 0.7386 -0.6712 -0.0632
vn 0.9547 -0.2443 -0.1700
vn 0.7263 0.2583 -0.6370
vn 0.5322 0.7063 -0.4667
vn 0.1950 0.9658 -0.1710
vn -0.1950 0.9658 0.1710
vn -0.5322 0.7063 0.4667
vn -0.7263 0.2583 0.6370
vn -0.7263 -0.2583 0.6370
vn -0.5322 -0.7063 0.4667
vn -0.1950 -0.9658 0.1710
vn 0.1950 -0.9658 -0.1710
vn 0.5322 -0.7063 -0.4667
vn 0.7263 -0.2583 -0.6370
vn 0.9116 0.2364 -0.3363
vn 0.7449 0.6456 -0.1682
vn 0.4362 0.8946 0.0972
vn 0.0239 0.9267 0.3751
vn -0.4299 0.7039 0.5655
vn -0.7359 0.2580 0.6260
vn -0.7359 -0.2580 0.6260
vn -0.4299 -0.7039 0.5655
vn 0.0239 -0.9267 0.3751
vn 0.4362 -0.8946 0.0972
vn 0.7449 -0.6456 -0.1682
vn 0.9116 -0.2364 -0.3363
vn 0.5367 0.2583 -0.8033
vn 0.3933 0.7063 -0.5886
vn 0.1441 0.9658 -0.2156
vn -0.1441 0.9658 0.2156
vn -0.3933 0.7063 0.5886
vn -0.5367 0.2583 0.8033
vn -0.5367 -0.2583 0.8033
vn -0.3933 -0.7063 0.5886
vn -0.1441 -0.9658 0.2156
vn 0.1441 -0.9658 -0.2156
vn 0.3933 -0.7063 -0.5886
vn 0.5367 -0.2583 -0.8033
vn 0.8371 0.2276 -0.4974
vn 0.7439 0.6095 -0.2743
vn 0.5791 0.8110 0.0834
vn 0.3917 0.7906 0.4707
vn 0.2185 0.5741 0.7891
vn 0.0762 0.2157 0.9735
vn 0.0762 -0.2157 0.9735
vn 0.2185 -0.5741 0.7891
vn 0.3917 -0.7906 0.4707
vn 0.5791 -0.8110 0.0834
vn 0.7439 -0.6095 -0.2743
vn 0.8371 -0.2276 -0.4974
vn 0.3105 0.2583 -0.9148
vn 0.2275 0.7063 -0.6703
vn 0.0834 0.9658 -0.2456
vn -0.0834 0.9658 0.2456
vn -0.2275 0.7063 0.6703
vn -0.3105 0.2583 0.9148
vn -0.3105 -0.2583 0.9148
vn -0.2275 -0.7063 0.6703
vn -0.0834 -0.9658 0.2456
vn 0.0834 -0.9658 -0.2456
vn 0.2275 -0.7063 -0.6703
vn 0.3105 -0.2583 -0.9148
vn 0.4963 0.2496 -0.8315
vn 0.4687 0.6735 -0.5717
vn 0.4193 0.8975 -0.1366
vn 0.3707 0.8646 0.3392
vn 0.3360 0.6079 0.7194
vn 0.3078 0.2183 0.9261
vn 0.3078 -0.2183 0.9261
vn 0.3360 -0.6079 0.7194
vn 0.3707 -0.8646 0.3392
vn 0.4193 -0.8975 -0.1366
vn 0.4687 -0.6735 -0.5717
vn 0.4963 -0.2496 -0.8315
vn 0.2026 0.2580 -0.9447
vn 0.1895 0.7037 -0.6848
vn 0.1721 0.9564 -0.2358
vn 0.1583 0.9477 0.2770
vn 0.1553 0.6852 0.7116
vn 0.1634 0.2480 0.9549
vn 0.1634 -0.2480 0.9549
vn 0.1553 -0.6852 0.7116
vn 0.1583 -0.9477 0.2770
vn 0.1721 -0.9564 -0.2358
vn 0.1895 -0.7037 -0.6848
vn 0.2026 -0.2580 -0.9447
vn -0.2066 0.2532 -0.9451
vn -0.2020 0.6925 -0.6925
vn -0.1931 0.9477 -0.2539
vn -0.1853 0.9492 0.2543
vn -0.1802 0.6955 0.6955
vn -0.1738 0.2549 0.9512
vn -0.1738 -0.2549 0.9512
vn -0.1802 -0.6955 0.6955
vn -0.1853 -0.9492 0.2543
vn -0.1931 -0.9477 -0.2539
vn -0.2020 -0.6925 -0.6925
vn -0.2066 -0.2532 -0.9451
vn -0.4879 0.2400 -0.8392
vn -0.4460 0.6588 -0.6058
vn -0.3827 0.9033 -0.1937
vn -0.3206 0.9029 0.2862
vn -0.2840 0.6561 0.6992
vn -0.2833 0.2370 0.9293
vn -0.2833 -0.2370 0.9293
vn -0.2840 -0.6561 0.6992
vn -0.3206 -0.9029 0.2862
vn -0.3827 -0.9033 -0.1937
vn -0.4460 -0.6588 -0.6058
vn -0.4879 -0.2400 -0.8392
vn -0.3105 0.2583 -0.9148
vn -0.2275 0.7063 -0.6703
vn -0.0834 0.9658 -0.2456
vn 0.0834 0.9658 0.2456
vn 0.2275 0.7063 0.6703
vn 0.3105 0.2583 0.9148
vn 0.3105 -0.2583 0.9148
vn 0.2275 -0.7063 0.6703
vn 0.0834 -0.9658 0.2456
vn -0.0834 -0.9658 -0.2456
vn -0.2275 -0.7063 -0.6703
vn -0.3105 -0.2583 -0.9148
vn -0.8284 0.2132 -0.5180
vn -0.7258 0.5957 -0.3441
vn -0.5464 0.8373 -0.0165
vn -0.3276 0.8624 0.3858
vn -0.1285 0.6460 0.7524
vn -0.0254 0.2378 0.9710
vn -0.0254 -0.2378 0.9710
vn -0.1285 -0.6460 0.7524
vn -0.3276 -0.8624 0.3858
vn -0.5464 -0.8373 -0.0165
vn -0.7258 -0.5957 -0.3441
vn -0.8284 -0.2132 -0.5180
vn -0.5367 0.2583 -0.8033
vn -0.3933 0.7063 -0.5886
vn -0.1441 0.9658 -0.2156
vn 0.1441 0.9658 0.2156
vn 0.3933 0.7063 0.5886
vn 0.5367 0.2583 0.8033
vn 0.5367 -0.2583 0.8033
vn 0.3933 -0.7063 0.5886
vn 0.1441 -0.9658 0.2156
vn -0.1441 -0.9658 -0.2156
vn -0.3933 -0.7063 -0.5886
vn -0.5367 -0.2583 -0.8033
vn -0.9081 0.2234 -0.3543
vn -0.7437 0.6300 -0.2235
vn -0.4312 0.9018 0.0263
vn -0.0072 0.9457 0.3250
vn 0.4350 0.7071 0.5575
vn 0.7280 0.2541 0.6368
vn 0.7280 -0.2541 0.6368
vn 0.4350 -0.7071 0.5575
vn -0.0072 -0.9457 0.3250
vn -0.4312 -0.9018 0.0263
vn -0.7437 -0.6300 -0.2235
vn -0.9081 -0.2234 -0.3543
vn -0.7263 0.2583 -0.6370
vn -0.5322 0.7063 -0.4667
vn -0.1950 0.9658 -0.1710
vn 0.1950 0.9658 0.1710
vn 0.5322 0.7063 0.4667
vn 0.7263 0.2583 0.6370
vn 0.7263 -0.2583 0.6370
vn 0.5322 -0.7063 0.4667
vn 0.1950 -0.9658 0.1710
vn -0.1950 -0.9658 -0.1710
vn -0.5322 -0.7063 -0.4667
vn -0.7263 -0.2583 -0.6370
vn -0.9549 0.2330 -0.1840
vn -0.7480 0.6558 -0.1025
vn -0.3530 0.9344 0.0488
vn 0.1661 0.9640 0.2078
vn 0.6560 0.6969 0.2898
vn 0.9305 0.2426 0.2745
vn 0.9305 -0.2426 0.2745
vn 0.6560 -0.6969 0.2898
vn 0.1661 -0.9640 0.2078
vn -0.3530 -0.9344 0.0488
vn -0.7480 -0.6558 -0.1025
vn -0.9549 -0.2330 -0.1840
vn -0.8664 0.2583 -0.4273
vn -0.6349 0.7063 -0.3131
vn -0.2326 0.9658 -0.1147
vn 0.2326 0.9658 0.1147
vn 0.6349 0.7063 0.3131
vn 0.8664 0.2583 0.4273
vn 0.8664 -0.2583 0.4273
vn 0.6349 -0.7063 0.3131
vn 0.2326 -0.9658 0.1147
vn -0.2326 -0.9658 -0.1147
vn -0.6349 -0.7063 -0.3131
vn -0.8664 -0.2583 -0.4273
vn -0.9710 0.2374 0.0286
vn -0.7434 0.6668 0.0522
vn -0.3120 0.9457 0.0912
vn 0.2366 0.9659 0.1052
vn 0.7217 0.6896 0.0599
vn 0.9709 0.2389 -0.0143
vn 0.9709 -0.2389 -0.0143
vn 0.7217 -0.6896 0.0599
vn 0.2366 -0.9659 0.1052
vn -0.3120 -0.9457 0.0912
vn -0.7434 -0.6668 0.0522
vn -0.9710 -0.2374 0.0286
vn -0.9635 0.2413 0.1162
vn -0.7291 0.6750 0.1131
vn -0.2912 0.9512 0.1021
vn 0.2524 0.9659 0.0578
vn 0.7227 0.6905 -0.0293
vn 0.9634 0.2413 -0.1166
vn 0.9634 -0.2413 -0.1166
vn 0.7227 -0.6905 -0.0293
vn 0.2524 -0.9659 0.0578
vn -0.2912 -0.9512 0.1021
vn -0.7291 -0.6750 0.1131
vn -0.9635 -0.2413 0.1162
vn -0.8299 0.2023 0.5200
vn -0.6500 0.5804 0.4907
vn -0.2879 0.8550 0.4314
vn 0.2062 0.9222 0.3271
vn 0.6853 0.7039 0.1869
vn 0.9629 0.2585 0.0775
vn 0.9629 -0.2585 0.0775
vn 0.6853 -0.7039 0.1869
vn 0.2062 -0.9222 0.3271
vn -0.2879 -0.8550 0.4314
vn -0.6500 -0.5804 0.4907
vn -0.8299 -0.2023 0.5200
vn -0.1318 0.0848 0.9876
vn -0.0869 0.2672 0.9597
vn 0.0347 0.4893 0.8714
vn 0.3165 0.7403 0.5931
vn 0.7085 0.7043 -0.0455
vn 0.8361 0.2449 -0.4909
vn 0.8361 -0.2449 -0.4909
vn 0.7085 -0.7043 -0.0455
vn 0.3165 -0.7403 0.5931
vn 0.0347 -0.4893 0.8714
vn -0.0869 -0.2672 0.9597
vn -0.1318 -0.0848 0.9876
vn 0.3051 0.1418 0.9417
vn 0.2106 0.4227 0.8815
vn -0.0015 0.6766 0.7364
vn -0.3453 0.8110 0.4723
vn -0.7281 0.6725 0.1325
vn -0.9610 0.2564 -0.1040
vn -0.9610 -0.2564 -0.1040
vn -0.7281 -0.6725 0.1325
vn -0.3453 -0.8110 0.4723
vn -0.0015 -0.6766 0.7364
vn 0.2106 -0.4227 0.8815
vn 0.3051 -0.1418 0.9417
vn 0.7749 0.2251 0.5907
vn 0.5635 0.6242 0.5411
vn 0.1801 0.8712 0.4567
vn -0.2832 0.8908 0.3555
vn -0.7000 0.6633 0.2647
vn -0.9455 0.2447 0.2147
vn -0.9455 -0.2447 0.2147
vn -0.7000 -0.6633 0.2647
vn -0.2832 -0.8908 0.3555
vn 0.1801 -0.8712 0.4567
vn 0.5635 -0.6242 0.5411
vn 0.7749 -0.2251 0.5907
vn 0.9650 0.2429 0.0993
vn 0.7279 0.6798 0.0901
vn 0.2838 0.9564 0.0692
vn -0.2633 0.9646 0.0159
vn -0.7276 0.6807 -0.0855
vn -0.9509 0.2319 -0.2047
vn -0.9509 -0.2319 -0.2047
vn -0.7276 -0.6807 -0.0855
vn -0.2633 -0.9646 0.0159
vn 0.2838 -0.9564 0.0692
vn 0.7279 -0.6798 0.0901
vn 0.9650 -0.2429 0.0993
vn 0.9710 0.2374 0.0286
vn 0.7434 0.6668 0.0522
vn 0.3120 0.9457 0.0912
vn -0.2366 0.9659 0.1052
vn -0.7217 0.6896 0.0599
vn -0.9709 0.2389 -0.0143
vn -0.9709 -0.2389 -0.0143
vn -0.7217 -0.6896 0.0599
vn -0.2366 -0.9659 0.1052
vn 0.3120 -0.9457 0.0912
vn 0.7434 -0.6668 0.0522
vn 0.9710 -0.2374 0.0286
vn 0.9549 0.2330 -0.1840
vn 0.7480 0.6558 -0.1025
vn 0.3530 0.9344 0.0487
vn -0.1661 0.9640 0.2078
vn -0.6560 0.6969 0.2898
vn -0.9305 0.2426 0.2745
vn -0.9305 -0.2426 0.2745
vn -0.6560 -0.6969 0.2898
vn -0.1661 -0.9640 0.2078
vn 0.3530 -0.9344 0.0487
vn 0.7480 -0.6558 -0.1025
vn 0.9549 -0.2330 -0.1840
vn 0.9081 0.2234 -0.3543
vn 0.7437 0.6300 -0.2235
vn 0.4312 0.9018 0.0263
vn 0.0072 0.9457 0.3250
vn -0.4350 0.7071 0.5575
vn -0.7280 0.2541 0.6368
vn -0.7280 -0.2541 0.6368
vn -0.4350 -0.7071 0.5575
vn 0.0072 -0.9457 0.3250
vn 0.4312 -0.9018 0.0263
vn 0.7437 -0.6300 -0.2235
vn 0.9081 -0.2234 -0.3543
vn 0.8284 0.2132 -0.5180
vn 0.7258 0.5957 -0.3441
vn 0.5464 0.8373 -0.0165
vn 0.3276 0.8624 0.3858
vn 0.1285 0.6460 0.7524
vn 0.0254 0.2378 0.9710
vn 0.0254 -0.2378 0.9710
vn 0.1285 -0.6460 0.7524
vn 0.3276 -0.8624 0.3858
vn 0.5464 -0.8373 -0.0165
vn 0.7258 -0.5957 -0.3441
vn 0.8284 -0.2132 -0.5180
vn 0.4879 0.2400 -0.8392
vn 0.4460 0.6588 -0.6058
vn 0.3827 0.9033 -0.1937
vn 0.3206 0.9029 0.2862
vn 0.2840 0.6561 0.6992
vn 0.2833 0.2370 0.9293
vn 0.2833 -0.2370 0.9293
vn 0.2840 -0.6561 0.6992
vn 0.3206 -0.9029 0.2862
vn 0.3827 -0.9033 -0.1937
vn 0.4460 -0.6588 -0.6058
vn 0.4879 -0.2400 -0.8392
vn 0.2066 0.2532 -0.9451
vn 0.2020 0.6925 -0.6925
vn 0.1931 0.9477 -0.2539
vn 0.1853 0.9492 0.2543
vn 0.1802 0.6955 0.6955
vn 0.1738 0.2549 0.9512
vn 0.1738 -0.2549 0.9512
vn 0.1802 -0.6955 0.6955
vn 0.1853 -0.9492 0.2543
vn 0.1931 -0.9477 -0.2539
vn 0.2020 -0.6925 -0.6925
vn 0.2066 -0.2532 -0.9451
vn -0.2026 0.2580 -0.9446
vn -0.1895 0.7037 -0.6848
vn -0.1720 0.9564 -0.2358
vn -0.1583 0.9477 0.2770
vn -0.1553 0.6852 0.7116
vn -0.1634 0.2480 0.9549
vn -0.1634 -0.2480 0.9549
vn -0.1553 -0.6852 0.7116
vn -0.1583 -0.9477 0.2770
vn -0.1720 -0.9564 -0.2358
vn -0.1895 -0.7037 -0.6848
vn -0.2026 -0.2580 -0.9446
vn -0.4963 0.2496 -0.8315
vn -0.4687 0.6735 -0.5717
vn -0.4193 0.8975 -0.1366
vn -0.3707 0.8646 0.3392
vn -0.3360 0.6079 0.7194
vn -0.3078 0.2183 0.9261
vn -0.3078 -0.2183 0.9261
vn -0.3360 -0.6079 0.7194
vn -0.3707 -0.8646 0.3392
vn -0.4193 -0.8975 -0.1366
vn -0.4687 -0.6735 -0.5717
vn -0.4963 -0.2496 -0.8315
vn -0.8371 0.2276 -0.4974
vn -0.7439 0.6095 -0.2743
vn -0.5791 0.8110 0.0834
vn -0.3917 0.7906 0.4707
vn -0.2185 0.5741 0.7891
vn -0.0762 0.2157 0.9735
vn -0.0762 -0.2157 0.9735
vn -0.2185 -0.5741 0.7891
vn -0.3917 -0.7906 0.4707
vn -0.5791 -0.8110 0.0834
vn -0.7439 -0.6095 -0.2743
vn -0.8371 -0.2276 -0.4974
vn -0.9116 0.2364 -0.3363
vn -0.7449 0.6456 -0.1682
vn -0.4362 0.8946 0.0972
vn -0.0239 0.9267 0.3751
vn 0.4299 0.7039 0.5655
vn 0.7359 0.2580 0.6260
vn 0.7359 -0.2580 0.6260
vn 0.4299 -0.7039 0.5655
vn -0.0239 -0.9267 0.3751
vn -0.4362 -0.8946 0.0972
vn -0.7449 -0.6456 -0.1682
vn -0.9116 -0.2364 -0.3363
vn -0.9547 0.2443 -0.1700
vn -0.7386 0.6712 -0.0632
vn -0.3428 0.9348 0.0927
vn 0.1671 0.9599 0.2250
vn 0.6584 0.7037 0.2669
vn 0.9345 0.2507 0.2528
vn 0.9345 -0.2507 0.2528
vn 0.6584 -0.7037 0.2669
vn 0.1671 -0.9599 0.2250
vn -0.3428 -0.9348 0.0927
vn -0.7386 -0.6712 -0.0632
vn -0.9547 -0.2443 -0.1700
vn -0.9680 0.2478 0.0399
vn -0.7273 0.6815 0.0810
vn -0.2951 0.9479 0.1199
vn 0.2384 0.9650 0.1095
vn 0.7146 0.6987 0.0326
vn 0.9681 0.2482 -0.0347
vn 0.9681 -0.2482 -0.0347
vn 0.7146 -0.6987 0.0326
vn 0.2384 -0.9650 0.1095
vn -0.2951 -0.9479 0.1199
vn -0.7273 -0.6815 0.0810
vn -0.9680 -0.2478 0.0399
vn -0.9599 0.2506 0.1256
vn -0.7124 0.6885 0.1358
vn -0.2740 0.9537 0.1236
vn 0.2532 0.9656 0.0590
vn 0.7126 0.6996 -0.0528
vn 0.9590 0.2501 -0.1337
vn 0.9590 -0.2501 -0.1337
vn 0.7126 -0.6996 -0.0528
vn 0.2532 -0.9656 0.0590
vn -0.2740 -0.9537 0.1236
vn -0.7124 -0.6885 0.1358
vn -0.9599 -0.2506 0.1256
vn -0.8128 0.2408 0.5304
vn -0.5640 0.6503 0.5089
vn -0.1538 0.8806 0.4483
vn 0.3085 0.8865 0.3449
vn 0.7176 0.6659 0.2040
vn 0.9647 0.2496 0.0835
vn 0.9647 -0.2496 0.0835
vn 0.7176 -0.6659 0.2040
vn 0.3085 -0.8865 0.3449
vn -0.1538 -0.8806 0.4483
vn -0.5640 -0.6503 0.5089
vn -0.8128 -0.2408 0.5304
vt 0.234257 0.468543
vt 0.713528 0.928385
vt 0.700735 0.907539
vt 0.247093 0.449878
vt 0.700852 0.883979
vt 0.260619 0.427843
vt 0.271210 0.408344
vt 0.713848 0.864016
vt 0.851488 0.034171
vt 0.840096 0.046278
vt 0.818931 0.056394
vt 0.793664 0.061808
vt 0.790746 0.585217
vt 0.771065 0.061070
vt 0.767466 0.578051
vt 0.783987 0.930798
vt 0.744119 0.567820
vt 0.761594 0.941813
vt 0.726960 0.557266
vt 0.735804 0.940930
vt 0.696700 0.958772
vt 0.190096 0.456918
vt 0.683557 0.006814
vt 0.208376 0.432417
vt 0.229275 0.404522
vt 0.247192 0.380709
vt 0.876074 0.063584
vt 0.859870 0.075893
vt 0.830716 0.086593
vt 0.796425 0.092817
vt 0.786368 0.616648
vt 0.766183 0.092897
vt 0.753998 0.610000
vt 0.752554 0.071741
vt 0.721177 0.600322
vt 0.696700 0.590207
vt 0.761619 0.975249
vt 0.733295 0.045908
vt 0.726764 0.975249
vt 0.708040 0.022143
vt 0.129041 0.410029
vt 0.632300 0.059071
vt 0.150586 0.386997
vt 0.179218 0.364711
vt 0.887956 0.110596
vt 0.207265 0.349144
vt 0.227212 0.344466
vt 0.869339 0.110335
vt 0.837712 0.111902
vt 0.801550 0.114877
vt 0.776165 0.642820
vt 0.770542 0.118464
vt 0.741655 0.645574
vt 0.719636 0.105734
vt 0.706376 0.648716
vt 0.691830 0.089304
vt 0.659863 0.072224
vt 0.099021 0.384460
vt 0.607261 0.087797
vt 0.122322 0.361301
vt 0.154267 0.340665
vt 0.186296 0.328081
vt 0.876056 0.133634
vt 0.209828 0.326921
vt 0.842655 0.131789
vt 0.804635 0.133634
vt 0.771678 0.663242
vt 0.772186 0.138674
vt 0.735974 0.669613
vt 0.699648 0.677665
vt 0.703033 0.128077
vt 0.671788 0.115177
vt 0.636733 0.100433
vt 0.077724 0.345806
vt 0.590830 0.132923
vt 0.101596 0.323683
vt 0.135100 0.305877
vt 0.169259 0.297158
vt 0.194920 0.299863
vt 0.876934 0.166281
vt 0.843441 0.161022
vt 0.805388 0.161617
vt 0.779380 0.692211
vt 0.772972 0.167906
vt 0.744576 0.701966
vt 0.689888 0.164179
vt 0.709479 0.714639
vt 0.657000 0.155791
vt 0.620742 0.144351
vt 0.052953 0.316964
vt 0.570672 0.165969
vt 0.078870 0.294493
vt 0.115858 0.278563
vt 0.154007 0.273443
vt 0.183095 0.280504
vt 0.882985 0.188244
vt 0.847313 0.179138
vt 0.806753 0.178492
vt 0.779687 0.710643
vt 0.772173 0.186479
vt 0.743943 0.724486
vt 0.678824 0.189464
vt 0.708386 0.742702
vt 0.642493 0.185437
vt 0.602906 0.176837
vt 0.041453 0.275365
vt 0.563146 0.215340
vt 0.067678 0.254009
vt 0.105508 0.241124
vt 0.144807 0.240164
vt 0.175045 0.251385
vt 0.881241 0.219768
vt 0.845752 0.207365
vt 0.805259 0.205513
vt 0.794685 0.738185
vt 0.770612 0.214706
vt 0.760692 0.755244
vt 0.672803 0.228960
vt 0.727529 0.777854
vt 0.635719 0.229870
vt 0.595581 0.224885
vt 0.021667 0.244678
vt 0.485637 0.902097
vt 0.547541 0.250963
vt 0.485637 0.857563
vt 0.050739 0.222339
vt 0.092888 0.211422
vt 0.136820 0.214853
vt 0.170764 0.231710
vt 0.887956 0.237389
vt 0.849187 0.220368
vt 0.387939 0.487124
vt 0.804679 0.217099
vt 0.766358 0.228460
vt 0.798861 0.751396
vt 0.343262 0.487390
vt 0.763712 0.773438
vt 0.730326 0.802783
vt 0.668924 0.255233
vt 0.627792 0.261608
vt 0.583363 0.260045
vt 0.445440 0.905009
vt 0.022210 0.201525
vt 0.550826 0.303057
vt 0.446517 0.860396
vt 0.051267 0.180343
vt 0.093377 0.172585
vt 0.137254 0.180331
vt 0.883210 0.266148
vt 0.171144 0.201504
vt 0.185964 0.230432
vt 0.844937 0.246119
vt 0.425170 0.499765
vt 0.800611 0.241750
vt 0.387508 0.513747
vt 0.821746 0.775996
vt 0.342811 0.515202
vt 0.698036 0.279095
vt 0.789270 0.800911
vt 0.303057 0.503740
vt 0.759535 0.834180
vt 0.671552 0.296909
vt 0.630749 0.308493
vt 0.586560 0.310744
vt 0.006814 0.166902
vt 0.539382 0.343739
vt 0.124438 0.482171
vt 0.040588 0.143392
vt 0.073360 0.493334
vt 0.089242 0.137799
vt 0.031132 0.517555
vt 0.139740 0.151621
vt 0.262393 0.533568
vt 0.178551 0.181155
vt 0.195275 0.218487
vt 0.262393 0.482171
vt 0.434039 0.512270
vt 0.389924 0.527113
vt 0.393752 0.859456
vt 0.337674 0.530332
vt 0.291289 0.521065
vt 0.708454 0.298298
vt 0.383571 0.905430
vt 0.383235 0.957762
vt 0.678524 0.324943
vt 0.631839 0.344298
vt 0.170679 0.487059
vt 0.580910 0.351178
vt 0.137254 0.537765
vt 0.556516 0.397815
vt 0.085832 0.547438
vt 0.056218 0.100681
vt 0.042667 0.567590
vt 0.103697 0.098301
vt 0.152588 0.116512
vt 0.237160 0.538855
vt 0.189793 0.150434
vt 0.205342 0.190979
vt 0.239799 0.486905
vt 0.436787 0.550071
vt 0.392555 0.563299
vt 0.431811 0.857563
vt 0.340422 0.568134
vt 0.720448 0.336151
vt 0.426075 0.903315
vt 0.294358 0.563281
vt 0.431811 0.955346
vt 0.692231 0.368203
vt 0.647260 0.392966
vt 0.183152 0.541163
vt 0.597585 0.403805
vt 0.151212 0.581702
vt 0.563065 0.453088
vt 0.065530 0.052314
vt 0.090161 0.591230
vt 0.119553 0.052911
vt 0.038250 0.609854
vt 0.174503 0.079063
vt 0.215657 0.123762
vt 0.452752 0.581499
vt 0.231988 0.175032
vt 0.400318 0.595121
vt 0.338995 0.602821
vt 0.285215 0.602536
vt 0.748298 0.362866
vt 0.525753 0.061392
vt 0.486906 0.013538
vt 0.717750 0.406513
vt 0.667425 0.441555
vt 0.610806 0.458603
vt 0.205045 0.583822
vt 0.164782 0.653193
vt 0.097481 0.661464
vt 0.151854 0.006814
vt 0.039660 0.675932
vt 0.006814 0.692722
vt 0.208209 0.039950
vt 0.249427 0.093436
vt 0.501023 0.617516
vt 0.264463 0.152940
vt 0.467778 0.628831
vt 0.409924 0.641536
vt 0.342964 0.652226
vt 0.497872 0.095516
vt 0.284838 0.658038
vt 0.752554 0.450727
vt 0.449839 0.048460
vt 0.701126 0.494811
vt 0.394644 0.015993
vt 0.641778 0.517641
vt 0.223532 0.653336
vt 0.347077 0.006814
vt 0.170208 0.732697
vt 0.108648 0.738179
vt 0.938534 0.279777
vt 0.055346 0.745749
vt 0.024584 0.753380
vt 0.237992 0.019696
vt 0.910664 0.334291
vt 0.271210 0.071816
vt 0.499490 0.672762
vt 0.912728 0.396062
vt 0.468192 0.677450
vt 0.944173 0.448538
vt 0.415098 0.686970
vt 0.354435 0.698772
vt 0.302458 0.709693
vt 0.462377 0.135288
vt 0.414475 0.097990
vt 0.360046 0.073988
vt 0.313673 0.069713
vt 0.223532 0.730771
vt 0.169161 0.791396
vt 0.116885 0.794273
vt 0.071384 0.795858
vt 0.964219 0.296746
vt 0.993186 0.903280
vt 0.975604 0.859731
vt 0.938862 0.342546
vt 0.938862 0.394492
vt 0.975604 0.807561
vt 0.964219 0.438666
vt 0.462722 0.711242
vt 0.993186 0.760747
vt 0.417381 0.717580
vt 0.366357 0.729305
vt 0.323322 0.743276
vt 0.437436 0.166837
vt 0.394105 0.140420
vt 0.345245 0.125265
vt 0.214205 0.787998
vt 0.303948 0.125435
vt 0.858654 0.782490
vt 0.171616 0.857184
vt 0.119274 0.858298
vt 0.835374 0.828026
vt 0.073593 0.855067
vt 0.948492 0.896238
vt 0.837132 0.880250
vt 0.935877 0.853471
vt 0.863456 0.925169
vt 0.501023 0.755916
vt 0.940843 0.802083
vt 0.907292 0.950745
vt 0.962059 0.755843
vt 0.472385 0.750574
vt 0.426631 0.755230
vt 0.376021 0.768636
vt 0.334115 0.787201
vt 0.423691 0.205574
vt 0.378397 0.184691
vt 0.327573 0.175070
vt 0.284838 0.179290
vt 0.216593 0.852023
vt 0.900733 0.755843
vt 0.592475 0.936735
vt 0.886835 0.797288
vt 0.866389 0.836242
vt 0.592475 0.891995
vt 0.598813 0.852870
vt 0.590388 0.838072
vt 0.866389 0.880976
vt 0.886835 0.919504
vt 0.600667 0.803794
vt 0.922248 0.941501
vt 0.493527 0.774185
vt 0.627679 0.769811
vt 0.467990 0.765868
vt 0.664186 0.745227
vt 0.428497 0.768475
vt 0.385631 0.781305
vt 0.350878 0.800923
vt 0.418398 0.226567
vt 0.378712 0.213671
vt 0.334301 0.210402
vt 0.922248 0.774551
vt 0.297063 0.217634
vt 0.598813 0.975101
vt 0.910069 0.039028
vt 0.539382 0.935435
vt 0.540804 0.890730
vt 0.901584 0.082430
vt 0.551029 0.851700
vt 0.564386 0.804298
vt 0.913164 0.125391
vt 0.577554 0.773773
vt 0.941706 0.156400
vt 0.607455 0.743542
vt 0.477754 0.795940
vt 0.646077 0.721706
vt 0.683071 0.714114
vt 0.437845 0.797261
vt 0.395396 0.811377
vt 0.361783 0.834507
vt 0.416607 0.262203
vt 0.376665 0.254398
vt 0.331997 0.256219
vt 0.294572 0.267179
vt 0.547143 0.973836
vt 0.936345 0.006814
vt 0.942116 0.047468
vt 0.654722 0.930102
vt 0.654722 0.889550
vt 0.933667 0.086851
vt 0.563775 0.773264
vt 0.942116 0.125851
vt 0.665127 0.853651
vt 0.965201 0.154017
vt 0.578008 0.749449
vt 0.607420 0.725900
vt 0.644131 0.708928
vt 0.678304 0.703080
vt 0.441772 0.806164
vt 0.932553 0.578566
vt 0.403663 0.820037
vt 0.374258 0.843934
vt 0.422471 0.281832
vt 0.898636 0.560802
vt 0.870925 0.531270
vt 0.386661 0.279416
vt 0.346564 0.285733
vt 0.665127 0.964441
vt 0.312924 0.299090
vt 0.965201 0.018255
vt 0.862474 0.279777
vt 0.612441 0.927935
vt 0.613574 0.887441
vt 0.822171 0.282534
vt 0.627074 0.851700
vt 0.546556 0.734735
vt 0.786926 0.299824
vt 0.562701 0.715200
vt 0.766183 0.327014
vt 0.594027 0.695933
vt 0.632138 0.682094
vt 0.450982 0.827422
vt 0.666824 0.677393
vt 0.947977 0.598855
vt 0.413283 0.842244
vt 0.916245 0.598471
vt 0.880424 0.583032
vt 0.429988 0.314251
vt 0.850111 0.556676
vt 0.395252 0.316467
vt 0.356229 0.327415
vt 0.323375 0.344162
vt 0.623979 0.962332
vt 0.897035 0.292291
vt 0.861823 0.316031
vt 0.823897 0.317687
vt 0.548457 0.701370
vt 0.790492 0.331361
vt 0.770557 0.353390
vt 0.565013 0.687376
vt 0.595804 0.673633
vt 0.632581 0.663822
vt 0.944486 0.613984
vt 0.665488 0.660572
vt 0.914174 0.614543
vt 0.443345 0.332772
vt 0.879070 0.602577
vt 0.848579 0.581291
vt 0.412368 0.339088
vt 0.377370 0.353593
vt 0.347729 0.372401
vt 0.894107 0.326838
vt 0.864832 0.354718
vt 0.826825 0.355337
vt 0.539382 0.660299
vt 0.793200 0.366179
vt 0.556946 0.650869
vt 0.772964 0.384340
vt 0.588745 0.641688
vt 0.626260 0.635218
vt 0.659438 0.633191
vt 0.934583 0.636948
vt 0.903829 0.638533
vt 0.867516 0.629368
vt 0.835374 0.611909
vt 0.429674 0.371565
vt 0.396840 0.390130
vt 0.368782 0.411910
vt 0.897035 0.364488
vt 0.861627 0.393564
vt 0.825370 0.393082
vt 0.793237 0.400485
vt 0.563121 0.621809
vt 0.773839 0.413792
vt 0.593991 0.617561
vt 0.630159 0.614689
vt 0.661933 0.613963
vt 0.934972 0.655965
vt 0.905348 0.658538
vt 0.869891 0.652703
vt 0.838101 0.640024
vt 0.452765 0.390277
vt 0.424032 0.411606
vt 0.399166 0.435026
vt 0.892293 0.401804
vt 0.857447 0.432403
vt 0.822630 0.430845
vt 0.791807 0.434968
vt 0.570731 0.593083
vt 0.773236 0.443667
vt 0.600530 0.593397
vt 0.635381 0.593857
vt 0.665947 0.594338
vt 0.936966 0.676005
vt 0.908321 0.679560
vt 0.873754 0.676914
vt 0.842525 0.668776
vt 0.477670 0.406815
vt 0.452970 0.430512
vt 0.431206 0.455360
vt 0.886927 0.439225
vt 0.293864 0.872608
vt 0.839884 0.507366
vt 0.284838 0.892869
vt 0.817105 0.504469
vt 0.287530 0.915040
vt 0.797224 0.502075
vt 0.301218 0.933178
vt 0.785568 0.500824
vt 0.606530 0.544536
vt 0.625279 0.551747
vt 0.647592 0.557176
vt 0.667490 0.559370
vt 0.934413 0.709306
vt 0.915574 0.713500
vt 0.369606 0.884948
vt 0.892884 0.716819
vt 0.355918 0.866810
vt 0.872424 0.718373
vt 0.525753 0.434304
vt 0.334902 0.857563
vt 0.515201 0.454079
vt 0.312188 0.859685
vt 0.505050 0.473495
vt 0.859457 0.509989
vt 0.683071 0.531270
vt 0.947977 0.742214
vt 0.369606 0.942977
vt 0.783433 0.006814
vt 0.821746 0.531270
vt 0.782621 0.847809
s 0
f 1/1/1 14/24/1 2/4/1
f 2/4/2 15/25/2 3/6/2
f 3/6/3 16/26/3 4/7/3
f 4/9/4 17/28/4 5/10/4
f 5/10/5 18/29/5 6/11/5
f 6/11/6 19/30/6 7/12/6
f 19/30/7 8/14/7 7/12/7
f 20/31/8 9/15/8 8/13/8
f 21/33/9 10/17/9 9/15/9
f 22/35/10 11/19/10 10/17/10
f 23/37/11 12/20/11 11/18/11
f 24/39/12 1/2/12 12/20/12
f 13/22/13 26/43/13 14/24/13
f 14/24/14 27/44/14 15/25/14
f 15/25/15 28/46/15 16/26/15
f 16/27/16 29/48/16 17/28/16
f 17/28/17 30/49/17 18/29/17
f 18/29/18 31/50/18 19/30/18
f 31/50/19 20/32/19 19/30/19
f 32/51/20 21/33/20 20/31/20
f 33/53/21 22/35/21 21/33/21
f 34/54/22 23/38/22 22/34/22
f 35/56/23 24/40/23 23/38/23
f 36/57/24 13/23/24 24/40/24
f 25/41/25 38/60/25 26/43/25
f 26/43/26 39/61/26 27/44/26
f 27/44/27 40/62/27 28/46/27
f 28/46/28 41/64/28 29/47/28
f 29/48/29 42/65/29 30/49/29
f 30/49/30 43/66/30 31/50/30
f 43/66/31 32/52/31 31/50/31
f 44/67/32 33/53/32 32/51/32
f 45/69/33 34/55/33 33/53/33
f 46/71/34 35/56/34 34/54/34
f 47/72/35 36/57/35 35/56/35
f 48/73/36 25/42/36 36/57/36
f 37/58/37 50/76/37 38/60/37
f 50/76/38 39/61/38 38/60/38
f 51/77/39 40/62/39 39/61/39
f 52/78/40 41/64/40 40/62/40
f 53/80/41 42/65/41 41/63/41
f 54/81/42 43/66/42 42/65/42
f 55/82/43 44/68/43 43/66/43
f 56/83/44 45/69/44 44/67/44
f 45/69/45 58/87/45 46/70/45
f 46/71/46 59/88/46 47/72/46
f 59/88/47 48/73/47 47/72/47
f 60/89/48 37/59/48 48/73/48
f 49/74/49 62/92/49 50/76/49
f 50/76/50 63/93/50 51/77/50
f 51/77/51 64/94/51 52/78/51
f 52/78/52 65/95/52 53/79/52
f 53/80/53 66/97/53 54/81/53
f 54/81/54 67/98/54 55/82/54
f 67/98/55 56/84/55 55/82/55
f 68/99/56 57/85/56 56/83/56
f 69/101/57 58/87/57 57/85/57
f 70/102/58 59/88/58 58/86/58
f 71/104/59 60/89/59 59/88/59
f 72/105/60 49/75/60 60/89/60
f 73/106/61 62/92/61 61/90/61
f 74/108/62 63/93/62 62/92/62
f 63/93/63 76/110/63 64/94/63
f 64/94/64 77/111/64 65/95/64
f 77/112/65 66/97/65 65/96/65
f 66/97/66 79/114/66 67/98/66
f 79/114/67 68/100/67 67/98/67
f 80/115/68 69/101/68 68/99/68
f 81/117/69 70/103/69 69/101/69
f 82/118/70 71/104/70 70/102/70
f 71/104/71 84/121/71 72/105/71
f 72/105/72 73/107/72 61/91/72
f 73/106/73 86/126/73 74/108/73
f 74/108/74 87/127/74 75/109/74
f 75/109/75 88/128/75 76/110/75
f 76/110/76 89/129/76 77/111/76
f 77/112/77 90/131/77 78/113/77
f 78/113/78 91/133/78 79/114/78
f 91/133/79 80/116/79 79/114/79
f 92/135/80 81/117/80 80/115/80
f 93/137/81 82/119/81 81/117/81
f 94/139/82 83/120/82 82/118/82
f 95/140/83 84/121/83 83/120/83
f 96/141/84 73/107/84 84/121/84
f 85/123/85 98/145/85 86/125/85
f 86/126/86 99/147/86 87/127/86
f 99/147/87 88/128/87 87/127/87
f 88/128/88 101/150/88 89/129/88
f 89/130/89 102/152/89 90/131/89
f 102/152/90 91/133/90 90/131/90
f 103/155/91 92/136/91 91/132/91
f 104/156/92 93/137/92 92/135/92
f 105/159/93 94/138/93 93/137/93
f 94/139/94 107/163/94 95/140/94
f 107/163/95 96/141/95 95/140/95
f 108/164/96 85/124/96 96/141/96
f 97/143/97 110/168/97 98/146/97
f 98/146/98 111/170/98 99/147/98
f 99/147/99 112/172/99 100/148/99
f 100/148/100 113/174/100 101/150/100
f 101/150/101 114/175/101 102/151/101
f 102/153/102 115/178/102 103/155/102
f 115/178/103 104/157/103 103/155/103
f 116/180/104 105/160/104 104/157/104
f 117/182/105 106/162/105 105/158/105
f 118/185/106 107/163/106 106/162/106
f 119/186/107 108/164/107 107/163/107
f 120/188/108 97/144/108 108/164/108
f 121/189/109 110/169/109 109/167/109
f 122/191/110 111/171/110 110/169/110
f 123/194/111 112/172/111 111/170/111
f 112/172/112 125/197/112 113/174/112
f 125/196/113 114/176/113 113/173/113
f 114/177/114 127/201/114 115/178/114
f 127/201/115 116/180/115 115/178/115
f 128/202/116 117/183/116 116/179/116
f 129/205/117 118/184/117 117/183/117
f 118/185/118 131/209/118 119/186/118
f 119/186/119 132/211/119 120/188/119
f 132/210/120 109/167/120 120/187/120
f 121/189/121 134/215/121 122/191/121
f 122/192/122 135/216/122 123/194/122
f 123/194/123 136/218/123 124/195/123
f 124/195/124 137/219/124 125/197/124
f 125/197/125 138/221/125 126/198/125
f 126/200/126 139/222/126 127/201/126
f 139/222/127 128/203/127 127/201/127
f 140/223/128 129/206/128 128/203/128
f 141/225/129 130/208/129 129/204/129
f 142/228/130 131/209/130 130/208/130
f 143/229/131 132/211/131 131/209/131
f 144/230/132 121/190/132 132/211/132
f 145/232/133 134/215/133 133/212/133
f 146/233/134 135/217/134 134/215/134
f 147/234/135 136/218/135 135/216/135
f 148/237/136 137/219/136 136/218/136
f 149/238/137 138/221/137 137/219/137
f 150/241/138 139/222/138 138/220/138
f 139/222/139 152/243/139 140/223/139
f 140/223/140 153/245/140 141/224/140
f 141/226/141 154/247/141 142/227/141
f 142/228/142 155/248/142 143/229/142
f 143/229/143 156/250/143 144/230/143
f 144/231/144 145/232/144 133/212/144
f 145/232/145 158/254/145 146/233/145
f 146/233/146 159/256/146 147/235/146
f 147/235/147 160/257/147 148/236/147
f 148/237/148 161/260/148 149/238/148
f 149/239/149 162/263/149 150/241/149
f 150/241/150 163/265/150 151/242/150
f 163/265/151 152/243/151 151/242/151
f 164/266/152 153/245/152 152/243/152
f 165/268/153 154/247/153 153/244/153
f 166/269/154 155/249/154 154/247/154
f 167/270/155 156/252/155 155/249/155
f 168/272/156 145/232/156 156/251/156
f 169/273/157 158/254/157 157/253/157
f 170/274/158 159/256/158 158/254/158
f 171/276/159 160/259/159 159/255/159
f 172/279/160 161/262/160 160/259/160
f 173/280/161 162/264/161 161/262/161
f 174/283/162 163/265/162 162/263/162
f 163/265/163 176/286/163 164/266/163
f 164/266/164 177/287/164 165/267/164
f 165/268/165 178/289/165 166/269/165
f 166/269/166 179/290/166 167/270/166
f 167/270/167 180/292/167 168/271/167
f 168/272/168 169/273/168 157/253/168
f 169/273/169 182/295/169 170/274/169
f 170/274/170 183/297/170 171/275/170
f 171/277/171 184/300/171 172/278/171
f 184/300/172 173/281/172 172/278/172
f 185/303/173 174/284/173 173/281/173
f 186/306/174 175/285/174 174/283/174
f 175/285/175 188/308/175 176/286/175
f 176/286/176 189/309/176 177/287/176
f 177/288/177 190/311/177 178/289/177
f 190/311/178 179/290/178 178/289/178
f 191/312/179 180/292/179 179/290/179
f 192/314/180 169/273/180 180/291/180
f 193/317/181 182/296/181 181/293/181
f 194/318/182 183/299/182 182/296/182
f 195/322/183 184/301/183 183/299/183
f 196/323/184 185/304/184 184/301/184
f 197/326/185 186/306/185 185/302/185
f 198/328/186 187/307/186 186/306/186
f 187/307/187 200/331/187 188/308/187
f 188/308/188 201/332/188 189/309/188
f 189/310/189 202/334/189 190/311/189
f 190/311/190 203/335/190 191/312/190
f 191/312/191 204/337/191 192/313/191
f 192/315/192 193/317/192 181/293/192
f 205/340/193 194/319/193 193/316/193
f 194/319/194 207/343/194 195/320/194
f 207/344/195 196/324/195 195/321/195
f 208/346/196 197/327/196 196/324/196
f 209/348/197 198/329/197 197/327/197
f 210/349/198 199/330/198 198/328/198
f 199/330/199 212/353/199 200/331/199
f 200/331/200 213/354/200 201/332/200
f 201/333/201 214/356/201 202/334/201
f 202/334/202 215/357/202 203/335/202
f 215/357/203 204/337/203 203/335/203
f 204/338/204 205/340/204 193/316/204
f 217/361/205 206/342/205 205/339/205
f 218/364/206 207/345/206 206/342/206
f 219/366/207 208/347/207 207/345/207
f 220/369/208 209/348/208 208/346/208
f 221/370/209 210/350/209 209/348/209
f 222/371/210 211/351/210 210/350/210
f 211/352/211 224/375/211 212/353/211
f 212/353/212 225/376/212 213/354/212
f 213/355/213 226/380/213 214/356/213
f 214/356/214 227/381/214 215/357/214
f 215/357/215 228/383/215 216/358/215
f 216/360/216 217/361/216 205/339/216
f 217/362/217 230/387/217 218/363/217
f 230/387/218 219/367/218 218/363/218
f 231/390/219 220/369/219 219/365/219
f 232/392/220 221/370/220 220/369/220
f 233/394/221 222/371/221 221/370/221
f 234/395/222 223/372/222 222/371/222
f 223/373/223 236/399/223 224/375/223
f 236/400/224 225/378/224 224/374/224
f 225/378/225 238/403/225 226/379/225
f 226/380/226 239/405/226 227/381/226
f 227/381/227 240/406/227 228/383/227
f 240/407/228 217/362/228 228/382/228
f 241/409/229 230/388/229 229/385/229
f 242/410/230 231/391/230 230/388/230
f 243/412/231 232/393/231 231/391/231
f 244/414/232 233/394/232 232/392/232
f 245/415/233 234/395/233 233/394/233
f 246/416/234 235/397/234 234/395/234
f 235/398/235 248/419/235 236/400/235
f 236/400/236 249/421/236 237/401/236
f 237/402/237 250/423/237 238/404/237
f 238/404/238 251/424/238 239/405/238
f 239/405/239 252/425/239 240/406/239
f 240/408/240 241/409/240 229/385/240
f 253/427/241 242/410/241 241/409/241
f 242/410/242 255/430/242 243/412/242
f 255/429/243 244/414/243 243/411/243
f 256/431/244 245/415/244 244/414/244
f 257/433/245 246/416/245 245/415/245
f 258/434/246 247/418/246 246/416/246
f 259/436/247 248/419/247 247/417/247
f 248/419/248 261/438/248 249/421/248
f 249/421/249 262/439/249 250/422/249
f 250/423/250 263/441/250 251/424/250
f 263/441/251 252/425/251 251/424/251
f 252/426/252 253/427/252 241/409/252
f 265/444/253 254/428/253 253/427/253
f 266/445/254 255/430/254 254/428/254
f 267/446/255 256/432/255 255/430/255
f 268/447/256 257/433/256 256/431/256
f 269/449/257 258/434/257 257/433/257
f 270/450/258 259/435/258 258/434/258
f 259/436/259 272/453/259 260/437/259
f 260/437/260 273/454/260 261/438/260
f 261/438/261 274/455/261 262/439/261
f 262/440/262 275/457/262 263/441/262
f 263/441/263 276/458/263 264/442/263
f 264/443/264 265/444/264 253/427/264
f 277/460/265 266/445/265 265/444/265
f 278/461/266 267/446/266 266/445/266
f 279/462/267 268/448/267 267/446/267
f 280/463/268 269/449/268 268/447/268
f 281/465/269 270/450/269 269/449/269
f 282/466/270 271/451/270 270/450/270
f 271/452/271 284/469/271 272/453/271
f 272/453/272 285/470/272 273/454/272
f 273/454/273 286/471/273 274/455/273
f 274/456/274 287/473/274 275/457/274
f 275/457/275 288/474/275 276/458/275
f 276/459/276 277/460/276 265/444/276
f 289/477/277 278/461/277 277/460/277
f 290/479/278 279/462/278 278/461/278
f 291/481/279 280/464/279 279/462/279
f 292/484/280 281/465/280 280/463/280
f 293/485/281 282/466/281 281/465/281
f 294/486/282 283/467/282 282/466/282
f 283/468/283 296/489/283 284/469/283
f 284/469/284 297/491/284 285/470/284
f 285/470/285 298/493/285 286/471/285
f 286/472/286 299/496/286 287/473/286
f 287/473/287 300/498/287 288/474/287
f 288/475/288 289/477/288 277/460/288
f 289/476/289 301/502/289 290/478/289
f 290/478/290 301/502/290 291/480/290
f 291/480/291 301/502/291 292/482/291
f 292/484/292 301/500/292 293/485/292
f 293/485/293 301/500/293 294/486/293
f 294/486/294 301/500/294 295/487/294
f 295/488/295 301/501/295 296/489/295
f 296/489/296 301/501/296 297/491/296
f 297/490/297 301/502/297 298/492/297
f 298/492/298 301/502/298 299/495/298
f 299/495/299 301/502/299 300/497/299
f 300/497/300 301/502/300 289/476/300
f 302/505/301 1/2/301 2/3/301
f 302/505/302 2/3/302 3/5/302
f 302/505/303 3/5/303 4/8/303
f 302/503/304 4/9/304 5/10/304
f 302/503/305 5/10/305 6/11/305
f 302/503/306 6/11/306 7/12/306
f 302/503/307 7/12/307 8/14/307
f 302/504/308 8/13/308 9/15/308
f 302/504/309 9/15/309 10/17/309
f 302/505/310 10/16/310 11/18/310
f 302/505/311 11/18/311 12/20/311
f 302/505/312 12/20/312 1/2/312
f 1/1/313 13/22/313 14/24/313
f 2/4/314 14/24/314 15/25/314
f 3/6/315 15/25/315 16/26/315
f 4/9/316 16/27/316 17/28/316
f 5/10/317 17/28/317 18/29/317
f 6/11/318 18/29/318 19/30/318
f 19/30/319 20/32/319 8/14/319
f 20/31/320 21/33/320 9/15/320
f 21/33/321 22/35/321 10/17/321
f 22/35/322 23/36/322 11/19/322
f 23/37/323 24/39/323 12/20/323
f 24/39/324 13/21/324 1/2/324
f 13/22/325 25/41/325 26/43/325
f 14/24/326 26/43/326 27/44/326
f 15/25/327 27/44/327 28/46/327
f 16/27/328 28/45/328 29/48/328
f 17/28/329 29/48/329 30/49/329
f 18/29/330 30/49/330 31/50/330
f 31/50/331 32/52/331 20/32/331
f 32/51/332 33/53/332 21/33/332
f 33/53/333 34/55/333 22/35/333
f 34/54/334 35/56/334 23/38/334
f 35/56/335 36/57/335 24/40/335
f 36/57/336 25/42/336 13/23/336
f 25/41/337 37/58/337 38/60/337
f 26/43/338 38/60/338 39/61/338
f 27/44/339 39/61/339 40/62/339
f 28/46/340 40/62/340 41/64/340
f 29/48/341 41/63/341 42/65/341
f 30/49/342 42/65/342 43/66/342
f 43/66/343 44/68/343 32/52/343
f 44/67/344 45/69/344 33/53/344
f 45/69/345 46/70/345 34/55/345
f 46/71/346 47/72/346 35/56/346
f 47/72/347 48/73/347 36/57/347
f 48/73/348 37/59/348 25/42/348
f 37/58/37 49/74/37 50/76/37
f 50/76/38 51/77/38 39/61/38
f 51/77/39 52/78/39 40/62/39
f 52/78/40 53/79/40 41/64/40
f 53/80/41 54/81/41 42/65/41
f 54/81/42 55/82/42 43/66/42
f 55/82/43 56/84/43 44/68/43
f 56/83/44 57/85/44 45/69/44
f 45/69/45 57/85/45 58/87/45
f 46/71/46 58/86/46 59/88/46
f 59/88/47 60/89/47 48/73/47
f 60/89/48 49/75/48 37/59/48
f 49/74/349 61/90/349 62/92/349
f 50/76/350 62/92/350 63/93/350
f 51/77/351 63/93/351 64/94/351
f 52/78/352 64/94/352 65/95/352
f 53/80/353 65/96/353 66/97/353
f 54/81/354 66/97/354 67/98/354
f 67/98/355 68/100/355 56/84/355
f 68/99/356 69/101/356 57/85/356
f 69/101/357 70/103/357 58/87/357
f 70/102/358 71/104/358 59/88/358
f 71/104/359 72/105/359 60/89/359
f 72/105/360 61/91/360 49/75/360
f 73/106/61 74/108/61 62/92/61
f 74/108/62 75/109/62 63/93/62
f 63/93/63 75/109/63 76/110/63
f 64/94/64 76/110/64 77/111/64
f 77/112/65 78/113/65 66/97/65
f 66/97/66 78/113/66 79/114/66
f 79/114/67 80/116/67 68/100/67
f 80/115/68 81/117/68 69/101/68
f 81/117/69 82/119/69 70/103/69
f 82/118/70 83/120/70 71/104/70
f 71/104/71 83/120/71 84/121/71
f 72/105/72 84/121/72 73/107/72
f 73/106/361 85/122/361 86/126/361
f 74/108/362 86/126/362 87/127/362
f 75/109/363 87/127/363 88/128/363
f 76/110/364 88/128/364 89/129/364
f 77/112/365 89/130/365 90/131/365
f 78/113/366 90/131/366 91/133/366
f 91/133/367 92/134/367 80/116/367
f 92/135/368 93/137/368 81/117/368
f 93/137/369 94/138/369 82/119/369
f 94/139/370 95/140/370 83/120/370
f 95/140/371 96/141/371 84/121/371
f 96/141/372 85/124/372 73/107/372
f 85/123/85 97/142/85 98/145/85
f 86/126/86 98/146/86 99/147/86
f 99/147/87 100/148/87 88/128/87
f 88/128/88 100/148/88 101/150/88
f 89/130/89 101/149/89 102/152/89
f 102/152/90 103/154/90 91/133/90
f 103/155/91 104/157/91 92/136/91
f 104/156/92 105/159/92 93/137/92
f 105/159/93 106/161/93 94/138/93
f 94/139/94 106/162/94 107/163/94
f 107/163/95 108/164/95 96/141/95
f 108/164/96 97/144/96 85/124/96
f 97/143/373 109/165/373 110/168/373
f 98/146/374 110/168/374 111/170/374
f 99/147/375 111/170/375 112/172/375
f 100/148/376 112/172/376 113/174/376
f 101/150/377 113/174/377 114/175/377
f 102/153/378 114/177/378 115/178/378
f 115/178/379 116/180/379 104/157/379
f 116/180/380 117/181/380 105/160/380
f 117/182/381 118/185/381 106/162/381
f 118/185/382 119/186/382 107/163/382
f 119/186/383 120/188/383 108/164/383
f 120/188/384 109/166/384 97/144/384
f 121/189/109 122/191/109 110/169/109
f 122/191/110 123/193/110 111/171/110
f 123/194/111 124/195/111 112/172/111
f 112/172/112 124/195/112 125/197/112
f 125/196/113 126/199/113 114/176/113
f 114/177/114 126/200/114 127/201/114
f 127/201/115 128/203/115 116/180/115
f 128/202/116 129/205/116 117/183/116
f 129/205/117 130/207/117 118/184/117
f 118/185/118 130/208/118 131/209/118
f 119/186/119 131/209/119 132/211/119
f 132/210/120 121/189/120 109/167/120
f 121/189/385 133/212/385 134/215/385
f 122/192/386 134/214/386 135/216/386
f 123/194/387 135/216/387 136/218/387
f 124/195/388 136/218/388 137/219/388
f 125/197/389 137/219/389 138/221/389
f 126/200/390 138/220/390 139/222/390
f 139/222/391 140/223/391 128/203/391
f 140/223/392 141/224/392 129/206/392
f 141/225/393 142/228/393 130/208/393
f 142/228/394 143/229/394 131/209/394
f 143/229/395 144/230/395 132/211/395
f 144/230/396 133/213/396 121/190/396
f 145/232/397 146/233/397 134/215/397
f 146/233/398 147/235/398 135/217/398
f 147/234/399 148/237/399 136/218/399
f 148/237/400 149/238/400 137/219/400
f 149/238/401 150/240/401 138/221/401
f 150/241/402 151/242/402 139/222/402
f 139/222/403 151/242/403 152/243/403
f 140/223/404 152/243/404 153/245/404
f 141/226/405 153/244/405 154/247/405
f 142/228/406 154/246/406 155/248/406
f 143/229/407 155/248/407 156/250/407
f 144/231/408 156/251/408 145/232/408
f 145/232/409 157/253/409 158/254/409
f 146/233/410 158/254/410 159/256/410
f 147/235/411 159/256/411 160/257/411
f 148/237/412 160/258/412 161/260/412
f 149/239/413 161/261/413 162/263/413
f 150/241/414 162/263/414 163/265/414
f 163/265/415 164/266/415 152/243/415
f 164/266/416 165/267/416 153/245/416
f 165/268/417 166/269/417 154/247/417
f 166/269/418 167/270/418 155/249/418
f 167/270/419 168/271/419 156/252/419
f 168/272/420 157/253/420 145/232/420
f 169/273/421 170/274/421 158/254/421
f 170/274/422 171/275/422 159/256/422
f 171/276/423 172/279/423 160/259/423
f 172/279/424 173/280/424 161/262/424
f 173/280/425 174/282/425 162/264/425
f 174/283/426 175/285/426 163/265/426
f 163/265/427 175/285/427 176/286/427
f 164/266/428 176/286/428 177/287/428
f 165/268/429 177/288/429 178/289/429
f 166/269/430 178/289/430 179/290/430
f 167/270/431 179/290/431 180/292/431
f 168/272/432 180/291/432 169/273/432
f 169/273/169 181/294/169 182/295/169
f 170/274/170 182/295/170 183/297/170
f 171/277/171 183/298/171 184/300/171
f 184/300/172 185/303/172 173/281/172
f 185/303/173 186/305/173 174/284/173
f 186/306/174 187/307/174 175/285/174
f 175/285/175 187/307/175 188/308/175
f 176/286/176 188/308/176 189/309/176
f 177/288/177 189/310/177 190/311/177
f 190/311/178 191/312/178 179/290/178
f 191/312/179 192/313/179 180/292/179
f 192/314/180 181/294/180 169/273/180
f 193/317/433 194/318/433 182/296/433
f 194/318/434 195/322/434 183/299/434
f 195/322/435 196/323/435 184/301/435
f 196/323/436 197/325/436 185/304/436
f 197/326/437 198/328/437 186/306/437
f 198/328/438 199/330/438 187/307/438
f 187/307/439 199/330/439 200/331/439
f 188/308/440 200/331/440 201/332/440
f 189/310/441 201/333/441 202/334/441
f 190/311/442 202/334/442 203/335/442
f 191/312/443 203/335/443 204/337/443
f 192/315/444 204/336/444 193/317/444
f 205/340/193 206/341/193 194/319/193
f 194/319/194 206/341/194 207/343/194
f 207/344/195 208/346/195 196/324/195
f 208/346/196 209/348/196 197/327/196
f 209/348/197 210/350/197 198/329/197
f 210/349/198 211/352/198 199/330/198
f 199/330/199 211/352/199 212/353/199
f 200/331/200 212/353/200 213/354/200
f 201/333/201 213/355/201 214/356/201
f 202/334/202 214/356/202 215/357/202
f 215/357/203 216/358/203 204/337/203
f 204/338/204 216/359/204 205/340/204
f 217/361/445 218/364/445 206/342/445
f 218/364/446 219/366/446 207/345/446
f 219/366/447 220/368/447 208/347/447
f 220/369/448 221/370/448 209/348/448
f 221/370/449 222/371/449 210/350/449
f 222/371/450 223/372/450 211/351/450
f 211/352/451 223/373/451 224/375/451
f 212/353/452 224/375/452 225/376/452
f 213/355/453 225/377/453 226/380/453
f 214/356/454 226/380/454 227/381/454
f 215/357/455 227/381/455 228/383/455
f 216/360/456 228/384/456 217/361/456
f 217/362/217 229/386/217 230/387/217
f 230/387/218 231/389/218 219/367/218
f 231/390/219 232/392/219 220/369/219
f 232/392/220 233/394/220 221/370/220
f 233/394/221 234/395/221 222/371/221
f 234/395/222 235/397/222 223/372/222
f 223/373/223 235/396/223 236/399/223
f 236/400/224 237/401/224 225/378/224
f 225/378/225 237/401/225 238/403/225
f 226/380/226 238/404/226 239/405/226
f 227/381/227 239/405/227 240/406/227
f 240/407/228 229/386/228 217/362/228
f 241/409/457 242/410/457 230/388/457
f 242/410/458 243/412/458 231/391/458
f 243/412/459 244/413/459 232/393/459
f 244/414/460 245/415/460 233/394/460
f 245/415/461 246/416/461 234/395/461
f 246/416/462 247/418/462 235/397/462
f 235/398/463 247/417/463 248/419/463
f 236/400/464 248/419/464 249/421/464
f 237/402/465 249/420/465 250/423/465
f 238/404/466 250/423/466 251/424/466
f 239/405/467 251/424/467 252/425/467
f 240/408/468 252/426/468 241/409/468
f 253/427/241 254/428/241 242/410/241
f 242/410/242 254/428/242 255/430/242
f 255/429/243 256/431/243 244/414/243
f 256/431/244 257/433/244 245/415/244
f 257/433/245 258/434/245 246/416/245
f 258/434/246 259/435/246 247/418/246
f 259/436/247 260/437/247 248/419/247
f 248/419/248 260/437/248 261/438/248
f 249/421/249 261/438/249 262/439/249
f 250/423/250 262/440/250 263/441/250
f 263/441/251 264/442/251 252/425/251
f 252/426/252 264/443/252 253/427/252
f 265/444/469 266/445/469 254/428/469
f 266/445/470 267/446/470 255/430/470
f 267/446/471 268/448/471 256/432/471
f 268/447/472 269/449/472 257/433/472
f 269/449/473 270/450/473 258/434/473
f 270/450/474 271/451/474 259/435/474
f 259/436/475 271/452/475 272/453/475
f 260/437/476 272/453/476 273/454/476
f 261/438/477 273/454/477 274/455/477
f 262/440/478 274/456/478 275/457/478
f 263/441/479 275/457/479 276/458/479
f 264/443/480 276/459/480 265/444/480
f 277/460/481 278/461/481 266/445/481
f 278/461/482 279/462/482 267/446/482
f 279/462/483 280/464/483 268/448/483
f 280/463/484 281/465/484 269/449/484
f 281/465/485 282/466/485 270/450/485
f 282/466/486 283/467/486 271/451/486
f 271/452/487 283/468/487 284/469/487
f 272/453/488 284/469/488 285/470/488
f 273/454/489 285/470/489 286/471/489
f 274/456/490 286/472/490 287/473/490
f 275/457/491 287/473/491 288/474/491
f 276/459/492 288/475/492 277/460/492
f 289/477/493 290/479/493 278/461/493
f 290/479/494 291/481/494 279/462/494
f 291/481/495 292/483/495 280/464/495
f 292/484/496 293/485/496 281/465/496
f 293/485/497 294/486/497 282/466/497
f 294/486/498 295/487/498 283/467/498
f 283/468/499 295/488/499 296/489/499
f 284/469/500 296/489/500 297/491/500
f 285/470/501 297/491/501 298/493/501
f 286/472/502 298/494/502 299/496/502
f 287/473/503 299/496/503 300/498/503
f 288/475/504 300/499/504 289/477/504
