# Blender 3.3.1
# www.blender.org
o Cube
v -0.147820 0.405436 -0.919490
v -0.147820 0.306662 -0.884034
v 0.918469 0.405436 0.123184
v 0.859397 0.306662 0.123184
v -0.147820 0.306662 0.123184
v -0.147820 0.405436 0.123184
v -0.573904 0.399353 -0.775499
v 0.355789 0.306662 -0.884034
v 0.859397 0.405436 -0.380425
v 0.750862 0.312744 0.549267
v 0.355789 0.405436 -0.884034
v -0.573904 0.312744 -0.775499
v 0.750862 0.399353 0.549267
v 0.859397 0.306662 -0.380425
v -0.147820 0.306662 0.626792
v -0.147820 0.306662 -0.380425
v 0.355789 0.306662 0.123184
v -0.651429 0.306662 0.123184
v -0.147820 0.405436 0.626792
v -0.147820 0.405436 -0.380425
v -0.651429 0.405436 0.123184
v 0.355789 0.405436 0.123184
v 0.355789 0.405436 -0.380425
v -0.651429 0.405436 -0.380425
v -0.651429 0.405436 0.626792
v -0.651429 0.306662 -0.380425
v 0.355789 0.306662 -0.380425
v 0.355789 0.306662 0.626792
v -0.651429 0.306662 0.626792
v 0.355789 0.405436 0.626792
v 0.530068 0.312744 -0.775499
v 0.750862 0.399353 -0.554704
v 0.103984 0.405436 -0.919490
v -0.399625 0.306662 -0.884034
v 0.859397 0.405436 0.374988
v 0.859397 0.306662 -0.128621
v -0.147820 0.306662 0.878597
v -0.147820 0.306662 -0.128621
v 0.607593 0.306662 0.123184
v -0.399625 0.306662 0.123184
v -0.147820 0.405436 0.905529
v -0.147820 0.405436 -0.128621
v -0.903233 0.405436 0.123184
v 0.103984 0.405436 0.123184
v -0.399625 0.405436 -0.884034
v 0.103984 0.306662 -0.884034
v 0.918469 0.405436 -0.128621
v 0.859397 0.306662 0.374988
v 0.530068 0.399353 -0.775499
v 0.750862 0.312744 -0.554704
v -0.147820 0.306662 0.374988
v -0.147820 0.306662 -0.632230
v 0.103984 0.306662 0.123184
v -0.903233 0.306662 0.123184
v -0.147820 0.405436 0.374988
v -0.147820 0.405436 -0.632230
v -0.399625 0.405436 0.123184
v 0.607593 0.405436 0.123184
v 0.355789 0.405436 -0.128621
v 0.355789 0.405436 -0.632230
v 0.103984 0.405436 -0.380425
v 0.607593 0.405436 -0.380425
v -0.651429 0.405436 -0.128621
v -0.651429 0.405436 -0.632230
v -0.903233 0.405436 -0.380425
v -0.399625 0.405436 -0.380425
v -0.573904 0.399353 0.770061
v -0.651429 0.405436 0.374988
v -0.794698 0.399353 0.549267
v -0.399625 0.405436 0.626792
v -0.651429 0.306662 -0.128621
v -0.651429 0.306662 -0.632230
v -0.399625 0.306662 -0.380425
v -0.903233 0.306662 -0.380425
v 0.355789 0.306662 -0.128621
v 0.355789 0.306662 -0.632230
v 0.607593 0.306662 -0.380425
v 0.103984 0.306662 -0.380425
v 0.355789 0.306662 0.878597
v 0.355789 0.306662 0.374988
v 0.607593 0.306662 0.626792
v 0.103984 0.306662 0.626792
v -0.573904 0.312744 0.770061
v -0.651429 0.306662 0.374988
v -0.399625 0.306662 0.626792
v -0.794698 0.312744 0.549267
v 0.355789 0.405436 0.878597
v 0.355789 0.405436 0.374988
v 0.103984 0.405436 0.626792
v 0.607593 0.405436 0.626792
v 0.607593 0.405436 0.374988
v 0.103984 0.405436 0.374988
v 0.103984 0.405436 0.905529
v -0.903233 0.306662 0.374988
v -0.399625 0.306662 0.374988
v -0.399625 0.306662 0.878597
v 0.103984 0.306662 0.374988
v 0.607593 0.306662 0.374988
v 0.530068 0.312744 0.770061
v 0.103984 0.306662 -0.632230
v 0.607593 0.306662 -0.632230
v 0.607593 0.306662 -0.128621
v -0.794698 0.312744 -0.554704
v -0.399625 0.306662 -0.632230
v -0.399625 0.306662 -0.128621
v -0.399625 0.405436 0.374988
v -0.903233 0.405436 0.374988
v -0.399625 0.405436 -0.632230
v -0.794698 0.399353 -0.554704
v -0.903233 0.405436 -0.128621
v 0.607593 0.405436 -0.632230
v 0.103984 0.405436 -0.632230
v 0.103984 0.405436 -0.128621
v 0.607593 0.405436 -0.128621
v -0.399625 0.405436 -0.128621
v -0.399625 0.405436 0.878597
v -0.903233 0.306662 -0.128621
v 0.103984 0.306662 -0.128621
v 0.103984 0.306662 0.878597
v 0.530068 0.399353 0.770061
v 0.000000 0.423652 -0.905595
v 0.000000 -0.003134 -1.000000
v 0.176673 0.423652 -0.888194
v 0.195090 -0.003134 -0.980785
v 0.346556 0.423652 -0.836661
v 0.382683 -0.003134 -0.923880
v 0.503122 0.423652 -0.752975
v 0.555570 -0.003134 -0.831470
v 0.640352 0.423652 -0.640352
v 0.707107 -0.003134 -0.707107
v 0.752975 0.423652 -0.503122
v 0.831470 -0.003134 -0.555570
v 0.836661 0.423652 -0.346556
v 0.923880 -0.003134 -0.382683
v 0.888194 0.423652 -0.176673
v 0.980785 -0.003134 -0.195090
v 0.905595 0.423652 0.000000
v 1.000000 -0.003134 0.000000
v 0.888194 0.423652 0.176673
v 0.980785 -0.003134 0.195090
v 0.836661 0.423652 0.346556
v 0.923880 -0.003134 0.382683
v 0.752975 0.423652 0.503122
v 0.831470 -0.003134 0.555570
v 0.640352 0.423652 0.640352
v 0.707107 -0.003134 0.707107
v 0.503122 0.423652 0.752975
v 0.555570 -0.003134 0.831470
v 0.346556 0.423652 0.836661
v 0.382683 -0.003134 0.923880
v 0.176673 0.423652 0.888194
v 0.195090 -0.003134 0.980785
v 0.000000 0.423652 0.905595
v 0.000000 -0.003134 1.000000
v -0.176673 0.423652 0.888194
v -0.195090 -0.003134 0.980785
v -0.346556 0.423652 0.836661
v -0.382683 -0.003134 0.923880
v -0.503122 0.423652 0.752975
v -0.555570 -0.003134 0.831470
v -0.640352 0.423652 0.640352
v -0.707107 -0.003134 0.707107
v -0.752975 0.423652 0.503122
v -0.831470 -0.003134 0.555570
v -0.836661 0.423652 0.346556
v -0.923880 -0.003134 0.382683
v -0.888194 0.423652 0.176673
v -0.980785 -0.003134 0.195090
v -0.905595 0.423652 0.000000
v -1.000000 -0.003134 0.000000
v -0.888194 0.423652 -0.176673
v -0.980785 -0.003134 -0.195090
v -0.836661 0.423652 -0.346556
v -0.923880 -0.003134 -0.382683
v -0.752975 0.423652 -0.503122
v -0.831470 -0.003134 -0.555570
v -0.640352 0.423652 -0.640352
v -0.707107 -0.003134 -0.707107
v -0.503122 0.423652 -0.752975
v -0.555570 -0.003134 -0.831470
v -0.346556 0.423652 -0.836661
v -0.382683 -0.003134 -0.923880
v -0.176673 0.423652 -0.888194
v -0.195090 -0.003134 -0.980785
v 0.000000 0.423652 -1.000000
v 0.195090 0.423652 -0.980785
v 0.382683 0.423652 -0.923880
v 0.555570 0.423652 -0.831470
v 0.707107 0.423652 -0.707107
v 0.831470 0.423652 -0.555570
v 0.923880 0.423652 -0.382683
v 0.980785 0.423652 -0.195090
v 1.000000 0.423652 0.000000
v 0.980785 0.423652 0.195090
v 0.923880 0.423652 0.382683
v 0.831470 0.423652 0.555570
v 0.707107 0.423652 0.707107
v 0.555570 0.423652 0.831470
v 0.382683 0.423652 0.923880
v 0.195090 0.423652 0.980785
v 0.000000 0.423652 1.000000
v -0.195090 0.423652 0.980785
v -0.382683 0.423652 0.923880
v -0.555570 0.423652 0.831470
v -0.707107 0.423652 0.707107
v -0.831470 0.423652 0.555570
v -0.923880 0.423652 0.382683
v -0.980785 0.423652 0.195090
v -1.000000 0.423652 0.000000
v -0.980785 0.423652 -0.195090
v -0.923880 0.423652 -0.382683
v -0.831470 0.423652 -0.555570
v -0.707107 0.423652 -0.707107
v -0.555570 0.423652 -0.831470
v -0.382683 0.423652 -0.923880
v -0.195090 0.423652 -0.980785
v -0.000000 0.361396 -0.905595
v 0.176673 0.361396 -0.888194
v 0.346556 0.361396 -0.836661
v 0.503122 0.361396 -0.752975
v 0.640352 0.361396 -0.640352
v 0.752975 0.361396 -0.503122
v 0.836661 0.361396 -0.346556
v 0.888194 0.361396 -0.176673
v 0.905595 0.361396 0.000000
v 0.888194 0.361396 0.176673
v 0.836661 0.361396 0.346556
v 0.752975 0.361396 0.503122
v 0.640352 0.361396 0.640352
v 0.503122 0.361396 0.752975
v 0.346556 0.361396 0.836661
v 0.176673 0.361396 0.888194
v -0.000000 0.361396 0.905595
v -0.176673 0.361396 0.888194
v -0.346556 0.361396 0.836661
v -0.503122 0.361396 0.752975
v -0.640352 0.361396 0.640352
v -0.752975 0.361396 0.503122
v -0.836661 0.361396 0.346556
v -0.888194 0.361396 0.176673
v -0.905595 0.361396 0.000000
v -0.888194 0.361396 -0.176673
v -0.836661 0.361396 -0.346556
v -0.752975 0.361396 -0.503122
v -0.640352 0.361396 -0.640352
v -0.503122 0.361396 -0.752975
v -0.346556 0.361396 -0.836661
v -0.176673 0.361396 -0.888194
vn -0.0000 -1.0000 -0.0000
vn -0.0000 1.0000 -0.0000
vn 0.0424 0.9991 -0.0000
vn -0.0424 0.9991 -0.0000
vn -0.0000 0.9994 0.0349
vn -0.0000 -0.9994 0.0349
vn -0.0000 -0.9991 0.0424
vn 0.0424 -0.9991 -0.0000
vn 0.0349 -0.9994 -0.0000
vn -0.0424 -0.9991 -0.0000
vn -0.0349 -0.9994 -0.0000
vn -0.0349 0.9994 -0.0000
vn 0.0349 0.9994 -0.0000
vn -0.0000 0.9991 0.0424
vn -0.5286 -0.0000 0.8488
vn -1.0000 -0.0000 -0.0000
vn 1.0000 -0.0000 -0.0000
vn -0.0000 -0.2631 0.9648
vn 0.5286 -0.0000 0.8488
vn 0.8488 -0.0000 0.5286
vn 0.8582 -0.5133 -0.0000
vn 0.8488 -0.0000 -0.5286
vn -0.0000 -0.0000 1.0000
vn -0.8488 -0.0000 -0.5286
vn -0.8488 -0.0000 0.5286
vn 0.5286 -0.0000 -0.8488
vn -0.0000 -0.3379 -0.9412
vn -0.5286 -0.0000 -0.8488
vn -0.0000 -0.0000 -1.0000
vn 0.0980 -0.0000 -0.9952
vn 0.2903 -0.0000 -0.9569
vn 0.4714 -0.0000 -0.8819
vn 0.6344 -0.0000 -0.7730
vn 0.7730 -0.0000 -0.6344
vn 0.8819 -0.0000 -0.4714
vn 0.9569 -0.0000 -0.2903
vn 0.9952 -0.0000 -0.0980
vn 0.9952 -0.0000 0.0980
vn 0.9569 -0.0000 0.2903
vn 0.8819 -0.0000 0.4714
vn 0.7730 -0.0000 0.6344
vn 0.6344 -0.0000 0.7730
vn 0.4714 -0.0000 0.8819
vn 0.2903 -0.0000 0.9569
vn 0.0980 -0.0000 0.9952
vn -0.0980 -0.0000 0.9952
vn -0.2903 -0.0000 0.9569
vn -0.4714 -0.0000 0.8819
vn -0.6344 -0.0000 0.7730
vn -0.7730 -0.0000 0.6344
vn -0.8819 -0.0000 0.4714
vn -0.9569 -0.0000 0.2903
vn -0.9952 -0.0000 0.0980
vn -0.9952 -0.0000 -0.0980
vn -0.9569 -0.0000 -0.2903
vn -0.8819 -0.0000 -0.4714
vn -0.7730 -0.0000 -0.6344
vn -0.6344 -0.0000 -0.7730
vn -0.4714 -0.0000 -0.8819
vn -0.2903 -0.0000 -0.9569
vn -0.0980 -0.0000 -0.9952
vn -0.0000 0.9994 -0.0349
vn -0.0000 -0.9994 -0.0349
vn -0.0000 -0.9991 -0.0424
vn -0.0000 0.9991 -0.0424
vt 0.564069 0.007495
vt 0.821014 0.007495
vt 0.233018 0.742789
vt 0.375142 0.858660
vt 0.803513 0.013647
vt 0.215517 0.745253
vt 0.868494 0.322657
vt 0.375142 0.192238
vt 0.730405 0.316734
vt 0.553602 0.680199
vt 0.712904 0.318854
vt 0.885992 0.312503
vt 0.553602 0.858660
vt 0.564069 0.192238
vt 0.639563 0.033008
vt 0.949896 0.256310
vt 0.375142 0.769429
vt 0.909300 0.651676
vt 0.330490 0.778737
vt 0.385608 0.103007
vt 0.909300 0.948359
vt 0.851179 0.611291
vt 0.629097 0.699430
vt 0.296922 0.793867
vt 0.924801 0.345845
vt 0.474839 0.013777
vt 0.891799 0.651676
vt 0.312989 0.778737
vt 0.394372 0.934154
vt 0.934551 0.256310
vt 0.940144 0.345845
vt 0.404839 0.267732
vt 0.281576 0.793867
vt 0.891799 0.948359
vt 0.464372 0.680199
vt 0.833681 0.611225
vt 0.642833 0.858660
vt 0.464372 0.858660
vt 0.553602 0.769429
vt 0.553602 0.947890
vt 0.564069 0.281468
vt 0.564069 0.103007
vt 0.653299 0.192238
vt 0.474838 0.192238
vt 0.474838 0.103007
vt 0.653299 0.103007
vt 0.653299 0.281468
vt 0.057484 0.960671
vt 0.104965 0.945475
vt 0.464372 0.947890
vt 0.464372 0.769429
vt 0.642833 0.769429
vt 0.039986 0.960605
vt 0.122465 0.945475
vt 0.642833 0.947890
vt 0.474838 0.281468
vt 0.394372 0.738550
vt 0.972124 0.614012
vt 0.329413 0.742789
vt 0.404839 0.072128
vt 0.908222 0.918556
vt 0.853505 0.007495
vt 0.233018 0.783827
vt 0.519454 0.007495
vt 0.375142 0.903275
vt 0.818691 0.917056
vt 0.933473 0.286680
vt 0.385608 0.236853
vt 0.924290 0.653665
vt 0.280499 0.828002
vt 0.508987 0.680199
vt 0.712904 0.275164
vt 0.918483 0.017122
vt 0.687448 0.858660
vt 0.803513 0.319478
vt 0.745395 0.317571
vt 0.508987 0.858660
vt 0.553602 0.724814
vt 0.553602 0.903275
vt 0.564069 0.330855
vt 0.821014 0.324151
vt 0.762977 0.316607
vt 0.564069 0.147622
vt 0.248008 0.783326
vt 0.697914 0.192238
vt 0.868494 0.007495
vt 0.519454 0.192238
vt 0.608684 0.013777
vt 0.801190 0.917056
vt 0.950974 0.286680
vt 0.375142 0.814045
vt 0.836004 0.013647
vt 0.215517 0.786292
vt 0.900982 0.007495
vt 0.375142 0.147622
vt 0.730405 0.273044
vt 0.598218 0.680199
vt 0.297999 0.828002
vt 0.941790 0.653665
vt 0.956778 0.614012
vt 0.314067 0.742789
vt 0.443959 0.033008
vt 0.433493 0.699430
vt 0.892877 0.918556
vt 0.598218 0.858660
vt 0.419757 0.858660
vt 0.553602 0.814045
vt 0.553602 0.992505
vt 0.885992 0.007561
vt 0.265509 0.783326
vt 0.564069 0.236853
vt 0.564069 0.058392
vt 0.608684 0.192238
vt 0.430223 0.192238
vt 0.474838 0.147622
vt 0.474838 0.058392
vt 0.519454 0.103007
vt 0.430223 0.103007
vt 0.653299 0.147622
vt 0.072474 0.947980
vt 0.653299 0.058392
vt 0.104965 0.742789
vt 0.851179 0.916233
vt 0.697914 0.103007
vt 0.280499 0.778877
vt 0.608684 0.103007
vt 0.639563 0.306852
vt 0.314274 0.793727
vt 0.949896 0.007495
vt 0.653299 0.236853
vt 0.678684 0.267732
vt 0.941155 0.613231
vt 0.608684 0.281468
vt 0.508987 0.947890
vt 0.419757 0.947890
vt 0.122465 0.742789
vt 0.089975 0.947980
vt 0.464372 0.903275
vt 0.297999 0.778877
vt 0.464372 0.992505
vt 0.833681 0.916167
vt 0.508987 0.769429
vt 0.419757 0.769429
vt 0.464372 0.724814
vt 0.464372 0.814045
vt 0.248008 0.824315
vt 0.687448 0.769429
vt 0.909300 0.345845
vt 0.598218 0.769429
vt 0.024996 0.742789
vt 0.642833 0.724814
vt 0.039986 0.742789
vt 0.642833 0.814045
vt 0.329617 0.793727
vt 0.668217 0.934154
vt 0.934551 0.007495
vt 0.598218 0.947890
vt 0.642833 0.903275
vt 0.629097 0.973275
vt 0.925812 0.613231
vt 0.474838 0.326083
vt 0.891799 0.345845
vt 0.265506 0.824315
vt 0.474838 0.236853
vt 0.519454 0.281468
vt 0.430223 0.281468
vt 0.057484 0.742855
vt 0.007495 0.742789
vt 0.430223 0.236853
vt 0.519454 0.236853
vt 0.762977 0.273044
vt 0.519454 0.330855
vt 0.853504 0.324151
vt 0.598218 0.992505
vt 0.924290 0.638675
vt 0.941790 0.940932
vt 0.598218 0.903275
vt 0.687448 0.903275
vt 0.330488 0.828029
vt 0.818691 0.611225
vt 0.598218 0.814045
vt 0.598218 0.724814
vt 0.668217 0.738550
vt 0.248650 0.798316
vt 0.972124 0.345845
vt 0.419757 0.814045
vt 0.419757 0.724814
vt 0.089975 0.742789
vt 0.024996 0.961240
vt 0.508987 0.724814
vt 0.433493 0.973275
vt 0.296922 0.742789
vt 0.892877 0.666666
vt 0.419757 0.903275
vt 0.508987 0.903275
vt 0.608684 0.236853
vt 0.697914 0.236853
vt 0.941788 0.638675
vt 0.924290 0.940932
vt 0.608684 0.058392
vt 0.678684 0.072128
vt 0.281576 0.742789
vt 0.908222 0.666666
vt 0.697914 0.147622
vt 0.248008 0.742789
vt 0.900982 0.304390
vt 0.430223 0.058392
vt 0.072474 0.742789
vt 0.007495 0.961240
vt 0.519454 0.058392
vt 0.519454 0.147622
vt 0.430223 0.147622
vt 0.608684 0.147622
vt 0.608684 0.326083
vt 0.312989 0.828029
vt 0.801190 0.611225
vt 0.508987 0.992505
vt 0.265509 0.742789
vt 0.918483 0.304390
vt 0.508987 0.814045
vt 0.687448 0.814045
vt 0.745395 0.274008
vt 0.836004 0.319478
vt 0.443959 0.306852
vt 0.263994 0.798316
vt 0.956778 0.345845
vt 0.024141 0.535743
vt 0.967915 0.819796
vt 0.007495 0.166457
vt 0.712904 0.064572
vt 0.024141 0.567198
vt 0.967809 0.788566
vt 0.712904 0.097703
vt 0.014271 0.132390
vt 0.030278 0.598048
vt 0.967809 0.757204
vt 0.712904 0.132232
vt 0.027563 0.100301
vt 0.042315 0.627108
vt 0.967915 0.726916
vt 0.712904 0.166832
vt 0.046860 0.071421
vt 0.059790 0.653262
vt 0.968121 0.698866
vt 0.712904 0.200174
vt 0.071421 0.046860
vt 0.082032 0.675504
vt 0.968421 0.674132
vt 0.712904 0.230976
vt 0.100301 0.027563
vt 0.163476 0.742789
vt 0.108186 0.692979
vt 0.968802 0.653665
vt 0.712904 0.258054
vt 0.785115 0.857936
vt 0.132390 0.014271
vt 0.137246 0.705016
vt 0.163476 0.766324
vt 0.785115 0.827430
vt 0.166457 0.007495
vt 0.168096 0.711153
vt 0.163476 0.793479
vt 0.785115 0.794270
vt 0.201190 0.007495
vt 0.199551 0.711153
vt 0.163476 0.823208
vt 0.785115 0.759730
vt 0.235257 0.014271
vt 0.230401 0.705016
vt 0.163476 0.854371
vt 0.785115 0.725139
vt 0.267346 0.027563
vt 0.259461 0.692979
vt 0.163476 0.885769
vt 0.785115 0.691825
vt 0.296226 0.046860
vt 0.285615 0.675504
vt 0.163476 0.916196
vt 0.785115 0.661068
vt 0.320787 0.071421
vt 0.307857 0.653262
vt 0.163476 0.944482
vt 0.785115 0.634051
vt 0.709496 0.345944
vt 0.340084 0.100301
vt 0.137455 0.742789
vt 0.325332 0.627108
vt 0.163476 0.969541
vt 0.709917 0.372319
vt 0.353376 0.132390
vt 0.337369 0.598048
vt 0.137455 0.766894
vt 0.710248 0.402596
vt 0.360152 0.166457
vt 0.343506 0.567198
vt 0.137455 0.794478
vt 0.710476 0.435611
vt 0.360152 0.201190
vt 0.343506 0.535743
vt 0.137455 0.824481
vt 0.710593 0.470097
vt 0.353376 0.235257
vt 0.337369 0.504893
vt 0.137455 0.855750
vt 0.710593 0.504729
vt 0.340084 0.267346
vt 0.325332 0.475833
vt 0.137455 0.887084
vt 0.710476 0.538174
vt 0.320787 0.296226
vt 0.307857 0.449679
vt 0.137455 0.917278
vt 0.710248 0.569148
vt 0.296226 0.320787
vt 0.285615 0.427437
vt 0.137455 0.945172
vt 0.709917 0.596460
vt 0.267346 0.340084
vt 0.189496 0.742789
vt 0.259461 0.409962
vt 0.137455 0.969694
vt 0.709496 0.619061
vt 0.876809 0.596235
vt 0.235257 0.353376
vt 0.230401 0.397925
vt 0.189496 0.770415
vt 0.876809 0.570246
vt 0.201190 0.360152
vt 0.199551 0.391788
vt 0.189496 0.800445
vt 0.876809 0.540261
vt 0.166457 0.360152
vt 0.168096 0.391788
vt 0.189496 0.831724
vt 0.876809 0.507432
vt 0.132390 0.353376
vt 0.137246 0.397925
vt 0.189496 0.863050
vt 0.876809 0.473021
vt 0.100301 0.340084
vt 0.108186 0.409962
vt 0.189496 0.893219
vt 0.876809 0.438349
vt 0.071421 0.320787
vt 0.082032 0.427437
vt 0.189496 0.921072
vt 0.876809 0.404751
vt 0.046860 0.296226
vt 0.968802 0.900998
vt 0.059790 0.449679
vt 0.189496 0.945538
vt 0.876809 0.373516
vt 0.027563 0.267346
vt 0.042315 0.475832
vt 0.968421 0.877114
vt 0.876809 0.345845
vt 0.014271 0.235257
vt 0.712904 0.007495
vt 0.030278 0.504893
vt 0.968121 0.849695
vt 0.007495 0.201190
vt 0.712904 0.034113
vt 0.788523 0.064572
vt 0.007495 0.534104
vt 0.788523 0.097703
vt 0.007495 0.568837
vt 0.788523 0.132232
vt 0.014271 0.602903
vt 0.788523 0.166832
vt 0.027563 0.634993
vt 0.788523 0.200174
vt 0.046860 0.663873
vt 0.788523 0.230976
vt 0.071421 0.688434
vt 0.709496 0.857936
vt 0.788523 0.258054
vt 0.100301 0.707731
vt 0.709496 0.827430
vt 0.132390 0.721023
vt 0.709496 0.794270
vt 0.166457 0.727799
vt 0.709496 0.759730
vt 0.201190 0.727799
vt 0.709496 0.725139
vt 0.235257 0.721023
vt 0.709496 0.691825
vt 0.267346 0.707731
vt 0.709496 0.661068
vt 0.296226 0.688434
vt 0.785104 0.345845
vt 0.709496 0.634051
vt 0.320787 0.663873
vt 0.785525 0.372219
vt 0.340084 0.634993
vt 0.785856 0.402496
vt 0.353376 0.602904
vt 0.786084 0.435512
vt 0.360152 0.568837
vt 0.786200 0.469998
vt 0.360152 0.534104
vt 0.786200 0.504629
vt 0.353376 0.500037
vt 0.786084 0.538074
vt 0.340084 0.467948
vt 0.785856 0.569048
vt 0.320787 0.439068
vt 0.785525 0.596361
vt 0.296226 0.414507
vt 0.801190 0.596235
vt 0.785104 0.618962
vt 0.267346 0.395210
vt 0.801190 0.570246
vt 0.235257 0.381918
vt 0.801190 0.540261
vt 0.201190 0.375142
vt 0.801190 0.507432
vt 0.166457 0.375142
vt 0.801190 0.473021
vt 0.132390 0.381918
vt 0.801190 0.438349
vt 0.100301 0.395210
vt 0.801190 0.404751
vt 0.071421 0.414507
vt 0.801190 0.373516
vt 0.046860 0.439067
vt 0.788523 0.007495
vt 0.801190 0.345845
vt 0.027563 0.467947
vt 0.788523 0.034113
vt 0.014271 0.500037
vt 0.375142 0.489800
vt 0.956886 0.819811
vt 0.375142 0.521254
vt 0.956780 0.788580
vt 0.381278 0.552105
vt 0.956780 0.757219
vt 0.393316 0.581165
vt 0.956886 0.726931
vt 0.410791 0.607319
vt 0.957092 0.698881
vt 0.433033 0.629560
vt 0.957392 0.674147
vt 0.459186 0.647036
vt 0.957773 0.653679
vt 0.174507 0.742789
vt 0.488247 0.659073
vt 0.174507 0.766324
vt 0.519097 0.665209
vt 0.174507 0.793479
vt 0.550551 0.665209
vt 0.174507 0.823208
vt 0.581402 0.659073
vt 0.174507 0.854371
vt 0.610462 0.647036
vt 0.174507 0.885769
vt 0.636616 0.629560
vt 0.174507 0.916196
vt 0.658857 0.607319
vt 0.174507 0.944482
vt 0.676333 0.581165
vt 0.174507 0.969541
vt 0.148486 0.742789
vt 0.688370 0.552105
vt 0.148486 0.766894
vt 0.694506 0.521254
vt 0.148486 0.794478
vt 0.694506 0.489800
vt 0.148486 0.824481
vt 0.688370 0.458949
vt 0.148486 0.855750
vt 0.676333 0.429889
vt 0.148486 0.887084
vt 0.658857 0.403736
vt 0.148486 0.917278
vt 0.636616 0.381494
vt 0.148486 0.945172
vt 0.610462 0.364018
vt 0.200527 0.742789
vt 0.148486 0.969694
vt 0.581402 0.351981
vt 0.200527 0.770415
vt 0.550551 0.345845
vt 0.200527 0.800445
vt 0.519097 0.345845
vt 0.200527 0.831724
vt 0.488247 0.351981
vt 0.200527 0.863050
vt 0.459186 0.364018
vt 0.200527 0.893219
vt 0.433033 0.381494
vt 0.200527 0.921072
vt 0.410791 0.403736
vt 0.200527 0.945538
vt 0.957773 0.901013
vt 0.393316 0.429889
vt 0.957392 0.877128
vt 0.381278 0.458949
vt 0.957092 0.849710
s 0
f 53/107/1 38/77/1 118/220/1
f 57/113/2 42/83/2 115/213/2
f 58/114/2 47/95/2 114/212/2
f 44/87/2 59/115/2 113/211/2
f 61/117/2 60/116/2 112/210/2
f 62/118/3 32/60/3 111/207/3
f 43/85/2 63/119/2 110/204/2
f 109/201/4 24/46/4 64/121/4
f 66/126/2 56/112/2 108/200/2
f 69/131/5 68/130/5 107/197/5
f 70/133/2 55/111/2 106/196/2
f 40/79/1 71/134/1 105/195/1
f 73/138/1 72/135/1 104/194/1
f 39/78/1 75/142/1 102/190/1
f 77/144/1 76/143/1 101/187/1
f 78/145/1 52/106/1 100/186/1
f 81/151/1 80/149/1 98/182/1
f 82/153/1 51/105/1 97/181/1
f 85/158/1 84/157/1 95/177/1
f 89/165/2 88/164/2 92/170/2
f 91/169/5 13/32/5 35/68/5
f 30/56/2 91/169/2 88/164/2
f 88/164/2 58/114/2 22/44/2
f 19/41/2 92/170/2 55/111/2
f 55/111/2 44/87/2 6/14/2
f 41/80/2 89/165/2 19/41/2
f 84/157/6 86/159/6 94/174/6
f 15/37/1 95/177/1 51/105/1
f 95/177/1 18/40/1 40/79/1
f 85/158/7 83/155/7 29/55/7
f 28/52/1 97/181/1 80/149/1
f 97/181/1 5/13/1 53/107/1
f 10/23/6 98/182/6 48/97/6
f 98/182/1 17/39/1 39/78/1
f 99/183/7 28/52/7 81/151/7
f 27/51/1 100/186/1 76/143/1
f 100/186/1 2/4/1 46/91/1
f 50/103/8 77/144/8 101/187/8
f 31/57/9 76/143/9 8/17/9
f 4/10/1 102/190/1 36/71/1
f 102/190/1 27/51/1 77/144/1
f 26/50/10 103/191/10 72/135/10
f 16/38/1 104/194/1 52/106/1
f 104/194/11 12/29/11 34/65/11
f 5/13/1 105/195/1 38/77/1
f 105/195/1 26/50/1 73/138/1
f 25/47/2 106/196/2 68/130/2
f 68/130/2 57/113/2 21/43/2
f 24/46/2 108/200/2 64/121/2
f 7/15/12 108/200/12 45/88/12
f 23/45/2 111/207/2 60/116/2
f 60/116/13 49/102/13 11/26/13
f 20/42/2 112/210/2 56/112/2
f 56/112/2 33/64/2 1/1/2
f 6/14/2 113/211/2 42/83/2
f 42/83/2 61/117/2 20/42/2
f 22/44/2 114/212/2 59/115/2
f 59/115/2 62/118/2 23/45/2
f 21/43/2 115/213/2 63/119/2
f 63/119/2 66/126/2 24/46/2
f 67/127/14 70/133/14 25/47/14
f 18/40/1 117/217/1 71/134/1
f 17/39/1 118/220/1 75/142/1
f 118/220/1 16/38/1 78/145/1
f 119/221/1 15/37/1 82/153/1
f 30/56/14 120/224/14 90/166/14
f 96/179/15 67/128/15 83/154/15
f 12/30/16 67/129/16 7/16/16
f 41/81/17 2/5/17 1/2/17
f 87/162/17 8/18/17 11/27/17
f 41/82/18 119/222/18 93/171/18
f 99/184/19 87/163/19 79/146/19
f 35/70/20 10/24/20 48/98/20
f 47/96/21 4/11/21 36/72/21
f 50/104/22 9/21/22 14/34/22
f 120/226/17 31/58/17 49/100/17
f 93/173/17 46/92/17 33/62/17
f 116/216/17 34/66/17 45/89/17
f 69/132/23 10/25/23 13/31/23
f 43/86/23 4/12/23 3/7/23
f 74/141/23 9/22/23 65/123/23
f 65/125/24 103/192/24 74/139/24
f 110/205/16 54/110/16 43/84/16
f 69/132/25 94/175/25 86/160/25
f 31/59/26 11/28/26 49/101/26
f 46/93/27 1/3/27 33/63/27
f 34/67/28 7/16/28 45/90/28
f 50/104/29 109/203/29 32/61/29
f 36/73/29 110/206/29 47/94/29
f 48/99/29 107/199/29 35/69/29
f 81/152/23 25/48/23 29/53/23
f 25/49/16 72/136/16 29/54/16
f 111/208/29 72/137/29 64/120/29
f 101/189/17 90/168/17 81/150/17
f 186/365/30 122/230/30 185/363/30
f 187/367/31 124/233/31 186/365/31
f 188/369/32 126/237/32 187/367/32
f 189/371/33 128/241/33 188/369/33
f 190/373/34 130/245/34 189/371/34
f 191/376/35 132/249/35 190/373/35
f 192/378/36 134/255/36 191/375/36
f 193/380/37 136/259/37 192/378/37
f 194/382/38 138/263/38 193/380/38
f 195/384/39 140/267/39 194/382/39
f 196/386/40 142/271/40 195/384/40
f 197/388/41 144/275/41 196/386/41
f 198/391/42 146/279/42 197/388/42
f 199/393/43 148/284/43 198/390/43
f 200/395/44 150/289/44 199/393/44
f 201/397/45 152/293/45 200/395/45
f 202/399/46 154/297/46 201/397/46
f 203/401/47 156/301/47 202/399/47
f 204/403/48 158/305/48 203/401/48
f 205/405/49 160/309/49 204/403/49
f 206/407/50 162/313/50 205/405/50
f 207/410/51 164/317/51 206/407/51
f 208/412/52 166/323/52 207/409/52
f 209/414/53 168/327/53 208/412/53
f 210/416/54 170/331/54 209/414/54
f 211/418/55 172/335/55 210/416/55
f 212/420/56 174/339/56 211/418/56
f 213/422/57 176/343/57 212/420/57
f 214/424/58 178/347/58 213/422/58
f 215/427/59 180/352/59 214/424/59
f 154/298/1 170/332/1 122/229/1
f 216/429/60 182/358/60 215/426/60
f 185/363/61 184/362/61 216/429/61
f 225/449/54 139/266/54 137/262/54
f 186/366/2 121/227/2 123/231/2
f 125/235/2 186/366/2 123/231/2
f 188/370/2 125/235/2 127/239/2
f 189/372/2 127/239/2 129/243/2
f 190/374/2 129/243/2 131/247/2
f 191/377/2 131/247/2 133/252/2
f 192/379/2 133/252/2 135/257/2
f 193/381/2 135/257/2 137/261/2
f 194/383/2 137/261/2 139/265/2
f 141/269/2 194/383/2 139/265/2
f 196/387/2 141/269/2 143/273/2
f 197/389/2 143/273/2 145/277/2
f 198/392/2 145/277/2 147/281/2
f 199/394/2 147/281/2 149/287/2
f 200/396/2 149/287/2 151/291/2
f 201/398/2 151/291/2 153/295/2
f 202/400/2 153/295/2 155/299/2
f 157/303/2 202/400/2 155/299/2
f 204/404/2 157/303/2 159/307/2
f 205/406/2 159/307/2 161/311/2
f 206/408/2 161/311/2 163/315/2
f 207/411/2 163/315/2 165/320/2
f 208/413/2 165/320/2 167/325/2
f 209/415/2 167/325/2 169/329/2
f 210/417/2 169/329/2 171/333/2
f 173/337/2 210/417/2 171/333/2
f 212/421/2 173/337/2 175/341/2
f 213/423/2 175/341/2 177/345/2
f 214/425/2 177/345/2 179/350/2
f 215/428/2 179/350/2 181/354/2
f 216/430/2 181/354/2 183/359/2
f 185/364/2 183/359/2 121/227/2
f 234/467/2 226/450/2 218/433/2
f 239/478/36 167/326/36 165/319/36
f 226/451/55 141/270/55 139/266/55
f 240/481/37 169/330/37 167/326/37
f 227/453/56 143/274/56 141/270/56
f 241/483/38 171/334/38 169/330/38
f 228/455/57 145/278/57 143/274/57
f 242/485/39 173/338/39 171/334/39
f 229/457/58 147/282/58 145/278/58
f 243/487/40 175/342/40 173/338/40
f 230/459/59 149/288/59 147/282/59
f 217/432/46 123/232/46 121/228/46
f 244/489/41 177/346/41 175/342/41
f 231/462/60 151/292/60 149/286/60
f 218/434/47 125/236/47 123/232/47
f 245/491/42 179/351/42 177/346/42
f 232/464/61 153/296/61 151/292/61
f 219/436/48 127/240/48 125/236/48
f 246/494/43 181/355/43 179/349/43
f 233/466/30 155/300/30 153/296/30
f 220/438/49 129/244/49 127/240/49
f 247/496/44 183/360/44 181/355/44
f 234/468/31 157/304/31 155/300/31
f 221/440/50 131/248/50 129/244/50
f 248/498/45 121/228/45 183/360/45
f 235/470/32 159/308/32 157/304/32
f 222/442/51 133/253/51 131/248/51
f 236/472/33 161/312/33 159/308/33
f 223/445/52 135/258/52 133/251/52
f 237/474/34 163/316/34 161/312/34
f 224/447/53 137/262/53 135/258/53
f 238/476/35 165/321/35 163/316/35
f 53/107/1 5/13/1 38/77/1
f 57/113/2 6/14/2 42/83/2
f 58/114/2 3/8/2 47/95/2
f 44/87/2 22/44/2 59/115/2
f 61/117/2 23/45/2 60/116/2
f 62/118/62 9/20/62 32/60/62
f 43/85/2 21/43/2 63/119/2
f 109/201/62 65/124/62 24/46/62
f 66/126/2 20/42/2 56/112/2
f 69/131/4 25/47/4 68/130/4
f 70/133/2 19/41/2 55/111/2
f 40/79/1 18/40/1 71/134/1
f 73/138/1 26/50/1 72/135/1
f 39/78/1 17/39/1 75/142/1
f 77/144/1 27/51/1 76/143/1
f 78/145/1 16/38/1 52/106/1
f 81/151/1 28/52/1 80/149/1
f 82/153/1 15/37/1 51/105/1
f 85/158/1 29/55/1 84/157/1
f 89/165/2 30/56/2 88/164/2
f 91/169/3 90/166/3 13/32/3
f 30/56/2 90/166/2 91/169/2
f 88/164/2 91/169/2 58/114/2
f 19/41/2 89/165/2 92/170/2
f 55/111/2 92/170/2 44/87/2
f 41/80/2 93/172/2 89/165/2
f 84/157/10 29/55/10 86/159/10
f 15/37/1 85/158/1 95/177/1
f 95/177/1 84/157/1 18/40/1
f 85/158/11 96/178/11 83/155/11
f 28/52/1 82/153/1 97/181/1
f 97/181/1 51/105/1 5/13/1
f 10/23/8 81/151/8 98/182/8
f 98/182/1 80/149/1 17/39/1
f 99/183/9 79/147/9 28/52/9
f 27/51/1 78/145/1 100/186/1
f 100/186/1 52/106/1 2/4/1
f 50/103/63 14/35/63 77/144/63
f 31/57/64 101/187/64 76/143/64
f 4/10/1 39/78/1 102/190/1
f 102/190/1 75/142/1 27/51/1
f 26/50/63 74/140/63 103/191/63
f 16/38/1 73/138/1 104/194/1
f 104/194/64 72/135/64 12/29/64
f 5/13/1 40/79/1 105/195/1
f 105/195/1 71/134/1 26/50/1
f 25/47/2 70/133/2 106/196/2
f 68/130/2 106/196/2 57/113/2
f 24/46/2 66/126/2 108/200/2
f 7/15/65 64/121/65 108/200/65
f 23/45/2 62/118/2 111/207/2
f 60/116/65 111/207/65 49/102/65
f 20/42/2 61/117/2 112/210/2
f 56/112/2 112/210/2 33/64/2
f 6/14/2 44/87/2 113/211/2
f 42/83/2 113/211/2 61/117/2
f 22/44/2 58/114/2 114/212/2
f 59/115/2 114/212/2 62/118/2
f 21/43/2 57/113/2 115/213/2
f 63/119/2 115/213/2 66/126/2
f 67/127/12 116/214/12 70/133/12
f 18/40/1 54/108/1 117/217/1
f 17/39/1 53/107/1 118/220/1
f 118/220/1 38/77/1 16/38/1
f 119/221/1 37/74/1 15/37/1
f 30/56/13 87/161/13 120/224/13
f 96/179/15 116/215/15 67/128/15
f 12/30/16 83/156/16 67/129/16
f 41/81/17 37/75/17 2/5/17
f 87/162/17 79/148/17 8/18/17
f 41/82/18 37/76/18 119/222/18
f 99/184/19 120/225/19 87/163/19
f 35/70/20 13/33/20 10/24/20
f 47/96/21 3/9/21 4/11/21
f 50/104/22 32/61/22 9/21/22
f 120/226/17 99/185/17 31/58/17
f 93/173/17 119/223/17 46/92/17
f 116/216/17 96/180/17 34/66/17
f 69/132/23 86/160/23 10/25/23
f 43/86/23 54/109/23 4/12/23
f 74/141/23 14/36/23 9/22/23
f 65/125/24 109/202/24 103/192/24
f 110/205/16 117/218/16 54/110/16
f 69/132/25 107/198/25 94/175/25
f 31/59/26 8/19/26 11/28/26
f 46/93/27 2/6/27 1/3/27
f 34/67/28 12/30/28 7/16/28
f 50/104/29 103/193/29 109/203/29
f 36/73/29 117/219/29 110/206/29
f 48/99/29 94/176/29 107/199/29
f 81/152/23 90/167/23 25/48/23
f 25/49/16 64/122/16 72/136/16
f 111/208/29 101/188/29 72/137/29
f 101/189/17 111/209/17 90/168/17
f 186/365/30 124/233/30 122/230/30
f 187/367/31 126/237/31 124/233/31
f 188/369/32 128/241/32 126/237/32
f 189/371/33 130/245/33 128/241/33
f 190/373/34 132/249/34 130/245/34
f 191/376/35 134/254/35 132/249/35
f 192/378/36 136/259/36 134/255/36
f 193/380/37 138/263/37 136/259/37
f 194/382/38 140/267/38 138/263/38
f 195/384/39 142/271/39 140/267/39
f 196/386/40 144/275/40 142/271/40
f 197/388/41 146/279/41 144/275/41
f 198/391/42 148/283/42 146/279/42
f 199/393/43 150/289/43 148/284/43
f 200/395/44 152/293/44 150/289/44
f 201/397/45 154/297/45 152/293/45
f 202/399/46 156/301/46 154/297/46
f 203/401/47 158/305/47 156/301/47
f 204/403/48 160/309/48 158/305/48
f 205/405/49 162/313/49 160/309/49
f 206/407/50 164/317/50 162/313/50
f 207/410/51 166/322/51 164/317/51
f 208/412/52 168/327/52 166/323/52
f 209/414/53 170/331/53 168/327/53
f 210/416/54 172/335/54 170/331/54
f 211/418/55 174/339/55 172/335/55
f 212/420/56 176/343/56 174/339/56
f 213/422/57 178/347/57 176/343/57
f 214/424/58 180/352/58 178/347/58
f 215/427/59 182/356/59 180/352/59
f 122/229/1 124/234/1 126/238/1
f 126/238/1 128/242/1 130/246/1
f 130/246/1 132/250/1 134/256/1
f 134/256/1 136/260/1 138/264/1
f 138/264/1 140/268/1 142/272/1
f 142/272/1 144/276/1 146/280/1
f 146/280/1 148/285/1 150/290/1
f 150/290/1 152/294/1 154/298/1
f 154/298/1 156/302/1 158/306/1
f 158/306/1 160/310/1 162/314/1
f 162/314/1 164/318/1 166/324/1
f 166/324/1 168/328/1 170/332/1
f 170/332/1 172/336/1 174/340/1
f 174/340/1 176/344/1 178/348/1
f 178/348/1 180/353/1 182/357/1
f 182/357/1 184/361/1 122/229/1
f 122/229/1 126/238/1 130/246/1
f 130/246/1 134/256/1 138/264/1
f 138/264/1 142/272/1 146/280/1
f 146/280/1 150/290/1 154/298/1
f 154/298/1 158/306/1 162/314/1
f 162/314/1 166/324/1 170/332/1
f 170/332/1 174/340/1 178/348/1
f 178/348/1 182/357/1 122/229/1
f 122/229/1 130/246/1 138/264/1
f 138/264/1 146/280/1 154/298/1
f 154/298/1 162/314/1 170/332/1
f 170/332/1 178/348/1 122/229/1
f 122/229/1 138/264/1 154/298/1
f 216/429/60 184/362/60 182/358/60
f 185/363/61 122/230/61 184/362/61
f 225/449/54 226/451/54 139/266/54
f 186/366/2 185/364/2 121/227/2
f 125/235/2 187/368/2 186/366/2
f 188/370/2 187/368/2 125/235/2
f 189/372/2 188/370/2 127/239/2
f 190/374/2 189/372/2 129/243/2
f 191/377/2 190/374/2 131/247/2
f 192/379/2 191/377/2 133/252/2
f 193/381/2 192/379/2 135/257/2
f 194/383/2 193/381/2 137/261/2
f 141/269/2 195/385/2 194/383/2
f 196/387/2 195/385/2 141/269/2
f 197/389/2 196/387/2 143/273/2
f 198/392/2 197/389/2 145/277/2
f 199/394/2 198/392/2 147/281/2
f 200/396/2 199/394/2 149/287/2
f 201/398/2 200/396/2 151/291/2
f 202/400/2 201/398/2 153/295/2
f 157/303/2 203/402/2 202/400/2
f 204/404/2 203/402/2 157/303/2
f 205/406/2 204/404/2 159/307/2
f 206/408/2 205/406/2 161/311/2
f 207/411/2 206/408/2 163/315/2
f 208/413/2 207/411/2 165/320/2
f 209/415/2 208/413/2 167/325/2
f 210/417/2 209/415/2 169/329/2
f 173/337/2 211/419/2 210/417/2
f 212/421/2 211/419/2 173/337/2
f 213/423/2 212/421/2 175/341/2
f 214/425/2 213/423/2 177/345/2
f 215/428/2 214/425/2 179/350/2
f 216/430/2 215/428/2 181/354/2
f 185/364/2 216/430/2 183/359/2
f 218/433/2 217/431/2 248/497/2
f 248/497/2 247/495/2 246/492/2
f 246/492/2 245/490/2 244/488/2
f 244/488/2 243/486/2 242/484/2
f 242/484/2 241/482/2 240/480/2
f 240/480/2 239/477/2 238/475/2
f 238/475/2 237/473/2 236/471/2
f 236/471/2 235/469/2 234/467/2
f 234/467/2 233/465/2 232/463/2
f 232/463/2 231/460/2 230/458/2
f 230/458/2 229/456/2 228/454/2
f 228/454/2 227/452/2 226/450/2
f 226/450/2 225/448/2 224/446/2
f 224/446/2 223/443/2 222/441/2
f 222/441/2 221/439/2 220/437/2
f 220/437/2 219/435/2 218/433/2
f 218/433/2 248/497/2 246/492/2
f 246/492/2 244/488/2 242/484/2
f 242/484/2 240/480/2 238/475/2
f 238/475/2 236/471/2 234/467/2
f 234/467/2 232/463/2 230/458/2
f 230/458/2 228/454/2 226/450/2
f 226/450/2 224/446/2 222/441/2
f 222/441/2 220/437/2 218/433/2
f 218/433/2 246/492/2 242/484/2
f 242/484/2 238/475/2 234/467/2
f 234/467/2 230/458/2 226/450/2
f 226/450/2 222/441/2 218/433/2
f 218/433/2 242/484/2 234/467/2
f 239/478/36 240/481/36 167/326/36
f 226/451/55 227/453/55 141/270/55
f 240/481/37 241/483/37 169/330/37
f 227/453/56 228/455/56 143/274/56
f 241/483/38 242/485/38 171/334/38
f 228/455/57 229/457/57 145/278/57
f 242/485/39 243/487/39 173/338/39
f 229/457/58 230/459/58 147/282/58
f 243/487/40 244/489/40 175/342/40
f 230/459/59 231/461/59 149/288/59
f 217/432/46 218/434/46 123/232/46
f 244/489/41 245/491/41 177/346/41
f 231/462/60 232/464/60 151/292/60
f 218/434/47 219/436/47 125/236/47
f 245/491/42 246/493/42 179/351/42
f 232/464/61 233/466/61 153/296/61
f 219/436/48 220/438/48 127/240/48
f 246/494/43 247/496/43 181/355/43
f 233/466/30 234/468/30 155/300/30
f 220/438/49 221/440/49 129/244/49
f 247/496/44 248/498/44 183/360/44
f 234/468/31 235/470/31 157/304/31
f 221/440/50 222/442/50 131/248/50
f 248/498/45 217/432/45 121/228/45
f 235/470/32 236/472/32 159/308/32
f 222/442/51 223/444/51 133/253/51
f 236/472/33 237/474/33 161/312/33
f 223/445/52 224/447/52 135/258/52
f 237/474/34 238/476/34 163/316/34
f 224/447/53 225/449/53 137/262/53
f 238/476/35 239/479/35 165/321/35
