# Blender 3.3.1
# www.blender.org
o plate
v -0.000000 0.106348 -0.915848
v -0.000000 0.610825 -2.241350
v 0.178673 0.106348 -0.898251
v 0.437266 0.610825 -2.198283
v 0.350480 0.106348 -0.846134
v 0.857728 0.610825 -2.070737
v 0.508818 0.106348 -0.761500
v 1.245227 0.610825 -1.863614
v 0.647602 0.106348 -0.647603
v 1.584874 0.610825 -1.584874
v 0.761500 0.106348 -0.508818
v 1.863614 0.610825 -1.245227
v 0.846134 0.106348 -0.350480
v 2.070737 0.610825 -0.857727
v 0.898250 0.106348 -0.178673
v 2.198283 0.610825 -0.437266
v 0.915848 0.106348 0.000000
v 2.241350 0.610825 -0.000000
v 0.898250 0.106348 0.178673
v 2.198283 0.610825 0.437266
v 0.846134 0.106348 0.350480
v 2.070737 0.610825 0.857728
v 0.761500 0.106348 0.508818
v 1.863614 0.610825 1.245227
v 0.647602 0.106348 0.647603
v 1.584874 0.610825 1.584874
v 0.508818 0.106348 0.761500
v 1.245227 0.610825 1.863614
v 0.350480 0.106348 0.846134
v 0.857727 0.610825 2.070737
v 0.178673 0.106348 0.898251
v 0.437266 0.610825 2.198283
v -0.000000 0.106348 0.915848
v 0.000000 0.610825 2.241350
v -0.178673 0.106348 0.898251
v -0.437266 0.610825 2.198283
v -0.350480 0.106348 0.846134
v -0.857728 0.610825 2.070737
v -0.508818 0.106348 0.761500
v -1.245227 0.610825 1.863614
v -0.647603 0.106348 0.647602
v -1.584874 0.610825 1.584874
v -0.761500 0.106348 0.508818
v -1.863614 0.610825 1.245227
v -0.846134 0.106348 0.350480
v -2.070737 0.610825 0.857727
v -0.898251 0.106348 0.178673
v -2.198283 0.610825 0.437266
v -0.915849 0.106348 0.000000
v -2.241350 0.610825 0.000000
v -0.898251 0.106348 -0.178673
v -2.198283 0.610825 -0.437266
v -0.846134 0.106348 -0.350480
v -2.070737 0.610825 -0.857728
v -0.761500 0.106348 -0.508818
v -1.863614 0.610825 -1.245227
v -0.647603 0.106348 -0.647602
v -1.584874 0.610825 -1.584874
v -0.508818 0.106348 -0.761500
v -1.245227 0.610825 -1.863614
v -0.350480 0.106348 -0.846134
v -0.857728 0.610825 -2.070737
v -0.178673 0.106348 -0.898251
v -0.437266 0.610825 -2.198283
v 0.000000 0.636901 -3.445585
v 0.672200 0.636901 -3.379379
v 1.318568 0.636901 -3.183306
v 1.914265 0.636901 -2.864899
v 2.436397 0.636901 -2.436397
v 2.864899 0.636901 -1.914265
v 3.183306 0.636901 -1.318568
v 3.379379 0.636901 -0.672200
v 3.445585 0.636901 0.000000
v 3.379379 0.636901 0.672200
v 3.183306 0.636901 1.318568
v 2.864899 0.636901 1.914265
v 2.436397 0.636901 2.436397
v 1.914265 0.636901 2.864899
v 1.318568 0.636901 3.183306
v 0.672200 0.636901 3.379379
v 0.000000 0.636901 3.445585
v -0.672200 0.636901 3.379379
v -1.318568 0.636901 3.183306
v -1.914265 0.636901 2.864899
v -2.436397 0.636901 2.436397
v -2.864899 0.636901 1.914265
v -3.183306 0.636901 1.318568
v -3.379379 0.636901 0.672200
v -3.445585 0.636901 0.000000
v -3.379379 0.636901 -0.672200
v -3.183306 0.636901 -1.318568
v -2.864899 0.636901 -1.914265
v -2.436397 0.636901 -2.436397
v -1.914265 0.636901 -2.864899
v -1.318568 0.636901 -3.183306
v -0.672200 0.636901 -3.379379
v -0.000000 0.005542 -1.484205
v 0.289554 0.005542 -1.455686
v 0.567981 0.005542 -1.371227
v 0.824580 0.005542 -1.234071
v 1.049491 0.005542 -1.049491
v 1.234071 0.005542 -0.824580
v 1.371227 0.005542 -0.567981
v 1.455686 0.005542 -0.289554
v 1.484205 0.005542 0.000000
v 1.455686 0.005542 0.289554
v 1.371227 0.005542 0.567981
v 1.234071 0.005542 0.824580
v 1.049491 0.005542 1.049491
v 0.824580 0.005542 1.234071
v 0.567981 0.005542 1.371227
v 0.289554 0.005542 1.455686
v -0.000000 0.005542 1.484205
v -0.289554 0.005542 1.455686
v -0.567981 0.005542 1.371227
v -0.824580 0.005542 1.234071
v -1.049492 0.005542 1.049491
v -1.234071 0.005542 0.824580
v -1.371227 0.005542 0.567981
v -1.455686 0.005542 0.289554
v -1.484205 0.005542 0.000000
v -1.455686 0.005542 -0.289554
v -1.371227 0.005542 -0.567981
v -1.234071 0.005542 -0.824580
v -1.049492 0.005542 -1.049491
v -0.824580 0.005542 -1.234071
v -0.567981 0.005542 -1.371227
v -0.289554 0.005542 -1.455686
v -0.000000 0.005542 -1.169241
v 0.228108 0.005542 -1.146774
v 0.447449 0.005542 -1.080238
v 0.649595 0.005542 -0.972189
v 0.826778 0.005542 -0.826778
v 0.972188 0.005542 -0.649596
v 1.080238 0.005542 -0.447449
v 1.146774 0.005542 -0.228108
v 1.169241 0.005542 0.000000
v 1.146774 0.005542 0.228108
v 1.080238 0.005542 0.447449
v 0.972188 0.005542 0.649596
v 0.826778 0.005542 0.826778
v 0.649595 0.005542 0.972189
v 0.447449 0.005542 1.080238
v 0.228108 0.005542 1.146774
v -0.000000 0.005542 1.169241
v -0.228108 0.005542 1.146774
v -0.447449 0.005542 1.080238
v -0.649596 0.005542 0.972189
v -0.826778 0.005542 0.826778
v -0.972189 0.005542 0.649596
v -1.080238 0.005542 0.447449
v -1.146775 0.005542 0.228108
v -1.169241 0.005542 0.000000
v -1.146775 0.005542 -0.228108
v -1.080238 0.005542 -0.447449
v -0.972189 0.005542 -0.649596
v -0.826778 0.005542 -0.826778
v -0.649596 0.005542 -0.972189
v -0.447449 0.005542 -1.080238
v -0.228108 0.005542 -1.146774
v 0.440447 0.337772 -2.214275
v 0.863967 0.337772 -2.085801
v 1.254286 0.337772 -1.877171
v 1.596403 0.337772 -1.596403
v 1.877171 0.337772 -1.254286
v 2.085801 0.337772 -0.863967
v 2.214275 0.337772 -0.440447
v 2.257655 0.337772 0.000000
v 2.214275 0.337772 0.440447
v 2.085801 0.337772 0.863967
v 1.877171 0.337772 1.254286
v 1.596403 0.337772 1.596403
v 1.254286 0.337772 1.877171
v 0.863967 0.337772 2.085801
v 0.440447 0.337772 2.214275
v -0.000000 0.337772 2.257655
v -0.440447 0.337772 2.214275
v -0.863967 0.337772 2.085801
v -1.254286 0.337772 1.877171
v -1.596403 0.337772 1.596403
v -1.877171 0.337772 1.254286
v -2.085801 0.337772 0.863967
v -2.214275 0.337772 0.440447
v -2.257655 0.337772 0.000000
v -2.214275 0.337772 -0.440447
v -2.085801 0.337772 -0.863967
v -1.877171 0.337772 -1.254286
v -1.596403 0.337772 -1.596403
v -1.254286 0.337772 -1.877171
v -0.863967 0.337772 -2.085801
v -0.440447 0.337772 -2.214275
v -0.000000 0.337772 -2.257655
v 0.696436 0.876321 -3.501219
v 0.000000 0.876321 -3.569812
v 1.366108 0.876321 -3.298076
v 1.983281 0.876321 -2.968190
v 2.524238 0.876321 -2.524238
v 2.968190 0.876321 -1.983281
v 3.298076 0.876321 -1.366108
v 3.501219 0.876321 -0.696436
v 3.569812 0.876321 -0.000000
v 3.501219 0.876321 0.696436
v 3.298076 0.876321 1.366108
v 2.968190 0.876321 1.983281
v 2.524238 0.876321 2.524238
v 1.983281 0.876321 2.968190
v 1.366108 0.876321 3.298076
v 0.696436 0.876321 3.501219
v 0.000000 0.876321 3.569812
v -0.696436 0.876321 3.501219
v -1.366108 0.876321 3.298076
v -1.983281 0.876321 2.968190
v -2.524238 0.876321 2.524238
v -2.968190 0.876321 1.983281
v -3.298076 0.876321 1.366108
v -3.501219 0.876321 0.696436
v -3.569812 0.876321 -0.000000
v -3.501219 0.876321 -0.696436
v -3.298076 0.876321 -1.366108
v -2.968190 0.876321 -1.983281
v -2.524238 0.876321 -2.524238
v -1.983281 0.876321 -2.968190
v -1.366108 0.876321 -3.298076
v -0.696436 0.876321 -3.501219
v 0.666566 0.876321 -3.351052
v 0.000000 0.876321 -3.416703
v 1.307516 0.876321 -3.156622
v 1.898218 0.876321 -2.840885
v 2.415974 0.876321 -2.415974
v 2.840885 0.876321 -1.898218
v 3.156622 0.876321 -1.307516
v 3.351052 0.876321 -0.666566
v 3.416703 0.876321 -0.000000
v 3.351052 0.876321 0.666566
v 3.156622 0.876321 1.307516
v 2.840885 0.876321 1.898218
v 2.415974 0.876321 2.415974
v 1.898218 0.876321 2.840885
v 1.307516 0.876321 3.156622
v 0.666566 0.876321 3.351052
v 0.000000 0.876321 3.416703
v -0.666566 0.876321 3.351052
v -1.307516 0.876321 3.156622
v -1.898218 0.876321 2.840885
v -2.415974 0.876321 2.415974
v -2.840885 0.876321 1.898218
v -3.156622 0.876321 1.307516
v -3.351052 0.876321 0.666566
v -3.416703 0.876321 -0.000000
v -3.351052 0.876321 -0.666566
v -3.156622 0.876321 -1.307516
v -2.840885 0.876321 -1.898218
v -2.415974 0.876321 -2.415974
v -1.898218 0.876321 -2.840885
v -1.307516 0.876321 -3.156622
v -0.666566 0.876321 -3.351052
v 0.558947 0.680319 -2.810015
v 0.000000 0.680319 -2.865067
v 1.096414 0.680319 -2.646976
v 1.591746 0.680319 -2.382216
v 2.025908 0.680319 -2.025908
v 2.382216 0.680319 -1.591746
v 2.646976 0.680319 -1.096414
v 2.810015 0.680319 -0.558947
v 2.865067 0.680319 -0.000000
v 2.810015 0.680319 0.558947
v 2.646976 0.680319 1.096414
v 2.382216 0.680319 1.591746
v 2.025908 0.680319 2.025908
v 1.591746 0.680319 2.382216
v 1.096414 0.680319 2.646976
v 0.558947 0.680319 2.810015
v 0.000000 0.680319 2.865067
v -0.558947 0.680319 2.810015
v -1.096414 0.680319 2.646976
v -1.591746 0.680319 2.382216
v -2.025908 0.680319 2.025908
v -2.382216 0.680319 1.591746
v -2.646976 0.680319 1.096414
v -2.810015 0.680319 0.558947
v -2.865067 0.680319 -0.000000
v -2.810015 0.680319 -0.558947
v -2.646976 0.680319 -1.096414
v -2.382216 0.680319 -1.591746
v -2.025908 0.680319 -2.025908
v -1.591746 0.680319 -2.382216
v -1.096414 0.680319 -2.646976
v -0.558947 0.680319 -2.810015
vn 0.0871 -0.4588 -0.8843
vn 0.2579 -0.4588 -0.8503
vn 0.4189 -0.4588 -0.7836
vn 0.5637 -0.4588 -0.6868
vn 0.6868 -0.4588 -0.5637
vn 0.7836 -0.4588 -0.4189
vn 0.8503 -0.4588 -0.2579
vn 0.8843 -0.4588 -0.0871
vn 0.8843 -0.4588 0.0871
vn 0.8503 -0.4588 0.2579
vn 0.7836 -0.4588 0.4189
vn 0.6868 -0.4588 0.5637
vn 0.5637 -0.4588 0.6868
vn 0.4189 -0.4588 0.7836
vn 0.2579 -0.4588 0.8503
vn 0.0871 -0.4588 0.8843
vn -0.0871 -0.4588 0.8843
vn -0.2579 -0.4588 0.8503
vn -0.4189 -0.4588 0.7836
vn -0.5637 -0.4588 0.6868
vn -0.6868 -0.4588 0.5637
vn -0.7836 -0.4588 0.4189
vn -0.8503 -0.4588 0.2579
vn -0.8843 -0.4588 0.0871
vn -0.8843 -0.4588 -0.0871
vn -0.8503 -0.4588 -0.2579
vn -0.7836 -0.4588 -0.4189
vn -0.6868 -0.4588 -0.5637
vn -0.5637 -0.4588 -0.6868
vn -0.4189 -0.4588 -0.7836
vn -0.0000 1.0000 -0.0000
vn -0.2579 -0.4588 -0.8503
vn -0.0871 -0.4588 -0.8843
vn -0.0000 -1.0000 -0.0000
vn -0.0240 -0.9694 -0.2441
vn -0.0712 -0.9694 -0.2347
vn -0.1156 -0.9694 -0.2163
vn -0.1556 -0.9694 -0.1896
vn -0.1896 -0.9694 -0.1556
vn -0.2163 -0.9694 -0.1156
vn -0.2347 -0.9694 -0.0712
vn -0.2441 -0.9694 -0.0240
vn -0.2441 -0.9694 0.0240
vn -0.2347 -0.9694 0.0712
vn -0.2163 -0.9694 0.1156
vn -0.1896 -0.9694 0.1556
vn -0.1556 -0.9694 0.1896
vn -0.1156 -0.9694 0.2163
vn -0.0712 -0.9694 0.2347
vn -0.0240 -0.9694 0.2441
vn 0.0240 -0.9694 0.2441
vn 0.0712 -0.9694 0.2347
vn 0.1156 -0.9694 0.2163
vn 0.1556 -0.9694 0.1896
vn 0.1896 -0.9694 0.1556
vn 0.2163 -0.9694 0.1156
vn 0.2347 -0.9694 0.0712
vn 0.2441 -0.9694 0.0240
vn 0.2441 -0.9694 -0.0240
vn 0.2347 -0.9694 -0.0712
vn 0.2163 -0.9694 -0.1156
vn 0.1896 -0.9694 -0.1556
vn 0.1556 -0.9694 -0.1896
vn 0.1156 -0.9694 -0.2163
vn 0.0712 -0.9694 -0.2347
vn 0.0240 -0.9694 -0.2441
vn -0.0364 -0.9286 0.3694
vn -0.1078 -0.9286 0.3552
vn -0.1750 -0.9286 0.3274
vn -0.2355 -0.9286 0.2869
vn -0.2869 -0.9286 0.2355
vn -0.3274 -0.9286 0.1750
vn -0.3552 -0.9286 0.1078
vn -0.3694 -0.9286 0.0364
vn -0.3694 -0.9286 -0.0364
vn -0.3552 -0.9286 -0.1078
vn -0.3274 -0.9286 -0.1750
vn -0.2869 -0.9286 -0.2355
vn -0.2355 -0.9286 -0.2869
vn -0.1750 -0.9286 -0.3274
vn -0.1078 -0.9286 -0.3552
vn -0.0364 -0.9286 -0.3694
vn 0.0364 -0.9286 -0.3694
vn 0.1078 -0.9286 -0.3552
vn 0.1750 -0.9286 -0.3274
vn 0.2355 -0.9286 -0.2869
vn 0.2869 -0.9286 -0.2355
vn 0.3274 -0.9286 -0.1750
vn 0.3552 -0.9286 -0.1078
vn 0.3694 -0.9286 -0.0364
vn 0.3694 -0.9286 0.0364
vn 0.3552 -0.9286 0.1078
vn 0.3274 -0.9286 0.1750
vn 0.2869 -0.9286 0.2355
vn 0.2355 -0.9286 0.2869
vn 0.1750 -0.9286 0.3274
vn 0.1078 -0.9286 0.3552
vn 0.0364 -0.9286 0.3694
vn 0.0388 -0.9181 -0.3944
vn 0.1150 -0.9181 -0.3792
vn 0.1868 -0.9181 -0.3495
vn 0.2514 -0.9181 -0.3063
vn 0.3063 -0.9181 -0.2514
vn 0.3495 -0.9181 -0.1868
vn 0.3792 -0.9181 -0.1150
vn 0.3944 -0.9181 -0.0388
vn 0.3944 -0.9181 0.0388
vn 0.3792 -0.9181 0.1150
vn 0.3495 -0.9181 0.1868
vn 0.3063 -0.9181 0.2514
vn 0.2514 -0.9181 0.3063
vn 0.1868 -0.9181 0.3495
vn 0.1150 -0.9181 0.3792
vn 0.0388 -0.9181 0.3944
vn -0.0388 -0.9181 0.3944
vn -0.1150 -0.9181 0.3792
vn -0.1868 -0.9181 0.3495
vn -0.2514 -0.9181 0.3063
vn -0.3063 -0.9181 0.2514
vn -0.3495 -0.9181 0.1868
vn -0.3792 -0.9181 0.1150
vn -0.3944 -0.9181 0.0388
vn -0.3944 -0.9181 -0.0388
vn -0.3792 -0.9181 -0.1150
vn -0.3495 -0.9181 -0.1868
vn -0.3063 -0.9181 -0.2514
vn -0.2514 -0.9181 -0.3063
vn -0.1868 -0.9181 -0.3495
vn -0.1150 -0.9181 -0.3792
vn -0.0388 -0.9181 -0.3944
vn -0.0330 0.9418 0.3346
vn -0.0976 0.9418 0.3218
vn -0.1585 0.9418 0.2965
vn -0.2133 0.9418 0.2599
vn -0.2599 0.9418 0.2133
vn -0.2965 0.9418 0.1585
vn -0.3218 0.9418 0.0976
vn -0.3346 0.9418 0.0330
vn -0.3346 0.9418 -0.0330
vn -0.3218 0.9418 -0.0976
vn -0.2965 0.9418 -0.1585
vn -0.2599 0.9418 -0.2133
vn -0.2133 0.9418 -0.2599
vn -0.1585 0.9418 -0.2965
vn -0.0976 0.9418 -0.3218
vn -0.0330 0.9418 -0.3346
vn 0.0330 0.9418 -0.3346
vn 0.0976 0.9418 -0.3218
vn 0.1585 0.9418 -0.2965
vn 0.2133 0.9418 -0.2599
vn 0.2599 0.9418 -0.2133
vn 0.2965 0.9418 -0.1585
vn 0.3218 0.9418 -0.0976
vn 0.3346 0.9418 -0.0330
vn 0.3346 0.9418 0.0330
vn 0.3218 0.9418 0.0976
vn 0.2965 0.9418 0.1585
vn 0.2599 0.9418 0.2133
vn 0.2133 0.9418 0.2599
vn 0.1585 0.9418 0.2965
vn 0.0976 0.9418 0.3218
vn 0.0330 0.9418 0.3346
vn -0.0109 0.9938 0.1107
vn -0.0323 0.9938 0.1065
vn -0.0524 0.9938 0.0981
vn -0.0706 0.9938 0.0860
vn -0.0860 0.9938 0.0706
vn -0.0981 0.9938 0.0524
vn -0.1065 0.9938 0.0323
vn -0.1107 0.9938 0.0109
vn -0.1107 0.9938 -0.0109
vn -0.1065 0.9938 -0.0323
vn -0.0981 0.9938 -0.0524
vn -0.0860 0.9938 -0.0706
vn -0.0706 0.9938 -0.0860
vn -0.0524 0.9938 -0.0981
vn -0.0323 0.9938 -0.1065
vn -0.0109 0.9938 -0.1107
vn 0.0109 0.9938 -0.1107
vn 0.0323 0.9938 -0.1065
vn 0.0524 0.9938 -0.0981
vn 0.0706 0.9938 -0.0860
vn 0.0860 0.9938 -0.0706
vn 0.0981 0.9938 -0.0524
vn 0.1065 0.9938 -0.0323
vn 0.1107 0.9938 -0.0109
vn 0.1107 0.9938 0.0109
vn 0.1065 0.9938 0.0323
vn 0.0981 0.9938 0.0524
vn 0.0860 0.9938 0.0706
vn 0.0706 0.9938 0.0860
vn 0.0524 0.9938 0.0981
vn 0.0323 0.9938 0.1065
vn 0.0109 0.9938 0.1107
vt 0.099478 0.775346
vt 0.326884 0.795120
vt 0.151364 0.851804
vt 0.083943 0.203341
vt 0.320961 0.786257
vt 0.149152 0.843006
vt 0.083943 0.229430
vt 0.316882 0.776408
vt 0.147509 0.833205
vt 0.089033 0.255018
vt 0.314802 0.765952
vt 0.146497 0.822777
vt 0.099017 0.279121
vt 0.314802 0.755292
vt 0.146155 0.812122
vt 0.113511 0.300813
vt 0.316882 0.744837
vt 0.146497 0.801650
vt 0.131959 0.319261
vt 0.320961 0.734988
vt 0.147509 0.791764
vt 0.153651 0.333755
vt 0.326884 0.726124
vt 0.149152 0.782843
vt 0.177754 0.343739
vt 0.151364 0.775230
vt 0.334422 0.718586
vt 0.047593 0.860398
vt 0.203341 0.348828
vt 0.343286 0.712664
vt 0.045138 0.852860
vt 0.229430 0.348828
vt 0.353134 0.708584
vt 0.043210 0.843996
vt 0.255018 0.343739
vt 0.363590 0.706504
vt 0.041882 0.834147
vt 0.279121 0.333755
vt 0.374250 0.706504
vt 0.041204 0.823692
vt 0.300813 0.319261
vt 0.384706 0.708584
vt 0.041204 0.813031
vt 0.319261 0.300813
vt 0.394554 0.712664
vt 0.041882 0.802576
vt 0.333755 0.279121
vt 0.403418 0.718586
vt 0.043210 0.792727
vt 0.343739 0.255018
vt 0.410956 0.726124
vt 0.045138 0.783863
vt 0.348828 0.229430
vt 0.416879 0.734988
vt 0.047593 0.776325
vt 0.201946 0.843236
vt 0.348828 0.203341
vt 0.420958 0.744837
vt 0.200018 0.834373
vt 0.343739 0.177754
vt 0.423038 0.755292
vt 0.198689 0.824524
vt 0.333755 0.153651
vt 0.423038 0.765952
vt 0.198012 0.814068
vt 0.319261 0.131959
vt 0.420958 0.776408
vt 0.198012 0.803408
vt 0.300813 0.113511
vt 0.416879 0.786257
vt 0.198689 0.792952
vt 0.279121 0.099017
vt 0.410956 0.795120
vt 0.200018 0.783104
vt 0.255018 0.089033
vt 0.201946 0.774240
vt 0.403418 0.802658
vt 0.099478 0.851920
vt 0.229430 0.083943
vt 0.394555 0.808581
vt 0.097267 0.844307
vt 0.203341 0.083943
vt 0.384706 0.812660
vt 0.095623 0.835386
vt 0.177754 0.089033
vt 0.374250 0.814740
vt 0.094611 0.825500
vt 0.153651 0.099017
vt 0.363590 0.814740
vt 0.094270 0.815028
vt 0.131959 0.113511
vt 0.353134 0.812660
vt 0.094611 0.804373
vt 0.113511 0.131959
vt 0.343286 0.808581
vt 0.095623 0.793945
vt 0.099017 0.153651
vt 0.334422 0.802658
vt 0.097267 0.784144
vt 0.089033 0.177754
vt 0.533540 0.041592
vt 0.754700 0.555083
vt 0.543678 0.013543
vt 0.726997 0.566130
vt 0.694188 0.575525
vt 0.657536 0.582907
vt 0.618447 0.587992
vt 0.578425 0.590584
vt 0.539008 0.590584
vt 0.501709 0.587992
vt 0.438216 0.787801
vt 0.467963 0.582907
vt 0.439066 0.575526
vt 0.465947 0.776824
vt 0.498779 0.767512
vt 0.535450 0.760223
vt 0.574551 0.755238
vt 0.614580 0.752747
vt 0.653997 0.752848
vt 0.691289 0.755534
vt 0.012532 0.533540
vt 0.725022 0.760705
vt 0.045629 0.525219
vt 0.082503 0.519037
vt 0.121736 0.515230
vt 0.161822 0.513944
vt 0.201218 0.515230
vt 0.238412 0.519037
vt 0.271975 0.525219
vt 0.533540 0.329675
vt 0.300615 0.533540
vt 0.525219 0.301035
vt 0.519037 0.267472
vt 0.515230 0.230278
vt 0.513944 0.190881
vt 0.515230 0.150796
vt 0.519037 0.111563
vt 0.525219 0.074689
vt 0.650806 0.343862
vt 0.767706 0.832930
vt 0.753807 0.122575
vt 0.755490 0.820714
vt 0.638873 0.348621
vt 0.745892 0.806349
vt 0.624741 0.352668
vt 0.739281 0.790389
vt 0.608952 0.355848
vt 0.592115 0.358038
vt 0.735910 0.773445
vt 0.735910 0.756169
vt 0.574875 0.359154
vt 0.739281 0.739225
vt 0.557896 0.359154
vt 0.745892 0.723264
vt 0.541829 0.358038
vt 0.755490 0.708900
vt 0.527293 0.355848
vt 0.553518 0.994556
vt 0.767706 0.696684
vt 0.514845 0.352668
vt 0.782070 0.687086
vt 0.567660 0.990545
vt 0.798031 0.680475
vt 0.583456 0.987405
vt 0.814975 0.677104
vt 0.600300 0.985258
vt 0.832251 0.677104
vt 0.617542 0.984185
vt 0.634521 0.984228
vt 0.849195 0.680475
vt 0.865155 0.687086
vt 0.650585 0.985386
vt 0.093515 0.753807
vt 0.879520 0.696684
vt 0.665116 0.987613
vt 0.891736 0.708900
vt 0.107772 0.750223
vt 0.901334 0.723264
vt 0.123655 0.747560
vt 0.907945 0.739225
vt 0.140555 0.745920
vt 0.911315 0.756169
vt 0.157822 0.745367
vt 0.911315 0.773445
vt 0.174793 0.745920
vt 0.907945 0.790389
vt 0.190814 0.747560
vt 0.205271 0.750223
vt 0.901334 0.806349
vt 0.753807 0.246668
vt 0.891736 0.820714
vt 0.217608 0.753807
vt 0.879520 0.832930
vt 0.750223 0.234331
vt 0.865155 0.842528
vt 0.747560 0.219874
vt 0.849195 0.849139
vt 0.745920 0.203852
vt 0.832251 0.852509
vt 0.745367 0.186882
vt 0.814975 0.852509
vt 0.745920 0.169615
vt 0.747560 0.152715
vt 0.798031 0.849139
vt 0.782070 0.842528
vt 0.750223 0.136831
vt 0.779570 0.818473
vt 0.117016 0.862455
vt 0.065130 0.764695
vt 0.769946 0.808850
vt 0.114192 0.851223
vt 0.762385 0.797534
vt 0.112094 0.838710
vt 0.757177 0.784960
vt 0.110802 0.825397
vt 0.754522 0.771612
vt 0.110366 0.811794
vt 0.754522 0.758002
vt 0.110802 0.798425
vt 0.757177 0.744654
vt 0.112094 0.785803
vt 0.762385 0.732080
vt 0.114192 0.774414
vt 0.769946 0.720764
vt 0.117016 0.764695
vt 0.013600 0.872028
vt 0.779570 0.711140
vt 0.010466 0.862405
vt 0.790886 0.703579
vt 0.008004 0.851089
vt 0.803460 0.698371
vt 0.006308 0.838515
vt 0.816808 0.695716
vt 0.005444 0.825166
vt 0.830418 0.695716
vt 0.005444 0.811557
vt 0.843766 0.698371
vt 0.006308 0.798208
vt 0.856340 0.703579
vt 0.008004 0.785635
vt 0.867656 0.711140
vt 0.010466 0.774319
vt 0.013600 0.764695
vt 0.877279 0.720764
vt 0.167274 0.852781
vt 0.884840 0.732080
vt 0.164812 0.841465
vt 0.890049 0.744654
vt 0.163116 0.828891
vt 0.892704 0.758002
vt 0.162252 0.815543
vt 0.892704 0.771612
vt 0.162252 0.801933
vt 0.890049 0.784960
vt 0.163116 0.788585
vt 0.884840 0.797534
vt 0.164812 0.776011
vt 0.877279 0.808850
vt 0.167274 0.764695
vt 0.065130 0.862455
vt 0.867656 0.818473
vt 0.062307 0.852736
vt 0.856340 0.826034
vt 0.060209 0.841347
vt 0.843766 0.831243
vt 0.058917 0.828725
vt 0.830418 0.833898
vt 0.058480 0.815356
vt 0.816808 0.833898
vt 0.058917 0.801753
vt 0.803460 0.831243
vt 0.060209 0.788439
vt 0.790886 0.826034
vt 0.062307 0.775926
vt 0.675272 0.459849
vt 0.653775 0.466005
vt 0.629760 0.470842
vt 0.604148 0.474174
vt 0.577924 0.475872
vt 0.552096 0.475872
vt 0.527657 0.474174
vt 0.499231 0.890428
vt 0.505545 0.470842
vt 0.486611 0.466005
vt 0.517401 0.883236
vt 0.538913 0.877134
vt 0.562942 0.872358
vt 0.588562 0.869092
vt 0.614790 0.867460
vt 0.640618 0.867526
vt 0.665052 0.869286
vt 0.687155 0.872674
vt 0.060762 0.641451
vt 0.082449 0.635999
vt 0.106609 0.631948
vt 0.132316 0.629454
vt 0.158582 0.628611
vt 0.184396 0.629454
vt 0.208766 0.631948
vt 0.230758 0.635999
vt 0.249524 0.641451
vt 0.641451 0.278584
vt 0.635999 0.259817
vt 0.631948 0.237826
vt 0.629454 0.213456
vt 0.628611 0.187642
vt 0.629454 0.161376
vt 0.631948 0.135669
vt 0.635999 0.111508
vt 0.693424 0.452611
vt 0.641451 0.089822
vt 0.469021 0.005444
vt 0.736527 0.640881
vt 0.005444 0.237162
vt 0.458518 0.034504
vt 0.005444 0.195610
vt 0.702536 0.650615
vt 0.013550 0.277915
vt 0.664562 0.658263
vt 0.029451 0.316304
vt 0.624064 0.663531
vt 0.052537 0.350854
vt 0.582599 0.666217
vt 0.081918 0.380235
vt 0.541760 0.666217
vt 0.116467 0.403320
vt 0.503117 0.663531
vt 0.154856 0.419221
vt 0.468154 0.658263
vt 0.195610 0.427328
vt 0.438216 0.650615
vt 0.456606 0.702049
vt 0.237162 0.427328
vt 0.490622 0.692401
vt 0.277915 0.419221
vt 0.528615 0.684850
vt 0.316304 0.403320
vt 0.569126 0.679685
vt 0.350854 0.380235
vt 0.610598 0.677104
vt 0.380235 0.350854
vt 0.651437 0.677208
vt 0.403320 0.316304
vt 0.690073 0.679992
vt 0.419221 0.277915
vt 0.725022 0.685349
vt 0.005444 0.458518
vt 0.427328 0.237162
vt 0.039734 0.449897
vt 0.427328 0.195610
vt 0.077938 0.443492
vt 0.419221 0.154856
vt 0.118586 0.439548
vt 0.403320 0.116467
vt 0.160116 0.438216
vt 0.380235 0.081918
vt 0.200934 0.439548
vt 0.350854 0.052537
vt 0.239469 0.443492
vt 0.316304 0.029451
vt 0.274241 0.449897
vt 0.277915 0.013550
vt 0.303914 0.458518
vt 0.458518 0.332974
vt 0.237162 0.005444
vt 0.449897 0.303301
vt 0.195610 0.005444
vt 0.443492 0.268529
vt 0.154856 0.013550
vt 0.439548 0.229993
vt 0.116467 0.029451
vt 0.438216 0.189176
vt 0.081918 0.052537
vt 0.439548 0.147646
vt 0.052537 0.081918
vt 0.443492 0.106998
vt 0.029451 0.116467
vt 0.449897 0.068794
vt 0.013550 0.154856
vt 0.014491 0.236271
vt 0.896617 0.229777
vt 0.014491 0.196501
vt 0.903811 0.262845
vt 0.828809 0.005444
vt 0.022250 0.275276
vt 0.891661 0.193035
vt 0.037469 0.312019
vt 0.889135 0.154029
vt 0.059564 0.345086
vt 0.889135 0.114259
vt 0.087686 0.373208
vt 0.891661 0.075254
vt 0.120753 0.395303
vt 0.896617 0.038511
vt 0.903811 0.005444
vt 0.157495 0.410522
vt 0.196501 0.418281
vt 0.236271 0.418281
vt 0.829702 0.601263
vt 0.275276 0.410522
vt 0.822508 0.568195
vt 0.312019 0.395303
vt 0.817552 0.531453
vt 0.345086 0.373208
vt 0.815026 0.492447
vt 0.373208 0.345086
vt 0.815026 0.452677
vt 0.395303 0.312019
vt 0.817552 0.413672
vt 0.410522 0.275276
vt 0.822508 0.376929
vt 0.829702 0.343862
vt 0.418281 0.236271
vt 0.418281 0.196501
vt 0.378916 0.695616
vt 0.410522 0.157495
vt 0.371722 0.662549
vt 0.395303 0.120753
vt 0.366767 0.625807
vt 0.373208 0.087685
vt 0.364240 0.586801
vt 0.345086 0.059564
vt 0.364240 0.547031
vt 0.312019 0.037469
vt 0.366767 0.508026
vt 0.275276 0.022250
vt 0.371722 0.471283
vt 0.378916 0.438216
vt 0.236271 0.014491
vt 0.196501 0.014491
vt 0.828809 0.262845
vt 0.157495 0.022250
vt 0.821615 0.229777
vt 0.120753 0.037469
vt 0.816660 0.193035
vt 0.087685 0.059564
vt 0.814133 0.154029
vt 0.059564 0.087686
vt 0.814133 0.114259
vt 0.037469 0.120753
vt 0.816659 0.075254
vt 0.022250 0.157495
vt 0.821615 0.038511
vt 0.845971 0.214337
vt 0.047088 0.233060
vt 0.852004 0.242066
vt 0.777002 0.026223
vt 0.047088 0.199711
vt 0.841815 0.183527
vt 0.053594 0.265768
vt 0.839697 0.150819
vt 0.066356 0.296579
vt 0.839697 0.117470
vt 0.084883 0.324307
vt 0.841815 0.084762
vt 0.108465 0.347888
vt 0.845971 0.053952
vt 0.136193 0.366416
vt 0.852004 0.026223
vt 0.167003 0.379178
vt 0.199711 0.385684
vt 0.777894 0.580484
vt 0.233060 0.385684
vt 0.771861 0.552755
vt 0.265768 0.379178
vt 0.767706 0.521945
vt 0.296579 0.366416
vt 0.765588 0.489237
vt 0.324307 0.347888
vt 0.765588 0.455888
vt 0.347888 0.324307
vt 0.767706 0.423180
vt 0.366416 0.296579
vt 0.771861 0.392370
vt 0.379178 0.265768
vt 0.777894 0.364641
vt 0.385684 0.233060
vt 0.327109 0.674837
vt 0.385684 0.199711
vt 0.321076 0.647109
vt 0.379178 0.167003
vt 0.316921 0.616299
vt 0.366416 0.136193
vt 0.314802 0.583591
vt 0.347888 0.108465
vt 0.314802 0.550242
vt 0.324307 0.084883
vt 0.316920 0.517534
vt 0.296579 0.066356
vt 0.321076 0.486723
vt 0.265768 0.053594
vt 0.327109 0.458995
vt 0.233060 0.047088
vt 0.777002 0.242066
vt 0.199711 0.047088
vt 0.770969 0.214337
vt 0.167003 0.053594
vt 0.766813 0.183527
vt 0.136193 0.066356
vt 0.764695 0.150819
vt 0.108465 0.084883
vt 0.764695 0.117470
vt 0.084883 0.108465
vt 0.766813 0.084762
vt 0.066356 0.136193
vt 0.770969 0.053952
vt 0.053594 0.167003
s 0
f 194/315/1 66/103/1 65/101/1
f 193/313/2 67/105/2 66/104/2
f 67/105/3 196/319/3 68/106/3
f 68/106/4 197/321/4 69/107/4
f 197/321/5 70/108/5 69/107/5
f 70/108/6 199/325/6 71/109/6
f 199/325/7 72/110/7 71/109/7
f 200/327/8 73/112/8 72/110/8
f 201/329/9 74/113/9 73/112/9
f 202/332/10 75/115/10 74/114/10
f 75/115/11 204/336/11 76/116/11
f 76/116/12 205/338/12 77/117/12
f 205/338/13 78/118/13 77/117/13
f 78/118/14 207/342/14 79/119/14
f 207/342/15 80/120/15 79/119/15
f 208/344/16 81/122/16 80/120/16
f 209/347/17 82/123/17 81/121/17
f 210/349/18 83/124/18 82/123/18
f 83/124/19 212/353/19 84/125/19
f 84/125/20 213/355/20 85/126/20
f 213/355/21 86/127/21 85/126/21
f 86/127/22 215/359/22 87/128/22
f 215/359/23 88/129/23 87/128/23
f 216/361/24 89/131/24 88/129/24
f 217/364/25 90/132/25 89/130/25
f 218/366/26 91/133/26 90/132/26
f 91/133/27 220/370/27 92/134/27
f 92/134/28 221/372/28 93/135/28
f 221/372/29 94/136/29 93/135/29
f 94/136/30 223/376/30 95/137/30
f 38/60/31 22/35/31 6/10/31
f 223/376/32 96/138/32 95/137/32
f 224/378/33 65/101/33 96/138/33
f 31/48/34 47/73/34 63/98/34
f 96/138/35 192/311/35 191/309/35
f 190/308/36 96/138/36 191/309/36
f 94/136/37 190/308/37 189/307/37
f 93/135/38 189/307/38 188/306/38
f 92/134/39 188/306/39 187/305/39
f 91/133/40 187/305/40 186/304/40
f 90/132/41 186/304/41 185/303/41
f 89/130/42 185/303/42 184/302/42
f 88/129/43 184/301/43 183/300/43
f 182/299/44 88/129/44 183/300/44
f 86/127/45 182/299/45 181/298/45
f 85/126/46 181/298/46 180/297/46
f 84/125/47 180/297/47 179/296/47
f 83/124/48 179/296/48 178/295/48
f 177/294/49 83/124/49 178/295/49
f 176/293/50 82/123/50 177/294/50
f 80/120/51 176/292/51 175/291/51
f 174/290/52 80/120/52 175/291/52
f 78/118/53 174/290/53 173/289/53
f 77/117/54 173/289/54 172/288/54
f 76/116/55 172/288/55 171/287/55
f 75/115/56 171/287/56 170/286/56
f 74/114/57 170/286/57 169/285/57
f 73/111/58 169/285/58 168/282/58
f 72/110/59 168/283/59 167/281/59
f 166/280/60 72/110/60 167/281/60
f 70/108/61 166/280/61 165/279/61
f 69/107/62 165/279/62 164/278/62
f 68/106/63 164/278/63 163/277/63
f 67/105/64 163/277/64 162/276/64
f 66/104/65 162/276/65 161/275/65
f 65/102/66 161/275/66 192/310/66
f 129/207/34 98/142/34 130/210/34
f 130/210/34 99/144/34 131/212/34
f 131/212/34 100/146/34 132/214/34
f 132/214/34 101/149/34 133/216/34
f 134/218/34 101/149/34 102/150/34
f 135/220/34 102/150/34 103/152/34
f 135/220/34 104/154/34 136/222/34
f 137/224/34 104/154/34 105/156/34
f 137/224/34 106/159/34 138/227/34
f 139/229/34 106/159/34 107/161/34
f 139/229/34 108/163/34 140/231/34
f 140/231/34 109/165/34 141/233/34
f 142/235/34 109/165/34 110/167/34
f 142/235/34 111/170/34 143/237/34
f 143/237/34 112/171/34 144/239/34
f 145/241/34 112/171/34 113/174/34
f 145/241/34 114/176/34 146/244/34
f 147/246/34 114/176/34 115/178/34
f 147/246/34 116/180/34 148/248/34
f 148/248/34 117/182/34 149/250/34
f 149/250/34 118/184/34 150/252/34
f 151/254/34 118/184/34 119/186/34
f 151/254/34 120/189/34 152/256/34
f 152/256/34 121/191/34 153/258/34
f 153/258/34 122/193/34 154/261/34
f 155/263/34 122/193/34 123/195/34
f 155/263/34 124/197/34 156/265/34
f 157/267/34 124/197/34 125/199/34
f 157/267/34 126/201/34 158/269/34
f 158/269/34 127/204/34 159/271/34
f 159/271/34 128/205/34 160/273/34
f 129/207/34 128/205/34 97/140/34
f 1/3/67 130/211/67 3/6/67
f 3/6/68 131/213/68 5/9/68
f 5/9/69 132/215/69 7/12/69
f 7/12/70 133/217/70 9/15/70
f 9/15/71 134/219/71 11/18/71
f 11/18/72 135/221/72 13/21/72
f 13/21/73 136/223/73 15/24/73
f 15/24/74 137/225/74 17/26/74
f 17/28/75 138/228/75 19/31/75
f 21/34/76 138/228/76 139/230/76
f 21/34/77 140/232/77 23/37/77
f 23/37/78 141/234/78 25/40/78
f 25/40/79 142/236/79 27/43/79
f 27/43/80 143/238/80 29/46/80
f 29/46/81 144/240/81 31/49/81
f 31/49/82 145/242/82 33/52/82
f 35/55/83 145/242/83 146/243/83
f 37/59/84 146/245/84 147/247/84
f 37/59/85 148/249/85 39/62/85
f 39/62/86 149/251/86 41/65/86
f 41/65/87 150/253/87 43/68/87
f 43/68/88 151/255/88 45/71/88
f 45/71/89 152/257/89 47/74/89
f 47/74/90 153/259/90 49/76/90
f 51/81/91 153/260/91 154/262/91
f 51/81/92 155/264/92 53/84/92
f 53/84/93 156/266/93 55/87/93
f 55/87/94 157/268/94 57/90/94
f 59/93/95 157/268/95 158/270/95
f 59/93/96 159/272/96 61/96/96
f 61/96/97 160/274/97 63/99/97
f 63/99/98 129/209/98 1/1/98
f 192/310/99 98/143/99 97/139/99
f 161/275/100 99/145/100 98/143/100
f 162/276/101 100/147/101 99/145/101
f 100/147/102 164/278/102 101/148/102
f 164/278/103 102/151/103 101/148/103
f 165/279/104 103/153/104 102/151/104
f 166/280/105 104/155/105 103/153/105
f 167/281/106 105/157/106 104/155/106
f 168/283/107 106/160/107 105/157/107
f 169/285/108 107/162/108 106/158/108
f 170/286/109 108/164/109 107/162/109
f 171/287/110 109/166/110 108/164/110
f 172/288/111 110/168/111 109/166/111
f 110/168/112 174/290/112 111/169/112
f 174/290/113 112/172/113 111/169/113
f 175/291/114 113/175/114 112/172/114
f 176/293/115 114/177/115 113/173/115
f 177/294/116 115/179/116 114/177/116
f 178/295/117 116/181/117 115/179/117
f 179/296/118 117/183/118 116/181/118
f 180/297/119 118/185/119 117/183/119
f 181/298/120 119/187/120 118/185/120
f 119/187/121 183/300/121 120/188/121
f 183/300/122 121/192/122 120/188/122
f 184/302/123 122/194/123 121/190/123
f 185/303/124 123/196/124 122/194/124
f 186/304/125 124/198/125 123/196/125
f 187/305/126 125/200/126 124/198/126
f 188/306/127 126/202/127 125/200/127
f 126/202/128 190/308/128 127/203/128
f 190/308/129 128/206/129 127/203/129
f 191/309/130 97/141/130 128/206/130
f 226/382/31 193/314/31 194/316/31
f 227/385/31 193/314/31 225/380/31
f 228/387/31 195/318/31 227/385/31
f 229/389/31 196/320/31 228/387/31
f 230/391/31 197/322/31 229/389/31
f 231/393/31 198/324/31 230/391/31
f 232/396/31 199/326/31 231/393/31
f 233/397/31 200/328/31 232/396/31
f 233/397/31 202/333/31 201/330/31
f 235/400/31 202/333/31 234/398/31
f 236/402/31 203/335/31 235/400/31
f 237/404/31 204/337/31 236/402/31
f 238/406/31 205/339/31 237/404/31
f 239/408/31 206/341/31 238/406/31
f 240/410/31 207/343/31 239/408/31
f 241/413/31 208/345/31 240/410/31
f 242/414/31 209/348/31 241/413/31
f 242/414/31 211/352/31 210/350/31
f 244/418/31 211/352/31 243/416/31
f 245/420/31 212/354/31 244/418/31
f 246/422/31 213/356/31 245/420/31
f 247/424/31 214/358/31 246/422/31
f 248/426/31 215/360/31 247/424/31
f 249/429/31 216/362/31 248/426/31
f 249/429/31 218/367/31 217/365/31
f 251/432/31 218/367/31 250/430/31
f 252/434/31 219/369/31 251/432/31
f 253/436/31 220/371/31 252/434/31
f 254/438/31 221/373/31 253/436/31
f 255/440/31 222/375/31 254/438/31
f 256/442/31 223/377/31 255/440/31
f 226/382/31 224/379/31 256/442/31
f 257/444/131 226/383/131 258/446/131
f 259/449/132 225/381/132 257/444/132
f 260/451/133 227/386/133 259/449/133
f 261/453/134 228/388/134 260/451/134
f 262/455/135 229/390/135 261/453/135
f 263/457/136 230/392/136 262/455/136
f 264/459/137 231/394/137 263/457/137
f 265/461/138 232/396/138 264/460/138
f 266/463/139 233/397/139 265/461/139
f 267/464/140 234/399/140 266/462/140
f 268/466/141 235/401/141 267/464/141
f 269/468/142 236/403/142 268/466/142
f 270/470/143 237/405/143 269/468/143
f 271/472/144 238/407/144 270/470/144
f 272/474/145 239/409/145 271/472/145
f 273/476/146 240/411/146 272/474/146
f 274/479/147 241/413/147 273/477/147
f 275/480/148 242/415/148 274/478/148
f 276/482/149 243/417/149 275/480/149
f 277/484/150 244/419/150 276/482/150
f 278/486/151 245/421/151 277/484/151
f 279/488/152 246/423/152 278/486/152
f 280/490/153 247/425/153 279/488/153
f 281/492/154 248/427/154 280/490/154
f 282/495/155 249/429/155 281/493/155
f 283/496/156 250/431/156 282/494/156
f 284/498/157 251/433/157 283/496/157
f 285/500/158 252/435/158 284/498/158
f 286/502/159 253/437/159 285/500/159
f 287/504/160 254/439/160 286/502/160
f 288/506/161 255/441/161 287/504/161
f 258/447/162 256/443/162 288/506/162
f 4/7/163 258/448/163 2/4/163
f 6/10/164 257/445/164 4/7/164
f 8/13/165 259/450/165 6/10/165
f 10/16/166 260/452/166 8/13/166
f 10/16/167 262/456/167 261/454/167
f 14/22/168 262/456/168 12/19/168
f 16/25/169 263/458/169 14/22/169
f 16/25/170 265/461/170 264/460/170
f 20/32/171 265/461/171 18/29/171
f 22/35/172 266/463/172 20/32/172
f 24/38/173 267/465/173 22/35/173
f 26/41/174 268/467/174 24/38/174
f 26/41/175 270/471/175 269/469/175
f 30/47/176 270/471/176 28/44/176
f 32/50/177 271/473/177 30/47/177
f 32/50/178 273/477/178 272/475/178
f 36/57/179 273/477/179 34/53/179
f 38/60/180 274/479/180 36/57/180
f 40/63/181 275/481/181 38/60/181
f 42/66/182 276/483/182 40/63/182
f 42/66/183 278/487/183 277/485/183
f 46/72/184 278/487/184 44/69/184
f 48/75/185 279/489/185 46/72/185
f 48/75/186 281/493/186 280/491/186
f 52/82/187 281/493/187 50/79/187
f 54/85/188 282/495/188 52/82/188
f 56/88/189 283/497/189 54/85/189
f 58/91/190 284/499/190 56/88/190
f 58/91/191 286/503/191 285/501/191
f 62/97/192 286/503/192 60/94/192
f 64/100/193 287/505/193 62/97/193
f 64/100/194 258/448/194 288/507/194
f 194/315/1 193/312/1 66/103/1
f 193/313/2 195/317/2 67/105/2
f 67/105/3 195/317/3 196/319/3
f 68/106/4 196/319/4 197/321/4
f 197/321/5 198/323/5 70/108/5
f 70/108/6 198/323/6 199/325/6
f 199/325/7 200/327/7 72/110/7
f 200/327/8 201/329/8 73/112/8
f 201/329/9 202/331/9 74/113/9
f 202/332/10 203/334/10 75/115/10
f 75/115/11 203/334/11 204/336/11
f 76/116/12 204/336/12 205/338/12
f 205/338/13 206/340/13 78/118/13
f 78/118/14 206/340/14 207/342/14
f 207/342/15 208/344/15 80/120/15
f 208/344/16 209/346/16 81/122/16
f 209/347/17 210/349/17 82/123/17
f 210/349/18 211/351/18 83/124/18
f 83/124/19 211/351/19 212/353/19
f 84/125/20 212/353/20 213/355/20
f 213/355/21 214/357/21 86/127/21
f 86/127/22 214/357/22 215/359/22
f 215/359/23 216/361/23 88/129/23
f 216/361/24 217/363/24 89/131/24
f 217/364/25 218/366/25 90/132/25
f 218/366/26 219/368/26 91/133/26
f 91/133/27 219/368/27 220/370/27
f 92/134/28 220/370/28 221/372/28
f 221/372/29 222/374/29 94/136/29
f 94/136/30 222/374/30 223/376/30
f 6/10/31 4/7/31 2/4/31
f 2/4/31 64/100/31 62/97/31
f 62/97/31 60/94/31 58/91/31
f 58/91/31 56/88/31 54/85/31
f 54/85/31 52/82/31 50/79/31
f 50/79/31 48/75/31 46/72/31
f 46/72/31 44/69/31 42/66/31
f 42/66/31 40/63/31 38/60/31
f 38/60/31 36/57/31 34/53/31
f 34/53/31 32/50/31 30/47/31
f 30/47/31 28/44/31 26/41/31
f 26/41/31 24/38/31 22/35/31
f 22/35/31 20/32/31 18/29/31
f 18/29/31 16/25/31 14/22/31
f 14/22/31 12/19/31 10/16/31
f 10/16/31 8/13/31 6/10/31
f 6/10/31 2/4/31 62/97/31
f 62/97/31 58/91/31 54/85/31
f 54/85/31 50/79/31 46/72/31
f 46/72/31 42/66/31 38/60/31
f 38/60/31 34/53/31 30/47/31
f 30/47/31 26/41/31 22/35/31
f 22/35/31 18/29/31 14/22/31
f 14/22/31 10/16/31 6/10/31
f 6/10/31 62/97/31 54/85/31
f 54/85/31 46/72/31 38/60/31
f 38/60/31 30/47/31 22/35/31
f 22/35/31 14/22/31 6/10/31
f 6/10/31 54/85/31 38/60/31
f 223/376/32 224/378/32 96/138/32
f 224/378/33 194/315/33 65/101/33
f 63/98/34 1/2/34 3/5/34
f 3/5/34 5/8/34 7/11/34
f 7/11/34 9/14/34 11/17/34
f 11/17/34 13/20/34 15/23/34
f 15/23/34 17/27/34 19/30/34
f 19/30/34 21/33/34 23/36/34
f 23/36/34 25/39/34 27/42/34
f 27/42/34 29/45/34 31/48/34
f 31/48/34 33/51/34 35/54/34
f 35/54/34 37/58/34 39/61/34
f 39/61/34 41/64/34 43/67/34
f 43/67/34 45/70/34 47/73/34
f 47/73/34 49/77/34 51/80/34
f 51/80/34 53/83/34 55/86/34
f 55/86/34 57/89/34 59/92/34
f 59/92/34 61/95/34 63/98/34
f 63/98/34 3/5/34 7/11/34
f 7/11/34 11/17/34 15/23/34
f 15/23/34 19/30/34 23/36/34
f 23/36/34 27/42/34 31/48/34
f 31/48/34 35/54/34 39/61/34
f 39/61/34 43/67/34 47/73/34
f 47/73/34 51/80/34 55/86/34
f 55/86/34 59/92/34 63/98/34
f 63/98/34 7/11/34 15/23/34
f 15/23/34 23/36/34 31/48/34
f 31/48/34 39/61/34 47/73/34
f 47/73/34 55/86/34 63/98/34
f 63/98/34 15/23/34 31/48/34
f 96/138/35 65/101/35 192/311/35
f 190/308/36 95/137/36 96/138/36
f 94/136/37 95/137/37 190/308/37
f 93/135/38 94/136/38 189/307/38
f 92/134/39 93/135/39 188/306/39
f 91/133/40 92/134/40 187/305/40
f 90/132/41 91/133/41 186/304/41
f 89/130/42 90/132/42 185/303/42
f 88/129/43 89/131/43 184/301/43
f 182/299/44 87/128/44 88/129/44
f 86/127/45 87/128/45 182/299/45
f 85/126/46 86/127/46 181/298/46
f 84/125/47 85/126/47 180/297/47
f 83/124/48 84/125/48 179/296/48
f 177/294/49 82/123/49 83/124/49
f 176/293/50 81/121/50 82/123/50
f 80/120/51 81/122/51 176/292/51
f 174/290/52 79/119/52 80/120/52
f 78/118/53 79/119/53 174/290/53
f 77/117/54 78/118/54 173/289/54
f 76/116/55 77/117/55 172/288/55
f 75/115/56 76/116/56 171/287/56
f 74/114/57 75/115/57 170/286/57
f 73/111/58 74/114/58 169/285/58
f 72/110/59 73/112/59 168/283/59
f 166/280/60 71/109/60 72/110/60
f 70/108/61 71/109/61 166/280/61
f 69/107/62 70/108/62 165/279/62
f 68/106/63 69/107/63 164/278/63
f 67/105/64 68/106/64 163/277/64
f 66/104/65 67/105/65 162/276/65
f 65/102/66 66/104/66 161/275/66
f 129/207/34 97/140/34 98/142/34
f 130/210/34 98/142/34 99/144/34
f 131/212/34 99/144/34 100/146/34
f 132/214/34 100/146/34 101/149/34
f 134/218/34 133/216/34 101/149/34
f 135/220/34 134/218/34 102/150/34
f 135/220/34 103/152/34 104/154/34
f 137/224/34 136/222/34 104/154/34
f 137/224/34 105/156/34 106/159/34
f 139/229/34 138/227/34 106/159/34
f 139/229/34 107/161/34 108/163/34
f 140/231/34 108/163/34 109/165/34
f 142/235/34 141/233/34 109/165/34
f 142/235/34 110/167/34 111/170/34
f 143/237/34 111/170/34 112/171/34
f 145/241/34 144/239/34 112/171/34
f 145/241/34 113/174/34 114/176/34
f 147/246/34 146/244/34 114/176/34
f 147/246/34 115/178/34 116/180/34
f 148/248/34 116/180/34 117/182/34
f 149/250/34 117/182/34 118/184/34
f 151/254/34 150/252/34 118/184/34
f 151/254/34 119/186/34 120/189/34
f 152/256/34 120/189/34 121/191/34
f 153/258/34 121/191/34 122/193/34
f 155/263/34 154/261/34 122/193/34
f 155/263/34 123/195/34 124/197/34
f 157/267/34 156/265/34 124/197/34
f 157/267/34 125/199/34 126/201/34
f 158/269/34 126/201/34 127/204/34
f 159/271/34 127/204/34 128/205/34
f 129/207/34 160/273/34 128/205/34
f 1/3/67 129/208/67 130/211/67
f 3/6/68 130/211/68 131/213/68
f 5/9/69 131/213/69 132/215/69
f 7/12/70 132/215/70 133/217/70
f 9/15/71 133/217/71 134/219/71
f 11/18/72 134/219/72 135/221/72
f 13/21/73 135/221/73 136/223/73
f 15/24/74 136/223/74 137/225/74
f 17/28/75 137/226/75 138/228/75
f 21/34/76 19/31/76 138/228/76
f 21/34/77 139/230/77 140/232/77
f 23/37/78 140/232/78 141/234/78
f 25/40/79 141/234/79 142/236/79
f 27/43/80 142/236/80 143/238/80
f 29/46/81 143/238/81 144/240/81
f 31/49/82 144/240/82 145/242/82
f 35/55/83 33/52/83 145/242/83
f 37/59/84 35/56/84 146/245/84
f 37/59/85 147/247/85 148/249/85
f 39/62/86 148/249/86 149/251/86
f 41/65/87 149/251/87 150/253/87
f 43/68/88 150/253/88 151/255/88
f 45/71/89 151/255/89 152/257/89
f 47/74/90 152/257/90 153/259/90
f 51/81/91 49/78/91 153/260/91
f 51/81/92 154/262/92 155/264/92
f 53/84/93 155/264/93 156/266/93
f 55/87/94 156/266/94 157/268/94
f 59/93/95 57/90/95 157/268/95
f 59/93/96 158/270/96 159/272/96
f 61/96/97 159/272/97 160/274/97
f 63/99/98 160/274/98 129/209/98
f 192/310/99 161/275/99 98/143/99
f 161/275/100 162/276/100 99/145/100
f 162/276/101 163/277/101 100/147/101
f 100/147/102 163/277/102 164/278/102
f 164/278/103 165/279/103 102/151/103
f 165/279/104 166/280/104 103/153/104
f 166/280/105 167/281/105 104/155/105
f 167/281/106 168/283/106 105/157/106
f 168/283/107 169/284/107 106/160/107
f 169/285/108 170/286/108 107/162/108
f 170/286/109 171/287/109 108/164/109
f 171/287/110 172/288/110 109/166/110
f 172/288/111 173/289/111 110/168/111
f 110/168/112 173/289/112 174/290/112
f 174/290/113 175/291/113 112/172/113
f 175/291/114 176/292/114 113/175/114
f 176/293/115 177/294/115 114/177/115
f 177/294/116 178/295/116 115/179/116
f 178/295/117 179/296/117 116/181/117
f 179/296/118 180/297/118 117/183/118
f 180/297/119 181/298/119 118/185/119
f 181/298/120 182/299/120 119/187/120
f 119/187/121 182/299/121 183/300/121
f 183/300/122 184/301/122 121/192/122
f 184/302/123 185/303/123 122/194/123
f 185/303/124 186/304/124 123/196/124
f 186/304/125 187/305/125 124/198/125
f 187/305/126 188/306/126 125/200/126
f 188/306/127 189/307/127 126/202/127
f 126/202/128 189/307/128 190/308/128
f 190/308/129 191/309/129 128/206/129
f 191/309/130 192/311/130 97/141/130
f 226/382/31 225/380/31 193/314/31
f 227/385/31 195/318/31 193/314/31
f 228/387/31 196/320/31 195/318/31
f 229/389/31 197/322/31 196/320/31
f 230/391/31 198/324/31 197/322/31
f 231/393/31 199/326/31 198/324/31
f 232/396/31 200/328/31 199/326/31
f 233/397/31 201/330/31 200/328/31
f 233/397/31 234/398/31 202/333/31
f 235/400/31 203/335/31 202/333/31
f 236/402/31 204/337/31 203/335/31
f 237/404/31 205/339/31 204/337/31
f 238/406/31 206/341/31 205/339/31
f 239/408/31 207/343/31 206/341/31
f 240/410/31 208/345/31 207/343/31
f 241/413/31 209/348/31 208/345/31
f 242/414/31 210/350/31 209/348/31
f 242/414/31 243/416/31 211/352/31
f 244/418/31 212/354/31 211/352/31
f 245/420/31 213/356/31 212/354/31
f 246/422/31 214/358/31 213/356/31
f 247/424/31 215/360/31 214/358/31
f 248/426/31 216/362/31 215/360/31
f 249/429/31 217/365/31 216/362/31
f 249/429/31 250/430/31 218/367/31
f 251/432/31 219/369/31 218/367/31
f 252/434/31 220/371/31 219/369/31
f 253/436/31 221/373/31 220/371/31
f 254/438/31 222/375/31 221/373/31
f 255/440/31 223/377/31 222/375/31
f 256/442/31 224/379/31 223/377/31
f 226/382/31 194/316/31 224/379/31
f 257/444/131 225/381/131 226/383/131
f 259/449/132 227/386/132 225/381/132
f 260/451/133 228/388/133 227/386/133
f 261/453/134 229/390/134 228/388/134
f 262/455/135 230/392/135 229/390/135
f 263/457/136 231/394/136 230/392/136
f 264/459/137 232/395/137 231/394/137
f 265/461/138 233/397/138 232/396/138
f 266/463/139 234/398/139 233/397/139
f 267/464/140 235/401/140 234/399/140
f 268/466/141 236/403/141 235/401/141
f 269/468/142 237/405/142 236/403/142
f 270/470/143 238/407/143 237/405/143
f 271/472/144 239/409/144 238/407/144
f 272/474/145 240/411/145 239/409/145
f 273/476/146 241/412/146 240/411/146
f 274/479/147 242/414/147 241/413/147
f 275/480/148 243/417/148 242/415/148
f 276/482/149 244/419/149 243/417/149
f 277/484/150 245/421/150 244/419/150
f 278/486/151 246/423/151 245/421/151
f 279/488/152 247/425/152 246/423/152
f 280/490/153 248/427/153 247/425/153
f 281/492/154 249/428/154 248/427/154
f 282/495/155 250/430/155 249/429/155
f 283/496/156 251/433/156 250/431/156
f 284/498/157 252/435/157 251/433/157
f 285/500/158 253/437/158 252/435/158
f 286/502/159 254/439/159 253/437/159
f 287/504/160 255/441/160 254/439/160
f 288/506/161 256/443/161 255/441/161
f 258/447/162 226/384/162 256/443/162
f 4/7/163 257/445/163 258/448/163
f 6/10/164 259/450/164 257/445/164
f 8/13/165 260/452/165 259/450/165
f 10/16/166 261/454/166 260/452/166
f 10/16/167 12/19/167 262/456/167
f 14/22/168 263/458/168 262/456/168
f 16/25/169 264/460/169 263/458/169
f 16/25/170 18/29/170 265/461/170
f 20/32/171 266/463/171 265/461/171
f 22/35/172 267/465/172 266/463/172
f 24/38/173 268/467/173 267/465/173
f 26/41/174 269/469/174 268/467/174
f 26/41/175 28/44/175 270/471/175
f 30/47/176 271/473/176 270/471/176
f 32/50/177 272/475/177 271/473/177
f 32/50/178 34/53/178 273/477/178
f 36/57/179 274/479/179 273/477/179
f 38/60/180 275/481/180 274/479/180
f 40/63/181 276/483/181 275/481/181
f 42/66/182 277/485/182 276/483/182
f 42/66/183 44/69/183 278/487/183
f 46/72/184 279/489/184 278/487/184
f 48/75/185 280/491/185 279/489/185
f 48/75/186 50/79/186 281/493/186
f 52/82/187 282/495/187 281/493/187
f 54/85/188 283/497/188 282/495/188
f 56/88/189 284/499/189 283/497/189
f 58/91/190 285/501/190 284/499/190
f 58/91/191 60/94/191 286/503/191
f 62/97/192 287/505/192 286/503/192
f 64/100/193 288/507/193 287/505/193
f 64/100/194 2/4/194 258/448/194
