# Blender 3.3.1
# www.blender.org
o Sphere
v -0.000000 1.401830 -2.552646
v -0.000000 1.188340 -3.820305
v -0.000000 0.909401 -4.506357
v -0.000000 0.708951 -4.594642
v -0.000000 0.201020 -4.506357
v -0.000000 0.113087 -3.820305
v 0.051895 1.517370 -0.879147
v 0.101796 1.473336 -1.724508
v 0.147785 1.401830 -2.503598
v 0.188094 1.305598 -3.186476
v 0.221176 1.188340 -3.746899
v 0.245757 1.054560 -4.163331
v 0.260895 0.909401 -4.419768
v 0.266006 0.708951 -4.506357
v 0.260895 0.201020 -4.419768
v 0.245757 0.155260 -4.163331
v 0.221176 0.113087 -3.746899
v 0.188094 0.076122 -3.186476
v 0.147785 0.045785 -2.503598
v 0.101796 0.023243 -1.724508
v 0.051895 0.009362 -0.879147
v 0.101796 1.517370 -0.828138
v 0.199680 1.473336 -1.624451
v 0.289890 1.401830 -2.358337
v 0.368961 1.305598 -3.001594
v 0.433852 1.188340 -3.529501
v 0.482070 1.054560 -3.921772
v 0.511763 0.909401 -4.163331
v 0.521789 0.708951 -4.244895
v 0.511763 0.201020 -4.163331
v 0.482070 0.155260 -3.921772
v 0.433852 0.113087 -3.529501
v 0.368961 0.076122 -3.001594
v 0.289890 0.045785 -2.358337
v 0.199680 0.023243 -1.624451
v 0.101796 0.009362 -0.828138
v 0.147785 1.517370 -0.745304
v 0.289890 1.473336 -1.461967
v 0.420856 1.401830 -2.122447
v 0.535648 1.305598 -2.701363
v 0.629855 1.188340 -3.176467
v 0.699857 1.054560 -3.529501
v 0.742965 0.909401 -3.746899
v 0.757520 0.708951 -3.820304
v 0.742965 0.201020 -3.746899
v 0.699857 0.155260 -3.529501
v 0.629855 0.113087 -3.176467
v 0.535648 0.076122 -2.701363
v 0.420856 0.045785 -2.122447
v 0.289890 0.023243 -1.461967
v 0.147785 0.009362 -0.745304
v 0.188094 1.517370 -0.633829
v 0.368961 1.473336 -1.243301
v 0.535648 1.401830 -1.804993
v 0.681750 1.305598 -2.297321
v 0.801653 1.188340 -2.701363
v 0.890750 1.054560 -3.001594
v 0.945615 0.909401 -3.186475
v 0.964140 0.708951 -3.248901
v 0.945615 0.201020 -3.186475
v 0.890750 0.155260 -3.001594
v 0.801653 0.113087 -2.701363
v 0.681750 0.076122 -2.297321
v 0.535648 0.045785 -1.804993
v 0.368961 0.023243 -1.243301
v 0.188094 0.009362 -0.633829
v 0.221176 1.517370 -0.497996
v 0.433852 1.473336 -0.976855
v 0.629855 1.401830 -1.418174
v 0.801654 1.305598 -1.804993
v 0.942645 1.188340 -2.122447
v 1.047411 1.054560 -2.358338
v 1.111925 0.909401 -2.503597
v 1.133709 0.708951 -2.552645
v 1.111925 0.201020 -2.503597
v 1.047411 0.155260 -2.358338
v 0.942645 0.113087 -2.122447
v 0.801654 0.076122 -1.804993
v 0.629855 0.045785 -1.418174
v 0.433852 0.023243 -0.976855
v 0.221176 0.009362 -0.497996
v -0.000000 1.532238 0.000000
v 0.245757 1.517370 -0.343026
v 0.482070 1.473336 -0.672870
v 0.699857 1.401830 -0.976855
v 0.890750 1.305598 -1.243301
v 1.047411 1.188340 -1.461967
v 1.163820 1.054560 -1.624451
v 1.235505 0.909401 -1.724508
v 1.259710 0.708951 -1.758292
v 1.235505 0.201020 -1.724508
v 1.163820 0.155260 -1.624451
v 1.047411 0.113087 -1.461967
v 0.890750 0.076122 -1.243301
v 0.699857 0.045785 -0.976855
v 0.482070 0.023243 -0.672870
v 0.245757 0.009362 -0.343026
v 0.260894 1.517370 -0.174873
v 0.511763 1.473336 -0.343026
v 0.742965 1.401830 -0.497996
v 0.945615 1.305598 -0.633829
v 1.111925 1.188340 -0.745304
v 1.235505 1.054560 -0.828138
v 1.311605 0.909401 -0.879146
v 1.337301 0.708951 -0.896369
v 1.311605 0.201020 -0.879146
v 1.235505 0.155260 -0.828138
v 1.111925 0.113087 -0.745304
v 0.945615 0.076122 -0.633829
v 0.742965 0.045785 -0.497996
v 0.511763 0.023243 -0.343026
v 0.260894 0.009362 -0.174873
v 0.266006 1.517370 0.000000
v 0.521789 1.473336 0.000000
v 0.757520 1.401830 0.000000
v 0.964140 1.305598 0.000000
v 1.133709 1.188340 0.000000
v 1.259710 1.054560 -0.000000
v 1.337301 0.909401 0.000000
v 1.363500 0.708951 0.000001
v 1.337301 0.201020 0.000000
v 1.259710 0.155260 -0.000000
v 1.133709 0.113087 0.000000
v 0.964140 0.076122 0.000000
v 0.757520 0.045785 0.000000
v 0.521789 0.023243 0.000000
v 0.266006 0.009362 0.000000
v 0.260894 1.517370 0.174873
v 0.511763 1.473336 0.343026
v 0.742965 1.401830 0.497997
v 0.945615 1.305598 0.633829
v 1.111925 1.188340 0.745305
v 1.235505 1.054560 0.828138
v 1.311605 0.909401 0.879147
v 1.337301 0.708951 0.896371
v 1.311605 0.201020 0.879147
v 1.235505 0.155260 0.828138
v 1.111925 0.113087 0.745305
v 0.945615 0.076122 0.633829
v 0.742965 0.045785 0.497997
v 0.511763 0.023243 0.343026
v 0.260894 0.009362 0.174873
v 0.245757 1.517370 0.343026
v 0.482070 1.473336 0.672870
v 0.699857 1.401830 0.976856
v 0.890750 1.305598 1.243301
v 1.047410 1.188340 1.461968
v 1.163820 1.054560 1.624451
v 1.235505 0.909401 1.724508
v 1.259710 0.708951 1.758294
v 1.235505 0.201020 1.724508
v 1.163820 0.155260 1.624451
v 1.047410 0.113087 1.461968
v 0.890750 0.076122 1.243301
v 0.699857 0.045785 0.976856
v 0.482070 0.023243 0.672870
v 0.245757 0.009362 0.343026
v 0.221176 1.517370 0.497996
v 0.433852 1.473336 0.976855
v 0.629855 1.401830 1.418174
v 0.801653 1.305598 1.804993
v 0.942644 1.188340 2.122447
v 1.047411 1.054560 2.358337
v 1.111925 0.909401 2.503597
v 1.133709 0.708951 2.552646
v 1.111925 0.201020 2.503597
v 1.047411 0.155260 2.358337
v 0.942644 0.113087 2.122447
v 0.801653 0.076122 1.804993
v 0.629855 0.045785 1.418174
v 0.433852 0.023243 0.976855
v 0.221176 0.009362 0.497996
v 0.188094 1.517370 0.633829
v 0.368960 1.473336 1.243301
v 0.535648 1.401830 1.804993
v 0.681750 1.305598 2.297321
v 0.801653 1.188340 2.701363
v 0.890750 1.054560 3.001594
v 0.945615 0.909401 3.186475
v 0.964140 0.708951 3.248902
v 0.945615 0.201020 3.186475
v 0.890750 0.155260 3.001594
v 0.801653 0.113087 2.701363
v 0.681750 0.076122 2.297321
v 0.535648 0.045785 1.804993
v 0.368960 0.023243 1.243301
v 0.188094 0.009362 0.633829
v 0.147785 1.517370 0.745304
v 0.289890 1.473336 1.461967
v 0.420855 1.401830 2.122447
v 0.535648 1.305598 2.701363
v 0.629855 1.188340 3.176466
v 0.699857 1.054560 3.529501
v 0.742964 0.909401 3.746898
v 0.757520 0.708951 3.820304
v 0.742964 0.201020 3.746898
v 0.699857 0.155260 3.529501
v 0.629855 0.113087 3.176466
v 0.535648 0.076122 2.701363
v 0.420855 0.045785 2.122447
v 0.289890 0.023243 1.461967
v 0.147785 0.009362 0.745304
v 0.101796 1.517370 0.828138
v 0.199680 1.473336 1.624451
v 0.289890 1.401830 2.358337
v 0.368961 1.305598 3.001594
v 0.433851 1.188340 3.529500
v 0.482070 1.054560 3.921771
v 0.511763 0.909401 4.163330
v 0.521788 0.708951 4.244894
v 0.511763 0.201020 4.163330
v 0.482070 0.155260 3.921771
v 0.433851 0.113087 3.529500
v 0.368961 0.076122 3.001594
v 0.289890 0.045785 2.358337
v 0.199680 0.023243 1.624451
v 0.101796 0.009362 0.828138
v 0.051895 1.517370 0.879146
v 0.101796 1.473336 1.724508
v 0.147785 1.401830 2.503597
v 0.188094 1.305598 3.186475
v 0.221175 1.188340 3.746897
v 0.245757 1.054560 4.163330
v 0.260894 0.909401 4.419767
v 0.266005 0.708951 4.506355
v 0.260894 0.201020 4.419767
v 0.245757 0.155260 4.163330
v 0.221175 0.113087 3.746897
v 0.188094 0.076122 3.186475
v 0.147785 0.045785 2.503597
v 0.101796 0.023243 1.724508
v 0.051895 0.009362 0.879146
v -0.000000 1.517370 0.896370
v -0.000000 1.473336 1.758293
v -0.000000 1.401830 2.552645
v -0.000000 1.305598 3.248902
v -0.000000 1.188340 3.820303
v 0.000000 1.054560 4.244894
v -0.000000 0.909401 4.506355
v -0.000000 0.708951 4.594639
v -0.000000 0.201020 4.506355
v 0.000000 0.155260 4.244894
v -0.000000 0.113087 3.820303
v -0.000000 0.076122 3.248902
v -0.000000 0.045785 2.552645
v -0.000000 0.023243 1.758293
v -0.000000 0.009362 0.896370
v -0.051895 1.517370 0.879146
v -0.101796 1.473336 1.724508
v -0.147785 1.401830 2.503597
v -0.188094 1.305598 3.186475
v -0.221176 1.188340 3.746897
v -0.245757 1.054560 4.163330
v -0.260895 0.909401 4.419767
v -0.266006 0.708951 4.506353
v -0.260895 0.201020 4.419767
v -0.245757 0.155260 4.163330
v -0.221176 0.113087 3.746897
v -0.188094 0.076122 3.186475
v -0.147785 0.045785 2.503597
v -0.101796 0.023243 1.724508
v -0.051895 0.009362 0.879146
v -0.101796 1.517370 0.828138
v -0.199680 1.473336 1.624451
v -0.289890 1.401830 2.358336
v -0.368961 1.305598 3.001594
v -0.433852 1.188340 3.529500
v -0.482070 1.054560 3.921771
v -0.511763 0.909401 4.163329
v -0.521789 0.708951 4.244892
v -0.511763 0.201020 4.163329
v -0.482070 0.155260 3.921771
v -0.433852 0.113087 3.529500
v -0.368961 0.076122 3.001594
v -0.289890 0.045785 2.358336
v -0.199680 0.023243 1.624451
v -0.101796 0.009362 0.828138
v -0.147785 1.517370 0.745304
v -0.289890 1.473336 1.461967
v -0.420856 1.401830 2.122446
v -0.535648 1.305598 2.701363
v -0.629855 1.188340 3.176466
v -0.699857 1.054560 3.529500
v -0.742965 0.909401 3.746897
v -0.757520 0.708951 3.820301
v -0.742965 0.201020 3.746897
v -0.699857 0.155260 3.529500
v -0.629855 0.113087 3.176466
v -0.535648 0.076122 2.701363
v -0.420856 0.045785 2.122446
v -0.289890 0.023243 1.461967
v -0.147785 0.009362 0.745304
v -0.188094 1.517370 0.633829
v -0.368961 1.473336 1.243301
v -0.535648 1.401830 1.804992
v -0.681750 1.305598 2.297320
v -0.801653 1.188340 2.701362
v -0.890749 1.054560 3.001593
v -0.945615 0.909401 3.186474
v -0.964140 0.708951 3.248899
v -0.945615 0.201020 3.186474
v -0.890749 0.155260 3.001593
v -0.801653 0.113087 2.701362
v -0.681750 0.076122 2.297320
v -0.535648 0.045785 1.804992
v -0.368961 0.023243 1.243301
v -0.188094 0.009362 0.633829
v -0.000000 0.004675 0.000000
v -0.221176 1.517370 0.497996
v -0.433852 1.473336 0.976855
v -0.629855 1.401830 1.418173
v -0.801653 1.305598 1.804993
v -0.942645 1.188340 2.122446
v -1.047410 1.054560 2.358337
v -1.111925 0.909401 2.503596
v -1.133709 0.708951 2.552642
v -1.111925 0.201020 2.503596
v -1.047410 0.155260 2.358337
v -0.942645 0.113087 2.122446
v -0.801653 0.076122 1.804993
v -0.629855 0.045785 1.418173
v -0.433852 0.023243 0.976855
v -0.221176 0.009362 0.497996
v -0.245757 1.517370 0.343026
v -0.482070 1.473336 0.672869
v -0.699857 1.401830 0.976854
v -0.890750 1.305598 1.243301
v -1.047410 1.188340 1.461966
v -1.163820 1.054560 1.624451
v -1.235505 0.909401 1.724506
v -1.259709 0.708951 1.758290
v -1.235505 0.201020 1.724506
v -1.163820 0.155260 1.624451
v -1.047410 0.113087 1.461966
v -0.890750 0.076122 1.243301
v -0.699857 0.045785 0.976854
v -0.482070 0.023243 0.672869
v -0.245757 0.009362 0.343026
v -0.260894 1.517370 0.174873
v -0.511763 1.473336 0.343026
v -0.742964 1.401830 0.497996
v -0.945615 1.305598 0.633829
v -1.111925 1.188340 0.745303
v -1.235505 1.054560 0.828138
v -1.311605 0.909401 0.879145
v -1.337300 0.708951 0.896367
v -1.311605 0.201020 0.879145
v -1.235505 0.155260 0.828138
v -1.111925 0.113087 0.745303
v -0.945615 0.076122 0.633829
v -0.742964 0.045785 0.497996
v -0.511763 0.023243 0.343026
v -0.260894 0.009362 0.174873
v -0.266006 1.517370 -0.000000
v -0.521789 1.473336 -0.000000
v -0.757520 1.401830 -0.000001
v -0.964140 1.305598 -0.000000
v -1.133709 1.188340 -0.000001
v -1.259710 1.054560 0.000000
v -1.337301 0.909401 -0.000001
v -1.363499 0.708951 -0.000002
v -1.337301 0.201020 -0.000001
v -1.259710 0.155260 0.000000
v -1.133709 0.113087 -0.000001
v -0.964140 0.076122 -0.000000
v -0.757520 0.045785 -0.000001
v -0.521789 0.023243 -0.000000
v -0.266006 0.009362 -0.000000
v -0.260894 1.517370 -0.174873
v -0.511763 1.473336 -0.343026
v -0.742964 1.401830 -0.497997
v -0.945615 1.305598 -0.633829
v -1.111925 1.188340 -0.745305
v -1.235505 1.054560 -0.828138
v -1.311605 0.909401 -0.879147
v -1.337300 0.708951 -0.896371
v -1.311605 0.201020 -0.879147
v -1.235505 0.155260 -0.828138
v -1.111925 0.113087 -0.745305
v -0.945615 0.076122 -0.633829
v -0.742964 0.045785 -0.497997
v -0.511763 0.023243 -0.343026
v -0.260894 0.009362 -0.174873
v -0.245757 1.517370 -0.343026
v -0.482070 1.473336 -0.672870
v -0.699857 1.401830 -0.976855
v -0.890749 1.305598 -1.243301
v -1.047410 1.188340 -1.461967
v -1.163820 1.054560 -1.624450
v -1.235505 0.909401 -1.724508
v -1.259709 0.708951 -1.758293
v -1.235505 0.201020 -1.724508
v -1.163820 0.155260 -1.624450
v -1.047410 0.113087 -1.461967
v -0.890749 0.076122 -1.243301
v -0.699857 0.045785 -0.976855
v -0.482070 0.023243 -0.672870
v -0.245757 0.009362 -0.343026
v -0.221176 1.517370 -0.497996
v -0.433852 1.473336 -0.976855
v -0.629854 1.401830 -1.418173
v -0.801653 1.305598 -1.804993
v -0.942644 1.188340 -2.122447
v -1.047410 1.054560 -2.358336
v -1.111925 0.909401 -2.503597
v -1.133708 0.708951 -2.552645
v -1.111925 0.201020 -2.503597
v -1.047410 0.155260 -2.358336
v -0.942644 0.113087 -2.122447
v -0.801653 0.076122 -1.804993
v -0.629854 0.045785 -1.418173
v -0.433852 0.023243 -0.976855
v -0.221176 0.009362 -0.497996
v -0.188094 1.517370 -0.633829
v -0.368960 1.473336 -1.243300
v -0.535647 1.401830 -1.804992
v -0.681750 1.305598 -2.297320
v -0.801653 1.188340 -2.701362
v -0.890749 1.054560 -3.001593
v -0.945614 0.909401 -3.186474
v -0.964139 0.708951 -3.248900
v -0.945614 0.201020 -3.186474
v -0.890749 0.155260 -3.001593
v -0.801653 0.113087 -2.701362
v -0.681750 0.076122 -2.297320
v -0.535647 0.045785 -1.804992
v -0.368960 0.023243 -1.243300
v -0.188094 0.009362 -0.633829
v -0.147785 1.517370 -0.745304
v -0.289890 1.473336 -1.461967
v -0.420855 1.401830 -2.122446
v -0.535648 1.305598 -2.701363
v -0.629854 1.188340 -3.176466
v -0.699857 1.054560 -3.529500
v -0.742964 0.909401 -3.746897
v -0.757519 0.708951 -3.820302
v -0.742964 0.201020 -3.746897
v -0.699857 0.155260 -3.529500
v -0.629854 0.113087 -3.176466
v -0.535648 0.076122 -2.701363
v -0.420855 0.045785 -2.122446
v -0.289890 0.023243 -1.461967
v -0.147785 0.009362 -0.745304
v -0.101796 1.517370 -0.828137
v -0.199680 1.473336 -1.624450
v -0.289890 1.401830 -2.358335
v -0.368960 1.305598 -3.001594
v -0.433851 1.188340 -3.529499
v -0.482070 1.054560 -3.921770
v -0.511762 0.909401 -4.163329
v -0.521788 0.708951 -4.244891
v -0.511762 0.201020 -4.163329
v -0.482070 0.155260 -3.921770
v -0.433851 0.113087 -3.529499
v -0.368960 0.076122 -3.001594
v -0.289890 0.045785 -2.358335
v -0.199680 0.023243 -1.624450
v -0.101796 0.009362 -0.828137
v -0.051895 1.517370 -0.879146
v -0.101796 1.473336 -1.724507
v -0.147784 1.401830 -2.503595
v -0.188094 1.305598 -3.186475
v -0.221175 1.188340 -3.746896
v -0.245757 1.054560 -4.163329
v -0.260894 0.909401 -4.419766
v -0.266005 0.708951 -4.506352
v -0.260894 0.201020 -4.419766
v -0.245757 0.155260 -4.163329
v -0.221175 0.113087 -3.746896
v -0.188094 0.076122 -3.186475
v -0.147784 0.045785 -2.503595
v -0.101796 0.023243 -1.724507
v -0.051895 0.009362 -0.879146
v 0.000000 1.517370 -0.896369
v 0.000000 1.473336 -1.758292
v 0.000000 1.305598 -3.248901
v 0.000000 1.054560 -4.244893
v 0.000000 0.155260 -4.244893
v 0.000000 0.076122 -3.248901
v 0.000000 0.045785 -2.552643
v 0.000000 0.023243 -1.758292
v 0.000000 0.009362 -0.896369
v -0.000000 0.462581 -4.550499
v 0.263450 0.462581 -4.463062
v 0.516776 0.462581 -4.204113
v 0.750243 0.462581 -3.783602
v 0.954878 0.462581 -3.217688
v 1.122817 0.462581 -2.528121
v 1.247607 0.462581 -1.741400
v 1.324453 0.462581 -0.887758
v 1.350401 0.462581 0.000001
v 1.324453 0.462581 0.887759
v 1.247607 0.462581 1.741401
v 1.122817 0.462581 2.528122
v 0.954877 0.462581 3.217688
v 0.750242 0.462581 3.783601
v 0.516776 0.462581 4.204112
v 0.263450 0.462581 4.463061
v -0.000000 0.462581 4.550497
v -0.263450 0.462581 4.463060
v -0.516776 0.462581 4.204110
v -0.750242 0.462581 3.783599
v -0.954877 0.462581 3.217686
v -1.122817 0.462581 2.528119
v -1.247607 0.462581 1.741398
v -1.324453 0.462581 0.887756
v -1.350400 0.462581 -0.000002
v -1.324452 0.462581 -0.887759
v -1.247607 0.462581 -1.741401
v -1.122816 0.462581 -2.528121
v -0.954877 0.462581 -3.217687
v -0.750242 0.462581 -3.783600
v -0.516775 0.462581 -4.204110
v -0.263449 0.462581 -4.463059
v -0.000000 0.701616 -4.265211
v 0.246933 0.701616 -4.183256
v 0.484377 0.701616 -3.940541
v 0.703207 0.701616 -3.546393
v 0.895013 0.701616 -3.015959
v 1.052423 0.701616 -2.369623
v 1.169390 0.701616 -1.632225
v 1.241418 0.701616 -0.832101
v 1.265739 0.701616 0.000001
v 1.241418 0.701616 0.832102
v 1.169390 0.701616 1.632226
v 1.052423 0.701616 2.369624
v 0.895012 0.701616 3.015959
v 0.703206 0.701616 3.546392
v 0.484377 0.701616 3.940540
v 0.246933 0.701616 4.183254
v -0.000000 0.701616 4.265209
v -0.246934 0.701616 4.183253
v -0.484377 0.701616 3.940538
v -0.703207 0.701616 3.546390
v -0.895012 0.701616 3.015956
v -1.052423 0.701616 2.369621
v -1.169390 0.701616 1.632223
v -1.241417 0.701616 0.832099
v -1.265738 0.701616 -0.000002
v -1.241417 0.701616 -0.832102
v -1.169389 0.701616 -1.632226
v -1.052422 0.701616 -2.369624
v -0.895011 0.701616 -3.015958
v -0.703206 0.701616 -3.546391
v -0.484376 0.701616 -3.940537
v -0.246933 0.701616 -4.183252
v -0.000000 0.469916 -4.224234
v 0.244561 0.469916 -4.143066
v 0.479724 0.469916 -3.902683
v 0.696451 0.469916 -3.512322
v 0.886414 0.469916 -2.986984
v 1.042313 0.469916 -2.346858
v 1.158155 0.469916 -1.616544
v 1.229491 0.469916 -0.824107
v 1.253578 0.469916 0.000001
v 1.229491 0.469916 0.824108
v 1.158155 0.469916 1.616544
v 1.042312 0.469916 2.346858
v 0.886414 0.469916 2.986984
v 0.696451 0.469916 3.512321
v 0.479723 0.469916 3.902682
v 0.244561 0.469916 4.143064
v -0.000000 0.469916 4.224232
v -0.244561 0.469916 4.143064
v -0.479724 0.469916 3.902680
v -0.696451 0.469916 3.512319
v -0.886414 0.469916 2.986982
v -1.042312 0.469916 2.346856
v -1.158155 0.469916 1.616542
v -1.229491 0.469916 0.824105
v -1.253578 0.469916 -0.000001
v -1.229491 0.469916 -0.824108
v -1.158155 0.469916 -1.616544
v -1.042312 0.469916 -2.346858
v -0.886413 0.469916 -2.986983
v -0.696450 0.469916 -3.512320
v -0.479723 0.469916 -3.902680
v -0.244560 0.469916 -4.143063
vn 0.0454 0.9896 -0.1368
vn 0.0214 -0.9977 -0.0645
vn 0.0666 0.9774 -0.2006
vn 0.0144 -0.9989 -0.0435
vn 0.0992 0.9491 -0.2990
vn 0.0094 -0.9996 -0.0284
vn 0.1590 0.8632 -0.4792
vn 0.0053 -0.9999 -0.0161
vn 0.2906 0.3857 -0.8757
vn 0.0055 0.9998 -0.0166
vn 0.0017 -1.0000 -0.0052
vn -0.0720 -0.9974 -0.0065
vn 0.0169 0.9986 -0.0510
vn 0.0571 -0.9834 -0.1721
vn 0.0297 0.9955 -0.0896
vn 0.0328 -0.9946 -0.0988
vn 0.0878 0.9924 -0.0859
vn 0.0967 -0.9908 -0.0946
vn 0.1335 0.9824 -0.1306
vn 0.0633 -0.9961 -0.0620
vn 0.1941 0.9624 -0.1899
vn 0.0427 -0.9982 -0.0418
vn 0.2842 0.9176 -0.2780
vn 0.0279 -0.9992 -0.0273
vn 0.4338 0.7949 -0.4243
vn 0.0158 -0.9998 -0.0155
vn 0.6808 0.3050 -0.6660
vn 0.0163 0.9997 -0.0159
vn 0.0051 -1.0000 -0.0050
vn -0.0587 0.9982 0.0143
vn 0.0501 0.9975 -0.0490
vn 0.1673 -0.9722 -0.1636
vn 0.6224 0.7023 -0.3455
vn 0.0257 -0.9996 -0.0143
vn 0.8499 0.2345 -0.4719
vn 0.0265 0.9995 -0.0147
vn 0.0083 -1.0000 -0.0046
vn -0.0478 -0.9987 0.0173
vn 0.0812 0.9957 -0.0451
vn 0.2661 -0.9526 -0.1477
vn 0.1418 0.9868 -0.0787
vn 0.1560 -0.9840 -0.0866
vn 0.2139 0.9696 -0.1188
vn 0.1025 -0.9931 -0.0569
vn 0.3067 0.9364 -0.1703
vn 0.0693 -0.9969 -0.0385
vn 0.4359 0.8668 -0.2420
vn 0.0452 -0.9987 -0.0251
vn 0.2081 -0.9752 -0.0752
vn 0.2831 0.9536 -0.1024
vn 0.1375 -0.9893 -0.0497
vn 0.3991 0.9055 -0.1443
vn 0.0931 -0.9951 -0.0337
vn 0.5493 0.8116 -0.1986
vn 0.0608 -0.9979 -0.0220
vn 0.7384 0.6192 -0.2670
vn 0.0346 -0.9993 -0.0125
vn 0.9234 0.1893 -0.3339
vn 0.0356 0.9993 -0.0129
vn 0.0112 -0.9999 -0.0041
vn -0.0670 0.9977 0.0106
vn 0.1090 0.9933 -0.0394
vn 0.3491 -0.9285 -0.1262
vn 0.1894 0.9795 -0.0685
vn 0.0421 -0.9991 -0.0103
vn 0.9589 0.1613 -0.2335
vn 0.0434 0.9990 -0.0106
vn 0.0137 -0.9999 -0.0033
vn -0.0074 -0.9997 0.0223
vn 0.1325 0.9907 -0.0323
vn 0.4144 -0.9045 -0.1009
vn 0.2290 0.9718 -0.0558
vn 0.2511 -0.9660 -0.0612
vn 0.3390 0.9371 -0.0826
vn 0.1668 -0.9852 -0.0406
vn 0.4701 0.8752 -0.1145
vn 0.1133 -0.9932 -0.0276
vn 0.6287 0.7624 -0.1531
vn 0.0741 -0.9971 -0.0180
vn 0.8077 0.5558 -0.1967
vn 0.3808 0.9227 -0.0604
vn 0.1896 -0.9814 -0.0301
vn 0.5207 0.8497 -0.0826
vn 0.1290 -0.9914 -0.0205
vn 0.6812 0.7240 -0.1081
vn 0.0844 -0.9963 -0.0134
vn 0.8485 0.5118 -0.1346
vn 0.0480 -0.9988 -0.0076
vn 0.9773 0.1441 -0.1550
vn 0.0495 0.9987 -0.0078
vn 0.0156 -0.9999 -0.0025
vn -0.0726 0.9973 0.0065
vn 0.1508 0.9883 -0.0239
vn 0.4620 -0.8839 -0.0733
vn 0.2594 0.9649 -0.0411
vn 0.2841 -0.9577 -0.0451
vn 0.9870 0.1342 -0.0888
vn 0.0537 0.9985 -0.0048
vn 0.0169 -0.9999 -0.0015
vn -0.0478 -0.9987 -0.0173
vn 0.1633 0.9865 -0.0147
vn 0.4928 -0.8690 -0.0444
vn 0.2799 0.9597 -0.0252
vn 0.3062 -0.9516 -0.0276
vn 0.4085 0.9120 -0.0368
vn 0.2051 -0.9786 -0.0185
vn 0.5530 0.8317 -0.0498
vn 0.1398 -0.9901 -0.0126
vn 0.7129 0.6983 -0.0642
vn 0.0916 -0.9958 -0.0082
vn 0.8713 0.4844 -0.0784
vn 0.0521 -0.9986 -0.0047
vn 0.2130 -0.9770 -0.0062
vn 0.5687 0.8224 -0.0166
vn 0.1453 -0.9894 -0.0042
vn 0.7278 0.6855 -0.0213
vn 0.0952 -0.9955 -0.0028
vn 0.8816 0.4712 -0.0258
vn 0.0542 -0.9985 -0.0016
vn 0.9912 0.1295 -0.0290
vn 0.0558 0.9984 -0.0016
vn 0.0176 -0.9998 -0.0005
vn 0.0748 -0.9972 -0.0022
vn 0.1697 0.9855 -0.0050
vn 0.5079 -0.8613 -0.0148
vn 0.2903 0.9569 -0.0085
vn 0.3174 -0.9483 -0.0093
vn 0.4222 0.9064 -0.0123
vn 0.0176 -0.9998 0.0005
vn -0.0755 0.9971 0.0022
vn 0.1697 0.9855 0.0050
vn 0.5079 -0.8613 0.0148
vn 0.2903 0.9569 0.0085
vn 0.3174 -0.9483 0.0093
vn 0.4222 0.9064 0.0123
vn 0.2130 -0.9770 0.0062
vn 0.5687 0.8224 0.0166
vn 0.1453 -0.9894 0.0042
vn 0.7278 0.6855 0.0213
vn 0.0952 -0.9955 0.0028
vn 0.8816 0.4712 0.0258
vn 0.0542 -0.9985 0.0016
vn 0.9912 0.1295 0.0290
vn 0.0558 0.9984 0.0016
vn 0.1398 -0.9901 0.0126
vn 0.7129 0.6983 0.0642
vn 0.0916 -0.9958 0.0082
vn 0.8713 0.4844 0.0784
vn 0.0521 -0.9986 0.0047
vn 0.9870 0.1342 0.0888
vn 0.0537 0.9985 0.0048
vn 0.0169 -0.9999 0.0015
vn -0.0755 0.9971 -0.0022
vn 0.1633 0.9865 0.0147
vn 0.4928 -0.8690 0.0444
vn 0.2799 0.9597 0.0252
vn 0.3062 -0.9516 0.0276
vn 0.4085 0.9120 0.0368
vn 0.2051 -0.9786 0.0185
vn 0.5530 0.8317 0.0498
vn 0.1508 0.9883 0.0239
vn 0.4620 -0.8839 0.0733
vn 0.2594 0.9649 0.0411
vn 0.2841 -0.9577 0.0451
vn 0.3808 0.9227 0.0604
vn 0.1896 -0.9814 0.0301
vn 0.5207 0.8497 0.0826
vn 0.1290 -0.9914 0.0205
vn 0.6812 0.7240 0.1081
vn 0.0844 -0.9963 0.0134
vn 0.8485 0.5118 0.1346
vn 0.0480 -0.9988 0.0076
vn 0.9773 0.1441 0.1550
vn 0.0495 0.9987 0.0078
vn 0.0156 -0.9999 0.0025
vn -0.0748 -0.9972 0.0022
vn 0.6287 0.7624 0.1531
vn 0.0741 -0.9971 0.0180
vn 0.8077 0.5558 0.1967
vn 0.0421 -0.9991 0.0103
vn 0.9589 0.1613 0.2335
vn 0.0434 0.9990 0.0106
vn 0.0137 -0.9999 0.0033
vn -0.0663 -0.9977 -0.0105
vn 0.1325 0.9907 0.0323
vn 0.4144 -0.9045 0.1009
vn 0.2290 0.9718 0.0558
vn 0.2511 -0.9660 0.0612
vn 0.3390 0.9371 0.0826
vn 0.1668 -0.9852 0.0406
vn 0.4701 0.8752 0.1145
vn 0.1133 -0.9932 0.0276
vn 0.3491 -0.9285 0.1262
vn 0.1894 0.9795 0.0685
vn 0.2081 -0.9752 0.0752
vn 0.2831 0.9536 0.1024
vn 0.1375 -0.9893 0.0497
vn 0.3991 0.9055 0.1443
vn 0.0931 -0.9951 0.0337
vn 0.5493 0.8116 0.1986
vn 0.0608 -0.9979 0.0220
vn 0.7384 0.6192 0.2670
vn 0.0346 -0.9993 0.0125
vn 0.9234 0.1893 0.3339
vn 0.0356 0.9993 0.0129
vn 0.0112 -0.9999 0.0041
vn -0.0726 0.9973 -0.0065
vn 0.1090 0.9933 0.0394
vn 0.0452 -0.9987 0.0251
vn 0.6224 0.7023 0.3455
vn 0.0257 -0.9996 0.0143
vn 0.8499 0.2345 0.4719
vn 0.0265 0.9995 0.0147
vn 0.0083 -1.0000 0.0046
vn -0.0670 0.9977 -0.0106
vn 0.0812 0.9957 0.0451
vn 0.2661 -0.9526 0.1477
vn 0.1418 0.9868 0.0787
vn 0.1560 -0.9840 0.0866
vn 0.2139 0.9696 0.1188
vn 0.1025 -0.9931 0.0569
vn 0.3067 0.9364 0.1703
vn 0.0693 -0.9969 0.0385
vn 0.4359 0.8668 0.2420
vn 0.0878 0.9924 0.0859
vn 0.0967 -0.9908 0.0946
vn 0.1335 0.9824 0.1306
vn 0.0633 -0.9961 0.0620
vn 0.1941 0.9624 0.1899
vn 0.0427 -0.9982 0.0418
vn 0.2842 0.9176 0.2780
vn 0.0279 -0.9992 0.0273
vn 0.4338 0.7949 0.4243
vn 0.0158 -0.9998 0.0155
vn 0.6808 0.3050 0.6660
vn 0.0163 0.9997 0.0159
vn 0.0051 -1.0000 0.0050
vn 0.0075 0.9997 -0.0225
vn 0.0501 0.9975 0.0490
vn 0.1673 -0.9722 0.1636
vn 0.1590 0.8632 0.4792
vn 0.0053 -0.9999 0.0161
vn 0.2906 0.3857 0.8757
vn 0.0055 0.9998 0.0166
vn 0.0017 -1.0000 0.0052
vn 0.0219 -0.9995 0.0214
vn 0.0169 0.9986 0.0510
vn 0.0571 -0.9834 0.1721
vn 0.0297 0.9955 0.0896
vn 0.0328 -0.9946 0.0988
vn 0.0454 0.9896 0.1368
vn 0.0214 -0.9977 0.0645
vn 0.0666 0.9774 0.2006
vn 0.0144 -0.9989 0.0435
vn 0.0992 0.9491 0.2990
vn 0.0094 -0.9996 0.0284
vn -0.0328 -0.9946 0.0988
vn -0.0454 0.9896 0.1368
vn -0.0214 -0.9977 0.0645
vn -0.0666 0.9774 0.2006
vn -0.0144 -0.9989 0.0435
vn -0.0992 0.9491 0.2990
vn -0.0094 -0.9996 0.0284
vn -0.1590 0.8632 0.4792
vn -0.0053 -0.9999 0.0161
vn -0.2906 0.3857 0.8757
vn -0.0055 0.9998 0.0166
vn -0.0017 -1.0000 0.0052
vn 0.0748 -0.9972 0.0022
vn -0.0169 0.9986 0.0510
vn -0.0571 -0.9834 0.1721
vn -0.0297 0.9955 0.0896
vn -0.0158 -0.9998 0.0155
vn -0.6808 0.3050 0.6660
vn -0.0163 0.9997 0.0159
vn -0.0051 -1.0000 0.0050
vn -0.0587 0.9982 -0.0143
vn -0.0501 0.9975 0.0490
vn -0.1673 -0.9722 0.1636
vn -0.0878 0.9924 0.0859
vn -0.0967 -0.9908 0.0946
vn -0.1335 0.9824 0.1306
vn -0.0633 -0.9961 0.0620
vn -0.1941 0.9624 0.1899
vn -0.0427 -0.9982 0.0418
vn -0.2842 0.9176 0.2780
vn -0.0279 -0.9992 0.0273
vn -0.4338 0.7949 0.4243
vn -0.1025 -0.9931 0.0569
vn -0.3067 0.9364 0.1703
vn -0.0693 -0.9969 0.0385
vn -0.4359 0.8668 0.2420
vn -0.0452 -0.9987 0.0251
vn -0.6224 0.7023 0.3455
vn -0.0257 -0.9996 0.0143
vn -0.8499 0.2345 0.4719
vn -0.0265 0.9995 0.0147
vn -0.0083 -1.0000 0.0046
vn 0.0221 0.9995 -0.0216
vn -0.0812 0.9957 0.0451
vn -0.2661 -0.9526 0.1477
vn -0.1418 0.9868 0.0787
vn -0.1560 -0.9840 0.0866
vn -0.2139 0.9696 0.1188
vn -0.0356 0.9993 0.0129
vn -0.0112 -0.9999 0.0041
vn 0.0663 -0.9977 -0.0105
vn -0.1090 0.9933 0.0394
vn -0.3491 -0.9285 0.1262
vn -0.1894 0.9795 0.0685
vn -0.2081 -0.9752 0.0752
vn -0.2831 0.9536 0.1024
vn -0.1375 -0.9893 0.0497
vn -0.3991 0.9055 0.1443
vn -0.0931 -0.9951 0.0337
vn -0.5493 0.8116 0.1986
vn -0.0608 -0.9979 0.0220
vn -0.7384 0.6192 0.2670
vn -0.0346 -0.9993 0.0125
vn -0.9234 0.1893 0.3339
vn -0.4701 0.8752 0.1145
vn -0.1133 -0.9932 0.0276
vn -0.6287 0.7624 0.1531
vn -0.0741 -0.9971 0.0180
vn -0.8077 0.5558 0.1967
vn -0.0421 -0.9991 0.0103
vn -0.9589 0.1613 0.2335
vn -0.0434 0.9990 0.0106
vn -0.0137 -0.9999 0.0033
vn -0.0219 -0.9995 0.0214
vn -0.1325 0.9907 0.0323
vn -0.4144 -0.9045 0.1009
vn -0.2290 0.9718 0.0558
vn -0.2511 -0.9660 0.0612
vn -0.3390 0.9371 0.0826
vn -0.1668 -0.9852 0.0406
vn -0.0482 0.9987 -0.0174
vn -0.1508 0.9883 0.0239
vn -0.4620 -0.8839 0.0733
vn -0.2594 0.9649 0.0411
vn -0.2841 -0.9577 0.0451
vn -0.3808 0.9227 0.0604
vn -0.1896 -0.9814 0.0301
vn -0.5207 0.8497 0.0826
vn -0.1290 -0.9914 0.0205
vn -0.6812 0.7240 0.1081
vn -0.0844 -0.9963 0.0134
vn -0.8485 0.5118 0.1346
vn -0.0480 -0.9988 0.0076
vn -0.9773 0.1441 0.1550
vn -0.0495 0.9987 0.0078
vn -0.0156 -0.9999 0.0025
vn -0.1398 -0.9901 0.0126
vn -0.7129 0.6983 0.0642
vn -0.0916 -0.9958 0.0082
vn -0.8713 0.4844 0.0784
vn -0.0521 -0.9986 0.0047
vn -0.9870 0.1342 0.0888
vn -0.0537 0.9985 0.0048
vn -0.0169 -0.9999 0.0015
vn 0.0359 0.9992 -0.0199
vn -0.1633 0.9865 0.0147
vn -0.4928 -0.8690 0.0444
vn -0.2799 0.9597 0.0252
vn -0.3062 -0.9516 0.0276
vn -0.4085 0.9120 0.0368
vn -0.2051 -0.9786 0.0185
vn -0.5530 0.8317 0.0498
vn -0.1697 0.9855 0.0050
vn -0.5079 -0.8613 0.0148
vn -0.2903 0.9569 0.0085
vn -0.3174 -0.9483 0.0093
vn -0.4222 0.9064 0.0123
vn -0.2130 -0.9770 0.0062
vn -0.5687 0.8224 0.0166
vn -0.1453 -0.9894 0.0042
vn -0.7278 0.6855 0.0213
vn -0.0952 -0.9955 0.0028
vn -0.8816 0.4712 0.0258
vn -0.0542 -0.9985 0.0016
vn -0.9912 0.1295 0.0290
vn -0.0558 0.9984 0.0016
vn -0.0176 -0.9998 0.0005
vn -0.0359 0.9992 -0.0199
vn -0.7278 0.6855 -0.0213
vn -0.0952 -0.9955 -0.0028
vn -0.8816 0.4712 -0.0258
vn -0.0542 -0.9985 -0.0016
vn -0.9912 0.1295 -0.0290
vn -0.0558 0.9984 -0.0016
vn -0.0176 -0.9998 -0.0005
vn 0.0482 0.9987 -0.0174
vn -0.1697 0.9855 -0.0050
vn -0.5079 -0.8613 -0.0148
vn -0.2903 0.9569 -0.0085
vn -0.3174 -0.9483 -0.0093
vn -0.4222 0.9064 -0.0123
vn -0.2130 -0.9770 -0.0062
vn -0.5687 0.8224 -0.0166
vn -0.1453 -0.9894 -0.0042
vn -0.4928 -0.8690 -0.0444
vn -0.2799 0.9597 -0.0252
vn -0.3062 -0.9516 -0.0276
vn -0.4085 0.9120 -0.0368
vn -0.2051 -0.9786 -0.0185
vn -0.5530 0.8317 -0.0498
vn -0.1398 -0.9901 -0.0126
vn -0.7129 0.6983 -0.0642
vn -0.0916 -0.9958 -0.0082
vn -0.8713 0.4844 -0.0784
vn -0.0521 -0.9986 -0.0047
vn -0.9870 0.1342 -0.0888
vn -0.0537 0.9985 -0.0048
vn -0.0169 -0.9999 -0.0015
vn -0.0748 -0.9972 -0.0022
vn -0.1633 0.9865 -0.0147
vn -0.0844 -0.9963 -0.0134
vn -0.8485 0.5118 -0.1346
vn -0.0480 -0.9988 -0.0076
vn -0.9773 0.1441 -0.1550
vn -0.0495 0.9987 -0.0078
vn -0.0156 -0.9999 -0.0025
vn -0.0221 0.9995 -0.0216
vn -0.1508 0.9883 -0.0239
vn -0.4620 -0.8839 -0.0733
vn -0.2594 0.9649 -0.0411
vn -0.2841 -0.9577 -0.0451
vn -0.3808 0.9227 -0.0604
vn -0.1896 -0.9814 -0.0301
vn -0.5207 0.8497 -0.0826
vn -0.1290 -0.9914 -0.0205
vn -0.6812 0.7240 -0.1081
vn -0.2511 -0.9660 -0.0612
vn -0.3390 0.9371 -0.0826
vn -0.1668 -0.9852 -0.0406
vn -0.4701 0.8752 -0.1145
vn -0.1133 -0.9932 -0.0276
vn -0.6287 0.7624 -0.1531
vn -0.0741 -0.9971 -0.0180
vn -0.8077 0.5558 -0.1967
vn -0.0421 -0.9991 -0.0103
vn -0.9589 0.1613 -0.2335
vn -0.0434 0.9990 -0.0106
vn -0.0137 -0.9999 -0.0033
vn 0.0587 0.9982 -0.0143
vn -0.1325 0.9907 -0.0323
vn -0.4144 -0.9045 -0.1009
vn -0.2290 0.9718 -0.0558
vn -0.0346 -0.9993 -0.0125
vn -0.9234 0.1893 -0.3339
vn -0.0356 0.9993 -0.0129
vn -0.0112 -0.9999 -0.0041
vn -0.0075 0.9997 -0.0225
vn -0.1090 0.9933 -0.0394
vn -0.3491 -0.9285 -0.1262
vn -0.1894 0.9795 -0.0685
vn -0.2081 -0.9752 -0.0752
vn -0.2831 0.9536 -0.1024
vn -0.1375 -0.9893 -0.0497
vn -0.3991 0.9055 -0.1443
vn -0.0931 -0.9951 -0.0337
vn -0.5493 0.8116 -0.1986
vn -0.0608 -0.9979 -0.0220
vn -0.7384 0.6192 -0.2670
vn -0.2139 0.9696 -0.1188
vn -0.1025 -0.9931 -0.0569
vn -0.3067 0.9364 -0.1703
vn -0.0693 -0.9969 -0.0385
vn -0.4359 0.8668 -0.2420
vn -0.0452 -0.9987 -0.0251
vn -0.6224 0.7023 -0.3455
vn -0.0257 -0.9996 -0.0143
vn -0.8499 0.2345 -0.4719
vn -0.0265 0.9995 -0.0147
vn -0.0083 -1.0000 -0.0046
vn 0.0478 -0.9987 0.0173
vn -0.0812 0.9957 -0.0451
vn -0.2661 -0.9526 -0.1477
vn -0.1418 0.9868 -0.0787
vn -0.1560 -0.9840 -0.0866
vn -0.6808 0.3050 -0.6660
vn -0.0163 0.9997 -0.0159
vn -0.0051 -1.0000 -0.0050
vn 0.0670 0.9977 -0.0106
vn -0.0501 0.9975 -0.0490
vn -0.1673 -0.9722 -0.1636
vn -0.0878 0.9924 -0.0859
vn -0.0967 -0.9908 -0.0946
vn -0.1335 0.9824 -0.1306
vn -0.0633 -0.9961 -0.0620
vn -0.1941 0.9624 -0.1899
vn -0.0427 -0.9982 -0.0418
vn -0.2842 0.9176 -0.2780
vn -0.0279 -0.9992 -0.0273
vn -0.4338 0.7949 -0.4243
vn -0.0158 -0.9998 -0.0155
vn -0.0214 -0.9977 -0.0645
vn -0.0666 0.9774 -0.2006
vn -0.0144 -0.9989 -0.0435
vn -0.0992 0.9491 -0.2990
vn -0.0094 -0.9996 -0.0284
vn -0.1591 0.8632 -0.4792
vn -0.0053 -0.9999 -0.0161
vn -0.2906 0.3857 -0.8757
vn -0.0055 0.9998 -0.0166
vn -0.0017 -1.0000 -0.0052
vn 0.0074 -0.9997 0.0223
vn -0.0169 0.9986 -0.0510
vn -0.0571 -0.9834 -0.1721
vn -0.0297 0.9955 -0.0896
vn -0.0328 -0.9946 -0.0988
vn -0.0454 0.9896 -0.1368
vn -0.3110 -0.1582 -0.9371
vn -0.7095 -0.1218 -0.6941
vn -0.8706 -0.0920 -0.4833
vn -0.9379 -0.0737 -0.3391
vn -0.9697 -0.0625 -0.2362
vn -0.9861 -0.0557 -0.1564
vn -0.9946 -0.0518 -0.0895
vn -0.9983 -0.0500 -0.0292
vn -0.9983 -0.0500 0.0292
vn -0.9946 -0.0518 0.0895
vn -0.9861 -0.0557 0.1564
vn -0.9697 -0.0625 0.2362
vn -0.9379 -0.0737 0.3391
vn -0.8706 -0.0920 0.4833
vn -0.7095 -0.1218 0.6941
vn -0.3110 -0.1582 0.9371
vn 0.3110 -0.1582 0.9371
vn 0.7095 -0.1218 0.6941
vn 0.8706 -0.0920 0.4833
vn 0.9379 -0.0737 0.3391
vn 0.9697 -0.0625 0.2362
vn 0.9861 -0.0557 0.1564
vn 0.9946 -0.0518 0.0895
vn 0.9983 -0.0500 0.0292
vn 0.9983 -0.0500 -0.0292
vn 0.9946 -0.0518 -0.0895
vn 0.9861 -0.0557 -0.1564
vn 0.9697 -0.0625 -0.2362
vn 0.9379 -0.0737 -0.3391
vn 0.8706 -0.0920 -0.4833
vn 0.7095 -0.1218 -0.6941
vn 0.3110 -0.1582 -0.9371
vn 0.3106 -0.1655 -0.9360
vn 0.7090 -0.1276 -0.6936
vn 0.8702 -0.0964 -0.4831
vn 0.9376 -0.0772 -0.3390
vn 0.9695 -0.0655 -0.2361
vn 0.9860 -0.0584 -0.1564
vn 0.9945 -0.0543 -0.0895
vn 0.9982 -0.0524 -0.0292
vn 0.9982 -0.0524 0.0292
vn 0.9945 -0.0543 0.0895
vn 0.9860 -0.0584 0.1564
vn 0.9695 -0.0655 0.2361
vn 0.9376 -0.0772 0.3390
vn 0.8702 -0.0964 0.4831
vn 0.7090 -0.1276 0.6936
vn 0.3106 -0.1655 0.9360
vn -0.3107 -0.1655 0.9360
vn -0.7090 -0.1276 0.6936
vn -0.8702 -0.0964 0.4831
vn -0.9376 -0.0772 0.3390
vn -0.9695 -0.0655 0.2361
vn -0.9860 -0.0584 0.1564
vn -0.9945 -0.0543 0.0895
vn -0.9982 -0.0524 0.0292
vn -0.9982 -0.0524 -0.0292
vn -0.9945 -0.0543 -0.0895
vn -0.9860 -0.0584 -0.1564
vn -0.9695 -0.0655 -0.2361
vn -0.9376 -0.0772 -0.3390
vn -0.8702 -0.0964 -0.4831
vn -0.7090 -0.1276 -0.6936
vn -0.3107 -0.1655 -0.9360
vn 0.0720 -0.9974 0.0065
vn -0.0482 0.9987 0.0174
vn -0.0219 -0.9995 -0.0214
vn -0.0355 -0.9992 0.0197
vn -0.0359 0.9992 0.0199
vn -0.0221 0.9995 0.0216
vn -0.0663 -0.9977 0.0105
vn 0.0355 -0.9992 -0.0197
vn -0.0582 -0.9982 -0.0142
vn -0.0075 0.9997 0.0225
vn 0.0075 0.9997 0.0225
vn 0.0582 -0.9982 0.0142
vn 0.0221 0.9995 0.0216
vn -0.0074 -0.9997 -0.0223
vn 0.0074 -0.9997 -0.0223
vn 0.0359 0.9992 0.0199
vn 0.0582 -0.9982 -0.0142
vn -0.0582 -0.9982 0.0142
vn 0.0482 0.9987 0.0174
vn -0.0355 -0.9992 -0.0197
vn 0.0219 -0.9995 -0.0214
vn 0.0587 0.9982 0.0143
vn 0.0670 0.9977 0.0106
vn 0.0355 -0.9992 0.0197
vn 0.0663 -0.9977 0.0105
vn 0.0726 0.9973 0.0065
vn 0.0720 -0.9974 -0.0065
vn 0.0755 0.9971 0.0022
vn -0.0720 -0.9974 0.0065
vn 0.0755 0.9971 -0.0022
vn 0.0478 -0.9987 -0.0173
vn 0.0726 0.9973 -0.0065
vn -0.1590 0.8632 -0.4792
vt 0.698581 0.512083
vt 0.698581 0.603202
vt 0.698581 0.652516
vt 0.524009 0.678374
vt 0.538164 0.675150
vt 0.112297 0.004682
vt 0.518941 0.652239
vt 0.432300 0.676432
vt 0.517501 0.602947
vt 0.702311 0.391792
vt 0.705898 0.452556
vt 0.709204 0.508557
vt 0.712101 0.557642
vt 0.714479 0.597926
vt 0.716246 0.627859
vt 0.717334 0.646292
vt 0.524484 0.665087
vt 0.810434 0.010911
vt 0.796027 0.004682
vt 0.538648 0.661603
vt 0.131224 0.011584
vt 0.432775 0.663145
vt 0.500014 0.646565
vt 0.885506 0.007809
vt 0.500563 0.628109
vt 0.501455 0.598137
vt 0.502655 0.557801
vt 0.504117 0.508653
vt 0.505785 0.452579
vt 0.507595 0.391736
vt 0.705898 0.388125
vt 0.712934 0.445364
vt 0.719419 0.498116
vt 0.725102 0.544353
vt 0.729766 0.582299
vt 0.733232 0.610496
vt 0.735367 0.627859
vt 0.809422 0.029571
vt 0.794996 0.023708
vt 0.149053 0.030907
vt 0.481451 0.628668
vt 0.884525 0.026471
vt 0.483077 0.611249
vt 0.485718 0.582964
vt 0.489272 0.544898
vt 0.493602 0.498514
vt 0.498542 0.445595
vt 0.503903 0.388175
vt 0.709204 0.382171
vt 0.719419 0.433685
vt 0.728832 0.481160
vt 0.737084 0.522773
vt 0.743855 0.556923
vt 0.748887 0.582299
vt 0.819081 0.075306
vt 0.751985 0.597926
vt 0.808489 0.059713
vt 0.794045 0.054440
vt 0.165098 0.061908
vt 0.463965 0.599233
vt 0.883642 0.056613
vt 0.466606 0.583522
vt 0.470894 0.558010
vt 0.476665 0.523676
vt 0.483697 0.481841
vt 0.491719 0.434111
vt 0.500425 0.382320
vt 0.712101 0.374158
vt 0.725102 0.417967
vt 0.737083 0.458342
vt 0.747585 0.493730
vt 0.756204 0.522773
vt 0.762608 0.544353
vt 0.818311 0.113423
vt 0.807672 0.100178
vt 0.793211 0.095697
vt 0.178744 0.103397
vt 0.448228 0.559392
vt 0.882891 0.097080
vt 0.451781 0.545993
vt 0.457552 0.524235
vt 0.465319 0.494953
vt 0.474782 0.459273
vt 0.485579 0.418566
vt 0.497294 0.374396
vt 0.714479 0.364395
vt 0.729766 0.398815
vt 0.743855 0.430537
vt 0.756204 0.458342
vt 0.766338 0.481160
vt 0.773869 0.498116
vt 0.817679 0.159800
vt 0.807001 0.149411
vt 0.792527 0.145895
vt 0.189465 0.153779
vt 0.434844 0.510677
vt 0.882300 0.146314
vt 0.439175 0.500105
vt 0.446207 0.482936
vt 0.455670 0.459831
vt 0.467201 0.431678
vt 0.480357 0.399558
vt 0.494632 0.364706
vt 0.698581 0.328598
vt 0.716246 0.353255
vt 0.733232 0.376965
vt 0.748887 0.398815
vt 0.762608 0.417967
vt 0.773869 0.433685
vt 0.827280 0.224233
vt 0.782237 0.445364
vt 0.817209 0.212653
vt 0.806502 0.205520
vt 0.792019 0.203104
vt 0.196850 0.211117
vt 0.424329 0.454960
vt 0.881894 0.202424
vt 0.429269 0.447620
vt 0.437292 0.435701
vt 0.448089 0.419662
vt 0.461245 0.400116
vt 0.476254 0.377818
vt 0.492541 0.353623
vt 0.717334 0.341168
vt 0.735367 0.353255
vt 0.751985 0.364395
vt 0.766552 0.374158
vt 0.778506 0.382171
vt 0.827019 0.275801
vt 0.816920 0.269953
vt 0.806195 0.266349
vt 0.791706 0.265124
vt 0.200615 0.273209
vt 0.417086 0.394381
vt 0.881687 0.263253
vt 0.422447 0.390556
vt 0.431152 0.384345
vt 0.442867 0.375987
vt 0.457142 0.365801
vt 0.473428 0.354181
vt 0.491100 0.341573
vt 0.717702 0.328598
vt 0.736087 0.328598
vt 0.753032 0.328598
vt 0.767884 0.328598
vt 0.780072 0.328598
vt 0.826932 0.329389
vt 0.816822 0.329497
vt 0.806092 0.329560
vt 0.791600 0.329574
vt 0.200615 0.337667
vt 0.881687 0.326465
vt 0.413393 0.331269
vt 0.418968 0.331106
vt 0.428021 0.330841
vt 0.440205 0.330485
vt 0.455050 0.330051
vt 0.471987 0.329556
vt 0.490365 0.329019
vt 0.717334 0.316029
vt 0.735367 0.303942
vt 0.751985 0.292803
vt 0.766552 0.283039
vt 0.827019 0.382937
vt 0.778506 0.275026
vt 0.816920 0.388997
vt 0.806195 0.392725
vt 0.791706 0.393976
vt 0.196850 0.402016
vt 0.413393 0.268049
vt 0.881894 0.389629
vt 0.418968 0.271554
vt 0.428021 0.277246
vt 0.440205 0.284906
vt 0.455050 0.294240
vt 0.471987 0.304889
vt 0.490365 0.316444
vt 0.716246 0.303942
vt 0.733232 0.280233
vt 0.748887 0.258382
vt 0.762608 0.239230
vt 0.827280 0.434388
vt 0.773869 0.223513
vt 0.782237 0.211833
vt 0.817209 0.446166
vt 0.806502 0.453415
vt 0.792019 0.455855
vt 0.189465 0.463781
vt 0.417086 0.207150
vt 0.882300 0.450318
vt 0.422447 0.214189
vt 0.431152 0.225619
vt 0.442867 0.241001
vt 0.457142 0.259744
vt 0.473428 0.281127
vt 0.491100 0.304330
vt 0.714479 0.292803
vt 0.729766 0.258382
vt 0.743855 0.226660
vt 0.756204 0.198856
vt 0.766338 0.176037
vt 0.773869 0.159081
vt 0.817679 0.498807
vt 0.807001 0.509299
vt 0.792527 0.512834
vt 0.178744 0.520590
vt 0.424329 0.150914
vt 0.882891 0.506201
vt 0.429269 0.161215
vt 0.437292 0.177944
vt 0.448089 0.200457
vt 0.461245 0.227888
vt 0.476254 0.259185
vt 0.492541 0.293144
vt 0.712101 0.283039
vt 0.725102 0.239230
vt 0.737083 0.198856
vt 0.747585 0.163467
vt 0.756204 0.134425
vt 0.762608 0.112844
vt 0.818311 0.544898
vt 0.807672 0.558228
vt 0.793211 0.562722
vt 0.165098 0.570260
vt 0.434844 0.101501
vt 0.883642 0.555130
vt 0.439175 0.114669
vt 0.446206 0.136053
vt 0.455670 0.164831
vt 0.467201 0.199898
vt 0.480357 0.239905
vt 0.494632 0.283315
vt 0.709204 0.275026
vt 0.719418 0.223513
vt 0.728832 0.176037
vt 0.737083 0.134425
vt 0.743855 0.100275
vt 0.819081 0.582666
vt 0.748887 0.074898
vt 0.751985 0.059272
vt 0.808489 0.598323
vt 0.794045 0.603602
vt 0.149053 0.610881
vt 0.448228 0.060809
vt 0.884525 0.595223
vt 0.451781 0.076338
vt 0.457552 0.101556
vt 0.465319 0.135494
vt 0.474782 0.176848
vt 0.485579 0.224028
vt 0.497294 0.275221
vt 0.705898 0.269072
vt 0.712934 0.211833
vt 0.719418 0.159081
vt 0.725102 0.112844
vt 0.729766 0.074898
vt 0.733232 0.046702
vt 0.809422 0.628043
vt 0.735367 0.029339
vt 0.562176 0.661603
vt 0.794996 0.633904
vt 0.548012 0.663962
vt 0.131224 0.640892
vt 0.461521 0.720582
vt 0.463965 0.030403
vt 0.885506 0.624941
vt 0.466605 0.047696
vt 0.470894 0.075779
vt 0.476665 0.113573
vt 0.483697 0.159625
vt 0.491719 0.212164
vt 0.500425 0.269173
vt 0.702311 0.265406
vt 0.705898 0.204641
vt 0.709204 0.148640
vt 0.712101 0.099555
vt 0.714479 0.059272
vt 0.716246 0.029339
vt 0.717334 0.010906
vt 0.562651 0.686359
vt 0.548496 0.689203
vt 0.112297 0.659141
vt 0.481451 0.011451
vt 0.461046 0.695826
vt 0.483077 0.029844
vt 0.485718 0.059713
vt 0.489272 0.099909
vt 0.493602 0.148889
vt 0.498542 0.204770
vt 0.503903 0.265403
vt 0.698581 0.264168
vt 0.698581 0.202213
vt 0.698581 0.145115
vt 0.698581 0.095068
vt 0.698581 0.053995
vt 0.698581 0.023476
vt 0.698581 0.004682
vt 0.562651 0.705753
vt 0.548496 0.708977
vt 0.093000 0.664925
vt 0.500014 0.004682
vt 0.461046 0.676432
vt 0.500563 0.023468
vt 0.501455 0.053974
vt 0.502655 0.095029
vt 0.504117 0.145055
vt 0.505785 0.202128
vt 0.507595 0.264057
vt 0.694851 0.265406
vt 0.691264 0.204641
vt 0.687958 0.148640
vt 0.685061 0.099555
vt 0.682683 0.059272
vt 0.680916 0.029339
vt 0.679828 0.010906
vt 0.562176 0.719039
vt 0.855477 0.010911
vt 0.841071 0.004682
vt 0.074073 0.658023
vt 0.548012 0.722524
vt 0.461521 0.663145
vt 0.518941 0.010355
vt 0.917445 0.007809
vt 0.518392 0.028812
vt 0.517500 0.058784
vt 0.516300 0.099120
vt 0.514838 0.148268
vt 0.513170 0.204342
vt 0.511360 0.265185
vt 0.691264 0.269072
vt 0.684228 0.211833
vt 0.677744 0.159081
vt 0.672060 0.112844
vt 0.667396 0.074898
vt 0.663930 0.046702
vt 0.661796 0.029339
vt 0.854465 0.029571
vt 0.840039 0.023708
vt 0.056244 0.638700
vt 0.537504 0.028254
vt 0.916464 0.026471
vt 0.535878 0.045671
vt 0.533238 0.073957
vt 0.529684 0.112023
vt 0.525354 0.158407
vt 0.520413 0.211326
vt 0.515053 0.268745
vt 0.687958 0.275026
vt 0.677744 0.223513
vt 0.668330 0.176037
vt 0.660079 0.134425
vt 0.653307 0.100275
vt 0.648275 0.074898
vt 0.864124 0.075306
vt 0.645177 0.059272
vt 0.853532 0.059713
vt 0.839088 0.054440
vt 0.040198 0.607699
vt 0.554991 0.057688
vt 0.915581 0.056613
vt 0.552350 0.073399
vt 0.548062 0.098911
vt 0.542291 0.133245
vt 0.535259 0.175080
vt 0.527236 0.222810
vt 0.518531 0.274601
vt 0.685061 0.283039
vt 0.672060 0.239230
vt 0.660079 0.198856
vt 0.649577 0.163467
vt 0.640958 0.134425
vt 0.634554 0.112844
vt 0.863354 0.113423
vt 0.852715 0.100177
vt 0.026553 0.566210
vt 0.838255 0.095697
vt 0.570728 0.097529
vt 0.914830 0.097080
vt 0.567174 0.110928
vt 0.561403 0.132686
vt 0.553637 0.161968
vt 0.544173 0.197648
vt 0.533376 0.238355
vt 0.521661 0.282525
vt 0.509478 0.328461
vt 0.682683 0.292803
vt 0.667396 0.258382
vt 0.653307 0.226660
vt 0.640958 0.198856
vt 0.630824 0.176037
vt 0.623293 0.159081
vt 0.862722 0.159800
vt 0.852044 0.149411
vt 0.837570 0.145895
vt 0.015832 0.515829
vt 0.584111 0.146244
vt 0.914240 0.146314
vt 0.579781 0.156816
vt 0.572749 0.173985
vt 0.563285 0.197090
vt 0.551754 0.225243
vt 0.538598 0.257363
vt 0.524323 0.292215
vt 0.680916 0.303942
vt 0.663930 0.280233
vt 0.648275 0.258382
vt 0.634554 0.239230
vt 0.623293 0.223513
vt 0.872323 0.224232
vt 0.614926 0.211833
vt 0.862252 0.212653
vt 0.851546 0.205520
vt 0.837062 0.203104
vt 0.008447 0.458490
vt 0.594626 0.201961
vt 0.913833 0.202424
vt 0.589686 0.209301
vt 0.581663 0.221220
vt 0.570866 0.237259
vt 0.557711 0.256804
vt 0.542701 0.279103
vt 0.526415 0.303298
vt 0.679828 0.316029
vt 0.661796 0.303942
vt 0.645177 0.292803
vt 0.630610 0.283039
vt 0.618656 0.275026
vt 0.872063 0.275801
vt 0.861963 0.269953
vt 0.851239 0.266349
vt 0.836749 0.265124
vt 0.004682 0.396399
vt 0.601869 0.262540
vt 0.913626 0.263253
vt 0.596509 0.266365
vt 0.587804 0.272576
vt 0.576088 0.280934
vt 0.561813 0.291120
vt 0.545527 0.302740
vt 0.527856 0.315348
vt 0.679461 0.328598
vt 0.661075 0.328598
vt 0.644131 0.328599
vt 0.629279 0.328598
vt 0.871975 0.329389
vt 0.617090 0.328599
vt 0.861866 0.329497
vt 0.851135 0.329560
vt 0.836644 0.329574
vt 0.004682 0.331940
vt 0.913626 0.326465
vt 0.605562 0.325652
vt 0.599987 0.325815
vt 0.590934 0.326080
vt 0.578750 0.326436
vt 0.563905 0.326869
vt 0.546968 0.327365
vt 0.528590 0.327902
vt 0.679828 0.341168
vt 0.661796 0.353255
vt 0.645177 0.364395
vt 0.630610 0.374158
vt 0.618656 0.382171
vt 0.872063 0.382937
vt 0.861963 0.388996
vt 0.851239 0.392725
vt 0.836749 0.393976
vt 0.008447 0.267592
vt 0.605562 0.388872
vt 0.913833 0.389629
vt 0.599987 0.385367
vt 0.590934 0.379675
vt 0.578750 0.372015
vt 0.563905 0.362681
vt 0.546968 0.352032
vt 0.528590 0.340477
vt 0.680916 0.353255
vt 0.663930 0.376965
vt 0.648275 0.398815
vt 0.634554 0.417967
vt 0.872323 0.434388
vt 0.623293 0.433685
vt 0.862252 0.446165
vt 0.614926 0.445364
vt 0.851546 0.453415
vt 0.015832 0.205826
vt 0.837062 0.455855
vt 0.601869 0.449770
vt 0.914240 0.450318
vt 0.596509 0.442732
vt 0.587804 0.431302
vt 0.576088 0.415920
vt 0.561813 0.397177
vt 0.545527 0.375793
vt 0.527856 0.352591
vt 0.682683 0.364395
vt 0.667396 0.398815
vt 0.653307 0.430537
vt 0.640958 0.458342
vt 0.630824 0.481160
vt 0.623293 0.498116
vt 0.862722 0.498806
vt 0.852044 0.509298
vt 0.837571 0.512833
vt 0.026553 0.149017
vt 0.594626 0.506007
vt 0.914830 0.506201
vt 0.589686 0.495706
vt 0.581663 0.478977
vt 0.570866 0.456464
vt 0.557711 0.429032
vt 0.542701 0.397736
vt 0.526415 0.363777
vt 0.685061 0.374158
vt 0.672060 0.417967
vt 0.660079 0.458342
vt 0.649577 0.493730
vt 0.640958 0.522773
vt 0.634554 0.544353
vt 0.863354 0.544897
vt 0.852715 0.558228
vt 0.838255 0.562721
vt 0.040198 0.099348
vt 0.584111 0.555420
vt 0.915581 0.555130
vt 0.579781 0.542252
vt 0.572749 0.520868
vt 0.563285 0.492090
vt 0.551754 0.457023
vt 0.538598 0.417016
vt 0.524323 0.373606
vt 0.687958 0.382171
vt 0.677744 0.433685
vt 0.668330 0.481160
vt 0.660079 0.522773
vt 0.653307 0.556923
vt 0.864124 0.582666
vt 0.648275 0.582299
vt 0.645177 0.597926
vt 0.853532 0.598323
vt 0.839088 0.603602
vt 0.056244 0.058727
vt 0.570728 0.596112
vt 0.916464 0.595223
vt 0.567174 0.580583
vt 0.561403 0.555365
vt 0.553637 0.521427
vt 0.544173 0.480073
vt 0.533376 0.432893
vt 0.521661 0.381700
vt 0.691264 0.388125
vt 0.684228 0.445364
vt 0.677744 0.498116
vt 0.672060 0.544353
vt 0.667396 0.582299
vt 0.663930 0.610496
vt 0.854465 0.628043
vt 0.524484 0.722524
vt 0.661796 0.627859
vt 0.840039 0.633904
vt 0.538648 0.720165
vt 0.074073 0.028716
vt 0.432775 0.720582
vt 0.554991 0.626518
vt 0.917445 0.624941
vt 0.552350 0.609225
vt 0.548062 0.581141
vt 0.542291 0.543348
vt 0.535259 0.497296
vt 0.527236 0.444757
vt 0.518531 0.387748
vt 0.694851 0.391792
vt 0.691264 0.452556
vt 0.687958 0.508557
vt 0.685061 0.557642
vt 0.682683 0.597926
vt 0.680916 0.627859
vt 0.679828 0.646291
vt 0.524009 0.697768
vt 0.538164 0.694924
vt 0.093000 0.010467
vt 0.537504 0.645470
vt 0.432300 0.695826
vt 0.535878 0.627077
vt 0.533238 0.597208
vt 0.529684 0.557012
vt 0.525354 0.508032
vt 0.520413 0.452151
vt 0.515053 0.391518
vt 0.698581 0.393030
vt 0.698581 0.454985
vt 0.698581 0.562129
vt 0.698581 0.633722
vt 0.518392 0.633453
vt 0.516300 0.561892
vt 0.514838 0.511866
vt 0.513170 0.454792
vt 0.511360 0.392864
vt 0.297448 0.658582
vt 0.413394 0.675020
vt 0.316560 0.652853
vt 0.904262 0.004682
vt 0.413873 0.661603
vt 0.335305 0.634780
vt 0.903271 0.023527
vt 0.352963 0.605057
vt 0.902379 0.053965
vt 0.368854 0.564826
vt 0.901621 0.094828
vt 0.382369 0.515634
vt 0.901025 0.144544
vt 0.900615 0.201203
vt 0.392987 0.459370
vt 0.900405 0.262629
vt 0.400301 0.398198
vt 0.900405 0.326459
vt 0.404030 0.334468
vt 0.900615 0.390242
vt 0.404030 0.270628
vt 0.901025 0.451527
vt 0.400301 0.209134
vt 0.901621 0.507957
vt 0.392987 0.152346
vt 0.902379 0.557364
vt 0.382369 0.102448
vt 0.903271 0.597851
vt 0.368854 0.061358
vt 0.442618 0.719602
vt 0.904262 0.627860
vt 0.352963 0.030655
vt 0.442139 0.694603
vt 0.335306 0.011518
vt 0.442139 0.675020
vt 0.316561 0.004682
vt 0.936201 0.004682
vt 0.442618 0.661603
vt 0.297448 0.010411
vt 0.935210 0.023527
vt 0.278703 0.028484
vt 0.934319 0.053965
vt 0.261046 0.058208
vt 0.933560 0.094828
vt 0.245154 0.098438
vt 0.231640 0.147631
vt 0.932964 0.144544
vt 0.221022 0.203894
vt 0.932554 0.201203
vt 0.213708 0.265066
vt 0.932345 0.262629
vt 0.209979 0.328796
vt 0.932345 0.326459
vt 0.209979 0.392635
vt 0.932554 0.390242
vt 0.213708 0.454130
vt 0.932964 0.451526
vt 0.221022 0.510918
vt 0.933560 0.507957
vt 0.231640 0.560815
vt 0.934319 0.557364
vt 0.245154 0.601905
vt 0.935211 0.597850
vt 0.261046 0.632609
vt 0.413873 0.719602
vt 0.936201 0.627860
vt 0.278703 0.651746
vt 0.413394 0.694603
vt 0.470885 0.674179
vt 0.111606 0.028351
vt 0.471334 0.661603
vt 0.945565 0.588790
vt 0.129175 0.034758
vt 0.946494 0.571127
vt 0.145726 0.052696
vt 0.947330 0.542597
vt 0.160621 0.081475
vt 0.948041 0.504297
vt 0.173288 0.119989
vt 0.948600 0.457697
vt 0.183241 0.166758
vt 0.948984 0.404590
vt 0.190096 0.219985
vt 0.949180 0.347015
vt 0.193591 0.277625
vt 0.193591 0.337462
vt 0.949180 0.287187
vt 0.190096 0.397197
vt 0.948984 0.227402
vt 0.948600 0.169960
vt 0.183241 0.454534
vt 0.948041 0.117068
vt 0.173288 0.507270
vt 0.947330 0.070758
vt 0.160621 0.553378
vt 0.145726 0.591086
vt 0.946494 0.032810
vt 0.945565 0.004682
vt 0.497896 0.715966
vt 0.129175 0.618946
vt 0.111606 0.635886
vt 0.497447 0.692535
vt 0.093691 0.641256
vt 0.497447 0.674179
vt 0.076122 0.634849
vt 0.497896 0.661603
vt 0.975124 0.588790
vt 0.976053 0.571127
vt 0.059571 0.616911
vt 0.976888 0.542597
vt 0.044676 0.588133
vt 0.977599 0.504296
vt 0.032009 0.549619
vt 0.978158 0.457697
vt 0.022056 0.502849
vt 0.978543 0.404589
vt 0.015201 0.449622
vt 0.978739 0.347015
vt 0.011706 0.391983
vt 0.011706 0.332146
vt 0.978739 0.287186
vt 0.015201 0.272411
vt 0.978543 0.227402
vt 0.022056 0.215074
vt 0.978158 0.169960
vt 0.032009 0.162338
vt 0.977599 0.117068
vt 0.976888 0.070758
vt 0.044676 0.116230
vt 0.059571 0.078521
vt 0.976053 0.032810
vt 0.975124 0.004682
vt 0.471334 0.715966
vt 0.076122 0.050662
vt 0.470885 0.692535
vt 0.093691 0.033721
vt 0.298133 0.635140
vt 0.487638 0.675496
vt 0.488083 0.663041
vt 0.315875 0.629822
vt 0.962179 0.585889
vt 0.333276 0.613044
vt 0.963099 0.568395
vt 0.349668 0.585453
vt 0.963927 0.540139
vt 0.364420 0.548106
vt 0.964631 0.502207
vt 0.376965 0.502441
vt 0.965184 0.456055
vt 0.965565 0.403458
vt 0.386822 0.450212
vt 0.965760 0.346437
vt 0.393612 0.393425
vt 0.965760 0.287182
vt 0.397073 0.334265
vt 0.965565 0.227973
vt 0.397073 0.275002
vt 0.965184 0.171082
vt 0.393612 0.217916
vt 0.964631 0.118698
vt 0.386822 0.165201
vt 0.963927 0.072833
vt 0.376965 0.118881
vt 0.963099 0.035249
vt 0.364420 0.080737
vt 0.514646 0.716882
vt 0.962179 0.007392
vt 0.349668 0.052235
vt 0.514201 0.693676
vt 0.333276 0.034469
vt 0.514201 0.675496
vt 0.315875 0.028124
vt 0.514646 0.663041
vt 0.991738 0.585888
vt 0.298133 0.033442
vt 0.992658 0.568395
vt 0.280732 0.050220
vt 0.993486 0.540139
vt 0.264341 0.077812
vt 0.249589 0.115158
vt 0.994190 0.502206
vt 0.237043 0.160823
vt 0.994743 0.456054
vt 0.227186 0.213052
vt 0.995124 0.403457
vt 0.220397 0.269839
vt 0.995318 0.346436
vt 0.995318 0.287182
vt 0.216936 0.329000
vt 0.216936 0.388262
vt 0.995124 0.227973
vt 0.220397 0.445347
vt 0.994743 0.171082
vt 0.227186 0.498063
vt 0.994190 0.118698
vt 0.237043 0.544383
vt 0.993486 0.072833
vt 0.249589 0.582527
vt 0.992658 0.035249
vt 0.488083 0.716882
vt 0.264341 0.611030
vt 0.991738 0.007392
vt 0.280732 0.628794
vt 0.487638 0.693676
s 0
f 1/1/1 10/13/1 476/592/1
f 479/595/2 17/26/2 18/27/2
f 476/592/3 11/14/3 2/2/3
f 480/596/4 18/27/4 19/28/4
f 2/2/5 12/15/5 477/593/5
f 481/597/6 19/28/6 20/29/6
f 477/593/7 13/16/7 3/3/7
f 482/598/8 20/29/8 21/30/8
f 3/4/9 14/20/9 4/5/9
f 474/590/10 82/104/10 7/10/10
f 308/385/11 482/598/11 21/30/11
f 376/468/12 541/722/12 540/720/12
f 474/590/13 8/11/13 475/591/13
f 478/594/14 15/23/14 16/25/14
f 475/591/15 9/12/15 1/1/15
f 6/9/16 16/25/16 17/26/16
f 8/11/17 24/33/17 9/12/17
f 17/26/18 31/43/18 32/44/18
f 9/12/19 25/34/19 10/13/19
f 18/27/20 32/44/20 33/45/20
f 10/13/21 26/35/21 11/14/21
f 19/28/22 33/45/22 34/46/22
f 11/14/23 27/36/23 12/15/23
f 20/29/24 34/46/24 35/47/24
f 12/15/25 28/37/25 13/16/25
f 21/30/26 35/47/26 36/48/26
f 13/18/27 29/39/27 14/19/27
f 7/10/28 82/104/28 22/31/28
f 308/385/29 21/30/29 36/48/29
f 504/644/30 567/778/30 568/780/30
f 7/10/31 23/32/31 8/11/31
f 16/25/32 30/41/32 31/43/32
f 27/36/33 43/56/33 28/37/33
f 36/48/34 50/66/34 51/67/34
f 28/38/35 44/58/35 29/39/35
f 22/31/36 82/104/36 37/49/36
f 308/385/37 36/48/37 51/67/37
f 300/375/38 534/709/38 285/358/38
f 22/31/39 38/50/39 23/32/39
f 31/43/40 45/60/40 46/62/40
f 23/32/41 39/51/41 24/33/41
f 32/44/42 46/62/42 47/63/42
f 24/33/43 40/52/43 25/34/43
f 33/45/44 47/63/44 48/64/44
f 25/34/45 41/53/45 26/35/45
f 34/46/46 48/64/46 49/65/46
f 26/35/47 42/54/47 27/36/47
f 35/47/48 49/65/48 50/66/48
f 47/63/49 61/80/49 62/81/49
f 39/51/50 55/71/50 40/52/50
f 48/64/51 62/81/51 63/82/51
f 40/52/52 56/72/52 41/53/52
f 49/65/53 63/82/53 64/83/53
f 41/53/54 57/73/54 42/54/54
f 50/66/55 64/83/55 65/84/55
f 42/55/56 58/75/56 43/57/56
f 51/67/57 65/84/57 66/85/57
f 43/57/58 59/76/58 44/58/58
f 37/49/59 82/104/59 52/68/59
f 308/385/60 51/67/60 66/85/60
f 505/646/61 568/780/61 569/782/61
f 37/49/62 53/69/62 38/50/62
f 46/62/63 60/78/63 61/80/63
f 38/50/64 54/70/64 39/51/64
f 66/85/65 80/102/65 81/103/65
f 58/75/66 74/94/66 59/76/66
f 52/68/67 82/104/67 67/86/67
f 308/385/68 66/85/68 81/103/68
f 255/319/69 531/701/69 240/300/69
f 52/68/70 68/87/70 53/69/70
f 61/80/71 75/96/71 76/98/71
f 53/69/72 69/88/72 54/70/72
f 62/81/73 76/98/73 77/99/73
f 54/70/74 70/89/74 55/71/74
f 63/82/75 77/99/75 78/100/75
f 55/71/76 71/90/76 56/72/76
f 64/83/77 78/100/77 79/101/77
f 56/72/78 72/91/78 57/73/78
f 65/84/79 79/101/79 80/102/79
f 57/74/80 73/93/80 58/75/80
f 69/88/81 86/108/81 70/89/81
f 78/100/82 93/119/82 94/120/82
f 70/89/83 87/109/83 71/90/83
f 79/101/84 94/120/84 95/121/84
f 71/90/85 88/111/85 72/91/85
f 80/102/86 95/121/86 96/122/86
f 72/92/87 89/113/87 73/93/87
f 81/103/88 96/122/88 97/123/88
f 73/93/89 90/114/89 74/94/89
f 67/86/90 82/104/90 83/105/90
f 308/385/91 81/103/91 97/123/91
f 506/648/92 569/782/92 570/784/92
f 67/86/93 84/106/93 68/87/93
f 76/98/94 91/116/94 92/118/94
f 68/87/95 85/107/95 69/88/95
f 77/99/96 92/118/96 93/119/96
f 89/113/97 105/132/97 90/114/97
f 83/105/98 82/104/98 98/124/98
f 308/385/99 97/123/99 112/141/99
f 421/523/100 544/728/100 543/727/100
f 83/105/101 99/125/101 84/106/101
f 92/118/102 106/134/102 107/136/102
f 84/106/103 100/126/103 85/107/103
f 93/119/104 107/136/104 108/137/104
f 85/107/105 101/127/105 86/108/105
f 94/120/106 108/137/106 109/138/106
f 86/108/107 102/128/107 87/109/107
f 95/121/108 109/138/108 110/139/108
f 87/110/109 103/130/109 88/112/109
f 96/122/110 110/139/110 111/140/110
f 88/112/111 104/131/111 89/113/111
f 97/123/112 111/140/112 112/141/112
f 109/138/113 123/155/113 124/156/113
f 101/127/114 117/146/114 102/128/114
f 110/139/115 124/156/115 125/157/115
f 102/129/116 118/148/116 103/130/116
f 111/140/117 125/157/117 126/158/117
f 103/130/118 119/149/118 104/131/118
f 112/141/119 126/158/119 127/159/119
f 104/131/120 120/150/120 105/132/120
f 98/124/121 82/104/121 113/142/121
f 308/385/122 112/141/122 127/159/122
f 120/151/123 522/683/123 105/133/123
f 98/124/124 114/143/124 99/125/124
f 107/136/125 121/153/125 122/154/125
f 99/125/126 115/144/126 100/126/126
f 108/137/127 122/154/127 123/155/127
f 100/126/128 116/145/128 101/127/128
f 308/385/129 127/159/129 142/177/129
f 507/650/130 570/784/130 571/787/130
f 114/143/131 128/160/131 129/161/131
f 121/153/132 137/172/132 122/154/132
f 115/144/133 129/161/133 130/162/133
f 122/154/134 138/173/134 123/155/134
f 116/145/135 130/162/135 131/163/135
f 123/155/136 139/174/136 124/156/136
f 117/146/137 131/163/137 132/165/137
f 124/156/138 140/175/138 125/157/138
f 118/148/139 132/164/139 133/166/139
f 125/157/140 141/176/140 126/158/140
f 119/149/141 133/166/141 134/167/141
f 126/158/142 142/177/142 127/159/142
f 120/150/143 134/167/143 135/168/143
f 113/142/144 82/104/144 128/160/144
f 139/174/145 155/194/145 140/175/145
f 133/166/146 147/182/146 148/185/146
f 140/175/147 156/195/147 141/176/147
f 134/167/148 148/185/148 149/186/148
f 141/176/149 157/196/149 142/177/149
f 135/168/150 149/186/150 150/187/150
f 128/160/151 82/104/151 143/178/151
f 308/385/152 142/177/152 157/196/152
f 507/650/153 572/788/153 508/652/153
f 129/161/154 143/178/154 144/179/154
f 136/170/155 152/191/155 137/172/155
f 130/162/156 144/179/156 145/180/156
f 137/172/157 153/192/157 138/173/157
f 131/163/158 145/180/158 146/181/158
f 138/173/159 154/193/159 139/174/159
f 132/165/160 146/181/160 147/183/160
f 144/179/161 158/197/161 159/198/161
f 151/189/162 167/209/162 152/191/162
f 145/180/163 159/198/163 160/199/163
f 152/191/164 168/210/164 153/192/164
f 146/181/165 160/199/165 161/200/165
f 153/192/166 169/211/166 154/193/166
f 147/183/167 161/200/167 162/201/167
f 154/193/168 170/212/168 155/194/168
f 148/184/169 162/201/169 163/202/169
f 155/194/170 171/213/170 156/195/170
f 149/186/171 163/203/171 164/204/171
f 156/195/172 172/214/172 157/196/172
f 150/187/173 164/204/173 165/205/173
f 143/178/174 82/104/174 158/197/174
f 308/385/175 157/196/175 172/214/175
f 361/450/176 538/717/176 346/432/176
f 163/202/177 177/219/177 178/220/177
f 170/212/178 186/231/178 171/213/178
f 164/204/179 178/221/179 179/222/179
f 171/213/180 187/232/180 172/214/180
f 165/205/181 179/222/181 180/223/181
f 158/197/182 82/104/182 173/215/182
f 308/385/183 172/214/183 187/232/183
f 391/486/184 542/724/184 541/722/184
f 159/198/185 173/215/185 174/216/185
f 166/207/186 182/227/186 167/209/186
f 160/199/187 174/216/187 175/217/187
f 167/209/188 183/228/188 168/210/188
f 161/200/189 175/217/189 176/218/189
f 168/210/190 184/229/190 169/211/190
f 162/201/191 176/218/191 177/219/191
f 169/211/192 185/230/192 170/212/192
f 181/225/193 197/246/193 182/227/193
f 175/217/194 189/234/194 190/235/194
f 182/227/195 198/247/195 183/228/195
f 176/218/196 190/235/196 191/236/196
f 183/228/197 199/248/197 184/229/197
f 177/219/198 191/236/198 192/237/198
f 184/229/199 200/249/199 185/230/199
f 178/220/200 192/237/200 193/239/200
f 185/230/201 201/250/201 186/231/201
f 179/222/202 193/238/202 194/241/202
f 186/231/203 202/251/203 187/232/203
f 180/223/204 194/241/204 195/242/204
f 173/215/205 82/104/205 188/233/205
f 308/385/206 187/232/206 202/251/206
f 508/652/207 573/790/207 509/654/207
f 174/216/208 188/233/208 189/234/208
f 200/249/209 216/271/209 201/250/209
f 194/240/210 208/257/210 209/259/210
f 201/250/211 217/272/211 202/251/211
f 195/242/212 209/258/212 210/261/212
f 188/233/213 82/104/213 203/252/213
f 308/385/214 202/251/214 217/272/214
f 509/654/215 574/792/215 510/656/215
f 189/234/216 203/252/216 204/253/216
f 196/244/217 212/267/217 197/246/217
f 190/235/218 204/253/218 205/254/218
f 197/246/219 213/268/219 198/247/219
f 191/236/220 205/254/220 206/255/220
f 198/247/221 214/269/221 199/248/221
f 192/237/222 206/255/222 207/256/222
f 199/248/223 215/270/223 200/249/223
f 193/239/224 207/256/224 208/257/224
f 205/254/225 219/274/225 220/275/225
f 212/267/226 228/286/226 213/268/226
f 206/255/227 220/275/227 221/276/227
f 213/268/228 229/287/228 214/269/228
f 207/256/229 221/276/229 222/277/229
f 214/269/230 230/288/230 215/270/230
f 208/257/231 222/277/231 223/278/231
f 215/270/232 231/289/232 216/271/232
f 209/259/233 223/278/233 224/279/233
f 216/271/234 232/290/234 217/272/234
f 210/262/235 224/280/235 225/281/235
f 203/252/236 82/104/236 218/273/236
f 308/385/237 217/272/237 232/290/237
f 484/601/238 547/735/238 548/738/238
f 204/253/239 218/273/239 219/274/239
f 211/265/240 227/285/240 212/267/240
f 224/279/241 238/296/241 239/297/241
f 231/289/242 247/308/242 232/290/242
f 225/281/243 239/298/243 240/299/243
f 218/273/244 82/104/244 233/291/244
f 308/385/245 232/290/245 247/308/245
f 210/263/246 530/699/246 529/698/246
f 219/274/247 233/291/247 234/292/247
f 226/283/248 242/303/248 227/285/248
f 220/275/249 234/292/249 235/293/249
f 227/285/250 243/304/250 228/286/250
f 221/276/251 235/293/251 236/294/251
f 228/286/252 244/305/252 229/287/252
f 222/277/253 236/294/253 237/295/253
f 229/287/254 245/306/254 230/288/254
f 223/278/255 237/295/255 238/296/255
f 230/288/256 246/307/256 231/289/256
f 243/304/257 257/324/257 258/325/257
f 235/293/258 251/312/258 236/294/258
f 244/305/259 258/325/259 259/326/259
f 236/294/260 252/313/260 237/295/260
f 245/306/261 259/326/261 260/327/261
f 237/295/262 253/314/262 238/296/262
f 246/307/263 260/327/263 261/328/263
f 238/296/264 254/315/264 239/297/264
f 247/308/265 261/328/265 262/329/265
f 239/298/266 255/320/266 240/299/266
f 233/291/267 82/104/267 248/309/267
f 308/385/268 247/308/268 262/329/268
f 120/151/269 524/686/269 523/684/269
f 233/291/270 249/310/270 234/292/270
f 242/303/271 256/322/271 257/324/271
f 234/292/272 250/311/272 235/293/272
f 262/329/273 276/346/273 277/347/273
f 254/317/274 270/338/274 255/318/274
f 248/309/275 82/104/275 263/330/275
f 308/385/276 262/329/276 277/347/276
f 510/656/277 575/794/277 511/658/277
f 248/309/278 264/331/278 249/310/278
f 257/324/279 271/340/279 272/342/279
f 249/310/280 265/332/280 250/311/280
f 258/325/281 272/342/281 273/343/281
f 250/311/282 266/333/282 251/312/282
f 259/326/283 273/343/283 274/344/283
f 251/312/284 267/334/284 252/313/284
f 260/327/285 274/344/285 275/345/285
f 252/313/286 268/335/286 253/314/286
f 261/328/287 275/345/287 276/346/287
f 253/314/288 269/336/288 254/315/288
f 274/344/289 288/362/289 289/363/289
f 266/333/290 282/352/290 267/334/290
f 275/345/291 289/363/291 290/364/291
f 267/334/292 283/353/292 268/335/292
f 276/346/293 290/364/293 291/365/293
f 268/335/294 284/355/294 269/336/294
f 277/347/295 291/365/295 292/366/295
f 269/337/296 285/357/296 270/338/296
f 263/330/297 82/104/297 278/348/297
f 308/385/298 277/347/298 292/366/298
f 485/604/299 548/738/299 549/740/299
f 263/330/300 279/349/300 264/331/300
f 272/342/301 286/359/301 287/361/301
f 264/331/302 280/350/302 265/332/302
f 273/343/303 287/361/303 288/362/303
f 265/332/304 281/351/304 266/333/304
f 278/348/305 82/104/305 293/367/305
f 308/385/306 292/366/306 307/384/306
f 90/115/307 520/679/307 74/95/307
f 278/348/308 294/368/308 279/349/308
f 287/361/309 301/377/309 302/379/309
f 279/349/310 295/369/310 280/350/310
f 288/362/311 302/379/311 303/380/311
f 280/350/312 296/370/312 281/351/312
f 289/363/313 303/380/313 304/381/313
f 281/351/314 297/371/314 282/352/314
f 290/364/315 304/381/315 305/382/315
f 282/352/316 298/372/316 283/353/316
f 291/365/317 305/382/317 306/383/317
f 283/354/318 299/374/318 284/356/318
f 292/366/319 306/383/319 307/384/319
f 284/356/320 300/376/320 285/357/320
f 296/370/321 313/390/321 297/371/321
f 305/382/322 320/400/322 321/401/322
f 297/371/323 314/391/323 298/372/323
f 306/383/324 321/401/324 322/402/324
f 298/373/325 315/393/325 299/374/325
f 307/384/326 322/402/326 323/403/326
f 299/374/327 316/394/327 300/376/327
f 293/367/328 82/104/328 309/386/328
f 308/385/329 307/384/329 323/403/329
f 270/339/330 532/703/330 255/319/330
f 293/367/331 310/387/331 294/368/331
f 302/379/332 317/396/332 318/398/332
f 294/368/333 311/388/333 295/369/333
f 303/380/334 318/398/334 319/399/334
f 295/369/335 312/389/335 296/370/335
f 304/381/336 319/399/336 320/400/336
f 511/658/337 576/796/337 512/660/337
f 309/386/338 325/405/338 310/387/338
f 318/398/339 332/415/339 333/417/339
f 310/387/340 326/406/340 311/388/340
f 319/399/341 333/417/341 334/418/341
f 311/388/342 327/407/342 312/389/342
f 320/400/343 334/418/343 335/419/343
f 312/389/344 328/408/344 313/390/344
f 321/401/345 335/419/345 336/420/345
f 313/390/346 329/410/346 314/391/346
f 322/402/347 336/420/347 337/421/347
f 314/392/348 330/412/348 315/393/348
f 323/403/349 337/421/349 338/422/349
f 315/393/350 331/413/350 316/394/350
f 309/386/351 82/104/351 324/404/351
f 308/385/352 323/403/352 338/422/352
f 336/420/353 350/437/353 351/438/353
f 328/409/354 344/429/354 329/411/354
f 337/421/355 351/438/355 352/439/355
f 329/411/356 345/430/356 330/412/356
f 338/422/357 352/439/357 353/440/357
f 330/412/358 346/431/358 331/413/358
f 324/404/359 82/104/359 339/423/359
f 308/385/360 338/422/360 353/440/360
f 486/606/361 549/740/361 550/742/361
f 324/404/362 340/424/362 325/405/362
f 333/417/363 347/433/363 348/435/363
f 325/405/364 341/425/364 326/406/364
f 334/418/365 348/435/365 349/436/365
f 326/406/366 342/426/366 327/407/366
f 335/419/367 349/436/367 350/437/367
f 327/407/368 343/427/368 328/408/368
f 339/423/369 355/442/369 340/424/369
f 348/435/370 362/452/370 363/453/370
f 340/424/371 356/443/371 341/425/371
f 349/436/372 363/453/372 364/454/372
f 341/425/373 357/444/373 342/426/373
f 350/437/374 364/454/374 365/455/374
f 342/426/375 358/446/375 343/427/375
f 351/438/376 365/455/376 366/456/376
f 343/428/377 359/447/377 344/429/377
f 352/439/378 366/456/378 367/457/378
f 344/429/379 360/448/379 345/430/379
f 353/440/380 367/457/380 368/458/380
f 345/430/381 361/449/381 346/431/381
f 339/423/382 82/104/382 354/441/382
f 308/385/383 353/440/383 368/458/383
f 512/660/384 577/799/384 513/662/384
f 359/447/385 373/464/385 374/465/385
f 366/456/386 382/475/386 367/457/386
f 360/448/387 374/465/387 375/466/387
f 367/457/388 383/476/388 368/458/388
f 361/449/389 375/466/389 376/467/389
f 354/441/390 82/104/390 369/459/390
f 308/385/391 368/458/391 383/476/391
f 487/608/392 550/742/392 551/744/392
f 355/442/393 369/459/393 370/460/393
f 362/452/394 378/471/394 363/453/394
f 356/443/395 370/460/395 371/461/395
f 363/453/396 379/472/396 364/454/396
f 357/444/397 371/461/397 372/462/397
f 364/454/398 380/473/398 365/455/398
f 358/446/399 372/462/399 373/463/399
f 365/455/400 381/474/400 366/456/400
f 377/469/401 393/490/401 378/471/401
f 371/461/402 385/478/402 386/479/402
f 378/471/403 394/491/403 379/472/403
f 372/462/404 386/479/404 387/480/404
f 379/472/405 395/492/405 380/473/405
f 373/463/406 387/480/406 388/482/406
f 380/473/407 396/493/407 381/474/407
f 374/465/408 388/481/408 389/483/408
f 381/474/409 397/494/409 382/475/409
f 375/466/410 389/483/410 390/485/410
f 382/475/411 398/495/411 383/476/411
f 376/467/412 390/485/412 391/487/412
f 369/459/413 82/104/413 384/477/413
f 308/385/414 383/476/414 398/495/414
f 361/450/415 540/720/415 539/718/415
f 370/460/416 384/477/416 385/478/416
f 396/493/417 412/512/417 397/494/417
f 390/485/418 404/502/418 405/503/418
f 397/494/419 413/513/419 398/495/419
f 391/487/420 405/503/420 406/504/420
f 384/477/421 82/104/421 399/496/421
f 308/385/422 398/495/422 413/513/422
f 513/662/423 578/801/423 514/665/423
f 385/478/424 399/496/424 400/497/424
f 392/488/425 408/508/425 393/490/425
f 386/479/426 400/497/426 401/498/426
f 393/490/427 409/509/427 394/491/427
f 387/480/428 401/498/428 402/499/428
f 394/491/429 410/510/429 395/492/429
f 388/482/430 402/499/430 403/500/430
f 395/492/431 411/511/431 396/493/431
f 389/484/432 403/500/432 404/501/432
f 408/508/433 424/527/433 409/509/433
f 402/499/434 416/516/434 417/517/434
f 409/509/435 425/528/435 410/510/435
f 403/500/436 417/517/436 418/518/436
f 410/510/437 426/529/437 411/511/437
f 404/501/438 418/518/438 419/519/438
f 411/511/439 427/530/439 412/512/439
f 405/503/440 419/520/440 420/521/440
f 412/512/441 428/531/441 413/513/441
f 406/504/442 420/521/442 421/522/442
f 399/496/443 82/104/443 414/514/443
f 308/385/444 413/513/444 428/531/444
f 488/610/445 551/744/445 552/746/445
f 400/497/446 414/514/446 415/515/446
f 407/506/447 423/526/447 408/508/447
f 401/498/448 415/515/448 416/516/448
f 427/530/449 443/550/449 428/531/449
f 421/522/450 435/540/450 436/541/450
f 414/514/451 82/104/451 429/532/451
f 308/385/452 428/531/452 443/550/452
f 514/665/453 547/735/453 483/599/453
f 415/515/454 429/532/454 430/533/454
f 422/524/455 438/545/455 423/526/455
f 416/516/456 430/533/456 431/534/456
f 423/526/457 439/546/457 424/527/457
f 417/517/458 431/534/458 432/535/458
f 424/527/459 440/547/459 425/528/459
f 418/518/460 432/535/460 433/536/460
f 425/528/461 441/548/461 426/529/461
f 419/519/462 433/536/462 434/538/462
f 426/529/463 442/549/463 427/530/463
f 420/521/464 434/537/464 435/540/464
f 432/535/465 446/553/465 447/554/465
f 439/546/466 455/568/466 440/547/466
f 433/536/467 447/554/467 448/555/467
f 440/547/468 456/569/468 441/548/468
f 434/538/469 448/555/469 449/556/469
f 441/548/470 457/570/470 442/549/470
f 435/539/471 449/556/471 450/559/471
f 442/549/472 458/571/472 443/550/472
f 436/541/473 450/557/473 451/560/473
f 429/532/474 82/104/474 444/551/474
f 308/385/475 443/550/475 458/571/475
f 180/224/476 528/694/476 527/693/476
f 430/533/477 444/551/477 445/552/477
f 437/543/478 453/566/478 438/545/478
f 431/534/479 445/552/479 446/553/479
f 438/545/480 454/567/480 439/546/480
f 451/561/481 465/579/481 466/580/481
f 444/551/482 82/104/482 459/572/482
f 308/385/483 458/571/483 473/589/483
f 489/613/484 552/746/484 553/749/484
f 445/552/485 459/572/485 460/573/485
f 452/564/486 468/584/486 453/566/486
f 446/553/487 460/573/487 461/574/487
f 453/566/488 469/585/488 454/567/488
f 447/554/489 461/574/489 462/575/489
f 454/567/490 470/586/490 455/568/490
f 448/555/491 462/575/491 463/576/491
f 455/568/492 471/587/492 456/569/492
f 449/556/493 463/576/493 464/577/493
f 456/569/494 472/588/494 457/570/494
f 450/559/495 464/577/495 465/578/495
f 457/570/496 473/589/496 458/571/496
f 469/585/497 479/595/497 470/586/497
f 463/576/498 476/592/498 2/2/498
f 470/586/499 480/596/499 471/587/499
f 464/577/500 2/2/500 477/593/500
f 471/587/501 481/597/501 472/588/501
f 465/578/502 477/593/502 3/3/502
f 472/588/503 482/598/503 473/589/503
f 466/580/504 3/4/504 4/5/504
f 459/572/505 82/104/505 474/590/505
f 308/385/506 473/589/506 482/598/506
f 225/282/507 531/701/507 530/699/507
f 460/573/508 474/590/508 475/591/508
f 467/582/509 478/594/509 468/584/509
f 461/574/510 475/591/510 1/1/510
f 468/584/511 6/9/511 469/585/511
f 462/575/512 1/1/512 476/592/512
f 514/666/513 5/8/513 467/583/513
f 513/663/514 467/583/514 452/563/514
f 512/661/515 452/565/515 437/544/515
f 511/659/516 437/544/516 422/525/516
f 510/657/517 422/525/517 407/507/517
f 509/655/518 407/507/518 392/489/518
f 508/653/519 392/489/519 377/470/519
f 507/651/520 377/470/520 362/451/520
f 347/434/521 507/651/521 362/451/521
f 332/416/522 506/649/522 347/434/522
f 317/397/523 505/647/523 332/416/523
f 301/378/524 504/645/524 317/397/524
f 286/360/525 503/642/525 301/378/525
f 271/341/526 502/640/526 286/360/526
f 256/323/527 501/638/527 271/341/527
f 241/302/528 500/636/528 256/321/528
f 498/631/529 241/302/529 226/284/529
f 497/628/530 226/284/530 211/264/530
f 496/626/531 211/266/531 196/245/531
f 495/624/532 196/245/532 181/226/532
f 494/622/533 181/226/533 166/208/533
f 493/620/534 166/208/534 151/190/534
f 492/618/535 151/190/535 136/171/535
f 491/616/536 136/171/536 121/152/536
f 106/135/537 491/616/537 121/152/537
f 91/117/538 490/614/538 106/135/538
f 75/97/539 489/612/539 91/117/539
f 60/79/540 488/611/540 75/97/540
f 45/61/541 487/609/541 60/79/541
f 30/42/542 486/607/542 45/61/542
f 15/24/543 485/605/543 30/42/543
f 5/8/544 484/603/544 15/22/544
f 547/736/545 516/669/545 548/737/545
f 548/739/546 517/672/546 549/741/546
f 549/741/547 518/674/547 550/743/547
f 550/743/548 519/676/548 551/745/548
f 551/745/549 520/678/549 552/747/549
f 552/747/550 521/680/550 553/748/550
f 553/748/551 522/682/551 554/750/551
f 554/750/552 523/685/552 555/752/552
f 523/685/553 556/754/553 555/752/553
f 524/687/554 557/756/554 556/754/554
f 525/688/555 558/758/555 557/756/555
f 526/690/556 559/760/556 558/758/556
f 527/692/557 560/762/557 559/760/557
f 528/695/558 561/765/558 560/762/558
f 529/697/559 562/767/559 561/764/559
f 530/700/560 563/769/560 562/767/560
f 563/769/561 532/704/561 564/771/561
f 564/772/562 533/706/562 565/774/562
f 565/774/563 534/708/563 566/776/563
f 566/776/564 535/710/564 567/779/564
f 567/779/565 536/712/565 568/781/565
f 568/781/566 537/714/566 569/783/566
f 569/783/567 538/716/567 570/785/567
f 570/785/568 539/719/568 571/786/568
f 539/719/569 572/789/569 571/786/569
f 540/721/570 573/791/570 572/789/570
f 541/723/571 574/793/571 573/791/571
f 542/725/572 575/795/572 574/793/572
f 543/726/573 576/797/573 575/795/573
f 544/729/574 577/800/574 576/797/574
f 545/731/575 578/802/575 577/798/575
f 546/733/576 547/736/576 578/802/576
f 135/169/577 525/689/577 524/686/577
f 503/643/578 566/777/578 567/778/578
f 451/562/579 546/734/579 545/732/579
f 285/358/580 533/707/580 270/339/580
f 502/641/581 565/775/581 566/777/581
f 501/639/582 564/773/582 565/775/582
f 331/414/583 536/713/583 316/395/583
f 44/59/584 517/673/584 29/40/584
f 406/505/585 543/727/585 542/724/585
f 500/637/586 563/770/586 564/773/586
f 498/632/587 563/770/587 499/634/587
f 165/206/588 527/693/588 526/691/588
f 497/630/589 562/768/589 498/632/589
f 466/581/590 515/668/590 546/734/590
f 14/21/591 515/668/591 4/6/591
f 496/627/592 561/766/592 497/630/592
f 74/95/593 519/677/593 59/77/593
f 316/395/594 535/711/594 300/375/594
f 495/625/595 560/763/595 496/627/595
f 436/542/596 545/732/596 544/728/596
f 29/40/597 516/671/597 14/21/597
f 494/623/598 559/761/598 495/625/598
f 493/621/599 558/759/599 494/623/599
f 195/243/600 529/698/600 528/694/600
f 150/188/601 526/691/601 525/689/601
f 492/619/602 557/757/602 493/621/602
f 105/133/603 521/681/603 90/115/603
f 491/617/604 556/755/604 492/619/604
f 346/432/605 537/715/605 331/414/605
f 491/617/606 554/751/606 555/753/606
f 59/77/607 518/675/607 44/59/607
f 490/615/608 553/749/608 554/751/608
f 1/1/1 9/12/1 10/13/1
f 479/595/2 6/9/2 17/26/2
f 476/592/3 10/13/3 11/14/3
f 480/596/4 479/595/4 18/27/4
f 2/2/5 11/14/5 12/15/5
f 481/597/6 480/596/6 19/28/6
f 477/593/7 12/15/7 13/16/7
f 482/598/8 481/597/8 20/29/8
f 3/4/9 13/17/9 14/20/9
f 376/468/12 391/486/12 541/722/12
f 474/590/13 7/10/13 8/11/13
f 478/594/14 5/7/14 15/23/14
f 475/591/15 8/11/15 9/12/15
f 6/9/16 478/594/16 16/25/16
f 8/11/17 23/32/17 24/33/17
f 17/26/18 16/25/18 31/43/18
f 9/12/19 24/33/19 25/34/19
f 18/27/20 17/26/20 32/44/20
f 10/13/21 25/34/21 26/35/21
f 19/28/22 18/27/22 33/45/22
f 11/14/23 26/35/23 27/36/23
f 20/29/24 19/28/24 34/46/24
f 12/15/25 27/36/25 28/37/25
f 21/30/26 20/29/26 35/47/26
f 13/18/27 28/38/27 29/39/27
f 504/644/30 503/643/30 567/778/30
f 7/10/31 22/31/31 23/32/31
f 16/25/32 15/23/32 30/41/32
f 27/36/33 42/54/33 43/56/33
f 36/48/34 35/47/34 50/66/34
f 28/38/35 43/57/35 44/58/35
f 300/375/38 535/711/38 534/709/38
f 22/31/39 37/49/39 38/50/39
f 31/43/40 30/41/40 45/60/40
f 23/32/41 38/50/41 39/51/41
f 32/44/42 31/43/42 46/62/42
f 24/33/43 39/51/43 40/52/43
f 33/45/44 32/44/44 47/63/44
f 25/34/45 40/52/45 41/53/45
f 34/46/46 33/45/46 48/64/46
f 26/35/47 41/53/47 42/54/47
f 35/47/48 34/46/48 49/65/48
f 47/63/49 46/62/49 61/80/49
f 39/51/50 54/70/50 55/71/50
f 48/64/51 47/63/51 62/81/51
f 40/52/52 55/71/52 56/72/52
f 49/65/53 48/64/53 63/82/53
f 41/53/54 56/72/54 57/73/54
f 50/66/55 49/65/55 64/83/55
f 42/55/56 57/74/56 58/75/56
f 51/67/57 50/66/57 65/84/57
f 43/57/58 58/75/58 59/76/58
f 505/646/61 504/644/61 568/780/61
f 37/49/62 52/68/62 53/69/62
f 46/62/63 45/60/63 60/78/63
f 38/50/64 53/69/64 54/70/64
f 66/85/65 65/84/65 80/102/65
f 58/75/66 73/93/66 74/94/66
f 255/319/69 532/703/69 531/701/69
f 52/68/70 67/86/70 68/87/70
f 61/80/71 60/78/71 75/96/71
f 53/69/72 68/87/72 69/88/72
f 62/81/73 61/80/73 76/98/73
f 54/70/74 69/88/74 70/89/74
f 63/82/75 62/81/75 77/99/75
f 55/71/76 70/89/76 71/90/76
f 64/83/77 63/82/77 78/100/77
f 56/72/78 71/90/78 72/91/78
f 65/84/79 64/83/79 79/101/79
f 57/74/80 72/92/80 73/93/80
f 69/88/81 85/107/81 86/108/81
f 78/100/82 77/99/82 93/119/82
f 70/89/83 86/108/83 87/109/83
f 79/101/84 78/100/84 94/120/84
f 71/90/85 87/109/85 88/111/85
f 80/102/86 79/101/86 95/121/86
f 72/92/87 88/112/87 89/113/87
f 81/103/88 80/102/88 96/122/88
f 73/93/89 89/113/89 90/114/89
f 506/648/92 505/646/92 569/782/92
f 67/86/93 83/105/93 84/106/93
f 76/98/94 75/96/94 91/116/94
f 68/87/95 84/106/95 85/107/95
f 77/99/96 76/98/96 92/118/96
f 89/113/97 104/131/97 105/132/97
f 421/523/100 436/542/100 544/728/100
f 83/105/101 98/124/101 99/125/101
f 92/118/102 91/116/102 106/134/102
f 84/106/103 99/125/103 100/126/103
f 93/119/104 92/118/104 107/136/104
f 85/107/105 100/126/105 101/127/105
f 94/120/106 93/119/106 108/137/106
f 86/108/107 101/127/107 102/128/107
f 95/121/108 94/120/108 109/138/108
f 87/110/109 102/129/109 103/130/109
f 96/122/110 95/121/110 110/139/110
f 88/112/111 103/130/111 104/131/111
f 97/123/112 96/122/112 111/140/112
f 109/138/113 108/137/113 123/155/113
f 101/127/114 116/145/114 117/146/114
f 110/139/115 109/138/115 124/156/115
f 102/129/116 117/147/116 118/148/116
f 111/140/117 110/139/117 125/157/117
f 103/130/118 118/148/118 119/149/118
f 112/141/119 111/140/119 126/158/119
f 104/131/120 119/149/120 120/150/120
f 120/151/123 523/684/123 522/683/123
f 98/124/124 113/142/124 114/143/124
f 107/136/125 106/134/125 121/153/125
f 99/125/126 114/143/126 115/144/126
f 108/137/127 107/136/127 122/154/127
f 100/126/128 115/144/128 116/145/128
f 507/650/130 506/648/130 570/784/130
f 114/143/131 113/142/131 128/160/131
f 121/153/132 136/170/132 137/172/132
f 115/144/133 114/143/133 129/161/133
f 122/154/134 137/172/134 138/173/134
f 116/145/135 115/144/135 130/162/135
f 123/155/136 138/173/136 139/174/136
f 117/146/137 116/145/137 131/163/137
f 124/156/138 139/174/138 140/175/138
f 118/148/139 117/147/139 132/164/139
f 125/157/140 140/175/140 141/176/140
f 119/149/141 118/148/141 133/166/141
f 126/158/142 141/176/142 142/177/142
f 120/150/143 119/149/143 134/167/143
f 139/174/145 154/193/145 155/194/145
f 133/166/146 132/164/146 147/182/146
f 140/175/147 155/194/147 156/195/147
f 134/167/148 133/166/148 148/185/148
f 141/176/149 156/195/149 157/196/149
f 135/168/150 134/167/150 149/186/150
f 507/650/153 571/787/153 572/788/153
f 129/161/154 128/160/154 143/178/154
f 136/170/155 151/189/155 152/191/155
f 130/162/156 129/161/156 144/179/156
f 137/172/157 152/191/157 153/192/157
f 131/163/158 130/162/158 145/180/158
f 138/173/159 153/192/159 154/193/159
f 132/165/160 131/163/160 146/181/160
f 144/179/161 143/178/161 158/197/161
f 151/189/162 166/207/162 167/209/162
f 145/180/163 144/179/163 159/198/163
f 152/191/164 167/209/164 168/210/164
f 146/181/165 145/180/165 160/199/165
f 153/192/166 168/210/166 169/211/166
f 147/183/167 146/181/167 161/200/167
f 154/193/168 169/211/168 170/212/168
f 148/184/169 147/183/169 162/201/169
f 155/194/170 170/212/170 171/213/170
f 149/186/171 148/185/171 163/203/171
f 156/195/172 171/213/172 172/214/172
f 150/187/173 149/186/173 164/204/173
f 361/450/176 539/718/176 538/717/176
f 163/202/177 162/201/177 177/219/177
f 170/212/178 185/230/178 186/231/178
f 164/204/179 163/203/179 178/221/179
f 171/213/180 186/231/180 187/232/180
f 165/205/181 164/204/181 179/222/181
f 391/486/184 406/505/184 542/724/184
f 159/198/185 158/197/185 173/215/185
f 166/207/186 181/225/186 182/227/186
f 160/199/187 159/198/187 174/216/187
f 167/209/188 182/227/188 183/228/188
f 161/200/189 160/199/189 175/217/189
f 168/210/190 183/228/190 184/229/190
f 162/201/191 161/200/191 176/218/191
f 169/211/192 184/229/192 185/230/192
f 181/225/193 196/244/193 197/246/193
f 175/217/194 174/216/194 189/234/194
f 182/227/195 197/246/195 198/247/195
f 176/218/196 175/217/196 190/235/196
f 183/228/197 198/247/197 199/248/197
f 177/219/198 176/218/198 191/236/198
f 184/229/199 199/248/199 200/249/199
f 178/220/200 177/219/200 192/237/200
f 185/230/201 200/249/201 201/250/201
f 179/222/202 178/221/202 193/238/202
f 186/231/203 201/250/203 202/251/203
f 180/223/204 179/222/204 194/241/204
f 508/652/207 572/788/207 573/790/207
f 174/216/208 173/215/208 188/233/208
f 200/249/209 215/270/209 216/271/209
f 194/240/210 193/239/210 208/257/210
f 201/250/211 216/271/211 217/272/211
f 195/242/212 194/241/212 209/258/212
f 509/654/215 573/790/215 574/792/215
f 189/234/216 188/233/216 203/252/216
f 196/244/217 211/265/217 212/267/217
f 190/235/218 189/234/218 204/253/218
f 197/246/219 212/267/219 213/268/219
f 191/236/220 190/235/220 205/254/220
f 198/247/221 213/268/221 214/269/221
f 192/237/222 191/236/222 206/255/222
f 199/248/223 214/269/223 215/270/223
f 193/239/224 192/237/224 207/256/224
f 205/254/225 204/253/225 219/274/225
f 212/267/226 227/285/226 228/286/226
f 206/255/227 205/254/227 220/275/227
f 213/268/228 228/286/228 229/287/228
f 207/256/229 206/255/229 221/276/229
f 214/269/230 229/287/230 230/288/230
f 208/257/231 207/256/231 222/277/231
f 215/270/232 230/288/232 231/289/232
f 209/259/233 208/257/233 223/278/233
f 216/271/234 231/289/234 232/290/234
f 210/262/235 209/260/235 224/280/235
f 484/601/238 483/599/238 547/735/238
f 204/253/239 203/252/239 218/273/239
f 211/265/240 226/283/240 227/285/240
f 224/279/241 223/278/241 238/296/241
f 231/289/242 246/307/242 247/308/242
f 225/281/243 224/280/243 239/298/243
f 210/263/246 225/282/246 530/699/246
f 219/274/247 218/273/247 233/291/247
f 226/283/248 241/301/248 242/303/248
f 220/275/249 219/274/249 234/292/249
f 227/285/250 242/303/250 243/304/250
f 221/276/251 220/275/251 235/293/251
f 228/286/252 243/304/252 244/305/252
f 222/277/253 221/276/253 236/294/253
f 229/287/254 244/305/254 245/306/254
f 223/278/255 222/277/255 237/295/255
f 230/288/256 245/306/256 246/307/256
f 243/304/257 242/303/257 257/324/257
f 235/293/258 250/311/258 251/312/258
f 244/305/259 243/304/259 258/325/259
f 236/294/260 251/312/260 252/313/260
f 245/306/261 244/305/261 259/326/261
f 237/295/262 252/313/262 253/314/262
f 246/307/263 245/306/263 260/327/263
f 238/296/264 253/314/264 254/315/264
f 247/308/265 246/307/265 261/328/265
f 239/298/266 254/316/266 255/320/266
f 120/151/269 135/169/269 524/686/269
f 233/291/270 248/309/270 249/310/270
f 242/303/271 241/301/271 256/322/271
f 234/292/272 249/310/272 250/311/272
f 262/329/273 261/328/273 276/346/273
f 254/317/274 269/337/274 270/338/274
f 510/656/277 574/792/277 575/794/277
f 248/309/278 263/330/278 264/331/278
f 257/324/279 256/322/279 271/340/279
f 249/310/280 264/331/280 265/332/280
f 258/325/281 257/324/281 272/342/281
f 250/311/282 265/332/282 266/333/282
f 259/326/283 258/325/283 273/343/283
f 251/312/284 266/333/284 267/334/284
f 260/327/285 259/326/285 274/344/285
f 252/313/286 267/334/286 268/335/286
f 261/328/287 260/327/287 275/345/287
f 253/314/288 268/335/288 269/336/288
f 274/344/289 273/343/289 288/362/289
f 266/333/290 281/351/290 282/352/290
f 275/345/291 274/344/291 289/363/291
f 267/334/292 282/352/292 283/353/292
f 276/346/293 275/345/293 290/364/293
f 268/335/294 283/353/294 284/355/294
f 277/347/295 276/346/295 291/365/295
f 269/337/296 284/356/296 285/357/296
f 485/604/299 484/601/299 548/738/299
f 263/330/300 278/348/300 279/349/300
f 272/342/301 271/340/301 286/359/301
f 264/331/302 279/349/302 280/350/302
f 273/343/303 272/342/303 287/361/303
f 265/332/304 280/350/304 281/351/304
f 90/115/307 521/681/307 520/679/307
f 278/348/308 293/367/308 294/368/308
f 287/361/309 286/359/309 301/377/309
f 279/349/310 294/368/310 295/369/310
f 288/362/311 287/361/311 302/379/311
f 280/350/312 295/369/312 296/370/312
f 289/363/313 288/362/313 303/380/313
f 281/351/314 296/370/314 297/371/314
f 290/364/315 289/363/315 304/381/315
f 282/352/316 297/371/316 298/372/316
f 291/365/317 290/364/317 305/382/317
f 283/354/318 298/373/318 299/374/318
f 292/366/319 291/365/319 306/383/319
f 284/356/320 299/374/320 300/376/320
f 296/370/321 312/389/321 313/390/321
f 305/382/322 304/381/322 320/400/322
f 297/371/323 313/390/323 314/391/323
f 306/383/324 305/382/324 321/401/324
f 298/373/325 314/392/325 315/393/325
f 307/384/326 306/383/326 322/402/326
f 299/374/327 315/393/327 316/394/327
f 270/339/330 533/707/330 532/703/330
f 293/367/331 309/386/331 310/387/331
f 302/379/332 301/377/332 317/396/332
f 294/368/333 310/387/333 311/388/333
f 303/380/334 302/379/334 318/398/334
f 295/369/335 311/388/335 312/389/335
f 304/381/336 303/380/336 319/399/336
f 511/658/337 575/794/337 576/796/337
f 309/386/338 324/404/338 325/405/338
f 318/398/339 317/396/339 332/415/339
f 310/387/340 325/405/340 326/406/340
f 319/399/341 318/398/341 333/417/341
f 311/388/342 326/406/342 327/407/342
f 320/400/343 319/399/343 334/418/343
f 312/389/344 327/407/344 328/408/344
f 321/401/345 320/400/345 335/419/345
f 313/390/346 328/408/346 329/410/346
f 322/402/347 321/401/347 336/420/347
f 314/392/348 329/411/348 330/412/348
f 323/403/349 322/402/349 337/421/349
f 315/393/350 330/412/350 331/413/350
f 336/420/353 335/419/353 350/437/353
f 328/409/354 343/428/354 344/429/354
f 337/421/355 336/420/355 351/438/355
f 329/411/356 344/429/356 345/430/356
f 338/422/357 337/421/357 352/439/357
f 330/412/358 345/430/358 346/431/358
f 486/606/361 485/604/361 549/740/361
f 324/404/362 339/423/362 340/424/362
f 333/417/363 332/415/363 347/433/363
f 325/405/364 340/424/364 341/425/364
f 334/418/365 333/417/365 348/435/365
f 326/406/366 341/425/366 342/426/366
f 335/419/367 334/418/367 349/436/367
f 327/407/368 342/426/368 343/427/368
f 339/423/369 354/441/369 355/442/369
f 348/435/370 347/433/370 362/452/370
f 340/424/371 355/442/371 356/443/371
f 349/436/372 348/435/372 363/453/372
f 341/425/373 356/443/373 357/444/373
f 350/437/374 349/436/374 364/454/374
f 342/426/375 357/444/375 358/446/375
f 351/438/376 350/437/376 365/455/376
f 343/428/377 358/445/377 359/447/377
f 352/439/378 351/438/378 366/456/378
f 344/429/379 359/447/379 360/448/379
f 353/440/380 352/439/380 367/457/380
f 345/430/381 360/448/381 361/449/381
f 512/660/384 576/796/384 577/799/384
f 359/447/385 358/445/385 373/464/385
f 366/456/386 381/474/386 382/475/386
f 360/448/387 359/447/387 374/465/387
f 367/457/388 382/475/388 383/476/388
f 361/449/389 360/448/389 375/466/389
f 487/608/392 486/606/392 550/742/392
f 355/442/393 354/441/393 369/459/393
f 362/452/394 377/469/394 378/471/394
f 356/443/395 355/442/395 370/460/395
f 363/453/396 378/471/396 379/472/396
f 357/444/397 356/443/397 371/461/397
f 364/454/398 379/472/398 380/473/398
f 358/446/399 357/444/399 372/462/399
f 365/455/400 380/473/400 381/474/400
f 377/469/401 392/488/401 393/490/401
f 371/461/402 370/460/402 385/478/402
f 378/471/403 393/490/403 394/491/403
f 372/462/404 371/461/404 386/479/404
f 379/472/405 394/491/405 395/492/405
f 373/463/406 372/462/406 387/480/406
f 380/473/407 395/492/407 396/493/407
f 374/465/408 373/464/408 388/481/408
f 381/474/409 396/493/409 397/494/409
f 375/466/410 374/465/410 389/483/410
f 382/475/411 397/494/411 398/495/411
f 376/467/412 375/466/412 390/485/412
f 361/450/415 376/468/415 540/720/415
f 370/460/416 369/459/416 384/477/416
f 396/493/417 411/511/417 412/512/417
f 390/485/418 389/483/418 404/502/418
f 397/494/419 412/512/419 413/513/419
f 391/487/420 390/485/420 405/503/420
f 513/662/423 577/799/423 578/801/423
f 385/478/424 384/477/424 399/496/424
f 392/488/425 407/506/425 408/508/425
f 386/479/426 385/478/426 400/497/426
f 393/490/427 408/508/427 409/509/427
f 387/480/428 386/479/428 401/498/428
f 394/491/429 409/509/429 410/510/429
f 388/482/430 387/480/430 402/499/430
f 395/492/431 410/510/431 411/511/431
f 389/484/432 388/482/432 403/500/432
f 408/508/433 423/526/433 424/527/433
f 402/499/434 401/498/434 416/516/434
f 409/509/435 424/527/435 425/528/435
f 403/500/436 402/499/436 417/517/436
f 410/510/437 425/528/437 426/529/437
f 404/501/438 403/500/438 418/518/438
f 411/511/439 426/529/439 427/530/439
f 405/503/440 404/502/440 419/520/440
f 412/512/441 427/530/441 428/531/441
f 406/504/442 405/503/442 420/521/442
f 488/610/445 487/608/445 551/744/445
f 400/497/446 399/496/446 414/514/446
f 407/506/447 422/524/447 423/526/447
f 401/498/448 400/497/448 415/515/448
f 427/530/449 442/549/449 443/550/449
f 421/522/450 420/521/450 435/540/450
f 514/665/453 578/801/453 547/735/453
f 415/515/454 414/514/454 429/532/454
f 422/524/455 437/543/455 438/545/455
f 416/516/456 415/515/456 430/533/456
f 423/526/457 438/545/457 439/546/457
f 417/517/458 416/516/458 431/534/458
f 424/527/459 439/546/459 440/547/459
f 418/518/460 417/517/460 432/535/460
f 425/528/461 440/547/461 441/548/461
f 419/519/462 418/518/462 433/536/462
f 426/529/463 441/548/463 442/549/463
f 420/521/464 419/520/464 434/537/464
f 432/535/465 431/534/465 446/553/465
f 439/546/466 454/567/466 455/568/466
f 433/536/467 432/535/467 447/554/467
f 440/547/468 455/568/468 456/569/468
f 434/538/469 433/536/469 448/555/469
f 441/548/470 456/569/470 457/570/470
f 435/539/471 434/538/471 449/556/471
f 442/549/472 457/570/472 458/571/472
f 436/541/473 435/540/473 450/557/473
f 180/224/476 195/243/476 528/694/476
f 430/533/477 429/532/477 444/551/477
f 437/543/478 452/564/478 453/566/478
f 431/534/479 430/533/479 445/552/479
f 438/545/480 453/566/480 454/567/480
f 451/561/481 450/558/481 465/579/481
f 489/613/484 488/610/484 552/746/484
f 445/552/485 444/551/485 459/572/485
f 452/564/486 467/582/486 468/584/486
f 446/553/487 445/552/487 460/573/487
f 453/566/488 468/584/488 469/585/488
f 447/554/489 446/553/489 461/574/489
f 454/567/490 469/585/490 470/586/490
f 448/555/491 447/554/491 462/575/491
f 455/568/492 470/586/492 471/587/492
f 449/556/493 448/555/493 463/576/493
f 456/569/494 471/587/494 472/588/494
f 450/559/495 449/556/495 464/577/495
f 457/570/496 472/588/496 473/589/496
f 469/585/497 6/9/497 479/595/497
f 463/576/498 462/575/498 476/592/498
f 470/586/499 479/595/499 480/596/499
f 464/577/500 463/576/500 2/2/500
f 471/587/501 480/596/501 481/597/501
f 465/578/609 464/577/609 477/593/609
f 472/588/503 481/597/503 482/598/503
f 466/580/504 465/579/504 3/4/504
f 225/282/507 240/300/507 531/701/507
f 460/573/508 459/572/508 474/590/508
f 467/582/509 5/7/509 478/594/509
f 461/574/510 460/573/510 475/591/510
f 468/584/511 478/594/511 6/9/511
f 462/575/512 461/574/512 1/1/512
f 514/666/513 483/600/513 5/8/513
f 513/663/514 514/666/514 467/583/514
f 512/661/515 513/664/515 452/565/515
f 511/659/516 512/661/516 437/544/516
f 510/657/517 511/659/517 422/525/517
f 509/655/518 510/657/518 407/507/518
f 508/653/519 509/655/519 392/489/519
f 507/651/520 508/653/520 377/470/520
f 347/434/521 506/649/521 507/651/521
f 332/416/522 505/647/522 506/649/522
f 317/397/523 504/645/523 505/647/523
f 301/378/524 503/642/524 504/645/524
f 286/360/525 502/640/525 503/642/525
f 271/341/526 501/638/526 502/640/526
f 256/323/527 500/635/527 501/638/527
f 241/302/528 499/633/528 500/636/528
f 498/631/529 499/633/529 241/302/529
f 497/628/530 498/631/530 226/284/530
f 496/626/531 497/629/531 211/266/531
f 495/624/532 496/626/532 196/245/532
f 494/622/533 495/624/533 181/226/533
f 493/620/534 494/622/534 166/208/534
f 492/618/535 493/620/535 151/190/535
f 491/616/536 492/618/536 136/171/536
f 106/135/537 490/614/537 491/616/537
f 91/117/538 489/612/538 490/614/538
f 75/97/539 488/611/539 489/612/539
f 60/79/540 487/609/540 488/611/540
f 45/61/541 486/607/541 487/609/541
f 30/42/542 485/605/542 486/607/542
f 15/24/543 484/602/543 485/605/543
f 5/8/544 483/600/544 484/603/544
f 547/736/545 515/667/545 516/669/545
f 548/739/546 516/670/546 517/672/546
f 549/741/547 517/672/547 518/674/547
f 550/743/548 518/674/548 519/676/548
f 551/745/549 519/676/549 520/678/549
f 552/747/550 520/678/550 521/680/550
f 553/748/551 521/680/551 522/682/551
f 554/750/552 522/682/552 523/685/552
f 523/685/553 524/687/553 556/754/553
f 524/687/554 525/688/554 557/756/554
f 525/688/555 526/690/555 558/758/555
f 526/690/556 527/692/556 559/760/556
f 527/692/557 528/695/557 560/762/557
f 528/695/558 529/696/558 561/765/558
f 529/697/559 530/700/559 562/767/559
f 530/700/560 531/702/560 563/769/560
f 563/769/561 531/702/561 532/704/561
f 564/772/562 532/705/562 533/706/562
f 565/774/563 533/706/563 534/708/563
f 566/776/564 534/708/564 535/710/564
f 567/779/565 535/710/565 536/712/565
f 568/781/566 536/712/566 537/714/566
f 569/783/567 537/714/567 538/716/567
f 570/785/568 538/716/568 539/719/568
f 539/719/569 540/721/569 572/789/569
f 540/721/570 541/723/570 573/791/570
f 541/723/571 542/725/571 574/793/571
f 542/725/572 543/726/572 575/795/572
f 543/726/573 544/729/573 576/797/573
f 544/729/574 545/730/574 577/800/574
f 545/731/575 546/733/575 578/802/575
f 546/733/576 515/667/576 547/736/576
f 135/169/577 150/188/577 525/689/577
f 503/643/578 502/641/578 566/777/578
f 451/562/579 466/581/579 546/734/579
f 285/358/580 534/709/580 533/707/580
f 502/641/581 501/639/581 565/775/581
f 501/639/582 500/637/582 564/773/582
f 331/414/583 537/715/583 536/713/583
f 44/59/584 518/675/584 517/673/584
f 406/505/585 421/523/585 543/727/585
f 500/637/586 499/634/586 563/770/586
f 498/632/587 562/768/587 563/770/587
f 165/206/588 180/224/588 527/693/588
f 497/630/589 561/766/589 562/768/589
f 466/581/590 4/6/590 515/668/590
f 14/21/591 516/671/591 515/668/591
f 496/627/592 560/763/592 561/766/592
f 74/95/593 520/679/593 519/677/593
f 316/395/594 536/713/594 535/711/594
f 495/625/595 559/761/595 560/763/595
f 436/542/596 451/562/596 545/732/596
f 29/40/597 517/673/597 516/671/597
f 494/623/598 558/759/598 559/761/598
f 493/621/599 557/757/599 558/759/599
f 195/243/600 210/263/600 529/698/600
f 150/188/601 165/206/601 526/691/601
f 492/619/602 556/755/602 557/757/602
f 105/133/603 522/683/603 521/681/603
f 491/617/604 555/753/604 556/755/604
f 346/432/605 538/717/605 537/715/605
f 491/617/606 490/615/606 554/751/606
f 59/77/607 519/677/607 518/675/607
f 490/615/608 489/613/608 553/749/608
