# Blender 3.3.1
# www.blender.org
o Torus.001
v 1.731265 0.442751 0.227228
v 1.691780 0.544208 0.203827
v 1.583905 0.618480 0.139892
v 1.436546 0.645666 0.052556
v 1.289186 0.618480 -0.034781
v 1.181311 0.544208 -0.098716
v 1.141827 0.442751 -0.122117
v 1.181311 0.341294 -0.098716
v 1.289186 0.267022 -0.034781
v 1.436546 0.239837 0.052556
v 1.583905 0.267022 0.139892
v 1.691780 0.341294 0.203827
v 2.001984 0.442751 -0.009696
v 1.945083 0.579537 -0.033050
v 1.789627 0.679671 -0.096855
v 1.577270 0.716322 -0.184013
v 1.364912 0.679671 -0.271171
v 1.209456 0.579537 -0.334976
v 1.152555 0.442751 -0.358330
v 1.209456 0.305966 -0.334976
v 1.364912 0.205832 -0.271171
v 1.577270 0.169180 -0.184013
v 1.789627 0.205832 -0.096855
v 1.945083 0.305966 -0.033050
v 2.201423 0.442751 -0.561952
v 2.137014 0.585124 -0.559574
v 1.961045 0.689348 -0.553075
v 1.720666 0.727497 -0.544197
v 1.480287 0.689348 -0.535320
v 1.304317 0.585124 -0.528821
v 1.239908 0.442751 -0.526443
v 1.304317 0.300379 -0.528821
v 1.480287 0.196154 -0.535320
v 1.720666 0.158006 -0.544197
v 1.961045 0.196154 -0.553075
v 2.137014 0.300379 -0.559574
v 2.285224 0.442751 -0.851815
v 2.218028 0.592116 -0.839592
v 2.034443 0.701458 -0.806200
v 1.783662 0.741480 -0.760584
v 1.532881 0.701458 -0.714969
v 1.349297 0.592116 -0.681576
v 1.282101 0.442751 -0.669353
v 1.349297 0.293387 -0.681576
v 1.532881 0.184044 -0.714969
v 1.783662 0.144022 -0.760584
v 2.034443 0.184044 -0.806200
v 2.218028 0.293387 -0.839592
v 2.355442 0.442751 -1.373533
v 2.292332 0.605115 -1.332648
v 2.119910 0.723974 -1.220950
v 1.738110 0.741480 -1.044758
v 1.493024 0.701458 -0.963621
v 1.313607 0.592116 -0.904224
v 1.247937 0.442751 -0.882484
v 1.313607 0.293387 -0.904224
v 1.493024 0.184044 -0.963621
v 1.738110 0.144022 -1.044758
v 2.119910 0.161529 -1.220950
v 2.292332 0.280387 -1.332648
v 2.300842 0.442751 -1.691422
v 2.239194 0.615879 -1.638344
v 2.070770 0.742617 -1.493333
v 1.840698 0.789007 -1.295244
v 1.501112 0.718610 -1.133943
v 1.317519 0.602018 -1.043965
v 1.250320 0.442751 -1.011030
v 1.317519 0.283484 -1.043965
v 1.501112 0.166893 -1.133943
v 1.840698 0.096496 -1.295244
v 2.070770 0.142885 -1.493333
v 2.239194 0.269623 -1.638344
v 2.050726 0.442751 -2.011434
v 1.995781 0.615879 -1.949782
v 1.845667 0.742617 -1.781344
v 1.640606 0.789007 -1.551254
v 1.435546 0.742617 -1.321164
v 1.285431 0.615879 -1.152726
v 1.230486 0.442751 -1.091074
v 1.285431 0.269623 -1.152726
v 1.435546 0.142885 -1.321164
v 1.640606 0.096496 -1.551254
v 1.845667 0.142885 -1.781344
v 1.995781 0.269623 -1.949782
v 1.946175 0.442751 -2.312112
v 1.894031 0.633595 -2.235862
v 1.751570 0.773302 -2.027542
v 1.556965 0.824438 -1.742971
v 1.362360 0.773302 -1.458400
v 1.219899 0.633595 -1.250080
v 1.167755 0.442751 -1.173830
v 1.219899 0.251908 -1.250080
v 1.362360 0.112201 -1.458400
v 1.556965 0.061064 -1.742971
v 1.751570 0.112201 -2.027542
v 1.894031 0.251908 -2.235862
v 1.598493 0.442751 -2.572784
v 1.555665 0.633595 -2.489548
v 1.438656 0.773302 -2.262145
v 1.278819 0.824438 -1.951508
v 1.118982 0.773302 -1.640870
v 1.001973 0.633595 -1.413467
v 0.959145 0.442751 -1.330232
v 1.001973 0.251908 -1.413467
v 1.118982 0.112201 -1.640870
v 1.278819 0.061064 -1.951508
v 1.438656 0.112201 -2.262145
v 1.555665 0.251908 -2.489548
v 1.431511 0.442751 -2.872427
v 1.393157 0.666051 -2.768531
v 1.288373 0.829517 -2.484680
v 1.145234 0.889350 -2.096932
v 1.002095 0.829517 -1.709184
v 0.897310 0.666051 -1.425334
v 0.858957 0.442751 -1.321437
v 0.897310 0.219452 -1.425334
v 1.002095 0.055985 -1.709184
v 1.145234 -0.003847 -2.096932
v 1.288373 0.055985 -2.484680
v 1.393157 0.219452 -2.768531
v 0.968209 0.442751 -3.048894
v 0.942269 0.666051 -2.940269
v 0.871401 0.829517 -2.643499
v 0.774592 0.889350 -2.238106
v 0.677784 0.829517 -1.832711
v 0.606915 0.666051 -1.535942
v 0.580975 0.442751 -1.427317
v 0.606915 0.219452 -1.535942
v 0.677784 0.055985 -1.832711
v 0.774592 -0.003847 -2.238106
v 0.871401 0.055985 -2.643499
v 0.942269 0.219452 -2.940269
v 0.576457 0.442751 -3.304467
v 0.561014 0.706352 -3.172849
v 0.518824 0.899321 -2.813263
v 0.461191 0.969953 -2.322059
v 0.403557 0.899321 -1.830856
v 0.361367 0.706352 -1.471270
v 0.345924 0.442751 -1.339652
v 0.361367 0.179151 -1.471270
v 0.403557 -0.013819 -1.830856
v 0.461191 -0.084450 -2.322059
v 0.518824 -0.013819 -2.813263
v 0.561014 0.179151 -3.172849
v 0.000124 0.442751 -3.443171
v 0.000124 0.731975 -3.297513
v 0.000124 0.943702 -2.899570
v 0.000124 1.021199 -2.355968
v 0.000124 0.943702 -1.812366
v 0.000124 0.731975 -1.414422
v 0.000124 0.442751 -1.268765
v 0.000124 0.153527 -1.414422
v 0.000124 -0.058199 -1.812366
v 0.000124 -0.135697 -2.355968
v 0.000124 -0.058199 -2.899570
v 0.000124 0.153527 -3.297513
v -0.576210 0.442751 -3.304466
v -0.560767 0.706352 -3.172849
v -0.518577 0.899321 -2.813263
v -0.460943 0.969953 -2.322059
v -0.403310 0.899321 -1.830856
v -0.361119 0.706352 -1.471270
v -0.345676 0.442751 -1.339652
v -0.361119 0.179151 -1.471270
v -0.403310 -0.013819 -1.830856
v -0.460943 -0.084450 -2.322059
v -0.518577 -0.013819 -2.813263
v -0.560767 0.179151 -3.172849
v -0.967960 0.442751 -3.048894
v -0.942021 0.666051 -2.940269
v -0.871152 0.829517 -2.643499
v -0.774343 0.889350 -2.238106
v -0.677535 0.829517 -1.832712
v -0.606666 0.666051 -1.535942
v -0.580727 0.442751 -1.427317
v -0.606666 0.219452 -1.535942
v -0.677535 0.055985 -1.832712
v -0.774343 -0.003847 -2.238106
v -0.871152 0.055985 -2.643499
v -0.942021 0.219452 -2.940269
v -1.431263 0.442751 -2.872428
v -1.392909 0.666051 -2.768532
v -1.288124 0.829517 -2.484680
v -1.144985 0.889350 -2.096933
v -1.001847 0.829517 -1.709185
v -0.897062 0.666051 -1.425334
v -0.858708 0.442751 -1.321437
v -0.897062 0.219452 -1.425334
v -1.001847 0.055985 -1.709185
v -1.144985 -0.003847 -2.096933
v -1.288124 0.055985 -2.484680
v -1.392909 0.219452 -2.768532
v -1.598244 0.442751 -2.572784
v -1.555416 0.633595 -2.489548
v -1.438407 0.773302 -2.262146
v -1.278571 0.824438 -1.951508
v -1.118734 0.773302 -1.640870
v -1.001725 0.633595 -1.413467
v -0.958897 0.442751 -1.330232
v -1.001725 0.251908 -1.413467
v -1.118734 0.112201 -1.640870
v -1.278571 0.061064 -1.951508
v -1.438407 0.112201 -2.262146
v -1.555416 0.251908 -2.489548
v -1.945927 0.442751 -2.312113
v -1.893782 0.633595 -2.235862
v -1.751322 0.773302 -2.027542
v -1.556716 0.824438 -1.742971
v -1.362111 0.773302 -1.458401
v -1.120014 0.633595 -1.271021
v -1.048994 0.442751 -1.211950
v -1.120014 0.251908 -1.271021
v -1.362111 0.112201 -1.458401
v -1.556716 0.061064 -1.742971
v -1.751322 0.112201 -2.027542
v -1.893782 0.251908 -2.235862
v -2.050479 0.442751 -2.011434
v -1.995534 0.615879 -1.949782
v -1.845419 0.742617 -1.781344
v -1.640359 0.789007 -1.551253
v -1.346882 0.742617 -1.280380
v -1.156405 0.615879 -1.159450
v -1.086685 0.442751 -1.115186
v -1.156405 0.269623 -1.159450
v -1.346882 0.142885 -1.280380
v -1.640359 0.096496 -1.551253
v -1.845419 0.142885 -1.781344
v -1.995534 0.269623 -1.949782
v -2.300593 0.442751 -1.691422
v -2.238945 0.615879 -1.638344
v -2.070521 0.742617 -1.493333
v -1.729476 0.789007 -1.144582
v -1.453980 0.742617 -1.017012
v -1.252302 0.615879 -0.923625
v -1.178483 0.442751 -0.889443
v -1.252302 0.269623 -0.923625
v -1.453980 0.142885 -1.017012
v -1.729476 0.096496 -1.144582
v -2.070521 0.142885 -1.493333
v -2.238945 0.269623 -1.638344
v -2.245996 0.442751 -1.079026
v -2.174106 0.605115 -1.056972
v -1.977700 0.723974 -0.996719
v -1.709406 0.767479 -0.914413
v -1.441110 0.723974 -0.832106
v -1.244704 0.605115 -0.771853
v -1.172815 0.442751 -0.749799
v -1.244704 0.280387 -0.771853
v -1.441110 0.161529 -0.832106
v -1.709406 0.118024 -0.914413
v -1.977700 0.161529 -0.996719
v -2.174106 0.280387 -1.056972
v -2.299367 0.442751 -0.691624
v -2.226048 0.605115 -0.679950
v -2.025735 0.723974 -0.648057
v -1.752102 0.767479 -0.604491
v -1.478470 0.723974 -0.560924
v -1.278157 0.605115 -0.529032
v -1.204838 0.442751 -0.517358
v -1.278157 0.280387 -0.529032
v -1.478470 0.161529 -0.560924
v -1.752102 0.118024 -0.604491
v -2.025735 0.161529 -0.648057
v -2.226048 0.280387 -0.679950
v -2.201353 0.442751 -0.378618
v -2.131299 0.597515 -0.377575
v -1.939905 0.710809 -0.374728
v -1.678457 0.752278 -0.370838
v -1.417009 0.710809 -0.366948
v -1.225616 0.597515 -0.364101
v -1.155561 0.442751 -0.363058
v -1.225616 0.287988 -0.364101
v -1.417009 0.174693 -0.366948
v -1.678457 0.133225 -0.370838
v -1.939905 0.174693 -0.374728
v -2.131299 0.287988 -0.377575
v -2.079619 0.442751 -0.077572
v -2.013304 0.591441 -0.086277
v -1.832129 0.700290 -0.110059
v -1.584639 0.740131 -0.142546
v -1.337149 0.700290 -0.175033
v -1.155974 0.591441 -0.198815
v -1.089659 0.442751 -0.207520
v -1.155974 0.294061 -0.198815
v -1.337149 0.185213 -0.175033
v -1.584639 0.145371 -0.142546
v -1.832129 0.185213 -0.110059
v -2.013304 0.294061 -0.086277
v -1.613463 0.442751 0.387601
v -1.574506 0.540693 0.366798
v -1.468075 0.612391 0.309962
v -1.322687 0.638634 0.232324
v -1.177299 0.612391 0.154685
v -1.070868 0.540693 0.097850
v -1.031912 0.442751 0.077047
v -1.070868 0.344810 0.097850
v -1.177299 0.273112 0.154685
v -1.322687 0.246868 0.232324
v -1.468075 0.273112 0.309962
v -1.574506 0.344810 0.366798
v -0.832904 0.442751 0.286722
v 0.988267 0.442751 0.296918
vn 0.5980 0.3937 0.6981
vn 0.2940 0.8320 0.4705
vn 0.0053 0.9573 0.2891
vn -0.2697 0.9497 0.1594
vn -0.5774 0.8160 0.0263
vn -0.9262 0.3730 -0.0546
vn -0.9262 -0.3730 -0.0546
vn -0.5774 -0.8160 0.0263
vn -0.2697 -0.9497 0.1594
vn 0.0053 -0.9573 0.2891
vn 0.2940 -0.8320 0.4705
vn 0.5980 -0.3937 0.6981
vn 0.8556 0.4099 0.3162
vn 0.4729 0.8590 0.1959
vn 0.1356 0.9871 0.0846
vn -0.1570 0.9871 -0.0324
vn -0.4692 0.8590 -0.2049
vn -0.8099 0.4087 -0.4208
vn -0.8099 -0.4087 -0.4208
vn -0.4692 -0.8590 -0.2049
vn -0.1570 -0.9871 -0.0324
vn 0.1356 -0.9871 0.0846
vn 0.4729 -0.8590 0.1959
vn 0.8556 -0.4099 0.3162
vn 0.8803 0.3938 0.2645
vn 0.5057 0.8422 0.1869
vn 0.1597 0.9810 0.1099
vn -0.1560 0.9875 0.0209
vn -0.5095 0.8533 -0.1110
vn -0.8813 0.3944 -0.2602
vn -0.8813 -0.3944 -0.2602
vn -0.5095 -0.8533 -0.1110
vn -0.1560 -0.9875 0.0209
vn 0.1597 -0.9810 0.1099
vn 0.5057 -0.8422 0.1869
vn 0.8803 -0.3938 0.2645
vn 0.9065 0.3958 0.1470
vn 0.5261 0.8364 0.1538
vn 0.1532 0.9879 -0.0246
vn -0.1532 0.9879 0.0246
vn -0.4993 0.8627 0.0800
vn -0.8980 0.4158 0.1439
vn -0.8980 -0.4158 0.1439
vn -0.4993 -0.8627 0.0800
vn -0.1532 -0.9879 0.0246
vn 0.1532 -0.9879 -0.0246
vn 0.5261 -0.8364 0.1538
vn 0.9065 -0.3958 0.1470
vn 0.9095 0.3899 -0.1444
vn 0.5486 0.8351 -0.0418
vn 0.1573 0.9564 0.2459
vn -0.1303 0.9871 0.0932
vn -0.5085 0.8598 0.0467
vn -0.9162 0.4004 -0.0170
vn -0.9162 -0.4004 -0.0170
vn -0.5085 -0.8598 0.0467
vn -0.1303 -0.9871 0.0932
vn 0.1573 -0.9564 0.2459
vn 0.5486 -0.8351 -0.0418
vn 0.9095 -0.3899 -0.1444
vn 0.7132 0.4249 -0.5575
vn 0.3906 0.8684 -0.3053
vn 0.1191 0.9885 -0.0931
vn -0.1228 0.9780 0.1684
vn -0.4345 0.8684 0.2389
vn -0.8821 0.4174 0.2186
vn -0.8821 -0.4174 0.2186
vn -0.4345 -0.8684 0.2389
vn -0.1228 -0.9780 0.1684
vn 0.1191 -0.9885 -0.0931
vn 0.3906 -0.8684 -0.3053
vn 0.7132 -0.4249 -0.5575
vn 0.8781 0.3815 -0.2887
vn 0.5636 0.8182 -0.1134
vn 0.2791 0.9587 0.0554
vn 0.0151 0.9775 0.2105
vn -0.3179 0.8718 0.3726
vn -0.7218 0.4239 0.5471
vn -0.7218 -0.4239 0.5471
vn -0.3179 -0.8718 0.3726
vn 0.0151 -0.9775 0.2105
vn 0.2791 -0.9587 0.0554
vn 0.5636 -0.8182 -0.1134
vn 0.8781 -0.3815 -0.2887
vn 0.5400 0.4353 -0.7203
vn 0.2907 0.8747 -0.3878
vn 0.0881 0.9892 -0.1175
vn -0.0881 0.9892 0.1175
vn -0.2907 0.8747 0.3878
vn -0.5400 0.4353 0.7203
vn -0.5400 -0.4353 0.7203
vn -0.2907 -0.8747 0.3878
vn -0.0881 -0.9892 0.1175
vn 0.0881 -0.9892 -0.1175
vn 0.2907 -0.8747 -0.3878
vn 0.5400 -0.4353 -0.7203
vn 0.8198 0.3733 -0.4341
vn 0.5782 0.7935 -0.1900
vn 0.3917 0.9187 0.0503
vn 0.2714 0.9175 0.2907
vn 0.1804 0.7940 0.5806
vn 0.0188 0.3962 0.9180
vn 0.0188 -0.3962 0.9180
vn 0.1804 -0.7940 0.5806
vn 0.2714 -0.9175 0.2907
vn 0.3917 -0.9187 0.0503
vn 0.5782 -0.7935 -0.1900
vn 0.8199 -0.3733 -0.4341
vn 0.3189 0.4443 -0.8372
vn 0.1692 0.8798 -0.4442
vn 0.0510 0.9897 -0.1339
vn -0.0510 0.9897 0.1339
vn -0.1692 0.8798 0.4442
vn -0.3189 0.4443 0.8372
vn -0.3189 -0.4443 0.8372
vn -0.1692 -0.8798 0.4442
vn -0.0510 -0.9897 0.1339
vn 0.0510 -0.9897 -0.1339
vn 0.1692 -0.8798 -0.4442
vn 0.3189 -0.4443 -0.8372
vn 0.5038 0.4245 -0.7523
vn 0.3541 0.8523 -0.3849
vn 0.2678 0.9603 -0.0778
vn 0.1968 0.9621 0.1890
vn 0.2154 0.8327 0.5101
vn 0.2939 0.3903 0.8725
vn 0.2939 -0.3903 0.8725
vn 0.2154 -0.8327 0.5101
vn 0.1968 -0.9621 0.1890
vn 0.2678 -0.9603 -0.0778
vn 0.3541 -0.8523 -0.3849
vn 0.5038 -0.4245 -0.7523
vn 0.2135 0.4464 -0.8690
vn 0.1506 0.8783 -0.4537
vn 0.1188 0.9847 -0.1276
vn 0.0981 0.9834 0.1529
vn 0.1176 0.8692 0.4803
vn 0.1700 0.4322 0.8856
vn 0.1700 -0.4322 0.8856
vn 0.1176 -0.8692 0.4803
vn 0.0981 -0.9834 0.1529
vn 0.1188 -0.9847 -0.1276
vn 0.1506 -0.8783 -0.4537
vn 0.2135 -0.4464 -0.8690
vn -0.2101 0.4398 -0.8732
vn -0.1432 0.8737 -0.4649
vn -0.1076 0.9842 -0.1403
vn -0.1146 0.9835 0.1402
vn -0.1353 0.8747 0.4654
vn -0.1801 0.4424 0.8785
vn -0.1801 -0.4424 0.8785
vn -0.1353 -0.8747 0.4654
vn -0.1146 -0.9835 0.1402
vn -0.1076 -0.9842 -0.1403
vn -0.1432 -0.8737 -0.4649
vn -0.2101 -0.4398 -0.8732
vn -0.4982 0.4105 -0.7637
vn -0.3412 0.8443 -0.4131
vn -0.2437 0.9636 -0.1100
vn -0.2443 0.9554 0.1660
vn -0.2637 0.8367 0.4800
vn -0.3190 0.4084 0.8553
vn -0.3190 -0.4084 0.8553
vn -0.2637 -0.8367 0.4800
vn -0.2443 -0.9554 0.1660
vn -0.2437 -0.9636 -0.1100
vn -0.3412 -0.8443 -0.4131
vn -0.4982 -0.4105 -0.7637
vn -0.3189 0.4443 -0.8372
vn -0.1692 0.8798 -0.4442
vn -0.0510 0.9897 -0.1339
vn 0.0510 0.9897 0.1339
vn 0.1692 0.8798 0.4442
vn 0.3189 0.4443 0.8372
vn 0.3189 -0.4443 0.8372
vn 0.1692 -0.8798 0.4442
vn 0.0510 -0.9897 0.1339
vn -0.0510 -0.9897 -0.1339
vn -0.1692 -0.8798 -0.4442
vn -0.3189 -0.4443 -0.8372
vn -0.8175 0.3524 -0.4556
vn -0.5709 0.7848 -0.2412
vn -0.3630 0.9317 -0.0098
vn -0.2154 0.9500 0.2261
vn -0.1004 0.8457 0.5241
vn -0.0798 0.4092 0.9089
vn -0.0798 -0.4092 0.9089
vn -0.1004 -0.8457 0.5241
vn -0.2154 -0.9500 0.2261
vn -0.3630 -0.9317 -0.0098
vn -0.5709 -0.7848 -0.2412
vn -0.8175 -0.3524 -0.4556
vn -0.5400 0.4353 -0.7203
vn -0.2907 0.8747 -0.3878
vn -0.0881 0.9892 -0.1175
vn 0.0881 0.9892 0.1175
vn 0.2907 0.8747 0.3878
vn 0.7012 0.4113 0.5823
vn 0.7012 -0.4113 0.5823
vn 0.2907 -0.8747 0.3878
vn 0.0881 -0.9892 0.1175
vn -0.0881 -0.9892 -0.1175
vn -0.2907 -0.8747 -0.3878
vn -0.5400 -0.4353 -0.7203
vn -0.8802 0.3628 -0.3061
vn -0.5693 0.8079 -0.1525
vn -0.2745 0.9615 0.0149
vn -0.0045 0.9837 0.1798
vn 0.4261 0.8969 0.1181
vn 0.8416 0.4188 0.3410
vn 0.8416 -0.4188 0.3410
vn 0.4261 -0.8969 0.1181
vn -0.0045 -0.9837 0.1798
vn -0.2745 -0.9615 0.0149
vn -0.5693 -0.8079 -0.1525
vn -0.8802 -0.3628 -0.3061
vn -0.7132 0.4249 -0.5575
vn -0.3906 0.8684 -0.3053
vn -0.1191 0.9885 -0.0931
vn 0.1303 0.9911 0.0286
vn 0.4593 0.8684 0.1868
vn 0.8386 0.4249 0.3410
vn 0.8386 -0.4249 0.3410
vn 0.4593 -0.8684 0.1868
vn 0.1303 -0.9911 0.0286
vn -0.1191 -0.9885 -0.0931
vn -0.3906 -0.8684 -0.3053
vn -0.7132 -0.4249 -0.5575
vn -0.9466 0.3112 0.0844
vn -0.6453 0.7591 0.0860
vn -0.2102 0.9747 0.0759
vn 0.1288 0.9883 0.0812
vn 0.5145 0.8560 0.0505
vn 0.9210 0.3891 -0.0185
vn 0.9210 -0.3891 -0.0185
vn 0.5145 -0.8560 0.0505
vn 0.1288 -0.9883 0.0812
vn -0.2102 -0.9747 0.0759
vn -0.6453 -0.7591 0.0860
vn -0.9466 -0.3112 0.0844
vn -0.9010 0.4158 -0.1241
vn -0.5009 0.8627 -0.0690
vn -0.1537 0.9879 -0.0212
vn 0.1537 0.9879 0.0212
vn 0.5009 0.8627 0.0690
vn 0.9010 0.4158 0.1241
vn 0.9010 -0.4158 0.1241
vn 0.5009 -0.8627 0.0690
vn 0.1537 -0.9879 0.0212
vn -0.1537 -0.9879 -0.0212
vn -0.5009 -0.8627 -0.0690
vn -0.9010 -0.4158 -0.1241
vn -0.8831 0.3789 0.2765
vn -0.5231 0.8320 0.1848
vn -0.1719 0.9799 0.1012
vn 0.1546 0.9879 0.0155
vn 0.5199 0.8475 -0.1072
vn 0.8859 0.3810 -0.2647
vn 0.8859 -0.3810 -0.2647
vn 0.5199 -0.8475 -0.1072
vn 0.1546 -0.9879 0.0155
vn -0.1719 -0.9799 0.1012
vn -0.5231 -0.8320 0.1848
vn -0.8831 -0.3789 0.2765
vn -0.8556 0.3850 0.3460
vn -0.4994 0.8381 0.2197
vn -0.1573 0.9822 0.1031
vn 0.1568 0.9876 -0.0119
vn 0.5043 0.8479 -0.1634
vn 0.8555 0.3849 -0.3463
vn 0.8555 -0.3849 -0.3463
vn 0.5043 -0.8479 -0.1634
vn 0.1568 -0.9876 -0.0119
vn -0.1573 -0.9822 0.1031
vn -0.4994 -0.8381 0.2197
vn -0.8556 -0.3850 0.3460
vn -0.6653 0.3358 0.6668
vn -0.4049 0.7787 0.4793
vn -0.1137 0.9481 0.2969
vn 0.1754 0.9743 0.1412
vn 0.5130 0.8582 -0.0199
vn 0.8932 0.4093 -0.1862
vn 0.8932 -0.4093 -0.1862
vn 0.5130 -0.8582 -0.0199
vn 0.1754 -0.9743 0.1412
vn -0.1137 -0.9481 0.2969
vn -0.4049 -0.7787 0.4793
vn -0.6654 -0.3358 0.6668
vn 0.1266 0.1577 0.9793
vn 0.1553 0.4618 0.8733
vn 0.2177 0.7255 0.6528
vn 0.3243 0.8955 0.3046
vn 0.4869 0.8569 -0.1691
vn 0.6652 0.3987 -0.6313
vn 0.6652 -0.3987 -0.6313
vn 0.4869 -0.8569 -0.1691
vn 0.3243 -0.8955 0.3046
vn 0.2177 -0.7255 0.6528
vn 0.1553 -0.4618 0.8733
vn 0.1266 -0.1577 0.9793
vn 0.0902 0.2571 0.9622
vn 0.0051 0.6566 0.7542
vn -0.1276 0.8654 0.4846
vn -0.3009 0.9282 0.2188
vn -0.5454 0.8366 -0.0516
vn -0.8579 0.4064 -0.3144
vn -0.8579 -0.4064 -0.3144
vn -0.5454 -0.8366 -0.0516
vn -0.3009 -0.9282 0.2188
vn -0.1276 -0.8654 0.4846
vn 0.0051 -0.6566 0.7542
vn 0.0902 -0.2571 0.9622
vn 0.6110 0.3733 0.6981
vn 0.3304 0.8156 0.4750
vn 0.0469 0.9565 0.2880
vn -0.2282 0.9618 0.1515
vn -0.5572 0.8284 0.0575
vn -0.9199 0.3898 -0.0418
vn -0.9199 -0.3898 -0.0418
vn -0.5572 -0.8284 0.0575
vn -0.2282 -0.9618 0.1515
vn 0.0469 -0.9565 0.2880
vn 0.3304 -0.8156 0.4750
vn 0.6110 -0.3733 0.6981
vn 0.8672 0.3871 0.3132
vn 0.5053 0.8411 0.1931
vn 0.1591 0.9840 0.0807
vn -0.1578 0.9869 -0.0322
vn -0.5055 0.8416 -0.1900
vn -0.8378 0.3724 -0.3993
vn -0.8378 -0.3724 -0.3993
vn -0.5055 -0.8416 -0.1900
vn -0.1578 -0.9869 -0.0322
vn 0.1591 -0.9840 0.0807
vn 0.5053 -0.8411 0.1931
vn 0.8672 -0.3871 0.3132
vn 0.8890 0.3789 0.2570
vn 0.5270 0.8320 0.1733
vn 0.1741 0.9799 0.0974
vn -0.1542 0.9879 0.0189
vn -0.5222 0.8475 -0.0957
vn -0.8915 0.3810 -0.2451
vn -0.8915 -0.3810 -0.2451
vn -0.5222 -0.8475 -0.0957
vn -0.1542 -0.9879 0.0189
vn 0.1741 -0.9799 0.0974
vn 0.5270 -0.8320 0.1733
vn 0.8890 -0.3789 0.2570
vn 0.9349 0.3317 0.1258
vn 0.6125 0.7824 0.1129
vn 0.0779 0.9945 0.0700
vn 0.0779 -0.9945 0.0700
vn 0.6125 -0.7824 0.1129
vn 0.9349 -0.3317 0.1258
vn 0.9142 0.3737 -0.1570
vn 0.5615 0.8246 -0.0686
vn 0.2199 0.9751 0.0271
vn -0.1428 0.9815 0.1277
vn -0.5133 0.8560 0.0618
vn -0.9212 0.3891 0.0018
vn -0.9212 -0.3891 0.0018
vn -0.5133 -0.8560 0.0618
vn -0.1428 -0.9815 0.1277
vn 0.2199 -0.9751 0.0271
vn 0.5615 -0.8246 -0.0686
vn 0.9142 -0.3737 -0.1570
vn -0.1191 0.9885 0.0931
vn -0.4335 0.8621 0.2624
vn -0.8706 0.3853 0.3060
vn -0.8706 -0.3853 0.3060
vn -0.4335 -0.8621 0.2624
vn -0.1191 -0.9885 0.0931
vn 0.8802 0.3628 -0.3061
vn 0.5693 0.8079 -0.1525
vn 0.2745 0.9615 0.0149
vn 0.0045 0.9837 0.1798
vn -0.3208 0.8734 0.3664
vn -0.7162 0.4188 0.5583
vn -0.7162 -0.4188 0.5583
vn -0.3208 -0.8734 0.3664
vn 0.0045 -0.9837 0.1798
vn 0.2745 -0.9615 0.0149
vn 0.5693 -0.8079 -0.1525
vn 0.8802 -0.3628 -0.3061
vn 0.8175 0.3524 -0.4556
vn 0.5709 0.7848 -0.2412
vn 0.3630 0.9317 -0.0098
vn 0.2154 0.9500 0.2261
vn 0.1004 0.8457 0.5241
vn 0.0798 0.4092 0.9089
vn 0.0798 -0.4092 0.9089
vn 0.1004 -0.8457 0.5241
vn 0.2154 -0.9500 0.2261
vn 0.3630 -0.9317 -0.0098
vn 0.5709 -0.7848 -0.2412
vn 0.8175 -0.3524 -0.4556
vn 0.4982 0.4105 -0.7637
vn 0.3412 0.8443 -0.4131
vn 0.2437 0.9636 -0.1100
vn 0.2443 0.9554 0.1660
vn 0.2637 0.8367 0.4800
vn 0.3190 0.4084 0.8553
vn 0.3190 -0.4084 0.8553
vn 0.2637 -0.8367 0.4800
vn 0.2443 -0.9554 0.1660
vn 0.2437 -0.9636 -0.1100
vn 0.3412 -0.8443 -0.4131
vn 0.4982 -0.4105 -0.7637
vn 0.2101 0.4398 -0.8732
vn 0.1432 0.8737 -0.4649
vn 0.1076 0.9842 -0.1403
vn 0.1146 0.9835 0.1402
vn 0.1353 0.8747 0.4654
vn 0.1801 0.4424 0.8785
vn 0.1801 -0.4424 0.8785
vn 0.1353 -0.8747 0.4654
vn 0.1146 -0.9835 0.1402
vn 0.1076 -0.9842 -0.1403
vn 0.1432 -0.8737 -0.4649
vn 0.2101 -0.4398 -0.8732
vn -0.2135 0.4464 -0.8690
vn -0.1506 0.8783 -0.4537
vn -0.1188 0.9847 -0.1276
vn -0.0981 0.9834 0.1529
vn -0.1176 0.8692 0.4803
vn -0.1700 0.4322 0.8856
vn -0.1700 -0.4322 0.8856
vn -0.1176 -0.8692 0.4803
vn -0.0981 -0.9834 0.1529
vn -0.1188 -0.9847 -0.1276
vn -0.1506 -0.8783 -0.4537
vn -0.2135 -0.4464 -0.8690
vn -0.5038 0.4245 -0.7523
vn -0.3541 0.8523 -0.3849
vn -0.2678 0.9603 -0.0778
vn -0.1968 0.9621 0.1890
vn -0.2154 0.8327 0.5101
vn -0.2939 0.3903 0.8725
vn -0.2939 -0.3903 0.8725
vn -0.2154 -0.8327 0.5101
vn -0.1968 -0.9621 0.1890
vn -0.2678 -0.9603 -0.0778
vn -0.3541 -0.8523 -0.3849
vn -0.5038 -0.4245 -0.7523
vn -0.8199 0.3733 -0.4341
vn -0.5782 0.7935 -0.1900
vn -0.3917 0.9187 0.0503
vn -0.2714 0.9175 0.2907
vn -0.1804 0.7940 0.5806
vn -0.0188 0.3962 0.9180
vn -0.0188 -0.3962 0.9180
vn -0.1804 -0.7940 0.5806
vn -0.2714 -0.9175 0.2907
vn -0.3917 -0.9187 0.0503
vn -0.5782 -0.7935 -0.1900
vn -0.8199 -0.3733 -0.4341
vn 0.3196 0.9097 0.2654
vn 0.7162 0.4354 0.5455
vn 0.7162 -0.4354 0.5455
vn 0.3196 -0.9097 0.2654
vn -0.8781 0.3815 -0.2887
vn -0.5636 0.8182 -0.1134
vn -0.2791 0.9587 0.0554
vn -0.0011 0.9855 0.1700
vn 0.4078 0.8718 0.2714
vn 0.8439 0.4239 0.3287
vn 0.8439 -0.4239 0.3287
vn 0.4078 -0.8718 0.2714
vn -0.0011 -0.9855 0.1700
vn -0.2791 -0.9587 0.0554
vn -0.5636 -0.8182 -0.1134
vn -0.8781 -0.3815 -0.2887
vn -0.1104 0.9936 -0.0242
vn 0.1401 0.9885 0.0570
vn 0.1401 -0.9885 0.0570
vn -0.1104 -0.9936 -0.0242
vn -0.9143 0.3900 0.1092
vn -0.5426 0.8295 0.1326
vn -0.1913 0.9756 0.1079
vn 0.1324 0.9871 0.0903
vn 0.5094 0.8598 0.0355
vn 0.9156 0.4004 -0.0372
vn 0.9156 -0.4004 -0.0372
vn 0.5094 -0.8598 0.0355
vn 0.1324 -0.9871 0.0903
vn -0.1913 -0.9756 0.1079
vn -0.5426 -0.8295 0.1326
vn -0.9143 -0.3900 0.1092
vn -0.8743 0.3938 0.2838
vn -0.5015 0.8422 0.1980
vn -0.1573 0.9810 0.1134
vn 0.1564 0.9875 0.0175
vn 0.5069 0.8533 -0.1222
vn 0.8754 0.3944 -0.2796
vn 0.8754 -0.3944 -0.2796
vn 0.5069 -0.8533 -0.1222
vn 0.1564 -0.9875 0.0175
vn -0.1573 -0.9810 0.1134
vn -0.5015 -0.8422 0.1980
vn -0.8743 -0.3938 0.2838
vn -0.8472 0.3984 0.3515
vn -0.4791 0.8474 0.2288
vn -0.1437 0.9833 0.1114
vn 0.1575 0.9875 -0.0114
vn 0.4900 0.8539 -0.1751
vn 0.8448 0.3977 -0.3579
vn 0.8448 -0.3977 -0.3579
vn 0.4900 -0.8539 -0.1751
vn 0.1575 -0.9875 -0.0114
vn -0.1437 -0.9833 0.1114
vn -0.4791 -0.8474 0.2288
vn -0.8472 -0.3984 0.3515
vn -0.6377 0.3942 0.6618
vn -0.3199 0.8329 0.4516
vn -0.0251 0.9604 0.2776
vn 0.2461 0.9596 0.1365
vn 0.5527 0.8332 -0.0160
vn 0.8996 0.3966 -0.1826
vn 0.8996 -0.3966 -0.1826
vn 0.5527 -0.8332 -0.0160
vn 0.2461 -0.9596 0.1365
vn -0.0251 -0.9604 0.2776
vn -0.3199 -0.8329 0.4516
vn -0.6377 -0.3942 0.6618
vt 0.284777 0.590816
vt 0.297485 0.594887
vt 0.876868 0.480300
vt 0.309234 0.606999
vt 0.868847 0.468549
vt 0.857863 0.451552
vt 0.846859 0.433864
vt 0.130816 0.610114
vt 0.838782 0.420225
vt 0.122293 0.609878
vt 0.109158 0.607274
vt 0.094929 0.603001
vt 0.400471 0.129756
vt 0.411082 0.112804
vt 0.422258 0.095177
vt 0.274514 0.595875
vt 0.431005 0.081598
vt 0.292405 0.556553
vt 0.979282 0.481072
vt 0.407353 0.042376
vt 0.995569 0.473914
vt 0.309234 0.562544
vt 0.849213 0.511843
vt 0.841061 0.494727
vt 0.829888 0.470073
vt 0.818687 0.444487
vt 0.810460 0.424825
vt 0.134223 0.638493
vt 0.122895 0.637107
vt 0.105023 0.634664
vt 0.371712 0.120522
vt 0.085397 0.631820
vt 0.382390 0.095909
vt 0.393830 0.070386
vt 0.278265 0.563875
vt 0.402967 0.050792
vt 0.951727 0.434926
vt 0.341717 0.016332
vt 0.969819 0.429966
vt 0.786494 0.536625
vt 0.786735 0.516873
vt 0.787025 0.488567
vt 0.787287 0.459291
vt 0.787450 0.436889
vt 0.130544 0.664129
vt 0.118905 0.659461
vt 0.100151 0.660143
vt 0.340275 0.105794
vt 0.079308 0.665992
vt 0.339504 0.077468
vt 0.339527 0.048195
vt 0.340337 0.025818
vt 0.307207 0.005161
vt 0.938162 0.409483
vt 0.753070 0.547336
vt 0.957460 0.405320
vt 0.978206 0.396966
vt 0.756524 0.526649
vt 0.761201 0.497000
vt 0.765849 0.466334
vt 0.769221 0.442866
vt 0.129571 0.683255
vt 0.117290 0.677268
vt 0.323376 0.119684
vt 0.097686 0.679074
vt 0.076010 0.688190
vt 0.318763 0.098943
vt 0.313598 0.069250
vt 0.309265 0.038564
vt 0.925481 0.408339
vt 0.306926 0.015106
vt 0.917212 0.358971
vt 0.938711 0.357916
vt 0.962687 0.358318
vt 0.706909 0.538537
vt 0.726858 0.492492
vt 0.735798 0.462389
vt 0.742313 0.439335
vt 0.132676 0.707210
vt 0.120262 0.700199
vt 0.296581 0.123077
vt 0.100790 0.703029
vt 0.288838 0.102731
vt 0.279398 0.073581
vt 0.259554 0.026981
vt 0.903949 0.361198
vt 0.247894 0.004431
vt 0.908633 0.322493
vt 0.610751 0.556198
vt 0.931641 0.322692
vt 0.957434 0.326736
vt 0.673980 0.533798
vt 0.697074 0.506202
vt 0.715337 0.464140
vt 0.134223 0.723366
vt 0.725515 0.440392
vt 0.729197 0.430217
vt 0.120781 0.714888
vt 0.279736 0.122181
vt 0.100224 0.718908
vt 0.268264 0.101305
vt 0.249169 0.060907
vt 0.226564 0.032018
vt 0.633368 0.559850
vt 0.894575 0.326192
vt 0.210980 0.009718
vt 0.908388 0.274350
vt 0.600612 0.597125
vt 0.931403 0.275839
vt 0.957213 0.283407
vt 0.638583 0.507819
vt 0.665610 0.483110
vt 0.692603 0.457221
vt 0.712328 0.437089
vt 0.681876 0.556198
vt 0.659847 0.563106
vt 0.719500 0.428110
vt 0.122285 0.723238
vt 0.266461 0.125764
vt 0.101073 0.729869
vt 0.245380 0.108711
vt 0.217902 0.083841
vt 0.191389 0.057819
vt 0.623500 0.599681
vt 0.172944 0.037617
vt 0.902550 0.236750
vt 0.587907 0.620759
vt 0.927842 0.239753
vt 0.584011 0.513727
vt 0.956082 0.251813
vt 0.608660 0.497767
vt 0.642279 0.474188
vt 0.675860 0.449309
vt 0.700404 0.429796
vt 0.687943 0.563536
vt 0.663310 0.570184
vt 0.126180 0.730295
vt 0.103307 0.738231
vt 0.254417 0.133442
vt 0.644695 0.563435
vt 0.228398 0.117308
vt 0.194309 0.093534
vt 0.161283 0.068489
vt 0.613353 0.622295
vt 0.138171 0.048885
vt 0.908539 0.189109
vt 0.583155 0.670449
vt 0.552371 0.474082
vt 0.933671 0.193388
vt 0.961472 0.208936
vt 0.579401 0.461104
vt 0.616271 0.441599
vt 0.653102 0.420794
vt 0.680027 0.404263
vt 0.694935 0.588821
vt 0.670003 0.594388
vt 0.651687 0.588721
vt 0.234203 0.158875
vt 0.205824 0.145712
vt 0.168510 0.125996
vt 0.132259 0.105009
vt 0.608727 0.670654
vt 0.106785 0.088375
vt 0.905420 0.147964
vt 0.572023 0.701135
vt 0.934543 0.154341
vt 0.518279 0.455976
vt 0.966303 0.176274
vt 0.552150 0.444575
vt 0.598356 0.426923
vt 0.644518 0.407749
vt 0.678266 0.392192
vt 0.699267 0.601347
vt 0.669811 0.606484
vt 0.232142 0.171756
vt 0.648663 0.601230
vt 0.196713 0.160128
vt 0.150017 0.142214
vt 0.104564 0.122813
vt 0.601989 0.699785
vt 0.072535 0.107124
vt 0.919274 0.102372
vt 0.574359 0.760669
vt 0.496129 0.402596
vt 0.948027 0.109970
vt 0.978772 0.135241
vt 0.531666 0.395210
vt 0.580148 0.383043
vt 0.628586 0.369355
vt 0.704235 0.635643
vt 0.664000 0.357813
vt 0.674567 0.639314
vt 0.653632 0.635526
vt 0.218048 0.206069
vt 0.180973 0.198449
vt 0.132027 0.186009
vt 0.084326 0.172083
vt 0.604261 0.757723
vt 0.050651 0.160401
vt 0.927333 0.052685
vt 0.570938 0.815166
vt 0.960739 0.062897
vt 0.466902 0.358262
vt 0.995569 0.096125
vt 0.510103 0.354474
vt 0.569044 0.346847
vt 0.627932 0.337424
vt 0.706582 0.665542
vt 0.670988 0.328730
vt 0.671396 0.668069
vt 0.646845 0.665403
vt 0.224677 0.236208
vt 0.179682 0.232138
vt 0.120224 0.224182
vt 0.062236 0.214471
vt 0.606040 0.809832
vt 0.021254 0.205607
vt 0.947345 0.004431
vt 0.577943 0.886064
vt 0.983312 0.016758
vt 0.450063 0.291889
vt 0.554555 0.882500
vt 0.498026 0.293261
vt 0.563464 0.292444
vt 0.628844 0.289656
vt 0.676647 0.285644
vt 0.707773 0.709303
vt 0.669089 0.710046
vt 0.230189 0.279978
vt 0.642230 0.709152
vt 0.180279 0.281039
vt 0.114302 0.279858
vt 0.049937 0.276751
vt 0.004431 0.272552
vt 0.616107 0.878237
vt 0.199712 0.633384
vt 0.599018 0.946115
vt 0.577269 0.941157
vt 0.463206 0.224038
vt 0.222054 0.651363
vt 0.506685 0.230347
vt 0.566005 0.236512
vt 0.625273 0.240881
vt 0.668607 0.242283
vt 0.707773 0.752413
vt 0.672537 0.751226
vt 0.222603 0.322663
vt 0.648037 0.752275
vt 0.177365 0.328691
vt 0.117576 0.334528
vt 0.059257 0.338610
vt 0.225422 0.556553
vt 0.018033 0.339843
vt 0.633368 0.937272
vt 0.200945 0.598681
vt 0.476680 0.171555
vt 0.347863 0.608729
vt 0.247770 0.629820
vt 0.265652 0.644835
vt 0.489920 0.177137
vt 0.525923 0.186711
vt 0.575044 0.197710
vt 0.624120 0.207188
vt 0.706237 0.781564
vt 0.660001 0.212605
vt 0.676483 0.778996
vt 0.655633 0.781446
vt 0.214563 0.351291
vt 0.177081 0.360631
vt 0.127579 0.371360
vt 0.265652 0.563936
vt 0.079323 0.380603
vt 0.045240 0.385882
vt 0.247770 0.600208
vt 0.318097 0.605224
vt 0.490472 0.556198
vt 0.496387 0.115534
vt 0.347863 0.558718
vt 0.509098 0.122618
vt 0.470093 0.565465
vt 0.543659 0.136292
vt 0.590809 0.152894
vt 0.637915 0.167974
vt 0.672353 0.177492
vt 0.702226 0.817102
vt 0.672643 0.813015
vt 0.651622 0.816985
vt 0.226990 0.386477
vt 0.190959 0.399927
vt 0.143440 0.416269
vt 0.097165 0.431125
vt 0.545692 0.595126
vt 0.064534 0.440514
vt 0.318097 0.556553
vt 0.518143 0.567055
vt 0.486684 0.597026
vt 0.542119 0.101835
vt 0.469696 0.603893
vt 0.569920 0.116858
vt 0.607843 0.135602
vt 0.645728 0.153047
vt 0.698239 0.829745
vt 0.673424 0.164517
vt 0.673166 0.825013
vt 0.240536 0.391477
vt 0.654991 0.829645
vt 0.228450 0.398645
vt 0.199398 0.413485
vt 0.161166 0.432022
vt 0.535477 0.626364
vt 0.123997 0.449288
vt 0.097852 0.460657
vt 0.510762 0.605251
vt 0.472959 0.641155
vt 0.571529 0.060508
vt 0.456339 0.646838
vt 0.597117 0.078639
vt 0.632019 0.101630
vt 0.666882 0.123321
vt 0.037855 0.737199
vt 0.692652 0.844768
vt 0.690174 0.149891
vt 0.668513 0.836511
vt 0.061830 0.731202
vt 0.254458 0.402725
vt 0.245187 0.413361
vt 0.220575 0.443328
vt 0.185368 0.466128
vt 0.151225 0.487658
vt 0.523125 0.666080
vt 0.127294 0.502148
vt 0.497405 0.648197
vt 0.472405 0.679443
vt 0.605610 0.047159
vt 0.457600 0.683428
vt 0.626420 0.066174
vt 0.654799 0.090536
vt 0.688341 0.124163
vt 0.037120 0.726883
vt 0.703472 0.144942
vt 0.059217 0.722234
vt 0.265950 0.407617
vt 0.258643 0.417936
vt 0.242280 0.441826
vt 0.208481 0.476453
vt 0.180789 0.499507
vt 0.518932 0.697683
vt 0.494854 0.684660
vt 0.464661 0.726099
vt 0.642282 0.017002
vt 0.450063 0.728834
vt 0.660333 0.038284
vt 0.703438 0.078524
vt 0.719678 0.110475
vt 0.030520 0.705206
vt 0.731532 0.132685
vt 0.292750 0.419492
vt 0.052899 0.701483
vt 0.067148 0.711884
vt 0.286640 0.430341
vt 0.273547 0.455681
vt 0.256979 0.488721
vt 0.214672 0.527580
vt 0.511962 0.739673
vt 0.487317 0.730067
vt 0.477317 0.792700
vt 0.712445 0.022695
vt 0.463907 0.791546
vt 0.720387 0.047507
vt 0.731191 0.079889
vt 0.741962 0.111165
vt 0.031380 0.688365
vt 0.749815 0.132954
vt 0.052567 0.685856
vt 0.309508 0.419364
vt 0.065730 0.694627
vt 0.304969 0.429897
vt 0.295945 0.454638
vt 0.284855 0.486959
vt 0.274670 0.518199
vt 0.522721 0.791551
vt 0.498845 0.792702
vt 0.755932 0.004431
vt 0.480793 0.838571
vt 0.467290 0.836188
vt 0.757639 0.015229
vt 0.762182 0.040603
vt 0.768342 0.073752
vt 0.004431 0.673297
vt 0.774469 0.105795
vt 0.778922 0.128146
vt 0.028322 0.663127
vt 0.337282 0.424113
vt 0.049639 0.661697
vt 0.356726 0.587525
vt 0.376631 0.585929
vt 0.333984 0.434858
vt 0.328349 0.460178
vt 0.321888 0.493291
vt 0.525850 0.832835
vt 0.316332 0.525322
vt 0.313169 0.547690
vt 0.502228 0.837344
vt 0.793918 0.015121
vt 0.490875 0.869629
vt 0.794332 0.025467
vt 0.795348 0.049798
vt 0.796693 0.081596
vt 0.008429 0.649449
vt 0.798007 0.112338
vt 0.031357 0.642768
vt 0.051734 0.642507
vt 0.357368 0.574154
vt 0.376631 0.572065
vt 0.353987 0.429126
vt 0.351918 0.453425
vt 0.350269 0.485211
vt 0.349483 0.515966
vt 0.349771 0.537450
vt 0.511152 0.867317
vt 0.147921 0.699041
vt 0.830542 0.028688
vt 0.501986 0.898332
vt 0.829769 0.038542
vt 0.166776 0.698458
vt 0.827546 0.061683
vt 0.824467 0.091910
vt 0.013211 0.624955
vt 0.821359 0.121124
vt 0.035209 0.621576
vt 0.356827 0.559211
vt 0.054775 0.622439
vt 0.066666 0.627311
vt 0.375529 0.556553
vt 0.374066 0.421369
vt 0.375264 0.444495
vt 0.378034 0.474734
vt 0.381633 0.503982
vt 0.385095 0.524404
vt 0.521261 0.895061
vt 0.150974 0.642187
vt 0.533482 0.930855
vt 0.163773 0.642492
vt 0.885713 0.088897
vt 0.178368 0.634510
vt 0.879251 0.102732
vt 0.190849 0.620380
vt 0.870399 0.120719
vt 0.861526 0.138039
vt 0.030108 0.583207
vt 0.044053 0.586091
vt 0.385494 0.585660
vt 0.056742 0.588529
vt 0.397127 0.590898
vt 0.064774 0.589869
vt 0.410404 0.411725
vt 0.416167 0.425575
vt 0.424784 0.443605
vt 0.143086 0.619243
vt 0.433947 0.460983
vt 0.143403 0.633677
vt 0.441201 0.473053
vt 0.545692 0.927205
vt 0.878484 0.176652
vt 0.067148 0.556553
vt 0.397127 0.556553
vt 0.434749 0.382777
vt 0.190849 0.556553
vt 0.885713 0.394524
vt 0.128682 0.556553
vt 0.441201 0.164890
vt 0.287236 0.680525
s 0
f 1/1/1 14/22/1 2/2/1
f 2/3/2 15/24/2 3/5/2
f 3/5/3 16/25/3 4/6/3
f 4/6/4 17/26/4 5/7/4
f 17/26/5 6/9/5 5/7/5
f 18/28/6 7/10/6 6/8/6
f 7/10/7 20/30/7 8/11/7
f 8/11/8 21/32/8 9/12/8
f 21/31/9 10/14/9 9/13/9
f 22/33/10 11/15/10 10/14/10
f 23/34/11 12/17/11 11/15/11
f 24/35/12 1/1/12 12/16/12
f 13/19/13 26/39/13 14/21/13
f 14/23/14 27/41/14 15/24/14
f 15/24/15 28/42/15 16/25/15
f 16/25/16 29/43/16 17/26/16
f 17/26/17 30/44/17 18/27/17
f 18/28/18 31/46/18 19/29/18
f 31/46/19 20/30/19 19/29/19
f 32/47/20 21/32/20 20/30/20
f 33/48/21 22/33/21 21/31/21
f 34/50/22 23/34/22 22/33/22
f 35/51/23 24/36/23 23/34/23
f 36/52/24 13/20/24 24/36/24
f 25/37/25 38/56/25 26/39/25
f 26/40/26 39/58/26 27/41/26
f 27/41/27 40/59/27 28/42/27
f 28/42/28 41/60/28 29/43/28
f 29/43/29 42/61/29 30/44/29
f 30/45/30 43/63/30 31/46/30
f 43/63/31 32/47/31 31/46/31
f 44/65/32 33/49/32 32/47/32
f 45/67/33 34/50/33 33/48/33
f 46/68/34 35/51/34 34/50/34
f 47/69/35 36/52/35 35/51/35
f 48/71/36 25/38/36 36/52/36
f 37/54/37 50/73/37 38/56/37
f 38/56/38 51/74/38 39/57/38
f 39/58/39 52/76/39 40/59/39
f 40/59/40 53/77/40 41/60/40
f 41/60/41 54/78/41 42/61/41
f 42/62/42 55/80/42 43/63/42
f 55/80/43 44/65/43 43/63/43
f 56/81/44 45/67/44 44/64/44
f 57/83/45 46/68/45 45/67/45
f 58/84/46 47/69/46 46/68/46
f 59/85/47 48/71/47 47/69/47
f 60/86/48 37/54/48 48/70/48
f 49/72/49 62/90/49 50/73/49
f 50/73/50 63/91/50 51/74/50
f 51/75/51 64/93/51 52/76/51
f 52/76/52 65/94/52 53/77/52
f 53/77/53 66/96/53 54/78/53
f 54/79/54 67/98/54 55/80/54
f 67/98/55 56/82/55 55/80/55
f 68/99/56 57/83/56 56/81/56
f 69/101/57 58/84/57 57/83/57
f 70/102/58 59/85/58 58/84/58
f 71/103/59 60/87/59 59/85/59
f 72/105/60 49/72/60 60/86/60
f 61/88/61 74/109/61 62/90/61
f 62/90/62 75/110/62 63/91/62
f 63/92/63 76/112/63 64/93/63
f 64/93/64 77/113/64 65/94/64
f 65/94/65 78/114/65 66/96/65
f 66/96/66 79/117/66 67/97/66
f 79/118/67 68/100/67 67/98/67
f 80/119/68 69/101/68 68/99/68
f 81/121/69 70/102/69 69/101/69
f 82/122/70 71/103/70 70/102/70
f 83/123/71 72/106/71 71/103/71
f 84/124/72 61/89/72 72/104/72
f 73/107/73 86/128/73 74/109/73
f 74/109/74 87/130/74 75/110/74
f 75/111/75 88/132/75 76/112/75
f 76/112/76 89/133/76 77/113/76
f 77/113/77 90/134/77 78/114/77
f 78/115/78 91/136/78 79/116/78
f 91/137/79 80/120/79 79/118/79
f 92/139/80 81/121/80 80/119/80
f 93/141/81 82/122/81 81/121/81
f 94/142/82 83/123/82 82/122/82
f 95/143/83 84/125/83 83/123/83
f 96/144/84 73/108/84 84/124/84
f 85/126/85 98/149/85 86/128/85
f 86/129/86 99/151/86 87/131/86
f 87/131/87 100/152/87 88/132/87
f 88/132/88 101/153/88 89/133/88
f 89/133/89 102/154/89 90/134/89
f 90/135/90 103/156/90 91/136/90
f 103/156/91 92/140/91 91/136/91
f 104/158/92 93/141/92 92/139/92
f 105/159/93 94/142/93 93/141/93
f 106/160/94 95/143/94 94/142/94
f 107/161/95 96/145/95 95/143/95
f 108/162/96 85/127/96 96/144/96
f 97/146/97 110/166/97 98/149/97
f 98/149/98 111/168/98 99/150/98
f 99/151/99 112/170/99 100/152/99
f 100/152/100 113/171/100 101/153/100
f 101/153/101 114/172/101 102/154/101
f 114/173/102 103/156/102 102/155/102
f 103/156/103 116/176/103 104/157/103
f 116/175/104 105/159/104 104/158/104
f 117/177/105 106/160/105 105/159/105
f 118/178/106 107/161/106 106/160/106
f 119/179/107 108/163/107 107/161/107
f 120/180/108 97/147/108 108/162/108
f 109/164/109 122/185/109 110/166/109
f 110/167/110 123/187/110 111/169/110
f 111/169/111 124/188/111 112/170/111
f 112/170/112 125/189/112 113/171/112
f 113/171/113 126/191/113 114/172/113
f 114/173/114 127/192/114 115/174/114
f 127/192/115 116/176/115 115/174/115
f 128/194/116 117/177/116 116/175/116
f 129/195/117 118/178/117 117/177/117
f 130/196/118 119/179/118 118/178/118
f 131/197/119 120/181/119 119/179/119
f 132/198/120 109/165/120 120/180/120
f 121/182/121 134/202/121 122/185/121
f 122/185/122 135/204/122 123/186/122
f 123/187/123 136/206/123 124/188/123
f 136/206/124 125/189/124 124/188/124
f 137/207/125 126/191/125 125/189/125
f 138/208/126 127/192/126 126/190/126
f 127/192/127 140/211/127 128/193/127
f 128/194/128 141/213/128 129/195/128
f 129/195/129 142/214/129 130/196/129
f 142/214/130 131/197/130 130/196/130
f 143/215/131 132/199/131 131/197/131
f 144/216/132 121/183/132 132/198/132
f 133/200/133 146/220/133 134/202/133
f 134/203/134 147/223/134 135/205/134
f 135/205/135 148/224/135 136/206/135
f 148/224/136 137/207/136 136/206/136
f 149/225/137 138/209/137 137/207/137
f 150/227/138 139/210/138 138/208/138
f 139/210/139 152/230/139 140/211/139
f 140/212/140 153/231/140 141/213/140
f 141/213/141 154/232/141 142/214/141
f 154/232/142 143/215/142 142/214/142
f 155/233/143 144/217/143 143/215/143
f 156/235/144 133/201/144 144/216/144
f 157/237/145 146/222/145 145/219/145
f 158/239/146 147/223/146 146/221/146
f 159/241/147 148/224/147 147/223/147
f 148/224/148 161/243/148 149/225/148
f 149/225/149 162/244/149 150/226/149
f 150/227/150 163/246/150 151/228/150
f 163/246/151 152/230/151 151/228/151
f 164/247/152 153/231/152 152/229/152
f 165/249/153 154/232/153 153/231/153
f 154/232/154 167/251/154 155/233/154
f 155/233/155 168/253/155 156/234/155
f 156/235/156 157/237/156 145/219/156
f 169/258/157 158/240/157 157/236/157
f 170/260/158 159/241/158 158/239/158
f 171/261/159 160/242/159 159/241/159
f 160/242/160 173/263/160 161/243/160
f 161/243/161 174/265/161 162/244/161
f 162/245/162 175/266/162 163/246/162
f 175/266/163 164/248/163 163/246/163
f 176/268/164 165/249/164 164/247/164
f 177/269/165 166/250/165 165/249/165
f 166/250/166 179/272/166 167/251/166
f 167/252/167 180/274/167 168/255/167
f 168/255/168 169/258/168 157/236/168
f 181/277/169 170/260/169 169/256/169
f 182/279/170 171/261/170 170/260/170
f 183/281/171 172/262/171 171/261/171
f 184/282/172 173/263/172 172/262/172
f 185/283/173 174/265/173 173/263/173
f 186/285/174 175/266/174 174/264/174
f 175/266/175 188/287/175 176/267/175
f 176/268/176 189/289/176 177/269/176
f 177/269/177 190/290/177 178/270/177
f 178/270/178 191/291/178 179/272/178
f 179/272/179 192/293/179 180/273/179
f 180/275/180 181/278/180 169/257/180
f 193/296/181 182/280/181 181/276/181
f 194/297/182 183/281/182 182/279/182
f 195/299/183 184/282/183 183/281/183
f 196/300/184 185/283/184 184/282/184
f 197/301/185 186/284/185 185/283/185
f 186/285/186 199/304/186 187/286/186
f 199/304/187 188/287/187 187/286/187
f 188/288/188 201/308/188 189/289/188
f 189/289/189 202/309/189 190/290/189
f 190/290/190 203/311/190 191/291/190
f 191/292/191 204/313/191 192/295/191
f 192/295/192 193/296/192 181/276/192
f 205/314/193 194/298/193 193/296/193
f 206/315/194 195/299/194 194/297/194
f 207/317/195 196/300/195 195/299/195
f 208/318/196 197/301/196 196/300/196
f 209/319/197 198/303/197 197/301/197
f 210/321/198 199/304/198 198/302/198
f 199/305/199 212/326/199 200/307/199
f 200/307/200 213/327/200 201/308/200
f 201/308/201 214/328/201 202/309/201
f 202/309/202 215/329/202 203/311/202
f 203/311/203 216/331/203 204/312/203
f 204/313/204 205/314/204 193/296/204
f 217/333/205 206/316/205 205/314/205
f 218/334/206 207/317/206 206/315/206
f 219/336/207 208/318/207 207/317/207
f 220/337/208 209/319/208 208/318/208
f 221/338/209 210/322/209 209/319/209
f 222/339/210 211/324/210 210/320/210
f 211/325/211 224/343/211 212/326/211
f 212/326/212 225/344/212 213/327/212
f 213/327/213 226/345/213 214/328/213
f 214/328/214 227/346/214 215/329/214
f 215/330/215 228/348/215 216/332/215
f 216/332/216 217/333/216 205/314/216
f 229/349/217 218/335/217 217/333/217
f 230/350/218 219/336/218 218/334/218
f 231/352/219 220/337/219 219/336/219
f 232/353/220 221/338/220 220/337/220
f 233/354/221 222/340/221 221/338/221
f 234/355/222 223/341/222 222/339/222
f 223/342/223 236/360/223 224/343/223
f 224/343/224 237/361/224 225/344/224
f 225/344/225 238/362/225 226/345/225
f 226/345/226 239/363/226 227/346/226
f 227/347/227 240/365/227 228/348/227
f 228/348/228 229/349/228 217/333/228
f 241/366/229 230/351/229 229/349/229
f 242/367/230 231/352/230 230/350/230
f 243/369/231 232/353/231 231/352/231
f 244/370/232 233/354/232 232/353/232
f 245/371/233 234/356/233 233/354/233
f 246/372/234 235/358/234 234/355/234
f 235/358/235 248/376/235 236/359/235
f 236/360/236 249/378/236 237/361/236
f 237/361/237 250/379/237 238/362/237
f 238/362/238 251/380/238 239/363/238
f 239/364/239 252/382/239 240/365/239
f 240/365/240 241/366/240 229/349/240
f 253/384/241 242/368/241 241/366/241
f 254/386/242 243/369/242 242/367/242
f 255/387/243 244/370/243 243/369/243
f 256/388/244 245/371/244 244/370/244
f 257/390/245 246/373/245 245/371/245
f 258/392/246 247/374/246 246/372/246
f 247/375/247 260/397/247 248/377/247
f 248/377/248 261/398/248 249/378/248
f 249/378/249 262/399/249 250/379/249
f 250/379/250 263/401/250 251/380/250
f 251/381/251 264/403/251 252/382/251
f 252/382/252 253/384/252 241/366/252
f 265/404/253 254/386/253 253/383/253
f 266/406/254 255/387/254 254/386/254
f 267/407/255 256/388/255 255/387/255
f 268/408/256 257/390/256 256/388/256
f 269/409/257 258/392/257 257/389/257
f 270/411/258 259/394/258 258/392/258
f 259/395/259 272/414/259 260/396/259
f 260/397/260 273/416/260 261/398/260
f 261/398/261 274/417/261 262/399/261
f 262/399/262 275/418/262 263/401/262
f 263/401/263 276/419/263 264/402/263
f 264/403/264 265/405/264 253/384/264
f 277/422/265 266/406/265 265/404/265
f 278/424/266 267/407/266 266/406/266
f 279/426/267 268/408/267 267/407/267
f 280/427/268 269/410/268 268/408/268
f 281/428/269 270/411/269 269/409/269
f 282/430/270 271/412/270 270/411/270
f 271/413/271 284/434/271 272/414/271
f 272/415/272 285/436/272 273/416/272
f 273/416/273 286/437/273 274/417/273
f 274/417/274 287/438/274 275/418/274
f 275/418/275 288/439/275 276/419/275
f 276/420/276 277/423/276 265/405/276
f 289/441/277 278/425/277 277/421/277
f 290/444/278 279/426/278 278/424/278
f 291/446/279 280/427/279 279/426/279
f 292/448/280 281/429/280 280/427/280
f 293/450/281 282/430/281 281/428/281
f 294/451/282 283/432/282 282/430/282
f 283/432/283 296/455/283 284/433/283
f 284/435/284 297/457/284 285/436/284
f 285/436/285 298/458/285 286/437/285
f 286/437/286 299/460/286 287/438/286
f 287/438/287 300/462/287 288/439/287
f 288/440/288 289/442/288 277/423/288
f 289/441/289 301/468/289 290/443/289
f 290/443/290 301/468/290 291/445/290
f 291/445/291 301/468/291 292/447/291
f 292/448/292 301/464/292 293/449/292
f 293/450/293 301/465/293 294/451/293
f 294/451/294 301/465/294 295/453/294
f 295/452/295 301/466/295 296/454/295
f 296/456/296 301/467/296 297/457/296
f 297/457/297 301/467/297 298/458/297
f 298/458/298 301/467/298 299/460/298
f 299/459/299 301/468/299 300/461/299
f 300/461/300 301/468/300 289/441/300
f 302/472/301 1/1/301 2/2/301
f 302/472/302 2/2/302 3/4/302
f 302/469/303 3/5/303 4/6/303
f 302/469/304 4/6/304 5/7/304
f 302/469/305 5/7/305 6/9/305
f 302/470/306 6/8/306 7/10/306
f 302/470/307 7/10/307 8/11/307
f 302/470/308 8/11/308 9/12/308
f 302/471/309 9/13/309 10/14/309
f 302/471/310 10/14/310 11/15/310
f 302/471/311 11/15/311 12/17/311
f 302/472/312 12/16/312 1/1/312
f 1/1/313 13/18/313 14/22/313
f 2/3/314 14/23/314 15/24/314
f 3/5/315 15/24/315 16/25/315
f 4/6/316 16/25/316 17/26/316
f 17/26/317 18/27/317 6/9/317
f 18/28/318 19/29/318 7/10/318
f 7/10/319 19/29/319 20/30/319
f 8/11/320 20/30/320 21/32/320
f 21/31/321 22/33/321 10/14/321
f 22/33/322 23/34/322 11/15/322
f 23/34/323 24/36/323 12/17/323
f 24/35/324 13/18/324 1/1/324
f 13/19/325 25/37/325 26/39/325
f 14/23/326 26/40/326 27/41/326
f 15/24/327 27/41/327 28/42/327
f 16/25/328 28/42/328 29/43/328
f 17/26/329 29/43/329 30/44/329
f 18/28/330 30/45/330 31/46/330
f 31/46/331 32/47/331 20/30/331
f 32/47/332 33/49/332 21/32/332
f 33/48/333 34/50/333 22/33/333
f 34/50/334 35/51/334 23/34/334
f 35/51/335 36/52/335 24/36/335
f 36/52/336 25/38/336 13/20/336
f 25/37/337 37/54/337 38/56/337
f 26/40/338 38/55/338 39/58/338
f 27/41/339 39/58/339 40/59/339
f 28/42/340 40/59/340 41/60/340
f 29/43/341 41/60/341 42/61/341
f 30/45/342 42/62/342 43/63/342
f 43/63/343 44/65/343 32/47/343
f 44/65/344 45/66/344 33/49/344
f 45/67/345 46/68/345 34/50/345
f 46/68/346 47/69/346 35/51/346
f 47/69/347 48/71/347 36/52/347
f 48/71/348 37/53/348 25/38/348
f 37/54/349 49/72/349 50/73/349
f 38/56/350 50/73/350 51/74/350
f 39/58/351 51/75/351 52/76/351
f 40/59/40 52/76/40 53/77/40
f 41/60/41 53/77/41 54/78/41
f 42/62/42 54/79/42 55/80/42
f 55/80/43 56/82/43 44/65/43
f 56/81/44 57/83/44 45/67/44
f 57/83/45 58/84/45 46/68/45
f 58/84/352 59/85/352 47/69/352
f 59/85/353 60/87/353 48/71/353
f 60/86/354 49/72/354 37/54/354
f 49/72/355 61/88/355 62/90/355
f 50/73/356 62/90/356 63/91/356
f 51/75/357 63/92/357 64/93/357
f 52/76/358 64/93/358 65/94/358
f 53/77/359 65/94/359 66/96/359
f 54/79/360 66/95/360 67/98/360
f 67/98/361 68/100/361 56/82/361
f 68/99/362 69/101/362 57/83/362
f 69/101/363 70/102/363 58/84/363
f 70/102/364 71/103/364 59/85/364
f 71/103/365 72/106/365 60/87/365
f 72/105/366 61/88/366 49/72/366
f 61/88/61 73/107/61 74/109/61
f 62/90/62 74/109/62 75/110/62
f 63/92/63 75/111/63 76/112/63
f 64/93/367 76/112/367 77/113/367
f 65/94/368 77/113/368 78/114/368
f 66/96/369 78/114/369 79/117/369
f 79/118/370 80/120/370 68/100/370
f 80/119/371 81/121/371 69/101/371
f 81/121/372 82/122/372 70/102/372
f 82/122/70 83/123/70 71/103/70
f 83/123/71 84/125/71 72/106/71
f 84/124/72 73/108/72 61/89/72
f 73/107/373 85/126/373 86/128/373
f 74/109/374 86/128/374 87/130/374
f 75/111/375 87/131/375 88/132/375
f 76/112/376 88/132/376 89/133/376
f 77/113/377 89/133/377 90/134/377
f 78/115/378 90/135/378 91/136/378
f 91/137/379 92/138/379 80/120/379
f 92/139/380 93/141/380 81/121/380
f 93/141/381 94/142/381 82/122/381
f 94/142/382 95/143/382 83/123/382
f 95/143/383 96/145/383 84/125/383
f 96/144/384 85/127/384 73/108/384
f 85/126/85 97/146/85 98/149/85
f 86/129/86 98/148/86 99/151/86
f 87/131/87 99/151/87 100/152/87
f 88/132/88 100/152/88 101/153/88
f 89/133/89 101/153/89 102/154/89
f 90/135/90 102/155/90 103/156/90
f 103/156/91 104/157/91 92/140/91
f 104/158/92 105/159/92 93/141/92
f 105/159/93 106/160/93 94/142/93
f 106/160/94 107/161/94 95/143/94
f 107/161/95 108/163/95 96/145/95
f 108/162/96 97/147/96 85/127/96
f 97/146/385 109/164/385 110/166/385
f 98/149/386 110/166/386 111/168/386
f 99/151/387 111/169/387 112/170/387
f 100/152/388 112/170/388 113/171/388
f 101/153/389 113/171/389 114/172/389
f 114/173/390 115/174/390 103/156/390
f 103/156/391 115/174/391 116/176/391
f 116/175/392 117/177/392 105/159/392
f 117/177/393 118/178/393 106/160/393
f 118/178/394 119/179/394 107/161/394
f 119/179/395 120/181/395 108/163/395
f 120/180/396 109/165/396 97/147/396
f 109/164/109 121/182/109 122/185/109
f 110/167/110 122/184/110 123/187/110
f 111/169/111 123/187/111 124/188/111
f 112/170/112 124/188/112 125/189/112
f 113/171/113 125/189/113 126/191/113
f 114/173/114 126/190/114 127/192/114
f 127/192/115 128/193/115 116/176/115
f 128/194/116 129/195/116 117/177/116
f 129/195/117 130/196/117 118/178/117
f 130/196/118 131/197/118 119/179/118
f 131/197/119 132/199/119 120/181/119
f 132/198/120 121/183/120 109/165/120
f 121/182/397 133/200/397 134/202/397
f 122/185/398 134/202/398 135/204/398
f 123/187/399 135/205/399 136/206/399
f 136/206/400 137/207/400 125/189/400
f 137/207/401 138/209/401 126/191/401
f 138/208/402 139/210/402 127/192/402
f 127/192/403 139/210/403 140/211/403
f 128/194/404 140/212/404 141/213/404
f 129/195/405 141/213/405 142/214/405
f 142/214/406 143/215/406 131/197/406
f 143/215/407 144/217/407 132/199/407
f 144/216/408 133/201/408 121/183/408
f 133/200/409 145/218/409 146/220/409
f 134/203/410 146/221/410 147/223/410
f 135/205/411 147/223/411 148/224/411
f 148/224/412 149/225/412 137/207/412
f 149/225/413 150/226/413 138/209/413
f 150/227/414 151/228/414 139/210/414
f 139/210/415 151/228/415 152/230/415
f 140/212/416 152/229/416 153/231/416
f 141/213/417 153/231/417 154/232/417
f 154/232/418 155/233/418 143/215/418
f 155/233/419 156/234/419 144/217/419
f 156/235/420 145/219/420 133/201/420
f 157/237/421 158/238/421 146/222/421
f 158/239/422 159/241/422 147/223/422
f 159/241/423 160/242/423 148/224/423
f 148/224/424 160/242/424 161/243/424
f 149/225/425 161/243/425 162/244/425
f 150/227/426 162/245/426 163/246/426
f 163/246/427 164/248/427 152/230/427
f 164/247/428 165/249/428 153/231/428
f 165/249/429 166/250/429 154/232/429
f 154/232/430 166/250/430 167/251/430
f 155/233/431 167/251/431 168/253/431
f 156/235/432 168/254/432 157/237/432
f 169/258/433 170/259/433 158/240/433
f 170/260/434 171/261/434 159/241/434
f 171/261/435 172/262/435 160/242/435
f 160/242/436 172/262/436 173/263/436
f 161/243/437 173/263/437 174/265/437
f 162/245/438 174/264/438 175/266/438
f 175/266/439 176/267/439 164/248/439
f 176/268/440 177/269/440 165/249/440
f 177/269/441 178/270/441 166/250/441
f 166/250/442 178/270/442 179/272/442
f 167/252/443 179/271/443 180/274/443
f 168/255/444 180/274/444 169/258/444
f 181/277/169 182/279/169 170/260/169
f 182/279/170 183/281/170 171/261/170
f 183/281/171 184/282/171 172/262/171
f 184/282/172 185/283/172 173/263/172
f 185/283/173 186/284/173 174/265/173
f 186/285/174 187/286/174 175/266/174
f 175/266/175 187/286/175 188/287/175
f 176/268/176 188/288/176 189/289/176
f 177/269/177 189/289/177 190/290/177
f 178/270/178 190/290/178 191/291/178
f 179/272/179 191/291/179 192/293/179
f 180/275/180 192/294/180 181/278/180
f 193/296/445 194/298/445 182/280/445
f 194/297/446 195/299/446 183/281/446
f 195/299/447 196/300/447 184/282/447
f 196/300/448 197/301/448 185/283/448
f 197/301/449 198/303/449 186/284/449
f 186/285/450 198/302/450 199/304/450
f 199/304/451 200/306/451 188/287/451
f 188/288/452 200/307/452 201/308/452
f 189/289/453 201/308/453 202/309/453
f 190/290/454 202/309/454 203/311/454
f 191/292/455 203/310/455 204/313/455
f 192/295/456 204/313/456 193/296/456
f 205/314/193 206/316/193 194/298/193
f 206/315/194 207/317/194 195/299/194
f 207/317/195 208/318/195 196/300/195
f 208/318/196 209/319/196 197/301/196
f 209/319/457 210/322/457 198/303/457
f 210/321/458 211/323/458 199/304/458
f 199/305/459 211/325/459 212/326/459
f 200/307/460 212/326/460 213/327/460
f 201/308/201 213/327/201 214/328/201
f 202/309/202 214/328/202 215/329/202
f 203/311/203 215/329/203 216/331/203
f 204/313/204 216/332/204 205/314/204
f 217/333/461 218/335/461 206/316/461
f 218/334/462 219/336/462 207/317/462
f 219/336/463 220/337/463 208/318/463
f 220/337/464 221/338/464 209/319/464
f 221/338/465 222/340/465 210/322/465
f 222/339/466 223/341/466 211/324/466
f 211/325/467 223/342/467 224/343/467
f 212/326/468 224/343/468 225/344/468
f 213/327/469 225/344/469 226/345/469
f 214/328/470 226/345/470 227/346/470
f 215/330/471 227/347/471 228/348/471
f 216/332/472 228/348/472 217/333/472
f 229/349/217 230/351/217 218/335/217
f 230/350/218 231/352/218 219/336/218
f 231/352/473 232/353/473 220/337/473
f 232/353/474 233/354/474 221/338/474
f 233/354/221 234/356/221 222/340/221
f 234/355/222 235/358/222 223/341/222
f 223/342/223 235/357/223 236/360/223
f 224/343/224 236/360/224 237/361/224
f 225/344/475 237/361/475 238/362/475
f 226/345/476 238/362/476 239/363/476
f 227/347/227 239/364/227 240/365/227
f 228/348/228 240/365/228 229/349/228
f 241/366/477 242/368/477 230/351/477
f 242/367/478 243/369/478 231/352/478
f 243/369/479 244/370/479 232/353/479
f 244/370/480 245/371/480 233/354/480
f 245/371/481 246/373/481 234/356/481
f 246/372/482 247/374/482 235/358/482
f 235/358/483 247/374/483 248/376/483
f 236/360/484 248/377/484 249/378/484
f 237/361/485 249/378/485 250/379/485
f 238/362/486 250/379/486 251/380/486
f 239/364/487 251/381/487 252/382/487
f 240/365/488 252/382/488 241/366/488
f 253/384/241 254/385/241 242/368/241
f 254/386/242 255/387/242 243/369/242
f 255/387/243 256/388/243 244/370/243
f 256/388/244 257/390/244 245/371/244
f 257/390/245 258/391/245 246/373/245
f 258/392/246 259/394/246 247/374/246
f 247/375/247 259/393/247 260/397/247
f 248/377/248 260/397/248 261/398/248
f 249/378/249 261/398/249 262/399/249
f 250/379/250 262/399/250 263/401/250
f 251/381/251 263/400/251 264/403/251
f 252/382/252 264/403/252 253/384/252
f 265/404/489 266/406/489 254/386/489
f 266/406/490 267/407/490 255/387/490
f 267/407/491 268/408/491 256/388/491
f 268/408/492 269/410/492 257/390/492
f 269/409/493 270/411/493 258/392/493
f 270/411/494 271/412/494 259/394/494
f 259/395/495 271/413/495 272/414/495
f 260/397/496 272/415/496 273/416/496
f 261/398/497 273/416/497 274/417/497
f 262/399/498 274/417/498 275/418/498
f 263/401/499 275/418/499 276/419/499
f 264/403/500 276/420/500 265/405/500
f 277/422/501 278/424/501 266/406/501
f 278/424/502 279/426/502 267/407/502
f 279/426/503 280/427/503 268/408/503
f 280/427/504 281/429/504 269/410/504
f 281/428/505 282/430/505 270/411/505
f 282/430/506 283/432/506 271/412/506
f 271/413/507 283/431/507 284/434/507
f 272/415/508 284/435/508 285/436/508
f 273/416/509 285/436/509 286/437/509
f 274/417/510 286/437/510 287/438/510
f 275/418/511 287/438/511 288/439/511
f 276/420/512 288/440/512 277/423/512
f 289/441/513 290/443/513 278/425/513
f 290/444/514 291/446/514 279/426/514
f 291/446/515 292/448/515 280/427/515
f 292/448/516 293/449/516 281/429/516
f 293/450/517 294/451/517 282/430/517
f 294/451/518 295/453/518 283/432/518
f 283/432/519 295/453/519 296/455/519
f 284/435/520 296/456/520 297/457/520
f 285/436/521 297/457/521 298/458/521
f 286/437/522 298/458/522 299/460/522
f 287/438/523 299/460/523 300/462/523
f 288/440/524 300/463/524 289/442/524
