# Blender 3.3.1
# www.blender.org
o Sphere.001
v 0.000000 1.527570 -0.980332
v 0.000000 1.299151 -1.467170
v 0.000000 1.000708 -1.730646
v 0.000000 0.519163 -1.764551
v 0.000000 0.319028 -1.730646
v 0.000000 0.180620 -1.467170
v 0.067159 1.651189 -0.337632
v 0.131738 1.604076 -0.662289
v 0.191253 1.527570 -0.961495
v 0.243419 1.424609 -1.223751
v 0.286231 1.299151 -1.438979
v 0.318043 1.156017 -1.598908
v 0.337632 1.000708 -1.697392
v 0.344247 0.519163 -1.730646
v 0.337632 0.319028 -1.697392
v 0.318043 0.247001 -1.598908
v 0.286231 0.180620 -1.438979
v 0.243419 0.122437 -1.223751
v 0.191253 0.074687 -0.961495
v 0.131738 0.039206 -0.662289
v 0.067159 0.017357 -0.337632
v 0.131738 1.651189 -0.318043
v 0.258413 1.604076 -0.623863
v 0.375157 1.527570 -0.905709
v 0.477484 1.424609 -1.152748
v 0.561462 1.299151 -1.355489
v 0.623863 1.156017 -1.506138
v 0.662289 1.000708 -1.598908
v 0.675264 0.519163 -1.630232
v 0.662289 0.319028 -1.598908
v 0.623863 0.247001 -1.506138
v 0.561462 0.180620 -1.355489
v 0.477484 0.122437 -1.152748
v 0.375157 0.074687 -0.905709
v 0.258413 0.039206 -0.623863
v 0.131738 0.017357 -0.318043
v 0.191253 1.651189 -0.286231
v 0.375157 1.604076 -0.561462
v 0.544643 1.527570 -0.815116
v 0.693199 1.424609 -1.037446
v 0.815116 1.299151 -1.219907
v 0.905709 1.156017 -1.355489
v 0.961495 1.000708 -1.438979
v 0.980332 0.519163 -1.467170
v 0.961495 0.319028 -1.438979
v 0.905709 0.247001 -1.355489
v 0.815116 0.180620 -1.219907
v 0.693199 0.122437 -1.037446
v 0.544643 0.074687 -0.815116
v 0.375157 0.039206 -0.561462
v 0.191253 0.017357 -0.286231
v 0.243419 1.651189 -0.243419
v 0.477484 1.604076 -0.477484
v 0.693199 1.527570 -0.693199
v 0.882275 1.424609 -0.882275
v 1.037446 1.299151 -1.037446
v 1.152748 1.156017 -1.152748
v 1.223751 1.000708 -1.223751
v 1.247726 0.519163 -1.247726
v 1.223751 0.319028 -1.223751
v 1.152748 0.247001 -1.152748
v 1.037446 0.180620 -1.037446
v 0.882275 0.122437 -0.882275
v 0.693199 0.074687 -0.693199
v 0.477484 0.039206 -0.477484
v 0.243419 0.017357 -0.243419
v 0.286231 1.651189 -0.191253
v 0.561462 1.604076 -0.375157
v 0.815116 1.527570 -0.544643
v 1.037446 1.424609 -0.693199
v 1.219908 1.299151 -0.815116
v 1.355489 1.156017 -0.905709
v 1.438979 1.000708 -0.961495
v 1.467170 0.519163 -0.980332
v 1.438979 0.319028 -0.961495
v 1.355489 0.247001 -0.905709
v 1.219908 0.180620 -0.815116
v 1.037446 0.122437 -0.693199
v 0.815116 0.074687 -0.544643
v 0.561462 0.039206 -0.375157
v 0.286231 0.017357 -0.191253
v 0.000000 1.667097 0.000000
v 0.318043 1.651189 -0.131738
v 0.623863 1.604076 -0.258412
v 0.905709 1.527570 -0.375157
v 1.152748 1.424609 -0.477484
v 1.355489 1.299151 -0.561462
v 1.506138 1.156017 -0.623863
v 1.598908 1.000708 -0.662289
v 1.630232 0.519163 -0.675264
v 1.598908 0.319028 -0.662289
v 1.506138 0.247001 -0.623863
v 1.355489 0.180620 -0.561462
v 1.152748 0.122437 -0.477484
v 0.905709 0.074687 -0.375157
v 0.623863 0.039206 -0.258412
v 0.318043 0.017357 -0.131738
v 0.337632 1.651189 -0.067159
v 0.662289 1.604076 -0.131738
v 0.961495 1.527570 -0.191253
v 1.223751 1.424609 -0.243419
v 1.438979 1.299151 -0.286231
v 1.598908 1.156017 -0.318043
v 1.697392 1.000708 -0.337632
v 1.730645 0.519163 -0.344246
v 1.697392 0.319028 -0.337632
v 1.598908 0.247001 -0.318043
v 1.438979 0.180620 -0.286231
v 1.223751 0.122437 -0.243419
v 0.961495 0.074687 -0.191253
v 0.662289 0.039206 -0.131738
v 0.337632 0.017357 -0.067159
v 0.344247 1.651189 0.000000
v 0.675264 1.604076 0.000000
v 0.980332 1.527570 0.000000
v 1.247726 1.424609 -0.000000
v 1.467170 1.299151 0.000000
v 1.630232 1.156017 -0.000000
v 1.730645 1.000708 0.000000
v 1.764550 0.519163 0.000000
v 1.730645 0.319028 0.000000
v 1.630232 0.247001 -0.000000
v 1.467170 0.180620 0.000000
v 1.247726 0.122437 -0.000000
v 0.980332 0.074687 0.000000
v 0.675264 0.039206 0.000000
v 0.344247 0.017357 0.000000
v 0.337632 1.651189 0.067159
v 0.662289 1.604076 0.131738
v 0.961495 1.527570 0.191253
v 1.223751 1.424609 0.243419
v 1.438979 1.299151 0.286231
v 1.598908 1.156017 0.318042
v 1.697391 1.000708 0.337632
v 1.730645 0.519163 0.344247
v 1.697391 0.319028 0.337632
v 1.598908 0.247001 0.318042
v 1.438979 0.180620 0.286231
v 1.223751 0.122437 0.243419
v 0.961495 0.074687 0.191253
v 0.662289 0.039206 0.131738
v 0.337632 0.017357 0.067159
v 0.318042 1.651189 0.131738
v 0.623863 1.604076 0.258413
v 0.905708 1.527570 0.375157
v 1.152748 1.424609 0.477484
v 1.355488 1.299151 0.561462
v 1.506138 1.156017 0.623863
v 1.598908 1.000708 0.662289
v 1.630232 0.519163 0.675264
v 1.598908 0.319028 0.662289
v 1.506138 0.247001 0.623863
v 1.355488 0.180620 0.561462
v 1.152748 0.122437 0.477484
v 0.905708 0.074687 0.375157
v 0.623863 0.039206 0.258413
v 0.318042 0.017357 0.131738
v 0.286231 1.651189 0.191253
v 0.561462 1.604076 0.375157
v 0.815116 1.527570 0.544643
v 1.037446 1.424609 0.693199
v 1.219907 1.299151 0.815116
v 1.355489 1.156017 0.905708
v 1.438979 1.000708 0.961495
v 1.467170 0.519163 0.980332
v 1.438979 0.319028 0.961495
v 1.355489 0.247001 0.905708
v 1.219907 0.180620 0.815116
v 1.037446 0.122437 0.693199
v 0.815116 0.074687 0.544643
v 0.561462 0.039206 0.375157
v 0.286231 0.017357 0.191253
v 0.243419 1.651189 0.243419
v 0.477484 1.604076 0.477484
v 0.693199 1.527570 0.693199
v 0.882275 1.424609 0.882275
v 1.037446 1.299151 1.037446
v 1.152748 1.156017 1.152748
v 1.223751 1.000708 1.223751
v 1.247725 0.519163 1.247726
v 1.223751 0.319028 1.223751
v 1.152748 0.247001 1.152748
v 1.037446 0.180620 1.037446
v 0.882275 0.122437 0.882275
v 0.693199 0.074687 0.693199
v 0.477484 0.039206 0.477484
v 0.243419 0.017357 0.243419
v 0.191253 1.651189 0.286231
v 0.375157 1.604076 0.561462
v 0.544643 1.527570 0.815116
v 0.693199 1.424609 1.037446
v 0.815116 1.299151 1.219907
v 0.905709 1.156017 1.355488
v 0.961495 1.000708 1.438979
v 0.980331 0.519163 1.467170
v 0.961495 0.319028 1.438979
v 0.905709 0.247001 1.355488
v 0.815116 0.180620 1.219907
v 0.693199 0.122437 1.037446
v 0.544643 0.074687 0.815116
v 0.375157 0.039206 0.561462
v 0.191253 0.017357 0.286231
v 0.131737 1.651189 0.318042
v 0.258412 1.604076 0.623863
v 0.375156 1.527570 0.905708
v 0.477484 1.424609 1.152748
v 0.561461 1.299151 1.355488
v 0.623863 1.156017 1.506138
v 0.662289 1.000708 1.598908
v 0.675264 0.519163 1.630232
v 0.662289 0.319028 1.598908
v 0.623863 0.247001 1.506138
v 0.561461 0.180620 1.355488
v 0.477484 0.122437 1.152748
v 0.375156 0.074687 0.905708
v 0.258412 0.039206 0.623863
v 0.131737 0.017357 0.318042
v 0.067159 1.651189 0.337632
v 0.131737 1.604076 0.662289
v 0.191253 1.527570 0.961495
v 0.243419 1.424609 1.223751
v 0.286231 1.299151 1.438979
v 0.318043 1.156017 1.598908
v 0.337632 1.000708 1.697391
v 0.344246 0.519163 1.730645
v 0.337632 0.319028 1.697391
v 0.318043 0.247001 1.598908
v 0.286231 0.180620 1.438979
v 0.243419 0.122437 1.223751
v 0.191253 0.074687 0.961495
v 0.131737 0.039206 0.662289
v 0.067159 0.017357 0.337632
v -0.000000 1.651189 0.344247
v -0.000000 1.604076 0.675264
v -0.000000 1.527570 0.980331
v -0.000000 1.424609 1.247726
v -0.000000 1.299151 1.467170
v 0.000000 1.156017 1.630232
v -0.000000 1.000708 1.730645
v -0.000001 0.519163 1.764550
v -0.000000 0.319028 1.730645
v 0.000000 0.247001 1.630232
v -0.000000 0.180620 1.467170
v -0.000000 0.122437 1.247726
v -0.000000 0.074687 0.980331
v -0.000000 0.039206 0.675264
v -0.000000 0.017357 0.344247
v -0.067159 1.651189 0.337632
v -0.131738 1.604076 0.662289
v -0.191253 1.527570 0.961495
v -0.243419 1.424609 1.223751
v -0.286231 1.299151 1.438979
v -0.318042 1.156017 1.598907
v -0.337632 1.000708 1.697391
v -0.344247 0.519163 1.730644
v -0.337632 0.319028 1.697391
v -0.318042 0.247001 1.598907
v -0.286231 0.180620 1.438979
v -0.243419 0.122437 1.223751
v -0.191253 0.074687 0.961495
v -0.131738 0.039206 0.662289
v -0.067159 0.017357 0.337632
v -0.131737 1.651189 0.318042
v -0.258413 1.604076 0.623863
v -0.375157 1.527570 0.905708
v -0.477484 1.424609 1.152748
v -0.561462 1.299151 1.355488
v -0.623863 1.156017 1.506138
v -0.662289 1.000708 1.598907
v -0.675264 0.519163 1.630231
v -0.662289 0.319028 1.598907
v -0.623863 0.247001 1.506138
v -0.561462 0.180620 1.355488
v -0.477484 0.122437 1.152748
v -0.375157 0.074687 0.905708
v -0.258413 0.039206 0.623863
v -0.131737 0.017357 0.318042
v -0.191253 1.651189 0.286231
v -0.375157 1.604076 0.561462
v -0.544643 1.527570 0.815116
v -0.693199 1.424609 1.037446
v -0.815116 1.299151 1.219907
v -0.905708 1.156017 1.355488
v -0.961495 1.000708 1.438978
v -0.980332 0.519163 1.467169
v -0.961495 0.319028 1.438978
v -0.905708 0.247001 1.355488
v -0.815116 0.180620 1.219907
v -0.693199 0.122437 1.037446
v -0.544643 0.074687 0.815116
v -0.375157 0.039206 0.561462
v -0.191253 0.017357 0.286231
v -0.243419 1.651189 0.243419
v -0.477484 1.604076 0.477484
v -0.693199 1.527570 0.693199
v -0.882275 1.424609 0.882275
v -1.037446 1.299151 1.037446
v -1.152748 1.156017 1.152748
v -1.223751 1.000708 1.223751
v -1.247725 0.519163 1.247724
v -1.223751 0.319028 1.223751
v -1.152748 0.247001 1.152748
v -1.037446 0.180620 1.037446
v -0.882275 0.122437 0.882275
v -0.693199 0.074687 0.693199
v -0.477484 0.039206 0.477484
v -0.243419 0.017357 0.243419
v 0.000000 0.009979 0.000000
v -0.286231 1.651189 0.191253
v -0.561462 1.604076 0.375157
v -0.815116 1.527570 0.544643
v -1.037446 1.424609 0.693199
v -1.219907 1.299151 0.815116
v -1.355488 1.156017 0.905708
v -1.438979 1.000708 0.961494
v -1.467170 0.519163 0.980331
v -1.438979 0.319028 0.961494
v -1.355488 0.247001 0.905708
v -1.219907 0.180620 0.815116
v -1.037446 0.122437 0.693199
v -0.815116 0.074687 0.544643
v -0.561462 0.039206 0.375157
v -0.286231 0.017357 0.191253
v -0.318042 1.651189 0.131737
v -0.623863 1.604076 0.258412
v -0.905708 1.527570 0.375156
v -1.152748 1.424609 0.477484
v -1.355488 1.299151 0.561461
v -1.506138 1.156017 0.623863
v -1.598907 1.000708 0.662289
v -1.630231 0.519163 0.675263
v -1.598907 0.319028 0.662289
v -1.506138 0.247001 0.623863
v -1.355488 0.180620 0.561461
v -1.152748 0.122437 0.477484
v -0.905708 0.074687 0.375156
v -0.623863 0.039206 0.258412
v -0.318042 0.017357 0.131737
v -0.337632 1.651189 0.067159
v -0.662289 1.604076 0.131737
v -0.961494 1.527570 0.191253
v -1.223751 1.424609 0.243419
v -1.438978 1.299151 0.286230
v -1.598907 1.156017 0.318042
v -1.697391 1.000708 0.337632
v -1.730644 0.519163 0.344246
v -1.697391 0.319028 0.337632
v -1.598907 0.247001 0.318042
v -1.438978 0.180620 0.286230
v -1.223751 0.122437 0.243419
v -0.961494 0.074687 0.191253
v -0.662289 0.039206 0.131737
v -0.337632 0.017357 0.067159
v -0.344247 1.651189 -0.000000
v -0.675264 1.604076 -0.000000
v -0.980331 1.527570 -0.000000
v -1.247726 1.424609 -0.000000
v -1.467170 1.299151 -0.000000
v -1.630232 1.156017 -0.000000
v -1.730645 1.000708 -0.000000
v -1.764549 0.519163 -0.000001
v -1.730645 0.319028 -0.000000
v -1.630232 0.247001 -0.000000
v -1.467170 0.180620 -0.000000
v -1.247726 0.122437 -0.000000
v -0.980331 0.074687 -0.000000
v -0.675264 0.039206 -0.000000
v -0.344247 0.017357 -0.000000
v -0.337632 1.651189 -0.067159
v -0.662289 1.604076 -0.131738
v -0.961494 1.527570 -0.191253
v -1.223751 1.424609 -0.243419
v -1.438978 1.299151 -0.286231
v -1.598907 1.156017 -0.318042
v -1.697391 1.000708 -0.337633
v -1.730644 0.519163 -0.344247
v -1.697391 0.319028 -0.337633
v -1.598907 0.247001 -0.318042
v -1.438978 0.180620 -0.286231
v -1.223751 0.122437 -0.243419
v -0.961494 0.074687 -0.191253
v -0.662289 0.039206 -0.131738
v -0.337632 0.017357 -0.067159
v -0.318042 1.651189 -0.131737
v -0.623863 1.604076 -0.258412
v -0.905708 1.527570 -0.375157
v -1.152748 1.424609 -0.477484
v -1.355488 1.299151 -0.561462
v -1.506138 1.156017 -0.623863
v -1.598907 1.000708 -0.662290
v -1.630231 0.519163 -0.675264
v -1.598907 0.319028 -0.662290
v -1.506138 0.247001 -0.623863
v -1.355488 0.180620 -0.561462
v -1.152748 0.122437 -0.477484
v -0.905708 0.074687 -0.375157
v -0.623863 0.039206 -0.258412
v -0.318042 0.017357 -0.131737
v -0.286230 1.651189 -0.191253
v -0.561461 1.604076 -0.375157
v -0.815115 1.527570 -0.544643
v -1.037446 1.424609 -0.693199
v -1.219907 1.299151 -0.815116
v -1.355488 1.156017 -0.905708
v -1.438978 1.000708 -0.961495
v -1.467168 0.519163 -0.980332
v -1.438978 0.319028 -0.961495
v -1.355488 0.247001 -0.905708
v -1.219907 0.180620 -0.815116
v -1.037446 0.122437 -0.693199
v -0.815115 0.074687 -0.544643
v -0.561461 0.039206 -0.375157
v -0.286230 0.017357 -0.191253
v -0.243419 1.651189 -0.243419
v -0.477484 1.604076 -0.477484
v -0.693198 1.527570 -0.693199
v -0.882275 1.424609 -0.882275
v -1.037445 1.299151 -1.037446
v -1.152748 1.156017 -1.152748
v -1.223750 1.000708 -1.223751
v -1.247724 0.519163 -1.247725
v -1.223750 0.319028 -1.223751
v -1.152748 0.247001 -1.152748
v -1.037445 0.180620 -1.037446
v -0.882275 0.122437 -0.882275
v -0.693198 0.074687 -0.693199
v -0.477484 0.039206 -0.477484
v -0.243419 0.017357 -0.243419
v -0.191253 1.651189 -0.286231
v -0.375157 1.604076 -0.561462
v -0.544642 1.527570 -0.815116
v -0.693199 1.424609 -1.037446
v -0.815115 1.299151 -1.219907
v -0.905708 1.156017 -1.355488
v -0.961494 1.000708 -1.438979
v -0.980330 0.519163 -1.467169
v -0.961494 0.319028 -1.438979
v -0.905708 0.247001 -1.355488
v -0.815115 0.180620 -1.219907
v -0.693199 0.122437 -1.037446
v -0.544642 0.074687 -0.815116
v -0.375157 0.039206 -0.561462
v -0.191253 0.017357 -0.286231
v -0.131737 1.651189 -0.318042
v -0.258412 1.604076 -0.623863
v -0.375156 1.527570 -0.905708
v -0.477484 1.424609 -1.152748
v -0.561461 1.299151 -1.355488
v -0.623863 1.156017 -1.506138
v -0.662289 1.000708 -1.598907
v -0.675263 0.519163 -1.630231
v -0.662289 0.319028 -1.598907
v -0.623863 0.247001 -1.506138
v -0.561461 0.180620 -1.355488
v -0.477484 0.122437 -1.152748
v -0.375156 0.074687 -0.905708
v -0.258412 0.039206 -0.623863
v -0.131737 0.017357 -0.318042
v -0.067159 1.651189 -0.337632
v -0.131737 1.604076 -0.662289
v -0.191253 1.527570 -0.961494
v -0.243419 1.424609 -1.223751
v -0.286230 1.299151 -1.438978
v -0.318042 1.156017 -1.598907
v -0.337632 1.000708 -1.697391
v -0.344246 0.519163 -1.730644
v -0.337632 0.319028 -1.697391
v -0.318042 0.247001 -1.598907
v -0.286230 0.180620 -1.438978
v -0.243419 0.122437 -1.223751
v -0.191253 0.074687 -0.961494
v -0.131737 0.039206 -0.662289
v -0.067159 0.017357 -0.337632
v 0.000000 1.651189 -0.344246
v 0.000000 1.604076 -0.675264
v 0.000000 1.424609 -1.247726
v 0.000000 1.156017 -1.630232
v 0.000000 0.247001 -1.630232
v 0.000000 0.122437 -1.247726
v 0.000000 0.074687 -0.980331
v 0.000000 0.039206 -0.675264
v 0.000000 0.017357 -0.344246
v 0.000000 0.792949 -1.747598
v 0.340940 0.792949 -1.714019
v 0.668777 0.792949 -1.614570
v 0.970914 0.792949 -1.453075
v 1.235739 0.792949 -1.235738
v 1.453075 0.792949 -0.970913
v 1.614570 0.792949 -0.668777
v 1.714018 0.792949 -0.340939
v 1.747598 0.792949 0.000000
v 1.714018 0.792949 0.340940
v 1.614570 0.792949 0.668777
v 1.453074 0.792949 0.970914
v 1.235738 0.792949 1.235738
v 0.970913 0.792949 1.453075
v 0.668776 0.792949 1.614570
v 0.340939 0.792949 1.714018
v -0.000000 0.792949 1.747597
v -0.340940 0.792949 1.714018
v -0.668777 0.792949 1.614569
v -0.970913 0.792949 1.453074
v -1.235738 0.792949 1.235737
v -1.453074 0.792949 0.970912
v -1.614569 0.792949 0.668776
v -1.714018 0.792949 0.340939
v -1.747597 0.792949 -0.000001
v -1.714017 0.792949 -0.340940
v -1.614569 0.792949 -0.668777
v -1.453073 0.792949 -0.970913
v -1.235737 0.792949 -1.235738
v -0.970912 0.792949 -1.453074
v -0.668776 0.792949 -1.614569
v -0.340939 0.792949 -1.714017
v 0.000000 0.534201 -1.553358
v 0.303045 0.534201 -1.523511
v 0.594444 0.534201 -1.435116
v 0.863000 0.534201 -1.291570
v 1.098390 0.534201 -1.098390
v 1.291570 0.534201 -0.862999
v 1.435115 0.534201 -0.594444
v 1.523510 0.534201 -0.303045
v 1.553358 0.534201 0.000000
v 1.523510 0.534201 0.303045
v 1.435115 0.534201 0.594444
v 1.291569 0.534201 0.862999
v 1.098389 0.534201 1.098390
v 0.862999 0.534201 1.291570
v 0.594444 0.534201 1.435115
v 0.303045 0.534201 1.523510
v -0.000000 0.534201 1.553357
v -0.303045 0.534201 1.523510
v -0.594444 0.534201 1.435115
v -0.862999 0.534201 1.291569
v -1.098390 0.534201 1.098389
v -1.291569 0.534201 0.862998
v -1.435115 0.534201 0.594443
v -1.523509 0.534201 0.303044
v -1.553357 0.534201 -0.000001
v -1.523509 0.534201 -0.303046
v -1.435114 0.534201 -0.594445
v -1.291568 0.534201 -0.862999
v -1.098388 0.534201 -1.098389
v -0.862998 0.534201 -1.291569
v -0.594443 0.534201 -1.435114
v -0.303044 0.534201 -1.523509
v 0.000000 0.777910 -1.538434
v 0.300134 0.777910 -1.508874
v 0.588733 0.777910 -1.421328
v 0.854708 0.777910 -1.279161
v 1.087837 0.777910 -1.087837
v 1.279161 0.777910 -0.854708
v 1.421328 0.777910 -0.588733
v 1.508874 0.777910 -0.300133
v 1.538434 0.777910 0.000000
v 1.508873 0.777910 0.300134
v 1.421327 0.777910 0.588733
v 1.279161 0.777910 0.854708
v 1.087837 0.777910 1.087837
v 0.854708 0.777910 1.279161
v 0.588733 0.777910 1.421327
v 0.300133 0.777910 1.508873
v -0.000000 0.777910 1.538434
v -0.300134 0.777910 1.508873
v -0.588733 0.777910 1.421327
v -0.854708 0.777910 1.279160
v -1.087837 0.777910 1.087836
v -1.279161 0.777910 0.854707
v -1.421327 0.777910 0.588732
v -1.508873 0.777910 0.300133
v -1.538433 0.777910 -0.000001
v -1.508873 0.777910 -0.300134
v -1.421327 0.777910 -0.588733
v -1.279160 0.777910 -0.854708
v -1.087836 0.777910 -1.087837
v -0.854707 0.777910 -1.279161
v -0.588732 0.777910 -1.421327
v -0.300133 0.777910 -1.508873
vn 0.0573 -0.8112 -0.5819
vn 0.0240 0.9697 -0.2432
vn 0.0371 -0.9256 -0.3768
vn 0.0354 0.9326 -0.3591
vn 0.0252 -0.9663 -0.2562
vn 0.0488 0.8671 -0.4957
vn 0.0173 -0.9843 -0.1758
vn 0.0648 0.7500 -0.6583
vn 0.0114 -0.9932 -0.1155
vn 0.0824 0.5411 -0.8369
vn 0.0065 -0.9978 -0.0659
vn 0.0977 0.0809 -0.9919
vn 0.0045 0.9989 -0.0462
vn 0.0021 -0.9998 -0.0214
vn 0.0967 -0.1663 -0.9813
vn 0.0139 0.9899 -0.1409
vn 0.0135 0.9989 -0.0444
vn 0.0062 -0.9998 -0.0206
vn 0.2862 -0.1663 -0.9436
vn 0.0411 0.9899 -0.1355
vn 0.1697 -0.8112 -0.5595
vn 0.0709 0.9697 -0.2338
vn 0.1099 -0.9256 -0.3623
vn 0.1047 0.9326 -0.3453
vn 0.0747 -0.9663 -0.2464
vn 0.1446 0.8671 -0.4767
vn 0.0513 -0.9843 -0.1690
vn 0.1920 0.7500 -0.6330
vn 0.0337 -0.9932 -0.1111
vn 0.2441 0.5411 -0.8048
vn 0.0192 -0.9978 -0.0633
vn 0.2893 0.0809 -0.9538
vn 0.2348 0.8671 -0.4393
vn 0.0833 -0.9843 -0.1558
vn 0.3118 0.7500 -0.5834
vn 0.0547 -0.9932 -0.1024
vn 0.3964 0.5411 -0.7417
vn 0.0312 -0.9978 -0.0584
vn 0.4698 0.0809 -0.8790
vn 0.0219 0.9989 -0.0409
vn 0.0101 -0.9998 -0.0190
vn 0.4648 -0.1662 -0.8696
vn 0.0667 0.9899 -0.1249
vn 0.2756 -0.8112 -0.5157
vn 0.1152 0.9697 -0.2155
vn 0.1785 -0.9256 -0.3339
vn 0.1701 0.9326 -0.3182
vn 0.1214 -0.9663 -0.2270
vn 0.6256 -0.1663 -0.7623
vn 0.0898 0.9899 -0.1094
vn 0.3709 -0.8112 -0.4520
vn 0.1550 0.9697 -0.1889
vn 0.2402 -0.9256 -0.2927
vn 0.2289 0.9326 -0.2789
vn 0.1633 -0.9663 -0.1990
vn 0.3160 0.8671 -0.3851
vn 0.1120 -0.9843 -0.1365
vn 0.4196 0.7500 -0.5113
vn 0.0736 -0.9932 -0.0897
vn 0.5335 0.5411 -0.6501
vn 0.0420 -0.9978 -0.0512
vn 0.6323 0.0809 -0.7705
vn 0.0294 0.9989 -0.0359
vn 0.0137 -0.9998 -0.0166
vn 0.1365 -0.9843 -0.1120
vn 0.5113 0.7500 -0.4196
vn 0.0897 -0.9932 -0.0736
vn 0.6501 0.5411 -0.5335
vn 0.0512 -0.9978 -0.0420
vn 0.7705 0.0809 -0.6323
vn 0.0359 0.9989 -0.0294
vn 0.0166 -0.9998 -0.0137
vn 0.7623 -0.1662 -0.6256
vn 0.1094 0.9899 -0.0898
vn 0.4520 -0.8112 -0.3709
vn 0.1889 0.9697 -0.1550
vn 0.2927 -0.9256 -0.2402
vn 0.2789 0.9326 -0.2289
vn 0.1990 -0.9663 -0.1633
vn 0.3851 0.8671 -0.3160
vn 0.5157 -0.8112 -0.2756
vn 0.2155 0.9697 -0.1152
vn 0.3339 -0.9256 -0.1785
vn 0.3182 0.9326 -0.1701
vn 0.2270 -0.9663 -0.1214
vn 0.4393 0.8671 -0.2348
vn 0.1558 -0.9843 -0.0833
vn 0.5834 0.7500 -0.3118
vn 0.1024 -0.9932 -0.0547
vn 0.7417 0.5411 -0.3964
vn 0.0584 -0.9978 -0.0312
vn 0.8790 0.0809 -0.4698
vn 0.0409 0.9989 -0.0219
vn 0.0190 -0.9998 -0.0101
vn 0.8696 -0.1662 -0.4648
vn 0.1249 0.9899 -0.0667
vn 0.1111 -0.9932 -0.0337
vn 0.8048 0.5411 -0.2441
vn 0.0633 -0.9978 -0.0192
vn 0.9538 0.0809 -0.2893
vn 0.0444 0.9989 -0.0135
vn 0.0206 -0.9998 -0.0062
vn 0.9436 -0.1662 -0.2862
vn 0.1355 0.9899 -0.0411
vn 0.5595 -0.8112 -0.1697
vn 0.2338 0.9697 -0.0709
vn 0.3623 -0.9256 -0.1099
vn 0.3453 0.9326 -0.1047
vn 0.2464 -0.9663 -0.0747
vn 0.4767 0.8671 -0.1446
vn 0.1690 -0.9843 -0.0513
vn 0.6330 0.7500 -0.1920
vn 0.2432 0.9697 -0.0240
vn 0.3768 -0.9256 -0.0371
vn 0.3591 0.9326 -0.0354
vn 0.2562 -0.9663 -0.0252
vn 0.4957 0.8671 -0.0488
vn 0.1758 -0.9843 -0.0173
vn 0.6583 0.7500 -0.0648
vn 0.1155 -0.9932 -0.0114
vn 0.8369 0.5411 -0.0824
vn 0.0659 -0.9978 -0.0065
vn 0.9919 0.0809 -0.0977
vn 0.0462 0.9989 -0.0045
vn 0.0214 -0.9998 -0.0021
vn 0.9813 -0.1662 -0.0967
vn 0.1409 0.9899 -0.0139
vn 0.5819 -0.8112 -0.0573
vn 0.8369 0.5411 0.0824
vn 0.0659 -0.9978 0.0065
vn 0.9919 0.0809 0.0977
vn 0.0462 0.9989 0.0045
vn 0.0214 -0.9998 0.0021
vn 0.9813 -0.1662 0.0967
vn 0.1409 0.9899 0.0139
vn 0.5819 -0.8112 0.0573
vn 0.2432 0.9697 0.0240
vn 0.3768 -0.9256 0.0371
vn 0.3591 0.9326 0.0354
vn 0.2562 -0.9663 0.0252
vn 0.4957 0.8671 0.0488
vn 0.1758 -0.9843 0.0173
vn 0.6583 0.7500 0.0648
vn 0.1155 -0.9932 0.0114
vn 0.3623 -0.9256 0.1099
vn 0.3453 0.9326 0.1047
vn 0.2464 -0.9663 0.0747
vn 0.4767 0.8671 0.1446
vn 0.1690 -0.9843 0.0513
vn 0.6330 0.7500 0.1920
vn 0.1111 -0.9932 0.0337
vn 0.8048 0.5411 0.2441
vn 0.0633 -0.9978 0.0192
vn 0.9538 0.0809 0.2893
vn 0.0444 0.9989 0.0135
vn 0.0206 -0.9998 0.0062
vn 0.9436 -0.1662 0.2862
vn 0.1355 0.9899 0.0411
vn 0.5595 -0.8112 0.1697
vn 0.2338 0.9697 0.0709
vn 0.0584 -0.9978 0.0312
vn 0.8790 0.0809 0.4699
vn 0.0409 0.9989 0.0219
vn 0.0190 -0.9998 0.0101
vn 0.8696 -0.1662 0.4648
vn 0.1249 0.9899 0.0667
vn 0.5157 -0.8112 0.2756
vn 0.2155 0.9697 0.1152
vn 0.3339 -0.9256 0.1785
vn 0.3182 0.9326 0.1701
vn 0.2270 -0.9663 0.1214
vn 0.4393 0.8671 0.2348
vn 0.1558 -0.9843 0.0833
vn 0.5834 0.7500 0.3118
vn 0.1024 -0.9932 0.0547
vn 0.7417 0.5411 0.3964
vn 0.2789 0.9326 0.2289
vn 0.1990 -0.9663 0.1633
vn 0.3851 0.8671 0.3160
vn 0.1365 -0.9843 0.1120
vn 0.5113 0.7500 0.4196
vn 0.0897 -0.9932 0.0736
vn 0.6501 0.5411 0.5335
vn 0.0512 -0.9978 0.0420
vn 0.7705 0.0809 0.6323
vn 0.0359 0.9989 0.0294
vn 0.0166 -0.9998 0.0137
vn 0.7623 -0.1662 0.6256
vn 0.1094 0.9899 0.0898
vn 0.4520 -0.8112 0.3709
vn 0.1889 0.9697 0.1550
vn 0.2927 -0.9256 0.2402
vn 0.6323 0.0809 0.7705
vn 0.0294 0.9989 0.0359
vn 0.0137 -0.9998 0.0166
vn 0.6256 -0.1662 0.7623
vn 0.0898 0.9899 0.1094
vn 0.3709 -0.8112 0.4520
vn 0.1550 0.9697 0.1889
vn 0.2402 -0.9256 0.2927
vn 0.2289 0.9326 0.2789
vn 0.1633 -0.9663 0.1990
vn 0.3160 0.8671 0.3851
vn 0.1120 -0.9843 0.1365
vn 0.4196 0.7500 0.5113
vn 0.0736 -0.9932 0.0897
vn 0.5335 0.5411 0.6501
vn 0.0420 -0.9978 0.0512
vn 0.1214 -0.9663 0.2270
vn 0.2348 0.8671 0.4393
vn 0.0833 -0.9843 0.1558
vn 0.3118 0.7500 0.5834
vn 0.0547 -0.9932 0.1024
vn 0.3964 0.5411 0.7417
vn 0.0312 -0.9978 0.0584
vn 0.4698 0.0809 0.8790
vn 0.0219 0.9989 0.0409
vn 0.0101 -0.9998 0.0190
vn 0.4648 -0.1662 0.8696
vn 0.0667 0.9899 0.1249
vn 0.2756 -0.8112 0.5157
vn 0.1152 0.9697 0.2155
vn 0.1785 -0.9256 0.3339
vn 0.1701 0.9326 0.3182
vn 0.0062 -0.9998 0.0206
vn 0.2862 -0.1662 0.9436
vn 0.0411 0.9899 0.1355
vn 0.1697 -0.8112 0.5595
vn 0.0709 0.9697 0.2338
vn 0.1099 -0.9256 0.3623
vn 0.1047 0.9326 0.3453
vn 0.0747 -0.9663 0.2464
vn 0.1446 0.8671 0.4767
vn 0.0513 -0.9843 0.1690
vn 0.1920 0.7500 0.6330
vn 0.0337 -0.9932 0.1111
vn 0.2441 0.5411 0.8048
vn 0.0192 -0.9978 0.0633
vn 0.2893 0.0809 0.9538
vn 0.0135 0.9989 0.0444
vn 0.0173 -0.9843 0.1758
vn 0.0648 0.7500 0.6583
vn 0.0114 -0.9932 0.1155
vn 0.0824 0.5411 0.8369
vn 0.0065 -0.9978 0.0659
vn 0.0977 0.0809 0.9919
vn 0.0045 0.9989 0.0462
vn 0.0021 -0.9998 0.0214
vn 0.0967 -0.1662 0.9813
vn 0.0139 0.9899 0.1409
vn 0.0573 -0.8112 0.5819
vn 0.0240 0.9697 0.2432
vn 0.0371 -0.9256 0.3768
vn 0.0354 0.9326 0.3591
vn 0.0252 -0.9663 0.2562
vn 0.0488 0.8671 0.4957
vn -0.0139 0.9899 0.1409
vn -0.0573 -0.8112 0.5819
vn -0.0240 0.9697 0.2432
vn -0.0371 -0.9256 0.3768
vn -0.0354 0.9326 0.3591
vn -0.0252 -0.9663 0.2562
vn -0.0488 0.8671 0.4957
vn -0.0173 -0.9843 0.1758
vn -0.0648 0.7500 0.6583
vn -0.0114 -0.9932 0.1155
vn -0.0824 0.5411 0.8369
vn -0.0065 -0.9978 0.0659
vn -0.0977 0.0809 0.9919
vn -0.0046 0.9989 0.0462
vn -0.0021 -0.9998 0.0214
vn -0.0967 -0.1662 0.9813
vn -0.1920 0.7500 0.6330
vn -0.0337 -0.9932 0.1111
vn -0.2441 0.5411 0.8048
vn -0.0192 -0.9978 0.0633
vn -0.2893 0.0809 0.9538
vn -0.0135 0.9989 0.0444
vn -0.0062 -0.9998 0.0206
vn -0.2862 -0.1662 0.9436
vn -0.0411 0.9899 0.1355
vn -0.1697 -0.8112 0.5595
vn -0.0709 0.9697 0.2338
vn -0.1099 -0.9256 0.3623
vn -0.1047 0.9326 0.3453
vn -0.0747 -0.9663 0.2464
vn -0.1446 0.8671 0.4767
vn -0.0513 -0.9843 0.1690
vn -0.2756 -0.8112 0.5157
vn -0.1152 0.9697 0.2155
vn -0.1785 -0.9256 0.3339
vn -0.1701 0.9326 0.3182
vn -0.1214 -0.9663 0.2270
vn -0.2348 0.8671 0.4393
vn -0.0833 -0.9843 0.1558
vn -0.3118 0.7500 0.5834
vn -0.0547 -0.9932 0.1024
vn -0.3964 0.5411 0.7417
vn -0.0312 -0.9978 0.0584
vn -0.4699 0.0809 0.8790
vn -0.0219 0.9989 0.0409
vn -0.0101 -0.9998 0.0190
vn -0.4648 -0.1662 0.8696
vn -0.0667 0.9899 0.1249
vn -0.0736 -0.9932 0.0897
vn -0.5335 0.5411 0.6501
vn -0.0420 -0.9978 0.0512
vn -0.6323 0.0809 0.7705
vn -0.0294 0.9989 0.0359
vn -0.0137 -0.9998 0.0166
vn -0.6256 -0.1662 0.7623
vn -0.0898 0.9899 0.1094
vn -0.3709 -0.8112 0.4520
vn -0.1550 0.9697 0.1889
vn -0.2402 -0.9256 0.2927
vn -0.2289 0.9326 0.2789
vn -0.1633 -0.9663 0.1990
vn -0.3160 0.8671 0.3851
vn -0.1120 -0.9843 0.1365
vn -0.4196 0.7500 0.5113
vn -0.1889 0.9697 0.1550
vn -0.2927 -0.9256 0.2402
vn -0.2789 0.9326 0.2289
vn -0.1990 -0.9663 0.1633
vn -0.3851 0.8671 0.3160
vn -0.1365 -0.9843 0.1120
vn -0.5113 0.7500 0.4196
vn -0.0897 -0.9932 0.0736
vn -0.6501 0.5411 0.5335
vn -0.0512 -0.9978 0.0420
vn -0.7705 0.0809 0.6323
vn -0.0359 0.9989 0.0294
vn -0.0166 -0.9998 0.0137
vn -0.7623 -0.1662 0.6256
vn -0.1094 0.9899 0.0898
vn -0.4520 -0.8112 0.3709
vn -0.7417 0.5411 0.3964
vn -0.0584 -0.9978 0.0312
vn -0.8790 0.0809 0.4698
vn -0.0409 0.9989 0.0219
vn -0.0190 -0.9998 0.0101
vn -0.8696 -0.1662 0.4648
vn -0.1249 0.9899 0.0667
vn -0.5157 -0.8112 0.2756
vn -0.2155 0.9697 0.1152
vn -0.3339 -0.9256 0.1785
vn -0.3182 0.9326 0.1701
vn -0.2270 -0.9663 0.1214
vn -0.4393 0.8671 0.2348
vn -0.1558 -0.9843 0.0833
vn -0.5834 0.7500 0.3118
vn -0.1024 -0.9932 0.0547
vn -0.3623 -0.9256 0.1099
vn -0.3453 0.9326 0.1047
vn -0.2464 -0.9663 0.0747
vn -0.4767 0.8671 0.1446
vn -0.1690 -0.9843 0.0513
vn -0.6330 0.7500 0.1920
vn -0.1111 -0.9932 0.0337
vn -0.8048 0.5411 0.2441
vn -0.0633 -0.9978 0.0192
vn -0.9538 0.0809 0.2893
vn -0.0444 0.9989 0.0135
vn -0.0206 -0.9998 0.0062
vn -0.9436 -0.1662 0.2862
vn -0.1355 0.9899 0.0411
vn -0.5595 -0.8112 0.1697
vn -0.2338 0.9697 0.0709
vn -0.0659 -0.9978 0.0065
vn -0.9919 0.0809 0.0977
vn -0.0462 0.9989 0.0045
vn -0.0214 -0.9998 0.0021
vn -0.9813 -0.1662 0.0967
vn -0.1409 0.9899 0.0139
vn -0.5819 -0.8112 0.0573
vn -0.2432 0.9697 0.0240
vn -0.3768 -0.9256 0.0371
vn -0.3591 0.9326 0.0354
vn -0.2562 -0.9663 0.0252
vn -0.4957 0.8671 0.0488
vn -0.1758 -0.9843 0.0173
vn -0.6583 0.7500 0.0648
vn -0.1155 -0.9932 0.0114
vn -0.8369 0.5411 0.0824
vn -0.2562 -0.9663 -0.0252
vn -0.4957 0.8671 -0.0488
vn -0.1758 -0.9843 -0.0173
vn -0.6583 0.7500 -0.0648
vn -0.1155 -0.9932 -0.0114
vn -0.8369 0.5411 -0.0824
vn -0.0659 -0.9978 -0.0065
vn -0.9919 0.0809 -0.0977
vn -0.0462 0.9989 -0.0045
vn -0.0214 -0.9998 -0.0021
vn -0.9813 -0.1662 -0.0967
vn -0.1409 0.9899 -0.0139
vn -0.5819 -0.8112 -0.0573
vn -0.2432 0.9697 -0.0240
vn -0.3768 -0.9256 -0.0371
vn -0.3591 0.9326 -0.0354
vn -0.0444 0.9989 -0.0135
vn -0.0206 -0.9998 -0.0062
vn -0.9436 -0.1662 -0.2862
vn -0.1355 0.9899 -0.0411
vn -0.5595 -0.8112 -0.1697
vn -0.2338 0.9697 -0.0709
vn -0.3623 -0.9256 -0.1099
vn -0.3453 0.9326 -0.1047
vn -0.2464 -0.9663 -0.0747
vn -0.4767 0.8671 -0.1446
vn -0.1690 -0.9843 -0.0513
vn -0.6330 0.7500 -0.1920
vn -0.1111 -0.9932 -0.0337
vn -0.8048 0.5411 -0.2441
vn -0.0633 -0.9978 -0.0192
vn -0.9538 0.0809 -0.2893
vn -0.4393 0.8671 -0.2348
vn -0.1558 -0.9843 -0.0833
vn -0.5834 0.7500 -0.3118
vn -0.1024 -0.9932 -0.0547
vn -0.7417 0.5411 -0.3964
vn -0.0584 -0.9978 -0.0312
vn -0.8790 0.0809 -0.4699
vn -0.0409 0.9989 -0.0219
vn -0.0190 -0.9998 -0.0101
vn -0.8696 -0.1662 -0.4648
vn -0.1249 0.9899 -0.0667
vn -0.5157 -0.8112 -0.2756
vn -0.2155 0.9697 -0.1152
vn -0.3339 -0.9256 -0.1785
vn -0.3182 0.9326 -0.1701
vn -0.2270 -0.9663 -0.1214
vn -0.7623 -0.1662 -0.6256
vn -0.1094 0.9899 -0.0898
vn -0.4520 -0.8112 -0.3709
vn -0.1889 0.9697 -0.1550
vn -0.2927 -0.9256 -0.2402
vn -0.2789 0.9326 -0.2289
vn -0.1990 -0.9663 -0.1633
vn -0.3851 0.8671 -0.3160
vn -0.1365 -0.9843 -0.1120
vn -0.5113 0.7500 -0.4196
vn -0.0897 -0.9932 -0.0736
vn -0.6501 0.5411 -0.5335
vn -0.0512 -0.9978 -0.0420
vn -0.7705 0.0809 -0.6323
vn -0.0359 0.9989 -0.0294
vn -0.0166 -0.9998 -0.0137
vn -0.1120 -0.9843 -0.1365
vn -0.4196 0.7500 -0.5113
vn -0.0736 -0.9932 -0.0897
vn -0.5335 0.5411 -0.6501
vn -0.0420 -0.9978 -0.0512
vn -0.6323 0.0809 -0.7705
vn -0.0294 0.9989 -0.0359
vn -0.0137 -0.9998 -0.0166
vn -0.6256 -0.1662 -0.7623
vn -0.0898 0.9899 -0.1094
vn -0.3709 -0.8112 -0.4520
vn -0.1550 0.9697 -0.1889
vn -0.2402 -0.9256 -0.2927
vn -0.2289 0.9326 -0.2789
vn -0.1633 -0.9663 -0.1990
vn -0.3160 0.8671 -0.3851
vn -0.0667 0.9899 -0.1249
vn -0.2756 -0.8112 -0.5157
vn -0.1152 0.9697 -0.2155
vn -0.1785 -0.9256 -0.3339
vn -0.1701 0.9326 -0.3182
vn -0.1214 -0.9663 -0.2270
vn -0.2348 0.8671 -0.4393
vn -0.0833 -0.9843 -0.1558
vn -0.3118 0.7500 -0.5834
vn -0.0547 -0.9932 -0.1024
vn -0.3964 0.5411 -0.7417
vn -0.0312 -0.9978 -0.0584
vn -0.4698 0.0809 -0.8790
vn -0.0219 0.9989 -0.0409
vn -0.0101 -0.9998 -0.0190
vn -0.4648 -0.1662 -0.8696
vn -0.1920 0.7500 -0.6330
vn -0.0337 -0.9932 -0.1111
vn -0.2441 0.5411 -0.8048
vn -0.0192 -0.9978 -0.0633
vn -0.2893 0.0809 -0.9538
vn -0.0135 0.9989 -0.0444
vn -0.0062 -0.9998 -0.0206
vn -0.2862 -0.1662 -0.9436
vn -0.0411 0.9899 -0.1355
vn -0.1697 -0.8112 -0.5595
vn -0.0709 0.9697 -0.2338
vn -0.1099 -0.9256 -0.3623
vn -0.1047 0.9326 -0.3453
vn -0.0747 -0.9663 -0.2464
vn -0.1446 0.8671 -0.4767
vn -0.0513 -0.9843 -0.1690
vn -0.0573 -0.8112 -0.5819
vn -0.0240 0.9697 -0.2432
vn -0.0371 -0.9256 -0.3768
vn -0.0354 0.9326 -0.3591
vn -0.0252 -0.9663 -0.2562
vn -0.0488 0.8671 -0.4957
vn -0.0173 -0.9843 -0.1758
vn -0.0648 0.7500 -0.6583
vn -0.0114 -0.9932 -0.1155
vn -0.0824 0.5411 -0.8369
vn -0.0065 -0.9978 -0.0659
vn -0.0977 0.0809 -0.9919
vn -0.0045 0.9989 -0.0462
vn -0.0021 -0.9998 -0.0214
vn -0.0967 -0.1662 -0.9813
vn -0.0139 0.9899 -0.1409
vn -0.0453 0.9974 0.0552
vn -0.0070 0.9974 0.0710
vn -0.0457 -0.9974 0.0557
vn 0.0710 0.9974 -0.0070
vn -0.0557 -0.9974 0.0457
vn 0.0207 0.9974 -0.0683
vn -0.0636 -0.9974 0.0340
vn 0.0629 0.9974 0.0336
vn -0.0690 -0.9974 0.0209
vn -0.0629 0.9974 -0.0336
vn -0.0717 -0.9974 0.0071
vn -0.0207 0.9974 0.0683
vn -0.0717 -0.9974 -0.0071
vn 0.0629 0.9974 -0.0336
vn -0.0690 -0.9974 -0.0209
vn 0.0710 0.9974 0.0070
vn -0.0635 -0.9974 -0.0340
vn -0.0552 0.9974 -0.0453
vn 0.0071 -0.9974 -0.0717
vn -0.0710 0.9974 -0.0070
vn -0.0557 -0.9974 -0.0457
vn 0.0209 -0.9974 -0.0690
vn -0.0457 -0.9974 -0.0557
vn 0.0340 -0.9974 -0.0635
vn 0.0070 0.9974 0.0710
vn -0.0340 -0.9974 -0.0635
vn 0.0457 -0.9974 -0.0557
vn 0.0683 0.9974 -0.0207
vn -0.0683 0.9974 -0.0207
vn -0.0209 -0.9974 -0.0690
vn -0.0683 0.9974 0.0207
vn 0.0557 -0.9974 -0.0457
vn -0.0978 0.0608 -0.9933
vn -0.2897 0.0608 -0.9552
vn -0.4705 0.0608 -0.8803
vn -0.6332 0.0608 -0.7716
vn -0.7716 0.0608 -0.6332
vn -0.8803 0.0608 -0.4705
vn -0.9552 0.0608 -0.2897
vn -0.9933 0.0608 -0.0978
vn -0.9933 0.0608 0.0978
vn -0.9552 0.0608 0.2897
vn -0.8803 0.0608 0.4705
vn -0.7716 0.0608 0.6332
vn -0.6332 0.0608 0.7716
vn -0.4705 0.0608 0.8803
vn -0.2897 0.0608 0.9552
vn -0.0978 0.0608 0.9933
vn 0.0978 0.0608 0.9933
vn 0.2897 0.0608 0.9552
vn 0.4705 0.0608 0.8803
vn 0.6332 0.0608 0.7716
vn 0.7716 0.0608 0.6332
vn 0.8803 0.0608 0.4705
vn 0.9552 0.0608 0.2897
vn 0.9933 0.0608 0.0978
vn 0.9933 0.0608 -0.0978
vn 0.9552 0.0608 -0.2897
vn 0.8803 0.0608 -0.4705
vn 0.7716 0.0608 -0.6332
vn 0.6332 0.0608 -0.7716
vn 0.4705 0.0608 -0.8803
vn 0.2897 0.0608 -0.9552
vn 0.0978 0.0608 -0.9933
vn -0.0340 -0.9974 0.0635
vn 0.0453 0.9974 0.0552
vn -0.0453 0.9974 -0.0552
vn -0.0209 -0.9974 0.0690
vn 0.0453 0.9974 -0.0552
vn -0.0071 -0.9974 0.0717
vn 0.0683 0.9974 0.0207
vn 0.0071 -0.9974 0.0717
vn -0.0336 0.9974 0.0629
vn 0.0209 -0.9974 0.0690
vn -0.0629 0.9974 0.0336
vn 0.0340 -0.9974 0.0636
vn -0.0207 0.9974 -0.0683
vn 0.0336 0.9974 -0.0629
vn 0.0070 0.9974 -0.0710
vn 0.0457 -0.9974 0.0557
vn -0.0070 0.9974 -0.0710
vn 0.0557 -0.9974 0.0457
vn 0.0552 0.9974 0.0453
vn -0.0710 0.9974 0.0070
vn 0.0207 0.9974 0.0683
vn 0.0635 -0.9974 0.0340
vn 0.0690 -0.9974 0.0209
vn -0.0552 0.9974 0.0453
vn 0.0717 -0.9974 0.0071
vn 0.0552 0.9974 -0.0453
vn -0.0336 0.9974 -0.0629
vn 0.0717 -0.9974 -0.0071
vn 0.0690 -0.9974 -0.0209
vn 0.0336 0.9974 0.0629
vn 0.0635 -0.9974 -0.0340
vn -0.0071 -0.9974 -0.0717
vn 0.4648 -0.1663 -0.8696
vn 0.6256 -0.1662 -0.7623
vn 0.7623 -0.1663 -0.6256
vn 0.8790 0.0809 -0.4699
vn 0.4699 0.0809 0.8790
vn -0.8790 0.0809 0.4699
vn -0.4699 0.0809 -0.8790
vn -0.0239 0.9697 -0.2432
vn -0.0967 -0.1663 -0.9813
vn -0.0635 -0.9974 0.0340
vn 0.0340 -0.9974 -0.0636
vn -0.0340 -0.9974 -0.0636
vn -0.0340 -0.9974 0.0636
vn 0.0340 -0.9974 0.0635
vn 0.0636 -0.9974 0.0340
vn 0.0636 -0.9974 -0.0340
vt 0.089667 0.540643
vt 0.041934 0.514877
vt 0.837819 0.065595
vt 0.944534 0.065108
vt 0.377169 0.295901
vt 0.660050 0.414021
vt 0.922451 0.066902
vt 0.651204 0.442328
vt 0.149489 0.581308
vt 0.114026 0.570520
vt 0.081411 0.560577
vt 0.052897 0.551863
vt 0.029579 0.544711
vt 0.012354 0.539396
vt 0.854513 0.104206
vt 0.836216 0.100773
vt 0.943213 0.100988
vt 0.392029 0.260020
vt 0.921156 0.102093
vt 0.695236 0.428597
vt 0.689787 0.438540
vt 0.681033 0.454685
vt 0.669311 0.476414
vt 0.655071 0.502890
vt 0.638861 0.533097
vt 0.621303 0.565872
vt 0.148011 0.588739
vt 0.111127 0.585096
vt 0.077203 0.581739
vt 0.047540 0.578796
vt 0.023280 0.576382
vt 0.005355 0.574587
vt 0.853584 0.139390
vt 0.835229 0.138125
vt 0.942540 0.139078
vt 0.399604 0.221930
vt 0.920496 0.139451
vt 0.726903 0.449759
vt 0.719616 0.458474
vt 0.707878 0.472626
vt 0.692141 0.491671
vt 0.673009 0.514877
vt 0.651216 0.541353
vt 0.627602 0.570082
vt 0.148011 0.596316
vt 0.111127 0.599958
vt 0.077203 0.603315
vt 0.047540 0.606258
vt 0.023280 0.608673
vt 0.005355 0.610467
vt 0.853270 0.175269
vt 0.834896 0.176213
vt 0.942540 0.177915
vt 0.399604 0.183093
vt 0.920496 0.177541
vt 0.753833 0.476693
vt 0.744984 0.483845
vt 0.730709 0.495459
vt 0.711557 0.511089
vt 0.688263 0.530134
vt 0.661724 0.551863
vt 0.632958 0.575439
vt 0.149489 0.603747
vt 0.114026 0.614535
vt 0.081411 0.624477
vt 0.052897 0.633192
vt 0.029579 0.640344
vt 0.012354 0.645658
vt 0.853584 0.210464
vt 0.835229 0.213576
vt 0.943213 0.216005
vt 0.392029 0.145003
vt 0.921156 0.214900
vt 0.774992 0.508364
vt 0.764915 0.513678
vt 0.748646 0.522308
vt 0.726811 0.533922
vt 0.700249 0.548074
vt 0.669980 0.564220
vt 0.637167 0.581739
vt 0.152388 0.610747
vt 0.119713 0.628266
vt 0.089667 0.644411
vt 0.063404 0.658563
vt 0.041934 0.670177
vt 0.026082 0.678807
vt 0.854513 0.243623
vt 0.836216 0.248777
vt 0.944534 0.251885
vt 0.377169 0.109123
vt 0.922451 0.250091
vt 0.789566 0.543555
vt 0.778644 0.546827
vt 0.761002 0.552142
vt 0.737319 0.559294
vt 0.708505 0.568008
vt 0.675666 0.577951
vt 0.640066 0.588739
vt 0.186436 0.592527
vt 0.156596 0.617046
vt 0.127969 0.640623
vt 0.101652 0.662351
vt 0.078659 0.681397
vt 0.059872 0.697026
vt 0.046013 0.708641
vt 0.856023 0.273470
vt 0.837819 0.280463
vt 0.946451 0.284177
vt 0.355596 0.076831
vt 0.924331 0.281762
vt 0.796996 0.580913
vt 0.785643 0.582018
vt 0.767301 0.583813
vt 0.742676 0.586228
vt 0.712713 0.589170
vt 0.678565 0.592527
vt 0.641544 0.596170
vt 0.161953 0.622404
vt 0.138476 0.651132
vt 0.116907 0.677608
vt 0.098074 0.700815
vt 0.082701 0.719860
vt 0.858055 0.298860
vt 0.071380 0.734012
vt 0.912610 0.415312
vt 0.839976 0.307417
vt 0.894531 0.408002
vt 0.948890 0.311638
vt 0.833660 0.719169
vt 0.328139 0.049370
vt 0.811541 0.721584
vt 0.926724 0.308696
vt 0.796996 0.619003
vt 0.785643 0.617898
vt 0.767301 0.616104
vt 0.742676 0.613689
vt 0.712713 0.610747
vt 0.678565 0.607389
vt 0.641544 0.603747
vt 0.168252 0.626613
vt 0.150831 0.659389
vt 0.134844 0.689595
vt 0.120903 0.716072
vt 0.109546 0.737800
vt 0.101208 0.753946
vt 0.910578 0.445129
vt 0.892374 0.439655
vt 0.831744 0.751460
vt 0.295853 0.027794
vt 0.809661 0.753255
vt 0.789566 0.656362
vt 0.778644 0.653089
vt 0.761002 0.647775
vt 0.737319 0.640623
vt 0.708505 0.631908
vt 0.675666 0.621966
vt 0.640066 0.611178
vt 0.175251 0.629512
vt 0.164560 0.665076
vt 0.154774 0.697852
vt 0.146270 0.726581
vt 0.139375 0.750157
vt 0.134352 0.767677
vt 0.909069 0.478266
vt 0.890771 0.474833
vt 0.830423 0.787340
vt 0.259978 0.012931
vt 0.808366 0.788445
vt 0.774992 0.691553
vt 0.764915 0.686238
vt 0.748646 0.677608
vt 0.726811 0.665994
vt 0.700249 0.651842
vt 0.669980 0.635697
vt 0.637167 0.618178
vt 0.182680 0.630991
vt 0.179134 0.667976
vt 0.175933 0.702062
vt 0.173200 0.731938
vt 0.171040 0.756457
vt 0.169537 0.774676
vt 0.908139 0.513450
vt 0.889784 0.512184
vt 0.829750 0.825431
vt 0.221894 0.005355
vt 0.807706 0.825804
vt 0.753833 0.723224
vt 0.744984 0.716072
vt 0.730709 0.704458
vt 0.711557 0.688828
vt 0.688263 0.669783
vt 0.661724 0.648054
vt 0.632958 0.624477
vt 0.190256 0.630991
vt 0.193994 0.667976
vt 0.197506 0.702062
vt 0.200657 0.731938
vt 0.203326 0.756457
vt 0.205411 0.774676
vt 0.907825 0.549329
vt 0.889451 0.550273
vt 0.829750 0.864267
vt 0.183064 0.005355
vt 0.807706 0.863894
vt 0.726903 0.750157
vt 0.719616 0.741443
vt 0.707878 0.727291
vt 0.692141 0.708246
vt 0.673009 0.685039
vt 0.651216 0.658563
vt 0.627602 0.629835
vt 0.197686 0.629512
vt 0.208568 0.665076
vt 0.218664 0.697852
vt 0.227587 0.726581
vt 0.234992 0.750157
vt 0.240597 0.767677
vt 0.908139 0.584524
vt 0.889784 0.587636
vt 0.830423 0.902358
vt 0.144980 0.012931
vt 0.808366 0.901253
vt 0.695236 0.771319
vt 0.689787 0.761377
vt 0.681033 0.745231
vt 0.669311 0.723503
vt 0.655071 0.697026
vt 0.638861 0.666820
vt 0.621303 0.634044
vt 0.204684 0.626613
vt 0.222296 0.659389
vt 0.238595 0.689595
vt 0.252954 0.716072
vt 0.264821 0.737800
vt 0.273740 0.753946
vt 0.909069 0.617682
vt 0.890771 0.622837
vt 0.831744 0.938238
vt 0.109106 0.027794
vt 0.809661 0.936443
vt 0.660050 0.785896
vt 0.656643 0.775108
vt 0.651204 0.757589
vt 0.643943 0.734012
vt 0.635140 0.705283
vt 0.625132 0.672508
vt 0.614304 0.636944
vt 0.210983 0.622404
vt 0.234652 0.651132
vt 0.256532 0.677608
vt 0.275783 0.700815
vt 0.291666 0.719860
vt 0.303569 0.734012
vt 0.910578 0.647530
vt 0.892374 0.654523
vt 0.833660 0.970529
vt 0.982089 0.005355
vt 0.076820 0.049370
vt 0.959600 0.008297
vt 0.811541 0.968114
vt 0.622697 0.793327
vt 0.621457 0.782108
vt 0.619537 0.763888
vt 0.617013 0.739369
vt 0.613981 0.709493
vt 0.610557 0.675407
vt 0.606874 0.638422
vt 0.216340 0.617046
vt 0.245159 0.640623
vt 0.271786 0.662351
vt 0.295198 0.681396
vt 0.314495 0.697026
vt 0.328936 0.708641
vt 0.912610 0.672920
vt 0.909439 0.013714
vt 0.894531 0.681477
vt 0.892077 0.006562
vt 0.982324 0.032816
vt 0.049363 0.076832
vt 0.959830 0.035231
vt 0.584612 0.793327
vt 0.585581 0.782108
vt 0.587250 0.763888
vt 0.589555 0.739369
vt 0.592407 0.709493
vt 0.595697 0.675407
vt 0.599298 0.638422
vt 0.220548 0.610746
vt 0.253415 0.628266
vt 0.283772 0.644411
vt 0.310453 0.658563
vt 0.332432 0.670177
vt 0.348866 0.678807
vt 0.909609 0.043547
vt 0.892258 0.038233
vt 0.982508 0.065108
vt 0.027790 0.109123
vt 0.960011 0.066902
vt 0.547259 0.785896
vt 0.550396 0.775108
vt 0.555584 0.757589
vt 0.562625 0.734012
vt 0.571249 0.705283
vt 0.581123 0.672508
vt 0.591868 0.636944
vt 0.223447 0.603747
vt 0.259101 0.614535
vt 0.292027 0.624477
vt 0.320960 0.633192
vt 0.344788 0.640344
vt 0.362595 0.645658
vt 0.909727 0.076697
vt 0.892382 0.073424
vt 0.982635 0.100988
vt 0.012930 0.145003
vt 0.960135 0.102093
vt 0.512073 0.771319
vt 0.517251 0.761377
vt 0.525755 0.745231
vt 0.537258 0.723503
vt 0.551317 0.697026
vt 0.567394 0.666820
vt 0.584869 0.634044
vt 0.224925 0.596316
vt 0.262000 0.599958
vt 0.296236 0.603315
vt 0.326317 0.606258
vt 0.351086 0.608673
vt 0.369594 0.610467
vt 0.909786 0.111887
vt 0.892446 0.110782
vt 0.982700 0.139078
vt 0.005355 0.183093
vt 0.960199 0.139451
vt 0.480407 0.750157
vt 0.487422 0.741443
vt 0.498909 0.727291
vt 0.514427 0.708246
vt 0.533380 0.685039
vt 0.555038 0.658563
vt 0.578571 0.629835
vt 0.224925 0.588739
vt 0.262000 0.585096
vt 0.296236 0.581739
vt 0.326317 0.578796
vt 0.351086 0.576381
vt 0.369594 0.574587
vt 0.909786 0.147768
vt 0.892446 0.148873
vt 0.982700 0.177915
vt 0.005355 0.221930
vt 0.960199 0.177542
vt 0.453477 0.723224
vt 0.462054 0.716072
vt 0.476079 0.704458
vt 0.495012 0.688828
vt 0.518125 0.669783
vt 0.544531 0.648054
vt 0.573214 0.624477
vt 0.223447 0.581308
vt 0.259101 0.570520
vt 0.292027 0.560577
vt 0.320960 0.551862
vt 0.344788 0.544711
vt 0.362595 0.539396
vt 0.909727 0.182958
vt 0.892382 0.186231
vt 0.982635 0.216005
vt 0.012930 0.260020
vt 0.960135 0.214900
vt 0.432318 0.691553
vt 0.442123 0.686238
vt 0.458142 0.677608
vt 0.479757 0.665994
vt 0.506140 0.651842
vt 0.536275 0.635697
vt 0.569005 0.618178
vt 0.603072 0.599958
vt 0.220548 0.574308
vt 0.253415 0.556789
vt 0.283772 0.540643
vt 0.310453 0.526491
vt 0.332432 0.514877
vt 0.348866 0.506247
vt 0.909609 0.216107
vt 0.892258 0.221422
vt 0.982508 0.251885
vt 0.027790 0.295900
vt 0.960011 0.250091
vt 0.417744 0.656362
vt 0.428394 0.653089
vt 0.445786 0.647775
vt 0.469250 0.640623
vt 0.497884 0.631908
vt 0.530588 0.621966
vt 0.566106 0.611178
vt 0.216340 0.568008
vt 0.245159 0.544431
vt 0.271786 0.522703
vt 0.295198 0.503658
vt 0.314495 0.488028
vt 0.909439 0.245941
vt 0.328936 0.476414
vt 0.855339 0.416776
vt 0.892077 0.253093
vt 0.837336 0.408061
vt 0.982324 0.284177
vt 0.049363 0.328192
vt 0.959830 0.281762
vt 0.410314 0.619003
vt 0.421395 0.617899
vt 0.439487 0.616104
vt 0.463893 0.613689
vt 0.493675 0.610747
vt 0.527689 0.607389
vt 0.564628 0.603747
vt 0.210983 0.562651
vt 0.234652 0.533922
vt 0.256532 0.507446
vt 0.275783 0.484240
vt 0.291665 0.465194
vt 0.303569 0.451043
vt 0.853085 0.442147
vt 0.834943 0.434995
vt 0.982089 0.311638
vt 0.977259 0.693453
vt 0.076820 0.355653
vt 0.955139 0.695868
vt 0.959600 0.308696
vt 0.410314 0.580913
vt 0.421395 0.582018
vt 0.439487 0.583813
vt 0.463893 0.586228
vt 0.493675 0.589170
vt 0.527689 0.592527
vt 0.564628 0.596170
vt 0.204684 0.558441
vt 0.222296 0.525665
vt 0.238595 0.495459
vt 0.252953 0.468983
vt 0.264821 0.447254
vt 0.273740 0.431109
vt 0.851314 0.471980
vt 0.833063 0.466666
vt 0.975342 0.725744
vt 0.109106 0.377230
vt 0.953259 0.727539
vt 0.417744 0.543555
vt 0.428394 0.546827
vt 0.445786 0.552142
vt 0.469250 0.559294
vt 0.497884 0.568008
vt 0.530588 0.577951
vt 0.566106 0.588739
vt 0.197686 0.555542
vt 0.208568 0.519978
vt 0.218664 0.487202
vt 0.227586 0.458474
vt 0.234992 0.434897
vt 0.240596 0.417378
vt 0.850094 0.505129
vt 0.831768 0.501857
vt 0.974022 0.761625
vt 0.144980 0.392092
vt 0.951964 0.762730
vt 0.432318 0.508364
vt 0.442123 0.513678
vt 0.458142 0.522308
vt 0.479757 0.533922
vt 0.506140 0.548074
vt 0.536275 0.564220
vt 0.569005 0.581739
vt 0.190256 0.554064
vt 0.193994 0.517079
vt 0.197506 0.482993
vt 0.200657 0.453116
vt 0.203326 0.428597
vt 0.205411 0.410378
vt 0.849472 0.540320
vt 0.831107 0.539215
vt 0.973348 0.799715
vt 0.183064 0.399668
vt 0.951304 0.800088
vt 0.453477 0.476693
vt 0.462054 0.483845
vt 0.476079 0.495459
vt 0.495012 0.511089
vt 0.518125 0.530134
vt 0.544531 0.551863
vt 0.573214 0.575439
vt 0.182680 0.554064
vt 0.179134 0.517079
vt 0.175933 0.482993
vt 0.173200 0.453116
vt 0.171040 0.428597
vt 0.169537 0.410378
vt 0.849472 0.576200
vt 0.831107 0.577305
vt 0.973348 0.838551
vt 0.221894 0.399668
vt 0.951304 0.838178
vt 0.480407 0.449759
vt 0.487422 0.458474
vt 0.498909 0.472626
vt 0.514427 0.491671
vt 0.533380 0.514877
vt 0.555038 0.541354
vt 0.578571 0.570082
vt 0.175251 0.555542
vt 0.164560 0.519978
vt 0.154774 0.487202
vt 0.146270 0.458474
vt 0.139375 0.434897
vt 0.134352 0.417378
vt 0.850094 0.611391
vt 0.831768 0.614664
vt 0.974022 0.876642
vt 0.259978 0.392092
vt 0.951964 0.875537
vt 0.512073 0.428597
vt 0.517251 0.438540
vt 0.525755 0.454686
vt 0.537258 0.476414
vt 0.551317 0.502890
vt 0.567394 0.533097
vt 0.584869 0.565872
vt 0.168252 0.558441
vt 0.150831 0.525665
vt 0.134844 0.495459
vt 0.120903 0.468983
vt 0.109546 0.447254
vt 0.101208 0.431109
vt 0.851314 0.644540
vt 0.833063 0.649854
vt 0.975342 0.912522
vt 0.295853 0.377230
vt 0.953259 0.910728
vt 0.547259 0.414021
vt 0.550396 0.424809
vt 0.555584 0.442328
vt 0.562625 0.465905
vt 0.571249 0.494633
vt 0.581123 0.527409
vt 0.591868 0.562973
vt 0.161953 0.562651
vt 0.138476 0.533922
vt 0.116907 0.507446
vt 0.098074 0.484240
vt 0.082701 0.465195
vt 0.071380 0.451043
vt 0.853085 0.674373
vt 0.834943 0.681525
vt 0.842605 0.007030
vt 0.977259 0.944813
vt 0.948890 0.005355
vt 0.328139 0.355653
vt 0.926724 0.008297
vt 0.955139 0.942398
vt 0.584612 0.406590
vt 0.585581 0.417809
vt 0.587250 0.436028
vt 0.589555 0.460547
vt 0.592408 0.490424
vt 0.595697 0.524510
vt 0.599298 0.561495
vt 0.156597 0.568008
vt 0.127969 0.544432
vt 0.101652 0.522703
vt 0.078659 0.503658
vt 0.059872 0.488028
vt 0.855339 0.699745
vt 0.046013 0.476414
vt 0.858055 0.041252
vt 0.837336 0.708459
vt 0.839976 0.033942
vt 0.946451 0.032816
vt 0.355596 0.328192
vt 0.924331 0.035231
vt 0.622697 0.406590
vt 0.621457 0.417809
vt 0.619537 0.436028
vt 0.617013 0.460547
vt 0.613981 0.490424
vt 0.610557 0.524510
vt 0.606874 0.561495
vt 0.152388 0.574308
vt 0.119713 0.556789
vt 0.063404 0.526491
vt 0.026082 0.506247
vt 0.856023 0.071069
vt 0.656642 0.424809
vt 0.643943 0.465905
vt 0.635140 0.494633
vt 0.625132 0.527409
vt 0.614304 0.562973
vt 0.814445 0.064493
vt 0.548601 0.388377
vt 0.812827 0.100016
vt 0.513070 0.373657
vt 0.811830 0.137733
vt 0.481094 0.352288
vt 0.811494 0.176195
vt 0.453900 0.325090
vt 0.811830 0.213924
vt 0.432534 0.293109
vt 0.812827 0.249470
vt 0.417816 0.257574
vt 0.814445 0.281466
vt 0.410313 0.219849
vt 0.816624 0.308684
vt 0.871179 0.406590
vt 0.410313 0.181386
vt 0.869000 0.438553
vt 0.417816 0.143662
vt 0.867382 0.474076
vt 0.432534 0.108126
vt 0.866385 0.511793
vt 0.453900 0.076145
vt 0.866049 0.550255
vt 0.481094 0.048947
vt 0.866385 0.587984
vt 0.513070 0.027578
vt 0.867382 0.623529
vt 0.548601 0.012859
vt 0.869000 0.655526
vt 0.586320 0.005355
vt 0.871179 0.682744
vt 0.868765 0.005355
vt 0.624778 0.005355
vt 0.868947 0.037336
vt 0.662497 0.012859
vt 0.869073 0.072872
vt 0.698027 0.027578
vt 0.869137 0.110596
vt 0.730004 0.048947
vt 0.869137 0.149059
vt 0.757198 0.076145
vt 0.869073 0.186784
vt 0.778564 0.108126
vt 0.868947 0.222319
vt 0.793281 0.143661
vt 0.868765 0.254300
vt 0.813995 0.406590
vt 0.800784 0.181386
vt 0.811579 0.433787
vt 0.800784 0.219849
vt 0.809680 0.465769
vt 0.793281 0.257573
vt 0.808372 0.501304
vt 0.778564 0.293109
vt 0.807706 0.539028
vt 0.757198 0.325090
vt 0.807706 0.577492
vt 0.730004 0.352288
vt 0.808372 0.615216
vt 0.698027 0.373657
vt 0.809680 0.650752
vt 0.662497 0.388376
vt 0.811579 0.682733
vt 0.819278 0.005355
vt 0.624778 0.395880
vt 0.816624 0.032530
vt 0.586320 0.395880
vt 0.954503 0.623614
vt 0.356291 0.284723
vt 0.369373 0.253137
vt 0.955666 0.592028
vt 0.956258 0.558497
vt 0.376041 0.219606
vt 0.956258 0.524308
vt 0.376041 0.185418
vt 0.955666 0.490777
vt 0.369373 0.151886
vt 0.356291 0.120300
vt 0.954503 0.459191
vt 0.337301 0.091874
vt 0.952816 0.430765
vt 0.950668 0.406590
vt 0.313130 0.067699
vt 0.870608 0.693453
vt 0.868672 0.721864
vt 0.284708 0.048705
vt 0.867234 0.753438
vt 0.253127 0.035622
vt 0.866348 0.786963
vt 0.219601 0.028952
vt 0.866049 0.821150
vt 0.185418 0.028952
vt 0.866348 0.854686
vt 0.151893 0.035622
vt 0.867234 0.886280
vt 0.120312 0.048705
vt 0.868672 0.914721
vt 0.091890 0.067699
vt 0.870608 0.938913
vt 0.067719 0.091874
vt 0.966968 0.406590
vt 0.048728 0.120300
vt 0.967130 0.435016
vt 0.035647 0.151886
vt 0.967242 0.466602
vt 0.967299 0.500134
vt 0.028978 0.185418
vt 0.028979 0.219606
vt 0.967299 0.534322
vt 0.967242 0.567853
vt 0.035647 0.253137
vt 0.967130 0.599439
vt 0.048728 0.284723
vt 0.966968 0.627866
vt 0.067719 0.313150
vt 0.913236 0.693453
vt 0.911300 0.717646
vt 0.091890 0.337324
vt 0.120312 0.356318
vt 0.909861 0.746086
vt 0.151893 0.369402
vt 0.908975 0.777681
vt 0.185419 0.376071
vt 0.908676 0.811216
vt 0.219601 0.376071
vt 0.908975 0.845403
vt 0.909861 0.878928
vt 0.253127 0.369402
vt 0.911300 0.910502
vt 0.284708 0.356318
vt 0.913236 0.938913
vt 0.950668 0.676215
vt 0.313130 0.337324
vt 0.952816 0.652040
vt 0.337300 0.313150
vt 0.927118 0.622824
vt 0.555445 0.365904
vt 0.524167 0.352947
vt 0.928269 0.591542
vt 0.496018 0.334135
vt 0.928856 0.558333
vt 0.472078 0.310193
vt 0.928856 0.524473
vt 0.453269 0.282039
vt 0.928269 0.491263
vt 0.927118 0.459981
vt 0.440314 0.250757
vt 0.925447 0.431827
vt 0.433709 0.217548
vt 0.897967 0.694755
vt 0.923320 0.407885
vt 0.433709 0.183688
vt 0.896049 0.722893
vt 0.440314 0.150478
vt 0.894624 0.754164
vt 0.453269 0.119196
vt 0.893747 0.787367
vt 0.472078 0.091043
vt 0.893451 0.821226
vt 0.496017 0.067100
vt 0.893747 0.854439
vt 0.524167 0.048288
vt 0.894624 0.885730
vt 0.555445 0.035331
vt 0.896049 0.913897
vt 0.588650 0.028725
vt 0.994317 0.407653
vt 0.897967 0.937857
vt 0.622505 0.028725
vt 0.994478 0.435806
vt 0.655709 0.035331
vt 0.994589 0.467089
vt 0.686987 0.048288
vt 0.994645 0.500298
vt 0.715137 0.067100
vt 0.994645 0.534158
vt 0.739076 0.091043
vt 0.757885 0.119196
vt 0.994589 0.567367
vt 0.770840 0.150478
vt 0.994478 0.598649
vt 0.777445 0.183688
vt 0.940595 0.694509
vt 0.994317 0.626803
vt 0.777445 0.217547
vt 0.938677 0.718469
vt 0.770840 0.250757
vt 0.937252 0.746636
vt 0.757885 0.282039
vt 0.936375 0.777927
vt 0.739076 0.310192
vt 0.936079 0.811140
vt 0.715137 0.334135
vt 0.936375 0.844999
vt 0.686987 0.352947
vt 0.937252 0.878202
vt 0.655709 0.365904
vt 0.938677 0.909473
vt 0.622505 0.372510
vt 0.923320 0.674920
vt 0.940595 0.937611
vt 0.588650 0.372510
vt 0.925447 0.650977
s 0
f 5/6/1 16/21/1 478/591/1
f 1/1/2 8/10/2 9/11/2
f 478/591/3 17/22/3 6/8/3
f 476/588/4 9/11/4 10/12/4
f 6/8/5 18/23/5 479/592/5
f 2/2/6 10/12/6 11/13/6
f 479/592/7 19/24/7 480/593/7
f 477/589/8 11/13/8 12/14/8
f 480/593/9 20/25/9 481/594/9
f 477/590/10 13/16/10 3/3/10
f 481/594/11 21/26/11 482/595/11
f 3/3/12 484/598/12 483/596/12
f 474/586/13 82/99/13 7/9/13
f 308/378/14 482/595/14 21/26/14
f 4/4/15 15/19/15 5/7/15
f 475/587/16 7/9/16 8/10/16
f 7/9/17 82/99/17 22/27/17
f 308/378/18 21/26/18 36/44/18
f 14/17/19 30/37/19 15/19/19
f 7/9/20 23/28/20 8/10/20
f 15/20/21 31/39/21 16/21/21
f 8/10/22 24/29/22 9/11/22
f 17/22/23 31/39/23 32/40/23
f 9/11/24 25/30/24 10/12/24
f 17/22/25 33/41/25 18/23/25
f 10/12/26 26/31/26 11/13/26
f 19/24/27 33/41/27 34/42/27
f 11/13/28 27/32/28 12/14/28
f 19/24/29 35/43/29 20/25/29
f 12/15/30 28/34/30 13/16/30
f 21/26/31 35/43/31 36/44/31
f 13/16/32 485/600/32 484/598/32
f 25/30/33 41/49/33 26/31/33
f 33/41/34 49/60/34 34/42/34
f 26/31/35 42/50/35 27/32/35
f 34/42/36 50/61/36 35/43/36
f 28/34/37 42/51/37 43/52/37
f 35/43/38 51/62/38 36/44/38
f 28/34/39 486/602/39 485/600/39
f 22/27/40 82/99/40 37/45/40
f 308/378/41 36/44/41 51/62/41
f 29/35/42 45/55/42 30/37/42
f 22/27/43 38/46/43 23/28/43
f 30/38/44 46/57/44 31/39/44
f 23/28/45 39/47/45 24/29/45
f 31/39/46 47/58/46 32/40/46
f 24/29/47 40/48/47 25/30/47
f 33/41/48 47/58/48 48/59/48
f 44/53/49 60/73/49 45/55/49
f 37/45/50 53/64/50 38/46/50
f 45/56/51 61/75/51 46/57/51
f 38/46/52 54/65/52 39/47/52
f 47/58/53 61/75/53 62/76/53
f 39/47/54 55/66/54 40/48/54
f 47/58/55 63/77/55 48/59/55
f 41/49/56 55/66/56 56/67/56
f 49/60/57 63/77/57 64/78/57
f 41/49/58 57/68/58 42/50/58
f 49/60/59 65/79/59 50/61/59
f 43/52/60 57/69/60 58/70/60
f 51/62/61 65/79/61 66/80/61
f 43/52/62 487/604/62 486/602/62
f 37/45/63 82/99/63 52/63/63
f 308/378/64 51/62/64 66/80/64
f 64/78/65 78/95/65 79/96/65
f 56/67/66 72/86/66 57/68/66
f 64/78/67 80/97/67 65/79/67
f 58/70/68 72/87/68 73/88/68
f 65/79/69 81/98/69 66/80/69
f 487/604/70 73/88/70 488/606/70
f 52/63/71 82/99/71 67/81/71
f 308/378/72 66/80/72 81/98/72
f 59/71/73 75/91/73 60/73/73
f 52/63/74 68/82/74 53/64/74
f 60/74/75 76/93/75 61/75/75
f 54/65/76 68/82/76 69/83/76
f 62/76/77 76/93/77 77/94/77
f 54/65/78 70/84/78 55/66/78
f 62/76/79 78/95/79 63/77/79
f 56/67/80 70/84/80 71/85/80
f 75/92/81 92/112/81 76/93/81
f 69/83/82 84/101/82 85/102/82
f 77/94/83 92/112/83 93/113/83
f 69/83/84 86/103/84 70/84/84
f 77/94/85 94/114/85 78/95/85
f 71/85/86 86/103/86 87/104/86
f 79/96/87 94/114/87 95/115/87
f 71/85/88 88/105/88 72/86/88
f 80/97/89 95/115/89 96/116/89
f 73/88/90 88/106/90 89/107/90
f 81/98/91 96/116/91 97/117/91
f 73/88/92 489/608/92 488/606/92
f 67/81/93 82/99/93 83/100/93
f 308/378/94 81/98/94 97/117/94
f 74/89/95 91/110/95 75/91/95
f 67/81/96 84/101/96 68/82/96
f 95/115/97 111/138/97 96/116/97
f 89/107/98 103/123/98 104/126/98
f 96/116/99 112/139/99 97/117/99
f 489/608/100 104/126/100 490/610/100
f 83/100/101 82/99/101 98/118/101
f 308/378/102 97/117/102 112/139/102
f 90/108/103 106/132/103 91/110/103
f 84/101/104 98/118/104 99/119/104
f 91/111/105 107/134/105 92/112/105
f 85/102/106 99/119/106 100/120/106
f 93/113/107 107/134/107 108/135/107
f 85/102/108 101/121/108 86/103/108
f 93/113/109 109/136/109 94/114/109
f 87/104/110 101/121/110 102/122/110
f 95/115/111 109/136/111 110/137/111
f 87/104/112 103/124/112 88/105/112
f 99/119/113 115/142/113 100/120/113
f 108/135/114 122/152/114 123/153/114
f 100/120/115 116/143/115 101/121/115
f 108/135/116 124/154/116 109/136/116
f 102/122/117 116/143/117 117/144/117
f 110/137/118 124/154/118 125/155/118
f 102/122/119 118/145/119 103/124/119
f 110/137/120 126/156/120 111/138/120
f 104/127/121 118/146/121 119/147/121
f 111/138/122 127/157/122 112/139/122
f 490/611/123 119/147/123 491/613/123
f 98/118/124 82/99/124 113/140/124
f 308/378/125 112/139/125 127/157/125
f 105/129/126 121/150/126 106/131/126
f 99/119/127 113/140/127 114/141/127
f 106/133/128 122/152/128 107/134/128
f 119/147/129 133/164/129 134/165/129
f 126/156/130 142/175/130 127/157/130
f 491/613/131 134/165/131 492/615/131
f 113/140/132 82/99/132 128/158/132
f 308/378/133 127/157/133 142/175/133
f 120/148/134 136/168/134 121/150/134
f 113/140/135 129/159/135 114/141/135
f 121/151/136 137/170/136 122/152/136
f 114/141/137 130/160/137 115/142/137
f 123/153/138 137/170/138 138/171/138
f 115/142/139 131/161/139 116/143/139
f 123/153/140 139/172/140 124/154/140
f 117/144/141 131/161/141 132/162/141
f 125/155/142 139/172/142 140/173/142
f 117/144/143 133/163/143 118/145/143
f 125/155/144 141/174/144 126/156/144
f 138/171/145 152/188/145 153/189/145
f 130/160/146 146/179/146 131/161/146
f 138/171/147 154/190/147 139/172/147
f 132/162/148 146/179/148 147/180/148
f 140/173/149 154/190/149 155/191/149
f 132/162/150 148/181/150 133/163/150
f 140/173/151 156/192/151 141/174/151
f 134/165/152 148/182/152 149/183/152
f 141/174/153 157/193/153 142/175/153
f 492/615/154 149/183/154 493/617/154
f 128/158/155 82/99/155 143/176/155
f 308/378/156 142/175/156 157/193/156
f 135/166/157 151/186/157 136/168/157
f 128/158/158 144/177/158 129/159/158
f 136/169/159 152/188/159 137/170/159
f 129/159/160 145/178/160 130/160/160
f 157/193/161 171/210/161 172/211/161
f 493/617/162 164/201/162 494/619/162
f 143/176/163 82/99/163 158/194/163
f 308/378/164 157/193/164 172/211/164
f 150/184/165 166/204/165 151/186/165
f 143/176/166 159/195/166 144/177/166
f 151/187/167 167/206/167 152/188/167
f 144/177/168 160/196/168 145/178/168
f 153/189/169 167/206/169 168/207/169
f 145/178/170 161/197/170 146/179/170
f 153/189/171 169/208/171 154/190/171
f 147/180/172 161/197/172 162/198/172
f 155/191/173 169/208/173 170/209/173
f 147/180/174 163/199/174 148/181/174
f 155/191/175 171/210/175 156/192/175
f 149/183/176 163/200/176 164/201/176
f 160/196/177 176/215/177 161/197/177
f 168/207/178 184/226/178 169/208/178
f 162/198/179 176/215/179 177/216/179
f 170/209/180 184/226/180 185/227/180
f 162/198/181 178/217/181 163/199/181
f 170/209/182 186/228/182 171/210/182
f 164/201/183 178/218/183 179/219/183
f 172/211/184 186/228/184 187/229/184
f 494/619/185 179/219/185 495/621/185
f 158/194/186 82/99/186 173/212/186
f 308/378/187 172/211/187 187/229/187
f 165/202/188 181/222/188 166/204/188
f 158/194/189 174/213/189 159/195/189
f 166/205/190 182/224/190 167/206/190
f 159/195/191 175/214/191 160/196/191
f 168/207/192 182/224/192 183/225/192
f 495/621/193 194/237/193 496/623/193
f 173/212/194 82/99/194 188/230/194
f 308/378/195 187/229/195 202/247/195
f 180/220/196 196/240/196 181/222/196
f 173/212/197 189/231/197 174/213/197
f 181/223/198 197/242/198 182/224/198
f 174/213/199 190/232/199 175/214/199
f 183/225/200 197/242/200 198/243/200
f 175/214/201 191/233/201 176/215/201
f 183/225/202 199/244/202 184/226/202
f 177/216/203 191/233/203 192/234/203
f 185/227/204 199/244/204 200/245/204
f 177/216/205 193/235/205 178/217/205
f 186/228/206 200/245/206 201/246/206
f 179/219/207 193/236/207 194/237/207
f 186/228/208 202/247/208 187/229/208
f 198/243/209 214/264/209 199/244/209
f 192/234/210 206/251/210 207/252/210
f 200/245/211 214/264/211 215/265/211
f 192/234/212 208/253/212 193/235/212
f 200/245/213 216/266/213 201/246/213
f 194/237/214 208/254/214 209/255/214
f 201/246/215 217/267/215 202/247/215
f 496/623/216 209/255/216 497/625/216
f 188/230/217 82/99/217 203/248/217
f 308/378/218 202/247/218 217/267/218
f 195/238/219 211/260/219 196/240/219
f 188/230/220 204/249/220 189/231/220
f 196/241/221 212/262/221 197/242/221
f 189/231/222 205/250/222 190/232/222
f 198/243/223 212/262/223 213/263/223
f 190/232/224 206/251/224 191/233/224
f 308/378/225 217/267/225 232/287/225
f 210/257/226 226/280/226 211/259/226
f 204/249/227 218/268/227 219/269/227
f 211/261/228 227/282/228 212/262/228
f 204/249/229 220/270/229 205/250/229
f 213/263/230 227/282/230 228/283/230
f 205/250/231 221/271/231 206/251/231
f 213/263/232 229/284/232 214/264/232
f 207/252/233 221/271/233 222/272/233
f 215/265/234 229/284/234 230/285/234
f 207/252/235 223/273/235 208/253/235
f 215/265/236 231/286/236 216/266/236
f 209/255/237 223/274/237 224/276/237
f 217/267/238 231/286/238 232/287/238
f 497/625/239 224/276/239 498/627/239
f 203/248/240 82/99/240 218/268/240
f 230/285/241 244/302/241 245/303/241
f 222/272/242 238/293/242 223/273/242
f 230/285/243 246/304/243 231/286/243
f 224/277/244 238/294/244 239/295/244
f 232/287/245 246/304/245 247/305/245
f 498/628/246 239/295/246 499/630/246
f 218/268/247 82/99/247 233/288/247
f 308/378/248 232/287/248 247/305/248
f 225/278/249 241/298/249 226/280/249
f 218/268/250 234/289/250 219/269/250
f 226/281/251 242/300/251 227/282/251
f 220/270/252 234/289/252 235/290/252
f 228/283/253 242/300/253 243/301/253
f 220/270/254 236/291/254 221/271/254
f 228/283/255 244/302/255 229/284/255
f 221/271/256 237/292/256 222/272/256
f 233/288/257 249/307/257 234/289/257
f 241/299/258 257/318/258 242/300/258
f 234/289/259 250/308/259 235/290/259
f 243/301/260 257/318/260 258/319/260
f 235/290/261 251/309/261 236/291/261
f 243/301/262 259/320/262 244/302/262
f 237/292/263 251/309/263 252/310/263
f 245/303/264 259/320/264 260/321/264
f 237/292/265 253/311/265 238/293/265
f 245/303/266 261/322/266 246/304/266
f 239/295/267 253/312/267 254/313/267
f 246/304/268 262/323/268 247/305/268
f 499/630/269 254/313/269 500/632/269
f 233/288/270 82/99/270 248/306/270
f 308/378/271 247/305/271 262/323/271
f 240/296/272 256/316/272 241/298/272
f 252/310/273 268/329/273 253/311/273
f 260/321/274 276/340/274 261/322/274
f 254/313/275 268/330/275 269/331/275
f 261/322/276 277/341/276 262/323/276
f 500/632/277 269/331/277 501/634/277
f 248/306/278 82/99/278 263/324/278
f 308/378/279 262/323/279 277/341/279
f 255/314/280 271/334/280 256/316/280
f 248/306/281 264/325/281 249/307/281
f 256/317/282 272/336/282 257/318/282
f 249/307/283 265/326/283 250/308/283
f 258/319/284 272/336/284 273/337/284
f 250/308/285 266/327/285 251/309/285
f 258/319/286 274/338/286 259/320/286
f 252/310/287 266/327/287 267/328/287
f 260/321/288 274/338/288 275/339/288
f 271/335/289 287/354/289 272/336/289
f 264/325/290 280/344/290 265/326/290
f 273/337/291 287/354/291 288/355/291
f 265/326/292 281/345/292 266/327/292
f 273/337/293 289/356/293 274/338/293
f 267/328/294 281/345/294 282/346/294
f 275/339/295 289/356/295 290/357/295
f 267/328/296 283/347/296 268/329/296
f 275/339/297 291/358/297 276/340/297
f 269/331/298 283/348/298 284/349/298
f 276/340/299 292/359/299 277/341/299
f 501/634/300 284/349/300 502/636/300
f 263/324/301 82/99/301 278/342/301
f 308/378/302 277/341/302 292/359/302
f 270/332/303 286/352/303 271/334/303
f 263/324/304 279/343/304 264/325/304
f 290/357/305 306/376/305 291/358/305
f 284/349/306 298/366/306 299/367/306
f 292/359/307 306/376/307 307/377/307
f 502/636/308 299/367/308 503/638/308
f 278/342/309 82/99/309 293/360/309
f 308/378/310 292/359/310 307/377/310
f 285/350/311 301/370/311 286/352/311
f 278/342/312 294/361/312 279/343/312
f 286/353/313 302/372/313 287/354/313
f 280/344/314 294/361/314 295/362/314
f 288/355/315 302/372/315 303/373/315
f 280/344/316 296/363/316 281/345/316
f 288/355/317 304/374/317 289/356/317
f 281/345/318 297/364/318 282/346/318
f 290/357/319 304/374/319 305/375/319
f 282/346/320 298/365/320 283/347/320
f 295/362/321 310/380/321 311/381/321
f 303/373/322 318/391/322 319/392/322
f 295/362/323 312/382/323 296/363/323
f 303/373/324 320/393/324 304/374/324
f 297/364/325 312/382/325 313/383/325
f 305/375/326 320/393/326 321/394/326
f 297/364/327 314/384/327 298/365/327
f 305/375/328 322/395/328 306/376/328
f 299/367/329 314/385/329 315/386/329
f 306/376/330 323/396/330 307/377/330
f 503/638/331 315/386/331 504/640/331
f 293/360/332 82/99/332 309/379/332
f 308/378/333 307/377/333 323/396/333
f 300/368/334 317/389/334 301/370/334
f 293/360/335 310/380/335 294/361/335
f 301/371/336 318/391/336 302/372/336
f 315/386/337 329/402/337 330/405/337
f 323/396/338 337/415/338 338/416/338
f 504/640/339 330/405/339 505/642/339
f 309/379/340 82/99/340 324/397/340
f 308/378/341 323/396/341 338/416/341
f 316/387/342 332/409/342 317/389/342
f 309/379/343 325/398/343 310/380/343
f 317/390/344 333/411/344 318/391/344
f 310/380/345 326/399/345 311/381/345
f 319/392/346 333/411/346 334/412/346
f 311/381/347 327/400/347 312/382/347
f 319/392/348 335/413/348 320/393/348
f 313/383/349 327/400/349 328/401/349
f 321/394/350 335/413/350 336/414/350
f 313/383/351 329/403/351 314/384/351
f 321/394/352 337/415/352 322/395/352
f 334/412/353 348/431/353 349/432/353
f 326/399/354 342/420/354 327/400/354
f 334/412/355 350/433/355 335/413/355
f 328/401/356 342/420/356 343/421/356
f 336/414/357 350/433/357 351/434/357
f 328/401/358 344/422/358 329/403/358
f 336/414/359 352/435/359 337/415/359
f 330/406/360 344/423/360 345/424/360
f 337/415/361 353/436/361 338/416/361
f 505/643/362 345/424/362 506/645/362
f 324/397/363 82/99/363 339/417/363
f 308/378/364 338/416/364 353/436/364
f 331/407/365 347/429/365 332/409/365
f 325/398/366 339/417/366 340/418/366
f 332/410/367 348/431/367 333/411/367
f 325/398/368 341/419/368 326/399/368
f 352/435/369 368/454/369 353/436/369
f 506/645/370 360/444/370 507/647/370
f 339/417/371 82/99/371 354/437/371
f 308/378/372 353/436/372 368/454/372
f 346/426/373 362/447/373 347/428/373
f 339/417/374 355/438/374 340/418/374
f 347/430/375 363/449/375 348/431/375
f 340/418/376 356/439/376 341/419/376
f 349/432/377 363/449/377 364/450/377
f 341/419/378 357/440/378 342/420/378
f 349/432/379 365/451/379 350/433/379
f 343/421/380 357/440/380 358/441/380
f 351/434/381 365/451/381 366/452/381
f 343/421/382 359/442/382 344/422/382
f 351/434/383 367/453/383 352/435/383
f 345/424/384 359/443/384 360/444/384
f 364/450/385 380/469/385 365/451/385
f 358/441/386 372/458/386 373/459/386
f 366/452/387 380/469/387 381/470/387
f 358/441/388 374/460/388 359/442/388
f 366/452/389 382/471/389 367/453/389
f 360/444/390 374/461/390 375/462/390
f 367/453/391 383/472/391 368/454/391
f 507/647/392 375/462/392 508/649/392
f 354/437/393 82/99/393 369/455/393
f 308/378/394 368/454/394 383/472/394
f 361/445/395 377/465/395 362/447/395
f 354/437/396 370/456/396 355/438/396
f 362/448/397 378/467/397 363/449/397
f 356/439/398 370/456/398 371/457/398
f 364/450/399 378/467/399 379/468/399
f 356/439/400 372/458/400 357/440/400
f 369/455/401 82/99/401 384/473/401
f 308/378/402 383/472/402 398/490/402
f 376/463/403 392/483/403 377/465/403
f 369/455/404 385/474/404 370/456/404
f 377/466/405 393/485/405 378/467/405
f 370/456/406 386/475/406 371/457/406
f 379/468/407 393/485/407 394/486/407
f 371/457/408 387/476/408 372/458/408
f 379/468/409 395/487/409 380/469/409
f 373/459/410 387/476/410 388/477/410
f 381/470/411 395/487/411 396/488/411
f 373/459/412 389/478/412 374/460/412
f 381/470/413 397/489/413 382/471/413
f 375/462/414 389/479/414 390/480/414
f 382/471/415 398/490/415 383/472/415
f 508/649/416 390/480/416 509/651/416
f 388/477/417 402/494/417 403/495/417
f 396/488/418 410/505/418 411/506/418
f 388/477/419 404/496/419 389/478/419
f 396/488/420 412/507/420 397/489/420
f 390/480/421 404/497/421 405/498/421
f 398/490/422 412/507/422 413/508/422
f 509/651/423 405/498/423 510/653/423
f 384/473/424 82/99/424 399/491/424
f 308/378/425 398/490/425 413/508/425
f 391/481/426 407/501/426 392/483/426
f 384/473/427 400/492/427 385/474/427
f 392/484/428 408/503/428 393/485/428
f 385/474/429 401/493/429 386/475/429
f 394/486/430 408/503/430 409/504/430
f 386/475/431 402/494/431 387/476/431
f 394/486/432 410/505/432 395/487/432
f 406/499/433 422/519/433 407/501/433
f 399/491/434 415/510/434 400/492/434
f 407/502/435 423/521/435 408/503/435
f 401/493/436 415/510/436 416/511/436
f 409/504/437 423/521/437 424/522/437
f 401/493/438 417/512/438 402/494/438
f 409/504/439 425/523/439 410/505/439
f 403/495/440 417/512/440 418/513/440
f 411/506/441 425/523/441 426/524/441
f 403/495/442 419/514/442 404/496/442
f 411/506/443 427/525/443 412/507/443
f 405/498/444 419/515/444 420/516/444
f 412/507/445 428/526/445 413/508/445
f 510/653/446 420/516/446 511/655/446
f 399/491/447 82/99/447 414/509/447
f 308/378/448 413/508/448 428/526/448
f 426/524/449 440/541/449 441/542/449
f 418/513/450 434/532/450 419/514/450
f 426/524/451 442/543/451 427/525/451
f 420/516/452 434/533/452 435/534/452
f 427/525/453 443/544/453 428/526/453
f 511/655/454 435/534/454 512/657/454
f 414/509/455 82/99/455 429/527/455
f 308/378/456 428/526/456 443/544/456
f 421/517/457 437/537/457 422/519/457
f 414/509/458 430/528/458 415/510/458
f 422/520/459 438/539/459 423/521/459
f 416/511/460 430/528/460 431/529/460
f 424/522/461 438/539/461 439/540/461
f 416/511/462 432/530/462 417/512/462
f 424/522/463 440/541/463 425/523/463
f 418/513/464 432/530/464 433/531/464
f 429/527/465 445/546/465 430/528/465
f 437/538/466 453/560/466 438/539/466
f 431/529/467 445/546/467 446/547/467
f 439/540/468 453/560/468 454/561/468
f 431/529/469 447/548/469 432/530/469
f 439/540/470 455/562/470 440/541/470
f 433/531/471 447/548/471 448/549/471
f 441/542/472 455/562/472 456/563/472
f 433/531/473 449/550/473 434/532/473
f 441/542/474 457/564/474 442/543/474
f 435/534/475 449/551/475 450/552/475
f 442/543/476 458/565/476 443/544/476
f 512/657/477 450/552/477 513/659/477
f 429/527/478 82/99/478 444/545/478
f 308/378/479 443/544/479 458/565/479
f 436/535/480 452/558/480 437/537/480
f 448/549/481 464/572/481 449/550/481
f 456/563/482 472/584/482 457/564/482
f 450/552/483 464/571/483 465/574/483
f 458/565/484 472/584/484 473/585/484
f 513/660/485 465/575/485 514/662/485
f 444/545/486 82/99/486 459/566/486
f 308/378/487 458/565/487 473/585/487
f 451/555/488 467/578/488 452/557/488
f 445/546/489 459/566/489 460/567/489
f 452/559/490 468/580/490 453/560/490
f 445/546/491 461/568/491 446/547/491
f 454/561/492 468/580/492 469/581/492
f 446/547/493 462/569/493 447/548/493
f 454/561/494 470/582/494 455/562/494
f 448/549/495 462/569/495 463/570/495
f 456/563/496 470/582/496 471/583/496
f 467/579/497 478/591/497 468/580/497
f 461/568/498 475/587/498 1/1/498
f 468/580/499 6/8/499 469/581/499
f 462/569/500 1/1/500 476/588/500
f 469/581/501 479/592/501 470/582/501
f 463/570/502 476/588/502 2/2/502
f 471/583/503 479/592/503 480/593/503
f 464/572/504 2/2/504 477/589/504
f 471/583/505 481/594/505 472/584/505
f 465/575/506 477/590/506 3/3/506
f 472/584/507 482/595/507 473/585/507
f 514/662/508 3/3/508 483/596/508
f 459/566/509 82/99/509 474/586/509
f 308/378/510 473/585/510 482/595/510
f 466/576/511 5/7/511 467/578/511
f 459/566/512 475/587/512 460/567/512
f 300/369/513 534/704/513 535/707/513
f 240/297/514 532/700/514 255/315/514
f 503/639/515 566/773/515 502/637/515
f 120/149/516 522/679/516 523/682/516
f 504/641/517 567/774/517 503/639/517
f 29/36/518 516/666/518 517/669/518
f 505/644/519 568/776/519 504/641/519
f 150/185/520 526/688/520 165/203/520
f 506/646/521 569/778/521 505/644/521
f 406/500/522 541/719/522 542/721/522
f 507/648/523 570/781/523 506/646/523
f 255/315/524 533/703/524 270/333/524
f 508/650/525 571/783/525 507/648/525
f 74/90/526 521/676/526 90/109/526
f 509/652/527 572/785/527 508/650/527
f 135/167/528 523/682/528 524/684/528
f 510/654/529 573/787/529 509/652/529
f 406/500/530 543/724/530 421/518/530
f 484/599/531 547/733/531 483/597/531
f 376/464/532 539/715/532 540/717/532
f 511/656/533 574/789/533 510/654/533
f 485/601/534 548/734/534 484/599/534
f 512/658/535 575/791/535 511/656/535
f 486/603/536 549/736/536 485/601/536
f 225/279/537 531/698/537 240/297/537
f 513/661/538 576/793/538 512/658/538
f 487/605/539 550/738/539 486/603/539
f 105/130/540 521/676/540 522/679/540
f 391/482/541 540/717/541 541/719/541
f 514/663/542 577/795/542 513/661/542
f 346/427/543 537/711/543 538/714/543
f 488/607/544 551/740/544 487/605/544
f 546/730/545 547/732/545 515/664/545
f 545/728/546 578/799/546 546/730/546
f 544/725/547 577/797/547 545/727/547
f 543/723/548 576/794/548 544/725/548
f 542/722/549 575/792/549 543/723/549
f 541/720/550 574/790/550 542/722/550
f 540/718/551 573/788/551 541/720/551
f 539/716/552 572/786/552 540/718/552
f 538/713/553 571/784/553 539/716/553
f 537/712/554 570/782/554 538/713/554
f 536/708/555 569/780/555 537/710/555
f 535/706/556 568/777/556 536/708/556
f 534/705/557 567/775/557 535/706/557
f 533/702/558 566/772/558 534/705/558
f 532/701/559 565/770/559 533/702/559
f 531/699/560 564/768/560 532/701/560
f 530/697/561 563/766/561 531/699/561
f 529/693/562 562/764/562 530/695/562
f 528/691/563 561/761/563 529/693/563
f 527/689/564 560/759/564 528/691/564
f 526/687/565 559/757/565 527/689/565
f 525/685/566 558/755/566 526/687/566
f 556/751/567 525/685/567 524/683/567
f 555/749/568 524/683/568 523/681/568
f 522/680/569 555/749/569 523/681/569
f 521/677/570 554/747/570 522/678/570
f 520/675/571 553/744/571 521/677/571
f 519/672/572 552/742/572 520/675/572
f 518/670/573 551/741/573 519/672/573
f 549/737/574 518/670/574 517/668/574
f 548/735/575 517/668/575 516/667/575
f 547/732/576 516/667/576 515/664/576
f 502/637/577 565/771/577 501/635/577
f 180/221/578 528/692/578 195/239/578
f 436/536/579 543/724/579 544/726/579
f 501/635/580 564/769/580 500/633/580
f 44/54/581 519/673/581 59/72/581
f 500/633/582 563/767/582 499/631/582
f 135/167/583 525/686/583 150/185/583
f 499/631/584 562/765/584 498/629/584
f 285/351/585 533/703/585 534/704/585
f 498/629/586 561/762/586 497/626/586
f 331/408/587 536/709/587 537/711/587
f 497/626/588 560/760/588 496/624/588
f 466/577/589 545/729/589 546/731/589
f 44/54/590 517/669/590 518/671/590
f 14/18/591 515/665/591 516/666/591
f 496/624/592 559/758/592 495/622/592
f 466/577/593 515/665/593 4/5/593
f 494/620/594 559/758/594 558/756/594
f 165/203/595 527/690/595 180/221/595
f 361/446/596 538/714/596 539/715/596
f 225/279/597 529/694/597 530/696/597
f 493/618/598 558/756/598 557/754/598
f 493/618/599 556/752/599 492/616/599
f 316/388/600 535/707/600 536/709/600
f 492/616/601 555/750/601 491/614/601
f 74/90/602 519/673/602 520/674/602
f 451/556/603 544/726/603 545/729/603
f 491/614/604 554/748/604 490/612/604
f 490/612/605 553/745/605 489/609/605
f 195/239/606 529/694/606 210/258/606
f 489/609/607 552/743/607 488/607/607
f 514/663/608 547/733/608 578/798/608
f 5/6/1 15/20/1 16/21/1
f 1/1/2 475/587/2 8/10/2
f 478/591/3 16/21/3 17/22/3
f 476/588/4 1/1/4 9/11/4
f 6/8/5 17/22/5 18/23/5
f 2/2/6 476/588/6 10/12/6
f 479/592/7 18/23/7 19/24/7
f 477/589/8 2/2/8 11/13/8
f 480/593/9 19/24/9 20/25/9
f 477/590/10 12/15/10 13/16/10
f 481/594/11 20/25/11 21/26/11
f 3/3/12 13/16/12 484/598/12
f 4/4/15 14/17/15 15/19/15
f 475/587/16 474/586/16 7/9/16
f 14/17/19 29/35/19 30/37/19
f 7/9/20 22/27/20 23/28/20
f 15/20/21 30/38/21 31/39/21
f 8/10/22 23/28/22 24/29/22
f 17/22/23 16/21/23 31/39/23
f 9/11/24 24/29/24 25/30/24
f 17/22/25 32/40/25 33/41/25
f 10/12/26 25/30/26 26/31/26
f 19/24/27 18/23/27 33/41/27
f 11/13/28 26/31/28 27/32/28
f 19/24/29 34/42/29 35/43/29
f 12/15/30 27/33/30 28/34/30
f 21/26/31 20/25/31 35/43/31
f 13/16/32 28/34/32 485/600/32
f 25/30/33 40/48/33 41/49/33
f 33/41/34 48/59/34 49/60/34
f 26/31/35 41/49/35 42/50/35
f 34/42/36 49/60/36 50/61/36
f 28/34/37 27/33/37 42/51/37
f 35/43/38 50/61/38 51/62/38
f 28/34/39 43/52/39 486/602/39
f 29/35/609 44/53/609 45/55/609
f 22/27/43 37/45/43 38/46/43
f 30/38/44 45/56/44 46/57/44
f 23/28/45 38/46/45 39/47/45
f 31/39/46 46/57/46 47/58/46
f 24/29/47 39/47/47 40/48/47
f 33/41/48 32/40/48 47/58/48
f 44/53/610 59/71/610 60/73/610
f 37/45/50 52/63/50 53/64/50
f 45/56/51 60/74/51 61/75/51
f 38/46/52 53/64/52 54/65/52
f 47/58/53 46/57/53 61/75/53
f 39/47/54 54/65/54 55/66/54
f 47/58/55 62/76/55 63/77/55
f 41/49/56 40/48/56 55/66/56
f 49/60/57 48/59/57 63/77/57
f 41/49/58 56/67/58 57/68/58
f 49/60/59 64/78/59 65/79/59
f 43/52/60 42/51/60 57/69/60
f 51/62/61 50/61/61 65/79/61
f 43/52/62 58/70/62 487/604/62
f 64/78/65 63/77/65 78/95/65
f 56/67/66 71/85/66 72/86/66
f 64/78/67 79/96/67 80/97/67
f 58/70/68 57/69/68 72/87/68
f 65/79/69 80/97/69 81/98/69
f 487/604/70 58/70/70 73/88/70
f 59/71/611 74/89/611 75/91/611
f 52/63/74 67/81/74 68/82/74
f 60/74/75 75/92/75 76/93/75
f 54/65/76 53/64/76 68/82/76
f 62/76/77 61/75/77 76/93/77
f 54/65/78 69/83/78 70/84/78
f 62/76/79 77/94/79 78/95/79
f 56/67/80 55/66/80 70/84/80
f 75/92/81 91/111/81 92/112/81
f 69/83/82 68/82/82 84/101/82
f 77/94/83 76/93/83 92/112/83
f 69/83/84 85/102/84 86/103/84
f 77/94/85 93/113/85 94/114/85
f 71/85/86 70/84/86 86/103/86
f 79/96/87 78/95/87 94/114/87
f 71/85/88 87/104/88 88/105/88
f 80/97/89 79/96/89 95/115/89
f 73/88/90 72/87/90 88/106/90
f 81/98/91 80/97/91 96/116/91
f 73/88/612 89/107/612 489/608/612
f 74/89/95 90/108/95 91/110/95
f 67/81/96 83/100/96 84/101/96
f 95/115/97 110/137/97 111/138/97
f 89/107/98 88/106/98 103/123/98
f 96/116/99 111/138/99 112/139/99
f 489/608/100 89/107/100 104/126/100
f 90/108/103 105/128/103 106/132/103
f 84/101/104 83/100/104 98/118/104
f 91/111/105 106/133/105 107/134/105
f 85/102/106 84/101/106 99/119/106
f 93/113/107 92/112/107 107/134/107
f 85/102/108 100/120/108 101/121/108
f 93/113/109 108/135/109 109/136/109
f 87/104/110 86/103/110 101/121/110
f 95/115/111 94/114/111 109/136/111
f 87/104/112 102/122/112 103/124/112
f 99/119/113 114/141/113 115/142/113
f 108/135/114 107/134/114 122/152/114
f 100/120/115 115/142/115 116/143/115
f 108/135/116 123/153/116 124/154/116
f 102/122/117 101/121/117 116/143/117
f 110/137/118 109/136/118 124/154/118
f 102/122/119 117/144/119 118/145/119
f 110/137/120 125/155/120 126/156/120
f 104/127/121 103/125/121 118/146/121
f 111/138/122 126/156/122 127/157/122
f 490/611/123 104/127/123 119/147/123
f 105/129/126 120/148/126 121/150/126
f 99/119/127 98/118/127 113/140/127
f 106/133/128 121/151/128 122/152/128
f 119/147/129 118/146/129 133/164/129
f 126/156/130 141/174/130 142/175/130
f 491/613/131 119/147/131 134/165/131
f 120/148/134 135/166/134 136/168/134
f 113/140/135 128/158/135 129/159/135
f 121/151/136 136/169/136 137/170/136
f 114/141/137 129/159/137 130/160/137
f 123/153/138 122/152/138 137/170/138
f 115/142/139 130/160/139 131/161/139
f 123/153/140 138/171/140 139/172/140
f 117/144/141 116/143/141 131/161/141
f 125/155/142 124/154/142 139/172/142
f 117/144/143 132/162/143 133/163/143
f 125/155/144 140/173/144 141/174/144
f 138/171/145 137/170/145 152/188/145
f 130/160/146 145/178/146 146/179/146
f 138/171/147 153/189/147 154/190/147
f 132/162/148 131/161/148 146/179/148
f 140/173/149 139/172/149 154/190/149
f 132/162/150 147/180/150 148/181/150
f 140/173/151 155/191/151 156/192/151
f 134/165/152 133/164/152 148/182/152
f 141/174/153 156/192/153 157/193/153
f 492/615/154 134/165/154 149/183/154
f 135/166/157 150/184/157 151/186/157
f 128/158/158 143/176/158 144/177/158
f 136/169/159 151/187/159 152/188/159
f 129/159/160 144/177/160 145/178/160
f 157/193/161 156/192/161 171/210/161
f 493/617/162 149/183/162 164/201/162
f 150/184/165 165/202/165 166/204/165
f 143/176/166 158/194/166 159/195/166
f 151/187/167 166/205/167 167/206/167
f 144/177/168 159/195/168 160/196/168
f 153/189/169 152/188/169 167/206/169
f 145/178/170 160/196/170 161/197/170
f 153/189/171 168/207/171 169/208/171
f 147/180/172 146/179/172 161/197/172
f 155/191/173 154/190/173 169/208/173
f 147/180/174 162/198/174 163/199/174
f 155/191/175 170/209/175 171/210/175
f 149/183/176 148/182/176 163/200/176
f 160/196/177 175/214/177 176/215/177
f 168/207/178 183/225/178 184/226/178
f 162/198/179 161/197/179 176/215/179
f 170/209/180 169/208/180 184/226/180
f 162/198/181 177/216/181 178/217/181
f 170/209/182 185/227/182 186/228/182
f 164/201/183 163/200/183 178/218/183
f 172/211/184 171/210/184 186/228/184
f 494/619/185 164/201/185 179/219/185
f 165/202/188 180/220/188 181/222/188
f 158/194/189 173/212/189 174/213/189
f 166/205/190 181/223/190 182/224/190
f 159/195/191 174/213/191 175/214/191
f 168/207/192 167/206/192 182/224/192
f 495/621/193 179/219/193 194/237/193
f 180/220/196 195/238/196 196/240/196
f 173/212/197 188/230/197 189/231/197
f 181/223/198 196/241/198 197/242/198
f 174/213/199 189/231/199 190/232/199
f 183/225/200 182/224/200 197/242/200
f 175/214/201 190/232/201 191/233/201
f 183/225/202 198/243/202 199/244/202
f 177/216/203 176/215/203 191/233/203
f 185/227/204 184/226/204 199/244/204
f 177/216/205 192/234/205 193/235/205
f 186/228/206 185/227/206 200/245/206
f 179/219/207 178/218/207 193/236/207
f 186/228/208 201/246/208 202/247/208
f 198/243/209 213/263/209 214/264/209
f 192/234/210 191/233/210 206/251/210
f 200/245/211 199/244/211 214/264/211
f 192/234/212 207/252/212 208/253/212
f 200/245/213 215/265/213 216/266/213
f 194/237/214 193/236/214 208/254/214
f 201/246/215 216/266/215 217/267/215
f 496/623/613 194/237/613 209/255/613
f 195/238/219 210/256/219 211/260/219
f 188/230/220 203/248/220 204/249/220
f 196/241/221 211/261/221 212/262/221
f 189/231/222 204/249/222 205/250/222
f 198/243/223 197/242/223 212/262/223
f 190/232/224 205/250/224 206/251/224
f 210/257/226 225/278/226 226/280/226
f 204/249/227 203/248/227 218/268/227
f 211/261/228 226/281/228 227/282/228
f 204/249/229 219/269/229 220/270/229
f 213/263/230 212/262/230 227/282/230
f 205/250/231 220/270/231 221/271/231
f 213/263/232 228/283/232 229/284/232
f 207/252/233 206/251/233 221/271/233
f 215/265/234 214/264/234 229/284/234
f 207/252/235 222/272/235 223/273/235
f 215/265/236 230/285/236 231/286/236
f 209/255/237 208/254/237 223/274/237
f 217/267/238 216/266/238 231/286/238
f 497/625/239 209/255/239 224/276/239
f 230/285/241 229/284/241 244/302/241
f 222/272/242 237/292/242 238/293/242
f 230/285/243 245/303/243 246/304/243
f 224/277/244 223/275/244 238/294/244
f 232/287/245 231/286/245 246/304/245
f 498/628/246 224/277/246 239/295/246
f 225/278/249 240/296/249 241/298/249
f 218/268/250 233/288/250 234/289/250
f 226/281/251 241/299/251 242/300/251
f 220/270/252 219/269/252 234/289/252
f 228/283/253 227/282/253 242/300/253
f 220/270/254 235/290/254 236/291/254
f 228/283/255 243/301/255 244/302/255
f 221/271/256 236/291/256 237/292/256
f 233/288/257 248/306/257 249/307/257
f 241/299/258 256/317/258 257/318/258
f 234/289/259 249/307/259 250/308/259
f 243/301/260 242/300/260 257/318/260
f 235/290/261 250/308/261 251/309/261
f 243/301/262 258/319/262 259/320/262
f 237/292/263 236/291/263 251/309/263
f 245/303/264 244/302/264 259/320/264
f 237/292/265 252/310/265 253/311/265
f 245/303/266 260/321/266 261/322/266
f 239/295/267 238/294/267 253/312/267
f 246/304/268 261/322/268 262/323/268
f 499/630/269 239/295/269 254/313/269
f 240/296/272 255/314/272 256/316/272
f 252/310/273 267/328/273 268/329/273
f 260/321/274 275/339/274 276/340/274
f 254/313/275 253/312/275 268/330/275
f 261/322/276 276/340/276 277/341/276
f 500/632/277 254/313/277 269/331/277
f 255/314/280 270/332/280 271/334/280
f 248/306/281 263/324/281 264/325/281
f 256/317/282 271/335/282 272/336/282
f 249/307/283 264/325/283 265/326/283
f 258/319/284 257/318/284 272/336/284
f 250/308/285 265/326/285 266/327/285
f 258/319/286 273/337/286 274/338/286
f 252/310/287 251/309/287 266/327/287
f 260/321/288 259/320/288 274/338/288
f 271/335/289 286/353/289 287/354/289
f 264/325/290 279/343/290 280/344/290
f 273/337/291 272/336/291 287/354/291
f 265/326/292 280/344/292 281/345/292
f 273/337/293 288/355/293 289/356/293
f 267/328/294 266/327/294 281/345/294
f 275/339/295 274/338/295 289/356/295
f 267/328/296 282/346/296 283/347/296
f 275/339/297 290/357/297 291/358/297
f 269/331/298 268/330/298 283/348/298
f 276/340/299 291/358/299 292/359/299
f 501/634/300 269/331/300 284/349/300
f 270/332/303 285/350/303 286/352/303
f 263/324/304 278/342/304 279/343/304
f 290/357/305 305/375/305 306/376/305
f 284/349/306 283/348/306 298/366/306
f 292/359/307 291/358/307 306/376/307
f 502/636/308 284/349/308 299/367/308
f 285/350/311 300/368/311 301/370/311
f 278/342/312 293/360/312 294/361/312
f 286/353/313 301/371/313 302/372/313
f 280/344/314 279/343/314 294/361/314
f 288/355/315 287/354/315 302/372/315
f 280/344/316 295/362/316 296/363/316
f 288/355/317 303/373/317 304/374/317
f 281/345/318 296/363/318 297/364/318
f 290/357/319 289/356/319 304/374/319
f 282/346/320 297/364/320 298/365/320
f 295/362/321 294/361/321 310/380/321
f 303/373/322 302/372/322 318/391/322
f 295/362/323 311/381/323 312/382/323
f 303/373/324 319/392/324 320/393/324
f 297/364/325 296/363/325 312/382/325
f 305/375/326 304/374/326 320/393/326
f 297/364/327 313/383/327 314/384/327
f 305/375/328 321/394/328 322/395/328
f 299/367/329 298/366/329 314/385/329
f 306/376/330 322/395/330 323/396/330
f 503/638/331 299/367/331 315/386/331
f 300/368/334 316/387/334 317/389/334
f 293/360/335 309/379/335 310/380/335
f 301/371/336 317/390/336 318/391/336
f 315/386/337 314/385/337 329/402/337
f 323/396/338 322/395/338 337/415/338
f 504/640/614 315/386/614 330/405/614
f 316/387/342 331/407/342 332/409/342
f 309/379/343 324/397/343 325/398/343
f 317/390/344 332/410/344 333/411/344
f 310/380/345 325/398/345 326/399/345
f 319/392/346 318/391/346 333/411/346
f 311/381/347 326/399/347 327/400/347
f 319/392/348 334/412/348 335/413/348
f 313/383/349 312/382/349 327/400/349
f 321/394/350 320/393/350 335/413/350
f 313/383/351 328/401/351 329/403/351
f 321/394/352 336/414/352 337/415/352
f 334/412/353 333/411/353 348/431/353
f 326/399/354 341/419/354 342/420/354
f 334/412/355 349/432/355 350/433/355
f 328/401/356 327/400/356 342/420/356
f 336/414/357 335/413/357 350/433/357
f 328/401/358 343/421/358 344/422/358
f 336/414/359 351/434/359 352/435/359
f 330/406/360 329/404/360 344/423/360
f 337/415/361 352/435/361 353/436/361
f 505/643/362 330/406/362 345/424/362
f 331/407/365 346/425/365 347/429/365
f 325/398/366 324/397/366 339/417/366
f 332/410/367 347/430/367 348/431/367
f 325/398/368 340/418/368 341/419/368
f 352/435/369 367/453/369 368/454/369
f 506/645/370 345/424/370 360/444/370
f 346/426/373 361/445/373 362/447/373
f 339/417/374 354/437/374 355/438/374
f 347/430/375 362/448/375 363/449/375
f 340/418/376 355/438/376 356/439/376
f 349/432/377 348/431/377 363/449/377
f 341/419/378 356/439/378 357/440/378
f 349/432/379 364/450/379 365/451/379
f 343/421/380 342/420/380 357/440/380
f 351/434/381 350/433/381 365/451/381
f 343/421/382 358/441/382 359/442/382
f 351/434/383 366/452/383 367/453/383
f 345/424/384 344/423/384 359/443/384
f 364/450/385 379/468/385 380/469/385
f 358/441/386 357/440/386 372/458/386
f 366/452/387 365/451/387 380/469/387
f 358/441/388 373/459/388 374/460/388
f 366/452/389 381/470/389 382/471/389
f 360/444/390 359/443/390 374/461/390
f 367/453/391 382/471/391 383/472/391
f 507/647/392 360/444/392 375/462/392
f 361/445/395 376/463/395 377/465/395
f 354/437/396 369/455/396 370/456/396
f 362/448/397 377/466/397 378/467/397
f 356/439/398 355/438/398 370/456/398
f 364/450/399 363/449/399 378/467/399
f 356/439/400 371/457/400 372/458/400
f 376/463/403 391/481/403 392/483/403
f 369/455/404 384/473/404 385/474/404
f 377/466/405 392/484/405 393/485/405
f 370/456/406 385/474/406 386/475/406
f 379/468/407 378/467/407 393/485/407
f 371/457/408 386/475/408 387/476/408
f 379/468/409 394/486/409 395/487/409
f 373/459/410 372/458/410 387/476/410
f 381/470/411 380/469/411 395/487/411
f 373/459/412 388/477/412 389/478/412
f 381/470/413 396/488/413 397/489/413
f 375/462/414 374/461/414 389/479/414
f 382/471/415 397/489/415 398/490/415
f 508/649/416 375/462/416 390/480/416
f 388/477/417 387/476/417 402/494/417
f 396/488/418 395/487/418 410/505/418
f 388/477/419 403/495/419 404/496/419
f 396/488/420 411/506/420 412/507/420
f 390/480/421 389/479/421 404/497/421
f 398/490/422 397/489/422 412/507/422
f 509/651/423 390/480/423 405/498/423
f 391/481/426 406/499/426 407/501/426
f 384/473/427 399/491/427 400/492/427
f 392/484/428 407/502/428 408/503/428
f 385/474/429 400/492/429 401/493/429
f 394/486/430 393/485/430 408/503/430
f 386/475/431 401/493/431 402/494/431
f 394/486/432 409/504/432 410/505/432
f 406/499/433 421/517/433 422/519/433
f 399/491/434 414/509/434 415/510/434
f 407/502/435 422/520/435 423/521/435
f 401/493/436 400/492/436 415/510/436
f 409/504/437 408/503/437 423/521/437
f 401/493/438 416/511/438 417/512/438
f 409/504/439 424/522/439 425/523/439
f 403/495/440 402/494/440 417/512/440
f 411/506/441 410/505/441 425/523/441
f 403/495/442 418/513/442 419/514/442
f 411/506/443 426/524/443 427/525/443
f 405/498/444 404/497/444 419/515/444
f 412/507/445 427/525/445 428/526/445
f 510/653/446 405/498/446 420/516/446
f 426/524/449 425/523/449 440/541/449
f 418/513/450 433/531/450 434/532/450
f 426/524/451 441/542/451 442/543/451
f 420/516/452 419/515/452 434/533/452
f 427/525/453 442/543/453 443/544/453
f 511/655/454 420/516/454 435/534/454
f 421/517/457 436/535/457 437/537/457
f 414/509/458 429/527/458 430/528/458
f 422/520/459 437/538/459 438/539/459
f 416/511/460 415/510/460 430/528/460
f 424/522/461 423/521/461 438/539/461
f 416/511/462 431/529/462 432/530/462
f 424/522/463 439/540/463 440/541/463
f 418/513/464 417/512/464 432/530/464
f 429/527/465 444/545/465 445/546/465
f 437/538/466 452/559/466 453/560/466
f 431/529/467 430/528/467 445/546/467
f 439/540/468 438/539/468 453/560/468
f 431/529/469 446/547/469 447/548/469
f 439/540/470 454/561/470 455/562/470
f 433/531/471 432/530/471 447/548/471
f 441/542/472 440/541/472 455/562/472
f 433/531/473 448/549/473 449/550/473
f 441/542/474 456/563/474 457/564/474
f 435/534/475 434/533/475 449/551/475
f 442/543/476 457/564/476 458/565/476
f 512/657/615 435/534/615 450/552/615
f 436/535/480 451/554/480 452/558/480
f 448/549/481 463/570/481 464/572/481
f 456/563/482 471/583/482 472/584/482
f 450/552/483 449/551/483 464/571/483
f 458/565/484 457/564/484 472/584/484
f 513/660/485 450/553/485 465/575/485
f 451/555/488 466/576/488 467/578/488
f 445/546/489 444/545/489 459/566/489
f 452/559/490 467/579/490 468/580/490
f 445/546/491 460/567/491 461/568/491
f 454/561/492 453/560/492 468/580/492
f 446/547/493 461/568/493 462/569/493
f 454/561/494 469/581/494 470/582/494
f 448/549/495 447/548/495 462/569/495
f 456/563/496 455/562/496 470/582/496
f 467/579/497 5/6/497 478/591/497
f 461/568/616 460/567/616 475/587/616
f 468/580/499 478/591/499 6/8/499
f 462/569/500 461/568/500 1/1/500
f 469/581/501 6/8/501 479/592/501
f 463/570/502 462/569/502 476/588/502
f 471/583/503 470/582/503 479/592/503
f 464/572/504 463/570/504 2/2/504
f 471/583/505 480/593/505 481/594/505
f 465/575/506 464/573/506 477/590/506
f 472/584/507 481/594/507 482/595/507
f 514/662/508 465/575/508 3/3/508
f 466/576/617 4/4/617 5/7/617
f 459/566/512 474/586/512 475/587/512
f 300/369/513 285/351/513 534/704/513
f 240/297/514 531/698/514 532/700/514
f 503/639/515 567/774/515 566/773/515
f 120/149/516 105/130/516 522/679/516
f 504/641/517 568/776/517 567/774/517
f 29/36/518 14/18/518 516/666/518
f 505/644/618 569/778/618 568/776/618
f 150/185/520 525/686/520 526/688/520
f 506/646/521 570/781/521 569/778/521
f 406/500/522 391/482/522 541/719/522
f 507/648/523 571/783/523 570/781/523
f 255/315/524 532/700/524 533/703/524
f 508/650/525 572/785/525 571/783/525
f 74/90/526 520/674/526 521/676/526
f 509/652/527 573/787/527 572/785/527
f 135/167/528 120/149/528 523/682/528
f 510/654/529 574/789/529 573/787/529
f 406/500/530 542/721/530 543/724/530
f 484/599/531 548/734/531 547/733/531
f 376/464/532 361/446/532 539/715/532
f 511/656/533 575/791/533 574/789/533
f 485/601/534 549/736/534 548/734/534
f 512/658/535 576/793/535 575/791/535
f 486/603/619 550/738/619 549/736/619
f 225/279/537 530/696/537 531/698/537
f 513/661/620 577/795/620 576/793/620
f 487/605/539 551/740/539 550/738/539
f 105/130/540 90/109/540 521/676/540
f 391/482/541 376/464/541 540/717/541
f 514/663/542 578/798/542 577/795/542
f 346/427/543 331/408/543 537/711/543
f 488/607/544 552/743/544 551/740/544
f 546/730/545 578/799/545 547/732/545
f 545/728/546 577/796/546 578/799/546
f 544/725/547 576/794/547 577/797/547
f 543/723/548 575/792/548 576/794/548
f 542/722/549 574/790/549 575/792/549
f 541/720/550 573/788/550 574/790/550
f 540/718/551 572/786/551 573/788/551
f 539/716/552 571/784/552 572/786/552
f 538/713/553 570/782/553 571/784/553
f 537/712/554 569/779/554 570/782/554
f 536/708/555 568/777/555 569/780/555
f 535/706/556 567/775/556 568/777/556
f 534/705/557 566/772/557 567/775/557
f 533/702/558 565/770/558 566/772/558
f 532/701/559 564/768/559 565/770/559
f 531/699/560 563/766/560 564/768/560
f 530/697/561 562/763/561 563/766/561
f 529/693/562 561/761/562 562/764/562
f 528/691/563 560/759/563 561/761/563
f 527/689/564 559/757/564 560/759/564
f 526/687/565 558/755/565 559/757/565
f 525/685/566 557/753/566 558/755/566
f 556/751/567 557/753/567 525/685/567
f 555/749/568 556/751/568 524/683/568
f 522/680/569 554/746/569 555/749/569
f 521/677/570 553/744/570 554/747/570
f 520/675/571 552/742/571 553/744/571
f 519/672/572 551/741/572 552/742/572
f 518/670/573 550/739/573 551/741/573
f 549/737/574 550/739/574 518/670/574
f 548/735/575 549/737/575 517/668/575
f 547/732/576 548/735/576 516/667/576
f 502/637/621 566/773/621 565/771/621
f 180/221/578 527/690/578 528/692/578
f 436/536/579 421/518/579 543/724/579
f 501/635/580 565/771/580 564/769/580
f 44/54/581 518/671/581 519/673/581
f 500/633/582 564/769/582 563/767/582
f 135/167/583 524/684/583 525/686/583
f 499/631/584 563/767/584 562/765/584
f 285/351/585 270/333/585 533/703/585
f 498/629/586 562/765/586 561/762/586
f 331/408/587 316/388/587 536/709/587
f 497/626/622 561/762/622 560/760/622
f 466/577/589 451/556/589 545/729/589
f 44/54/590 29/36/590 517/669/590
f 14/18/591 4/5/591 515/665/591
f 496/624/592 560/760/592 559/758/592
f 466/577/593 546/731/593 515/665/593
f 494/620/594 495/622/594 559/758/594
f 165/203/595 526/688/595 527/690/595
f 361/446/596 346/427/596 538/714/596
f 225/279/597 210/258/597 529/694/597
f 493/618/623 494/620/623 558/756/623
f 493/618/599 557/754/599 556/752/599
f 316/388/600 300/369/600 535/707/600
f 492/616/601 556/752/601 555/750/601
f 74/90/602 59/72/602 519/673/602
f 451/556/603 436/536/603 544/726/603
f 491/614/604 555/750/604 554/748/604
f 490/612/605 554/748/605 553/745/605
f 195/239/606 528/692/606 529/694/606
f 489/609/624 553/745/624 552/743/624
f 514/663/608 483/597/608 547/733/608
