# Blender 3.3.1
# www.blender.org
o Cylinder.001
v 0.000000 0.005022 -1.000000
v 0.000000 0.108504 -0.936830
v 0.195090 0.005022 -0.980785
v 0.182766 0.108504 -0.918829
v 0.382683 0.005022 -0.923880
v 0.358509 0.108504 -0.865518
v 0.555570 0.005022 -0.831470
v 0.520475 0.108504 -0.778946
v 0.707107 0.005022 -0.707107
v 0.662439 0.108504 -0.662439
v 0.831470 0.005022 -0.555570
v 0.778946 0.108504 -0.520475
v 0.923880 0.005022 -0.382683
v 0.865518 0.108504 -0.358509
v 0.980785 0.005022 -0.195090
v 0.918829 0.108504 -0.182766
v 1.000000 0.005022 0.000000
v 0.936830 0.108504 0.000000
v 0.980785 0.005022 0.195090
v 0.918829 0.108504 0.182766
v 0.923880 0.005022 0.382683
v 0.865518 0.108504 0.358509
v 0.831470 0.005022 0.555570
v 0.778946 0.108504 0.520475
v 0.707107 0.005022 0.707107
v 0.660848 0.107008 0.663100
v 0.555570 0.005022 0.831470
v 0.521154 0.108242 0.778195
v 0.382683 0.005022 0.923880
v 0.358509 0.108504 0.865518
v 0.195090 0.005022 0.980785
v 0.182766 0.108504 0.918829
v 0.000000 0.005022 1.000000
v 0.000000 0.108504 0.936830
v -0.195090 0.005022 0.980785
v -0.182766 0.108504 0.918829
v -0.382683 0.005022 0.923880
v -0.358509 0.108504 0.865518
v -0.555570 0.005022 0.831470
v -0.520475 0.108504 0.778946
v -0.707107 0.005022 0.707107
v -0.662439 0.108504 0.662439
v -0.831470 0.005022 0.555570
v -0.778946 0.108504 0.520475
v -0.923880 0.005022 0.382683
v -0.865518 0.108504 0.358509
v -0.980785 0.005022 0.195090
v -0.918829 0.108504 0.182766
v -1.000000 0.005022 0.000000
v -0.936830 0.108504 0.000000
v -0.980785 0.005022 -0.195090
v -0.918829 0.108504 -0.182766
v -0.923880 0.005022 -0.382683
v -0.865518 0.108504 -0.358509
v -0.831470 0.005022 -0.555570
v -0.778946 0.108504 -0.520475
v -0.707107 0.005022 -0.707107
v -0.662439 0.108504 -0.662439
v -0.555570 0.005022 -0.831470
v -0.520475 0.108504 -0.778946
v -0.382683 0.005022 -0.923880
v -0.358509 0.108504 -0.865518
v -0.195090 0.005022 -0.980785
v -0.182766 0.108504 -0.918829
v 0.195090 0.108504 -0.980785
v 0.000000 0.108504 -1.000000
v 0.382683 0.108504 -0.923880
v 0.555570 0.108504 -0.831470
v 0.707107 0.108504 -0.707107
v 0.831470 0.108504 -0.555570
v 0.923880 0.108504 -0.382683
v 0.980785 0.108504 -0.195090
v 1.000000 0.108504 0.000000
v 0.980785 0.108504 0.195090
v 0.923880 0.108504 0.382683
v 0.831470 0.108504 0.555570
v 0.704438 0.106974 0.706848
v 0.556132 0.108264 0.830546
v 0.382683 0.108504 0.923880
v 0.195090 0.108504 0.980785
v 0.000000 0.108504 1.000000
v -0.195090 0.108504 0.980785
v -0.382683 0.108504 0.923880
v -0.555570 0.108504 0.831470
v -0.707107 0.108504 0.707107
v -0.831470 0.108504 0.555570
v -0.923880 0.108504 0.382683
v -0.980785 0.108504 0.195090
v -1.000000 0.108504 0.000000
v -0.980785 0.108504 -0.195090
v -0.923880 0.108504 -0.382683
v -0.831470 0.108504 -0.555570
v -0.707107 0.108504 -0.707107
v -0.555570 0.108504 -0.831470
v -0.382683 0.108504 -0.923880
v -0.195090 0.108504 -0.980785
v 0.182766 0.157895 -0.918829
v 0.000000 0.157895 -0.936830
v 0.358509 0.157895 -0.865518
v 0.520475 0.157895 -0.778946
v 0.662439 0.157895 -0.662439
v 0.778946 0.157895 -0.520475
v 0.865518 0.157895 -0.358509
v 0.918829 0.157895 -0.182766
v 0.936830 0.157895 0.000000
v 0.918829 0.157895 0.182766
v 0.865518 0.157895 0.358509
v 0.778946 0.157895 0.520475
v 0.662439 0.157895 0.662439
v 0.520475 0.157895 0.778946
v 0.358509 0.157895 0.865518
v 0.182766 0.157895 0.918829
v 0.000000 0.157895 0.936830
v -0.182766 0.157895 0.918829
v -0.358509 0.157895 0.865518
v -0.520475 0.157895 0.778946
v -0.662439 0.157895 0.662439
v -0.778946 0.157895 0.520475
v -0.865518 0.157895 0.358509
v -0.918829 0.157895 0.182766
v -0.936830 0.157895 0.000000
v -0.918829 0.157895 -0.182766
v -0.865518 0.157895 -0.358509
v -0.778946 0.157895 -0.520475
v -0.662439 0.157895 -0.662439
v -0.520475 0.157895 -0.778946
v -0.358509 0.157895 -0.865518
v -0.182766 0.157895 -0.918829
v 0.195976 0.157895 -0.985239
v -0.000000 0.157895 -1.004541
v 0.384421 0.157895 -0.928075
v 0.558093 0.157895 -0.835245
v 0.710318 0.157895 -0.710318
v 0.835245 0.157895 -0.558093
v 0.928075 0.157895 -0.384421
v 0.985239 0.157895 -0.195976
v 1.004541 0.157895 -0.000000
v 0.985239 0.157895 0.195976
v 0.928075 0.157895 0.384421
v 0.835245 0.157895 0.558093
v 0.710318 0.157895 0.710318
v 0.558093 0.157895 0.835245
v 0.384421 0.157895 0.928075
v 0.195976 0.157895 0.985239
v -0.000000 0.157895 1.004541
v -0.195976 0.157895 0.985239
v -0.384421 0.157895 0.928075
v -0.558093 0.157895 0.835245
v -0.710318 0.157895 0.710318
v -0.835245 0.157895 0.558093
v -0.928075 0.157895 0.384421
v -0.985239 0.157895 0.195976
v -1.004541 0.157895 -0.000000
v -0.985239 0.157895 -0.195976
v -0.928075 0.157895 -0.384421
v -0.835245 0.157895 -0.558093
v -0.710318 0.157895 -0.710318
v -0.558093 0.157895 -0.835245
v -0.384421 0.157895 -0.928075
v -0.195976 0.157895 -0.985239
v 0.195976 0.221005 -0.985239
v -0.000000 0.221005 -1.004541
v 0.384421 0.221005 -0.928075
v 0.558093 0.221005 -0.835245
v 0.710318 0.221005 -0.710318
v 0.835245 0.221005 -0.558093
v 0.928075 0.221005 -0.384421
v 0.985239 0.221005 -0.195976
v 1.004541 0.221005 -0.000000
v 0.985239 0.221005 0.195976
v 0.928075 0.221005 0.384421
v 0.835245 0.221005 0.558093
v 0.705844 0.219859 0.710527
v 0.558796 0.220634 0.832993
v 0.384421 0.221005 0.928075
v 0.195976 0.221005 0.985239
v -0.000000 0.221005 1.004541
v -0.195976 0.221005 0.985239
v -0.384421 0.221005 0.928075
v -0.558093 0.221005 0.835245
v -0.710318 0.221005 0.710318
v -0.835245 0.221005 0.558093
v -0.928075 0.221005 0.384421
v -0.985239 0.221005 0.195976
v -1.004255 0.220953 -0.000374
v -0.977279 0.217528 -0.196801
v -0.927610 0.220049 -0.380481
v -0.835245 0.221005 -0.558093
v -0.710318 0.221005 -0.710318
v -0.558093 0.221005 -0.835245
v -0.384421 0.221005 -0.928075
v -0.195976 0.221005 -0.985239
vn 0.0980 -0.0000 -0.9952
vn 0.2903 -0.0000 -0.9569
vn 0.4714 -0.0000 -0.8819
vn 0.6344 -0.0000 -0.7730
vn 0.7730 -0.0000 -0.6344
vn 0.8819 -0.0000 -0.4714
vn 0.9569 -0.0000 -0.2903
vn 0.9952 -0.0000 -0.0980
vn 0.9952 -0.0000 0.0980
vn 0.9569 -0.0000 0.2903
vn 0.8819 -0.0000 0.4714
vn 0.7728 0.0218 0.6342
vn 0.6343 0.0186 0.7729
vn 0.4714 0.0053 0.8819
vn 0.2903 -0.0000 0.9569
vn 0.0980 -0.0000 0.9952
vn -0.0980 -0.0000 0.9952
vn -0.2903 -0.0000 0.9569
vn -0.4714 -0.0000 0.8819
vn -0.6344 -0.0000 0.7730
vn -0.7730 -0.0000 0.6344
vn -0.8819 -0.0000 0.4714
vn -0.9569 -0.0000 0.2903
vn -0.9952 -0.0000 0.0980
vn -0.9952 -0.0000 -0.0980
vn -0.9569 -0.0000 -0.2903
vn -0.8819 -0.0000 -0.4714
vn -0.7730 -0.0000 -0.6344
vn -0.6344 -0.0000 -0.7730
vn -0.4714 -0.0000 -0.8819
vn -0.2903 -0.0000 -0.9569
vn -0.0980 -0.0000 -0.9952
vn -0.0000 -1.0000 -0.0000
vn -0.0000 1.0000 -0.0000
vn -0.0043 1.0000 0.0065
vn 0.0052 1.0000 -0.0044
vn 0.0010 1.0000 -0.0011
vn 0.7702 -0.0158 0.6376
vn 0.6344 -0.0030 0.7730
vn 0.4714 -0.0000 0.8819
vn -0.9952 0.0051 0.0980
vn -0.9867 0.1304 -0.0972
vn 0.7719 0.0536 0.6335
vn -0.9651 0.0238 -0.2607
vn 0.6399 0.0204 0.7682
vn -0.8872 -0.0000 -0.4614
vn 0.4787 -0.0000 0.8780
vn 0.7658 -0.0000 0.6431
vn 0.6405 0.0034 0.7679
vn 0.4739 -0.0000 0.8806
vn -0.0053 1.0000 0.0061
vn 0.0054 1.0000 -0.0040
vn 0.0011 1.0000 -0.0005
vn 0.7730 -0.0000 0.6344
vn 0.6358 -0.0098 0.7718
vn 0.4730 -0.0069 0.8810
vn 0.0179 0.9997 0.0147
vn -0.2277 0.9725 -0.0482
vn 0.0013 1.0000 -0.0004
vn -0.0038 0.9999 -0.0110
vn -0.0239 0.9996 -0.0128
vn 0.0035 1.0000 0.0052
vn 0.0056 1.0000 -0.0012
vn 0.0110 0.9999 0.0110
vn -0.0000 1.0000 0.0017
vn 0.0012 1.0000 -0.0012
vn -0.0009 1.0000 -0.0004
vn -0.9953 -0.0000 0.0964
vn -0.9907 0.0037 -0.1361
vn 0.7624 -0.0000 0.6472
vn -0.9497 0.1228 -0.2881
vn 0.6338 0.0432 0.7723
vn -0.8813 0.0365 -0.4711
vn 0.4712 0.0264 0.8816
vt 0.703005 0.289314
vt 0.006539 0.410332
vt 0.521189 0.343386
vt 0.878241 0.130371
vt 0.676562 0.289314
vt 0.011698 0.384397
vt 0.503672 0.325870
vt 0.878241 0.105599
vt 0.650627 0.289314
vt 0.021817 0.359967
vt 0.483075 0.312107
vt 0.878241 0.081303
vt 0.626197 0.289314
vt 0.036508 0.337981
vt 0.460188 0.302627
vt 0.878241 0.058416
vt 0.604211 0.289314
vt 0.055206 0.319283
vt 0.435892 0.297794
vt 0.878241 0.037818
vt 0.585513 0.289314
vt 0.077192 0.304592
vt 0.411119 0.297794
vt 0.878241 0.020302
vt 0.211067 0.570890
vt 0.570822 0.289314
vt 0.101622 0.294473
vt 0.878241 0.006539
vt 0.386823 0.302627
vt 0.811041 0.289321
vt 0.196379 0.570884
vt 0.127557 0.289314
vt 0.363936 0.312107
vt 0.811036 0.303081
vt 0.177684 0.570878
vt 0.153999 0.289314
vt 0.343339 0.325869
vt 0.811033 0.320596
vt 0.155699 0.570874
vt 0.179934 0.294473
vt 0.325822 0.343386
vt 0.811030 0.341191
vt 0.131271 0.570871
vt 0.204364 0.304592
vt 0.312059 0.363984
vt 0.811029 0.364077
vt 0.105337 0.570870
vt 0.226350 0.319283
vt 0.302579 0.386870
vt 0.811029 0.388373
vt 0.078894 0.570870
vt 0.245048 0.337981
vt 0.297809 0.411389
vt 0.807131 0.413350
vt 0.052959 0.570871
vt 0.259739 0.359967
vt 0.297766 0.435804
vt 0.810350 0.437306
vt 0.028527 0.570874
vt 0.269858 0.384397
vt 0.302579 0.460236
vt 0.811036 0.460330
vt 0.554251 0.570870
vt 0.006539 0.570878
vt 0.275017 0.410332
vt 0.811041 0.480929
vt 0.312059 0.483122
vt 0.533856 0.993461
vt 0.529821 0.570870
vt 0.275017 0.436774
vt 0.325822 0.503720
vt 0.533856 0.970574
vt 0.503887 0.570870
vt 0.269858 0.462709
vt 0.343339 0.521236
vt 0.533856 0.946278
vt 0.477444 0.570870
vt 0.259739 0.487139
vt 0.363936 0.534999
vt 0.533856 0.921506
vt 0.451509 0.570870
vt 0.245048 0.509125
vt 0.386823 0.544479
vt 0.533856 0.897209
vt 0.427079 0.570870
vt 0.226350 0.527823
vt 0.411119 0.549312
vt 0.533856 0.874322
vt 0.224145 0.840664
vt 0.405093 0.570870
vt 0.204364 0.542514
vt 0.533856 0.853725
vt 0.435892 0.549312
vt 0.570830 0.790704
vt 0.248571 0.840669
vt 0.179934 0.552633
vt 0.460188 0.544479
vt 0.570825 0.813587
vt 0.274503 0.840672
vt 0.153999 0.557792
vt 0.570822 0.837881
vt 0.483075 0.534999
vt 0.300946 0.840672
vt 0.127557 0.557792
vt 0.503672 0.521236
vt 0.570822 0.862653
vt 0.326883 0.840669
vt 0.101622 0.552633
vt 0.521189 0.503720
vt 0.570825 0.886952
vt 0.351317 0.840664
vt 0.077192 0.542514
vt 0.534952 0.483122
vt 0.570830 0.909842
vt 0.373309 0.840657
vt 0.055206 0.527823
vt 0.544432 0.460236
vt 0.570837 0.930445
vt 0.794054 0.289314
vt 0.392015 0.840647
vt 0.036508 0.509125
vt 0.570845 0.947969
vt 0.549264 0.435939
vt 0.878241 0.215669
vt 0.775356 0.289314
vt 0.021817 0.487139
vt 0.549264 0.411167
vt 0.878241 0.198152
vt 0.753369 0.289314
vt 0.011698 0.462709
vt 0.544432 0.386870
vt 0.878241 0.177555
vt 0.728939 0.289314
vt 0.006539 0.436774
vt 0.534952 0.363984
vt 0.878241 0.154668
vt 0.676562 0.559091
vt 0.509078 0.319283
vt 0.703005 0.559091
vt 0.527776 0.337981
vt 0.650627 0.559091
vt 0.487091 0.304592
vt 0.626197 0.559091
vt 0.462662 0.294473
vt 0.604211 0.559091
vt 0.436727 0.289314
vt 0.585513 0.559091
vt 0.410284 0.289314
vt 0.570822 0.559091
vt 0.211067 0.840667
vt 0.384349 0.294473
vt 0.196379 0.840661
vt 0.359919 0.304592
vt 0.177684 0.840655
vt 0.337933 0.319283
vt 0.155699 0.840651
vt 0.319235 0.337981
vt 0.131271 0.840648
vt 0.304544 0.359967
vt 0.105337 0.840647
vt 0.294425 0.384397
vt 0.078692 0.836660
vt 0.289518 0.410587
vt 0.053103 0.840024
vt 0.289314 0.436637
vt 0.028527 0.840651
vt 0.294425 0.462709
vt 0.006539 0.840655
vt 0.554251 0.840647
vt 0.304544 0.487139
vt 0.529821 0.840647
vt 0.319235 0.509125
vt 0.503887 0.840647
vt 0.337933 0.527823
vt 0.477444 0.840647
vt 0.359919 0.542514
vt 0.451509 0.840647
vt 0.384349 0.552633
vt 0.427079 0.840647
vt 0.410284 0.557792
vt 0.405093 0.840647
vt 0.224145 0.570887
vt 0.436727 0.557792
vt 0.248571 0.570892
vt 0.462661 0.552633
vt 0.274503 0.570895
vt 0.487091 0.542514
vt 0.300946 0.570895
vt 0.509078 0.527823
vt 0.326883 0.570892
vt 0.527776 0.509125
vt 0.351317 0.570887
vt 0.542466 0.487139
vt 0.373309 0.570879
vt 0.552586 0.462709
vt 0.392015 0.570870
vt 0.794054 0.559091
vt 0.557744 0.436774
vt 0.775356 0.559091
vt 0.557744 0.410332
vt 0.753369 0.559091
vt 0.552586 0.384397
vt 0.728939 0.559091
vt 0.542466 0.359967
vt 0.749478 0.105599
vt 0.020461 0.104705
vt 0.749478 0.130371
vt 0.015628 0.129001
vt 0.749478 0.081303
vt 0.029941 0.081818
vt 0.749478 0.058416
vt 0.043704 0.061221
vt 0.749478 0.037818
vt 0.061221 0.043704
vt 0.749478 0.020302
vt 0.081818 0.029941
vt 0.749478 0.006539
vt 0.939805 0.289314
vt 0.104705 0.020461
vt 0.939799 0.303074
vt 0.129001 0.015628
vt 0.939796 0.320589
vt 0.153774 0.015628
vt 0.939793 0.341184
vt 0.178070 0.020461
vt 0.939792 0.364070
vt 0.200957 0.029941
vt 0.939792 0.388365
vt 0.221554 0.043704
vt 0.939793 0.413138
vt 0.239071 0.061221
vt 0.939796 0.437435
vt 0.252834 0.081818
vt 0.939799 0.460323
vt 0.262314 0.104705
vt 0.939804 0.480922
vt 0.405093 0.993461
vt 0.267147 0.129001
vt 0.405093 0.970574
vt 0.267147 0.153774
vt 0.405093 0.946278
vt 0.262314 0.178070
vt 0.405093 0.921506
vt 0.252834 0.200957
vt 0.405093 0.897209
vt 0.239071 0.221554
vt 0.405093 0.874322
vt 0.221554 0.239071
vt 0.405093 0.853725
vt 0.699593 0.790704
vt 0.200957 0.252834
vt 0.699588 0.813587
vt 0.178070 0.262314
vt 0.699585 0.837881
vt 0.153774 0.267147
vt 0.699585 0.862653
vt 0.129001 0.267147
vt 0.699588 0.886952
vt 0.104705 0.262314
vt 0.081818 0.252834
vt 0.699593 0.909842
vt 0.699600 0.930445
vt 0.061221 0.239071
vt 0.699609 0.947969
vt 0.749478 0.215669
vt 0.043704 0.221554
vt 0.749478 0.198152
vt 0.029941 0.200957
vt 0.749478 0.177555
vt 0.020461 0.178070
vt 0.749478 0.154668
vt 0.015628 0.153774
vt 0.011721 0.102054
vt 0.736401 0.112759
vt 0.006539 0.128106
vt 0.736401 0.139322
vt 0.736401 0.086706
vt 0.021886 0.077513
vt 0.036644 0.055427
vt 0.736401 0.062165
vt 0.055427 0.036644
vt 0.736401 0.040079
vt 0.077513 0.021886
vt 0.736401 0.021297
vt 0.736401 0.006539
vt 0.102054 0.011721
vt 0.735351 0.777626
vt 0.128106 0.006539
vt 0.735357 0.762871
vt 0.154669 0.006539
vt 0.735362 0.744091
vt 0.180721 0.011721
vt 0.735366 0.722007
vt 0.205262 0.021886
vt 0.735369 0.697467
vt 0.227349 0.036644
vt 0.735370 0.671415
vt 0.246131 0.055427
vt 0.735370 0.644853
vt 0.260889 0.077513
vt 0.735369 0.618799
vt 0.271054 0.102054
vt 0.735366 0.594257
vt 0.735362 0.572169
vt 0.276236 0.128106
vt 0.898284 0.753879
vt 0.276236 0.154669
vt 0.873743 0.753879
vt 0.271054 0.180721
vt 0.847690 0.753879
vt 0.260889 0.205262
vt 0.821128 0.753879
vt 0.246131 0.227349
vt 0.795075 0.753879
vt 0.227349 0.246131
vt 0.770534 0.753879
vt 0.748448 0.753879
vt 0.205262 0.260889
vt 0.748456 0.572169
vt 0.180721 0.271054
vt 0.748451 0.596706
vt 0.154669 0.276236
vt 0.748448 0.622756
vt 0.128106 0.276236
vt 0.748448 0.649319
vt 0.102054 0.271054
vt 0.748451 0.675374
vt 0.077513 0.260889
vt 0.748456 0.699919
vt 0.055427 0.246131
vt 0.748463 0.722011
vt 0.748473 0.740801
vt 0.036644 0.227349
vt 0.736401 0.230784
vt 0.021886 0.205262
vt 0.736401 0.212001
vt 0.011721 0.180721
vt 0.736401 0.189915
vt 0.006539 0.154669
vt 0.736401 0.165374
vt 0.437444 0.006539
vt 0.571872 0.112759
vt 0.463496 0.011721
vt 0.571872 0.139322
vt 0.410881 0.006539
vt 0.571872 0.086706
vt 0.384829 0.011721
vt 0.571872 0.062165
vt 0.360288 0.021886
vt 0.571872 0.040079
vt 0.338202 0.036644
vt 0.571872 0.021297
vt 0.319419 0.055426
vt 0.571872 0.006539
vt 0.570822 0.777626
vt 0.304661 0.077513
vt 0.570828 0.762871
vt 0.294496 0.102054
vt 0.570834 0.744091
vt 0.289314 0.128106
vt 0.570838 0.722007
vt 0.289314 0.154669
vt 0.570841 0.697467
vt 0.294496 0.180721
vt 0.570842 0.671415
vt 0.305228 0.205466
vt 0.573830 0.644448
vt 0.319415 0.227031
vt 0.571806 0.619094
vt 0.338202 0.246131
vt 0.570838 0.594257
vt 0.360288 0.260889
vt 0.570834 0.572169
vt 0.898284 0.918407
vt 0.384829 0.271054
vt 0.873743 0.918407
vt 0.410881 0.276236
vt 0.847690 0.918407
vt 0.437444 0.276236
vt 0.821128 0.918407
vt 0.463496 0.271054
vt 0.795075 0.918407
vt 0.488037 0.260889
vt 0.770534 0.918407
vt 0.510123 0.246131
vt 0.748448 0.918407
vt 0.912984 0.572169
vt 0.528906 0.227349
vt 0.912979 0.596706
vt 0.543664 0.205262
vt 0.912976 0.622756
vt 0.553806 0.180662
vt 0.912842 0.649365
vt 0.558007 0.154255
vt 0.903917 0.675380
vt 0.558794 0.128598
vt 0.910493 0.699383
vt 0.553829 0.102054
vt 0.912992 0.722011
vt 0.543664 0.077513
vt 0.913001 0.740801
vt 0.571872 0.230784
vt 0.528906 0.055427
vt 0.571872 0.212001
vt 0.510123 0.036644
vt 0.571872 0.189915
vt 0.488037 0.021886
vt 0.571872 0.165374
s 0
f 66/139/1 3/5/1 1/1/1
f 65/137/2 5/9/2 3/5/2
f 67/141/3 7/13/3 5/9/3
f 68/143/4 9/17/4 7/13/4
f 69/145/5 11/21/5 9/17/5
f 70/147/6 13/26/6 11/21/6
f 71/150/7 15/31/7 13/25/7
f 72/152/8 17/35/8 15/31/8
f 73/154/9 19/39/9 17/35/9
f 74/156/10 21/43/10 19/39/10
f 75/158/11 23/47/11 21/43/11
f 23/47/12 77/162/12 25/51/12
f 77/162/13 27/55/13 25/51/13
f 78/164/14 29/59/14 27/55/14
f 79/166/15 31/64/15 29/59/15
f 80/169/16 33/69/16 31/63/16
f 81/171/17 35/73/17 33/69/17
f 82/173/18 37/77/18 35/73/18
f 83/175/19 39/81/19 37/77/19
f 84/177/20 41/85/20 39/81/20
f 85/179/21 43/90/21 41/85/21
f 86/182/22 45/95/22 43/89/22
f 87/184/23 47/99/23 45/95/23
f 88/186/24 49/103/24 47/99/24
f 89/188/25 51/107/25 49/103/25
f 90/190/26 53/111/26 51/107/26
f 91/192/27 55/115/27 53/111/27
f 92/194/28 57/120/28 55/115/28
f 93/197/29 59/125/29 57/119/29
f 94/199/30 61/129/30 59/125/30
f 48/101/24 121/256/24 50/106/24
f 95/201/31 63/133/31 61/129/31
f 96/203/32 1/1/32 63/133/32
f 31/65/33 47/100/33 63/134/33
f 2/3/34 65/138/34 66/140/34
f 6/11/34 65/138/34 4/7/34
f 8/15/34 67/142/34 6/11/34
f 10/19/34 68/144/34 8/15/34
f 12/23/34 69/146/34 10/19/34
f 12/23/34 71/151/34 70/148/34
f 16/33/34 71/151/34 14/29/34
f 18/37/34 72/153/34 16/33/34
f 18/37/34 74/157/34 73/155/34
f 22/45/34 74/157/34 20/41/34
f 24/49/34 75/159/34 22/45/34
f 24/49/35 77/163/35 76/161/35
f 28/57/36 77/163/36 26/53/36
f 30/61/37 78/165/37 28/57/37
f 32/67/34 79/167/34 30/61/34
f 34/71/34 80/170/34 32/67/34
f 34/71/34 82/174/34 81/172/34
f 38/79/34 82/174/34 36/75/34
f 40/83/34 83/176/34 38/79/34
f 42/87/34 84/178/34 40/83/34
f 44/93/34 85/180/34 42/87/34
f 44/93/34 87/185/34 86/183/34
f 48/102/34 87/185/34 46/97/34
f 50/105/34 88/187/34 48/102/34
f 50/105/34 90/191/34 89/189/34
f 54/113/34 90/191/34 52/109/34
f 56/117/34 91/193/34 54/113/34
f 58/123/34 92/195/34 56/117/34
f 60/127/34 93/198/34 58/123/34
f 60/127/34 95/202/34 94/200/34
f 64/135/34 95/202/34 62/131/34
f 2/3/34 96/204/34 64/135/34
f 124/263/33 155/328/33 156/330/33
f 22/46/11 108/228/11 24/50/11
f 50/106/25 122/258/25 52/110/25
f 24/50/38 109/230/38 26/54/38
f 52/110/26 123/261/26 54/114/26
f 28/58/39 109/230/39 110/232/39
f 54/114/27 124/262/27 56/118/27
f 30/62/40 110/232/40 111/234/40
f 2/4/1 97/205/1 4/8/1
f 56/118/28 125/264/28 58/122/28
f 30/62/15 112/236/15 32/66/15
f 4/8/2 99/209/2 6/12/2
f 58/124/29 126/267/29 60/128/29
f 32/68/16 113/239/16 34/72/16
f 6/12/3 100/211/3 8/16/3
f 60/128/30 127/269/30 62/132/30
f 34/72/17 114/241/17 36/76/17
f 8/16/4 101/213/4 10/20/4
f 62/132/31 128/271/31 64/136/31
f 36/76/18 115/243/18 38/80/18
f 10/20/5 102/215/5 12/24/5
f 64/136/32 98/207/32 2/4/32
f 38/80/19 116/245/19 40/84/19
f 12/24/6 103/217/6 14/28/6
f 40/84/20 117/247/20 42/88/20
f 14/30/7 104/220/7 16/34/7
f 42/88/21 118/249/21 44/92/21
f 16/34/8 105/222/8 18/38/8
f 44/94/22 119/252/22 46/98/22
f 18/38/9 106/224/9 20/42/9
f 46/98/23 120/254/23 48/101/23
f 20/42/10 107/226/10 22/46/10
f 131/277/3 164/348/3 132/280/3
f 110/233/33 143/302/33 111/235/33
f 98/208/33 129/273/33 97/206/33
f 124/263/33 157/333/33 125/266/33
f 111/235/33 144/305/33 112/238/33
f 97/206/33 131/278/33 99/210/33
f 125/266/33 158/335/33 126/268/33
f 113/240/33 144/305/33 145/307/33
f 100/212/33 131/278/33 132/279/33
f 126/268/33 159/337/33 127/270/33
f 113/240/33 146/309/33 114/242/33
f 100/212/33 133/281/33 101/214/33
f 127/270/33 160/339/33 128/272/33
f 114/242/33 147/311/33 115/244/33
f 101/214/33 134/283/33 102/216/33
f 98/208/33 160/339/33 130/275/33
f 116/246/33 147/311/33 148/313/33
f 102/216/33 135/286/33 103/219/33
f 116/246/33 149/315/33 117/248/33
f 103/219/33 136/288/33 104/221/33
f 117/248/33 150/318/33 118/251/33
f 105/223/33 136/288/33 137/290/33
f 118/251/33 151/320/33 119/253/33
f 105/223/33 138/292/33 106/225/33
f 119/253/33 152/322/33 120/255/33
f 106/225/33 139/294/33 107/227/33
f 121/257/33 152/322/33 153/324/33
f 108/229/33 139/294/33 140/296/33
f 121/257/33 154/326/33 122/259/33
f 108/229/33 141/298/33 109/231/33
f 122/259/33 155/328/33 123/260/33
f 109/231/33 142/300/33 110/233/33
f 179/379/34 171/362/34 163/345/34
f 158/336/30 191/406/30 159/338/30
f 145/308/17 178/378/17 146/310/17
f 132/280/4 165/350/4 133/282/4
f 159/338/31 192/408/31 160/340/31
f 146/310/18 179/380/18 147/312/18
f 133/282/5 166/352/5 134/284/5
f 160/340/32 162/344/32 130/276/32
f 147/312/19 180/382/19 148/314/19
f 134/284/6 167/354/6 135/285/6
f 148/314/20 181/384/20 149/316/20
f 135/287/7 168/357/7 136/289/7
f 149/316/21 182/386/21 150/317/21
f 136/289/8 169/359/8 137/291/8
f 150/319/22 183/389/22 151/321/22
f 137/291/9 170/361/9 138/293/9
f 151/321/23 184/391/23 152/323/23
f 138/293/10 171/363/10 139/295/10
f 152/323/41 185/393/41 153/325/41
f 139/295/11 172/365/11 140/297/11
f 153/325/42 186/395/42 154/327/42
f 140/297/43 173/367/43 141/299/43
f 155/329/44 186/395/44 187/397/44
f 142/301/45 173/367/45 174/369/45
f 156/331/46 187/397/46 188/399/46
f 143/303/47 174/369/47 175/371/47
f 130/276/1 161/342/1 129/274/1
f 156/331/28 189/401/28 157/332/28
f 143/303/15 176/373/15 144/304/15
f 129/274/2 163/346/2 131/277/2
f 157/334/29 190/404/29 158/336/29
f 144/306/16 177/376/16 145/308/16
f 66/139/1 65/137/1 3/5/1
f 65/137/2 67/141/2 5/9/2
f 67/141/3 68/143/3 7/13/3
f 68/143/4 69/145/4 9/17/4
f 69/145/5 70/147/5 11/21/5
f 70/147/6 71/149/6 13/26/6
f 71/150/7 72/152/7 15/31/7
f 72/152/8 73/154/8 17/35/8
f 73/154/9 74/156/9 19/39/9
f 74/156/10 75/158/10 21/43/10
f 75/158/11 76/160/11 23/47/11
f 23/47/48 76/160/48 77/162/48
f 77/162/49 78/164/49 27/55/49
f 78/164/50 79/166/50 29/59/50
f 79/166/15 80/168/15 31/64/15
f 80/169/16 81/171/16 33/69/16
f 81/171/17 82/173/17 35/73/17
f 82/173/18 83/175/18 37/77/18
f 83/175/19 84/177/19 39/81/19
f 84/177/20 85/179/20 41/85/20
f 85/179/21 86/181/21 43/90/21
f 86/182/22 87/184/22 45/95/22
f 87/184/23 88/186/23 47/99/23
f 88/186/24 89/188/24 49/103/24
f 89/188/25 90/190/25 51/107/25
f 90/190/26 91/192/26 53/111/26
f 91/192/27 92/194/27 55/115/27
f 92/194/28 93/196/28 57/120/28
f 93/197/29 94/199/29 59/125/29
f 94/199/30 95/201/30 61/129/30
f 48/101/24 120/254/24 121/256/24
f 95/201/31 96/203/31 63/133/31
f 96/203/32 66/139/32 1/1/32
f 63/134/33 1/2/33 3/6/33
f 3/6/33 5/10/33 7/14/33
f 7/14/33 9/18/33 11/22/33
f 11/22/33 13/27/33 15/32/33
f 15/32/33 17/36/33 19/40/33
f 19/40/33 21/44/33 23/48/33
f 23/48/33 25/52/33 27/56/33
f 27/56/33 29/60/33 31/65/33
f 31/65/33 33/70/33 35/74/33
f 35/74/33 37/78/33 39/82/33
f 39/82/33 41/86/33 43/91/33
f 43/91/33 45/96/33 47/100/33
f 47/100/33 49/104/33 51/108/33
f 51/108/33 53/112/33 55/116/33
f 55/116/33 57/121/33 59/126/33
f 59/126/33 61/130/33 63/134/33
f 63/134/33 3/6/33 7/14/33
f 7/14/33 11/22/33 15/32/33
f 15/32/33 19/40/33 23/48/33
f 23/48/33 27/56/33 31/65/33
f 31/65/33 35/74/33 39/82/33
f 39/82/33 43/91/33 47/100/33
f 47/100/33 51/108/33 55/116/33
f 55/116/33 59/126/33 63/134/33
f 63/134/33 7/14/33 15/32/33
f 15/32/33 23/48/33 31/65/33
f 31/65/33 39/82/33 47/100/33
f 47/100/33 55/116/33 63/134/33
f 63/134/33 15/32/33 31/65/33
f 2/3/34 4/7/34 65/138/34
f 6/11/34 67/142/34 65/138/34
f 8/15/34 68/144/34 67/142/34
f 10/19/34 69/146/34 68/144/34
f 12/23/34 70/148/34 69/146/34
f 12/23/34 14/29/34 71/151/34
f 16/33/34 72/153/34 71/151/34
f 18/37/34 73/155/34 72/153/34
f 18/37/34 20/41/34 74/157/34
f 22/45/34 75/159/34 74/157/34
f 24/49/34 76/161/34 75/159/34
f 24/49/51 26/53/51 77/163/51
f 28/57/52 78/165/52 77/163/52
f 30/61/53 79/167/53 78/165/53
f 32/67/34 80/170/34 79/167/34
f 34/71/34 81/172/34 80/170/34
f 34/71/34 36/75/34 82/174/34
f 38/79/34 83/176/34 82/174/34
f 40/83/34 84/178/34 83/176/34
f 42/87/34 85/180/34 84/178/34
f 44/93/34 86/183/34 85/180/34
f 44/93/34 46/97/34 87/185/34
f 48/102/34 88/187/34 87/185/34
f 50/105/34 89/189/34 88/187/34
f 50/105/34 52/109/34 90/191/34
f 54/113/34 91/193/34 90/191/34
f 56/117/34 92/195/34 91/193/34
f 58/123/34 93/198/34 92/195/34
f 60/127/34 94/200/34 93/198/34
f 60/127/34 62/131/34 95/202/34
f 64/135/34 96/204/34 95/202/34
f 2/3/34 66/140/34 96/204/34
f 124/263/33 123/260/33 155/328/33
f 22/46/11 107/226/11 108/228/11
f 50/106/25 121/256/25 122/258/25
f 24/50/54 108/228/54 109/230/54
f 52/110/26 122/258/26 123/261/26
f 28/58/55 26/54/55 109/230/55
f 54/114/27 123/261/27 124/262/27
f 30/62/56 28/58/56 110/232/56
f 2/4/1 98/207/1 97/205/1
f 56/118/28 124/262/28 125/264/28
f 30/62/15 111/234/15 112/236/15
f 4/8/2 97/205/2 99/209/2
f 58/124/29 125/265/29 126/267/29
f 32/68/16 112/237/16 113/239/16
f 6/12/3 99/209/3 100/211/3
f 60/128/30 126/267/30 127/269/30
f 34/72/17 113/239/17 114/241/17
f 8/16/4 100/211/4 101/213/4
f 62/132/31 127/269/31 128/271/31
f 36/76/18 114/241/18 115/243/18
f 10/20/5 101/213/5 102/215/5
f 64/136/32 128/271/32 98/207/32
f 38/80/19 115/243/19 116/245/19
f 12/24/6 102/215/6 103/217/6
f 40/84/20 116/245/20 117/247/20
f 14/30/7 103/218/7 104/220/7
f 42/88/21 117/247/21 118/249/21
f 16/34/8 104/220/8 105/222/8
f 44/94/22 118/250/22 119/252/22
f 18/38/9 105/222/9 106/224/9
f 46/98/23 119/252/23 120/254/23
f 20/42/10 106/224/10 107/226/10
f 131/277/3 163/346/3 164/348/3
f 110/233/33 142/300/33 143/302/33
f 98/208/33 130/275/33 129/273/33
f 124/263/33 156/330/33 157/333/33
f 111/235/33 143/302/33 144/305/33
f 97/206/33 129/273/33 131/278/33
f 125/266/33 157/333/33 158/335/33
f 113/240/33 112/238/33 144/305/33
f 100/212/33 99/210/33 131/278/33
f 126/268/33 158/335/33 159/337/33
f 113/240/33 145/307/33 146/309/33
f 100/212/33 132/279/33 133/281/33
f 127/270/33 159/337/33 160/339/33
f 114/242/33 146/309/33 147/311/33
f 101/214/33 133/281/33 134/283/33
f 98/208/33 128/272/33 160/339/33
f 116/246/33 115/244/33 147/311/33
f 102/216/33 134/283/33 135/286/33
f 116/246/33 148/313/33 149/315/33
f 103/219/33 135/286/33 136/288/33
f 117/248/33 149/315/33 150/318/33
f 105/223/33 104/221/33 136/288/33
f 118/251/33 150/318/33 151/320/33
f 105/223/33 137/290/33 138/292/33
f 119/253/33 151/320/33 152/322/33
f 106/225/33 138/292/33 139/294/33
f 121/257/33 120/255/33 152/322/33
f 108/229/33 107/227/33 139/294/33
f 121/257/33 153/324/33 154/326/33
f 108/229/33 140/296/33 141/298/33
f 122/259/33 154/326/33 155/328/33
f 109/231/33 141/298/33 142/300/33
f 163/345/34 161/341/34 162/343/34
f 162/343/34 192/407/34 191/405/34
f 191/405/34 190/403/34 189/400/34
f 189/400/57 188/398/57 187/396/57
f 187/396/58 186/394/58 185/392/58
f 185/392/59 184/390/59 183/388/59
f 183/388/34 182/385/34 181/383/34
f 181/383/34 180/381/34 179/379/34
f 179/379/34 178/377/34 177/375/34
f 177/375/34 176/372/34 175/370/34
f 175/370/60 174/368/60 173/366/60
f 173/366/61 172/364/61 171/362/61
f 171/362/34 170/360/34 169/358/34
f 169/358/34 168/356/34 167/353/34
f 167/353/34 166/351/34 165/349/34
f 165/349/34 164/347/34 163/345/34
f 163/345/34 162/343/34 191/405/34
f 191/405/62 189/400/62 187/396/62
f 187/396/63 185/392/63 183/388/63
f 183/388/34 181/383/34 179/379/34
f 179/379/34 177/375/34 175/370/34
f 175/370/64 173/366/64 171/362/64
f 171/362/34 169/358/34 167/353/34
f 167/353/34 165/349/34 163/345/34
f 163/345/65 191/405/65 187/396/65
f 187/396/66 183/388/66 179/379/66
f 179/379/34 175/370/34 171/362/34
f 171/362/34 167/353/34 163/345/34
f 163/345/67 187/396/67 179/379/67
f 158/336/30 190/404/30 191/406/30
f 145/308/17 177/376/17 178/378/17
f 132/280/4 164/348/4 165/350/4
f 159/338/31 191/406/31 192/408/31
f 146/310/18 178/378/18 179/380/18
f 133/282/5 165/350/5 166/352/5
f 160/340/32 192/408/32 162/344/32
f 147/312/19 179/380/19 180/382/19
f 134/284/6 166/352/6 167/354/6
f 148/314/20 180/382/20 181/384/20
f 135/287/7 167/355/7 168/357/7
f 149/316/21 181/384/21 182/386/21
f 136/289/8 168/357/8 169/359/8
f 150/319/22 182/387/22 183/389/22
f 137/291/9 169/359/9 170/361/9
f 151/321/23 183/389/23 184/391/23
f 138/293/10 170/361/10 171/363/10
f 152/323/68 184/391/68 185/393/68
f 139/295/11 171/363/11 172/365/11
f 153/325/69 185/393/69 186/395/69
f 140/297/70 172/365/70 173/367/70
f 155/329/71 154/327/71 186/395/71
f 142/301/72 141/299/72 173/367/72
f 156/331/73 155/329/73 187/397/73
f 143/303/74 142/301/74 174/369/74
f 130/276/1 162/344/1 161/342/1
f 156/331/28 188/399/28 189/401/28
f 143/303/15 175/371/15 176/373/15
f 129/274/2 161/342/2 163/346/2
f 157/334/29 189/402/29 190/404/29
f 144/306/16 176/374/16 177/376/16
